<svg xmlns="http://www.w3.org/2000/svg" viewBox="0 0 188.0812 246.1937"><defs><style>.a{font-size:26px;fill:#606060;font-family:Lato-Italic, Lato;font-style:italic;}.b{fill:#e20c16;}</style></defs><title>aserin</title><text class="a" transform="translate(32.2917 208.0123)">Fibras finas<tspan x="4.5503" y="31.2002">de madera</tspan></text><circle class="b" cx="112.3263" cy="21.7687" r="1.7415"/><circle class="b" cx="82.7209" cy="28.7346" r="1.7415"/><circle class="b" cx="148.8976" cy="47.0203" r="1.7415"/><circle class="b" cx="165.4418" cy="65.306" r="1.7415"/><circle class="b" cx="115.8093" cy="91.4284" r="1.7415"/><circle class="b" cx="65.306" cy="53.9863" r="1.7415"/><circle class="b" cx="106.231" cy="67.0475" r="1.7415"/><circle class="b" cx="69.6597" cy="76.6257" r="1.7415"/><circle class="b" cx="148.8976" cy="78.3672" r="1.7415"/><circle class="b" cx="25.2516" cy="44.4081" r="1.7415"/><circle class="b" cx="135.8364" cy="66.1767" r="1.7415"/><circle class="b" cx="176.7615" cy="107.1018" r="1.7415"/><circle class="b" cx="143.6731" cy="18.2857" r="1.7415"/><circle class="b" cx="178.503" cy="20.0272" r="1.7415"/><circle class="b" cx="130.6119" cy="37.4421" r="1.7415"/><circle class="b" cx="115.8093" cy="1.7415" r="1.7415"/><circle class="b" cx="176.7615" cy="79.2379" r="1.7415"/><circle class="b" cx="93.1699" cy="86.2039" r="1.7415"/><circle class="b" cx="104.4896" cy="127.129" r="1.7415"/><circle class="b" cx="94.9113" cy="102.7481" r="1.7415"/><circle class="b" cx="81.8502" cy="121.9045" r="1.7415"/><circle class="b" cx="145.4146" cy="114.9385" r="1.7415"/><circle class="b" cx="135.8364" cy="90.5576" r="1.7415"/><circle class="b" cx="165.4418" cy="89.6869" r="1.7415"/><circle class="b" cx="122.7752" cy="109.714" r="1.7415"/><circle class="b" cx="128.8705" cy="130.6119" r="1.7415"/><circle class="b" cx="53.1155" cy="76.6257" r="1.7415"/><circle class="b" cx="79.2379" cy="44.4081" r="1.7415"/><circle class="b" cx="186.3397" cy="52.2448" r="1.7415"/><circle class="b" cx="171.537" cy="38.3128" r="1.7415"/><circle class="b" cx="53.1155" cy="25.2516" r="1.7415"/><circle class="b" cx="20.0272" cy="23.5101" r="1.7415"/><circle class="b" cx="107.9725" cy="42.6666" r="1.7415"/><circle class="b" cx="47.0203" cy="44.4081" r="1.7415"/><circle class="b" cx="82.7209" cy="9.5782" r="1.7415"/><circle class="b" cx="56.5985" cy="7.8367" r="1.7415"/><circle class="b" cx="80.9794" cy="57.4693" r="1.7415"/><circle class="b" cx="28.7346" cy="70.5304" r="1.7415"/><circle class="b" cx="1.7415" cy="60.9522" r="1.7415"/><circle class="b" cx="75.7549" cy="101.0066" r="1.7415"/><circle class="b" cx="60.0815" cy="95.7821" r="1.7415"/><circle class="b" cx="58.34" cy="121.0337" r="1.7415"/><circle class="b" cx="38.3128" cy="86.2039" r="1.7415"/><circle class="b" cx="45.2788" cy="105.3603" r="1.7415"/><circle class="b" cx="16.5442" cy="104.4896" r="1.7415"/><circle class="b" cx="20.0272" cy="86.2039" r="1.7415"/><circle class="b" cx="40.0543" cy="121.0337" r="1.7415"/></svg>