<svg xmlns="http://www.w3.org/2000/svg" viewBox="0 0 237.0863 260.2591"><defs><style>.a{font-size:26px;fill:#606060;font-family:Lato-Italic, Lato;font-style:italic;}.b{fill:#fff;stroke:#e20c16;stroke-linecap:round;stroke-linejoin:round;stroke-width:3px;}</style></defs><title>citrico</title><text class="a" transform="translate(22.1626 253.278)">Cáscara de cítrico</text><path class="b" d="M81.1065,49.5522c1.6116-2.9951,2.82-5.5033,4.2581-7.8727C98.5168,20.0044,117.4982,6.4711,142.5631,2.55c23.625-3.6958,45.0092,2.3947,63.407,17.7882C222.3007,34.0022,232.2037,51.5967,234.7935,72.7c3.8292,31.2038-6.1773,57.39-30.8019,77.3056-17.3318,14.0172-37.4125,19.2154-59.5245,16.6142a9.3587,9.3587,0,0,1-1.4479-.45c.3579-.849.5944-1.5681.9473-2.2245a82.3748,82.3748,0,0,0-8.98-91.8852c-4.5831-5.5884-9.5277-10.8639-15.6766-14.79-10.4789-6.6911-22.1-8.6285-34.3056-7.97C83.9207,49.3583,82.8381,49.4394,81.1065,49.5522Zm86.8982-36.9031c-2.3591-.6263-4.4839-.9117-6.4811-.0557a6.9807,6.9807,0,0,1-4.8863.1673,43.1309,43.1309,0,0,0-5.7573-.73l1.8318,3.8126-5.4209,4.5523.2325.6059h7.9658l3.2687,4.3467c.56-.27.69-.2931.7527-.3706a6.2461,6.2461,0,0,0,.586-.8127c1.6093-2.8247,3.915-4.2114,7.2534-3.6842,1.1483.1813,2.3337.1277,4.2026.2135L166.44,15.368Z"/><path class="b" d="M143.9681,124.6314c-.4488,37.4122-28.2541,68.5428-65.5026,71.8415-30.0147,2.6581-53.19-9.6218-69.3727-34.9964-3.0258-4.7444-5.7379-9.6736-6.8078-15.3443C.3782,136.0257,2.08,126.377,5.9319,117.0405c6.7308-16.3138,18.0127-29.0065,32.0768-39.3243,12.0579-8.846,25.3332-15.08,40.1932-17.5869,10.3-1.7373,20.5028-1.559,30.1872,2.7591a36.7961,36.7961,0,0,1,9.9093,6.2954c12.7644,11.7864,21.5691,25.9326,24.3224,43.3721C143.2517,116.5524,143.5284,120.6048,143.9681,124.6314Z"/><path class="b" d="M21.9711,107.9809c1.4779-6.3709,13.2914-18.5688,19.542-20.6153,2.5177,1.5794,13.7721,17.9579,15.7087,22.9053-1.3251,2.09-3.0416,2.8617-5.7,2.4207-8.7389-1.45-17.52-2.6437-26.2816-3.96C24.2179,108.5776,23.2182,108.2715,21.9711,107.9809Z"/><path class="b" d="M86.5683,146.0014c-1.1663-1.52-2.0262-2.5118-2.7445-3.5977q-5.36-8.1039-10.643-16.259c-.8-1.24-2.238-2.4134-1.0848-4.1766,1.1518-1.7609,2.8688-1.9613,4.7688-1.6812,5.4571.8046,10.92,1.5694,16.3761,2.3822,4.2607.6348,8.5141,1.3181,12.8139,1.9866.9718,1.5369.375,2.8415-.457,4.02A73.1662,73.1662,0,0,1,91.016,144.0076C89.8619,144.9166,88.265,145.2633,86.5683,146.0014Z"/><path class="b" d="M81.1354,149.1626c-3.6087,5.775-18.2827,12.9756-25.3183,12.68a8.8688,8.8688,0,0,1-.1215-2.5526q3.648-14.87,7.4255-29.7076c.5074-2.0044,1.6425-3.4169,4.4453-3.6756Z"/><path class="b" d="M73.6331,70.7906c-.7048,3.12-1.1668,5.3232-1.7023,7.5081-1.9709,8.0417-3.9886,16.072-5.9379,24.1188-.5478,2.2613-1.5341,4.0321-4.4081,4.666a21.3228,21.3228,0,0,1-1.7679-2.3015q-5.3794-9.1621-10.68-18.3707c-1.6091-2.7866-1.5-3.7951.766-5.943a11.089,11.089,0,0,1,2.8989-2.1095c5.1271-2.3346,10.2737-4.6337,15.4856-6.7693C69.6342,71.0378,71.2418,71.1235,73.6331,70.7906Z"/><path class="b" d="M11.0945,136.2911c-.1539-1.7156-.5607-2.9381-.3067-4.0029a95.6691,95.6691,0,0,1,3.42-12.461c2.1241-5.476,4.5317-6.4927,10.4293-5.7863,7.6284.9137,15.2738,1.6834,22.9079,2.55,1.6314.1852,3.2457.5211,5.7778.9371-1.52,1.3779-2.2873,2.5115-3.3458,2.9653-11.8,5.0585-23.6422,10.0208-35.4869,14.9754A25.7229,25.7229,0,0,1,11.0945,136.2911Z"/><path class="b" d="M118.08,96.7223c-.2911,7.4721-1.695,13.5848-4.9867,19.1508a6.5638,6.5638,0,0,1-6.6978,3.3576q-13.0635-1.4166-26.1241-2.8595c-1.2913-.1441-2.5658-.4395-3.8907-.6724-.1211-2.2858,1.4968-2.82,2.8387-3.4353,2.9423-1.35,5.941-2.5769,8.9208-3.8443,8.0606-3.4286,16.107-6.8917,24.2-10.243A44.4405,44.4405,0,0,1,118.08,96.7223Z"/><path class="b" d="M58.6164,126.8045a15.3794,15.3794,0,0,1-.0275,3.2294c-2.7186,9.5577-5.525,19.09-8.2348,28.6505a7.4334,7.4334,0,0,1-6.5262,5.8357,32.054,32.054,0,0,1-14.5032-1.6447,11.6944,11.6944,0,0,1-2.515-1.7465,34.9709,34.9709,0,0,1,2.5632-3.7051q12.5828-13.8371,25.2708-27.5781A32.0422,32.0422,0,0,1,58.6164,126.8045Z"/><path class="b" d="M69.7761,105.6355c.2836-1.5094.4074-2.66.72-3.756,2.5641-8.9835,5.123-17.9689,7.7681-26.9286,1.456-4.9318,3.74-6.7789,8.869-6.6479a78.4074,78.4074,0,0,1,11.0379,1.3305c1.1777.2,2.2281,1.15,3.7847,2.0015a33.0219,33.0219,0,0,1-2.6847,4.0861q-12.2057,13.4613-24.527,26.8175C73.5052,103.8858,72.3011,105.4011,69.7761,105.6355Z"/><path class="b" d="M75.4478,107.6961c2.752-2.946,5.4762-5.9186,8.2617-8.8327q9.0811-9.5,18.2144-18.95a30.5663,30.5663,0,0,1,2.3077-2.27c3.4353-2.8816,5.44-2.8067,8.1426.6606a33.2206,33.2206,0,0,1,3.888,6.4451c1.4093,3.0474.6531,5.2177-2.13,7.14a17.9475,17.9475,0,0,1-2.85,1.52q-16.2345,7.31-32.4909,14.5719a19.7491,19.7491,0,0,1-2.8053.7951Z"/><path class="b" d="M53.3129,124.9925c-.894,1.0773-1.7287,2.2109-2.6912,3.2229Q38.2055,141.269,25.74,154.2757a14.9671,14.9671,0,0,1-2.4563,2.1021c-2.3059,1.5393-4.3439,1.462-6.0421-.7371a44.914,44.914,0,0,1-4.9-7.9075c-1.2666-2.63-.39-4.8759,2.0927-6.5284a28.7651,28.7651,0,0,1,4.14-2.1689q15.0989-6.8083,30.227-13.5515c1.26-.5609,2.61-.9172,3.9187-1.3683Z"/></svg>