<svg xmlns="http://www.w3.org/2000/svg" viewBox="0 0 231.7489 176.6642"><defs><style>.a,.b{opacity:0.6;}.b,.c,.e{fill:#e20c16;}.c{opacity:0.9;}.d{opacity:0.7;}.f{fill:#fff;}</style></defs><title>eco</title><g class="a"><path class="b" d="M231.2676,75.9806l-.5259-.0307.0456-.0263L104.187,2.8245.7742,62.5351l-.5258-.0306v37.269a8.7938,8.7938,0,0,0,4.4065,7.6212l118.2925,68.0969a8.7937,8.7937,0,0,0,8.766.0049l95.1392-54.6274a8.7938,8.7938,0,0,0,4.415-7.626Z"/><path class="c" d="M229.6217,78.61l-99.9755,57.7258a3.7524,3.7524,0,0,1-3.7529,0L1.8762,64.7282a3.7525,3.7525,0,0,1,0-6.4995L101.8517.5028a3.7527,3.7527,0,0,1,3.7528,0L229.6217,72.11A3.7527,3.7527,0,0,1,229.6217,78.61Z"/></g><g class="d"><path class="e" d="M231.7489,107.2644c-1.9251,0-6.8677,5.4675-10.7628,6.2037a9.4142,9.4142,0,0,0-3.0981.8443c-1.1225.66-1.8048,1.8748-2.8428,2.661a10.0364,10.0364,0,0,1-3.1517,1.3578c-8.6658,2.71-16.5829,4.8863-22.677,11.6169-1.2806-.972-3.0924-.0892-4.435.7952-4.639,3.0562-9.2781,9-13.9172,12.0564a3.0769,3.0769,0,0,0-1.5909-2.4286,82.8157,82.8157,0,0,0-11.7957,11.6442c-3.2561-1.8344-8.0229.8921-8.0925,4.6287l-15.0362,4.1481a5.9359,5.9359,0,0,1-7.181,2.9451,100.1478,100.1478,0,0,1-27.3557-11.59c-.4155-.2546,0,.2186-.445.0195a29.7039,29.7039,0,0,1-9.9193-7.0957l-4.1361-.4765a6.8414,6.8414,0,0,0-.9607-4.366c-2.0274,1.5729-5.0115.3273-6.98-1.319s-3.8525-3.7736-6.4068-4.0183c-1.6079-.1539-3.4561.4326-4.7056-.591-1.1443-.9374-1.1287-2.7628-2.1577-3.8254-1.8276-1.8874-5.4093-.1527-7.4723-1.78-1.41-1.1122-1.4326-3.2714-2.5325-4.6912-2.0233-2.6117-6.5571-1.618-8.874-3.9731-1.171-1.19-1.88-3.252-3.55-3.272-.8272-.01-1.5643.5463-2.3871.6316-3.17.3288-3.0675-5.1566-5.6789-6.9827a1.9611,1.9611,0,0,0-2.1544,1.1579,18.3563,18.3563,0,0,0-3.2828-5.8653l-2.0857,3.0135-12.6157-8.2213-1.8.506c-4.3039-.32-8.05-7.2106-11.4323-7.353L.73,76.4619c2.1608.1058,3.6124,2.3125,5.5365,4.9655l2.6472-.6409L10.8391,83.89c.6666-2.1271,4.4786-1.8875,4.8737.3063l1.2309-2.537c3.6423,9.3184,20.0637,9.215,21.84,19.061l1.8524-1.9242,2.9072,6.0217c2.1465-1.8317,6.1132-.2174,6.3707,2.5928,1.4552-1.3469,3.7461.0231,5.2061,1.3647l10.3193,9.4822a1.9839,1.9839,0,0,1,2.231-1.1689l2.124,4.156c.5752-1.1425,2.2616-1.246,3.37-.6073a11.4133,11.4133,0,0,1,2.6589,2.7353,12.7508,12.7508,0,0,0,11.0587,4.2635c.439,2.6424,1.3756,5.8353,3.9969,6.3869a19.1029,19.1029,0,0,0,2.6148.0813,5.2592,5.2592,0,0,1,3.9418,2.2839l3.8079,6.5428c-.04-1.7955,2.176-2.91,3.9343-2.5441s3.1478,1.6567,4.5866,2.7315a22.2665,22.2665,0,0,0,14.2475,4.3614l1.1728,2.2772,8.5622-.3771c.7546-3.6047,5.13-4.8264,8.63-5.9743,6.6221-2.1721,12.3554-6.3749,17.9638-10.512,2.9147-2.15,5.9858-1.6183,7.1769-5.0388l11.25-9.8617c.7892.6476,1.5783-1.5925,2.3674-.9448a2.6543,2.6543,0,0,1,3.9823-1.4014,15.0686,15.0686,0,0,1,8.18-7.3868l1.7871,1.7978a71.5582,71.5582,0,0,0,9.0069-9.6631,3.0422,3.0422,0,0,1,2.2838,1.5409l13.4515-9.6387c3.5565-2.5484,7.111-6.21,11.5266-6.07Z"/></g><path class="f" d="M122.2219,40.1813l-2.7408,5.73,20.27-7.7724c-.0726,1.71-.1292,3.0456-.1892,4.4582,2.9754.5468,5.7046,1.0365,8.42,1.55,4.5761.8655,7.3277,2.6122,8.4751,5.3731,1.7287,4.16,3.7748,8.2763,5.7137,12.4068,1.0978,2.3387,2.3121,4.66,3.36,7.0054.8569,1.9181.2982,3.6726-2.2265,5.1325-2.9739,1.72-5.9461,3.4409-8.8635,5.1923-1.4529.8722-2.7454,1.833-4.18,2.7158-.8816.5423-1.8956,1.013-3.09,1.6419l-5.7343-2.9375-.656.1118c.4151,4.2234.83,8.4467,1.28,13.0217L135.4284,91.33c-1.8585,1.0445-3.5805,2.1029-5.4731,3.0473a27.5009,27.5009,0,0,1-4.8239,1.9742,14.8375,14.8375,0,0,1-6.4364.3438q-17.2807-2.7495-34.6369-5.34c-4.1392-.6144-6.7912-1.8464-7.8894-4.3343-1.5573-3.5279-3.5-6.9989-5.2578-10.4976-.2722-.5418-.4373-1.1015-.7493-1.903l9.38-1.491c-7.399-2.4513-14.56-4.3019-22.1976-6.5608L64.1456,64.52c-.2815-.7411-.5445-1.4639-.8317-2.1835-.8677-2.1732-2.2353-4.34-.9412-6.591a6.18,6.18,0,0,1,2.1943-2.2933c8.5439-5.0149,17.1876-9.973,25.8039-14.9467a14.3648,14.3648,0,0,1,9.4139-1.6127C107.0885,37.93,114.3669,39.026,122.2219,40.1813ZM89.36,52.2929c1.038,2.739,1.8769,4.9527,2.7255,7.1922l8.5458.1723C95.8432,64.1088,90.18,67.7526,85.4813,72.2925L96.5093,70.94c.6306.9195,1.2689,1.7221,1.7377,2.5565,1.7422,3.101,3.4053,6.2169,5.1558,9.3164a17.9179,17.9179,0,0,0,1.6316,2.0218c3.1807-1.9442,6.3971-3.3846,8.8461-5.2105l-3.8328-4.0826c4.78.2272,8.795.394,12.8009.6153,3.9643.219,7.9085.63,12.2928.57-1.9977-1.9142-5.2292-2.829-6.6783-4.6581,2.8494-1.8209,5.5791-3.57,8.319-5.3148,2.7055-1.7224,5.4212-3.4394,8.5662-5.4339l-12.5172-2.2551-4.3711,4.327L118.0407,50.22l-.71.02-3.061,5.086Zm49.8323,38.7239c-.4761-4.4328-.9021-8.3993-1.3417-12.4928l-23.2247-1.4408,2.6833,2.9727L105.3879,86.367c1.09,2.0164,2.224,3.9413,3.1531,5.8986.5771,1.2159,1.8548,1.7839,3.9133,2.01,1.95.2143,3.8784.5166,5.7775.8531a13.1335,13.1335,0,0,0,6.1313-.2185,34.7675,34.7675,0,0,0,5.164-2.0061c1.9769-.9775,3.7235-2.11,5.516-3.1451ZM73.65,50.3131c-1.7573,1.0146-3.4452,2.1122-5.3512,3.0642-4.14,2.068-4.7587,4.5876-3.2946,7.4642.7079,1.3909,1.2638,2.8076,1.9061,4.252l-4.2114,1.3793,19.6,5.6016L96.0605,61.3261l-5.6958-.29c-.4335-1.0343-.8461-1.9509-1.1989-2.8752-.642-1.6823-1.2791-3.3656-1.8564-5.0554-.2676-.7834-.9672-1.2413-2.34-1.4041C81.298,51.2656,77.6354,50.8038,73.65,50.3131Zm63.6123-6.5666c-.0821-.9091-.1509-1.6712-.2516-2.7867l-17.7561,6.8508a153.2,153.2,0,0,0,9.2789,12.3239l3.2761-2.7494L146.683,60.186c2.3941-1.3823,4.5706-2.6432,6.7558-3.8992,1.9474-1.1192,2.9551-2.3459,1.6956-3.9479a6.5012,6.5012,0,0,1-.8519-1.8478c-1.27-3.321-5.0333-5.1048-10.6118-5.8109C141.5357,44.41,139.4293,44.0646,137.2625,43.7465Z"/></svg>