<svg xmlns="http://www.w3.org/2000/svg" viewBox="0 0 199.6354 277.3669"><defs><style>.a{font-size:26px;fill:#606060;font-family:Lato-Italic, Lato;font-style:italic;}.b,.c,.d,.f{fill:#e20c16;}.b{opacity:0.2;}.c{opacity:0.3;}.d{opacity:0.5;}.e{fill:none;stroke:#e20c16;stroke-linecap:round;stroke-linejoin:round;stroke-width:3px;}.g{opacity:0.7;}.h{opacity:0.8;}.i{opacity:0.9;}.j{opacity:0.45;}.k{opacity:0.6;}</style></defs><title>fibra_disuelta</title><text class="a" transform="translate(41.7328 239.186)">Mezcla con<tspan x="-35.8853" y="31.2002">partículas gruesas</tspan></text><path class="b" d="M168.2473,60.3463c-38.1457-22.0254-99.9922-22.0254-138.138,0C8.1624,73.0184-1.13,90.2192,2.1767,106.7387H1.5v14.1091c0,14.4339,9.5364,28.8679,28.6093,39.88,38.1458,22.0253,99.9923,22.0253,138.138,0,19.0729-11.0126,28.6093-25.4466,28.6093-39.88V106.7387H196.18C199.4871,90.2192,190.1942,73.0184,168.2473,60.3463Z"/><ellipse class="c" cx="99.1783" cy="100.2268" rx="97.6783" ry="56.3995"/><circle class="d" cx="83.1136" cy="145.7817" r="1.4783"/><circle class="d" cx="108.2446" cy="139.8686" r="1.4783"/><circle class="d" cx="52.0695" cy="124.3465" r="1.4783"/><circle class="d" cx="38.0257" cy="108.8244" r="1.4783"/><circle class="d" cx="80.157" cy="86.6501" r="1.4783"/><circle class="d" cx="123.0275" cy="118.4333" r="1.4783"/><circle class="d" cx="88.2876" cy="107.3461" r="1.4783"/><circle class="d" cx="119.3317" cy="99.2155" r="1.4783"/><circle class="d" cx="52.0695" cy="97.7372" r="1.4783"/><circle class="d" cx="157.0282" cy="126.5639" r="1.4783"/><circle class="d" cx="63.1567" cy="108.0853" r="1.4783"/><circle class="d" cx="28.4168" cy="73.3454" r="1.4783"/><circle class="d" cx="56.5043" cy="148.7383" r="1.4783"/><circle class="d" cx="26.9385" cy="147.26" r="1.4783"/><circle class="d" cx="67.5915" cy="132.4771" r="1.4783"/><circle class="d" cx="80.157" cy="162.7821" r="1.4783"/><circle class="d" cx="28.4168" cy="96.9981" r="1.4783"/><circle class="d" cx="99.3748" cy="91.0849" r="1.4783"/><circle class="d" cx="89.7659" cy="56.3451" r="1.4783"/><circle class="d" cx="97.8965" cy="77.0412" r="1.4783"/><circle class="d" cx="108.9837" cy="60.78" r="1.4783"/><circle class="d" cx="55.0261" cy="66.6931" r="1.4783"/><circle class="d" cx="63.1567" cy="87.3892" r="1.4783"/><circle class="d" cx="38.0257" cy="88.1283" r="1.4783"/><circle class="d" cx="74.2438" cy="71.128" r="1.4783"/><circle class="d" cx="69.0698" cy="53.3885" r="1.4783"/><circle class="d" cx="133.3755" cy="99.2155" r="1.4783"/><circle class="d" cx="111.2011" cy="126.5639" r="1.4783"/><circle class="d" cx="20.2862" cy="119.9116" r="1.4783"/><circle class="d" cx="32.8517" cy="131.7379" r="1.4783"/><circle class="d" cx="133.3755" cy="142.8251" r="1.4783"/><circle class="d" cx="161.4631" cy="144.3034" r="1.4783"/><circle class="d" cx="86.8093" cy="128.0422" r="1.4783"/><circle class="d" cx="138.5495" cy="126.5639" r="1.4783"/><circle class="d" cx="108.2446" cy="156.1298" r="1.4783"/><circle class="d" cx="130.4189" cy="157.6081" r="1.4783"/><circle class="d" cx="109.7228" cy="115.4767" r="1.4783"/><circle class="d" cx="154.0716" cy="104.3896" r="1.4783"/><circle class="d" cx="176.9851" cy="112.5202" r="1.4783"/><circle class="d" cx="114.1577" cy="78.5195" r="1.4783"/><circle class="d" cx="127.4623" cy="82.9543" r="1.4783"/><circle class="d" cx="128.9406" cy="61.5191" r="1.4783"/><circle class="d" cx="145.941" cy="91.0849" r="1.4783"/><circle class="d" cx="140.0278" cy="74.8237" r="1.4783"/><circle class="d" cx="164.4196" cy="75.5629" r="1.4783"/><circle class="d" cx="161.4631" cy="91.0849" r="1.4783"/><circle class="d" cx="144.4627" cy="61.5191" r="1.4783"/><ellipse class="e" cx="99.1783" cy="57.8995" rx="97.6783" ry="56.3995"/><path class="e" d="M46.311,128.5817A60.3847,60.3847,0,0,1,36.73,121.81C17.57,105.0533,20.7629,82.282,46.311,67.5306c29.1977-16.8588,76.5368-16.8588,105.7346,0,25.4961,14.7215,28.7285,37.43,9.697,54.1769a60.2373,60.2373,0,0,1-9.697,6.8742"/><polygon class="f" points="48.156 121.01 55.633 133.963 40.676 133.964 48.156 121.01"/><path class="e" d="M168.2473,18.019c-38.1457-22.0253-99.9922-22.0253-138.138,0C11.0364,29.0316,1.5,43.4656,1.5,57.9v62.9483c0,14.4339,9.5364,28.8679,28.6093,39.88,38.1458,22.0253,99.9923,22.0253,138.138,0,19.0729-11.0126,28.6093-25.4466,28.6093-39.88V57.9C196.8566,43.4656,187.32,29.0316,168.2473,18.019Z"/><g class="g"><path class="f" d="M81.5875,88.39c-.8957.1172-.9373-.1947-.979-.548a1.426,1.426,0,0,1-.0094-.83h0A4.196,4.196,0,0,1,81.63,84.3382a12.524,12.524,0,0,1,4.5484-3.9253c.0824.2419.1742.05.272.0035.9074-.4282,1.68-.9453,2.6444-1.3341-.107-.1191.024-.176.5771-.4116a15.2943,15.2943,0,0,1,4.6045-1.1538,11.4938,11.4938,0,0,1,5.39.5685c.0881.0457.1787.09.27.1351-.088-.0457-.1754-.0917-.27-.1351,1.3592.4839,2.2894,1.2569,3.5945,1.7773h0a27.4792,27.4792,0,0,1,4.11,2.037,1.9333,1.9333,0,0,1,1.1557,1.3757,4.9612,4.9612,0,0,1-.9063,4.3475,5.8763,5.8763,0,0,1-1.8736,2.1331,7.9066,7.9066,0,0,1-2.4765,1.7108A16.1187,16.1187,0,0,1,96.718,93.5a10.9494,10.9494,0,0,1-5.8945-.67c-.25-.082-.364-.2354-.2958-.4062.0748-.1867.3428-.2256.6251-.239,1.3252-.0632,2.6058-.261,3.8967-.4279h0a21.08,21.08,0,0,0,6.2921-2.5961h0a2.0982,2.0982,0,0,0,.2777-.2694c.1172-.1686.4463-.3516.2152-.5159-.1806-.1284-.5688-.0561-.8671-.0272q-1.2067.1168-2.413.2344c-.2262.0222-.5107.1324-.6477-.0343-.1138-.1384.1239-.2574.2842-.36.3852-.246.7792-.4873,1.17-.7306h0a14.6122,14.6122,0,0,0,2.5065-2.8856h0c.279-.6205.5606-1.2407.8355-1.8618.0926-.2093.1664-.4251-.3052-.5226-.62-.1282-.6465-.4205-.6175-.7273.0268-.282.0753-.5651-.4435-.7362a17.8471,17.8471,0,0,0-6.69,1.0164c-.29.1508-.5743.3048-.8694.4516a24.497,24.497,0,0,0-4.9013,3.0414c-2.028,2.026-2.755,4.1645-1.6725,6.459a14.6977,14.6977,0,0,0,1.6747,2.0584,1.8019,1.8019,0,0,1-.3118-.0388A20,20,0,0,1,82.43,88.8441C82.2564,88.6251,82.1182,88.3209,81.5875,88.39Z"/></g><g class="g"><path class="f" d="M93.5875,62.39c-.8957.1172-.9373-.1947-.979-.548a1.426,1.426,0,0,1-.0094-.83h0A4.196,4.196,0,0,1,93.63,58.3382a12.524,12.524,0,0,1,4.5484-3.9253c.0824.2419.1742.05.272.0035.9074-.4282,1.68-.9453,2.6444-1.3341-.107-.1191.024-.176.5771-.4116a15.2943,15.2943,0,0,1,4.6045-1.1538,11.4938,11.4938,0,0,1,5.39.5685c.0881.0457.1787.09.27.1351-.088-.0457-.1754-.0917-.27-.1351,1.3592.4839,2.2894,1.2569,3.5945,1.7773h0a27.4792,27.4792,0,0,1,4.11,2.037,1.9333,1.9333,0,0,1,1.1557,1.3757,4.9612,4.9612,0,0,1-.9063,4.3475,5.8763,5.8763,0,0,1-1.8736,2.1331,7.9066,7.9066,0,0,1-2.4765,1.7108A16.1187,16.1187,0,0,1,108.718,67.5a10.9494,10.9494,0,0,1-5.8945-.67c-.25-.082-.364-.2354-.2958-.4062.0748-.1867.3428-.2256.6251-.239,1.3252-.0632,2.6058-.261,3.8967-.4279h0a21.08,21.08,0,0,0,6.2921-2.5961h0a2.0982,2.0982,0,0,0,.2777-.2694c.1172-.1686.4463-.3516.2152-.5159-.1806-.1284-.5688-.0561-.8671-.0272q-1.2067.1168-2.413.2344c-.2262.0222-.5107.1324-.6477-.0343-.1138-.1384.1239-.2574.2842-.36.3852-.246.7792-.4873,1.17-.7306h0a14.6122,14.6122,0,0,0,2.5065-2.8856h0c.279-.62.5606-1.2407.8355-1.8618.0926-.2093.1664-.4251-.3052-.5226-.62-.1282-.6465-.4205-.6175-.7273.0268-.282.0753-.5651-.4435-.7362a17.8471,17.8471,0,0,0-6.69,1.0164c-.29.1508-.5743.3048-.8694.4516a24.497,24.497,0,0,0-4.9013,3.0414c-2.028,2.026-2.755,4.1645-1.6725,6.459a14.6977,14.6977,0,0,0,1.6747,2.0584,1.8019,1.8019,0,0,1-.3118-.0388A20,20,0,0,1,94.43,62.8441C94.2564,62.6251,94.1182,62.3209,93.5875,62.39Z"/></g><g class="h"><path class="f" d="M86.5339,107.3368c0-1.9466-1.1-3.5833-3.6819-4.8739a15.5352,15.5352,0,0,0-5.4332-1.5357h0l-.4385-.0629h0a15.2381,15.2381,0,0,0-4.1058.0386h0a14.9851,14.9851,0,0,0-4.4721.94h0a7.9874,7.9874,0,0,0-4.0633,2.5972c-.2457.3122-.4259.6415-.6361.963h0a4.1994,4.1994,0,0,0-.7789,2.63c-.1283,1.9824,1.0177,3.7387,3.06,5.314a17.1321,17.1321,0,0,0,6.9649,2.821,37.22,37.22,0,0,0,5.77.7568c.4153.0209.7541.061.7413-.2842-.0094-.2518.2791-.2763.62-.2026.1871.04.3638.0973.5514.137.18.038.4.123.54-.0062.1055-.0978-.058-.1925-.1834-.26-.346-.1853-.4739-.3468.0856-.4765.3623-.084.3706-.2249.1193-.367a.7215.7215,0,0,1-.3593-.4647c.0267-.0405.0807-.0822.0758-.1213-.0323-.2516.6342-.4525.3032-.6588a3.5832,3.5832,0,0,0-1.147-.063c-.4473-.012-.8951-.0174-1.3426-.0256l-3.0367-.4891a16.8716,16.8716,0,0,1-3.84-1.4944c-3.1238-1.9036-3.9318-4.1668-3.0468-6.6664.35-.9881,1.543-1.6632,2.9788-2.1952h0a3.0438,3.0438,0,0,1,1.4365-.0093c1.0024.1834,1.9322.4572,2.8915.6942a21.7131,21.7131,0,0,1,3.0446,1.4125,4.4783,4.4783,0,0,1,2.2174,2.9235.5131.5131,0,0,1-.3037.5961,5.5352,5.5352,0,0,1-3.8907-.2751c-.3467-.1655-.6667-.22-.8339.1-.1018.1948-.3646.2565-.6623.2995h0c-.4411-.0975-.7794-.0533-.9782.22-.0561.0771-.1649.1975-.2588.2005-.7941.0252-1.0823.4279-1.5983.663-.3584.1633-.29.2676-.0781.4185a6.0488,6.0488,0,0,0,2.7151,1.1006c.5086.0758,1.0136.16,1.52.24a4.8557,4.8557,0,0,0,1.5662,0C82.64,111.8093,86.5343,110.1926,86.5339,107.3368ZM63.7032,105.403c.0339-.0216.069-.0425.1031-.064A.1792.1792,0,0,1,63.7032,105.403ZM76.98,100.8643a.4187.4187,0,0,1-.1309.014Z"/></g><g class="h"><path class="f" d="M22.1842,96.7689c1.4783-.0526,2.6917-.9315,3.6023-2.9275a11.8042,11.8042,0,0,0,1.02-4.1676h0l.036-.3347h0a11.5813,11.5813,0,0,0-.14-3.1172h0a11.3825,11.3825,0,0,0-.8343-3.371h0a6.0712,6.0712,0,0,0-2.0819-3.016c-.2437-.1782-.4987-.3061-.7485-.4571h0a3.1906,3.1906,0,0,0-2.0183-.5207c-1.5089-.0441-2.8119.8736-3.9533,2.4668A13.0215,13.0215,0,0,0,15.1114,86.69a28.2967,28.2967,0,0,0-.4193,4.4028c-.0047.3159-.0261.5743.2358.5553.191-.0139.2173.2045.1705.4655-.0256.1432-.064.2789-.0891.4225-.0241.1375-.0826.3073.0192.41.0771.0775.1446-.0492.1922-.1463.1314-.2677.2507-.3692.3642.0523.0736.2728.1808.2753.2819.0807a.5483.5483,0,0,1,.3433-.2854c.0314.0191.0646.0591.0941.0542.19-.0313.3607.4695.5085.2126a2.7237,2.7237,0,0,0,.017-.8728c-.0029-.34-.0109-.68-.0167-1.02q.1448-1.16.29-2.3194a12.8271,12.8271,0,0,1,1.0315-2.9563c1.3616-2.4236,3.0587-3.0982,4.9809-2.4934.76.2391,1.3046,1.127,1.7473,2.2032h0a2.3135,2.3135,0,0,1,.0458,1.0907c-.1123.7662-.2952,1.48-.4494,2.2147a16.5029,16.5029,0,0,1-.9907,2.35,3.4036,3.4036,0,0,1-2.1606,1.7628.39.39,0,0,1-.4609-.2146,4.2068,4.2068,0,0,1,.1042-2.9622c.1163-.2677.1493-.5123-.0982-.6306-.1507-.0721-.2046-.27-.2452-.495h0c.0622-.3376.02-.5933-.1933-.7369-.06-.0406-.1545-.12-.1593-.1912-.04-.6024-.354-.8105-.5465-1.196-.1337-.2677-.211-.2131-.32-.048a4.5976,4.5976,0,0,0-.7627,2.0916c-.0439.3883-.0938.7741-.141,1.1611a3.6913,3.6913,0,0,0,.042,1.19C18.6826,93.932,20.0153,96.8461,22.1842,96.7689ZM23.038,79.378c.0173.0251.0341.0512.0514.0766A.1369.1369,0,0,1,23.038,79.378Zm3.8044,9.9609a.3191.3191,0,0,1-.0141-.099Z"/></g><path class="f" d="M113.5833,113.4715h0a3.9894,3.9894,0,0,0,.8661,2.54c.1822.4659.7429.83,1.0248,1.2688a8.1171,8.1171,0,0,0,1.78,1.6937,9.1181,9.1181,0,0,0,1.597,1.2946.4156.4156,0,0,0,.3782.1631c.2036-.0328.1554-.1611.1787-.2527.0911-.3593.2821-.6508,1.0453-.6759a.5779.5779,0,0,0,.5474-.2892c.1026-.2586.3273-.2628.6237-.0908.0512.1375.0089.3368.3385.341.18.0023.0853-.157.0833-.2467h0c.1822-.3738.199-.3764,1.0113-.159h0c.07.0509.1564.1256.2677.0838.1426-.0536.0091-.1165-.06-.158a18.12,18.12,0,0,1-1.9444-1.49h0a15.64,15.64,0,0,1-2.4074-2.7,10.1361,10.1361,0,0,1-.9356-2.1326c.0339-.3206-.184-.6527.1307-.9607h0a6.4723,6.4723,0,0,1,3.8652-.9314,3.2027,3.2027,0,0,1,1.0121.114l1.865.4844c.0581.0273.114.0565.1747.0817.4845.201.5368.19.6162-.1619a1.3875,1.3875,0,0,1,.2894-.49,8.9261,8.9261,0,0,0,1.3949.0959,6.1559,6.1559,0,0,0-1.3016-.6642c-.1933-.1493-.1345-.2409.1916-.2534.317-.012.6355-.01.9532-.0163.6181-.012.9791-.167,1.066-.4938.0723-.2719-.3672-.3112-.65-.417h0a12.4262,12.4262,0,0,0-3.7657-.9761h0a9.8774,9.8774,0,0,0-4.8574.4593,12.02,12.02,0,0,0-3.6047,1.7518,3.521,3.521,0,0,0-1.7748,3.1864Z"/><g class="i"><path class="f" d="M107.4393,141.841h0a23.9589,23.9589,0,0,1,3.7012,4.6311c.6694.8657,1.0257,1.8362,1.6126,2.73a26.6808,26.6808,0,0,1,1.9882,3.9332,25.184,25.184,0,0,1,1.4256,3.1727c.0833.1806.2422.4332.109.5242s-.3186-.1459-.4739-.2746c-.6087-.5049-1.1491-.8321-1.4934-.3352-.1193.1723-.3765.1522-.679-.0732-.4529-.3374-.5491-.186-.3933.2947.1987.2538.533.54.4082.778-.0679.13-.284-.1886-.4261-.332h0c-.6681-.4637-.6789-.456-.6565.4593v0c.0532.13.1378.3089.0267.3209-.1422.0154-.1891-.178-.2276-.2924-.4188-1.2439-1.0535-2.4845-1.5984-3.7264h0a60.2452,60.2452,0,0,0-3.3405-5.9671c-.9324-1.4012-1.9757-2.72-3.024-4.0343-.5244-.484-.9665-1.163-1.5825-1.4294h0q-2.2234-.5186-3.0248,1.2426a1.37,1.37,0,0,0-.222.8921q.0141,1.0391.0281,2.0782c.02.0841.0446.17.0606.2522.127.659.0877.6774-.5036.1769a5.1219,5.1219,0,0,0-.8951-.5716c-.2219.2788-.0425.9061-.4034,1.1325a9.5194,9.5194,0,0,1-.5392-1.9668c-.1608-.3724-.33-.476-.48-.2665-.1457.2038-.27.4308-.4061.6444-.2655.4155-.6564.4239-1.2116-.0325-.462-.38-.3493-.7508-.4053-1.117h0a8.9289,8.9289,0,0,1-.0534-4.1929h0a2.941,2.941,0,0,1,2.6684-2.6876,8.1715,8.1715,0,0,1,4.2277.2394,13,13,0,0,1,5.7834,3.7976Z"/></g><g class="i"><path class="f" d="M132.4393,127.841h0a23.9589,23.9589,0,0,1,3.7012,4.6311c.6694.8657,1.0257,1.8362,1.6126,2.73a26.6808,26.6808,0,0,1,1.9882,3.9332,25.184,25.184,0,0,1,1.4256,3.1727c.0833.1806.2422.4332.109.5242s-.3186-.1459-.4739-.2746c-.6087-.5049-1.1491-.8321-1.4934-.3352-.1193.1723-.3765.1522-.679-.0732-.4529-.3374-.5491-.186-.3933.2947.1987.2538.533.54.4082.778-.0679.13-.284-.1886-.4261-.332h0c-.6681-.4637-.6789-.456-.6565.4593v0c.0532.13.1378.3089.0267.3209-.1422.0154-.1891-.178-.2276-.2924-.4188-1.2439-1.0535-2.4845-1.5984-3.7264h0a60.2452,60.2452,0,0,0-3.34-5.9671c-.9324-1.4012-1.9757-2.72-3.024-4.0343-.5244-.484-.9665-1.163-1.5825-1.4294h0q-2.2234-.5186-3.0248,1.2426a1.37,1.37,0,0,0-.222.8921q.0141,1.0391.0281,2.0782c.02.0841.0446.17.0606.2522.127.659.0877.6774-.5036.1769a5.1219,5.1219,0,0,0-.8951-.5716c-.2219.2788-.0425.9061-.4034,1.1325a9.5194,9.5194,0,0,1-.5392-1.9668c-.1608-.3724-.33-.476-.48-.2665-.1457.2038-.27.4308-.4061.6444-.2655.4155-.6564.4239-1.2116-.0325-.462-.38-.3493-.7508-.4053-1.117h0a8.9289,8.9289,0,0,1-.0534-4.1929h0a2.941,2.941,0,0,1,2.6684-2.6876,8.1715,8.1715,0,0,1,4.2277.2394,13,13,0,0,1,5.7834,3.7976Z"/></g><g class="i"><path class="f" d="M156.2507,76.8084h0a23.9669,23.9669,0,0,1,5.9258-.1778c1.0942-.0152,2.0841.2828,3.1509.35a26.6823,26.6823,0,0,1,4.3389.7727,25.1879,25.1879,0,0,1,3.3929.7657c.1944.0419.4919.0665.4846.2277s-.308.1671-.5041.214c-.7693.1834-1.3556.419-1.165.9926.0661.199-.1044.3925-.4663.499-.5418.16-.4786.3274-.0006.4915.3222-.0065.7515-.1021.8672.1408.063.1324-.3214.1138-.5215.1413h0c-.772.2556-.7724.2689-.0271.8007l0,0c.136.0354.33.0753.2727.1713-.0731.1229-.2559.0443-.37.0064-1.2461-.4123-2.6191-.65-3.9394-.96h0a60.2619,60.2619,0,0,0-6.7773-.913c-1.68-.096-3.361-.0538-5.0418-.0051a6.8354,6.8354,0,0,0-2.0933.4067h0q-1.75,1.4663-.8232,3.1648a1.37,1.37,0,0,0,.58.7132l1.6784,1.2258c.08.0342.1625.0662.2381.103.6032.2942.5943.3367-.161.5089a5.1113,5.1113,0,0,0-.9946.3724c.09.3448.6989.5781.6632,1.0027a9.5154,9.5154,0,0,1-1.8964-.75c-.3943-.0951-.5789-.0219-.5013.2237.0754.2388.1825.4742.2713.7117.1727.4618-.0554.7794-.7537.9492-.5811.1413-.81-.1717-1.1365-.3468h0a8.9285,8.9285,0,0,1-3.3845-2.4756h0a2.941,2.941,0,0,1-.5461-3.7477,8.17,8.17,0,0,1,2.7306-3.2365,13.0006,13.0006,0,0,1,6.51-2.3433Z"/></g><g class="g"><path class="f" d="M71.9828,143.0912c.5035.6332,1.5925.3739,2.5443.2958l.529-.0363a.229.229,0,0,1,.0857-.0123c-.03.0038-.0541.0088-.0857.0123.3237.4221.9046.5035,1.3985.7281a.5583.5583,0,0,0,.0758-.5242,10.7611,10.7611,0,0,1,.2934-4.5441,18.7869,18.7869,0,0,1,2.1251-4.9464h0c.2836-.4427.5525-.89.8536-1.3272a10.239,10.239,0,0,1,3.2619-3.2819c.322-.11.3828.0819.442.2835a6.3167,6.3167,0,0,1,.028,2.1473h0a14.4245,14.4245,0,0,1-.687,1.8208l-.0041.0048a1.4836,1.4836,0,0,1-.7772.3554h0a1.0108,1.0108,0,0,0-1.122.2435c-1.126,1.0657-1.6868,3.1765-1.0188,3.7727h0a8.2829,8.2829,0,0,0,3.0491-.2608,4.5048,4.5048,0,0,0,1.5529-.3707,3.7261,3.7261,0,0,0,2.027-1.7048,9.875,9.875,0,0,0,1.0948-2.4875l0-.0006a8.2522,8.2522,0,0,0,.6585-2.71,3.2791,3.2791,0,0,0,.01-1.5574,1.975,1.975,0,0,0-.3909-1.2836.39.39,0,0,0-.1123-.143c-.0724-.1474-.1009-.3438-.2237-.4345-1.39-1.0268-3.2805-1.0958-5.6789-.1783h0a13.8266,13.8266,0,0,0-6.6624,5.6261,5.3994,5.3994,0,0,0-.3743.454,22.4148,22.4148,0,0,0-3.1878,7.017A3.578,3.578,0,0,0,71.9828,143.0912Z"/></g><path class="f" d="M59.2991,113.2581a7.4679,7.4679,0,0,0-2.9342-.16l-.5574.02a.3919.3919,0,0,1-.0867.0066c.03-.002.0542-.0047.0867-.0066a10.6319,10.6319,0,0,0-1.9176-.393c-.0238.1568.1054.2168.2.2829a6.6668,6.6668,0,0,1,2.1309,2.4524,4.0915,4.0915,0,0,1,.35,2.6694h0c-.0706.239-.1226.48-.2151.7163a2.8715,2.8715,0,0,1-1.7872,1.7711.7737.7737,0,0,1-.6349-.1531,4.9563,4.9563,0,0,1-1.1887-1.1589h0c-.0428-.33-.29-.6444-.2328-.9827l.0019-.0026a1.2864,1.2864,0,0,1,.6559-.1917h0c.393.0339.82.1083,1.0923-.1314.6532-.5751.1263-1.7143-.9238-2.0361h0a15.8479,15.8479,0,0,0-3.1844.1407,6.4225,6.4225,0,0,0-1.4936.2c-.7413.1581-1.2171.455-1.291.92a2.1069,2.1069,0,0,0,.1476,1.3424v0a2.8943,2.8943,0,0,0,.7435,1.4626,2.43,2.43,0,0,0,.83.8406,3.1051,3.1051,0,0,0,1.1185.6927,1.0652,1.0652,0,0,0,.2.0772,2.4848,2.4848,0,0,0,.4783.2345,12.7569,12.7569,0,0,0,6.2892.0965h0c2.484-.5133,3.6756-1.6269,4.2313-3.0361a1.1547,1.1547,0,0,0,.1633-.245,4.7372,4.7372,0,0,0-.3081-3.7869A3.5219,3.5219,0,0,0,59.2991,113.2581Z"/><path class="f" d="M34.2991,100.2581a7.4679,7.4679,0,0,0-2.9342-.16l-.5574.02a.3919.3919,0,0,1-.0867.0066c.03-.002.0542-.0047.0867-.0066a10.6319,10.6319,0,0,0-1.9176-.393c-.0238.1568.1054.2168.2.2829a6.6668,6.6668,0,0,1,2.1309,2.4524,4.0915,4.0915,0,0,1,.35,2.6694h0c-.0706.239-.1226.48-.2151.7163a2.8715,2.8715,0,0,1-1.7872,1.7711.7737.7737,0,0,1-.6349-.1531,4.9563,4.9563,0,0,1-1.1887-1.1589h0c-.0428-.33-.29-.6444-.2328-.9827l.0019-.0026a1.2864,1.2864,0,0,1,.6559-.1917h0c.393.0339.82.1083,1.0923-.1314.6532-.5751.1263-1.7143-.9238-2.0361h0a15.8479,15.8479,0,0,0-3.1844.1407,6.4225,6.4225,0,0,0-1.4936.2c-.7413.1581-1.2171.455-1.291.92a2.1069,2.1069,0,0,0,.1476,1.3424v0a2.8943,2.8943,0,0,0,.7435,1.4626,2.43,2.43,0,0,0,.83.8406,3.1051,3.1051,0,0,0,1.1185.6927,1.0652,1.0652,0,0,0,.2.0772,2.4848,2.4848,0,0,0,.4783.2345,12.7569,12.7569,0,0,0,6.2892.0965h0c2.484-.5133,3.6756-1.6269,4.2313-3.0361a1.1547,1.1547,0,0,0,.1633-.245,4.7372,4.7372,0,0,0-.3081-3.7869A3.5219,3.5219,0,0,0,34.2991,100.2581Z"/><path class="f" d="M123.7181,74.2329a7.468,7.468,0,0,0-2.9342-.16l-.5574.02a.3874.3874,0,0,1-.0868.0067c.03-.0021.0543-.0048.0868-.0067a10.6416,10.6416,0,0,0-1.9177-.3929c-.0238.1567.1055.2167.2.2828A6.6679,6.6679,0,0,1,120.64,76.435a4.0907,4.0907,0,0,1,.35,2.6694h0c-.0706.2389-.1226.48-.2152.7163a2.8712,2.8712,0,0,1-1.7871,1.771.7737.7737,0,0,1-.6349-.153,4.9544,4.9544,0,0,1-1.1887-1.1589h0c-.0428-.33-.29-.6445-.2328-.9827l.0019-.0026a1.287,1.287,0,0,1,.6558-.1918h0c.393.034.82.1084,1.0923-.1313.6531-.5751.1263-1.7143-.9238-2.0361h0a15.8489,15.8489,0,0,0-3.1845.1406,6.4277,6.4277,0,0,0-1.4935.2c-.7413.158-1.2171.455-1.291.92a2.1069,2.1069,0,0,0,.1476,1.3424v0a2.8948,2.8948,0,0,0,.7434,1.4627,2.431,2.431,0,0,0,.83.8405,3.1052,3.1052,0,0,0,1.1186.6928,1.0667,1.0667,0,0,0,.2.0772,2.4848,2.4848,0,0,0,.4783.2345,12.7565,12.7565,0,0,0,6.2891.0965h0c2.484-.5132,3.6756-1.6268,4.2312-3.036a1.15,1.15,0,0,0,.1633-.245,4.7368,4.7368,0,0,0-.308-3.7869A3.5223,3.5223,0,0,0,123.7181,74.2329Z"/><g class="j"><path class="f" d="M95.7181,158.2329a7.468,7.468,0,0,0-2.9342-.16l-.5574.0195a.3874.3874,0,0,1-.0868.0067c.03-.0021.0543-.0048.0868-.0067a10.6416,10.6416,0,0,0-1.9177-.3929c-.0238.1567.1055.2167.2.2828A6.6679,6.6679,0,0,1,92.64,160.435a4.0907,4.0907,0,0,1,.35,2.6694h0c-.0706.2389-.1226.48-.2152.7163a2.8712,2.8712,0,0,1-1.7871,1.771.7737.7737,0,0,1-.6349-.153,4.9544,4.9544,0,0,1-1.1887-1.1589h0c-.0428-.33-.29-.6445-.2328-.9827l.0019-.0026a1.287,1.287,0,0,1,.6558-.1918h0c.393.034.82.1084,1.0923-.1313.6531-.5751.1263-1.7143-.9238-2.0361h0a15.8489,15.8489,0,0,0-3.1845.1406,6.4277,6.4277,0,0,0-1.4935.2c-.7413.158-1.2171.455-1.291.92a2.1069,2.1069,0,0,0,.1476,1.3424v0a2.8948,2.8948,0,0,0,.7434,1.4627,2.431,2.431,0,0,0,.83.8405,3.1052,3.1052,0,0,0,1.1186.6928,1.0667,1.0667,0,0,0,.2.0772,2.4848,2.4848,0,0,0,.4783.2345,12.7565,12.7565,0,0,0,6.2891.0965h0c2.484-.5132,3.6756-1.6268,4.2312-3.036a1.15,1.15,0,0,0,.1633-.245,4.7368,4.7368,0,0,0-.308-3.7869A3.5223,3.5223,0,0,0,95.7181,158.2329Z"/></g><g class="k"><path class="f" d="M130.642,92.5328a4.9433,4.9433,0,0,0-3.1186-.6114c-.5841.0582-1.1766.0972-1.7509.1789a3.7806,3.7806,0,0,0-2.594,1.11,7.03,7.03,0,0,1,1.8762-.3565h0c.2184.0193.4388.033.6543.06.1318.0164.3532.0095.314.1237-.02.0576-.2208.0944-.34.1407a1.4936,1.4936,0,0,0-.936.1978c-.004.0615-.0567.1028-.1206.1395.04-.0464.08-.093.1206-.1395-.1241.0715-.2493.1424-.3721.2146-.8792.5165-.7487.8668.413,1.1094.0944.02.19.0374.2844.0566a4.6347,4.6347,0,0,1,3.377,2.01c.744,1.3786.1842,2.6269-1.3513,3.7447a.1734.1734,0,0,1-.0829.0979l.0829-.0979a2.165,2.165,0,0,1-1.94.317,1.6882,1.6882,0,0,0-.2933-.0188h0c-.8889-.198-.25-.41-.0163-.6176.1584-.1137.44-.1756.4452-.3537.2491-.1794.4814-.3627.4327-.6122a3.1994,3.1994,0,0,1,1.1-.89c.3469-.1841.609-.4081.6267-.6977v0c.3926-1.6013-2.6432-3.0781-5.4707-2.6614a39.207,39.207,0,0,0-6.6047.9911c-.3474-.0143-.52.19-.8313.2213h0a1.8638,1.8638,0,0,0-1.4343,1.5551c-.2626.4033-.0753.7962.0791,1.1906a4.9351,4.9351,0,0,0,2.5918,2.174,12.2652,12.2652,0,0,0,5.1379,1.378h0a12.8162,12.8162,0,0,0,3.1913-.1255h0a20.7646,20.7646,0,0,0,5.4378-1.4135,3.9115,3.9115,0,0,0,1.1712-.4338h0a5.0328,5.0328,0,0,0,1.4789-.8614.0821.0821,0,0,1,.028-.0681l-.028.0681a2.6444,2.6444,0,0,0,1.3767-1.4174c.2307-.1072.2341-.2742.3292-.4172.3141-.4717.0805-.954.0846-1.4317.0168-.07.0613-.1423.0463-.21C133.7118,94.7114,132.5473,93.4915,130.642,92.5328Z"/></g><g class="k"><path class="f" d="M78.642,60.5328a4.9433,4.9433,0,0,0-3.1186-.6114c-.5841.0582-1.1766.0972-1.7509.1789a3.7806,3.7806,0,0,0-2.594,1.11,7.03,7.03,0,0,1,1.8762-.3565h0c.2184.0193.4388.033.6543.06.1318.0164.3532.01.314.1237-.02.0576-.2208.0944-.34.1407a1.4936,1.4936,0,0,0-.936.1978c-.004.0615-.0567.1028-.1206.1395.04-.0464.08-.093.1206-.1395-.1241.0715-.2493.1424-.3721.2146-.8792.5165-.7487.8668.413,1.1094.0944.02.19.0374.2844.0566a4.6347,4.6347,0,0,1,3.377,2.01c.744,1.3786.1842,2.6269-1.3513,3.7447a.1734.1734,0,0,1-.0829.0979l.0829-.0979a2.165,2.165,0,0,1-1.94.317,1.6882,1.6882,0,0,0-.2933-.0188h0c-.8889-.198-.25-.41-.0163-.6176.1584-.1137.44-.1756.4452-.3537.2491-.1794.4814-.3627.4327-.6122a3.1994,3.1994,0,0,1,1.1-.89c.3469-.1841.609-.4081.6267-.6977v0c.3926-1.6013-2.6432-3.0781-5.4707-2.6614a39.207,39.207,0,0,0-6.6047.9911c-.3474-.0143-.52.19-.8313.2213h0a1.8638,1.8638,0,0,0-1.4343,1.5551c-.2626.4033-.0753.7962.0791,1.1906a4.9351,4.9351,0,0,0,2.5918,2.174,12.2652,12.2652,0,0,0,5.1379,1.378h0a12.8162,12.8162,0,0,0,3.1913-.1255h0a20.7646,20.7646,0,0,0,5.4378-1.4135,3.9115,3.9115,0,0,0,1.1712-.4338h0a5.0328,5.0328,0,0,0,1.4789-.8614.0821.0821,0,0,1,.028-.0681l-.028.0681a2.6444,2.6444,0,0,0,1.3767-1.4174c.2307-.1072.2341-.2742.3292-.4172.3141-.4717.0805-.954.0846-1.4317.0168-.07.0613-.1423.0463-.21C81.7118,62.7114,80.5473,61.4915,78.642,60.5328Z"/></g><g class="k"><path class="f" d="M148.642,60.5328a4.9433,4.9433,0,0,0-3.1186-.6114c-.5841.0582-1.1766.0972-1.7509.1789a3.7806,3.7806,0,0,0-2.594,1.11,7.03,7.03,0,0,1,1.8762-.3565h0c.2184.0193.4388.033.6543.06.1318.0164.3532.01.314.1237-.02.0576-.2208.0944-.34.1407a1.4936,1.4936,0,0,0-.936.1978c-.004.0615-.0567.1028-.1206.1395.04-.0464.08-.093.1206-.1395-.1241.0715-.2493.1424-.3721.2146-.8792.5165-.7487.8668.413,1.1094.0944.02.19.0374.2844.0566a4.6347,4.6347,0,0,1,3.377,2.01c.744,1.3786.1842,2.6269-1.3513,3.7447a.1734.1734,0,0,1-.0829.0979l.0829-.0979a2.165,2.165,0,0,1-1.9395.317,1.6882,1.6882,0,0,0-.2933-.0188h0c-.8889-.198-.25-.41-.0163-.6176.1584-.1137.44-.1756.4452-.3537.2491-.1794.4814-.3627.4327-.6122a3.1994,3.1994,0,0,1,1.1-.89c.3469-.1841.609-.4081.6267-.6977v0c.3926-1.6013-2.6432-3.0781-5.4707-2.6614a39.207,39.207,0,0,0-6.6047.9911c-.3474-.0143-.52.19-.8313.2213h0a1.8638,1.8638,0,0,0-1.4343,1.5551c-.2626.4033-.0753.7962.0791,1.1906a4.9351,4.9351,0,0,0,2.5918,2.174,12.2652,12.2652,0,0,0,5.1379,1.378h0a12.8162,12.8162,0,0,0,3.1913-.1255h0a20.7646,20.7646,0,0,0,5.4378-1.4135,3.9115,3.9115,0,0,0,1.1712-.4338h0a5.0328,5.0328,0,0,0,1.4789-.8614.0821.0821,0,0,1,.028-.0681l-.028.0681a2.6444,2.6444,0,0,0,1.3767-1.4174c.2307-.1072.2341-.2742.3292-.4172.3141-.4717.0805-.954.0846-1.4317.0168-.07.0613-.1423.0463-.21C151.7118,62.7114,150.5473,61.4915,148.642,60.5328Z"/></g><g class="k"><path class="f" d="M172.642,142.5328a4.9433,4.9433,0,0,0-3.1186-.6114c-.5841.0582-1.1766.0972-1.7509.1789a3.7806,3.7806,0,0,0-2.594,1.11,7.03,7.03,0,0,1,1.8762-.3565h0c.2184.0193.4388.033.6543.06.1318.0164.3532.01.314.1237-.02.0576-.2208.0944-.34.1407a1.4936,1.4936,0,0,0-.936.1978c-.004.0615-.0567.1028-.1206.1395.04-.0464.08-.093.1206-.1395-.1241.0715-.2493.1424-.3721.2146-.8792.5165-.7487.8668.413,1.1094.0944.02.19.0374.2844.0566a4.6347,4.6347,0,0,1,3.377,2.01c.744,1.3786.1842,2.6269-1.3513,3.7447a.1734.1734,0,0,1-.0829.0979l.0829-.0979a2.165,2.165,0,0,1-1.9395.317,1.6882,1.6882,0,0,0-.2933-.0188h0c-.8889-.198-.25-.41-.0163-.6176.1584-.1137.44-.1756.4452-.3537.2491-.1794.4814-.3627.4327-.6122a3.1994,3.1994,0,0,1,1.1-.89c.3469-.1841.609-.4081.6267-.6977v0c.3926-1.6013-2.6432-3.0781-5.4707-2.6614a39.207,39.207,0,0,0-6.6047.9911c-.3474-.0143-.52.19-.8313.2213h0a1.8638,1.8638,0,0,0-1.4343,1.5551c-.2626.4033-.0753.7962.0791,1.1906a4.9351,4.9351,0,0,0,2.5918,2.174,12.2652,12.2652,0,0,0,5.1379,1.378h0a12.8162,12.8162,0,0,0,3.1913-.1255h0a20.7646,20.7646,0,0,0,5.4378-1.4135,3.9115,3.9115,0,0,0,1.1712-.4338h0a5.0328,5.0328,0,0,0,1.4789-.8614.0821.0821,0,0,1,.028-.0681l-.028.0681a2.6444,2.6444,0,0,0,1.3767-1.4174c.2307-.1072.2341-.2742.3292-.4172.3141-.4717.0805-.954.0846-1.4317.0168-.07.0613-.1423.0463-.21C175.7118,144.7114,174.5473,143.4915,172.642,142.5328Z"/></g><g class="k"><path class="f" d="M64.642,147.5328a4.9433,4.9433,0,0,0-3.1186-.6114c-.5841.0582-1.1766.0972-1.7509.1789a3.7806,3.7806,0,0,0-2.594,1.11,7.03,7.03,0,0,1,1.8762-.3565h0c.2184.0193.4388.033.6543.06.1318.0164.3532.01.314.1237-.02.0576-.2208.0944-.34.1407a1.4936,1.4936,0,0,0-.936.1978c-.004.0615-.0567.1028-.1206.1395.04-.0464.08-.093.1206-.1395-.1241.0715-.2493.1424-.3721.2146-.8792.5165-.7487.8668.413,1.1094.0944.02.19.0374.2844.0566a4.6347,4.6347,0,0,1,3.377,2.01c.744,1.3786.1842,2.6269-1.3513,3.7447a.1734.1734,0,0,1-.0829.0979l.0829-.0979a2.165,2.165,0,0,1-1.9395.317,1.6882,1.6882,0,0,0-.2933-.0188h0c-.8889-.198-.25-.41-.0163-.6176.1584-.1137.44-.1756.4452-.3537.2491-.1794.4814-.3627.4327-.6122a3.1994,3.1994,0,0,1,1.1-.89c.3469-.1841.609-.4081.6267-.6977v0c.3926-1.6013-2.6432-3.0781-5.4707-2.6614a39.207,39.207,0,0,0-6.6047.9911c-.3474-.0143-.52.19-.8313.2213h0a1.8638,1.8638,0,0,0-1.4343,1.5551c-.2626.4033-.0753.7962.0791,1.1906a4.9351,4.9351,0,0,0,2.5918,2.174,12.2652,12.2652,0,0,0,5.1379,1.378h0a12.8162,12.8162,0,0,0,3.1913-.1255h0a20.7646,20.7646,0,0,0,5.4378-1.4135,3.9115,3.9115,0,0,0,1.1712-.4338h0a5.0328,5.0328,0,0,0,1.4789-.8614.0821.0821,0,0,1,.028-.0681l-.028.0681a2.6444,2.6444,0,0,0,1.3767-1.4174c.2307-.1072.2341-.2742.3292-.4172.3141-.4717.0805-.954.0846-1.4317.0168-.07.0613-.1423.0463-.21C67.7118,149.7114,66.5473,148.4915,64.642,147.5328Z"/></g><path class="f" d="M153.5156,94.603a4.8193,4.8193,0,0,0-3.0731.6839c-.384.2607-.7958.51-1.1462.7849-.6863.5386-1.1321,1.12-.7606,1.8118a2.9377,2.9377,0,0,1,1.0453-.9676h0c.1891-.066.3735-.137.5688-.1961.1194-.0361.2819-.1233.3784-.0211.0487.0516-.0648.1542-.1049.2337-.2961.1227-.504.2749-.4994.4981a.141.141,0,0,1,.0621.1517c-.02-.0506-.0415-.1011-.0621-.1517-.016.1008-.0334.2016-.0477.3024-.1022.7217.3866.9426,1.5478.6992.0943-.02.1873-.0414.2812-.0617a8.5161,8.5161,0,0,1,4.8231.2947c2.1006.7836,3.0554,1.9492,3.1161,3.3755a.1272.1272,0,0,1,.045.1059l-.045-.1059c.0326.4828-.2967.8209-1.1378.9607a1.2164,1.2164,0,0,0-.246.0941h0c-.9024.1766-.6462-.2222-.6976-.4683-.0046-.1459.1433-.2977-.05-.4362a.634.634,0,0,0-.3469-.63,1.54,1.54,0,0,1-.1428-1.0906.6884.6884,0,0,0-.2927-.7676h0c-1.4749-1.375-5.4445-1.3864-7.1535-.0207a17.5324,17.5324,0,0,0-3.9727,3.2037c-.2827.1175-.188.3385-.3929.4774h0c-.4235.651.0353,1.1956.6236,1.7246a2.9983,2.9983,0,0,0,1.3814.8851,11.1538,11.1538,0,0,0,4.402.711,13.8423,13.8423,0,0,0,5.4743-.8419h0a7.2583,7.2583,0,0,0,2.3116-1.2765h0a7.8446,7.8446,0,0,0,2.6079-3.0966,1.361,1.361,0,0,0,.4182-.7662h0a1.8735,1.8735,0,0,0,.18-1.2085.1134.1134,0,0,1-.054-.0626l.054.0626a1.684,1.684,0,0,0-.5149-1.5976c.0581-.1677-.1246-.2972-.21-.4422-.282-.4784-.9965-.7624-1.5232-1.1307a.9578.9578,0,0,0-.1975-.1785A14.3657,14.3657,0,0,0,153.5156,94.603Z"/><g class="j"><path class="f" d="M105.177,115.9656c1.0934.1691,2.1916.4575,2.5861,1.356.2292.3869.4913.7639.6805,1.163a1.94,1.94,0,0,1-.2408,2.3733,2.4778,2.4778,0,0,0-.4855-1.3731h0c-.1463-.1131-.2855-.2316-.4414-.3372-.0954-.0646-.2047-.2-.3523-.0887-.0744.0559-.02.2019-.0245.3072a.5756.5756,0,0,1,.2127.7.2778.2778,0,0,0-.141.178c.0468-.0594.0941-.1186.141-.178-.0387.1277-.0759.2556-.1163.383-.2888.9122-.877,1.1054-1.8623.6116-.08-.04-.1577-.0823-.237-.123a6.6546,6.6546,0,0,0-4.7926-.4313,6.7978,6.7978,0,0,0-4.8045,3.6724.2559.2559,0,0,0-.1.1239l.1-.1239c-.29.5935-.155,1.0673.5781,1.38a.7533.7533,0,0,1,.186.1573h0c.7724.3682.74-.1688.9215-.4655.0826-.18.0219-.393.2825-.5329a1.2258,1.2258,0,0,1,.6712-.7245,3.0706,3.0706,0,0,0,.7222-1.3293,1.3548,1.3548,0,0,1,.6928-.9038v0c2.1546-1.4619,5.975-.82,6.8848,1.1564a13.6,13.6,0,0,1,2.0993,4.63c.2087.1924-.0008.4509.1215.6571h0c.0578.8775-.675,1.4773-1.5241,2.0363a4.2493,4.2493,0,0,1-1.802.87,9.6956,9.6956,0,0,1-4.6112.1547,8.9775,8.9775,0,0,1-4.8087-1.9488h0a4.83,4.83,0,0,1-1.5365-1.9654h0a7.68,7.68,0,0,1-.8454-4.2721,1.693,1.693,0,0,1,.0091-1.02h0a3.25,3.25,0,0,1,.475-1.5289.2047.2047,0,0,0,.0855-.0687l-.0855.0687a3.3824,3.3824,0,0,1,1.3516-1.8967c.034-.2176.279-.348.4389-.5137a7.8245,7.8245,0,0,1,2.07-1.151,1.585,1.585,0,0,1,.2855-.1888A13.59,13.59,0,0,1,105.177,115.9656Z"/></g><g class="j"><path class="f" d="M137.177,142.9656c1.0934.1691,2.1916.4575,2.5861,1.356.2292.3869.4913.7639.68,1.163a1.94,1.94,0,0,1-.2408,2.3733,2.4778,2.4778,0,0,0-.4855-1.3731h0c-.1463-.1131-.2855-.2316-.4414-.3372-.0954-.0646-.2047-.2-.3523-.0887-.0744.0559-.02.2019-.0245.3072a.5756.5756,0,0,1,.2127.7.2778.2778,0,0,0-.141.178c.0468-.0594.0941-.1186.141-.178-.0387.1277-.0759.2556-.1163.383-.2888.9122-.877,1.1054-1.8623.6116-.08-.04-.1577-.0823-.237-.123a6.6546,6.6546,0,0,0-4.7926-.4313,6.7978,6.7978,0,0,0-4.8045,3.6724.2559.2559,0,0,0-.1.1239l.1-.1239c-.29.5935-.155,1.0673.5781,1.38a.7533.7533,0,0,1,.186.1573h0c.7724.3682.74-.1688.9215-.4655.0826-.18.0219-.393.2825-.5329a1.2258,1.2258,0,0,1,.6712-.7245,3.0706,3.0706,0,0,0,.7222-1.3293,1.3548,1.3548,0,0,1,.6928-.9038v0c2.1546-1.4619,5.975-.82,6.8848,1.1564a13.6,13.6,0,0,1,2.0993,4.63c.2087.1924-.0008.4509.1215.6571h0c.0578.8775-.675,1.4773-1.5241,2.0363a4.2493,4.2493,0,0,1-1.802.87,9.6956,9.6956,0,0,1-4.6112.1547,8.9775,8.9775,0,0,1-4.8087-1.9488h0a4.83,4.83,0,0,1-1.5365-1.9654h0a7.68,7.68,0,0,1-.8454-4.2721,1.693,1.693,0,0,1,.0091-1.02h0a3.25,3.25,0,0,1,.475-1.5289.2047.2047,0,0,0,.0855-.0687l-.0855.0687a3.3824,3.3824,0,0,1,1.3516-1.8967c.034-.2176.279-.348.4389-.5137a7.8245,7.8245,0,0,1,2.07-1.151,1.585,1.585,0,0,1,.2855-.1888A13.59,13.59,0,0,1,137.177,142.9656Z"/></g><path class="f" d="M98.61,106.4808a3.2791,3.2791,0,0,0,1.7271,1.18,11.2582,11.2582,0,0,0,4.9032.3017l.4395-.0553c1.7073-.2131,3.3149-1.4953,3.2823-2.6177a2.1415,2.1415,0,0,0-.2075-1.2037,2.93,2.93,0,0,0-2.4191-1.5263h0a9.1724,9.1724,0,0,0-3.956-.01h0a2.15,2.15,0,0,0-.6679.146.8656.8656,0,0,0-.4717.1654.3135.3135,0,0,1-.365.0338h0l.0222-.2595h0a.4792.4792,0,0,0,.0581-.0963,4.8206,4.8206,0,0,1,1.7426-2.3829,15.7944,15.7944,0,0,1,6.8515-2.73.8324.8324,0,0,0,.4533-.1476c-.4153.0106-.7722.0071-1.1235.0307a17.855,17.855,0,0,0-8.292,2.3032,5.5693,5.5693,0,0,0-2.619,2.8579,2.4568,2.4568,0,0,0-.3209,1.5265h0a1.8382,1.8382,0,0,0,.2017,1.24,2.6252,2.6252,0,0,0,.7611,1.2439Zm5.8152-1.4575-.26.3947c-.0548.0066-.11.0127-.1625.0226a.3475.3475,0,0,0-.1914.1255.7081.7081,0,0,1-.1664-.277.2215.2215,0,0,0-.1052-.1372l.0067-.0041a3.7472,3.7472,0,0,0,.1406-.6346c.0269-.0925.0844-.1869.0516-.28a.5349.5349,0,0,0,.4156.05A.9425.9425,0,0,1,104.4251,105.0233Zm-.8058,1.9209a.9912.9912,0,0,0-.4376.1283,1.7184,1.7184,0,0,1-.2194-.1206,1.5871,1.5871,0,0,0,.3715.0133c.1824.0018.3647-.0652.5466-.0627C103.7929,106.9156,103.7048,106.9275,103.6193,106.9442Z"/><path class="f" d="M34.9041,138.7969a2.4073,2.4073,0,0,0,2.3284-1.1747c.8708-1.6261.7518-3.8542.07-6.3946q-.0852-.328-.17-.6558a13.0964,13.0964,0,0,0-6.0032-7.1112,8.2787,8.2787,0,0,0-2.5586-.925c-1.5149-.2087-2.7114.0946-2.99,1.7722v0a8.4017,8.4017,0,0,0,.4444,5.3936h0a3.4406,3.4406,0,0,0,.3919,1.0588,1.841,1.841,0,0,0,.41.81c.16.2123.2809.4153.1155.5325h0l-.5595-.2908,0,0a2.5175,2.5175,0,0,0-.2135-.176,23.9291,23.9291,0,0,1-5.3183-4.7724,36.8379,36.8379,0,0,1-6.6642-12.0991,1.6477,1.6477,0,0,0-.37-.7673c.0716.578.106,1.0619.198,1.5655a32.717,32.717,0,0,0,5.918,13.6382,25.276,25.276,0,0,0,6.4408,6.4463,12.8972,12.8972,0,0,0,3.3133,1.9708h0a7.136,7.136,0,0,0,2.6375.97,5.1959,5.1959,0,0,0,2.58.2092Zm-3.8119-9.4062.8776.7519c.0206.0814.04.1628.0676.2446a1.1714,1.1714,0,0,0,.2918.3875,1.4274,1.4274,0,0,1-.5747-.0509c-.1139-.0279-.2211-.0457-.282.006l-.01-.0132c-.4572-.3442-.9192-.5339-1.3783-.8292a2.4463,2.4463,0,0,0-.6059-.351.3907.3907,0,0,0,.0577-.5179A2.7231,2.7231,0,0,1,31.0922,129.3907Zm4.2168,3.029a1.886,1.886,0,0,0,.3268.7264c-.0791.0571-.14.1476-.233.1787a1.325,1.325,0,0,0-.0152-.4942c-.0175-.2473-.1829-.5635-.199-.81C35.2272,132.1538,35.2631,132.286,35.309,132.42Z"/><path class="f" d="M51.3388,90.7414a2.91,2.91,0,0,0,1.3018,2.48,14.69,14.69,0,0,0,7.2032,2.3458l.74.0835c2.8744.3269,6.8256-1.0306,8.0671-2.7715a4.4648,4.4648,0,0,0,1.0659-1.9333c.2492-1.2657-.0813-2.4325-1.9687-3.2786h0a12.9916,12.9916,0,0,0-6.0805-1.533h0a4.0994,4.0994,0,0,0-1.1964-.0313,1.9115,1.9115,0,0,0-.9167.0736c-.2407.0655-.47.1-.601-.088h0l.3328-.3911,0,0a1.5722,1.5722,0,0,0,.2-.1259A15.6651,15.6651,0,0,1,64.913,82.57a36.5963,36.5963,0,0,1,13.6925-1.5749,1.7706,1.7706,0,0,0,.8677-.0534c-.6517-.143-1.1972-.2854-1.7654-.3838a36.5249,36.5249,0,0,0-15.4194.3651,17.5974,17.5974,0,0,0-7.3221,3.3961,7.19,7.19,0,0,0-2.251,2.2275h0a3.8615,3.8615,0,0,0-1.1168,1.9872,3.3439,3.3439,0,0,0-.26,2.2076Zm10.6322-.0132-.8552.5078c-.092-.0108-.1838-.0226-.2763-.0275a.967.967,0,0,0-.4391.12.9076.9076,0,0,1,.0626-.49.25.25,0,0,0-.0041-.2516l.0149-.0038a11.189,11.189,0,0,0,.9469-.9233c.1479-.1321.3451-.2554.4012-.4107a.65.65,0,0,0,.5829.236A1.5645,1.5645,0,0,1,61.971,90.7282Zm-3.4516,2.6489a2.07,2.07,0,0,0-.8214.03,1.4663,1.4663,0,0,1-.1991-.27,2.1424,2.1424,0,0,0,.5568.1629c.2788.0729.6366.0395.9139.1131C58.82,93.4,58.67,93.3842,58.5194,93.3771Z"/><path class="f" d="M53.3964,76.7413a3.3439,3.3439,0,0,0-.26-2.2076A3.8615,3.8615,0,0,0,52.02,72.5465h0a7.1909,7.1909,0,0,0-2.251-2.2275,17.5974,17.5974,0,0,0-7.3221-3.3961,36.5249,36.5249,0,0,0-15.4194-.3651c-.5682.0984-1.1137.2408-1.7654.3838a1.7706,1.7706,0,0,0,.8677.0534A36.5963,36.5963,0,0,1,39.8222,68.57a15.6651,15.6651,0,0,1,5.4258,3.0009,1.5722,1.5722,0,0,0,.2.1259l0,0,.3328.3911h0c-.13.1882-.36.1535-.601.088a1.9115,1.9115,0,0,0-.9167-.0736,4.0994,4.0994,0,0,0-1.1964.0313h0a12.9916,12.9916,0,0,0-6.0805,1.533h0c-1.8874.8461-2.2179,2.0129-1.9687,3.2786a4.4648,4.4648,0,0,0,1.0659,1.9333c1.2415,1.7409,5.1927,3.0984,8.0671,2.7715l.74-.0835a14.69,14.69,0,0,0,7.2032-2.3458,2.91,2.91,0,0,0,1.3018-2.48ZM42.33,75.4846a.65.65,0,0,0,.5829-.236c.0561.1553.2533.2786.4011.4107a11.2055,11.2055,0,0,0,.947.9233l.0149.0038a.25.25,0,0,0-.0041.2516.9076.9076,0,0,1,.0626.49.967.967,0,0,0-.4391-.12c-.0925.0049-.1843.0167-.2763.0275l-.8552-.5078A1.5645,1.5645,0,0,1,42.33,75.4846Zm3.4352,3.9283c.2773-.0736.6351-.04.9139-.1131a2.1424,2.1424,0,0,0,.5568-.1629,1.4663,1.4663,0,0,1-.1991.27,2.07,2.07,0,0,0-.8214-.03C46.0648,79.3842,45.9154,79.4,45.7656,79.4129Z"/></svg>