<svg xmlns="http://www.w3.org/2000/svg" xmlns:xlink="http://www.w3.org/1999/xlink" viewBox="0 0 644.2868 459.7076"><defs><style>.a{fill:#c1c1c1;}.b,.k,.l{fill:#e20c16;}.c,.q{fill:#fff;}.d,.f,.i,.n,.o,.p,.r{fill:none;}.d{stroke:#fff;stroke-width:4px;}.d,.f,.i,.n,.o,.p{stroke-linecap:round;stroke-linejoin:round;}.e{font-size:26px;font-family:Lato-Italic, Lato;font-style:italic;}.e,.g{fill:#606060;}.f{stroke:#606060;}.f,.i{stroke-width:2px;}.h{opacity:0.5;}.i{stroke:#e20c16;}.j,.k{opacity:0.6;}.l{opacity:0.9;}.m{opacity:0.7;}.n,.o,.p{stroke-width:8px;}.n{stroke:url(#a);}.o{stroke:url(#b);}.p{stroke:url(#c);}.q,.r{stroke:#000;stroke-miterlimit:10;}</style><linearGradient id="a" x1="468.537" y1="175.3508" x2="468.537" y2="50.7518" gradientUnits="userSpaceOnUse"><stop offset="0" stop-color="#e20c16" stop-opacity="0.7"/><stop offset="0.1262" stop-color="#e20c16" stop-opacity="0.6735"/><stop offset="0.295" stop-color="#e20c16" stop-opacity="0.5983"/><stop offset="0.4882" stop-color="#e20c16" stop-opacity="0.4747"/><stop offset="0.6993" stop-color="#e20c16" stop-opacity="0.3023"/><stop offset="0.9226" stop-color="#e20c16" stop-opacity="0.0837"/><stop offset="1" stop-color="#e20c16" stop-opacity="0"/></linearGradient><linearGradient id="b" x1="528.537" y1="207.6737" x2="528.537" y2="83.0747" xlink:href="#a"/><linearGradient id="c" x1="588.537" y1="191.4086" x2="588.537" y2="66.8097" xlink:href="#a"/></defs><title>heat</title><polygon class="a" points="327.891 248.224 343.848 213.82 327.891 179.412 327.891 248.224"/><path class="b" d="M233.1232,315.8624l-96.4107,54.1162a6.8185,6.8185,0,0,1-6.7492-.0424L11.97,301.7417a6.8183,6.8183,0,0,1,.0744-11.849l96.4107-54.1162a6.8182,6.8182,0,0,1,6.7492.0424l117.9937,68.1944A6.8184,6.8184,0,0,1,233.1232,315.8624Z"/><polygon class="c" points="119.891 213.766 243.891 257.766 132.891 321.766 0.891 246.766 119.891 213.766"/><path class="d" d="M127.7305,247.499l-80.397,47.2958c-2.3431,1.353-2.3431,3.5465,0,4.8994l86.2671,49.8106a9.377,9.377,0,0,0,8.4852,0L197.24,317.6587c2.3431-1.3529,2.3431-3.5465,0-4.8994L130.065,273.9724a9.3766,9.3766,0,0,0-8.4853,0L87.6386,293.57c-2.3431,1.3529-2.3431,3.5464,0,4.8994l41.0122,23.68a9.3772,9.3772,0,0,0,8.4853,0l9.8995-5.716c2.3431-1.3529,2.3431-3.5464,0-4.8994l-16.9706-9.7988a9.3772,9.3772,0,0,0-8.4853,0h0a9.3764,9.3764,0,0,1-8.4852,0l-4.2427-2.45c-2.3431-1.3529-2.3431-3.5464,0-4.8994l12.7279-7.3491a9.3772,9.3772,0,0,1,8.4853,0l43.8406,25.3136c2.3432,1.3529,2.3432,3.5465,0,4.8994L140.6716,336.44a9.3766,9.3766,0,0,1-8.4853,0l-65.0538-37.562c-2.3431-1.353-2.3431-3.5465,0-4.8994l69.79-41.1716"/><text class="e" transform="translate(148.1878 405.3149)">Presión</text><line class="f" x1="122.5835" y1="431.7656" x2="122.5835" y2="391.7656"/><polygon class="g" points="128.567 393.516 122.584 383.155 116.601 393.516 128.567 393.516"/><text class="e" transform="translate(148.1878 22.3149)">Presión</text><text class="e" transform="translate(148.1878 52.3149)">Calor</text><text class="e" transform="translate(148.1878 433.3149)">Calor</text><text class="e" transform="translate(489.0425 345.3149)">Reposo</text><g class="h"><polygon class="i" points="112.287 182.905 1 246.405 1 179.598 112.287 116.098 112.287 182.905"/><polygon class="i" points="112.787 182.905 243.891 257.766 244.787 191.598 112.787 116.098 112.787 182.905"/><polygon class="i" points="244.287 257.905 133 321.405 133 254.598 244.287 191.098 244.287 257.905"/><polygon class="i" points="1.287 245.905 133.287 321.405 133.287 254.598 1.287 179.098 1.287 245.905"/></g><g class="j"><path class="k" d="M237.8056,210.3132l-.5259-.0307.0456-.0263-126.6-73.0991L7.3121,196.8677l-.5258-.0306v37.269a8.7938,8.7938,0,0,0,4.4065,7.6212l118.2925,68.0969a8.7939,8.7939,0,0,0,8.7661.0049l95.1391-54.6274a8.7935,8.7935,0,0,0,4.4151-7.626Z"/><path class="l" d="M236.16,212.9425l-99.9755,57.7259a3.7529,3.7529,0,0,1-3.7529,0L8.4141,199.0609a3.7526,3.7526,0,0,1,0-6.5L108.39,134.8354a3.7529,3.7529,0,0,1,3.7529,0L236.16,206.4429A3.7526,3.7526,0,0,1,236.16,212.9425Z"/></g><g class="m"><path class="b" d="M238.2868,241.597c-1.9251,0-6.8677,5.4675-10.7628,6.2037a9.4173,9.4173,0,0,0-3.0981.8443c-1.1225.66-1.8048,1.8748-2.8428,2.661a10.0364,10.0364,0,0,1-3.1517,1.3578c-8.6658,2.71-16.5829,4.8863-22.677,11.6169-1.2806-.972-3.0924-.0892-4.4349.7952-4.6391,3.0563-9.2782,9-13.9173,12.0564a3.0767,3.0767,0,0,0-1.5909-2.4286,82.8157,82.8157,0,0,0-11.7957,11.6442c-3.256-1.8344-8.0229.8922-8.0925,4.6287l-15.0362,4.1481a5.9359,5.9359,0,0,1-7.181,2.9451A100.1519,100.1519,0,0,1,106.35,286.48c-.4154-.2547,0,.2186-.445.0194a29.7045,29.7045,0,0,1-9.9193-7.0957l-4.1361-.4765a6.8415,6.8415,0,0,0-.9607-4.366c-2.0274,1.5729-5.0115.3273-6.98-1.319s-3.8525-3.7736-6.4068-4.0182c-1.6079-.154-3.456.4325-4.7056-.5911-1.1443-.9374-1.1287-2.7627-2.1577-3.8254-1.8276-1.8874-5.4093-.1527-7.4723-1.78-1.41-1.1121-1.4326-3.2714-2.5325-4.6912-2.0233-2.6117-6.5571-1.618-8.874-3.973-1.171-1.19-1.88-3.2521-3.55-3.272-.8272-.01-1.5642.5462-2.3871.6315-3.17.3288-3.0674-5.1565-5.6789-6.9826a1.9611,1.9611,0,0,0-2.1544,1.1579,18.3567,18.3567,0,0,0-3.2828-5.8654l-2.0857,3.0135-12.6157-8.2213-1.8.506c-4.3039-.32-8.05-7.2106-11.4323-7.353l.4946-17.184c2.1609.1058,3.6125,2.3125,5.5365,4.9656l2.6472-.641,1.9257,3.1039c.6666-2.127,4.4786-1.8875,4.8737.3063l1.2309-2.537c3.6423,9.3184,20.0637,9.215,21.84,19.061l1.8524-1.9241,2.9072,6.0216c2.1466-1.8317,6.1133-.2173,6.3707,2.5928,1.4552-1.3469,3.7461.0231,5.2061,1.3647l10.3193,9.4822a1.984,1.984,0,0,1,2.231-1.1689l2.1241,4.156c.5751-1.1425,2.2615-1.246,3.37-.6073a11.4133,11.4133,0,0,1,2.6589,2.7353,12.7508,12.7508,0,0,0,11.0587,4.2635c.439,2.6425,1.3756,5.8353,3.9969,6.3869a19.0879,19.0879,0,0,0,2.6149.0813,5.2592,5.2592,0,0,1,3.9417,2.2839l3.8079,6.5429c-.04-1.7955,2.176-2.91,3.9344-2.5442s3.1477,1.6567,4.5865,2.7315a22.2669,22.2669,0,0,0,14.2476,4.3615l1.1728,2.2771,8.5622-.3771c.7546-3.6047,5.13-4.8264,8.63-5.9743,6.6221-2.1721,12.3554-6.3748,17.9638-10.512,2.9148-2.15,5.9858-1.6183,7.177-5.0388l11.25-9.8617c.7891.6476,1.5782-1.5925,2.3674-.9448a2.6543,2.6543,0,0,1,3.9822-1.4014,15.069,15.069,0,0,1,8.18-7.3868l1.7871,1.7978a71.5653,71.5653,0,0,0,9.007-9.6631,3.0425,3.0425,0,0,1,2.2837,1.5409l13.4515-9.6387c3.5565-2.5484,7.111-6.21,11.5266-6.07Z"/></g><g class="j"><path class="k" d="M643.8056,200.3132l-.5259-.0307.0456-.0263-126.6-73.0991L413.3121,186.8677l-.5258-.0306v37.269a8.7938,8.7938,0,0,0,4.4065,7.6212l118.2925,68.0969a8.7939,8.7939,0,0,0,8.7661.0049l95.1391-54.6274a8.7935,8.7935,0,0,0,4.4151-7.626Z"/><path class="l" d="M642.16,202.9425l-99.9755,57.7259a3.7529,3.7529,0,0,1-3.7529,0L414.4141,189.0609a3.7526,3.7526,0,0,1,0-6.5L514.39,124.8354a3.7529,3.7529,0,0,1,3.7529,0L642.16,196.4429A3.7526,3.7526,0,0,1,642.16,202.9425Z"/></g><g class="m"><path class="b" d="M644.2868,231.597c-1.9251,0-6.8677,5.4675-10.7628,6.2037a9.4173,9.4173,0,0,0-3.0981.8443c-1.1225.66-1.8048,1.8748-2.8428,2.661a10.0364,10.0364,0,0,1-3.1517,1.3578c-8.6658,2.71-16.5829,4.8863-22.677,11.6169-1.2806-.972-3.0924-.0892-4.4349.7952-4.6391,3.0563-9.2782,9-13.9173,12.0564a3.0767,3.0767,0,0,0-1.5909-2.4286,82.8157,82.8157,0,0,0-11.7957,11.6442c-3.256-1.8344-8.0229.8922-8.0925,4.6287l-15.0362,4.1481a5.9359,5.9359,0,0,1-7.181,2.9451A100.1519,100.1519,0,0,1,512.35,276.48c-.4154-.2547,0,.2186-.445.0194a29.7045,29.7045,0,0,1-9.9193-7.0957l-4.1361-.4765a6.8415,6.8415,0,0,0-.9607-4.366c-2.0274,1.5729-5.0115.3273-6.98-1.319s-3.8525-3.7736-6.4068-4.0182c-1.6079-.154-3.456.4325-4.7056-.5911-1.1443-.9374-1.1287-2.7627-2.1577-3.8254-1.8276-1.8874-5.4093-.1527-7.4723-1.78-1.41-1.1121-1.4326-3.2714-2.5325-4.6912-2.0233-2.6117-6.5571-1.618-8.874-3.973-1.171-1.19-1.88-3.2521-3.55-3.272-.8272-.01-1.5642.5462-2.3871.6315-3.17.3288-3.0674-5.1565-5.6789-6.9826a1.9611,1.9611,0,0,0-2.1544,1.1579,18.3567,18.3567,0,0,0-3.2828-5.8654l-2.0857,3.0135-12.6157-8.2213-1.8.506c-4.3039-.32-8.05-7.2106-11.4323-7.353l.4946-17.184c2.1609.1058,3.6125,2.3125,5.5365,4.9656l2.6472-.641,1.9257,3.1039c.6666-2.127,4.4786-1.8875,4.8737.3063l1.2309-2.537c3.6423,9.3184,20.0637,9.215,21.84,19.061l1.8524-1.9241,2.9072,6.0216c2.1466-1.8317,6.1133-.2173,6.3707,2.5928,1.4552-1.3469,3.7461.0231,5.2061,1.3647l10.3193,9.4822a1.984,1.984,0,0,1,2.231-1.1689l2.1241,4.156c.5751-1.1425,2.2615-1.246,3.37-.6073a11.4133,11.4133,0,0,1,2.6589,2.7353,12.7508,12.7508,0,0,0,11.0587,4.2635c.439,2.6425,1.3756,5.8353,3.9969,6.3869a19.0879,19.0879,0,0,0,2.6149.0813,5.2592,5.2592,0,0,1,3.9417,2.2839l3.8079,6.5429c-.04-1.7955,2.176-2.91,3.9344-2.5442s3.1477,1.6567,4.5865,2.7315a22.2669,22.2669,0,0,0,14.2476,4.3615l1.1728,2.2771,8.5622-.3771c.7546-3.6047,5.13-4.8264,8.63-5.9743,6.6221-2.1721,12.3554-6.3748,17.9638-10.512,2.9148-2.15,5.9858-1.6183,7.177-5.0388l11.25-9.8617c.7891.6476,1.5782-1.5925,2.3674-.9448a2.6543,2.6543,0,0,1,3.9822-1.4014,15.069,15.069,0,0,1,8.18-7.3868l1.7871,1.7978a71.5653,71.5653,0,0,0,9.007-9.6631,3.0425,3.0425,0,0,1,2.2837,1.5409l13.4515-9.6387c3.5565-2.5484,7.111-6.21,11.5266-6.07Z"/></g><path class="b" d="M233.1232,158.8624l-96.4107,54.1162a6.8185,6.8185,0,0,1-6.7492-.0424L11.97,144.7417a6.8183,6.8183,0,0,1,.0744-11.849l96.4107-54.1162a6.8182,6.8182,0,0,1,6.7492.0424l117.9937,68.1944A6.8184,6.8184,0,0,1,233.1232,158.8624Z"/><line class="f" x1="122.5835" y1="3.752" x2="122.5835" y2="43.752"/><polygon class="g" points="116.6 42.001 122.583 52.363 128.567 42.001 116.6 42.001"/><path class="d" d="M127.7305,85.499l-80.397,47.2958c-2.3431,1.353-2.3431,3.5465,0,4.8994l86.2671,49.8106a9.377,9.377,0,0,0,8.4852,0L197.24,155.6587c2.3431-1.3529,2.3431-3.5465,0-4.8994L130.065,111.9724a9.3766,9.3766,0,0,0-8.4853,0L87.6386,131.57c-2.3431,1.3529-2.3431,3.5464,0,4.8994l41.0122,23.68a9.3772,9.3772,0,0,0,8.4853,0l9.8995-5.716c2.3431-1.3529,2.3431-3.5464,0-4.8994l-16.9706-9.7988a9.3772,9.3772,0,0,0-8.4853,0h0a9.3764,9.3764,0,0,1-8.4852,0l-4.2427-2.45c-2.3431-1.3529-2.3431-3.5464,0-4.8994l12.7279-7.3491a9.3772,9.3772,0,0,1,8.4853,0l43.8406,25.3136c2.3432,1.3529,2.3432,3.5465,0,4.8994L140.6716,174.44a9.3766,9.3766,0,0,1-8.4853,0l-65.0538-37.562c-2.3431-1.353-2.3431-3.5465,0-4.8994l69.79-41.1716"/><path class="n" d="M468.3253,171.3508c-9.3672-7.9678-9.3672-20.8862,0-28.854l.5442-.4629c9.3673-7.9678,9.3673-20.8862,0-28.854l-.6651-.5658c-9.3673-7.9678-9.3673-20.8861,0-28.854l.1814-.1543c9.3673-7.9678,9.3673-20.8862,0-28.854"/><path class="o" d="M528.3253,203.6737c-9.3672-7.9678-9.3672-20.8862,0-28.854l.5442-.4629c9.3673-7.9678,9.3673-20.8862,0-28.854l-.6651-.5658c-9.3673-7.9678-9.3673-20.8862,0-28.854l.1814-.1543c9.3673-7.9678,9.3673-20.8862,0-28.854"/><path class="p" d="M588.3253,187.4086c-9.3672-7.9678-9.3672-20.8861,0-28.854l.5442-.4629c9.3673-7.9678,9.3673-20.8862,0-28.854l-.6651-.5658c-9.3673-7.9678-9.3673-20.8861,0-28.8539l.1814-.1544c9.3673-7.9678,9.3673-20.8861,0-28.8539"/><rect class="q" x="503.1632" y="360.0397" width="69.884" height="128.4518" rx="4.7195" transform="translate(113.8395 962.3708) rotate(-90)"/><path class="r" d="M478.248,396.5338v15.702a2.0819,2.0819,0,0,0,2.0819,2.0819h0a2.4271,2.4271,0,0,1,2.4272,2.4271v15.0416a2.4274,2.4274,0,0,1-2.4273,2.4273h0a2.0819,2.0819,0,0,0-2.0819,2.0818v15.7019A4.1422,4.1422,0,0,0,482.39,456.14H593.82a4.1422,4.1422,0,0,0,4.1422-4.1422V396.5338a4.1422,4.1422,0,0,0-4.1422-4.1422H482.39A4.1422,4.1422,0,0,0,478.248,396.5338Z"/><path d="M553.0349,400.1557c.148.0319.2953.068.4441.0951a5.9221,5.9221,0,0,1,2.8328,1.3868,5.9816,5.9816,0,0,1,1.4167,1.82,5.78,5.78,0,0,1,.59,1.9078,6.4287,6.4287,0,0,1,.03,1.4157,5.8019,5.8019,0,0,1-.77,2.4071,6.0178,6.0178,0,0,1-2.9233,2.5826,5.4093,5.4093,0,0,1-1.7133.4312,1,1,0,0,0-.108.0216c-.0037.0832-.01.1589-.01.2345q0,3.4482.0019,6.8963,0,4.6879-.0023,9.3758c0,2.0749.0087,4.15-.0024,6.2247a7.7832,7.7832,0,0,1-1.6764,4.9248,7.6984,7.6984,0,0,1-4.608,2.86,7.33,7.33,0,0,1-1.4816.1547q-8.1363-.0052-16.2724-.0022-2.8413,0-5.6825-.0024a6.5642,6.5642,0,0,1-1.7731-.2823,7.7306,7.7306,0,0,1-3.7466-2.3515,7.499,7.499,0,0,1-1.6441-2.9734,12.4858,12.4858,0,0,1-.2621-1.2558,11.174,11.174,0,0,1-.0514-1.9061q-.0079-6.7157-.0016-13.4313,0-3.6548-.0023-7.31a7.3754,7.3754,0,0,1,.4365-2.4449,7.5681,7.5681,0,0,1,1.42-2.4649,7.9859,7.9859,0,0,1,2.07-1.727,8.09,8.09,0,0,1,2.65-.9467,5.6274,5.6274,0,0,1,.6654-.0674c1.5132-.0859,3.0278-.0312,4.5417-.0383,1.9027-.009,3.8054-.0045,5.7081-.0044q4.378,0,8.756.0023,2.0792.0006,4.1584,0h.2479c.0657-.3468.1125-.6769.1922-.9988a5.9359,5.9359,0,0,1,1.1391-2.288,6.0249,6.0249,0,0,1,2.3353-1.78,5.2613,5.2613,0,0,1,1.5827-.4251.5211.5211,0,0,0,.116-.0408Zm-6.7555,6.3115H536.2066q-6.3676,0-12.7353.0024a6.57,6.57,0,0,0-.9251.0569,7.3263,7.3263,0,0,0-2.0192.5835,7.137,7.137,0,0,0-3.7609,4.1407,7.5855,7.5855,0,0,0-.3986,2.5026q-.0039,5.2956-.0011,10.5912c0,2.3335-.0051,4.667,0,7,.0028,1.3509.022,2.7017.0316,4.0526a5.6019,5.6019,0,0,0,.1667,1.2472,7.1075,7.1075,0,0,0,6.9381,5.4966c2.6175.0167,5.2353.0047,7.853.0049,3.1,0,6.2.0071,9.3-.0018,1.5657-.0046,3.1319.0388,4.6975-.03a6.8078,6.8078,0,0,0,1.7163-.3074,7.1012,7.1012,0,0,0,4.9725-6.7205c.02-2.3506.0043-4.7015.0042-7.0522q0-3.6165.0006-7.233,0-4.1849-.0007-8.37c0-.0656-.0117-.1312-.0185-.2021a6.0776,6.0776,0,0,1-5.7478-5.7621Zm10.2147-1.4c-1.0146-.0231-2,.0122-3.01-.0167v-3.0049a19.14,19.14,0,0,0-2.2958.0166c0,.3312,0,.666,0,1.0008,0,.3271.0049.6542,0,.9812-.0045.3316.0152.6644-.0164,1.0194H548.17a17.9907,17.9907,0,0,0,.0115,2.2744H551.19v2.9947c.7784.0019,1.53.0161,2.2958-.005,0-.2787,0-.5273,0-.7758,0-.241.0014-.482.0013-.723,0-.25-.0034-.4993-.001-.7489.0023-.2452-.0127-.4917.0123-.751.5184,0,1.008,0,1.4977,0,.4956,0,.9914.0063,1.4985-.0048v-2.2571Z"/><path d="M528.6668,414.0675l5.8365,15.9807.0352-.0068V414.0728c.073-.0065.1307-.0162.1885-.0162,2.6086,0,5.2173-.0109,7.8258.0074a7.0065,7.0065,0,0,1,3.3422.81,5.7183,5.7183,0,0,1,2.6529,2.9477,6.4748,6.4748,0,0,1,.424,1.7162,6.1344,6.1344,0,0,1,.0312,1.1579,5.3923,5.3923,0,0,1-1.4193,3.4,5.6421,5.6421,0,0,1-2.14,1.4361c-.0236.009-.0459.0215-.0967.0457.2326.4863.4949.9539.737,1.4311.2447.4825.4994.96.7481,1.44.2527.4882.5026.978.7553,1.4663.2487.4805.5.96.749,1.44s.4971.9613.7454,1.4421c.247.4783.4938.9566.7529,1.4585h-4.6037l-3.9211-8.003h-2.7767a1.75,1.75,0,0,0-.02.1926q-.0014,2.35,0,4.7007.0006,1.4592.0011,2.9185c0,.0581-.0085.1161-.0143.1889h-6.61l-1.1809-3.5369H523.57l-1.2161,3.5391h-4.1091c.037-.2449,7.1993-19.9486,7.3393-20.1891Zm9.8539,8.839a.6232.6232,0,0,0,.0989.02c1.2548-.0106,2.51-.0243,3.7642-.0321a2.8992,2.8992,0,0,0,1.076-.2211,2.4217,2.4217,0,0,0,1.3762-1.3505,2.7862,2.7862,0,0,0,.1852-1.2862,2.407,2.407,0,0,0-1.06-1.9106,2.7807,2.7807,0,0,0-1.5981-.497c-1.2213-.0125-2.4429-.0061-3.6644-.0061a1.55,1.55,0,0,0-.1784.0208Zm-11.29-2.7338-.0474-.002-2.4928,7.18c.3687.0407,4.7476.0254,4.9468-.0213Z"/></svg>