<svg xmlns="http://www.w3.org/2000/svg" xmlns:xlink="http://www.w3.org/1999/xlink" viewBox="0 0 232.7631 219.5505"><defs><style>.a,.b{opacity:0.6;}.b,.c,.e{fill:#e20c16;}.c{opacity:0.9;}.d{opacity:0.7;}.f{fill:#fff;}.g{fill:url(#a);}.h{fill:url(#b);}</style><linearGradient id="a" x1="75.1374" y1="69.8204" x2="75.1374" y2="-41.1796" gradientTransform="translate(8.6034 39.0349) rotate(1.6231)" gradientUnits="userSpaceOnUse"><stop offset="0" stop-color="#33bcb9"/><stop offset="0.1071" stop-color="#33bcba" stop-opacity="0.9605"/><stop offset="0.2678" stop-color="#33bdbb" stop-opacity="0.8514"/><stop offset="0.4621" stop-color="#33bebe" stop-opacity="0.6727"/><stop offset="0.6827" stop-color="#33bfc1" stop-opacity="0.4243"/><stop offset="0.9225" stop-color="#33c0c5" stop-opacity="0.1102"/><stop offset="1" stop-color="#33c1c7" stop-opacity="0"/></linearGradient><linearGradient id="b" x1="142.6006" y1="82.877" x2="142.6006" y2="17.877" gradientTransform="matrix(1, 0.0047, -0.0047, 1, 4.7703, 38.9448)" xlink:href="#a"/></defs><title>humedad</title><g class="a"><path class="b" d="M231.5459,116.4468l-.5265-.0182.045-.0274-128.2852-70.1L.8,108.4284.2735,108.41,1.15,145.6688a8.7936,8.7936,0,0,0,4.5847,7.5154L125.597,218.479a8.7939,8.7939,0,0,0,8.7637-.2014l93.8276-56.8508a8.7938,8.7938,0,0,0,4.2343-7.7278Z"/><path class="c" d="M229.9622,119.1142l-98.59,60.0621a3.7523,3.7523,0,0,1-3.7518.0883L1.9532,110.595A3.7526,3.7526,0,0,1,1.8,104.0972L100.39,44.035a3.7526,3.7526,0,0,1,3.7518-.0883l125.6676,68.67A3.7526,3.7526,0,0,1,229.9622,119.1142Z"/></g><g class="d"><path class="e" d="M232.7631,147.7107c-1.9246.0453-6.7371,5.6275-10.6138,6.4552a9.4148,9.4148,0,0,0-3.0774.917c-1.1067.6862-1.76,1.9167-2.7794,2.7271a10.0383,10.0383,0,0,1-3.119,1.4316c-8.5995,2.9132-16.4632,5.2751-22.3973,12.1473-1.3031-.9416-3.0937-.0165-4.415.8993-4.5659,3.1645-9.0638,9.216-13.63,12.3805a3.0768,3.0768,0,0,0-1.6477-2.3905,82.8155,82.8155,0,0,0-11.5184,11.9185c-3.2983-1.7573-8,1.0807-7.9813,4.8179L136.65,203.5153a5.9359,5.9359,0,0,1-7.11,3.1132,100.1524,100.1524,0,0,1-27.6209-10.9428c-.4213-.2448.0049.2186-.4444.03a29.704,29.704,0,0,1-10.0835-6.86l-4.1462-.3791a6.8408,6.8408,0,0,0-1.0631-4.3421c-1.99,1.62-5.0024.4451-7.0089-1.1545s-3.94-3.6819-6.4995-3.8663c-1.6111-.1162-3.445.5137-4.7183-.48-1.166-.91-1.1933-2.7355-2.2471-3.7736-1.8715-1.8439-5.4114-.0254-7.5121-1.6033-1.436-1.0786-1.5091-3.2367-2.6422-4.63-2.0841-2.5634-6.5933-1.4632-8.965-3.7631-1.1987-1.1624-1.9564-3.2069-3.626-3.1876-.8272.01-1.551.5828-2.3716.6875-3.161.4033-3.1879-5.0829-5.8416-6.8471a1.9611,1.9611,0,0,0-2.1265,1.2083,18.3564,18.3564,0,0,0-3.42-5.7865l-2.0142,3.0617L14.3832,146.077l-1.7881.5482c-4.31-.2189-8.2174-7.0192-11.6021-7.082l.09-17.1909c2.1627.055,3.6659,2.2269,5.6518,4.8339l2.6314-.703,1.9982,3.0577c.6164-2.1422,4.433-1.9924,4.88.1915l1.1709-2.5653c3.8605,9.23,20.275,8.74,22.282,18.542l1.8066-1.9673,3.0481,5.9517c2.1029-1.8818,6.1065-.3612,6.43,2.4421,1.423-1.3807,3.7456-.065,5.2367,1.2418l10.54,9.2369a1.9837,1.9837,0,0,1,2.2029-1.2211l2.2212,4.1048c.5481-1.1557,2.2316-1.2988,3.3545-.6864a11.4136,11.4136,0,0,1,2.7226,2.672,12.7509,12.7509,0,0,0,11.1559,4.0021c.501,2.6314,1.5126,5.8013,4.1461,6.2911a19.0963,19.0963,0,0,0,2.616.02,5.2594,5.2594,0,0,1,3.9945,2.1906l3.9607,6.4514c-.0825-1.794,2.107-2.96,3.8734-2.636s3.1859,1.5822,4.65,2.6228a22.2663,22.2663,0,0,0,14.3462,4.025l1.226,2.2489,8.551-.5784c.67-3.6215,5.0153-4.9458,8.4867-6.1757,6.5691-2.3273,12.202-6.6638,17.7115-10.9317,2.8634-2.2181,5.9461-1.7588,7.0564-5.2064l11.0146-10.1236c.8042.6289,1.54-1.6291,2.3446-1a2.6542,2.6542,0,0,1,3.9481-1.4947,15.0694,15.0694,0,0,1,8.0036-7.5773l1.8289,1.7554a71.5731,71.5731,0,0,0,8.7771-9.8724,3.0423,3.0423,0,0,1,2.3193,1.4867l13.221-9.9525c3.4955-2.6314,6.963-6.3753,11.3806-6.3392Z"/></g><path class="f" d="M118.7383,75.99A36,36,0,1,1,46.7672,73.95C47.33,54.076,84.8771,0,84.8771,0S119.3015,56.1153,118.7383,75.99Z"/><path class="f" d="M168.1623,101.5024a21.0811,21.0811,0,1,1-42.1617-.1964c.0543-11.6426,21.2855-43.82,21.2855-43.82S168.2166,89.86,168.1623,101.5024Z"/><path class="g" d="M118.7383,75.99A36,36,0,1,1,46.7672,73.95C47.33,54.076,84.8771,0,84.8771,0S119.3015,56.1153,118.7383,75.99Z"/><path class="h" d="M168.1623,101.5024a21.0811,21.0811,0,1,1-42.1617-.1964c.0543-11.6426,21.2855-43.82,21.2855-43.82S168.2166,89.86,168.1623,101.5024Z"/></svg>