<svg xmlns="http://www.w3.org/2000/svg" viewBox="0 0 338.7403 277.8308"><defs><style>.a{fill:#fff;}.a,.b{stroke:#e20c16;stroke-linecap:round;stroke-linejoin:round;stroke-width:3px;}.b{fill:none;}.c{fill:#e20c16;}</style></defs><title>icopor</title><ellipse class="a" cx="299.3366" cy="199.4854" rx="25.1879" ry="14.5422"/><polyline class="a" points="324.524 199.485 335.193 127.44 263.731 127.44 274.149 200.43"/><path class="a" d="M337.24,113.3625h-7.4841a32.0778,32.0778,0,0,0-3.63-2.4285c-14.7955-8.5421-38.7838-8.5421-53.5793,0a32.0951,32.0951,0,0,0-3.63,2.4283H261.45v13.3369h.0122c.1291,5.4981,3.8179,10.9736,11.0843,15.1688,14.7954,8.5422,38.7837,8.5422,53.5793,0,7.2664-4.1952,10.9553-9.6706,11.0844-15.1687h.03Z"/><ellipse class="a" cx="299.3366" cy="114.4701" rx="37.8863" ry="21.8737"/><path class="b" d="M265.0869,123.3136c1.6348-3.0886,4.6319-6,8.9913-8.4375,13.95-7.801,36.5672-7.801,50.5171,0,4.3385,2.4261,7.3278,5.3211,8.9676,8.3933"/><ellipse class="b" cx="299.3366" cy="116.2252" rx="35.721" ry="19.9754"/><path class="a" d="M39.5609,199.9435l11.0655,29.9674a17.6476,17.6476,0,0,0,7.7262,9.1674l61.5689,35.5731a12.52,12.52,0,0,0,12.5152.0068l101.8-58.5468a15.6277,15.6277,0,0,0,7.1758-9.0853l11.5283-38.7655-72.1-48.0622a13.9456,13.9456,0,0,0-15.1172-.2276Z"/><path class="a" d="M248.1719,175.2524,131.95,242.2947a26.2589,26.2589,0,0,1-26.2632.0024L44.2106,206.8037a9.5451,9.5451,0,0,1-.0016-16.5316l124.58-71.87a9.5448,9.5448,0,0,1,9.5466-.0009L248.17,158.7209A9.545,9.545,0,0,1,248.1719,175.2524Z"/><path class="b" d="M73.3306,223.4354l86.8947-49.9248a12.157,12.157,0,0,1,12.1186-.01l39.4863,22.657"/><path class="a" d="M31.4855,180.8563,9.9919,168.774A16.4192,16.4192,0,0,1,1.6185,154.49L1.5,86.56A16.4193,16.4193,0,0,1,9.7014,72.3168l104.193-60.4126a31.3158,31.3158,0,0,1,10.0467-3.71l35.7664-6.5795Z"/><path class="a" d="M163.4962,110.4794,40.9831,181.2345a8.873,8.873,0,0,1-13.314-7.6817V89.2108a22.8591,22.8591,0,0,1,11.418-19.79L154.6143,2.7046a8.873,8.873,0,0,1,13.3139,7.6817v92.4114A8.873,8.873,0,0,1,163.4962,110.4794Z"/><path class="b" d="M118.5958,24.0065l-.2115,72.2921a18.3439,18.3439,0,0,1-9.1947,15.8459l-81.52,46.76"/><path class="c" d="M90.3568,29.2432,72.1148,39.9739a3.3591,3.3591,0,0,0-1.6559,2.8952l-.04,2.85a.6387.6387,0,0,0,.9625.5595l23.6978-13.94a.6472.6472,0,0,0,.3121-.6388A3.36,3.36,0,0,0,90.3568,29.2432Z"/><line class="a" x1="189.8116" y1="217.0136" x2="214.7716" y2="202.3312"/><polygon class="a" points="149.61 129.493 70.409 175.124 60.893 169.844 140.093 124.213 149.61 129.493"/></svg>