<svg xmlns="http://www.w3.org/2000/svg" viewBox="0 0 216.0261 180.4312"><defs><style>.a,.c{fill:#fff;}.b{fill:#e20c16;}.c{stroke:#e20c16;stroke-linecap:round;stroke-linejoin:round;stroke-width:3px;}</style></defs><title>lima</title><path class="a" d="M141.6642,156.5173a85.6754,85.6754,0,0,1-9.5107-.5435c.06-.1343.1211-.2612.1856-.3813a79.5645,79.5645,0,0,0-8.64-88.42c-3.9172-4.7764-8.7807-10.208-15.1545-14.2784-8.3-5.2993-17.8008-7.8754-29.0471-7.8754-1.3738,0-2.7979.0395-4.2325.1167-.3327.018-.6655.0385-1.0188.061l.1531-.293c.9041-1.7329,1.6846-3.23,2.5691-4.687C89.4055,19.7185,107.2228,7.5246,129.925,3.9733A79.4185,79.4185,0,0,1,142.1555,3c16.989,0,32.6152,5.8672,46.4443,17.438C203.937,33.27,212.9162,49.5788,215.2888,68.91c3.5974,29.3149-6.0039,53.4194-28.5379,71.6435A70.0211,70.0211,0,0,1,141.6642,156.5173ZM143.7851,24.92a1.5,1.5,0,0,0,1.8516.4492c.194-.0937.3271-.1523.42-.1933a1.93,1.93,0,0,0,.8051-.5654,7.1719,7.1719,0,0,0,.6893-.9668c1.0981-1.9278,2.457-2.8252,4.2768-2.8252a6.6988,6.6988,0,0,1,1.0347.0854,18.9652,18.9652,0,0,0,2.55.1685c.469.0107.9883.0229,1.5825.05q.0348.0014.0691.0014a1.5,1.5,0,0,0,1.0821-2.5385l-4.0486-4.2178.9162-1.5918a1.5,1.5,0,0,0-.9148-2.1983,15.073,15.073,0,0,0-3.9118-.6084,7.9274,7.9274,0,0,0-3.1834.6265,4.3574,4.3574,0,0,1-1.772.3755,7.2637,7.2637,0,0,1-1.8657-.2881,22.0868,22.0868,0,0,0-3.823-.5522c-.5813-.05-1.1872-.1026-1.8242-.1768a1.5,1.5,0,0,0-1.5261,2.1392l1.2253,2.5507-4.227,3.55a1.5,1.5,0,0,0-.4351,1.687l.2188.57a1.5,1.5,0,0,0,1.4006.9629h6.7727Z" transform="translate(-1.5 -1.5)"/><path class="b" d="M142.155,4.5c16.6279,0,31.9306,5.7492,45.4819,17.0881C202.673,34.1689,211.4753,50.1518,213.8,69.0932c3.53,28.7669-5.8877,52.4175-27.9927,70.2944a68.5559,68.5559,0,0,1-44.1426,15.63c-2.34,0-4.7407-.1067-7.165-.3174a81.05,81.05,0,0,0-9.6406-88.4792c-3.9932-4.8687-8.958-10.4092-15.5074-14.5913-8.5478-5.458-18.3129-8.1111-29.8544-8.1111-.8833,0-1.7867.0159-2.7.0474.4819-.9007.9526-1.7466,1.4536-2.5716,12.1972-20.102,29.6611-32.059,51.9062-35.539A77.94,77.94,0,0,1,142.155,4.5m-6.5923,9.7436-3.335,2.8008a3,3,0,0,0-.8711,3.3733l.11.2859.11.2861a3,3,0,0,0,2.8,1.9241H140.4l.4629.6154,1.7236,2.2918a2.9992,2.9992,0,0,0,3.7022.8987c.1718-.0833.29-.135.372-.1714a3.4181,3.4181,0,0,0,1.3692-.9966,8.6481,8.6481,0,0,0,.8247-1.1658c1.0356-1.8173,2.041-2.0678,2.9731-2.0678a5.1889,5.1889,0,0,1,.8013.0673,20.1623,20.1623,0,0,0,2.75.1863c.459.0105.9673.0222,1.5483.0489.0464.0022.0923.0031.1387.0031a3,3,0,0,0,2.1631-5.0776L155.96,14.1406l.355-.6175a3,3,0,0,0-1.8305-4.3957,16.4841,16.4841,0,0,0-4.2964-.6582,9.3888,9.3888,0,0,0-3.7744.748,2.8739,2.8739,0,0,1-1.18.2539,5.8586,5.8586,0,0,1-1.481-.238,23.2288,23.2288,0,0,0-4.08-.5974c-.5669-.0488-1.1582-.0994-1.7793-.1719a3,3,0,0,0-3.0522,4.2793l.7212,1.5005M142.155,1.5a80.5805,80.5805,0,0,0-12.4619.9914C106.0266,6.1938,88.1042,18.9721,75.6857,39.4379c-1.3574,2.2371-2.499,4.6053-4.02,7.4334,1.6348-.1065,2.6572-.1831,3.68-.2383q2.0889-.1128,4.1519-.1145c10.0078,0,19.5415,2.0852,28.24,7.64,5.8062,3.7072,10.4746,8.6884,14.8022,13.965a77.7792,77.7792,0,0,1,8.479,86.7586c-.3334.62-.5566,1.2988-.8945,2.1006a8.821,8.821,0,0,0,1.3667.425,87.0451,87.0451,0,0,0,10.1743.61A71.2989,71.2989,0,0,0,187.694,141.72c23.251-18.804,32.6992-43.53,29.0835-72.9925-2.4453-19.926-11.7959-36.5388-27.2153-49.44C175.4865,7.51,159.5593,1.5,142.155,1.5Zm-7.7784,18.4138-.22-.5721c1.6563-1.3908,3.3125-2.7817,5.1187-4.2983-.5371-1.1174-1.0157-2.1135-1.73-3.6a40.704,40.704,0,0,1,5.4365.6889,8.7427,8.7427,0,0,0,2.2515.3386,5.8656,5.8656,0,0,0,2.3618-.4965,6.47,6.47,0,0,1,2.5928-.5054,13.9308,13.9308,0,0,1,3.5268.5578c-.5508.9573-.9541,1.6573-1.478,2.5672l4.8281,5.0295c-1.7646-.081-2.8838-.03-3.9682-.2016a8.1231,8.1231,0,0,0-1.2691-.104c-2.48,0-4.2729,1.29-5.58,3.5827a5.9,5.9,0,0,1-.5532.7674c-.06.0732-.1826.0947-.7109.35l-3.0865-4.1042Z" transform="translate(-1.5 -1.5)"/><path class="a" d="M66.72,180.4313c-23.8484,0-42.9541-10.9975-56.7866-32.687-2.6441-4.1455-5.2276-8.706-6.2188-13.96-1.61-8.5347-.5122-17.2417,3.3565-26.6177C12.9,93.0393,22.6435,81.1022,36.8591,70.6735,48.82,61.8986,61.0253,56.5549,74.1721,54.3371a63.1365,63.1365,0,0,1,10.5671-.9507,41.0888,41.0888,0,0,1,17.0754,3.4473,33.3037,33.3037,0,0,1,8.95,5.6758c12.74,11.7641,20.1,24.8759,22.5013,40.0844.4013,2.5406.6545,5.1709.8991,7.7154.1133,1.1753.2264,2.3511.3538,3.5239-.4609,34.773-26.4463,63.2534-60.4793,66.2676C71.5641,180.32,69.1017,180.4313,66.72,180.4313Z" transform="translate(-1.5 -1.5)"/><path class="b" d="M84.7419,51.8864v3a39.6114,39.6114,0,0,1,16.4619,3.3169,31.8119,31.8119,0,0,1,8.543,5.4085c12.4824,11.5258,19.6909,24.3535,22.0371,39.2158.3935,2.4927.6445,5.0972.8867,7.6162.1113,1.1543.2226,2.3083.3472,3.46-.4961,33.9581-25.8785,61.76-59.1109,64.7024-2.4311.2154-4.8491.3245-7.1865.3245-23.3022,0-41.9824-10.7639-55.522-31.9929-2.563-4.0191-5.0649-8.4278-6.0093-13.4317-1.5546-8.24-.4853-16.6684,3.2691-25.7683,5.72-13.8652,15.3-25.5937,29.2881-35.8552C49.5148,63.25,61.5114,57.9941,74.4216,55.8166a61.682,61.682,0,0,1,10.3188-.93l.0015-3m-.0015,0a65.1469,65.1469,0,0,0-10.8179.9719c-14.0307,2.3665-26.5654,8.2532-37.9506,16.6058C22.6926,79.206,12.04,91.1906,5.6848,106.5942,2.0475,115.41.4406,124.52,2.2414,134.0629c1.01,5.3543,3.5708,10.0086,6.4277,14.4883,13.9141,21.8164,33.2979,33.38,58.0513,33.38q3.6461,0,7.4512-.3362c35.17-3.1145,61.4243-32.5083,61.8481-67.8332-.4155-3.802-.6767-7.6282-1.2724-11.4019-2.6-16.4665-10.9131-29.8235-22.9654-40.9521a34.7431,34.7431,0,0,0-9.3564-5.9444A42.8116,42.8116,0,0,0,84.74,51.8864Z" transform="translate(-1.5 -1.5)"/><path class="c" d="M20.8289,98.04c1.3955-6.0155,12.55-17.5327,18.4518-19.4651,2.3772,1.4913,13.0037,16.9559,14.8323,21.6274a4.7362,4.7362,0,0,1-5.3817,2.2856c-8.2514-1.369-16.5428-2.4963-24.8153-3.7394C22.95,98.6035,22.0065,98.3145,20.8289,98.04Z" transform="translate(-1.5 -1.5)"/><path class="c" d="M81.8222,133.9394c-1.1012-1.4349-1.9132-2.3717-2.5914-3.397q-5.0615-7.6518-10.0492-15.3519c-.7552-1.1708-2.1132-2.2787-1.0243-3.9435,1.0875-1.6627,2.7087-1.8519,4.5027-1.5874,5.1527.76,10.311,1.4817,15.4625,2.2492,4.0229.5994,8.039,1.2446,12.0989,1.8758.9176,1.4512.3541,2.683-.4314,3.7958a69.0831,69.0831,0,0,1-13.7683,14.4764C84.932,132.9151,83.4242,133.2425,81.8222,133.9394Z" transform="translate(-1.5 -1.5)"/><path class="c" d="M76.6924,136.9243C73.285,142.377,59.43,149.1759,52.7866,148.8969a8.3736,8.3736,0,0,1-.1147-2.41q3.4445-14.04,7.0112-28.05A4.2057,4.2057,0,0,1,63.88,114.966C68.1377,122.2625,72.4464,129.647,76.6924,136.9243Z" transform="translate(-1.5 -1.5)"/><path class="c" d="M69.6086,62.9247c-.6655,2.9462-1.1017,5.0262-1.6073,7.0892-1.8609,7.5931-3.766,15.1753-5.6066,22.7732-.5172,2.1351-1.4485,3.8071-4.1622,4.4057A20.1372,20.1372,0,0,1,56.5632,95.02Q51.4839,86.3687,46.48,77.6739c-1.5194-2.6311-1.4161-3.5833.7231-5.6114A10.4734,10.4734,0,0,1,49.94,70.0707c4.841-2.2044,9.7-4.3752,14.6216-6.3916C65.8328,63.1582,67.3507,63.2391,69.6086,62.9247Z" transform="translate(-1.5 -1.5)"/><path class="c" d="M10.5592,124.7708c-.1453-1.62-.5294-2.7741-.29-3.7795a90.3267,90.3267,0,0,1,3.2292-11.7658c2.0056-5.17,4.2789-6.13,9.8475-5.4635,7.2027.8627,14.4216,1.59,21.63,2.4079,1.54.1749,3.0646.4921,5.4554.8849-1.4355,1.301-2.16,2.3714-3.1591,2.8-11.1421,4.7763-22.3232,9.4617-33.507,14.14A24.2783,24.2783,0,0,1,10.5592,124.7708Z" transform="translate(-1.5 -1.5)"/><path class="c" d="M111.5758,87.41c-.2748,7.0552-1.6,12.8268-4.7084,18.0823a6.1976,6.1976,0,0,1-6.3242,3.17q-12.3345-1.3376-24.6665-2.7c-1.2193-.1361-2.4227-.415-3.6736-.6349-.1144-2.1582,1.4133-2.6624,2.68-3.2436,2.7781-1.2744,5.61-2.4332,8.423-3.63,7.611-3.2372,15.2084-6.5071,22.85-9.6715A41.9587,41.9587,0,0,1,111.5758,87.41Z" transform="translate(-1.5 -1.5)"/><path class="c" d="M55.43,115.8135a14.5281,14.5281,0,0,1-.0259,3.0493c-2.5669,9.0244-5.2168,18.0252-7.7754,27.052a7.0186,7.0186,0,0,1-6.1621,5.51,30.2654,30.2654,0,0,1-13.694-1.553,11.0426,11.0426,0,0,1-2.3747-1.649,33.0223,33.0223,0,0,1,2.42-3.4984q11.8808-13.0652,23.8609-26.04A30.2667,30.2667,0,0,1,55.43,115.8135Z" transform="translate(-1.5 -1.5)"/><path class="c" d="M65.9668,95.8255c.2678-1.4251.3848-2.5112.68-3.5464,2.4211-8.4823,4.8372-16.9663,7.3348-25.4262,1.3747-4.6566,3.5313-6.4007,8.3742-6.277a74.0464,74.0464,0,0,1,10.422,1.2563c1.112.1886,2.1038,1.0855,3.5736,1.89a31.189,31.189,0,0,1-2.535,3.8582Q82.292,80.29,70.6581,92.9014C69.4879,94.1735,68.3509,95.6043,65.9668,95.8255Z" transform="translate(-1.5 -1.5)"/><path class="c" d="M71.3221,97.7713c2.5985-2.7817,5.1707-5.5885,7.8008-8.34q8.5744-8.97,17.1982-17.8929A28.8562,28.8562,0,0,1,98.5,69.3956c3.2436-2.7208,5.1366-2.65,7.6883.6237a31.3708,31.3708,0,0,1,3.6711,6.0855c1.3307,2.8774.6167,4.9267-2.0114,6.7418a16.9524,16.9524,0,0,1-2.6906,1.4352Q89.8288,91.1844,74.4793,98.0407a18.649,18.649,0,0,1-2.6489.7507Z" transform="translate(-1.5 -1.5)"/><path class="c" d="M50.4221,114.1026c-.8441,1.0172-1.6322,2.0876-2.541,3.0431Q36.1575,129.4711,24.3875,141.752a14.13,14.13,0,0,1-2.3192,1.9848c-2.1773,1.4534-4.1016,1.3805-5.7051-.6959a42.4163,42.4163,0,0,1-4.627-7.4663c-1.1959-2.4836-.3686-4.6039,1.976-6.1642a27.16,27.16,0,0,1,3.9094-2.0479q14.2565-6.4285,28.5406-12.7954c1.1893-.53,2.4646-.866,3.7-1.292Z" transform="translate(-1.5 -1.5)"/></svg>