<svg xmlns="http://www.w3.org/2000/svg" viewBox="0 0 220 271.7094"><defs><style>.a,.d{fill:none;}.b{font-size:26px;fill:#606060;font-family:Lato-Italic, Lato;font-style:italic;}.c{fill:#fff;}.c,.d{stroke:#e20c16;stroke-linecap:round;stroke-linejoin:round;stroke-width:3px;}.e{fill:#e20c16;opacity:0.2;}</style></defs><title>limoneno</title><rect class="a" y="2.5521" width="220" height="220"/><text class="b" transform="translate(62.2676 264.7284)">Limoneno</text><path class="c" d="M178.15,181.39c.0005-.06.0038-.1206.0038-.1809h-.0665L138.9362,68.35a67.4272,67.4272,0,0,1-4.845-25.0974V14.4951H90.0283V43.2528A67.4272,67.4272,0,0,1,85.1833,68.35L45.9985,181.3047l-.2237,0c.0418,9.749,6.504,19.49,19.3863,26.9288,25.8487,14.9251,67.7578,14.9251,93.6065,0,12.84-7.414,19.2991-17.1163,19.3826-26.8334h.004Z"/><ellipse class="c" cx="112.1145" cy="14.4952" rx="21.9999" ry="12.7027"/><ellipse class="d" cx="112.1145" cy="15.4685" rx="24.1921" ry="13.9685"/><path class="e" d="M178.15,181.4l-.7207-2.0779a24.5835,24.5835,0,0,0-3.3394-9.6274L148.1052,94.7805l-.5006-.0021c-1.1889-4.1252-4.529-8.0839-10.0409-11.2664-14.0551-8.1155-36.8431-8.1155-50.8984,0-5.3731,3.1024-8.6849,6.9425-9.95,10.9553l-.5916-.0026L49.8408,170.2286a24.5533,24.5533,0,0,0-2.9779,8.5844l-.2352.6778.1507.0023c-1.1581,10.4682,5.1741,21.1612,19.03,29.1617,25.5743,14.7664,67.0382,14.7664,92.6125,0,13.0186-7.5171,19.3947-17.4114,19.1589-27.2629Z"/><ellipse class="e" cx="112.1145" cy="98.2063" rx="35.9906" ry="20.781"/></svg>