<svg xmlns="http://www.w3.org/2000/svg" viewBox="0 0 831.3566 371.6357"><defs><style>.a{font-size:26px;font-family:Lato-Italic, Lato;font-style:italic;}.a,.m{fill:#606060;}.b,.c,.d,.f,.p,.q{fill:#d91519;}.b{opacity:0.2;}.c{opacity:0.3;}.d,.n{opacity:0.5;}.e,.l,.o{fill:none;stroke-linecap:round;stroke-linejoin:round;}.e,.o{stroke:#d91519;}.e{stroke-width:3px;}.g{opacity:0.7;}.h{opacity:0.8;}.i,.q{opacity:0.9;}.j{opacity:0.45;}.k,.p{opacity:0.6;}.l{stroke:#606060;}.l,.o{stroke-width:2px;}</style></defs><title>mold</title><text class="a" transform="translate(671.17 333.4548)">Mezcla con<tspan x="-20.6694" y="31.2002">partículas finas</tspan></text><path class="b" d="M801.2473,163.1033c-38.1457-22.0253-99.9922-22.0253-138.138,0-21.9469,12.6722-31.24,29.8729-27.9326,46.3924H634.5v14.1091c0,14.434,9.5364,28.8679,28.6093,39.8806,38.1458,22.0253,99.9923,22.0253,138.138,0,19.0729-11.0127,28.6093-25.4466,28.6093-39.8806V209.4957H829.18C832.4871,192.9762,823.1942,175.7755,801.2473,163.1033Z"/><ellipse class="c" cx="732.1783" cy="202.9838" rx="97.6783" ry="56.3995"/><circle class="d" cx="716.1136" cy="248.5388" r="1.4783"/><circle class="d" cx="741.2446" cy="242.6256" r="1.4783"/><circle class="d" cx="685.0695" cy="227.1035" r="1.4783"/><circle class="d" cx="671.0257" cy="211.5815" r="1.4783"/><circle class="d" cx="713.157" cy="189.4071" r="1.4783"/><circle class="d" cx="756.0275" cy="221.1904" r="1.4783"/><circle class="d" cx="721.2876" cy="210.1032" r="1.4783"/><circle class="d" cx="752.3317" cy="201.9726" r="1.4783"/><circle class="d" cx="685.0695" cy="200.4943" r="1.4783"/><circle class="d" cx="790.0282" cy="229.321" r="1.4783"/><circle class="d" cx="696.1567" cy="210.8423" r="1.4783"/><circle class="d" cx="661.4168" cy="176.1025" r="1.4783"/><circle class="d" cx="689.5043" cy="251.4953" r="1.4783"/><circle class="d" cx="659.9385" cy="250.017" r="1.4783"/><circle class="d" cx="700.5915" cy="235.2341" r="1.4783"/><circle class="d" cx="713.157" cy="265.5391" r="1.4783"/><circle class="d" cx="661.4168" cy="199.7551" r="1.4783"/><circle class="d" cx="732.3748" cy="193.842" r="1.4783"/><circle class="d" cx="722.7659" cy="159.1021" r="1.4783"/><circle class="d" cx="730.8965" cy="179.7982" r="1.4783"/><circle class="d" cx="741.9837" cy="163.537" r="1.4783"/><circle class="d" cx="688.0261" cy="169.4501" r="1.4783"/><circle class="d" cx="696.1567" cy="190.1462" r="1.4783"/><circle class="d" cx="671.0257" cy="190.8854" r="1.4783"/><circle class="d" cx="707.2438" cy="173.885" r="1.4783"/><circle class="d" cx="702.0698" cy="156.1455" r="1.4783"/><circle class="d" cx="766.3755" cy="201.9726" r="1.4783"/><circle class="d" cx="744.2011" cy="229.321" r="1.4783"/><circle class="d" cx="653.2862" cy="222.6686" r="1.4783"/><circle class="d" cx="665.8517" cy="234.495" r="1.4783"/><circle class="d" cx="766.3755" cy="245.5822" r="1.4783"/><circle class="d" cx="794.4631" cy="247.0605" r="1.4783"/><circle class="d" cx="719.8093" cy="230.7993" r="1.4783"/><circle class="d" cx="771.5495" cy="229.321" r="1.4783"/><circle class="d" cx="741.2446" cy="258.8868" r="1.4783"/><circle class="d" cx="763.4189" cy="260.3651" r="1.4783"/><circle class="d" cx="742.7228" cy="218.2338" r="1.4783"/><circle class="d" cx="787.0716" cy="207.1466" r="1.4783"/><circle class="d" cx="809.9851" cy="215.2772" r="1.4783"/><circle class="d" cx="747.1577" cy="181.2765" r="1.4783"/><circle class="d" cx="760.4623" cy="185.7114" r="1.4783"/><circle class="d" cx="761.9406" cy="164.2761" r="1.4783"/><circle class="d" cx="778.941" cy="193.842" r="1.4783"/><circle class="d" cx="773.0278" cy="177.5808" r="1.4783"/><circle class="d" cx="797.4196" cy="178.3199" r="1.4783"/><circle class="d" cx="794.4631" cy="193.842" r="1.4783"/><circle class="d" cx="777.4627" cy="164.2761" r="1.4783"/><ellipse class="e" cx="732.1783" cy="160.6566" rx="97.6783" ry="56.3995"/><path class="e" d="M801.2473,120.776c-38.1457-22.0253-99.9922-22.0253-138.138,0C644.0364,131.7887,634.5,146.2226,634.5,160.6566v62.9482c0,14.434,9.5364,28.8679,28.6093,39.8806,38.1458,22.0253,99.9923,22.0253,138.138,0,19.0729-11.0127,28.6093-25.4466,28.6093-39.8806V160.6566C829.8566,146.2226,820.32,131.7887,801.2473,120.776Z"/><circle class="f" cx="747.1577" cy="173.1459" r="1.4783"/><circle class="f" cx="722.0268" cy="179.059" r="1.4783"/><circle class="f" cx="778.2018" cy="194.5811" r="1.4783"/><circle class="f" cx="792.2456" cy="210.1032" r="1.4783"/><circle class="f" cx="750.1143" cy="232.2775" r="1.4783"/><circle class="f" cx="707.2438" cy="200.4943" r="1.4783"/><circle class="f" cx="741.9837" cy="211.5815" r="1.4783"/><circle class="f" cx="710.9396" cy="219.7121" r="1.4783"/><circle class="f" cx="778.2018" cy="221.1904" r="1.4783"/><circle class="f" cx="673.2431" cy="192.3637" r="1.4783"/><circle class="f" cx="767.1147" cy="210.8423" r="1.4783"/><circle class="f" cx="801.8545" cy="245.5822" r="1.4783"/><circle class="f" cx="773.767" cy="170.1893" r="1.4783"/><circle class="f" cx="803.3328" cy="171.6676" r="1.4783"/><circle class="f" cx="762.6798" cy="186.4505" r="1.4783"/><circle class="f" cx="750.1143" cy="156.1455" r="1.4783"/><circle class="f" cx="801.8545" cy="221.9295" r="1.4783"/><circle class="f" cx="730.8965" cy="227.8427" r="1.4783"/><circle class="f" cx="740.5054" cy="262.5825" r="1.4783"/><circle class="f" cx="732.3748" cy="241.8864" r="1.4783"/><circle class="f" cx="721.2876" cy="258.1476" r="1.4783"/><circle class="f" cx="775.2453" cy="252.2345" r="1.4783"/><circle class="f" cx="767.1147" cy="231.5384" r="1.4783"/><circle class="f" cx="792.2456" cy="230.7993" r="1.4783"/><circle class="f" cx="756.0275" cy="247.7996" r="1.4783"/><circle class="f" cx="761.2015" cy="265.5391" r="1.4783"/><circle class="f" cx="696.8958" cy="219.7121" r="1.4783"/><circle class="f" cx="719.0702" cy="192.3637" r="1.4783"/><circle class="f" cx="809.9851" cy="199.016" r="1.4783"/><circle class="f" cx="797.4196" cy="187.1896" r="1.4783"/><circle class="f" cx="696.8958" cy="176.1025" r="1.4783"/><circle class="f" cx="668.8083" cy="174.6242" r="1.4783"/><circle class="f" cx="743.462" cy="190.8854" r="1.4783"/><circle class="f" cx="691.7218" cy="192.3637" r="1.4783"/><circle class="f" cx="722.0268" cy="162.7978" r="1.4783"/><circle class="f" cx="699.8524" cy="161.3195" r="1.4783"/><circle class="f" cx="720.5485" cy="203.4509" r="1.4783"/><circle class="f" cx="676.1997" cy="214.538" r="1.4783"/><circle class="f" cx="653.2862" cy="206.4074" r="1.4783"/><circle class="f" cx="716.1136" cy="240.4081" r="1.4783"/><circle class="f" cx="702.809" cy="235.9733" r="1.4783"/><circle class="f" cx="701.3307" cy="257.4085" r="1.4783"/><circle class="f" cx="684.3303" cy="227.8427" r="1.4783"/><circle class="f" cx="690.2435" cy="244.1039" r="1.4783"/><circle class="f" cx="665.8517" cy="243.3647" r="1.4783"/><circle class="f" cx="668.8083" cy="227.8427" r="1.4783"/><circle class="f" cx="685.8086" cy="257.4085" r="1.4783"/><text class="a" transform="translate(38.1697 333.4548)">Mezcla con<tspan x="-35.8853" y="31.2002">partículas gruesas</tspan></text><path class="b" d="M168.2473,163.1033c-38.1457-22.0253-99.9922-22.0253-138.138,0C8.1624,175.7755-1.13,192.9762,2.1767,209.4957H1.5v14.1091c0,14.434,9.5364,28.8679,28.6093,39.8806,38.1458,22.0253,99.9923,22.0253,138.138,0,19.0729-11.0127,28.6093-25.4466,28.6093-39.8806V209.4957H196.18C199.4871,192.9762,190.1942,175.7755,168.2473,163.1033Z"/><ellipse class="c" cx="99.1783" cy="202.9838" rx="97.6783" ry="56.3995"/><circle class="d" cx="83.1136" cy="248.5388" r="1.4783"/><circle class="d" cx="108.2446" cy="242.6256" r="1.4783"/><circle class="d" cx="52.0695" cy="227.1035" r="1.4783"/><circle class="d" cx="38.0257" cy="211.5815" r="1.4783"/><circle class="d" cx="80.157" cy="189.4071" r="1.4783"/><circle class="d" cx="123.0275" cy="221.1904" r="1.4783"/><circle class="d" cx="88.2876" cy="210.1032" r="1.4783"/><circle class="d" cx="119.3317" cy="201.9726" r="1.4783"/><circle class="d" cx="52.0695" cy="200.4943" r="1.4783"/><circle class="d" cx="157.0282" cy="229.321" r="1.4783"/><circle class="d" cx="63.1567" cy="210.8423" r="1.4783"/><circle class="d" cx="28.4168" cy="176.1025" r="1.4783"/><circle class="d" cx="56.5043" cy="251.4953" r="1.4783"/><circle class="d" cx="26.9385" cy="250.017" r="1.4783"/><circle class="d" cx="67.5915" cy="235.2341" r="1.4783"/><circle class="d" cx="80.157" cy="265.5391" r="1.4783"/><circle class="d" cx="28.4168" cy="199.7551" r="1.4783"/><circle class="d" cx="99.3748" cy="193.842" r="1.4783"/><circle class="d" cx="89.7659" cy="159.1021" r="1.4783"/><circle class="d" cx="97.8965" cy="179.7982" r="1.4783"/><circle class="d" cx="108.9837" cy="163.537" r="1.4783"/><circle class="d" cx="55.0261" cy="169.4501" r="1.4783"/><circle class="d" cx="63.1567" cy="190.1462" r="1.4783"/><circle class="d" cx="38.0257" cy="190.8854" r="1.4783"/><circle class="d" cx="74.2438" cy="173.885" r="1.4783"/><circle class="d" cx="69.0698" cy="156.1455" r="1.4783"/><circle class="d" cx="133.3755" cy="201.9726" r="1.4783"/><circle class="d" cx="111.2011" cy="229.321" r="1.4783"/><circle class="d" cx="20.2862" cy="222.6686" r="1.4783"/><circle class="d" cx="32.8517" cy="234.495" r="1.4783"/><circle class="d" cx="133.3755" cy="245.5822" r="1.4783"/><circle class="d" cx="161.4631" cy="247.0605" r="1.4783"/><circle class="d" cx="86.8093" cy="230.7993" r="1.4783"/><circle class="d" cx="138.5495" cy="229.321" r="1.4783"/><circle class="d" cx="108.2446" cy="258.8868" r="1.4783"/><circle class="d" cx="130.4189" cy="260.3651" r="1.4783"/><circle class="d" cx="109.7228" cy="218.2338" r="1.4783"/><circle class="d" cx="154.0716" cy="207.1466" r="1.4783"/><circle class="d" cx="176.9851" cy="215.2772" r="1.4783"/><circle class="d" cx="114.1577" cy="181.2765" r="1.4783"/><circle class="d" cx="127.4623" cy="185.7114" r="1.4783"/><circle class="d" cx="128.9406" cy="164.2761" r="1.4783"/><circle class="d" cx="145.941" cy="193.842" r="1.4783"/><circle class="d" cx="140.0278" cy="177.5808" r="1.4783"/><circle class="d" cx="164.4196" cy="178.3199" r="1.4783"/><circle class="d" cx="161.4631" cy="193.842" r="1.4783"/><circle class="d" cx="144.4627" cy="164.2761" r="1.4783"/><ellipse class="e" cx="99.1783" cy="160.6566" rx="97.6783" ry="56.3995"/><path class="e" d="M168.2473,120.776c-38.1457-22.0253-99.9922-22.0253-138.138,0C11.0364,131.7887,1.5,146.2226,1.5,160.6566v62.9482c0,14.434,9.5364,28.8679,28.6093,39.8806,38.1458,22.0253,99.9923,22.0253,138.138,0,19.0729-11.0127,28.6093-25.4466,28.6093-39.8806V160.6566C196.8566,146.2226,187.32,131.7887,168.2473,120.776Z"/><g class="g"><path class="f" d="M81.5875,191.1475c-.8957.1172-.9373-.1947-.979-.548a1.4263,1.4263,0,0,1-.0094-.83h0a4.1961,4.1961,0,0,1,1.0307-2.6745,12.5259,12.5259,0,0,1,4.5484-3.9253c.0824.242.1742.05.272.0035.9074-.4282,1.68-.9453,2.6444-1.334-.107-.1192.024-.176.5771-.4116a15.2943,15.2943,0,0,1,4.6045-1.1539,11.4938,11.4938,0,0,1,5.39.5685c.0881.0457.1787.09.27.1352-.088-.0458-.1754-.0917-.27-.1352,1.3592.4839,2.2894,1.257,3.5945,1.7773h0a27.4694,27.4694,0,0,1,4.11,2.0369,1.9333,1.9333,0,0,1,1.1557,1.3758,4.961,4.961,0,0,1-.9063,4.3474,5.8763,5.8763,0,0,1-1.8736,2.1331,7.9049,7.9049,0,0,1-2.4765,1.7108,16.1172,16.1172,0,0,1-6.5518,2.0329,10.9494,10.9494,0,0,1-5.8945-.67c-.25-.082-.364-.2354-.2958-.4062.0748-.1867.3428-.2255.6251-.239,1.3252-.0632,2.6058-.2609,3.8967-.4278h0a21.0779,21.0779,0,0,0,6.2921-2.5961h0a2.105,2.105,0,0,0,.2777-.2695c.1172-.1685.4463-.3516.2152-.5159-.1806-.1284-.5688-.0561-.8671-.0272q-1.2067.117-2.413.2344c-.2262.0222-.5107.1324-.6477-.0343-.1138-.1384.1239-.2573.2842-.36.3852-.246.7792-.4873,1.17-.7306h0a14.6122,14.6122,0,0,0,2.5065-2.8856h0c.279-.62.5606-1.2406.8355-1.8618.0926-.2093.1664-.4251-.3052-.5226-.62-.1282-.6465-.4205-.6175-.7273.0268-.282.0753-.5651-.4435-.7361a17.8431,17.8431,0,0,0-6.69,1.0164c-.29.1507-.5743.3047-.8694.4516a24.4968,24.4968,0,0,0-4.9013,3.0413c-2.028,2.0261-2.755,4.1645-1.6725,6.4591a14.7029,14.7029,0,0,0,1.6747,2.0583,1.82,1.82,0,0,1-.3118-.0387,20.0016,20.0016,0,0,1-6.1372-4.8685C82.2564,191.3822,82.1182,191.078,81.5875,191.1475Z"/></g><g class="g"><path class="f" d="M93.5875,165.1475c-.8957.1172-.9373-.1947-.979-.548a1.4263,1.4263,0,0,1-.0094-.83h0a4.1961,4.1961,0,0,1,1.0307-2.6745,12.5259,12.5259,0,0,1,4.5484-3.9253c.0824.242.1742.05.272.0035.9074-.4282,1.68-.9453,2.6444-1.334-.107-.1192.024-.176.5771-.4116a15.2943,15.2943,0,0,1,4.6045-1.1539,11.4938,11.4938,0,0,1,5.39.5685c.0881.0457.1787.09.27.1352-.088-.0458-.1754-.0917-.27-.1352,1.3592.4839,2.2894,1.257,3.5945,1.7773h0a27.4694,27.4694,0,0,1,4.11,2.0369,1.9333,1.9333,0,0,1,1.1557,1.3758,4.961,4.961,0,0,1-.9063,4.3474,5.8763,5.8763,0,0,1-1.8736,2.1331,7.9049,7.9049,0,0,1-2.4765,1.7108,16.1172,16.1172,0,0,1-6.5518,2.0329,10.9494,10.9494,0,0,1-5.8945-.67c-.25-.082-.364-.2354-.2958-.4062.0748-.1867.3428-.2255.6251-.239,1.3252-.0632,2.6058-.2609,3.8967-.4278h0a21.0779,21.0779,0,0,0,6.2921-2.5961h0a2.105,2.105,0,0,0,.2777-.2695c.1172-.1685.4463-.3516.2152-.5159-.1806-.1284-.5688-.0561-.8671-.0272q-1.2067.117-2.413.2344c-.2262.0222-.5107.1324-.6477-.0343-.1138-.1384.1239-.2573.2842-.36.3852-.246.7792-.4873,1.17-.7306h0a14.6122,14.6122,0,0,0,2.5065-2.8856h0c.279-.62.5606-1.2406.8355-1.8618.0926-.2093.1664-.4251-.3052-.5226-.62-.1282-.6465-.4205-.6175-.7273.0268-.282.0753-.5651-.4435-.7361a17.8431,17.8431,0,0,0-6.69,1.0164c-.29.1507-.5743.3047-.8694.4516a24.4968,24.4968,0,0,0-4.9013,3.0413c-2.028,2.0261-2.755,4.1645-1.6725,6.4591a14.7029,14.7029,0,0,0,1.6747,2.0583,1.82,1.82,0,0,1-.3118-.0387,20.0016,20.0016,0,0,1-6.1372-4.8685C94.2564,165.3822,94.1182,165.078,93.5875,165.1475Z"/></g><g class="h"><path class="f" d="M86.5339,210.0938c0-1.9466-1.1-3.5832-3.6819-4.8738a15.5309,15.5309,0,0,0-5.4332-1.5357h0l-.4385-.063h0a15.2421,15.2421,0,0,0-4.1058.0387h0a14.982,14.982,0,0,0-4.4721.94h0a7.9887,7.9887,0,0,0-4.0633,2.5972c-.2457.3122-.4259.6415-.6361.963h0a4.2,4.2,0,0,0-.7789,2.63c-.1283,1.9823,1.0177,3.7386,3.06,5.3139a17.1336,17.1336,0,0,0,6.9649,2.8211,37.2326,37.2326,0,0,0,5.77.7567c.4153.021.7541.0611.7413-.2842-.0094-.2518.2791-.2762.62-.2025.1871.04.3638.0972.5514.1369.18.038.4.123.54-.0061.1055-.0978-.058-.1926-.1834-.26-.346-.1853-.4739-.3468.0856-.4765.3623-.084.3706-.2248.1193-.367a.7215.7215,0,0,1-.3593-.4647c.0267-.0405.0807-.0821.0758-.1213-.0323-.2515.6342-.4524.3032-.6587a3.58,3.58,0,0,0-1.147-.063c-.4473-.0121-.8951-.0174-1.3426-.0257L75.6867,216.4a16.8715,16.8715,0,0,1-3.84-1.4943c-3.1238-1.9036-3.9318-4.1668-3.0468-6.6665.35-.9881,1.543-1.6632,2.9788-2.1951h0a3.0451,3.0451,0,0,1,1.4365-.0093c1.0024.1835,1.9322.4572,2.8915.6942a21.7358,21.7358,0,0,1,3.0446,1.4125,4.4785,4.4785,0,0,1,2.2174,2.9235.5132.5132,0,0,1-.3037.5962,5.5363,5.5363,0,0,1-3.8907-.2751c-.3467-.1655-.6667-.22-.8339.1-.1018.1948-.3646.2566-.6623.2995h0c-.4411-.0975-.7794-.0532-.9782.22-.0561.0771-.1649.1976-.2588.2005-.7941.0252-1.0823.4279-1.5983.663-.3584.1634-.29.2676-.0781.4186a6.0511,6.0511,0,0,0,2.7151,1.1006c.5086.0757,1.0136.1594,1.52.2395a4.8586,4.8586,0,0,0,1.5662,0C82.64,214.5663,86.5343,212.95,86.5339,210.0938ZM63.7032,208.16c.0339-.0217.069-.0426.1031-.0641A.18.18,0,0,1,63.7032,208.16ZM76.98,203.6214a.4187.4187,0,0,1-.1309.0139Z"/></g><g class="h"><path class="f" d="M22.1842,199.5259c1.4783-.0526,2.6917-.9315,3.6023-2.9275a11.8042,11.8042,0,0,0,1.02-4.1676h0l.036-.3347h0a11.5805,11.5805,0,0,0-.14-3.1171h0a11.3825,11.3825,0,0,0-.8343-3.371h0a6.07,6.07,0,0,0-2.0819-3.0159c-.2437-.1783-.4987-.3062-.7485-.4572h0a3.1918,3.1918,0,0,0-2.0183-.5207c-1.5089-.0441-2.8119.8736-3.9533,2.4668a13.0215,13.0215,0,0,0-1.9549,5.3655,28.2979,28.2979,0,0,0-.4193,4.4028c-.0047.316-.0261.5744.2358.5553.191-.0139.2173.2045.1705.4656-.0256.1432-.064.2789-.0891.4224-.0241.1375-.0826.3073.0192.41.0771.0774.1446-.0493.1922-.1463.1314-.2677.2507-.3693.3642.0522.0736.2729.1808.2753.2819.0807a.5483.5483,0,0,1,.3433-.2854c.0314.0192.0646.0591.0941.0543.19-.0313.3607.47.5085.2125a2.7231,2.7231,0,0,0,.017-.8727c-.0029-.34-.0109-.68-.0167-1.02q.1448-1.16.29-2.3194a12.8287,12.8287,0,0,1,1.0315-2.9563c1.3616-2.4236,3.0587-3.0981,4.9809-2.4933.76.239,1.3046,1.127,1.7473,2.2031h0a2.3139,2.3139,0,0,1,.0458,1.0908c-.1123.7662-.2952,1.48-.4494,2.2146a16.4994,16.4994,0,0,1-.9907,2.35,3.4034,3.4034,0,0,1-2.1606,1.7627.39.39,0,0,1-.4609-.2145,4.207,4.207,0,0,1,.1042-2.9623c.1163-.2677.1493-.5122-.0982-.6306-.1507-.0721-.2046-.27-.2452-.4949h0c.0622-.3377.02-.5934-.1933-.737-.06-.0406-.1545-.12-.1593-.1912-.04-.6023-.354-.81-.5465-1.1959-.1337-.2678-.211-.2132-.32-.0481a4.5976,4.5976,0,0,0-.7627,2.0916c-.0439.3884-.0938.7741-.141,1.1611a3.6911,3.6911,0,0,0,.042,1.19C18.6826,196.689,20.0153,199.6032,22.1842,199.5259Zm.8538-17.3909c.0173.0252.0341.0512.0514.0766A.1362.1362,0,0,1,23.038,182.135Zm3.8044,9.9609a.3191.3191,0,0,1-.0141-.099Z"/></g><path class="f" d="M113.5833,216.2285h0a3.99,3.99,0,0,0,.8661,2.54c.1822.4658.7429.83,1.0248,1.2688a8.119,8.119,0,0,0,1.78,1.6936,9.1185,9.1185,0,0,0,1.597,1.2947.416.416,0,0,0,.3782.1631c.2036-.0329.1554-.1611.1787-.2528.0911-.3593.2821-.6508,1.0453-.6758a.5778.5778,0,0,0,.5474-.2893c.1026-.2586.3273-.2628.6237-.0908.0512.1376.0089.3368.3385.341.18.0023.0853-.157.0833-.2467h0c.1822-.3738.199-.3764,1.0113-.159h0c.07.051.1564.1257.2677.0838.1426-.0536.0091-.1164-.06-.1579a18.1457,18.1457,0,0,1-1.9444-1.49h0a15.633,15.633,0,0,1-2.4074-2.7,10.1331,10.1331,0,0,1-.9356-2.1325c.0339-.3207-.184-.6528.1307-.9608h0a6.4723,6.4723,0,0,1,3.8652-.9314,3.2056,3.2056,0,0,1,1.0121.114l1.865.4844c.0581.0273.114.0566.1747.0818.4845.201.5368.1894.6162-.1619a1.3867,1.3867,0,0,1,.2894-.4895,8.9383,8.9383,0,0,0,1.3949.0959,6.1562,6.1562,0,0,0-1.3016-.6643c-.1933-.1493-.1345-.2409.1916-.2533.317-.0121.6355-.01.9532-.0163.6181-.012.9791-.1671,1.066-.4939.0723-.2719-.3672-.3111-.65-.4169h0a12.4261,12.4261,0,0,0-3.7657-.976h0a9.8774,9.8774,0,0,0-4.8574.4594,12.02,12.02,0,0,0-3.6047,1.7517,3.521,3.521,0,0,0-1.7748,3.1864Z"/><g class="i"><path class="f" d="M107.4393,244.598h0a23.9619,23.9619,0,0,1,3.7012,4.6311c.6694.8658,1.0257,1.8362,1.6126,2.73a26.6907,26.6907,0,0,1,1.9882,3.9332,25.19,25.19,0,0,1,1.4256,3.1727c.0833.1806.2422.4332.109.5242s-.3186-.1458-.4739-.2745c-.6087-.505-1.1491-.8322-1.4934-.3353-.1193.1723-.3765.1522-.679-.0732-.4529-.3373-.5491-.186-.3933.2947.1987.2538.533.54.4082.778-.0679.13-.284-.1886-.4261-.332h0c-.6681-.4637-.6789-.4561-.6565.4593v0c.0532.13.1378.309.0267.3209-.1422.0154-.1891-.178-.2276-.2923-.4188-1.244-1.0535-2.4845-1.5984-3.7265h0a60.2353,60.2353,0,0,0-3.3405-5.9672c-.9324-1.4011-1.9757-2.72-3.024-4.0343-.5244-.4839-.9665-1.163-1.5825-1.4293h0q-2.2234-.5186-3.0248,1.2426a1.37,1.37,0,0,0-.222.8921q.0141,1.0392.0281,2.0782c.02.0842.0446.17.0606.2523.127.6589.0877.6774-.5036.1769a5.116,5.116,0,0,0-.8951-.5716c-.2219.2787-.0425.906-.4034,1.1325a9.5219,9.5219,0,0,1-.5392-1.9669c-.1608-.3724-.33-.476-.48-.2664-.1457.2037-.27.4308-.4061.6443-.2655.4155-.6564.4239-1.2116-.0325-.462-.38-.3493-.7508-.4053-1.1169v0a8.9289,8.9289,0,0,1-.0534-4.1929h0a2.9408,2.9408,0,0,1,2.6684-2.6875,8.1694,8.1694,0,0,1,4.2277.2394,13,13,0,0,1,5.7834,3.7975Z"/></g><g class="i"><path class="f" d="M132.4393,230.598h0a23.9619,23.9619,0,0,1,3.7012,4.6311c.6694.8658,1.0257,1.8362,1.6126,2.73a26.6907,26.6907,0,0,1,1.9882,3.9332,25.19,25.19,0,0,1,1.4256,3.1727c.0833.1806.2422.4332.109.5242s-.3186-.1458-.4739-.2745c-.6087-.505-1.1491-.8322-1.4934-.3353-.1193.1723-.3765.1522-.679-.0732-.4529-.3373-.5491-.186-.3933.2947.1987.2538.533.54.4082.778-.0679.13-.284-.1886-.4261-.332h0c-.6681-.4637-.6789-.4561-.6565.4593v0c.0532.13.1378.309.0267.3209-.1422.0154-.1891-.178-.2276-.2923-.4188-1.244-1.0535-2.4845-1.5984-3.7265h0a60.2353,60.2353,0,0,0-3.34-5.9672c-.9324-1.4011-1.9757-2.72-3.024-4.0343-.5244-.4839-.9665-1.163-1.5825-1.4293h0q-2.2234-.5186-3.0248,1.2426a1.37,1.37,0,0,0-.222.8921q.0141,1.0392.0281,2.0782c.02.0842.0446.17.0606.2523.127.6589.0877.6774-.5036.1769a5.116,5.116,0,0,0-.8951-.5716c-.2219.2787-.0425.906-.4034,1.1325a9.5219,9.5219,0,0,1-.5392-1.9669c-.1608-.3724-.33-.476-.48-.2664-.1457.2037-.27.4308-.4061.6443-.2655.4155-.6564.4239-1.2116-.0325-.462-.38-.3493-.7508-.4053-1.1169v0a8.9289,8.9289,0,0,1-.0534-4.1929h0a2.9408,2.9408,0,0,1,2.6684-2.6875,8.1694,8.1694,0,0,1,4.2277.2394,13,13,0,0,1,5.7834,3.7975Z"/></g><g class="i"><path class="f" d="M156.2507,179.5655h0a23.9621,23.9621,0,0,1,5.9258-.1778c1.0942-.0153,2.0841.2827,3.1509.35a26.6823,26.6823,0,0,1,4.3389.7726,25.1879,25.1879,0,0,1,3.3929.7657c.1944.0419.4919.0666.4846.2277s-.308.1671-.5041.214c-.7693.1834-1.3556.419-1.165.9927.0661.1989-.1044.3924-.4663.4989-.5418.1595-.4786.3274-.0006.4915.3222-.0065.7515-.1021.8672.1409.063.1323-.3214.1138-.5215.1413h0c-.772.2557-.7724.2689-.0271.8008h0c.136.0354.33.0753.2727.1713-.0731.123-.2559.0443-.37.0064-1.2461-.4123-2.6191-.65-3.9394-.96h0a60.2158,60.2158,0,0,0-6.7773-.913c-1.68-.0961-3.361-.0539-5.0418-.0052a6.8325,6.8325,0,0,0-2.0933.4068h0q-1.75,1.4664-.8232,3.1648a1.37,1.37,0,0,0,.58.7132l1.6784,1.2258c.08.0342.1625.0662.2381.103.6032.2942.5943.3367-.161.5089a5.1242,5.1242,0,0,0-.9946.3724c.09.3448.6989.5781.6632,1.0027a9.5154,9.5154,0,0,1-1.8964-.75c-.3943-.0951-.5789-.0219-.5013.2237.0754.2389.1825.4743.2713.7117.1727.4618-.0554.7794-.7537.9493-.5811.1413-.81-.1717-1.1365-.3469h0a8.9285,8.9285,0,0,1-3.3845-2.4756h0a2.941,2.941,0,0,1-.5461-3.7477,8.1705,8.1705,0,0,1,2.7306-3.2365,13.0005,13.0005,0,0,1,6.51-2.3432Z"/></g><g class="g"><path class="f" d="M71.9828,245.8482c.5035.6333,1.5925.374,2.5443.2958l.529-.0362a.2313.2313,0,0,1,.0857-.0124c-.03.0039-.0541.0089-.0857.0124.3237.422.9046.5034,1.3985.728a.5581.5581,0,0,0,.0758-.5241,10.7616,10.7616,0,0,1,.2934-4.5442,18.7863,18.7863,0,0,1,2.1251-4.9463h0c.2836-.4428.5525-.89.8536-1.3273a10.24,10.24,0,0,1,3.2619-3.2819c.322-.11.3828.082.442.2835a6.3173,6.3173,0,0,1,.028,2.1474h0a14.4187,14.4187,0,0,1-.687,1.8208l-.0041.0048a1.4828,1.4828,0,0,1-.7772.3554h0a1.0108,1.0108,0,0,0-1.122.2434c-1.126,1.0657-1.6868,3.1765-1.0188,3.7727h0a8.2808,8.2808,0,0,0,3.0491-.2608,4.5026,4.5026,0,0,0,1.5529-.3707,3.7261,3.7261,0,0,0,2.027-1.7048,9.8735,9.8735,0,0,0,1.0948-2.4875l0-.0006a8.2517,8.2517,0,0,0,.6585-2.71,3.28,3.28,0,0,0,.01-1.5575,1.9752,1.9752,0,0,0-.3909-1.2836.3905.3905,0,0,0-.1123-.143c-.0724-.1473-.1009-.3437-.2237-.4345-1.39-1.0268-3.2805-1.0958-5.6789-.1783h0a13.8277,13.8277,0,0,0-6.6624,5.6261,5.3994,5.3994,0,0,0-.3743.454,22.4158,22.4158,0,0,0-3.1878,7.017A3.5779,3.5779,0,0,0,71.9828,245.8482Z"/></g><path class="f" d="M59.2991,216.0152a7.4679,7.4679,0,0,0-2.9342-.16l-.5574.0195a.3981.3981,0,0,1-.0867.0067c.03-.0021.0542-.0048.0867-.0067a10.64,10.64,0,0,0-1.9176-.393c-.0238.1568.1054.2168.2.2829a6.6675,6.6675,0,0,1,2.1309,2.4524,4.0917,4.0917,0,0,1,.35,2.6695h0c-.0706.2389-.1226.48-.2151.7162a2.8715,2.8715,0,0,1-1.7872,1.7711.774.774,0,0,1-.6349-.153,4.9584,4.9584,0,0,1-1.1887-1.159h0c-.0428-.33-.29-.6444-.2328-.9826l.0019-.0026a1.2874,1.2874,0,0,1,.6559-.1918h0c.393.0339.82.1083,1.0923-.1314.6532-.5751.1263-1.7142-.9238-2.036h0a15.8405,15.8405,0,0,0-3.1844.1406,6.4171,6.4171,0,0,0-1.4936.2c-.7413.158-1.2171.4549-1.291.92a2.1072,2.1072,0,0,0,.1476,1.3425v0a2.894,2.894,0,0,0,.7435,1.4626,2.43,2.43,0,0,0,.83.8406,3.1066,3.1066,0,0,0,1.1185.6928,1.0721,1.0721,0,0,0,.2.0771,2.4732,2.4732,0,0,0,.4783.2345,12.7569,12.7569,0,0,0,6.2892.0966h0c2.484-.5133,3.6756-1.6269,4.2313-3.0361a1.1547,1.1547,0,0,0,.1633-.245,4.7373,4.7373,0,0,0-.3081-3.7869A3.5218,3.5218,0,0,0,59.2991,216.0152Z"/><path class="f" d="M34.2991,203.0152a7.4679,7.4679,0,0,0-2.9342-.16l-.5574.0195a.3981.3981,0,0,1-.0867.0067c.03-.0021.0542-.0048.0867-.0067a10.64,10.64,0,0,0-1.9176-.393c-.0238.1568.1054.2168.2.2829a6.6675,6.6675,0,0,1,2.1309,2.4524,4.0917,4.0917,0,0,1,.35,2.6695h0c-.0706.2389-.1226.48-.2151.7162a2.8715,2.8715,0,0,1-1.7872,1.7711.774.774,0,0,1-.6349-.153,4.9584,4.9584,0,0,1-1.1887-1.159h0c-.0428-.33-.29-.6444-.2328-.9826l.0019-.0026a1.2874,1.2874,0,0,1,.6559-.1918h0c.393.0339.82.1083,1.0923-.1314.6532-.5751.1263-1.7142-.9238-2.036h0a15.8405,15.8405,0,0,0-3.1844.1406,6.4171,6.4171,0,0,0-1.4936.2c-.7413.158-1.2171.4549-1.291.92a2.1072,2.1072,0,0,0,.1476,1.3425v0a2.894,2.894,0,0,0,.7435,1.4626,2.43,2.43,0,0,0,.83.8406,3.1066,3.1066,0,0,0,1.1185.6928,1.0721,1.0721,0,0,0,.2.0771,2.4732,2.4732,0,0,0,.4783.2345,12.7569,12.7569,0,0,0,6.2892.0966h0c2.484-.5133,3.6756-1.6269,4.2313-3.0361a1.1547,1.1547,0,0,0,.1633-.245,4.7373,4.7373,0,0,0-.3081-3.7869A3.5218,3.5218,0,0,0,34.2991,203.0152Z"/><path class="f" d="M123.7181,176.99a7.468,7.468,0,0,0-2.9342-.16l-.5574.02a.3932.3932,0,0,1-.0868.0066c.03-.002.0543-.0047.0868-.0066a10.633,10.633,0,0,0-1.9177-.393c-.0238.1568.1055.2168.2.2829a6.6677,6.6677,0,0,1,2.1309,2.4524,4.0908,4.0908,0,0,1,.35,2.6694h0c-.0706.239-.1226.48-.2152.7163a2.8715,2.8715,0,0,1-1.7871,1.7711.7737.7737,0,0,1-.6349-.1531,4.9544,4.9544,0,0,1-1.1887-1.1589h0c-.0428-.33-.29-.6444-.2328-.9827l.0019-.0026a1.287,1.287,0,0,1,.6558-.1917h0c.393.0339.82.1083,1.0923-.1314.6531-.5751.1263-1.7142-.9238-2.036h0a15.8415,15.8415,0,0,0-3.1845.1406,6.4223,6.4223,0,0,0-1.4935.2c-.7413.1581-1.2171.455-1.291.92a2.1073,2.1073,0,0,0,.1476,1.3425v0a2.8945,2.8945,0,0,0,.7434,1.4626,2.4321,2.4321,0,0,0,.83.8406,3.1064,3.1064,0,0,0,1.1186.6927,1.06,1.06,0,0,0,.2.0772,2.4848,2.4848,0,0,0,.4783.2345,12.7565,12.7565,0,0,0,6.2891.0966h0c2.484-.5133,3.6756-1.6269,4.2312-3.0361a1.1471,1.1471,0,0,0,.1633-.245,4.7368,4.7368,0,0,0-.308-3.7869A3.5223,3.5223,0,0,0,123.7181,176.99Z"/><g class="j"><path class="f" d="M95.7181,260.99a7.468,7.468,0,0,0-2.9342-.16l-.5574.02a.3932.3932,0,0,1-.0868.0066c.03-.002.0543-.0047.0868-.0066a10.633,10.633,0,0,0-1.9177-.393c-.0238.1568.1055.2168.2.2829A6.6677,6.6677,0,0,1,92.64,263.192a4.0908,4.0908,0,0,1,.35,2.6694h0c-.0706.239-.1226.48-.2152.7163a2.8715,2.8715,0,0,1-1.7871,1.7711.7737.7737,0,0,1-.6349-.1531,4.9544,4.9544,0,0,1-1.1887-1.1589h0c-.0428-.33-.29-.6444-.2328-.9827l.0019-.0026a1.287,1.287,0,0,1,.6558-.1917h0c.393.0339.82.1083,1.0923-.1314.6531-.5751.1263-1.7142-.9238-2.036h0a15.8415,15.8415,0,0,0-3.1845.1406,6.4223,6.4223,0,0,0-1.4935.2c-.7413.1581-1.2171.455-1.291.92a2.1073,2.1073,0,0,0,.1476,1.3425v0a2.8945,2.8945,0,0,0,.7434,1.4626,2.4321,2.4321,0,0,0,.83.8406,3.1064,3.1064,0,0,0,1.1186.6927,1.06,1.06,0,0,0,.2.0772,2.4848,2.4848,0,0,0,.4783.2345,12.7565,12.7565,0,0,0,6.2891.0966h0c2.484-.5133,3.6756-1.6269,4.2312-3.0361a1.1471,1.1471,0,0,0,.1633-.245,4.7368,4.7368,0,0,0-.308-3.7869A3.5223,3.5223,0,0,0,95.7181,260.99Z"/></g><g class="k"><path class="f" d="M130.642,195.29a4.9427,4.9427,0,0,0-3.1186-.6113c-.5841.0582-1.1766.0972-1.7509.1788a3.7807,3.7807,0,0,0-2.594,1.11,7.0257,7.0257,0,0,1,1.8762-.3566h0c.2184.0192.4388.0329.6543.06.1318.0164.3532.01.314.1237-.02.0576-.2208.0945-.34.1407a1.493,1.493,0,0,0-.936.1979c-.004.0614-.0567.1028-.1206.1394.04-.0464.08-.093.1206-.1395-.1241.0716-.2493.1425-.3721.2146-.8792.5165-.7487.8669.413,1.1094.0944.02.19.0375.2844.0566a4.6344,4.6344,0,0,1,3.377,2.01c.744,1.3786.1842,2.6268-1.3513,3.7446a.1731.1731,0,0,1-.0829.0979l.0829-.0979a2.165,2.165,0,0,1-1.94.317,1.6788,1.6788,0,0,0-.2933-.0187h0c-.8889-.1981-.25-.41-.0163-.6176.1584-.1138.44-.1756.4452-.3538.2491-.1794.4814-.3627.4327-.6122a3.2006,3.2006,0,0,1,1.1-.89c.3469-.1841.609-.4081.6267-.6977h0c.3926-1.6014-2.6432-3.0782-5.4707-2.6614a39.207,39.207,0,0,0-6.6047.9911c-.3474-.0144-.52.19-.8313.2213h0a1.8638,1.8638,0,0,0-1.4343,1.555c-.2626.4033-.0753.7962.0791,1.1906a4.9342,4.9342,0,0,0,2.5918,2.174,12.2637,12.2637,0,0,0,5.1379,1.378h0a12.8257,12.8257,0,0,0,3.1913-.1255h0a20.7646,20.7646,0,0,0,5.4378-1.4135,3.9115,3.9115,0,0,0,1.1712-.4338h0a5.0328,5.0328,0,0,0,1.4789-.8614.0821.0821,0,0,1,.028-.0681l-.028.0681a2.6446,2.6446,0,0,0,1.3767-1.4173c.2307-.1073.2341-.2743.3292-.4173.3141-.4717.0805-.954.0846-1.4317.0168-.07.0613-.1423.0463-.21C133.7118,197.4685,132.5473,196.2486,130.642,195.29Z"/></g><g class="k"><path class="f" d="M78.642,163.29a4.9427,4.9427,0,0,0-3.1186-.6113c-.5841.0582-1.1766.0972-1.7509.1788a3.7807,3.7807,0,0,0-2.594,1.11,7.0257,7.0257,0,0,1,1.8762-.3566h0c.2184.0192.4388.0329.6543.06.1318.0164.3532.01.314.1237-.02.0576-.2208.0945-.34.1407a1.493,1.493,0,0,0-.936.1979c-.004.0614-.0567.1028-.1206.1394.04-.0464.08-.093.1206-.1395-.1241.0716-.2493.1425-.3721.2146-.8792.5165-.7487.8669.413,1.1094.0944.02.19.0375.2844.0566a4.6344,4.6344,0,0,1,3.377,2.01c.744,1.3786.1842,2.6268-1.3513,3.7446a.1731.1731,0,0,1-.0829.0979l.0829-.0979a2.165,2.165,0,0,1-1.94.317,1.6788,1.6788,0,0,0-.2933-.0187h0c-.8889-.1981-.25-.41-.0163-.6176.1584-.1138.44-.1756.4452-.3538.2491-.1794.4814-.3627.4327-.6122a3.2006,3.2006,0,0,1,1.1-.89c.3469-.1841.609-.4081.6267-.6977h0c.3926-1.6014-2.6432-3.0782-5.4707-2.6614a39.207,39.207,0,0,0-6.6047.9911c-.3474-.0144-.52.19-.8313.2213h0a1.8638,1.8638,0,0,0-1.4343,1.555c-.2626.4033-.0753.7962.0791,1.1906a4.9342,4.9342,0,0,0,2.5918,2.174,12.2637,12.2637,0,0,0,5.1379,1.378h0a12.8257,12.8257,0,0,0,3.1913-.1255h0a20.7646,20.7646,0,0,0,5.4378-1.4135,3.9115,3.9115,0,0,0,1.1712-.4338h0a5.0328,5.0328,0,0,0,1.4789-.8614.0821.0821,0,0,1,.028-.0681l-.028.0681a2.6446,2.6446,0,0,0,1.3767-1.4173c.2307-.1073.2341-.2743.3292-.4173.3141-.4717.0805-.954.0846-1.4317.0168-.07.0613-.1423.0463-.21C81.7118,165.4685,80.5473,164.2486,78.642,163.29Z"/></g><g class="k"><path class="f" d="M148.642,163.29a4.9427,4.9427,0,0,0-3.1186-.6113c-.5841.0582-1.1766.0972-1.7509.1788a3.7807,3.7807,0,0,0-2.594,1.11,7.0257,7.0257,0,0,1,1.8762-.3566h0c.2184.0192.4388.0329.6543.06.1318.0164.3532.01.314.1237-.02.0576-.2208.0945-.34.1407a1.493,1.493,0,0,0-.936.1979c-.004.0614-.0567.1028-.1206.1394.04-.0464.08-.093.1206-.1395-.1241.0716-.2493.1425-.3721.2146-.8792.5165-.7487.8669.413,1.1094.0944.02.19.0375.2844.0566a4.6344,4.6344,0,0,1,3.377,2.01c.744,1.3786.1842,2.6268-1.3513,3.7446a.1731.1731,0,0,1-.0829.0979l.0829-.0979a2.165,2.165,0,0,1-1.9395.317,1.6788,1.6788,0,0,0-.2933-.0187h0c-.8889-.1981-.25-.41-.0163-.6176.1584-.1138.44-.1756.4452-.3538.2491-.1794.4814-.3627.4327-.6122a3.2006,3.2006,0,0,1,1.1-.89c.3469-.1841.609-.4081.6267-.6977h0c.3926-1.6014-2.6432-3.0782-5.4707-2.6614a39.207,39.207,0,0,0-6.6047.9911c-.3474-.0144-.52.19-.8313.2213h0a1.8638,1.8638,0,0,0-1.4343,1.555c-.2626.4033-.0753.7962.0791,1.1906a4.9342,4.9342,0,0,0,2.5918,2.174,12.2637,12.2637,0,0,0,5.1379,1.378h0a12.8257,12.8257,0,0,0,3.1913-.1255h0a20.7646,20.7646,0,0,0,5.4378-1.4135,3.9115,3.9115,0,0,0,1.1712-.4338h0a5.0328,5.0328,0,0,0,1.4789-.8614.0821.0821,0,0,1,.028-.0681l-.028.0681a2.6446,2.6446,0,0,0,1.3767-1.4173c.2307-.1073.2341-.2743.3292-.4173.3141-.4717.0805-.954.0846-1.4317.0168-.07.0613-.1423.0463-.21C151.7118,165.4685,150.5473,164.2486,148.642,163.29Z"/></g><g class="k"><path class="f" d="M172.642,245.29a4.9427,4.9427,0,0,0-3.1186-.6113c-.5841.0582-1.1766.0972-1.7509.1788a3.7807,3.7807,0,0,0-2.594,1.11,7.0257,7.0257,0,0,1,1.8762-.3566h0c.2184.0192.4388.0329.6543.06.1318.0164.3532.01.314.1237-.02.0576-.2208.0945-.34.1407a1.493,1.493,0,0,0-.936.1979c-.004.0614-.0567.1028-.1206.1394.04-.0464.08-.093.1206-.1395-.1241.0716-.2493.1425-.3721.2146-.8792.5165-.7487.8669.413,1.1094.0944.02.19.0375.2844.0566a4.6344,4.6344,0,0,1,3.377,2.01c.744,1.3786.1842,2.6268-1.3513,3.7446a.1731.1731,0,0,1-.0829.0979l.0829-.0979a2.165,2.165,0,0,1-1.9395.317,1.6788,1.6788,0,0,0-.2933-.0187h0c-.8889-.1981-.25-.41-.0163-.6176.1584-.1138.44-.1756.4452-.3538.2491-.1794.4814-.3627.4327-.6122a3.2006,3.2006,0,0,1,1.1-.89c.3469-.1841.609-.4081.6267-.6977h0c.3926-1.6014-2.6432-3.0782-5.4707-2.6614a39.207,39.207,0,0,0-6.6047.9911c-.3474-.0144-.52.19-.8313.2213h0a1.8638,1.8638,0,0,0-1.4343,1.555c-.2626.4033-.0753.7962.0791,1.1906a4.9342,4.9342,0,0,0,2.5918,2.174,12.2637,12.2637,0,0,0,5.1379,1.378h0a12.8257,12.8257,0,0,0,3.1913-.1255h0a20.7646,20.7646,0,0,0,5.4378-1.4135,3.9115,3.9115,0,0,0,1.1712-.4338h0a5.0328,5.0328,0,0,0,1.4789-.8614.0821.0821,0,0,1,.028-.0681l-.028.0681a2.6446,2.6446,0,0,0,1.3767-1.4173c.2307-.1073.2341-.2743.3292-.4173.3141-.4717.0805-.954.0846-1.4317.0168-.07.0613-.1423.0463-.21C175.7118,247.4685,174.5473,246.2486,172.642,245.29Z"/></g><g class="k"><path class="f" d="M64.642,250.29a4.9427,4.9427,0,0,0-3.1186-.6113c-.5841.0582-1.1766.0972-1.7509.1788a3.7807,3.7807,0,0,0-2.594,1.11,7.0257,7.0257,0,0,1,1.8762-.3566h0c.2184.0192.4388.0329.6543.06.1318.0164.3532.01.314.1237-.02.0576-.2208.0945-.34.1407a1.493,1.493,0,0,0-.936.1979c-.004.0614-.0567.1028-.1206.1394.04-.0464.08-.093.1206-.1395-.1241.0716-.2493.1425-.3721.2146-.8792.5165-.7487.8669.413,1.1094.0944.02.19.0375.2844.0566a4.6344,4.6344,0,0,1,3.377,2.01c.744,1.3786.1842,2.6268-1.3513,3.7446a.1731.1731,0,0,1-.0829.0979l.0829-.0979a2.165,2.165,0,0,1-1.9395.317,1.6788,1.6788,0,0,0-.2933-.0187h0c-.8889-.1981-.25-.41-.0163-.6176.1584-.1138.44-.1756.4452-.3538.2491-.1794.4814-.3627.4327-.6122a3.2006,3.2006,0,0,1,1.1-.89c.3469-.1841.609-.4081.6267-.6977h0c.3926-1.6014-2.6432-3.0782-5.4707-2.6614a39.207,39.207,0,0,0-6.6047.9911c-.3474-.0144-.52.19-.8313.2213h0a1.8638,1.8638,0,0,0-1.4343,1.555c-.2626.4033-.0753.7962.0791,1.1906a4.9342,4.9342,0,0,0,2.5918,2.174,12.2637,12.2637,0,0,0,5.1379,1.378h0a12.8257,12.8257,0,0,0,3.1913-.1255h0a20.7646,20.7646,0,0,0,5.4378-1.4135,3.9115,3.9115,0,0,0,1.1712-.4338h0a5.0328,5.0328,0,0,0,1.4789-.8614.0821.0821,0,0,1,.028-.0681l-.028.0681a2.6446,2.6446,0,0,0,1.3767-1.4173c.2307-.1073.2341-.2743.3292-.4173.3141-.4717.0805-.954.0846-1.4317.0168-.07.0613-.1423.0463-.21C67.7118,252.4685,66.5473,251.2486,64.642,250.29Z"/></g><path class="f" d="M153.5156,197.36a4.8187,4.8187,0,0,0-3.0731.6838c-.384.2607-.7958.51-1.1462.7849-.6863.5386-1.1321,1.1195-.7606,1.8119a2.9379,2.9379,0,0,1,1.0453-.9677h0c.1891-.0659.3735-.1369.5688-.196.1194-.0362.2819-.1233.3784-.0212.0487.0516-.0648.1542-.1049.2337-.2961.1227-.504.2749-.4994.4981a.1411.1411,0,0,1,.0621.1517c-.02-.05-.0415-.1011-.0621-.1517-.016.1008-.0334.2016-.0477.3024-.1022.7218.3866.9426,1.5478.6992.0943-.02.1873-.0414.2812-.0617a8.5152,8.5152,0,0,1,4.8231.2948c2.1006.7835,3.0554,1.9491,3.1161,3.3755a.1271.1271,0,0,1,.045.1058l-.045-.1058c.0326.4827-.2967.8209-1.1378.9607a1.2161,1.2161,0,0,0-.246.094h0c-.9024.1766-.6462-.2221-.6976-.4682-.0046-.1459.1433-.2977-.05-.4363a.6338.6338,0,0,0-.3469-.63,1.54,1.54,0,0,1-.1428-1.0907.6884.6884,0,0,0-.2927-.7676h0c-1.4749-1.3749-5.4445-1.3864-7.1535-.0206a17.53,17.53,0,0,0-3.9727,3.2037c-.2827.1174-.188.3384-.3929.4773h0c-.4235.651.0353,1.1956.6236,1.7246a2.9983,2.9983,0,0,0,1.3814.8851,11.1556,11.1556,0,0,0,4.402.7111,13.8441,13.8441,0,0,0,5.4743-.8419h0a7.26,7.26,0,0,0,2.3116-1.2766h0a7.8444,7.8444,0,0,0,2.6079-3.0965,1.3609,1.3609,0,0,0,.4182-.7663h0a1.8734,1.8734,0,0,0,.18-1.2085.113.113,0,0,1-.054-.0626l.054.0626a1.684,1.684,0,0,0-.5149-1.5976c.0581-.1676-.1246-.2971-.21-.4421-.282-.4785-.9965-.7624-1.5232-1.1308a.9574.9574,0,0,0-.1975-.1784A14.3657,14.3657,0,0,0,153.5156,197.36Z"/><g class="j"><path class="f" d="M105.177,218.7226c1.0934.1691,2.1916.4576,2.5861,1.3561.2292.3868.4913.7638.6805,1.1629a1.94,1.94,0,0,1-.2408,2.3733,2.4777,2.4777,0,0,0-.4855-1.373h0c-.1463-.1131-.2855-.2317-.4414-.3372-.0954-.0646-.2047-.2-.3523-.0888-.0744.0559-.02.202-.0245.3073a.5754.5754,0,0,1,.2127.7.2783.2783,0,0,0-.141.178c.0468-.0594.0941-.1186.141-.178-.0387.1278-.0759.2556-.1163.383-.2888.9123-.877,1.1054-1.8623.6117-.08-.04-.1577-.0824-.237-.123a6.6536,6.6536,0,0,0-4.7926-.4313,6.7977,6.7977,0,0,0-4.8045,3.6723.2559.2559,0,0,0-.1.1239l.1-.1239c-.29.5935-.155,1.0673.5781,1.38a.7516.7516,0,0,1,.186.1574h0c.7724.3682.74-.1689.9215-.4656.0826-.18.0219-.393.2825-.5329a1.2254,1.2254,0,0,1,.6712-.7244,3.0709,3.0709,0,0,0,.7222-1.3294,1.3551,1.3551,0,0,1,.6928-.9038v0c2.1546-1.4618,5.975-.82,6.8848,1.1564a13.6,13.6,0,0,1,2.0993,4.6305c.2087.1924-.0008.4509.1215.6571h0c.0578.8775-.675,1.4773-1.5241,2.0364a4.25,4.25,0,0,1-1.802.87,9.6968,9.6968,0,0,1-4.6112.1546,8.9775,8.9775,0,0,1-4.8087-1.9488h0a4.8307,4.8307,0,0,1-1.5365-1.9655h0a7.68,7.68,0,0,1-.8454-4.2721,1.693,1.693,0,0,1,.0091-1.02h0a3.25,3.25,0,0,1,.475-1.5288.2049.2049,0,0,0,.0855-.0688l-.0855.0688a3.3824,3.3824,0,0,1,1.3516-1.8967c.034-.2176.279-.3481.4389-.5138a7.8245,7.8245,0,0,1,2.07-1.151,1.5845,1.5845,0,0,1,.2855-.1887A13.5887,13.5887,0,0,1,105.177,218.7226Z"/></g><g class="j"><path class="f" d="M137.177,245.7226c1.0934.1691,2.1916.4576,2.5861,1.3561.2292.3868.4913.7638.68,1.1629a1.94,1.94,0,0,1-.2408,2.3733,2.4777,2.4777,0,0,0-.4855-1.373h0c-.1463-.1131-.2855-.2317-.4414-.3372-.0954-.0646-.2047-.2-.3523-.0888-.0744.0559-.02.202-.0245.3073a.5754.5754,0,0,1,.2127.7.2783.2783,0,0,0-.141.178c.0468-.0594.0941-.1186.141-.178-.0387.1278-.0759.2556-.1163.383-.2888.9123-.877,1.1054-1.8623.6117-.08-.04-.1577-.0824-.237-.123a6.6536,6.6536,0,0,0-4.7926-.4313,6.7977,6.7977,0,0,0-4.8045,3.6723.2559.2559,0,0,0-.1.1239l.1-.1239c-.29.5935-.155,1.0673.5781,1.38a.7516.7516,0,0,1,.186.1574h0c.7724.3682.74-.1689.9215-.4656.0826-.18.0219-.393.2825-.5329a1.2254,1.2254,0,0,1,.6712-.7244,3.0709,3.0709,0,0,0,.7222-1.3294,1.3551,1.3551,0,0,1,.6928-.9038v0c2.1546-1.4618,5.975-.82,6.8848,1.1564a13.6,13.6,0,0,1,2.0993,4.6305c.2087.1924-.0008.4509.1215.6571h0c.0578.8775-.675,1.4773-1.5241,2.0364a4.25,4.25,0,0,1-1.802.87,9.6968,9.6968,0,0,1-4.6112.1546,8.9775,8.9775,0,0,1-4.8087-1.9488h0a4.8307,4.8307,0,0,1-1.5365-1.9655h0a7.68,7.68,0,0,1-.8454-4.2721,1.693,1.693,0,0,1,.0091-1.02h0a3.25,3.25,0,0,1,.475-1.5288.2049.2049,0,0,0,.0855-.0688l-.0855.0688a3.3824,3.3824,0,0,1,1.3516-1.8967c.034-.2176.279-.3481.4389-.5138a7.8245,7.8245,0,0,1,2.07-1.151,1.5845,1.5845,0,0,1,.2855-.1887A13.5887,13.5887,0,0,1,137.177,245.7226Z"/></g><path class="f" d="M98.61,209.2379a3.279,3.279,0,0,0,1.7271,1.18,11.2582,11.2582,0,0,0,4.9032.3017l.4395-.0553c1.7073-.2131,3.3149-1.4952,3.2823-2.6176a2.1417,2.1417,0,0,0-.2075-1.2038,2.93,2.93,0,0,0-2.4191-1.5263h0a9.1724,9.1724,0,0,0-3.956-.01h0a2.1473,2.1473,0,0,0-.6679.1461.8648.8648,0,0,0-.4717.1653.3133.3133,0,0,1-.365.0338h0l.0222-.26h0a.4765.4765,0,0,0,.0581-.0963,4.8211,4.8211,0,0,1,1.7426-2.3829,15.7956,15.7956,0,0,1,6.8515-2.73.8324.8324,0,0,0,.4533-.1476c-.4153.0106-.7722.0071-1.1235.0307a17.855,17.855,0,0,0-8.292,2.3032,5.57,5.57,0,0,0-2.619,2.8579,2.457,2.457,0,0,0-.3209,1.5265h0a1.8379,1.8379,0,0,0,.2017,1.24,2.625,2.625,0,0,0,.7611,1.244Zm5.8152-1.4576-.26.3947c-.0548.0066-.11.0127-.1625.0226a.3475.3475,0,0,0-.1914.1255.7081.7081,0,0,1-.1664-.277.2217.2217,0,0,0-.1052-.1372l.0067-.004a3.75,3.75,0,0,0,.1406-.6347c.0269-.0925.0844-.1869.0516-.2795a.5358.5358,0,0,0,.4156.05A.9423.9423,0,0,1,104.4251,207.78Zm-.8058,1.921a.9912.9912,0,0,0-.4376.1282,1.7182,1.7182,0,0,1-.2194-.12,1.5874,1.5874,0,0,0,.3715.0132c.1824.0019.3647-.0652.5466-.0627C103.7929,209.6727,103.7048,209.6846,103.6193,209.7013Z"/><path class="f" d="M34.9041,241.554a2.4073,2.4073,0,0,0,2.3284-1.1748c.8708-1.626.7518-3.8542.07-6.3945l-.17-.6559a13.0967,13.0967,0,0,0-6.0032-7.1112,8.2813,8.2813,0,0,0-2.5586-.925c-1.5149-.2087-2.7114.0946-2.99,1.7722v0a8.402,8.402,0,0,0,.4444,5.3937h0a3.44,3.44,0,0,0,.3919,1.0588,1.841,1.841,0,0,0,.41.81c.16.2123.2809.4153.1155.5325h0q-.28-.1455-.5595-.2908l0,0a2.5192,2.5192,0,0,0-.2135-.1761,23.9291,23.9291,0,0,1-5.3183-4.7724,36.8379,36.8379,0,0,1-6.6642-12.0991,1.647,1.647,0,0,0-.37-.7672c.0716.5779.106,1.0618.198,1.5654a32.717,32.717,0,0,0,5.918,13.6382,25.2765,25.2765,0,0,0,6.4408,6.4464,12.9,12.9,0,0,0,3.3133,1.9707h0a7.136,7.136,0,0,0,2.6375.9695,5.1948,5.1948,0,0,0,2.58.2092Zm-3.8119-9.4063.8776.7519c.0206.0815.04.1628.0676.2447a1.171,1.171,0,0,0,.2918.3874,1.429,1.429,0,0,1-.5747-.0508c-.1139-.0279-.2211-.0458-.282.0059l-.01-.0132c-.4572-.3441-.9192-.5338-1.3783-.8291a2.4437,2.4437,0,0,0-.6059-.3511.3907.3907,0,0,0,.0577-.5179A2.7239,2.7239,0,0,1,31.0922,232.1477Zm4.2168,3.029a1.886,1.886,0,0,0,.3268.7264c-.0791.0571-.14.1476-.233.1787a1.3245,1.3245,0,0,0-.0152-.4941c-.0175-.2474-.1829-.5636-.199-.81C35.2272,234.9108,35.2631,235.0431,35.309,235.1767Z"/><path class="f" d="M51.3388,193.4985a2.91,2.91,0,0,0,1.3018,2.4794,14.69,14.69,0,0,0,7.2032,2.3458l.74.0836c2.8744.3268,6.8256-1.0307,8.0671-2.7716a4.4637,4.4637,0,0,0,1.0659-1.9333c.2492-1.2657-.0813-2.4325-1.9687-3.2785h0a12.9916,12.9916,0,0,0-6.0805-1.533h0a4.0959,4.0959,0,0,0-1.1964-.0314,1.9115,1.9115,0,0,0-.9167.0736c-.2407.0656-.47.1-.601-.088h0l.3328-.3911h0a1.5838,1.5838,0,0,0,.2-.126,15.6649,15.6649,0,0,1,5.4258-3.0008,36.5963,36.5963,0,0,1,13.6925-1.575,1.7717,1.7717,0,0,0,.8677-.0533c-.6517-.1431-1.1972-.2854-1.7654-.3839a36.5233,36.5233,0,0,0-15.4194.3652,17.5973,17.5973,0,0,0-7.3221,3.396,7.189,7.189,0,0,0-2.251,2.2276h0a3.8615,3.8615,0,0,0-1.1168,1.9872,3.344,3.344,0,0,0-.26,2.2076Zm10.6322-.0133-.8552.5079c-.092-.0108-.1838-.0226-.2763-.0276a.9657.9657,0,0,0-.4391.12.9079.9079,0,0,1,.0626-.49.25.25,0,0,0-.0041-.2516l.0149-.0037a11.19,11.19,0,0,0,.9469-.9234c.1479-.132.3451-.2553.4012-.4106a.65.65,0,0,0,.5829.236A1.5644,1.5644,0,0,1,61.971,193.4852Zm-3.4516,2.6489a2.0677,2.0677,0,0,0-.8214.03,1.4668,1.4668,0,0,1-.1991-.27,2.1385,2.1385,0,0,0,.5568.1629c.2788.0729.6366.04.9139.1132C58.82,196.1567,58.67,196.1412,58.5194,196.1341Z"/><path class="f" d="M53.3964,179.4983a3.344,3.344,0,0,0-.26-2.2076,3.8615,3.8615,0,0,0-1.1168-1.9872h0a7.19,7.19,0,0,0-2.251-2.2276,17.5973,17.5973,0,0,0-7.3221-3.396,36.5233,36.5233,0,0,0-15.4194-.3652c-.5682.0985-1.1137.2408-1.7654.3839a1.7717,1.7717,0,0,0,.8677.0533,36.5963,36.5963,0,0,1,13.6925,1.575,15.6649,15.6649,0,0,1,5.4258,3.0008,1.5838,1.5838,0,0,0,.2.126h0l.3328.3911h0c-.13.1882-.36.1536-.601.088a1.9115,1.9115,0,0,0-.9167-.0736,4.0959,4.0959,0,0,0-1.1964.0314h0a12.9916,12.9916,0,0,0-6.0805,1.533h0c-1.8874.846-2.2179,2.0128-1.9687,3.2785a4.4637,4.4637,0,0,0,1.0659,1.9333c1.2415,1.7409,5.1927,3.0984,8.0671,2.7716l.74-.0836a14.69,14.69,0,0,0,7.2032-2.3458,2.91,2.91,0,0,0,1.3018-2.4794ZM42.33,178.2417a.65.65,0,0,0,.5829-.236c.0561.1553.2533.2786.4011.4106a11.2064,11.2064,0,0,0,.947.9234l.0149.0037a.25.25,0,0,0-.0041.2516.9079.9079,0,0,1,.0626.49.9657.9657,0,0,0-.4391-.12c-.0925.005-.1843.0168-.2763.0276l-.8552-.5079A1.5644,1.5644,0,0,1,42.33,178.2417Zm3.4352,3.9283c.2773-.0737.6351-.04.9139-.1132a2.1385,2.1385,0,0,0,.5568-.1629,1.4668,1.4668,0,0,1-.1991.27,2.0677,2.0677,0,0,0-.8214-.03C46.0648,182.1412,45.9154,182.1567,45.7656,182.17Z"/><polyline class="l" points="541.412 158.751 588.126 158.751 607.904 158.751 607.904 200.751 541.412 200.751"/><circle class="m" cx="541.6377" cy="158.751" r="4.5117"/><circle class="m" cx="541.6377" cy="200.751" r="4.5117"/><line class="l" x1="608.126" y1="179.7511" x2="625.126" y2="179.7511"/><g class="n"><polygon class="o" points="415.126 130.904 303.839 194.404 303.839 127.598 415.126 64.098 415.126 130.904"/><polygon class="o" points="415.626 130.904 547.626 206.404 547.626 139.598 415.626 64.098 415.626 130.904"/><polygon class="o" points="547.126 205.904 435.839 269.404 435.839 202.598 547.126 139.098 547.126 205.904"/><polygon class="o" points="304.126 193.904 436.126 269.404 436.126 202.598 304.126 127.098 304.126 193.904"/></g><g class="k"><path class="p" d="M540.6447,158.3124l-.5259-.0307.0456-.0263-126.6-73.0991L310.1512,144.8669l-.5257-.0306v37.269a8.7936,8.7936,0,0,0,4.4065,7.6212l118.2925,68.0969a8.7937,8.7937,0,0,0,8.766.0049L536.23,203.2009a8.7938,8.7938,0,0,0,4.415-7.626Z"/><path class="q" d="M538.9987,160.9417l-99.9755,57.7258a3.7522,3.7522,0,0,1-3.7528,0L311.2532,147.06a3.7526,3.7526,0,0,1,0-6.5l99.9755-57.7259a3.7529,3.7529,0,0,1,3.7529,0l124.0171,71.6075A3.7526,3.7526,0,0,1,538.9987,160.9417Z"/></g><g class="g"><path class="f" d="M541.126,189.5962c-1.9252,0-6.8677,5.4675-10.7628,6.2037a9.4147,9.4147,0,0,0-3.0982.8443c-1.1224.66-1.8048,1.8748-2.8427,2.661a10.0369,10.0369,0,0,1-3.1518,1.3578c-8.6657,2.71-16.5828,4.8863-22.6769,11.6169-1.2807-.972-3.0924-.0892-4.435.7952-4.6391,3.0562-9.2781,9-13.9172,12.0564a3.0769,3.0769,0,0,0-1.5909-2.4286,82.8217,82.8217,0,0,0-11.7958,11.6442c-3.256-1.8344-8.0229.8921-8.0924,4.6287l-15.0362,4.1481a5.9361,5.9361,0,0,1-7.1811,2.9451,100.15,100.15,0,0,1-27.3557-11.59c-.4154-.2546,0,.2186-.445.0195a29.7059,29.7059,0,0,1-9.9193-7.0957l-4.1361-.4765a6.8414,6.8414,0,0,0-.9607-4.366c-2.0274,1.5729-5.0115.3273-6.98-1.319s-3.8525-3.7736-6.4068-4.0183c-1.6079-.1539-3.4561.4326-4.7056-.591-1.1443-.9374-1.1287-2.7628-2.1577-3.8254-1.8277-1.8874-5.4094-.1527-7.4723-1.78-1.41-1.1122-1.4326-3.2714-2.5326-4.6912-2.0232-2.6117-6.557-1.618-8.874-3.9731-1.171-1.19-1.88-3.252-3.55-3.272-.8273-.01-1.5643.5462-2.3872.6316-3.17.3288-3.0674-5.1566-5.6789-6.9827a1.961,1.961,0,0,0-2.1543,1.1579,18.3584,18.3584,0,0,0-3.2829-5.8653l-2.0856,3.0135-12.6158-8.2213-1.8.506c-4.3038-.32-8.05-7.2106-11.4322-7.353l.4945-17.184c2.1609.1058,3.6125,2.3125,5.5366,4.9655l2.6471-.6409,1.9258,3.1039c.6666-2.1271,4.4786-1.8875,4.8736.3063l1.231-2.537c3.6422,9.3184,20.0637,9.215,21.8395,19.061l1.8524-1.9242L352.92,187.15c2.1466-1.8317,6.1133-.2174,6.3708,2.5928,1.4551-1.3469,3.746.0231,5.206,1.3647L374.816,200.59a1.9839,1.9839,0,0,1,2.231-1.1689l2.1241,4.156c.5751-1.1425,2.2615-1.246,3.37-.6073a11.41,11.41,0,0,1,2.6589,2.7353,12.7509,12.7509,0,0,0,11.0587,4.2635c.439,2.6424,1.3757,5.8353,3.9969,6.3869a19.1044,19.1044,0,0,0,2.6149.0813,5.2592,5.2592,0,0,1,3.9418,2.2839l3.8078,6.5428c-.04-1.7955,2.176-2.91,3.9344-2.5441s3.1477,1.6567,4.5866,2.7315a22.2665,22.2665,0,0,0,14.2475,4.3614l1.1728,2.2772,8.5622-.3771c.7546-3.6047,5.13-4.8264,8.63-5.9743,6.6221-2.1721,12.3555-6.3749,17.9639-10.512,2.9147-2.15,5.9858-1.6183,7.1769-5.0388l11.25-9.8617c.7891.6476,1.5783-1.5925,2.3674-.9448a2.6543,2.6543,0,0,1,3.9823-1.4014,15.0687,15.0687,0,0,1,8.18-7.3869L504.46,192.39a71.577,71.577,0,0,0,9.0069-9.6631,3.042,3.042,0,0,1,2.2837,1.5409l13.4516-9.6387c3.5564-2.5484,7.111-6.21,11.5266-6.07Z"/></g><text class="a" transform="translate(489.0452 62.3142)">Molde</text><text class="a" transform="translate(259.9036 22.3142)">Panel de<tspan x="-17.6475" y="31.2002">aglomerado</tspan></text><line class="l" x1="316.126" y1="68.7511" x2="393.126" y2="122.7511"/><path class="m" d="M390.5355,126.4449a4.5117,4.5117,0,1,0-1.1033-6.2844A4.512,4.512,0,0,0,390.5355,126.4449Z"/><line class="l" x1="517.126" y1="71.7511" x2="477.126" y2="98.7511"/><circle class="m" cx="477.126" cy="98.7511" r="4.5116" transform="translate(289.3017 548.3321) rotate(-79.0194)"/><line class="l" x1="216.9041" y1="170.2783" x2="312.9041" y2="170.2783"/><circle class="m" cx="312.9041" cy="170.2783" r="4.5117"/></svg>