<svg xmlns="http://www.w3.org/2000/svg" xmlns:xlink="http://www.w3.org/1999/xlink" viewBox="0 0 231.7489 240.245"><defs><style>.a,.b{opacity:0.6;}.b,.c,.e{fill:#e20c16;}.c{opacity:0.9;}.d{opacity:0.7;}.f,.g,.h{fill:none;stroke-linecap:round;stroke-linejoin:round;stroke-width:8px;}.f{stroke:url(#a);}.g{stroke:url(#b);}.h{stroke:url(#c);}</style><linearGradient id="a" x1="67.999" y1="124.599" x2="67.999" gradientUnits="userSpaceOnUse"><stop offset="0" stop-color="#e20c16" stop-opacity="0.7"/><stop offset="0.1262" stop-color="#e20c16" stop-opacity="0.6735"/><stop offset="0.295" stop-color="#e20c16" stop-opacity="0.5983"/><stop offset="0.4882" stop-color="#e20c16" stop-opacity="0.4747"/><stop offset="0.6993" stop-color="#e20c16" stop-opacity="0.3023"/><stop offset="0.9226" stop-color="#e20c16" stop-opacity="0.0837"/><stop offset="1" stop-color="#e20c16" stop-opacity="0"/></linearGradient><linearGradient id="b" x1="127.999" y1="156.9218" x2="127.999" y2="32.3229" xlink:href="#a"/><linearGradient id="c" x1="187.999" y1="140.6568" x2="187.999" y2="16.0578" xlink:href="#a"/></defs><title>olor</title><g class="a"><path class="b" d="M231.2676,139.5614l-.5259-.0307.0456-.0263-126.6-73.0991L.7742,126.1159l-.5258-.0307v37.2691a8.7938,8.7938,0,0,0,4.4065,7.6211l118.2925,68.097a8.7937,8.7937,0,0,0,8.766.0049L226.8526,184.45a8.7938,8.7938,0,0,0,4.415-7.6261Z"/><path class="c" d="M229.6217,142.1907l-99.9755,57.7258a3.7529,3.7529,0,0,1-3.7529,0L1.8762,128.309a3.7525,3.7525,0,0,1,0-6.4995l99.9755-57.7259a3.7527,3.7527,0,0,1,3.7528,0l124.0172,71.6075A3.7527,3.7527,0,0,1,229.6217,142.1907Z"/></g><g class="d"><path class="e" d="M231.7489,170.8452c-1.9251,0-6.8677,5.4674-10.7628,6.2037a9.4142,9.4142,0,0,0-3.0981.8443c-1.1225.66-1.8048,1.8748-2.8428,2.661a10.0362,10.0362,0,0,1-3.1517,1.3577c-8.6658,2.71-16.5829,4.8864-22.677,11.617-1.2806-.972-3.0924-.0893-4.435.7952-4.639,3.0562-9.2781,9-13.9172,12.0564a3.0769,3.0769,0,0,0-1.5909-2.4286,82.815,82.815,0,0,0-11.7957,11.6441c-3.2561-1.8343-8.0229.8922-8.0925,4.6288l-15.0362,4.1481a5.9359,5.9359,0,0,1-7.181,2.9451,100.1478,100.1478,0,0,1-27.3557-11.59c-.4155-.2546,0,.2186-.445.02a29.7028,29.7028,0,0,1-9.9193-7.0958l-4.1361-.4764a6.8414,6.8414,0,0,0-.9607-4.366c-2.0274,1.5728-5.0115.3273-6.98-1.319s-3.8525-3.7737-6.4068-4.0183c-1.6079-.154-3.4561.4325-4.7056-.591-1.1443-.9374-1.1287-2.7628-2.1577-3.8255-1.8276-1.8874-5.4093-.1526-7.4723-1.78-1.41-1.1122-1.4326-3.2714-2.5325-4.6912-2.0233-2.6117-6.5571-1.618-8.874-3.9731-1.171-1.19-1.88-3.252-3.55-3.272-.8272-.01-1.5643.5462-2.3871.6316-3.17.3288-3.0675-5.1566-5.6789-6.9827a1.9611,1.9611,0,0,0-2.1544,1.1579,18.3563,18.3563,0,0,0-3.2828-5.8653l-2.0857,3.0134-12.6157-8.2212-1.8.506c-4.3039-.32-8.05-7.2106-11.4323-7.353L.73,140.0426c2.1608.1059,3.6124,2.3126,5.5365,4.9656l2.6472-.6409,1.9257,3.1039c.6666-2.1271,4.4786-1.8876,4.8737.3062l1.2309-2.537c3.6423,9.3184,20.0637,9.215,21.84,19.0611l1.8524-1.9242,2.9072,6.0217c2.1465-1.8317,6.1132-.2174,6.3707,2.5927,1.4552-1.3468,3.7461.0232,5.2061,1.3648l10.3193,9.4822A1.9839,1.9839,0,0,1,67.67,180.67l2.124,4.156c.5752-1.1426,2.2616-1.246,3.37-.6073a11.4147,11.4147,0,0,1,2.6589,2.7352,12.7509,12.7509,0,0,0,11.0587,4.2636c.439,2.6424,1.3756,5.8352,3.9969,6.3869a19.1029,19.1029,0,0,0,2.6148.0813,5.2589,5.2589,0,0,1,3.9418,2.2839l3.8079,6.5428c-.04-1.7955,2.176-2.91,3.9343-2.5441s3.1478,1.6567,4.5866,2.7315a22.2665,22.2665,0,0,0,14.2475,4.3614l1.1728,2.2771,8.5622-.377c.7546-3.6047,5.13-4.8265,8.63-5.9743,6.6221-2.1721,12.3554-6.3749,17.9638-10.512,2.9147-2.15,5.9858-1.6184,7.1769-5.0389l11.25-9.8617c.7892.6477,1.5783-1.5924,2.3674-.9448a2.6543,2.6543,0,0,1,3.9823-1.4013,15.0692,15.0692,0,0,1,8.18-7.3869l1.7871,1.7979a71.5642,71.5642,0,0,0,9.0069-9.6631,3.0422,3.0422,0,0,1,2.2838,1.5409l13.4515-9.6387c3.5565-2.5484,7.111-6.21,11.5266-6.07Z"/></g><path class="f" d="M67.7874,120.599c-9.3673-7.9678-9.3673-20.8862,0-28.854l.5442-.4629c9.3673-7.9679,9.3673-20.8862,0-28.854l-.6651-.5658c-9.3673-7.9678-9.3673-20.8862,0-28.854l.1814-.1543c9.3672-7.9678,9.3672-20.8862,0-28.854"/><path class="g" d="M127.7874,152.9218c-9.3673-7.9678-9.3673-20.8861,0-28.8539l.5442-.463c9.3673-7.9678,9.3673-20.8861,0-28.8539l-.6651-.5658c-9.3673-7.9678-9.3673-20.8862,0-28.854l.1814-.1543c9.3672-7.9679,9.3672-20.8862,0-28.854"/><path class="h" d="M187.7874,136.6568c-9.3673-7.9678-9.3673-20.8862,0-28.854l.5442-.4629c9.3673-7.9678,9.3673-20.8862,0-28.854l-.6651-.5658c-9.3673-7.9678-9.3673-20.8862,0-28.854l.1814-.1543c9.3672-7.9678,9.3672-20.8862,0-28.854"/></svg>