<svg xmlns="http://www.w3.org/2000/svg" viewBox="0 0 199.7673 280.6369"><defs><style>.a{fill:#fff;}.a,.e{stroke:#e20c16;stroke-linecap:round;stroke-linejoin:round;stroke-width:3px;}.b,.c,.d,.f{fill:#e20c16;}.b{opacity:0.2;}.c{opacity:0.3;}.d{opacity:0.5;}.e{fill:none;}.g{font-size:26px;fill:#606060;font-family:Lato-Italic, Lato;font-style:italic;}</style></defs><title>Recurso 21</title><path class="a" d="M169.4514,18.1383C131.03-4.0461,68.7371-4.0461,30.3159,18.1383,11.1053,29.2305,1.5,43.7686,1.5,58.3068V121.71c0,14.5382,9.6053,29.0763,28.8159,40.1685,38.4212,22.1844,100.7143,22.1844,139.1355,0,19.2106-11.0922,28.8159-25.63,28.8159-40.1685V58.3068C198.2673,43.7686,188.662,29.2305,169.4514,18.1383Z"/><path class="b" d="M169.4514,60.7712c-38.4212-22.1844-100.7143-22.1844-139.1355,0C8.2105,73.5349-1.1495,90.86,2.1816,107.4986H1.5V121.71c0,14.5382,9.6053,29.0763,28.8159,40.1685,38.4212,22.1844,100.7143,22.1844,139.1355,0,19.2106-11.0922,28.8159-25.63,28.8159-40.1685v-14.211h-.6815C200.9168,90.86,191.5568,73.5349,169.4514,60.7712Z"/><ellipse class="c" cx="99.8837" cy="100.9397" rx="98.3837" ry="56.8067"/><circle class="d" cx="83.7029" cy="146.8236" r="1.489"/><circle class="d" cx="109.0154" cy="140.8677" r="1.489"/><circle class="d" cx="52.4346" cy="125.2336" r="1.489"/><circle class="d" cx="38.2895" cy="109.5994" r="1.489"/><circle class="d" cx="80.725" cy="87.2649" r="1.489"/><circle class="d" cx="123.905" cy="119.2777" r="1.489"/><circle class="d" cx="88.9143" cy="108.1105" r="1.489"/><circle class="d" cx="120.1826" cy="99.9211" r="1.489"/><circle class="d" cx="52.4346" cy="98.4322" r="1.489"/><circle class="d" cx="158.1513" cy="127.467" r="1.489"/><circle class="d" cx="63.6019" cy="108.8549" r="1.489"/><circle class="d" cx="28.6112" cy="73.8642" r="1.489"/><circle class="d" cx="56.9015" cy="149.8015" r="1.489"/><circle class="d" cx="27.1222" cy="148.3126" r="1.489"/><circle class="d" cx="68.0688" cy="133.4229" r="1.489"/><circle class="d" cx="80.725" cy="163.9467" r="1.489"/><circle class="d" cx="28.6112" cy="97.6877" r="1.489"/><circle class="d" cx="100.0816" cy="91.7318" r="1.489"/><circle class="d" cx="90.4033" cy="56.7411" r="1.489"/><circle class="d" cx="98.5926" cy="77.5866" r="1.489"/><circle class="d" cx="109.7598" cy="61.208" r="1.489"/><circle class="d" cx="55.4126" cy="67.1639" r="1.489"/><circle class="d" cx="63.6019" cy="88.0094" r="1.489"/><circle class="d" cx="38.2895" cy="88.7539" r="1.489"/><circle class="d" cx="74.7691" cy="71.6308" r="1.489"/><circle class="d" cx="69.5578" cy="53.7632" r="1.489"/><circle class="d" cx="134.3278" cy="99.9211" r="1.489"/><circle class="d" cx="111.9933" cy="127.467" r="1.489"/><circle class="d" cx="20.4219" cy="120.7667" r="1.489"/><circle class="d" cx="33.0781" cy="132.6784" r="1.489"/><circle class="d" cx="134.3278" cy="143.8457" r="1.489"/><circle class="d" cx="162.6182" cy="145.3346" r="1.489"/><circle class="d" cx="87.4254" cy="128.956" r="1.489"/><circle class="d" cx="139.5392" cy="127.467" r="1.489"/><circle class="d" cx="109.0154" cy="157.2464" r="1.489"/><circle class="d" cx="131.3499" cy="158.7353" r="1.489"/><circle class="d" cx="110.5043" cy="116.2998" r="1.489"/><circle class="d" cx="155.1733" cy="105.1325" r="1.489"/><circle class="d" cx="178.2523" cy="113.3218" r="1.489"/><circle class="d" cx="114.9712" cy="79.0756" r="1.489"/><circle class="d" cx="128.3719" cy="83.5425" r="1.489"/><circle class="d" cx="129.8609" cy="61.9525" r="1.489"/><circle class="d" cx="146.984" cy="91.7318" r="1.489"/><circle class="d" cx="141.0281" cy="75.3532" r="1.489"/><circle class="d" cx="165.5961" cy="76.0977" r="1.489"/><circle class="d" cx="162.6182" cy="91.7318" r="1.489"/><circle class="d" cx="145.495" cy="61.9525" r="1.489"/><ellipse class="e" cx="99.8837" cy="58.3068" rx="98.3837" ry="56.8067"/><circle class="f" cx="114.9712" cy="70.8863" r="1.489"/><circle class="f" cx="89.6588" cy="76.8422" r="1.489"/><circle class="f" cx="146.2395" cy="92.4763" r="1.489"/><circle class="f" cx="160.3847" cy="108.1105" r="1.489"/><circle class="f" cx="117.9492" cy="130.445" r="1.489"/><circle class="f" cx="74.7691" cy="98.4322" r="1.489"/><circle class="f" cx="109.7598" cy="109.5994" r="1.489"/><circle class="f" cx="78.4916" cy="117.7887" r="1.489"/><circle class="f" cx="146.2395" cy="119.2777" r="1.489"/><circle class="f" cx="40.5229" cy="90.2429" r="1.489"/><circle class="f" cx="135.0723" cy="108.8549" r="1.489"/><circle class="f" cx="170.063" cy="143.8457" r="1.489"/><circle class="f" cx="141.7726" cy="67.9084" r="1.489"/><circle class="f" cx="171.552" cy="69.3973" r="1.489"/><circle class="f" cx="130.6054" cy="84.287" r="1.489"/><circle class="f" cx="117.9492" cy="53.7632" r="1.489"/><circle class="f" cx="170.063" cy="120.0222" r="1.489"/><circle class="f" cx="98.5926" cy="125.9781" r="1.489"/><circle class="f" cx="108.2709" cy="160.9688" r="1.489"/><circle class="f" cx="100.0816" cy="140.1232" r="1.489"/><circle class="f" cx="88.9143" cy="156.5019" r="1.489"/><circle class="f" cx="143.2616" cy="150.546" r="1.489"/><circle class="f" cx="135.0723" cy="129.7005" r="1.489"/><circle class="f" cx="160.3847" cy="128.956" r="1.489"/><circle class="f" cx="123.905" cy="146.0791" r="1.489"/><circle class="f" cx="129.1164" cy="163.9467" r="1.489"/><circle class="f" cx="64.3464" cy="117.7887" r="1.489"/><circle class="f" cx="86.6809" cy="90.2429" r="1.489"/><circle class="f" cx="178.2523" cy="96.9432" r="1.489"/><circle class="f" cx="165.5961" cy="85.0315" r="1.489"/><circle class="f" cx="64.3464" cy="73.8642" r="1.489"/><circle class="f" cx="36.056" cy="72.3753" r="1.489"/><circle class="f" cx="111.2488" cy="88.7539" r="1.489"/><circle class="f" cx="59.135" cy="90.2429" r="1.489"/><circle class="f" cx="89.6588" cy="60.4635" r="1.489"/><circle class="f" cx="67.3243" cy="58.9746" r="1.489"/><circle class="f" cx="88.1698" cy="101.4101" r="1.489"/><circle class="f" cx="43.5008" cy="112.5774" r="1.489"/><circle class="f" cx="20.4219" cy="104.388" r="1.489"/><circle class="f" cx="83.7029" cy="138.6343" r="1.489"/><circle class="f" cx="70.3022" cy="134.1674" r="1.489"/><circle class="f" cx="68.8133" cy="155.7574" r="1.489"/><circle class="f" cx="51.6902" cy="125.9781" r="1.489"/><circle class="f" cx="57.646" cy="142.3567" r="1.489"/><circle class="f" cx="33.0781" cy="141.6122" r="1.489"/><circle class="f" cx="36.056" cy="125.9781" r="1.489"/><circle class="f" cx="53.1791" cy="155.7574" r="1.489"/><text class="g" transform="translate(39.4905 242.456)">Mezcla con<tspan x="-20.6694" y="31.2002">partículas finas</tspan></text></svg>