<svg xmlns="http://www.w3.org/2000/svg" viewBox="0 0 135.3794 271.7094"><defs><style>.a{font-size:26px;fill:#606060;font-family:Lato-Italic, Lato;font-style:italic;}.b{fill:#fff;}.b,.c{stroke:#e20c16;stroke-linecap:round;stroke-linejoin:round;stroke-width:3px;}.c{fill:none;}.d{fill:#e20c16;opacity:0.2;}</style></defs><title>Recurso 14</title><text class="a" transform="translate(17.9928 264.7284)">Limoneno</text><path class="b" d="M133.8757,181.39c.0005-.06.0037-.1206.0037-.1809h-.0665L94.6614,68.35a67.4272,67.4272,0,0,1-4.845-25.0974V14.4951H45.7535V43.2528A67.4272,67.4272,0,0,1,40.9085,68.35L1.7237,181.3047l-.2237,0c.0419,9.749,6.504,19.49,19.3863,26.9288,25.8488,14.9251,67.7578,14.9251,93.6065,0,12.84-7.414,19.2992-17.1163,19.3826-26.8334h.004Z"/><ellipse class="b" cx="67.8398" cy="14.4952" rx="21.9999" ry="12.7027"/><ellipse class="c" cx="67.8398" cy="15.4685" rx="24.1921" ry="13.9685"/><path class="d" d="M133.8755,181.4l-.7207-2.0779a24.5837,24.5837,0,0,0-3.3395-9.6274L103.83,94.7805l-.5006-.0021c-1.1889-4.1252-4.529-8.0839-10.0408-11.2664-14.0552-8.1155-36.8432-8.1155-50.8984,0-5.3732,3.1024-8.6849,6.9425-9.95,10.9553l-.5917-.0026L5.566,170.2286a24.5553,24.5553,0,0,0-2.9779,8.5844l-.2352.6778.1507.0023c-1.1581,10.4682,5.1741,21.1612,19.03,29.1617,25.5743,14.7664,67.0382,14.7664,92.6125,0,13.0186-7.5171,19.3947-17.4114,19.1589-27.2629Z"/><ellipse class="d" cx="67.8398" cy="98.2063" rx="35.9906" ry="20.781"/></svg>