<svg xmlns="http://www.w3.org/2000/svg" viewBox="0 0 205.6717 279.3679"><defs><style>.a,.b,.c{fill:#e20c16;}.a{opacity:0.2;}.b{opacity:0.3;}.c{opacity:0.5;}.d{fill:none;stroke:#e20c16;stroke-linecap:round;stroke-linejoin:round;stroke-width:3px;}.e{font-size:26px;fill:#606060;font-family:Lato-Italic, Lato;font-style:italic;}</style></defs><title>Recurso 20</title><path class="a" d="M171.9048,60.3463c-38.1457-22.0254-99.9922-22.0254-138.1379,0C11.82,73.0184,2.5271,90.2192,5.8342,106.7387H5.1576v14.1091c0,14.4339,9.5364,28.8679,28.6093,39.88,38.1457,22.0253,99.9922,22.0253,138.1379,0,19.0729-11.0126,28.6094-25.4466,28.6094-39.88V106.7387h-.6767C203.1447,90.2192,193.8518,73.0184,171.9048,60.3463Z"/><ellipse class="b" cx="102.8359" cy="100.2268" rx="97.6783" ry="56.3995"/><circle class="c" cx="86.7711" cy="145.7817" r="1.4783"/><circle class="c" cx="111.9021" cy="139.8686" r="1.4783"/><circle class="c" cx="55.727" cy="124.3465" r="1.4783"/><circle class="c" cx="41.6833" cy="108.8244" r="1.4783"/><circle class="c" cx="83.8146" cy="86.6501" r="1.4783"/><circle class="c" cx="126.685" cy="118.4333" r="1.4783"/><circle class="c" cx="91.9452" cy="107.3461" r="1.4783"/><circle class="c" cx="122.9893" cy="99.2155" r="1.4783"/><circle class="c" cx="55.727" cy="97.7372" r="1.4783"/><circle class="c" cx="160.6857" cy="126.5639" r="1.4783"/><circle class="c" cx="66.8142" cy="108.0853" r="1.4783"/><circle class="c" cx="32.0744" cy="73.3454" r="1.4783"/><circle class="c" cx="60.1619" cy="148.7383" r="1.4783"/><circle class="c" cx="30.5961" cy="147.26" r="1.4783"/><circle class="c" cx="71.2491" cy="132.4771" r="1.4783"/><circle class="c" cx="83.8146" cy="162.7821" r="1.4783"/><circle class="c" cx="32.0744" cy="96.9981" r="1.4783"/><circle class="c" cx="103.0324" cy="91.0849" r="1.4783"/><circle class="c" cx="93.4235" cy="56.3451" r="1.4783"/><circle class="c" cx="101.5541" cy="77.0412" r="1.4783"/><circle class="c" cx="112.6413" cy="60.78" r="1.4783"/><circle class="c" cx="58.6836" cy="66.6931" r="1.4783"/><circle class="c" cx="66.8142" cy="87.3892" r="1.4783"/><circle class="c" cx="41.6833" cy="88.1283" r="1.4783"/><circle class="c" cx="77.9014" cy="71.128" r="1.4783"/><circle class="c" cx="72.7274" cy="53.3885" r="1.4783"/><circle class="c" cx="137.0331" cy="99.2155" r="1.4783"/><circle class="c" cx="114.8587" cy="126.5639" r="1.4783"/><circle class="c" cx="23.9438" cy="119.9116" r="1.4783"/><circle class="c" cx="36.5092" cy="131.7379" r="1.4783"/><circle class="c" cx="137.0331" cy="142.8251" r="1.4783"/><circle class="c" cx="165.1206" cy="144.3034" r="1.4783"/><circle class="c" cx="90.4669" cy="128.0422" r="1.4783"/><circle class="c" cx="142.2071" cy="126.5639" r="1.4783"/><circle class="c" cx="111.9021" cy="156.1298" r="1.4783"/><circle class="c" cx="134.0765" cy="157.6081" r="1.4783"/><circle class="c" cx="113.3804" cy="115.4767" r="1.4783"/><circle class="c" cx="157.7291" cy="104.3896" r="1.4783"/><circle class="c" cx="180.6427" cy="112.5202" r="1.4783"/><circle class="c" cx="117.8153" cy="78.5195" r="1.4783"/><circle class="c" cx="131.1199" cy="82.9543" r="1.4783"/><circle class="c" cx="132.5982" cy="61.5191" r="1.4783"/><circle class="c" cx="149.5985" cy="91.0849" r="1.4783"/><circle class="c" cx="143.6854" cy="74.8237" r="1.4783"/><circle class="c" cx="168.0772" cy="75.5629" r="1.4783"/><circle class="c" cx="165.1206" cy="91.0849" r="1.4783"/><circle class="c" cx="148.1203" cy="61.5191" r="1.4783"/><ellipse class="d" cx="102.8359" cy="57.8995" rx="97.6783" ry="56.3995"/><path class="d" d="M171.9048,18.019c-38.1457-22.0253-99.9922-22.0253-138.1379,0C14.694,29.0316,5.1576,43.4656,5.1576,57.9v62.9483c0,14.4339,9.5364,28.8679,28.6093,39.88,38.1457,22.0253,99.9922,22.0253,138.1379,0,19.0729-11.0126,28.6094-25.4466,28.6094-39.88V57.9C200.5142,43.4656,190.9777,29.0316,171.9048,18.019Z"/><text class="e" transform="translate(39.6956 241.1872)">Poliestireno<tspan x="-38.498" y="31.1997">expandido disuelto</tspan></text></svg>