<svg xmlns="http://www.w3.org/2000/svg" viewBox="0 0 251.1579 284.7611"><defs><style>.a{font-size:26px;fill:#606060;font-family:Lato-Italic, Lato;font-style:italic;}.b,.c,.d,.g{fill:#e20c16;}.b{opacity:0.2;}.c{opacity:0.3;}.d{opacity:0.5;}.e{fill:none;}.e,.h{stroke:#e20c16;stroke-linecap:round;stroke-linejoin:round;stroke-width:3px;}.f{opacity:0.8;}.h{fill:#fff;}</style></defs><title>solvent</title><text class="a" transform="translate(0.4177 246.5802)">Poliestireno expandido <tspan x="79.877" y="31.1997">disuelto</tspan></text><path class="b" d="M182.7333,69.6428c-37.1305-21.4391-97.331-21.4391-134.4615,0C26.9089,81.9777,17.8634,98.7207,21.0825,114.8006h-.6586v13.7336c0,14.05,9.2826,28.1,27.8479,38.8191,37.1305,21.4391,97.331,21.4391,134.4615,0,18.5653-10.72,27.8479-24.7694,27.8479-38.8191V114.8006h-.6586C213.1417,98.7207,204.0962,81.9777,182.7333,69.6428Z"/><ellipse class="c" cx="115.5026" cy="108.462" rx="95.0787" ry="54.8984"/><circle class="d" cx="99.8654" cy="152.8045" r="1.4389"/><circle class="d" cx="124.3275" cy="147.0487" r="1.4389"/><circle class="d" cx="69.6475" cy="131.9398" r="1.4389"/><circle class="d" cx="55.9775" cy="116.8308" r="1.4389"/><circle class="d" cx="96.9875" cy="95.2466" r="1.4389"/><circle class="d" cx="138.717" cy="126.184" r="1.4389"/><circle class="d" cx="104.9017" cy="115.3918" r="1.4389"/><circle class="d" cx="135.1196" cy="107.4776" r="1.4389"/><circle class="d" cx="69.6475" cy="106.0387" r="1.4389"/><circle class="d" cx="171.8128" cy="134.0982" r="1.4389"/><circle class="d" cx="80.4396" cy="116.1113" r="1.4389"/><circle class="d" cx="46.6243" cy="82.296" r="1.4389"/><circle class="d" cx="73.9643" cy="155.6824" r="1.4389"/><circle class="d" cx="45.1854" cy="154.2434" r="1.4389"/><circle class="d" cx="84.7564" cy="139.854" r="1.4389"/><circle class="d" cx="96.9875" cy="169.3524" r="1.4389"/><circle class="d" cx="46.6243" cy="105.3192" r="1.4389"/><circle class="d" cx="115.6938" cy="99.5634" r="1.4389"/><circle class="d" cx="106.3406" cy="65.7481" r="1.4389"/><circle class="d" cx="114.2549" cy="85.8934" r="1.4389"/><circle class="d" cx="125.047" cy="70.065" r="1.4389"/><circle class="d" cx="72.5254" cy="75.8208" r="1.4389"/><circle class="d" cx="80.4396" cy="95.9661" r="1.4389"/><circle class="d" cx="55.9775" cy="96.6855" r="1.4389"/><circle class="d" cx="91.2317" cy="80.1376" r="1.4389"/><circle class="d" cx="86.1954" cy="62.8703" r="1.4389"/><circle class="d" cx="148.7896" cy="107.4776" r="1.4389"/><circle class="d" cx="127.2054" cy="134.0982" r="1.4389"/><circle class="d" cx="38.7101" cy="127.6229" r="1.4389"/><circle class="d" cx="50.9412" cy="139.1345" r="1.4389"/><circle class="d" cx="148.7896" cy="149.9266" r="1.4389"/><circle class="d" cx="176.1296" cy="151.3655" r="1.4389"/><circle class="d" cx="103.4628" cy="135.5371" r="1.4389"/><circle class="d" cx="153.8259" cy="134.0982" r="1.4389"/><circle class="d" cx="124.3275" cy="162.8771" r="1.4389"/><circle class="d" cx="145.9117" cy="164.3161" r="1.4389"/><circle class="d" cx="125.7664" cy="123.3061" r="1.4389"/><circle class="d" cx="168.9349" cy="112.514" r="1.4389"/><circle class="d" cx="191.2386" cy="120.4282" r="1.4389"/><circle class="d" cx="130.0833" cy="87.3324" r="1.4389"/><circle class="d" cx="143.0338" cy="91.6492" r="1.4389"/><circle class="d" cx="144.4728" cy="70.7845" r="1.4389"/><circle class="d" cx="161.0207" cy="99.5634" r="1.4389"/><circle class="d" cx="155.2649" cy="83.735" r="1.4389"/><circle class="d" cx="179.0075" cy="84.4545" r="1.4389"/><circle class="d" cx="176.1296" cy="99.5634" r="1.4389"/><circle class="d" cx="159.5817" cy="70.7845" r="1.4389"/><ellipse class="e" cx="115.5026" cy="67.2612" rx="95.0787" ry="54.8984"/><g class="f"><path class="e" d="M64.0424,136.0623a58.7842,58.7842,0,0,1-9.3257-6.5919C36.0656,113.16,39.1742,90.9949,64.0424,76.636c28.4207-16.41,74.5-16.41,102.92,0,24.8176,14.33,27.9639,36.4339,9.439,52.7349a58.6375,58.6375,0,0,1-9.439,6.6914"/><polygon class="g" points="65.887 128.491 73.364 141.444 58.407 141.445 65.887 128.491"/></g><path class="e" d="M182.7333,28.4421c-37.1305-21.4391-97.331-21.4391-134.4615,0-18.5653,10.72-27.8479,24.7693-27.8479,38.8191v61.273c0,14.05,9.2826,28.1,27.8479,38.8191,37.1305,21.4391,97.331,21.4391,134.4615,0,18.5653-10.72,27.8479-24.7694,27.8479-38.8191V67.2612C210.5812,53.2114,201.2986,39.1616,182.7333,28.4421Z"/><path class="h" d="M154.7432,97.2548,130.451,26.2562,56.1242,64.6378l32.4394,45.4088c23.0308,7.677,29.9789-8.9831,59.7419-5.0066A5.9337,5.9337,0,0,0,154.7432,97.2548Z"/><path class="h" d="M125.02,10.5142l-7.7841,4.02a37.5472,37.5472,0,0,0-5.08-.5762C92.1792,13.02,67.229,25.9034,56.4283,42.7348a37.5692,37.5692,0,0,0-2.471,4.4752L46.191,51.22l7.1631,13.8717.0128-.0066c3.0872,5.6492,9.8648,9.363,19.6757,9.8237,19.9766.9381,44.9267-11.9458,55.7276-28.7772,5.3044-8.2662,6.2005-15.9423,3.3817-21.73l.0309-.016Z"/><ellipse class="h" cx="86.1911" cy="32.024" rx="44.3491" ry="25.605" transform="translate(-5.0853 43.117) rotate(-27.3116)"/><path class="e" d="M55.318,59.6173c.0414-4.09,1.5951-8.728,4.82-13.6049C70.4574,30.4063,93.9815,18.2586,112.6805,18.88c5.8156.1932,10.48,1.5988,13.8353,3.9134"/><ellipse class="e" cx="87.1338" cy="33.8494" rx="41.8144" ry="23.3829" transform="translate(-5.8178 43.753) rotate(-27.3116)"/></svg>