<svg xmlns="http://www.w3.org/2000/svg" viewBox="0 0 214.9292 171.4338"><defs><style>.a{fill:#fff;}.b{fill:#e20c16;}</style></defs><title>viruta</title><path class="a" d="M156.3489,50.5117A34.3726,34.3726,0,0,1,142.33,47.5444a20.7239,20.7239,0,0,1-7.5462-4.7636,6.8263,6.8263,0,0,1-1.6628-1.6114c-.1184-.1465-.2366-.2934-.36-.435a3.36,3.36,0,0,1-1.135-2.6807,2.7443,2.7443,0,0,1,1.1678-1.7881c-.0257-.0664-.1985-.5019-.1985-.5019a50.0993,50.0993,0,0,1-3.003-19.0288,1.77,1.77,0,0,1,.4036-1.0523c.0378-.0508.0889-.12.1541-.2182a1.5,1.5,0,0,1,2.71.4736,33.82,33.82,0,0,0,1.728,4.9424c.1911.4673.3816.9331.5659,1.4009,3.2817,5.684,8.282,9.3652,15.28,11.249a39.9513,39.9513,0,0,0,7.4141.6352c1.5373,0,3.1833-.0664,5.0322-.2041.49-.0356.9807-.0586,1.4712-.081l.5078-.024a18.7634,18.7634,0,0,0,9.4131-5.2993,3.8235,3.8235,0,0,0-.4546-.4531l-.0757-.0679A3.42,3.42,0,0,1,172.4092,24.3l-.0056-.0034q-1.8381-1.0907-3.6819-2.1685l-1.4019-.8232a45.4487,45.4487,0,0,0-9.0129-2.9922l-.7483-.0273c-.7378-.0259-1.4756-.0523-2.2129-.0894l-.1267-.0049a2.3618,2.3618,0,0,1-2.3611-1.4194A1.9971,1.9971,0,0,1,154.05,14.2l.1136-.0615,2.9148-2.0757q-.6255-.0206-1.2471-.02a29.9314,29.9314,0,0,0-11.5354,2.14q-.51.3222-1.022.64a38.2105,38.2105,0,0,0-4.58,3.1679,2.8237,2.8237,0,0,1-1.8235.7671,2.3457,2.3457,0,0,1-1.2576-.3711,2.5965,2.5965,0,0,1-1.1692-2.9375c1.0669-3.8662,2.4654-7.8091,6.7188-9.8589a23.2417,23.2417,0,0,1,12.7021-4.0454q.3988,0,.803.0156l.58-.0185c.6274-.0215,1.2551-.042,1.8809-.042a13.9051,13.9051,0,0,1,4.8308.7271,20.2529,20.2529,0,0,1,7.3252,2.4067c5.1989,1.9365,8.7109,5.72,11.1948,8.8091a7.7765,7.7765,0,0,1,1.884,5.5156c-.0566.9424-.0676,1.8789-.0793,2.87a28.0942,28.0942,0,0,1-.6912,7.0513,22.3467,22.3467,0,0,0-.2331,3.6357,21.7628,21.7628,0,0,1-.4183,4.8047,13.9618,13.9618,0,0,1-6.1884,8.9976,20.3617,20.3617,0,0,1-9.03,3.5634,9.5439,9.5439,0,0,1-1.3435.149,2.1693,2.1693,0,0,1-.9885-.2154c-1.0732.1363-2.1314.1665-3.1611.1958-.679.0191-1.3284.0376-1.9681.0845a1.4515,1.4515,0,0,1-.9589.4038q-.4784.0124-.9537.0127Z"/><path class="b" d="M157.1279,3a12.167,12.167,0,0,1,4.43.6782,18.8572,18.8572,0,0,1,7.0585,2.3084c4.4844,1.6279,7.7752,4.7658,10.6941,8.3962a6.3376,6.3376,0,0,1,1.5557,4.4859c-.1941,3.2314.1265,6.5019-.738,9.6823v0c-.512,2.7971.0061,5.6736-.6546,8.4592.0244-.2151.0342-.427.0454-.6389-.0175.2136-.0341.427-.0454.6389a12.6226,12.6226,0,0,1-5.5849,8.0813,18.8946,18.8946,0,0,1-8.3706,3.304,9.1736,9.1736,0,0,1-1.138.1347c-.3054,0-.4272-.0852-.4973-.3069-2.0757.3684-4.1912.2132-6.2815.4234l-.0261.0012c-.1094,0-.271-.0552-.3735-.0552-.12,0-.1595.0759.0625.4065q-.46.0121-.917.012A32.7311,32.7311,0,0,1,142.88,46.1472a19.3836,19.3836,0,0,1-7.1787-4.5654v0a7.5555,7.5555,0,0,1-1.81-1.8337c-.7231-.8284-1.355-1.5659.0378-2.4441.8252-.52.3328-1.3635.0716-2.0637a48.9652,48.9652,0,0,1-2.909-18.47c.0018-.0806.0984-.1589.31-.48a49.7534,49.7534,0,0,0,2.3962,6.6424c3.6655,6.41,9.2825,10.1838,16.3017,12.0613a41.512,41.512,0,0,0,7.75.6718c1.711,0,3.4253-.0805,5.1412-.2077.6967-.0518,1.3957-.0745,2.0937-.1109a20.0617,20.0617,0,0,0,10.7122-6.2488c.2822-1.0332-.4009-1.5932-1.054-2.1784-.71-.637-1.3191-1.3115-.8142-2.38.3838-.812-.1836-1.1919-.76-1.5342-1.7122-1.0154-3.4309-2.02-5.147-3.0288v0a47.3064,47.3064,0,0,0-9.5131-3.1583c-1.0291-.039-2.0586-.0693-3.087-.121-.4279-.0215-.99.0185-1.15-.43-.1921-.54.41-.6584.7458-.8965q1.7891-1.27,3.5738-2.5444c.4416-.3147,1.0925-.648,1.04-1.1589-.0678-.6536-.8867-.6385-1.4055-.86a6.0033,6.0033,0,0,0-.9436-.2395h0q-.7281-.0259-1.4515-.0261a31.5524,31.5524,0,0,0-12.2253,2.3027l0,0a51.4367,51.4367,0,0,0-5.8794,4,1.3917,1.3917,0,0,1-.8536.4114.8651.8651,0,0,1-.4638-.1438,1.1043,1.1043,0,0,1-.5169-1.2668c1.0054-3.6438,2.218-7.16,6.0025-8.9429a21.9018,21.9018,0,0,1,11.9721-3.8594q.396,0,.7972.0166c.8222-.0241,1.6457-.0615,2.466-.0615m22.3457,34.0105h.0049M157.1279,0h0c-.6416,0-1.2851.021-1.9284.0427L154.6719.06q-.4058-.0147-.8072-.0147a24.6476,24.6476,0,0,0-13.4355,4.2344c-4.5947,2.2576-6.2236,6.5869-7.127,9.6895a3,3,0,0,0-4.4052.67c-.0454.0688-.0813.1167-.1077.1521a3.2635,3.2635,0,0,0-.697,1.9152,51.7063,51.7063,0,0,0,2.9431,19.1622,3.8929,3.8929,0,0,0-.894,1.9682,4.7868,4.7868,0,0,0,1.49,3.8838c.1106.127.2166.2593.3232.3911a8.5055,8.5055,0,0,0,1.8965,1.8506,22.1313,22.1313,0,0,0,7.9285,4.9788,35.8588,35.8588,0,0,0,14.5679,3.07q.497,0,.9958-.013a3,3,0,0,0,1.4793-.4353c.469-.0251.9514-.0388,1.45-.0532.9484-.0271,1.92-.0547,2.9238-.1621a3.8182,3.8182,0,0,0,1.1838.1826,10.7013,10.7013,0,0,0,1.5855-.1684,21.8025,21.8025,0,0,0,9.6518-3.8186,15.6143,15.6143,0,0,0,6.7779-9.8389c.0114-.0486.0219-.0977.031-.1472a23.3176,23.3176,0,0,0,.4336-5.0249,21.7671,21.7671,0,0,1,.2-3.3313,29.4762,29.4762,0,0,0,.7244-7.3548c.0114-.9726.0222-1.8916.0766-2.7978a9.3339,9.3339,0,0,0-2.2121-6.5454c-2.583-3.2124-6.2373-7.1438-11.7-9.2219A21.7683,21.7683,0,0,0,162.3518.7739,15.4468,15.4468,0,0,0,157.1279,0ZM144.9834,15.5229a26.972,26.972,0,0,1,7.1941-1.7854,3.5207,3.5207,0,0,0-.7327,3.5369A3.71,3.71,0,0,0,155.17,19.69l.1.0037c.7447.0373,1.49.064,2.2356.09l.5982.0218a43.8478,43.8478,0,0,1,8.5154,2.8271l1.2849.7542q1.4195.8331,2.8374,1.6684a4.7272,4.7272,0,0,0,1.3972,3.5029,17.7827,17.7827,0,0,1-7.51,3.8064l-.3518.0169c-.5031.0232-1.0063.0466-1.5085.084-1.8108.1342-3.42.1994-4.919.1994a38.5388,38.5388,0,0,1-7.0827-.5991c-6.5261-1.7693-11.1939-5.1865-14.26-10.4412-.1734-.4377-.3516-.8735-.5306-1.311l-.0751-.1838a3.7745,3.7745,0,0,0,.9689.1274,4.3151,4.3151,0,0,0,2.7933-1.1228,37.1006,37.1006,0,0,1,4.4045-3.04q.4578-.2853.9148-.5723Z"/><path class="a" d="M29.56,148.5332c-.7664,0-1.5459-.0366-2.3179-.1084L26.314,148.4a20.5756,20.5756,0,0,1-9.0874-2.6357c-3.6619-1.2344-6.2832-3.6934-8.8641-6.3194a21.63,21.63,0,0,1-6.2876-12.561c-.1464-.9326-.2143-1.8618-.28-2.7608-.0276-.3764-.0549-.7534-.0884-1.1289-.6-3.5952.2017-6.9648.9773-10.2241l.0652-.2729c1.7017-7.16,5.8267-13.31,12.26-18.2774,4.8889-3.7851,10.8322-5.9023,18.1682-6.4717,1.4524-.1123,2.9018-.1694,4.3078-.1694a48.7392,48.7392,0,0,1,8.8858.7979l.1494.0268a2.8408,2.8408,0,0,1,2.1174,1.16,2.23,2.23,0,0,1,.3167,1.2505c.22-.0347.4407-.0669.6623-.085l.1346-.0161a4.338,4.338,0,0,1,.5454-.0435,2.0275,2.0275,0,0,1,1.0456,3.7945,2.15,2.15,0,0,1,.5149,1.5356,2.3276,2.3276,0,0,1-1.3354,1.8726,1.05,1.05,0,0,0-.39.4311,1.8645,1.8645,0,0,1-.062.5889c.021.0923.0727.2471.1091.356a2.437,2.437,0,0,1-.8013,3.0986,2.243,2.243,0,0,1-1.1972.3223,5.6518,5.6518,0,0,1-1.7388-.3775c-.2214-.0737-.4412-.15-.6431-.1958-.6694-.1523-1.3366-.3174-2.0036-.4819l-.6714-.1655-6.4885.0087c-3.1934.6831-6.2095,1.3448-8.9,2.9629-7.6258,4.5879-11.657,11.5069-12.3245,21.1519-.1953,2.8218.9412,5.521,3.5749,8.4878a2.2457,2.2457,0,0,0,1.5853.4424c.0964,0,.1943-.0025.2934-.0059a39.7487,39.7487,0,0,0,4.6209-.5322c.602-.0928,1.2038-.1856,1.8076-.2686l.2485-.0888a39.3892,39.3892,0,0,0,7.0615-3.0459c3.64-2.5752,5.8523-5.2813,6.9619-8.5132a1.9453,1.9453,0,0,0,.18-.8867,6.1713,6.1713,0,0,0-3.864-1.48,6.6874,6.6874,0,0,0-2.7185.6328,3.6313,3.6313,0,0,1-1.4922.3691,2.2868,2.2868,0,0,1-2.2593-2.5347,2.8346,2.8346,0,0,1-2.8816-2.6127,5.4164,5.4164,0,0,1-2.2192-2.6387,6.6693,6.6693,0,0,0-.5229-.9346,2.7,2.7,0,0,1-.5957-1.9892,2.621,2.621,0,0,1,1.1931-1.6773,12.5723,12.5723,0,0,1,7.47-2.685l.1985.0019c.6734.0117,1.347.0132,2.0208.0132l1.3706.001a7.6772,7.6772,0,0,1,3.88,1.0268c8.8191,2.7822,16.054,11.4619,12.91,22.7852-2.1721,7.8242-6.5478,13.2016-13.3774,16.44a25.9073,25.9073,0,0,1-11.2954,2.6548ZM50.6765,93.84Z"/><path class="b" d="M37.4858,89.0784a47.077,47.077,0,0,1,8.6114.7727c.8877.1648,1.6352.216,1.2619,1.4568-.2446.8132.1975,1.1018.86,1.1018.0742,0,.1516-.0037.2309-.0105.4312-.0376.857-.1407,1.2884-.1756.1755-.0141.3747-.0547.5583-.0547a.5121.5121,0,0,1,.5618.3894c.1221.4148-.3145.6624-.6433.8326-.908.4692-1.3372.9792-.2993,1.7722.6718.5134.5478,1.0273-.1192,1.3955A3.02,3.02,0,0,0,48.5808,98.03a1.2482,1.2482,0,0,1,.0364.4824c-.32.8906.87,2.0029-.0278,2.5569a.77.77,0,0,1-.4095.0986,12.0124,12.0124,0,0,1-2.0478-.5351c-.9458-.2156-1.8858-.4556-2.8282-.6851l-6.8288.0088c-3.29.7034-6.5679,1.4055-9.5134,3.1777-8.43,5.0716-12.387,12.7847-13.0476,22.3333-.2613,3.7746,1.5517,6.9062,4.0151,9.6609a3.6789,3.6789,0,0,0,2.64.8725q.1717,0,.3486-.0066c2.2761-.0825,4.4915-.5334,6.7317-.8344a42.8486,42.8486,0,0,0,7.7717-3.3423c3.3875-2.388,6.178-5.2544,7.5615-9.2835a2.5156,2.5156,0,0,0-.0358-2.331,7.8308,7.8308,0,0,0-5.0662-2.0225,8.1336,8.1336,0,0,0-3.3308.7632,2.2875,2.2875,0,0,1-.88.2385c-.4436,0-.7422-.2851-.76-1.0818a1.6911,1.6911,0,0,0-1.082-1.4663l0,0q-.1582.015-.305.0151a1.3767,1.3767,0,0,1-1.5163-1.3765c-.04-.3112-.146-.81-.3391-.8747-1.6319-.551-1.83-2.1738-2.6707-3.3225-.584-.7981-.3371-1.1355.2568-1.5584A11.2532,11.2532,0,0,1,33.855,107.11c.0566,0,.1135.0005.17.0015.677.0124,1.3542.0139,2.0315.0139h.6489q.3666,0,.7332.001a6.154,6.154,0,0,1,3.2692.9065c8.44,2.581,14.9463,10.6811,12.08,21.0044-1.9533,7.0366-5.89,12.3159-12.5747,15.4853a24.6039,24.6039,0,0,1-10.6543,2.51q-1.1026,0-2.2265-.1062-.4893-.0132-.9786-.0267a19.239,19.239,0,0,1-8.531-2.518l0,0c-3.4231-1.1191-5.9456-3.5-8.3911-5.9882v0a20.0791,20.0791,0,0,1-5.8755-11.7424c-.2-1.271-.2454-2.5657-.3616-3.85-.5842-3.4114.241-6.71,1.0129-9.958,1.721-7.24,5.8753-12.9256,11.7178-17.4371,5.1128-3.9587,11.0474-5.6726,17.3675-6.1628q2.0961-.1626,4.1923-.1655M3.3464,123.0933a.4457.4457,0,0,0-.1508-.2913c.049.0979.1013.1938.1508.2913M26.3538,146.9a.5486.5486,0,0,0-.2593-.1262l.2593.1262m11.132-60.8215h0c-1.445,0-2.9336.0588-4.4245.1745-7.6375.5923-13.8433,2.8108-18.9719,6.7818C7.38,98.2153,3.0727,104.6475,1.29,112.15l-.0647.2723c-.7688,3.23-1.6389,6.8862-1.0075,10.76.0305.35.0559.7.0815,1.05.0679.9292.1382,1.89.2945,2.8847a23.1318,23.1318,0,0,0,6.728,13.4087c2.572,2.615,5.4092,5.27,9.3059,6.6189a21.958,21.958,0,0,0,9.6177,2.7537l.5009.0137.4073.0112c.8017.0727,1.6106.11,2.4062.11a27.75,27.75,0,0,0,11.94-2.8c7.1457-3.3879,11.9167-9.24,14.18-17.3936,3.3809-12.1762-4.3125-21.5161-13.75-24.5678a9.1673,9.1673,0,0,0-4.479-1.1455l-.7439-.001h-.6489c-.659,0-1.3174-.0012-1.9761-.0134l-.2258-.002a12.2835,12.2835,0,0,0-2.3924.2315,43.5218,43.5218,0,0,1,5.3316-1.3853l3.0637-.0039,3.0845-.0039.4907.1206c.6765.1672,1.3528.334,2.0322.489.104.0237.3255.0972.5034.1565a6.9361,6.9361,0,0,0,2.2112.4536,3.72,3.72,0,0,0,1.9851-.5456c.9287-.573,2.3374-1.938,1.4883-4.6888a3.77,3.77,0,0,0,1.7-2.8234,3.5109,3.5109,0,0,0-.1639-1.3492,3.5113,3.5113,0,0,0-2.8923-5.5923c-.0593,0-.1167.0013-.1719.0035a3.5831,3.5831,0,0,0-.2089-.3943,4.2831,4.2831,0,0,0-3.1311-1.8511l-.14-.0256a50.322,50.322,0,0,0-9.159-.823ZM19.9951,132.9365c-2.3-2.6264-3.2534-4.874-3.0881-7.2617.4748-6.8655,2.7429-12.2646,6.8957-16.356a3.5546,3.5546,0,0,0-.0923.4148,4.0738,4.0738,0,0,0,.8658,3.1136,6.0221,6.0221,0,0,1,.39.716,7.3558,7.3558,0,0,0,2.2378,2.91,4.2391,4.2391,0,0,0,2.8913,2.9749,3.6622,3.6622,0,0,0,3.5747,2.7341,5.1267,5.1267,0,0,0,2.1038-.4993,5.2119,5.2119,0,0,1,2.1074-.5024,4.2522,4.2522,0,0,1,2.1733.6362c-1.0271,2.794-3.0278,5.1809-6.27,7.4844a38.6634,38.6634,0,0,1-6.7481,2.8921l-.1032.0369c-.5608.0786-1.12.1648-1.68.2509a38.5811,38.5811,0,0,1-4.4433.5152c-.0813.0029-.1614.0046-.24.0046a1.5415,1.5415,0,0,1-.5745-.0647Z"/><path class="a" d="M100.5688,169.9336a1.9359,1.9359,0,0,1-.8542-.2051,1.8563,1.8563,0,0,1-.9048-2.3955c-.0173-.1582-.0354-.32-.0544-.4726a2.45,2.45,0,0,1-1.5218.6445,1.7619,1.7619,0,0,1-1.54-.9146,2.1048,2.1048,0,0,1-.0754-2.1577,3.0993,3.0993,0,0,1-2.25-1.3555c-.45-.663-.79-.7187-1.0735-.7187a4.5538,4.5538,0,0,0-1.5271.4131c-.05.0215-.1.0508-.1516.0791a2.7808,2.7808,0,0,1-1.3591.4136,2.0577,2.0577,0,0,1-1.438-.586,2.2576,2.2576,0,0,1-.2632-2.9165l.07-.14c.3581-.7842.6452-1.61.9492-2.4839a18.1353,18.1353,0,0,1,2.279-4.8828c.241-.5357.4744-1.0752.7078-1.6143a28.9335,28.9335,0,0,1,4.0359-7.2778,17.1011,17.1011,0,0,0,1.4392-2.2661A15.0652,15.0652,0,0,1,99.533,137.56a32.0665,32.0665,0,0,1,9.89-8.8848,23.8351,23.8351,0,0,1,13.6067-4.1909,27.6146,27.6146,0,0,1,3.55.2348,34.0731,34.0731,0,0,1,13.3513,4.6079c5.2659,2.9512,8.4729,6.7564,9.7593,11.607a26.3991,26.3991,0,0,1,1.45,12.31c-.0013.148.0141.3013.0266.4556a3.0671,3.0671,0,0,1-1.7793,3.49,4.7214,4.7214,0,0,1-1.7774.372,4.3678,4.3678,0,0,1-3.7214-2.312c-.1035-.16-.2056-.3218-.3069-.4834-.1011.4414-.2217.8721-.3408,1.2979-.1314.4687-.2664.9482-.3723,1.4487a1.5,1.5,0,0,1-2.4754.8,5.2286,5.2286,0,0,1-1.4912-2.877c-.0229-.0937-.0451-.185-.0674-.2719a4.2683,4.2683,0,0,0-.9917.2739,4.8216,4.8216,0,0,1-1.8379.5322,1.83,1.83,0,0,1-1.3674-.584,3.1612,3.1612,0,0,1-.4831-2.5532c.0153-.1816.0429-.3623.0722-.542l-.657-5.6186a4.1191,4.1191,0,0,0-.7338-2.0821,1.4859,1.4859,0,0,1-.1114-.1811,11.462,11.462,0,0,0-8.44-6.3208,4.1438,4.1438,0,0,0-1.9987,1.001,13.3184,13.3184,0,0,1-1.3.8559,70.8405,70.8405,0,0,0-7.42,7.4531,77.5858,77.5858,0,0,0-7.7624,12.4956c-.35.8267-.7219,1.6446-1.094,2.462a38.8077,38.8077,0,0,0-2.3022,5.8676C102.029,169.7188,101.094,169.9336,100.5688,169.9336Z"/><path class="b" d="M123.029,125.9844a25.942,25.942,0,0,1,3.3562.2224,32.5238,32.5238,0,0,1,12.7679,4.4031c4.3808,2.456,7.79,5.7319,9.105,10.778h0a24.807,24.807,0,0,1,1.3831,11.7513v0c-.0352.9646.4443,2.1455-.8206,2.6609a3.2161,3.2161,0,0,1-1.2117.261,2.9546,2.9546,0,0,1-2.4609-1.6248c-.4939-.7658-.9544-1.5544-1.4722-2.3034-.2451-.354-.478-.5269-.6926-.5269-.2522,0-.4785.2385-.6687.7012.1394,1.6633-.5474,3.1587-.9146,4.895-1.1811-1.0718-.8667-2.624-1.6442-3.6758a8.9208,8.9208,0,0,0-2.5113.5357,3.92,3.92,0,0,1-1.24.4079c-.43,0-.4465-.4365-.3559-1.5115.0181-.2133.06-.4253.0913-.6379q-.34-2.9113-.6809-5.8225a5.57,5.57,0,0,0-1.0037-2.78,13.005,13.005,0,0,0-9.6562-7.1345c-1.7752.0107-2.8694,1.3933-4.2854,2.1272a73.3427,73.3427,0,0,0-7.7088,7.7363,79.5031,79.5031,0,0,0-7.9587,12.8028h0a68.8971,68.8971,0,0,0-3.4874,8.5808c-.062.2287-.1215.6032-.3894.6032a.4515.4515,0,0,1-.195-.0527c-.3421-.167-.1509-.57-.0369-.8723l0-.0005c-.1883-1.7837-.2623-2.3376-.9249-2.3376a5.5672,5.5672,0,0,0-1.2409.2548h0c-.2849.1753-.6606.5794-.9377.5794a.263.263,0,0,1-.2356-.1555c-.4673-.8218.4438-1.2256.9546-1.7019.2305-.9075.0715-1.4371-.5994-1.4371a2.3484,2.3484,0,0,0-.7053.1341,2.13,2.13,0,0,1-.6575.1084,1.628,1.628,0,0,1-1.38-.7178,2.6908,2.6908,0,0,0-2.315-1.3767,5.6608,5.6608,0,0,0-2.1028.5278,2.81,2.81,0,0,1-.935.3777.57.57,0,0,1-.4048-.1731c-.4385-.4162-.0484-.9375.1382-1.3462,1.093-2.3933,1.5478-5.0666,3.1657-7.228,1.3562-2.9915,2.4576-6.1177,4.5962-8.6956,1.4556-1.8122,2.1812-4.1191,3.8977-5.7546a30.28,30.28,0,0,1,9.5481-8.6047,22.3145,22.3145,0,0,1,12.8308-3.9773m0-3a25.3038,25.3038,0,0,0-14.3815,4.4043A33.4248,33.4248,0,0,0,98.4111,136.56a16.7478,16.7478,0,0,0-2.6792,3.7981,16.01,16.01,0,0,1-1.3183,2.0847,30.0651,30.0651,0,0,0-4.2281,7.6023c-.2111.488-.4221.9761-.6391,1.4609a20.0037,20.0037,0,0,0-2.3882,5.14c-.292.84-.5679,1.6328-.8967,2.3525l-.04.0791a3.7113,3.7113,0,0,0,.5657,4.6892,3.5788,3.5788,0,0,0,2.47.9973,4.27,4.27,0,0,0,2.0735-.5945l.0617-.0332a5.22,5.22,0,0,1,.7144-.2466l.02.0293a4.62,4.62,0,0,0,1.73,1.5247,3.99,3.99,0,0,0,.5325,1.8887,3.2445,3.2445,0,0,0,2.8435,1.6726c.0276,0,.0549,0,.082-.0012a3.4,3.4,0,0,0,3.2534,2.43,3.3684,3.3684,0,0,0,3.2771-2.7871,37.6539,37.6539,0,0,1,2.2268-5.6684c.36-.791.7317-1.6077,1.0845-2.4385a76.0937,76.0937,0,0,1,7.586-12.2136,68.6724,68.6724,0,0,1,7.1262-7.1587c.4853-.2822.9082-.5857,1.29-.86a5.8663,5.8663,0,0,1,1.1038-.6921,10.0174,10.0174,0,0,1,7.1286,5.4848,3.008,3.008,0,0,0,.2232.3641,2.5808,2.5808,0,0,1,.4563,1.3147c.0022.0224.0044.0451.0071.0678l.0869.7417.5464,4.6734c-.022.1477-.0408.2956-.0533.4438a4.493,4.493,0,0,0,.8736,3.6958,3.3129,3.3129,0,0,0,2.4716,1.0686,4.93,4.93,0,0,0,1.815-.3979,5.9017,5.9017,0,0,0,1.5652,2.3518,3,3,0,0,0,4.9253-1.49,5.3523,5.3523,0,0,0,3.3,1.1277,6.2055,6.2055,0,0,0,2.3433-.4827c1.9993-.8144,2.91-2.4966,2.7085-5-.0071-.0877-.0171-.1751-.02-.26a27.8833,27.8833,0,0,0-1.5191-12.8386c-1.404-5.2163-4.8261-9.2942-10.457-12.4622a35.5669,35.5669,0,0,0-13.8914-4.7859,29.0819,29.0819,0,0,0-3.7439-.2475Z"/><path class="a" d="M62,65.252a18.8165,18.8165,0,0,1-8.0816-1.8873,22.94,22.94,0,0,1-12.99-13.73,4.7949,4.7949,0,0,1-.2234-1.7129c0-.1016.001-.2026-.0012-.3032a4.0715,4.0715,0,0,1-.13-.7232,11.3972,11.3972,0,0,1,.1677-5.1035A12.6792,12.6792,0,0,1,42.0684,36.94a20.9679,20.9679,0,0,1,3.71-6.7939,19.1442,19.1442,0,0,1,4.657-5.2842,6.3774,6.3774,0,0,1,4.156-1.5644,7.626,7.626,0,0,1,3.19.7519l.1419.0654A12.418,12.418,0,0,1,61.8,26.5493a26.9377,26.9377,0,0,1,7.0818,6.1387,1.49,1.49,0,0,1,.2236.4463,8.6016,8.6016,0,0,1-1.17,6.6489,8.315,8.315,0,0,1-5.1543,4.1445,3.6089,3.6089,0,0,1-.7275.0767,3.9536,3.9536,0,0,1-3.2144-2.0972l-.0613-.0849a2.2633,2.2633,0,0,0-.3623-.1983,10.9488,10.9488,0,0,0-1.1045,1.542,16.6591,16.6591,0,0,1-1.0622,1.5381l-.1721.49a18.1088,18.1088,0,0,0-1.29,5.2027c-.0039.0893-.0092.2221-.0092.3379a8.652,8.652,0,0,0,1.1564.0786,13.3771,13.3771,0,0,0,6.9847-2.5069c.6438-.4062,1.2624-.8579,1.9174-1.3364.2908-.2119.5813-.4243.8743-.6328A31.7014,31.7014,0,0,0,73.831,36.894a32.3335,32.3335,0,0,0,4.0572-12.1733l.0088-.12a2.969,2.969,0,0,1,1.0991-2.2647,1.5,1.5,0,0,1,2.2966.46c.2451.4741.5147.93.782,1.3828a14.22,14.22,0,0,1,1.7119,3.6919l.8186.7251c.3313.2856.6892.5776,1.0479.8711,1.9363,1.581,4.1306,3.3735,4.7336,6.3657A15.58,15.58,0,0,1,88.48,46.438,40.3734,40.3734,0,0,1,75.5264,60.6753a5.0141,5.0141,0,0,1-1.11.5361c-.073.0274-.146.0547-.2181.0835C69.9341,63.9575,65.9429,65.252,62,65.252Z"/><path class="b" d="M79.96,23.4861c.8979,1.7363,2.0984,3.241,2.47,5.1877-.0718-.0586-.1289-.0969-.1963-.15a.6557.6557,0,0,0,.1963.15q.59.5226,1.18,1.0452c2.1341,1.8428,4.71,3.4507,5.306,6.4109a14.2073,14.2073,0,0,1-1.7579,9.5976,38.7467,38.7467,0,0,1-12.48,13.71,6.9066,6.9066,0,0,1-1.173.5212A21.6734,21.6734,0,0,1,62,63.752a17.2147,17.2147,0,0,1-7.44-1.7435A21.4541,21.4541,0,0,1,42.3367,49.1179a6.6229,6.6229,0,0,1-.1441-1.7656,2.469,2.469,0,0,1-.1316-.6655,9.87,9.87,0,0,1,.1621-4.6287,11.3179,11.3179,0,0,1,1.25-4.5632,19.4765,19.4765,0,0,1,3.5733-6.542l.0012-.001a17.3343,17.3343,0,0,1,4.3472-4.9368,4.8992,4.8992,0,0,1,3.1965-1.2175,6.1308,6.1308,0,0,1,2.5623.6143,11.0952,11.0952,0,0,1,3.6733,2.29c2.5041,1.6976,5.0208,3.3807,6.8442,5.8719.9839,3.2092-1.9033,8.2-5.196,8.8847a2.06,2.06,0,0,1-.4226.0457c-1.08,0-1.6179-.9688-2.2124-1.7722v0a2.9148,2.9148,0,0,0-1.6814-.6673,2.0244,2.0244,0,0,0-.291.021l-.0127.0052c-1.2844,1.0549-1.8767,2.635-2.9331,3.8628l-.0005,0a22.4286,22.4286,0,0,0-1.6341,6.3809c-.03.7219-.05,1.42.7386,1.7966a10.1518,10.1518,0,0,0,1.9077.1824,14.66,14.66,0,0,0,7.7847-2.7383c1.0007-.6314,1.9389-1.3618,2.9062-2.0471v0a33.4436,33.4436,0,0,0,8.531-9.93,33.9432,33.9432,0,0,0,4.2258-12.7348,1.6211,1.6211,0,0,1,.5789-1.3772m0-3a3,3,0,0,0-1.9282.7016A4.4534,4.4534,0,0,0,76.4,24.5012l-.0056.0777A30.4816,30.4816,0,0,1,72.5066,36.19a25.7068,25.7068,0,0,1-4.1834,5.6858,12.6721,12.6721,0,0,0,.9029-1.3289,9.9687,9.9687,0,0,0,1.3132-7.852,3.0024,3.0024,0,0,0-.4473-.8926,27.7279,27.7279,0,0,0-7.3313-6.4133,13.8747,13.8747,0,0,0-4.2124-2.6375l-.1394-.0639a9.1117,9.1117,0,0,0-3.8176-.89,7.9434,7.9434,0,0,0-5.115,1.9113,20.6281,20.6281,0,0,0-4.96,5.6221,22.6024,22.6024,0,0,0-3.8506,7.0562,14.14,14.14,0,0,0-1.406,5.1416,12.886,12.886,0,0,0-.1721,5.5808,5.6824,5.6824,0,0,0,.1179.707l-.0005.1018A6.2165,6.2165,0,0,0,39.52,50.15,24.4218,24.4218,0,0,0,53.3325,64.7468,20.2906,20.2906,0,0,0,62,66.752c4.1941,0,8.4067-1.3445,12.8708-4.1092l.0723-.0268a6.3539,6.3539,0,0,0,1.4312-.7036,41.8484,41.8484,0,0,0,13.4262-14.764,17.0343,17.0343,0,0,0,2.0567-11.6106c-.7088-3.518-3.2288-5.5766-5.2537-7.2309-.3486-.2847-.6965-.5684-1.0325-.8584l-.4621-.41a16.8469,16.8469,0,0,0-1.7427-3.6218c-.2683-.4548-.5217-.8843-.7412-1.3091A2.9986,2.9986,0,0,0,79.96,20.4861ZM57.5815,45.4338c.385-.5039.7049-1.0068.9954-1.4638l.0017-.003a4.7377,4.7377,0,0,0,3.4739,1.5374,5.0875,5.0875,0,0,0,1.0334-.1084A7.9846,7.9846,0,0,0,66.0234,44.09q-.5914.5267-1.23,1.0583c-.2822.2012-.5625.4058-.8425.61-.6341.4629-1.2329.9-1.8338,1.279a12.4007,12.4007,0,0,1-5.6987,2.2591A24.1474,24.1474,0,0,1,57.49,45.696l.092-.2622Z"/><path class="a" d="M192.7969,118.5547a10.0439,10.0439,0,0,1-2.1116-.2114c-.0391.0009-.0779.0009-.1169.0009a8.331,8.331,0,0,1-3.0684-.687,32.656,32.656,0,0,1-12.3833-4.7041,14.21,14.21,0,0,1-4.8379-3.99c-.2646-.2964-.529-.5928-.7988-.8833-3.53-3.9859-4.3169-8.7334-4.6106-12.4273-.2446-3.081-.2356-7.0761,2.0241-10.6562l.1631-.26a8.5057,8.5057,0,0,1,3.3536-3.5054,9.25,9.25,0,0,1,5.6435-2.3466,7.038,7.038,0,0,1,1.866.2583,1.51,1.51,0,0,1,.4675.2216c.0007-.0078.02-.0112.05-.0112a1.0852,1.0852,0,0,1,.1391.0122,3.1291,3.1291,0,0,1,1.6231.6211,53.5694,53.5694,0,0,1,12.7724,7.5337,10.296,10.296,0,0,1,2.33,1.9365,2.8418,2.8418,0,0,1,.2873-.6045,3.633,3.633,0,0,1,2.6072-1.51l-.0286-.01a1.5,1.5,0,0,1-.0969-2.81,7.7016,7.7016,0,0,1,2.9434-.5953,10.1775,10.1775,0,0,1,5.3225,1.7271c.8117.4912,1.5654,1.0435,2.2942,1.5776.2981.2188.5962.437.8974.65,3.0657,1.8032,3.6629,4.9839,3.84,7.5591a22.7161,22.7161,0,0,1-4.771,15.8838,3.02,3.02,0,0,1-.782.6792l-.0607.0391c-.3091.3149-.607.666-.9207,1.0356a9.5808,9.5808,0,0,1-3.37,2.8545,3.2362,3.2362,0,0,0-.2944.1611,3.7333,3.7333,0,0,1-1.4817.5606,10.9249,10.9249,0,0,1-5.74,1.68q-.2487,0-.5-.0122A17.7089,17.7089,0,0,1,192.7969,118.5547Zm-9.9317-9.9468a1.6121,1.6121,0,0,0,1.7019,1.2207,4.1,4.1,0,0,0,.5181-.0356l.0244-.0034a13.6139,13.6139,0,0,0,8.5955-3.9117,5.33,5.33,0,0,1-2.8072.7217c-.1084,0-.5859-.0156-.7146-.0156a8.0329,8.0329,0,0,0-2.7307.4629,4.39,4.39,0,0,1-2.5915,1.1289,2.6259,2.6259,0,0,1-1.3347.3364c-.1468,0-.295-.01-.4434-.0205-.0718-.0054-.1436-.0122-.2146-.0122l-.0542.0088C182.8323,108.5269,182.8494,108.5664,182.8652,108.6079Z"/><path class="b" d="M176.0535,80.3845a5.4855,5.4855,0,0,1,1.4675.2049v0c.5591.3951,1.3662.1163,1.86.6863a52.4891,52.4891,0,0,1,12.7454,7.4871c5.4365,3.2253,6.1687,11.7927,1.32,15.4394h-.0007a3.579,3.579,0,0,1-2.5477.8968q-.1311,0-.2629-.0056-.2271-.01-.4517-.01a9.5511,9.5511,0,0,0-3.5954.6863,3.0753,3.0753,0,0,1-2.2869.9614,1.0332,1.0332,0,0,1-.7744.2806c-.22,0-.4448-.0333-.6648-.0333a1.6514,1.6514,0,0,0-.1811.0091c-.91.1941-2.45-.2237-1.6133,1.6633a2.1382,2.1382,0,0,1,.3994.499,3.0819,3.0819,0,0,0,3.1,2.178,5.5235,5.5235,0,0,0,.7114-.0483q-.1933.0666-.3867.1328a.6844.6844,0,0,0,.3867-.1328c5.3174-.6133,9.4859-3.0672,12.0034-7.8638a11.2068,11.2068,0,0,0,.16-10.5044c-.0942-.1958-.1931-.3892-.2854-.5857-1.136-2.4228-.4065-3.5522,2.31-3.5757q.1764-.0014.353-.0012c.2619,0,.5242.0017.7861.002-.1848.0615-.37.124-.5547.185h.0071a.7466.7466,0,0,0,.5476-.185,2.167,2.167,0,0,1,.2219-.0115,2.265,2.265,0,0,1,1.7366.92,5.2107,5.2107,0,0,0,.7449.1851.2628.2628,0,0,0,.1489-.0379c.3628-.2427.0056-.5637-.1528-.8091-.2591-.4013-.56-.7751-.8438-1.1606v0a9.797,9.797,0,0,0-3.8193-1.9277,6.1646,6.1646,0,0,1,2.3723-.4827A8.87,8.87,0,0,1,205.56,86.938c1.0962.6631,2.1069,1.4673,3.156,2.2075,2.4768,1.4253,2.9876,3.9556,3.155,6.3982a21.263,21.263,0,0,1-4.4616,14.8647,3.1378,3.1378,0,0,1-.6284.4864c-1.2732,1.2607-2.1949,2.8982-3.9273,3.6684a3.7232,3.7232,0,0,1-1.477.61,1.2574,1.2574,0,0,1-.1341-.0073,9.6939,9.6939,0,0,1-5.2959,1.6694c-.1889,0-.38-.0061-.5725-.0183.0706-.0437.1485-.0916.2234-.1377a.444.444,0,0,0-.2234.1377,16.868,16.868,0,0,1-2.5776.2375,8.4846,8.4846,0,0,1-1.9727-.2175l0,0c-.0861.0051-.1713.0075-.2563.0075a7.2592,7.2592,0,0,1-2.6882-.6506A31.2719,31.2719,0,0,1,175.8,111.6145h0c-2.2361-.95-3.64-2.8538-5.2209-4.5552v0c-2.9126-3.2891-3.88-7.3242-4.2142-11.5252-.2675-3.3689-.1-6.7307,1.7972-9.7368.81-1.2827,1.5651-2.6118,3.0373-3.2793a8.0443,8.0443,0,0,1,4.8543-2.1333m0-3h0a10.6088,10.6088,0,0,0-6.4436,2.5711,9.9824,9.9824,0,0,0-3.8235,3.9831l-.1614.2569c-2.4959,3.9543-2.5139,8.2634-2.2507,11.5759.2878,3.6206,1.115,8.936,4.9587,13.2764.0156.018.0317.0356.0479.0529.2631.2832.521.5725.7788.8616a15.753,15.753,0,0,0,5.2675,4.3259,34.8951,34.8951,0,0,0,12.6956,4.8308,9.5483,9.5483,0,0,0,3.416.7251,11.62,11.62,0,0,0,2.2576.21,19.039,19.039,0,0,0,2.73-.2265q.2112.0074.42.0073a12.4758,12.4758,0,0,0,6.2542-1.7432,5.42,5.42,0,0,0,1.72-.7c.0562-.0327.1114-.0671.1688-.0957a10.9425,10.9425,0,0,0,3.8869-3.2468c.2566-.3025.502-.5913.74-.8435a4.3306,4.3306,0,0,0,1.0669-.9639,24.1763,24.1763,0,0,0,5.0806-16.9043c-.1182-1.7226-.4295-6.2685-4.5176-8.7141-.2781-.1977-.5535-.4-.8291-.6018-.7551-.5534-1.5359-1.1257-2.4046-1.6511a11.59,11.59,0,0,0-6.0986-1.9439,9.1937,9.1937,0,0,0-3.5149.7088,3.0006,3.0006,0,0,0-1.7641,3.5171,4.4779,4.4779,0,0,0-.6739.509,11.647,11.647,0,0,0-1.2407-.8806,55.1735,55.1735,0,0,0-12.88-7.6135,4.717,4.717,0,0,0-2.1206-.7825,3.0194,3.0194,0,0,0-.4985-.187,8.5113,8.5113,0,0,0-2.2678-.314Z"/><path class="a" d="M92.4783,114.0513c-6.2044,0-12.2027-2.7276-14.9261-6.7862l-.9111-1.354c-4.1724-6.05-5.8288-12.0337-5.0544-18.2783a15.99,15.99,0,0,1,4.9568-9.3935A22.4955,22.4955,0,0,1,83.105,72.52a20.8618,20.8618,0,0,1,7.2807-3.7143,26.5643,26.5643,0,0,1,9.6529-2.5284,31.9324,31.9324,0,0,1,6.4643-.66,39.9279,39.9279,0,0,1,14.5137,2.9546c10.8755,4.2026,19.1728,11.8359,25.3662,23.3374.4419.82.7993,1.6567,1.178,2.5415.1753.4106.3569.8349.5554,1.2768a1.5,1.5,0,0,1-1.6558,2.0869,3.3473,3.3473,0,0,1-2.2041-1.52c-.0444-.063-.0866-.125-.1335-.1811-7.05-8.5-15.0247-13.8325-24.3789-16.3023a32.822,32.822,0,0,0-8.3735-1.0874,35.6045,35.6045,0,0,0-6.6939.6529,3.285,3.285,0,0,1,.38.4673,6.5205,6.5205,0,0,1,1.7278,1.9213l.1045.1558a21.2229,21.2229,0,0,1,5.5583,14.2021c.7866,6.5572-3.1843,10.5513-6.2463,12.9878a23.5391,23.5391,0,0,1-7.2073,3.7408A17.1951,17.1951,0,0,1,92.4783,114.0513Z"/><path class="b" d="M106.5029,67.1177a38.6914,38.6914,0,0,1,13.9729,2.854c11.1546,4.31,18.9993,12.2737,24.5862,22.6489.6091,1.1314,1.0671,2.3445,1.6858,3.7222-.8982-.1753-1.1243-.77-1.4707-1.1875-6.7163-8.0972-14.8477-14.074-25.15-16.7947a34.145,34.145,0,0,0-8.7561-1.137,37.1125,37.1125,0,0,0-7.5149.7869,1.6911,1.6911,0,0,1-.34.0269c-.0647,0-.13-.0015-.1946-.0015-.0354,0-.071.0005-.1064.0017h-.0005q-.7739.264-1.5474.5278l0,0c-.2994.6992.1447.9592.6872,1.1538a2.5071,2.5071,0,0,1,1.5994,1.2087,5.1933,5.1933,0,0,1,1.7492,1.9158l0,0a19.6918,19.6918,0,0,1,5.2468,13.38l0,0c.6465,5.1353-1.9424,8.7366-5.6819,11.7127a22.3718,22.3718,0,0,1-6.761,3.4956,15.7515,15.7515,0,0,1-6.0281,1.1181c-5.43,0-11.1374-2.3322-13.68-6.122q-.4563-.6779-.9126-1.3558c-3.5859-5.2-5.6008-10.8781-4.81-17.2558a14.5438,14.5438,0,0,1,4.5832-8.5711l.0005,0a21.0264,21.0264,0,0,1,6.2539-5.4585,19.1325,19.1325,0,0,1,6.9822-3.561v0a25.2352,25.2352,0,0,1,9.3569-2.4612,30.2736,30.2736,0,0,1,6.251-.6474M92.0715,92.8169l-.0327-.0129a1.5479,1.5479,0,0,1-.6611.6738,5.7335,5.7335,0,0,0-1.3967,1.2048h.0153a1.5012,1.5012,0,0,1,.9751.3548,5.584,5.584,0,0,1,.35.4963l2.657-.0374a8.8437,8.8437,0,0,0,3.9631-2.6345c-.5818-.4309-.38-.9814-.2666-1.5188a4.8779,4.8779,0,0,1-1.7039.4751,38.8453,38.8453,0,0,1-3.9.9988M82.26,98.021c-.2292-.62-.8657-1.08-1.1-1.7a3.3664,3.3664,0,0,1-.4206-1.2851,6.381,6.381,0,0,0-.4109,1.021c.6189.115.94.7114,1.3369,1.1794.2124.25.4.52.5942.7847m24.2434-33.9033a33.4524,33.4524,0,0,0-6.6772.6721,28.039,28.039,0,0,0-9.9519,2.5972,22.2911,22.2911,0,0,0-7.5786,3.8672,23.9514,23.9514,0,0,0-6.8667,5.979,17.4154,17.4154,0,0,0-5.3306,10.215c-.8213,6.6255.918,12.9478,5.3176,19.3282l.5987.8894.2949.4384c2.9875,4.4527,9.4863,7.4468,16.1689,7.4468a18.6283,18.6283,0,0,0,7.0908-1.3113,24.8742,24.8742,0,0,0,7.5664-3.955c5.209-4.1455,7.4383-8.8123,6.8113-14.2605a22.6674,22.6674,0,0,0-5.8689-15.0235l-.0444-.0664c-.105-.1574-.2175-.3261-.3406-.501a32.9464,32.9464,0,0,1,3.678-.21,31.31,31.31,0,0,1,7.99,1.0376c9.0418,2.3877,16.764,7.5591,23.6072,15.8094.0161.0212.04.0568.0659.093a4.8261,4.8261,0,0,0,3.1392,2.1235,3,3,0,0,0,3.3115-4.1733c-.1946-.4329-.3723-.8489-.5442-1.2508-.3923-.9174-.7629-1.7841-1.237-2.6645-6.37-11.8294-14.9224-19.688-26.1463-24.0252a41.3918,41.3918,0,0,0-15.0542-3.0556Z"/></svg>