<svg xmlns="http://www.w3.org/2000/svg" viewBox="0 0 197.7779 266.8738"><defs><style>.a{fill:#fff;stroke:#e20c16;stroke-linecap:round;stroke-linejoin:round;stroke-width:3px;}.b{font-size:26px;fill:#606060;font-family:Lato-Italic, Lato;font-style:italic;}</style></defs><title>viruta_1</title><path class="a" d="M123.5618,33.48c-1.2984.8186-.7092,1.5063-.0352,2.2786a7.0484,7.0484,0,0,0,1.6872,1.71h0a18.0753,18.0753,0,0,0,6.6925,4.2562,30.5679,30.5679,0,0,0,13.41,2.659c-.3979-.5927.1041-.3076.3142-.3287,1.9488-.1959,3.921-.0511,5.856-.3946.1173.37.3885.3319,1.5245.16a17.6129,17.6129,0,0,0,7.8036-3.08,11.7679,11.7679,0,0,0,5.2068-7.5339c.0105-.1976.0258-.3964.0422-.5955-.01.1976-.02.3949-.0422.5955.6158-2.5968.1329-5.2786.61-7.8862v0c.8058-2.9649.5069-6.014.688-9.0266a5.9086,5.9086,0,0,0-1.45-4.1818c-2.7213-3.3844-5.7893-6.31-9.97-7.8276a17.5817,17.5817,0,0,0-6.5805-2.152c-2.0887-.8-4.2632-.6389-6.4288-.5748A20.1424,20.1424,0,0,0,130.9861,5.14c-3.5281,1.662-4.6587,4.94-5.5958,8.3373a1.0293,1.0293,0,0,0,.4819,1.181c.4706.2939.8669.0565,1.228-.25a47.9853,47.9853,0,0,1,5.4811-3.7295h0a30.05,30.05,0,0,1,12.75-2.1226h0a5.6088,5.6088,0,0,1,.88.2233c.4835.2065,1.2471.1923,1.31.8017.0492.4762-.5575.7869-.9691,1.08q-1.6656,1.1869-3.3317,2.3721c-.3127.2219-.8745.3325-.6953.8357.1488.4177.6732.38,1.0722.4.9586.0482,1.9184.0765,2.8778.1129h0a44.1076,44.1076,0,0,1,8.8689,2.9441h0c1.6.94,3.202,1.8769,4.7983,2.8236.5378.3189,1.0668.6733.7089,1.43-.4708.9958.0966,1.6248.759,2.2185.6089.5456,1.2458,1.0677.9826,2.0309a18.7033,18.7033,0,0,1-9.9865,5.8256c-.6508.0338-1.3025.0551-1.952.1033a45.976,45.976,0,0,1-12.0178-.4326c-6.544-1.75-11.78-5.2681-15.1976-11.2443A46.39,46.39,0,0,1,121.206,13.89c-.1975.3-.2876.3728-.2892.4479a45.6487,45.6487,0,0,0,2.7118,17.2183C123.872,32.2091,124.3313,32.995,123.5618,33.48Z"/><path class="a" d="M36.6559,99.4182a5.7387,5.7387,0,0,0-3.0478-.8451c-1.0609-.0037-2.1218.0057-3.1824-.0137a10.4118,10.4118,0,0,0-6.3126,2.2428c-.5537.3942-.784.7086-.2394,1.4527.784,1.0709.9683,2.5838,2.49,3.0973.18.0608.279.5255.3161.8156.1313,1.0279.7483,1.36,1.6978,1.2693h0a1.5769,1.5769,0,0,1,1.0087,1.367c.0261,1.1685.7,1.1566,1.5293.7861a6.9626,6.9626,0,0,1,7.8281,1.1741,2.345,2.345,0,0,1,.0334,2.173c-1.29,3.7562-3.8913,6.4285-7.0492,8.6547a39.9532,39.9532,0,0,1-7.2454,3.1159c-2.0884.2807-4.1537.7011-6.2757.7781a3.6511,3.6511,0,0,1-2.7866-.8073v0c-2.2964-2.5681-3.9866-5.4875-3.7431-9.0064.6159-8.9018,4.3049-16.0924,12.1637-20.82,2.7463-1.6522,5.8022-2.3066,8.8691-2.9624l6.3664-.0083c.8785.2139,1.7548.4377,2.6365.6387.7781.1774,1.7978.7113,2.2907.4071.837-.5165-.272-1.5535.0261-2.3838a1.1677,1.1677,0,0,0-.0339-.45,2.8151,2.8151,0,0,1,1.1338-1.372c.6218-.3433.7375-.8225.1111-1.3011-.9675-.7392-.5674-1.2146.279-1.6521.3067-.1585.7135-.3895.6-.7761-.15-.51-.6589-.3431-1.0442-.312-.4022.0325-.7991.1285-1.201.1637-.7327.0641-1.271-.1741-1.0173-1.0176.3479-1.1565-.349-1.2044-1.1766-1.3581a45.7618,45.7618,0,0,0-11.9363-.566c-5.8921.4571-11.4246,2.0549-16.1912,5.7455A28.6113,28.6113,0,0,0,2.6283,103.9031c-.72,3.0285-1.4889,6.1032-.9443,9.2835h0c.1084,1.1969.1509,2.404.3371,3.5887a18.7184,18.7184,0,0,0,5.4774,10.947v0h0c2.28,2.32,4.6315,4.5393,7.8227,5.5827l0,0a17.9349,17.9349,0,0,0,7.9532,2.3475h0l.9121.0248h0a22.5471,22.5471,0,0,0,12.0085-2.2412C42.4269,130.4816,46.0965,125.56,47.9177,119,50.59,109.3759,44.5239,101.8245,36.6559,99.4182Zm-34.831,14.04c-.0462-.0909-.0949-.18-.1407-.2715A.4157.4157,0,0,1,1.8249,113.4584Zm21.2072,22.0763a.5127.5127,0,0,1,.2416.1178Z"/><path class="a" d="M101.4387,119.8616h0a28.2314,28.2314,0,0,0-8.9013,8.0219c-1.6,1.5247-2.2768,3.6752-3.6336,5.3648-1.9938,2.4033-3.02,5.3177-4.2848,8.1064-1.5084,2.015-1.9324,4.5074-2.9513,6.7386-.1741.381-.5378.8668-.1289,1.2549s.853-.0265,1.2491-.1907c1.552-.6449,2.9717-.8994,4.1184.7915a1.6025,1.6025,0,0,0,1.9.5679c1.1681-.3791,1.493.1263,1.2165,1.2147-.4762.4442-1.3256.8206-.89,1.5866.2374.4174.74-.1774,1.0941-.395h0c1.7347-.47,1.7682-.438,2.0191,1.9416v.0006c-.1063.2818-.2845.6574.0344.813.4085.2.4749-.2558.5448-.5131a64.2584,64.2584,0,0,1,3.251-8h0a74.1334,74.1334,0,0,1,7.42-11.9353,68.3651,68.3651,0,0,1,7.1866-7.2123c1.32-.6842,2.34-1.9732,3.9951-1.9831h0a12.1245,12.1245,0,0,1,9.0023,6.6512,5.1961,5.1961,0,0,1,.9356,2.5919q.3174,2.7143.6347,5.4281c-.029.1983-.0683.3958-.0852.5949-.1336,1.5888-.0159,1.6812,1.4884,1.0285a8.3264,8.3264,0,0,1,2.3412-.4993c.7248.9806.4317,2.4277,1.5328,3.4267.3424-1.6185.9826-3.0125.8526-4.5632.3279-.7982.7723-.8808,1.2691-.1626.4829.6984.9121,1.4335,1.3725,2.1474.8956,1.3888,2.0067,1.8486,3.4238,1.2713,1.1792-.48.7323-1.5813.765-2.4806v0a23.1239,23.1239,0,0,0-1.2894-10.9552h0c-1.2258-4.7044-4.4043-7.7583-8.4883-10.048a30.3242,30.3242,0,0,0-11.903-4.1048,21.1281,21.1281,0,0,0-15.0905,3.5006Z"/><path class="a" d="M81.5982,32.3858c-.5558-2.76-2.9569-4.2587-4.9463-5.9766q-.55-.4872-1.1-.9745a.6128.6128,0,0,1-.183-.14c.063.05.1163.0856.183.14-.3463-1.8148-1.4655-3.2175-2.3026-4.8363a1.5117,1.5117,0,0,0-.54,1.2841A31.6425,31.6425,0,0,1,68.77,33.7546a31.1782,31.1782,0,0,1-7.9532,9.2571h0c-.9016.6389-1.7763,1.32-2.7094,1.9086-2.7568,1.7389-5.6442,3.03-9.0357,2.3828-.7348-.3512-.7167-1.002-.6885-1.6751A20.9043,20.9043,0,0,1,49.9063,39.68l0,0c.985-1.1445,1.5371-2.6177,2.7344-3.6011l.0118-.0049a2.4991,2.4991,0,0,1,1.839.6026v0c.6221.8408,1.1771,1.8756,2.4565,1.61,3.07-.6382,5.7612-5.291,4.844-8.283h0a24.3462,24.3462,0,0,0-6.3806-5.474,10.3458,10.3458,0,0,0-3.4245-2.1353,4.7458,4.7458,0,0,0-5.3687.5626,16.154,16.154,0,0,0-4.0528,4.6023l-.0011.0009a18.1554,18.1554,0,0,0-3.3311,6.0989,10.5473,10.5473,0,0,0-1.1653,4.254,9.2006,9.2006,0,0,0-.1512,4.3152,2.3,2.3,0,0,0,.1227.62,6.1764,6.1764,0,0,0,.1342,1.6461,20.0013,20.0013,0,0,0,11.395,12.0174h0c6.2781,2.969,12.0859,1.5971,17.6629-1.9113a6.4334,6.4334,0,0,0,1.0937-.4858A36.1242,36.1242,0,0,0,79.96,41.3334,13.2448,13.2448,0,0,0,81.5982,32.3858Z"/><path class="a" d="M196.2243,87.7751c-.1563-2.2772-.6323-4.6361-2.9413-5.9649-.978-.69-1.92-1.44-2.9424-2.0579-2.001-1.2105-4.1055-1.924-6.4495-.9586a9.1379,9.1379,0,0,1,3.5607,1.7973h0c.2642.3594.5451.7079.7864,1.0821.1477.2287.4808.528.1426.7543-.1709.1142-.5489-.0817-.8333-.1373a2.0557,2.0557,0,0,0-1.8258-.8473.7006.7006,0,0,1-.5171.1726c.1725-.057.3447-.1152.5171-.1727-.354,0-.7081-.0037-1.0619-.0006-2.5326.0219-3.2128,1.0746-2.1538,3.3334.0861.1833.1784.3635.2661.546a10.4475,10.4475,0,0,1-.1488,9.793c-2.347,4.4717-6.2332,6.7593-11.19,7.3311a.6384.6384,0,0,1-.3606.1238l.3606-.1238A2.9889,2.9889,0,0,1,167.88,100.46a1.9918,1.9918,0,0,0-.3724-.4651h0c-.7795-1.7591.6562-1.37,1.504-1.5506.5074-.0552,1.063.1945,1.5105-.2391a2.8669,2.8669,0,0,0,2.132-.8962,8.9731,8.9731,0,0,1,3.7729-.631,3.4555,3.4555,0,0,0,2.62-.8306h.0006c4.5206-3.4,3.838-11.3868-1.23-14.3935a48.9334,48.9334,0,0,0-11.882-6.98c-.4606-.5316-1.2132-.2714-1.7344-.64v-.0005c-2.3445-.6466-4.1579.4477-5.8936,1.7977a7.0258,7.0258,0,0,0-2.8315,3.0573c-1.769,2.8024-1.9248,5.9366-1.6754,9.0773.3113,3.9163,1.2134,7.6781,3.9287,10.7443v0c1.4736,1.5862,2.7826,3.361,4.8672,4.2465h0a29.1532,29.1532,0,0,0,11.26,4.2691,6.3527,6.3527,0,0,0,2.7452.5995h0a10.907,10.907,0,0,0,4.2422-.0186.4137.4137,0,0,1,.2082-.1284c-.07.0431-.1426.0877-.2082.1284a8.8972,8.8972,0,0,0,5.4709-1.5393c.5946.0641,1.0125-.3441,1.5019-.5618,1.6151-.718,2.4742-2.2444,3.6613-3.42a2.9232,2.9232,0,0,0,.5857-.4534A19.8232,19.8232,0,0,0,196.2243,87.7751Z"/><path class="a" d="M71.1031,72.5816A13.5588,13.5588,0,0,0,66.83,80.5721c-.7371,5.9455,1.1412,11.239,4.4843,16.087q.4257.632.8508,1.2639c3.2962,4.9127,12.2952,7.1975,18.3733,4.665a20.8552,20.8552,0,0,0,6.303-3.259c3.4861-2.7743,5.9-6.1319,5.2969-10.9192l0,0A18.3574,18.3574,0,0,0,97.247,75.9359v0a4.8408,4.8408,0,0,0-1.6308-1.786,2.3374,2.3374,0,0,0-1.4911-1.1269c-.5057-.1814-.92-.4238-.6405-1.0756l0,0q.7216-.246,1.4426-.4921h.0006a3.6134,3.6134,0,0,0,.5976-.0254,32.73,32.73,0,0,1,15.1688.3265c9.6048,2.5364,17.1855,8.1082,23.4469,15.657.3228.389.5336.9437,1.371,1.1071-.5769-1.2843-1.0038-2.4153-1.5717-3.47-5.2085-9.6724-12.5217-17.0964-22.9208-21.1147-6.0833-2.3507-12.3453-3.4259-18.8539-2.057a23.5209,23.5209,0,0,0-8.7232,2.2945h0a17.8364,17.8364,0,0,0-6.5091,3.32,19.6068,19.6068,0,0,0-5.83,5.0887ZM86.318,87.7308l-2.4772.0348a5.2165,5.2165,0,0,0-.3264-.4625,1.4,1.4,0,0,0-.9234-.3309,5.3439,5.3439,0,0,1,1.3019-1.1232,1.4428,1.4428,0,0,0,.6165-.6281l.0305.0121a36.2167,36.2167,0,0,0,3.6357-.9313,4.5385,4.5385,0,0,0,1.5883-.4428c-.1054.5008-.2937,1.0142.2486,1.416A8.2439,8.2439,0,0,1,86.318,87.7308Zm-11.48,1.6222c-.37-.4363-.6693-.9923-1.2463-1.0995a5.9352,5.9352,0,0,1,.3831-.9518A3.1384,3.1384,0,0,0,74.3674,88.5c.218.5782.8114,1.0066,1.0252,1.5847C75.2115,89.8377,75.0364,89.5862,74.8385,89.353Z"/><text class="b" transform="translate(21.9238 228.6927)">Fibras gruesas<tspan x="19.7666" y="31.2002">de madera</tspan></text></svg>