<svg xmlns="http://www.w3.org/2000/svg" viewBox="0 0 510.7904 389.3985"><defs><style>.a,.b{opacity:0.6;}.b,.c,.e{fill:#fff;}.c{opacity:0.9;}.d{opacity:0.7;}</style></defs><title>white</title><g class="a"><path class="b" d="M509.7539,167.4744l-1.1591-.0676.1-.0581L229.6463,6.2257,1.7064,137.8383l-1.1589-.0676V219.918A19.3832,19.3832,0,0,0,10.26,236.7165L270.9974,386.8139a19.3829,19.3829,0,0,0,19.3218.0108L500.0225,266.4165a19.383,19.383,0,0,0,9.7314-16.8092Z"/><path class="c" d="M506.1259,173.27,285.7626,300.5076a8.2716,8.2716,0,0,1-8.2719,0L4.1354,142.6723a8.2714,8.2714,0,0,1,0-14.3262L224.4987,1.1083a8.2718,8.2718,0,0,1,8.272,0L506.1259,158.9436A8.2714,8.2714,0,0,1,506.1259,173.27Z"/></g><g class="d"><path class="e" d="M510.79,235.1233a1.61,1.61,0,0,1-1.14,1.534c-4.8384,1.6667-14.6722,11.9555-22.5582,13.446-2.3317.4407-4.7831.6583-6.8288,1.8611-2.4741,1.4547-3.9781,4.1323-6.266,5.8652-2.0209,1.5307-4.5274,2.2361-6.947,2.9928-18.7087,5.8509-35.8343,10.5729-49.1517,24.7048a1.5392,1.5392,0,0,1-1.7438.3627c-2.7266-1.2014-6.2109.5433-8.8638,2.2911-9.6092,6.33-19.2183,18.2819-28.8274,25.29a1.5442,1.5442,0,0,1-2.3249-.6846,6.8859,6.8859,0,0,0-1.94-2.6485,1.5861,1.5861,0,0,0-2.0062.0079,182.5654,182.5654,0,0,0-24.31,23.9936,1.5974,1.5974,0,0,1-1.8622.4014c-6.7684-2.7785-15.7133,2.3725-16.6674,9.6373a1.6082,1.6082,0,0,1-1.1367,1.3836l-31.4391,8.6733a1.5665,1.5665,0,0,0-.952.78,13.1235,13.1235,0,0,1-15.5245,5.89A220.7529,220.7529,0,0,1,220.0035,335.36c-.9157-.5612-.0006.4819-.9808.0429a65.4811,65.4811,0,0,1-21.4815-15.2271,1.5259,1.5259,0,0,0-.9415-.4775l-7.1335-.8218a1.5281,1.5281,0,0,1-1.3237-1.594,15.1572,15.1572,0,0,0-1.3765-6.6211,1.575,1.575,0,0,0-2.13-.7667c-4.376,2.1467-10.1585-.4193-14.0962-3.7129-4.3384-3.6287-8.4916-8.3178-14.1217-8.8569-3.5441-.3394-7.6178.9533-10.372-1.3028-2.5222-2.0662-2.4878-6.09-4.7559-8.4319-4.0284-4.16-11.9231-.3366-16.47-3.9225-3.1085-2.4514-3.1577-7.2107-5.5822-10.34-4.46-5.7566-14.4529-3.5662-19.56-8.7572-2.581-2.6235-4.1446-7.1681-7.8247-7.2121-1.8233-.0218-3.4479,1.204-5.2616,1.3921-6.8377.7093-6.7675-10.8572-12.1578-15.1233a1.5332,1.5332,0,0,0-.804-.3334,4.34,4.34,0,0,0-2.8633.8138,1.5492,1.5492,0,0,1-2.3541-.6358,40.5233,40.5233,0,0,0-5.0113-8.8279,1.5566,1.5566,0,0,0-2.5155.0793l-2.5268,3.651a1.5652,1.5652,0,0,1-2.1414.4205L30.28,221.8913a1.565,1.565,0,0,0-1.2779-.1955l-2.972.8352a1.6857,1.6857,0,0,1-.6371.0584c-8.8492-.9655-16.6267-14.3148-23.6824-16.0067a1.5262,1.5262,0,0,1-1.153-1.5417l.998-34.6759a1.5447,1.5447,0,0,1,1.9662-1.47c3.5488,1.1815,6.3092,5.0721,9.67,9.7279a1.5751,1.5751,0,0,0,1.6415.61l3.7124-.8989a1.5653,1.5653,0,0,1,1.6982.696l2.3525,3.7918a1.5824,1.5824,0,0,0,2.4557.25,6.5127,6.5127,0,0,1,8.4019.2615,1.5464,1.5464,0,0,0,2.4829-.4352h0a1.56,1.56,0,0,1,2.772-.056c9.6548,16.9287,40.1593,18.4105,46.1084,36.5167a1.56,1.56,0,0,0,2.61.6293l.5812-.6037a1.565,1.565,0,0,1,2.5369.405l4.66,9.6525a1.5613,1.5613,0,0,0,2.1341.6876c4.3369-2.1972,10.5878.2972,12.2745,4.8468a1.504,1.504,0,0,0,1.928.8351c3.13-1.14,7.2065,1.4271,9.951,3.949l21.4084,19.6718a1.5365,1.5365,0,0,0,2.153-.0481,4.5064,4.5064,0,0,1,3.06-1.4,1.5651,1.5651,0,0,1,1.433.8658l3.2766,6.411a1.5962,1.5962,0,0,0,2.33.5373,6.2045,6.2045,0,0,1,6.1113.1084c2.4427,1.4078,4.0233,3.8906,5.8606,6.029a28.155,28.155,0,0,0,22.9526,9.5365,1.5713,1.5713,0,0,1,1.675,1.2666c1.0663,5.4989,3.2382,11.5529,8.5576,12.6723,1.8846.3966,3.8424.0453,5.7636.1792a11.5923,11.5923,0,0,1,8.6884,5.0341l6.6714,11.4632a1.5739,1.5739,0,0,0,2.6567.0649,8.0276,8.0276,0,0,1,7.737-2.7142c3.8758.8058,6.9382,3.6516,10.11,6.0206a49.1042,49.1042,0,0,0,30.4308,9.6495,1.5388,1.5388,0,0,1,1.419.8295l1.68,3.2626a1.565,1.565,0,0,0,1.46.8469l16.7245-.7365a1.6106,1.6106,0,0,0,1.441-1.161c2.2922-7.0936,11.3847-9.65,18.727-12.0579,14.5963-4.7877,27.2335-14.0513,39.5954-23.17,6.3192-4.6614,12.9718-3.604,15.6867-10.7423a1.55,1.55,0,0,1,.416-.6126l23.81-20.8722a1.8543,1.8543,0,0,1,1.34-.3548c1.5269.0546,3.0538-3.5971,4.5807-2.3439.7642-3.0929,4.609-4.8205,7.521-3.7708a1.5971,1.5971,0,0,0,1.9809-.7019,33.2931,33.2931,0,0,1,16.3318-14.5181,1.58,1.58,0,0,1,1.7093.3607l2.1417,2.1545a1.5823,1.5823,0,0,0,2.18.0606,157.7676,157.7676,0,0,0,18.1414-19.53,1.5844,1.5844,0,0,1,1.72-.5258,6.7914,6.7914,0,0,1,3.0859,1.991,1.56,1.56,0,0,0,2.087.2614L484.5324,203.44c7.416-5.314,14.8283-12.8235,23.8472-13.357a1.5438,1.5438,0,0,1,1.5889,1.5374Z"/></g></svg>