<svg xmlns="http://www.w3.org/2000/svg" viewBox="0 0 70 87.6087"><defs><style>.a,.b,.c{fill:none;stroke-width:3px;}.a{stroke:#fff;}.a,.b{stroke-miterlimit:10;}.b,.c{stroke:#d91519;}.c{stroke-linecap:round;stroke-linejoin:round;}</style></defs><title>bateria</title><line class="a" y1="44.7971" x2="70" y2="44.7971"/><rect class="b" x="14" y="10.0217" width="42" height="76.087" rx="5.7352"/><path class="b" d="M26.1739,10.035V4.9392A3.4392,3.4392,0,0,1,29.6131,1.5H40.9956a3.4392,3.4392,0,0,1,3.4392,3.4392V10.035"/><path class="b" d="M14,30.7174H56a0,0,0,0,1,0,0V79.604a6.5047,6.5047,0,0,1-6.5047,6.5047H20.5047A6.5047,6.5047,0,0,1,14,79.604V30.7174A0,0,0,0,1,14,30.7174Z"/><polyline class="c" points="37.416 41.243 29.348 56.201 39.32 56.201 30.617 76.145"/></svg>