<svg xmlns="http://www.w3.org/2000/svg" viewBox="0 0 298.99 796.7651"><defs><style>.a,.b{fill:#fff;stroke-linecap:round;stroke-linejoin:round;stroke-width:3px;}.a{stroke:#c4c4c4;}.b{stroke:#d91519;}</style></defs><title>caja</title><rect class="a" x="135.0784" y="103.0707" width="13.8353" height="265.3922"/><polygon class="b" points="108.665 529.459 108.665 608.7 176.585 594.863 176.585 519.091 108.665 529.459"/><polygon class="b" points="88.54 515.623 108.665 529.458 176.585 519.396 153.944 505.561 88.54 515.623"/><polygon class="b" points="118.727 565.934 118.727 608.699 160.234 599.894 160.234 558.387 118.727 565.934"/><polygon class="b" points="88.54 515.623 88.54 594.864 108.665 608.699 108.665 529.458 88.54 515.623"/><path class="b" d="M154.5738,587.3327v13.5758a2.3123,2.3123,0,0,0,1.1316,1.9885l18.64,11.0835a2.3143,2.3143,0,0,0,3.4977-1.9885v-14.08a2.315,2.315,0,0,0-1.1725-2.0119l-18.64-10.5808a2.3147,2.3147,0,0,0-3.4567,2.0131"/><path class="a" d="M179.464,368.4627h-22.11a3.41,3.41,0,0,1-3.41-3.41V350.489a3.41,3.41,0,0,1,3.41-3.4088h22.11a3.41,3.41,0,0,1,3.41,3.4088v14.5637a3.41,3.41,0,0,1-3.41,3.41"/><path class="a" d="M179.464,267.84h-22.11a3.41,3.41,0,0,1-3.41-3.41V249.8664a3.41,3.41,0,0,1,3.41-3.4089h22.11a3.41,3.41,0,0,1,3.41,3.4089V264.43a3.41,3.41,0,0,1-3.41,3.41"/><path class="a" d="M153.315,795.2651a11.1051,11.1051,0,0,1-11.1057-11.1057V211.869a11.1063,11.1063,0,0,1,4.9169-9.222l95.5926-64.1477a11.1061,11.1061,0,0,1,12.3774,18.444l-90.6756,60.8479V784.1594A11.1051,11.1051,0,0,1,153.315,795.2651Z"/><path class="a" d="M181.0355,226.913l-30.8329-11.212c-2.607-.9481-2.4059-4.41.3635-6.2286l90.2344-59.2986a4.6462,4.6462,0,0,1,4.0273-.6535l30.834,11.2133c2.6069.948,2.4047,4.41-.3647,6.2285L185.0639,226.26a4.648,4.648,0,0,1-4.0284.6535"/><path class="a" d="M187.1671,219.1614,162.86,211.2857c-2.0552-.6663-1.8015-3.3539.4547-4.8374l73.57-48.3472a3.9193,3.9193,0,0,1,3.2312-.6126l24.3074,7.8757c2.0563.6664,1.8026,3.354-.4547,4.8374l-73.57,48.3472a3.9173,3.9173,0,0,1-3.2311.6126"/><path class="a" d="M158.082,267.84h-22.11a3.41,3.41,0,0,1-3.41-3.41V249.8664a3.41,3.41,0,0,1,3.41-3.4089h22.11a3.41,3.41,0,0,1,3.41,3.4089V264.43a3.41,3.41,0,0,1-3.41,3.41"/><path class="a" d="M158.082,368.4627h-22.11a3.41,3.41,0,0,1-3.41-3.41V350.489a3.41,3.41,0,0,1,3.41-3.4088h22.11a3.41,3.41,0,0,1,3.41,3.4088v14.5637a3.41,3.41,0,0,1-3.41,3.41"/><path class="a" d="M156.46,257.7779a2.5157,2.5157,0,1,1-2.5157-2.5157,2.5157,2.5157,0,0,1,2.5157,2.5157"/><path class="a" d="M177.8429,257.7779a2.5158,2.5158,0,1,1-2.5157-2.5157,2.5165,2.5165,0,0,1,2.5157,2.5157"/><rect class="a" x="153.3161" y="257.1931" width="21.3826" height="1.169"/><path class="a" d="M156.46,358.4a2.5157,2.5157,0,1,1-2.5157-2.5157A2.5157,2.5157,0,0,1,156.46,358.4"/><path class="a" d="M177.8429,358.4a2.5158,2.5158,0,1,1-2.5157-2.5157,2.5165,2.5165,0,0,1,2.5157,2.5157"/><rect class="a" x="153.3161" y="357.8156" width="21.3826" height="1.169"/><path class="b" d="M130.0467,595.7253v12.6956a2.6987,2.6987,0,0,0,1.32,2.3205l17.8708,10.6264a2.6994,2.6994,0,0,0,4.0787-2.3205V605.8678a2.7031,2.7031,0,0,0-1.3666-2.3474l-17.8708-10.1425a2.7,2.7,0,0,0-4.0319,2.3474"/><path class="b" d="M151.4292,608.6992a2.5157,2.5157,0,1,1-2.5157-2.5157,2.5158,2.5158,0,0,1,2.5157,2.5157"/><path class="b" d="M172.8118,602.8541a2.5158,2.5158,0,1,1-2.5158-2.5157,2.5166,2.5166,0,0,1,2.5158,2.5157"/><polygon class="b" points="169.668 603.438 148.285 609.283 148.285 608.114 169.668 602.269 169.668 603.438"/><path class="a" d="M54.4684,107.34l2.32,8.8343a4.1384,4.1384,0,0,0,5.25,2.8945l60.2817-19.0527a4.14,4.14,0,0,1,5.1308,2.5146l2.12,5.7481a4.1384,4.1384,0,0,0,5.1706,2.5005l35.2775-11.5465a4.1379,4.1379,0,0,0,2.53-5.5318l-1.5116-3.6087a4.1392,4.1392,0,0,1,2.5859-5.5517L228.034,67.5841a4.1387,4.1387,0,0,0,2.6514-5.3834l-3.2826-8.0066A4.1393,4.1393,0,0,0,222.369,51.65L57.3208,102.3122a4.14,4.14,0,0,0-2.8524,5.0279"/><polygon class="a" points="1.5 94.989 5.815 114.032 106.957 91.111 100.583 71.044 1.5 94.989"/><polygon class="a" points="100.583 71.043 292.013 1.501 297.49 23.105 107.363 91.439 100.583 71.043"/><polygon class="a" points="1.5 94.989 100.583 71.044 292.013 1.5 158.425 39.245 1.5 94.989"/></svg>