<svg xmlns="http://www.w3.org/2000/svg" viewBox="0 0 460.124 716.5976"><defs><style>.a,.e{fill:#fff;}.a,.b{stroke:#000;stroke-miterlimit:10;}.b,.g,.h{fill:none;}.c{fill:#606060;}.d{fill:#c4c4c4;}.e,.h{stroke:#d91519;stroke-width:3px;}.e,.g,.h{stroke-linecap:round;stroke-linejoin:round;}.f{fill:#d91519;}.g{stroke:#606060;stroke-width:2px;}</style></defs><title>giro</title><rect class="a" x="213.7326" y="301.8781" width="69.884" height="128.4518" rx="4.7195" transform="translate(-118.4069 614.7786) rotate(-90)"/><path class="b" d="M188.8175,338.3721v15.702a2.0819,2.0819,0,0,0,2.0818,2.0819h0a2.4271,2.4271,0,0,1,2.4271,2.4271v15.0416a2.4272,2.4272,0,0,1-2.4273,2.4273h0a2.0819,2.0819,0,0,0-2.0818,2.0819v15.7019a4.1422,4.1422,0,0,0,4.1422,4.1422H304.39a4.1423,4.1423,0,0,0,4.1422-4.1422V338.3722A4.1422,4.1422,0,0,0,304.39,334.23H192.96A4.1421,4.1421,0,0,0,188.8175,338.3721Z" transform="translate(-0.9775)"/><path d="M263.6044,341.9941c.148.0319.2952.0679.4441.095a5.9239,5.9239,0,0,1,2.8328,1.3868,5.9844,5.9844,0,0,1,1.4167,1.8195,5.7851,5.7851,0,0,1,.59,1.9078,6.4411,6.4411,0,0,1,.03,1.4157,5.8016,5.8016,0,0,1-.77,2.4071,6.0164,6.0164,0,0,1-2.9233,2.5826,5.4062,5.4062,0,0,1-1.7132.4313.967.967,0,0,0-.108.0216c-.0037.0832-.01.1588-.01.2345q0,3.4481.0019,6.8962,0,4.6879-.0024,9.3759c0,2.0749.0088,4.15-.0024,6.2247a7.783,7.783,0,0,1-1.6764,4.9248,7.698,7.698,0,0,1-4.608,2.86,7.3142,7.3142,0,0,1-1.4815.1547q-8.1363-.0051-16.2725-.0022-2.8411,0-5.6824-.0023a6.5637,6.5637,0,0,1-1.7731-.2824,7.7311,7.7311,0,0,1-3.7466-2.3514,7.5,7.5,0,0,1-1.6441-2.9734,12.4939,12.4939,0,0,1-.2622-1.2559,11.1632,11.1632,0,0,1-.0513-1.9061q-.0081-6.7157-.0016-13.4312,0-3.6549-.0024-7.31a7.3759,7.3759,0,0,1,.4366-2.4449,7.5656,7.5656,0,0,1,1.42-2.4648,7.9847,7.9847,0,0,1,2.07-1.727,8.0844,8.0844,0,0,1,2.6505-.9467,5.6043,5.6043,0,0,1,.6654-.0674c1.5131-.086,3.0277-.0312,4.5416-.0384,1.9027-.009,3.8055-.0044,5.7082-.0043q4.3779,0,8.7559.0023,2.0793,0,4.1584,0h.2479c.0657-.3468.1126-.6769.1922-.9989a5.9394,5.9394,0,0,1,1.1391-2.288,6.0266,6.0266,0,0,1,2.3354-1.78,5.2607,5.2607,0,0,1,1.5827-.4252.5225.5225,0,0,0,.116-.0407Zm-6.7555,6.3114H246.7761q-6.3676,0-12.7353.0024a6.554,6.554,0,0,0-.9251.0568,7.322,7.322,0,0,0-2.0192.5836,7.137,7.137,0,0,0-3.7609,4.1407,7.5876,7.5876,0,0,0-.3987,2.5025q-.0039,5.2956-.0011,10.5912c0,2.3336-.005,4.6671,0,7.0006.0029,1.3508.0221,2.7017.0317,4.0525a5.6028,5.6028,0,0,0,.1667,1.2473,7.1074,7.1074,0,0,0,6.938,5.4965c2.6176.0167,5.2353.0048,7.853.005,3.1,0,6.2.007,9.3-.0019,1.5658-.0045,3.1319.0388,4.6975-.03a6.8107,6.8107,0,0,0,1.7163-.3074,7.1011,7.1011,0,0,0,4.9725-6.7206c.02-2.3505.0043-4.7014.0043-7.0522q0-3.6165.0006-7.233,0-4.1849-.0008-8.37c0-.0655-.0117-.1311-.0184-.2021a6.0774,6.0774,0,0,1-5.7478-5.7621Zm10.2147-1.4c-1.0146-.0231-2,.0122-3.01-.0167v-3.0048a19.1209,19.1209,0,0,0-2.2958.0165c0,.3312,0,.666,0,1.0008,0,.3271.0049.6543,0,.9813-.0044.3316.0153.6644-.0163,1.0194H258.739a17.9919,17.9919,0,0,0,.0114,2.2744h3.0085v2.9946c.7784.0019,1.53.0162,2.2958-.0049,0-.2788,0-.5273,0-.7759,0-.241.0014-.482.0013-.723,0-.25-.0035-.4992-.0011-.7488.0023-.2452-.0127-.4917.0124-.7511.5184,0,1.008,0,1.4976,0,.4957,0,.9915.0064,1.4986-.0047v-2.2572Z" transform="translate(-0.9775)"/><path d="M239.2363,355.9058l5.8364,15.9808.0353-.0069V355.9111c.0729-.0065.1307-.0162.1884-.0162,2.6087,0,5.2174-.0109,7.8259.0074a7.0072,7.0072,0,0,1,3.3421.81,5.7181,5.7181,0,0,1,2.653,2.9477,6.4784,6.4784,0,0,1,.424,1.7163,6.1341,6.1341,0,0,1,.0311,1.1579,5.3922,5.3922,0,0,1-1.4193,3.4,5.6432,5.6432,0,0,1-2.14,1.4361c-.0236.009-.0459.0215-.0967.0456.2327.4864.495.9539.737,1.4312.2447.4825.4994.96.7481,1.44.2527.4883.5026.978.7553,1.4663.2487.4805.5.96.7491,1.44s.4971.9614.7454,1.4422c.247.4782.4938.9566.7528,1.4584h-4.6036l-3.9212-8.0029h-2.7767a1.798,1.798,0,0,0-.02.1925q-.0012,2.35,0,4.7007,0,1.4593.0011,2.9186c0,.058-.0086.116-.0143.1888h-6.61l-1.1809-3.5368H234.14l-1.2161,3.5391h-4.1092c.0371-.245,7.1993-19.9486,7.3393-20.1892Zm9.8539,8.8391a.62.62,0,0,0,.0989.02c1.2547-.0106,2.5094-.0243,3.7642-.032a2.8993,2.8993,0,0,0,1.076-.2212,2.4214,2.4214,0,0,0,1.3762-1.35,2.7871,2.7871,0,0,0,.1852-1.2862,2.407,2.407,0,0,0-1.06-1.9106,2.7816,2.7816,0,0,0-1.598-.497c-1.2214-.0124-2.4429-.0061-3.6644-.0061a1.5266,1.5266,0,0,0-.1784.0209ZM237.8,362.011l-.0475-.002-2.4928,7.18c.3687.0407,4.7476.0254,4.9468-.0213Z" transform="translate(-0.9775)"/><path class="c" d="M17.5918,37.6132l-.001,7.6055a9.9843,9.9843,0,0,1-3.0488,1.54,11.9748,11.9748,0,0,1-3.4639.4863,11.5482,11.5482,0,0,1-4.167-.7158A9.3253,9.3253,0,0,1,3.7266,44.54,8.697,8.697,0,0,1,1.6934,41.497a10.179,10.179,0,0,1-.7159-3.86,10.6273,10.6273,0,0,1,.69-3.8877A8.561,8.561,0,0,1,6.7,28.7323a11.1277,11.1277,0,0,1,4.0557-.7011,11.9075,11.9075,0,0,1,2.1386.1816,10.9221,10.9221,0,0,1,1.8457.501,8.0093,8.0093,0,0,1,1.5537.7744,9.33,9.33,0,0,1,1.2872,1.001l-1.002,1.5859a.957.957,0,0,1-.6113.4619,1.0951,1.0951,0,0,1-.8194-.1894q-.4276-.2462-.8574-.4942a5.546,5.546,0,0,0-.9551-.4287,7.7448,7.7448,0,0,0-1.1826-.3,8.7049,8.7049,0,0,0-1.5146-.1162,6.48,6.48,0,0,0-2.5157.4668,5.3058,5.3058,0,0,0-1.9179,1.3389,6.0344,6.0344,0,0,0-1.2227,2.0927,8.2486,8.2486,0,0,0-.43,2.73,8.3814,8.3814,0,0,0,.4619,2.88A6.0714,6.0714,0,0,0,6.3135,42.662,5.532,5.532,0,0,0,8.335,44.0009a7.1837,7.1837,0,0,0,2.6386.4619,7.1442,7.1442,0,0,0,1.8594-.2207,9.0047,9.0047,0,0,0,1.5986-.5977l.001-3.4052-2.3652-.001A.7127.7127,0,0,1,11.54,40.05a.629.629,0,0,1-.1884-.4619V37.6122Z" transform="translate(-0.9775)"/><path class="c" d="M24.2373,29.8144a1.82,1.82,0,0,1-.17.78,2.1176,2.1176,0,0,1-1.1055,1.0723,2.0161,2.0161,0,0,1-.8056.1621,1.9352,1.9352,0,0,1-.7872-.1621,2.0817,2.0817,0,0,1-1.0781-1.0732,1.89,1.89,0,0,1-.1621-.78,2.0134,2.0134,0,0,1,.1621-.8057A2.0283,2.0283,0,0,1,21.37,27.9228a1.935,1.935,0,0,1,.7871-.1621,2.0166,2.0166,0,0,1,.8057.1621,2.1568,2.1568,0,0,1,.6562.4355,2.0753,2.0753,0,0,1,.4483.65A1.9386,1.9386,0,0,1,24.2373,29.8144Zm-.4434,3.8867L23.792,47.039H20.5684L20.57,33.7011Z" transform="translate(-0.9775)"/><path class="c" d="M30.0986,36.0165A5.7626,5.7626,0,0,1,31.58,34.1386a3.16,3.16,0,0,1,2.0283-.6826,2.4833,2.4833,0,0,1,1.4824.4033l-.208,2.4053a.6255.6255,0,0,1-.1885.331.5208.5208,0,0,1-.332.0977,3.7061,3.7061,0,0,1-.5781-.0655,4.5185,4.5185,0,0,0-.7481-.0644,2.68,2.68,0,0,0-.9492.1562,2.3887,2.3887,0,0,0-.748.4473,3.0724,3.0724,0,0,0-.585.709,6.9351,6.9351,0,0,0-.4746.9492l-.001,8.2158-3.2109-.001.0019-13.3378h1.8848a1.0439,1.0439,0,0,1,.6895.1757,1.0308,1.0308,0,0,1,.26.6309Z" transform="translate(-0.9775)"/><path class="c" d="M42.67,33.497a7.2621,7.2621,0,0,1,2.6973.4814,5.9227,5.9227,0,0,1,2.08,1.3653,5.9853,5.9853,0,0,1,1.331,2.1582,8.91,8.91,0,0,1-.001,5.707,6.123,6.123,0,0,1-1.332,2.1709,5.8056,5.8056,0,0,1-2.08,1.3769,7.241,7.241,0,0,1-2.6972.48,7.3439,7.3439,0,0,1-2.7168-.4814,5.7906,5.7906,0,0,1-2.0869-1.378,6.2081,6.2081,0,0,1-1.3389-2.1709,8.8243,8.8243,0,0,1,.001-5.707,6.09,6.09,0,0,1,1.34-2.1582,5.892,5.892,0,0,1,2.0869-1.3643A7.3651,7.3651,0,0,1,42.67,33.497Zm-.0019,11.27A2.82,2.82,0,0,0,45.1309,43.65a5.6015,5.6015,0,0,0,.8007-3.2754,5.674,5.674,0,0,0-.8-3.29A2.8067,2.8067,0,0,0,42.67,35.954a2.8724,2.8724,0,0,0-2.5039,1.1367,5.6032,5.6032,0,0,0-.8125,3.2823,5.5368,5.5368,0,0,0,.8115,3.27A2.8811,2.8811,0,0,0,42.668,44.7675Z" transform="translate(-0.9775)"/><path class="c" d="M69.89,44.6425v2.4053l-10.4-.002V44.6415h3.81l.002-10.959q0-.65.039-1.3388l-2.7041,2.2617a1.1242,1.1242,0,0,1-.4619.2275,1.0968,1.0968,0,0,1-.4287.0059,1.031,1.031,0,0,1-.3574-.1358.754.754,0,0,1-.2344-.2148L58.14,33.0966l5.7334-4.874h2.64l-.0029,16.42Z" transform="translate(-0.9775)"/><path class="c" d="M82.2266,37.248a4.8185,4.8185,0,0,1,2.5351,1.71,4.7274,4.7274,0,0,1,.8194,2.8145,5.2843,5.2843,0,0,1-.4756,2.2617,4.9548,4.9548,0,0,1-1.333,1.7295,6.1352,6.1352,0,0,1-2.0606,1.1045,9.2517,9.2517,0,0,1-5.3164-.001,6.126,6.126,0,0,1-2.0605-1.1055,4.9518,4.9518,0,0,1-1.333-1.73,5.2524,5.2524,0,0,1-.4737-2.2617,4.7271,4.7271,0,0,1,.8194-2.8144,4.8117,4.8117,0,0,1,2.5351-1.709,4.3679,4.3679,0,0,1-2.0469-1.625,4.9153,4.9153,0,0,1-.2461-4.5244,4.8744,4.8744,0,0,1,1.2159-1.6055,5.6546,5.6546,0,0,1,1.8652-1.0654,7.6173,7.6173,0,0,1,4.7715.0009,5.6565,5.6565,0,0,1,1.8652,1.0655A4.9138,4.9138,0,0,1,84.5234,31.1a4.62,4.62,0,0,1,.4346,1.9893,4.5611,4.5611,0,0,1-.6826,2.5351A4.3563,4.3563,0,0,1,82.2266,37.248Zm-3.1729,7.5009a3.9047,3.9047,0,0,0,1.3906-.2275,2.8582,2.8582,0,0,0,1.0078-.6309,2.5924,2.5924,0,0,0,.6172-.9619,3.4359,3.4359,0,0,0,.209-1.209,3.0338,3.0338,0,0,0-.8574-2.34,3.9287,3.9287,0,0,0-4.7324-.001,3.03,3.03,0,0,0-.8574,2.34,3.4344,3.4344,0,0,0,.207,1.2089,2.5824,2.5824,0,0,0,.6172.962,2.8425,2.8425,0,0,0,1.0078.6308A3.8819,3.8819,0,0,0,79.0537,44.7489Zm.0029-14.2871a3.1645,3.1645,0,0,0-1.2353.22,2.4918,2.4918,0,0,0-.8643.5918,2.3424,2.3424,0,0,0-.5078.8516,3.1493,3.1493,0,0,0-.1621,1.0137,4.3108,4.3108,0,0,0,.1358,1.0859,2.4868,2.4868,0,0,0,.4619.9356,2.3127,2.3127,0,0,0,.8574.6572,3.612,3.612,0,0,0,2.626,0,2.3048,2.3048,0,0,0,.8584-.6563,2.5005,2.5005,0,0,0,.4619-.9355,4.3153,4.3153,0,0,0,.1357-1.0859,3.025,3.025,0,0,0-.1689-1.0137,2.3781,2.3781,0,0,0-1.3633-1.4434A3.1459,3.1459,0,0,0,79.0566,30.4618Z" transform="translate(-0.9775)"/><path class="c" d="M101.0244,37.6542a15.3821,15.3821,0,0,1-.5264,4.27,8.743,8.743,0,0,1-1.457,2.9961,5.8667,5.8667,0,0,1-2.1963,1.7607,6.5,6.5,0,0,1-2.7373.5782,6.4109,6.4109,0,0,1-2.7236-.5791A5.8592,5.8592,0,0,1,89.207,44.92a8.7116,8.7116,0,0,1-1.4424-2.997,15.5906,15.5906,0,0,1-.52-4.2705,15.61,15.61,0,0,1,.5205-4.2774A8.7218,8.7218,0,0,1,89.21,30.3857a5.861,5.861,0,0,1,2.1767-1.7618,6.4408,6.4408,0,0,1,2.7237-.5781,6.5328,6.5328,0,0,1,2.7373.5791,5.8906,5.8906,0,0,1,2.1962,1.7617,8.7421,8.7421,0,0,1,1.4551,2.9912A15.3233,15.3233,0,0,1,101.0244,37.6542Zm-3.3144,0a15.8463,15.8463,0,0,0-.2979-3.38,6.85,6.85,0,0,0-.8-2.1328A2.92,2.92,0,0,0,95.4629,31.03a3.0441,3.0441,0,0,0-1.3525-.3194,2.9734,2.9734,0,0,0-1.3321.3184A2.9,2.9,0,0,0,91.64,32.1405a6.8025,6.8025,0,0,0-.7861,2.1319,16.2651,16.2651,0,0,0-.2939,3.38,16.2047,16.2047,0,0,0,.2929,3.38,6.8173,6.8173,0,0,0,.7852,2.1328,2.89,2.89,0,0,0,1.1377,1.1114,2.96,2.96,0,0,0,1.332.3183,3.0284,3.0284,0,0,0,1.3526-.3173,2.9259,2.9259,0,0,0,1.15-1.1124,6.8154,6.8154,0,0,0,.8007-2.1308A15.8967,15.8967,0,0,0,97.71,37.6542Z" transform="translate(-0.9775)"/><path class="c" d="M109.709,33.0673a7.2512,7.2512,0,0,1-.293,2.1836,4.483,4.483,0,0,1-.793,1.5273,3.1948,3.1948,0,0,1-1.1767.9033,3.5629,3.5629,0,0,1-1.4561.2989,3.5018,3.5018,0,0,1-1.45-.3,3.1349,3.1349,0,0,1-1.1621-.9033,4.3968,4.3968,0,0,1-.7734-1.5274,8.6909,8.6909,0,0,1,.001-4.375,4.46,4.46,0,0,1,.7734-1.54,3.0559,3.0559,0,0,1,1.1631-.9034,3.5768,3.5768,0,0,1,1.45-.2919,3.6415,3.6415,0,0,1,1.456.2919,3.1082,3.1082,0,0,1,1.1758.9043,4.55,4.55,0,0,1,.793,1.54A7.325,7.325,0,0,1,109.709,33.0673Zm-2.3272-.001a10.2673,10.2673,0,0,0-.0966-1.5732,2.9009,2.9009,0,0,0-.2862-.9356,1.016,1.016,0,0,0-.4414-.4551,1.4235,1.4235,0,0,0-1.1308,0,.9573.9573,0,0,0-.43.4541,3.0808,3.0808,0,0,0-.2666.9366,10.73,10.73,0,0,0-.0918,1.5732,9.3288,9.3288,0,0,0,.1045,1.56,3.02,3.02,0,0,0,.292.9365,1.0313,1.0313,0,0,0,.4355.4551,1.2,1.2,0,0,0,.5205.1172,1.27,1.27,0,0,0,.5391-.1172,1.0226,1.0226,0,0,0,.4424-.4551,3.16,3.16,0,0,0,.2988-.9365A8.9372,8.9372,0,0,0,107.3818,33.0663Z" transform="translate(-0.9775)"/><path class="c" d="M34.5645,639.51a9.3151,9.3151,0,0,1,2.49.292,4.8128,4.8128,0,0,1,1.7222.832,3.2917,3.2917,0,0,1,1.0009,1.3135,4.4014,4.4014,0,0,1,.3252,1.7217,5.1943,5.1943,0,0,1-.2407,1.58,4.6747,4.6747,0,0,1-.7148,1.3975,4.9981,4.9981,0,0,1-1.1958,1.1318,6.27,6.27,0,0,1-1.6836.793,4.633,4.633,0,0,1,2.5156,1.3125,3.47,3.47,0,0,1,.8384,2.4043,5.9063,5.9063,0,0,1-.4614,2.3594,5.2393,5.2393,0,0,1-1.3326,1.8535,6.116,6.116,0,0,1-2.1255,1.209,8.7346,8.7346,0,0,1-2.8276.4287h-6.123L29.04,639.51Zm-1.4952,16.7051a5.5209,5.5209,0,0,0,1.82-.2725,3.427,3.427,0,0,0,1.2935-.7813,3.2437,3.2437,0,0,0,.7734-1.2216,4.6876,4.6876,0,0,0,.26-1.6123,2.5057,2.5057,0,0,0-.8252-1.9688,3.6934,3.6934,0,0,0-2.5156-.7344H30.2227l-.8062,6.5909Zm-1.833-14.794-.7929,6.4863h3.0034a5.486,5.486,0,0,0,1.8393-.2793,3.6311,3.6311,0,0,0,1.313-.7793,3.1408,3.1408,0,0,0,.7866-1.2031,4.4314,4.4314,0,0,0,.26-1.5469,2.4577,2.4577,0,0,0-.8061-2.0078,3.8542,3.8542,0,0,0-2.4956-.67Z" transform="translate(-0.9775)"/><path class="c" d="M50.0342,654.6669a11.2789,11.2789,0,0,1-1.0073,1.5088,7.03,7.03,0,0,1-1.1441,1.15,4.9608,4.9608,0,0,1-1.2739.7344,3.8053,3.8053,0,0,1-1.3843.2607,3.2278,3.2278,0,0,1-1.417-.3066,2.9485,2.9485,0,0,1-1.0859-.8965,4.3691,4.3691,0,0,1-.6953-1.4561,7.2338,7.2338,0,0,1-.2471-1.9824,8.9466,8.9466,0,0,1,.2925-2.2822,9.2829,9.2829,0,0,1,2.1255-3.9121,8.6341,8.6341,0,0,1,1.6836-1.43,8.0089,8.0089,0,0,1,1.9956-.9366,7.4656,7.4656,0,0,1,2.2358-.331,9.6691,9.6691,0,0,1,1.6445.1367,6.8051,6.8051,0,0,1,1.58.4736l-1.5732,12.74H50.5674a.7063.7063,0,0,1-.6177-.2334.9807.9807,0,0,1-.1621-.5723Zm.8843-8.0859a3.86,3.86,0,0,0-.5655-.084c-.1865-.0127-.3706-.02-.5527-.02a4.5268,4.5268,0,0,0-1.5078.254,5.3722,5.3722,0,0,0-1.3653.708,6.0511,6.0511,0,0,0-1.1567,1.0859,7.0956,7.0956,0,0,0-.8906,1.3838,7.8982,7.8982,0,0,0-.5786,1.6055,7.3436,7.3436,0,0,0-.208,1.749q0,3.1332,2.0019,3.1328A2.2649,2.2649,0,0,0,47.3433,656a4.8526,4.8526,0,0,0,1.1635-1.1045,9.2949,9.2949,0,0,0,1.02-1.6777,15.6559,15.6559,0,0,0,.8321-2.125Z" transform="translate(-0.9775)"/><path class="c" d="M58.4839,648.6357a11.2335,11.2335,0,0,1,1.1245-1.918,5.6245,5.6245,0,0,1,1.2676-1.2735,3.1255,3.1255,0,0,1,1.3652-.5585,2.6482,2.6482,0,0,1,1.43.2138l-.416,2.2237a2.6566,2.6566,0,0,0-2.9834.4941,8.6767,8.6767,0,0,0-2.1,4.2246l-.7281,6.0967H55.1821l1.586-13.1826h1.144a.696.696,0,0,1,.793.7812Z" transform="translate(-0.9775)"/><path class="c" d="M67.376,648.6357a11.2335,11.2335,0,0,1,1.1245-1.918,5.6245,5.6245,0,0,1,1.2676-1.2735,3.1255,3.1255,0,0,1,1.3652-.5585,2.6482,2.6482,0,0,1,1.43.2138l-.416,2.2237a2.6566,2.6566,0,0,0-2.9834.4941,8.6767,8.6767,0,0,0-2.1,4.2246l-.7281,6.0967H64.0742L65.66,644.956h1.144a.696.696,0,0,1,.793.7812Z" transform="translate(-0.9775)"/><path class="c" d="M81.104,654.6669a11.2693,11.2693,0,0,1-1.0073,1.5088,7.0261,7.0261,0,0,1-1.1441,1.15,4.9608,4.9608,0,0,1-1.2739.7344,3.8053,3.8053,0,0,1-1.3843.2607,3.2281,3.2281,0,0,1-1.417-.3066,2.9485,2.9485,0,0,1-1.0859-.8965,4.3691,4.3691,0,0,1-.6953-1.4561,7.2338,7.2338,0,0,1-.2471-1.9824,8.9466,8.9466,0,0,1,.2925-2.2822,9.2829,9.2829,0,0,1,2.1255-3.9121,8.637,8.637,0,0,1,1.6836-1.43,8.0105,8.0105,0,0,1,1.9956-.9366,7.4656,7.4656,0,0,1,2.2358-.331,9.6712,9.6712,0,0,1,1.6446.1367,6.8066,6.8066,0,0,1,1.58.4736l-1.5733,12.74H81.6372a.7063.7063,0,0,1-.6177-.2334.9807.9807,0,0,1-.1621-.5723Zm.8843-8.0859a3.8584,3.8584,0,0,0-.5654-.084c-.1866-.0127-.3707-.02-.5528-.02a4.5272,4.5272,0,0,0-1.5078.254,5.3716,5.3716,0,0,0-1.3652.708,6.0516,6.0516,0,0,0-1.1568,1.0859,7.1,7.1,0,0,0-.8906,1.3838,7.9042,7.9042,0,0,0-.5786,1.6055,7.3436,7.3436,0,0,0-.208,1.749q0,3.1332,2.0019,3.1328A2.2646,2.2646,0,0,0,78.4131,656a4.8547,4.8547,0,0,0,1.1636-1.1045,9.3006,9.3006,0,0,0,1.02-1.6777,15.6691,15.6691,0,0,0,.832-2.125Z" transform="translate(-0.9775)"/><path class="c" d="M104.4131,644.97l-6.604,13.169H95.8848L92.479,644.97h1.8721a.5953.5953,0,0,1,.416.1426.7037.7037,0,0,1,.2075.3379l1.95,8.4766q.0784.495.13.9746c.0347.32.0649.6465.0913.9746q.1428-.48.312-.961t.39-.9882l4.0693-8.4766a.958.958,0,0,1,.2856-.3437.6716.6716,0,0,1,.4161-.1368Z" transform="translate(-0.9775)"/><path class="c" d="M115.15,655.7079a11.609,11.609,0,0,1-1.3,1.1758,7.9065,7.9065,0,0,1-1.2935.8125,5.6954,5.6954,0,0,1-1.3779.4746,7.6608,7.6608,0,0,1-1.5537.15,5.2122,5.2122,0,0,1-2.0278-.377,4.2027,4.2027,0,0,1-1.521-1.0732,4.8227,4.8227,0,0,1-.9624-1.6836,6.8042,6.8042,0,0,1-.3379-2.21,9.7112,9.7112,0,0,1,.2143-2.0214,9.4835,9.4835,0,0,1,.624-1.918,8.7451,8.7451,0,0,1,1.001-1.69,6.7641,6.7641,0,0,1,1.3521-1.3457,6.3639,6.3639,0,0,1,1.6772-.8906,5.8469,5.8469,0,0,1,1.9693-.3242,4.7476,4.7476,0,0,1,1.729.2852,3.6865,3.6865,0,0,1,1.1963.7285,2.9152,2.9152,0,0,1,.6953.9746,2.5819,2.5819,0,0,1,.2275,1.0136,3.5564,3.5564,0,0,1-.3511,1.58,3.2935,3.2935,0,0,1-1.2871,1.3008,9.6337,9.6337,0,0,1-2.5737,1.0068,28.2861,28.2861,0,0,1-4.2119.6885c0,.0957-.0025.19-.0069.2793-.0044.0918-.0063.1856-.0063.28a4.0643,4.0643,0,0,0,.7607,2.6582,2.809,2.809,0,0,0,2.2945.917,4.266,4.266,0,0,0,1.1113-.1309,4.6765,4.6765,0,0,0,.8711-.3183,3.8249,3.8249,0,0,0,.6758-.416c.1953-.15.3725-.29.5332-.4161a5.3029,5.3029,0,0,1,.4487-.3183.7825.7825,0,0,1,.4155-.13.5775.5775,0,0,1,.4424.2217Zm-3.666-9.2558a3.3729,3.3729,0,0,0-1.5078.3378,4.0045,4.0045,0,0,0-1.2222.93,5.6787,5.6787,0,0,0-.91,1.3907,8.3061,8.3061,0,0,0-.5849,1.7226,25.1831,25.1831,0,0,0,3.2114-.5664,7.9736,7.9736,0,0,0,1.8589-.6885,1.7939,1.7939,0,0,0,1.0659-1.6963,1.2994,1.2994,0,0,0-.4355-.9492,1.792,1.792,0,0,0-.5913-.3437A2.5117,2.5117,0,0,0,111.4844,646.4521Z" transform="translate(-0.9775)"/><path class="c" d="M120.5317,648.6357a11.2271,11.2271,0,0,1,1.1246-1.918,5.6242,5.6242,0,0,1,1.2675-1.2735,3.1258,3.1258,0,0,1,1.3653-.5585,2.6484,2.6484,0,0,1,1.43.2138l-.4161,2.2237a2.6567,2.6567,0,0,0-2.9834.4941,8.6767,8.6767,0,0,0-2.1,4.2246l-.728,6.0967H117.23l1.5859-13.1826H119.96a.6959.6959,0,0,1,.7929.7812Z" transform="translate(-0.9775)"/><path class="c" d="M138.8228,646.8808l-1.378,11.2578h-2.249l1.3911-11.2578H130.438l-.8062,6.5q-.0651.5331-.104.8584c-.0258.2168-.0454.39-.0586.5195s-.0214.2207-.0258.2734c-.0044.0508-.0064.09-.0064.1162a1.3534,1.3534,0,0,0,.312.9815,1.1258,1.1258,0,0,0,.8448.3184,1.6874,1.6874,0,0,0,.5981-.0977,2.5155,2.5155,0,0,0,.4487-.2139q.1882-.1172.3184-.2138a.3962.3962,0,0,1,.2339-.0977.2438.2438,0,0,1,.1626.0508.6716.6716,0,0,1,.1235.17l.481,1.1055a4.7318,4.7318,0,0,1-1.4366.8769,4.4478,4.4478,0,0,1-1.6313.3184,2.774,2.774,0,0,1-1.9893-.6895,2.7015,2.7015,0,0,1-.7539-2.0019c0-.0518.002-.1192.0064-.2012s.0132-.2012.0263-.3574.0323-.3594.0581-.6113.0655-.58.1172-.9883l.8189-6.6162h-1.43a.402.402,0,0,1-.312-.13.47.47,0,0,1-.0913-.377l.104-.8847,2.0024-.26.9878-4.0947a.7291.7291,0,0,1,.2017-.3184.49.49,0,0,1,.3442-.124h1.2222l-.5591,4.5508h8.3721Zm1.3393-6.0459a1.4667,1.4667,0,0,1-.1367.6308,1.8093,1.8093,0,0,1-.3638.5205,1.7288,1.7288,0,0,1-.52.3575,1.47,1.47,0,0,1-.6045.13,1.3945,1.3945,0,0,1-.585-.13,1.58,1.58,0,0,1-.5-.3575,1.831,1.831,0,0,1-.3448-.5205,1.5293,1.5293,0,0,1-.13-.6308,1.5768,1.5768,0,0,1,.13-.6367,1.7234,1.7234,0,0,1,.3511-.5254,1.7662,1.7662,0,0,1,.5068-.3653,1.3605,1.3605,0,0,1,.585-.1357,1.4834,1.4834,0,0,1,.6045.13,1.6255,1.6255,0,0,1,.5137.3574,1.8378,1.8378,0,0,1,.3574.5332A1.5518,1.5518,0,0,1,140.1621,640.8349Z" transform="translate(-0.9775)"/><path class="c" d="M150.8867,655.7724a11.9012,11.9012,0,0,1-1.2866,1.2353,6.2849,6.2849,0,0,1-1.2222.7862,4.9183,4.9183,0,0,1-1.2675.41,8.0315,8.0315,0,0,1-1.4107.1172,4.94,4.94,0,0,1-2.0215-.3906,3.99,3.99,0,0,1-1.4687-1.0987,4.83,4.83,0,0,1-.897-1.7021,7.4458,7.4458,0,0,1-.3057-2.1914,9.4575,9.4575,0,0,1,.5-3.0684,8.6246,8.6246,0,0,1,1.3975-2.6,6.9557,6.9557,0,0,1,2.1387-1.8066,5.5694,5.5694,0,0,1,2.71-.6758,4.7151,4.7151,0,0,1,2.1973.4609,4.5945,4.5945,0,0,1,1.5468,1.3457l-.728.8711a.84.84,0,0,1-.2016.169.4858.4858,0,0,1-.2535.0654.5273.5273,0,0,1-.3574-.1631,4.6247,4.6247,0,0,0-.4614-.3642,3.2652,3.2652,0,0,0-.7085-.3633,3.04,3.04,0,0,0-1.0855-.1631,3.1812,3.1812,0,0,0-1.69.4873,4.768,4.768,0,0,0-1.3906,1.333,6.7962,6.7962,0,0,0-.9429,2.002,8.6667,8.6667,0,0,0-.3442,2.4834,5.4554,5.4554,0,0,0,.1821,1.4619,3.1232,3.1232,0,0,0,.5459,1.1181,2.5038,2.5038,0,0,0,.8906.7149,2.8017,2.8017,0,0,0,1.2286.2539,3.6455,3.6455,0,0,0,1.4624-.26,4.9337,4.9337,0,0,0,.9941-.5664q.4029-.3047.6826-.5644a.8235.8235,0,0,1,.5527-.2608.576.576,0,0,1,.4419.2217Z" transform="translate(-0.9775)"/><path class="c" d="M160.9746,654.6669a11.2693,11.2693,0,0,1-1.0073,1.5088,7.0261,7.0261,0,0,1-1.1441,1.15,4.9608,4.9608,0,0,1-1.2739.7344,3.8053,3.8053,0,0,1-1.3843.2607,3.2281,3.2281,0,0,1-1.417-.3066,2.9485,2.9485,0,0,1-1.0859-.8965,4.3691,4.3691,0,0,1-.6953-1.4561,7.2338,7.2338,0,0,1-.2471-1.9824,8.9466,8.9466,0,0,1,.2925-2.2822,9.2829,9.2829,0,0,1,2.1255-3.9121,8.637,8.637,0,0,1,1.6836-1.43,8.0105,8.0105,0,0,1,1.9956-.9366,7.4656,7.4656,0,0,1,2.2358-.331,9.67,9.67,0,0,1,1.6446.1367,6.8066,6.8066,0,0,1,1.58.4736l-1.5733,12.74h-1.1958a.7063.7063,0,0,1-.6177-.2334.9807.9807,0,0,1-.1621-.5723Zm.8843-8.0859a3.8584,3.8584,0,0,0-.5654-.084c-.1866-.0127-.3706-.02-.5528-.02a4.5272,4.5272,0,0,0-1.5078.254,5.3716,5.3716,0,0,0-1.3652.708,6.0516,6.0516,0,0,0-1.1568,1.0859,7.1,7.1,0,0,0-.8906,1.3838,7.9042,7.9042,0,0,0-.5786,1.6055,7.3436,7.3436,0,0,0-.208,1.749q0,3.1332,2.0019,3.1328A2.2646,2.2646,0,0,0,158.2837,656a4.8547,4.8547,0,0,0,1.1636-1.1045,9.3006,9.3006,0,0,0,1.02-1.6777,15.6691,15.6691,0,0,0,.832-2.125Z" transform="translate(-0.9775)"/><path class="c" d="M166.1875,658.1386l2.3271-19.1494h2.275l-2.3272,19.1494Z" transform="translate(-0.9775)"/><path class="c" d="M59.2637,665.9892l-2.3531,19.1494H55.7017a.6862.6862,0,0,1-.6109-.2334,1.0114,1.0114,0,0,1-.1562-.5723l.247-2.7695a10.3625,10.3625,0,0,1-1.0791,1.5469,8.037,8.037,0,0,1-1.2285,1.1836,5.3352,5.3352,0,0,1-1.3388.76,3.9143,3.9143,0,0,1-1.4107.2676,3.1134,3.1134,0,0,1-2.626-1.2285,5.8159,5.8159,0,0,1-.936-3.5694,10.471,10.471,0,0,1,.2212-2.1318,11.066,11.066,0,0,1,.63-2.041,10.0035,10.0035,0,0,1,.9882-1.8135,7.4321,7.4321,0,0,1,1.2935-1.4492,5.9492,5.9492,0,0,1,1.5405-.9619,4.3817,4.3817,0,0,1,1.7354-.3516,4.06,4.06,0,0,1,1.7744.3838,3.8513,3.8513,0,0,1,1.3584,1.085l.897-7.2539Zm-3.354,8.8535a2.6712,2.6712,0,0,0-1.19-.9815,3.7532,3.7532,0,0,0-1.4106-.28,3.0157,3.0157,0,0,0-1.8457.6113,5.3822,5.3822,0,0,0-1.398,1.58,8.2791,8.2791,0,0,0-.89,2.164,9.3035,9.3035,0,0,0-.312,2.3535,4.1943,4.1943,0,0,0,.5522,2.3594,1.7977,1.7977,0,0,0,1.58.8125,2.4069,2.4069,0,0,0,1.2612-.3906,5.2041,5.2041,0,0,0,1.2286-1.085,9.5708,9.5708,0,0,0,1.1049-1.6445,13.03,13.03,0,0,0,.89-2.08Z" transform="translate(-0.9775)"/><path class="c" d="M70.73,682.7079a11.609,11.609,0,0,1-1.3,1.1758,7.9065,7.9065,0,0,1-1.2935.8125,5.6954,5.6954,0,0,1-1.3779.4746,7.6608,7.6608,0,0,1-1.5537.15,5.2122,5.2122,0,0,1-2.0278-.377,4.2027,4.2027,0,0,1-1.521-1.0732,4.8227,4.8227,0,0,1-.9624-1.6836,6.8042,6.8042,0,0,1-.3379-2.21,9.7112,9.7112,0,0,1,.2143-2.0214,9.4835,9.4835,0,0,1,.624-1.918,8.7451,8.7451,0,0,1,1.001-1.69,6.7641,6.7641,0,0,1,1.3521-1.3457,6.3639,6.3639,0,0,1,1.6772-.8906,5.8469,5.8469,0,0,1,1.9693-.3242,4.7476,4.7476,0,0,1,1.729.2852,3.6865,3.6865,0,0,1,1.1963.7285,2.9152,2.9152,0,0,1,.6953.9746,2.5819,2.5819,0,0,1,.2275,1.0136,3.5564,3.5564,0,0,1-.3511,1.58,3.2935,3.2935,0,0,1-1.2871,1.3008,9.6337,9.6337,0,0,1-2.5737,1.0068,28.2861,28.2861,0,0,1-4.2119.6885c0,.0957-.0025.19-.0069.2793-.0044.0918-.0063.1856-.0063.28a4.0643,4.0643,0,0,0,.7607,2.6582,2.809,2.809,0,0,0,2.2945.917,4.266,4.266,0,0,0,1.1113-.1309,4.6765,4.6765,0,0,0,.8711-.3183,3.8249,3.8249,0,0,0,.6758-.416c.1953-.15.3725-.29.5332-.4161a5.3029,5.3029,0,0,1,.4487-.3183.7825.7825,0,0,1,.4155-.13.5775.5775,0,0,1,.4424.2217Zm-3.666-9.2558a3.3729,3.3729,0,0,0-1.5078.3378,4.0045,4.0045,0,0,0-1.2222.93,5.6787,5.6787,0,0,0-.91,1.3907,8.3119,8.3119,0,0,0-.5849,1.7226,25.1831,25.1831,0,0,0,3.2114-.5664,7.9736,7.9736,0,0,0,1.8589-.6885,1.7939,1.7939,0,0,0,1.0659-1.6963,1.2994,1.2994,0,0,0-.4355-.9492,1.792,1.792,0,0,0-.5913-.3437A2.5117,2.5117,0,0,0,67.0635,673.4521Z" transform="translate(-0.9775)"/><path class="c" d="M90.8008,671.97l-1.586,13.169h-1.144a.741.741,0,0,1-.8447-.8321l.1948-2.4052a8.0373,8.0373,0,0,1-2.3462,2.5547,4.8114,4.8114,0,0,1-2.6846.8652,3.1418,3.1418,0,0,1-1.4692-.332,2.6326,2.6326,0,0,1-1.0332-.9688,4.1043,4.1043,0,0,1-.54-1.5605,7.5365,7.5365,0,0,1,.0127-2.1182l.9883-8.3721H82.65l-.9878,8.3721a4.2947,4.2947,0,0,0,.1885,2.3008,1.4091,1.4091,0,0,0,1.3974.7539,2.7105,2.7105,0,0,0,1.2349-.3252,4.7152,4.7152,0,0,0,1.2222-.9229,7.8972,7.8972,0,0,0,1.0986-1.4492,10.1611,10.1611,0,0,0,.8775-1.8916L88.5,671.97Z" transform="translate(-0.9775)"/><path class="c" d="M95.9751,675.2978a8.2017,8.2017,0,0,1,2.3789-2.6329,4.8383,4.8383,0,0,1,2.73-.8906,3.1011,3.1011,0,0,1,1.4624.3321,2.6424,2.6424,0,0,1,1.0273.9687,4.1261,4.1261,0,0,1,.54,1.5664,7.8192,7.8192,0,0,1,0,2.1123l-.9883,8.3848h-2.3008l.9878-8.3848a4.2592,4.2592,0,0,0-.1948-2.3076,1.4155,1.4155,0,0,0-1.3911-.748,2.721,2.721,0,0,0-1.2676.3378,4.9121,4.9121,0,0,0-1.2412.9629,7.9761,7.9761,0,0,0-1.1118,1.501,10.5387,10.5387,0,0,0-.8775,1.9561l-.7539,6.6826H92.66l1.5859-13.1826H95.39a.69.69,0,0,1,.78.7812Z" transform="translate(-0.9775)"/><path class="c" d="M110.4307,671.97l-1.586,13.169H106.57l1.586-13.169Zm.8842-4.1347a1.4667,1.4667,0,0,1-.1367.6308,1.8109,1.8109,0,0,1-.3637.5205,1.7292,1.7292,0,0,1-.52.3575,1.47,1.47,0,0,1-.6045.13,1.3938,1.3938,0,0,1-.5849-.13,1.5876,1.5876,0,0,1-.5005-.3575,1.8286,1.8286,0,0,1-.3447-.5205,1.5358,1.5358,0,0,1-.13-.6308,1.5836,1.5836,0,0,1,.13-.6367,1.7232,1.7232,0,0,1,.351-.5254,1.7653,1.7653,0,0,1,.5069-.3653,1.3614,1.3614,0,0,1,.5849-.1357,1.4834,1.4834,0,0,1,.6045.13,1.6255,1.6255,0,0,1,.5137.3574,1.8358,1.8358,0,0,1,.3574.5332A1.5518,1.5518,0,0,1,111.3149,667.8349Z" transform="translate(-0.9775)"/><path class="c" d="M117.3208,685.3212a5.1275,5.1275,0,0,1-1.9761-.3711,4.3438,4.3438,0,0,1-1.5468-1.0723,4.951,4.951,0,0,1-1.0142-1.7168,6.822,6.822,0,0,1-.3638-2.3134,9.3208,9.3208,0,0,1,.52-3.1328,8.3433,8.3433,0,0,1,1.43-2.5674,6.8768,6.8768,0,0,1,2.1387-1.7364,5.6724,5.6724,0,0,1,2.6455-.6367,5.1108,5.1108,0,0,1,1.9761.3711,4.319,4.319,0,0,1,1.5469,1.0723,4.9548,4.9548,0,0,1,1.0141,1.7158,6.785,6.785,0,0,1,.3638,2.3018,9.2784,9.2784,0,0,1-.52,3.1191,8.513,8.513,0,0,1-1.4234,2.5742,6.8014,6.8014,0,0,1-2.1386,1.7481A5.6485,5.6485,0,0,1,117.3208,685.3212Zm.2212-1.8076a3.0129,3.0129,0,0,0,1.7222-.52,4.6569,4.6569,0,0,0,1.3261-1.3838,7.0262,7.0262,0,0,0,.8516-1.9951,9.2293,9.2293,0,0,0,.2988-2.3672,4.3714,4.3714,0,0,0-.7212-2.7363,2.4846,2.4846,0,0,0-2.0737-.9161,3.0717,3.0717,0,0,0-1.7354.5137,4.5382,4.5382,0,0,0-1.32,1.3711,7.0338,7.0338,0,0,0-.8447,1.9893,9.2,9.2,0,0,0-.2988,2.3662,4.4553,4.4553,0,0,0,.7148,2.749A2.4635,2.4635,0,0,0,117.542,683.5136Zm5.6416-17.2119-3.1719,3.3535a1.259,1.259,0,0,1-.3511.2793.92.92,0,0,1-.416.0849h-1.2739l2.1191-3.1455a1.4256,1.4256,0,0,1,.41-.4355,1.1165,1.1165,0,0,1,.6045-.1367Z" transform="translate(-0.9775)"/><path class="c" d="M129.229,675.2978a8.2028,8.2028,0,0,1,2.3789-2.6329,4.8386,4.8386,0,0,1,2.73-.8906,3.1011,3.1011,0,0,1,1.4624.3321,2.6424,2.6424,0,0,1,1.0273.9687,4.1261,4.1261,0,0,1,.54,1.5664,7.8192,7.8192,0,0,1,0,2.1123l-.9883,8.3848h-2.3008l.9878-8.3848a4.2592,4.2592,0,0,0-.1948-2.3076,1.4155,1.4155,0,0,0-1.3911-.748,2.721,2.721,0,0,0-1.2676.3378,4.9121,4.9121,0,0,0-1.2412.9629,7.9761,7.9761,0,0,0-1.1118,1.501,10.5387,10.5387,0,0,0-.8775,1.9561l-.7539,6.6826h-2.3139L127.5,671.956h1.144a.69.69,0,0,1,.78.7812Z" transform="translate(-0.9775)"/><path class="c" d="M158.4268,665.9892l-2.3531,19.1494h-1.209a.6862.6862,0,0,1-.6108-.2334,1.0114,1.0114,0,0,1-.1562-.5723l.247-2.7695a10.37,10.37,0,0,1-1.0791,1.5469,8.037,8.037,0,0,1-1.2285,1.1836,5.334,5.334,0,0,1-1.3389.76,3.9133,3.9133,0,0,1-1.4106.2676,3.1132,3.1132,0,0,1-2.626-1.2285,5.8159,5.8159,0,0,1-.936-3.5694,10.471,10.471,0,0,1,.2212-2.1318,11.0658,11.0658,0,0,1,.63-2.041,10.01,10.01,0,0,1,.9883-1.8135,7.4289,7.4289,0,0,1,1.2935-1.4492,5.9475,5.9475,0,0,1,1.5405-.9619,4.3817,4.3817,0,0,1,1.7354-.3516,4.06,4.06,0,0,1,1.7744.3838,3.8513,3.8513,0,0,1,1.3584,1.085l.897-7.2539Zm-3.354,8.8535a2.6712,2.6712,0,0,0-1.19-.9815,3.7532,3.7532,0,0,0-1.4106-.28,3.0157,3.0157,0,0,0-1.8457.6113,5.3808,5.3808,0,0,0-1.398,1.58,8.2791,8.2791,0,0,0-.89,2.164,9.3035,9.3035,0,0,0-.312,2.3535,4.1934,4.1934,0,0,0,.5522,2.3594,1.7977,1.7977,0,0,0,1.58.8125,2.4069,2.4069,0,0,0,1.2612-.3906,5.2038,5.2038,0,0,0,1.2285-1.085,9.571,9.571,0,0,0,1.105-1.6445,13.03,13.03,0,0,0,.89-2.08Z" transform="translate(-0.9775)"/><path class="c" d="M169.8926,682.7079a11.609,11.609,0,0,1-1.3,1.1758,7.9065,7.9065,0,0,1-1.2935.8125,5.6969,5.6969,0,0,1-1.3779.4746,7.6615,7.6615,0,0,1-1.5537.15,5.2131,5.2131,0,0,1-2.0279-.377,4.2044,4.2044,0,0,1-1.521-1.0732,4.8258,4.8258,0,0,1-.9624-1.6836,6.8043,6.8043,0,0,1-.3378-2.21,9.7112,9.7112,0,0,1,.2143-2.0214,9.4835,9.4835,0,0,1,.624-1.918,8.7451,8.7451,0,0,1,1.001-1.69,6.7615,6.7615,0,0,1,1.3521-1.3457,6.3639,6.3639,0,0,1,1.6772-.8906,5.8463,5.8463,0,0,1,1.9692-.3242,4.7469,4.7469,0,0,1,1.729.2852,3.6844,3.6844,0,0,1,1.1963.7285,2.9142,2.9142,0,0,1,.6954.9746,2.5819,2.5819,0,0,1,.2275,1.0136,3.5564,3.5564,0,0,1-.3511,1.58,3.2935,3.2935,0,0,1-1.2871,1.3008,9.6337,9.6337,0,0,1-2.5737,1.0068,28.2861,28.2861,0,0,1-4.2119.6885c0,.0957-.0025.19-.0069.2793-.0044.0918-.0063.1856-.0063.28a4.0643,4.0643,0,0,0,.7607,2.6582,2.809,2.809,0,0,0,2.2945.917,4.266,4.266,0,0,0,1.1113-.1309,4.6765,4.6765,0,0,0,.8711-.3183,3.8286,3.8286,0,0,0,.6758-.416c.1953-.15.3725-.29.5332-.4161a5.3029,5.3029,0,0,1,.4487-.3183.7822.7822,0,0,1,.4155-.13.5775.5775,0,0,1,.4424.2217Zm-3.666-9.2558a3.3729,3.3729,0,0,0-1.5078.3378,4.0045,4.0045,0,0,0-1.2222.93,5.6787,5.6787,0,0,0-.91,1.3907,8.3061,8.3061,0,0,0-.5849,1.7226,25.19,25.19,0,0,0,3.2114-.5664,7.9736,7.9736,0,0,0,1.8589-.6885,1.7939,1.7939,0,0,0,1.0659-1.6963,1.2991,1.2991,0,0,0-.4356-.9492,1.79,1.79,0,0,0-.5913-.3437A2.5111,2.5111,0,0,0,166.2266,673.4521Z" transform="translate(-0.9775)"/><path class="c" d="M88.3828,701.0751a.8325.8325,0,0,1-.208.2285.4531.4531,0,0,1-.26.07.724.724,0,0,1-.3964-.1425c-.1431-.0957-.3165-.2012-.52-.3184a4.2221,4.2221,0,0,0-.7475-.3242,3.7143,3.7143,0,0,0-2.1319.0117,2.583,2.583,0,0,0-.8256.4492,2.0163,2.0163,0,0,0-.5332.67,1.8177,1.8177,0,0,0-.1885.8125,1.2481,1.2481,0,0,0,.4033.9746,3.725,3.725,0,0,0,1.0137.6309q.6108.2665,1.313.5137a6.7393,6.7393,0,0,1,1.3129.623,3.3557,3.3557,0,0,1,1.0142.9629,2.624,2.624,0,0,1,.4028,1.52,4.3827,4.3827,0,0,1-1.3842,3.2041,5.0689,5.0689,0,0,1-1.6119,1.0078,5.6517,5.6517,0,0,1-2.1127.377,5.2383,5.2383,0,0,1-2.23-.4492,4.6325,4.6325,0,0,1-1.58-1.15l.5722-.8828a.98.98,0,0,1,.2535-.2608.6347.6347,0,0,1,.7734.0908q.2081.1816.52.41a3.2117,3.2117,0,0,0,1.9893.5918,3.2248,3.2248,0,0,0,1.15-.1953,2.7284,2.7284,0,0,0,.8711-.52,2.1893,2.1893,0,0,0,.5459-.7608,2.3163,2.3163,0,0,0,.1884-.93,1.3993,1.3993,0,0,0-.4028-1.0527,3.2935,3.2935,0,0,0-1.0142-.6494q-.6116-.2594-1.313-.4873a6.6883,6.6883,0,0,1-1.3129-.5859,3.1834,3.1834,0,0,1-1.0142-.93,2.5882,2.5882,0,0,1-.4028-1.52,4.0389,4.0389,0,0,1,.3315-1.6055,4.1487,4.1487,0,0,1,.9556-1.3711,4.6653,4.6653,0,0,1,1.5141-.9561,5.3553,5.3553,0,0,1,2.0088-.3574,5.1618,5.1618,0,0,1,2.0865.3965,4.822,4.822,0,0,1,1.5532,1.0723Z" transform="translate(-0.9775)"/><path class="c" d="M95.1948,712.3212a5.1267,5.1267,0,0,1-1.976-.3711,4.3433,4.3433,0,0,1-1.5469-1.0723,4.951,4.951,0,0,1-1.0142-1.7168,6.822,6.822,0,0,1-.3638-2.3134,9.3184,9.3184,0,0,1,.52-3.1328,8.3413,8.3413,0,0,1,1.43-2.5674,6.8753,6.8753,0,0,1,2.1386-1.7364,5.6727,5.6727,0,0,1,2.6455-.6367,5.11,5.11,0,0,1,1.9761.3711,4.3182,4.3182,0,0,1,1.5469,1.0723,4.9533,4.9533,0,0,1,1.0141,1.7158,6.785,6.785,0,0,1,.3638,2.3018,9.2759,9.2759,0,0,1-.52,3.1191,8.5149,8.5149,0,0,1-1.4233,2.5742,6.8029,6.8029,0,0,1-2.1387,1.7481A5.6482,5.6482,0,0,1,95.1948,712.3212Zm.2212-1.8076a3.0126,3.0126,0,0,0,1.7222-.52,4.6584,4.6584,0,0,0,1.3262-1.3838,7.0289,7.0289,0,0,0,.8515-1.9951,9.2293,9.2293,0,0,0,.2988-2.3672,4.372,4.372,0,0,0-.7211-2.7363,2.4849,2.4849,0,0,0-2.0738-.9161,3.0712,3.0712,0,0,0-1.7353.5137,4.5373,4.5373,0,0,0-1.32,1.3711,7.0338,7.0338,0,0,0-.8447,1.9893,9.2,9.2,0,0,0-.2988,2.3662,4.4553,4.4553,0,0,0,.7148,2.749A2.4636,2.4636,0,0,0,95.416,710.5136Z" transform="translate(-0.9775)"/><path class="c" d="M107.09,702.5439a10.7564,10.7564,0,0,1,1.0791-1.5528,7.8269,7.8269,0,0,1,1.2349-1.1894,5.4255,5.4255,0,0,1,1.3457-.7608,3.9664,3.9664,0,0,1,1.4234-.2666,3.1012,3.1012,0,0,1,2.62,1.2227,5.8327,5.8327,0,0,1,.93,3.5742,10.48,10.48,0,0,1-.2212,2.1328,10.8831,10.8831,0,0,1-.63,2.0342,10.1115,10.1115,0,0,1-.9883,1.8076,7.7657,7.7657,0,0,1-1.2866,1.4551,5.7286,5.7286,0,0,1-1.54.9687,4.4324,4.4324,0,0,1-1.7422.3516,4.0063,4.0063,0,0,1-1.7681-.3848,3.8464,3.8464,0,0,1-1.352-1.0849l-.7017,5.7461h-2.249l2.145-17.6416h1.1436a.69.69,0,0,1,.78.7812Zm-.7016,6.7089a2.8016,2.8016,0,0,0,1.1826.9815,3.5742,3.5742,0,0,0,1.4043.292,2.92,2.92,0,0,0,1.2739-.2852,4.0462,4.0462,0,0,0,1.0918-.7734,5.6941,5.6941,0,0,0,.8843-1.1445,8.0275,8.0275,0,0,0,.6562-1.4043,9.6776,9.6776,0,0,0,.41-1.5469,8.9747,8.9747,0,0,0,.1431-1.58,4.1208,4.1208,0,0,0-.5591-2.3525,1.8047,1.8047,0,0,0-1.5732-.8057,2.4377,2.4377,0,0,0-1.2608.3828,5.1185,5.1185,0,0,0-1.2285,1.0733,9.3025,9.3025,0,0,0-1.105,1.6376,13.0349,13.0349,0,0,0-.8906,2.08Z" transform="translate(-0.9775)"/><path class="c" d="M122.43,712.3212a5.1272,5.1272,0,0,1-1.9761-.3711,4.3442,4.3442,0,0,1-1.5469-1.0723,4.9508,4.9508,0,0,1-1.0141-1.7168,6.822,6.822,0,0,1-.3638-2.3134,9.3183,9.3183,0,0,1,.52-3.1328,8.3433,8.3433,0,0,1,1.43-2.5674,6.8745,6.8745,0,0,1,2.1387-1.7364,5.6724,5.6724,0,0,1,2.6455-.6367,5.1108,5.1108,0,0,1,1.9761.3711,4.3178,4.3178,0,0,1,1.5468,1.0723,4.9534,4.9534,0,0,1,1.0142,1.7158,6.785,6.785,0,0,1,.3638,2.3018,9.2784,9.2784,0,0,1-.52,3.1191,8.513,8.513,0,0,1-1.4234,2.5742,6.8007,6.8007,0,0,1-2.1387,1.7481A5.6478,5.6478,0,0,1,122.43,712.3212Zm.2212-1.8076a3.0123,3.0123,0,0,0,1.7221-.52,4.6559,4.6559,0,0,0,1.3262-1.3838,7.0262,7.0262,0,0,0,.8516-1.9951,9.2293,9.2293,0,0,0,.2988-2.3672,4.3714,4.3714,0,0,0-.7212-2.7363,2.4846,2.4846,0,0,0-2.0737-.9161,3.0717,3.0717,0,0,0-1.7354.5137,4.5382,4.5382,0,0,0-1.32,1.3711,7.0309,7.0309,0,0,0-.8447,1.9893,9.2,9.2,0,0,0-.2988,2.3662,4.4553,4.4553,0,0,0,.7148,2.749A2.4635,2.4635,0,0,0,122.6509,710.5136Z" transform="translate(-0.9775)"/><path class="c" d="M134.3247,702.6357a11.2335,11.2335,0,0,1,1.1245-1.918,5.6245,5.6245,0,0,1,1.2676-1.2735,3.1259,3.1259,0,0,1,1.3652-.5585,2.6481,2.6481,0,0,1,1.43.2138l-.416,2.2237a2.6566,2.6566,0,0,0-2.9834.4941,8.6767,8.6767,0,0,0-2.1,4.2246l-.728,6.0967h-2.2618l1.586-13.1826h1.144a.696.696,0,0,1,.793.7812Z" transform="translate(-0.9775)"/><path class="c" d="M140.9551,709.6552v-.2012q0-.123.02-.3574c.0127-.1563.0342-.3594.065-.6113s.0712-.58.1235-.9883l.8057-6.59H140.5a.3708.3708,0,0,1-.2925-.124.4868.4868,0,0,1-.0845-.3838l.1041-.9228,2.0278-.2725.9883-4.0693a.7272.7272,0,0,1,.2011-.3184.4925.4925,0,0,1,.3448-.124h1.2089l-.559,4.5371h3.458l-.1949,1.6777H144.231l-.793,6.4737q-.0652.5331-.104.8584c-.0259.2168-.0454.39-.0586.5195s-.0215.2207-.0259.2734c-.0044.0508-.0063.09-.0063.1162a1.3534,1.3534,0,0,0,.312.9815,1.1084,1.1084,0,0,0,.8315.3184,1.6731,1.6731,0,0,0,.6045-.0977,2.8006,2.8006,0,0,0,.4487-.2139q.1949-.1172.3252-.2138a.3872.3872,0,0,1,.2207-.0977.2656.2656,0,0,1,.1758.0508.502.502,0,0,1,.11.17l.4941,1.1055a4.9053,4.9053,0,0,1-1.45.8769,4.4478,4.4478,0,0,1-1.6313.3184,2.75,2.75,0,0,1-1.9825-.6895A2.7158,2.7158,0,0,1,140.9551,709.6552Z" transform="translate(-0.9775)"/><path class="c" d="M159.4927,709.7079a11.609,11.609,0,0,1-1.3,1.1758,7.9065,7.9065,0,0,1-1.2935.8125,5.6969,5.6969,0,0,1-1.3779.4746,7.6615,7.6615,0,0,1-1.5537.15,5.2131,5.2131,0,0,1-2.0279-.377,4.2044,4.2044,0,0,1-1.521-1.0732,4.8258,4.8258,0,0,1-.9624-1.6836,6.8043,6.8043,0,0,1-.3378-2.21,9.7112,9.7112,0,0,1,.2143-2.0214,9.4835,9.4835,0,0,1,.624-1.918,8.7451,8.7451,0,0,1,1.001-1.69,6.7615,6.7615,0,0,1,1.3521-1.3457,6.3639,6.3639,0,0,1,1.6772-.8906,5.8463,5.8463,0,0,1,1.9692-.3242,4.7469,4.7469,0,0,1,1.729.2852,3.6844,3.6844,0,0,1,1.1963.7285,2.9138,2.9138,0,0,1,.6953.9746,2.58,2.58,0,0,1,.2276,1.0136,3.5564,3.5564,0,0,1-.3511,1.58,3.2935,3.2935,0,0,1-1.2871,1.3008,9.6337,9.6337,0,0,1-2.5737,1.0068,28.2861,28.2861,0,0,1-4.2119.6885c0,.0957-.0025.19-.0069.2793-.0044.0918-.0063.1856-.0063.28a4.0643,4.0643,0,0,0,.7607,2.6582,2.809,2.809,0,0,0,2.2945.917,4.266,4.266,0,0,0,1.1113-.1309,4.6765,4.6765,0,0,0,.8711-.3183,3.8286,3.8286,0,0,0,.6758-.416c.1953-.15.3725-.29.5332-.4161a5.3029,5.3029,0,0,1,.4487-.3183.7822.7822,0,0,1,.4155-.13.5775.5775,0,0,1,.4424.2217Zm-3.666-9.2558a3.3736,3.3736,0,0,0-1.5079.3378,4.0041,4.0041,0,0,0-1.2221.93,5.6787,5.6787,0,0,0-.91,1.3907,8.3061,8.3061,0,0,0-.5849,1.7226,25.19,25.19,0,0,0,3.2114-.5664,7.9736,7.9736,0,0,0,1.8589-.6885,1.7939,1.7939,0,0,0,1.0659-1.6963,1.2991,1.2991,0,0,0-.4356-.9492,1.79,1.79,0,0,0-.5913-.3437A2.5111,2.5111,0,0,0,155.8267,700.4521Z" transform="translate(-0.9775)"/><path class="c" d="M170.061,701.0751a.8309.8309,0,0,1-.208.2285.4528.4528,0,0,1-.26.07.724.724,0,0,1-.3965-.1425c-.1431-.0957-.3164-.2012-.52-.3184a4.2266,4.2266,0,0,0-.7476-.3242,3.7139,3.7139,0,0,0-2.1318.0117,2.5846,2.5846,0,0,0-.8257.4492,2.0176,2.0176,0,0,0-.5332.67,1.8177,1.8177,0,0,0-.1885.8125,1.2481,1.2481,0,0,0,.4033.9746,3.7266,3.7266,0,0,0,1.0137.6309q.6108.2665,1.313.5137a6.7429,6.7429,0,0,1,1.313.623,3.3565,3.3565,0,0,1,1.0141.9629,2.624,2.624,0,0,1,.4029,1.52,4.3833,4.3833,0,0,1-1.3843,3.2041,5.07,5.07,0,0,1-1.6118,1.0078,5.6526,5.6526,0,0,1-2.1128.377,5.2386,5.2386,0,0,1-2.23-.4492,4.6325,4.6325,0,0,1-1.58-1.15l.5723-.8828a.98.98,0,0,1,.2534-.2608.6347.6347,0,0,1,.7734.0908q.2081.1816.52.41a3.2123,3.2123,0,0,0,1.9893.5918,3.2248,3.2248,0,0,0,1.15-.1953,2.7273,2.7273,0,0,0,.8711-.52,2.1881,2.1881,0,0,0,.5459-.7608,2.3146,2.3146,0,0,0,.1885-.93,1.3993,1.3993,0,0,0-.4029-1.0527,3.2941,3.2941,0,0,0-1.0141-.6494q-.6117-.2594-1.313-.4873a6.6865,6.6865,0,0,1-1.313-.5859,3.1844,3.1844,0,0,1-1.0142-.93,2.5889,2.5889,0,0,1-.4028-1.52,4.0389,4.0389,0,0,1,.3315-1.6055,4.1487,4.1487,0,0,1,.9556-1.3711,4.6647,4.6647,0,0,1,1.5142-.9561,5.3544,5.3544,0,0,1,2.0087-.3574,5.1618,5.1618,0,0,1,2.0865.3965,4.822,4.822,0,0,1,1.5532,1.0723Z" transform="translate(-0.9775)"/><path class="d" d="M247.9463,688.989h0a6.03,6.03,0,0,1-5.8539-6.0371l-.2284-172.5445,12.0609.3523.2282,172.2114a6.026,6.026,0,0,1-2.9336,5.1659Z" transform="translate(-0.9775)"/><path class="e" d="M251.6675,591.7774l.3379,33.6122.4089.6428a9.0738,9.0738,0,0,0,4.4173-7.7785L256.4695,472.29l-18.16-.5305.3623,146.4654a9.0788,9.0788,0,0,0,8.8144,9.09h0l-.25-.4253-.4865-32.6043.0044-1.0586c4.693-.1017,8.3865-5.3314,8.2491-11.6811s-4.0537-11.4148-8.7466-11.3132l.1012-.4554-.1269-51.3862,4.7159,1.6614.5273,52.4517" transform="translate(-0.9775)"/><polygon class="e" points="143.634 464.368 152.916 459.798 400.439 470.18 398.42 493.49 393.297 497.408 395.28 474.923 143.634 464.368"/><polygon class="e" points="143.634 464.368 151.913 483.726 226.135 487.665 230.428 503.55 292.239 507.795 287.946 491.911 393.297 497.408 395.28 474.923 143.634 464.368"/><polygon class="e" points="287.947 491.911 292.24 507.795 295.713 503.808 292.897 492.119 287.947 491.911"/><polygon class="e" points="287.947 491.911 292.24 507.795 295.713 503.808 292.897 492.119 287.947 491.911"/><path class="e" d="M256.457,472.7034c-.0733,2.5071-4.1974,4.4205-9.2125,4.2737s-9.021-2.298-8.9469-4.8048,4.1977-4.4215,9.212-4.275,9.0209,2.2981,8.9474,4.8061" transform="translate(-0.9775)"/><path class="e" d="M256.457,472.7034c-.0733,2.5071-4.1974,4.4205-9.2125,4.2737s-9.021-2.298-8.9469-4.8048,4.1977-4.4215,9.212-4.275S256.5305,470.1954,256.457,472.7034Z" transform="translate(-0.9775)"/><polygon class="e" points="129.123 475.332 138.406 470.762 385.928 481.143 383.91 504.453 378.786 508.37 380.77 485.886 129.123 475.332"/><polygon class="e" points="129.123 475.332 131.402 494.688 211.624 498.628 211.727 514.512 272.729 518.758 273.436 502.874 378.786 508.37 380.77 485.886 129.123 475.332"/><polygon class="e" points="273.436 502.874 272.729 518.758 275.202 514.771 278.387 503.082 273.436 502.874"/><polygon class="e" points="273.436 502.874 272.729 518.758 277.727 514.987 278.387 503.082 273.436 502.874"/><polygon class="e" points="94.124 482.129 110.625 482.821 176.469 450.042 162.443 449.454 94.124 482.129"/><polygon class="e" points="94.124 482.129 110.625 482.821 176.469 450.042 162.443 449.454 94.124 482.129"/><polygon class="e" points="94.124 482.129 96.357 488.008 112.823 489.525 177.912 455.061 176.469 450.042 110.625 482.821 94.124 482.129"/><polygon class="e" points="94.124 482.129 96.357 488.008 112.823 489.525 177.912 455.061 176.469 450.042 110.625 482.821 94.124 482.129"/><line class="e" x1="110.6255" y1="482.8207" x2="112.8234" y2="489.5247"/><line class="e" x1="149.3" y1="486.9225" x2="202.9298" y2="489.1719"/><path class="e" d="M144.032,486.6385c.3044,1.3339-.17,2.58-1.0586,2.7831s-1.8576-.7145-2.162-2.0484.17-2.5791,1.06-2.7831c.8892-.2018,1.8567.7145,2.1611,2.0484" transform="translate(-0.9775)"/><path class="f" d="M246.3724,489.5554c.5665,2.483-.317,4.8027-1.97,5.18-1.6553.3777-3.4579-1.33-4.0244-3.8129s.3169-4.8008,1.9721-5.18c1.6552-.3757,3.456,1.33,4.0228,3.8129" transform="translate(-0.9775)"/><path class="e" d="M374.1584,497.9441c.3043,1.3339-.17,2.5791-1.06,2.783-.8892.2019-1.8567-.7144-2.1611-2.0483s.17-2.58,1.0585-2.7831c.89-.2029,1.8577.7145,2.1622,2.0484" transform="translate(-0.9775)"/><path class="g" d="M298.9951,542.3039c29.4431,2.5434,49.0136,6.2946,48.923,10.03-.139,5.7331-46.5358,9.2593-103.63,7.8752s-103.2661-7.154-103.1271-12.8872c.095-3.9194,21.8033-6.8071,53.7673-7.8" transform="translate(-0.9775)"/><polygon class="c" points="299.201 548.529 289.434 541.618 300.302 536.613 299.201 548.529"/><polygon class="c" points="192.436 545.677 202.564 539.306 191.983 533.719 192.436 545.677"/><path class="h" d="M250.3612,570.6188c4.6929-.1017,8.6091,4.9636,8.7467,11.3132s-3.5562,11.5793-8.2492,11.681" transform="translate(-0.9775)"/><path class="f" d="M248.83,581.22c-.1327,1.8269-1.2282,3.2364-2.4449,3.1484s-2.0984-1.6419-1.9658-3.4688,1.2277-3.2351,2.4459-3.148c1.2175.09,2.0972,1.6416,1.9648,3.4684" transform="translate(-0.9775)"/><path class="d" d="M235.3621,278.8994h0a6.03,6.03,0,0,1-5.6414-6.2362l5.7448-172.449,12.0415.77L241.7735,273.1a6.0258,6.0258,0,0,1-3.1107,5.0612Z" transform="translate(-0.9775)"/><path class="e" d="M242.4463,181.8749l-.8258,33.6037.3864.6566a9.074,9.074,0,0,0,4.6839-7.6209l4.6911-145.8888-18.1313-1.1588-4.7082,146.39a9.0789,9.0789,0,0,0,8.4944,9.39h0l-.235-.4337.6424-32.6016.0411-1.0579c4.6937.0609,8.566-5.0378,8.6486-11.3884s-3.6562-11.5484-8.35-11.6092l.117-.4517,1.45-53.5867,5.385-.0386L242.92,162.6066" transform="translate(-0.9775)"/><polygon class="e" points="135.361 92.928 142.236 85.196 375.41 1.5 384.886 22.589 381.617 28.15 372.42 7.838 135.361 92.928"/><polygon class="e" points="135.361 92.928 150.327 107.737 220.558 83.405 230.523 96.499 286.374 78.129 279.41 64.035 381.617 28.15 372.42 7.838 135.361 92.928"/><polygon class="e" points="279.41 64.036 286.374 78.129 291.088 72.127 284.074 62.362 279.41 64.036"/><polygon class="e" points="279.41 64.036 286.374 78.129 291.088 72.127 284.074 62.362 279.41 64.036"/><path class="e" d="M251.355,63.038c-.16,2.5031-4.3479,4.2725-9.3549,3.9523s-8.936-2.609-8.7752-5.1117,4.3482-4.2735,9.3545-3.9536,8.9359,2.609,8.7756,5.113" transform="translate(-0.9775)"/><path class="e" d="M251.355,63.038c-.16,2.5031-4.3479,4.2725-9.3549,3.9523s-8.936-2.609-8.7752-5.1117,4.3482-4.2735,9.3545-3.9536S251.5153,60.534,251.355,63.038Z" transform="translate(-0.9775)"/><polygon class="e" points="126.054 108.553 132.929 100.821 366.103 17.125 375.578 38.213 372.309 43.773 363.113 23.462 126.054 108.553"/><polygon class="e" points="126.054 108.553 138.02 124.361 211.251 99.029 218.215 113.123 277.067 93.754 270.102 79.66 372.309 43.773 363.113 23.462 126.054 108.553"/><polygon class="e" points="270.103 79.66 277.067 93.753 278.781 88.751 274.766 77.986 270.103 79.66"/><polygon class="e" points="270.103 79.66 277.067 93.753 278.781 88.751 274.766 77.986 270.103 79.66"/><polygon class="e" points="96.2 128.043 111.744 122.463 160.373 67.281 147.16 72.023 96.2 128.043"/><polygon class="e" points="96.2 128.043 111.744 122.463 160.373 67.281 147.16 72.023 96.2 128.043"/><polygon class="e" points="96.2 128.043 100.485 132.647 116.308 127.844 163.601 71.385 160.373 67.281 111.744 122.463 96.2 128.043"/><polygon class="e" points="96.2 128.043 100.485 132.647 116.308 127.844 163.601 71.385 160.373 67.281 111.744 122.463 96.2 128.043"/><line class="e" x1="111.7446" y1="122.4629" x2="116.3076" y2="127.8437"/><line class="e" x1="149.1121" y1="111.6824" x2="199.633" y2="93.5483"/><path class="e" d="M144.1978,113.7738c.7848,1.1208.815,2.454.0687,2.9768s-1.99.0386-2.7747-1.0822-.8146-2.453-.0679-2.9771c.7475-.5222,1.989-.0382,2.7739,1.0825" transform="translate(-0.9775)"/><path class="f" d="M240.0871,77.8948c1.4607,2.0862,1.5169,4.5678.1278,5.5411-1.3908.9738-3.7041.0718-5.1649-2.0145s-1.5163-4.566-.1264-5.5416c1.3915-.972,3.7025-.0711,5.1635,2.015" transform="translate(-0.9775)"/><path class="e" d="M361.6074,37.4913c.7847,1.1208.8146,2.453.0677,2.9771-.7475.5223-1.989.0383-2.7738-1.0825s-.8149-2.4539-.0688-2.9768c.7481-.5235,1.99-.0385,2.7749,1.0822" transform="translate(-0.9775)"/><path class="h" d="M241.8732,160.6837c4.6937.0608,8.4322,5.2586,8.35,11.6092s-3.9548,11.4493-8.6485,11.3884" transform="translate(-0.9775)"/><path class="f" d="M239.9756,171.2251c-.1958,1.8212-1.3395,3.192-2.5524,3.0619s-2.04-1.7136-1.8445-3.5347,1.3389-3.1907,2.5534-3.0615c1.2136.1318,2.0391,1.7132,1.8435,3.5343" transform="translate(-0.9775)"/><path class="c" d="M17.7935,544.62v7.6055a9.9837,9.9837,0,0,1-3.0489,1.54,11.94,11.94,0,0,1-3.4638.4873,11.5673,11.5673,0,0,1-4.167-.7148,9.3273,9.3273,0,0,1-3.1846-1.9893,8.7007,8.7007,0,0,1-2.0342-3.042,10.1816,10.1816,0,0,1-.7158-3.8613,10.6048,10.6048,0,0,1,.69-3.8867A8.5538,8.5538,0,0,1,6.9,535.7411a11.1065,11.1065,0,0,1,4.0557-.7021,11.9067,11.9067,0,0,1,2.1386.1816,10.829,10.829,0,0,1,1.8457.501,8.0675,8.0675,0,0,1,1.5538.7734,9.2658,9.2658,0,0,1,1.2871,1.001l-1.001,1.5859a.9613.9613,0,0,1-.6113.462,1.0911,1.0911,0,0,1-.8194-.1895q-.4276-.2462-.8574-.4941a5.5483,5.5483,0,0,0-.9561-.4278,7.7565,7.7565,0,0,0-1.1826-.3,8.7049,8.7049,0,0,0-1.5146-.1162,6.4982,6.4982,0,0,0-2.5156.4668,5.3247,5.3247,0,0,0-1.917,1.34,6.0236,6.0236,0,0,0-1.2227,2.0927,8.2207,8.2207,0,0,0-.4287,2.73,8.3814,8.3814,0,0,0,.4619,2.88,6.0751,6.0751,0,0,0,1.3,2.1455,5.53,5.53,0,0,0,2.0215,1.3379,7.1846,7.1846,0,0,0,2.6387.4619,7.1439,7.1439,0,0,0,1.8593-.2207,9.0988,9.0988,0,0,0,1.5987-.5986V547.246H12.269a.7166.7166,0,0,1-.5273-.1885.6291.6291,0,0,1-.1885-.4619V544.62Z" transform="translate(-0.9775)"/><path class="c" d="M24.437,536.8192a1.8282,1.8282,0,0,1-.17.7813,2.1439,2.1439,0,0,1-.4483.6367,2.1737,2.1737,0,0,1-.6562.4356,2.0339,2.0339,0,0,1-.8057.1621,1.9517,1.9517,0,0,1-.7871-.1621,2.0729,2.0729,0,0,1-1.0791-1.0723,1.8977,1.8977,0,0,1-.1621-.7813,2.0078,2.0078,0,0,1,.1621-.8046,2.0592,2.0592,0,0,1,.4356-.65,2.0972,2.0972,0,0,1,.6435-.4356,1.935,1.935,0,0,1,.7871-.1621,2.0166,2.0166,0,0,1,.8057.1621,2.1553,2.1553,0,0,1,.6562.4356,2.0753,2.0753,0,0,1,.4483.65A1.9335,1.9335,0,0,1,24.437,536.8192Zm-.4424,3.8877v13.3379H20.771V540.7069Z" transform="translate(-0.9775)"/><path class="c" d="M30.2993,543.02a5.7626,5.7626,0,0,1,1.4815-1.8779,3.16,3.16,0,0,1,2.0283-.6826,2.49,2.49,0,0,1,1.4824.4023l-.208,2.4063a.63.63,0,0,1-.1885.331.5205.5205,0,0,1-.332.0967,3.8025,3.8025,0,0,1-.5781-.0645,4.5185,4.5185,0,0,0-.7481-.0644,2.6794,2.6794,0,0,0-.9492.1562,2.3845,2.3845,0,0,0-.7471.4473,3.07,3.07,0,0,0-.5849.709,6.9123,6.9123,0,0,0-.4746.9492v8.2158H27.27V540.7069h1.8848a.7755.7755,0,0,1,.9492.8057Z" transform="translate(-0.9775)"/><path class="c" d="M42.8706,540.4989a7.2823,7.2823,0,0,1,2.6973.4805,5.9225,5.9225,0,0,1,2.08,1.3652,5.9931,5.9931,0,0,1,1.3321,2.1582,8.9208,8.9208,0,0,1,0,5.7071,6.124,6.124,0,0,1-1.3321,2.1709,5.8075,5.8075,0,0,1-2.08,1.3779,7.2823,7.2823,0,0,1-2.6973.4805,7.3647,7.3647,0,0,1-2.7168-.4805,5.7934,5.7934,0,0,1-2.0869-1.3779A6.209,6.209,0,0,1,36.728,550.21a8.8158,8.8158,0,0,1,0-5.7071,6.075,6.075,0,0,1,1.3389-2.1582,5.9076,5.9076,0,0,1,2.0869-1.3652A7.3647,7.3647,0,0,1,42.8706,540.4989Zm0,11.2715a2.8209,2.8209,0,0,0,2.4629-1.1191,5.6,5.6,0,0,0,.8-3.2754,5.6686,5.6686,0,0,0-.8-3.2891,2.81,2.81,0,0,0-2.4629-1.1308,2.8693,2.8693,0,0,0-2.5029,1.1367,5.6082,5.6082,0,0,0-.8125,3.2832,5.54,5.54,0,0,0,.8125,3.2695A2.881,2.881,0,0,0,42.8706,551.77Z" transform="translate(-0.9775)"/><path class="c" d="M58.0415,540.4853a6.9691,6.9691,0,0,1,.7539-2.3721,5.6524,5.6524,0,0,1,1.3975-1.7022,5.782,5.782,0,0,1,1.9238-1.0273,7.65,7.65,0,0,1,2.334-.3447,7.0164,7.0164,0,0,1,2.3457.37,5.36,5.36,0,0,1,1.7881,1.0273,4.4986,4.4986,0,0,1,1.1377,1.541,4.6254,4.6254,0,0,1,.3965,1.91,5.5814,5.5814,0,0,1-.2022,1.58,3.7475,3.7475,0,0,1-.5781,1.1894,3.43,3.43,0,0,1-.9365.8575,5.817,5.817,0,0,1-1.2608.5859,4.9081,4.9081,0,0,1,2.5225,1.625,4.3982,4.3982,0,0,1,.832,2.7422,5.65,5.65,0,0,1-.52,2.4824,5.3274,5.3274,0,0,1-1.4043,1.8145,6.1158,6.1158,0,0,1-2.0469,1.1113,7.96,7.96,0,0,1-2.4638.3769,8.4021,8.4021,0,0,1-2.47-.3252,5.3406,5.3406,0,0,1-1.833-.9619,5.78,5.78,0,0,1-1.3261-1.56,10.4957,10.4957,0,0,1-.9356-2.1309l1.417-.5859a1.6921,1.6921,0,0,1,1.0459-.1231,1.0167,1.0167,0,0,1,.709.5264q.233.4556.5137.8975a3.6068,3.6068,0,0,0,.6689.7861,3.1964,3.1964,0,0,0,.917.56,3.3233,3.3233,0,0,0,1.2539.2138,3.5575,3.5575,0,0,0,1.4307-.2666,3.11,3.11,0,0,0,1.02-.6953,2.8682,2.8682,0,0,0,.61-.9551,2.9419,2.9419,0,0,0,.2022-1.0605,4.898,4.898,0,0,0-.1436-1.2285,1.8268,1.8268,0,0,0-.5976-.9414,3.2592,3.2592,0,0,0-1.3067-.6114,9.419,9.419,0,0,0-2.2812-.2207V543.28a8.0867,8.0867,0,0,0,1.9629-.2207,3.3447,3.3447,0,0,0,1.2412-.5781,1.96,1.96,0,0,0,.6435-.8907,3.4477,3.4477,0,0,0,.1817-1.1445,2.6185,2.6185,0,0,0-.74-2.0137,2.7853,2.7853,0,0,0-1.9765-.6894,3.2969,3.2969,0,0,0-1.0528.1621,2.9662,2.9662,0,0,0-.8642.4551,2.8052,2.8052,0,0,0-.6436.6826,2.9551,2.9551,0,0,0-.3906.8584,1.4125,1.4125,0,0,1-.5781.7929,1.6016,1.6016,0,0,1-1.0078.0909Z" transform="translate(-0.9775)"/><path class="c" d="M78.5024,542.0712l-.65.8066a5.4241,5.4241,0,0,1,1.1767-.4218,5.878,5.878,0,0,1,1.3584-.15,6.2451,6.2451,0,0,1,2.0732.3515,5.0239,5.0239,0,0,1,1.7745,1.0586,5.2824,5.2824,0,0,1,1.2353,1.7617,5.9979,5.9979,0,0,1,.4678,2.4571,6.3256,6.3256,0,0,1-.4805,2.4638,6.0942,6.0942,0,0,1-1.3525,2.0088,6.2833,6.2833,0,0,1-2.1,1.3516,7.7637,7.7637,0,0,1-5.4141.0137,5.8928,5.8928,0,0,1-2.041-1.3457,5.8185,5.8185,0,0,1-1.294-2.08,7.75,7.75,0,0,1-.4482-2.6973,7.5269,7.5269,0,0,1,.54-2.7246,12.2644,12.2644,0,0,1,1.67-2.9043l4.4853-6.0195a1.8638,1.8638,0,0,1,.6826-.5332,2.32,2.32,0,0,1,1.0332-.2207h2.86Zm.7276,9.5557a3.7266,3.7266,0,0,0,1.4111-.2608,3.2285,3.2285,0,0,0,1.1045-.7265,3.3979,3.3979,0,0,0,.7217-1.1,3.568,3.568,0,0,0,.26-1.371A4.0107,4.0107,0,0,0,82.48,546.72a2.9638,2.9638,0,0,0-1.794-1.7754,4.0618,4.0618,0,0,0-1.4033-.2334,3.5954,3.5954,0,0,0-1.3916.26,3.1122,3.1122,0,0,0-1.0654.7217,3.3062,3.3062,0,0,0-.6895,1.0918,3.6873,3.6873,0,0,0-.247,1.3594,4.4607,4.4607,0,0,0,.2148,1.4228,2.968,2.968,0,0,0,.6367,1.0986,2.9051,2.9051,0,0,0,1.0469.709A3.83,3.83,0,0,0,79.23,551.6269Z" transform="translate(-0.9775)"/><path class="c" d="M101.2261,544.6454a15.3846,15.3846,0,0,1-.5264,4.2715,8.7349,8.7349,0,0,1-1.456,2.9961,5.8808,5.8808,0,0,1-2.1963,1.7617,6.53,6.53,0,0,1-2.7373.5781,6.4393,6.4393,0,0,1-2.7237-.5781A5.86,5.86,0,0,1,89.41,551.913a8.7239,8.7239,0,0,1-1.4434-2.9961,17.8407,17.8407,0,0,1,0-8.5479,8.7271,8.7271,0,0,1,1.4434-2.99,5.87,5.87,0,0,1,2.1767-1.7617,6.4257,6.4257,0,0,1,2.7237-.5781,6.5164,6.5164,0,0,1,2.7373.5781,5.8907,5.8907,0,0,1,2.1963,1.7617,8.7385,8.7385,0,0,1,1.456,2.99A15.3586,15.3586,0,0,1,101.2261,544.6454Zm-3.3145,0a15.8945,15.8945,0,0,0-.2988-3.3789,6.85,6.85,0,0,0-.8-2.1328,2.9294,2.9294,0,0,0-1.15-1.1113,3.03,3.03,0,0,0-1.3525-.3184,2.96,2.96,0,0,0-1.3321.3184,2.8977,2.8977,0,0,0-1.1377,1.1113,6.8148,6.8148,0,0,0-.7861,2.1328,19.6409,19.6409,0,0,0,0,6.76,6.782,6.782,0,0,0,.7861,2.1308,2.8871,2.8871,0,0,0,1.1377,1.1123,2.972,2.972,0,0,0,1.3321.3184,3.0416,3.0416,0,0,0,1.3525-.3184,2.9186,2.9186,0,0,0,1.15-1.1123,6.8164,6.8164,0,0,0,.8-2.1308A15.9083,15.9083,0,0,0,97.9116,544.6454Z" transform="translate(-0.9775)"/><path class="c" d="M109.91,540.0575a7.2508,7.2508,0,0,1-.293,2.1836,4.4835,4.4835,0,0,1-.793,1.5274,3.1953,3.1953,0,0,1-1.1758.9033,3.5477,3.5477,0,0,1-1.456.2988,3.5012,3.5012,0,0,1-1.45-.2988,3.1548,3.1548,0,0,1-1.1631-.9033,4.3942,4.3942,0,0,1-.7734-1.5274,8.706,8.706,0,0,1,0-4.375,4.4739,4.4739,0,0,1,.7734-1.541,3.0627,3.0627,0,0,1,1.1631-.9023,3.5757,3.5757,0,0,1,1.45-.293,3.6234,3.6234,0,0,1,1.456.293,3.1017,3.1017,0,0,1,1.1758.9023,4.5646,4.5646,0,0,1,.793,1.541A7.3185,7.3185,0,0,1,109.91,540.0575Zm-2.3272,0a10.1363,10.1363,0,0,0-.0976-1.5742,2.9,2.9,0,0,0-.2862-.9355,1.0206,1.0206,0,0,0-.4414-.4551,1.4224,1.4224,0,0,0-1.1308,0,.9594.9594,0,0,0-.43.4551,3.0727,3.0727,0,0,0-.2666.9355,10.9191,10.9191,0,0,0-.0908,1.5742,9.3156,9.3156,0,0,0,.1044,1.5586,3.0154,3.0154,0,0,0,.292.9365,1.0315,1.0315,0,0,0,.4356.4551,1.2,1.2,0,0,0,.52.1172,1.27,1.27,0,0,0,.5391-.1172,1.022,1.022,0,0,0,.4423-.4551,3.1615,3.1615,0,0,0,.2989-.9365A8.9309,8.9309,0,0,0,107.5825,540.0575Z" transform="translate(-0.9775)"/><line class="g" x1="241.2271" y1="651.4872" x2="179.2271" y2="651.4872"/><circle class="c" cx="241.2271" cy="651.4872" r="4.5117"/><path class="c" d="M343.5181,593.51a9.3146,9.3146,0,0,1,2.49.292,4.8128,4.8128,0,0,1,1.7222.832,3.2928,3.2928,0,0,1,1.001,1.3135,4.4014,4.4014,0,0,1,.3252,1.7217,5.1944,5.1944,0,0,1-.2408,1.58,4.6747,4.6747,0,0,1-.7148,1.3975,4.9981,4.9981,0,0,1-1.1958,1.1318,6.27,6.27,0,0,1-1.6836.793,4.6327,4.6327,0,0,1,2.5156,1.3125,3.47,3.47,0,0,1,.8384,2.4043,5.9063,5.9063,0,0,1-.4614,2.3594,5.239,5.239,0,0,1-1.3325,1.8535,6.1178,6.1178,0,0,1-2.1255,1.209,8.7356,8.7356,0,0,1-2.8277.4287h-6.123l2.2881-18.6289Zm-1.4952,16.7051a5.522,5.522,0,0,0,1.82-.2725,3.4274,3.4274,0,0,0,1.2934-.7813,3.2451,3.2451,0,0,0,.7735-1.2216,4.69,4.69,0,0,0,.26-1.6123,2.5057,2.5057,0,0,0-.8252-1.9688,3.6934,3.6934,0,0,0-2.5156-.7344h-3.6528l-.8062,6.5909Zm-1.833-14.794-.7929,6.4863H342.4a5.4856,5.4856,0,0,0,1.8393-.2793,3.6294,3.6294,0,0,0,1.313-.7793,3.1422,3.1422,0,0,0,.7867-1.2031,4.4337,4.4337,0,0,0,.26-1.5469,2.4577,2.4577,0,0,0-.8061-2.0078,3.854,3.854,0,0,0-2.4956-.67Z" transform="translate(-0.9775)"/><path class="c" d="M358.9878,608.6669a11.2789,11.2789,0,0,1-1.0073,1.5088,7.03,7.03,0,0,1-1.1441,1.15,4.9608,4.9608,0,0,1-1.2739.7344,3.8053,3.8053,0,0,1-1.3843.2607,3.2278,3.2278,0,0,1-1.417-.3066,2.9485,2.9485,0,0,1-1.0859-.8965,4.3691,4.3691,0,0,1-.6953-1.4561,7.2338,7.2338,0,0,1-.2471-1.9824,8.9466,8.9466,0,0,1,.2925-2.2822,9.2829,9.2829,0,0,1,2.1255-3.9121,8.6341,8.6341,0,0,1,1.6836-1.43,8.0089,8.0089,0,0,1,1.9956-.9366,7.4656,7.4656,0,0,1,2.2358-.331,9.6691,9.6691,0,0,1,1.6445.1367,6.8037,6.8037,0,0,1,1.58.4736l-1.5732,12.74H359.521a.7063.7063,0,0,1-.6177-.2334.9807.9807,0,0,1-.1621-.5723Zm.8843-8.0859a3.8577,3.8577,0,0,0-.5655-.084c-.1865-.0127-.3706-.02-.5527-.02a4.5268,4.5268,0,0,0-1.5078.254,5.37,5.37,0,0,0-1.3652.708,6.0516,6.0516,0,0,0-1.1568,1.0859,7.0956,7.0956,0,0,0-.8906,1.3838,7.9042,7.9042,0,0,0-.5786,1.6055,7.3436,7.3436,0,0,0-.208,1.749q0,3.1332,2.0019,3.1328A2.2649,2.2649,0,0,0,356.2969,610a4.8526,4.8526,0,0,0,1.1635-1.1045,9.3007,9.3007,0,0,0,1.0206-1.6777,15.6691,15.6691,0,0,0,.832-2.125Z" transform="translate(-0.9775)"/><path class="c" d="M367.4375,602.6357a11.2335,11.2335,0,0,1,1.1245-1.918,5.6245,5.6245,0,0,1,1.2676-1.2735,3.1259,3.1259,0,0,1,1.3652-.5585,2.6481,2.6481,0,0,1,1.43.2138l-.416,2.2237a2.6566,2.6566,0,0,0-2.9834.4941,8.6767,8.6767,0,0,0-2.1,4.2246l-.728,6.0967h-2.2618l1.586-13.1826h1.144a.696.696,0,0,1,.793.7812Z" transform="translate(-0.9775)"/><path class="c" d="M376.33,602.6357a11.2335,11.2335,0,0,1,1.1245-1.918,5.6245,5.6245,0,0,1,1.2676-1.2735,3.1259,3.1259,0,0,1,1.3652-.5585,2.6481,2.6481,0,0,1,1.43.2138l-.416,2.2237a2.6566,2.6566,0,0,0-2.9834.4941,8.6767,8.6767,0,0,0-2.1,4.2246l-.728,6.0967h-2.2618l1.586-13.1826h1.144a.696.696,0,0,1,.793.7812Z" transform="translate(-0.9775)"/><path class="c" d="M390.0576,608.6669a11.2693,11.2693,0,0,1-1.0073,1.5088,7.03,7.03,0,0,1-1.144,1.15,4.963,4.963,0,0,1-1.274.7344,3.8053,3.8053,0,0,1-1.3843.2607,3.2274,3.2274,0,0,1-1.4169-.3066,2.9488,2.9488,0,0,1-1.086-.8965,4.371,4.371,0,0,1-.6953-1.4561,7.2376,7.2376,0,0,1-.2471-1.9824,8.9466,8.9466,0,0,1,.2925-2.2822,9.2829,9.2829,0,0,1,2.1255-3.9121,8.637,8.637,0,0,1,1.6836-1.43,8.0105,8.0105,0,0,1,1.9956-.9366,7.4665,7.4665,0,0,1,2.2358-.331,9.67,9.67,0,0,1,1.6446.1367,6.8066,6.8066,0,0,1,1.58.4736l-1.5733,12.74h-1.1958a.7063.7063,0,0,1-.6177-.2334.9807.9807,0,0,1-.1621-.5723Zm.8843-8.0859a3.8584,3.8584,0,0,0-.5654-.084c-.1866-.0127-.3706-.02-.5528-.02a4.5272,4.5272,0,0,0-1.5078.254,5.3716,5.3716,0,0,0-1.3652.708,6.0516,6.0516,0,0,0-1.1568,1.0859,7.1,7.1,0,0,0-.8906,1.3838,7.91,7.91,0,0,0-.5786,1.6055,7.3436,7.3436,0,0,0-.208,1.749q0,3.1332,2.002,3.1328a2.2643,2.2643,0,0,0,1.248-.3965,4.8547,4.8547,0,0,0,1.1636-1.1045,9.3006,9.3006,0,0,0,1.02-1.6777,15.6691,15.6691,0,0,0,.832-2.125Z" transform="translate(-0.9775)"/><path class="c" d="M347.2754,625.97l-6.604,13.169h-1.9243l-3.4058-13.169h1.8721a.5953.5953,0,0,1,.416.1426.7037.7037,0,0,1,.2075.3379l1.95,8.4766q.0784.495.13.9746c.0347.32.0649.6465.0913.9746q.1428-.48.312-.961t.39-.9882l4.0693-8.4766a.958.958,0,0,1,.2856-.3437.6716.6716,0,0,1,.4161-.1368Z" transform="translate(-0.9775)"/><path class="c" d="M358.0127,636.7079a11.609,11.609,0,0,1-1.3,1.1758,7.9065,7.9065,0,0,1-1.2935.8125,5.6954,5.6954,0,0,1-1.3779.4746,7.6608,7.6608,0,0,1-1.5537.15,5.2122,5.2122,0,0,1-2.0278-.377,4.2027,4.2027,0,0,1-1.521-1.0732,4.8227,4.8227,0,0,1-.9624-1.6836,6.8042,6.8042,0,0,1-.3379-2.21,9.7112,9.7112,0,0,1,.2143-2.0214,9.4775,9.4775,0,0,1,.6241-1.918,8.74,8.74,0,0,1,1.0009-1.69,6.7641,6.7641,0,0,1,1.3521-1.3457,6.3639,6.3639,0,0,1,1.6772-.8906,5.8469,5.8469,0,0,1,1.9693-.3242,4.7476,4.7476,0,0,1,1.729.2852,3.6865,3.6865,0,0,1,1.1963.7285,2.9152,2.9152,0,0,1,.6953.9746,2.5819,2.5819,0,0,1,.2275,1.0136,3.5564,3.5564,0,0,1-.3511,1.58,3.2935,3.2935,0,0,1-1.2871,1.3008,9.6337,9.6337,0,0,1-2.5737,1.0068,28.2861,28.2861,0,0,1-4.2119.6885c0,.0957-.0025.19-.0069.2793-.0044.0918-.0063.1856-.0063.28a4.0643,4.0643,0,0,0,.7607,2.6582,2.809,2.809,0,0,0,2.2945.917,4.266,4.266,0,0,0,1.1113-.1309,4.6765,4.6765,0,0,0,.8711-.3183,3.8213,3.8213,0,0,0,.6758-.416c.1953-.15.3725-.29.5332-.4161a5.3029,5.3029,0,0,1,.4487-.3183.7825.7825,0,0,1,.4155-.13.5775.5775,0,0,1,.4424.2217Zm-3.666-9.2558a3.3732,3.3732,0,0,0-1.5078.3378,4.0045,4.0045,0,0,0-1.2222.93,5.6787,5.6787,0,0,0-.91,1.3907,8.3119,8.3119,0,0,0-.5849,1.7226,25.1831,25.1831,0,0,0,3.2114-.5664,7.9736,7.9736,0,0,0,1.8589-.6885,1.7939,1.7939,0,0,0,1.0659-1.6963,1.2994,1.2994,0,0,0-.4355-.9492,1.792,1.792,0,0,0-.5913-.3437A2.5117,2.5117,0,0,0,354.3467,627.4521Z" transform="translate(-0.9775)"/><path class="c" d="M363.394,629.6357a11.2271,11.2271,0,0,1,1.1246-1.918,5.6242,5.6242,0,0,1,1.2675-1.2735,3.1258,3.1258,0,0,1,1.3653-.5585,2.6484,2.6484,0,0,1,1.43.2138l-.4161,2.2237a2.6567,2.6567,0,0,0-2.9834.4941,8.6767,8.6767,0,0,0-2.1,4.2246l-.728,6.0967h-2.2617l1.5859-13.1826h1.1441a.6959.6959,0,0,1,.7929.7812Z" transform="translate(-0.9775)"/><path class="c" d="M381.6851,627.8808l-1.378,11.2578h-2.249l1.3911-11.2578H373.3l-.8062,6.5q-.0651.5331-.104.8584c-.0258.2168-.0454.39-.0586.5195s-.0214.2207-.0258.2734c-.0044.0508-.0064.09-.0064.1162a1.3534,1.3534,0,0,0,.312.9815,1.1258,1.1258,0,0,0,.8448.3184,1.6874,1.6874,0,0,0,.5981-.0977,2.5122,2.5122,0,0,0,.4487-.2139q.1882-.1172.3184-.2138a.3962.3962,0,0,1,.2339-.0977.2438.2438,0,0,1,.1626.0508.6691.6691,0,0,1,.1235.17l.481,1.1055a4.7306,4.7306,0,0,1-1.4366.8769,4.4478,4.4478,0,0,1-1.6313.3184,2.774,2.774,0,0,1-1.9893-.6895,2.7015,2.7015,0,0,1-.7539-2.0019c0-.0518.002-.1192.0064-.2012s.0132-.2012.0263-.3574.0323-.3594.0582-.6113.0654-.58.1171-.9883l.8189-6.6162h-1.43a.402.402,0,0,1-.312-.13.47.47,0,0,1-.0913-.377l.104-.8847,2.0024-.26.9878-4.0947a.7291.7291,0,0,1,.2017-.3184.49.49,0,0,1,.3442-.124h1.2222l-.5591,4.5508H381.88Zm1.3393-6.0459a1.4667,1.4667,0,0,1-.1367.6308,1.8093,1.8093,0,0,1-.3638.5205,1.7288,1.7288,0,0,1-.52.3575,1.47,1.47,0,0,1-.6045.13,1.3938,1.3938,0,0,1-.5849-.13,1.58,1.58,0,0,1-.5-.3575,1.831,1.831,0,0,1-.3448-.5205,1.5293,1.5293,0,0,1-.13-.6308,1.5768,1.5768,0,0,1,.13-.6367,1.7253,1.7253,0,0,1,.3511-.5254,1.7662,1.7662,0,0,1,.5068-.3653,1.3605,1.3605,0,0,1,.585-.1357,1.4834,1.4834,0,0,1,.6045.13,1.6255,1.6255,0,0,1,.5137.3574,1.8378,1.8378,0,0,1,.3574.5332A1.5518,1.5518,0,0,1,383.0244,621.8349Z" transform="translate(-0.9775)"/><path class="c" d="M393.749,636.7724a11.9012,11.9012,0,0,1-1.2866,1.2353,6.2849,6.2849,0,0,1-1.2222.7862,4.9183,4.9183,0,0,1-1.2675.41,8.0315,8.0315,0,0,1-1.4107.1172,4.94,4.94,0,0,1-2.0215-.3906,3.99,3.99,0,0,1-1.4687-1.0987,4.83,4.83,0,0,1-.897-1.7021,7.4458,7.4458,0,0,1-.3057-2.1914,9.4575,9.4575,0,0,1,.5-3.0684,8.6246,8.6246,0,0,1,1.3975-2.6,6.9557,6.9557,0,0,1,2.1387-1.8066,5.5694,5.5694,0,0,1,2.71-.6758,4.7151,4.7151,0,0,1,2.1973.4609,4.5958,4.5958,0,0,1,1.5469,1.3457l-.7281.8711a.84.84,0,0,1-.2016.169.4858.4858,0,0,1-.2535.0654.5273.5273,0,0,1-.3574-.1631,4.6247,4.6247,0,0,0-.4614-.3642,3.2628,3.2628,0,0,0-.7085-.3633,3.0392,3.0392,0,0,0-1.0854-.1631,3.1813,3.1813,0,0,0-1.69.4873,4.768,4.768,0,0,0-1.3906,1.333,6.7962,6.7962,0,0,0-.9429,2.002,8.6667,8.6667,0,0,0-.3442,2.4834,5.4554,5.4554,0,0,0,.1821,1.4619,3.1232,3.1232,0,0,0,.5459,1.1181,2.5038,2.5038,0,0,0,.8906.7149,2.8017,2.8017,0,0,0,1.2286.2539,3.6455,3.6455,0,0,0,1.4624-.26,4.9337,4.9337,0,0,0,.9941-.5664q.4029-.3047.6826-.5644a.8235.8235,0,0,1,.5528-.2608.5759.5759,0,0,1,.4418.2217Z" transform="translate(-0.9775)"/><path class="c" d="M403.8369,635.6669a11.2693,11.2693,0,0,1-1.0073,1.5088,7.0261,7.0261,0,0,1-1.1441,1.15,4.9608,4.9608,0,0,1-1.2739.7344,3.8053,3.8053,0,0,1-1.3843.2607,3.2274,3.2274,0,0,1-1.4169-.3066,2.948,2.948,0,0,1-1.086-.8965,4.371,4.371,0,0,1-.6953-1.4561,7.2376,7.2376,0,0,1-.2471-1.9824,8.9466,8.9466,0,0,1,.2925-2.2822A9.2829,9.2829,0,0,1,398,628.4853a8.637,8.637,0,0,1,1.6836-1.43,8.0105,8.0105,0,0,1,1.9956-.9366,7.466,7.466,0,0,1,2.2358-.331,9.67,9.67,0,0,1,1.6446.1367,6.8066,6.8066,0,0,1,1.58.4736l-1.5733,12.74H404.37a.7063.7063,0,0,1-.6177-.2334.9807.9807,0,0,1-.1621-.5723Zm.8843-8.0859a3.8584,3.8584,0,0,0-.5654-.084c-.1866-.0127-.3706-.02-.5528-.02a4.5272,4.5272,0,0,0-1.5078.254,5.3716,5.3716,0,0,0-1.3652.708,6.0516,6.0516,0,0,0-1.1568,1.0859,7.1,7.1,0,0,0-.8906,1.3838,7.9042,7.9042,0,0,0-.5786,1.6055,7.3436,7.3436,0,0,0-.208,1.749q0,3.1332,2.0019,3.1328A2.2644,2.2644,0,0,0,401.146,637a4.8547,4.8547,0,0,0,1.1636-1.1045,9.3006,9.3006,0,0,0,1.0205-1.6777,15.6691,15.6691,0,0,0,.832-2.125Z" transform="translate(-0.9775)"/><path class="c" d="M409.05,639.1386l2.3272-19.1494h2.2749l-2.3272,19.1494Z" transform="translate(-0.9775)"/><path class="c" d="M433.5674,619.9892l-2.353,19.1494h-1.209a.6864.6864,0,0,1-.6109-.2334,1.0114,1.0114,0,0,1-.1562-.5723l.2471-2.7695a10.3773,10.3773,0,0,1-1.0791,1.5469,8.0421,8.0421,0,0,1-1.2286,1.1836,5.3352,5.3352,0,0,1-1.3388.76,3.9143,3.9143,0,0,1-1.4107.2676,3.1135,3.1135,0,0,1-2.626-1.2285,5.8159,5.8159,0,0,1-.936-3.5694,10.471,10.471,0,0,1,.2212-2.1318,11.066,11.066,0,0,1,.63-2.041,9.9978,9.9978,0,0,1,.9883-1.8135A7.4284,7.4284,0,0,1,424,627.0878a5.9509,5.9509,0,0,1,1.5405-.9619,4.3821,4.3821,0,0,1,1.7354-.3516,4.06,4.06,0,0,1,1.7744.3838,3.8513,3.8513,0,0,1,1.3584,1.085l.897-7.2539Zm-3.354,8.8535a2.6712,2.6712,0,0,0-1.1895-.9815,3.7528,3.7528,0,0,0-1.4106-.28,3.0157,3.0157,0,0,0-1.8457.6113,5.3822,5.3822,0,0,0-1.398,1.58,8.2791,8.2791,0,0,0-.89,2.164,9.3035,9.3035,0,0,0-.312,2.3535,4.1943,4.1943,0,0,0,.5522,2.3594,1.7977,1.7977,0,0,0,1.58.8125,2.4069,2.4069,0,0,0,1.2612-.3906,5.2041,5.2041,0,0,0,1.2286-1.085,9.5708,9.5708,0,0,0,1.1049-1.6445,13.03,13.03,0,0,0,.89-2.08Z" transform="translate(-0.9775)"/><path class="c" d="M445.0332,636.7079a11.609,11.609,0,0,1-1.3,1.1758,7.9065,7.9065,0,0,1-1.2935.8125,5.6939,5.6939,0,0,1-1.3779.4746,7.6608,7.6608,0,0,1-1.5537.15,5.2122,5.2122,0,0,1-2.0278-.377,4.2027,4.2027,0,0,1-1.521-1.0732,4.8258,4.8258,0,0,1-.9624-1.6836,6.8042,6.8042,0,0,1-.3379-2.21,9.718,9.718,0,0,1,.2143-2.0214,9.4775,9.4775,0,0,1,.6241-1.918,8.74,8.74,0,0,1,1.0009-1.69,6.7667,6.7667,0,0,1,1.3521-1.3457,6.3639,6.3639,0,0,1,1.6772-.8906,5.8469,5.8469,0,0,1,1.9693-.3242,4.7473,4.7473,0,0,1,1.729.2852,3.6855,3.6855,0,0,1,1.1963.7285,2.9152,2.9152,0,0,1,.6953.9746,2.5819,2.5819,0,0,1,.2275,1.0136,3.5564,3.5564,0,0,1-.3511,1.58,3.2921,3.2921,0,0,1-1.2871,1.3008,9.6337,9.6337,0,0,1-2.5737,1.0068,28.2861,28.2861,0,0,1-4.2119.6885c0,.0957-.0025.19-.0068.2793-.0044.0918-.0064.1856-.0064.28a4.0643,4.0643,0,0,0,.7607,2.6582,2.809,2.809,0,0,0,2.2945.917,4.266,4.266,0,0,0,1.1113-.1309,4.6765,4.6765,0,0,0,.8711-.3183,3.8213,3.8213,0,0,0,.6758-.416c.1953-.15.3725-.29.5332-.4161a5.319,5.319,0,0,1,.4487-.3183.7825.7825,0,0,1,.4155-.13.5773.5773,0,0,1,.4424.2217Zm-3.666-9.2558a3.3732,3.3732,0,0,0-1.5078.3378,4.0045,4.0045,0,0,0-1.2222.93,5.6755,5.6755,0,0,0-.91,1.3907,8.3062,8.3062,0,0,0-.585,1.7226,25.1831,25.1831,0,0,0,3.2114-.5664,7.9736,7.9736,0,0,0,1.8589-.6885,1.7939,1.7939,0,0,0,1.0659-1.6963,1.2994,1.2994,0,0,0-.4355-.9492,1.7909,1.7909,0,0,0-.5913-.3437A2.5117,2.5117,0,0,0,441.3672,627.4521Z" transform="translate(-0.9775)"/><path class="c" d="M335.1982,666.1386l1.586-13.1826h1.144a.696.696,0,0,1,.793.7812l-.1821,2.34a8.1268,8.1268,0,0,1,2.1386-2.4639,4.1032,4.1032,0,0,1,2.4375-.8389,2.24,2.24,0,0,1,1.9761.917,4.5594,4.5594,0,0,1,.6367,2.6192,7.5918,7.5918,0,0,1,2.2036-2.6709,4.4357,4.4357,0,0,1,2.5938-.8653,2.4929,2.4929,0,0,1,2.3916,1.3008,6.2449,6.2449,0,0,1,.416,3.6787l-.9878,8.3848h-2.2881l1.001-8.3848a5.2785,5.2785,0,0,0-.0977-2.3017,1.1879,1.1879,0,0,0-1.2543-.7539,2.4508,2.4508,0,0,0-1.1114.2792,4.0543,4.0543,0,0,0-1.0727.82,6.466,6.466,0,0,0-.9683,1.3379,10.8736,10.8736,0,0,0-.7993,1.84v.0137l-.8452,7.1494h-2.2881l.9883-8.3848a5.66,5.66,0,0,0-.0523-2.3017,1.13,1.13,0,0,0-1.2221-.7539,2.4978,2.4978,0,0,0-1.2022.3125,3.9477,3.9477,0,0,0-1.0923.9033,7.4248,7.4248,0,0,0-.9555,1.4424,13.9412,13.9412,0,0,0-.8057,1.9179l-.8193,6.8643Z" transform="translate(-0.9775)"/><path class="c" d="M360.561,666.3212a5.1267,5.1267,0,0,1-1.976-.3711,4.3433,4.3433,0,0,1-1.5469-1.0723,4.951,4.951,0,0,1-1.0142-1.7168,6.8245,6.8245,0,0,1-.3637-2.3134,9.3183,9.3183,0,0,1,.52-3.1328,8.3413,8.3413,0,0,1,1.43-2.5674,6.8753,6.8753,0,0,1,2.1386-1.7364,5.6727,5.6727,0,0,1,2.6455-.6367,5.11,5.11,0,0,1,1.9761.3711,4.3182,4.3182,0,0,1,1.5469,1.0723,4.955,4.955,0,0,1,1.0142,1.7158,6.7875,6.7875,0,0,1,.3637,2.3018,9.2759,9.2759,0,0,1-.52,3.1191,8.5149,8.5149,0,0,1-1.4233,2.5742,6.8029,6.8029,0,0,1-2.1387,1.7481A5.6482,5.6482,0,0,1,360.561,666.3212Zm.2212-1.8076a3.0124,3.0124,0,0,0,1.7222-.52,4.6584,4.6584,0,0,0,1.3262-1.3838,7.0289,7.0289,0,0,0,.8515-1.9951,9.2293,9.2293,0,0,0,.2989-2.3672,4.372,4.372,0,0,0-.7212-2.7363,2.4849,2.4849,0,0,0-2.0738-.9161,3.0712,3.0712,0,0,0-1.7353.5137,4.537,4.537,0,0,0-1.32,1.3711,7.0339,7.0339,0,0,0-.8448,1.9893,9.2,9.2,0,0,0-.2988,2.3662,4.4553,4.4553,0,0,0,.7148,2.749A2.4636,2.4636,0,0,0,360.7822,664.5136Z" transform="translate(-0.9775)"/><path class="c" d="M381.2314,652.97l-6.604,13.169h-1.9243l-3.4057-13.169h1.872a.5951.5951,0,0,1,.416.1426.7032.7032,0,0,1,.2076.3379l1.95,8.4766q.0783.495.13.9746c.0347.32.065.6465.0914.9746q.1428-.48.312-.961t.39-.9882l4.0694-8.4766a.958.958,0,0,1,.2856-.3437.6715.6715,0,0,1,.416-.1368Z" transform="translate(-0.9775)"/><path class="c" d="M385.5986,652.97l-1.5859,13.169h-2.2749l1.5859-13.169Zm.8843-4.1347a1.4667,1.4667,0,0,1-.1367.6308,1.8093,1.8093,0,0,1-.3638.5205,1.7288,1.7288,0,0,1-.52.3575,1.47,1.47,0,0,1-.6045.13,1.3945,1.3945,0,0,1-.585-.13,1.5861,1.5861,0,0,1-.5-.3575,1.831,1.831,0,0,1-.3448-.5205,1.5374,1.5374,0,0,1-.13-.6308,1.5852,1.5852,0,0,1,.13-.6367,1.7234,1.7234,0,0,1,.3511-.5254,1.7662,1.7662,0,0,1,.5068-.3653,1.3622,1.3622,0,0,1,.585-.1357,1.4834,1.4834,0,0,1,.6045.13,1.6255,1.6255,0,0,1,.5137.3574,1.8378,1.8378,0,0,1,.3574.5332A1.5518,1.5518,0,0,1,386.4829,648.8349Z" transform="translate(-0.9775)"/><path class="c" d="M387.5879,666.1386l1.5859-13.1826h1.1441a.6959.6959,0,0,1,.7929.7812l-.1821,2.34a8.1256,8.1256,0,0,1,2.1387-2.4639,4.1032,4.1032,0,0,1,2.4375-.8389,2.24,2.24,0,0,1,1.9761.917,4.5594,4.5594,0,0,1,.6367,2.6192,7.5908,7.5908,0,0,1,2.2036-2.6709,4.4354,4.4354,0,0,1,2.5937-.8653,2.4928,2.4928,0,0,1,2.3916,1.3008,6.2448,6.2448,0,0,1,.4161,3.6787l-.9878,8.3848h-2.2881l1.001-8.3848a5.2816,5.2816,0,0,0-.0977-2.3017,1.188,1.188,0,0,0-1.2544-.7539,2.45,2.45,0,0,0-1.1113.2792,4.0531,4.0531,0,0,0-1.0728.82,6.4658,6.4658,0,0,0-.9682,1.3379,10.8655,10.8655,0,0,0-.7994,1.84v.0137l-.8452,7.1494h-2.2881l.9883-8.3848a5.6627,5.6627,0,0,0-.0522-2.3017,1.1306,1.1306,0,0,0-1.2222-.7539,2.4974,2.4974,0,0,0-1.2021.3125,3.9463,3.9463,0,0,0-1.0923.9033,7.425,7.425,0,0,0-.9556,1.4424,13.9536,13.9536,0,0,0-.8057,1.9179l-.8193,6.8643Z" transform="translate(-0.9775)"/><path class="c" d="M412.0405,652.97l-1.5859,13.169H408.18l1.5859-13.169Zm.8843-4.1347a1.4667,1.4667,0,0,1-.1367.6308,1.8093,1.8093,0,0,1-.3638.5205,1.7288,1.7288,0,0,1-.52.3575,1.47,1.47,0,0,1-.6045.13,1.3945,1.3945,0,0,1-.585-.13,1.5861,1.5861,0,0,1-.5-.3575,1.831,1.831,0,0,1-.3448-.5205,1.5374,1.5374,0,0,1-.13-.6308,1.5853,1.5853,0,0,1,.13-.6367,1.7234,1.7234,0,0,1,.3511-.5254,1.7662,1.7662,0,0,1,.5068-.3653,1.3622,1.3622,0,0,1,.585-.1357,1.4834,1.4834,0,0,1,.6045.13,1.6255,1.6255,0,0,1,.5137.3574,1.8378,1.8378,0,0,1,.3574.5332A1.5518,1.5518,0,0,1,412.9248,648.8349Z" transform="translate(-0.9775)"/><path class="c" d="M424.3906,663.7079a11.609,11.609,0,0,1-1.3,1.1758,7.9058,7.9058,0,0,1-1.2934.8125,5.6962,5.6962,0,0,1-1.378.4746,7.6608,7.6608,0,0,1-1.5537.15,5.2122,5.2122,0,0,1-2.0278-.377,4.2027,4.2027,0,0,1-1.521-1.0732,4.8258,4.8258,0,0,1-.9624-1.6836,6.8042,6.8042,0,0,1-.3379-2.21,9.7114,9.7114,0,0,1,.2144-2.0214,9.471,9.471,0,0,1,.624-1.918,8.735,8.735,0,0,1,1.001-1.69,6.7636,6.7636,0,0,1,1.352-1.3457,6.363,6.363,0,0,1,1.6773-.8906,5.8459,5.8459,0,0,1,1.9692-.3242,4.7473,4.7473,0,0,1,1.729.2852,3.6855,3.6855,0,0,1,1.1963.7285,2.9152,2.9152,0,0,1,.6953.9746,2.58,2.58,0,0,1,.2275,1.0136,3.5577,3.5577,0,0,1-.351,1.58,3.2935,3.2935,0,0,1-1.2871,1.3008,9.636,9.636,0,0,1-2.5738,1.0068,28.2861,28.2861,0,0,1-4.2119.6885c0,.0957-.0024.19-.0068.2793-.0044.0918-.0064.1856-.0064.28a4.0637,4.0637,0,0,0,.7608,2.6582,2.8088,2.8088,0,0,0,2.2944.917,4.266,4.266,0,0,0,1.1113-.1309,4.6739,4.6739,0,0,0,.8711-.3183,3.8213,3.8213,0,0,0,.6758-.416c.1953-.15.3726-.29.5332-.4161a5.3353,5.3353,0,0,1,.4487-.3183.7826.7826,0,0,1,.4156-.13.5773.5773,0,0,1,.4423.2217Zm-3.666-9.2558a3.3732,3.3732,0,0,0-1.5078.3378,4.0045,4.0045,0,0,0-1.2222.93,5.6784,5.6784,0,0,0-.91,1.3907,8.3062,8.3062,0,0,0-.585,1.7226,25.1831,25.1831,0,0,0,3.2114-.5664,7.9736,7.9736,0,0,0,1.8589-.6885,1.7939,1.7939,0,0,0,1.0659-1.6963,1.2994,1.2994,0,0,0-.4355-.9492,1.7909,1.7909,0,0,0-.5913-.3437A2.5117,2.5117,0,0,0,420.7246,654.4521Z" transform="translate(-0.9775)"/><path class="c" d="M429.7852,656.2978a8.2017,8.2017,0,0,1,2.3789-2.6329,4.838,4.838,0,0,1,2.73-.8906,3.1011,3.1011,0,0,1,1.4624.3321,2.6426,2.6426,0,0,1,1.0274.9687,4.1277,4.1277,0,0,1,.5395,1.5664,7.811,7.811,0,0,1,0,2.1123l-.9882,8.3848h-2.3008l.9878-8.3848a4.259,4.259,0,0,0-.1949-2.3076,1.4154,1.4154,0,0,0-1.3911-.748,2.7207,2.7207,0,0,0-1.2675.3378,4.9125,4.9125,0,0,0-1.2413.9629,7.9761,7.9761,0,0,0-1.1118,1.501,10.5386,10.5386,0,0,0-.8774,1.9561l-.7539,6.6826H426.47l1.586-13.1826H429.2a.69.69,0,0,1,.78.7812Z" transform="translate(-0.9775)"/><path class="c" d="M441.29,663.6552v-.2012q0-.123.02-.3574c.0127-.1563.0342-.3594.0649-.6113s.0713-.58.1235-.9883l.8057-6.59H440.835a.3706.3706,0,0,1-.2925-.124.4864.4864,0,0,1-.0845-.3838l.104-.9228,2.0278-.2725.9883-4.0693a.7283.7283,0,0,1,.2012-.3184.4925.4925,0,0,1,.3447-.124h1.209l-.5591,4.5371h3.458l-.1948,1.6777h-3.4712l-.793,6.4737q-.0651.5331-.104.8584c-.0258.2168-.0454.39-.0585.5195s-.0215.2207-.0259.2734c-.0044.0508-.0064.09-.0064.1162a1.3534,1.3534,0,0,0,.312.9815,1.1086,1.1086,0,0,0,.8316.3184,1.6734,1.6734,0,0,0,.6045-.0977,2.8047,2.8047,0,0,0,.4487-.2139q.1949-.1172.3252-.2138a.3869.3869,0,0,1,.2207-.0977.266.266,0,0,1,.1758.0508.502.502,0,0,1,.11.17l.4942,1.1055a4.9053,4.9053,0,0,1-1.45.8769,4.4483,4.4483,0,0,1-1.6314.3184,2.75,2.75,0,0,1-1.9824-.6895A2.7155,2.7155,0,0,1,441.29,663.6552Z" transform="translate(-0.9775)"/><path class="c" d="M454.3677,666.3212a5.1268,5.1268,0,0,1-1.9761-.3711,4.3433,4.3433,0,0,1-1.5469-1.0723,4.9492,4.9492,0,0,1-1.0141-1.7168,6.822,6.822,0,0,1-.3638-2.3134,9.3183,9.3183,0,0,1,.52-3.1328,8.3433,8.3433,0,0,1,1.43-2.5674,6.8745,6.8745,0,0,1,2.1387-1.7364,5.6724,5.6724,0,0,1,2.6455-.6367,5.1108,5.1108,0,0,1,1.9761.3711,4.3186,4.3186,0,0,1,1.5468,1.0723,4.955,4.955,0,0,1,1.0142,1.7158,6.785,6.785,0,0,1,.3638,2.3018,9.276,9.276,0,0,1-.52,3.1191,8.5106,8.5106,0,0,1-1.4233,2.5742,6.8007,6.8007,0,0,1-2.1387,1.7481A5.6478,5.6478,0,0,1,454.3677,666.3212Zm.2212-1.8076a3.0123,3.0123,0,0,0,1.7221-.52,4.6559,4.6559,0,0,0,1.3262-1.3838,7.0262,7.0262,0,0,0,.8516-1.9951,9.2293,9.2293,0,0,0,.2988-2.3672,4.3714,4.3714,0,0,0-.7212-2.7363,2.4848,2.4848,0,0,0-2.0737-.9161,3.0715,3.0715,0,0,0-1.7354.5137,4.5382,4.5382,0,0,0-1.32,1.3711,7.0309,7.0309,0,0,0-.8447,1.9893,9.2,9.2,0,0,0-.2989,2.3662,4.4546,4.4546,0,0,0,.7149,2.749A2.4635,2.4635,0,0,0,454.5889,664.5136Z" transform="translate(-0.9775)"/><line class="g" x1="258.2271" y1="601.4872" x2="318.2271" y2="601.4872"/><path class="c" d="M259.2046,605.9989a4.5117,4.5117,0,1,1,4.5116-4.5117A4.5123,4.5123,0,0,1,259.2046,605.9989Z" transform="translate(-0.9775)"/><path class="c" d="M354.19,120.4989l-.7666,6.2793h6.5909l-.2471,1.91H353.189l-.793,6.4746h8.1772l-.247,1.9756H349.7051l2.2881-18.6289h10.6079l-.2471,1.9892Z" transform="translate(-0.9775)"/><path class="c" d="M367.1768,123.97l-1.7417,14.1446a5.13,5.13,0,0,1-.39,1.4746,4.024,4.024,0,0,1-.7866,1.1894,3.5074,3.5074,0,0,1-1.1763.8,4.4253,4.4253,0,0,1-2.3335.2276,3.3647,3.3647,0,0,1-.63-.1953l.2339-1.2481a.4481.4481,0,0,1,.0971-.1758.2573.2573,0,0,1,.1563-.07,1.2976,1.2976,0,0,1,.247-.0068c.1.0039.2232.0068.3706.0068a1.7806,1.7806,0,0,0,1.3648-.4746,2.7706,2.7706,0,0,0,.585-1.5273l1.729-14.1446Zm.8193-4.1347a1.4667,1.4667,0,0,1-.1367.6308,1.8093,1.8093,0,0,1-.3638.52,1.7557,1.7557,0,0,1-.5137.3575,1.4266,1.4266,0,0,1-.5981.13,1.38,1.38,0,0,1-.5913-.13,1.6123,1.6123,0,0,1-.4942-.3575,1.8292,1.8292,0,0,1-.3442-.52,1.53,1.53,0,0,1-.13-.6308,1.5772,1.5772,0,0,1,.13-.6367,1.7216,1.7216,0,0,1,.3511-.5254,1.7824,1.7824,0,0,1,.5-.3653,1.3444,1.3444,0,0,1,.5913-.1357,1.4407,1.4407,0,0,1,.5981.13,1.7287,1.7287,0,0,1,.5132.3574,1.6763,1.6763,0,0,1,.3574.5332A1.6191,1.6191,0,0,1,367.9961,119.8349Z" transform="translate(-0.9775)"/><path class="c" d="M379.5005,134.7079a11.609,11.609,0,0,1-1.3,1.1758,7.9065,7.9065,0,0,1-1.2935.8125,5.6954,5.6954,0,0,1-1.3779.4746,7.6608,7.6608,0,0,1-1.5537.15,5.2122,5.2122,0,0,1-2.0278-.377,4.2027,4.2027,0,0,1-1.521-1.0732,4.8227,4.8227,0,0,1-.9624-1.6836,6.8042,6.8042,0,0,1-.3379-2.21,9.7112,9.7112,0,0,1,.2143-2.0214,9.4835,9.4835,0,0,1,.624-1.918,8.7451,8.7451,0,0,1,1.001-1.69,6.7641,6.7641,0,0,1,1.3521-1.3457,6.3639,6.3639,0,0,1,1.6772-.8906,5.8469,5.8469,0,0,1,1.9693-.3242,4.7476,4.7476,0,0,1,1.729.2852,3.685,3.685,0,0,1,1.1962.7285,2.9142,2.9142,0,0,1,.6954.9746,2.5819,2.5819,0,0,1,.2275,1.0136,3.5564,3.5564,0,0,1-.3511,1.58,3.2935,3.2935,0,0,1-1.2871,1.3008,9.6337,9.6337,0,0,1-2.5737,1.0068,28.2861,28.2861,0,0,1-4.2119.6885c0,.0957-.0025.19-.0069.2793-.0044.0918-.0063.1856-.0063.28a4.0643,4.0643,0,0,0,.7607,2.6582,2.809,2.809,0,0,0,2.2945.917,4.266,4.266,0,0,0,1.1113-.1309,4.6765,4.6765,0,0,0,.8711-.3183,3.8249,3.8249,0,0,0,.6758-.416c.1953-.15.3725-.29.5332-.4161a5.3029,5.3029,0,0,1,.4487-.3183.7825.7825,0,0,1,.4155-.13.5775.5775,0,0,1,.4424.2217Zm-3.666-9.2558a3.3729,3.3729,0,0,0-1.5078.3378,4.0045,4.0045,0,0,0-1.2222.93,5.6787,5.6787,0,0,0-.91,1.3907,8.3061,8.3061,0,0,0-.5849,1.7226,25.19,25.19,0,0,0,3.2114-.5664,7.9736,7.9736,0,0,0,1.8589-.6885,1.7939,1.7939,0,0,0,1.0659-1.6963,1.2994,1.2994,0,0,0-.4355-.9492,1.792,1.792,0,0,0-.5913-.3437A2.5117,2.5117,0,0,0,375.8345,125.4521Z" transform="translate(-0.9775)"/><path class="c" d="M400.313,117.9892l-2.353,19.1494h-1.209a.6864.6864,0,0,1-.6109-.2334,1.0114,1.0114,0,0,1-.1562-.5723l.2471-2.7695a10.3773,10.3773,0,0,1-1.0791,1.5469,8.0421,8.0421,0,0,1-1.2286,1.1836,5.3334,5.3334,0,0,1-1.3388.76,3.9143,3.9143,0,0,1-1.4107.2676,3.1132,3.1132,0,0,1-2.6259-1.2285,5.8152,5.8152,0,0,1-.9361-3.5694,10.471,10.471,0,0,1,.2212-2.1318,11.066,11.066,0,0,1,.63-2.041,9.9978,9.9978,0,0,1,.9883-1.8135,7.4284,7.4284,0,0,1,1.2934-1.4492,5.9509,5.9509,0,0,1,1.5405-.9619,4.3821,4.3821,0,0,1,1.7354-.3516,4.06,4.06,0,0,1,1.7744.3838,3.85,3.85,0,0,1,1.3584,1.085l.897-7.2539Zm-3.354,8.8535a2.6712,2.6712,0,0,0-1.19-.9815,3.7528,3.7528,0,0,0-1.4106-.28,3.0157,3.0157,0,0,0-1.8457.6113,5.3822,5.3822,0,0,0-1.398,1.58,8.2791,8.2791,0,0,0-.89,2.164,9.3035,9.3035,0,0,0-.312,2.3535,4.1943,4.1943,0,0,0,.5522,2.3594,1.7978,1.7978,0,0,0,1.58.8125,2.4075,2.4075,0,0,0,1.2613-.3906,5.2057,5.2057,0,0,0,1.2285-1.085,9.5708,9.5708,0,0,0,1.1049-1.6445,13.03,13.03,0,0,0,.89-2.08Z" transform="translate(-0.9775)"/><path class="c" d="M411.7788,134.7079a11.609,11.609,0,0,1-1.3,1.1758,7.9065,7.9065,0,0,1-1.2935.8125,5.6939,5.6939,0,0,1-1.3779.4746,7.6608,7.6608,0,0,1-1.5537.15,5.2122,5.2122,0,0,1-2.0278-.377,4.2027,4.2027,0,0,1-1.521-1.0732,4.8258,4.8258,0,0,1-.9624-1.6836,6.8042,6.8042,0,0,1-.3379-2.21,9.718,9.718,0,0,1,.2143-2.0214,9.4775,9.4775,0,0,1,.6241-1.918,8.74,8.74,0,0,1,1.0009-1.69,6.7667,6.7667,0,0,1,1.3521-1.3457,6.3639,6.3639,0,0,1,1.6772-.8906,5.8469,5.8469,0,0,1,1.9693-.3242,4.7473,4.7473,0,0,1,1.729.2852,3.6855,3.6855,0,0,1,1.1963.7285,2.9152,2.9152,0,0,1,.6953.9746,2.5819,2.5819,0,0,1,.2275,1.0136,3.5564,3.5564,0,0,1-.3511,1.58,3.2921,3.2921,0,0,1-1.2871,1.3008,9.6337,9.6337,0,0,1-2.5737,1.0068,28.2861,28.2861,0,0,1-4.2119.6885c0,.0957-.0024.19-.0068.2793-.0044.0918-.0064.1856-.0064.28a4.0637,4.0637,0,0,0,.7608,2.6582,2.8087,2.8087,0,0,0,2.2944.917,4.266,4.266,0,0,0,1.1113-.1309,4.6765,4.6765,0,0,0,.8711-.3183,3.8213,3.8213,0,0,0,.6758-.416c.1953-.15.3725-.29.5332-.4161a5.319,5.319,0,0,1,.4487-.3183.7825.7825,0,0,1,.4155-.13.5773.5773,0,0,1,.4424.2217Zm-3.666-9.2558a3.3732,3.3732,0,0,0-1.5078.3378,4.0045,4.0045,0,0,0-1.2222.93,5.6755,5.6755,0,0,0-.91,1.3907,8.3062,8.3062,0,0,0-.585,1.7226,25.1831,25.1831,0,0,0,3.2114-.5664,7.9736,7.9736,0,0,0,1.8589-.6885,1.7939,1.7939,0,0,0,1.0659-1.6963,1.2994,1.2994,0,0,0-.4355-.9492,1.7909,1.7909,0,0,0-.5913-.3437A2.5117,2.5117,0,0,0,408.1128,125.4521Z" transform="translate(-0.9775)"/><path class="c" d="M352.5,154.6357a11.2335,11.2335,0,0,1,1.1245-1.918,5.6245,5.6245,0,0,1,1.2676-1.2735,3.1259,3.1259,0,0,1,1.3652-.5585,2.6481,2.6481,0,0,1,1.43.2138l-.416,2.2237a2.6566,2.6566,0,0,0-2.9834.4941,8.6767,8.6767,0,0,0-2.1,4.2246l-.728,6.0967h-2.2618l1.586-13.1826h1.144a.696.696,0,0,1,.793.7812Z" transform="translate(-0.9775)"/><path class="c" d="M362.9912,164.3212a5.1275,5.1275,0,0,1-1.9761-.3711,4.3438,4.3438,0,0,1-1.5468-1.0723,4.951,4.951,0,0,1-1.0142-1.7168,6.822,6.822,0,0,1-.3638-2.3134,9.3184,9.3184,0,0,1,.52-3.1328,8.3411,8.3411,0,0,1,1.43-2.5674,6.8768,6.8768,0,0,1,2.1387-1.7364,5.6727,5.6727,0,0,1,2.6455-.6367,5.11,5.11,0,0,1,1.9761.3711,4.319,4.319,0,0,1,1.5469,1.0723,4.9533,4.9533,0,0,1,1.0141,1.7158,6.785,6.785,0,0,1,.3638,2.3018,9.2759,9.2759,0,0,1-.52,3.1191,8.513,8.513,0,0,1-1.4234,2.5742,6.8014,6.8014,0,0,1-2.1386,1.7481A5.6485,5.6485,0,0,1,362.9912,164.3212Zm.2212-1.8076a3.0129,3.0129,0,0,0,1.7222-.52,4.6569,4.6569,0,0,0,1.3261-1.3838,7.0262,7.0262,0,0,0,.8516-1.9951,9.2293,9.2293,0,0,0,.2988-2.3672,4.3714,4.3714,0,0,0-.7212-2.7363,2.4846,2.4846,0,0,0-2.0737-.9161,3.0712,3.0712,0,0,0-1.7353.5137,4.5373,4.5373,0,0,0-1.32,1.3711,7.0338,7.0338,0,0,0-.8447,1.9893,9.2,9.2,0,0,0-.2988,2.3662,4.4553,4.4553,0,0,0,.7148,2.749A2.4635,2.4635,0,0,0,363.2124,162.5136Z" transform="translate(-0.9775)"/><path class="c" d="M372.6245,161.6552v-.2012q0-.123.0195-.3574c.0127-.1563.0342-.3594.065-.6113s.0713-.58.1235-.9883l.8057-6.59h-1.4688a.3705.3705,0,0,1-.2924-.124.486.486,0,0,1-.0845-.3838l.104-.9228,2.0278-.2725.9883-4.0693a.7274.7274,0,0,1,.2012-.3184.4923.4923,0,0,1,.3447-.124h1.209l-.5591,4.5371h3.458l-.1948,1.6777H375.9l-.793,6.4737q-.0651.5331-.104.8584c-.0259.2168-.0454.39-.0586.5195s-.0215.2207-.0259.2734c-.0043.0508-.0063.09-.0063.1162a1.3534,1.3534,0,0,0,.312.9815,1.1086,1.1086,0,0,0,.8316.3184,1.6729,1.6729,0,0,0,.6044-.0977,2.8018,2.8018,0,0,0,.4488-.2139q.1949-.1171.3252-.2138a.3866.3866,0,0,1,.2207-.0977.266.266,0,0,1,.1758.0508.5035.5035,0,0,1,.11.17l.4941,1.1055a4.9053,4.9053,0,0,1-1.45.8769,4.4478,4.4478,0,0,1-1.6313.3184,2.7493,2.7493,0,0,1-1.9824-.6895A2.7155,2.7155,0,0,1,372.6245,161.6552Z" transform="translate(-0.9775)"/><path class="c" d="M388.939,160.6669a11.27,11.27,0,0,1-1.0074,1.5088,7.0257,7.0257,0,0,1-1.144,1.15,4.9608,4.9608,0,0,1-1.2739.7344,3.8053,3.8053,0,0,1-1.3843.2607,3.2278,3.2278,0,0,1-1.417-.3066,2.9485,2.9485,0,0,1-1.0859-.8965,4.3672,4.3672,0,0,1-.6953-1.4561,7.2338,7.2338,0,0,1-.2471-1.9824,8.9421,8.9421,0,0,1,.2925-2.2822,9.2829,9.2829,0,0,1,2.1255-3.9121,8.6364,8.6364,0,0,1,1.6835-1.43,8.0112,8.0112,0,0,1,1.9957-.9366,7.4656,7.4656,0,0,1,2.2358-.331,9.6691,9.6691,0,0,1,1.6445.1367,6.8051,6.8051,0,0,1,1.58.4736l-1.5732,12.74h-1.1958a.7062.7062,0,0,1-.6177-.2334.9807.9807,0,0,1-.1621-.5723Zm.8842-8.0859a3.8584,3.8584,0,0,0-.5654-.084c-.1865-.0127-.3706-.02-.5527-.02a4.5268,4.5268,0,0,0-1.5078.254,5.3706,5.3706,0,0,0-1.3653.708,6.0511,6.0511,0,0,0-1.1567,1.0859,7.0909,7.0909,0,0,0-.8906,1.3838,7.8982,7.8982,0,0,0-.5786,1.6055,7.3437,7.3437,0,0,0-.2081,1.749q0,3.1332,2.002,3.1328A2.2643,2.2643,0,0,0,386.248,162a4.851,4.851,0,0,0,1.1636-1.1045,9.2949,9.2949,0,0,0,1.02-1.6777,15.6691,15.6691,0,0,0,.8321-2.125Z" transform="translate(-0.9775)"/><path class="c" d="M403.9536,161.7724a11.9012,11.9012,0,0,1-1.2866,1.2353,6.2849,6.2849,0,0,1-1.2222.7862,4.919,4.919,0,0,1-1.2676.41,8.03,8.03,0,0,1-1.4106.1172,4.94,4.94,0,0,1-2.0215-.3906,3.99,3.99,0,0,1-1.4687-1.0987,4.83,4.83,0,0,1-.897-1.7021,7.4458,7.4458,0,0,1-.3057-2.1914,9.4575,9.4575,0,0,1,.5005-3.0684,8.6246,8.6246,0,0,1,1.3975-2.6,6.9557,6.9557,0,0,1,2.1387-1.8066,5.5694,5.5694,0,0,1,2.71-.6758,4.7151,4.7151,0,0,1,2.1973.4609,4.5955,4.5955,0,0,1,1.5468,1.3457l-.728.8711a.84.84,0,0,1-.2016.169.4858.4858,0,0,1-.2535.0654.5273.5273,0,0,1-.3574-.1631,4.6247,4.6247,0,0,0-.4614-.3642,3.2652,3.2652,0,0,0-.7085-.3633,3.04,3.04,0,0,0-1.0855-.1631,3.1812,3.1812,0,0,0-1.69.4873,4.768,4.768,0,0,0-1.3906,1.333,6.7962,6.7962,0,0,0-.9429,2.002,8.6667,8.6667,0,0,0-.3442,2.4834,5.4554,5.4554,0,0,0,.1821,1.4619,3.1232,3.1232,0,0,0,.5459,1.1181,2.5038,2.5038,0,0,0,.8906.7149,2.8016,2.8016,0,0,0,1.2285.2539,3.6448,3.6448,0,0,0,1.4624-.26,4.9319,4.9319,0,0,0,.9942-.5664q.4027-.3047.6826-.5644a.8235.8235,0,0,1,.5527-.2608.576.576,0,0,1,.4419.2217Z" transform="translate(-0.9775)"/><path class="c" d="M409.8945,150.97l-1.5859,13.169h-2.2749L407.62,150.97Zm.8843-4.1347a1.4667,1.4667,0,0,1-.1367.6308,1.8093,1.8093,0,0,1-.3638.52,1.7288,1.7288,0,0,1-.52.3575,1.47,1.47,0,0,1-.6045.13,1.3945,1.3945,0,0,1-.585-.13,1.5861,1.5861,0,0,1-.5-.3575,1.831,1.831,0,0,1-.3448-.52,1.5374,1.5374,0,0,1-.13-.6308,1.5852,1.5852,0,0,1,.13-.6367,1.7234,1.7234,0,0,1,.3511-.5254,1.7662,1.7662,0,0,1,.5068-.3653,1.3622,1.3622,0,0,1,.585-.1357,1.4834,1.4834,0,0,1,.6045.13,1.6255,1.6255,0,0,1,.5137.3574,1.8378,1.8378,0,0,1,.3574.5332A1.5518,1.5518,0,0,1,410.7788,146.8349Z" transform="translate(-0.9775)"/><path class="c" d="M416.7847,164.3212a5.1268,5.1268,0,0,1-1.9761-.3711,4.3433,4.3433,0,0,1-1.5469-1.0723,4.9492,4.9492,0,0,1-1.0141-1.7168,6.822,6.822,0,0,1-.3638-2.3134,9.3183,9.3183,0,0,1,.52-3.1328,8.3433,8.3433,0,0,1,1.43-2.5674,6.8745,6.8745,0,0,1,2.1387-1.7364,5.6724,5.6724,0,0,1,2.6455-.6367,5.1108,5.1108,0,0,1,1.9761.3711,4.3186,4.3186,0,0,1,1.5468,1.0723,4.955,4.955,0,0,1,1.0142,1.7158,6.785,6.785,0,0,1,.3638,2.3018,9.276,9.276,0,0,1-.52,3.1191,8.5128,8.5128,0,0,1-1.4233,2.5742,6.8007,6.8007,0,0,1-2.1387,1.7481A5.6478,5.6478,0,0,1,416.7847,164.3212Zm.2212-1.8076a3.0123,3.0123,0,0,0,1.7221-.52,4.6572,4.6572,0,0,0,1.3262-1.3838,7.0262,7.0262,0,0,0,.8516-1.9951,9.2293,9.2293,0,0,0,.2988-2.3672,4.3714,4.3714,0,0,0-.7212-2.7363,2.4848,2.4848,0,0,0-2.0737-.9161,3.0715,3.0715,0,0,0-1.7354.5137,4.5382,4.5382,0,0,0-1.32,1.3711,7.0309,7.0309,0,0,0-.8447,1.9893,9.2,9.2,0,0,0-.2989,2.3662,4.4546,4.4546,0,0,0,.7149,2.749A2.4634,2.4634,0,0,0,417.0059,162.5136Zm5.6416-17.2119-3.1719,3.3535a1.259,1.259,0,0,1-.3511.2793.92.92,0,0,1-.416.0849h-1.2739l2.1191-3.1455a1.4256,1.4256,0,0,1,.41-.4355,1.1162,1.1162,0,0,1,.6045-.1367Z" transform="translate(-0.9775)"/><path class="c" d="M428.6929,154.2978a8.2017,8.2017,0,0,1,2.3789-2.6329,4.8383,4.8383,0,0,1,2.73-.8906,3.1014,3.1014,0,0,1,1.4624.3321,2.6424,2.6424,0,0,1,1.0273.9687,4.1261,4.1261,0,0,1,.54,1.5664,7.8192,7.8192,0,0,1,0,2.1123l-.9883,8.3848H433.542l.9878-8.3848a4.26,4.26,0,0,0-.1948-2.3076,1.4156,1.4156,0,0,0-1.3912-.748,2.7207,2.7207,0,0,0-1.2675.3378,4.9121,4.9121,0,0,0-1.2412.9629,7.9721,7.9721,0,0,0-1.1119,1.501,10.5451,10.5451,0,0,0-.8774,1.9561l-.7539,6.6826h-2.314l1.586-13.1826h1.144a.69.69,0,0,1,.78.7812Z" transform="translate(-0.9775)"/><line class="g" x1="240.2271" y1="82.4872" x2="335.2271" y2="123.4872"/><path class="c" d="M239.4168,86.63a4.5119,4.5119,0,1,1,5.93-2.355A4.5124,4.5124,0,0,1,239.4168,86.63Z" transform="translate(-0.9775)"/><path class="g" d="M338.45,75.5248a103.0062,103.0062,0,0,0-189.0871,79.94" transform="translate(-0.9775)"/><polygon class="c" points="342.047 71.383 341.152 83.315 331.265 76.575 342.047 71.383"/><polygon class="c" points="142.228 155.859 151.41 163.53 153.464 151.743 142.228 155.859"/></svg>