<svg xmlns="http://www.w3.org/2000/svg" viewBox="0 0 546.6016 682.0001"><defs><style>.a,.b{fill:#fff;stroke-width:3px;}.a{stroke:#d91519;}.a,.b,.d{stroke-linecap:round;stroke-linejoin:round;}.b{stroke:#c4c4c4;}.c{font-size:26px;font-family:Lato-Italic, Lato;font-style:italic;}.c,.e{fill:#606060;}.d{fill:none;stroke:#606060;stroke-width:2px;}</style></defs><title>partes</title><rect class="a" x="303.4987" y="88.3853" width="11.835" height="227.021"/><polygon class="a" points="280.904 453.125 280.904 520.909 339.004 509.073 339.004 444.256 280.904 453.125"/><polygon class="a" points="263.689 441.289 280.904 453.124 339.004 444.517 319.637 432.682 263.689 441.289"/><polygon class="a" points="289.511 484.327 289.511 520.909 325.017 513.377 325.017 477.871 289.511 484.327"/><polygon class="a" points="263.689 441.289 263.689 509.073 280.904 520.908 280.904 453.124 263.689 441.289"/><path class="a" d="M320.1754,502.6312v11.613a1.9783,1.9783,0,0,0,.968,1.701l15.945,9.481a1.98,1.98,0,0,0,2.992-1.701v-12.044a1.98,1.98,0,0,0-1.003-1.721l-15.945-9.051a1.98,1.98,0,0,0-2.957,1.722"/><path class="a" d="M341.4669,315.4061h-18.913a2.917,2.917,0,0,1-2.917-2.917v-12.458a2.9167,2.9167,0,0,1,2.917-2.9159h18.913a2.9167,2.9167,0,0,1,2.917,2.9159v12.458a2.917,2.917,0,0,1-2.917,2.917"/><path class="a" d="M341.4669,229.3318h-18.913a2.917,2.917,0,0,1-2.917-2.917v-12.458a2.9168,2.9168,0,0,1,2.917-2.916h18.913a2.9168,2.9168,0,0,1,2.917,2.916v12.458a2.917,2.917,0,0,1-2.917,2.917"/><path class="b" d="M319.0986,680.5a9.5,9.5,0,0,1-9.5-9.5V181.4532a9.5007,9.5007,0,0,1,4.2061-7.8887l81.7715-54.873a9.5,9.5,0,0,1,10.5879,15.7773l-77.5655,52.05V671A9.5,9.5,0,0,1,319.0986,680.5Z"/><path class="b" d="M342.8112,194.3221l-26.375-9.591c-2.23-.811-2.058-3.772.311-5.328l77.188-50.725a3.9742,3.9742,0,0,1,3.445-.559l26.376,9.592c2.23.811,2.057,3.772-.312,5.328l-77.187,50.724a3.9764,3.9764,0,0,1-3.446.559"/><path class="b" d="M348.0564,187.6912l-20.793-6.737c-1.7581-.57-1.541-2.8689.3889-4.138l62.933-41.357a3.3532,3.3532,0,0,1,2.7641-.524l20.7929,6.737c1.7591.57,1.542,2.8691-.3889,4.138L350.82,187.1672a3.3505,3.3505,0,0,1-2.7639.524"/><path class="a" d="M323.1765,229.3318H304.2634a2.917,2.917,0,0,1-2.917-2.917v-12.458a2.9168,2.9168,0,0,1,2.917-2.916h18.9131a2.9168,2.9168,0,0,1,2.9169,2.916v12.458a2.917,2.917,0,0,1-2.9169,2.917"/><path class="a" d="M323.1765,315.4061H304.2634a2.917,2.917,0,0,1-2.917-2.917v-12.458a2.9167,2.9167,0,0,1,2.917-2.9159h18.9131a2.9167,2.9167,0,0,1,2.9169,2.9159v12.458a2.9169,2.9169,0,0,1-2.9169,2.917"/><path class="a" d="M321.7892,220.7244a2.152,2.152,0,1,1-2.152-2.152,2.152,2.152,0,0,1,2.152,2.152"/><path class="a" d="M340.08,220.7244a2.1521,2.1521,0,1,1-2.152-2.152,2.1527,2.1527,0,0,1,2.152,2.152"/><rect class="a" x="319.0996" y="220.2242" width="18.291" height="1"/><path class="a" d="M321.7892,306.7986a2.152,2.152,0,1,1-2.152-2.152,2.152,2.152,0,0,1,2.152,2.152"/><path class="a" d="M340.08,306.7986a2.1521,2.1521,0,1,1-2.152-2.152,2.1527,2.1527,0,0,1,2.152,2.152"/><rect class="a" x="319.0996" y="306.2984" width="18.291" height="1"/><path class="a" d="M299.1945,509.81v10.86a2.3085,2.3085,0,0,0,1.129,1.985l15.287,9.09a2.3091,2.3091,0,0,0,3.489-1.985v-11.274a2.3122,2.3122,0,0,0-1.169-2.008l-15.287-8.676a2.3094,2.3094,0,0,0-3.449,2.008"/><path class="a" d="M317.4856,520.9085a2.1521,2.1521,0,1,1-2.152-2.152,2.152,2.152,0,0,1,2.152,2.152"/><path class="a" d="M335.7765,515.9085a2.152,2.152,0,1,1-2.152-2.152,2.1527,2.1527,0,0,1,2.152,2.152"/><polygon class="a" points="333.087 516.408 314.796 521.408 314.796 520.408 333.087 515.408 333.087 516.408"/><path class="a" d="M234.5436,92.0374l1.985,7.557a3.54,3.54,0,0,0,4.491,2.476l51.566-16.2979a3.5417,3.5417,0,0,1,4.389,2.151l1.813,4.917a3.54,3.54,0,0,0,4.423,2.1389l30.177-9.877a3.54,3.54,0,0,0,2.164-4.732l-1.293-3.087a3.5408,3.5408,0,0,1,2.212-4.749l46.544-14.505a3.54,3.54,0,0,0,2.268-4.605l-2.808-6.849a3.5409,3.5409,0,0,0-4.306-2.176L236.9836,87.7365a3.5413,3.5413,0,0,0-2.44,4.3009"/><polygon class="a" points="189.234 81.472 192.925 97.762 279.444 78.155 273.991 60.989 189.234 81.472"/><polygon class="a" points="273.99 60.989 437.743 1.501 442.428 19.982 279.79 78.436 273.99 60.989"/><polygon class="a" points="189.234 81.472 273.991 60.989 437.744 1.5 323.47 33.788 189.234 81.472"/><text class="c" transform="translate(418.2266 635.932)">Poste <tspan x="0" y="27">de luz</tspan></text><line class="d" x1="328" y1="628.2804" x2="405" y2="628.2804"/><circle class="e" cx="328" cy="628.2804" r="4.5117"/><text class="c" transform="translate(418.2266 224.932)">Soportes</text><line class="d" x1="345" y1="217.2804" x2="405" y2="217.2804"/><circle class="e" cx="345" cy="217.2804" r="4.5117"/><text class="c" transform="translate(455.2266 64.932)">Soporte<tspan x="0" y="27">de panel</tspan><tspan x="0" y="54">solar</tspan></text><line class="d" x1="382" y1="57.2804" x2="442" y2="57.2804"/><circle class="e" cx="382" cy="57.2804" r="4.5117"/><text class="c" transform="translate(66.96 466.932)">Caja de <tspan x="-64.0249" y="27">componentes </tspan><tspan x="-48.5811" y="54">electrónicos</tspan></text><line class="d" x1="264" y1="459.2804" x2="158" y2="459.2804"/><circle class="e" cx="264" cy="459.2804" r="4.5117"/><text class="c" transform="translate(33.0273 55.932)">Panel solar</text><line class="d" x1="281" y1="48.2804" x2="161" y2="48.2804"/><circle class="e" cx="281" cy="48.2804" r="4.5117"/></svg>