<svg xmlns="http://www.w3.org/2000/svg" viewBox="0 0 239.6897 379"><defs><style>.a,.b{fill:#fff;stroke-linecap:round;stroke-linejoin:round;stroke-width:3px;}.a{stroke:#c4c4c4;}.b{stroke:#d91519;}</style></defs><title>soporte_indic</title><rect class="a" x="108.3165" y="82.7215" width="11.0635" height="212.222"/><path class="a" d="M143.81,294.9433H126.13a2.7268,2.7268,0,0,1-2.7268-2.7268V280.5706a2.7267,2.7267,0,0,1,2.7268-2.7259h17.68a2.7267,2.7267,0,0,1,2.7268,2.7259v11.6459a2.7268,2.7268,0,0,1-2.7268,2.7268"/><path class="a" d="M143.81,214.48H126.13a2.7269,2.7269,0,0,1-2.7268-2.7269V200.1072a2.7266,2.7266,0,0,1,2.7268-2.7258h17.68a2.7266,2.7266,0,0,1,2.7268,2.7258v11.6459A2.7269,2.7269,0,0,1,143.81,214.48"/><path class="a" d="M114.0188,377.5V169.7225a8.8811,8.8811,0,0,1,3.9318-7.3744l76.441-51.296a8.881,8.881,0,0,1,9.8977,14.7488L131.78,174.4582V363.6191"/><path class="a" d="M145.0663,181.7525l-24.6556-8.9658c-2.0847-.7581-1.9239-3.5261.2907-4.9806l72.1563-47.4184a3.7149,3.7149,0,0,1,3.22-.5226l24.6566,8.9667c2.0846.7582,1.9229,3.5261-.2917,4.9807L148.2877,181.23a3.7173,3.7173,0,0,1-3.2214.5225"/><path class="a" d="M149.97,175.5539,130.532,169.256c-1.6434-.5328-1.4406-2.6819.3636-3.8682l58.8305-38.6611a3.1345,3.1345,0,0,1,2.5839-.49l19.4375,6.2978c1.6444.5329,1.4415,2.682-.3636,3.8683l-58.8306,38.661a3.1325,3.1325,0,0,1-2.5838.49"/><path class="a" d="M126.7115,214.48h-17.68a2.7269,2.7269,0,0,1-2.7269-2.7269V200.1072a2.7266,2.7266,0,0,1,2.7269-2.7258h17.68a2.7265,2.7265,0,0,1,2.7268,2.7258v11.6459a2.7268,2.7268,0,0,1-2.7268,2.7269"/><path class="a" d="M126.7115,294.9433h-17.68a2.7268,2.7268,0,0,1-2.7269-2.7268V280.5706a2.7267,2.7267,0,0,1,2.7269-2.7259h17.68a2.7266,2.7266,0,0,1,2.7268,2.7259v11.6459a2.7268,2.7268,0,0,1-2.7268,2.7268"/><path class="a" d="M125.4147,206.4337a2.0117,2.0117,0,1,1-2.0117-2.0117,2.0118,2.0118,0,0,1,2.0117,2.0117"/><path class="a" d="M142.5134,206.4337a2.0118,2.0118,0,1,1-2.0117-2.0117,2.0124,2.0124,0,0,1,2.0117,2.0117"/><rect class="a" x="122.9004" y="205.9661" width="17.0987" height="0.9348"/><path class="a" d="M125.4147,286.8969a2.0117,2.0117,0,1,1-2.0117-2.0117,2.0118,2.0118,0,0,1,2.0117,2.0117"/><path class="a" d="M142.5134,286.8969a2.0118,2.0118,0,1,1-2.0117-2.0117,2.0124,2.0124,0,0,1,2.0117,2.0117"/><rect class="a" x="122.9004" y="286.4294" width="17.0987" height="0.9348"/><path class="b" d="M43.8564,86.1355,45.712,93.2A3.3093,3.3093,0,0,0,49.91,95.5145L98.1148,80.2789a3.3109,3.3109,0,0,1,4.1029,2.0108l1.6948,4.5965a3.3092,3.3092,0,0,0,4.1347,1.9995l28.21-9.2331a3.309,3.309,0,0,0,2.023-4.4236l-1.2088-2.8857a3.31,3.31,0,0,1,2.0679-4.4394l43.51-13.5595a3.3094,3.3094,0,0,0,2.12-4.3048l-2.625-8.4025a3.31,3.31,0,0,0-4.0252-2.0342L46.1373,82.1149a3.3105,3.3105,0,0,0-2.2809,4.0206"/><polygon class="a" points="1.5 76.259 4.95 91.487 85.829 73.158 80.732 57.111 1.5 76.259"/><polygon class="a" points="80.732 57.111 233.81 1.501 238.19 18.777 86.154 73.42 80.732 57.111"/><polygon class="a" points="1.5 76.259 80.732 57.111 233.81 1.5 126.985 31.683 1.5 76.259"/></svg>