<svg xmlns="http://www.w3.org/2000/svg" viewBox="0 0 471.6973 374.7888"><defs><style>.a{font-size:26px;font-family:Lato-Italic, Lato;font-style:italic;}.a,.g{fill:#606060;}.b,.c{fill:#fff;}.b{stroke:#c4c4c4;}.b,.d,.f{stroke-linecap:round;stroke-linejoin:round;}.b,.d{stroke-width:3px;}.d,.f{fill:none;}.d{stroke:#d91519;}.e{fill:#d91519;}.f{stroke:#606060;stroke-width:2px;}</style></defs><title>soporte</title><text class="a" transform="translate(0 296.9402)">Soportes</text><path class="b" d="M218.5231,112.8181,105.6793,95.4264A14.3071,14.3071,0,0,1,93.7178,79.107l.5306-3.4433A14.3092,14.3092,0,0,1,110.57,63.701L223.4128,81.0927a14.31,14.31,0,0,1,11.9627,16.3206l-.5319,3.4433a14.3079,14.3079,0,0,1-16.3205,11.9615"/><path class="b" d="M218.5231,112.8181,105.6793,95.4264A14.3071,14.3071,0,0,1,93.7178,79.107l.5306-3.4433A14.3092,14.3092,0,0,1,110.57,63.701L223.4128,81.0927a14.31,14.31,0,0,1,11.9627,16.3206l-.5319,3.4433A14.3079,14.3079,0,0,1,218.5231,112.8181Z"/><path class="b" d="M230.4081,373.2888l14.39-296.6513L95.8271,38.0914a8.4193,8.4193,0,0,0-10.4654,7.1463L83.1883,63.3539l111.7975,38.7425L181.7035,373.2888Z"/><path class="b" d="M230.4081,373.2888l14.39-296.6513L95.8271,38.0914a8.4193,8.4193,0,0,0-10.4654,7.1463L83.1883,63.3539l111.7975,38.7425L181.7035,373.2888Z"/><polygon class="c" points="173.955 139.731 172.848 159.655 214.911 165.19 247.011 162.977 248.118 143.051 216.018 144.159 173.955 139.731"/><polygon class="d" points="173.955 139.731 172.848 159.655 214.911 165.19 247.011 162.977 248.118 143.051 216.018 144.159 173.955 139.731"/><line class="d" x1="216.0173" y1="144.1586" x2="214.91" y2="165.19"/><polygon class="c" points="170.635 270.347 169.528 290.271 209.376 296.913 241.477 286.951 242.583 268.132 211.59 275.881 170.635 270.347"/><polygon class="d" points="170.635 270.347 169.528 290.271 209.376 296.913 241.477 286.951 242.583 268.132 211.59 275.881 170.635 270.347"/><line class="d" x1="210.4837" y1="275.8807" x2="209.3752" y2="296.9122"/><rect class="c" x="238.1564" y="146.3723" width="12.1759" height="14.3895" transform="translate(83.284 393.0037) rotate(-88.2486)"/><rect class="d" x="238.1564" y="146.3723" width="12.1759" height="14.3895" transform="translate(83.284 393.0037) rotate(-88.2486)"/><line class="c" x1="244.7068" y1="147.4908" x2="244.334" y2="159.661"/><line class="d" x1="244.7068" y1="147.4908" x2="244.334" y2="159.661"/><rect class="c" x="231.5149" y="275.8811" width="12.1759" height="14.3895" transform="translate(-52.6027 511.9158) rotate(-88.2486)"/><rect class="d" x="231.5149" y="275.8811" width="12.1759" height="14.3895" transform="translate(-52.6027 511.9158) rotate(-88.2486)"/><line class="c" x1="238.0653" y1="276.999" x2="237.6925" y2="289.1692"/><line class="d" x1="238.0653" y1="276.999" x2="237.6925" y2="289.1692"/><path class="c" d="M227.9836,308.0275l-1.7995-.0919a7.4027,7.4027,0,0,1-7.0133-7.77L234.1072,8.5232a7.4018,7.4018,0,0,1,7.77-7.0134l1.7993.092a7.4016,7.4016,0,0,1,7.0122,7.77L235.7536,301.0142a7.4008,7.4008,0,0,1-7.77,7.0133"/><path class="d" d="M227.9836,308.0275l-1.7995-.0919a7.4027,7.4027,0,0,1-7.0133-7.77L234.1072,8.5232a7.4018,7.4018,0,0,1,7.77-7.0134l1.7993.092a7.4016,7.4016,0,0,1,7.0122,7.77L235.7536,301.0142A7.4008,7.4008,0,0,1,227.9836,308.0275Z"/><rect class="c" x="223.7667" y="147.4796" width="12.1759" height="14.3895" transform="translate(68.2273 379.6943) rotate(-88.2486)"/><rect class="d" x="223.7667" y="147.4796" width="12.1759" height="14.3895" transform="translate(68.2273 379.6943) rotate(-88.2486)"/><line class="c" x1="230.3171" y1="148.5974" x2="229.9443" y2="160.7676"/><line class="d" x1="230.3171" y1="148.5974" x2="229.9443" y2="160.7676"/><rect class="c" x="217.1252" y="280.3086" width="12.1759" height="14.3895" transform="translate(-70.9781 501.8251) rotate(-88.2486)"/><rect class="d" x="217.1252" y="280.3086" width="12.1759" height="14.3895" transform="translate(-70.9781 501.8251) rotate(-88.2486)"/><line class="c" x1="223.6757" y1="281.4271" x2="223.3028" y2="293.5974"/><line class="d" x1="223.6757" y1="281.4271" x2="223.3028" y2="293.5974"/><circle class="e" cx="181.4092" cy="150.5388" r="3.25"/><circle class="e" cx="178.4092" cy="281.5388" r="3.25"/><text class="a" transform="translate(319.8857 108.9402)">Barra vertical <tspan x="0" y="27">de unión de </tspan><tspan x="0" y="54">soportes</tspan></text><line class="f" x1="246.6592" y1="101.2888" x2="306.6592" y2="101.2888"/><path class="g" d="M246.6592,105.8005a4.5117,4.5117,0,1,1,4.5116-4.5117A4.5121,4.5121,0,0,1,246.6592,105.8005Z"/><line class="f" x1="169.6592" y1="289.2888" x2="109.6592" y2="289.2888"/><path class="g" d="M169.6592,284.7771a4.5117,4.5117,0,1,1-4.5117,4.5117A4.5122,4.5122,0,0,1,169.6592,284.7771Z"/><text class="a" transform="translate(2.9512 156.9402)">Tornillos</text><line class="f" x1="177.6592" y1="149.2888" x2="109.6592" y2="149.2888"/><path class="g" d="M177.6592,144.7771a4.5117,4.5117,0,1,1-4.5117,4.5117A4.5122,4.5122,0,0,1,177.6592,144.7771Z"/></svg>