<svg xmlns="http://www.w3.org/2000/svg" viewBox="0 0 772.2885 408.5"><defs><style>.a{fill:#c4c4c4;}.b,.e,.k{fill:none;}.b,.c{stroke:#c4c4c4;}.b,.c,.d,.e,.k{stroke-linecap:round;stroke-linejoin:round;}.b,.c,.d,.k{stroke-width:3px;}.c,.d{fill:#fff;}.d,.k{stroke:#d91519;}.e{stroke:#606060;stroke-width:2px;}.f,.g{fill:#606060;}.g{font-size:26px;font-family:Lato-Italic, Lato;font-style:italic;}.h{opacity:0.6;}.i{fill:#d91519;}.i,.k{opacity:0.7;}.j{fill:#f0a1a3;}</style></defs><title>variables</title><path class="a" d="M215.537,294.3059c.5527,2.0267-.0953,3.9691-1.4449,4.3375-1.3512.3685-2.8958-.9765-3.4485-3.0032s.0952-3.9675,1.4462-4.3376c1.3511-.3669,2.8942.9766,3.4472,3.0033"/><path class="b" d="M222.6305,304.6454l13.1752,36.2318.6873.5395a10.407,10.407,0,0,0,1.8142-10.0979L182.2885,173.5579l-19.8477,6.3471,56.21,158.3035a10.413,10.413,0,0,0,12.9995,6.4744h0l-.4324-.3649-12.9519-35.0849-.3986-1.1469c5.0379-1.8984,7.04-8.9634,4.4719-15.78s-8.7354-10.8033-13.7733-8.9048l-.0641-.5313-19.7206-55.54h5.7347l20.56,56.54"/><polygon class="c" points="57.381 171.437 67.799 165.754 351.941 165.754 357.624 192.275 351.941 197.011 346.257 171.437 57.381 171.437"/><polygon class="c" points="57.381 171.437 67.799 193.222 153.041 194.168 158.724 212.165 229.76 214.059 224.077 196.063 351.941 197.011 346.257 171.437 57.381 171.437"/><polygon class="c" points="224.077 196.063 229.76 214.059 233.548 209.323 229.76 196.063 224.077 196.063"/><polygon class="c" points="224.077 196.063 229.76 214.059 233.548 209.323 229.76 196.063 224.077 196.063"/><path class="c" d="M182.4324,174.01c.8762,2.74-2.856,6.3816-8.3371,8.1341s-10.6344.952-11.51-1.7881,2.8558-6.3827,8.336-8.1352,10.6343-.9519,11.5106,1.7892"/><path class="c" d="M182.4324,174.01c.8762,2.74-2.856,6.3816-8.3371,8.1341s-10.6344.952-11.51-1.7881,2.8558-6.3827,8.336-8.1352S181.5561,171.2685,182.4324,174.01Z"/><polygon class="d" points="292.615 177.197 298.346 171.968 454.646 171.968 457.772 196.371 454.646 200.728 451.519 177.197 292.615 177.197"/><polygon class="d" points="292.615 177.197 298.346 171.968 454.646 171.968 457.772 196.371 454.646 200.728 451.519 177.197 292.615 177.197"/><polygon class="d" points="454.646 200.728 451.519 177.197 292.615 177.197 295.741 199.857 454.646 200.728"/><polygon class="d" points="454.646 200.728 451.519 177.197 292.615 177.197 295.741 199.857 454.646 200.728"/><polygon class="d" points="283.9 187.105 289.631 181.875 445.93 181.875 449.056 206.278 445.93 210.636 442.804 187.105 283.9 187.105"/><polygon class="d" points="283.9 187.105 289.631 181.875 445.93 181.875 449.056 206.278 445.93 210.636 442.804 187.105 283.9 187.105"/><polygon class="d" points="445.93 210.636 442.804 187.105 283.9 187.105 287.026 209.765 445.93 210.636"/><polygon class="d" points="445.93 210.636 442.804 187.105 283.9 187.105 287.026 209.765 445.93 210.636"/><line class="d" x1="299.8052" y1="197.5631" x2="414.6306" y2="197.5631"/><polygon class="d" points="446.006 169.353 530.545 169.353 532.289 191.142 440.777 191.142 446.006 169.353"/><polygon class="d" points="446.006 169.353 530.545 169.353 532.289 191.142 440.777 191.142 446.006 169.353"/><rect class="d" x="440.7768" y="191.1415" width="91.5117" height="5.2292"/><rect class="d" x="440.7768" y="191.1415" width="91.5117" height="5.2292"/><path class="d" d="M501.3489,186.3481c0,.7225-1.1705,1.3073-2.6147,1.3073s-2.6146-.5848-2.6146-1.3073,1.17-1.3073,2.6146-1.3073,2.6147.5848,2.6147,1.3073"/><path class="d" d="M502.22,179.8115c0,.7226-1.1705,1.3073-2.6146,1.3073s-2.6146-.5847-2.6146-1.3073,1.17-1.3073,2.6146-1.3073,2.6146.5848,2.6146,1.3073"/><path class="d" d="M503.0919,173.7107c0,.7226-1.1705,1.3074-2.6146,1.3074s-2.6146-.5848-2.6146-1.3074,1.17-1.3073,2.6146-1.3073,2.6146.5849,2.6146,1.3073"/><path class="d" d="M524.0089,186.3481c0,.7225-1.1705,1.3073-2.6146,1.3073s-2.6146-.5848-2.6146-1.3073,1.17-1.3073,2.6146-1.3073,2.6146.5848,2.6146,1.3073"/><path class="d" d="M524.0089,179.8115c0,.7226-1.1705,1.3073-2.6146,1.3073s-2.6146-.5847-2.6146-1.3073,1.17-1.3073,2.6146-1.3073,2.6146.5848,2.6146,1.3073"/><path class="d" d="M524.0089,173.7107c0,.7226-1.1705,1.3074-2.6146,1.3074s-2.6146-.5848-2.6146-1.3074,1.17-1.3073,2.6146-1.3073,2.6146.5849,2.6146,1.3073"/><polygon class="d" points="440.777 146.693 423.346 203.343 462.565 203.343 473.024 146.693 440.777 146.693"/><polygon class="d" points="440.777 146.693 423.346 203.343 462.565 203.343 473.024 146.693 440.777 146.693"/><rect class="d" x="423.346" y="203.3431" width="39.2193" height="6.1008"/><rect class="d" x="423.346" y="203.3431" width="39.2193" height="6.1008"/><path class="d" d="M448.1849,193.32c0,.9622-1.5609,1.7431-3.4862,1.7431s-3.4861-.7809-3.4861-1.7431,1.5608-1.7431,3.4861-1.7431,3.4862.781,3.4862,1.7431"/><path class="d" d="M457.7718,154.9726c0,.9622-1.5609,1.7431-3.4861,1.7431s-3.4862-.7809-3.4862-1.7431,1.5609-1.743,3.4862-1.743,3.4861.7809,3.4861,1.743"/><polygon class="c" points="41.28 184.698 51.697 179.015 335.839 179.015 341.522 205.534 335.839 210.27 330.156 184.698 41.28 184.698"/><polygon class="c" points="41.28 184.698 51.697 206.482 136.94 207.429 142.623 225.424 213.658 227.319 207.975 209.324 335.839 210.27 330.156 184.698 41.28 184.698"/><polygon class="c" points="207.976 209.323 213.659 227.319 217.447 222.583 213.659 209.323 207.976 209.323"/><polygon class="c" points="207.976 209.323 213.659 227.319 217.447 222.583 213.659 209.323 207.976 209.323"/><polygon class="c" points="1.5 194.169 20.443 194.169 94.319 153.442 78.218 153.442 1.5 194.169"/><polygon class="c" points="1.5 194.169 20.443 194.169 94.319 153.442 78.218 153.442 1.5 194.169"/><polygon class="c" points="1.5 194.169 4.342 200.799 23.284 201.746 96.214 159.124 94.319 153.442 20.443 194.169 1.5 194.169"/><polygon class="c" points="1.5 194.169 4.342 200.799 23.284 201.746 96.214 159.124 94.319 153.442 20.443 194.169 1.5 194.169"/><line class="c" x1="20.4429" y1="194.1689" x2="23.2838" y2="201.7456"/><line class="c" x1="64.9583" y1="197.0105" x2="126.5223" y2="197.0105"/><line class="c" x1="205.5783" y1="210.3739" x2="292.7143" y2="210.3739"/><path class="c" d="M57.7878,196.9852c.4128,1.514-.0712,2.9649-1.0794,3.24s-2.1631-.7294-2.5759-2.2434.0711-2.9636,1.08-3.24c1.0093-.274,2.1619.73,2.575,2.2434"/><path class="c" d="M175.2026,195.4089c.7685,2.8181-.1324,5.5188-2.009,6.0311-1.8788.5124-4.0265-1.3578-4.795-4.1759s.1324-5.5166,2.0109-6.0311c1.8787-.51,4.0243,1.3579,4.7931,4.1759"/><path class="c" d="M322.0393,198.88c.4129,1.5139-.0711,2.9637-1.08,3.24-1.0093.2741-2.162-.73-2.5749-2.2434s.0711-2.9648,1.0792-3.24c1.01-.2753,2.1631.73,2.5761,2.2434"/><path class="b" d="M213.1538,282.2545c5.0379-1.8984,11.2048,2.0885,13.7734,8.9049s.5659,13.8814-4.472,15.78"/><polygon class="d" points="498.199 251.064 494.155 289.409 527.094 289.409 525.282 251.064 498.199 251.064"/><rect class="d" x="494.2491" y="288.9277" width="32.7514" height="43.3475"/><path class="d" d="M505.8883,280.7455c0,.5858-.949,1.06-2.12,1.06s-2.12-.4741-2.12-1.06.9488-1.06,2.12-1.06,2.12.4742,2.12,1.06"/><path class="d" d="M506.5949,269.7113c0,.5858-.949,1.06-2.12,1.06s-2.12-.4741-2.12-1.06.9489-1.06,2.12-1.06,2.12.4741,2.12,1.06"/><path class="d" d="M507.3015,260.1773c0,.5858-.949,1.06-2.12,1.06s-2.12-.4741-2.12-1.06.9489-1.06,2.12-1.06,2.12.4742,2.12,1.06"/><path class="d" d="M519.6722,280.7455c0,.5858-.9489,1.06-2.12,1.06s-2.12-.4741-2.12-1.06.9489-1.06,2.12-1.06,2.12.4742,2.12,1.06"/><path class="d" d="M519.6722,269.7113c0,.5858-.9489,1.06-2.12,1.06s-2.12-.4741-2.12-1.06.9489-1.06,2.12-1.06,2.12.4741,2.12,1.06"/><path class="d" d="M519.6722,260.1773c0,.5858-.9489,1.06-2.12,1.06s-2.12-.4741-2.12-1.06.9489-1.06,2.12-1.06,2.12.4742,2.12,1.06"/><line class="e" x1="511.0702" y1="242.2407" x2="511.0702" y2="215.2966"/><polygon class="f" points="517.054 217.047 511.071 206.686 505.087 217.047 517.054 217.047"/><text class="g" transform="translate(602.5151 318.1514)">Dispositivo <tspan x="0" y="27">de medición </tspan><tspan x="0" y="54">de variables </tspan><tspan x="0" y="81">atmosféricas</tspan></text><line class="e" x1="527.2885" y1="307.5" x2="587.2885" y2="307.5"/><path class="f" d="M527.2885,312.0117A4.5117,4.5117,0,1,1,531.8,307.5,4.5124,4.5124,0,0,1,527.2885,312.0117Z"/><g class="h"><circle class="i" cx="659.2885" cy="53.5" r="32"/><path class="j" d="M526.2885,96.5h204s-29-35-59-28-48-30-84-8c-25.951,15.859-56,13-61,36"/><path class="j" d="M618.2885,147.5h154s-21.893-18.4269-44.539-14.7419c-22.648,3.685-31.741-11.8461-58.917-.263-19.5911,8.35-46.77,2.896-50.544,15.0049"/><line class="k" x1="659.2885" y1="12.5" x2="659.2885" y2="1.5"/><line class="k" x1="677.8127" y1="16.9233" x2="682.7826" y2="7.11"/><line class="k" x1="692.3399" y1="29.2387" x2="701.2073" y2="22.7296"/><line class="k" x1="699.7356" y1="46.789" x2="710.5872" y2="44.9885"/><line class="k" x1="698.404" y1="65.7874" x2="708.8984" y2="69.084"/><line class="k" x1="639.5872" y1="15.9233" x2="634.6173" y2="6.11"/><line class="k" x1="625.06" y1="28.2387" x2="616.1926" y2="21.7296"/><line class="k" x1="617.6643" y1="45.789" x2="606.8127" y2="43.9885"/></g></svg>