<svg xmlns="http://www.w3.org/2000/svg" viewBox="0 0 256.1949 682.0001"><defs><style>.a{fill:#d91519;stroke:#fff;stroke-linecap:round;stroke-linejoin:round;stroke-width:3px;}.b{opacity:0.4;}</style></defs><title>white</title><rect class="a" x="115.7652" y="88.3853" width="11.835" height="227.021"/><polygon class="a" points="93.17 453.125 93.17 520.909 151.27 509.073 151.27 444.256 93.17 453.125"/><polygon class="a" points="75.956 441.289 93.171 453.124 151.271 444.517 131.904 432.682 75.956 441.289"/><polygon class="a" points="101.778 484.327 101.778 520.909 137.284 513.377 137.284 477.871 101.778 484.327"/><polygon class="a" points="75.956 441.289 75.956 509.073 93.171 520.908 93.171 453.124 75.956 441.289"/><path class="a" d="M132.4419,507.6312v11.613a1.9783,1.9783,0,0,0,.968,1.701l15.945,9.481a1.98,1.98,0,0,0,2.992-1.701v-12.044a1.98,1.98,0,0,0-1.003-1.721l-15.945-9.051a1.98,1.98,0,0,0-2.957,1.722"/><path class="a" d="M153.7334,315.4061H134.82a2.917,2.917,0,0,1-2.917-2.917v-12.458a2.9167,2.9167,0,0,1,2.917-2.9159h18.913a2.9167,2.9167,0,0,1,2.917,2.9159v12.458a2.917,2.917,0,0,1-2.917,2.917"/><path class="a" d="M153.7334,229.3318H134.82a2.917,2.917,0,0,1-2.917-2.917v-12.458a2.9168,2.9168,0,0,1,2.917-2.916h18.913a2.9168,2.9168,0,0,1,2.917,2.916v12.458a2.917,2.917,0,0,1-2.917,2.917"/><g class="b"><path class="a" d="M131.3651,680.5a9.5,9.5,0,0,1-9.5-9.5V181.4532a9.5006,9.5006,0,0,1,4.206-7.8887l81.7715-54.873a9.5,9.5,0,0,1,10.5879,15.7773l-77.5654,52.05V671A9.5,9.5,0,0,1,131.3651,680.5Z"/><path class="a" d="M155.0777,194.3221l-26.375-9.591c-2.23-.811-2.058-3.772.311-5.328l77.188-50.725a3.9742,3.9742,0,0,1,3.445-.559l26.376,9.592c2.23.811,2.057,3.772-.312,5.328l-77.187,50.724a3.9764,3.9764,0,0,1-3.446.559"/><path class="a" d="M160.3228,187.6912l-20.793-6.737c-1.758-.57-1.541-2.8689.389-4.138l62.933-41.357a3.353,3.353,0,0,1,2.764-.524l20.793,6.737c1.759.57,1.542,2.8691-.389,4.138l-62.933,41.357a3.3508,3.3508,0,0,1-2.764.524"/></g><path class="a" d="M135.4429,229.3318H116.53a2.917,2.917,0,0,1-2.917-2.917v-12.458a2.9168,2.9168,0,0,1,2.917-2.916h18.913a2.9168,2.9168,0,0,1,2.917,2.916v12.458a2.917,2.917,0,0,1-2.917,2.917"/><path class="a" d="M135.4429,315.4061H116.53a2.917,2.917,0,0,1-2.917-2.917v-12.458a2.9167,2.9167,0,0,1,2.917-2.9159h18.913a2.9167,2.9167,0,0,1,2.917,2.9159v12.458a2.917,2.917,0,0,1-2.917,2.917"/><path class="a" d="M134.0557,220.7244a2.152,2.152,0,1,1-2.152-2.152,2.152,2.152,0,0,1,2.152,2.152"/><path class="a" d="M152.3467,220.7244a2.152,2.152,0,1,1-2.152-2.152,2.1527,2.1527,0,0,1,2.152,2.152"/><rect class="a" x="131.3661" y="220.2242" width="18.291" height="1"/><path class="a" d="M134.0557,306.7986a2.152,2.152,0,1,1-2.152-2.152,2.152,2.152,0,0,1,2.152,2.152"/><path class="a" d="M152.3467,306.7986a2.152,2.152,0,1,1-2.152-2.152,2.1527,2.1527,0,0,1,2.152,2.152"/><rect class="a" x="131.3661" y="306.2984" width="18.291" height="1"/><path class="a" d="M111.461,509.81v10.86a2.3085,2.3085,0,0,0,1.129,1.985l15.287,9.09a2.3091,2.3091,0,0,0,3.489-1.985v-11.274a2.3122,2.3122,0,0,0-1.169-2.008l-15.287-8.676a2.3094,2.3094,0,0,0-3.449,2.008"/><path class="a" d="M129.752,520.9085a2.152,2.152,0,1,1-2.152-2.152,2.152,2.152,0,0,1,2.152,2.152"/><path class="a" d="M148.043,520.9085a2.152,2.152,0,1,1-2.152-2.152,2.1527,2.1527,0,0,1,2.152,2.152"/><rect class="a" x="127.0623" y="520.4083" width="18.291" height="1"/><path class="a" d="M46.81,92.0374l1.985,7.557a3.54,3.54,0,0,0,4.491,2.476l51.566-16.2979a3.5417,3.5417,0,0,1,4.389,2.151l1.813,4.917a3.54,3.54,0,0,0,4.423,2.1389l30.177-9.877a3.54,3.54,0,0,0,2.164-4.732l-1.293-3.087a3.5408,3.5408,0,0,1,2.212-4.749l46.5439-14.505a3.54,3.54,0,0,0,2.268-4.605l-2.8079-6.849a3.5409,3.5409,0,0,0-4.306-2.176L49.25,87.7365a3.5413,3.5413,0,0,0-2.44,4.3009"/><polygon class="a" points="1.5 81.472 5.191 97.762 91.71 78.155 86.257 60.989 1.5 81.472"/><polygon class="a" points="86.257 60.989 250.01 1.501 254.695 19.982 92.057 78.436 86.257 60.989"/><polygon class="a" points="1.5 81.472 86.257 60.989 250.01 1.5 135.736 33.788 1.5 81.472"/></svg>