<svg xmlns="http://www.w3.org/2000/svg" viewBox="0 0 612.2578 359.8004"><defs><style>.a,.c{fill:#fff;}.a,.b{stroke:#e20613;}.a,.b,.c,.d,.e,.g{stroke-linecap:round;stroke-linejoin:round;}.a,.b,.c,.e{stroke-width:3px;}.b,.d,.e,.g{fill:none;}.c,.d,.e{stroke:#e10b17;}.f{font-size:33px;font-family:Lato-Italic, Lato;font-style:italic;}.f,.h{fill:#606060;}.g{stroke:#606060;stroke-width:2px;}</style></defs><title>anclaje</title><polyline class="a" points="189.46 146.06 189.46 29.078 471.464 1.5"/><polygon class="a" points="477.464 123.483 195.46 151.06 195.46 34.078 477.464 6.5 477.464 123.483"/><polygon class="a" points="477.464 123.483 195.46 151.06 195.46 34.078 477.464 6.5 477.464 123.483"/><ellipse class="a" cx="339.9613" cy="77.2956" rx="45.3211" ry="45.8145"/><polyline class="a" points="195.46 54.094 312.148 44.081 325.669 50.98"/><polyline class="a" points="379.081 49.088 363.597 37.907 477.464 29.63"/><polygon class="a" points="352.92 129.71 195.46 132.823 195.46 54.094 352.92 50.98 352.92 129.71"/><polygon class="a" points="477.464 108.359 352.92 130.155 352.92 51.425 477.464 29.63 477.464 108.359"/><polygon class="a" points="477.464 85.165 352.92 106.961 352.92 77.328 477.464 55.533 477.464 85.165"/><ellipse class="a" cx="353.6462" cy="87.009" rx="45.3211" ry="45.8145"/><ellipse class="a" cx="353.6462" cy="87.009" rx="19.3605" ry="19.5712"/><path class="b" d="M360.0663,69.0416A21.8874,21.8874,0,0,1,338.277,98.8934"/><polygon class="a" points="308.583 105.599 195.46 108.226 195.46 81.671 308.583 79.044 308.583 105.599"/><line class="b" x1="195.4601" y1="108.2262" x2="298.4828" y2="97.2425"/><line class="b" x1="400.1764" y1="83.9917" x2="477.4639" y2="85.1653"/><path class="b" d="M304.3982,105.6983a45.8874,45.8874,0,0,1-9.6864-25.8061"/><line class="b" x1="188.9639" y1="146.546" x2="194.9639" y2="151.546"/><line class="b" x1="470.9639" y1="1.546" x2="476.9639" y2="6.546"/><line class="b" x1="188.9639" y1="29.546" x2="194.9639" y2="34.546"/><polyline class="c" points="189.46 352.815 189.46 235.832 471.464 208.254"/><polygon class="c" points="477.464 330.237 195.46 357.815 195.46 240.832 477.464 213.254 477.464 330.237"/><polygon class="c" points="477.464 330.237 195.46 357.815 195.46 240.832 477.464 213.254 477.464 330.237"/><ellipse class="c" cx="352.9613" cy="287.2922" rx="17.478" ry="17.6682"/><path class="d" d="M362.196,271.355a17.8449,17.8449,0,0,1-25.2351,25.235"/><path class="d" d="M362.3942,273.2791a17.9178,17.9178,0,0,1-22.5083,24.8636"/><path class="c" d="M358.6765,271.6052a17.7626,17.7626,0,0,1-20.2906,23.8708"/><line class="e" x1="188.9639" y1="353.3004" x2="194.9639" y2="358.3004"/><line class="e" x1="470.9639" y1="208.3004" x2="476.9639" y2="213.3004"/><line class="e" x1="188.9639" y1="236.3004" x2="194.9639" y2="241.3004"/><polygon class="e" points="392.301 310.005 392.301 264.58 352.961 241.867 313.622 264.58 313.622 310.005 352.961 332.718 392.301 310.005"/><polyline class="e" points="352.961 241.867 346.667 238.352 307.328 261.064 307.328 306.489 313.622 310.005"/><line class="e" x1="352.9613" y1="241.867" x2="352.9613" y2="263.1143"/><line class="e" x1="352.9613" y1="311.4702" x2="352.9613" y2="332.7175"/><line class="e" x1="391.9779" y1="310.5551" x2="373.5613" y2="299.5745"/><line class="e" x1="332.2863" y1="275.1421" x2="307.3277" y2="261.0642"/><line class="e" x1="313.6219" y1="310.0049" x2="332.2153" y2="299.3177"/><line class="e" x1="373.7939" y1="275.419" x2="392.5341" y2="264.6475"/><ellipse class="e" cx="352.9613" cy="287.2922" rx="23.9176" ry="24.178"/><text class="f" transform="translate(0.0002 199.3131)">Platina</text><text class="f" transform="translate(517.8303 98.3131)">Cuña</text><text class="f" transform="translate(517.8303 292.3131)">Tuerca</text><polyline class="g" points="188.018 84.046 133.305 84.046 133.305 305.046 188.018 305.046"/><path class="h" d="M187.7929,79.5343a4.5117,4.5117,0,1,1-4.5116,4.5117A4.5121,4.5121,0,0,1,187.7929,79.5343Z"/><path class="h" d="M187.7929,309.5577a4.5117,4.5117,0,1,0-4.5116-4.5117A4.5122,4.5122,0,0,0,187.7929,309.5577Z"/><line class="g" x1="133.3047" y1="194.546" x2="114.3047" y2="194.546"/><line class="g" x1="502.3047" y1="87.046" x2="373.3047" y2="87.046"/><circle class="h" cx="373.3047" cy="87.046" r="4.5117"/><line class="g" x1="502.3047" y1="283.046" x2="373.3047" y2="283.046"/><circle class="h" cx="373.3047" cy="283.046" r="4.5117"/></svg>