<svg xmlns="http://www.w3.org/2000/svg" viewBox="0 0 1211.2305 799.6817"><defs><style>.a{font-size:33px;font-family:Lato-Italic, Lato;font-style:italic;}.a,.h{fill:#606060;}.b,.c,.d{fill:#fff;}.b,.c,.f,.i{stroke:#d91519;stroke-width:3px;}.b,.c,.f,.i,.j{stroke-linecap:round;stroke-linejoin:round;}.b,.g{opacity:0.5;}.e,.i{fill:#d91519;}.f,.j{fill:none;}.i{opacity:0.4;}.j{stroke:#606060;stroke-width:2px;}</style></defs><title>configuracion</title><text class="a" transform="translate(939.7439 413.0016)">Bloque de concreto <tspan x="0" y="39.5996">con canal </tspan></text><text class="a" transform="translate(758.7439 523.9811)">Medio bloque de <tspan x="0" y="39.5996">concreto con canal </tspan></text><text class="a" transform="translate(580.1792 627.2414)">Bloque deflector</text><polygon class="b" points="427.604 647.76 167.569 797.905 54.22 732.457 314.256 582.313 427.604 647.76"/><polygon class="c" points="395.225 566.967 395.225 539.881 427.377 558.228 427.377 496.766 313.76 431.169 313.76 582.658 427.377 648.255 427.377 585.314 395.225 566.967"/><path class="c" d="M83.68,653.0644v6.2478c0,11.0295,6.7061,16.0991,14.9782,11.3232l57.5094-33.2031c8.2721-4.7759,14.9782-17.5889,14.9782-28.6185V602.566l-.011-.15,113.1524,65.0627v32.06l-87.6931,50.9186v-32.06L83.4418,653.3343"/><path class="c" d="M216.8674,602.8872l53.3958-31.4605c8.2721-4.7759,14.9782-17.5889,14.9782-28.6185V536.56l-.011-.15,113.1524,65.0627v32.06L310.69,684.4512v-32.06L197.5372,587.3287"/><path class="c" d="M398.5382,601.6723V607.92c0,11.03-6.7058,23.8425-14.9781,28.6185l-57.5095,33.2031c-8.2721,4.7759-14.9781-.2937-14.9781-11.3233v-6.2477l-26.7741,15.458v6.2478c0,11.0295-6.706,23.8425-14.9781,28.6184L211.8108,735.698c-8.2721,4.7759-14.9781-.2936-14.9781-11.3232v-6.2477L167.875,734.8458v62.1315L427.496,647.0851V584.9536Z"/><path class="c" d="M285.3858,536.61v6.2478c0,11.03-6.7059,23.8425-14.9782,28.6185L212.8982,604.679c-8.2721,4.7759-14.9782-.2936-14.9782-11.3232V587.108l-26.774,15.458v6.2478c0,11.03-6.7061,23.8426-14.9782,28.6185L98.6584,670.6354c-8.2721,4.7759-14.9782-.2937-14.9782-11.3232v-6.2478L54.7225,669.7831v62.1316l259.621-149.8923V519.8909Z"/><path class="c" d="M83.68,652.2828v-32.094c0-11.03,6.7061-23.8425,14.9782-28.6184l57.5094-33.2032c8.2721-4.7759,14.9782.2936,14.9782,11.3233v6.2477L197.92,560.48v-6.2478c0-11.03,6.7061-23.8425,14.9782-28.6184l57.5094-33.2031c8.2723-4.776,14.9782.2936,14.9782,11.3232v31.8571l28.9577-16.7188V431.1316L54.7225,581.0238v87.9778Z"/><polygon class="c" points="310.69 652.391 197.537 587.329 171.135 602.416 284.287 667.478 310.69 652.391"/><polygon class="c" points="279.071 633.594 252.018 649.214 252.018 613.142 279.071 597.523 279.071 633.594"/><polygon class="d" points="201.656 592.442 225.71 578.555 225.71 603.497 201.656 617.384 201.656 592.442"/><path class="e" d="M224.21,581.1529v21.4782l-21.0535,12.1553V593.3081L224.21,581.1529m3-5.1962-27.0535,15.6194v28.4065L227.21,604.3632V575.9567Z"/><polygon class="c" points="54.682 669.836 167.835 734.898 196.594 718.397 83.442 653.334 54.682 669.836"/><polygon class="c" points="284.759 535.939 397.911 601.001 426.671 584.5 313.518 519.437 284.759 535.939"/><polygon class="c" points="171.425 602.407 251.736 649.721 251.781 622.697 171.471 575.382 171.425 602.407"/><polygon class="c" points="393.071 568.594 366.018 584.214 366.018 548.142 393.071 532.523 393.071 568.594"/><polygon class="f" points="54.31 642.242 54.31 581.096 167.927 646.693 167.927 708.218 167.668 707.603 134.832 688.865 134.832 715.951 167.668 734.689 167.927 733.369 167.927 798.182 54.31 732.585 54.31 671.462 54.31 642.242"/><polyline class="f" points="134.832 688.865 167.668 707.603 167.927 708.218 167.927 646.693"/><line class="f" x1="134.5935" y1="716.0214" x2="158.5935" y2="702.0214"/><polygon class="b" points="944.011 350.815 683.975 500.959 570.627 435.512 830.662 285.367 944.011 350.815"/><polyline class="b" points="571.237 345.289 570.717 344.296 570.717 283.151 684.333 348.747 684.333 410.272 684.074 409.657 651.238 390.92 651.238 418.006 684.074 436.743 684.333 435.424 684.333 500.236 570.717 434.64 570.717 373.516 571.237 372.375"/><polygon class="f" points="570.717 344.296 570.717 283.151 684.333 348.747 684.333 410.272 684.074 409.657 651.238 390.92 651.238 418.006 684.074 436.743 684.333 435.424 684.333 500.236 570.717 434.64 570.717 373.516 570.717 344.296"/><path class="c" d="M457.402,439.1144v6.2477c0,11.03,6.706,16.0991,14.9781,11.3232L529.89,423.4822c8.2721-4.7759,14.9781-17.5889,14.9781-28.6184V388.616l-.011-.15,113.1525,65.0626v32.06L570.316,536.5068v-32.06L457.1636,439.3843"/><path class="c" d="M684.7942,500.6169V438.2206L658.02,453.6787v6.2477c0,11.03-6.706,23.8426-14.9782,28.6185L585.5326,521.748c-8.2721,4.7759-14.9782-.2936-14.9782-11.3232V504.177l-28.9577,16.7188v62.1315l143.2116-82.41"/><polygon class="c" points="911.631 270.022 911.631 242.936 943.783 261.283 943.783 199.82 830.167 134.224 830.167 285.713 943.783 351.309 943.783 288.369 911.631 270.022"/><path class="c" d="M600.0867,356.1189v6.2477c0,11.03,6.706,16.0991,14.9781,11.3232l57.51-33.2031c8.2721-4.7759,14.9781-17.5889,14.9781-28.6184v-6.2478l-.011-.15,113.1525,65.0626v32.06l-87.6932,50.9186v-32.06L599.8483,356.3888"/><path class="c" d="M733.2739,305.9416l53.3958-31.46c8.2721-4.7759,14.9781-17.5889,14.9781-28.6184v-6.2478l-.011-.15,113.1525,65.0626v32.06l-87.6932,50.9186v-32.06L713.9437,290.3832"/><path class="c" d="M914.9447,304.7268v6.2477c0,11.03-6.7059,23.8425-14.9781,28.6185l-57.5095,33.2031c-8.2721,4.7759-14.9781-.2936-14.9781-11.3232v-6.2478l-26.7741,15.458v6.2478c0,11.03-6.706,23.8426-14.9781,28.6185l-57.5095,33.2031c-8.2721,4.7759-14.9781-.2936-14.9781-11.3232v-6.2478L684.2814,437.9v62.1315L943.9024,350.14V288.008Z"/><path class="c" d="M801.7922,239.6641v6.2478c0,11.03-6.7058,23.8425-14.9781,28.6185l-57.5095,33.2031c-8.2721,4.7759-14.9781-.2937-14.9781-11.3233v-6.2477l-26.7741,15.458v6.2478c0,11.03-6.706,23.8425-14.9781,28.6184L615.0648,373.69c-8.2721,4.7759-14.9781-.2936-14.9781-11.3232v-6.2477L571.129,372.8376v62.1315L830.75,285.0769V222.9454Z"/><path class="c" d="M600.0867,355.3373v-32.094c0-11.03,6.706-23.8426,14.9781-28.6185l57.51-33.2031c8.2721-4.7759,14.9781.2936,14.9781,11.3232v6.2478l26.7741-15.458v-6.2478c0-11.03,6.706-23.8426,14.9781-28.6185l57.51-33.2031c8.2723-4.776,14.9781.2936,14.9781,11.3232v31.8571L830.75,221.9269V134.186L571.129,284.0783V372.056Z"/><polygon class="c" points="827.096 355.446 713.944 290.383 687.541 305.47 800.694 370.533 827.096 355.446"/><polygon class="c" points="795.478 336.649 768.424 352.268 768.424 316.197 795.478 300.577 795.478 336.649"/><polygon class="d" points="718.063 295.497 742.116 281.61 742.116 306.551 718.063 320.439 718.063 295.497"/><path class="e" d="M740.6163,284.2073v21.4783l-21.0536,12.1553V296.3626l21.0536-12.1553m3-5.1962-27.0536,15.6194V323.037l27.0536-15.6194V279.0111Z"/><polygon class="c" points="571.089 372.89 684.241 437.953 713.001 421.451 599.848 356.389 571.089 372.89"/><polygon class="c" points="801.165 238.993 914.318 304.056 943.077 287.554 829.925 222.492 801.165 238.993"/><polygon class="c" points="687.832 305.461 768.143 352.776 768.188 325.751 687.877 278.437 687.832 305.461"/><polygon class="c" points="909.478 271.649 882.424 287.268 882.424 251.197 909.478 235.577 909.478 271.649"/><polygon class="c" points="801.832 240.461 882.143 287.776 882.188 260.751 801.877 213.437 801.832 240.461"/><polygon class="c" points="428.404 455.886 541.556 520.948 570.316 504.447 427.808 428.617 428.404 455.886"/><polygon class="c" points="684.411 438.441 571.259 373.379 544.857 388.466 658.009 453.528 684.411 438.441"/><polygon class="c" points="684.411 438.441 571.259 373.379 544.857 388.466 658.009 453.528 684.411 438.441"/><polygon class="c" points="652.793 419.644 625.74 435.264 625.74 399.192 652.793 383.573 652.793 419.644"/><polygon class="c" points="545.147 388.457 625.458 435.771 625.503 408.747 545.192 361.432 545.147 388.457"/><polygon class="c" points="428.404 455.886 541.556 520.948 570.316 504.447 427.808 428.617 428.404 455.886"/><polyline class="c" points="535.793 485.644 508.74 501.264 508.74 474.617"/><path class="f" d="M408.5914,549.4325,501.4681,495.34a10.4366,10.4366,0,0,1,15.6548,9.0383h0a10.4364,10.4364,0,0,1-5.2183,9.0383l-94.3669,54.831"/><ellipse class="f" cx="411.5918" cy="559.6602" rx="5.8699" ry="10.3756" transform="translate(-186.2726 205.8446) rotate(-23.0511)"/><g class="g"><path class="h" d="M364.4053,761.8835A6.61,6.61,0,0,1,361.1074,761L18.6372,565.6476a6.5952,6.5952,0,0,1-.0068-11.4263,6.5945,6.5945,0,0,1,6.5952,0l342.47,195.3526A6.5942,6.5942,0,0,1,367.7026,761,6.6015,6.6015,0,0,1,364.4053,761.8835Z"/><path class="d" d="M21.9282,554.8376a5.0907,5.0907,0,0,1,2.5476.6827L366.9527,750.8764a5.0949,5.0949,0,0,1,0,8.8244h0a5.0941,5.0941,0,0,1-5.0952,0L19.3806,564.3448a5.095,5.095,0,0,1,2.5476-9.5072m0-3a8.1061,8.1061,0,0,0-4.0478,1.0847,8.095,8.095,0,0,0,0,14.0205L360.371,762.3067a8.0949,8.0949,0,0,0,8.0818-14.0283L25.9623,552.9145a8.09,8.09,0,0,0-4.0341-1.0769Z"/></g><g class="g"><path class="h" d="M858.4053,442.8835A6.6037,6.6037,0,0,1,855.1074,442l-342.47-195.3521a6.5952,6.5952,0,0,1-.0068-11.4263,6.5945,6.5945,0,0,1,6.5952,0L861.6963,430.5739A6.5947,6.5947,0,0,1,861.7031,442,6.6088,6.6088,0,0,1,858.4053,442.8835Z"/><path class="d" d="M515.9282,235.8376a5.0907,5.0907,0,0,1,2.5476.6827L860.9527,431.8764a5.0949,5.0949,0,1,1-5.0952,8.8244L513.3806,245.3448a5.095,5.095,0,0,1,2.5476-9.5072m0-3a8.1061,8.1061,0,0,0-4.0478,1.0847,8.095,8.095,0,0,0,0,14.02L854.371,443.3067a8.0949,8.0949,0,0,0,8.0818-14.0283L519.9622,233.9145a8.09,8.09,0,0,0-4.034-1.0769Z"/></g><g class="g"><path class="h" d="M17.9282,793.8835A6.6093,6.6093,0,0,1,14.63,793a6.5952,6.5952,0,0,1,0-11.4224L1000.1094,214.22a6.5959,6.5959,0,0,1,6.5937,0,6.5955,6.5955,0,0,1,0,11.4228L21.2241,793.0006A6.6006,6.6006,0,0,1,17.9282,793.8835Z"/><path class="d" d="M1003.4051,214.8376a5.095,5.095,0,0,1,2.5477,9.5072L20.4758,791.7009a5.0947,5.0947,0,0,1-5.0952,0h0a5.095,5.095,0,0,1,0-8.8245L1000.8574,215.52a5.0913,5.0913,0,0,1,2.5477-.6827m0-3a8.1058,8.1058,0,0,0-4.048,1.0847L13.8837,780.2765a8.095,8.095,0,0,0-.0033,14.0224,8.0947,8.0947,0,0,0,8.0953,0L1007.45,226.9446a8.0948,8.0948,0,0,0,.0033-14.0223,8.1052,8.1052,0,0,0-4.0477-1.0847Z"/></g><polygon class="c" points="311.161 626.518 198.009 561.455 171.606 576.542 284.759 641.605 311.161 626.518"/><polygon class="c" points="827.568 328.572 714.415 263.509 688.013 278.596 801.165 343.659 827.568 328.572"/><polygon class="c" points="941.568 263.572 828.415 198.509 802.013 213.596 915.165 278.659 941.568 263.572"/><path class="c" d="M713.2392,394.5537V388.306c0-11.03,6.706-23.8426,14.9781-28.6185l57.51-33.2031c8.2721-4.7759,14.9781.2936,14.9781,11.3232v6.2478l26.7741-15.4581V322.35c0-11.03,6.706-23.8426,14.9781-28.6185l57.51-33.2031c8.2722-4.776,14.9781.2936,14.9781,11.3232v6.2478L943.9024,261.38V199.2487L684.2814,349.141v62.1315Z"/><polyline class="f" points="651.238 390.92 684.074 409.657 684.333 410.272 684.333 348.747"/><polygon class="b" points="944.011 199.002 683.975 349.146 570.627 283.699 830.662 133.554 944.011 199.002"/><line class="f" x1="651" y1="418.0758" x2="675" y2="404.0758"/><line class="c" x1="684.4178" y1="349.479" x2="571.547" y2="283.929"/><path class="c" d="M544.8677,388.616v6.2478c0,11.0295-6.706,23.8425-14.9781,28.6184L472.38,456.6853c-8.2721,4.7759-14.9781-.2936-14.9781-11.3232v-6.2477l-28.9577,16.7187v62.1315l113.364-65.3477"/><path class="c" d="M571.8083,284.6169l-143.364,82.4569v87.9777l28.9577-16.7187v-32.094c0-11.03,6.706-23.8426,14.9781-28.6185L529.89,344.4172c8.2721-4.7759,14.9781.2936,14.9781,11.3232v6.2478l26.7741-15.458V284.6169"/><path class="c" d="M541.0092,493.5283,427.8567,428.4657l26.4023-15.087,113.1524,65.0626Z"/><polyline class="b" points="428.552 429.285 428.032 428.292 428.032 367.146 541.648 432.743 541.648 494.268 541.39 493.653 508.554 474.915 508.554 502.001 541.39 520.739 541.648 519.419 541.648 584.232 428.032 518.635 428.032 457.512 428.552 456.371"/><polyline class="f" points="508.554 474.915 541.39 493.653 541.648 494.268 541.648 432.743"/><line class="c" x1="684.8829" y1="349.5676" x2="571.7304" y2="284.505"/><polygon class="c" points="684.411 412.441 571.259 347.379 544.857 362.466 658.009 427.528 684.411 412.441"/><polygon class="b" points="684.587 349.512 541.291 432.142 427.942 366.694 571.238 284.064 684.587 349.512"/><path class="c" d="M684.8083,349.6169l-143.2116,82.52V494.268l28.9577-16.7188v-6.2477c0-11.03,6.7061-23.8426,14.9782-28.6185L643.042,409.48c8.2722-4.7759,14.9782.2936,14.9782,11.3232v6.2478l26.774-15.458v-61.976"/><polygon class="f" points="313.644 581.691 427.559 647.983 427.559 497.805 313.644 431.513 313.644 581.691"/><path class="c" d="M492.4857,546.5032,381.609,482.41a10.4365,10.4365,0,0,0-15.6548,9.0383h0a10.4365,10.4365,0,0,0,5.2183,9.0383l112.3669,64.831"/><polygon class="i" points="541.518 581.691 427.603 647.983 427.603 497.805 541.518 431.513 541.518 581.691"/><polyline class="f" points="541.518 431.513 541.518 581.691 427.603 647.983"/><polygon class="i" points="313.689 431.513 427.603 497.288 541.518 431.513 427.603 365.739 313.689 431.513"/><polygon class="c" points="285.425 537.407 365.736 584.721 365.781 557.697 285.471 510.382 285.425 537.407"/><polygon class="c" points="425.161 560.518 312.009 495.455 285.606 510.542 398.759 575.605 425.161 560.518"/><polygon class="f" points="313.689 431.513 427.603 497.288 541.518 431.513 427.603 365.739 313.689 431.513"/><polygon class="b" points="427.604 495.948 167.569 646.092 54.22 580.644 314.256 430.5 427.604 495.948"/><polygon class="c" points="427.604 365.948 167.569 516.092 54.22 450.644 314.256 300.5 427.604 365.948"/><polyline class="c" points="1.5 481.576 54.256 450.5 167.604 515.948 3.569 611.092"/><polygon class="c" points="685.604 216.948 425.569 367.092 312.22 301.644 572.256 151.5 685.604 216.948"/><polyline class="c" points="830.5 133.576 685.569 217.092 572.22 151.644 832.256 1.5"/><path class="c" d="M196.8327,691.4993v-6.2478c0-11.03,6.706-23.8426,14.9781-28.6185L269.32,623.43c8.2721-4.7759,14.9781.2936,14.9781,11.3232v6.2478l26.7741-15.458v-6.2478c0-11.03,6.706-23.8426,14.9781-28.6185l57.51-33.2031c8.2723-4.776,14.9781.2936,14.9781,11.3232v6.2478l28.9578-16.7187V496.1942L167.875,646.0865V708.218Z"/><ellipse class="c" cx="487.4853" cy="555.7309" rx="10.3756" ry="5.8699" transform="translate(-214.7495 786.6964) rotate(-66.9489)"/><polygon class="b" points="54.31 642.242 54.31 581.096 167.927 646.693 167.927 708.218 167.668 707.603 134.832 688.865 134.832 715.951 167.668 734.689 167.927 733.369 167.927 798.182 54.31 732.585 54.31 671.462 54.31 642.242"/><line class="j" x1="564.2076" y1="614.232" x2="485.5199" y2="614.232"/><circle class="h" cx="485.5199" cy="614.232" r="4.5117"/><line class="j" x1="744" y1="512.232" x2="664.5199" y2="512.232"/><circle class="h" cx="664.5199" cy="512.232" r="4.5117"/><line class="j" x1="924.2076" y1="399.232" x2="858.5199" y2="399.232"/><circle class="h" cx="858.5199" cy="399.232" r="4.5117"/></svg>