<svg xmlns="http://www.w3.org/2000/svg" viewBox="0 0 495.2604 645.7676"><defs><style>.a,.c,.e,.g{fill:none;stroke-linejoin:round;}.a,.e{stroke:#606060;}.a,.e,.g{stroke-linecap:round;}.a,.b,.c,.g{stroke-width:3px;}.a,.c{opacity:0.5;}.b{fill:#d91519;stroke:#d91519;stroke-miterlimit:10;}.c,.g{stroke:#fff;}.d{font-size:33px;font-family:Lato-Italic, Lato;font-style:italic;}.d,.f{fill:#606060;}.e{stroke-width:2px;}.h{fill:#fff;}</style></defs><title>deflector_vl</title><rect class="a" x="97.7831" y="177.5241" width="362.5393" height="68.0494"/><line class="a" x1="64.345" y1="222.1082" x2="493.7604" y2="222.1082"/><rect class="b" x="245.028" y="176.9375" width="68.0494" height="68.0494"/><line class="c" x1="315.244" y1="222.1082" x2="242.8614" y2="222.1082"/><text class="d" transform="translate(20.1299 28.3223)">Barra de<tspan x="-20.1299" y="39.5996">postensado</tspan></text><text class="d" transform="translate(232.1348 92.1152)">Bloque<tspan x="-13.8516" y="39.5996">deflector</tspan></text><line class="e" x1="78.4771" y1="91.6074" x2="78.4771" y2="218.5286"/><path class="f" d="M73.9653,218.5286a4.5118,4.5118,0,1,0,4.5118-4.5115A4.5124,4.5124,0,0,0,73.9653,218.5286Z"/><line class="e" x1="438.4907" y1="148.9819" x2="438.4907" y2="196.6348"/><circle class="f" cx="438.4907" cy="196.6348" r="4.5117"/><line class="g" x1="279.7936" y1="148.9819" x2="279.7936" y2="196.6348"/><circle class="h" cx="279.7936" cy="196.6348" r="3.6094"/><line class="e" x1="279.7936" y1="148.9819" x2="279.7936" y2="196.6348"/><circle class="f" cx="279.7936" cy="196.6348" r="4.5117"/><text class="d" transform="translate(411.2246 137.0693)">Losa</text><text class="d" transform="translate(201.5127 343.4805)">Con bloque</text><path class="a" d="M242.8593,445.1673c-37.0336-4.362-145.0762-33.531-145.0762-33.531v-68.05s108.045,29.5725,145.0793,33.9346c17.9717,2.1167,54.412,2.1168,72.3837,0,37.0335-4.3621,145.0762-33.9346,145.0762-33.9346v68.05s-108.045,29.169-145.0793,33.531"/><polyline class="a" points="64.345 388.171 240.333 422.827 317.348 422.827 493.76 388.171"/><rect class="b" x="245.028" y="377.6567" width="68.0494" height="68.0494"/><line class="c" x1="315.244" y1="422.8275" x2="242.8614" y2="422.8275"/><text class="d" transform="translate(208.2207 540.1875)">Sin bloque</text><path class="a" d="M460.3223,608.0234S352.2773,638.318,315.243,642.68c-17.9717,2.1168-54.412,2.1168-72.3837,0-37.0336-4.362-145.0762-34.6566-145.0762-34.6566V539.974s108.045,29.5725,145.0793,33.9345c17.9717,2.1168,54.412,2.1168,72.3837,0,37.0335-4.362,145.0762-33.9345,145.0762-33.9345Z"/><line class="a" x1="64.345" y1="595.3883" x2="493.7604" y2="595.3883"/></svg>