<svg xmlns="http://www.w3.org/2000/svg" viewBox="0 0 326.4123 413.2978"><defs><style>.a,.e{fill:none;}.a,.b{stroke:#d91519;}.a,.b,.e{stroke-linecap:round;stroke-linejoin:round;}.a,.b,.c,.e{stroke-width:3px;}.b{fill:#fff;}.c,.d,.f{fill:#606060;}.c{stroke:#fff;stroke-miterlimit:10;opacity:0.5;}.d{font-size:33px;font-family:Lato-Italic, Lato;font-style:italic;}.e{stroke:#606060;}</style></defs><title>deflector</title><polygon class="a" points="83.583 218.274 197.498 284.049 311.413 218.274 197.498 152.5 83.583 218.274"/><polygon class="a" points="83.539 217.452 197.453 283.744 197.453 133.566 83.539 67.274 83.539 217.452"/><path class="a" d="M138.486,193.1935l110.8766-64.0929a10.4366,10.4366,0,0,1,15.6548,9.0383h0a10.4365,10.4365,0,0,1-5.2183,9.0383l-112.3669,64.831"/><ellipse class="a" cx="143.4863" cy="202.4212" rx="5.8699" ry="10.3756" transform="translate(-67.8018 72.3443) rotate(-23.0511)"/><path class="b" d="M262.38,182.2642,151.5035,118.1714a10.4365,10.4365,0,0,0-15.6548,9.0383h0a10.4365,10.4365,0,0,0,5.2183,9.0383l112.367,64.831"/><ellipse class="b" cx="257.3798" cy="191.4919" rx="10.3756" ry="5.8699" transform="translate(-19.6001 353.3427) rotate(-66.9489)"/><path class="c" d="M321.5916,106.83,55.9565,260.5341a6.6414,6.6414,0,0,1-9.9621-5.7517h0a6.6416,6.6416,0,0,1,3.3207-5.7516L314.95,95.327a6.6414,6.6414,0,0,1,9.9621,5.7516h0A6.6413,6.6413,0,0,1,321.5916,106.83Z"/><polyline class="a" points="311.413 67.274 311.413 217.452 197.498 283.744"/><path class="c" d="M65.3151,87.83,314.95,234.5341a6.6414,6.6414,0,0,0,9.9621-5.7517h0a6.6416,6.6416,0,0,0-3.3207-5.7516L71.9565,76.327a6.6414,6.6414,0,0,0-9.9621,5.7516h0A6.6413,6.6413,0,0,0,65.3151,87.83Z"/><polygon class="a" points="83.583 67.274 197.498 133.049 311.413 67.274 197.498 1.5 83.583 67.274"/><text class="d" transform="translate(20.1301 364.8378)">Barra de<tspan x="-20.1299" y="39.5996">postensado</tspan></text><line class="e" x1="78.3945" y1="327.3368" x2="78.3945" y2="247.3368"/><circle class="f" cx="78.3945" cy="247.3368" r="6.7676"/></svg>