<svg xmlns="http://www.w3.org/2000/svg" viewBox="0 0 378.7812 303.1672"><defs><style>.a,.b,.g{fill:#fff;}.a,.b,.c{stroke:#d91519;stroke-linecap:round;stroke-linejoin:round;}.a,.b,.c,.d{stroke-width:3px;}.b,.d,.e{opacity:0.5;}.c{fill:none;}.d,.f{fill:#606060;}.d{stroke:#fff;stroke-miterlimit:10;}</style></defs><title>losa_half</title><path class="a" d="M74.8749,156.55v6.2478c0,11.03,6.706,16.0991,14.9781,11.3232l57.51-33.2031c8.2721-4.7759,14.9781-17.5889,14.9781-28.6185v-6.2477l-.011-.15,113.1525,65.0627v32.06l-87.6932,50.9186v-32.06L74.6365,156.82"/><path class="a" d="M302.2672,218.0525V155.6562l-26.7741,15.458v6.2478c0,11.03-6.706,23.8426-14.9781,28.6185l-57.5095,33.2031c-8.2721,4.7759-14.9781-.2937-14.9781-11.3232v-6.2478L159.07,238.3313v62.1316l143.2116-82.41"/><path class="a" d="M162.3406,106.0516v6.2477c0,11.03-6.706,23.8426-14.9781,28.6185l-57.51,33.2031c-8.2721,4.7759-14.9781-.2936-14.9781-11.3232V156.55L45.9172,173.2687V235.4l113.364-65.3477"/><path class="a" d="M189.2812,2.0525,45.9172,84.5094v87.9777l28.9577-16.7187v-32.094c0-11.03,6.706-23.8426,14.9781-28.6185l57.51-33.2031c8.2721-4.7759,14.9781.2936,14.9781,11.3232v6.2478l26.7741-15.458V2.0525"/><polygon class="a" points="301.884 155.877 188.732 90.814 162.33 105.901 275.482 170.964 301.884 155.877"/><polygon class="a" points="270.266 137.08 243.212 152.699 243.212 116.628 270.266 101.008 270.266 137.08"/><polygon class="a" points="45.877 173.321 159.029 238.384 187.789 221.883 45.281 146.053 45.877 173.321"/><polyline class="a" points="153.266 203.08 126.212 218.699 126.212 192.053"/><polygon class="a" points="162.62 105.892 242.931 153.207 242.976 126.182 162.665 78.868 162.62 105.892"/><path class="a" d="M158.4821,210.9639,45.33,145.9012l26.4023-15.0869,113.1524,65.0626Z"/><polyline class="b" points="46.025 146.72 45.505 145.728 45.505 84.582 159.121 150.179 159.121 211.704 158.863 211.088 126.027 192.351 126.027 219.437 158.863 238.174 159.121 236.855 159.121 301.667 45.505 236.071 45.505 174.947 46.025 173.806"/><polygon class="c" points="45.505 145.728 45.505 84.582 159.121 150.179 159.121 211.704 158.863 211.088 126.027 192.351 126.027 219.437 158.863 238.174 159.121 236.855 159.121 301.667 45.505 236.071 45.505 174.947 45.505 145.728"/><polyline class="c" points="126.027 192.351 158.863 211.088 159.121 211.704 159.121 150.179"/><line class="a" x1="302.3558" y1="67.0032" x2="189.2033" y2="1.9405"/><path class="d" d="M360.6194,244.8531,9.1425,41.4969a5.0951,5.0951,0,0,0-5.0952,0h0a5.0949,5.0949,0,0,0,0,8.8245L355.5242,253.6776a5.0951,5.0951,0,0,0,5.0952,0h0A5.0949,5.0949,0,0,0,360.6194,244.8531Z"/><g class="e"><path class="f" d="M39.21,290.86a6.6009,6.6009,0,0,1-3.2979-.8841,6.5951,6.5951,0,0,1,0-11.4223L367.3828,85.2012a6.5961,6.5961,0,0,1,6.6016-.0034,6.5955,6.5955,0,0,1,0,11.4226L42.5127,289.9732A6.6087,6.6087,0,0,1,39.21,290.86Z"/><path class="g" d="M370.6863,85.8142a5.095,5.095,0,0,1,2.5476,9.5074L41.757,288.6775a5.0949,5.0949,0,1,1-5.0952-8.8245L368.1387,86.4968a5.0926,5.0926,0,0,1,2.5476-.6826m0-3a8.106,8.106,0,0,0-4.0477,1.0845L35.15,277.2617a8.095,8.095,0,0,0,.0116,14.014,8.094,8.094,0,0,0,8.0956,0L374.7455,97.9129a8.0952,8.0952,0,0,0-.0116-14.0142,8.1054,8.1054,0,0,0-4.0476-1.0845Z"/></g><polygon class="a" points="301.884 129.877 188.732 64.814 162.33 79.901 275.482 144.964 301.884 129.877"/><path class="a" d="M302.2812,67.0525,159.07,149.572v62.1316l28.9578-16.7188V188.737c0-11.03,6.706-23.8425,14.9781-28.6184l57.5095-33.2031c8.2721-4.7759,14.9781.2935,14.9781,11.3232v6.2477l26.7741-15.458V67.0525"/><polygon class="b" points="302.06 66.948 158.764 149.577 45.415 84.13 188.711 1.5 302.06 66.948"/></svg>