<svg xmlns="http://www.w3.org/2000/svg" viewBox="0 0 528.7812 384.329"><defs><style>.a,.b,.d{fill:#d91519;}.a,.b,.f{stroke:#fff;}.a,.b,.c,.f{stroke-linecap:round;stroke-linejoin:round;stroke-width:3px;}.b,.c,.g{opacity:0.5;}.c,.e{fill:#fff;}.c{stroke:#d91519;}.f{fill:none;}</style></defs><title>losa_white</title><polygon class="a" points="421.913 137.967 421.913 110.881 454.065 129.228 454.065 67.766 340.448 2.169 340.448 153.658 454.065 219.255 454.065 156.314 421.913 137.967"/><polygon class="b" points="454.292 218.76 194.257 368.905 80.908 303.457 340.943 153.313 454.292 218.76"/><path class="a" d="M425.0705,172.4728v32.06l-87.6931,50.9186v-32.06L224.2249,158.3287l19.33,15.5585,53.3959-31.46c8.2721-4.7759,14.9781-17.5889,14.9781-28.6185V107.56l-.011-.15"/><path class="a" d="M312.0735,107.61v6.2478c0,11.03-6.7059,23.8425-14.9781,28.6185L239.5859,175.679c-8.2721,4.7759-14.9781-.2936-14.9781-11.3232V158.108l-26.7741,15.458v6.2478c0,11.03-6.706,23.8426-14.9781,28.6185l-57.5095,33.2031c-8.2721,4.7759-14.9781-.2937-14.9781-11.3232v-6.2478L81.41,240.7831v62.1316l259.621-149.8923V90.8909Z"/><polyline class="a" points="310.975 238.478 310.975 270.538 223.282 321.457 223.282 289.397 110.13 224.334"/><path class="a" d="M110.368,224.0644v6.2478c0,11.03,6.706,16.0991,14.9781,11.3232l57.51-33.2031c8.2721-4.7759,14.9781-17.5889,14.9781-28.6185V173.566l-.011-.15"/><path class="a" d="M425.2259,172.6723V178.92c0,11.03-6.7058,23.8425-14.9781,28.6185l-57.5095,33.2031c-8.2721,4.7759-14.9781-.2937-14.9781-11.3233v-6.2477l-26.774,15.458v6.2478c0,11.03-6.7061,23.8425-14.9782,28.6184L238.4986,306.698c-8.2722,4.7759-14.9782-.2936-14.9782-11.3232v-6.2477l-28.9577,16.7187v62.1315l259.621-149.8922V155.9536Z"/><path class="c" d="M501.6194,371.822,9.1425,87.4658a5.0946,5.0946,0,0,0-5.0952,0h0a5.0949,5.0949,0,0,0,0,8.8245L496.5242,380.6464a5.0946,5.0946,0,0,0,5.0952,0h0A5.0949,5.0949,0,0,0,501.6194,371.822Z"/><path class="a" d="M110.368,223.2828v-32.094c0-11.03,6.706-23.8425,14.9781-28.6184l57.51-33.2032c8.2721-4.7759,14.9781.2936,14.9781,11.3233v6.2477l26.7741-15.458v-6.2478c0-11.03,6.706-23.8425,14.9781-28.6184l57.5095-33.2031c8.2722-4.776,14.9781.2936,14.9781,11.3232v31.8571l28.9577-16.7188V2.1316L81.41,152.0238v87.9778Z"/><polygon class="a" points="337.377 223.391 224.225 158.329 279.281 220.021 310.975 238.478 337.377 223.391"/><polygon class="a" points="305.759 204.594 278.706 220.214 278.706 184.142 305.759 168.523 305.759 204.594"/><polygon class="d" points="228.344 163.442 252.397 149.555 252.397 174.497 228.344 188.384 228.344 163.442"/><path class="e" d="M250.8975,152.1532v21.478L229.844,185.786V164.308l21.0535-12.1548m3-5.1963L226.844,162.5761v28.4062l27.0535-15.6191V146.9569Z"/><polygon class="a" points="81.37 240.836 194.522 305.898 223.282 289.397 110.13 224.334 81.37 240.836"/><polyline class="a" points="424.599 172.001 453.359 155.5 340.206 90.437 312.447 106.939"/><polyline class="a" points="278.424 221.721 278.469 193.697 198.158 146.382 198.113 173.407"/><polygon class="a" points="419.759 139.594 393.706 155.214 392.706 119.142 419.759 103.523 419.759 139.594"/><polyline class="a" points="394.281 155.021 394.326 129.697 312.158 81.382 312.113 116.521"/><polyline class="b" points="81.518 214.235 80.998 213.242 80.998 152.096 194.614 217.693 194.614 279.218 194.356 278.603 161.52 259.865 161.52 286.951 194.356 305.689 194.614 304.369 194.614 369.182 80.998 303.585 80.998 242.462 81.518 241.321"/><polygon class="f" points="80.998 213.242 80.998 152.096 194.614 217.693 194.614 279.218 194.356 278.603 161.52 259.865 161.52 286.951 194.356 305.689 194.614 304.369 194.614 369.182 80.998 303.585 80.998 242.462 80.998 213.242"/><g class="g"><path class="e" d="M28.209,382.8291a6.6028,6.6028,0,0,1-3.2969-.8838,6.5942,6.5942,0,0,1,0-11.4223L517.3887,86.1668a6.5961,6.5961,0,0,1,6.5957,0,6.5955,6.5955,0,0,1,0,11.4226L31.5068,381.9453A6.6033,6.6033,0,0,1,28.209,382.8291Z"/><path class="d" d="M520.6863,86.7831a5.095,5.095,0,0,1,2.5476,9.5073L30.757,380.6464a5.0948,5.0948,0,0,1-5.0952-8.8242L518.1387,87.4657a5.0916,5.0916,0,0,1,2.5476-.6826m0-3a8.1065,8.1065,0,0,0-4.0476,1.0845L24.1617,369.224a8.0949,8.0949,0,0,0,0,14.0205,8.0955,8.0955,0,0,0,8.0952,0L524.734,98.8886a8.0953,8.0953,0,0,0,0-14.021,8.1062,8.1062,0,0,0-4.0476-1.0845Z"/></g><polygon class="a" points="337.849 196.518 224.696 131.455 198.294 146.542 311.447 211.605 337.849 196.518"/><polygon class="a" points="451.849 131.518 338.696 66.455 312.294 81.542 425.447 146.605 451.849 131.518"/><path class="a" d="M223.52,262.4993v-6.2478c0-11.03,6.706-23.8426,14.9782-28.6185L296.008,194.43c8.2721-4.7759,14.9782.2936,14.9782,11.3232v6.2478l26.774-15.458v-6.2478c0-11.03,6.706-23.8426,14.9781-28.6185l57.51-33.2031c8.2723-4.776,14.9781.2936,14.9781,11.3232v6.2478l28.9578-16.7187V67.1942L194.5627,217.0865V279.218Z"/><polyline class="f" points="161.52 259.865 194.356 278.603 194.614 279.218 194.614 217.693"/><polygon class="b" points="454.292 66.948 194.257 217.092 80.908 151.644 340.943 1.5 454.292 66.948"/><line class="f" x1="161.2812" y1="287.0214" x2="185.2812" y2="273.0214"/></svg>