<svg xmlns="http://www.w3.org/2000/svg" viewBox="0 0 633.149 435.8047"><defs><style>.a,.b,.d,.k{fill:#fff;}.a,.b,.f{stroke:#d91519;}.a,.b,.c,.f,.j{stroke-linecap:round;stroke-linejoin:round;}.a,.b,.c,.f{stroke-width:3px;}.b,.c,.g{opacity:0.5;}.c,.h,.i{fill:#606060;}.c{stroke:#fff;}.e{fill:#d91519;}.f,.j,.l{fill:none;}.i{font-size:33px;font-family:Lato-Italic, Lato;font-style:italic;}.j{stroke:#606060;stroke-width:2px;}.k,.l{stroke:#000;stroke-miterlimit:10;}</style></defs><title>losa_red</title><polygon class="a" points="434.947 189.443 434.947 162.357 467.099 180.704 467.099 119.242 353.483 53.645 353.483 205.134 467.099 270.73 467.099 207.79 434.947 189.443"/><polygon class="b" points="467.327 270.236 207.291 420.381 93.943 354.933 353.978 204.789 467.327 270.236"/><path class="a" d="M438.1052,223.9485v32.06l-87.6931,50.9186v-32.06L237.26,209.8044l19.33,15.5585,53.3958-31.46c8.2721-4.7759,14.9782-17.5889,14.9782-28.6185v-6.2478l-.011-.15"/><path class="a" d="M325.1082,159.0853v6.2478c0,11.03-6.7059,23.8425-14.9782,28.6185l-57.5094,33.2031c-8.2721,4.7759-14.9782-.2936-14.9782-11.3232v-6.2478l-26.774,15.458V231.29c0,11.03-6.7061,23.8426-14.9782,28.6185l-57.5094,33.2031c-8.2721,4.7759-14.9782-.2937-14.9782-11.3232V275.54L94.4449,292.2588V354.39l259.621-149.8923V142.3666Z"/><polyline class="a" points="324.01 289.954 324.01 322.014 236.317 372.933 236.317 340.873 123.164 275.81"/><path class="a" d="M123.4026,275.54v6.2478c0,11.03,6.7061,16.0991,14.9782,11.3232L195.89,259.908c8.2721-4.7759,14.9782-17.5889,14.9782-28.6185v-6.2478l-.011-.15"/><path class="a" d="M438.2606,224.148v6.2478c0,11.03-6.7058,23.8425-14.9781,28.6184L365.773,292.2174c-8.2721,4.7759-14.9781-.2937-14.9781-11.3233v-6.2477l-26.7741,15.458v6.2478c0,11.03-6.706,23.8425-14.9781,28.6184l-57.51,33.2031c-8.2721,4.7759-14.9781-.2936-14.9781-11.3232v-6.2478l-28.9577,16.7188V419.453L467.2183,269.5608V207.4293Z"/><path class="c" d="M514.6541,423.2976,22.1772,138.9415a5.0946,5.0946,0,0,0-5.0952,0h0a5.0949,5.0949,0,0,0,0,8.8244L509.5589,432.1221a5.0946,5.0946,0,0,0,5.0952,0h0A5.0949,5.0949,0,0,0,514.6541,423.2976Z"/><path class="a" d="M123.4026,274.7585v-32.094c0-11.03,6.7061-23.8426,14.9782-28.6185L195.89,180.8429c8.2721-4.7759,14.9782.2936,14.9782,11.3233v6.2477l26.774-15.458v-6.2478c0-11.03,6.7061-23.8425,14.9782-28.6184L310.13,114.8866c8.2723-4.776,14.9782.2935,14.9782,11.3232v31.857l28.9577-16.7187V53.6073L94.4449,203.5v87.9778Z"/><polygon class="a" points="350.412 274.867 237.26 209.804 292.316 271.497 324.01 289.954 350.412 274.867"/><polygon class="a" points="318.794 256.07 291.74 271.689 291.74 235.618 318.794 219.999 318.794 256.07"/><polygon class="d" points="241.378 214.918 265.432 201.031 265.432 225.973 241.378 239.86 241.378 214.918"/><path class="e" d="M263.9322,203.6289v21.478l-21.0535,12.1548v-21.478l21.0535-12.1548m3-5.1963-27.0535,15.6192V242.458l27.0535-15.6191V198.4326Z"/><polygon class="a" points="94.405 292.311 207.557 357.374 236.317 340.873 123.164 275.81 94.405 292.311"/><polyline class="a" points="437.634 223.477 466.393 206.976 353.241 141.913 325.481 158.414"/><polyline class="a" points="291.458 273.197 291.504 245.172 211.193 197.858 211.148 224.882"/><polygon class="a" points="432.794 191.07 406.74 206.689 405.74 170.618 432.794 154.999 432.794 191.07"/><polyline class="a" points="407.316 206.497 407.361 181.172 325.193 132.858 325.148 167.997"/><polyline class="b" points="94.553 265.71 94.033 264.718 94.033 203.572 207.649 269.169 207.649 330.694 207.39 330.078 174.554 311.341 174.554 338.427 207.39 357.164 207.649 355.845 207.649 420.657 94.033 355.061 94.033 293.937 94.553 292.796"/><polygon class="f" points="94.033 264.718 94.033 203.572 207.649 269.169 207.649 330.694 207.39 330.078 174.554 311.341 174.554 338.427 207.39 357.164 207.649 355.845 207.649 420.657 94.033 355.061 94.033 293.937 94.033 264.718"/><g class="g"><path class="h" d="M41.2437,434.3049a6.6,6.6,0,0,1-3.2969-.884,6.5942,6.5942,0,0,1,0-11.4224L530.4233,137.6423a6.5974,6.5974,0,0,1,6.5957,0,6.5954,6.5954,0,0,1,0,11.4226L44.5415,433.4211A6.6026,6.6026,0,0,1,41.2437,434.3049Z"/><path class="d" d="M533.721,138.2588a5.095,5.095,0,0,1,2.5476,9.5073L43.7917,432.1221a5.0948,5.0948,0,1,1-5.0952-8.8242L531.1734,138.9414a5.0916,5.0916,0,0,1,2.5476-.6826m0-3a8.1061,8.1061,0,0,0-4.0475,1.0845L37.1964,420.7a8.0949,8.0949,0,0,0,0,14.02,8.0955,8.0955,0,0,0,8.0952,0l492.477-284.3559a8.0953,8.0953,0,0,0,0-14.021,8.1063,8.1063,0,0,0-4.0477-1.0845Z"/></g><polygon class="a" points="350.884 247.993 237.731 182.931 211.329 198.018 324.481 263.08 350.884 247.993"/><polygon class="a" points="464.884 182.993 351.731 117.931 325.329 133.018 438.481 198.08 464.884 182.993"/><path class="a" d="M236.5551,313.975v-6.2478c0-11.03,6.706-23.8426,14.9781-28.6185l57.51-33.2031c8.2721-4.7759,14.9781.2936,14.9781,11.3232v6.2478l26.7741-15.458v-6.2478c0-11.03,6.706-23.8426,14.9781-28.6185l57.51-33.2031c8.2723-4.776,14.9781.2936,14.9781,11.3232V197.52l28.9577-16.7187V118.67L207.5974,268.5622v62.1315Z"/><polyline class="f" points="174.554 311.341 207.39 330.078 207.649 330.694 207.649 269.169"/><polygon class="b" points="467.327 118.423 207.291 268.568 93.943 203.12 353.978 52.976 467.327 118.423"/><line class="f" x1="174.3159" y1="338.4971" x2="198.3159" y2="324.4971"/><line class="f" x1="438.3159" y1="223.4971" x2="407.3159" y2="205.4971"/><text class="i" transform="translate(16.2686 28.3223)">Barra de <tspan x="-16.2686" y="39.5996">postensado</tspan></text><line class="j" x1="79.1141" y1="86.7437" x2="78.4908" y2="174.6348"/><path class="h" d="M73.9792,174.6025a4.5117,4.5117,0,1,0,4.5436-4.48A4.5122,4.5122,0,0,0,73.9792,174.6025Z"/><rect class="k" x="533.4811" y="266.9497" width="69.884" height="128.4518" rx="4.7195" transform="translate(237.2474 899.5987) rotate(-90)"/><path class="l" d="M508.5659,303.4438v15.702a2.0819,2.0819,0,0,0,2.0819,2.0819h0a2.4271,2.4271,0,0,1,2.4272,2.4271v15.0416a2.4273,2.4273,0,0,1-2.4273,2.4273h0a2.0819,2.0819,0,0,0-2.0819,2.0819v15.7018a4.1422,4.1422,0,0,0,4.1422,4.1422h111.43a4.1422,4.1422,0,0,0,4.1422-4.1422V303.4438a4.1422,4.1422,0,0,0-4.1422-4.1422h-111.43A4.1422,4.1422,0,0,0,508.5659,303.4438Z"/><path d="M583.3528,307.0658c.148.0318.2953.0679.4441.095a5.923,5.923,0,0,1,2.8328,1.3868,5.9828,5.9828,0,0,1,1.4167,1.82,5.78,5.78,0,0,1,.59,1.9078,6.4411,6.4411,0,0,1,.03,1.4157,5.8019,5.8019,0,0,1-.77,2.4071,6.0175,6.0175,0,0,1-2.9234,2.5826,5.4053,5.4053,0,0,1-1.7132.4312,1,1,0,0,0-.108.0216c-.0037.0832-.01.1589-.01.2345q0,3.4482.0019,6.8963,0,4.688-.0024,9.3758c0,2.0749.0088,4.15-.0023,6.2247a7.7832,7.7832,0,0,1-1.6764,4.9248,7.698,7.698,0,0,1-4.608,2.86,7.33,7.33,0,0,1-1.4816.1547q-8.1363-.0051-16.2725-.0022-2.8411,0-5.6824-.0023a6.5643,6.5643,0,0,1-1.7731-.2824,7.7306,7.7306,0,0,1-3.7466-2.3515,7.4993,7.4993,0,0,1-1.6441-2.9733,12.4935,12.4935,0,0,1-.2621-1.2559,11.1734,11.1734,0,0,1-.0514-1.9061q-.0081-6.7157-.0016-13.4312,0-3.6549-.0023-7.31a7.3754,7.3754,0,0,1,.4365-2.4449,7.5681,7.5681,0,0,1,1.42-2.4649,7.9862,7.9862,0,0,1,2.07-1.727,8.0873,8.0873,0,0,1,2.65-.9466,5.5856,5.5856,0,0,1,.6654-.0674c1.5132-.086,3.0278-.0313,4.5417-.0384,1.9027-.009,3.8054-.0044,5.7081-.0043q4.378,0,8.756.0023,2.0792,0,4.1584,0h.2479c.0656-.3468.1125-.6769.1922-.9988a5.9366,5.9366,0,0,1,1.1391-2.288,6.0258,6.0258,0,0,1,2.3353-1.78,5.2613,5.2613,0,0,1,1.5827-.4251.5207.5207,0,0,0,.116-.0407Zm-6.7555,6.3114H566.5245q-6.3676,0-12.7353.0023a6.569,6.569,0,0,0-.9251.0569,7.3263,7.3263,0,0,0-2.0192.5835,7.137,7.137,0,0,0-3.7609,4.1407,7.5855,7.5855,0,0,0-.3986,2.5026q-.0039,5.2956-.0011,10.5912c0,2.3335-.0051,4.667,0,7.0005.0028,1.3509.022,2.7017.0316,4.0526a5.6036,5.6036,0,0,0,.1667,1.2473,7.1076,7.1076,0,0,0,6.9381,5.4965c2.6175.0167,5.2353.0047,7.853.0049,3.1,0,6.2.0071,9.3-.0018,1.5657-.0045,3.1319.0388,4.6975-.03a6.8152,6.8152,0,0,0,1.7162-.3074,7.1013,7.1013,0,0,0,4.9726-6.7206c.02-2.3506.0042-4.7014.0042-7.0522q0-3.6165.0006-7.233,0-4.1848-.0007-8.37c0-.0656-.0117-.1311-.0185-.2021a6.0776,6.0776,0,0,1-5.7478-5.7621Zm10.2147-1.4c-1.0146-.0231-2,.0122-3.01-.0167V308.956a19.1207,19.1207,0,0,0-2.2958.0165c0,.3312,0,.666,0,1.0008,0,.3271.005.6542.0006.9812-.0045.3316.0152.6645-.0164,1.0194h-3.0028a18.0121,18.0121,0,0,0,.0114,2.2745h3.0086v2.9946c.7784.0019,1.5295.0161,2.2958-.005,0-.2787,0-.5273,0-.7758,0-.241.0014-.482.0013-.723,0-.25-.0034-.4993-.0011-.7489.0024-.2452-.0127-.4916.0124-.751.5184,0,1.008,0,1.4976,0,.4957,0,.9915.0063,1.4986-.0047v-2.2572Z"/><path d="M558.9847,320.9775l5.8364,15.9808.0353-.0069V320.9828c.073-.0065.1307-.0162.1885-.0162,2.6086,0,5.2173-.0109,7.8258.0074a7.0079,7.0079,0,0,1,3.3422.81,5.7183,5.7183,0,0,1,2.6529,2.9477,6.4748,6.4748,0,0,1,.424,1.7162,6.1344,6.1344,0,0,1,.0312,1.1579,5.3923,5.3923,0,0,1-1.4193,3.4,5.6429,5.6429,0,0,1-2.14,1.4361c-.0237.009-.0459.0215-.0967.0457.2326.4863.4949.9539.737,1.4312.2447.4824.4994.96.7481,1.44.2527.4883.5026.978.7553,1.4663.2486.4805.5.96.749,1.44s.4971.9613.7454,1.4421c.247.4783.4938.9566.7529,1.4585H575.549l-3.9211-8.0029h-2.7767a1.7455,1.7455,0,0,0-.02.1925q-.0014,2.35,0,4.7007,0,1.4592.0011,2.9186c0,.058-.0086.116-.0143.1888h-6.61l-1.1809-3.5369h-7.1387l-1.2161,3.5391H548.563c.037-.2449,7.1993-19.9486,7.3393-20.1891Zm9.8539,8.8391a.6316.6316,0,0,0,.0989.0195c1.2548-.0106,2.51-.0243,3.7642-.0321a2.8992,2.8992,0,0,0,1.076-.2211,2.4217,2.4217,0,0,0,1.3762-1.3505,2.786,2.786,0,0,0,.1852-1.2862,2.407,2.407,0,0,0-1.06-1.9106,2.7821,2.7821,0,0,0-1.5981-.497c-1.2213-.0125-2.4429-.0061-3.6644-.0061a1.55,1.55,0,0,0-.1784.0208Zm-11.29-2.7339-.0474-.002-2.4928,7.18c.3687.0407,4.7476.0254,4.9468-.0213Z"/></svg>