<svg xmlns="http://www.w3.org/2000/svg" viewBox="0 0 438 401.062"><defs><style>.a,.c{fill:none;stroke-linecap:round;stroke-linejoin:round;stroke-width:3px;}.a{stroke:#d91519;}.b{opacity:0.5;}.c{stroke:#606060;}.d{fill:#d91519;}.e{fill:#fff;}</style></defs><title>losa_iso</title><line class="a" x1="55.3183" y1="128.5455" x2="217.8865" y2="224.3049"/><line class="a" x1="90.9497" y1="107.7606" x2="253.5179" y2="203.5199"/><line class="a" x1="126.5811" y1="86.9756" x2="289.1493" y2="182.735"/><line class="a" x1="162.2125" y1="66.1906" x2="324.7807" y2="161.95"/><line class="a" x1="197.8439" y1="45.4056" x2="360.4121" y2="141.165"/><line class="a" x1="53.8336" y1="169.3732" x2="289.1493" y2="32.7862"/><line class="a" x1="104.3114" y1="197.5814" x2="339.6271" y2="60.9943"/><line class="a" x1="151.82" y1="222.8203" x2="387.1357" y2="86.2333"/><g class="b"><polygon class="c" points="111.607 253.999 93.163 264.497 93.163 285.495 111.607 274.996 111.607 253.999"/><polygon class="c" points="111.607 295.71 93.163 306.209 93.163 327.206 111.607 316.707 111.607 295.71"/><polyline class="c" points="93.163 222.786 93.163 243.784 111.607 233.285"/><polygon class="c" points="111.607 274.712 93.163 285.211 93.163 306.208 111.607 295.71 111.607 274.712"/><polygon class="c" points="111.607 316.424 93.163 326.922 93.163 347.92 111.607 337.421 111.607 316.424"/><polygon class="c" points="111.607 233.001 93.163 243.5 93.163 264.497 111.607 253.999 111.607 233.001"/><polygon class="c" points="181.504 295.426 218.013 274.429 218.013 253.431 181.504 274.429 181.504 295.426"/><polygon class="c" points="218.108 274.429 254.617 253.431 254.617 232.434 218.108 253.431 218.108 274.429"/><polygon class="c" points="254.712 253.147 291.22 232.15 291.22 211.153 254.712 232.15 254.712 253.147"/><polygon class="c" points="291.315 232.15 327.824 211.152 327.824 190.155 291.315 211.153 291.315 232.15"/><polygon class="c" points="327.919 210.869 364.428 189.871 364.428 168.874 327.919 189.871 327.919 210.869"/><polygon class="c" points="364.523 189.587 401.031 168.59 401.031 147.593 364.523 168.59 364.523 189.587"/><polygon class="c" points="401.126 168.306 436.216 148.16 436.216 127.163 401.126 147.309 401.126 168.306"/><polygon class="c" points="181.409 316.14 199.853 305.641 199.853 284.644 181.409 295.142 181.409 316.14"/><polygon class="c" points="419.475 178.521 436.5 168.874 436.5 147.876 419.475 157.524 419.475 178.521"/><polygon class="c" points="199.948 305.641 236.457 284.644 236.457 263.646 199.948 284.644 199.948 305.641"/><polygon class="c" points="236.552 284.36 273.06 263.362 273.06 242.365 236.552 263.362 236.552 284.36"/><polygon class="c" points="273.155 263.362 309.664 242.365 309.664 221.368 273.155 242.365 273.155 263.362"/><polygon class="c" points="309.759 242.081 346.268 221.084 346.268 200.086 309.759 221.084 309.759 242.081"/><polygon class="c" points="346.363 220.8 382.871 199.802 382.871 178.805 346.363 199.803 346.363 220.8"/><polygon class="c" points="382.967 199.519 419.475 178.521 419.475 157.524 382.967 178.521 382.967 199.519"/><polygon class="c" points="181.504 337.137 218.013 316.14 218.013 295.142 181.504 316.14 181.504 337.137"/><polygon class="c" points="218.108 316.14 254.617 295.142 254.617 274.145 218.108 295.142 218.108 316.14"/><polygon class="c" points="254.712 294.858 291.22 273.861 291.22 252.864 254.712 273.861 254.712 294.858"/><polygon class="c" points="291.315 273.861 327.824 252.864 327.824 231.866 291.315 252.864 291.315 273.861"/><polygon class="c" points="327.919 252.58 364.428 231.582 364.428 210.585 327.919 231.583 327.919 252.58"/><polygon class="c" points="364.523 231.299 401.031 210.301 401.031 189.304 364.523 210.301 364.523 231.299"/><polygon class="c" points="401.126 210.017 436.216 189.871 436.216 168.874 401.126 189.02 401.126 210.017"/><polygon class="c" points="181.409 357.851 199.853 347.352 199.853 326.355 181.409 336.854 181.409 357.851"/><polygon class="c" points="419.475 220.232 436.5 210.585 436.5 189.588 419.475 199.235 419.475 220.232"/><polygon class="c" points="199.948 347.352 236.457 326.355 236.457 305.357 199.948 326.355 199.948 347.352"/><polygon class="c" points="236.552 326.071 273.06 305.073 273.06 284.076 236.552 305.074 236.552 326.071"/><polygon class="c" points="273.155 305.073 309.664 284.076 309.664 263.079 273.155 284.076 273.155 305.073"/><polygon class="c" points="309.759 283.792 346.268 262.795 346.268 241.797 309.759 262.795 309.759 283.792"/><polygon class="c" points="346.363 262.511 382.871 241.514 382.871 220.516 346.363 241.514 346.363 262.511"/><polygon class="c" points="382.967 241.23 419.475 220.232 419.475 199.235 382.967 220.233 382.967 241.23"/><polygon class="c" points="181.504 378.848 218.013 357.851 218.013 336.854 181.504 357.851 181.504 378.848"/><polygon class="c" points="218.108 357.851 254.617 336.853 254.617 315.856 218.108 336.854 218.108 357.851"/><polygon class="c" points="254.712 336.57 291.22 315.572 291.22 294.575 254.712 315.572 254.712 336.57"/><polygon class="c" points="291.315 315.572 327.824 294.575 327.824 273.577 291.315 294.575 291.315 315.572"/><polygon class="c" points="327.919 294.291 364.428 273.294 364.428 252.296 327.919 273.294 327.919 294.291"/><polygon class="c" points="364.523 273.01 401.031 252.012 401.031 231.015 364.523 252.012 364.523 273.01"/><polygon class="c" points="401.126 251.729 436.216 231.582 436.216 210.585 401.126 230.731 401.126 251.729"/><polygon class="c" points="181.409 399.562 199.853 389.063 199.853 368.066 181.409 378.565 181.409 399.562"/><polygon class="c" points="181.314 315.856 144.806 294.858 144.806 273.861 181.314 294.859 181.314 315.856"/><polygon class="c" points="181.409 336.57 162.966 326.071 162.966 305.074 181.409 315.572 181.409 336.57"/><polygon class="c" points="181.314 357.567 144.806 336.57 144.806 315.572 181.314 336.57 181.314 357.567"/><polygon class="c" points="181.409 378.281 162.966 367.782 162.966 346.785 181.409 357.283 181.409 378.281"/><polygon class="c" points="181.314 399.278 144.806 378.281 144.806 357.283 181.314 378.281 181.314 399.278"/><polygon class="c" points="181.409 294.858 162.966 284.36 162.966 263.362 181.409 273.861 181.409 294.858"/><polygon class="c" points="163.249 326.638 144.806 316.14 144.806 295.142 163.249 305.641 163.249 326.638"/><polygon class="c" points="163.249 368.35 144.806 357.851 144.806 336.854 163.249 347.352 163.249 368.35"/><polygon class="c" points="163.249 284.927 144.806 274.429 144.806 253.431 163.249 263.93 163.249 284.927"/><polygon class="c" points="419.475 261.944 436.5 252.296 436.5 231.299 419.475 240.946 419.475 261.944"/><polygon class="c" points="199.948 389.063 236.457 368.066 236.457 347.069 199.948 368.066 199.948 389.063"/><polygon class="c" points="236.552 367.782 273.06 346.785 273.06 325.787 236.552 346.785 236.552 367.782"/><polygon class="c" points="1.607 274.145 38.116 295.142 38.116 316.14 1.607 295.142 1.607 274.145"/><polygon class="c" points="38.211 295.142 74.72 316.14 74.72 337.137 38.211 316.14 38.211 295.142"/><polygon class="c" points="1.512 253.431 19.956 263.93 19.956 284.927 1.512 274.429 1.512 253.431"/><polygon class="c" points="20.051 263.93 56.56 284.927 56.56 305.925 20.051 284.927 20.051 263.93"/><polygon class="c" points="56.655 285.211 93.163 306.209 93.163 327.206 56.655 306.208 56.655 285.211"/><polygon class="c" points="1.607 232.434 38.116 253.431 38.116 274.429 1.607 253.431 1.607 232.434"/><polygon class="c" points="38.211 253.431 74.72 274.429 74.72 295.426 38.211 274.429 38.211 253.431"/><polygon class="c" points="1.512 211.72 19.956 222.219 19.956 243.216 1.512 232.717 1.512 211.72"/><polygon class="c" points="74.72 274.712 93.163 285.211 93.163 306.208 74.72 295.71 74.72 274.712"/><polygon class="c" points="74.72 316.424 93.163 326.922 93.163 347.92 74.72 337.421 74.72 316.424"/><polygon class="c" points="74.72 233.001 93.163 243.5 93.163 264.497 74.72 253.999 74.72 233.001"/><polygon class="c" points="20.051 222.219 56.56 243.216 56.56 264.214 20.051 243.216 20.051 222.219"/><polygon class="c" points="56.655 243.5 93.163 264.497 93.163 285.495 56.655 264.497 56.655 243.5"/><polygon class="c" points="1.607 190.723 38.116 211.72 38.116 232.717 1.607 211.72 1.607 190.723"/><polygon class="c" points="38.211 211.72 74.72 232.718 74.72 253.715 38.211 232.717 38.211 211.72"/><polygon class="c" points="1.512 170.009 19.956 180.508 19.956 201.505 1.512 191.006 1.512 170.009"/><polygon class="c" points="20.051 180.508 56.56 201.505 56.56 222.502 20.051 201.505 20.051 180.508"/><polygon class="c" points="56.655 201.789 93.163 222.786 93.163 243.784 56.655 222.786 56.655 201.789"/><polygon class="c" points="273.155 346.785 309.664 325.787 309.664 304.79 273.155 325.787 273.155 346.785"/><polygon class="c" points="309.759 325.503 346.268 304.506 346.268 283.509 309.759 304.506 309.759 325.503"/><polygon class="c" points="346.363 304.222 382.871 283.225 382.871 262.227 346.363 283.225 346.363 304.222"/><polygon class="c" points="382.967 282.941 419.475 261.944 419.475 240.946 382.967 261.944 382.967 282.941"/><polygon class="c" points="90.12 136.647 53.751 157.645 37.738 148.4 74.107 127.402 90.12 136.647"/><polygon class="c" points="274.175 11.939 19.594 158.922 1.513 148.482 256.094 1.5 274.175 11.939"/><polygon class="c" points="436.216 105.494 181.635 252.476 163.308 241.894 417.888 94.912 436.216 105.494"/><polygon class="c" points="124.277 135.37 87.908 156.368 71.895 147.123 108.264 126.125 124.277 135.37"/><polygon class="c" points="122.065 155.091 85.697 176.088 69.684 166.843 106.052 145.846 122.065 155.091"/><polygon class="c" points="156.222 153.814 119.854 174.811 103.841 165.566 140.209 144.569 156.222 153.814"/><polygon class="c" points="154.011 173.534 117.642 194.532 101.629 185.287 137.998 164.289 154.011 173.534"/><polygon class="c" points="188.167 172.257 151.799 193.255 135.786 184.01 172.155 163.012 188.167 172.257"/><polygon class="c" points="87.908 156.368 69.601 166.937 53.588 157.692 71.895 147.123 87.908 156.368"/><polygon class="c" points="181.635 231.478 163.328 242.048 19.431 158.969 37.738 148.4 181.635 231.478"/><polygon class="c" points="418.031 94.995 399.724 105.565 255.827 22.486 274.135 11.916 418.031 94.995"/><polygon class="c" points="119.854 174.811 101.546 185.381 85.533 176.136 103.841 165.566 119.854 174.811"/><polygon class="c" points="151.799 193.255 133.492 203.825 117.479 194.579 135.786 184.01 151.799 193.255"/><polygon class="c" points="287.936 40.882 269.629 51.451 253.616 42.206 271.923 31.637 287.936 40.882"/><polygon class="c" points="319.881 59.325 301.574 69.895 285.561 60.65 303.868 50.08 319.881 59.325"/><polygon class="c" points="351.826 77.769 333.519 88.339 317.506 79.093 335.813 68.524 351.826 77.769"/><polygon class="c" points="185.956 191.978 149.587 212.975 133.574 203.73 169.943 182.733 185.956 191.978"/><polygon class="c" points="126.489 115.65 90.12 136.647 74.107 127.402 110.476 106.405 126.489 115.65"/><polygon class="c" points="158.434 134.093 122.065 155.091 106.052 145.846 142.421 124.848 158.434 134.093"/><polygon class="c" points="190.379 152.537 154.011 173.534 137.998 164.289 174.366 143.292 190.379 152.537"/><polygon class="c" points="222.324 170.981 185.956 191.978 169.943 182.733 206.311 161.735 222.324 170.981"/><polygon class="c" points="160.646 114.373 124.277 135.37 108.264 126.125 144.633 105.128 160.646 114.373"/><polygon class="c" points="192.591 132.816 156.222 153.814 140.209 144.569 176.578 123.571 192.591 132.816"/><polygon class="c" points="224.536 151.26 188.167 172.257 172.155 163.012 208.523 142.015 224.536 151.26"/><polygon class="c" points="162.857 94.652 126.489 115.65 110.476 106.405 146.844 85.407 162.857 94.652"/><polygon class="c" points="194.803 113.096 158.434 134.093 142.421 124.848 178.79 103.851 194.803 113.096"/><polygon class="c" points="226.748 131.539 190.379 152.537 174.366 143.292 210.735 122.294 226.748 131.539"/><polygon class="c" points="258.693 149.983 222.324 170.981 206.311 161.735 242.68 140.738 258.693 149.983"/><polygon class="c" points="197.014 93.375 160.646 114.373 144.633 105.128 181.001 84.13 197.014 93.375"/><polygon class="c" points="228.96 111.819 192.591 132.816 176.578 123.571 212.947 102.574 228.96 111.819"/><polygon class="c" points="260.905 130.263 224.536 151.26 208.523 142.015 244.892 121.017 260.905 130.263"/><polygon class="c" points="199.226 73.655 162.857 94.652 146.844 85.407 183.213 64.41 199.226 73.655"/><polygon class="c" points="231.171 92.098 194.803 113.096 178.79 103.851 215.158 82.853 231.171 92.098"/><polygon class="c" points="263.116 110.542 226.748 131.539 210.735 122.294 247.104 101.297 263.116 110.542"/><polygon class="c" points="295.062 128.986 258.693 149.983 242.68 140.738 279.049 119.741 295.062 128.986"/><polygon class="c" points="233.383 72.378 197.014 93.375 181.001 84.13 217.37 63.133 233.383 72.378"/><polygon class="c" points="265.328 90.821 228.96 111.819 212.947 102.574 249.315 81.576 265.328 90.821"/><polygon class="c" points="297.273 109.265 260.905 130.263 244.892 121.017 281.26 100.02 297.273 109.265"/><polygon class="c" points="235.595 52.657 199.226 73.655 183.213 64.41 219.582 43.412 235.595 52.657"/><polygon class="c" points="267.54 71.101 231.171 92.098 215.158 82.853 251.527 61.856 267.54 71.101"/><polygon class="c" points="299.485 89.545 263.116 110.542 247.104 101.297 283.472 80.299 299.485 89.545"/><polygon class="c" points="331.43 107.988 295.062 128.986 279.049 119.741 315.417 98.743 331.43 107.988"/><polygon class="c" points="269.752 51.38 233.383 72.378 217.37 63.133 253.739 42.135 269.752 51.38"/><polygon class="c" points="301.697 69.824 265.328 90.821 249.315 81.576 285.684 60.579 301.697 69.824"/><polygon class="c" points="333.642 88.268 297.273 109.265 281.26 100.02 317.629 79.023 333.642 88.268"/><polygon class="c" points="271.963 31.66 235.595 52.657 219.582 43.412 255.95 22.415 271.963 31.66"/><polygon class="c" points="303.909 50.103 267.54 71.101 251.527 61.856 287.896 40.858 303.909 50.103"/><polygon class="c" points="335.854 68.547 299.485 89.545 283.472 80.299 319.841 59.302 335.854 68.547"/><polygon class="c" points="367.799 86.991 331.43 107.988 315.417 98.743 351.786 77.746 367.799 86.991"/><polygon class="c" points="220.113 190.701 183.744 211.698 167.731 202.453 204.1 181.456 220.113 190.701"/><polygon class="c" points="183.744 211.698 165.437 222.268 149.424 213.023 167.731 202.453 183.744 211.698"/><polygon class="c" points="383.772 96.212 365.464 106.782 349.452 97.537 367.759 86.967 383.772 96.212"/><polygon class="c" points="217.901 210.422 181.532 231.419 165.519 222.174 201.888 201.176 217.901 210.422"/><polygon class="c" points="254.27 189.424 217.901 210.422 201.888 201.176 238.257 180.179 254.27 189.424"/><polygon class="c" points="256.481 169.704 220.113 190.701 204.1 181.456 240.468 160.458 256.481 169.704"/><polygon class="c" points="290.638 168.427 254.27 189.424 238.257 180.179 274.625 159.182 290.638 168.427"/><polygon class="c" points="292.85 148.706 256.481 169.704 240.468 160.458 276.837 139.461 292.85 148.706"/><polygon class="c" points="327.007 147.429 290.638 168.427 274.625 159.182 310.994 138.184 327.007 147.429"/><polygon class="c" points="329.219 127.709 292.85 148.706 276.837 139.461 313.206 118.464 329.219 127.709"/><polygon class="c" points="363.376 126.432 327.007 147.429 310.994 138.184 347.363 117.187 363.376 126.432"/><polygon class="c" points="365.587 106.711 329.219 127.709 313.206 118.464 349.574 97.466 365.587 106.711"/><polygon class="c" points="399.744 105.434 363.376 126.432 347.363 117.187 383.731 96.189 399.744 105.434"/><polygon class="c" points="181.421 273.402 163.237 262.904 163.237 241.906 181.421 252.405 181.421 273.402"/><polygon class="c" points="19.684 180.049 1.5 169.55 1.5 148.553 19.684 159.052 19.684 180.049"/><polygon class="c" points="163.249 263.187 19.388 180.049 19.388 159.052 163.249 242.19 163.249 263.187"/><polygon class="c" points="181.681 273.686 436.216 126.42 436.216 105.423 181.681 252.689 181.681 273.686"/></g><path class="d" d="M48.448,162.47l11.2486,6.47a1.3853,1.3853,0,0,1,.6947,1.2009v4.8667a1.3854,1.3854,0,0,1-2.076,1.2009l-11.2486-6.47a1.3854,1.3854,0,0,1-.6946-1.2009V163.671A1.3853,1.3853,0,0,1,48.448,162.47Z"/><polygon class="e" points="54.31 168.019 52.454 166.948 51.526 168.268 52.454 170.659 54.31 171.731 55.237 170.411 54.31 168.019"/><circle class="d" cx="53.3817" cy="169.3391" r="0.8231"/><path class="d" d="M98.9259,190.6783l11.2485,6.4695a1.3853,1.3853,0,0,1,.6947,1.2009v4.8667a1.3854,1.3854,0,0,1-2.076,1.2009l-11.2486-6.47a1.3854,1.3854,0,0,1-.6946-1.2009v-4.8667A1.3854,1.3854,0,0,1,98.9259,190.6783Z"/><polygon class="e" points="104.787 196.227 102.932 195.156 102.004 196.476 102.932 198.867 104.787 199.939 105.715 198.619 104.787 196.227"/><circle class="d" cx="103.8595" cy="197.5473" r="0.8231"/><path class="d" d="M147.1767,216.66l11.2486,6.4694a1.3855,1.3855,0,0,1,.6946,1.2009v4.8667a1.3853,1.3853,0,0,1-2.0759,1.2009l-11.2486-6.47a1.3851,1.3851,0,0,1-.6947-1.2008V217.86A1.3853,1.3853,0,0,1,147.1767,216.66Z"/><polygon class="e" points="153.038 222.208 151.182 221.137 150.255 222.457 151.182 224.849 153.038 225.92 153.966 224.6 153.038 222.208"/><circle class="d" cx="152.1103" cy="223.5285" r="0.8231"/><path class="d" d="M221.6259,216.66l-11.2486,6.4694a1.3856,1.3856,0,0,0-.6947,1.2009v4.8667a1.3853,1.3853,0,0,0,2.076,1.2009l11.2486-6.47a1.3852,1.3852,0,0,0,.6946-1.2008V217.86A1.3852,1.3852,0,0,0,221.6259,216.66Z"/><polygon class="e" points="215.764 222.208 217.62 221.137 218.548 222.457 217.62 224.849 215.764 225.92 214.836 224.6 215.764 222.208"/><circle class="d" cx="216.6922" cy="223.5285" r="0.8231"/><path class="d" d="M258.7419,196.6169l-11.2486,6.47a1.3852,1.3852,0,0,0-.6946,1.2008v4.8668a1.3853,1.3853,0,0,0,2.076,1.2008l11.2485-6.4694a1.3854,1.3854,0,0,0,.6947-1.2009v-4.8667A1.3853,1.3853,0,0,0,258.7419,196.6169Z"/><polygon class="e" points="252.88 202.166 254.736 201.094 255.664 202.414 254.736 204.806 252.88 205.877 251.952 204.557 252.88 202.166"/><circle class="d" cx="253.8083" cy="203.4859" r="0.8231"/><path class="d" d="M294.3733,175.8319l-11.2486,6.47a1.3854,1.3854,0,0,0-.6946,1.2009v4.8667a1.3854,1.3854,0,0,0,2.076,1.2009L295.7546,183.1a1.3853,1.3853,0,0,0,.6947-1.2009v-4.8667A1.3853,1.3853,0,0,0,294.3733,175.8319Z"/><polygon class="e" points="288.512 181.381 290.368 180.309 291.295 181.629 290.368 184.021 288.512 185.092 287.584 183.772 288.512 181.381"/><circle class="d" cx="289.4397" cy="182.7009" r="0.8231"/><path class="d" d="M330.0047,155.0469l-11.2486,6.47a1.3854,1.3854,0,0,0-.6946,1.2009v4.8667a1.3854,1.3854,0,0,0,2.076,1.2009l11.2485-6.4695a1.3853,1.3853,0,0,0,.6947-1.2009v-4.8667A1.3854,1.3854,0,0,0,330.0047,155.0469Z"/><polygon class="e" points="324.143 160.596 325.999 159.524 326.927 160.844 325.999 163.236 324.143 164.307 323.215 162.987 324.143 160.596"/><circle class="d" cx="325.0711" cy="161.9159" r="0.8231"/><path class="d" d="M365.6361,134.2619l-11.2486,6.47a1.3854,1.3854,0,0,0-.6946,1.2009v4.8667A1.3853,1.3853,0,0,0,355.7689,148l11.2485-6.47a1.3852,1.3852,0,0,0,.6947-1.2009v-4.8667A1.3854,1.3854,0,0,0,365.6361,134.2619Z"/><polygon class="e" points="359.775 139.811 361.63 138.739 362.558 140.059 361.63 142.451 359.775 143.522 358.847 142.202 359.775 139.811"/><circle class="d" cx="360.7025" cy="141.1309" r="0.8231"/></svg>