<svg xmlns="http://www.w3.org/2000/svg" viewBox="0 0 118.7357 109.5029"><defs><style>.a{fill:none;stroke:#d91519;stroke-linecap:round;stroke-linejoin:round;stroke-width:3px;}</style></defs><title>muro</title><rect class="a" x="10.3273" y="16.6997" width="98.0811" height="61.4004"/><polygon class="a" points="117.236 108.003 1.5 108.003 10.327 78.1 108.408 78.1 117.236 108.003"/><line class="a" x1="14.3143" y1="93.2508" x2="27.8703" y2="93.2508"/><line class="a" x1="39.8314" y1="93.2508" x2="53.3873" y2="93.2508"/><line class="a" x1="65.3484" y1="93.2508" x2="78.9043" y2="93.2508"/><line class="a" x1="90.8654" y1="93.2508" x2="104.4214" y2="93.2508"/><line class="a" x1="10.3273" y1="32.6479" x2="108.4084" y2="32.6479"/><line class="a" x1="10.3273" y1="47.3999" x2="108.4084" y2="47.3999"/><line class="a" x1="10.3273" y1="62.1519" x2="108.4084" y2="62.1519"/><line class="a" x1="41.4262" y1="16.6997" x2="41.4262" y2="31.0531"/><line class="a" x1="77.3095" y1="16.6997" x2="77.3095" y2="31.0531"/><line class="a" x1="59.7665" y1="32.6479" x2="59.7665" y2="47.0012"/><line class="a" x1="26.2754" y1="32.6479" x2="26.2754" y2="47.0012"/><line class="a" x1="95.6499" y1="32.6479" x2="95.6499" y2="47.0012"/><line class="a" x1="59.7665" y1="62.9494" x2="59.7665" y2="77.3027"/><line class="a" x1="26.2754" y1="62.9494" x2="26.2754" y2="77.3027"/><line class="a" x1="95.6499" y1="62.9494" x2="95.6499" y2="77.3027"/><line class="a" x1="41.4262" y1="47.7986" x2="41.4262" y2="62.1519"/><line class="a" x1="77.3095" y1="47.7986" x2="77.3095" y2="62.1519"/><path class="a" d="M10.5084,17.0036a11.8441,11.8441,0,0,1,3.0125-6.8556A6.4711,6.4711,0,0,0,22.65,7.2372l10.6144.9642a10.3588,10.3588,0,0,0,3.4637-.0751c2.9013-.73,4.8606-3.8618,7.8356-4.18,2.5023-.2675,4.793,1.5762,7.3084,1.6529,3.8487.1173,6.9337-3.8469,10.7814-3.7,2.0089.0765,3.8415,1.2876,5.85,1.3739C71.6172,3.4066,74.5882.83,77.59,1.6678c2.4921.6953,4.026,3.55,6.5828,3.9456,2.2068.3412,4.9395-1.1561,6.4421.4957.73.8026,1.0738,2.2767,2.1576,2.2285.7-.0312,1.2152-.7746,1.9152-.7971.7743-.0249,1.2554.7931,1.8365,1.3054,1.1437,1.0081,2.8508.8707,4.3647,1.0507a9.5242,9.5242,0,0,1,8.0192,7.5443"/></svg>