<svg xmlns="http://www.w3.org/2000/svg" viewBox="0 0 771.4204 744.0811"><defs><style>.a{font-size:33px;font-family:Lato-Italic, Lato;font-style:italic;}.a,.c{fill:#606060;}.b,.e{fill:none;}.b{stroke:#606060;stroke-width:2px;}.b,.e,.f,.h{stroke-linecap:round;stroke-linejoin:round;}.d{opacity:0.4;}.e,.f,.h{stroke:#d91519;stroke-width:3px;}.f{fill:#d91519;opacity:0.3;}.g{opacity:0.7;}.h{fill:#fff;}</style></defs><title>tensado_bidirec</title><text class="a" transform="translate(27.5122 120.4365)">Actuador<tspan x="-3.7783" y="39.5996">hidráulico</tspan></text><line class="b" x1="636.8473" y1="386.7252" x2="636.8473" y2="234.8986"/><polygon class="c" points="642.831 384.974 636.848 395.336 630.864 384.974 642.831 384.974"/><line class="b" x1="636.8473" y1="434.7456" x2="636.8473" y2="586.5723"/><polygon class="c" points="630.864 436.496 636.847 426.135 642.83 436.496 630.864 436.496"/><g class="d"><rect class="e" x="138.6921" y="177.0094" width="64.753" height="76.4328" transform="translate(-44.1572 386.2944) rotate(-90)"/><rect class="f" x="138.6921" y="177.0094" width="64.753" height="76.4328" transform="translate(-44.1572 386.2944) rotate(-90)"/><rect class="e" x="291.4674" y="177.0094" width="64.753" height="76.4328" transform="translate(108.6181 539.0697) rotate(-90)"/><rect class="f" x="291.4674" y="177.0094" width="64.753" height="76.4328" transform="translate(108.6181 539.0697) rotate(-90)"/><rect class="e" x="444.2426" y="177.0094" width="64.753" height="76.4328" transform="translate(261.3933 691.8449) rotate(-90)"/><rect class="f" x="444.2426" y="177.0094" width="64.753" height="76.4328" transform="translate(261.3933 691.8449) rotate(-90)"/><rect class="e" x="214.5455" y="568.0286" width="64.753" height="76.4328" transform="translate(-359.323 853.1671) rotate(-90)"/><rect class="f" x="214.5455" y="568.0286" width="64.753" height="76.4328" transform="translate(-359.323 853.1671) rotate(-90)"/><rect class="e" x="368.3892" y="568.0286" width="64.753" height="76.4328" transform="translate(-205.4793 1007.0107) rotate(-90)"/><rect class="f" x="368.3892" y="568.0286" width="64.753" height="76.4328" transform="translate(-205.4793 1007.0107) rotate(-90)"/><rect class="e" x="105.7525" y="274.7335" width="129.9229" height="76.4328" transform="translate(-142.236 483.6639) rotate(-90)"/><rect class="f" x="105.7525" y="274.7335" width="129.9229" height="76.4328" transform="translate(-142.236 483.6639) rotate(-90)"/><rect class="e" x="182.3196" y="209.5943" width="129.9229" height="76.4328" transform="translate(-0.5297 495.0918) rotate(-90)"/><rect class="f" x="182.3196" y="209.5943" width="129.9229" height="76.4328" transform="translate(-0.5297 495.0918) rotate(-90)"/><rect class="e" x="258.8868" y="274.7335" width="129.9229" height="76.4328" transform="translate(10.8983 636.7982) rotate(-90)"/><rect class="f" x="258.8868" y="274.7335" width="129.9229" height="76.4328" transform="translate(10.8983 636.7982) rotate(-90)"/><rect class="e" x="335.4539" y="209.5943" width="129.9229" height="76.4328" transform="translate(152.6047 648.2261) rotate(-90)"/><rect class="f" x="335.4539" y="209.5943" width="129.9229" height="76.4328" transform="translate(152.6047 648.2261) rotate(-90)"/><rect class="e" x="412.0211" y="274.7335" width="129.9229" height="76.4328" transform="translate(164.0326 789.9325) rotate(-90)"/><rect class="f" x="412.0211" y="274.7335" width="129.9229" height="76.4328" transform="translate(164.0326 789.9325) rotate(-90)"/><rect class="e" x="105.7525" y="405.012" width="129.9229" height="76.4328" transform="translate(-272.5145 613.9423) rotate(-90)"/><rect class="f" x="105.7525" y="405.012" width="129.9229" height="76.4328" transform="translate(-272.5145 613.9423) rotate(-90)"/><rect class="e" x="182.3196" y="339.8727" width="129.9229" height="76.4328" transform="translate(-130.8081 625.3703) rotate(-90)"/><rect class="f" x="182.3196" y="339.8727" width="129.9229" height="76.4328" transform="translate(-130.8081 625.3703) rotate(-90)"/><rect class="e" x="258.8868" y="405.012" width="129.9229" height="76.4328" transform="translate(-119.3802 767.0766) rotate(-90)"/><rect class="f" x="258.8868" y="405.012" width="129.9229" height="76.4328" transform="translate(-119.3802 767.0766) rotate(-90)"/><rect class="e" x="335.4539" y="339.8727" width="129.9229" height="76.4328" transform="translate(22.3262 778.5046) rotate(-90)"/><rect class="f" x="335.4539" y="339.8727" width="129.9229" height="76.4328" transform="translate(22.3262 778.5046) rotate(-90)"/><rect class="e" x="412.0211" y="405.012" width="129.9229" height="76.4328" transform="translate(33.7541 920.2109) rotate(-90)"/><rect class="f" x="412.0211" y="405.012" width="129.9229" height="76.4328" transform="translate(33.7541 920.2109) rotate(-90)"/><rect class="e" x="105.7525" y="535.2904" width="129.9229" height="76.4328" transform="translate(-402.7929 744.2208) rotate(-90)"/><rect class="f" x="105.7525" y="535.2904" width="129.9229" height="76.4328" transform="translate(-402.7929 744.2208) rotate(-90)"/><rect class="e" x="182.3196" y="470.1512" width="129.9229" height="76.4328" transform="translate(-261.0865 755.6487) rotate(-90)"/><rect class="f" x="182.3196" y="470.1512" width="129.9229" height="76.4328" transform="translate(-261.0865 755.6487) rotate(-90)"/><rect class="e" x="258.8868" y="535.2904" width="129.9229" height="76.4328" transform="translate(-249.6586 897.3551) rotate(-90)"/><rect class="f" x="258.8868" y="535.2904" width="129.9229" height="76.4328" transform="translate(-249.6586 897.3551) rotate(-90)"/><rect class="e" x="335.4539" y="470.1512" width="129.9229" height="76.4328" transform="translate(-107.9522 908.783) rotate(-90)"/><rect class="f" x="335.4539" y="470.1512" width="129.9229" height="76.4328" transform="translate(-107.9522 908.783) rotate(-90)"/><rect class="e" x="412.0211" y="535.2904" width="129.9229" height="76.4328" transform="translate(-96.5243 1050.4894) rotate(-90)"/><rect class="f" x="412.0211" y="535.2904" width="129.9229" height="76.4328" transform="translate(-96.5243 1050.4894) rotate(-90)"/></g><text class="a" transform="translate(270.4956 28.3223)">Tensión</text><text class="a" transform="translate(664.7163 421.1309)">Tensión</text><text class="a" transform="translate(31.7705 695.6211)">Barra de<tspan x="-31.7705" y="39.5996">post-tensado</tspan></text><line class="e" x1="592.2693" y1="279.9204" x2="60.0782" y2="279.9204"/><line class="e" x1="118.5039" y1="277.4165" x2="113.4961" y2="282.4243"/><line class="e" x1="124.9425" y1="277.4165" x2="119.9347" y2="282.4243"/><line class="e" x1="112.1222" y1="277.4165" x2="107.1144" y2="282.4243"/><line class="e" x1="105.7121" y1="277.4165" x2="100.7043" y2="282.4243"/><line class="e" x1="99.3019" y1="277.4165" x2="94.2941" y2="282.4243"/><line class="e" x1="92.8918" y1="277.4165" x2="87.884" y2="282.4243"/><line class="e" x1="86.4816" y1="277.4165" x2="81.4738" y2="282.4243"/><line class="e" x1="80.0715" y1="277.4165" x2="75.0637" y2="282.4243"/><line class="e" x1="73.6613" y1="277.4165" x2="68.6535" y2="282.4243"/><line class="e" x1="67.2512" y1="277.4165" x2="62.2434" y2="282.4243"/><line class="e" x1="131.3811" y1="277.4165" x2="126.3733" y2="282.4243"/><line class="e" x1="137.8197" y1="277.4165" x2="132.8119" y2="282.4243"/><line class="e" x1="144.2583" y1="277.4165" x2="139.2505" y2="282.4243"/><line class="e" x1="150.6969" y1="277.4165" x2="145.6891" y2="282.4243"/><line class="e" x1="507.5783" y1="277.4165" x2="502.5705" y2="282.4243"/><line class="e" x1="514.0169" y1="277.4165" x2="509.0091" y2="282.4243"/><line class="e" x1="520.4555" y1="277.4165" x2="515.4477" y2="282.4243"/><line class="e" x1="526.894" y1="277.4165" x2="521.8863" y2="282.4243"/><line class="e" x1="533.3326" y1="277.4165" x2="528.3248" y2="282.4243"/><line class="e" x1="539.7428" y1="277.4165" x2="534.735" y2="282.4243"/><line class="e" x1="546.1529" y1="277.4165" x2="541.1451" y2="282.4243"/><line class="e" x1="552.5631" y1="277.4165" x2="547.5553" y2="282.4243"/><line class="e" x1="558.9732" y1="277.4165" x2="553.9654" y2="282.4243"/><line class="e" x1="565.3834" y1="277.4165" x2="560.3756" y2="282.4243"/><line class="e" x1="571.7935" y1="277.4165" x2="566.7857" y2="282.4243"/><line class="e" x1="578.2037" y1="277.4165" x2="573.1959" y2="282.4243"/><line class="e" x1="584.6138" y1="277.4165" x2="579.606" y2="282.4243"/><line class="e" x1="591.024" y1="277.4165" x2="586.0162" y2="282.4243"/><line class="e" x1="592.2693" y1="410.7354" x2="60.0782" y2="410.7354"/><line class="e" x1="118.5039" y1="408.2315" x2="113.4961" y2="413.2393"/><line class="e" x1="124.9425" y1="408.2315" x2="119.9347" y2="413.2393"/><line class="e" x1="112.1222" y1="408.2315" x2="107.1144" y2="413.2393"/><line class="e" x1="105.7121" y1="408.2315" x2="100.7043" y2="413.2393"/><line class="e" x1="99.3019" y1="408.2315" x2="94.2941" y2="413.2393"/><line class="e" x1="92.8918" y1="408.2315" x2="87.884" y2="413.2393"/><line class="e" x1="86.4816" y1="408.2315" x2="81.4738" y2="413.2393"/><line class="e" x1="80.0715" y1="408.2315" x2="75.0637" y2="413.2393"/><line class="e" x1="73.6613" y1="408.2315" x2="68.6535" y2="413.2393"/><line class="e" x1="67.2512" y1="408.2315" x2="62.2434" y2="413.2393"/><line class="e" x1="131.3811" y1="408.2315" x2="126.3733" y2="413.2393"/><line class="e" x1="137.8197" y1="408.2315" x2="132.8119" y2="413.2393"/><line class="e" x1="144.2583" y1="408.2315" x2="139.2505" y2="413.2393"/><line class="e" x1="150.6969" y1="408.2315" x2="145.6891" y2="413.2393"/><line class="e" x1="507.5783" y1="408.2315" x2="502.5705" y2="413.2393"/><line class="e" x1="514.0169" y1="408.2315" x2="509.0091" y2="413.2393"/><line class="e" x1="520.4555" y1="408.2315" x2="515.4477" y2="413.2393"/><line class="e" x1="526.894" y1="408.2315" x2="521.8863" y2="413.2393"/><line class="e" x1="533.3326" y1="408.2315" x2="528.3248" y2="413.2393"/><line class="e" x1="539.7428" y1="408.2315" x2="534.735" y2="413.2393"/><line class="e" x1="546.1529" y1="408.2315" x2="541.1451" y2="413.2393"/><line class="e" x1="552.5631" y1="408.2315" x2="547.5553" y2="413.2393"/><line class="e" x1="558.9732" y1="408.2315" x2="553.9654" y2="413.2393"/><line class="e" x1="565.3834" y1="408.2315" x2="560.3756" y2="413.2393"/><line class="e" x1="571.7935" y1="408.2315" x2="566.7857" y2="413.2393"/><line class="e" x1="578.2037" y1="408.2315" x2="573.1959" y2="413.2393"/><line class="e" x1="584.6138" y1="408.2315" x2="579.606" y2="413.2393"/><line class="e" x1="591.024" y1="408.2315" x2="586.0162" y2="413.2393"/><line class="e" x1="592.2693" y1="538.4632" x2="60.0782" y2="538.4632"/><line class="e" x1="118.5039" y1="535.9593" x2="113.4961" y2="540.9671"/><line class="e" x1="124.9425" y1="535.9593" x2="119.9347" y2="540.9671"/><line class="e" x1="112.1222" y1="535.9593" x2="107.1144" y2="540.9671"/><line class="e" x1="105.7121" y1="535.9593" x2="100.7043" y2="540.9671"/><line class="e" x1="99.3019" y1="535.9593" x2="94.2941" y2="540.9671"/><line class="e" x1="92.8918" y1="535.9593" x2="87.884" y2="540.9671"/><line class="e" x1="86.4816" y1="535.9593" x2="81.4738" y2="540.9671"/><line class="e" x1="80.0715" y1="535.9593" x2="75.0637" y2="540.9671"/><line class="e" x1="73.6613" y1="535.9593" x2="68.6535" y2="540.9671"/><line class="e" x1="67.2512" y1="535.9593" x2="62.2434" y2="540.9671"/><line class="e" x1="131.3811" y1="535.9593" x2="126.3733" y2="540.9671"/><line class="e" x1="137.8197" y1="535.9593" x2="132.8119" y2="540.9671"/><line class="e" x1="144.2583" y1="535.9593" x2="139.2505" y2="540.9671"/><line class="e" x1="150.6969" y1="535.9593" x2="145.6891" y2="540.9671"/><line class="e" x1="507.5783" y1="535.9593" x2="502.5705" y2="540.9671"/><line class="e" x1="514.0169" y1="535.9593" x2="509.0091" y2="540.9671"/><line class="e" x1="520.4555" y1="535.9593" x2="515.4477" y2="540.9671"/><line class="e" x1="526.894" y1="535.9593" x2="521.8863" y2="540.9671"/><line class="e" x1="533.3326" y1="535.9593" x2="528.3248" y2="540.9671"/><line class="e" x1="539.7428" y1="535.9593" x2="534.735" y2="540.9671"/><line class="e" x1="546.1529" y1="535.9593" x2="541.1451" y2="540.9671"/><line class="e" x1="552.5631" y1="535.9593" x2="547.5553" y2="540.9671"/><line class="e" x1="558.9732" y1="535.9593" x2="553.9654" y2="540.9671"/><line class="e" x1="565.3834" y1="535.9593" x2="560.3756" y2="540.9671"/><line class="e" x1="571.7935" y1="535.9593" x2="566.7857" y2="540.9671"/><line class="e" x1="578.2037" y1="535.9593" x2="573.1959" y2="540.9671"/><line class="e" x1="584.6138" y1="535.9593" x2="579.606" y2="540.9671"/><line class="e" x1="591.024" y1="535.9593" x2="586.0162" y2="540.9671"/><line class="e" x1="249.7517" y1="697.6486" x2="249.7517" y2="100.3619"/><line class="e" x1="252.5618" y1="165.934" x2="246.9415" y2="160.3137"/><line class="e" x1="252.5618" y1="173.1602" x2="246.9415" y2="167.5398"/><line class="e" x1="252.5618" y1="158.7717" x2="246.9415" y2="153.1514"/><line class="e" x1="252.5618" y1="151.5775" x2="246.9415" y2="145.9572"/><line class="e" x1="252.5618" y1="144.3833" x2="246.9415" y2="138.763"/><line class="e" x1="252.5618" y1="137.1891" x2="246.9415" y2="131.5688"/><line class="e" x1="252.5618" y1="129.9949" x2="246.9415" y2="124.3745"/><line class="e" x1="252.5618" y1="122.8006" x2="246.9415" y2="117.1803"/><line class="e" x1="252.5618" y1="115.6064" x2="246.9415" y2="109.9861"/><line class="e" x1="252.5618" y1="108.4122" x2="246.9415" y2="102.7919"/><line class="e" x1="252.5618" y1="180.3863" x2="246.9415" y2="174.766"/><line class="e" x1="252.5618" y1="187.6124" x2="246.9415" y2="181.9921"/><line class="e" x1="252.5618" y1="194.8385" x2="246.9415" y2="189.2182"/><line class="e" x1="252.5618" y1="202.0647" x2="246.9415" y2="196.4443"/><line class="e" x1="252.5618" y1="602.5985" x2="246.9415" y2="596.9782"/><line class="e" x1="252.5618" y1="609.8246" x2="246.9415" y2="604.2043"/><line class="e" x1="252.5618" y1="617.0507" x2="246.9415" y2="611.4304"/><line class="e" x1="252.5618" y1="624.2769" x2="246.9415" y2="618.6565"/><line class="e" x1="252.5618" y1="631.503" x2="246.9415" y2="625.8827"/><line class="e" x1="252.5618" y1="638.6972" x2="246.9415" y2="633.0769"/><line class="e" x1="252.5618" y1="645.8914" x2="246.9415" y2="640.2711"/><line class="e" x1="252.5618" y1="653.0856" x2="246.9415" y2="647.4653"/><line class="e" x1="252.5618" y1="660.2799" x2="246.9415" y2="654.6595"/><line class="e" x1="252.5618" y1="667.4741" x2="246.9415" y2="661.8537"/><line class="e" x1="252.5618" y1="674.6683" x2="246.9415" y2="669.048"/><line class="e" x1="252.5618" y1="681.8625" x2="246.9415" y2="676.2422"/><line class="e" x1="252.5618" y1="689.0567" x2="246.9415" y2="683.4364"/><line class="e" x1="252.5618" y1="696.2509" x2="246.9415" y2="690.6306"/><line class="e" x1="405.732" y1="697.6486" x2="405.732" y2="100.3619"/><line class="e" x1="408.5422" y1="165.934" x2="402.9218" y2="160.3137"/><line class="e" x1="408.5422" y1="173.1602" x2="402.9218" y2="167.5398"/><line class="e" x1="408.5422" y1="158.7717" x2="402.9218" y2="153.1514"/><line class="e" x1="408.5422" y1="151.5775" x2="402.9218" y2="145.9572"/><line class="e" x1="408.5422" y1="144.3833" x2="402.9218" y2="138.763"/><line class="e" x1="408.5422" y1="137.1891" x2="402.9218" y2="131.5688"/><line class="e" x1="408.5422" y1="129.9949" x2="402.9218" y2="124.3745"/><line class="e" x1="408.5422" y1="122.8006" x2="402.9218" y2="117.1803"/><line class="e" x1="408.5422" y1="115.6064" x2="402.9218" y2="109.9861"/><line class="e" x1="408.5422" y1="108.4122" x2="402.9218" y2="102.7919"/><line class="e" x1="408.5422" y1="180.3863" x2="402.9218" y2="174.766"/><line class="e" x1="408.5422" y1="187.6124" x2="402.9218" y2="181.9921"/><line class="e" x1="408.5422" y1="194.8385" x2="402.9218" y2="189.2182"/><line class="e" x1="408.5422" y1="202.0647" x2="402.9218" y2="196.4443"/><line class="e" x1="408.5422" y1="602.5985" x2="402.9218" y2="596.9782"/><line class="e" x1="408.5422" y1="609.8246" x2="402.9218" y2="604.2043"/><line class="e" x1="408.5422" y1="617.0507" x2="402.9218" y2="611.4304"/><line class="e" x1="408.5422" y1="624.2769" x2="402.9218" y2="618.6565"/><line class="e" x1="408.5422" y1="631.503" x2="402.9218" y2="625.8827"/><line class="e" x1="408.5422" y1="638.6972" x2="402.9218" y2="633.0769"/><line class="e" x1="408.5422" y1="645.8914" x2="402.9218" y2="640.2711"/><line class="e" x1="408.5422" y1="653.0856" x2="402.9218" y2="647.4653"/><line class="e" x1="408.5422" y1="660.2799" x2="402.9218" y2="654.6595"/><line class="e" x1="408.5422" y1="667.4741" x2="402.9218" y2="661.8537"/><line class="e" x1="408.5422" y1="674.6683" x2="402.9218" y2="669.048"/><line class="e" x1="408.5422" y1="681.8625" x2="402.9218" y2="676.2422"/><line class="e" x1="408.5422" y1="689.0567" x2="402.9218" y2="683.4364"/><line class="e" x1="408.5422" y1="696.2509" x2="402.9218" y2="690.6306"/><g class="g"><rect class="h" x="81.4454" y="266.0318" width="42.7343" height="27.7773"/><rect class="h" x="66.4884" y="266.0318" width="7.4785" height="27.7773"/><rect class="h" x="73.9669" y="273.5103" width="7.4785" height="12.8203"/></g><rect class="e" x="81.4454" y="266.0318" width="42.7343" height="27.7773"/><rect class="e" x="66.4884" y="266.0318" width="7.4785" height="27.7773"/><rect class="e" x="73.9669" y="273.5103" width="7.4785" height="12.8203"/><line class="e" x1="124.1797" y1="270.3052" x2="132.7266" y2="270.3052"/><line class="e" x1="124.1797" y1="289.5357" x2="132.7266" y2="289.5357"/><g class="g"><rect class="h" x="384.3469" y="138.8971" width="42.7343" height="27.7773" transform="translate(558.4998 -252.9283) rotate(90)"/><rect class="h" x="401.9748" y="106.3122" width="7.4785" height="27.7773" transform="translate(525.9149 -285.5132) rotate(90)"/><rect class="h" x="401.9748" y="121.2692" width="7.4785" height="12.8203" transform="translate(533.3934 -278.0347) rotate(90)"/></g><rect class="e" x="384.3469" y="138.8971" width="42.7343" height="27.7773" transform="translate(558.4998 -252.9283) rotate(90)"/><rect class="e" x="401.9748" y="106.3122" width="7.4785" height="27.7773" transform="translate(525.9149 -285.5132) rotate(90)"/><rect class="e" x="401.9748" y="121.2692" width="7.4785" height="12.8203" transform="translate(533.3934 -278.0347) rotate(90)"/><line class="e" x1="415.3293" y1="174.1529" x2="415.3293" y2="182.6998"/><line class="e" x1="396.0988" y1="174.1529" x2="396.0988" y2="182.6998"/><line class="b" x1="91.5948" y1="181.0973" x2="91.5948" y2="263.3608"/><path class="c" d="M87.0831,263.3608a4.5117,4.5117,0,1,0,4.5117-4.5116A4.5122,4.5122,0,0,0,87.0831,263.3608Z"/><line class="b" x1="90.0141" y1="663.3311" x2="90.0141" y2="541.134"/><circle class="c" cx="90.0141" cy="541.134" r="4.5117"/><line class="b" x1="299.838" y1="63.707" x2="148.0114" y2="63.707"/><polygon class="c" points="298.087 57.723 308.449 63.706 298.087 69.69 298.087 57.723"/><line class="b" x1="347.8584" y1="63.707" x2="499.6851" y2="63.707"/><polygon class="c" points="349.609 69.691 339.248 63.708 349.609 57.724 349.609 69.691"/></svg>