<svg xmlns="http://www.w3.org/2000/svg" viewBox="0 0 1051.7794 790.4968"><defs><style>.a{opacity:0.47;}.b{fill:#fff;}.b,.e{stroke:#d91519;}.b,.c,.d,.e,.g{stroke-linecap:round;stroke-linejoin:round;}.b,.c,.d,.e{stroke-width:3px;}.c,.e,.g{fill:none;}.c,.d,.g{stroke:#606060;}.d,.f,.h{fill:#606060;}.d{opacity:0.3;}.f{font-size:33px;font-family:Lato-Italic, Lato;font-style:italic;}.g{stroke-width:2px;}</style></defs><title>tensado</title><g class="a"><line class="b" x1="1050.254" y1="422.5482" x2="653.611" y2="422.2996"/><line class="b" x1="646.6191" y1="388.8355" x2="1050.254" y2="389.0891"/><path class="b" d="M717.1514,388.7l10.0854,34.0321a.62.62,0,0,1-.012.4213L725.35,427.481c-.1709.392-.757.3907-1.1581-.0026l-4.416-4.3419a.9926.9926,0,0,1-.2591-.4219l-9.8717-34.0288a.6347.6347,0,0,1,.0116-.4236l1.8164-4.3288c.1629-.3909.7288-.3871,1.1189.0074l4.3037,4.34A1.0145,1.0145,0,0,1,717.1514,388.7Z"/><path class="b" d="M732.5336,388.7l10.0854,34.0321a.62.62,0,0,1-.0119.4213l-1.8747,4.3272c-.1709.392-.757.3907-1.1581-.0026l-4.416-4.3419a.9914.9914,0,0,1-.259-.4219l-9.8718-34.0288a.6347.6347,0,0,1,.0116-.4236l1.8165-4.3288c.1629-.3909.7287-.3871,1.1189.0074l4.3036,4.34A1.0145,1.0145,0,0,1,732.5336,388.7Z"/><path class="b" d="M701.8756,388.664l9.6526,34.0321a.62.62,0,0,1-.0172.4213l-1.93,4.3272c-.1759.392-.762.3907-1.1581-.0027L704.0627,423.1a.975.975,0,0,1-.2537-.4219L694.37,388.6494a.6357.6357,0,0,1,.0171-.4236l1.8713-4.3289c.1679-.3908.7337-.387,1.1188.0075l4.2484,4.34A1,1,0,0,1,701.8756,388.664Z"/><path class="b" d="M686.6007,388.6276l9.22,34.0321a.6211.6211,0,0,1-.0227.4212l-1.9845,4.3273c-.1808.392-.7669.3906-1.158-.0027l-4.3053-4.3418a.96.96,0,0,1-.2484-.4219l-9.0065-34.0288a.6379.6379,0,0,1,.0224-.4237l1.9264-4.3288c.1728-.3908.7385-.387,1.1186.0075l4.1931,4.34A.9824.9824,0,0,1,686.6007,388.6276Z"/><path class="b" d="M671.3267,388.5912l8.7873,34.0321a.6228.6228,0,0,1-.028.4212l-2.0394,4.3273c-.1858.392-.7718.3906-1.1579-.0027l-4.25-4.3418a.945.945,0,0,1-.243-.4219l-8.5738-34.0288a.6383.6383,0,0,1,.0278-.4237l1.9812-4.3288c.1778-.3908.7435-.387,1.1185.0075l4.1379,4.34A.9671.9671,0,0,1,671.3267,388.5912Z"/><path class="b" d="M656.0536,388.5548l8.3547,34.0321a.6247.6247,0,0,1-.0334.4212l-2.0943,4.3273c-.1908.392-.7768.3906-1.1579-.0027l-4.1947-4.3419a.9291.9291,0,0,1-.2377-.4218L648.5491,388.54a.6406.6406,0,0,1,.0332-.4236l2.0362-4.3288c.1827-.3908.7484-.387,1.1184.0075l4.0825,4.34A.9505.9505,0,0,1,656.0536,388.5548Z"/><line class="b" x1="550.2076" y1="388.7141" x2="643.8993" y2="388.9715"/><line class="b" x1="650.8913" y1="422.4356" x2="553.4205" y2="422.1791"/><path class="b" d="M580.3589,422.5707l-10.0853-34.0321a.62.62,0,0,1,.0119-.4213L572.16,383.79c.171-.392.7571-.3907,1.1582.0027l4.4159,4.3418a.9906.9906,0,0,1,.2591.4219l9.8718,34.0288a.6346.6346,0,0,1-.0117.4236l-1.8164,4.3289c-.1629.3908-.7288.387-1.1189-.0075l-4.3036-4.34A1.0157,1.0157,0,0,1,580.3589,422.5707Z"/><path class="b" d="M564.9767,422.5707l-10.0853-34.0321a.619.619,0,0,1,.0119-.4213l1.8746-4.3272c.1709-.392.757-.3907,1.1582.0027l4.4159,4.3418a.9926.9926,0,0,1,.2591.4219l9.8718,34.0288a.6353.6353,0,0,1-.0117.4236l-1.8164,4.3289c-.1629.3908-.7288.387-1.1189-.0075l-4.3037-4.34A1.0154,1.0154,0,0,1,564.9767,422.5707Z"/><path class="b" d="M595.6348,422.6071l-9.6527-34.0321a.62.62,0,0,1,.0173-.4212l1.9295-4.3273c.1759-.392.762-.3907,1.1581.0027l4.3607,4.3418a.9759.9759,0,0,1,.2537.4219l9.4391,34.0288a.6357.6357,0,0,1-.017.4236l-1.8714,4.3289c-.1678.3908-.7337.387-1.1188-.0075l-4.2483-4.34A.9978.9978,0,0,1,595.6348,422.6071Z"/><path class="b" d="M610.91,422.6435l-9.22-34.0321a.6217.6217,0,0,1,.0226-.4212l1.9845-4.3273c.1809-.392.7669-.3906,1.158.0027l4.3054,4.3418a.96.96,0,0,1,.2483.4219l9.0065,34.0288a.6373.6373,0,0,1-.0224.4237l-1.9263,4.3288c-.1728.3908-.7386.387-1.1187-.0075l-4.1931-4.34A.9822.9822,0,0,1,610.91,422.6435Z"/><path class="b" d="M626.1837,422.68l-8.7873-34.0321a.6222.6222,0,0,1,.0279-.4212l2.0394-4.3273c.1859-.392.7719-.3906,1.158.0027l4.25,4.3418a.9432.9432,0,0,1,.243.4219l8.5739,34.0288a.6389.6389,0,0,1-.0278.4237L631.68,427.447c-.1778.3908-.7434.387-1.1185-.0075l-4.1378-4.34A.9651.9651,0,0,1,626.1837,422.68Z"/><path class="b" d="M641.4567,422.7164l-8.3546-34.0322a.6247.6247,0,0,1,.0333-.4212l2.0943-4.3273c.1909-.392.7768-.3906,1.1579.0027l4.1948,4.3419a.9279.9279,0,0,1,.2376.4218l8.1412,34.0289a.64.64,0,0,1-.0332.4236l-2.0362,4.3288c-.1827.3908-.7483.3871-1.1183-.0075l-4.0826-4.34A.9517.9517,0,0,1,641.4567,422.7164Z"/><rect class="c" x="301.591" y="370.486" width="672.0122" height="165.0094" transform="translate(184.6065 1090.5878) rotate(-90)"/><rect class="d" x="301.591" y="370.486" width="672.0122" height="165.0094" transform="translate(184.6065 1090.5878) rotate(-90)"/><rect class="c" x="827.5053" y="370.4855" width="280.4879" height="165.0094" transform="translate(514.7591 1420.7395) rotate(-90)"/><rect class="d" x="827.5053" y="370.4855" width="280.4879" height="165.0094" transform="translate(514.7591 1420.7395) rotate(-90)"/><polyline class="c" points="885.27 788.495 885.27 592.771 1050.279 592.771 1050.279 788.495"/><polyline class="d" points="885.27 788.495 885.27 592.771 1050.279 592.771 1050.279 788.495"/><polyline class="c" points="1050.279 172.343 1050.279 312.689 885.27 312.689 885.27 172.343"/><polyline class="d" points="1050.279 172.343 1050.279 312.689 885.27 312.689 885.27 172.343"/><rect class="c" x="662.4292" y="230.5905" width="280.4879" height="165.0094" transform="translate(489.578 1115.7684) rotate(-90)"/><rect class="d" x="662.4292" y="230.5905" width="280.4879" height="165.0094" transform="translate(489.578 1115.7684) rotate(-90)"/><rect class="c" x="662.4292" y="510.3805" width="280.4879" height="165.0094" transform="translate(209.788 1395.5584) rotate(-90)"/><rect class="d" x="662.4292" y="510.3805" width="280.4879" height="165.0094" transform="translate(209.788 1395.5584) rotate(-90)"/></g><path class="b" d="M316.87,422.0808l-96.1751-.2574a2.4928,2.4928,0,0,1-2.4809-2.681c.2458-3.2307.1633-8.8781.1633-14.0566,0-5.1378-.034-10.7384-.3635-13.9822a2.4927,2.4927,0,0,1,2.4882-2.7443l100.5631.2565"/><path class="b" d="M294.1265,388.2242l10.0853,34.0321a.62.62,0,0,1-.0119.4213l-1.8747,4.3272c-.1709.392-.757.3907-1.1581-.0026l-4.4159-4.3419a.9906.9906,0,0,1-.2591-.4219L286.62,388.21a.6353.6353,0,0,1,.0116-.4236l1.8165-4.3288c.1629-.3909.7288-.3871,1.1189.0074l4.3036,4.34A1.0157,1.0157,0,0,1,294.1265,388.2242Z"/><path class="b" d="M309.5087,388.2242l10.0853,34.0321a.62.62,0,0,1-.0119.4213l-1.8746,4.3272c-.1709.392-.757.3907-1.1582-.0026l-4.4159-4.3419a.9916.9916,0,0,1-.2591-.4219L302.0025,388.21a.6353.6353,0,0,1,.0117-.4236l1.8164-4.3288c.1629-.3909.7288-.3871,1.1189.0074l4.3037,4.34A1.0145,1.0145,0,0,1,309.5087,388.2242Z"/><path class="b" d="M278.8506,388.1878l9.6527,34.0321a.62.62,0,0,1-.0173.4213l-1.9295,4.3272c-.1759.392-.762.3907-1.1581-.0026l-4.3607-4.3419a.9759.9759,0,0,1-.2537-.4219l-9.4391-34.0288a.6357.6357,0,0,1,.017-.4236l1.8714-4.3289c.1678-.3908.7337-.387,1.1188.0075l4.2483,4.34A.9975.9975,0,0,1,278.8506,388.1878Z"/><path class="b" d="M263.5757,388.1514l9.22,34.0321a.6217.6217,0,0,1-.0226.4212l-1.9845,4.3273c-.1809.392-.7669.3907-1.158-.0027l-4.3054-4.3418a.96.96,0,0,1-.2483-.4219L256.07,388.1368a.637.637,0,0,1,.0224-.4236l1.9263-4.3289c.1728-.3908.7386-.387,1.1187.0075l4.1931,4.34A.9822.9822,0,0,1,263.5757,388.1514Z"/><path class="b" d="M248.3017,388.115l8.7873,34.0321a.6222.6222,0,0,1-.0279.4212l-2.0394,4.3273c-.1859.392-.7719.3906-1.158-.0027l-4.25-4.3418a.9432.9432,0,0,1-.243-.4219L240.7968,388.1a.6389.6389,0,0,1,.0278-.4237l1.9813-4.3288c.1777-.3908.7434-.387,1.1185.0075l4.1378,4.34A.9651.9651,0,0,1,248.3017,388.115Z"/><path class="b" d="M233.0287,388.0786l8.3546,34.0321a.6247.6247,0,0,1-.0333.4212l-2.0943,4.3273c-.1909.392-.7768.3906-1.1579-.0027l-4.1948-4.3418a.9287.9287,0,0,1-.2376-.4219l-8.1412-34.0288a.6408.6408,0,0,1,.0331-.4237l2.0363-4.3288c.1827-.3908.7483-.387,1.1183.0075l4.0826,4.34A.9515.9515,0,0,1,233.0287,388.0786Z"/><path class="b" d="M327.9744,345.505H303.3885c-15.7692,0-28.5527,27.2344-28.5527,60.83s12.7835,60.83,28.5527,60.83h24.5859"/><ellipse class="b" cx="326.9408" cy="406.3347" rx="28.5527" ry="60.8297"/><path class="b" d="M361.2217,358.0905H339.45c-12.5067,0-22.6453,21.6-22.6453,48.2442S326.9429,454.579,339.45,454.579h21.7721"/><ellipse class="b" cx="361.2632" cy="406.3347" rx="28.5527" ry="60.8297"/><polyline class="b" points="360.727 345.505 469.801 345.505 469.801 467.164 360.727 467.164"/><rect class="b" x="454.6485" y="330.1228" width="30.3054" height="151.0255" rx="7.5"/><path class="b" d="M476.1717,428.2428a11.4312,11.4312,0,0,1-6.01,2.4725c-6.5015,0-11.7721-11.2286-11.7721-25.08s5.2706-25.08,11.7721-25.08c2.4318,0,4.6913,1.5708,6.5672,4.2622"/><polyline class="b" points="466.946 388.359 552.085 388.616 553.525 422.081 468.324 421.823"/><path class="b" d="M535.2357,388.2242l10.0854,34.0321a.62.62,0,0,1-.012.4213l-1.8746,4.3272c-.1709.392-.757.3907-1.1581-.0026L537.86,422.66a.9926.9926,0,0,1-.2591-.4219L527.73,388.21a.6347.6347,0,0,1,.0116-.4236l1.8164-4.3288c.1629-.3909.7288-.3871,1.1189.0074l4.3037,4.34A1.0145,1.0145,0,0,1,535.2357,388.2242Z"/><path class="b" d="M541.6494,388.2242l8.9643,34.0321a.62.62,0,0,1-.0119.4213l-1.8746,4.3272c-.171.392-.7571.3907-1.1582-.0026l-3.2949-4.3419a.9926.9926,0,0,1-.2591-.4219l-.9032-34.0288a.6347.6347,0,0,1,.0116-.4236l1.8165-4.3288c.1629-.3909.7287-.3871,1.1189.0074l4.3036,4.34C550.4839,387.927,541.6048,388.0737,541.6494,388.2242Z"/><path class="b" d="M519.96,388.1878l9.6526,34.0321a.62.62,0,0,1-.0172.4213l-1.93,4.3272c-.1759.392-.7619.3907-1.1581-.0026l-4.3606-4.3419a.975.975,0,0,1-.2537-.4219l-9.4392-34.0288a.6357.6357,0,0,1,.0171-.4236l1.8713-4.3289c.1679-.3908.7337-.387,1.1188.0075l4.2484,4.34A.9986.9986,0,0,1,519.96,388.1878Z"/><path class="b" d="M504.685,388.1514l9.22,34.0321a.6211.6211,0,0,1-.0227.4212l-1.9844,4.3273c-.1809.392-.7669.3907-1.1581-.0027l-4.3053-4.3418a.96.96,0,0,1-.2484-.4219L497.18,388.1368a.6376.6376,0,0,1,.0224-.4236l1.9264-4.3289c.1728-.3908.7385-.387,1.1186.0075l4.1931,4.34A.9824.9824,0,0,1,504.685,388.1514Z"/><path class="b" d="M489.411,388.115l8.7873,34.0321a.6228.6228,0,0,1-.028.4212l-2.0394,4.3273c-.1858.392-.7718.3906-1.1579-.0027l-4.25-4.3418a.945.945,0,0,1-.243-.4219L481.9061,388.1a.6383.6383,0,0,1,.0278-.4237l1.9812-4.3288c.1778-.3908.7435-.387,1.1185.0075l4.1379,4.34A.9671.9671,0,0,1,489.411,388.115Z"/><path class="b" d="M474.1379,388.0786l8.3547,34.0321a.6247.6247,0,0,1-.0334.4212l-2.0943,4.3273c-.1908.392-.7768.3906-1.1579-.0027l-4.1947-4.3418a.9287.9287,0,0,1-.2376-.4219l-8.1413-34.0288a.6408.6408,0,0,1,.0332-.4237l2.0362-4.3288c.1827-.3908.7484-.387,1.1184.0075l4.0826,4.34A.9513.9513,0,0,1,474.1379,388.0786Z"/><path class="e" d="M460.4768,392.3687l7.4419,29.742a.6247.6247,0,0,1-.0333.4212l-1.8033,3.4687"/><line class="b" x1="469.3409" y1="342.1536" x2="552.4041" y2="342.1536"/><line class="b" x1="469.3409" y1="468.8402" x2="552.4041" y2="468.8402"/><path class="b" d="M510.0317,400.2162H585.808a5.8333,5.8333,0,0,1,5.8333,5.8333v5.3773a0,0,0,0,1,0,0h-87.443a0,0,0,0,1,0,0v-5.3773A5.8333,5.8333,0,0,1,510.0317,400.2162Z" transform="translate(142.0983 953.7413) rotate(-90)"/><path class="b" d="M513.3949,400.2162h46.6287a5.8333,5.8333,0,0,1,5.8333,5.8333v5.3773a0,0,0,0,1,0,0H507.5615a0,0,0,0,1,0,0v-5.3773A5.8333,5.8333,0,0,1,513.3949,400.2162Z" transform="translate(130.8877 942.5307) rotate(-90)"/><text class="f" transform="translate(378.6085 216.8735)">Actuador<tspan x="-3.7783" y="39.5996">hidráulico</tspan></text><text class="f" transform="translate(912.2217 229.9004)">Tensión</text><text class="f" transform="translate(81.3047 411.8594)">Tensión</text><line class="g" x1="442.1431" y1="276.093" x2="442.1431" y2="354.7808"/><path class="h" d="M437.6314,354.7808a4.5117,4.5117,0,1,0,4.5117-4.5117A4.5121,4.5121,0,0,0,437.6314,354.7808Z"/><line class="g" x1="245.1963" y1="275.7808" x2="245.1963" y2="387.9296"/><path class="h" d="M240.6846,387.93a4.5117,4.5117,0,1,0,4.5117-4.5117A4.5121,4.5121,0,0,0,240.6846,387.93Z"/><text class="f" transform="translate(402.8741 554.082)">Sistema<tspan x="-30.0781" y="39.6001">de anclaje</tspan></text><line class="g" x1="806.2451" y1="86.9721" x2="806.2451" y2="198.1956"/><path class="h" d="M801.7333,198.1956a4.5118,4.5118,0,1,0,4.5118-4.5117A4.5122,4.5122,0,0,0,801.7333,198.1956Z"/><text class="f" transform="translate(187.1671 216.873)">Barra de<tspan x="-20.1299" y="39.6001">postensado</tspan></text><text class="f" transform="translate(752.126 28.3223)">Bloques<tspan x="-9.916" y="39.6001">de la losa</tspan></text><line class="g" x1="848.5035" y1="253.4392" x2="803.5128" y2="253.4392"/><polygon class="h" points="846.753 247.456 857.114 253.439 846.753 259.422 846.753 247.456"/><line class="g" x1="920.6671" y1="253.4392" x2="965.6578" y2="253.4392"/><polygon class="h" points="922.418 259.423 912.056 253.44 922.418 247.456 922.418 259.423"/><line class="g" x1="848.5035" y1="358.546" x2="803.5128" y2="358.546"/><polygon class="h" points="846.753 352.562 857.114 358.545 846.753 364.529 846.753 352.562"/><line class="g" x1="920.6671" y1="358.546" x2="965.6578" y2="358.546"/><polygon class="h" points="922.418 364.53 912.056 358.547 922.418 352.563 922.418 364.53"/><line class="g" x1="8.6109" y1="400.862" x2="53.6017" y2="400.862"/><polygon class="h" points="10.362 406.846 0 400.863 10.362 394.879 10.362 406.846"/><line class="g" x1="848.5035" y1="480.6056" x2="803.5128" y2="480.6056"/><polygon class="h" points="846.753 474.622 857.114 480.605 846.753 486.589 846.753 474.622"/><line class="g" x1="920.6671" y1="480.6056" x2="965.6578" y2="480.6056"/><polygon class="h" points="922.418 486.589 912.056 480.606 922.418 474.623 922.418 486.589"/><line class="g" x1="848.5035" y1="561.9786" x2="803.5128" y2="561.9786"/><polygon class="h" points="846.753 555.995 857.114 561.978 846.753 567.962 846.753 555.995"/><line class="g" x1="920.6671" y1="561.9786" x2="965.6578" y2="561.9786"/><polygon class="h" points="922.418 567.962 912.056 561.979 922.418 555.996 922.418 567.962"/><line class="g" x1="517.6841" y1="531.7808" x2="542.2794" y2="449.1855"/><path class="h" d="M546.6035,450.4731a4.5117,4.5117,0,1,0-5.6117,3.0364A4.5123,4.5123,0,0,0,546.6035,450.4731Z"/></svg>