<svg xmlns="http://www.w3.org/2000/svg" viewBox="0 0 367.6742 388.4444"><defs><style>.a,.b{fill:#fff;stroke:#d91519;stroke-linecap:round;stroke-linejoin:round;stroke-width:3px;}.a{opacity:0.5;}</style></defs><title>corte_v</title><polygon class="a" points="124.61 321.309 137.307 328.639 112.821 342.776 74.733 320.786 200.137 248.392 237.937 270.541 208.949 287.277 196.253 279.946 208.949 272.616 197.16 265.81 102.846 320.262 114.635 327.069 124.61 321.309"/><polygon class="b" points="197.021 89.859 103.204 144.585 103.204 320.51 197.021 265.784 197.021 89.859"/><polygon class="b" points="124.61 146.185 137.307 153.515 112.821 167.652 74.733 145.662 200.137 73.268 237.937 95.416 208.949 112.152 196.253 104.822 208.949 97.492 197.16 90.686 102.846 145.138 114.635 151.945 124.61 146.185"/><polygon class="b" points="113.367 343.163 137.603 329.091 137.603 153.185 113.367 167.257 113.367 343.163"/><polygon class="b" points="208.748 287.655 237.674 270.456 237.674 95.332 208.748 111.749 208.748 287.655"/><polygon class="b" points="208.748 287.655 196.239 279.837 196.239 104.713 208.748 111.749 208.748 287.655"/><polygon class="b" points="113.367 343.163 75.059 322.055 75.059 146.149 113.367 167.257 113.367 343.163"/><polygon class="b" points="244.412 224.933 328.086 176.624 366.174 198.614 294.532 239.977 281.836 232.647 294.532 225.317 282.743 218.51 258.015 232.787 244.412 224.933"/><polygon class="b" points="282.237 218.857 293.964 225.111 293.964 49.987 282.237 43.732 282.237 218.857"/><polygon class="b" points="282.237 233.711 293.964 239.965 293.964 64.841 282.237 58.587 282.237 233.711"/><polygon class="b" points="244.412 49.809 328.086 1.5 366.174 23.49 294.532 64.853 281.836 57.523 294.532 50.193 282.743 43.386 258.015 57.663 244.412 49.809"/><polygon class="b" points="293.964 239.965 365.89 198.53 365.89 23.406 293.964 64.841 293.964 239.965"/><polygon class="b" points="244.711 225.111 258.001 232.929 258.001 57.805 244.711 49.987 244.711 225.111"/><polygon class="b" points="282.237 218.857 258.001 232.929 258.001 57.805 282.237 43.732 282.237 218.857"/><polygon class="b" points="59.253 346.93 29.613 364.043 41.402 370.849 51.378 365.09 64.074 372.42 39.588 386.557 1.5 364.566 45.65 339.076 59.253 346.93"/><polygon class="b" points="59.423 347.072 30.496 363.49 30.496 188.366 59.423 171.948 59.423 347.072"/><polygon class="b" points="59.253 171.806 29.613 188.919 41.402 195.725 51.378 189.966 64.074 197.296 39.588 211.433 1.5 189.442 45.65 163.952 59.253 171.806"/><polygon class="b" points="64.114 372.09 39.878 386.944 39.878 211.82 64.114 196.966 64.114 372.09"/><polygon class="b" points="1.57 365.054 39.878 386.944 39.878 211.82 1.57 189.93 1.57 365.054"/></svg>