<svg xmlns="http://www.w3.org/2000/svg" viewBox="0 0 199.829 291.5675"><defs><style>.a{opacity:0.5;}.b{fill:#fff;stroke:#606060;}.b,.c,.d,.e{stroke-linecap:round;stroke-linejoin:round;stroke-width:3px;}.c,.d,.e{fill:none;stroke:#d91519;}.d{stroke-dasharray:14.9503 14.9503;}.e{stroke-dasharray:11.8163 11.8163;}</style></defs><title>dash1</title><g class="a"><polyline class="b" points="161.838 176.428 198.329 197.496 129.77 237.078 117.607 230.056 130.323 222.714 118.16 215.691 27.486 268.042 39.649 275.064 49.601 269.319 61.765 276.341 37.991 290.067 1.5 269"/><polyline class="b" points="1.597 268.999 1.597 94.071 162.48 1.5 162.48 176.428"/><polygon class="b" points="198.232 197.496 162.48 176.428 162.48 1.5 198.232 22.568 198.232 197.496"/><polygon class="b" points="198.232 197.496 129.92 237.078 129.92 62.15 198.232 22.568 198.232 197.496"/><polygon class="b" points="117.152 229.417 129.92 237.078 129.92 62.15 117.152 54.489 117.152 229.417"/><polygon class="b" points="37.349 290.067 1.597 268.999 1.597 94.071 37.349 115.139 37.349 290.067"/><polygon class="b" points="37.349 290.067 61.609 276.022 61.609 101.094 37.349 115.139 37.349 290.067"/><polygon class="b" points="49.601 94.391 61.765 101.413 37.991 115.139 1.5 94.071 161.838 1.5 198.329 22.568 129.77 62.15 117.607 55.128 130.323 47.786 118.16 40.763 27.486 93.114 39.649 100.136 49.601 94.391"/></g><line class="c" x1="22.2036" y1="67.6475" x2="27.4194" y2="70.6132"/><line class="d" x1="40.4156" y1="78.0031" x2="59.9099" y2="89.0879"/><polyline class="c" points="66.408 92.783 71.624 95.749 71.624 101.749"/><line class="e" x1="71.6237" y1="113.5649" x2="71.6237" y2="273.0851"/><line class="c" x1="71.6237" y1="278.9933" x2="71.6237" y2="284.9933"/><line class="c" x1="63.3318" y1="42.1385" x2="68.5475" y2="45.1043"/><line class="d" x1="81.5437" y1="52.4941" x2="101.038" y2="63.579"/><polyline class="c" points="107.536 67.274 112.752 70.24 112.752 76.24"/><line class="e" x1="112.7519" y1="88.056" x2="112.7519" y2="247.5762"/><line class="c" x1="112.7519" y1="253.4844" x2="112.7519" y2="259.4844"/><line class="c" x1="114.8506" y1="12.4761" x2="120.0663" y2="15.442"/><line class="d" x1="133.0625" y1="22.8318" x2="152.5568" y2="33.9166"/><polyline class="c" points="159.055 37.612 164.271 40.577 164.271 46.577"/><line class="e" x1="164.2706" y1="58.3936" x2="164.2706" y2="217.9138"/><line class="c" x1="164.2706" y1="223.822" x2="164.2706" y2="229.822"/></svg>