<svg xmlns="http://www.w3.org/2000/svg" viewBox="0 0 199.3085 290.8044"><defs><style>.a{opacity:0.5;}.b{fill:#fff;stroke:#606060;}.b,.c,.d,.e,.f{stroke-linecap:round;stroke-linejoin:round;stroke-width:3px;}.c,.d,.e,.f{fill:none;stroke:#d91519;}.d{stroke-dasharray:14.9002 14.9002;}.e{stroke-dasharray:11.783 11.783;}.f{stroke-dasharray:12;}</style></defs><title>dash2</title><g class="a"><polyline class="b" points="161.414 175.966 197.809 196.978 129.431 236.455 117.3 229.451 129.983 222.129 117.851 215.125 27.417 267.337 39.548 274.341 49.474 268.611 61.606 275.615 37.894 289.304 1.5 268.292"/><polyline class="b" points="1.597 268.292 1.597 93.827 162.054 1.5 162.054 175.966"/><polygon class="b" points="197.712 196.978 162.054 175.966 162.054 1.5 197.712 22.512 197.712 196.978"/><polygon class="b" points="197.712 196.978 129.581 236.455 129.581 61.99 197.712 22.512 197.712 196.978"/><polygon class="b" points="116.846 228.815 129.581 236.455 129.581 61.99 116.846 54.349 116.846 228.815"/><polygon class="b" points="37.254 289.304 1.597 268.292 1.597 93.827 37.254 114.839 37.254 289.304"/><polygon class="b" points="37.254 289.304 61.45 275.296 61.45 100.831 37.254 114.839 37.254 289.304"/><polygon class="b" points="49.474 94.145 61.606 101.149 37.894 114.839 1.5 93.827 161.414 1.5 197.809 22.512 129.431 61.99 117.3 54.986 129.983 47.663 117.851 40.659 27.417 92.872 39.548 99.876 49.474 94.145"/></g><line class="c" x1="22.1489" y1="67.4725" x2="27.3646" y2="70.4383"/><line class="d" x1="40.3173" y1="77.8035" x2="59.7462" y2="88.8511"/><polyline class="c" points="66.223 92.534 71.438 95.499 71.438 101.499"/><line class="e" x1="71.4383" y1="113.2823" x2="71.4383" y2="272.3522"/><line class="c" x1="71.4383" y1="278.2436" x2="71.4383" y2="284.2436"/><line class="c" x1="63.1682" y1="42.031" x2="68.384" y2="44.9968"/><line class="d" x1="81.3366" y1="52.3619" x2="100.7656" y2="63.4095"/><polyline class="c" points="107.242 67.092 112.458 70.058 112.458 76.058"/><line class="e" x1="112.4577" y1="87.8408" x2="112.4577" y2="246.9108"/><line class="c" x1="112.4577" y1="252.8022" x2="112.4577" y2="258.8022"/><line class="c" x1="114.5509" y1="12.4471" x2="119.7666" y2="15.413"/><line class="d" x1="132.7193" y1="22.7781" x2="152.1482" y2="33.8257"/><polyline class="c" points="158.624 37.508 163.84 40.474 163.84 46.474"/><line class="e" x1="163.8402" y1="58.2569" x2="163.8402" y2="217.3268"/><line class="c" x1="163.8402" y1="223.2183" x2="163.8402" y2="229.2183"/><polyline class="f" points="1.886 181.92 37.307 201.844 197.809 111.229"/></svg>