<svg xmlns="http://www.w3.org/2000/svg" viewBox="0 0 693.4438 737.2197"><defs><style>.a,.b,.h{fill:#fff;}.a,.d,.g{stroke:#606060;}.a,.b,.c,.d,.e,.f,.g{stroke-linecap:round;stroke-linejoin:round;stroke-width:2.5786px;}.b,.c,.e,.f{stroke:#d91519;}.c,.d,.e,.f,.g,.i{fill:none;}.e,.g{opacity:0.43;}.f{opacity:0.5;}.h,.i{stroke:#000;stroke-miterlimit:10;}</style></defs><title>formation</title><polygon class="a" points="103.675 337.187 127.443 350.91 76.25 380.466 1.289 337.188 339.528 141.905 414.488 185.184 270.051 268.575 246.283 254.852 271.88 240.074 246.284 225.296 56.139 335.076 81.735 349.854 103.675 337.187"/><polygon class="a" points="416.317 325.369 390.721 310.591 441.45 281.302 518.239 325.636 178.635 521.706 101.847 477.372 246.284 393.981 271.88 408.759 246.283 423.537 270.051 437.26 460.196 327.48 436.428 313.757 416.317 325.369"/><polygon class="b" points="685.289 229.329 518.758 325.476 442.339 281.355 577.817 203.137 601.925 217.055 576.452 231.762 600.105 245.419 656.632 212.783 685.289 229.329"/><polygon class="b" points="75.155 549.097 130.784 517.445 101.779 507.177 82.324 518.409 57.563 504.113 102.587 478.119 178.234 521.794 103.05 565.202 75.155 549.097"/><polygon class="a" points="517.574 493.567 178.264 691.335 178.264 522.65 517.574 324.881 517.574 493.567"/><polygon class="b" points="684.32 398.56 517.574 495.506 517.574 326.82 684.32 229.875 684.32 398.56"/><polygon class="a" points="413.815 355.819 271.332 437.338 271.332 266.714 413.815 185.194 413.815 355.819"/><polygon class="b" points="413.815 355.819 460.417 329.101 460.417 158.477 413.815 185.194 413.815 355.819"/><polygon class="a" points="246.562 424.201 271.332 437.338 271.332 266.714 246.562 253.577 246.562 424.201"/><polygon class="b" points="657.349 214.508 600.554 246.419 600.554 75.795 657.349 43.884 657.349 214.508"/><polyline class="a" points="74.4 545.576 74.4 380.965 128.188 350.557 128.188 515.168"/><polygon class="b" points="575.784 233.282 600.554 246.419 600.554 75.795 575.784 62.658 575.784 233.282"/><polygon class="b" points="102.647 735.93 178.264 691.335 178.264 522.65 102.647 567.245 102.647 735.93"/><polygon class="a" points="75.502 720.419 1.823 675.824 1.823 336.515 75.502 381.11 75.502 720.419"/><polygon class="b" points="102.647 735.93 75.502 720.419 75.502 550.231 102.647 565.742 102.647 735.93"/><line class="c" x1="577.6742" y1="36.1446" x2="577.6742" y2="63.204"/><line class="d" x1="246.9484" y1="225.5603" x2="246.9484" y2="254.123"/><polygon class="b" points="435.351 143.822 460.168 158.15 412.306 185.783 337.855 142.799 582.984 1.289 656.871 44.584 600.208 77.298 575.391 62.97 600.209 48.642 577.164 35.337 392.807 141.775 415.852 155.08 435.351 143.822"/><polygon class="e" points="435.351 479.862 460.168 494.19 412.306 521.823 337.855 478.839 582.984 337.329 656.871 380.624 600.208 413.338 575.391 399.01 600.209 384.682 577.164 371.377 392.807 477.815 415.852 491.12 435.351 479.862"/><line class="f" x1="582.7932" y1="337.5301" x2="582.7932" y2="236.7699"/><line class="f" x1="337.7998" y1="478.0544" x2="337.7998" y2="141.7945"/><line class="f" x1="412.2692" y1="521.225" x2="412.2692" y2="355.4892"/><line class="f" x1="460.4037" y1="495.4386" x2="460.4037" y2="329.7028"/><line class="f" x1="600.5096" y1="412.9223" x2="600.5096" y2="247.1865"/><line class="f" x1="576.4423" y1="399.1696" x2="576.4423" y2="233.4337"/><polygon class="g" points="416.317 493.734 390.721 478.956 441.45 449.667 518.239 494.001 178.635 690.072 101.847 645.738 246.284 562.347 271.88 577.125 246.283 591.903 270.051 605.625 460.196 495.845 436.428 482.123 416.317 493.734"/><polygon class="e" points="685.289 397.694 518.758 493.841 442.339 449.72 577.817 371.502 601.925 385.421 576.452 400.128 600.105 413.784 656.632 381.149 685.289 397.694"/><polygon class="e" points="75.155 717.462 131.66 684.665 106.837 671.714 82.324 686.775 57.563 672.479 102.587 646.485 178.234 690.16 103.05 733.567 75.155 717.462"/><line class="f" x1="657.2626" y1="380.7007" x2="657.2626" y2="214.1053"/><rect class="h" x="593.7759" y="458.0126" width="69.884" height="128.4518" rx="4.7195" transform="translate(106.4794 1150.9564) rotate(-90)"/><path class="i" d="M568.8607,494.5067v15.702a2.0819,2.0819,0,0,0,2.0819,2.0819h0a2.4271,2.4271,0,0,1,2.4271,2.4271v15.0416a2.4273,2.4273,0,0,1-2.4273,2.4273h0a2.0818,2.0818,0,0,0-2.0819,2.0818V549.97a4.1422,4.1422,0,0,0,4.1422,4.1422h111.43a4.1422,4.1422,0,0,0,4.1422-4.1422V494.5067a4.1422,4.1422,0,0,0-4.1422-4.1422h-111.43A4.1422,4.1422,0,0,0,568.8607,494.5067Z"/><path d="M643.6476,498.1286c.148.0319.2953.0679.4442.0951a6.07,6.07,0,0,1,4.2494,3.2063,5.78,5.78,0,0,1,.59,1.9078,6.434,6.434,0,0,1,.03,1.4156,5.8034,5.8034,0,0,1-.77,2.4072,6.0178,6.0178,0,0,1-2.9233,2.5826,5.4094,5.4094,0,0,1-1.7132.4312.99.99,0,0,0-.108.0216c-.0038.0832-.01.1589-.01.2345q0,3.4482.0019,6.8963,0,4.6879-.0024,9.3758c0,2.0749.0087,4.15-.0024,6.2247a7.7834,7.7834,0,0,1-1.6764,4.9248,7.6983,7.6983,0,0,1-4.608,2.86,7.3224,7.3224,0,0,1-1.4816.1548q-8.1361-.0053-16.2724-.0023-2.8413,0-5.6825-.0023a6.5648,6.5648,0,0,1-1.7731-.2823,7.731,7.731,0,0,1-3.7466-2.3515,7.5,7.5,0,0,1-1.6441-2.9734A12.4858,12.4858,0,0,1,606.2874,534a11.174,11.174,0,0,1-.0514-1.9061q-.008-6.7156-.0016-13.4313,0-3.6548-.0023-7.31a7.3748,7.3748,0,0,1,.4365-2.4448,7.5681,7.5681,0,0,1,1.42-2.4649,7.9859,7.9859,0,0,1,2.07-1.727,8.0895,8.0895,0,0,1,2.6506-.9467,5.6253,5.6253,0,0,1,.6654-.0674c1.5131-.0859,3.0277-.0312,4.5416-.0384,1.9027-.0089,3.8054-.0044,5.7082-.0043q4.3779,0,8.7559.0023,2.0792,0,4.1584,0h.2479c.0657-.3468.1125-.6769.1922-.9989a5.9362,5.9362,0,0,1,1.1391-2.2879,6.0249,6.0249,0,0,1,2.3353-1.78,5.2621,5.2621,0,0,1,1.5828-.4252.5167.5167,0,0,0,.1159-.0407Zm-6.7555,6.3115H626.8193q-6.3677,0-12.7352.0024a6.569,6.569,0,0,0-.9251.0569,7.3269,7.3269,0,0,0-2.0193.5835,7.137,7.137,0,0,0-3.7609,4.1407,7.5881,7.5881,0,0,0-.3986,2.5026q-.0039,5.2956-.0011,10.5912c0,2.3335-.005,4.667,0,7,.0029,1.3509.0221,2.7017.0316,4.0526a5.6078,5.6078,0,0,0,.1667,1.2472,7.1078,7.1078,0,0,0,6.9381,5.4966c2.6176.0167,5.2353.0047,7.853.0049,3.1,0,6.2.0071,9.3-.0019,1.5658-.0045,3.1319.0389,4.6975-.03a6.8078,6.8078,0,0,0,1.7163-.3074,7.1011,7.1011,0,0,0,4.9725-6.7205c.02-2.3506.0043-4.7015.0042-7.0522q0-3.6165.0006-7.233,0-4.1848-.0007-8.37c0-.0656-.0117-.1312-.0185-.2021a6.0776,6.0776,0,0,1-5.7478-5.7621Zm10.2147-1.4c-1.0146-.0231-2,.0122-3.01-.0167v-3.0049a19.1193,19.1193,0,0,0-2.2958.0166c0,.3312,0,.666,0,1.0008,0,.3271.0049.6542,0,.9812-.0045.3316.0152.6644-.0164,1.0194h-3.0028a17.9907,17.9907,0,0,0,.0115,2.2744h3.0085v2.9946c.7784.002,1.5295.0162,2.2958-.0049,0-.2788,0-.5273,0-.7758,0-.241.0013-.482.0013-.723,0-.25-.0035-.4993-.0011-.7489.0023-.2452-.0127-.4917.0123-.751.5185,0,1.0081,0,1.4977,0,.4956,0,.9914.0063,1.4985-.0048V503.04Z"/><path d="M619.28,512.04l5.8365,15.9807.0353-.0068V512.0457c.0729-.0065.1306-.0163.1884-.0163,2.6086,0,5.2174-.0109,7.8259.0075a7.0074,7.0074,0,0,1,3.3421.81,5.7193,5.7193,0,0,1,2.653,2.9477,6.4792,6.4792,0,0,1,.4239,1.7163,6.1344,6.1344,0,0,1,.0312,1.1579,5.3918,5.3918,0,0,1-1.4193,3.4,5.6421,5.6421,0,0,1-2.14,1.4361c-.0236.009-.0459.0215-.0967.0456.2326.4864.4949.9539.737,1.4312.2447.4825.4994.96.7481,1.44.2527.4882.5026.978.7553,1.4662.2487.4806.5.96.749,1.44s.4971.9613.7455,1.4421c.247.4783.4938.9566.7528,1.4585h-4.6037l-3.9211-8.003H629.146a1.7753,1.7753,0,0,0-.02.1925q-.0012,2.35,0,4.7008,0,1.4592.001,2.9185c0,.058-.0085.1161-.0143.1889h-6.61l-1.1809-3.5369h-7.1386l-1.2162,3.5391h-4.1091c.0371-.245,7.1993-19.9486,7.3393-20.1891Zm9.8539,8.839a.6217.6217,0,0,0,.099.02c1.2547-.0107,2.5094-.0243,3.7642-.0321a2.8987,2.8987,0,0,0,1.0759-.2211,2.4219,2.4219,0,0,0,1.3763-1.3505,2.7861,2.7861,0,0,0,.1851-1.2862,2.4071,2.4071,0,0,0-1.06-1.9107,2.781,2.781,0,0,0-1.598-.4969c-1.2214-.0125-2.443-.0061-3.6644-.0062a1.55,1.55,0,0,0-.1785.0209Zm-11.29-2.7338-.0475-.002-2.4928,7.18c.3687.0408,4.7476.0255,4.9468-.0212Z"/></svg>