<svg xmlns="http://www.w3.org/2000/svg" viewBox="0 0 529.455 509.4107"><defs><style>.a{fill:none;}.a,.b{stroke:#d91519;stroke-linecap:round;stroke-linejoin:round;stroke-width:3px;}.b{fill:#fff;}</style></defs><title>juntos</title><polyline class="a" points="65.734 463.018 111.937 489.693 319.288 369.979 319.288 369.979 527.766 249.614"/><polygon class="b" points="271.958 139.432 287.735 148.54 257.308 166.107 209.978 138.781 418.457 18.416 465.786 45.742 376.761 97.141 360.984 88.033 376.761 78.924 362.111 70.466 244.912 138.131 259.562 146.589 271.958 139.432"/><polygon class="b" points="63.48 259.797 79.256 268.905 48.83 286.472 1.5 259.146 209.978 138.781 257.308 166.107 168.282 217.506 152.506 208.398 168.282 199.289 153.633 190.831 36.434 258.495 51.084 266.954 63.48 259.797"/><polygon class="b" points="464.66 28.175 450.01 19.717 481.563 1.5 527.766 28.175 319.288 148.54 273.085 121.865 362.111 70.466 376.761 78.924 360.984 88.033 376.761 97.141 493.959 29.477 478.183 20.368 464.66 28.175"/><polygon class="b" points="258.435 147.239 243.785 138.781 274.212 121.214 320.415 147.89 111.937 268.255 65.734 241.579 155.886 189.53 170.536 197.988 153.633 207.747 169.409 216.856 287.735 148.54 271.958 139.432 258.435 147.239"/><polygon class="b" points="1.847 259.591 1.5 480.585 48.83 507.911 79.256 490.344 78.969 269.517 49.189 286.698 1.847 259.591"/><line class="a" x1="65.9883" y1="241.6463" x2="65.9883" y2="260.7359"/><line class="a" x1="111.8031" y1="268.3717" x2="111.8031" y2="489.8103"/><line class="a" x1="527.955" y1="27.8436" x2="527.955" y2="249.2822"/><line class="b" x1="319.455" y1="148.603" x2="319.455" y2="369.603"/></svg>