<svg xmlns="http://www.w3.org/2000/svg" viewBox="0 0 370.8915 542.3591"><defs><style>.a{fill:#fff;stroke:#d91519;stroke-linecap:round;stroke-linejoin:round;stroke-width:3px;}</style></defs><title>machi</title><polyline class="a" points="301.187 328.457 369.391 367.835 241.249 441.817 218.515 428.691 242.283 414.969 219.548 401.843 50.07 499.691 72.805 512.817 91.406 502.078 114.141 515.204 69.704 540.859 1.5 501.481"/><polyline class="a" points="1.682 501.481 1.682 174.525 302.386 1.5 302.386 328.457"/><polygon class="a" points="369.21 367.835 302.386 328.457 302.386 1.5 369.21 40.878 369.21 367.835"/><polygon class="a" points="369.21 367.835 241.53 441.818 241.53 114.861 369.21 40.878 369.21 367.835"/><polygon class="a" points="217.664 427.498 241.53 441.818 241.53 114.861 217.664 100.542 217.664 427.498"/><polygon class="a" points="68.505 540.859 1.682 501.481 1.682 174.525 68.505 213.902 68.505 540.859"/><polygon class="a" points="68.505 540.859 113.849 514.607 113.849 187.65 68.505 213.902 68.505 540.859"/><polygon class="a" points="91.406 175.121 114.141 188.247 69.704 213.902 1.5 174.525 301.187 1.5 369.391 40.878 241.249 114.861 218.515 101.735 242.283 88.012 219.548 74.886 50.07 172.735 72.805 185.861 91.406 175.121"/></svg>