<svg xmlns="http://www.w3.org/2000/svg" viewBox="0 0 477.7347 699"><defs><style>.a{fill:#d91519;stroke:#fff;stroke-linecap:round;stroke-linejoin:round;stroke-width:3px;}</style></defs><title>machi_white</title><polyline class="a" points="388.222 423.412 476.235 474.226 310.877 569.695 281.54 552.757 312.211 535.049 282.874 518.111 64.176 644.376 93.513 661.314 117.516 647.456 146.854 664.394 89.512 697.5 1.5 646.686"/><polyline class="a" points="1.735 646.686 1.735 224.774 389.77 1.5 389.77 423.412"/><polygon class="a" points="476 474.226 389.77 423.412 389.77 1.5 476 52.314 476 474.226"/><polygon class="a" points="476 474.226 311.239 569.695 311.239 147.783 476 52.314 476 474.226"/><polygon class="a" points="280.443 551.217 311.239 569.695 311.239 147.783 280.443 129.305 280.443 551.217"/><polygon class="a" points="87.965 697.5 1.735 646.686 1.735 224.774 87.965 275.588 87.965 697.5"/><polygon class="a" points="87.965 697.5 146.478 663.624 146.478 241.712 87.965 275.588 87.965 697.5"/><polygon class="a" points="117.516 225.544 146.854 242.482 89.512 275.588 1.5 224.774 388.222 1.5 476.235 52.314 310.877 147.783 281.54 130.845 312.211 113.137 282.874 96.199 64.176 222.465 93.513 239.403 117.516 225.544"/></svg>