<svg xmlns="http://www.w3.org/2000/svg" viewBox="0 0 591.5088 343.3447"><defs><style>.a,.b{fill:none;stroke-miterlimit:10;stroke-width:3px;}.a{stroke:#d91519;}.b{stroke:#606060;stroke-linecap:round;}.c,.d{fill:#606060;}.d{font-size:33px;font-family:Lato-Italic, Lato;font-style:italic;}</style></defs><title>partes</title><polygon class="a" points="189.019 185.42 189.019 216.396 128.476 216.396 128.476 123.469 536.79 123.469 536.79 216.396 362.201 216.396 362.201 185.42 394.584 185.42 394.584 154.445 163.675 154.445 163.675 185.42 189.019 185.42"/><line class="b" x1="148.0943" y1="169.9324" x2="101.7243" y2="169.9324"/><path class="c" d="M147.7559,163.1648a6.7676,6.7676,0,1,1-6.7675,6.7676A6.7684,6.7684,0,0,1,147.7559,163.1648Z"/><line class="b" x1="467.4473" y1="159.2793" x2="467.4473" y2="93.0693"/><circle class="c" cx="467.4473" cy="158.9409" r="6.7676"/><text class="d" transform="translate(1.0723 181.3125)">Alma</text><text class="d" transform="translate(248.4971 71.7998)">Tensor</text><text class="d" transform="translate(229.9727 334.4844)">Canal</text><text class="d" transform="translate(29.8174 311.4512)">Aleta</text><text class="d" transform="translate(432.2598 28.3223)">Alma<tspan x="-32.1826" y="38.0156">extendida</tspan></text><text class="d" transform="translate(456.0635 290.3096)">Aleta<tspan x="0" y="38.0156">extendida</tspan></text><path class="b" d="M172.1233,199.5933v76.6416a22.5277,22.5277,0,0,1-22.5277,22.5278h-21.12"/><circle class="c" cx="172.1233" cy="199.9316" r="6.7676"/><path class="b" d="M379.0964,199.5933v76.6416a22.5277,22.5277,0,0,0,22.5277,22.5278h25.1891"/><circle class="c" cx="379.0964" cy="199.9316" r="6.7676"/><line class="b" x1="294.6177" y1="137.4556" x2="294.6177" y2="92.7432"/><path class="c" d="M301.3853,137.1172a6.7677,6.7677,0,1,1-6.7676-6.7676A6.7684,6.7684,0,0,1,301.3853,137.1172Z"/><line class="b" x1="269.2739" y1="177.0657" x2="269.2739" y2="305.5696"/><circle class="c" cx="269.2739" cy="177.4041" r="6.7676"/></svg>