<svg xmlns="http://www.w3.org/2000/svg" viewBox="0 0 553.5 245.9297"><defs><style>.a{fill:none;}.a,.c{stroke:#d91519;stroke-miterlimit:10;stroke-width:3px;}.b{font-size:33px;fill:#606060;font-family:Lato-Italic, Lato;font-style:italic;}.c{fill:#fff;opacity:0.5;}</style></defs><title>top</title><polygon class="a" points="285.456 117.663 285.456 136.415 249.292 136.415 249.292 80.16 497.084 80.16 497.084 136.415 391.27 136.415 391.27 117.663 410.022 117.663 410.022 100.251 270.723 100.251 270.723 117.663 285.456 117.663"/><polygon class="a" points="37.664 117.663 37.664 136.415 1.5 136.415 1.5 80.16 249.292 80.16 249.292 136.415 143.478 136.415 143.478 117.663 162.23 117.663 162.23 100.251 22.931 100.251 22.931 117.663 37.664 117.663"/><text class="b" transform="translate(227.7627 28.3223)">Pared 1</text><text class="b" transform="translate(227.7607 237.0693)">Pared 2</text><polygon class="c" points="514.496 117.663 514.496 100.251 552 100.251 552 155.167 304.208 155.167 304.208 100.251 410.022 100.251 410.022 117.663 391.27 117.663 391.27 136.415 530.569 136.415 530.569 117.663 514.496 117.663"/><polygon class="c" points="268.383 117.663 268.383 100.251 304.547 100.251 304.547 155.167 56.755 155.167 56.755 100.251 161.909 100.251 161.909 117.663 143.818 117.663 143.818 136.415 284.456 136.415 284.456 117.663 268.383 117.663"/></svg>