<svg xmlns="http://www.w3.org/2000/svg" viewBox="0 0 537.0295 313.3638"><defs><style>.a{fill:#d91519;}.b{fill:#fff;}.c,.d,.f,.g,.h{fill:none;}.c,.d,.g{stroke:#d91519;}.c,.d,.f{stroke-miterlimit:10;}.c,.d{stroke-width:3px;}.d{stroke-linecap:square;}.e{font-size:33px;font-family:Lato-Italic, Lato;font-style:italic;}.e,.i{fill:#606060;}.f{stroke:#fff;stroke-width:9px;}.g,.h{stroke-linecap:round;stroke-linejoin:round;stroke-width:2px;}.h{stroke:#606060;}</style></defs><title>anclaje</title><path class="a" d="M192.3982,46.2121v258.19h.4742a2.0009,2.0009,0,0,0-.0475.4268c0,4.7138,16.8137,8.5352,37.5549,8.5352s37.5549-3.8214,37.5549-8.5352a2.3089,2.3089,0,0,0-.4268-1.2892V46.2121"/><path class="b" d="M225.6023,239.8732c-3.2582-.1-6.51-.282-9.45-.537a4.021,4.021,0,0,1-3.6838-4.0153l.1976-57.8024a4.9527,4.9527,0,0,0-4.1759-4.8775q-.605-.0987-1.1918-.2028a4.5847,4.5847,0,0,1-3.8-4.5081l0-41.8964a8.3127,8.3127,0,0,1,9.2982-8.2639,148.7474,148.7474,0,0,0,17.5836.9915q.728,0,1.4492-.0063a8.3119,8.3119,0,0,1,8.3713,8.3212v42.5054a4.5615,4.5615,0,0,1-4.3913,4.57l-.0453.0015a4.9246,4.9246,0,0,0-4.7431,4.9326l.1933,55.3036A5.46,5.46,0,0,1,225.6023,239.8732Z"/><ellipse class="b" cx="229.9531" cy="46.6388" rx="37.5549" ry="8.5352"/><path class="a" d="M229.9531,41.1036c19.5068,0,31.8825,3.3707,34.3056,5.5352-2.4231,2.1646-14.7988,5.5353-34.3056,5.5353s-31.8826-3.3707-34.3057-5.5353c2.4231-2.1645,14.7988-5.5352,34.3057-5.5352m0-3c-20.741,0-37.5549,3.8214-37.5549,8.5352s16.8139,8.5353,37.5549,8.5353,37.5548-3.8214,37.5548-8.5353-16.8139-8.5352-37.5548-8.5352Z"/><line class="c" x1="139.261" y1="134.5514" x2="151.6454" y2="134.5514"/><line class="c" x1="151.6454" y1="168.6922" x2="139.261" y2="168.6922"/><path class="c" d="M151.4222,134.5514c3.1426,0,5.69,7.6427,5.69,17.07s-2.5476,17.07-5.69,17.07"/><ellipse class="c" cx="27.6688" cy="151.6218" rx="11.0958" ry="35.8478"/><path class="c" d="M127.5307,162.7175h9.4835c1.8332,0,3.3193-4.9677,3.3193-11.0957s-1.4861-11.0958-3.3193-11.0958h-9.4835"/><path class="c" d="M27.6688,187.47h88.7661c6.128,0,11.0958-16.05,11.0958-35.8478s-4.9678-35.8478-11.0958-35.8478H27.6688"/><path class="d" d="M135.71,164.6756c.99,2.503,2.2667,4.0166,3.663,4.0166,3.1424,0,5.69-7.6426,5.69-17.07s-2.5476-17.07-5.69-17.07c-1.3963,0-2.6731,1.5136-3.663,4.0166"/><path class="c" d="M54.9815,187.47c6.128,0,11.0957-16.05,11.0957-35.8478S61.11,115.774,54.9815,115.774H43.8857c6.128,0,11.0958,16.05,11.0958,35.8478S50.0137,187.47,43.8857,187.47Z"/><text class="e" transform="translate(53.8215 28.3225)">Masa<tspan x="-50.1016" y="39.5996">seleccionada</tspan></text><text class="e" transform="translate(316.5676 99.9993)">Mecanismo de <tspan x="0" y="39.5996">desplazamiento</tspan></text><text class="e" transform="translate(316.5676 228.9993)">Anclaje</text><line class="f" x1="188.1306" y1="149.9147" x2="211.1756" y2="149.9147"/><line class="g" x1="166.7926" y1="149.9147" x2="219.9449" y2="149.9147"/><polygon class="a" points="218.778 153.904 225.685 149.915 218.778 145.926 218.778 153.904"/><line class="h" x1="305.4524" y1="87.5094" x2="267.8975" y2="86.9311"/><path class="i" d="M267.9669,82.42a4.5117,4.5117,0,1,0,4.4417,4.5806A4.5122,4.5122,0,0,0,267.9669,82.42Z"/><line class="h" x1="91.7972" y1="87.5094" x2="91.2189" y2="115.0972"/><path class="i" d="M86.7081,115.0027a4.5117,4.5117,0,1,0,4.6053-4.4162A4.5121,4.5121,0,0,0,86.7081,115.0027Z"/><line class="h" x1="305.4524" y1="218.0979" x2="232.0496" y2="217.5196"/><circle class="i" cx="232.0496" cy="217.5196" r="4.5117" transform="translate(-85.8438 227.7939) rotate(-45)"/></svg>