<svg xmlns="http://www.w3.org/2000/svg" viewBox="0 0 493.4961 241.5"><defs><style>.a,.e{fill:none;}.a,.b{stroke:#d91519;stroke-miterlimit:10;stroke-width:3px;}.b{fill:#fff;}.c{fill:#d91519;}.d{font-size:33px;font-family:Lato-Italic, Lato;font-style:italic;}.d,.f{fill:#606060;}.e{stroke:#606060;stroke-linecap:round;stroke-linejoin:round;stroke-width:2px;}</style></defs><title>atwood</title><circle class="a" cx="245.7682" cy="94" r="10"/><circle class="a" cx="245.7682" cy="94" r="77"/><path class="b" d="M266.8454,5.95,249.2222,95.1a3.5068,3.5068,0,0,1-6.9079,0L224.691,5.95a3.64,3.64,0,0,1,3.4539-4.45h35.2466A3.64,3.64,0,0,1,266.8454,5.95Z"/><line class="a" x1="168.7682" y1="93.5" x2="168.7682" y2="200.5"/><line class="a" x1="322.7682" y1="94" x2="322.7682" y2="200"/><rect class="c" x="153.7682" y="199.5" width="30" height="42" rx="3.125"/><rect class="c" x="307.7682" y="199.5" width="30" height="42" rx="3.125"/><text class="d" transform="translate(-0.0002 231.582)">Masa 1</text><text class="d" transform="translate(391.2478 230.2309)">Masa 2</text><text class="d" transform="translate(391.2478 164.582)">Cuerda</text><text class="d" transform="translate(391.2478 49.582)">Polea</text><line class="e" x1="379.2246" y1="220.8388" x2="338.005" y2="220.1613"/><path class="f" d="M338.0792,215.65a4.5117,4.5117,0,1,0,4.4369,4.5852A4.5123,4.5123,0,0,0,338.0792,215.65Z"/><line class="e" x1="379.2246" y1="153.8388" x2="323.2246" y2="153.1613"/><path class="f" d="M323.2792,148.65a4.5117,4.5117,0,1,0,4.4568,4.566A4.5123,4.5123,0,0,0,323.2792,148.65Z"/><line class="e" x1="379.2246" y1="44.8388" x2="304.2246" y2="44.1613"/><path class="f" d="M304.2654,39.65a4.5118,4.5118,0,1,0,4.4707,4.5525A4.5123,4.5123,0,0,0,304.2654,39.65Z"/><line class="e" x1="113.005" y1="220.8388" x2="154.2246" y2="220.1613"/><path class="f" d="M154.2988,224.6723a4.5117,4.5117,0,1,0-4.5853-4.437A4.512,4.512,0,0,0,154.2988,224.6723Z"/></svg>