<svg xmlns="http://www.w3.org/2000/svg" viewBox="0 0 471.4564 216.5"><defs><style>.a{fill:#d91519;}.b,.c,.f{fill:none;stroke-width:3px;}.b,.f{stroke:#d91519;}.b,.c{stroke-miterlimit:10;}.c{stroke:#fff;}.d,.e{fill:#fff;}.e{font-size:30px;font-family:Lato-Italic, Lato;font-style:italic;}.f{stroke-linecap:round;stroke-linejoin:round;}</style></defs><title>ui1</title><path class="a" d="M178,.5H13.5A12.5,12.5,0,0,0,1,13V205.6667A8.8333,8.8333,0,0,0,9.8333,214.5H178"/><rect class="b" x="1.5" y="1.5" width="400" height="213.5" rx="8"/><circle class="c" cx="39.5" cy="36.5" r="19.5"/><rect class="c" x="28" y="84" width="23" height="23" rx="6.5"/><rect class="d" x="28" y="126" width="23" height="23" rx="6.5"/><rect class="c" x="28" y="168" width="23" height="23" rx="6.5"/><line class="c" x1="68" y1="27" x2="135" y2="27"/><line class="c" x1="68" y1="40" x2="135" y2="40"/><line class="b" x1="178" y1="1" x2="178" y2="215"/><text class="e" transform="translate(67.5003 102.9999)">m1</text><text class="e" transform="translate(67.5003 145.9999)">m2</text><text class="e" transform="translate(67.5003 188.9999)">m3</text><line class="f" x1="217" y1="135.5" x2="284" y2="135.5"/><rect class="b" x="201.5" y="17" width="186" height="97" rx="4"/><circle class="a" cx="205" cy="135.5" r="3.5"/><line class="f" x1="217" y1="153.5" x2="284" y2="153.5"/><circle class="a" cx="205" cy="153.5" r="3.5"/><line class="f" x1="217" y1="171.5" x2="284" y2="171.5"/><circle class="a" cx="205" cy="171.5" r="3.5"/><line class="f" x1="217" y1="189.5" x2="284" y2="189.5"/><circle class="a" cx="205" cy="189.5" r="3.5"/><rect class="f" x="295.5" y="131" width="81" height="9" rx="4.5"/><rect class="f" x="296" y="167.5" width="81" height="9" rx="4.5"/><rect class="f" x="270.75" y="50.3781" width="47.5" height="30.2437" rx="3.8109"/><path class="a" d="M288.5971,65.5V61.0665a2.0634,2.0634,0,0,1,3.0951-1.787l3.8395,2.2168,3.8395,2.2167a2.0634,2.0634,0,0,1,0,3.574l-3.8395,2.2167-3.8395,2.2168a2.0634,2.0634,0,0,1-3.0951-1.787Z"/><path class="a" d="M466.1412,119.55a32.2242,32.2242,0,0,0-6.7729-19.3863c-.4378-.5731-.8957-1.1317-1.3628-1.6813a2.6678,2.6678,0,0,1,1.8578-4.4275A2.5768,2.5768,0,0,1,462.1176,95.1c.8641,1.0847,1.7449,2.16,2.5444,3.2917a36.8844,36.8844,0,0,1,4.952,9.9436,32.7686,32.7686,0,0,1,1.5672,7.3781c.13,1.5453.29,3.0969.2741,4.6439a37.7716,37.7716,0,0,1-6.7924,21.3c-.8308,1.1766-1.7326,2.3072-2.6591,3.411a2.6306,2.6306,0,0,1-3.7342.3081,2.5986,2.5986,0,0,1-.32-3.7267,34.7791,34.7791,0,0,0,4.6906-6.9527,31.664,31.664,0,0,0,3.038-9.3707A36.503,36.503,0,0,0,466.1412,119.55Z"/><path class="a" d="M461.6548,120.32a27.78,27.78,0,0,1-4.3845,14.7037,29.3749,29.3749,0,0,1-2.321,3.1414,2.4886,2.4886,0,0,1-3.1027.5917,2.6376,2.6376,0,0,1-1.04-3.8173c.4313-.6122.9077-1.1925,1.3423-1.8024a22.8786,22.8786,0,0,0,4.16-13.0228,22.6173,22.6173,0,0,0-2.5924-10.6354,24.6887,24.6887,0,0,0-2.5554-3.89,3.9113,3.9113,0,0,1-.6821-1.2181,2.5374,2.5374,0,0,1,1.1453-2.936,2.4746,2.4746,0,0,1,3.2033.3358,18.6945,18.6945,0,0,1,1.8175,2.2715,28.0681,28.0681,0,0,1,4.4573,10.4868A29.3631,29.3631,0,0,1,461.6548,120.32Z"/><path class="a" d="M451.8464,119.2918a18.95,18.95,0,0,1-3.6383,11.6964,2.6646,2.6646,0,0,1-4.5749-.5037,2.6177,2.6177,0,0,1,.2261-2.5455c.2636-.4233.5434-.8365.8092-1.2585a12.5337,12.5337,0,0,0,1.7664-8.1362,12.1524,12.1524,0,0,0-2.1841-5.8563,3.3632,3.3632,0,0,1-.8154-1.8734,2.5323,2.5323,0,0,1,1.7018-2.6606,2.69,2.69,0,0,1,3.1119.95,18.2715,18.2715,0,0,1,2.8652,5.786A16.2786,16.2786,0,0,1,451.8464,119.2918Z"/><path class="a" d="M431.2582,120.0146a5.52,5.52,0,0,1,5.5321-5.5367,5.5505,5.5505,0,1,1-.0271,11.101A5.514,5.514,0,0,1,431.2582,120.0146Z"/></svg>