<svg xmlns="http://www.w3.org/2000/svg" viewBox="0 0 471.2144 216.5"><defs><style>.a{fill:#d91519;}.b,.c,.f,.g{fill:none;}.b,.f,.g,.h{stroke:#d91519;}.b,.c,.g,.h{stroke-miterlimit:10;}.b,.c,.f{stroke-width:3px;}.c{stroke:#fff;}.d,.e,.h{fill:#fff;}.e{font-size:30px;font-family:Lato-Italic, Lato;font-style:italic;}.f{stroke-linecap:round;stroke-linejoin:round;}.g,.h{stroke-width:5px;}</style></defs><title>ui2</title><path class="a" d="M178,.5H13.5A12.5,12.5,0,0,0,1,13V205.6667A8.8333,8.8333,0,0,0,9.8333,214.5H178"/><rect class="b" x="1.5" y="1.5" width="400" height="213.5" rx="8"/><circle class="c" cx="39.5" cy="36.5" r="19.5"/><rect class="c" x="28" y="84" width="23" height="23" rx="6.5"/><rect class="d" x="28" y="126" width="23" height="23" rx="6.5"/><rect class="c" x="28" y="168" width="23" height="23" rx="6.5"/><line class="c" x1="68" y1="27" x2="135" y2="27"/><line class="c" x1="68" y1="40" x2="135" y2="40"/><line class="b" x1="178" y1="1" x2="178" y2="215"/><text class="e" transform="translate(67.5003 102.9999)">m1</text><text class="e" transform="translate(67.5003 145.9999)">m2</text><text class="e" transform="translate(67.5003 188.9999)">m3</text><line class="f" x1="217" y1="135.5" x2="284" y2="135.5"/><rect class="b" x="201.5" y="17" width="186" height="97" rx="4"/><circle class="a" cx="205" cy="135.5" r="3.5"/><line class="f" x1="217" y1="153.5" x2="284" y2="153.5"/><circle class="a" cx="205" cy="153.5" r="3.5"/><line class="f" x1="217" y1="171.5" x2="284" y2="171.5"/><circle class="a" cx="205" cy="171.5" r="3.5"/><line class="f" x1="217" y1="189.5" x2="284" y2="189.5"/><circle class="a" cx="205" cy="189.5" r="3.5"/><rect class="f" x="295.5" y="131" width="81" height="9" rx="4.5"/><rect class="f" x="296" y="167.5" width="81" height="9" rx="4.5"/><rect class="f" x="270.75" y="50.3781" width="47.5" height="30.2437" rx="3.8109"/><path class="a" d="M288.5971,65.5V61.0665a2.0634,2.0634,0,0,1,3.0951-1.787l3.8395,2.2168,3.8395,2.2167a2.0634,2.0634,0,0,1,0,3.574l-3.8395,2.2167-3.8395,2.2168a2.0634,2.0634,0,0,1-3.0951-1.787Z"/><path class="g" d="M433.8473,66.4731l6.112-32.3062a3.7034,3.7034,0,0,1,7.2777,0l6.112,32.3062a2.4552,2.4552,0,0,1-2.4124,2.9116H436.26A2.4552,2.4552,0,0,1,433.8473,66.4731Z"/><path class="h" d="M439.632,35.4656c-8.35-7.7884-8.274-25.555-1.6943-27.9314,9.8759-3.5669,36.593,22.8656,29.6351,29.7637C460.3428,44.4656,447.3176,43.774,439.632,35.4656Z"/><path class="a" d="M459.3107,8.5848c-2.197,2.1971,5.7592,10.1533,7.9563,7.9563a5.626,5.626,0,1,0-7.9563-7.9563Z"/></svg>