<svg xmlns="http://www.w3.org/2000/svg" viewBox="0 0 162.9989 118.3907"><defs><style>.a,.b,.d{fill:#d91519;}.a,.b,.f{stroke:#fff;}.a,.b,.c,.f{stroke-linecap:round;stroke-linejoin:round;stroke-width:0.7304px;}.b,.c,.g{opacity:0.5;}.c,.e{fill:#fff;}.c{stroke:#d91519;}.f{fill:none;}</style></defs><title>bidireccional</title><polygon class="a" points="130.193 42.508 130.193 34.143 140.122 39.809 140.122 20.829 105.036 0.572 105.036 47.353 140.122 67.61 140.122 48.173 130.193 42.508"/><polygon class="b" points="140.192 67.457 59.89 113.824 24.887 93.613 105.189 47.247 140.192 67.457"/><path class="a" d="M131.1681,53.1633v9.9L104.0875,78.7879v-9.9L69.1449,48.7955,75.1143,53.6l16.4892-9.7153c2.5545-1.4749,4.6254-5.4316,4.6254-8.8377V33.1177l-.0034-.0464"/><path class="a" d="M96.2734,33.1329v1.9294c0,3.4061-2.0708,7.3628-4.6254,8.8377l-17.76,10.2534c-2.5545,1.4749-4.6254-.0906-4.6254-3.4967V48.7273L60.995,53.5009V55.43c0,3.4061-2.0709,7.3628-4.6254,8.8377L38.61,74.5214c-2.5545,1.4749-4.6254-.0906-4.6254-3.4967V69.0953l-8.9424,5.163V93.4451l80.1736-46.2882V27.97Z"/><polyline class="a" points="95.934 73.547 95.934 83.447 68.854 99.171 68.854 89.271 33.911 69.179"/><path class="a" d="M33.9847,69.0953v1.9294c0,3.4061,2.0709,4.9716,4.6254,3.4967L56.37,64.268c2.5545-1.4749,4.6254-5.4316,4.6254-8.8377V53.5009l-.0034-.0464"/><path class="a" d="M131.2161,53.2249v1.9294c0,3.4061-2.0709,7.3628-4.6254,8.8377l-17.76,10.2535c-2.5545,1.4748-4.6254-.0907-4.6254-3.4968V68.8194l-8.2681,4.7735v1.9294c0,3.4061-2.0709,7.3628-4.6254,8.8377L73.5528,94.6135c-2.5546,1.4748-4.6254-.0907-4.6254-3.4968V89.1874L59.9849,94.35v19.1868l80.1736-46.2882V48.062Z"/><path class="c" d="M154.8072,114.7244,2.7253,26.9123a1.5734,1.5734,0,0,0-1.5735,0h0a1.5734,1.5734,0,0,0,0,2.7251L153.2337,117.45a1.5734,1.5734,0,0,0,1.5735,0h0A1.5734,1.5734,0,0,0,154.8072,114.7244Z"/><path class="a" d="M33.9847,68.854V58.943c0-3.406,2.0709-7.3628,4.6254-8.8376L56.37,39.8519c2.5545-1.4748,4.6254.0907,4.6254,3.4967V45.278l8.2681-4.7736V38.575c0-3.406,2.0709-7.3628,4.6254-8.8376l17.76-10.2535c2.5546-1.4749,4.6254.0907,4.6254,3.4967v9.8378l8.9425-5.1629V.56L25.0423,46.8485V74.0169Z"/><polygon class="a" points="104.088 68.888 69.145 48.795 86.147 67.847 95.934 73.547 104.088 68.888"/><polygon class="a" points="94.323 63.083 85.969 67.906 85.969 56.767 94.323 51.944 94.323 63.083"/><polygon class="d" points="70.319 50.318 77.943 45.917 77.943 53.845 70.319 58.247 70.319 50.318"/><path class="e" d="M77.5777,46.5488v7.0854l-6.8936,3.98V50.5288l6.8936-3.98m.73-1.2651-8.3544,4.8234v8.7722l8.3544-4.8234V45.2837Z"/><polygon class="a" points="25.03 74.274 59.972 94.367 68.854 89.271 33.911 69.179 25.03 74.274"/><polyline class="a" points="131.022 53.018 139.904 47.922 104.961 27.83 96.389 32.926"/><polyline class="a" points="85.882 68.372 85.896 59.717 61.095 45.106 61.081 53.452"/><polygon class="a" points="129.528 43.01 121.482 47.834 121.173 36.694 129.528 31.871 129.528 43.01"/><polyline class="a" points="121.66 47.774 121.674 39.954 96.3 25.034 96.286 35.885"/><polyline class="b" points="25.076 66.06 24.915 65.753 24.915 46.871 60.001 67.128 60.001 86.127 59.921 85.937 49.781 80.151 49.781 88.515 59.921 94.302 60.001 93.894 60.001 113.909 24.915 93.652 24.915 74.777 25.076 74.424"/><polygon class="f" points="24.915 65.753 24.915 46.871 60.001 67.128 60.001 86.127 59.921 85.937 49.781 80.151 49.781 88.515 59.921 94.302 60.001 93.894 60.001 113.909 24.915 93.652 24.915 74.777 24.915 65.753"/><g class="g"><path class="e" d="M8.6135,118.0253a1.9429,1.9429,0,0,1-.97-.26,1.9383,1.9383,0,0,1,0-3.3574L159.7263,26.5956a1.9389,1.9389,0,0,1,1.9385,3.3584L9.5827,117.7655A1.9414,1.9414,0,0,1,8.6135,118.0253Z"/><path class="d" d="M160.6952,26.7015a1.5734,1.5734,0,0,1,.7868,2.9359L9.4,117.45a1.5734,1.5734,0,0,1-1.5735-2.7251L159.9085,26.9123a1.5715,1.5715,0,0,1,.7867-.2108m0-.73a2.3071,2.3071,0,0,0-1.1519.3086L7.4614,114.0918a2.3038,2.3038,0,0,0,0,3.99,2.3037,2.3037,0,0,0,2.3039,0L161.8472,30.27a2.3038,2.3038,0,0,0,0-3.99,2.3065,2.3065,0,0,0-1.152-.3087Z"/></g><polygon class="a" points="104.233 60.589 69.291 40.497 61.137 45.156 96.08 65.248 104.233 60.589"/><polygon class="a" points="139.438 40.516 104.495 20.424 96.342 25.083 131.284 45.175 139.438 40.516"/><path class="a" d="M68.9274,80.9644V79.035c0-3.406,2.0708-7.3628,4.6254-8.8376L91.3123,59.9439c2.5545-1.4748,4.6254.0907,4.6254,3.4967V65.37l8.2681-4.7736V58.667c0-3.406,2.0709-7.3628,4.6254-8.8376l17.76-10.2535c2.5545-1.4749,4.6254.0907,4.6254,3.4967V45.002l8.9424-5.1629V20.6522L59.9849,66.9405V86.1273Z"/><polyline class="f" points="49.781 80.151 59.921 85.937 60.001 86.127 60.001 67.128"/><polygon class="b" points="140.192 20.576 59.89 66.942 24.887 46.731 105.189 0.365 140.192 20.576"/><line class="f" x1="49.7073" y1="88.5371" x2="57.1187" y2="84.2138"/></svg>