<svg xmlns="http://www.w3.org/2000/svg" viewBox="0 0 146.4434 145.5255"><defs><style>.a,.b,.c,.f,.h,.j{fill:none;}.a,.b,.c,.e,.f,.g,.h,.i,.j{stroke:#fff;}.a,.h{stroke-linecap:round;}.a,.b,.c,.e,.f,.g,.i,.j{stroke-miterlimit:10;}.a,.c,.e,.f,.g,.i{stroke-width:0.4869px;}.b{stroke-width:0.9739px;}.d,.e,.g,.i{fill:#fff;}.e,.f{opacity:0.38;}.g{opacity:0.51;}.h{stroke-linejoin:round;stroke-width:0.7304px;}.i{opacity:0.53;}.j{stroke-width:0.2435px;}</style></defs><title>binaural</title><path class="a" d="M18.1571,58.9236s-1.1131,2.3118.2782,3.3392"/><path class="b" d="M52.106,78.6807S43.1946,76.1868,40.14,74.2284c-2.9856-1.9143-18.0876-3.3392-23.3747,5.8437a12.97,12.97,0,0,0-1.3913,2.5044c-.8348,3.3393-4.6359,13.8913-6.5394,12.94A13.776,13.776,0,0,1,5.4958,93.29a1.7,1.7,0,0,1,.2783-1.9479c.8348-1.1131,4.174-3.8958,1.9478-6.1219S.4869,81.6026.4869,78.5416V76.5762A4.1829,4.1829,0,0,1,1.628,73.7007a37.8955,37.8955,0,0,1,3.59-3.2289A71.8259,71.8259,0,0,0,15.7918,59.6193c1.113-1.67,2.7827-5.2872-.2783-11.6874,0,0-1.2522-4.5914.6957-6.8176s4.4523-8.07,5.2871-11.6873S27.7975,13.0657,33.74,9.67c5.8436-3.3392,9.4611-6.9567,27.27-9.1829H81.3243s24.5673,1.585,37.411,10.6748a21.01,21.01,0,0,1,1.6671,1.3236c2.35,2.05,9.7259,8.7217,11.0105,10.2632,1.3913,1.67,15.3048,19.4789,14.47,34.7837,0,0,.5566,15.3049-1.3913,22.8182S136.7,101.4989,132.8042,99.551s-26.9921-4.4523-35.062-9.74c0,0,.2783-1.67.5566-4.174s2.5044-12.8-1.3914-17.2527S93.29,61.428,88.2811,60.8715s-8.3481.5565-8.9047,1.1131.2783-1.3914-7.7915-.2783S59.8975,65.0455,52.106,78.6807Z"/><path class="a" d="M17.3223,56.4192a32.7222,32.7222,0,0,0,4.174,3.0609c.7819.2607.5873,2.23-1.9558,3.3934a1.303,1.303,0,0,0-.565,1.8687l.0164.0251a6.0282,6.0282,0,0,1,0,4.174c-.5566.8348-2.2262,1.3914-2.5045,8.07"/><path class="a" d="M68.8022,102.0554s3.0609-.2783,3.6175,2.5044,0,3.6176,3.6175,3.061,13.6352-5.5654,14.47-6.9567,5.859-3.09,7.2427-11.2846,2.36-17.5015-.8425-20.9947c-3.0609-3.3393-2.7017-4.8463-5.2466-6.4581s-7.764-2.0285-12.2844.0579A11.9943,11.9943,0,0,0,74.3676,65.88"/><path class="c" d="M77.5677,72.1414s.5565-8.6264,7.0959-6.8176c7.6283,2.11,8.9046,6.6785,9.1829,7.235s2.2585,5.96,1.53,9.6c-.5565,2.7827-1.53,1.5305-1.53,5.148s0,5.8437-1.3914,6.9568-3.8958,2.5044-4.174,3.0609"/><path class="c" d="M80.2112,73.3936l4.7306,4.4523a13.3811,13.3811,0,0,1,2.7827,3.3393c.8348,1.67,1.3914,3.6175,1.67,3.8958S90.5072,90.09,86.89,90.9246s-8.3481,1.1131-8.6264,4.1741"/><path class="c" d="M82.4374,86.194s2.7827-2.2261,3.6175-.2782,1.67,1.9479,1.9479,1.9479"/><circle class="d" cx="77.7068" cy="85.3592" r="2.2262"/><path class="c" d="M73.2545,80.35a13.913,13.913,0,0,0,.1391,3.2c.2783,1.1131,1.1131,1.67-.2782,3.8957s-1.1131,3.3393-1.1131,3.3393"/><path class="e" d="M11.3365,93.0606a.2051.2051,0,0,0,.1108.308c.8259.2607,3.6143.8794,8.6577-.4961,6.1219-1.67,8.07-2.2261,10.0177-3.6175s5.0088-5.0089,6.9567-6.6785,6.0755-4.97,6.6553-6.659A19.3532,19.3532,0,0,1,40.14,74.2284c-.5566-.5565-5.7144-2.11-10.9246-1.3172-5.17.7871-10.2415,3.2885-12.4877,7.1488a11.9379,11.9379,0,0,0-1.9868,4.8652A52.5978,52.5978,0,0,1,11.3365,93.0606Z"/><path class="f" d="M11.3365,93.0606a.2051.2051,0,0,0,.1108.308c.8259.2607,3.6143.8794,8.6577-.4961,6.1219-1.67,8.07-2.2261,10.0177-3.6175s5.0088-5.0089,6.9567-6.6785,6.0755-4.97,6.6553-6.659A19.3532,19.3532,0,0,1,40.14,74.2284c-.5566-.5565-5.7144-2.11-10.9246-1.3172-5.17.7871-10.2415,3.2885-12.4877,7.1488a11.9379,11.9379,0,0,0-1.9868,4.8652A52.5978,52.5978,0,0,1,11.3365,93.0606Z"/><path class="c" d="M72.5719,105.421a26.1,26.1,0,0,1-12.1178-4.4787c-6.122-4.174-9.1829-9.7394-8.9047-16.6962s.7649-5.9285.7649-5.9285,6.7872-13.2848,13.4463-15.2263,10.2766-2.22,11.9462-1.6633l1.67.5566s5.982-3.0449,11.3391-.5485a8.231,8.231,0,0,1,3.4485,3.1922,14.0815,14.0815,0,0,0,2.4906,3.4758c.2528.2807,1.9629,1.4846,2.2209,5.6132a74.7156,74.7156,0,0,1-.5767,11.92c-.2783,2.2262-.5566,4.174-.5566,4.174a15.0949,15.0949,0,0,1-6.2891,9.9278,5.1221,5.1221,0,0,0-1.3071,1.3173c-.7519.9988-13.34,7.9654-16.9243,6.43A2.4232,2.4232,0,0,1,72.5719,105.421Z"/><path class="g" d="M72.5719,105.421a26.1,26.1,0,0,1-12.1178-4.4787c-6.122-4.174-9.1829-9.7394-8.9047-16.6962s.7649-5.9285.7649-5.9285,6.7872-13.2848,13.4463-15.2263,10.2766-2.22,11.9462-1.6633l1.67.5566s5.982-3.0449,11.3391-.5485a8.231,8.231,0,0,1,3.4485,3.1922,14.0815,14.0815,0,0,0,2.4906,3.4758c.2528.2807,1.9629,1.4846,2.2209,5.6132a74.7156,74.7156,0,0,1-.5767,11.92c-.2783,2.2262-.5566,4.174-.5566,4.174a15.0949,15.0949,0,0,1-6.2891,9.9278,5.1221,5.1221,0,0,0-1.3071,1.3173c-.7519.9988-13.34,7.9654-16.9243,6.43A2.4232,2.4232,0,0,1,72.5719,105.421Z"/><path class="d" d="M122.8017,142.8561s.15-.7532-1.1753-1.0182-4.5541-.0323-4.5294,1.1763A9.9577,9.9577,0,0,0,122.8017,142.8561Z"/><path class="h" d="M124.9986,141.8579a6.88,6.88,0,0,0-4.9622-1.33,12.7765,12.7765,0,0,0-5.0712,1.3889"/><path class="h" d="M112.4473,141.0773s7.5537-5.0358,13.9884-.28"/><path class="i" d="M90.4123,101.2206V125.35H76.2832V107.9842S87.8175,103.6824,90.4123,101.2206Z"/><path class="j" d="M78.0821,137.2583s5.7746,3.4607,11.735.8966"/><path class="j" d="M90.057,139.3469s-6.9817,2.5359-12.182-.9006"/><path class="j" d="M90.057,140.4417s-6.9817,2.5359-12.182-.9006"/><path class="j" d="M90.057,141.5365s-6.9817,2.5359-12.182-.9006"/><path class="j" d="M89.0968,143.0656s-6.0215,2.3417-11.2218-1.0948"/><path class="i" d="M90.6692,143.5755a13.923,13.923,0,0,1-13.3584,0v-7.9349l13.3584-.529Z"/><path class="c" d="M90.4123,101.2206V125.35H76.2832V107.9842S87.8175,103.6824,90.4123,101.2206Z"/><path class="c" d="M90.6692,143.5755a13.923,13.923,0,0,1-13.3584,0v-7.9349l13.3584-.529Z"/><path class="d" d="M88.568,125.4806c.4492.0573,4.1587.5369,6.0343,1.0059a13.9516,13.9516,0,0,1,3.9494,1.6908c1.1839.61,2.9729,1.5328,5.663,2.8779a16.4211,16.4211,0,0,0,7.0465,2.0473,5.5216,5.5216,0,0,0,3.3949-.9853,2.2123,2.2123,0,0,1,1.3242-.4712h10.39c3.762,3.2575.65,8.402-.1764,9.6227a21.1751,21.1751,0,0,0-3.6447,1.0806,7.4942,7.4942,0,0,1-2.5688.4534,6.85,6.85,0,0,1-2.48-.4345.7316.7316,0,0,0-.1284-.0432l-7.9077-1.8709a30.3438,30.3438,0,0,1-8.5741-4.73c-1.4781-1.0616-2.0146-1.4287-2.5138-1.4287-1.046,0-7.0007.4951-7.2211.5142l-13.212.5081c-2.4678-.9351-3.8954-2.21-4.2446-3.7917-.5573-2.5249,1.6921-5.27,2.3887-6.0457H88.568m.0461-.73H75.77s-7.7068,7.7068,2.0551,11.3032L91.183,135.54s6.1654-.5137,7.193-.5137c.846,0,5.5241,4.5286,10.8789,6.128l7.9485,1.8817a7.4465,7.4465,0,0,0,2.7769.4974,8.2218,8.2218,0,0,0,2.8184-.4974,14.4365,14.4365,0,0,1,3.7873-1.0739l.0129,0s5.173-6.9361.0352-11.0464H115.98a2.9456,2.9456,0,0,0-1.7624.6172,4.7988,4.7988,0,0,1-2.9567.8392,15.4748,15.4748,0,0,1-6.72-1.97c-8.2206-4.11-7.7068-4.11-9.7619-4.624s-6.1654-1.0276-6.1654-1.0276Z"/></svg>