<svg xmlns="http://www.w3.org/2000/svg" viewBox="0 0 98.9846 174.935"><defs><style>.a,.g,.m{fill:#fff;}.a{opacity:0.62;}.b,.e,.h,.i,.j,.l{fill:#d91519;}.b,.c,.d,.h,.i{stroke:#fff;stroke-width:0.7304px;}.b{stroke-miterlimit:10;}.c,.d{fill:none;}.c,.d,.h,.i{stroke-linecap:round;stroke-linejoin:round;}.c,.k{opacity:0.3;}.f,.h,.m{opacity:0.5;}.j{opacity:0.68;}.l{opacity:0.73;}</style></defs><title>calidad_aire</title><polygon class="a" points="8.489 140.733 36.981 123.443 86.901 152.178 57.436 169.711 8.489 140.733"/><path class="b" d="M41.1205,102.5012.39,125.9957v15.2715L57.969,174.5133,98.6052,151.05l.014-15.391Zm22.5406,61.726L59.04,167.0463a.7545.7545,0,0,1-.7737.0072L26.2191,148.3254a.7546.7546,0,0,1-.0121-1.2956l4.6216-2.819a.7543.7543,0,0,1,.7737-.0073L63.649,162.9316A.7545.7545,0,0,1,63.6611,164.2272Zm9.51-5.5476-4.6216,2.819a.7543.7543,0,0,1-.7737.0073L35.7294,142.7778a.7546.7546,0,0,1-.0122-1.2956l4.6217-2.8191a.7545.7545,0,0,1,.7737-.0072L73.1592,157.384A.7545.7545,0,0,1,73.1714,158.68Zm9.114-5.5477-4.6216,2.8191a.7547.7547,0,0,1-.7737.0073L44.8434,137.23a.7546.7546,0,0,1-.0122-1.2956l4.6216-2.819a.7547.7547,0,0,1,.7738-.0073l32.0466,18.7282A.7545.7545,0,0,1,82.2854,153.1319Z"/><polyline class="c" points="0.453 141.22 41.121 117.356 41.036 117.342 98.55 150.551"/><polygon class="d" points="98.605 151.05 57.969 174.513 0.39 141.267 0.39 125.996 41.121 102.501 98.619 135.659 98.605 151.05"/><path class="e" d="M53.82,126.6177l-11.0472-6.34a1.3647,1.3647,0,0,0-1.3615.0018l-9.2123,5.3191a1.3646,1.3646,0,0,0,.0032,2.3653l11.0472,6.34a1.3647,1.3647,0,0,0,1.3615-.0018l9.2122-5.3192A1.3646,1.3646,0,0,0,53.82,126.6177Z"/><g class="f"><path class="g" d="M53.82,126.6177l-11.0472-6.34a1.3647,1.3647,0,0,0-1.3615.0018l-9.2123,5.3191a1.3646,1.3646,0,0,0,.0032,2.3653l11.0472,6.34a1.3647,1.3647,0,0,0,1.3615-.0018l9.2122-5.3192A1.3646,1.3646,0,0,0,53.82,126.6177Z"/></g><path class="g" d="M42.0937,120.827a.6362.6362,0,0,1,.3155.0841l11.0472,6.34a.634.634,0,0,1,.0014,1.0992L44.2457,133.67a.6345.6345,0,0,1-.6329.0009l-11.0471-6.34a.6341.6341,0,0,1-.0014-1.0991l9.2122-5.3192a.6356.6356,0,0,1,.3172-.085m0-.73a1.3636,1.3636,0,0,0-.6824.1828l-9.2123,5.3191a1.3645,1.3645,0,0,0,.0032,2.3652l11.0471,6.34a1.364,1.364,0,0,0,1.3616-.0017l9.2122-5.3192a1.3645,1.3645,0,0,0-.0031-2.3652l-11.0472-6.34a1.3636,1.3636,0,0,0-.6791-.181Z"/><path class="e" d="M40.9137,133.9232l-11.0472-6.34a1.3644,1.3644,0,0,0-1.3616.0018l-9.2122,5.3191a1.3646,1.3646,0,0,0,.0031,2.3652l11.0473,6.34a1.3642,1.3642,0,0,0,1.3615-.0018l9.2122-5.3191A1.3646,1.3646,0,0,0,40.9137,133.9232Z"/><g class="f"><path class="g" d="M40.9137,133.9232l-11.0472-6.34a1.3644,1.3644,0,0,0-1.3616.0018l-9.2122,5.3191a1.3646,1.3646,0,0,0,.0031,2.3652l11.0473,6.34a1.3642,1.3642,0,0,0,1.3615-.0018l9.2122-5.3191A1.3646,1.3646,0,0,0,40.9137,133.9232Z"/></g><path class="g" d="M29.1872,128.1326a.6352.6352,0,0,1,.3158.0841l11.0471,6.34a.6342.6342,0,0,1,.0015,1.0992l-9.2122,5.3191a.6349.6349,0,0,1-.6328.0009l-11.0472-6.34a.634.634,0,0,1-.0014-1.099l9.2122-5.3192a.6332.6332,0,0,1,.317-.0849m0-.73a1.3645,1.3645,0,0,0-.6823.1828l-9.2122,5.3193a1.3645,1.3645,0,0,0,.0031,2.3651l11.0473,6.34a1.3645,1.3645,0,0,0,1.3615-.0019l9.2122-5.3191a1.3645,1.3645,0,0,0-.0032-2.3652l-11.0471-6.34a1.3639,1.3639,0,0,0-.6793-.1811Z"/><path class="e" d="M28.2509,141.7157l-11.0472-6.34a1.3642,1.3642,0,0,0-1.3615.0018L6.63,140.6966a1.3645,1.3645,0,0,0,.0032,2.3652l11.0472,6.34a1.3645,1.3645,0,0,0,1.3615-.0018l9.2122-5.3191A1.3646,1.3646,0,0,0,28.2509,141.7157Z"/><g class="f"><path class="g" d="M28.2509,141.7157l-11.0472-6.34a1.3642,1.3642,0,0,0-1.3615.0018L6.63,140.6966a1.3645,1.3645,0,0,0,.0032,2.3652l11.0472,6.34a1.3645,1.3645,0,0,0,1.3615-.0018l9.2122-5.3191A1.3646,1.3646,0,0,0,28.2509,141.7157Z"/></g><path class="g" d="M16.5243,135.925a.636.636,0,0,1,.3158.0841l11.0473,6.34a.634.634,0,0,1,.0013,1.0991l-9.2122,5.3193a.6351.6351,0,0,1-.6327.0008l-11.0472-6.34a.6341.6341,0,0,1-.0014-1.0992l9.2122-5.3193a.6341.6341,0,0,1,.3169-.0849m0-.73a1.3635,1.3635,0,0,0-.6821.1828L6.63,140.6966a1.3646,1.3646,0,0,0,.0031,2.3653l11.0473,6.34a1.3641,1.3641,0,0,0,1.3615-.0018l9.2122-5.3191a1.3645,1.3645,0,0,0-.0031-2.3652l-11.0472-6.34a1.3645,1.3645,0,0,0-.6794-.1811Z"/><path class="e" d="M67.7622,119.7853l-5.5693-3.1962a.6879.6879,0,0,0-.6865.0009l-4.6442,2.6816a.6879.6879,0,0,0,.0015,1.1924l5.5694,3.1963a.6879.6879,0,0,0,.6864-.0009l4.6443-2.6816A.688.688,0,0,0,67.7622,119.7853Z"/><g class="f"><path class="g" d="M67.7622,119.7853l-5.5693-3.1962a.6879.6879,0,0,0-.6865.0009l-4.6442,2.6816a.6879.6879,0,0,0,.0015,1.1924l5.5694,3.1963a.6879.6879,0,0,0,.6864-.0009l4.6443-2.6816A.688.688,0,0,0,67.7622,119.7853Z"/></g><path class="g" d="M61.8716,117.2225h0m-.0212.0122,5.4846,3.1476-4.5383,2.6445-5.5055-3.16,4.5592-2.6325m0-.7369a.6878.6878,0,0,0-.344.0921l-4.6443,2.6817a.688.688,0,0,0,.0016,1.1924l5.5695,3.1963a.6878.6878,0,0,0,.6864-.0009l4.6442-2.6816a.688.688,0,0,0-.0015-1.1924l-5.5695-3.1963a.6868.6868,0,0,0-.3424-.0913Z"/><path class="e" d="M59.9574,115.4291l-5.5694-3.1962a.6877.6877,0,0,0-.6864.0009l-4.6443,2.6816a.6879.6879,0,0,0,.0015,1.1924l5.5694,3.1963a.6882.6882,0,0,0,.6864-.0009l4.6443-2.6817A.688.688,0,0,0,59.9574,115.4291Z"/><g class="f"><path class="g" d="M59.9574,115.4291l-5.5694-3.1962a.6877.6877,0,0,0-.6864.0009l-4.6443,2.6816a.6879.6879,0,0,0,.0015,1.1924l5.5694,3.1963a.6882.6882,0,0,0,.6864-.0009l4.6443-2.6817A.688.688,0,0,0,59.9574,115.4291Z"/></g><path class="g" d="M54.0668,112.8663h0m-.0212.0122,5.4845,3.1476-4.5383,2.6445-5.5054-3.16,4.5592-2.6325m0-.7369a.6876.6876,0,0,0-.344.0921l-4.6443,2.6817a.6879.6879,0,0,0,.0016,1.1924l5.5693,3.1963a.6878.6878,0,0,0,.6864-.0009l4.6443-2.6816a.6879.6879,0,0,0-.0016-1.1924l-5.5693-3.1963a.6874.6874,0,0,0-.3424-.0913Z"/><path class="e" d="M52.1525,111.0729l-5.5694-3.1963a.6882.6882,0,0,0-.6864.0009l-4.6443,2.6817a.6879.6879,0,0,0,.0016,1.1924l5.5693,3.1962a.6879.6879,0,0,0,.6865-.0009l4.6442-2.6816A.6879.6879,0,0,0,52.1525,111.0729Z"/><g class="f"><path class="g" d="M52.1525,111.0729l-5.5694-3.1963a.6882.6882,0,0,0-.6864.0009l-4.6443,2.6817a.6879.6879,0,0,0,.0016,1.1924l5.5693,3.1962a.6879.6879,0,0,0,.6865-.0009l4.6442-2.6816A.6879.6879,0,0,0,52.1525,111.0729Z"/></g><path class="g" d="M46.2619,108.51h0m-.0212.0122,5.4846,3.1475-4.5385,2.6445-5.5054-3.16,4.5593-2.6325m0-.7369a.6876.6876,0,0,0-.344.0921l-4.6443,2.6817a.6879.6879,0,0,0,.0016,1.1924l5.5693,3.1963a.6887.6887,0,0,0,.6864-.001l4.6443-2.6815a.688.688,0,0,0-.0015-1.1925l-5.5694-3.1962a.6874.6874,0,0,0-.3424-.0913Z"/><path class="h" d="M41.1205,102.5012.39,125.9957v15.2715L57.969,174.5133,98.6052,151.05l.014-15.391Z"/><polygon class="d" points="98.605 135.75 57.969 159.213 0.39 125.967 41.026 102.504 98.605 135.75"/><line class="i" x1="57.953" y1="159.0118" x2="57.953" y2="174.312"/><path class="j" d="M61.7527,145.9814a3.8063,3.8063,0,0,0-1.82-1.9757,10.3612,10.3612,0,0,0-9.3758,0,3.8617,3.8617,0,0,0-1.7975,1.91s-.129-4.0318,6.1-3.9985,6.8584,2.9554,6.8584,2.9554Z"/><ellipse class="d" cx="55.2444" cy="145.7385" rx="6.6297" ry="3.828"/><path class="d" d="M48.759,145.9159a3.8617,3.8617,0,0,1,1.7975-1.91,10.3612,10.3612,0,0,1,9.3758,0,3.8063,3.8063,0,0,1,1.82,1.9757"/><ellipse class="d" cx="75.2126" cy="134.0588" rx="6.6297" ry="3.828"/><path class="d" d="M68.7273,134.2362a3.8615,3.8615,0,0,1,1.7974-1.91,10.3612,10.3612,0,0,1,9.3758,0,3.8065,3.8065,0,0,1,1.8205,1.9757"/><polygon class="i" points="61.849 156.939 57.808 159.273 53.164 156.452 57.205 154.119 61.849 156.939"/><ellipse class="g" cx="57.5694" cy="156.6229" rx="1.0457" ry="0.6038"/><polygon class="i" points="9.237 126.384 5.196 128.718 0.552 125.897 4.593 123.564 9.237 126.384"/><ellipse class="g" cx="4.9572" cy="126.0682" rx="1.0457" ry="0.6038"/><polygon class="i" points="45.704 105.459 41.662 107.792 37.018 104.971 41.059 102.638 45.704 105.459"/><ellipse class="g" cx="41.4236" cy="105.1423" rx="1.0457" ry="0.6038"/><polygon class="i" points="98.347 135.848 94.305 138.182 89.661 135.361 93.702 133.028 98.347 135.848"/><ellipse class="g" cx="94.0665" cy="135.532" rx="1.0457" ry="0.6038"/><polygon class="i" points="98.504 103.996 57.922 127.428 0.42 94.226 0.42 78.975 41.087 55.528 98.518 88.626 98.504 103.996"/><g class="k"><path class="g" d="M50.6852,82.7228,39.64,89.0614a1.3643,1.3643,0,0,1-1.3613-.0018l-9.21-5.318a1.3642,1.3642,0,0,1,.0031-2.3647l11.0448-6.3386a1.3643,1.3643,0,0,1,1.3613.0018l9.21,5.318A1.3642,1.3642,0,0,1,50.6852,82.7228Z"/></g><g class="k"><path class="g" d="M33.3329,92.6715,22.288,99.01a1.3641,1.3641,0,0,1-1.3612-.0018l-9.21-5.318a1.3643,1.3643,0,0,1,.0031-2.3647L22.7645,84.987a1.3641,1.3641,0,0,1,1.3612.0017l9.21,5.318A1.3644,1.3644,0,0,1,33.3329,92.6715Z"/></g><g class="k"><path class="g" d="M64.3358,90.8085,53.2909,97.1471a1.3641,1.3641,0,0,1-1.3612-.0018l-9.21-5.318a1.3643,1.3643,0,0,1,.0031-2.3647l11.0449-6.3387a1.3641,1.3641,0,0,1,1.3612.0018l9.21,5.318A1.3644,1.3644,0,0,1,64.3358,90.8085Z"/></g><g class="k"><path class="g" d="M46.9834,100.7571l-11.0449,6.3387a1.3641,1.3641,0,0,1-1.3612-.0018l-9.21-5.318a1.3643,1.3643,0,0,1,.0031-2.3647L36.415,93.0726a1.3643,1.3643,0,0,1,1.3613.0018l9.21,5.318A1.3642,1.3642,0,0,1,46.9834,100.7571Z"/></g><g class="k"><path class="e" d="M38.9615,88.8767a.9958.9958,0,0,1-.5-.1338l-9.21-5.3174a.9993.9993,0,0,1,.002-1.7324l11.0449-6.3389a1.01,1.01,0,0,1,.498-.1318.9955.9955,0,0,1,.4991.1338l9.21,5.3183a.9986.9986,0,0,1-.0019,1.7315l-11.045,6.3389A1.0091,1.0091,0,0,1,38.9615,88.8767Z"/><path class="g" d="M40.796,75.5876a.6347.6347,0,0,1,.3168.0849l9.21,5.3181a.6339.6339,0,0,1-.0015,1.0987L39.277,88.4279a.6338.6338,0,0,1-.6327-.0008l-9.21-5.318a.6338.6338,0,0,1,.0014-1.0987l11.045-6.3387a.6343.6343,0,0,1,.3155-.0841m0-.73a1.364,1.364,0,0,0-.6789.1811L29.072,81.3769a1.3642,1.3642,0,0,0-.0031,2.3647l9.21,5.318a1.3644,1.3644,0,0,0,1.3613.0018l11.0448-6.3386a1.3642,1.3642,0,0,0,.0032-2.3647l-9.21-5.3181a1.3642,1.3642,0,0,0-.6823-.1828Z"/></g><g class="k"><path class="e" d="M21.6089,98.8259a.9963.9963,0,0,1-.5-.1338l-9.21-5.3183a.9986.9986,0,0,1,.0019-1.7315l11.045-6.3389a1.0091,1.0091,0,0,1,.497-.1318.9958.9958,0,0,1,.5.1338l9.21,5.3174a.9993.9993,0,0,1-.002,1.7324L22.106,98.6941A1.01,1.01,0,0,1,21.6089,98.8259Z"/><path class="g" d="M23.4435,85.5364a.6345.6345,0,0,1,.3171.0849l9.21,5.318a.6339.6339,0,0,1-.0015,1.0987L21.9244,98.3766a.6339.6339,0,0,1-.6324-.0008l-9.21-5.318a.6339.6339,0,0,1,.0014-1.0987l11.045-6.3386a.6338.6338,0,0,1,.3154-.0841m0-.73a1.3632,1.3632,0,0,0-.679.181L11.72,91.3256a1.3644,1.3644,0,0,0-.0031,2.3648l9.21,5.3179a1.3642,1.3642,0,0,0,1.3612.0018l11.0448-6.3386a1.3643,1.3643,0,0,0,.0032-2.3648l-9.21-5.3179a1.3635,1.3635,0,0,0-.6823-.1828Z"/></g><g class="k"><path class="e" d="M52.6128,96.9626a1.0021,1.0021,0,0,1-.5009-.1338l-9.21-5.3183a.9985.9985,0,0,1,.002-1.7315L53.9488,83.44a1.0085,1.0085,0,0,1,.4971-.1319.9963.9963,0,0,1,.5.1338l9.21,5.3184a.9985.9985,0,0,1-.0019,1.7314l-11.045,6.3389A.995.995,0,0,1,52.6128,96.9626Z"/><path class="g" d="M54.4465,83.6733a.6354.6354,0,0,1,.3169.0849l9.21,5.318a.6339.6339,0,0,1-.0015,1.0988L52.9274,96.5136a.6341.6341,0,0,1-.6325-.0008l-9.21-5.318a.6338.6338,0,0,1,.0014-1.0987l11.045-6.3387a.6349.6349,0,0,1,.3155-.0841m0-.73a1.3644,1.3644,0,0,0-.6791.181L42.7225,89.4626a1.3642,1.3642,0,0,0-.0031,2.3647l9.21,5.318a1.3644,1.3644,0,0,0,1.3613.0018l11.0448-6.3386a1.3643,1.3643,0,0,0,.0032-2.3648l-9.21-5.318a1.3628,1.3628,0,0,0-.6821-.1828Z"/></g><g class="k"><path class="e" d="M35.2593,106.9118a1.0054,1.0054,0,0,1-.499-.1337L25.5494,101.46a1,1,0,0,1,.0019-1.7324l11.0449-6.3379a.999.999,0,0,1,.9971.001l9.211,5.3183a1,1,0,0,1-.003,1.7324L35.7574,106.779A1.0011,1.0011,0,0,1,35.2593,106.9118Z"/><path class="g" d="M37.094,93.622a.6344.6344,0,0,1,.3171.085l9.21,5.318a.6338.6338,0,0,1-.0014,1.0986L35.575,106.4623a.6335.6335,0,0,1-.6324-.0009l-9.21-5.3179a.6339.6339,0,0,1,.0015-1.0987l11.0448-6.3387a.6349.6349,0,0,1,.3155-.0841m0-.73a1.3632,1.3632,0,0,0-.679.181L25.37,99.4113a1.3642,1.3642,0,0,0-.0032,2.3647l9.21,5.318a1.3642,1.3642,0,0,0,1.3612.0018l11.045-6.3387a1.3643,1.3643,0,0,0,.003-2.3647l-9.21-5.318a1.3645,1.3645,0,0,0-.6823-.1828Z"/></g><polygon class="l" points="75.902 91.012 35.541 114.163 35.541 98.817 75.902 75.666 75.902 91.012"/><g class="f"><polygon class="e" points="75.902 91.012 35.541 114.163 35.541 98.817 75.902 75.666 75.902 91.012"/><polygon class="d" points="75.902 91.012 35.541 114.163 35.541 98.817 75.902 75.666 75.902 91.012"/><polyline class="d" points="0.429 94.239 41.087 70.379 41.002 70.366 98.504 103.568"/><path class="m" d="M67.8012,110.8051l-2.9083-1.6793-.0025-1.2789c.13-1.6172-.9111-3.1885-2.8579-4.3129a14.948,14.948,0,0,0-13.5075,0c-1.8614,1.0752-2.878,2.5172-2.8668,4.064l-.002.0311,0,2.8326-2.6333,1.5113a1.5638,1.5638,0,0,0-.0035,2.7106l10.5574,6.0958a1.5638,1.5638,0,0,0,1.56.0021l12.66-7.2658A1.5638,1.5638,0,0,0,67.8012,110.8051Z"/><path class="d" d="M67.7977,113.5157l-12.66,7.2658a1.5638,1.5638,0,0,1-1.56-.0021L43.02,114.6836a1.5638,1.5638,0,0,1,.0035-2.7106l12.66-7.2658a1.5638,1.5638,0,0,1,1.56.002l10.5574,6.0959A1.5638,1.5638,0,0,1,67.7977,113.5157Z"/><path class="d" d="M45.901,111.3188c.0388,1.3558.954,2.7048,2.7458,3.7393a14.6577,14.6577,0,0,0,13.264,0c1.7748-1.0248,2.69-2.3581,2.7444-3.7009"/><ellipse class="i" cx="55.2788" cy="107.5743" rx="9.3791" ry="5.4155"/><ellipse class="d" cx="55.2788" cy="107.5743" rx="9.3791" ry="5.4155"/><line class="d" x1="45.8997" y1="111.2811" x2="45.8997" y2="107.6291"/><line class="d" x1="64.6468" y1="107.6291" x2="64.6468" y2="111.2811"/><path class="g" d="M50.0791,107.82c-1.271.7339-1.96,2.1164-.7671,2.4117s1.2861-.7427,2.5572-1.4766,2.2162-.8859,2.3867-1.1812S51.35,107.0865,50.0791,107.82Z"/><path class="g" d="M54.8526,104.572c-1.2711-.7339-3.6653-1.132-4.1768-.4429s1.2862.7426,2.5572,1.4765,1.5344,1.28,2.0458,1.3781S56.1237,105.3059,54.8526,104.572Z"/><path class="g" d="M60.4785,107.3282c1.271-.7339,1.9605-2.1164.7671-2.4117s-1.2861.7426-2.5572,1.4766-2.2162.8859-2.3867,1.1812S59.2074,108.0621,60.4785,107.3282Z"/><path class="g" d="M55.705,110.5766c1.2711.7339,3.6653,1.132,4.1768.4429s-1.2862-.7426-2.5572-1.4765-1.5344-1.28-2.0458-1.3781S54.4339,109.8427,55.705,110.5766Z"/><ellipse class="g" cx="55.2788" cy="107.5743" rx="0.7233" ry="0.4176"/><path class="m" d="M87.7653,99.1188,84.8569,97.44l-.0025-1.2788c.13-1.6172-.9111-3.1886-2.8579-4.3129a14.9478,14.9478,0,0,0-13.5074,0c-1.8614,1.0751-2.8781,2.5171-2.8669,4.0639l-.0019.0312,0,2.8325-2.6333,1.5113a1.5638,1.5638,0,0,0-.0036,2.7106l10.5574,6.0958a1.5636,1.5636,0,0,0,1.56.0021l12.66-7.2658A1.5639,1.5639,0,0,0,87.7653,99.1188Z"/><path class="d" d="M87.7617,101.8294l-12.66,7.2658a1.5636,1.5636,0,0,1-1.56-.0021l-10.5574-6.0958a1.5638,1.5638,0,0,1,.0036-2.7106l12.66-7.2658a1.5637,1.5637,0,0,1,1.56.0021l10.5574,6.0958A1.5639,1.5639,0,0,1,87.7617,101.8294Z"/><path class="d" d="M65.865,99.6325c.0388,1.3558.9541,2.7048,2.7458,3.7394a14.6583,14.6583,0,0,0,13.264,0c1.7748-1.0248,2.69-2.3581,2.7445-3.701"/><ellipse class="i" cx="75.2428" cy="95.888" rx="9.3791" ry="5.4155"/><ellipse class="d" cx="75.2428" cy="95.888" rx="9.3791" ry="5.4155"/><line class="d" x1="65.8638" y1="99.5948" x2="65.8638" y2="95.9429"/><line class="d" x1="84.6108" y1="95.9429" x2="84.6108" y2="99.5948"/><path class="g" d="M70.0432,96.1341c-1.2711.7339-1.9606,2.1164-.7672,2.4117s1.2861-.7426,2.5572-1.4765,2.2163-.886,2.3867-1.1813S71.3142,95.4,70.0432,96.1341Z"/><path class="g" d="M74.8166,92.8858c-1.2711-.734-3.6653-1.1321-4.1768-.443s1.2862.7426,2.5573,1.4765,1.5343,1.28,2.0457,1.3781S76.0877,93.62,74.8166,92.8858Z"/><path class="g" d="M80.4425,95.6419c1.2711-.7339,1.9605-2.1163.7672-2.4116s-1.2862.7426-2.5573,1.4765-2.2162.8859-2.3867,1.1812S79.1714,96.3759,80.4425,95.6419Z"/><path class="g" d="M75.669,98.89c1.2711.7339,3.6654,1.132,4.1768.443s-1.2861-.7426-2.5572-1.4766-1.5343-1.28-2.0458-1.378S74.3979,98.1564,75.669,98.89Z"/><ellipse class="g" cx="75.2428" cy="95.888" rx="0.7233" ry="0.4176"/><polygon class="d" points="35.487 108.36 57.886 121.507 98.544 97.891 75.902 85.168 35.487 108.36"/><ellipse class="d" cx="55.2079" cy="107.5208" rx="9.3686" ry="5.4094"/></g><polygon class="d" points="98.504 88.716 57.922 112.148 0.672 78.9 41.002 55.515 98.504 88.716"/><line class="i" x1="57.9065" y1="111.9472" x2="57.9065" y2="127.227"/><ellipse class="d" cx="68.5553" cy="110.8562" rx="4.1891" ry="2.3699" transform="translate(-60.2926 130.5319) rotate(-66.9489)"/><path class="d" d="M69.2825,106.9277c.7877.1834,1.3138,1.0344,1.3138,2.3531a6.5351,6.5351,0,0,1-2.7287,5.2137,2.483,2.483,0,0,1-.7267.2891"/><ellipse class="d" cx="79.0213" cy="104.8488" rx="4.1891" ry="2.3699" transform="translate(-48.3969 136.5071) rotate(-66.9489)"/><path class="d" d="M79.7485,100.92c.7877.1834,1.3138,1.0344,1.3138,2.3531a6.5351,6.5351,0,0,1-2.7287,5.2137,2.4852,2.4852,0,0,1-.7268.2891"/><ellipse class="d" cx="89.6808" cy="98.6594" rx="4.1891" ry="2.3699" transform="translate(-36.2159 142.5495) rotate(-66.9489)"/><path class="d" d="M90.408,94.731c.7876.1833,1.3138,1.0344,1.3138,2.353a6.5349,6.5349,0,0,1-2.7287,5.2137,2.4825,2.4825,0,0,1-.7268.2891"/><polygon class="i" points="61.812 109.711 57.771 112.044 53.128 109.224 57.168 106.891 61.812 109.711"/><ellipse class="g" cx="57.5324" cy="109.3947" rx="1.0455" ry="0.6037"/><polygon class="i" points="9.454 79.163 5.413 81.496 0.77 78.676 4.811 76.343 9.454 79.163"/><ellipse class="g" cx="5.1749" cy="78.8465" rx="1.0455" ry="0.6037"/><polygon class="i" points="45.669 58.485 41.629 60.818 36.985 57.998 41.026 55.665 45.669 58.485"/><ellipse class="g" cx="41.3901" cy="58.1684" rx="1.0455" ry="0.6037"/><polygon class="i" points="98.301 88.868 94.26 91.201 89.617 88.381 93.658 86.048 98.301 88.868"/><ellipse class="g" cx="94.0218" cy="88.5518" rx="1.0455" ry="0.6037"/><polygon class="i" points="93.035 35.512 88.624 38.059 82.374 34.451 86.785 31.904 93.035 35.512"/><path class="i" d="M85.0881,39.9823h4.0255L88.34,1.1016c-.0172-.41-.5667-.7364-1.2386-.7364h0c-.6719,0-1.2214.3267-1.2386.7364Z"/><polygon class="i" points="93.139 35.554 93.139 38.292 90.592 36.923 93.139 35.554"/><polygon class="e" points="98.367 41.371 40.993 8.243 0.365 31.701 0.425 31.736 0.365 31.73 0.365 46.998 57.932 80.237 98.56 56.779 98.574 41.391 98.367 41.371"/><g class="k"><polyline class="d" points="0.429 47.007 41.002 23.134 98.504 56.336"/><line class="d" x1="41.087" y1="8.2959" x2="41.087" y2="23.1472"/></g><polyline class="d" points="98.574 41.391 98.56 56.779 57.932 80.237 0.365 46.998 0.365 31.73"/><g class="f"><path class="g" d="M25.2727,55.7817l32.22,18.6037a1.3039,1.3039,0,0,0,1.3041,0l6.8-3.9261a1.304,1.304,0,0,0,0-2.2585L33.3764,49.597a1.3042,1.3042,0,0,0-1.304,0l-6.8,3.9262A1.3039,1.3039,0,0,0,25.2727,55.7817Z"/><path class="g" d="M35.781,49.7142l32.22,18.6037a1.3037,1.3037,0,0,0,1.304,0l6.8-3.9261a1.304,1.304,0,0,0,0-2.2586L43.8848,43.53a1.3039,1.3039,0,0,0-1.3041,0l-6.8,3.9261A1.3041,1.3041,0,0,0,35.781,49.7142Z"/><path class="g" d="M27.5745,34.5743l8.0006,4.62a1.3039,1.3039,0,0,0,1.3041,0l10.1023-5.8331a1.3039,1.3039,0,0,0,0-2.2585l-8.0006-4.6195a1.3039,1.3039,0,0,0-1.3041,0l-10.1023,5.833A1.304,1.304,0,0,0,27.5745,34.5743Z"/><path class="g" d="M48.1909,42.202l32.52,18.7771a1.3037,1.3037,0,0,0,1.304,0l6.3994-3.695a1.3039,1.3039,0,0,0,0-2.2585l-32.52-18.7771a1.3039,1.3039,0,0,0-1.3041,0l-6.3993,3.695A1.3039,1.3039,0,0,0,48.1909,42.202Z"/><path class="g" d="M8.059,45.8425l11.1031,6.4109a1.3039,1.3039,0,0,0,1.3041,0l9.802-5.66a1.3039,1.3039,0,0,0,0-2.2585L19.1651,37.9243a1.3037,1.3037,0,0,0-1.304,0L8.059,43.584A1.3039,1.3039,0,0,0,8.059,45.8425Z"/><g class="k"><path class="e" d="M58.1451,74.1951a.9434.9434,0,0,1-.47-.126l-32.22-18.6035a.9385.9385,0,0,1,0-1.626l6.8-3.9258a.9368.9368,0,0,1,.9385,0l32.22,18.6035a.9384.9384,0,0,1,0,1.626l-6.8,3.9258A.9424.9424,0,0,1,58.1451,74.1951Z"/><path class="g" d="M32.7244,50.1527a.5743.5743,0,0,1,.2868.0768l32.22,18.6038a.5736.5736,0,0,1,0,.9935l-6.8,3.9261a.5733.5733,0,0,1-.5736,0l-32.22-18.6037a.5736.5736,0,0,1,0-.9935l6.8-3.9261a.5738.5738,0,0,1,.2868-.0769m0-.73a1.3032,1.3032,0,0,0-.6521.1747l-6.8,3.9262a1.304,1.304,0,0,0,0,2.2585l32.22,18.6037a1.3036,1.3036,0,0,0,1.3041,0l6.8-3.9261a1.3039,1.3039,0,0,0,0-2.2585L33.3764,49.597a1.3031,1.3031,0,0,0-.652-.1747Z"/><path class="e" d="M68.6529,68.1277a.9521.9521,0,0,1-.4707-.126L35.9634,49.3982a.9385.9385,0,0,1,0-1.626l6.8-3.9268a.9374.9374,0,0,1,.9385,0L75.9224,62.45a.9376.9376,0,0,1,0,1.625l-6.8,3.9268A.9433.9433,0,0,1,68.6529,68.1277Z"/><path class="g" d="M43.2327,44.0852a.5754.5754,0,0,1,.2869.0768l32.22,18.6037a.5737.5737,0,0,1,0,.9936l-6.8,3.926a.5733.5733,0,0,1-.5738,0l-32.22-18.6038a.5737.5737,0,0,1,0-.9935l6.8-3.9261a.5739.5739,0,0,1,.2867-.0768m0-.73a1.3031,1.3031,0,0,0-.652.1747l-6.8,3.9261a1.304,1.304,0,0,0,0,2.2586l32.22,18.6037a1.3036,1.3036,0,0,0,1.3041,0l6.8-3.9261a1.3041,1.3041,0,0,0,0-2.2586L43.8848,43.53a1.3035,1.3035,0,0,0-.6521-.1747Z"/><path class="e" d="M36.2271,39.0036a.9522.9522,0,0,1-.4707-.1259l-7.999-4.62a.9376.9376,0,0,1,0-1.625L37.8589,26.8a.9393.9393,0,0,1,.94,0l8,4.6192a.9385.9385,0,0,1,0,1.626l-10.1016,5.833A.943.943,0,0,1,36.2271,39.0036Z"/><path class="g" d="M38.3288,27.0383a.5744.5744,0,0,1,.2869.0769l8.0006,4.6195a.5738.5738,0,0,1,0,.9936L36.514,38.5613a.5733.5733,0,0,1-.5736,0l-8.0006-4.62a.5737.5737,0,0,1,0-.9936l10.1022-5.833a.5743.5743,0,0,1,.2868-.0769m0-.73a1.3042,1.3042,0,0,0-.6521.1747L27.5745,32.3157a1.3041,1.3041,0,0,0,0,2.2586l8.0006,4.62a1.3036,1.3036,0,0,0,1.3041,0l10.1023-5.833a1.304,1.304,0,0,0,0-2.2586l-8.0006-4.62a1.3039,1.3039,0,0,0-.652-.1747Z"/><path class="e" d="M81.3628,60.7888a.9516.9516,0,0,1-.4707-.126L48.3736,41.8855a.9385.9385,0,0,1,0-1.626l6.3994-3.6943a.9368.9368,0,0,1,.9385,0L88.232,55.3415a.9385.9385,0,0,1,0,1.626l-6.3994,3.6953A.9424.9424,0,0,1,81.3628,60.7888Z"/><path class="g" d="M55.2422,36.8041a.5742.5742,0,0,1,.2869.0769l32.52,18.7771a.5736.5736,0,0,1,0,.9935L81.65,60.3466a.5739.5739,0,0,1-.5736,0L48.5561,41.57a.5736.5736,0,0,1,0-.9935l6.3994-3.695a.574.574,0,0,1,.2867-.0769m0-.73a1.3013,1.3013,0,0,0-.6519.1748l-6.3995,3.695a1.304,1.304,0,0,0,0,2.2585l32.52,18.7771a1.3036,1.3036,0,0,0,1.3041,0l6.3993-3.695a1.304,1.304,0,0,0,0-2.2585l-32.52-18.7771a1.3023,1.3023,0,0,0-.6521-.1748Z"/><path class="e" d="M19.814,52.0632a.9516.9516,0,0,1-.4707-.126L8.2418,45.5261a.9384.9384,0,0,1,0-1.626l9.8017-5.6592a.9393.9393,0,0,1,.9395,0l11.1025,6.4112a.9376.9376,0,0,1,0,1.625l-9.8018,5.66A.9417.9417,0,0,1,19.814,52.0632Z"/><path class="g" d="M18.5131,38.48a.5743.5743,0,0,1,.2868.0768L29.903,44.9677a.5736.5736,0,0,1,0,.9935l-9.8021,5.66a.5739.5739,0,0,1-.5736,0L8.4242,45.21a.5736.5736,0,0,1,0-.9935l9.8021-5.66a.574.574,0,0,1,.2868-.0768m0-.73a1.3029,1.3029,0,0,0-.652.1747L8.059,43.584a1.304,1.304,0,0,0,0,2.2585l11.1031,6.4109a1.304,1.304,0,0,0,1.304,0l9.8021-5.66a1.3039,1.3039,0,0,0,0-2.2585l-11.103-6.4109a1.3035,1.3035,0,0,0-.6521-.1747Z"/></g></g><polygon class="d" points="98.56 41.482 57.932 64.94 0.365 31.701 40.993 8.243 98.56 41.482"/><line class="i" x1="57.916" y1="64.7392" x2="57.916" y2="80.0361"/><path class="i" d="M88.32.9893s-.8382,1.262-2.4374,0"/><polygon class="i" points="25.362 20.574 21.321 22.907 14.075 18.652 18.116 16.319 25.362 20.574"/><ellipse class="g" cx="18.2647" cy="18.6471" rx="1.0456" ry="0.6037"/><polygon class="i" points="84.94 55.193 80.899 57.526 73.653 53.272 77.694 50.938 84.94 55.193"/><ellipse class="g" cx="80.6601" cy="54.8767" rx="1.0456" ry="0.6037"/><polygon class="i" points="66.004 25.002 70.045 27.335 77.291 23.08 73.25 20.747 66.004 25.002"/><ellipse class="g" cx="73.1018" cy="23.0752" rx="1.0456" ry="0.6037"/><polygon class="i" points="22.529 50.362 26.57 52.696 33.816 48.441 29.775 46.108 22.529 50.362"/><ellipse class="g" cx="26.8084" cy="50.0461" rx="1.0456" ry="0.6037"/></svg>