<svg xmlns="http://www.w3.org/2000/svg" viewBox="0 0 145.8232 123.5479"><defs><style>.a{fill:none;}.a,.b{stroke:#fff;stroke-linecap:round;stroke-linejoin:round;stroke-width:0.7372px;}.b{fill:#d91519;}</style></defs><title>carpa</title><polygon class="a" points="1.541 120.443 0.369 112.466 136.778 1.994 137.95 9.972 1.541 120.443"/><polygon class="a" points="1.486 120.375 9.045 123.179 145.454 12.708 144.282 4.73 1.486 120.375"/><polyline class="a" points="145.455 12.708 138.271 9.851 137.039 2.072 144.338 4.799"/><ellipse class="b" cx="125.8442" cy="15.6825" rx="1.7177" ry="0.9917" transform="translate(66.11 127.5509) rotate(-69.0027)"/><path class="b" d="M136.9649,7.8044C135.835.6725,130.37-1.4249,124.7588,3.12s-9.2444,14.01-8.1144,21.1415,6.5947,9.2294,12.2061,4.685S138.0948,14.9362,136.9649,7.8044ZM125.4217,27.4573,123.97,26.3362l-1.9962.917-.6468-2.2624-1.7184-.4928.3062-2.8855-1.0469-1.79,1.1891-2.8477-.1355-2.6764,1.8-2.1572.8068-2.95,1.9979-.9728,1.5644-2.548,1.7384.4345,1.9636-1.562,1.0808,1.7424,1.9128-.2185.1754,2.6509,1.4241,1.1755-.77,2.9523.6089,2.3-1.5392,2.5773-.3457,2.8974-1.9556,1.6119-1.2211,2.8313-1.924.2771Z"/><path class="b" d="M136.0046,7.4542c-1.13-7.1319-6.5948-9.2293-12.2061-4.6849s-9.2444,14.01-8.1145,21.1416,6.5947,9.2293,12.2061,4.6849S137.1344,14.586,136.0046,7.4542ZM124.4613,27.1071,123.01,25.986l-1.9962.917-.6468-2.2623-1.7184-.4929.3063-2.8854-1.047-1.79,1.1891-2.8477-.1355-2.6764,1.8-2.1572.8068-2.95,1.9979-.9728L125.13,5.3206l1.7384.4344,1.9637-1.562,1.0807,1.7424,1.9128-.2185.1754,2.651,1.4241,1.1755-.77,2.9522.6089,2.3-1.5391,2.5773-.3458,2.8974-1.9555,1.6119-1.2211,2.8313-1.9241.2771Z"/><ellipse class="a" cx="95.8722" cy="39.9554" rx="1.7177" ry="0.9917" transform="translate(24.2166 115.1444) rotate(-69.0027)"/><ellipse class="a" cx="89.8778" cy="44.81" rx="1.7177" ry="0.9917" transform="translate(15.8379 112.6631) rotate(-69.0027)"/><ellipse class="a" cx="68.8973" cy="61.801" rx="1.7177" ry="0.9917" transform="translate(-13.4876 103.9786) rotate(-69.0027)"/><ellipse class="a" cx="62.9029" cy="66.6556" rx="1.7177" ry="0.9917" transform="translate(-21.8662 101.4973) rotate(-69.0027)"/><ellipse class="a" cx="41.9225" cy="83.6467" rx="1.7177" ry="0.9917" transform="matrix(0.3583, -0.9336, 0.9336, 0.3583, -51.1917, 92.8127)"/><ellipse class="a" cx="35.9281" cy="88.5013" rx="1.7177" ry="0.9917" transform="translate(-59.5704 90.3314) rotate(-69.0027)"/><polyline class="b" points="14.069 97.229 15.107 97.196 16.188 98.938 18.1 98.72 18.276 101.371 19.7 102.546 18.93 105.498 19.539 107.798 18 110.375 17.654 113.273 15.698 114.885 14.477 117.716 12.553 117.993 10.736 120.11 9.934 119.978"/><polygon class="b" points="18.714 102.442 17.944 105.395 18.552 107.695 17.013 110.272 16.668 113.169 14.712 114.781 13.491 117.612 11.567 117.89 9.75 120.006 8.298 118.885 6.302 119.802 5.655 117.54 3.937 117.047 4.243 114.161 3.196 112.372 4.385 109.524 4.25 106.848 6.049 104.691 6.856 101.74 8.854 100.768 10.419 98.22 12.157 98.654 14.121 97.092 15.201 98.834 17.114 98.616 17.29 101.267 18.714 102.442"/><ellipse class="b" cx="11.133" cy="108.5816" rx="1.7177" ry="0.9917" transform="matrix(0.3583, -0.9336, 0.9336, 0.3583, -94.2277, 80.0679)"/><path class="b" d="M10.7569,109.7885a2.6843,2.6843,0,0,1,.87-2.2678"/></svg>