<svg xmlns="http://www.w3.org/2000/svg" viewBox="0 0 107.3167 182.8413"><defs><style>.a{fill:#fff;}.a,.b,.c,.d{stroke:#fff;stroke-linecap:round;stroke-linejoin:round;stroke-width:0.7304px;}.b,.d{fill:#d91519;}.c{fill:none;}.d{opacity:0.5;}</style></defs><title>ecoladrillo</title><polyline class="a" points="0.365 156.361 0.365 157.479 41.57 182.476 82.774 157.479 82.774 156.361"/><polygon class="b" points="46.444 59.025 41.672 61.78 46.444 64.535 51.216 61.78 46.444 59.025"/><path class="b" d="M44.7446,66.3107v33.8379H44.81c0,.6859.79,1.2419,1.7649,1.2419s1.7647-.556,1.7647-1.2419h.0655V65.7019C48.405,65.3467,44.7446,65.1946,44.7446,66.3107Z"/><polygon class="b" points="51.283 68.272 46.447 71.065 46.447 64.616 51.283 61.823 51.283 68.272"/><polygon class="b" points="0.365 156.302 41.57 181.3 82.774 156.302 41.57 131.305 0.365 156.302"/><rect class="b" x="21.6543" y="17.2633" width="9.8891" height="147.6917"/><ellipse class="b" cx="26.5988" cy="17.2633" rx="4.9424" ry="3.0217"/><path class="b" d="M21.9526,35.61c.2077,1.3358,1.76,2.4149,3.7676,2.6622V21.931c-2.0078-.2473-3.56-1.3264-3.7676-2.6622Z"/><path class="b" d="M31.5434,164.27c0,1.6689-2.21,3.0217-4.936,3.0217s-4.9361-1.3528-4.9361-3.0217"/><line class="b" x1="25.6585" y1="33.8703" x2="21.9351" y2="36.1644"/><ellipse class="b" cx="29.5803" cy="27.0725" rx="2.9546" ry="1.6716" transform="translate(-6.9129 43.6907) rotate(-66.9489)"/><path class="c" d="M30.59,24.3926A4.6094,4.6094,0,0,1,28.6652,28.07a1.3768,1.3768,0,0,1-1,.2041"/><path class="b" d="M48.4049,61.6927a.6379.6379,0,0,0,.023-.2583l-.023-.0007V11.0977c0-.5239-3.66-1.02-3.66,1.3335V61.3265l-.01,0a.9088.9088,0,0,0,.01.3991v.1858h.0608a.9737.9737,0,0,0,.4162.479,2.9241,2.9241,0,0,0,2.641-.08,1.341,1.341,0,0,0,.44-.399h.1024Z"/><path class="c" d="M48.4049,27.9876a.9875.9875,0,0,1-.5872.7736,2.59,2.59,0,0,1-1.8168.2628V13.3463a2.2831,2.2831,0,0,1,2.404-1.9609"/><ellipse class="d" cx="47.3591" cy="20.5362" rx="1.0428" ry="0.59" transform="translate(9.9191 56.073) rotate(-66.9489)"/><path class="c" d="M25.799,26.6642a2.7769,2.7769,0,0,1-.5192.3942c-1.0629.6137-1.9246-.0377-1.9246-1.455a4.6766,4.6766,0,0,1,1.816-3.6105c.0359-.0235.0722-.0457.1086-.0668"/><path class="c" d="M25.6778,24.0417a3.7435,3.7435,0,0,1-1.3131,1.448,1.3761,1.3761,0,0,1-1,.2041"/><polygon class="b" points="105.845 6.449 96.328 8.827 94.629 2.813 104.146 0.436 105.845 6.449"/><path class="b" d="M93.7779,1.7016a2.6124,2.6124,0,0,0-1.51-.6067L92.2669,1.09l-.0149.004a1.7284,1.7284,0,0,0-.9448.2568l-1.3684.372.2846,1.1382a5.1991,5.1991,0,0,0-.2248.9738,8.5531,8.5531,0,0,0,2.128,6.6388l.3936,1.5748,2.3281-.6328a3.0019,3.0019,0,0,0,1.48-2.6973C96.48,6.1733,95.5259,3.05,93.7779,1.7016Z"/><ellipse class="b" cx="91.0035" cy="6.9038" rx="3.0066" ry="5.3145" transform="translate(1.4344 24.416) rotate(-15.401)"/><ellipse class="b" cx="105.0694" cy="3.3923" rx="1.7548" ry="3.1018" transform="matrix(0.9641, -0.2656, 0.2656, 0.9641, 2.8721, 28.0255)"/><path class="c" d="M25.6585,29.0334c-1.5484.894-2.7341-.45-2.7341-2.5148a7.0994,7.0994,0,0,1,1.9984-4.7355"/><path class="b" d="M44.7447,16.622,31.5433,20.285v7.3207L91.4139,10.9932c.7449-.1514,1.323-1.0078,1.49-2.25a6.9229,6.9229,0,0,0-1.4886-5.0727l-.0012.002L48.6663,15.5686l-.09.1634,17.4979-4.9331a.5051.5051,0,0,1,.4394.0824l.0391.0293a.499.499,0,0,1-.1639.8794L42.6377,18.4891a.5465.5465,0,0,1-.6922-.5785l.0029-.0288a.5.5,0,0,1,.3627-.4331l2.4335-.7036Zm23.6613-1.44a.853.853,0,0,1-.624.8216l-24.9452,6.95a.5572.5572,0,0,1-.7068-.5368v-.2958a1.2263,1.2263,0,0,1,.8972-1.1813l24.32-6.7758a.8347.8347,0,0,1,1.0587.8041Z"/><polygon class="b" points="41.61 68.272 46.446 71.065 46.446 64.616 41.61 61.823 41.61 68.272"/><path class="b" d="M43.7368,69.6931c1.2138.7008,2.1905-.03,2.1815-1.6333a5.7964,5.7964,0,0,0-2.2142-4.3018,1.5557,1.5557,0,0,0-.9957-.3032"/><polyline class="b" points="42.653 63.545 31.478 70.284 31.478 77.997 45.267 69.689"/><polyline class="b" points="53.978 112.349 54.544 111.969 53.629 110.993 53.288 111.279"/><path class="b" d="M51.0053,114.4705l.305-.122s1.8912-1.3421,2.6843-1.8912a1.4214,1.4214,0,0,0-.7931-1.22l-2.3792,1.5862a3.7534,3.7534,0,0,1-1.0329.7465l-.0042,1.6937,1.22-.7931"/><path class="b" d="M53.6285,110.9932l.9511-1.1286.89.89a.5989.5989,0,0,1,0,.6994,3.7647,3.7647,0,0,1-.3815.5086s-.2543.3179-.5087.0636S53.6285,110.9932,53.6285,110.9932Z"/><polygon class="b" points="52.713 110.444 53.323 111.237 53.69 110.932 52.713 110.444"/><polygon class="b" points="52.713 110.444 53.661 110.954 54.605 109.895 53.568 109.285 52.713 110.444"/><path class="b" d="M50.3342,107.0889l3.05,3.4163s.549-.061.549-.5491c-.305-.427-3.1112-3.4163-3.1112-3.4163Z"/><polyline class="b" points="50.135 105.381 51.127 106.19 50.121 107.333"/><line class="c" x1="53.2625" y1="110.7492" x2="53.5065" y2="111.0542"/><polyline class="b" points="50.121 113.952 50.944 113.372 51.005 114.471 50.151 115.081"/><path class="b" d="M49.5106,113.4944v2.5623l.6406-.4271v-1.4641A.68.68,0,0,0,49.5106,113.4944Z"/><polyline class="b" points="39.158 112.349 38.593 111.969 39.508 110.993 39.848 111.279"/><path class="b" d="M42.1311,114.4705l-.3051-.122s-1.8911-1.3421-2.6842-1.8912a1.4212,1.4212,0,0,1,.7931-1.22l2.3792,1.5862a3.7519,3.7519,0,0,0,1.0329.7465l.0042,1.6937-1.22-.7931"/><path class="b" d="M39.5078,110.9932l-.9511-1.1286-.89.89a.5989.5989,0,0,0,0,.6994,3.7533,3.7533,0,0,0,.3815.5086s.2543.3179.5086.0636S39.5078,110.9932,39.5078,110.9932Z"/><polygon class="b" points="40.423 110.444 39.813 111.237 39.447 110.932 40.423 110.444"/><polygon class="b" points="40.423 110.444 39.475 110.954 38.532 109.895 39.569 109.285 40.423 110.444"/><path class="b" d="M42.8021,107.0889l-3.05,3.4163s-.549-.061-.549-.5491c.305-.427,3.1113-3.4163,3.1113-3.4163Z"/><polyline class="b" points="43.002 105.381 42.009 106.19 43.016 107.333"/><line class="c" x1="39.8738" y1="110.7492" x2="39.6298" y2="111.0542"/><polyline class="b" points="43.016 113.952 42.192 113.372 42.131 114.471 42.985 115.081"/><path class="b" d="M43.6257,113.4944v2.5623l-.6406-.4271v-1.4641A.68.68,0,0,1,43.6257,113.4944Z"/><path class="b" d="M43.6541,108.248v9.15h.03c.2031.8563,1.4229,1.5147,2.8981,1.5147s2.695-.6584,2.898-1.5147h.03v-9.15Z"/><path class="b" d="M43.0441,95.3453v13.2382h.0365c.2453,1.0347,1.7193,1.83,3.5018,1.83s3.2564-.7955,3.5018-1.83h.0365V95.3453Z"/><path class="b" d="M43.1437,109.041a3.69,3.69,0,0,0-.488.7931l.427.244.0813-.183Z"/><path class="b" d="M44.12,117.9173v-2.3182a1.7989,1.7989,0,0,0-1.0371,1.4032,8.8041,8.8041,0,0,0,0,1.4641Z"/><path class="b" d="M44.4858,118.1614v-2.3182a1.7986,1.7986,0,0,0-1.0371,1.4031,8.8041,8.8041,0,0,0,0,1.4641Z"/><path class="b" d="M43.0827,118.4664a8.8041,8.8041,0,0,1,0-1.4641,1.7989,1.7989,0,0,1,1.0371-1.4032l.366.2441a1.7986,1.7986,0,0,0-1.0371,1.4031,8.8041,8.8041,0,0,0,0,1.4641Z"/><polygon class="b" points="39.483 120.998 43.998 118.68 43.998 117.155 39.483 119.473 39.483 120.998"/><polygon class="b" points="39.483 120.998 43.998 118.68 43.998 117.155 39.483 119.473 39.483 120.998"/><path class="b" d="M42.9949,119.1949a1.1656,1.1656,0,0,0-.2172-.881l1.1591-.61"/><path class="b" d="M44.8214,118.3444v-2.3182a1.7986,1.7986,0,0,0-1.0371,1.4031,8.8041,8.8041,0,0,0,0,1.4641Z"/><path class="b" d="M45.1874,118.5884V116.27a1.7986,1.7986,0,0,0-1.0371,1.4031,8.8056,8.8056,0,0,0,0,1.4642Z"/><path class="b" d="M43.7843,118.8934a8.8041,8.8041,0,0,1,0-1.4641,1.7986,1.7986,0,0,1,1.0371-1.4031l.366.244a1.7986,1.7986,0,0,0-1.0371,1.4031,8.8056,8.8056,0,0,0,0,1.4642Z"/><path class="b" d="M38.865,119.8521l-.6627.414s-.6711.9761.61,1.0981"/><path class="b" d="M38.8773,121.4161s-.6445-.2044-.4005-.6925.732-1.7082.732-1.7082l-.366-.183-.61,1.2811s-.3661.6711-.1831.9151c-.427-.183-.366-.732-.122-1.1591s.7931-1.7691.7931-1.7691l.9761.61"/><path class="b" d="M40.5751,118.9124l-1.0612,2.36a.4633.4633,0,0,1-.5491.183c-.366-.122-.183-.4881-.122-.6711s.8541-2.0742.8541-2.0742Z"/><polygon class="b" points="40.512 118.832 39.536 118.222 38.713 118.07 39.689 118.68 40.512 118.832"/><path class="b" d="M43.4216,110.6752l-3.45,7.8827a.6082.6082,0,0,1-.61-.305l3.4254-7.8793.4789.2536Z"/><polyline class="b" points="44.303 109.438 44.303 108.797 43.51 109.224 43.51 109.407"/><path class="b" d="M43.1437,108.98v.9507a2.8186,2.8186,0,0,1,.3521-.4931,1.27,1.27,0,0,0,.0139-.2135Z"/><path class="b" d="M44.3028,109.4071s.366.183.122.671-.366.7931-.366.7931l-.7931-.244S43.6318,109.2851,44.3028,109.4071Z"/><path class="b" d="M43.2657,108.919c-.61-.549-1.0371,1.1591-1.0371,1.1591l1.0371.5491c.244-.8541.7321-1.3421,1.0371-1.22l-.549-.183a1.7533,1.7533,0,0,0-.6711.854l-.427-.244s.366-.7931.549-.8541"/><polygon class="b" points="44.303 108.797 43.876 108.553 43.144 108.98 43.51 109.224 44.303 108.797"/><ellipse class="b" cx="44.6688" cy="118.1919" rx="0.3244" ry="0.1835" transform="matrix(0.3916, -0.9202, 0.9202, 0.3916, -81.5763, 113.016)"/><path class="b" d="M50.09,109.041a3.69,3.69,0,0,1,.488.7931l-.427.244-.0813-.183Z"/><path class="b" d="M49.1141,117.9173v-2.3182a1.7989,1.7989,0,0,1,1.0371,1.4032,8.8041,8.8041,0,0,1,0,1.4641Z"/><path class="b" d="M48.7481,118.1614v-2.3182a1.7986,1.7986,0,0,1,1.0371,1.4031,8.8041,8.8041,0,0,1,0,1.4641Z"/><path class="b" d="M50.1512,118.4664a8.8041,8.8041,0,0,0,0-1.4641,1.7989,1.7989,0,0,0-1.0371-1.4032l-.366.2441a1.7986,1.7986,0,0,1,1.0371,1.4031,8.8041,8.8041,0,0,1,0,1.4641Z"/><polygon class="b" points="53.751 120.998 49.236 118.68 49.236 117.155 53.751 119.473 53.751 120.998"/><path class="b" d="M50.239,119.1949a1.1656,1.1656,0,0,1,.2172-.881l-1.1591-.61"/><path class="b" d="M48.4125,118.3444v-2.3182a1.7986,1.7986,0,0,1,1.0371,1.4031,8.8041,8.8041,0,0,1,0,1.4641Z"/><path class="b" d="M48.0465,118.5884V116.27a1.7986,1.7986,0,0,1,1.0371,1.4031,8.8056,8.8056,0,0,1,0,1.4642Z"/><path class="b" d="M49.45,118.8934a8.8041,8.8041,0,0,0,0-1.4641,1.7986,1.7986,0,0,0-1.0371-1.4031l-.366.244a1.7986,1.7986,0,0,1,1.0371,1.4031,8.8056,8.8056,0,0,1,0,1.4642Z"/><path class="b" d="M54.3689,119.8521l.6627.414s.6711.9761-.61,1.0981"/><path class="b" d="M54.3566,121.4161s.6445-.2044.4005-.6925-.732-1.7082-.732-1.7082l.366-.183.61,1.2811s.3661.6711.1831.9151c.427-.183.366-.732.122-1.1591s-.7931-1.7691-.7931-1.7691l-.9761.61"/><path class="b" d="M52.6588,118.9124l1.0612,2.36a.4633.4633,0,0,0,.5491.183c.366-.122.183-.4881.122-.6711s-.8541-2.0742-.8541-2.0742Z"/><polygon class="b" points="52.683 118.893 53.659 118.283 54.483 118.131 53.507 118.741 52.683 118.893"/><path class="b" d="M49.8123,110.6752l3.45,7.8827a.6082.6082,0,0,0,.61-.305l-3.4254-7.8793-.4789.2536Z"/><polyline class="b" points="48.931 109.438 48.931 108.797 49.724 109.224 49.724 109.407"/><path class="b" d="M50.09,108.98v.9507a2.8186,2.8186,0,0,0-.3521-.4931,1.27,1.27,0,0,1-.0139-.2135Z"/><path class="b" d="M48.9311,109.4071s-.366.183-.122.671.366.7931.366.7931l.7931-.244S49.6022,109.2851,48.9311,109.4071Z"/><path class="b" d="M49.9682,108.919c.61-.549,1.0371,1.1591,1.0371,1.1591l-1.0371.5491c-.244-.8541-.7321-1.3421-1.0371-1.22l.549-.183a1.7533,1.7533,0,0,1,.6711.854l.427-.244s-.366-.7931-.549-.8541"/><polygon class="b" points="48.931 108.797 49.358 108.553 50.09 108.98 49.724 109.224 48.931 108.797"/><ellipse class="b" cx="48.5651" cy="118.1919" rx="0.1835" ry="0.3244" transform="translate(-42.4006 28.4526) rotate(-23.0511)"/><ellipse class="b" cx="46.5824" cy="95.3453" rx="3.5383" ry="2.1352"/><ellipse class="b" cx="46.5824" cy="95.2047" rx="2.8361" ry="1.7115"/><path class="b" d="M49.2229,95.0981v-1.36H47.6306a4.2781,4.2781,0,0,0-2.0964,0H43.9418v1.36a.9951.9951,0,0,0-.0065.1066c0,.8822,1.1851,1.5974,2.6471,1.5974s2.647-.7152,2.647-1.5974A.97.97,0,0,0,49.2229,95.0981Z"/><ellipse class="b" cx="46.5824" cy="93.7704" rx="2.6471" ry="1.5974"/><ellipse class="b" cx="46.5824" cy="93.7704" rx="1.6867" ry="1.0178"/></svg>