<svg xmlns="http://www.w3.org/2000/svg" viewBox="0 0 177.5648 100.0499"><defs><style>.a{fill:none;}.a,.b{stroke:#fff;stroke-linecap:round;stroke-linejoin:round;stroke-width:0.6715px;}.b{fill:#d91519;}</style></defs><title>estufa</title><path class="a" d="M77.3605,94.9377,3.7125,50.431a6.9934,6.9934,0,0,1,.814-12.3925L89.3658.9221a6.9935,6.9935,0,0,1,6.33.368l78.0663,45.59a6.9935,6.9935,0,0,1-.9088,12.524L83.5956,95.4372A6.9935,6.9935,0,0,1,77.3605,94.9377Z"/><path class="a" d="M174.0528,58.7856h0a9.1005,9.1005,0,0,1-5.3845,6.0867L83.6216,99.2056a6.993,6.993,0,0,1-6.235-.4995L7.9805,56.7629A12.4883,12.4883,0,0,1,2.409,49.4247h0"/><ellipse class="a" cx="91.9458" cy="67.1724" rx="20.3173" ry="10.1586" transform="translate(-0.4628 0.6381) rotate(-0.3966)"/><path class="a" d="M112.1847,67.6058c.0465,6.7176-8.8563,11.0394-20.077,11.1171s-20.3516-4.8989-20.39-10.5093"/><ellipse class="a" cx="92.3549" cy="67.0877" rx="17.4499" ry="8.4382" transform="translate(-0.4622 0.6409) rotate(-0.3966)"/><ellipse class="a" cx="92.0955" cy="65.1232" rx="7.619" ry="3.7685" transform="translate(-0.4486 0.6391) rotate(-0.3966)"/><path class="a" d="M99.7143,65.07c.0238,3.4407-3.2951,4.9384-7.5028,4.9675s-8.0409-1.7467-7.7314-4.37"/><ellipse class="a" cx="92.1774" cy="65.1227" rx="4.1781" ry="2.0481" transform="translate(-0.4486 0.6396) rotate(-0.3966)"/><polygon class="b" points="92.191 67.089 90.338 66.971 88.488 76.618 90.456 76.768 92.191 67.089"/><polygon class="b" points="90.631 78.405 88.5 78.256 88.488 76.618 90.456 76.768 90.631 78.405"/><polygon class="b" points="92.192 67.253 92.201 68.563 90.63 78.242 90.618 76.603 92.192 67.253"/><polygon class="b" points="95.509 49.37 93.656 49.252 91.807 58.899 93.774 59.049 95.509 49.37"/><polygon class="b" points="93.949 60.686 91.818 60.537 91.807 58.899 93.774 59.049 93.949 60.686"/><polygon class="b" points="95.51 49.534 95.519 50.844 93.948 60.523 93.937 58.884 95.51 49.534"/><polygon class="b" points="84.289 61.736 83.805 62.887 63.648 62.371 64.623 61.217 84.289 61.736"/><polygon class="b" points="83.805 62.887 83.815 64.197 63.657 63.682 63.648 62.371 83.805 62.887"/><polygon class="b" points="84.289 61.736 84.298 63.047 83.815 64.197 83.805 62.887 84.289 61.736"/><polygon class="b" points="74.57 66.146 72.603 65.995 72.588 63.866 74.556 64.016 74.57 66.146"/><polygon class="b" points="100.441 61.649 100.887 62.814 121.051 62.936 120.113 61.752 100.441 61.649"/><polygon class="b" points="100.887 62.814 100.837 64.123 121.001 64.246 121.051 62.936 100.887 62.814"/><polygon class="b" points="100.441 61.649 100.39 62.958 100.837 64.123 100.887 62.814 100.441 61.649"/><polygon class="b" points="110.015 66.363 111.986 66.275 112.068 64.147 110.097 64.235 110.015 66.363"/><ellipse class="a" cx="91.6612" cy="26.0473" rx="20.3173" ry="10.1586" transform="translate(-0.1781 0.6351) rotate(-0.3966)"/><path class="a" d="M111.9,26.4807c.0465,6.7177-8.8563,11.04-20.077,11.1171s-20.3516-4.8989-20.39-10.5093"/><ellipse class="a" cx="92.0702" cy="25.9626" rx="17.4499" ry="8.4382" transform="translate(-0.1775 0.638) rotate(-0.3966)"/><ellipse class="a" cx="91.8108" cy="23.9981" rx="7.619" ry="3.7685" transform="translate(-0.1639 0.6361) rotate(-0.3966)"/><path class="a" d="M99.43,23.9454c.0238,3.4407-3.2951,4.9384-7.5028,4.9675s-8.0409-1.7467-7.7314-4.37"/><ellipse class="a" cx="91.8927" cy="23.9976" rx="4.1781" ry="2.0481" transform="translate(-0.1639 0.6367) rotate(-0.3966)"/><polygon class="b" points="91.867 25.991 90.019 25.874 88.174 35.493 90.136 35.643 91.867 25.991"/><polygon class="b" points="90.346 37.28 88.215 37.131 88.204 35.493 90.171 35.643 90.346 37.28"/><polygon class="b" points="91.907 26.128 91.917 27.438 90.345 37.117 90.334 35.478 91.907 26.128"/><polygon class="b" points="95.225 8.245 93.371 8.127 91.522 17.774 93.489 17.924 95.225 8.245"/><polygon class="b" points="93.664 19.561 91.533 19.412 91.522 17.774 93.489 17.924 93.664 19.561"/><polygon class="b" points="95.226 8.408 95.235 9.719 93.663 19.397 93.652 17.759 95.226 8.408"/><polygon class="b" points="84.004 20.611 83.521 21.762 63.363 21.246 64.338 20.092 84.004 20.611"/><polygon class="b" points="83.505 21.801 83.514 23.108 63.413 22.593 63.404 21.286 83.505 21.801"/><polygon class="b" points="84.004 20.611 84.013 21.922 83.53 23.072 83.521 21.762 84.004 20.611"/><polygon class="b" points="74.286 25.021 72.318 24.87 72.304 22.74 74.271 22.891 74.286 25.021"/><polygon class="b" points="100.156 20.523 100.603 21.688 120.767 21.811 119.828 20.627 100.156 20.523"/><polygon class="b" points="100.603 21.688 100.552 22.998 120.716 23.121 120.767 21.811 100.603 21.688"/><polygon class="b" points="100.156 20.523 100.105 21.833 100.552 22.998 100.603 21.688 100.156 20.523"/><polygon class="b" points="109.73 25.238 111.701 25.15 111.783 23.022 109.812 23.11 109.73 25.238"/><ellipse class="a" cx="51.6348" cy="43.0374" rx="20.3173" ry="10.1586" transform="translate(-0.2967 0.3585) rotate(-0.3966)"/><path class="a" d="M71.8736,43.4708C71.92,50.1884,63.0174,54.51,51.7967,54.5879S31.445,49.6889,31.4062,44.0786"/><ellipse class="a" cx="52.0439" cy="42.9526" rx="17.4499" ry="8.4382" transform="translate(-0.2961 0.3613) rotate(-0.3966)"/><ellipse class="a" cx="51.7845" cy="40.9882" rx="7.619" ry="3.7685" transform="translate(-0.2825 0.3594) rotate(-0.3966)"/><path class="a" d="M59.4033,40.9355c.0238,3.4407-3.2951,4.9384-7.5029,4.9675s-8.0408-1.7467-7.7313-4.37"/><ellipse class="a" cx="51.8664" cy="40.9876" rx="4.1781" ry="2.0481" transform="translate(-0.2825 0.36) rotate(-0.3966)"/><polygon class="b" points="51.88 42.954 50.027 42.836 48.177 52.483 50.145 52.633 51.88 42.954"/><polygon class="b" points="50.32 54.27 48.189 54.121 48.177 52.483 50.145 52.633 50.32 54.27"/><polygon class="b" points="51.881 43.118 51.89 44.428 50.319 54.107 50.307 52.468 51.881 43.118"/><polygon class="b" points="55.198 25.235 53.345 25.117 51.496 34.764 53.463 34.914 55.198 25.235"/><polygon class="b" points="53.638 36.551 51.507 36.402 51.496 34.764 53.463 34.914 53.638 36.551"/><polygon class="b" points="55.199 25.399 55.208 26.709 53.637 36.387 53.626 34.749 55.199 25.399"/><polygon class="b" points="43.978 37.601 43.494 38.752 23.337 38.236 24.312 37.082 43.978 37.601"/><polygon class="b" points="43.494 38.752 43.504 40.062 23.346 39.547 23.337 38.236 43.494 38.752"/><polygon class="b" points="43.978 37.601 43.987 38.912 43.504 40.062 43.494 38.752 43.978 37.601"/><polygon class="b" points="34.259 42.011 32.292 41.86 32.277 39.73 34.245 39.881 34.259 42.011"/><polygon class="b" points="60.13 37.513 60.576 38.679 80.74 38.801 79.802 37.617 60.13 37.513"/><polygon class="b" points="60.576 38.679 60.526 39.988 80.69 40.111 80.74 38.801 60.576 38.679"/><polygon class="b" points="60.13 37.513 60.079 38.823 60.526 39.988 60.576 38.679 60.13 37.513"/><polygon class="b" points="69.704 42.228 71.675 42.14 71.757 40.012 69.786 40.1 69.704 42.228"/><ellipse class="a" cx="131.3066" cy="48.7123" rx="20.3173" ry="10.1586" transform="translate(-0.3341 0.9101) rotate(-0.3966)"/><path class="a" d="M151.5454,49.1457c.0465,6.7176-8.8563,11.0394-20.0769,11.1171s-20.3517-4.899-20.3905-10.5093"/><ellipse class="a" cx="131.7156" cy="48.6275" rx="17.4499" ry="8.4382" transform="translate(-0.3335 0.9129) rotate(-0.3966)"/><ellipse class="a" cx="131.4562" cy="46.6631" rx="7.619" ry="3.7685" transform="translate(-0.3199 0.9111) rotate(-0.3966)"/><path class="a" d="M139.075,46.61c.0239,3.4408-3.2951,4.9384-7.5028,4.9676s-8.0409-1.7468-7.7313-4.37"/><ellipse class="a" cx="131.5382" cy="46.6625" rx="4.1781" ry="2.0481" transform="translate(-0.3199 0.9117) rotate(-0.3966)"/><polygon class="b" points="131.552 48.629 129.699 48.511 127.849 58.158 129.816 58.308 131.552 48.629"/><polygon class="b" points="129.992 59.945 127.86 59.796 127.849 58.158 129.816 58.308 129.992 59.945"/><polygon class="b" points="131.553 48.793 131.562 50.103 129.99 59.781 129.979 58.143 131.553 48.793"/><polygon class="b" points="134.87 30.91 133.017 30.792 131.167 40.439 133.135 40.589 134.87 30.91"/><polygon class="b" points="133.31 42.226 131.179 42.077 131.167 40.439 133.135 40.589 133.31 42.226"/><polygon class="b" points="134.871 31.073 134.88 32.384 133.309 42.062 133.297 40.424 134.871 31.073"/><polygon class="b" points="123.65 43.276 123.166 44.427 103.009 43.911 103.984 42.757 123.65 43.276"/><polygon class="b" points="123.166 44.427 123.175 45.737 103.018 45.221 103.009 43.911 123.166 44.427"/><polygon class="b" points="123.65 43.276 123.659 44.587 123.175 45.737 123.166 44.427 123.65 43.276"/><polygon class="b" points="113.931 47.686 111.964 47.535 111.949 45.405 113.916 45.556 113.931 47.686"/><polygon class="b" points="139.801 43.188 140.248 44.353 160.412 44.476 159.474 43.292 139.801 43.188"/><polygon class="b" points="140.248 44.353 140.198 45.663 160.361 45.786 160.412 44.476 140.248 44.353"/><polygon class="b" points="139.801 43.188 139.751 44.498 140.198 45.663 140.248 44.353 139.801 43.188"/><polygon class="b" points="149.376 47.903 151.347 47.815 151.429 45.687 149.458 45.775 149.376 47.903"/><path class="a" d="M18.8446,52.0305,18.806,46.46l1.96-.8329,1.1492.32a29.9163,29.9163,0,0,0,2.808,3.2576c.8238.65,3.1267,1.9446.8431,3.4351S19.3407,52.6825,18.8446,52.0305Z"/><path class="a" d="M18.8446,52.0305l.0068.9831c.0027.3885.661.8147.8331.9067a6.2181,6.2181,0,0,0,4.613.82c2.1-.4683,2.4775-1.8223,2.2618-3.35l-.01-.0682"/><polyline class="a" points="18.806 46.46 19.955 46.78 21.916 45.947"/><path class="a" d="M19.9552,46.78s.8419,3.2713,1.5018,3.9221a3.6076,3.6076,0,0,1,.8374,2.6158"/><path class="a" d="M47.8049,69.69l-.0385-5.5707,1.96-.8329,1.1492.32a29.9085,29.9085,0,0,0,2.8081,3.2576c.8237.65,3.1266,1.9446.843,3.4351S48.301,70.342,47.8049,69.69Z"/><path class="a" d="M47.8049,69.69l.0068.9831c.0027.3885.6611.8146.8332.9067a6.2183,6.2183,0,0,0,4.6129.82c2.1-.4684,2.4775-1.8223,2.2618-3.3505l-.01-.0683"/><polyline class="a" points="47.766 64.119 48.916 64.439 50.876 63.606"/><path class="a" d="M48.9156,64.439s.8419,3.2712,1.5018,3.9221a3.6073,3.6073,0,0,1,.8373,2.6158"/><path class="a" d="M62.4484,78.4367,62.41,72.8659l1.9605-.8328,1.1492.32a29.9163,29.9163,0,0,0,2.808,3.2576c.8238.65,3.1267,1.9446.8431,3.435S62.9444,79.0886,62.4484,78.4367Z"/><path class="a" d="M62.4484,78.4367l.0068.983c.0027.3886.661.8147.8331.9068a6.2183,6.2183,0,0,0,4.6129.82c2.1-.4684,2.4775-1.8224,2.2619-3.35l-.01-.0683"/><polyline class="a" points="62.41 72.866 63.559 73.186 65.519 72.353"/><path class="a" d="M63.559,73.1857s.8419,3.2712,1.5018,3.9221a3.6076,3.6076,0,0,1,.8374,2.6158"/><path class="a" d="M33.4892,60.941,33.4506,55.37l1.96-.8328,1.1492.32a29.9049,29.9049,0,0,0,2.808,3.2576c.8238.65,3.1267,1.9446.8431,3.4351S33.9852,61.593,33.4892,60.941Z"/><path class="a" d="M33.4892,60.941l.0068.9831c.0027.3886.661.8147.8331.9067a6.2177,6.2177,0,0,0,4.6129.82c2.1-.4684,2.4775-1.8224,2.2619-3.3506l-.01-.0682"/><polyline class="a" points="33.451 55.37 34.6 55.69 36.56 54.857"/><path class="a" d="M34.6,55.69s.8419,3.2712,1.5018,3.922a3.6078,3.6078,0,0,1,.8374,2.6159"/></svg>