<svg xmlns="http://www.w3.org/2000/svg" viewBox="0 0 185.8976 52.9758"><defs><style>.a,.d,.e,.f,.h{fill:none;}.a,.b,.d,.e,.f{stroke:#fff;stroke-width:0.5529px;}.a,.b,.d,.h{stroke-miterlimit:10;}.b,.i{fill:#d91519;}.c{opacity:0.3;}.d{stroke-linecap:square;}.e,.f{stroke-linecap:round;stroke-linejoin:round;}.f{opacity:0.5;}.g{fill:#fff;}.h{stroke:#d91519;stroke-width:0.3686px;}</style></defs><title>fugas_liquidos</title><line class="a" x1="180.5532" y1="51.7329" y2="51.7329"/><line class="a" x1="5.3444" y1="32.3857" x2="185.8976" y2="32.3857"/><rect class="b" x="120.9868" y="18.5545" width="6.7653" height="8.6983"/><rect class="b" x="121.9532" y="27.2528" width="4.8324" height="3.8659"/><rect class="b" x="126.3024" y="20.0042" width="4.8324" height="1.9329" transform="translate(149.6893 -107.7478) rotate(90)"/><rect class="b" x="17.201" y="31.4192" width="8.0024" height="21.2802" transform="translate(42.4043 84.1186) rotate(-180)"/><rect class="b" x="49.4009" y="31.4369" width="21.2624" height="21.2624" transform="translate(120.0642 84.1363) rotate(-180)"/><rect class="b" x="83.2142" y="31.4369" width="21.2624" height="21.2624" transform="translate(187.6909 84.1363) rotate(-180)"/><rect class="b" x="117.1209" y="31.1187" width="14.4971" height="21.5807" transform="translate(248.7389 83.8181) rotate(-180)"/><rect class="b" x="155.3726" y="31.1187" width="8.0011" height="21.5807" transform="translate(318.7463 83.8181) rotate(-180)"/><rect class="b" x="55.683" y="28.5198" width="8.6983" height="2.8994"/><rect class="b" x="89.0207" y="28.5198" width="9.6647" height="2.8994"/><rect class="b" x="86.1213" y="18.855" width="15.4636" height="9.6647" rx="1.7057"/><rect class="b" x="101.5849" y="20.788" width="5.7988" height="5.7988"/><rect class="b" x="58.0992" y="26.5868" width="3.8659" height="1.9329"/><circle class="b" cx="59.9688" cy="20.115" r="6.7653"/><rect class="b" x="135.8233" y="0.2764" width="49.2051" height="24.3261" rx="1.8736"/><g class="c"><rect class="d" x="137.7584" y="2.1193" width="45.3351" height="20.6404" rx="1.3131"/><path class="e" d="M137.8505,17.9067c2.9172-4.3615,5.7633-9.89,13.0208-3.9929s8.5382,1.8429,12.95-.3686,9.0363,3.1329,9.0363,3.1329"/><path class="f" d="M137.8505,14.59c3.9293-5.7436,4.8163-5.3751,12.0737.5222s11.6074-7.003,19.2894-5.8973c4.1085.5914,3.6436,4.1465,3.6436,4.1465"/><path class="g" d="M172.589,2.0272H181.78A1.3131,1.3131,0,0,1,183.0934,3.34V21.3545a1.3131,1.3131,0,0,1-1.3131,1.3131H172.589a0,0,0,0,1,0,0V2.0272A0,0,0,0,1,172.589,2.0272Z"/><rect class="h" x="174.7083" y="4.8837" width="2.7643" height="2.7643" rx="0.7372"/><rect class="i" x="174.7083" y="9.6752" width="2.7643" height="2.7643" rx="0.7372"/><rect class="i" x="174.7083" y="14.651" width="2.7643" height="2.7643" rx="0.7372"/><line class="h" x1="178.7626" y1="5.6208" x2="181.1584" y2="5.6208"/><line class="h" x1="178.7626" y1="6.5423" x2="181.1584" y2="6.5423"/><line class="h" x1="178.7626" y1="10.4123" x2="181.1584" y2="10.4123"/><line class="h" x1="178.7626" y1="11.3338" x2="181.1584" y2="11.3338"/><line class="h" x1="178.7626" y1="15.5724" x2="181.1584" y2="15.5724"/><line class="h" x1="178.7626" y1="16.4939" x2="181.1584" y2="16.4939"/></g></svg>