<svg xmlns="http://www.w3.org/2000/svg" xmlns:xlink="http://www.w3.org/1999/xlink" viewBox="0 0 190.452 179.3718"><defs><style>.a,.g{fill:none;}.b{fill:#d91519;}.c{opacity:0.5;}.d{clip-path:url(#a);}.e,.f{fill:#fff;}.f{opacity:0.55;}.g{stroke:#fff;stroke-linecap:round;stroke-linejoin:round;stroke-width:0.8914px;}</style><clipPath id="a" transform="translate(14.2896 37.1754)"><path class="a" d="M7.8419,29.9478l72.0374,17.868,27.4574,39.0169a4.1359,4.1359,0,0,0,5.4278,1.2144L151.29,66.1246a1.675,1.675,0,0,0-.4189-3.0845L81.6285,46.7226l-28.055-40.14a3.9424,3.9424,0,0,0-5.0824-1.195L7.6877,28.8479A.5986.5986,0,0,0,7.8419,29.9478Z"/></clipPath></defs><title>llantas</title><path class="b" d="M1.5934,31.9108l77.5214,15.75a1.7659,1.7659,0,0,1,1.1645.8251L104.517,89.07a7.08,7.08,0,0,0,9.6036,2.5094l45.84-26.3224a1.7659,1.7659,0,0,0-.5392-3.2643l-77.03-15.12a1.7657,1.7657,0,0,1-1.1674-.8132L55.4443,3.8041A5.7084,5.7084,0,0,0,47.7264,1.828L1.0649,28.6492A1.7659,1.7659,0,0,0,1.5934,31.9108Z" transform="translate(14.2896 37.1754)"/><g class="c"><g class="d"><path class="e" d="M4.467,56.2C4.4334,54.47-.0567,42.4431-1.6013,40.5836-2.834,39.1-6.5283,38.2926-9.769,38.0871l-.2457.3521-.2137.3064L-13.4479,43.36l-.3578.5129-.4839.6936c.7906,3.19,1.9658,7.2508,3.234,11.0479l1.247.87,1.35.942,3.6989,2.5806L-.4558,63.01C2.1121,60.3292,4.4872,57.2382,4.467,56.2Z" transform="translate(14.2896 37.1754)"/><path class="e" d="M16.942,38.9577c1.2131-1.1457-5.946-16.3853-7.7493-17.3588-1.0181-.55-4.6008-.2581-7.7444.41l-.5794.8306L.3311,23.61-3.74,29.445l-.6457.9255-.7167,1.0273a7.8652,7.8652,0,0,0,1.9529,4.9261C-.3688,39.2051,15.7289,40.1034,16.942,38.9577Z" transform="translate(14.2896 37.1754)"/><path class="e" d="M2.9061,43.1834C2.9489,45.388,7.26,55.3274,11.0223,58.237S31.07,65.678,32.55,64.15c.543-.5608,3.7391-5.36,2.47-7.0987-3.7746-5.1726-12.717-12.5719-14.1266-13.5553C18.6669,41.9423,2.85,40.2985,2.9061,43.1834Z" transform="translate(14.2896 37.1754)"/><path class="e" d="M15.9753,23.917c-2.3306.0292,4.41,15.0289,6.2354,17.1565S33.8327,52.8813,36.46,53.86c1.538.5731,7.09-2.4527,8.1583-3.984.6677-.9571,1.2457-6.53.3884-8.2664C43.9868,39.5446,25.9928,23.7915,15.9753,23.917Z" transform="translate(14.2896 37.1754)"/><path class="e" d="M21.8134,64.574c-5.493-1.2475-13.2353-3.0614-15.16-3.1778-1.2947-.0783-2.8638,1.4829-4.2385,3.616l.5349.3733.6245.4356L9.531,69.9772l2.9024,2.0249,2.7253,1.9014c6.2418-2.4358,12.1485-5.343,12.7548-6.212C29.3824,65.586,26.5155,65.6419,21.8134,64.574Z" transform="translate(14.2896 37.1754)"/><path class="e" d="M48.5207,89.6166c.0776-3.0763-10.9883-20.5753-14.2723-21.0559-4.13-.6045-13.8062,7.6793-14.3215,8.6666l-.001.0021.6953.4851.6732.47,7.5446,5.2636,10.4887,7.3177,5.4548,3.8056C46.8605,92.8809,48.4865,90.9736,48.5207,89.6166Z" transform="translate(14.2896 37.1754)"/><path class="e" d="M62.9806,52.6735C59.8991,53.16,60.38,67.3941,61.449,72.978c.8128,4.2441,3.3669,3.6071,9.0054,4.2907,8.3927,1.0174,14.1209,1.7715,14.1471.4788.0682-3.3608-8.7077-21.185-11.8754-23.0224C71.3225,53.9109,67.0148,52.037,62.9806,52.6735Z" transform="translate(14.2896 37.1754)"/><path class="e" d="M37.3672,61.3063c-1.3242,2.4911.9582,6.9292,3.3405,9.445,1.897,2.0033,8.3126,4.512,15.6171,5.4885,4.5413.6071.5844-20.287-1.2287-21.3071a14.4529,14.4529,0,0,0-7.0445-1.8242C45.7542,53.0932,38.6915,58.8152,37.3672,61.3063Z" transform="translate(14.2896 37.1754)"/><path class="e" d="M45.7552,76.8218c-.6565,1.5341,5.7015,13.55,7.56,14.6653,2.9164,1.75,9.2724,3.9079,11.4651,3.73S62.33,82.1244,60.2367,80.38,46.4117,75.2878,45.7552,76.8218Z" transform="translate(14.2896 37.1754)"/><path class="e" d="M92.779,88.2239c.89-1.4487-3.0561-5.1385-4.23-5.7972C86.4669,81.259,69.23,79.8093,66.6764,79.9734s.0361,12.1769,2.7625,15.0179c2.8248,2.9436,11.3168,6.704,14.8429,6.8942C86.6205,102.0117,89.7187,93.2034,92.779,88.2239Z" transform="translate(14.2896 37.1754)"/><path class="e" d="M60.2838,96.802c-.3994-.7572-7.1668-3.7266-8.7158-3.5194-1.1236.15-3.1992,2.1133-3.9993,3.2322l.5548.3871.6473.4516,4.0878,2.8519,2.971,2.0728L57.15,103.2C58.8645,100.988,60.7793,97.7412,60.2838,96.802Z" transform="translate(14.2896 37.1754)"/><path class="e" d="M93.12,120.2935c.5006-2.4966-5.3829-11.34-7.8268-14.2825-1.1243-1.3536-16.352-7.9933-19.6354-7.4382-1.8363.31-4.3862,3.2955-6.0317,6.3542l.7884.55.9114.6358,14.0768,9.821,8.2,5.7209,4.9006,3.419C91.0062,123.2207,92.919,121.2969,93.12,120.2935Z" transform="translate(14.2896 37.1754)"/><path class="e" d="M18.3955,20.8484c1.892-1.5258,2.2608-13.288-.4473-15.964-.6787-.6707-1.6372-1.5552-2.772-2.5524l-.7446,1.0672-1.6088,2.306L7.7286,13.007,5.4361,16.2929l-1.21,1.7337C6.76,19.3046,16.6245,22.2766,18.3955,20.8484Z" transform="translate(14.2896 37.1754)"/><path class="e" d="M22.2744,21.0347c2.0319,2.5385,10.1857,8.5291,12.1,8.1573s1.835-11.5259,1.1113-13.4538-9.9147-8.664-11.2653-7.5747C22.3285,9.6892,20.7269,19.1013,22.2744,21.0347Z" transform="translate(14.2896 37.1754)"/><path class="e" d="M37.8343,29.984c.3379,2.085,5.9114,7.5391,7.5812,8.7041s11.3427,4.4985,14.07,3.5551c2.439-.8437,8.0419-3.2,7.1674-5.529C65.784,34.4008,52.9592,17.2005,49.92,16.2188s-9.0268,1.67-10.24,2.8163C38.2148,20.42,37.3664,27.0963,37.8343,29.984Z" transform="translate(14.2896 37.1754)"/><path class="e" d="M50.4222,43.2751c-1.5026.3746-1.8471,3.8337-1.9471,5.756-.084,1.6163,8.6047,4.8649,9.9737,4.6817s1.2458-6.53.4-7.6894C58.3478,45.3373,51.9248,42.9005,50.4222,43.2751Z" transform="translate(14.2896 37.1754)"/><path class="e" d="M75.2414,50.8081c1.7809-.18,1.6352-7.6812-.87-9.4286-2.0259-1.4135-10.4181.7-12.0207,2.9968-1.0683,1.5313.212,3.8474,2.1489,4.63S72.3377,51.1023,75.2414,50.8081Z" transform="translate(14.2896 37.1754)"/><path class="e" d="M70.3644,19.4907c-2.36-1.3618-12.2551-2.0046-13.19-.6647S68.6954,35.97,70.99,37.5713c1.9481,1.3591,10.4519,1.0311,10.83-.697S72.7243,20.8526,70.3644,19.4907Z" transform="translate(14.2896 37.1754)"/><path class="e" d="M104.9052,59.3333c.7564-3.4563-8.94-15.059-12.1235-16.4264S80.9273,40.328,79.7142,41.4737s-1.61,13.6514-1.3447,15.5676c.479,3.4646,6.78,9.8526,9.4068,10.8316S104.1488,62.79,104.9052,59.3333Z" transform="translate(14.2896 37.1754)"/><path class="e" d="M100.548,68.1815c-3.1724-.79-10.6517,2.8135-11.9984,4.1507s2.1341,8.2133,3.4965,10.4076c1.5586,2.51,21.3491,3.7959,21.0372,1.8708S103.72,68.9718,100.548,68.1815Z" transform="translate(14.2896 37.1754)"/><path class="e" d="M25.8912,3.8912c.4848,2.1738,9.93,9.489,12.4232,10.6594s6.99-.53,7.7689-2.8329S36.0525-2.964,33.8486-3.3633,25.29,1.195,25.8912,3.8912Z" transform="translate(14.2896 37.1754)"/><path class="e" d="M26.0816-2.286c1.3119-1.0579,3.6392-3.4372,3.7391-5.36.0432-.8307-1.9595-2.7165-4.4585-4.6227l-.2621.3758L19.8824-4.4138,17.96-1.6583C21.5712-1.5384,25.52-1.8332,26.0816-2.286Z" transform="translate(14.2896 37.1754)"/><path class="e" d="M54.9544-7.6037c-3.4506-.9845-14.2807-.2874-15.2155,1.0524S47.5994,9.4622,51.0948,12.7546c2.7836,2.6219,12.5558,3.3528,15.2828,2.4095S69.9608,8.8419,70.05,6.3426,58.4051-6.6192,54.9544-7.6037Z" transform="translate(14.2896 37.1754)"/><path class="e" d="M51.8738-11.6836c.8125-.5715.1214-7.8836-1.96-9.0513-1.9409-1.0888-11.0915-4.7328-15.7479-4.1517l-.4415.6328-.707,1.0134-4.51,6.4644-.5331.7641-.57.817a1.64,1.64,0,0,0,.1382.1958c2.3965,2.9059,10.7078,4.9555,12.01,4.9641C41.6116-10.0213,49.8934-10.2906,51.8738-11.6836Z" transform="translate(14.2896 37.1754)"/><path class="e" d="M37.3606-3.787c1.102.2-.212-3.8474-1.1916-4.8155S32.73-9.01,32.4737-8.05C32.1227-6.7333,34.9735-4.2194,37.3606-3.787Z" transform="translate(14.2896 37.1754)"/><path class="e" d="M106.3729,126.57c-1.3419-.3207-4.9962,2.4407-7.798,5.53l.5348.3731.3832.2674,9.0635,6.3233,2.0021,1.3968,2.4877,1.7355c1.25-1.5214,2.048-2.91,1.8215-3.7232C113.6873,134.2346,108.9117,127.1773,106.3729,126.57Z" transform="translate(14.2896 37.1754)"/><path class="e" d="M61.78-10.6369c-.64.9174-.1542,3.9845.6217,5.6949.9052,1.9956,10.8234,9.89,12.8638,10.7284s2.879-1.3041,3.6105-2.3526S70.49-8.0677,69.2945-8.7068C67.1719-9.8415,62.42-11.5545,61.78-10.6369Z" transform="translate(14.2896 37.1754)"/><path class="e" d="M108.3377,88.4226c-2.07-.5907-9.6282-1.0257-11.3867.3087s-6.4987,11.6872-8.2347,14.1756,6.4493,13.1912,7.1254,13.5086c2.4934,1.17,14.1013-8.9443,15.4367-10.8585S110.408,89.0133,108.3377,88.4226Z" transform="translate(14.2896 37.1754)"/><path class="e" d="M103.36,121.9259c.0454-.8728-3.2048-3.079-4.9868-2.3408-1.08.4474-5.126,4.4073-7.5712,7.0925l.5331.3719.3526.246.6091.4249,3.1762,2.2159,1.5328,1.07C99.717,127.9123,103.2917,123.248,103.36,121.9259Z" transform="translate(14.2896 37.1754)"/><path class="e" d="M53.2885-23.8576c-.4791-3.4646-4.172-13.6035-6.4354-13.3117C45.67-37.0168,38.751-30.3,40.855-27.9787,43.1705-25.4238,53.509-22.2633,53.2885-23.8576Z" transform="translate(14.2896 37.1754)"/><path class="e" d="M-6.6251,36.0274c.2705-.0526.11-.8609-.295-2.0238l-1.4218,2.0379A12.3815,12.3815,0,0,0-6.6251,36.0274Z" transform="translate(14.2896 37.1754)"/><path class="e" d="M115.0689,98.3315c-.2335,2.1137-1.7015,11.3344.1243,13.4619s7.3681,2.1161,8.6821,1.7886c1.5026-.3746,7.513-1.873,8.4477-3.2129s-5.1213-9.2646-6.2457-10.6182C123.9894,97.2374,115.3024,96.2177,115.0689,98.3315Z" transform="translate(14.2896 37.1754)"/><path class="e" d="M108.0579,112.5848c.5138.9742,4.419,1.3756,4.82.8013s-.4679-2.8876-1.4475-3.8556S107.3453,111.234,108.0579,112.5848Z" transform="translate(14.2896 37.1754)"/><path class="e" d="M121.6348,85.96c-.4628-1.9112-6.9787,1.1074-8.6037,2.25s1.7482,5.2038,4.3864,6.76S122.381,89.0422,121.6348,85.96Z" transform="translate(14.2896 37.1754)"/><path class="e" d="M59.5535-19.6694c-.7126-1.3509-4.9757-1.764-5.6434-.8069s.7023,7.8891,1.27,8.8544c1.1356,1.9305,3.8961,2.7182,4.43,1.9525S60.266-18.3185,59.5535-19.6694Z" transform="translate(14.2896 37.1754)"/><path class="e" d="M78.2988-12.5679c-1.67-1.1649-6.3111.15-6.5557,1.687C71.5348-9.5723,79.2243-.2544,80.7605,1.102s3.884-4.9741,3.884-4.9741S79.9685-11.403,78.2988-12.5679Z" transform="translate(14.2896 37.1754)"/><path class="e" d="M80.3815,8.1763c-.0831,2.34,11.9451,14.31,13.8819,15.092s5.13-11.504,4.9738-12.4665S90.2982,2.8579,87.95,2.073,80.47,5.6769,80.3815,8.1763Z" transform="translate(14.2896 37.1754)"/><path class="e" d="M78.4381,11.2879c-1.6585-.588-7.1123,1.2987-6.522,3.418A90.4136,90.4136,0,0,0,78.173,25.9011a13.8061,13.8061,0,0,0,6.679,4.66c2.1523.8021,4.1623-4.78,4.54-6.508S80.0967,11.8758,78.4381,11.2879Z" transform="translate(14.2896 37.1754)"/><path class="e" d="M108.3549,44.7789c1.369-.1831,4.2621-6.7022,2.57-9.021S98.6575,26.061,96.4535,25.6617s-5.6871,4-6.4772,5.7259.9357,5.7753,2.0713,7.7059C93.1941,41.0425,106.9858,44.9621,108.3549,44.7789Z" transform="translate(14.2896 37.1754)"/><path class="e" d="M84.9019,38.2905c1.6928,1.181,3.5842.7931,4.2519-.164s-1.314-4.047-2.4272-4.8237S83.2322,37.1256,84.9019,38.2905Z" transform="translate(14.2896 37.1754)"/><path class="e" d="M126.6515,69.2835c-2.0928-1.7447-15.8179-8.759-17.8771-8.7728s-4.9747,5.3514-4.674,6.7c.4337,1.9443,11.2663,14.69,13.7374,14.7065S128.7443,71.0282,126.6515,69.2835Z" transform="translate(14.2896 37.1754)"/><path class="e" d="M130.9291,53.9794c-.7237-1.9279-10.8972-2.7648-12.8229-2.97s-10.2062,4.5473-8.9371,6.2865S120.98,64.682,123.5955,65.084,131.6529,55.9072,130.9291,53.9794Z" transform="translate(14.2896 37.1754)"/><path class="e" d="M114.0679,48.89c-1.9678-1.3729-13.3283-4.55-13.7913-3.361-.523,1.3426,4.8207,7.9165,5.9226,8.1161S115.1811,49.6667,114.0679,48.89Z" transform="translate(14.2896 37.1754)"/><path class="e" d="M126.2889,76.753c.032,1.6522,7.5138,5.2422,9.15,4.6762s-2.472-7.1317-4.2753-8.1052S126.2665,75.5991,126.2889,76.753Z" transform="translate(14.2896 37.1754)"/><path class="e" d="M136.7492,69.9828c1.7809-.18,15.66-6.4339,15.4816-8.55s-16.73-6.2651-17.3867-4.731-5.9982,9.1906-5.2857,10.5414C130.3894,68.818,134.9683,70.1632,136.7492,69.9828Z" transform="translate(14.2896 37.1754)"/><path class="e" d="M154.7664,65.9583c-1.5138-.2024-12.8444,2.9912-11.72,4.3448C144.09,71.56,154.122,75.1844,155.2016,74.23S156.28,66.1606,154.7664,65.9583Z" transform="translate(14.2896 37.1754)"/><path class="e" d="M115.1877,36.4494c-.9968,1.3456-1.9474,5.741-1.9135,7.487.0224,1.154,4.1968,4.0663,6.412,5.0426s10.7414,1.8023,13.2011,1.2418,4.362-8.6246,4.34-9.7785-10.3192-8.3378-11.8442-9.1171C124.5352,30.8921,116.0051,35.346,115.1877,36.4494Z" transform="translate(14.2896 37.1754)"/><path class="e" d="M117.4526,19.3669c-1.1244-1.3536-8.6832-8.9038-11.4212-8.5374s-7.1889,11.49-6.61,13.0325c.5968,1.59,10.3305,8.9148,12.8127,9.5082s8.4478-3.2129,8.9707-4.5556S118.577,20.7205,117.4526,19.3669Z" transform="translate(14.2896 37.1754)"/><path class="e" d="M152.9772,58.4571c2.1927-.1776,2.0021-9.9863,1.835-11.5259s-4.6311-5.223-6.5567-5.4281-10.718,6.4668-10.9514,8.5806a5.8675,5.8675,0,0,0,2.5607,4.6323C141.1115,55.3013,150.7845,58.6349,152.9772,58.4571Z" transform="translate(14.2896 37.1754)"/><path class="e" d="M155.82,61.137c-.479,2.1886,1.5922,4.2412,2.9725,4.6351s6.9451-2.8383,7.6129-3.7954-7.2693-6.7789-8.5048-6.7871S156.1982,59.4088,155.82,61.137Z" transform="translate(14.2896 37.1754)"/><path class="e" d="M23.2365.9827C22.5715.0715,18.1883-.27,16.6984.15l-.4005.574a25.5469,25.5469,0,0,0,5.8039,5.4432C23.6268,6.9466,24.0826,2.1421,23.2365.9827Z" transform="translate(14.2896 37.1754)"/><path class="e" d="M116.3045,130.5262c-.25.3581.1558,2.6571.9359,5.8047l.4839-.6937.3578-.5128,3.2195-4.6147.2137-.3063.2457-.3522C119.09,129.6818,116.7268,129.9208,116.3045,130.5262Z" transform="translate(14.2896 37.1754)"/><path class="e" d="M57.9122-23.37a24.8969,24.8969,0,0,0,4.7483-4.0875L58.3568-30.46,53.3077-33.983l-1.247-.87C54.2241-28.3757,56.6577-22.668,57.9122-23.37Z" transform="translate(14.2896 37.1754)"/><path class="e" d="M62.6365-14.6962c2.6173,2.888,6.8285,1.2445,11.3866-.3088,1.3957-.4756,2.8324-1.0052,4.2519-1.5591L75.55-18.4655,72.6473-20.49,66.69-24.6465l-.6245-.4356-.535-.3733C63.1116-21.7016,61.2949-16.1766,62.6365-14.6962Z" transform="translate(14.2896 37.1754)"/><path class="e" d="M100.14,7.9183c1.7668.1193,5.1256-1.6733,7.7586-3.8149L102.444.2978,91.9552-7.02l-7.5445-5.2636-.6732-.47-.6953-.4851C80.5914-8.5282,96.98,7.705,100.14,7.9183Z" transform="translate(14.2896 37.1754)"/><path class="e" d="M110.3661,6.6323c-.4469,2.042,6.49,9.0813,7.9818,8.13a10.056,10.056,0,0,0,1.9187-2.03l-1.3207-.9214-2.971-2.0728-4.0878-2.8519-.6474-.4516-.5547-.3871A1.9087,1.9087,0,0,0,110.3661,6.6323Z" transform="translate(14.2896 37.1754)"/><path class="e" d="M121.3294,20.5551c2.4272,4.8239,14.4721,17.2114,18.8913,18.5869,2.643.8228,7.6745-1.7782,11.3991-4.5359l-4.9006-3.419-8.2-5.7209-14.0768-9.821-.9113-.6358-.7884-.55C121.4459,16.87,120.7108,19.3259,121.3294,20.5551Z" transform="translate(14.2896 37.1754)"/><path class="e" d="M158.3378,48.528c1.8482,3.2815,7.3478,10.8179,9.2622,10.4461,1.2979-.2521,5.9314-4.0429,8.5624-7.2454l-2.4876-1.7355-2.0021-1.3968-9.0635-6.3233-.3832-.2674-.5348-.3731C159.31,44.258,157.5447,47.12,158.3378,48.528Z" transform="translate(14.2896 37.1754)"/><path class="e" d="M152.0635,38.4775c-.9959,1.8734,3.8185,5.7945,5.31,4.8429a20.4247,20.4247,0,0,0,2.7491-2.7822L158.59,39.4688l-3.1762-2.216-.609-.4249-.3526-.246-.5332-.3719A16.9166,16.9166,0,0,0,152.0635,38.4775Z" transform="translate(14.2896 37.1754)"/><path class="e" d="M126.4278,123.162l.7168-1.0273.6457-.9256,4.0708-5.8348.5378-.7709.5794-.83c-2.4245.5152-4.5878,1.2542-5.1112,2.0044A13.6331,13.6331,0,0,0,126.4278,123.162Z" transform="translate(14.2896 37.1754)"/><path class="e" d="M129.5858,83.0549c-2.4486,1.1375-5.1194,4.9657-5.2081,7.4651s9.4078,17.9467,10.9668,19.0344a3.5332,3.5332,0,0,0,.412.2363l1.21-1.7337,2.2925-3.2859,5.0942-7.3018,1.6088-2.306.7446-1.0672C141.2891,89.336,131.8493,82.0034,129.5858,83.0549Z" transform="translate(14.2896 37.1754)"/><path class="e" d="M135.081,74.3285c-1.2669,1.8159,6.3018,13.5033,8.6617,14.865.9593.5536,3.274.83,5.7474.9123l1.9223-2.7554,5.2177-7.4787.2621-.3758c-3.2839-2.505-7.4253-5.0454-8.9108-5.2737C145.3657,73.82,136.55,72.223,135.081,74.3285Z" transform="translate(14.2896 37.1754)"/><path class="e" d="M158.9341,76.5692l.57-.8169.533-.7641,4.51-6.4645.707-1.0134.4415-.6327a5.4133,5.4133,0,0,0-.9375.1945C160.6578,68.35,157.6052,74.3711,158.9341,76.5692Z" transform="translate(14.2896 37.1754)"/><path class="e" d="M104.5232,117.2715c.14,1.66,4.9766,8.8789,7.047,9.47,1.6291.4648,8.3573.9635,11.6179,1.0644l1.4218-2.0379c-1.0269-2.9519-3.6245-8.19-4.7264-9.1631C118.3473,115.2482,104.3448,115.1549,104.5232,117.2715Z" transform="translate(14.2896 37.1754)"/><path class="e" d="M147.7881,92.4315c.0123.0182.0267.038.04.0567l.4-.5739C147.8225,92.0288,147.6306,92.2,147.7881,92.4315Z" transform="translate(14.2896 37.1754)"/></g></g><path class="f" d="M105.7953,90.9485,79.77,47.7065.17,31.4646V71.6964l77.6326,15.586,28.109,45.0956a4.4135,4.4135,0,0,0,5.9968,1.4615l49.5874-29.407V63.982L112.23,92.6181A4.75,4.75,0,0,1,105.7953,90.9485Z" transform="translate(14.2896 37.1754)"/><polygon class="f" points="14.459 84.747 14.459 92.036 91.873 108.278 122.484 157.693 122.484 147.635 92.529 100.844 14.459 84.747"/><polygon class="f" points="122.484 147.635 175.785 117.051 175.785 126.162 122.484 157.693 122.484 147.635"/><line class="g" x1="17.3946" y1="69.3933" x2="17.3946" y2="82.1488"/><line class="g" x1="22.6423" y1="70.4866" x2="22.6423" y2="83.2421"/><line class="g" x1="28.9831" y1="71.7985" x2="28.9831" y2="84.554"/><line class="g" x1="35.324" y1="73.1104" x2="35.324" y2="85.8659"/><line class="g" x1="41.6649" y1="74.4223" x2="41.6649" y2="87.1778"/><line class="g" x1="48.0058" y1="75.7342" x2="48.0058" y2="88.4897"/><line class="g" x1="54.3467" y1="77.0461" x2="54.3467" y2="89.8016"/><line class="g" x1="60.6876" y1="78.358" x2="60.6876" y2="91.1135"/><line class="g" x1="67.0285" y1="79.67" x2="67.0285" y2="92.4254"/><line class="g" x1="73.3694" y1="80.9819" x2="73.3694" y2="93.7373"/><line class="g" x1="79.7103" y1="82.2938" x2="79.7103" y2="95.0493"/><line class="g" x1="86.0511" y1="83.6057" x2="86.0511" y2="96.3612"/><line class="g" x1="92.392" y1="84.9176" x2="92.392" y2="97.6731"/><line class="g" x1="17.3946" y1="96.2875" x2="17.3946" y2="109.0429"/><line class="g" x1="22.6423" y1="97.3807" x2="22.6423" y2="110.1362"/><line class="g" x1="28.9831" y1="98.6926" x2="28.9831" y2="111.4481"/><line class="g" x1="35.324" y1="100.0045" x2="35.324" y2="112.76"/><line class="g" x1="41.6649" y1="101.3164" x2="41.6649" y2="114.0719"/><line class="g" x1="48.0058" y1="102.6283" x2="48.0058" y2="115.3838"/><line class="g" x1="54.3467" y1="103.9403" x2="54.3467" y2="116.6957"/><line class="g" x1="60.6876" y1="105.2522" x2="60.6876" y2="118.0076"/><line class="g" x1="67.0285" y1="106.5641" x2="67.0285" y2="119.3196"/><line class="g" x1="73.3694" y1="107.876" x2="73.3694" y2="120.6315"/><line class="g" x1="79.7103" y1="109.1879" x2="79.7103" y2="121.9434"/><line class="g" x1="86.0511" y1="110.4998" x2="86.0511" y2="123.2553"/><line class="g" x1="92.392" y1="111.8117" x2="92.392" y2="124.5672"/><line class="g" x1="96.7651" y1="118.5899" x2="96.7651" y2="131.3454"/><line class="g" x1="96.7651" y1="91.0398" x2="96.7651" y2="103.7953"/><line class="g" x1="100.2635" y1="124.9308" x2="100.2635" y2="137.6863"/><line class="g" x1="100.2635" y1="97.3807" x2="100.2635" y2="110.1362"/><line class="g" x1="104.1992" y1="131.2717" x2="104.1992" y2="144.0272"/><line class="g" x1="104.1992" y1="103.7216" x2="104.1992" y2="116.4771"/><line class="g" x1="108.1349" y1="137.6126" x2="108.1349" y2="150.368"/><line class="g" x1="108.1349" y1="110.4998" x2="108.1349" y2="123.2553"/><line class="g" x1="112.7266" y1="144.8281" x2="112.7266" y2="157.5835"/><line class="g" x1="112.7266" y1="116.8407" x2="112.7266" y2="129.5962"/><line class="g" x1="117.5369" y1="152.2622" x2="117.5369" y2="165.0177"/><line class="g" x1="117.5369" y1="124.9308" x2="117.5369" y2="137.6863"/><line class="g" x1="128.2509" y1="128.8665" x2="128.2509" y2="141.622"/><line class="g" x1="135.029" y1="124.9308" x2="135.029" y2="137.6863"/><line class="g" x1="141.8072" y1="120.9951" x2="141.8072" y2="133.7505"/><line class="g" x1="148.5854" y1="117.0593" x2="148.5854" y2="129.8148"/><line class="g" x1="155.3636" y1="113.1236" x2="155.3636" y2="125.8791"/><line class="g" x1="162.1418" y1="109.1879" x2="162.1418" y2="121.9434"/><line class="g" x1="168.92" y1="105.2522" x2="168.92" y2="118.0076"/><line class="g" x1="175.4011" y1="101.6136" x2="175.4011" y2="114.369"/><line class="g" x1="128.2509" y1="156.4166" x2="128.2509" y2="169.1721"/><line class="g" x1="135.029" y1="152.4808" x2="135.029" y2="165.2363"/><line class="g" x1="141.8072" y1="148.5451" x2="141.8072" y2="161.3006"/><line class="g" x1="148.5854" y1="144.6094" x2="148.5854" y2="157.3649"/><line class="g" x1="155.3636" y1="140.6737" x2="155.3636" y2="153.4292"/><line class="g" x1="162.1418" y1="136.738" x2="162.1418" y2="149.4934"/><line class="g" x1="168.92" y1="132.8022" x2="168.92" y2="145.5577"/><line class="g" x1="175.4011" y1="129.1636" x2="175.4011" y2="141.9191"/><path class="g" d="M1.98,31.9894,79.8793,47.8158l25.3389,42.4278a5.6885,5.6885,0,0,0,7.7165,2.0164l47.7611-27.4254a1.4493,1.4493,0,0,0-.4426-2.679L81.6285,46.7226,54.5483,2.3355a3.9425,3.9425,0,0,0-5.33-1.3648L1.4073,28.4524A1.915,1.915,0,0,0,1.98,31.9894Z" transform="translate(14.2896 37.1754)"/><path class="g" d="M7.7937,30.1805,78.988,47.5187,108.144,87.26a3.8631,3.8631,0,0,0,4.9113.8477l38.9616-22.2044a1.2488,1.2488,0,0,0-.33-2.2894L80.7372,46.4255,53.5735,6.5829a3.9424,3.9424,0,0,0-5.0824-1.195L7.5878,28.472A.9239.9239,0,0,0,7.7937,30.1805Z" transform="translate(14.2896 37.1754)"/><path class="e" d="M50.3535,7.5925a1.2559,1.2559,0,0,1,1.0105.4967L75.8484,44.0018,12.7422,28.6337,49.7742,7.7343a1.25,1.25,0,0,1,.5793-.1418M84.1228,49.9971,147.56,65.3654l-35.857,20.4351a1.17,1.17,0,0,1-.5991.1634,1.1884,1.1884,0,0,1-.8706-.3773l-26.11-35.5895M50.3535,4.9185a3.93,3.93,0,0,0-1.8624.4693L7.5878,28.4721a.9239.9239,0,0,0,.2059,1.7085L78.9879,47.5187,108.1441,87.26a3.8618,3.8618,0,0,0,4.9111.8476L152.017,65.9031a1.2489,1.2489,0,0,0-.3305-2.2894L80.7372,46.4254,53.5735,6.5829a3.9413,3.9413,0,0,0-3.22-1.6644Z" transform="translate(14.2896 37.1754)"/></svg>