<svg xmlns="http://www.w3.org/2000/svg" viewBox="0 0 116.3111 170.1811"><defs><style>.a{fill:#d91519;stroke:#fff;stroke-linecap:round;stroke-linejoin:round;stroke-width:0.7304px;}</style></defs><title>machihembrado</title><polyline class="a" points="94.518 103.085 115.946 115.457 75.687 138.7 68.545 134.576 76.012 130.265 68.87 126.141 15.624 156.882 22.767 161.006 28.611 157.632 35.754 161.756 21.793 169.816 0.365 157.445"/><polyline class="a" points="0.422 157.445 0.422 54.724 94.895 0.365 94.895 103.085"/><polygon class="a" points="115.889 115.457 94.895 103.085 94.895 0.365 115.889 12.737 115.889 115.457"/><polygon class="a" points="115.889 115.457 75.775 138.7 75.775 35.98 115.889 12.737 115.889 115.457"/><polygon class="a" points="68.278 134.201 75.775 138.7 75.775 35.98 68.278 31.481 68.278 134.201"/><polygon class="a" points="21.416 169.816 0.422 157.445 0.422 54.724 21.416 67.096 21.416 169.816"/><polygon class="a" points="21.416 169.816 35.662 161.568 35.662 58.848 21.416 67.096 21.416 169.816"/><polygon class="a" points="28.611 54.912 35.754 59.036 21.793 67.096 0.365 54.724 94.518 0.365 115.946 12.737 75.687 35.98 68.545 31.856 76.012 27.545 68.87 23.421 15.624 54.162 22.767 58.286 28.611 54.912"/></svg>