<svg xmlns="http://www.w3.org/2000/svg" viewBox="0 0 150.7149 115.1843"><defs><style>.a,.b{opacity:0.6;}.b,.c{fill:none;stroke:#fff;stroke-miterlimit:10;stroke-width:0.7108px;}.c{opacity:0.9;}.d{opacity:0.7;}.e{fill:#fff;}</style></defs><title>madera</title><g class="a"><path class="b" d="M.857,40.8764l-.3407-.02V65.0058a5.6981,5.6981,0,0,0,2.8553,4.9383l76.65,44.125a5.6981,5.6981,0,0,0,5.68.0031L147.35,78.6752a5.6982,5.6982,0,0,0,2.8608-4.9415V49.93"/><path class="c" d="M149.1438,51.2924,84.3625,88.6971a2.4313,2.4313,0,0,1-2.4318,0l-80.36-46.4a2.4316,2.4316,0,0,1,0-4.2116L66.3524.6812a2.4318,2.4318,0,0,1,2.4318,0l80.36,46.4A2.4315,2.4315,0,0,1,149.1438,51.2924Z"/></g><g class="d"><path class="e" d="M150.515,69.4758a.4734.4734,0,0,1-.3352.4509c-1.4224.49-4.3133,3.5147-6.6316,3.9528a6.1051,6.1051,0,0,0-2.0075.5471c-.7273.4277-1.1694,1.2148-1.842,1.7243a6.5035,6.5035,0,0,1-2.0422.88c-5.5,1.72-10.5344,3.1081-14.4494,7.2626a.4527.4527,0,0,1-.5127.1066c-.8015-.3532-1.8258.16-2.6057.6735-2.8249,1.861-5.65,5.3745-8.4745,7.4346a.454.454,0,0,1-.6835-.2012,2.0253,2.0253,0,0,0-.57-.7786.4664.4664,0,0,0-.59.0023,53.6764,53.6764,0,0,0-7.1465,7.0535.47.47,0,0,1-.5474.118,3.77,3.77,0,0,0-4.9,2.8332.4729.4729,0,0,1-.3342.4067l-9.2423,2.55a.4608.4608,0,0,0-.28.2294,3.8579,3.8579,0,0,1-4.5638,1.7315,64.8938,64.8938,0,0,1-17.7257-7.51c-.2692-.165,0,.1416-.2884.0126a19.251,19.251,0,0,1-6.315-4.4764.4482.4482,0,0,0-.2768-.14l-2.0971-.2416a.4492.4492,0,0,1-.3891-.4686A4.4541,4.4541,0,0,0,55.26,91.682a.4629.4629,0,0,0-.6261-.2254c-1.2864.631-2.9863-.1233-4.1439-1.0915-1.2754-1.0668-2.4963-2.4452-4.1514-2.6037-1.0419-.1-2.24.28-3.0491-.383-.7415-.6074-.7314-1.79-1.3982-2.4788-1.1842-1.223-3.505-.0989-4.8418-1.1531-.9138-.7207-.9283-2.12-1.641-3.04-1.311-1.6923-4.2488-1.0484-5.75-2.5744-.7588-.7713-1.2184-2.1072-2.3-2.12-.536-.0064-1.0136.354-1.5468.4093-2.01.2085-1.9895-3.1918-3.5741-4.4459a.45.45,0,0,0-.2363-.098,1.2759,1.2759,0,0,0-.8418.2392.4553.4553,0,0,1-.692-.1869,11.9111,11.9111,0,0,0-1.4732-2.5952.4576.4576,0,0,0-.7395.0233l-.7428,1.0733a.46.46,0,0,1-.63.1237l-7.625-4.969a.46.46,0,0,0-.3757-.0575l-.8737.2456a.494.494,0,0,1-.1873.0171c-2.6014-.2838-4.8878-4.2081-6.962-4.7055a.4488.4488,0,0,1-.339-.4533L.8127,50.4385a.4541.4541,0,0,1,.578-.4322c1.0433.3473,1.8548,1.491,2.8427,2.86a.4631.4631,0,0,0,.4826.1794l1.0913-.2642a.46.46,0,0,1,.4993.2046l.6915,1.1147a.4652.4652,0,0,0,.7219.0735,1.9147,1.9147,0,0,1,2.47.0768.4545.4545,0,0,0,.73-.1279h0a.4585.4585,0,0,1,.8149-.0165c2.8383,4.9767,11.8058,5.4123,13.5547,10.735a.4588.4588,0,0,0,.7674.1851l.1709-.1775a.46.46,0,0,1,.7457.119l1.37,2.8376a.459.459,0,0,0,.6274.2022,2.7538,2.7538,0,0,1,3.6084,1.4248.4421.4421,0,0,0,.5668.2455c.92-.3352,2.1185.4195,2.9253,1.1609l6.2935,5.783a.4517.4517,0,0,0,.633-.0141,1.3242,1.3242,0,0,1,.8994-.4116.46.46,0,0,1,.4213.2544l.9632,1.8847a.4692.4692,0,0,0,.6851.158,1.8239,1.8239,0,0,1,1.7966.0319,7.3958,7.3958,0,0,1,1.7229,1.7723,8.2766,8.2766,0,0,0,6.7475,2.8035.462.462,0,0,1,.4924.3724c.3134,1.6165.9519,3.3962,2.5157,3.7253a12.3739,12.3739,0,0,0,1.6943.0527,3.4077,3.4077,0,0,1,2.5542,1.48l1.9613,3.37a.4627.4627,0,0,0,.781.0191,2.36,2.36,0,0,1,2.2744-.7979,8.0561,8.0561,0,0,1,2.972,1.77,14.4361,14.4361,0,0,0,8.9459,2.8367.4524.4524,0,0,1,.4172.2438l.4939.9592a.46.46,0,0,0,.4293.2489l4.9166-.2165a.4734.4734,0,0,0,.4236-.3413c.6739-2.0853,3.3468-2.8367,5.5053-3.5447,4.2909-1.4075,8.006-4.1308,11.64-6.8115,1.8576-1.37,3.8133-1.0595,4.6114-3.158a.4564.4564,0,0,1,.1223-.18l7-6.1359a.5454.5454,0,0,1,.3941-.1043c.4488.0161.8977-1.0574,1.3466-.689a1.7437,1.7437,0,0,1,2.211-1.1085.47.47,0,0,0,.5823-.2064,9.7874,9.7874,0,0,1,4.8012-4.268.4647.4647,0,0,1,.5024.1061l.63.6334a.4653.4653,0,0,0,.6409.0178,46.3745,46.3745,0,0,0,5.3332-5.7414.4657.4657,0,0,1,.5056-.1545,1.9962,1.9962,0,0,1,.9072.5853.4586.4586,0,0,0,.6135.0768l8.3439-5.9788c2.18-1.5621,4.3591-3.77,7.0105-3.9266a.4538.4538,0,0,1,.467.452Z"/></g></svg>