<svg xmlns="http://www.w3.org/2000/svg" viewBox="0 0 45.3114 174.32"><defs><style>.a,.c{fill:#d91519;}.a,.b,.d{stroke:#fff;stroke-miterlimit:10;}.a,.b{stroke-width:0.7304px;}.b,.d{fill:none;}.c{opacity:0.6;}.d{stroke-width:1.4608px;}</style></defs><title>muestras_agua</title><line class="a" x1="10.4143" y1="172.2817" x2="35.5185" y2="159.0003"/><path class="b" d="M32.4011,160.441s-8.9459-10.3965-28.1674-13.177"/><circle class="a" cx="2.2994" cy="147.5357" r="1.9342"/><rect class="c" x="10.4961" y="19.1119" width="30.433" height="154.8429"/><rect class="b" x="10.4961" y="19.1119" width="30.433" height="154.8429"/><polyline class="d" points="40.937 127.04 44.581 129.478 44.581 144.55 40.848 146.523"/><polyline class="d" points="10.537 127.04 6.844 129.478 6.844 144.55 10.602 146.523"/><polyline class="d" points="40.937 51.893 44.581 54.331 44.581 69.403 40.848 71.376"/><polyline class="d" points="10.537 51.893 6.844 54.331 6.844 69.403 10.602 71.376"/><rect class="a" x="19.7477" y="0.3652" width="10.9559" height="16.799"/><rect class="a" x="18.2869" y="17.1642" width="13.634" height="3.8954"/><rect class="a" x="25.1039" y="6.9387" width="19.7206" height="2.6781"/></svg>