<svg xmlns="http://www.w3.org/2000/svg" viewBox="0 0 54.572 145.2726"><defs><style>.a{fill:#d91519;stroke:#fff;stroke-linecap:round;stroke-linejoin:round;stroke-width:0.639px;}.b{opacity:0.4;}</style></defs><title>panel_solar</title><rect class="a" x="24.6591" y="18.8269" width="2.521" height="48.3577"/><polygon class="a" points="19.846 96.52 19.846 110.959 32.222 108.437 32.222 94.631 19.846 96.52"/><polygon class="a" points="16.179 93.999 19.846 96.52 32.222 94.686 28.097 92.166 16.179 93.999"/><polygon class="a" points="21.68 103.166 21.68 110.959 29.243 109.354 29.243 101.791 21.68 103.166"/><polygon class="a" points="16.179 93.999 16.179 108.438 19.846 110.959 19.846 96.52 16.179 93.999"/><path class="a" d="M28.2114,108.13v2.4737a.4216.4216,0,0,0,.2062.3624l3.3964,2.02a.4218.4218,0,0,0,.6374-.3623v-2.5655a.4217.4217,0,0,0-.2137-.3666l-3.3964-1.928a.4218.4218,0,0,0-.63.3668"/><path class="a" d="M32.7467,67.1845H28.718a.6213.6213,0,0,1-.6213-.6213V63.91a.6213.6213,0,0,1,.6213-.6211h4.0287a.6212.6212,0,0,1,.6213.6211v2.6537a.6212.6212,0,0,1-.6213.6213"/><path class="a" d="M32.7467,48.85H28.718a.6214.6214,0,0,1-.6213-.6214V45.5749a.6213.6213,0,0,1,.6213-.6212h4.0287a.6213.6213,0,0,1,.6213.6212v2.6536a.6213.6213,0,0,1-.6213.6214"/><g class="b"><path class="a" d="M27.982,144.9531a2.0235,2.0235,0,0,1-2.0236-2.0236V38.6513a2.0238,2.0238,0,0,1,.896-1.68L44.2725,25.2824a2.0237,2.0237,0,0,1,2.2553,3.3608L30.0056,39.73V142.93A2.0235,2.0235,0,0,1,27.982,144.9531Z"/><path class="a" d="M33.033,41.3925,27.4149,39.35c-.475-.1727-.4384-.8035.0663-1.1349L43.9229,27.41a.8467.8467,0,0,1,.7339-.1191l5.6183,2.0432c.475.1727.4382.8035-.0665,1.1349L33.7671,41.2734a.8471.8471,0,0,1-.7341.1191"/><path class="a" d="M34.15,39.98l-4.4291-1.435c-.3745-.1214-.3283-.6111.0829-.8814l13.4053-8.81a.7144.7144,0,0,1,.5888-.1116l4.4291,1.4351c.3746.1214.3284.6111-.0829.8814L34.7391,39.8684a.7135.7135,0,0,1-.5888.1116"/></g><path class="a" d="M28.8506,48.85H24.822a.6214.6214,0,0,1-.6214-.6214V45.5749a.6213.6213,0,0,1,.6214-.6212h4.0286a.6213.6213,0,0,1,.6214.6212v2.6536a.6214.6214,0,0,1-.6214.6214"/><path class="a" d="M28.8506,67.1845H24.822a.6213.6213,0,0,1-.6214-.6213V63.91a.6213.6213,0,0,1,.6214-.6211h4.0286a.6213.6213,0,0,1,.6214.6211v2.6537a.6213.6213,0,0,1-.6214.6213"/><path class="a" d="M28.5552,47.0164a.4584.4584,0,1,1-.4584-.4584.4584.4584,0,0,1,.4584.4584"/><path class="a" d="M32.4513,47.0164a.4584.4584,0,1,1-.4584-.4584.4585.4585,0,0,1,.4584.4584"/><rect class="a" x="27.9822" y="46.9099" width="3.8962" height="0.213"/><path class="a" d="M28.5552,65.3511a.4584.4584,0,1,1-.4584-.4584.4585.4585,0,0,1,.4584.4584"/><path class="a" d="M32.4513,65.3511a.4584.4584,0,1,1-.4584-.4584.4586.4586,0,0,1,.4584.4584"/><rect class="a" x="27.9822" y="65.2445" width="3.8962" height="0.213"/><path class="a" d="M23.7423,108.5945v2.3133a.4915.4915,0,0,0,.2405.4228l3.2562,1.9363a.4918.4918,0,0,0,.7432-.4228v-2.4015a.4924.4924,0,0,0-.249-.4277l-3.2563-1.8481a.4919.4919,0,0,0-.7346.4277"/><path class="a" d="M27.6384,110.9585A.4584.4584,0,1,1,27.18,110.5a.4584.4584,0,0,1,.4584.4584"/><path class="a" d="M31.5346,110.9585a.4584.4584,0,1,1-.4584-.4584.4586.4586,0,0,1,.4584.4584"/><rect class="a" x="27.0655" y="110.852" width="3.8962" height="0.213"/><path class="a" d="M9.971,19.6049l.4228,1.61a.7541.7541,0,0,0,.9566.5274L22.3345,18.27a.7544.7544,0,0,1,.9349.4581l.3862,1.0474a.754.754,0,0,0,.9421.4556l6.428-2.1039a.7539.7539,0,0,0,.461-1.0079l-.2754-.6576a.7542.7542,0,0,1,.4711-1.0116l9.9143-3.09A.7541.7541,0,0,0,42.08,11.38L41.4817,9.921a.7541.7541,0,0,0-.9172-.4635L10.4907,18.6887a.7544.7544,0,0,0-.52.9162"/><polygon class="a" points="0.32 17.354 1.106 20.824 19.535 16.648 18.374 12.991 0.32 17.354"/><polygon class="a" points="18.374 12.991 53.255 0.32 54.252 4.256 19.609 16.708 18.374 12.991"/><polygon class="a" points="0.32 17.354 18.374 12.991 53.255 0.32 28.913 7.197 0.32 17.354"/></svg>