<svg xmlns="http://www.w3.org/2000/svg" viewBox="0 0 127.0026 143.5443"><defs><style>.a{fill:#d91519;stroke:#fff;stroke-linecap:round;stroke-linejoin:round;stroke-width:0.6276px;}</style></defs><title>particulas</title><polygon class="a" points="58.012 113.835 55.38 115.59 43.314 115.59 43.314 82.903 58.012 82.903 58.012 113.835"/><rect class="a" x="94.1773" y="26.306" width="11.5917" height="22.5866" transform="translate(30.2411 -43.3067) rotate(28.6313)"/><rect class="a" x="58.2315" y="39.4675" width="41.0226" height="19.5241" transform="translate(33.2179 -31.7116) rotate(28.6313)"/><rect class="a" x="101.0193" y="26.4863" width="15.3729" height="46.8997" transform="translate(37.2203 -45.9825) rotate(28.6313)"/><path class="a" d="M36.4034,71.2105a1.36,1.36,0,0,1-1.0392-2.2365L57.74,42.43A1.36,1.36,0,1,1,59.82,44.183L37.4437,70.727A1.3568,1.3568,0,0,1,36.4034,71.2105Z"/><path class="a" d="M36.8418,89.569a1.36,1.36,0,0,1-1.2209-1.957L75.7659,5.4164A1.36,1.36,0,0,1,78.21,6.61L38.0648,88.8056A1.36,1.36,0,0,1,36.8418,89.569Z"/><path class="a" d="M75.9541,81.3973v-6.83H68.5225a31.07,31.07,0,0,0-10.62-1.755,31.0706,31.0706,0,0,0-10.62,1.755H39.8043v7.4586c0,5.0886,8.1028,9.2137,18.0982,9.2137s18.0982-4.1251,18.0982-9.2137A4.7846,4.7846,0,0,0,75.9541,81.3973Z"/><ellipse class="a" cx="57.9025" cy="74.1283" rx="18.0982" ry="9.2136"/><rect class="a" x="56.0378" y="84" width="0.6581" height="8.1168" rx="0.3138"/><rect class="a" x="54.2828" y="84" width="0.6581" height="8.1168" rx="0.3138"/><rect class="a" x="52.5279" y="84" width="0.6581" height="8.1168" rx="0.3138"/><rect class="a" x="50.7729" y="83.3419" width="0.6581" height="8.1168" rx="0.3138"/><rect class="a" x="49.0179" y="83.1225" width="0.6581" height="8.1168" rx="0.3138"/><rect class="a" x="47.2629" y="82.4644" width="0.6581" height="8.1168" rx="0.3138"/><rect class="a" x="45.508" y="82.0256" width="0.6581" height="8.1168" rx="0.3138"/><rect class="a" x="43.753" y="81.3675" width="0.6581" height="8.1168" rx="0.3138"/><rect class="a" x="42.2174" y="80.2707" width="0.6581" height="8.1168" rx="0.3138"/><rect class="a" x="40.6818" y="78.9544" width="0.6581" height="8.1168" rx="0.3138"/><rect class="a" x="57.7928" y="84" width="0.6581" height="8.1168" rx="0.3138"/><rect class="a" x="59.5478" y="84" width="0.6581" height="8.1168" rx="0.3138"/><rect class="a" x="61.3028" y="84" width="0.6581" height="8.1168" rx="0.3138"/><rect class="a" x="63.0577" y="83.7806" width="0.6581" height="8.1168" rx="0.3138"/><rect class="a" x="64.8127" y="83.3419" width="0.6581" height="8.1168" rx="0.3138"/><rect class="a" x="66.3483" y="82.9031" width="0.6581" height="8.1168" rx="0.3138"/><rect class="a" x="68.1033" y="82.4644" width="0.6581" height="8.1168" rx="0.3138"/><rect class="a" x="69.8583" y="82.0256" width="0.6581" height="8.1168" rx="0.3138"/><rect class="a" x="71.3939" y="81.3675" width="0.6581" height="8.1168" rx="0.3138"/><rect class="a" x="72.9295" y="80.2707" width="0.6581" height="8.1168" rx="0.3138"/><rect class="a" x="74.4651" y="79.1738" width="0.6581" height="8.1168" rx="0.3138"/><path class="a" d="M72.9455,72.2884V63.0865h-6.193a27.5085,27.5085,0,0,0-17.7,0H42.8207V72.812c0,4.24,6.7523,7.678,15.0818,7.678s15.0818-3.4375,15.0818-7.678A3.9892,3.9892,0,0,0,72.9455,72.2884Z"/><ellipse class="a" cx="57.9025" cy="62.7209" rx="15.0818" ry="7.678"/><path class="a" d="M71.2836,91.8314a1.36,1.36,0,0,1-1.0392-2.2364L92.62,63.0509A1.36,1.36,0,1,1,94.7,64.8039L72.3239,91.348A1.3567,1.3567,0,0,1,71.2836,91.8314Z"/><path class="a" d="M71.7218,110.19a1.3606,1.3606,0,0,1-1.221-1.957l40.1453-82.1956a1.36,1.36,0,0,1,2.444,1.1936L72.9448,109.4266A1.36,1.36,0,0,1,71.7218,110.19Z"/><polygon class="a" points="18.086 101.55 37.83 90.142 59.767 100.453 50.773 106.157 58.89 110.763 50.554 116.467 18.086 101.55"/><polygon class="a" points="72.052 109.886 62.619 116.028 62.619 88.607 72.052 82.464 72.052 109.886"/><polygon class="a" points="58.012 86.413 62.619 88.607 72.052 82.464 67.445 80.271 58.012 86.413"/><polygon class="a" points="62.619 116.028 58.012 113.835 58.012 86.413 62.619 88.607 62.619 116.028"/><path class="a" d="M56.3682,69.6444c-.0267,0-.0533-.0006-.08-.0017-.4-.0158-9.8281-.4641-13.1061-7.02C39.9379,56.1345,42.5746,47.26,49.7426,40.54c3.4525-3.2368,4.2491-9.2977,4.7762-13.3084a30.5355,30.5355,0,0,1,.5858-3.5229A7.0853,7.0853,0,0,1,59.3387,18.61c1.4151-.5046,3.697-.677,6.5282,1.3675A1.9876,1.9876,0,0,1,63.5393,23.2c-.79-.57-1.9284-1.18-2.8662-.8456a3.2964,3.2964,0,0,0-1.7275,2.3788A28.8887,28.8887,0,0,0,58.46,27.75c-.6009,4.5719-1.5091,11.4811-5.9988,15.69-6.785,6.361-7.7638,13.3249-5.724,17.4047,2.2241,4.4482,9.6378,4.8228,9.7123,4.8261a1.9876,1.9876,0,0,1-.0813,3.9734Z"/><ellipse class="a" cx="68.6517" cy="117.1252" rx="8.8987" ry="5.9715" transform="translate(-66.7193 127.4238) rotate(-63.9742)"/><ellipse class="a" cx="70.1873" cy="118.222" rx="8.3361" ry="5.594" transform="translate(-66.8431 129.4192) rotate(-63.9742)"/><ellipse class="a" cx="70.1873" cy="118.222" rx="6.0852" ry="4.0835" transform="translate(-66.8431 129.4192) rotate(-63.9742)"/><path class="a" d="M56.395,132.1256,56.12,128.16l-.0211.0017c.6547-.06,3.9134-.5922,3.7661-5.1592-.2309-7.164.2452-12.7,3.3274-18.1531,1.9465-3.4435,4.3314-19.28,5.46-29.0838l.007-.0539a12.36,12.36,0,0,0-3.4175-9.533c-3.7506-3.9211-32.13-19.6547-43.1146-25.5857a5.12,5.12,0,0,0-3.6443.6769,4.5473,4.5473,0,0,0-1.37,3.6273c-.2133,7.6819-.0051,11.1945-.0031,11.2291a1.9875,1.9875,0,0,1-3.9673.247c-.0092-.147-.2225-3.69-.003-11.5865.0831-2.9971,1.07-5.2437,2.9329-6.6775,2.9359-2.26,6.7608-1.4447,7.187-1.3445a1.9926,1.9926,0,0,1,.4883.1854c4.0249,2.1708,39.4655,21.3565,44.3672,26.4808a16.41,16.41,0,0,1,4.4848,12.807c-.3067,2.6631-2.9881,25.3344-5.9459,30.5674-2.6258,4.6455-3.0238,9.5926-2.815,16.069.1429,4.4257-1.878,6.7225-3.5983,7.87A8.5351,8.5351,0,0,1,56.395,132.1256Z"/><ellipse class="a" cx="32.8941" cy="139.0624" rx="7.1296" ry="4.1681"/><ellipse class="a" cx="49.7857" cy="136.8686" rx="7.1296" ry="4.1681"/><path class="a" d="M26.1393,131.4388v3.9126a4.1237,4.1237,0,0,0,1.4164,3.1332,8.8638,8.8638,0,0,0,5.9909,1.894c6.0075,0,5.5625-4.6068,12.46-3.7293,5.8771.7476,8.6849.2212,10.4882-1.4437a2.71,2.71,0,0,0,.8593-1.9938v-3.0689Z"/><path class="a" d="M33.4,125.5387a13.3478,13.3478,0,0,0-6.0361,3.415,3.9855,3.9855,0,0,0-.7216,4.8437c1.8281,4.1132,8.7749,3.51,11.6267,1.755s6.5812-2.4131,9.433-1.0968,8.5555-.6582,9.433-3.2906-1.6-5.9323-9.2136-7.02A30.9574,30.9574,0,0,0,33.4,125.5387Z"/><path class="a" d="M.3223,106.7463v16.2755a7.2084,7.2084,0,0,0,1.6248,4.5814c2.2268,2.7085,7.3444,7.2168,18.7718,11.8979v-11.188s12.0655,6.5812,24.35,5.265c12.2227-1.31,13.82-8.9943,12.943-12.2849Z"/><path class="a" d="M58.0046,121.2289c0-2.739-1.7632-5.2057-4.58-6.939l0-.0021-.02-.01a15.2191,15.2191,0,0,0-1.861-.967L24.7521,99.3892a15.2064,15.2064,0,0,0-2.2641-1.1764l-.0141-.0074-.0018.0007a20.1175,20.1175,0,0,0-7.7329-1.4825c-7.9318,0-14.3658,4.217-14.4193,9.4321l-.0026.0009s-.4827,6.2568,9.8718,12.0654c8.9942,5.0456,22.25,14.705,36.2333,12.3191a18.5712,18.5712,0,0,0,5.9242-1.7715l.0054-.0023v-.0005C55.7877,127.0308,58.0046,124.301,58.0046,121.2289Z"/><rect class="a" x="37.3912" y="59.211" width="6.5812" height="15.356" rx="0.6276"/><rect class="a" x="41.674" y="59.2388" width="0.2092" height="15.3282"/><rect class="a" x="39.2609" y="59.2388" width="0.2092" height="15.3282"/><rect class="a" x="55.1603" y="67.1083" width="6.5812" height="15.356" rx="0.6276"/><rect class="a" x="59.4431" y="67.1361" width="0.2092" height="15.3282"/><rect class="a" x="57.03" y="67.1361" width="0.2092" height="15.3282"/><path class="a" d="M40.243,66.2309V76.322s5.265,5.923,15.3561,5.7036V73.69Z"/><path class="a" d="M42.8755,64.4759l-2.6325,1.755A21.4822,21.4822,0,0,0,55.5991,73.69V70.3989S47.4823,70.18,42.8755,64.4759Z"/><ellipse class="a" cx="38.159" cy="108.5697" rx="11.517" ry="7.4586"/><path class="a" d="M26.642,74.567H49.676a0,0,0,0,1,0,0v28.0645a10.9838,10.9838,0,0,1-10.9838,10.9838H37.6257A10.9838,10.9838,0,0,1,26.642,102.6315V74.567A0,0,0,0,1,26.642,74.567Z"/><ellipse class="a" cx="38.159" cy="74.567" rx="11.517" ry="7.4586"/><path class="a" d="M36.121,117.939a20.7026,20.7026,0,0,1-8.3745-1.8012.7322.7322,0,0,1,.642-1.3162h0c.09.0439,9.1457,4.3344,16.7974-1.2494a.7322.7322,0,1,1,.8634,1.1829A16.5418,16.5418,0,0,1,36.121,117.939Z"/><ellipse class="a" cx="39.914" cy="119.8673" rx="5.3746" ry="3.1809"/><ellipse class="a" cx="39.914" cy="118.5511" rx="4.2778" ry="3.1809"/><path class="a" d="M41.5593,99.7948H38.2687V115.59h.0539a.5009.5009,0,0,0-.0539.2193c0,.4847.7366.8775,1.6453.8775s1.6453-.3928,1.6453-.8775a.501.501,0,0,0-.054-.2193h.054Z"/><ellipse class="a" cx="39.914" cy="99.7948" rx="1.6453" ry="0.8775"/><rect class="a" x="62.6109" y="15.5322" width="35.1395" height="21.9746" transform="translate(22.5118 -35.1775) rotate(28.6313)"/><path class="a" d="M69.1465,13.2252h55.7046a0,0,0,0,1,0,0V16.94a0,0,0,0,1,0,0H69.1465a1.7715,1.7715,0,0,1-1.7715-1.7715v-.172A1.7715,1.7715,0,0,1,69.1465,13.2252Z" transform="translate(18.9798 -44.2103) rotate(28.6313)"/><rect class="a" x="79.2913" y="20.6015" width="1.9743" height="3.0712" rx="0.3923" transform="translate(18.314 -33.4964) rotate(26.5021)"/><rect class="a" x="72.2714" y="21.479" width="1.9743" height="3.0712" rx="0.3923" transform="translate(17.9679 -30.2717) rotate(26.5021)"/><rect class="a" x="83.4593" y="27.1826" width="1.9743" height="3.0712" rx="0.3923" transform="translate(21.6887 -34.6648) rotate(26.5021)"/><ellipse class="a" cx="121.0748" cy="28.7117" rx="2.0032" ry="1.0969" transform="translate(44.7794 127.0097) rotate(-65.5234)"/><circle class="a" cx="66.7871" cy="20.1627" r="1.0969"/><path class="a" d="M25.2884,59.0739a1.9876,1.9876,0,0,1-1.2393-3.5424l11.4073-9.0842a1.9875,1.9875,0,1,1,2.4762,3.11L26.5253,58.641A1.9791,1.9791,0,0,1,25.2884,59.0739Z"/><polygon class="a" points="22.255 124.364 10.975 118.005 14.577 115.809 25.764 122.171 22.255 124.364"/><polygon class="a" points="14.577 115.809 11.067 118.003 11.067 109.008 14.577 106.815 14.577 115.809"/><polygon class="a" points="25.764 122.171 22.255 124.364 22.255 115.37 25.764 113.176 25.764 122.171"/><polygon class="a" points="22.598 83.237 8.873 91.027 22.474 98.501 36.075 91.027 22.598 83.237"/><polygon class="a" points="8.873 91.027 8.873 111.237 22.474 118.217 22.474 98.501 8.873 91.027"/><polygon class="a" points="36.075 91.027 36.075 111.237 22.474 118.217 22.474 98.501 36.075 91.027"/><polygon class="a" points="22.598 72.049 8.873 79.839 22.474 87.314 36.075 79.839 22.598 72.049"/><polygon class="a" points="8.873 79.839 8.873 91.932 22.474 98.912 22.474 87.314 8.873 79.839"/><polygon class="a" points="36.075 79.839 36.075 91.932 22.474 98.912 22.474 87.314 36.075 79.839"/><polygon class="a" points="22.584 48.352 10.408 55.262 22.474 62.282 34.539 55.262 22.584 48.352"/><polygon class="a" points="10.408 55.262 10.408 79.613 22.474 86.194 22.474 62.282 10.408 55.262"/><polygon class="a" points="34.539 55.262 34.539 79.613 22.474 86.194 22.474 62.282 34.539 55.262"/><path class="a" d="M28.726,93.6168a.7314.7314,0,0,1-.4062-.123l-2.6323-1.755A.7322.7322,0,0,1,26.5,90.52l2.2433,1.4956,6.4522-3.9429-1.5734-.9177A.7322.7322,0,1,1,34.36,85.89l2.6326,1.5356a.7322.7322,0,0,1,.0129,1.2573l-7.8975,4.8262A.7316.7316,0,0,1,28.726,93.6168Z"/><path class="a" d="M21.0482,56.6985a1.9886,1.9886,0,0,1-1.9136-2.5228,26.2546,26.2546,0,0,1,4.46-8.1986A31.382,31.382,0,0,1,41.6609,34.7886C57.5592,31.12,81.5847,25.5755,92.0074,14.7273c7.44-7.7436,14.0252-11.5849,19.5489-11.42a10.2665,10.2665,0,0,1,7.7477,3.8305c5.9949,7.0375-1.138,16.9609-1.4445,17.38a1.9876,1.9876,0,0,1-3.2081-2.3473c.0544-.0747,5.5855-7.8076,1.6268-12.4548a6.3617,6.3617,0,0,0-4.8408-2.435c-2.9921-.0872-8.3065,1.6073-16.5635,10.2012C83.6313,29.1828,59.89,34.6615,42.5546,38.6619a27.2529,27.2529,0,0,0-15.7187,9.624A22.8645,22.8645,0,0,0,22.96,55.2582,1.9928,1.9928,0,0,1,21.0482,56.6985Z"/><rect class="a" x="111.0583" y="23.5684" width="8.4564" height="1.9337" transform="translate(25.8537 -52.2418) rotate(28.6313)"/></svg>