<svg xmlns="http://www.w3.org/2000/svg" viewBox="0 0 218 218"><defs><style>.a{fill:#fff;}.a,.c{stroke:#d91519;stroke-linecap:round;stroke-linejoin:round;stroke-width:3px;}.b{fill:#d91519;}.c{fill:none;}</style></defs><title>campana</title><circle class="a" cx="109" cy="109" r="107.5"/><polygon class="b" points="50.336 128.35 45.421 138.179 62.007 130.807 50.336 128.35"/><path class="a" d="M109,1.5c-.4108,0-.8188.0109-1.2286.0155V64.7714c0,22.7286-12.9,31.3286-12.9,31.3286L61.7,123.1286l34.92,41.2676s9.9226-11.1676,35.1083-34.51,23.3428-62.0428,23.3428-62.0428V11.8512A107.0737,107.0737,0,0,0,109,1.5Z"/><polygon class="a" points="77.165 125.729 54.943 125.586 61.7 120.057 80.991 120.761 77.165 125.729"/><polygon class="a" points="93.73 141.635 98.126 162.604 102.549 158.16 98.851 136.936 93.73 141.635"/><polygon class="a" points="80.991 120.761 77.165 125.729 93.6 141.251 98.973 136.667 80.991 120.761"/><polygon class="a" points="73.639 129.881 51.257 128.657 57.4 123.743 77.419 124.911 73.639 129.881"/><polygon class="a" points="89.985 145.778 93.643 167.357 98.682 162.298 95.043 141.077 89.985 145.778"/><polygon class="a" points="77.419 124.911 73.639 129.881 89.856 145.394 95.164 140.807 77.419 124.911"/><path class="a" d="M42.0429,140.9429,51.8714,130.5c2.5521-2.5444,5.7273-2.55,9.3295-2.6531,7.915-.2261,20.9047,3.5166,29.3705,19.2388,12.9,23.9572-10.9387,33.5445-10.9387,33.5445"/><ellipse class="a" cx="61.7499" cy="159.8063" rx="20.4453" ry="27.4838" transform="translate(-93.2073 86.7352) rotate(-43.6267)"/><ellipse class="a" cx="61.7499" cy="159.8063" rx="14.9107" ry="20.0438" transform="translate(-93.2073 86.7352) rotate(-43.6267)"/><path class="c" d="M55.8684,142.0455A16.0092,16.0092,0,0,0,53.1,157.5286c4.26,12.781,18.5679,17.391,25.87,10.5384"/><path class="c" d="M81.5776,106.932s35.1041-4.0847,36.7918,35.5417"/><path class="c" d="M96.868,94.4192s35.4749.4522,34.2463,35.4665"/><path class="c" d="M107.7112,67.3794S111.4571,79.5143,131.1143,78.9s23.9571-11.6714,23.9571-11.6714"/><path class="c" d="M107.7112,49.1071s8.66,11.9786,23.4031,10.75,23.9571-11.825,23.9571-11.825"/></svg>