<svg xmlns="http://www.w3.org/2000/svg" viewBox="0 0 579.6669 648.1055"><defs><style>.a,.b,.c{fill:#fff;}.a{stroke:#c4c4c4;}.a,.c,.d,.f{stroke-linecap:round;stroke-linejoin:round;}.a,.c,.d{stroke-width:3px;}.c,.d{stroke:#d91519;}.d,.f{fill:none;}.e{opacity:0.4;}.f{stroke:#606060;stroke-width:2px;}.g,.h{fill:#606060;}.h{font-size:26px;font-family:Lato-Italic, Lato;font-style:italic;}</style></defs><title>ciclon-puli</title><rect class="a" x="267.7421" y="180.376" width="185.4407" height="88.2579" transform="translate(156.655 -148.0513) rotate(29.4034)"/><polygon class="a" points="262.824 515.26 250.818 523.032 196.281 522.297 198.272 374.553 264.708 375.448 262.824 515.26"/><rect class="a" x="461.107" y="123.5201" width="69.4925" height="212.008" transform="translate(176.5596 -213.8756) rotate(29.4034)"/><path class="a" d="M167.7472,321.2806a6.1476,6.1476,0,0,1-4.5606-10.1721L265.9438,192.4913a6.1473,6.1473,0,1,1,9.2925,8.05L172.4791,319.1587A6.1331,6.1331,0,0,1,167.7472,321.2806Z"/><path class="a" d="M168.6107,404.2889a6.15,6.15,0,0,1-5.4-8.92L349.6757,26.2864A6.1475,6.1475,0,0,1,360.65,31.83L174.1853,400.9127A6.1477,6.1477,0,0,1,168.6107,404.2889Z"/><path class="a" d="M345.8977,369.735l.4161-30.8735-33.591-.4527c-13.4175-5.1665-29.9566-8.3377-47.8961-8.5795s-34.5581,2.4826-48.11,7.2857l-33.8016-.4555-.4543,33.7134c-.31,23,36.0639,42.14,81.2433,42.7484s82.056-17.543,82.3659-40.5435A21.5941,21.5941,0,0,0,345.8977,369.735Z"/><ellipse class="a" cx="264.7465" cy="335.7788" rx="41.6498" ry="81.8121" transform="translate(-74.5694 595.9764) rotate(-89.2279)"/><rect class="a" x="255.4694" y="380.3043" width="2.975" height="36.6915" rx="0.6738" transform="translate(5.3954 -3.4264) rotate(0.7721)"/><rect class="a" x="247.5368" y="380.1974" width="2.975" height="36.6915" rx="0.6738" transform="translate(5.3932 -3.3196) rotate(0.7721)"/><rect class="a" x="239.6043" y="380.0905" width="2.975" height="36.6915" rx="0.6738" transform="translate(5.3908 -3.2125) rotate(0.7721)"/><rect class="a" x="231.7118" y="377.0088" width="2.975" height="36.6915" rx="0.6738" transform="translate(5.3486 -3.1065) rotate(0.7721)"/><rect class="a" x="223.7926" y="375.9104" width="2.975" height="36.6915" rx="0.6738" transform="translate(5.3335 -3.0001) rotate(0.7722)"/><rect class="a" x="215.9001" y="372.8287" width="2.975" height="36.6915" rx="0.6738" transform="translate(5.291 -2.8939) rotate(0.7721)"/><rect class="a" x="207.9943" y="370.7387" width="2.975" height="36.6915" rx="0.6738" transform="translate(5.2621 -2.7876) rotate(0.7721)"/><rect class="a" x="200.1018" y="367.6571" width="2.975" height="36.6915" rx="0.6738" transform="matrix(0.9999, 0.0135, -0.0135, 0.9999, 5.2199, -2.6815)"/><rect class="a" x="193.2276" y="362.6057" width="2.975" height="36.6915" rx="0.6738" transform="translate(5.1511 -2.5893) rotate(0.7721)"/><rect class="a" x="186.3668" y="356.5627" width="2.975" height="36.6915" rx="0.6738" transform="translate(5.0689 -2.4973) rotate(0.7721)"/><rect class="a" x="263.402" y="380.4112" width="2.975" height="36.6915" rx="0.6738" transform="translate(5.3975 -3.5333) rotate(0.7721)"/><rect class="a" x="271.3346" y="380.5181" width="2.975" height="36.6915" rx="0.6738" transform="matrix(0.9999, 0.0135, -0.0135, 0.9999, 5.3997, -3.6402)"/><rect class="a" x="279.2671" y="380.625" width="2.975" height="36.6915" rx="0.6738" transform="translate(5.4018 -3.7471) rotate(0.7721)"/><rect class="a" x="287.2131" y="379.7403" width="2.975" height="36.6915" rx="0.6738" transform="matrix(0.9999, 0.0135, -0.0135, 0.9999, 5.3904, -3.8541)"/><rect class="a" x="295.1724" y="377.8641" width="2.975" height="36.6915" rx="0.6738" transform="translate(5.3662 -3.9618) rotate(0.7721)"/><rect class="a" x="302.1401" y="375.9745" width="2.975" height="36.6915" rx="0.6738" transform="translate(5.3412 -4.0557) rotate(0.7721)"/><rect class="a" x="310.0994" y="374.0982" width="2.975" height="36.6915" rx="0.6738" transform="translate(5.3167 -4.1632) rotate(0.7721)"/><rect class="a" x="318.0587" y="372.222" width="2.975" height="36.6915" rx="0.6738" transform="translate(5.2921 -4.2706) rotate(0.7721)"/><rect class="a" x="325.0398" y="369.3408" width="2.975" height="36.6915" rx="0.6738" transform="translate(5.2539 -4.3649) rotate(0.7721)"/><rect class="a" x="332.0476" y="364.4765" width="2.975" height="36.6915" rx="0.6738" transform="translate(5.1889 -4.4597) rotate(0.7721)"/><rect class="a" x="339.0554" y="359.6122" width="2.975" height="36.6915" rx="0.6738" transform="translate(5.1241 -4.5547) rotate(0.7721)"/><path class="a" d="M332.8536,328.379l.5605-41.593-27.9924-.3772c-11.1813-4.3055-24.9639-6.9481-39.9135-7.15s-28.7984,2.0688-40.0917,6.0714l-28.1679-.38-.5925,43.96c-.2583,19.1671,30.0533,35.1163,67.7028,35.6237s68.38-14.6192,68.6383-33.7862A18.0167,18.0167,0,0,0,332.8536,328.379Z"/><ellipse class="a" cx="265.4414" cy="284.2171" rx="34.7081" ry="68.1767" transform="translate(-22.3269 545.8043) rotate(-89.2279)"/><path class="a" d="M124.9171,262.0522a8.9847,8.9847,0,0,1-5.3861-16.0871l52.1149-40.3662a8.9844,8.9844,0,1,1,11.0033,14.2059l-52.1148,40.3663A8.9475,8.9475,0,0,1,124.9171,262.0522Z"/><path class="a" d="M324.1511,416.613a6.1476,6.1476,0,0,1-4.5607-10.1721L422.3476,287.8237a6.1473,6.1473,0,1,1,9.2926,8.05L328.883,414.4911A6.1332,6.1332,0,0,1,324.1511,416.613Z"/><path class="a" d="M325.0137,499.6213a6.15,6.15,0,0,1-5.4-8.92L506.08,121.6191a6.1475,6.1475,0,0,1,10.9742,5.5439L330.5882,496.2451A6.1479,6.1479,0,0,1,325.0137,499.6213Z"/><polygon class="a" points="83.106 457.3 173.042 406.941 271.571 454.881 230.569 480.114 266.977 501.431 228.95 526.704 83.106 457.3"/><polygon class="a" points="326.525 498.267 283.513 525.456 285.183 401.51 328.195 374.32 326.525 498.267"/><polygon class="a" points="264.494 391.313 285.183 401.51 328.195 374.32 307.506 364.124 264.494 391.313"/><polygon class="a" points="283.513 525.456 262.824 515.26 264.494 391.313 285.183 401.51 283.513 525.456"/><path class="a" d="M258.0847,315.4179c-.121-.0016-.241-.0058-.3628-.0122-1.8063-.096-44.3955-2.6967-58.8127-32.53-14.2671-29.5241-1.8089-69.4753,31-99.4135,15.8024-14.42,19.7723-41.7672,22.3992-59.8633a138.0221,138.0221,0,0,1,2.8623-15.8881c3.1918-11.3543,10.2811-19.6611,19.4491-22.79,6.4269-2.1946,16.7519-2.8348,29.4242,6.5788a8.9847,8.9847,0,0,1-10.7167,14.4241c-3.5355-2.6265-8.645-5.4516-12.9042-3.997-3.4352,1.1727-6.4086,5.1532-7.9531,10.6473a130.5594,130.5594,0,0,0-2.3789,13.6067c-2.9945,20.6287-7.52,51.8035-28.0705,70.5554-31.0559,28.3383-35.9045,59.756-26.9329,78.3213,9.7822,20.2413,43.2693,22.3862,43.6062,22.4055a8.9848,8.9848,0,0,1-.61,17.9549Z"/><ellipse class="a" cx="310.7143" cy="530.7816" rx="40.2264" ry="26.994" transform="translate(-303.1465 568.826) rotate(-63.2021)"/><ellipse class="a" cx="317.5885" cy="535.833" rx="37.6831" ry="25.2874" transform="translate(-303.8804 577.7359) rotate(-63.2021)"/><ellipse class="a" cx="317.5885" cy="535.833" rx="27.5078" ry="18.4592" transform="translate(-303.8804 577.7359) rotate(-63.2021)"/><path class="a" d="M254.4,597.8378l-1.0033-17.9412-.0952.0061c2.9625-.2323,17.7247-2.4381,17.337-23.09-.6071-32.3959,1.8818-57.3883,16.1459-81.85,9.0079-15.4462,20.7525-86.8806,26.4493-131.1274.01-.0811.0216-.1623.0347-.2431a55.87,55.87,0,0,0-14.8666-43.298C281.6876,282.3417,154.3689,209.4964,105.08,182.0192c-3.6216-.6206-11.4547-.9977-16.5136,2.8373-3.9334,2.9814-6.0921,8.47-6.4158,16.3122-1.432,34.71-.705,50.5994-.6978,50.7558a8.9844,8.9844,0,0,1-17.9475.8751c-.0326-.665-.7809-16.694.6919-52.3721.5585-13.5417,5.1558-23.6363,13.6636-30.0037,13.4082-10.0352,30.6473-6.1182,32.5676-5.6392a8.996,8.996,0,0,1,2.1959.8676C130.6852,175.71,289.71,264.5887,311.5531,288.0492c23.5751,25.3208,19.8889,55.4024,19.4915,58.1614-1.5484,12.0188-15.0494,114.3306-28.7376,137.8039-12.1517,20.8378-14.2521,43.1749-13.7028,72.461.376,20.013-8.8982,30.2716-16.744,35.3531A38.5919,38.5919,0,0,1,254.4,597.8378Z"/><ellipse class="a" cx="147.7518" cy="627.7605" rx="18.8416" ry="32.229" transform="translate(-481.9427 767.0395) rotate(-89.2279)"/><ellipse class="a" cx="224.2365" cy="618.8737" rx="18.8416" ry="32.229" transform="translate(-397.6028 834.7502) rotate(-89.2279)"/><path class="a" d="M117.6845,592.89l-.2384,17.6854a18.64,18.64,0,0,0,6.2114,14.2482c4.8991,4.3248,13.2441,8.7412,26.9637,8.9261,27.1541.3659,25.4233-20.4842,56.5468-16.0977,26.5191,3.7375,39.2429,1.5289,47.4952-5.8865a12.2513,12.2513,0,0,0,4.0052-8.96l.187-13.8714Z"/><path class="a" d="M150.8609,566.6635c-10.2156,3.2243-20.2491,7.1752-27.4914,15.0684-6.0241,6.5655-7.4027,12.8724-3.5567,21.85,8.0124,18.7032,39.449,16.4,52.4463,8.6409s29.8942-10.5064,42.7044-4.3833,38.7114-2.4535,42.838-14.2989-6.8723-26.9118-41.2183-32.2916C188.8726,556.9086,166.9912,561.5724,150.8609,566.6635Z"/><path class="a" d="M2.4945,479.7061,1.503,553.2724a32.5842,32.5842,0,0,0,7.0652,20.8068c9.9,12.3784,32.7574,33.0679,84.1247,54.9228l.6815-50.57S147.51,608.914,203.1181,603.7129c55.327-5.1748,63.0169-39.8126,59.2511-54.74Z"/><path class="a" d="M262.339,548.6822c.1668-12.3808-7.6525-23.6375-20.2791-31.6439l.0009-.0093-.09-.0481a68.7594,68.7594,0,0,0-8.3532-4.4844L113.3664,447.94a68.7582,68.7582,0,0,0-10.1619-5.4553l-.0635-.0341-.008.0027a90.9446,90.9446,0,0,0-34.8631-7.172c-35.852-.4832-65.191,18.1862-65.75,41.7552l-.0114.0039s-2.5632,28.2518,43.8857,55.1377c40.3471,23.3541,99.6756,67.8225,163.0259,57.89a83.95,83.95,0,0,0,26.8857-7.6466l.0243-.01,0-.0026C251.9648,574.7719,262.1518,562.5682,262.339,548.6822Z"/><rect class="a" x="172.4742" y="267.2998" width="29.7498" height="69.4163" rx="3" transform="translate(4.0867 -2.4972) rotate(0.7721)"/><rect class="a" x="157.6606" y="301.6646" width="69.2906" height="0.9457" transform="translate(-112.3956 490.3544) rotate(-89.2279)"/><rect class="a" x="146.7532" y="301.5176" width="69.2906" height="0.9457" transform="translate(-123.0091 479.303) rotate(-89.2279)"/><rect class="a" x="252.3104" y="304.0787" width="29.7498" height="69.4163" rx="3" transform="translate(4.5896 -3.5697) rotate(0.7721)"/><rect class="a" x="237.4968" y="338.4436" width="69.2906" height="0.9457" transform="translate(-70.4109 606.4668) rotate(-89.2279)"/><rect class="a" x="226.5894" y="338.2966" width="69.2906" height="0.9457" transform="translate(-81.0243 595.4153) rotate(-89.2279)"/><path class="a" d="M185.406,299.0065l-.6147,45.6122s23.437,27.0932,69.0626,26.7163l.5078-37.68Z"/><path class="a" d="M197.4118,291.2343l-12.0058,7.7722s22.3919,31.046,68.9557,34.6488l.2-14.8736S217.8874,317.2957,197.4118,291.2343Z"/><ellipse class="a" cx="173.407" cy="490.2528" rx="33.7165" ry="52.0622" transform="translate(-319.138 657.0377) rotate(-89.2279)"/><path class="a" d="M122.2268,336.5512H226.3512a0,0,0,0,1,0,0V489.4848a23.5821,23.5821,0,0,1-23.5821,23.5821h-56.96a23.5821,23.5821,0,0,1-23.5821-23.5821V336.5512a0,0,0,0,1,0,0Z" transform="translate(5.7404 -2.3101) rotate(0.7721)"/><ellipse class="a" cx="175.4783" cy="336.5592" rx="33.7165" ry="52.0622" transform="translate(-163.415 507.4863) rotate(-89.2279)"/><polygon class="b" points="103.873 308.932 159.68 294.595 157.685 364.547 165.636 360.105 164.636 500.105 113.122 527.345 94.636 471.105 103.873 308.932"/><polygon class="c" points="100.556 560.677 49.961 531.244 66.372 521.538 116.555 550.975 100.556 560.677"/><polygon class="c" points="66.372 521.538 50.373 531.24 50.921 490.586 66.92 480.884 66.372 521.538"/><polygon class="c" points="116.555 550.975 100.556 560.677 101.104 520.023 117.103 510.321 116.555 550.975"/><path class="a" d="M163.6245,532.4787a93.5888,93.5888,0,0,1-37.7435-8.6517,3.31,3.31,0,0,1,2.9818-5.91h0c.4065.2043,41.0753,20.1491,76.0013-4.6241a3.31,3.31,0,0,1,3.8306,5.4A74.7778,74.7778,0,0,1,163.6245,532.4787Z"/><polyline class="d" points="42.101 409.175 103.123 443.789 165.056 410.832"/><polygon class="c" points="42.101 359.175 40.87 500.525 101.922 532.904 103.123 393.789 42.101 359.175"/><polygon class="c" points="166.209 360.679 163.825 502.182 101.922 532.904 103.123 393.789 166.209 360.679"/><ellipse class="a" cx="180.6514" cy="541.4256" rx="14.3791" ry="24.2957" transform="translate(-363.1594 714.7646) rotate(-89.2279)"/><ellipse class="a" cx="180.7316" cy="535.4762" rx="14.3791" ry="19.3374" transform="translate(-357.1314 708.9755) rotate(-89.2279)"/><path class="a" d="M189.3109,450.7971l-14.8736-.2-.9621,71.3932.2438.0032a2.2676,2.2676,0,0,0-.2572.9883c-.03,2.1906,3.2762,4.0112,7.3834,4.0665s7.4607-1.6755,7.49-3.866a2.267,2.267,0,0,0-.23-.9949l.2438.0033Z"/><ellipse class="a" cx="181.8741" cy="450.6968" rx="3.9666" ry="7.4375" transform="translate(-271.2326 626.4811) rotate(-89.2279)"/><path class="a" d="M314.9511,62.8212H570.9657a0,0,0,0,1,0,0V79.6147a0,0,0,0,1,0,0H314.9511a3.8034,3.8034,0,0,1-3.8034-3.8034V66.6246A3.8034,3.8034,0,0,1,314.9511,62.8212Z" transform="translate(91.7797 -207.3652) rotate(29.4034)"/><ellipse class="a" cx="553.0546" cy="134.3422" rx="9.0552" ry="4.9583" transform="translate(195.6422 577.2571) rotate(-64.7513)"/><circle class="a" cx="308.1924" cy="92.3934" r="4.9583"/><rect class="a" x="431.7104" y="109.0959" width="52.3997" height="99.6627" transform="translate(137.012 -204.3413) rotate(29.4034)"/><rect class="a" x="289.1002" y="59.0354" width="158.8468" height="99.3353" transform="translate(100.8398 -166.926) rotate(29.4034)"/><rect class="a" x="364.7698" y="81.9585" width="8.925" height="13.8833" rx="1.875" transform="translate(81.7882 -159.3167) rotate(27.2742)"/><rect class="a" x="332.986" y="85.4972" width="8.925" height="13.8833" rx="1.875" transform="translate(79.8762 -144.3584) rotate(27.2742)"/><rect class="a" x="383.2087" y="111.9596" width="8.925" height="13.8833" rx="1.875" transform="translate(97.5861 -164.4309) rotate(27.2742)"/><polygon class="b" points="106.674 217.118 51.221 247.61 49.737 357.675 103.873 388.157 158.81 359.145 160.293 249.08 106.674 217.118"/><g class="e"><ellipse class="c" cx="103.4398" cy="351.2205" rx="31.125" ry="16.875"/><path class="c" d="M137.22,277.4774H68.91s16.9047,74.8593,16.9047,75.2431c0,3.607,7.8909,6.5311,17.625,6.5311s17.625-2.9241,17.625-6.5311C121.0648,352.3367,137.22,277.4774,137.22,277.4774Z"/><ellipse class="c" cx="103.0648" cy="274.8455" rx="34.5" ry="18.75"/><path class="c" d="M92.5648,250.8455l-1.5,25.5s3,3.75,12,3.75,12.75-3.75,12.75-3.75l-1.5-25.5Z"/><ellipse class="c" cx="103.4398" cy="250.8455" rx="11.1" ry="6"/><polygon class="c" points="80.565 362.845 88.815 340.345 90.14 357.003 80.565 362.845"/><polygon class="c" points="126.14 362.845 117.89 340.345 116.565 357.003 126.14 362.845"/></g><polygon class="d" points="106.674 217.118 51.221 247.611 105.329 280.076 160.293 249.08 106.674 217.118"/><polygon class="d" points="51.221 247.611 49.737 357.675 103.873 388.157 105.329 280.076 51.221 247.611"/><polygon class="d" points="160.293 249.08 158.81 359.145 103.873 388.157 105.329 280.076 160.293 249.08"/><path class="c" d="M129.68,418.0905a3.3071,3.3071,0,0,1-1.8285-.5806l-11.7914-8.093a3.31,3.31,0,1,1,3.7461-5.4582l10.0489,6.8968,29.4041-15.4292-7.0559-4.244a3.31,3.31,0,1,1,3.4127-5.6728l11.8057,7.1013a3.31,3.31,0,0,1-.0184,5.684l-35.9908,19.3335A3.3081,3.3081,0,0,1,129.68,418.0905Z"/><polygon class="d" points="105.293 324.231 42.782 358.605 103.805 393.219 165.737 360.262 105.293 324.231"/><polyline class="d" points="42.782 412.605 103.805 447.219 165.737 414.262"/><path class="a" d="M103.2921,255.7919a8.9887,8.9887,0,0,1-8.4958-11.5194c.212-.7146,5.3541-17.72,20.6594-36.7864,14.0238-17.47,39.6925-40.2332,82.3416-49.4719C269.8816,142.4,378.8159,118.8026,426.5879,70.4031c34.1008-34.5484,64.1-51.51,89.0575-50.43,13.797.5991,25.5,6.583,34.7865,17.7861,26.6686,32.1748-6.177,76.5946-7.5878,78.47a8.9847,8.9847,0,0,1-14.3577-10.8054c.25-.3345,25.7221-34.95,8.1116-56.1972-5.9932-7.23-13.1018-10.9264-21.7321-11.3011-13.5193-.5766-37.6435,6.7589-75.4891,45.1007-51.53,52.206-159.1757,75.524-237.7761,92.55-29.8142,6.4587-53.9161,20.7724-71.6354,42.5435-13.3377,16.388-17.9017,31.1314-17.9461,31.2786A9.008,9.008,0,0,1,103.2921,255.7919Z"/><rect class="a" x="508.0323" y="110.7413" width="38.2268" height="8.7412" transform="translate(124.4192 -243.9768) rotate(29.4034)"/><line class="f" x1="382.0774" y1="439.3784" x2="165.4098" y2="438.2452"/><path class="g" d="M165.4335,433.7336a4.5117,4.5117,0,1,0,4.4881,4.5353A4.5122,4.5122,0,0,0,165.4335,433.7336Z"/><text class="h" transform="translate(395.2236 448.334)">Recipiente de <tspan x="0" y="27">partículas </tspan><tspan x="0" y="54">gruesas</tspan></text><line class="f" x1="89.3102" y1="134.6055" x2="88.1771" y2="257.6055"/><path class="g" d="M83.6656,257.5639a4.5117,4.5117,0,1,0,4.5531-4.47A4.5122,4.5122,0,0,0,83.6656,257.5639Z"/><text class="h" transform="translate(56.101 118.334)">Ciclón</text></svg>