<svg xmlns="http://www.w3.org/2000/svg" viewBox="0 0 241.5806 246.1945"><defs><style>.a{font-size:26px;font-family:Lato-Italic, Lato;font-style:italic;}.a,.j{fill:#606060;}.b,.c,.d{fill:#d91519;}.b{opacity:0.19;}.c{opacity:0.45;}.e,.f{fill:#fff;}.e,.f,.h{stroke:#d91519;}.e,.g,.h,.i{stroke-linecap:round;}.e,.f,.g,.h,.i{stroke-linejoin:round;}.e,.f,.g,.h{stroke-width:3px;}.g,.h,.i{fill:none;}.g{stroke:#fff;}.i{stroke:#606060;stroke-width:2px;}</style></defs><title>ciclon</title><text class="a" transform="translate(0.7983 98.3144)">Entrada<tspan x="17.3813" y="27">lateral</tspan></text><path class="b" d="M220.1992,48.1713l4.0161,22.5864-13.4892,7.4516,1.2629-3.3881.6613-2.1464c-23.2708-10.7687-47.9376-10.6586-63.85-7.8036-1.4672.2632-2.64-1.3827-1.78-2.4891l11.16-14.3587a3.4462,3.4462,0,0,1,2.0247-1.2535c14.0015-2.939,35.9337-2.5015,58.0926,7.5734l.6749-2.1908Z"/><polygon class="c" points="199.48 239.858 199.48 206.768 181.879 206.768 181.879 239.858 177.654 239.858 190.327 246.195 203 239.858 199.48 239.858"/><circle class="d" cx="192.3532" cy="219.9949" r="1.2401"/><circle class="d" cx="189.3532" cy="238.9949" r="1.2401"/><circle class="d" cx="195.5994" cy="235.3926" r="1.2401"/><circle class="d" cx="186.5994" cy="233.3926" r="1.2401"/><circle class="d" cx="195.5994" cy="225.3926" r="1.2401"/><circle class="d" cx="191.5994" cy="230.3926" r="1.2401"/><circle class="d" cx="190.1566" cy="212.7479" r="1.2401"/><circle class="d" cx="186.285" cy="225.0632" r="1.2401"/><path class="e" d="M221.1439,180.2377c9.0119,4.3822,14.6814,10.7442,14.6814,17.8241,0,13.2193-19.7657,23.9356-44.1479,23.9356s-44.148-10.7163-44.148-23.9356c0-7.0562,5.6316-13.3992,14.5909-17.78"/><path class="e" d="M176.2522,30.1576,174.1245,66.327s4.2553,5.3191,17.021,5.3191S209.23,66.327,209.23,66.327l-2.1276-36.1694Z"/><path class="f" d="M197.2863,22.203c5.9258,1.2216,10.1354,4.3224,10.1354,7.9546,0,4.7-7.049,8.51-15.7443,8.51s-15.7444-3.81-15.7444-8.51c0-3.8617,4.7583-7.1227,11.2786-8.1633"/><path class="c" d="M178.5129,93.5435c.9972.8806,1.9251,1.7,2.879,2.4481a16.8337,16.8337,0,0,0-1.9075,3.5855,12.5,12.5,0,0,0-.0495,9.79c1.3089,2.9139,2.8364,5.24,5.492,6.7314a19.274,19.274,0,0,0-1.73,4.2807,11.3593,11.3593,0,0,0,2.204,10.3169,18.7775,18.7775,0,0,0,1.5919,1.5989,10.8277,10.8277,0,0,0-1.0474,4.137,7.68,7.68,0,0,0,2.6971,5.82,13.51,13.51,0,0,0,7.1913,3.4929,1.8873,1.8873,0,0,0,.2979.023,1.739,1.739,0,0,0,1.7464-1.363,1.6545,1.6545,0,0,0-1.4527-1.8858,9.8315,9.8315,0,0,1-5.2343-2.542,4.6884,4.6884,0,0,1-1.7024-3.3944,7.824,7.824,0,0,1,.5719-2.5587,28.149,28.149,0,0,0,6.3316.625l.3062.0115c2.5344.0952,6.883-.4984,7.1158-3.3267a1.5039,1.5039,0,0,0-.0107-.3438,2.83,2.83,0,0,0-1.2608-1.9183c-2.4173-1.6794-8.0666-1.1292-10.3831-.8154a6.1319,6.1319,0,0,0-3.0948,1.3458c-.2834-.2793-.5858-.6078-.9328-.9937a8.3055,8.3055,0,0,1-1.5237-7.3334,13.9879,13.9879,0,0,1,1.63-3.9133l.044.0109,1.0737.2575a35.9612,35.9612,0,0,0,10.2515,1.3272c3.0227,0,6.6648-1.1374,7.6416-2.3867a3.31,3.31,0,0,0-.0419-3.8661c-1.1143-1.7739-3.9545-2.6417-8.9374-2.7318-2.9857-.05-7.1123,1.6-7.9072,1.9331a15.4283,15.4283,0,0,0-3.0834,1.655c-2.2074-1.0333-3.3827-2.8078-4.5679-5.4463a9.6142,9.6142,0,0,1,.1028-7.4107,13.7346,13.7346,0,0,1,1.452-2.7835,19.0822,19.0822,0,0,0,4.0078,1.6384c5.5468,1.5963,7.6035,1.5975,13.3266.9215.3031-.0358,7.4293-.9247,7.7777-4.9965a3.9744,3.9744,0,0,0-1.8524-3.8284c-3.0089-2.0026-14.3459-2.0665-17.572-1.154a17.0512,17.0512,0,0,0-6.2426,3.0155c-.8714-.6818-1.75-1.4582-2.7456-2.3369l-.52-.4588c-2.5337-2.2308-4.2794-6.1026-2.7138-9.1846a10.0432,10.0432,0,0,1,3.6317-3.6207,25.8975,25.8975,0,0,1,10.0928-3.8877,15.937,15.937,0,0,0,1.8268,3.8769c2.8433,4.3344,8.0458,6.6362,12.657,5.5971,2.5122-.5668,5.2579-2.4851,5.3507-5.36.0866-2.6865-2.213-5.0489-6.1515-6.3193a30.3268,30.3268,0,0,0-10.9224-1.3771,32.64,32.64,0,0,1-.3654-4.7849c-.0392-2.6564.0911-53.2579.2168-56.9437q.0359-1.0578.07-2.1l6.8478.1488a.7393.7393,0,0,0,.47-1.3641L192.943.1267a.8656.8656,0,0,0-.8691-.019l-8.7755,4.9a.737.737,0,0,0,.4,1.383l6.8955.15q-.0339,1.0284-.07,2.0739c-.1271,3.7216-.2584,54.3608-.2185,57.0907a35.5134,35.5134,0,0,0,.3976,5.13,29.5824,29.5824,0,0,0-11.4066,4.4226,13.176,13.176,0,0,0-4.7754,4.8911c-2.3824,4.6891.1323,9.9942,3.4765,12.9394ZM195.051,73.68q.4275-.0133.8558-.0134a26.3234,26.3234,0,0,1,8.0628,1.2454c1.77.5707,3.8218,1.7337,3.7765,3.1331-.034,1.0608-1.3727,1.9918-2.6473,2.2788-3.4779.7834-7.05-1.4755-8.7808-4.1121A12.5935,12.5935,0,0,1,195.051,73.68Zm-8.29,21.7822a14.6458,14.6458,0,0,1,4.2323-1.8321,22.3646,22.3646,0,0,1,5.163-.4384c3.836,0,8.27.4352,9.2962,1.1177.26.1731.44.34.3907.917-.061.7137-2.4734,1.7464-4.693,2.009-5.2759.6243-6.874.6243-11.8191-.8A15.8559,15.8559,0,0,1,186.7606,95.4625Zm5.1387,19.3935a19.1856,19.1856,0,0,1,6.3008-1.611c5.1627.0927,5.9326,1.0908,5.9389,1.101a1.2649,1.2649,0,0,1,.1437.3087,11.5105,11.5105,0,0,1-4.6749,1.0314A29.6986,29.6986,0,0,1,191.8993,114.856Zm2.5885,16.4419a24.8791,24.8791,0,0,1,4.2745-.02,10.5055,10.5055,0,0,1-1.92.1144l-.3069-.0115C195.7614,131.3515,195.0846,131.326,194.4878,131.2979Z"/><path class="c" d="M166.6477,189.5693l4.9691-7.4065.2471,2.078a1.8059,1.8059,0,0,1,.353-.0486c17.8873-.5849,33.2313-5.5427,42.52-11.8179a1.577,1.577,0,0,1,2.5218,1.3787l-2.1959,11.701a3.3784,3.3784,0,0,1-1.3091,2.0594c-8.1256,6.1606-22.0666,9.7336-39.4819,10.2428l.423,2.3735Z"/><path class="c" d="M171.321,165.62l-10.69-14.028,6.6006-9.8383.3283,2.76.0437.2454a1.7383,1.7383,0,0,1,.2164-.0275c23.8361-.8568,44.2138-9.8188,56.1442-18.936a1.535,1.535,0,0,1,2.5219,1.2809l-3.0756,16.3892a3.4421,3.4421,0,0,1-1.2294,2.0413c-10.3876,8.4017-28.733,15.7763-51.4779,16.6483l.0555.3114Z"/><path class="c" d="M166.61,123.99l-16.284-21.37,10.0553-14.9875.5,4.205.4614,2.59c30.004-1.2537,55.6332-14.5847,70.6745-26.0835,1.3869-1.06,3.49.0257,3.187,1.6386l-3.9283,20.9325a4.0364,4.0364,0,0,1-1.437,2.39c-13.0064,10.5625-36.0811,21.8581-64.5556,23.2386l.471,2.6431Z"/><path class="b" d="M215.7245,105.3749q2.0331.9492,3.9317,1.98l.7859-2.0234,1.4283-3.6767,2.2617,21.6036-13.2448,6.123,1.4224-3.1141.77-1.9824A98.7984,98.7984,0,0,0,191.9,115.55"/><path class="b" d="M208.7634,156.1c.2366.5326,2.6934,1.2553,3.9471,1.9375l.58-1.4941,1.0547-2.715,1.67,15.9528-9.78,4.5214,1.05-2.3.5687-1.4638a71.7294,71.7294,0,0,0-22.4208-7.9908S201,159.6327,208.7634,156.1Z"/><path class="g" d="M138.3191,78.3148c8.9226,8.5946,27.0254,14.48,47.9227,14.48,29.7343,0,53.8388-11.9071,53.8388-26.5953"/><path class="h" d="M175.6769,38.1034c-25.3471,2.4-46.5383,13.1714-46.5383,26.0959,0,.0489.0069.097.0075.1459h-.0075l-3.2644,11.97h12.4449c8.9226,8.5946,27.0254,14.48,47.9227,14.48,29.7343,0,53.8388-11.9071,53.8388-26.5953,0-10.9114-13.3023-20.288-32.3331-24.3886"/><rect class="e" x="125.8742" y="76.3148" width="16.3222" height="39.1734"/><line class="h" x1="142.1964" y1="115.4882" x2="148.7253" y2="107.8711"/><path class="h" d="M142.1964,76.3148s24.4815,122.8026,24.4815,123.347c0,5.1163,11.1926,9.2639,25,9.2639s24.9994-4.1476,24.9994-9.2639c0-.5444,22.9141-132.2568,22.9141-132.2568"/><polygon class="e" points="159.231 214.551 170.933 182.637 172.813 206.264 159.231 214.551"/><polygon class="e" points="223.875 214.551 212.174 182.637 210.294 206.264 223.875 214.551"/><circle class="d" cx="198.2208" cy="150.7672" r="1.2523"/><circle class="d" cx="221.1428" cy="131.1045" r="1.2523"/><circle class="d" cx="199.9115" cy="183.6894" r="1.2523"/><circle class="d" cx="208.7824" cy="180.0234" r="1.2523"/><circle class="d" cx="180.4905" cy="150.6433" r="1.2523"/><circle class="d" cx="171.4681" cy="146.0933" r="1.2523"/><circle class="d" cx="189.9666" cy="96.0384" r="1.2523"/><circle class="d" cx="175.8207" cy="159.1511" r="1.2523"/><circle class="d" cx="174.7326" cy="185.2666" r="1.2523"/><circle class="d" cx="191.997" cy="185.4126" r="1.2523"/><circle class="d" cx="184.9138" cy="189.3177" r="1.2523"/><circle class="d" cx="188.1782" cy="193.6703" r="1.2523"/><circle class="d" cx="199.0597" cy="190.4059" r="1.2523"/><circle class="d" cx="206.0597" cy="187.4059" r="1.2523"/><circle class="d" cx="201.2805" cy="99.9504" r="1.2523"/><circle class="d" cx="186.6857" cy="153.5156" r="1.2523"/><circle class="d" cx="162.5154" cy="100.1169" r="1.2523"/><circle class="d" cx="201.473" cy="142.7699" r="1.2523"/><circle class="d" cx="187.2059" cy="105.3749" r="1.2523"/><circle class="d" cx="175.677" cy="99.7275" r="1.2523"/><circle class="d" cx="211.0267" cy="85.7001" r="1.2523"/><circle class="d" cx="153.3548" cy="100.9342" r="1.2523"/><circle class="d" cx="189.4184" cy="145.8632" r="1.2523"/><circle class="d" cx="171.1888" cy="110.3291" r="1.2523"/><circle class="d" cx="168.5013" cy="155.0645" r="1.2523"/><circle class="d" cx="177.2065" cy="190.9734" r="1.2523"/><circle class="d" cx="218.3427" cy="144.1007" r="1.2523"/><circle class="d" cx="217.2546" cy="136.4837" r="1.2523"/><circle class="d" cx="213.3557" cy="96.2401" r="1.2523"/><circle class="d" cx="220.9728" cy="85.3586" r="1.2523"/><circle class="d" cx="229.678" cy="85.3586" r="1.2523"/><circle class="d" cx="211.1297" cy="138.9246" r="1.2523"/><circle class="d" cx="208.7622" cy="145.6303" r="1.2523"/><line class="i" x1="97.2742" y1="89.4057" x2="124" y2="88.2725"/><circle class="j" cx="124" cy="88.2726" r="4.5117" transform="translate(-16.9795 30.8893) rotate(-13.2982)"/></svg>