<svg xmlns="http://www.w3.org/2000/svg" viewBox="0 0 174 81"><defs><style>.a,.b,.c{fill:#fff;stroke:#d91519;stroke-linecap:round;stroke-linejoin:round;stroke-width:3px;}.b{opacity:0.2;}.c{opacity:0.4;}</style></defs><title>clock</title><rect class="a" x="1.5" y="1.5" width="171" height="78"/><line class="a" x1="41.6266" y1="14.25" x2="22.3734" y2="14.25"/><line class="a" x1="18.875" y1="17.7484" x2="18.875" y2="37.0016"/><line class="b" x1="22.3734" y1="40.5" x2="41.6266" y2="40.5"/><line class="a" x1="45.125" y1="37.0016" x2="45.125" y2="17.7484"/><line class="a" x1="18.875" y1="43.9984" x2="18.875" y2="63.2516"/><line class="a" x1="22.3734" y1="66.75" x2="41.6266" y2="66.75"/><line class="a" x1="45.125" y1="63.2516" x2="45.125" y2="43.9984"/><line class="a" x1="78.6266" y1="14.25" x2="59.3734" y2="14.25"/><line class="b" x1="55.875" y1="17.7484" x2="55.875" y2="37.0016"/><line class="b" x1="59.3734" y1="40.5" x2="78.6266" y2="40.5"/><line class="a" x1="82.125" y1="37.0016" x2="82.125" y2="17.7484"/><line class="b" x1="55.875" y1="43.9984" x2="55.875" y2="63.2516"/><line class="b" x1="59.3734" y1="66.75" x2="78.6266" y2="66.75"/><line class="a" x1="82.125" y1="63.2516" x2="82.125" y2="43.9984"/><line class="a" x1="115.6266" y1="14.25" x2="96.3734" y2="14.25"/><line class="b" x1="92.875" y1="17.7484" x2="92.875" y2="37.0016"/><line class="a" x1="96.3734" y1="40.5" x2="115.6266" y2="40.5"/><line class="a" x1="119.125" y1="37.0016" x2="119.125" y2="17.7484"/><line class="a" x1="92.875" y1="43.9984" x2="92.875" y2="63.2516"/><line class="a" x1="96.3734" y1="66.75" x2="115.6266" y2="66.75"/><line class="b" x1="119.125" y1="63.2516" x2="119.125" y2="43.9984"/><line class="a" x1="152.6266" y1="14.25" x2="133.3734" y2="14.25"/><line class="b" x1="129.875" y1="17.7484" x2="129.875" y2="37.0016"/><line class="a" x1="133.3734" y1="40.5" x2="152.6266" y2="40.5"/><line class="a" x1="156.125" y1="37.0016" x2="156.125" y2="17.7484"/><line class="c" x1="129.875" y1="43.9984" x2="129.875" y2="63.2516"/><line class="a" x1="133.3734" y1="66.75" x2="152.6266" y2="66.75"/><line class="a" x1="156.125" y1="63.2516" x2="156.125" y2="43.9984"/></svg>