<svg xmlns="http://www.w3.org/2000/svg" viewBox="0 0 607.0451 686.1105"><defs><style>.a{fill:#d91519;stroke:#fff;stroke-linecap:round;stroke-linejoin:round;stroke-width:3px;}</style></defs><title>colector_white</title><polygon class="a" points="277.286 544.105 264.703 552.493 207.033 552.493 207.033 396.259 277.286 396.259 277.286 544.105"/><rect class="a" x="450.1473" y="125.7369" width="55.4058" height="107.9593" transform="translate(144.5458 -206.9965) rotate(28.6313)"/><rect class="a" x="278.3342" y="188.646" width="196.079" height="93.321" transform="translate(158.7745 -151.5745) rotate(28.6313)"/><rect class="a" x="482.8505" y="126.5989" width="73.4791" height="224.1704" transform="translate(177.9052 -219.7866) rotate(28.6313)"/><path class="a" d="M174,340.3706a6.5,6.5,0,0,1-4.9668-10.69L275.9856,202.8061a6.5,6.5,0,0,1,9.9394,8.3789L178.9729,338.06A6.4854,6.4854,0,0,1,174,340.3706Z"/><path class="a" d="M176.0959,428.1206a6.503,6.503,0,0,1-5.8359-9.354L362.1447,25.8894a6.5,6.5,0,0,1,11.6817,5.7051L181.9416,424.4717A6.5,6.5,0,0,1,176.0959,428.1206Z"/><path class="a" d="M363.0441,389.0616V356.4141H327.5229c-14.26-5.2713-31.7911-8.3884-50.7616-8.3884S240.2594,351.1428,226,356.4141H190.2559v35.6507c0,24.3222,38.73,44.0392,86.5054,44.0392s86.5055-19.717,86.5055-44.0392A22.8571,22.8571,0,0,0,363.0441,389.0616Z"/><ellipse class="a" cx="276.7613" cy="354.317" rx="86.5054" ry="44.0391"/><rect class="a" x="267.8487" y="401.5018" width="3.1457" height="38.7964" rx="1.5"/><rect class="a" x="259.4603" y="401.5018" width="3.1457" height="38.7964" rx="1.5"/><rect class="a" x="251.0719" y="401.5018" width="3.1457" height="38.7964" rx="1.5"/><rect class="a" x="242.6834" y="398.3561" width="3.1457" height="38.7964" rx="1.5"/><rect class="a" x="234.295" y="397.3076" width="3.1457" height="38.7964" rx="1.5"/><rect class="a" x="225.9066" y="394.1619" width="3.1457" height="38.7964" rx="1.5"/><rect class="a" x="217.5182" y="392.0648" width="3.1457" height="38.7964" rx="1.5"/><rect class="a" x="209.1298" y="388.9192" width="3.1457" height="38.7964" rx="1.5"/><rect class="a" x="201.79" y="383.6764" width="3.1457" height="38.7964" rx="1.5"/><rect class="a" x="194.4501" y="377.3851" width="3.1457" height="38.7964" rx="1.5"/><rect class="a" x="276.2371" y="401.5018" width="3.1457" height="38.7964" rx="1.5"/><rect class="a" x="284.6255" y="401.5018" width="3.1457" height="38.7964" rx="1.5"/><rect class="a" x="293.0139" y="401.5018" width="3.1457" height="38.7964" rx="1.5"/><rect class="a" x="301.4023" y="400.4532" width="3.1457" height="38.7964" rx="1.5"/><rect class="a" x="309.7907" y="398.3561" width="3.1457" height="38.7964" rx="1.5"/><rect class="a" x="317.1305" y="396.259" width="3.1457" height="38.7964" rx="1.5"/><rect class="a" x="325.519" y="394.1619" width="3.1457" height="38.7964" rx="1.5"/><rect class="a" x="333.9074" y="392.0648" width="3.1457" height="38.7964" rx="1.5"/><rect class="a" x="341.2472" y="388.9192" width="3.1457" height="38.7964" rx="1.5"/><rect class="a" x="348.5871" y="383.6764" width="3.1457" height="38.7964" rx="1.5"/><rect class="a" x="355.9269" y="378.4337" width="3.1457" height="38.7964" rx="1.5"/><path class="a" d="M348.6636,345.523V301.54h-29.601c-11.883-4.3927-26.4926-6.99-42.3013-6.99s-30.4182,2.5976-42.3012,6.99H204.6735v46.4858c0,20.2685,32.2748,36.6993,72.0878,36.6993s72.0879-16.4308,72.0879-36.6993A19.0289,19.0289,0,0,0,348.6636,345.523Z"/><ellipse class="a" cx="276.7613" cy="299.7924" rx="72.0879" ry="36.6993"/><path class="a" d="M340.72,438.9343a6.5,6.5,0,0,1-4.9668-10.69L442.7053,301.37a6.5,6.5,0,1,1,9.9394,8.3789L345.6926,436.6235A6.4849,6.4849,0,0,1,340.72,438.9343Z"/><path class="a" d="M342.8147,526.6843a6.503,6.503,0,0,1-5.836-9.354l191.8858-392.877a6.5,6.5,0,0,1,11.6816,5.7051L348.66,523.0354A6.5007,6.5007,0,0,1,342.8147,526.6843Z"/><polygon class="a" points="86.449 485.386 180.819 430.861 285.674 480.143 242.683 507.405 281.48 529.425 241.635 556.687 86.449 485.386"/><polygon class="a" points="344.393 525.231 299.305 554.59 299.305 423.521 344.393 394.162 344.393 525.231"/><polygon class="a" points="277.286 413.036 299.305 423.521 344.393 394.162 322.373 383.676 277.286 413.036"/><polygon class="a" points="299.305 554.59 277.286 544.105 277.286 413.036 299.305 423.521 299.305 554.59"/><path class="a" d="M269.428,332.885c-.128,0-.2549-.0027-.3838-.0078-1.9112-.0757-46.9766-2.2185-62.6446-33.5547-15.5049-31.0117-2.9023-73.4285,31.3594-105.5488,16.502-15.471,20.31-44.441,22.8291-63.6109a145.9419,145.9419,0,0,1,2.8-16.8388c3.2129-12.05,10.59-20.9336,20.2383-24.3726,6.7637-2.4119,17.6709-3.2358,31.2031,6.5364a9.5,9.5,0,0,1-11.125,15.4028c-3.7754-2.7266-9.2178-5.6406-13.7-4.042-3.6152,1.2888-6.7021,5.54-8.2568,11.37a138.0606,138.0606,0,0,0-2.3213,14.42c-2.8721,21.8528-7.2129,54.8774-28.6729,74.9961-32.4306,30.4038-37.1093,63.69-27.3593,83.1907,10.6308,21.2612,46.0664,23.0517,46.4228,23.0673a9.5,9.5,0,0,1-.3886,18.992Z"/><ellipse class="a" cx="328.1403" cy="559.8329" rx="42.534" ry="28.5426" transform="translate(-318.9036 609.058) rotate(-63.9742)"/><ellipse class="a" cx="335.4802" cy="565.0757" rx="39.8449" ry="26.738" transform="translate(-319.4954 618.5959) rotate(-63.9742)"/><ellipse class="a" cx="335.4802" cy="565.0757" rx="29.0859" ry="19.5182" transform="translate(-319.4954 618.5959) rotate(-63.9742)"/><path class="a" d="M269.5559,631.532,268.24,612.5776l-.1006.0078c3.1289-.2878,18.7051-2.83,18.001-24.6594-1.1035-34.2427,1.1718-60.7019,15.9043-86.7681,9.3037-16.4592,20.7031-92.1521,26.0957-139.0141.01-.086.02-.1719.0332-.2576.1269-.9734,3.0693-25.2795-16.335-45.5659C293.9114,297.5781,158.2629,222.375,105.76,194.0263c-3.8379-.6044-12.125-.8916-17.419,3.2352-4.1162,3.2082-6.32,9.0415-6.5507,17.3378-1.02,36.7181-.0245,53.5074-.0147,53.6727a9.5,9.5,0,0,1-18.9629,1.1809c-.0439-.7027-1.0635-17.639-.0146-55.3814.3974-14.3252,5.1142-25.0635,14.0185-31.9167,14.0332-10.8011,32.3155-6.9053,34.3526-6.4263a9.5147,9.5147,0,0,1,2.3339.886c19.2383,10.376,188.6368,102.08,212.0655,126.5725,25.2861,26.435,21.8174,58.292,21.4365,61.2146-1.4658,12.7292-14.2822,121.093-28.42,146.1057-12.5508,22.2043-14.4531,45.8506-13.4551,76.8062.6826,21.1538-8.9766,32.132-17.1992,37.6164A40.8061,40.8061,0,0,1,269.5559,631.532Z"/><ellipse class="a" cx="157.2266" cy="664.688" rx="34.0779" ry="19.9225"/><ellipse class="a" cx="237.965" cy="654.2025" rx="34.0779" ry="19.9225"/><path class="a" d="M124.94,628.2489v18.7017a19.71,19.71,0,0,0,6.77,14.9757c5.2413,4.5026,14.1272,9.053,28.6352,9.053,28.7145,0,26.5875-22.02,59.5559-17.8253,28.0912,3.5737,41.5122,1.0573,50.1315-6.9a12.9541,12.9541,0,0,0,4.107-9.53V622.055Z"/><path class="a" d="M159.6432,600.0476c-10.7547,3.5545-21.3066,7.8747-28.8513,16.3231-6.2755,7.0273-7.6432,13.7151-3.449,23.1521,8.7378,19.66,41.942,16.7768,55.5732,8.3884s31.4565-11.5341,45.0876-5.2428,40.8935-3.1456,45.0877-15.7282-7.6494-28.3551-44.0391-33.5536C199.6929,589.1924,176.6248,594.4351,159.6432,600.0476Z"/><path class="a" d="M1.5405,510.224v77.7937a34.4536,34.4536,0,0,0,7.7662,21.8978C19.95,622.8618,44.4114,644.41,99.032,666.7851V613.309s57.67,31.4565,116.3891,25.1652c58.4219-6.2594,66.0587-42.99,61.8645-58.7188Z"/><path class="a" d="M277.25,579.4481c0-13.0922-8.4275-24.8823-21.8913-33.1673l.0008-.01-.0955-.05a72.6964,72.6964,0,0,0-8.8955-4.6222L118.31,475.0589a72.6906,72.6906,0,0,0-10.8216-5.6229l-.0676-.0352-.0084.003a96.16,96.16,0,0,0-36.962-7.0861c-37.9121,0-68.6654,20.1567-68.9212,45.0834l-.012.0043s-2.3074,29.9064,47.1848,57.67c42.9905,24.1167,106.3506,70.2865,173.1875,58.8827a88.7663,88.7663,0,0,0,28.3165-8.4677l.0256-.0107,0-.0027C266.6529,607.18,277.25,594.132,277.25,579.4481Z"/><rect class="a" x="178.7219" y="283.0156" width="31.4565" height="73.3985" rx="3"/><rect class="a" x="199.1926" y="283.1484" width="1" height="73.2656"/><rect class="a" x="187.6584" y="283.1484" width="1" height="73.2656"/><rect class="a" x="263.6545" y="320.7634" width="31.4565" height="73.3985" rx="3"/><rect class="a" x="284.1252" y="320.8962" width="1" height="73.2656"/><rect class="a" x="272.591" y="320.8962" width="1" height="73.2656"/><path class="a" d="M192.353,316.5692v48.2333s25.1652,28.3109,73.3986,27.2623V352.22Z"/><path class="a" d="M204.9356,308.1808l-12.5826,8.3884s24.1167,32.505,73.3986,35.6507V336.4916S226.9552,335.4431,204.9356,308.1808Z"/><ellipse class="a" cx="182.3918" cy="518.9395" rx="55.0489" ry="35.6507"/><path class="a" d="M127.3429,356.4141H237.4407a0,0,0,0,1,0,0V490.5562a52.5,52.5,0,0,1-52.5,52.5h-5.0979a52.5,52.5,0,0,1-52.5-52.5V356.4141A0,0,0,0,1,127.3429,356.4141Z"/><ellipse class="a" cx="182.3918" cy="356.4141" rx="55.0489" ry="35.6507"/><path class="a" d="M172.6506,563.7231a98.9563,98.9563,0,0,1-40.0283-8.6094,3.5,3.5,0,0,1,3.0683-6.2915h0c.4327.21,43.7149,20.7178,80.2881-5.9719a3.5,3.5,0,0,1,4.127,5.6543A79.0681,79.0681,0,0,1,172.6506,563.7231Z"/><ellipse class="a" cx="190.7802" cy="572.9398" rx="25.6895" ry="15.204"/><ellipse class="a" cx="190.7802" cy="566.6485" rx="20.4467" ry="15.204"/><path class="a" d="M198.6443,476.9974H182.9161v75.4957h.2577a2.3965,2.3965,0,0,0-.2577,1.0485c0,2.3165,3.5209,4.1942,7.8641,4.1942s7.8641-1.8777,7.8641-4.1942a2.3952,2.3952,0,0,0-.2578-1.0485h.2578Z"/><ellipse class="a" cx="190.7802" cy="476.9974" rx="7.8641" ry="4.1942"/><rect class="a" x="299.2667" y="74.2407" width="167.9594" height="105.034" transform="translate(107.6014 -168.1409) rotate(28.6313)"/><path class="a" d="M330.5053,63.2137H596.7611a0,0,0,0,1,0,0V80.9706a0,0,0,0,1,0,0H330.5053a8.4673,8.4673,0,0,1-8.4673-8.4673v-.8222a8.4673,8.4673,0,0,1,8.4673-8.4673Z" transform="translate(90.7192 -211.3157) rotate(28.6313)"/><rect class="a" x="378.995" y="98.4706" width="9.437" height="14.6797" rx="1.875" transform="translate(87.537 -160.1057) rotate(26.5021)"/><rect class="a" x="345.4414" y="102.6648" width="9.437" height="14.6797" rx="1.875" transform="translate(85.8828 -144.6923) rotate(26.5021)"/><rect class="a" x="398.9175" y="129.9271" width="9.437" height="14.6797" rx="1.875" transform="translate(103.6674 -165.6902) rotate(26.5021)"/><ellipse class="a" cx="578.7112" cy="137.2358" rx="9.5747" ry="5.2428" transform="translate(214.0361 607.0788) rotate(-65.5234)"/><circle class="a" cx="319.2276" cy="96.3735" r="5.2428"/><path class="a" d="M120.8733,282.36a9.5,9.5,0,0,1-5.9239-16.9316l54.5245-43.4207A9.5,9.5,0,1,1,181.31,236.8708l-54.5244,43.4207A9.46,9.46,0,0,1,120.8733,282.36Z"/><polygon class="a" points="106.372 594.435 52.46 564.037 69.673 553.542 123.149 583.95 106.372 594.435"/><polygon class="a" points="69.673 553.542 52.896 564.027 52.896 521.037 69.673 510.551 69.673 553.542"/><polygon class="a" points="123.149 583.95 106.372 594.435 106.372 551.445 123.149 540.959 123.149 583.95"/><polygon class="a" points="108.011 397.856 42.41 435.089 107.42 470.816 172.431 435.089 108.011 397.856"/><polygon class="a" points="42.41 435.089 42.41 531.689 107.42 565.052 107.42 470.816 42.41 435.089"/><polygon class="a" points="172.431 435.089 172.431 531.689 107.42 565.052 107.42 470.816 172.431 435.089"/><polygon class="a" points="108.011 344.38 42.41 381.613 107.42 417.34 172.431 381.613 108.011 344.38"/><polygon class="a" points="42.41 381.613 42.41 439.416 107.42 472.779 107.42 417.34 42.41 381.613"/><polygon class="a" points="172.431 381.613 172.431 439.416 107.42 472.779 107.42 417.34 172.431 381.613"/><polygon class="a" points="107.945 231.112 49.75 264.142 107.42 297.695 165.091 264.142 107.945 231.112"/><polygon class="a" points="49.75 264.142 49.75 380.531 107.42 411.987 107.42 297.695 49.75 264.142"/><polygon class="a" points="165.091 264.142 165.091 380.531 107.42 411.987 107.42 297.695 165.091 264.142"/><path class="a" d="M137.3039,447.468a3.4959,3.4959,0,0,1-1.9414-.5879l-12.582-8.3884a3.5,3.5,0,0,1,3.8828-5.8242l10.7227,7.1486,30.84-18.8464-7.52-4.3865a3.5,3.5,0,1,1,3.5273-6.0464l12.583,7.34a3.5,3.5,0,0,1,.0616,6.01l-37.7481,23.0681A3.4991,3.4991,0,0,1,137.3039,447.468Z"/><path class="a" d="M100.6057,271.0063a9.5043,9.5043,0,0,1-9.1465-12.0581c.2139-.7585,5.4082-18.8115,21.3184-39.1875,14.5781-18.67,41.3925-43.103,86.3525-53.4785,75.99-17.5359,190.8271-44.0366,240.6455-95.8887,35.5615-37.0129,67.0371-55.3735,93.44-54.5871,14.5957.4367,27.0546,6.5967,37.0322,18.3091,28.6543,33.6374-5.4395,81.0693-6.9043,83.072a9.5,9.5,0,0,1-15.334-11.22c.26-.3572,26.6973-37.3184,7.7754-59.5313-6.4395-7.5583-14.0078-11.3655-23.1377-11.6387-14.3018-.417-39.7031,7.6824-79.17,48.7593-53.7373,55.93-167.2158,82.1174-250.0752,101.2385-31.43,7.2535-56.708,22.73-75.1319,46.0008-13.8681,17.5166-18.4833,33.1694-18.5283,33.3256A9.5246,9.5246,0,0,1,100.6057,271.0063Z"/><rect class="a" x="530.8345" y="112.652" width="40.4198" height="9.2427" transform="translate(123.5749 -249.7046) rotate(28.6313)"/></svg>