<svg xmlns="http://www.w3.org/2000/svg" viewBox="0 0 685.5278 322.0864"><defs><style>.a,.b{fill:#fff;}.a,.d{stroke:#c4c4c4;}.a,.b,.c,.d,.e{stroke-linecap:round;stroke-linejoin:round;}.a,.b,.c,.d{stroke-width:3px;}.b,.c{stroke:#d91519;}.c,.d,.e{fill:none;}.e{stroke:#606060;stroke-width:2px;}.f,.g{fill:#606060;}.g{font-size:26px;font-family:Lato-Italic, Lato;font-style:italic;}</style></defs><title>pulidora-bot</title><rect class="a" x="434.5567" y="120.9456" width="87.136" height="18.7508" transform="translate(-16.7871 104.8438) rotate(-12.2997)"/><path class="a" d="M423.5268,230.1414S447.833,233.5009,465.44,255.51c22.06,27.5747,50.7374,66.1793,92.651,34.1927l-12.1329-15.4419s-28.6777,6.618-41.9135-9.9269c-12.0334-15.0417-34.1927-49.6344-69.4883-50.7374"/><rect class="a" x="593.387" y="51.4574" width="15.4418" height="44.1195"/><path class="a" d="M399.3381,235.3261a64.7262,64.7262,0,0,0,6.5409.33,63.9733,63.9733,0,0,0,0-127.9466,64.7033,64.7033,0,0,0-6.855.3629Z"/><polygon class="a" points="387.128 118.204 405.879 144.108 405.879 197.052 387.128 224.075 387.128 118.204"/><rect class="a" x="347.4207" y="93.3709" width="22.0598" height="153.3153"/><rect class="a" x="365.0685" y="93.3709" width="22.0598" height="153.3153"/><path class="a" d="M313.2281,227.9354h20.9568a0,0,0,0,1,0,0v83.151a9.5,9.5,0,0,1-9.5,9.5H322.728a9.5,9.5,0,0,1-9.5-9.5v-83.151a0,0,0,0,1,0,0Z"/><rect class="a" x="316.537" y="264.334" width="20.9568" height="56.2524" rx="9.5" transform="translate(58.1574 -54.2203) rotate(10.3984)"/><rect class="a" x="309.5766" y="237.1781" width="20.9568" height="51.3744" rx="9.5" transform="translate(-94.0954 259.2813) rotate(-38.9009)"/><path class="a" d="M322.728,26.0886h1.9568a9.5,9.5,0,0,1,9.5,9.5V118.74a0,0,0,0,1,0,0H313.2281a0,0,0,0,1,0,0V35.5886a9.5,9.5,0,0,1,9.5-9.5Z"/><rect class="a" x="316.537" y="26.0886" width="20.9568" height="56.2524" rx="9.5" transform="translate(-4.4146 59.914) rotate(-10.3984)"/><rect class="a" x="309.5766" y="58.1226" width="20.9568" height="51.3744" rx="9.5" transform="translate(123.6079 -182.4003) rotate(38.9009)"/><path class="b" d="M369.48,111.0187H320.56a66.7347,66.7347,0,0,0-66.3421-59.5613h0a66.7306,66.7306,0,0,0-66.7307,66.7307v106.99a66.7306,66.7306,0,0,0,66.7307,66.7307h0a66.7275,66.7275,0,0,0,66.4437-60.6643H369.48Z"/><circle class="b" cx="236.0189" cy="258.8191" r="25.3687"/><rect class="b" x="212.8562" y="262.1281" width="23.1627" height="7.7209"/><rect class="b" x="223.886" y="241.1713" width="23.1627" height="7.7209" transform="translate(-102.4212 281.3191) rotate(-52.2701)"/><rect class="b" x="236.0189" y="261.0251" width="23.1627" height="7.7209" transform="translate(126.2244 606.5552) rotate(-117.3745)"/><circle class="b" cx="294.4773" cy="227.9354" r="25.3687"/><rect class="b" x="271.3145" y="231.2444" width="23.1627" height="7.7209"/><rect class="b" x="282.3444" y="210.2876" width="23.1627" height="7.7209" transform="matrix(0.6119, -0.7909, 0.7909, 0.6119, -55.3098, 315.5693)"/><rect class="b" x="294.4773" y="230.1414" width="23.1627" height="7.7209" transform="translate(238.9875 613.3833) rotate(-117.3745)"/><circle class="b" cx="237.1219" cy="192.6398" r="25.3687"/><rect class="b" x="213.9591" y="195.9488" width="23.1627" height="7.7209"/><rect class="b" x="224.989" y="174.992" width="23.1627" height="7.7209" transform="translate(-49.6517 256.5099) rotate(-52.2701)"/><rect class="b" x="237.1219" y="194.8458" width="23.1627" height="7.7209" transform="translate(186.6031 510.9258) rotate(-117.3745)"/><circle class="b" cx="275.7265" cy="150.7263" r="25.3687"/><rect class="b" x="252.5637" y="154.0352" width="23.1627" height="7.7209"/><rect class="b" x="263.5936" y="133.0785" width="23.1627" height="7.7209" transform="translate(-1.5212 270.7775) rotate(-52.2701)"/><rect class="b" x="275.7265" y="152.9323" width="23.1627" height="7.7209" transform="translate(280.1783 484.0219) rotate(-117.3745)"/><circle class="b" cx="219.4741" cy="117.6366" r="25.3687"/><rect class="b" x="196.3113" y="120.9456" width="23.1627" height="7.7209"/><rect class="b" x="207.3412" y="99.9888" width="23.1627" height="7.7209" transform="translate(2.8202 213.4465) rotate(-52.2701)"/><rect class="b" x="219.4741" y="119.8426" width="23.1627" height="7.7209" transform="translate(227.4451 385.7642) rotate(-117.3745)"/><circle class="b" cx="275.7265" cy="84.547" r="25.3687"/><rect class="b" x="252.5637" y="87.856" width="23.1627" height="7.7209"/><rect class="b" x="263.5936" y="66.8992" width="23.1627" height="7.7209" transform="translate(50.8202 245.0959) rotate(-52.2701)"/><rect class="b" x="275.7265" y="86.753" width="23.1627" height="7.7209" transform="translate(338.9468 387.413) rotate(-117.3745)"/><path class="c" d="M220.99,212.2192s10.3394,12.3463,0,26.1641"/><path class="c" d="M260.0422,266.4182s2.692-15.8772,19.9154-16.9687"/><path class="c" d="M283.4248,205.2885s-16.1019.2492-20.3167-16.4861"/><path class="c" d="M230.4319,140.53s16.1019-.2492,20.3167,16.4861"/><path class="c" d="M249.9656,82.5515s-7.5091,14.2459-24.2139,9.9117"/><path class="c" d="M292.3739,131.2716s-10.9059-11.8488-1.2245-26.1354"/><rect class="a" x="347.4207" y="84.547" width="60.6643" height="18.7508"/><rect class="a" x="347.4207" y="240.0683" width="60.6643" height="18.7508"/><circle class="a" cx="379.4073" cy="171.6831" r="15.4418"/><rect class="a" x="363.9655" y="265.437" width="157.7273" height="6.6179"/><rect class="a" x="369.4804" y="258.8191" width="157.7273" height="6.6179"/><rect class="a" x="363.9655" y="70.2082" width="157.7273" height="6.6179"/><rect class="a" x="369.4804" y="76.8261" width="237.1424" height="6.6179"/><line class="d" x1="408.085" y1="107.7098" x2="408.085" y2="171.6831"/><line class="d" x1="420.4333" y1="108.9128" x2="408.085" y2="171.6831"/><line class="d" x1="432.3171" y1="112.4767" x2="408.085" y2="171.6831"/><line class="d" x1="443.2895" y1="118.2674" x2="408.085" y2="171.6831"/><line class="d" x1="452.9378" y1="126.0672" x2="408.085" y2="171.6831"/><line class="d" x1="460.8992" y1="135.5826" x2="408.085" y2="171.6831"/><line class="d" x1="466.8742" y1="146.4558" x2="408.085" y2="171.6831"/><line class="d" x1="470.6381" y1="158.2778" x2="408.085" y2="171.6831"/><line class="d" x1="472.0492" y1="170.604" x2="408.085" y2="171.6831"/><line class="d" x1="471.0546" y1="182.9708" x2="408.085" y2="171.6831"/><line class="d" x1="467.6917" y1="194.913" x2="408.085" y2="171.6831"/><line class="d" x1="462.0868" y1="205.9815" x2="408.085" y2="171.6831"/><line class="d" x1="454.451" y1="215.7601" x2="408.085" y2="171.6831"/><line class="d" x1="445.0712" y1="223.8808" x2="408.085" y2="171.6831"/><line class="d" x1="434.3003" y1="230.0383" x2="408.085" y2="171.6831"/><line class="d" x1="422.5435" y1="234.0011" x2="408.085" y2="171.6831"/><line class="d" x1="410.2429" y1="235.62" x2="408.085" y2="171.6831"/><rect class="a" x="405.879" y="166.1681" width="44.1195" height="11.0299"/><rect class="a" x="493.0151" y="82.341" width="67.2823" height="176.4781"/><rect class="a" x="560.2974" y="82.341" width="108.0928" height="176.4781"/><rect class="a" x="516.1778" y="257.7161" width="47.4285" height="31.9867"/><rect class="a" x="563.6063" y="257.7161" width="80.5181" height="31.9867"/><line class="e" x1="139.9526" y1="263.5864" x2="210.9526" y2="262.9089"/><path class="f" d="M210.9957,267.42a4.5117,4.5117,0,1,0-4.5545-4.4684A4.5121,4.5121,0,0,0,210.9957,267.42Z"/><text class="g" transform="translate(19.3691 269.3145)">Elemento<tspan x="26.1948" y="27">pulidor</tspan></text><line class="e" x1="140.9526" y1="142.5864" x2="186.9526" y2="141.9089"/><path class="f" d="M187.0191,146.42a4.5117,4.5117,0,1,0-4.5777-4.4448A4.5121,4.5121,0,0,0,187.0191,146.42Z"/><text class="g" transform="translate(50.9717 148.3145)">Chasis<tspan x="-50.9717" y="27">de pulidora</tspan></text><text class="g" transform="translate(546.0405 22.3145)">Vista inferior</text></svg>