<svg xmlns="http://www.w3.org/2000/svg" viewBox="0 0 530.1615 592.5049"><defs><style>.a,.b{fill:#fff;stroke-linecap:round;stroke-linejoin:round;stroke-width:3px;}.a{stroke:#c4c4c4;}.b{stroke:#d91519;}</style></defs><title>pulidora-iso</title><rect class="a" x="244.8859" y="164.8" width="169.5211" height="80.6812" transform="translate(143.1784 -135.4165) rotate(29.4034)"/><polygon class="a" points="240.39 470.935 229.414 478.04 179.56 477.368 181.38 342.307 242.112 343.126 240.39 470.935"/><rect class="a" x="421.6509" y="112.8251" width="63.5268" height="193.8076" transform="translate(161.3742 -195.5899) rotate(29.4034)"/><path class="a" d="M153.4753,293.6083a5.62,5.62,0,0,1-4.1691-9.2988l93.9357-108.4342a5.62,5.62,0,0,1,8.4949,7.3591L157.801,291.6687A5.6067,5.6067,0,0,1,153.4753,293.6083Z"/><path class="a" d="M154.2647,369.4906a5.6222,5.6222,0,0,1-4.9361-8.1543L319.7857,23.9387a5.62,5.62,0,0,1,10.032,5.068L159.3607,366.4043A5.62,5.62,0,0,1,154.2647,369.4906Z"/><path class="a" d="M316.332,337.903l.38-28.223-30.7072-.4138c-12.2657-4.7231-27.385-7.622-43.7845-7.843s-31.5913,2.2694-43.98,6.66l-30.9-.4164-.4154,30.8192c-.2833,21.0259,32.968,38.522,74.2689,39.0786s75.0116-16.037,75.295-37.063A19.74,19.74,0,0,0,316.332,337.903Z"/><ellipse class="a" cx="242.1474" cy="306.8619" rx="38.0743" ry="74.7887" transform="translate(-67.9497 544.8522) rotate(-89.2279)"/><rect class="a" x="233.6668" y="347.565" width="2.7196" height="33.5416" rx="0.7236" transform="translate(4.9309 -3.134) rotate(0.7721)"/><rect class="a" x="226.4152" y="347.4673" width="2.7196" height="33.5416" rx="0.7236" transform="translate(4.929 -3.0363) rotate(0.7721)"/><rect class="a" x="219.1636" y="347.3695" width="2.7196" height="33.5416" rx="0.7236" transform="translate(4.9268 -2.9385) rotate(0.7721)"/><rect class="a" x="211.9487" y="344.5525" width="2.7196" height="33.5416" rx="0.7236" transform="translate(4.8884 -2.8417) rotate(0.7721)"/><rect class="a" x="204.7093" y="343.5483" width="2.7196" height="33.5416" rx="0.7236" transform="translate(4.8744 -2.7443) rotate(0.7721)"/><rect class="a" x="197.4944" y="340.7312" width="2.7196" height="33.5416" rx="0.7236" transform="translate(4.8356 -2.6472) rotate(0.7721)"/><rect class="a" x="190.2673" y="338.8206" width="2.7196" height="33.5416" rx="0.7236" transform="translate(4.8092 -2.55) rotate(0.7721)"/><rect class="a" x="183.0523" y="336.0035" width="2.7196" height="33.5416" rx="0.7236" transform="translate(4.7706 -2.453) rotate(0.7721)"/><rect class="a" x="176.7683" y="331.3858" width="2.7196" height="33.5416" rx="0.7236" transform="translate(4.7078 -2.3688) rotate(0.7721)"/><rect class="a" x="170.4964" y="325.8616" width="2.7196" height="33.5416" rx="0.7236" transform="translate(4.6327 -2.2847) rotate(0.7721)"/><rect class="a" x="240.9184" y="347.6627" width="2.7196" height="33.5416" rx="0.7236" transform="translate(4.9329 -3.2317) rotate(0.7721)"/><rect class="a" x="248.17" y="347.7605" width="2.7196" height="33.5416" rx="0.7236" transform="translate(4.9349 -3.3294) rotate(0.7721)"/><rect class="a" x="255.4215" y="347.8582" width="2.7196" height="33.5416" rx="0.7236" transform="translate(4.9369 -3.4272) rotate(0.7721)"/><rect class="a" x="262.6853" y="347.0495" width="2.7196" height="33.5416" rx="0.7236" transform="translate(4.9264 -3.5249) rotate(0.7721)"/><rect class="a" x="269.9613" y="345.3343" width="2.7196" height="33.5416" rx="0.7236" transform="translate(4.9042 -3.6233) rotate(0.7721)"/><rect class="a" x="276.3309" y="343.6069" width="2.7196" height="33.5416" rx="0.7236" transform="translate(4.8815 -3.7093) rotate(0.7721)"/><rect class="a" x="283.6069" y="341.8917" width="2.7196" height="33.5416" rx="0.7236" transform="translate(4.8593 -3.8077) rotate(0.7721)"/><rect class="a" x="290.8829" y="340.1766" width="2.7196" height="33.5416" rx="0.7236" transform="translate(4.8366 -3.9057) rotate(0.7721)"/><rect class="a" x="297.2647" y="337.5427" width="2.7196" height="33.5416" rx="0.7236" transform="translate(4.8017 -3.9919) rotate(0.7721)"/><rect class="a" x="303.6709" y="333.096" width="2.7196" height="33.5416" rx="0.7236" transform="translate(4.7423 -4.0786) rotate(0.7721)"/><rect class="a" x="310.0771" y="328.6493" width="2.7196" height="33.5416" rx="0.7236" transform="translate(4.683 -4.1654) rotate(0.7721)"/><path class="a" d="M304.4077,300.0974l.5124-38.0223-25.5893-.3449a113.6777,113.6777,0,0,0-73.137-.9857l-25.75-.347-.5415,40.1859c-.2362,17.5216,27.4733,32.1016,61.8907,32.5655s62.51-13.3642,62.7458-30.8858A16.45,16.45,0,0,0,304.4077,300.0974Z"/><ellipse class="a" cx="242.7827" cy="259.7266" rx="31.7285" ry="62.3239" transform="translate(-20.192 498.9873) rotate(-89.2279)"/><path class="a" d="M296.4523,380.7567a5.62,5.62,0,0,1-4.1691-9.2988l93.9357-108.4343a5.62,5.62,0,1,1,8.4948,7.3592L300.778,378.817A5.6065,5.6065,0,0,1,296.4523,380.7567Z"/><path class="a" d="M297.2408,456.6389a5.6221,5.6221,0,0,1-4.936-8.1543L462.7627,111.0872a5.62,5.62,0,0,1,10.032,5.068L302.3368,453.5526A5.62,5.62,0,0,1,297.2408,456.6389Z"/><polygon class="b" points="76.1 417.951 158.316 371.915 248.386 415.739 210.904 438.806 244.186 458.294 209.424 481.397 76.1 417.951"/><polygon class="a" points="298.622 455.401 259.303 480.256 260.83 366.95 300.149 342.095 298.622 455.401"/><polygon class="a" points="241.917 357.629 260.83 366.95 300.149 342.095 281.236 332.774 241.917 357.629"/><polygon class="a" points="259.303 480.256 240.39 470.935 241.917 357.629 260.83 366.95 259.303 480.256"/><path class="a" d="M236.0576,288.249c-.1106-.0015-.22-.0053-.3317-.0112-1.6513-.0877-40.5843-2.4652-53.7638-29.7371-13.0423-26.9895-1.6536-63.511,28.3391-90.8791,14.4458-13.1821,18.0749-38.1816,20.4763-54.7242a126.1722,126.1722,0,0,1,2.6166-14.5241c2.9178-10.38,9.3985-17.9733,17.7794-20.8338,5.8752-2.0062,15.3138-2.5914,26.8983,6.0141a8.2134,8.2134,0,0,1-9.7968,13.1858c-3.232-2.4011-7.9028-4.9836-11.7964-3.6538-3.14,1.072-5.8584,4.7107-7.27,9.7332a119.3705,119.3705,0,0,0-2.1747,12.4386c-2.7374,18.8578-6.8747,47.3562-25.6607,64.4983-28.39,25.9056-32.8222,54.6262-24.6208,71.5977,8.9424,18.5037,39.5548,20.4644,39.8627,20.482a8.2136,8.2136,0,0,1-.5572,16.4136Z"/><ellipse class="a" cx="284.169" cy="485.1242" rx="36.773" ry="24.6766" transform="translate(-276.9701 520.0586) rotate(-63.2021)"/><ellipse class="a" cx="290.4531" cy="489.7419" rx="34.4481" ry="23.1165" transform="translate(-277.641 528.2036) rotate(-63.2021)"/><ellipse class="a" cx="290.4531" cy="489.7419" rx="25.1464" ry="16.8745" transform="translate(-277.641 528.2036) rotate(-63.2021)"/><path class="a" d="M232.6888,546.4238l-.9171-16.4009-.0871.0055c2.7082-.2123,16.2031-2.2288,15.8487-21.1077-.555-29.6149,1.72-52.4618,14.76-74.8237,8.2346-14.12,18.971-79.4221,24.1787-119.87.0094-.0741.02-.1483.0317-.2222a51.0733,51.0733,0,0,0-13.59-39.581c-15.2789-16.411-131.6676-83.0027-176.7249-108.1211-3.3107-.5673-10.4714-.9121-15.096,2.5937-3.5957,2.7255-5.5691,7.7425-5.8649,14.9119-1.3092,31.73-.6445,46.2555-.638,46.3985a8.2131,8.2131,0,0,1-16.4067.8c-.03-.608-.7139-15.2609.6325-47.8761.5105-12.3791,4.7132-21.6072,12.4906-27.4279,12.2572-9.1738,28.0163-5.593,29.7718-5.1552a8.2294,8.2294,0,0,1,2.0073.7931c16.51,9.1939,161.8828,90.4431,181.851,111.89,21.5513,23.1471,18.1815,50.6463,17.8182,53.1684-1.4154,10.987-13.7574,104.5156-26.2705,125.9738-11.1086,19.0489-13.0286,39.4684-12.5264,66.24.3436,18.2949-8.1344,27.6728-15.3066,32.3181A35.2787,35.2787,0,0,1,232.6888,546.4238Z"/><ellipse class="b" cx="135.1965" cy="573.7777" rx="17.2241" ry="29.4622" transform="translate(-440.351 701.23) rotate(-89.2279)"/><ellipse class="b" cx="205.1151" cy="565.6539" rx="17.2241" ry="29.4622" transform="translate(-363.2515 763.1279) rotate(-89.2279)"/><path class="b" d="M107.71,541.9008l-.2179,16.1672a17.04,17.04,0,0,0,5.6782,13.025c4.4785,3.9535,12.1071,7.9907,24.6489,8.16,24.823.3345,23.2408-18.7257,51.6924-14.7158,24.2425,3.4167,35.874,1.3977,43.4179-5.3812a11.1994,11.1994,0,0,0,3.6614-8.1906l.1709-12.6806Z"/><path class="b" d="M138.0387,517.9258c-9.3386,2.9474-18.5108,6.5592-25.1314,13.7748-5.507,6.0018-6.7672,11.7673-3.2514,19.9742,7.3246,17.0976,36.0625,14.9918,47.944,7.8991s27.3278-9.6045,39.0383-4.007,35.3881-2.2429,39.16-13.0714-6.2824-24.6014-37.68-29.5194C172.7872,509.0083,152.7842,513.2717,138.0387,517.9258Z"/><path class="b" d="M2.4091,438.4335l-.9063,67.2508a29.7872,29.7872,0,0,0,6.4586,19.0206c9.05,11.3157,29.9453,30.229,76.9028,50.2077l.623-46.2288s49.4882,27.8653,100.3225,23.1107c50.5773-4.7305,57.6071-36.3947,54.1645-50.04Z"/><path class="b" d="M239.9466,501.4881c.1525-11.3179-6.9956-21.6083-18.5381-28.9273l.0008-.0085-.082-.044a62.8634,62.8634,0,0,0-7.6361-4.0994L103.7629,409.3944a62.845,62.845,0,0,0-9.29-4.987l-.058-.0312-.0073.0025a83.1378,83.1378,0,0,0-31.87-6.5563c-32.7742-.4417-59.5945,16.625-60.106,38.1706l-.01.0035S.0783,461.823,42.54,486.4009c36.8834,21.3491,91.1187,62,149.0305,52.92a76.7449,76.7449,0,0,0,24.5776-6.99l.0223-.009,0-.0023C230.463,525.3381,239.7755,514.182,239.9466,501.4881Z"/><rect class="a" x="157.7965" y="244.2616" width="27.1959" height="63.4571" rx="3" transform="translate(3.7347 -2.2846) rotate(0.7721)"/><rect class="a" x="144.2546" y="275.6764" width="63.3422" height="0.8646" transform="translate(-102.5286 448.2976) rotate(-89.2279)"/><rect class="a" x="134.2836" y="275.542" width="63.3422" height="0.8646" transform="translate(-112.2309 438.1949) rotate(-89.2279)"/><rect class="a" x="230.779" y="277.8832" width="27.1959" height="63.4571" rx="3" transform="translate(4.1944 -3.265) rotate(0.7721)"/><rect class="a" x="217.2371" y="309.298" width="63.3422" height="0.8646" transform="translate(-64.1481 554.442) rotate(-89.2279)"/><rect class="a" x="207.266" y="309.1636" width="63.3422" height="0.8646" transform="translate(-73.8504 544.3393) rotate(-89.2279)"/><path class="a" d="M169.6182,273.2464l-.5619,41.6966S190.4812,339.71,232.19,339.3657l.4642-34.445Z"/><path class="a" d="M180.5933,266.1414l-10.9751,7.105s20.47,28.3808,63.036,31.6743l.1832-13.5967S199.3111,289.9656,180.5933,266.1414Z"/><ellipse class="a" cx="158.6493" cy="448.0747" rx="30.822" ry="47.5928" transform="translate(-291.5227 600.6715) rotate(-89.2279)"/><path class="a" d="M111.8627,307.568h95.1856a0,0,0,0,1,0,0V443.606A25.3243,25.3243,0,0,1,181.724,468.93H137.187a25.3243,25.3243,0,0,1-25.3243-25.3243V307.568a0,0,0,0,1,0,0Z" transform="translate(5.2463 -2.1135) rotate(0.7721)"/><ellipse class="a" cx="160.5427" cy="307.5754" rx="30.822" ry="47.5928" transform="translate(-149.1681 463.9588) rotate(-89.2279)"/><path class="a" d="M149.7065,486.6757a85.5566,85.5566,0,0,1-34.5033-7.909,3.0259,3.0259,0,0,1,2.7259-5.4031h0c.3715.1868,37.5491,18.4193,69.4767-4.2272a3.026,3.026,0,0,1,3.5018,4.9361A68.3589,68.3589,0,0,1,149.7065,486.6757Z"/><ellipse class="b" cx="165.2717" cy="494.8545" rx="13.1447" ry="22.21" transform="translate(-331.765 653.4428) rotate(-89.2279)"/><ellipse class="b" cx="165.345" cy="489.4158" rx="13.1447" ry="17.6773" transform="translate(-326.2545 648.1507) rotate(-89.2279)"/><path class="b" d="M173.1878,412.0062l-13.5967-.1833-.88,65.2642.2228.003a2.0734,2.0734,0,0,0-.2351.9035c-.0269,2.0025,2.995,3.6668,6.75,3.7174s6.82-1.5317,6.8473-3.5342a2.0717,2.0717,0,0,0-.2107-.9094l.2229.003Z"/><ellipse class="b" cx="166.3895" cy="411.9145" rx="3.6261" ry="6.799" transform="translate(-247.7299 572.7381) rotate(-89.2279)"/><path class="a" d="M288.65,57.337H522.0785a0,0,0,0,1,0,0V72.6888a0,0,0,0,1,0,0H288.65a4.0844,4.0844,0,0,1-4.0844-4.0844v-7.183A4.0844,4.0844,0,0,1,288.65,57.337Z" transform="translate(83.8725 -189.6384) rotate(29.4034)"/><ellipse class="a" cx="505.7051" cy="122.7181" rx="8.2779" ry="4.5326" transform="translate(179.0031 527.7653) rotate(-64.7513)"/><circle class="a" cx="281.8637" cy="84.3706" r="4.5326"/><rect class="a" x="394.778" y="99.6392" width="47.9014" height="91.1069" transform="translate(125.2218 -186.874) rotate(29.4034)"/><rect class="a" x="264.4104" y="53.8763" width="145.2102" height="90.8077" transform="translate(92.1548 -152.6708) rotate(29.4034)"/><rect class="a" x="333.584" y="74.8315" width="8.1588" height="12.6914" rx="1.875" transform="translate(74.7394 -145.7089) rotate(27.2742)"/><rect class="a" x="304.5288" y="78.0664" width="8.1588" height="12.6914" rx="1.875" transform="translate(72.9916 -132.0348) rotate(27.2742)"/><rect class="a" x="350.44" y="102.257" width="8.1588" height="12.6914" rx="1.875" transform="translate(89.1812 -150.3841) rotate(27.2742)"/><path class="a" d="M108.3221,242.4645a8.2134,8.2134,0,0,1-4.9238-14.706l47.641-36.9009A8.2132,8.2132,0,1,1,161.098,203.844l-47.6409,36.9009A8.1785,8.1785,0,0,1,108.3221,242.4645Z"/><polygon class="a" points="92.052 512.453 45.801 485.547 60.803 476.674 106.678 503.584 92.052 512.453"/><polygon class="a" points="60.803 476.674 46.178 485.543 46.679 448.379 61.304 439.51 60.803 476.674"/><polygon class="a" points="106.678 503.584 92.052 512.453 92.553 475.289 107.178 466.42 106.678 503.584"/><polygon class="a" points="95.76 342.534 38.615 373.957 94.399 405.599 151.015 375.472 95.76 342.534"/><polygon class="a" points="38.615 373.957 37.49 457.465 93.301 487.064 94.399 405.599 38.615 373.957"/><polygon class="a" points="151.015 375.472 149.889 458.98 93.301 487.064 94.399 405.599 151.015 375.472"/><polygon class="a" points="96.383 296.305 39.238 327.728 95.022 359.371 151.638 329.243 96.383 296.305"/><polygon class="a" points="39.238 327.728 38.565 377.698 94.376 407.297 95.022 359.371 39.238 327.728"/><polygon class="a" points="151.638 329.243 150.964 379.213 94.376 407.297 95.022 359.371 151.638 329.243"/><polygon class="a" points="97.645 198.388 46.952 226.263 96.416 255.941 146.661 227.606 97.645 198.388"/><polygon class="a" points="46.952 226.263 45.596 326.878 95.084 354.744 96.416 255.941 46.952 226.263"/><polygon class="a" points="146.661 227.606 145.305 328.222 95.084 354.744 96.416 255.941 146.661 227.606"/><path class="a" d="M120.5045,385.764a3.0229,3.0229,0,0,1-1.6714-.5308l-10.7792-7.3982a3.0259,3.0259,0,1,1,3.4245-4.99l9.1862,6.3048,26.88-15.933-6.45-3.88a3.026,3.026,0,1,1,3.12-5.1859l10.7922,6.4918a3.0259,3.0259,0,0,1-.0168,5.196l-32.9011,19.502A3.0241,3.0241,0,0,1,120.5045,385.764Z"/><path class="a" d="M89.9828,231.9134a8.2171,8.2171,0,0,1-7.7665-10.53c.1937-.6533,4.8945-16.1992,18.8858-33.6283,12.82-15.97,36.2851-36.7794,75.2728-45.2249,65.8961-14.2741,165.4786-35.8455,209.15-80.09,31.1733-31.5826,58.5971-47.0882,81.4122-46.1008,12.6125.5477,23.3113,6.0179,31.8,16.2593,24.3791,29.4126-5.6468,70.0191-6.9364,71.7333a8.2134,8.2134,0,0,1-13.1252-9.8778c.2287-.3058,23.5139-31.95,7.4152-51.3728-5.4787-6.609-11.977-9.9884-19.8664-10.3309-12.3587-.5271-34.4119,6.1787-69.0086,41.2289-47.1062,47.7243-145.5109,69.0405-217.3636,84.6049-27.2547,5.9042-49.2876,18.989-65.4856,38.8912-12.1928,14.9811-16.3649,28.4589-16.4056,28.5934A8.2346,8.2346,0,0,1,89.9828,231.9134Z"/><rect class="a" x="464.5478" y="101.1433" width="34.9451" height="7.9908" transform="translate(113.71 -223.107) rotate(29.4034)"/></svg>