<svg xmlns="http://www.w3.org/2000/svg" viewBox="0 0 607.0451 686.1105"><defs><style>.a{font-size:26px;font-family:Lato-Italic, Lato;font-style:italic;}.a,.h{fill:#606060;}.b,.c,.f,.i{fill:#fff;}.b{stroke:#d91519;}.b,.c,.d,.e,.g{stroke-linecap:round;stroke-linejoin:round;}.b,.c,.d,.e{stroke-width:3px;}.c{stroke:#c4c4c4;}.d{fill:#d91519;}.d,.e{stroke:#fff;}.e,.g,.j{fill:none;}.g{stroke:#606060;stroke-width:2px;}.i,.j{stroke:#000;stroke-miterlimit:10;}</style></defs><title>tube</title><text class="a" transform="translate(132.6885 88.9521)">Tuberías<tspan x="2.7559" y="27">flexibles</tspan></text><text class="a" transform="translate(436.1797 446.9521)">Colector de<tspan x="-19.8184" y="27">partículas finas</tspan></text><rect class="b" x="278.3342" y="188.646" width="196.079" height="93.321" transform="translate(158.7745 -151.5745) rotate(28.6313)"/><polygon class="c" points="277.286 544.105 264.703 552.493 207.033 552.493 207.033 396.259 277.286 396.259 277.286 544.105"/><rect class="b" x="482.8505" y="126.5989" width="73.4791" height="224.1704" transform="translate(177.9052 -219.7866) rotate(28.6313)"/><path class="c" d="M174,340.3706a6.5,6.5,0,0,1-4.9668-10.69L275.9856,202.8061a6.5,6.5,0,0,1,9.9394,8.3789L178.9729,338.06A6.4854,6.4854,0,0,1,174,340.3706Z"/><path class="c" d="M176.0959,428.1206a6.503,6.503,0,0,1-5.8359-9.354L362.1447,25.8894a6.5,6.5,0,0,1,11.6817,5.7051L181.9416,424.4717A6.5,6.5,0,0,1,176.0959,428.1206Z"/><path class="c" d="M363.0441,389.0616V356.4141H327.5229c-14.26-5.2713-31.7911-8.3884-50.7616-8.3884S240.2594,351.1428,226,356.4141H190.2559v35.6507c0,24.3222,38.73,44.0392,86.5054,44.0392s86.5055-19.717,86.5055-44.0392A22.8571,22.8571,0,0,0,363.0441,389.0616Z"/><ellipse class="c" cx="276.7613" cy="354.317" rx="86.5054" ry="44.0391"/><rect class="c" x="267.8487" y="401.5018" width="3.1457" height="38.7964" rx="1.5"/><rect class="c" x="259.4603" y="401.5018" width="3.1457" height="38.7964" rx="1.5"/><rect class="c" x="251.0719" y="401.5018" width="3.1457" height="38.7964" rx="1.5"/><rect class="c" x="242.6834" y="398.3561" width="3.1457" height="38.7964" rx="1.5"/><rect class="c" x="234.295" y="397.3076" width="3.1457" height="38.7964" rx="1.5"/><rect class="c" x="225.9066" y="394.1619" width="3.1457" height="38.7964" rx="1.5"/><rect class="c" x="217.5182" y="392.0648" width="3.1457" height="38.7964" rx="1.5"/><rect class="c" x="209.1298" y="388.9192" width="3.1457" height="38.7964" rx="1.5"/><rect class="c" x="201.79" y="383.6764" width="3.1457" height="38.7964" rx="1.5"/><rect class="c" x="194.4501" y="377.3851" width="3.1457" height="38.7964" rx="1.5"/><rect class="c" x="276.2371" y="401.5018" width="3.1457" height="38.7964" rx="1.5"/><rect class="c" x="284.6255" y="401.5018" width="3.1457" height="38.7964" rx="1.5"/><rect class="c" x="293.0139" y="401.5018" width="3.1457" height="38.7964" rx="1.5"/><rect class="c" x="301.4023" y="400.4532" width="3.1457" height="38.7964" rx="1.5"/><rect class="c" x="309.7907" y="398.3561" width="3.1457" height="38.7964" rx="1.5"/><rect class="c" x="317.1305" y="396.259" width="3.1457" height="38.7964" rx="1.5"/><rect class="c" x="325.519" y="394.1619" width="3.1457" height="38.7964" rx="1.5"/><rect class="c" x="333.9074" y="392.0648" width="3.1457" height="38.7964" rx="1.5"/><rect class="c" x="341.2472" y="388.9192" width="3.1457" height="38.7964" rx="1.5"/><rect class="c" x="348.5871" y="383.6764" width="3.1457" height="38.7964" rx="1.5"/><rect class="c" x="355.9269" y="378.4337" width="3.1457" height="38.7964" rx="1.5"/><path class="c" d="M348.6636,345.523V301.54h-29.601c-11.883-4.3927-26.4926-6.99-42.3013-6.99s-30.4182,2.5976-42.3012,6.99H204.6735v46.4858c0,20.2685,32.2748,36.6993,72.0878,36.6993s72.0879-16.4308,72.0879-36.6993A19.0289,19.0289,0,0,0,348.6636,345.523Z"/><ellipse class="c" cx="276.7613" cy="299.7924" rx="72.0879" ry="36.6993"/><path class="c" d="M340.72,438.9343a6.5,6.5,0,0,1-4.9668-10.69L442.7053,301.37a6.5,6.5,0,1,1,9.9394,8.3789L345.6926,436.6235A6.4849,6.4849,0,0,1,340.72,438.9343Z"/><path class="c" d="M342.8147,526.6843a6.503,6.503,0,0,1-5.836-9.354l191.8858-392.877a6.5,6.5,0,0,1,11.6816,5.7051L348.66,523.0354A6.5007,6.5007,0,0,1,342.8147,526.6843Z"/><polygon class="c" points="86.449 485.386 180.819 430.861 285.674 480.143 242.683 507.405 281.48 529.425 241.635 556.687 86.449 485.386"/><polygon class="c" points="344.393 525.231 299.305 554.59 299.305 423.521 344.393 394.162 344.393 525.231"/><polygon class="c" points="277.286 413.036 299.305 423.521 344.393 394.162 322.373 383.676 277.286 413.036"/><polygon class="c" points="299.305 554.59 277.286 544.105 277.286 413.036 299.305 423.521 299.305 554.59"/><path class="d" d="M269.428,332.885c-.128,0-.2549-.0027-.3838-.0078-1.9112-.0757-46.9766-2.2185-62.6446-33.5547-15.5049-31.0117-2.9023-73.4285,31.3594-105.5488,16.502-15.471,20.31-44.441,22.8291-63.6109a145.9419,145.9419,0,0,1,2.8-16.8388c3.2129-12.05,10.59-20.9336,20.2383-24.3726,6.7637-2.4119,17.6709-3.2358,31.2031,6.5364a9.5,9.5,0,0,1-11.125,15.4028c-3.7754-2.7266-9.2178-5.6406-13.7-4.042-3.6152,1.2888-6.7021,5.54-8.2568,11.37a138.0606,138.0606,0,0,0-2.3213,14.42c-2.8721,21.8528-7.2129,54.8774-28.6729,74.9961-32.4306,30.4038-37.1093,63.69-27.3593,83.1907,10.6308,21.2612,46.0664,23.0517,46.4228,23.0673a9.5,9.5,0,0,1-.3886,18.992Z"/><ellipse class="c" cx="328.1403" cy="559.8329" rx="42.534" ry="28.5426" transform="translate(-318.9036 609.058) rotate(-63.9742)"/><ellipse class="c" cx="335.4802" cy="565.0757" rx="39.8449" ry="26.738" transform="translate(-319.4954 618.5959) rotate(-63.9742)"/><ellipse class="c" cx="335.4802" cy="565.0757" rx="29.0859" ry="19.5182" transform="translate(-319.4954 618.5959) rotate(-63.9742)"/><path class="d" d="M269.5559,631.532,268.24,612.5776l-.1006.0078c3.1289-.2878,18.7051-2.83,18.001-24.6594-1.1035-34.2427,1.1718-60.7019,15.9043-86.7681,9.3037-16.4592,20.7031-92.1521,26.0957-139.0141.01-.086.02-.1719.0332-.2576.1269-.9734,3.0693-25.2795-16.335-45.5659C293.9114,297.5781,158.2629,222.375,105.76,194.0263c-3.8379-.6044-12.125-.8916-17.419,3.2352-4.1162,3.2082-6.32,9.0415-6.5507,17.3378-1.02,36.7181-.0245,53.5074-.0147,53.6727a9.5,9.5,0,0,1-18.9629,1.1809c-.0439-.7027-1.0635-17.639-.0146-55.3814.3974-14.3252,5.1142-25.0635,14.0185-31.9167,14.0332-10.8011,32.3155-6.9053,34.3526-6.4263a9.5147,9.5147,0,0,1,2.3339.886c19.2383,10.376,188.6368,102.08,212.0655,126.5725,25.2861,26.435,21.8174,58.292,21.4365,61.2146-1.4658,12.7292-14.2822,121.093-28.42,146.1057-12.5508,22.2043-14.4531,45.8506-13.4551,76.8062.6826,21.1538-8.9766,32.132-17.1992,37.6164A40.8061,40.8061,0,0,1,269.5559,631.532Z"/><ellipse class="c" cx="157.2266" cy="664.688" rx="34.0779" ry="19.9225"/><ellipse class="c" cx="237.965" cy="654.2025" rx="34.0779" ry="19.9225"/><path class="c" d="M124.94,628.2489v18.7017a19.71,19.71,0,0,0,6.77,14.9757c5.2413,4.5026,14.1272,9.053,28.6352,9.053,28.7145,0,26.5875-22.02,59.5559-17.8253,28.0912,3.5737,41.5122,1.0573,50.1315-6.9a12.9541,12.9541,0,0,0,4.107-9.53V622.055Z"/><path class="c" d="M159.6432,600.0476c-10.7547,3.5545-21.3066,7.8747-28.8513,16.3231-6.2755,7.0273-7.6432,13.7151-3.449,23.1521,8.7378,19.66,41.942,16.7768,55.5732,8.3884s31.4565-11.5341,45.0876-5.2428,40.8935-3.1456,45.0877-15.7282-7.6494-28.3551-44.0391-33.5536C199.6929,589.1924,176.6248,594.4351,159.6432,600.0476Z"/><path class="c" d="M1.5405,510.224v77.7937a34.4536,34.4536,0,0,0,7.7662,21.8978C19.95,622.8618,44.4114,644.41,99.032,666.7851V613.309s57.67,31.4565,116.3891,25.1652c58.4219-6.2594,66.0587-42.99,61.8645-58.7188Z"/><path class="c" d="M277.25,579.4481c0-13.0922-8.4275-24.8823-21.8913-33.1673l.0008-.01-.0955-.05a72.6964,72.6964,0,0,0-8.8955-4.6222L118.31,475.0589a72.6906,72.6906,0,0,0-10.8216-5.6229l-.0676-.0352-.0084.003a96.16,96.16,0,0,0-36.962-7.0861c-37.9121,0-68.6654,20.1567-68.9212,45.0834l-.012.0043s-2.3074,29.9064,47.1848,57.67c42.9905,24.1167,106.3506,70.2865,173.1875,58.8827a88.7663,88.7663,0,0,0,28.3165-8.4677l.0256-.0107,0-.0027C266.6529,607.18,277.25,594.132,277.25,579.4481Z"/><rect class="c" x="178.7219" y="283.0156" width="31.4565" height="73.3985" rx="3"/><rect class="c" x="199.1926" y="283.1484" width="1" height="73.2656"/><rect class="c" x="187.6584" y="283.1484" width="1" height="73.2656"/><rect class="c" x="263.6545" y="320.7634" width="31.4565" height="73.3985" rx="3"/><rect class="c" x="284.1252" y="320.8962" width="1" height="73.2656"/><rect class="c" x="272.591" y="320.8962" width="1" height="73.2656"/><path class="c" d="M192.353,316.5692v48.2333s25.1652,28.3109,73.3986,27.2623V352.22Z"/><path class="c" d="M204.9356,308.1808l-12.5826,8.3884s24.1167,32.505,73.3986,35.6507V336.4916S226.9552,335.4431,204.9356,308.1808Z"/><ellipse class="c" cx="182.3918" cy="518.9395" rx="55.0489" ry="35.6507"/><path class="c" d="M127.3429,356.4141H237.4407a0,0,0,0,1,0,0V490.5562a52.5,52.5,0,0,1-52.5,52.5h-5.0979a52.5,52.5,0,0,1-52.5-52.5V356.4141a0,0,0,0,1,0,0Z"/><ellipse class="c" cx="182.3918" cy="356.4141" rx="55.0489" ry="35.6507"/><path class="c" d="M172.6506,563.7231a98.9563,98.9563,0,0,1-40.0283-8.6094,3.5,3.5,0,0,1,3.0683-6.2915h0c.4327.21,43.7149,20.7178,80.2881-5.9719a3.5,3.5,0,0,1,4.127,5.6543A79.0681,79.0681,0,0,1,172.6506,563.7231Z"/><ellipse class="c" cx="190.7802" cy="572.9398" rx="25.6895" ry="15.204"/><ellipse class="c" cx="190.7802" cy="566.6485" rx="20.4467" ry="15.204"/><path class="c" d="M198.6443,476.9974H182.9161v75.4957h.2577a2.3965,2.3965,0,0,0-.2577,1.0485c0,2.3165,3.5209,4.1942,7.8641,4.1942s7.8641-1.8777,7.8641-4.1942a2.3952,2.3952,0,0,0-.2578-1.0485h.2578Z"/><ellipse class="c" cx="190.7802" cy="476.9974" rx="7.8641" ry="4.1942"/><path class="c" d="M330.5053,63.2137H596.7611a0,0,0,0,1,0,0V80.9706a0,0,0,0,1,0,0H330.5053a8.4673,8.4673,0,0,1-8.4673-8.4673v-.8222a8.4673,8.4673,0,0,1,8.4673-8.4673Z" transform="translate(90.7192 -211.3157) rotate(28.6313)"/><ellipse class="c" cx="578.7112" cy="137.2358" rx="9.5747" ry="5.2428" transform="translate(214.0361 607.0788) rotate(-65.5234)"/><circle class="c" cx="319.2276" cy="96.3735" r="5.2428"/><path class="d" d="M120.8733,282.36a9.5,9.5,0,0,1-5.9239-16.9316l54.5245-43.4207A9.5,9.5,0,1,1,181.31,236.8708l-54.5244,43.4207A9.46,9.46,0,0,1,120.8733,282.36Z"/><polygon class="c" points="106.372 594.435 52.46 564.037 69.673 553.542 123.149 583.95 106.372 594.435"/><polygon class="c" points="69.673 553.542 52.896 564.027 52.896 521.037 69.673 510.551 69.673 553.542"/><polygon class="c" points="123.149 583.95 106.372 594.435 106.372 551.445 123.149 540.959 123.149 583.95"/><polygon class="c" points="108.011 397.856 42.41 435.089 107.42 470.816 172.431 435.089 108.011 397.856"/><polygon class="c" points="42.41 435.089 42.41 531.689 107.42 565.052 107.42 470.816 42.41 435.089"/><polygon class="c" points="172.431 435.089 172.431 531.689 107.42 565.052 107.42 470.816 172.431 435.089"/><polygon class="c" points="108.011 344.38 42.41 381.613 107.42 417.34 172.431 381.613 108.011 344.38"/><polygon class="c" points="42.41 381.613 42.41 439.416 107.42 472.779 107.42 417.34 42.41 381.613"/><polygon class="c" points="172.431 381.613 172.431 439.416 107.42 472.779 107.42 417.34 172.431 381.613"/><polygon class="c" points="107.945 231.112 49.75 264.142 107.42 297.695 165.091 264.142 107.945 231.112"/><polygon class="c" points="49.75 264.142 49.75 380.531 107.42 411.987 107.42 297.695 49.75 264.142"/><polygon class="c" points="165.091 264.142 165.091 380.531 107.42 411.987 107.42 297.695 165.091 264.142"/><path class="c" d="M137.3039,447.468a3.4959,3.4959,0,0,1-1.9414-.5879l-12.582-8.3884a3.5,3.5,0,0,1,3.8828-5.8242l10.7227,7.1486,30.84-18.8464-7.52-4.3865a3.5,3.5,0,1,1,3.5273-6.0464l12.583,7.34a3.5,3.5,0,0,1,.0616,6.01l-37.7481,23.0681A3.4991,3.4991,0,0,1,137.3039,447.468Z"/><rect class="c" x="450.7652" y="111.8946" width="55.4058" height="105.3801" transform="translate(137.3706 -209.1429) rotate(28.6313)"/><rect class="c" x="299.2667" y="60.2407" width="167.9594" height="105.034" transform="translate(100.893 -169.8528) rotate(28.6313)"/><rect class="c" x="378.995" y="84.4706" width="9.437" height="14.6797" rx="1.875" transform="translate(81.2898 -161.5768) rotate(26.5021)"/><rect class="c" x="345.4414" y="88.6648" width="9.437" height="14.6797" rx="1.875" transform="translate(79.6355 -146.1635) rotate(26.5021)"/><rect class="c" x="398.9175" y="115.9271" width="9.437" height="14.6797" rx="1.875" transform="translate(97.4202 -167.1613) rotate(26.5021)"/><path class="d" d="M98.6057,270.0063a9.5043,9.5043,0,0,1-9.1465-12.0581c.2139-.7585,5.4082-18.8115,21.3184-39.1875,14.5781-18.67,41.3925-43.103,86.3525-53.4785,75.99-17.5359,190.8271-44.0366,240.6455-95.8887,35.5615-37.0129,67.0371-55.3735,93.44-54.5871,14.5957.4367,27.0546,6.5967,37.0322,18.3091,28.6543,33.6374-5.4395,81.0693-6.9043,83.072a9.5,9.5,0,0,1-15.334-11.22c.26-.3572,26.6973-37.3184,7.7754-59.5313-6.4395-7.5583-14.0078-11.3655-23.1377-11.6387-14.3018-.417-39.7031,7.6824-79.17,48.7593-53.7373,55.93-167.2158,82.1174-250.0752,101.2385-31.43,7.2535-56.708,22.73-75.1319,46.0008-13.8681,17.5166-18.4833,33.1694-18.5283,33.3256A9.5246,9.5246,0,0,1,98.6057,270.0063Z"/><path class="e" d="M284.2449,617.32c7.5657-5.8789,10.8-13.6836,10.8-23.2649,0-6,.34-13.5344,0-20"/><polygon class="f" points="299.747 575.166 294.695 567.391 290.486 575.654 299.747 575.166"/><path class="e" d="M307.631,511.25a93.031,93.031,0,0,0,13.7119-42.1714"/><polygon class="f" points="325.87 470.768 321.827 462.423 316.62 470.096 325.87 470.768"/><path class="e" d="M332.8836,396.5241a167.3023,167.3023,0,0,0,3.7112-44.468"/><polygon class="f" points="341.295 353.176 336.257 345.391 332.033 353.646 341.295 353.176"/><path class="e" d="M312.3473,305.3026c-1.4418-2.5049-19.6172-14.9694-26.14-18.7085"/><polygon class="f" points="289.69 283.246 280.418 283.275 285.078 291.292 289.69 283.246"/><path class="e" d="M244.2932,261.1314c-13.2481-10.0765-22.2064-13.5007-33.9389-20.1069"/><polygon class="f" points="213.812 237.65 204.54 237.75 209.262 245.731 213.812 237.65"/><path class="e" d="M171.0451,232.0549c-3.1,3.2937-11,9-19,16"/><polygon class="f" points="150.013 243.671 147.023 252.449 156.12 250.651 150.013 243.671"/><path class="e" d="M98.0663,261.9789A78.0753,78.0753,0,0,1,115.05,228.935"/><polygon class="f" points="117.658 233.003 119.432 223.901 110.662 226.914 117.658 233.003"/><path class="e" d="M167.3173,187.2272a210.6459,210.6459,0,0,1,39.5391-14.8517"/><polygon class="f" points="206.731 177.206 213.308 170.668 204.358 168.24 206.731 177.206"/><path class="e" d="M294.6043,150.0854c6.1821-1.3629,26.4408-7.03,36.7395-10.3032"/><polygon class="f" points="331.455 144.613 337.704 137.762 328.646 135.774 331.455 144.613"/><path class="e" d="M383.0451,118.0549a151.1683,151.1683,0,0,0,38.4584-21.97"/><polygon class="f" points="423.329 100.558 426.726 91.93 417.555 93.301 423.329 100.558"/><path class="e" d="M475.3811,47.6437c8.664-7.5888,26.664-16.5888,36.9238-20.8643"/><polygon class="f" points="512.836 31.582 518.465 24.213 509.269 23.021 512.836 31.582"/><path class="e" d="M565.6877,46.6925A42.55,42.55,0,0,1,566.98,84.6809"/><polygon class="f" points="563.354 81.487 564.152 90.726 571.755 85.416 563.354 81.487"/><path class="e" d="M284.4019,98.2506c-5.8663,1.39-9.2561,7.4665-11.2674,13.15a79.7536,79.7536,0,0,0-4.22,19.183"/><polygon class="f" points="264.423 128.802 268.295 137.228 273.657 129.663 264.423 128.802"/><path class="e" d="M255.39,182.68c-.3447,9.3746-18.3447,24.3746-24.7385,32.85"/><polygon class="f" points="227.767 211.654 226.632 220.857 235.17 217.239 227.767 211.654"/><path class="e" d="M209.855,262.6821c.33,21.9254,4.7517,28.2575,13.1322,39.432"/><polygon class="f" points="218.463 303.811 226.991 307.453 225.883 298.247 218.463 303.811"/><path class="e" d="M71.5887,247.7748c.312-10.32.6241-17.64.9362-27.96.0472-1.56.1166-4.8626.4436-7.9692"/><polygon class="f" points="77.33 214.247 74.623 205.378 68.294 212.156 77.33 214.247"/><path class="e" d="M94.8724,184.365a28.3628,28.3628,0,0,1,16.9248,1.3492,39.8842,39.8842,0,0,1,8.3021,4.7888"/><polygon class="f" points="116.179 193.413 125.377 194.587 121.796 186.034 116.179 193.413"/><rect class="c" x="530.8345" y="112.652" width="40.4198" height="9.2427" transform="translate(123.5749 -249.7046) rotate(28.6313)"/><line class="g" x1="497.5451" y1="415.5549" x2="497.7197" y2="353.4275"/><path class="h" d="M502.2314,353.44a4.5117,4.5117,0,1,0-4.5244,4.499A4.5121,4.5121,0,0,0,502.2314,353.44Z"/><line class="g" x1="178.5451" y1="130.4275" x2="178.7198" y2="180.5549"/><path class="h" d="M174.208,180.5707a4.5117,4.5117,0,1,0,4.496-4.5274A4.5122,4.5122,0,0,0,174.208,180.5707Z"/><rect class="i" x="469.4377" y="569.875" width="69.884" height="128.4518" rx="4.7195" transform="translate(-129.7212 1138.4806) rotate(-90)"/><path class="j" d="M444.5226,606.3691v15.702a2.0819,2.0819,0,0,0,2.0818,2.0819h0a2.427,2.427,0,0,1,2.4271,2.4271v15.0416a2.4273,2.4273,0,0,1-2.4273,2.4273h0a2.0818,2.0818,0,0,0-2.0818,2.0818v15.7019a4.1422,4.1422,0,0,0,4.1422,4.1422h111.43a4.1422,4.1422,0,0,0,4.1422-4.1422V606.3691a4.1422,4.1422,0,0,0-4.1422-4.1422h-111.43A4.1421,4.1421,0,0,0,444.5226,606.3691Z"/><path d="M519.3095,609.991c.148.0319.2952.0679.4441.095a6.07,6.07,0,0,1,4.25,3.2064,5.7843,5.7843,0,0,1,.59,1.9078,6.44,6.44,0,0,1,.03,1.4156,5.8023,5.8023,0,0,1-.77,2.4072,6.018,6.018,0,0,1-2.9234,2.5826,5.4087,5.4087,0,0,1-1.7132.4312.967.967,0,0,0-.108.0216c-.0037.0832-.01.1589-.01.2345q0,3.4482.0019,6.8963,0,4.6878-.0024,9.3758c0,2.0749.0088,4.15-.0024,6.2247a7.7828,7.7828,0,0,1-1.6764,4.9248,7.698,7.698,0,0,1-4.608,2.86,7.3207,7.3207,0,0,1-1.4815.1548q-8.1363-.0053-16.2725-.0023-2.8411,0-5.6824-.0023a6.5636,6.5636,0,0,1-1.7731-.2823,7.7306,7.7306,0,0,1-3.7466-2.3515,7.499,7.499,0,0,1-1.6441-2.9734,12.4862,12.4862,0,0,1-.2622-1.2558,11.1646,11.1646,0,0,1-.0513-1.9062q-.0081-6.7155-.0016-13.4312,0-3.6547-.0024-7.31a7.3759,7.3759,0,0,1,.4366-2.4449,7.5666,7.5666,0,0,1,1.42-2.4648,7.9847,7.9847,0,0,1,2.07-1.727,8.0867,8.0867,0,0,1,2.6505-.9467,5.6253,5.6253,0,0,1,.6654-.0674c1.5132-.0859,3.0277-.0312,4.5416-.0384,1.9027-.009,3.8055-.0044,5.7082-.0043q4.3779,0,8.7559.0023,2.0793,0,4.1585,0h.2478c.0657-.3468.1126-.6769.1922-.9989a5.939,5.939,0,0,1,1.1391-2.2879,6.0259,6.0259,0,0,1,2.3354-1.78,5.2607,5.2607,0,0,1,1.5827-.4252.5175.5175,0,0,0,.116-.0407Zm-6.7555,6.3115H502.4812q-6.3676,0-12.7353.0024a6.5541,6.5541,0,0,0-.9251.0569,7.3253,7.3253,0,0,0-2.0192.5835,7.137,7.137,0,0,0-3.7609,4.1407,7.5881,7.5881,0,0,0-.3987,2.5026q-.0039,5.2956-.0011,10.5912c0,2.3335-.005,4.667,0,7,.0029,1.3509.0221,2.7017.0317,4.0526a5.6019,5.6019,0,0,0,.1667,1.2472,7.1074,7.1074,0,0,0,6.938,5.4965c2.6176.0167,5.2354.0048,7.853.005,3.1,0,6.2.0071,9.3-.0019,1.5658-.0045,3.132.0389,4.6975-.03a6.8062,6.8062,0,0,0,1.7163-.3074,7.1011,7.1011,0,0,0,4.9725-6.7205c.02-2.3506.0043-4.7015.0043-7.0522q0-3.6165.0006-7.233,0-4.1848-.0008-8.37c0-.0656-.0117-.1312-.0184-.2021a6.0776,6.0776,0,0,1-5.7478-5.7621Zm10.2147-1.4c-1.0146-.0231-2,.0122-3.01-.0167v-3.0049a19.1174,19.1174,0,0,0-2.2957.0166c0,.3311,0,.666,0,1.0008,0,.3271.0049.6542,0,.9812-.0044.3316.0153.6644-.0163,1.0194h-3.0028a17.9916,17.9916,0,0,0,.0114,2.2744h3.0085v2.9946c.7784.002,1.5295.0162,2.2958-.0049,0-.2788,0-.5273,0-.7758,0-.241.0014-.482.0013-.723,0-.25-.0035-.4993-.0011-.7489.0024-.2452-.0127-.4917.0124-.751.5184,0,1.008,0,1.4976,0,.4957,0,.9915.0064,1.4986-.0047v-2.2571Z"/><path d="M494.9414,623.9027l5.8364,15.9808.0353-.0068V623.9081c.0729-.0066.1307-.0163.1884-.0163,2.6087,0,5.2174-.0109,7.8259.0075a7.0071,7.0071,0,0,1,3.3421.81,5.7185,5.7185,0,0,1,2.653,2.9477,6.4794,6.4794,0,0,1,.424,1.7163,6.1428,6.1428,0,0,1,.0312,1.1579,5.3929,5.3929,0,0,1-1.4193,3.4,5.6432,5.6432,0,0,1-2.14,1.4361c-.0236.009-.0459.0215-.0967.0456.2327.4864.495.9539.737,1.4312.2448.4825.4994.96.7481,1.44.2528.4882.5026.978.7553,1.4662.2487.4806.5.96.7491,1.44s.4971.9613.7454,1.4421c.247.4782.4938.9566.7528,1.4585h-4.6036l-3.9212-8.003h-2.7767a1.7752,1.7752,0,0,0-.02.1925q-.0014,2.35,0,4.7007,0,1.4593.0011,2.9186c0,.058-.0086.1161-.0143.1889h-6.61l-1.1809-3.5369h-7.1387l-1.2161,3.5391H484.52c.037-.245,7.1993-19.9486,7.3392-20.1892Zm9.8539,8.8391a.6232.6232,0,0,0,.0989.02c1.2547-.0107,2.51-.0243,3.7642-.0321a2.8992,2.8992,0,0,0,1.076-.2211,2.4216,2.4216,0,0,0,1.3762-1.3506,2.7869,2.7869,0,0,0,.1852-1.2861,2.4072,2.4072,0,0,0-1.06-1.9107,2.7816,2.7816,0,0,0-1.598-.497c-1.2214-.0124-2.4429-.006-3.6644-.0061a1.5484,1.5484,0,0,0-.1784.0209Zm-11.29-2.7338-.0475-.002-2.4928,7.18c.3687.0408,4.7476.0254,4.9468-.0212Z"/></svg>