<svg xmlns="http://www.w3.org/2000/svg" viewBox="0 0 215.6209 218.5071"><defs><style>.a{fill:#fff;}.a,.b{stroke:#d91519;stroke-linecap:round;stroke-linejoin:round;stroke-width:3px;}.b{fill:none;}</style></defs><title>ventilador</title><polygon class="a" points="150.944 2.141 127.212 13.045 127.212 84.239 168.261 110.536 202.897 97.709 202.897 32.705 150.944 2.141"/><polygon class="a" points="202.939 32.288 185.471 39.689 133.67 9.782 151.138 2.381 202.939 32.288"/><polygon class="a" points="175.014 46.653 161.963 52.182 123.261 29.837 136.312 24.308 175.014 46.653"/><polygon class="a" points="202.897 97.067 185.579 104.764 185.579 39.983 202.897 32.287 202.897 97.067"/><polygon class="a" points="174.988 98.318 161.206 104.443 161.206 52.891 174.988 46.766 174.988 98.318"/><path class="a" d="M183.375,125.2883c-17.1207-9.124-40.5626-14.752-66.4248-14.752s-49.304,5.628-66.4247,14.752H22.0245v39.1248h.0947C24.2809,191.8867,65.9076,213.8,116.95,213.8s92.6693-21.9135,94.8311-49.3871h.0947V125.2883Z"/><ellipse class="a" cx="116.9502" cy="126.8918" rx="94.9258" ry="51.6319"/><line class="b" x1="116.8999" y1="127.2086" x2="183.2722" y2="167.4468"/><polyline class="b" points="116.9 127.209 183.272 167.447 183.272 203.538"/><polyline class="b" points="116.9 127.209 195.723 159.48 195.723 196.483"/><polyline class="b" points="116.9 127.209 205.231 150.308 205.231 186.862"/><polyline class="b" points="116.9 127.209 209.31 140.274 209.31 174.034"/><line class="b" x1="116.8999" y1="127.2086" x2="214.1209" y2="129.7519"/><line class="b" x1="116.8999" y1="127.2086" x2="213.1712" y2="119.1349"/><line class="b" x1="116.8999" y1="127.2086" x2="208.6273" y2="108.8193"/><line class="b" x1="116.8999" y1="127.2086" x2="200.6586" y2="99.1904"/><line class="b" x1="116.8999" y1="127.2086" x2="189.5627" y2="90.6075"/><line class="b" x1="116.8999" y1="127.2086" x2="175.7539" y2="83.3911"/><line class="b" x1="116.8999" y1="127.2086" x2="159.7478" y2="77.8107"/><line class="b" x1="116.8999" y1="127.2086" x2="142.1419" y2="74.0745"/><line class="b" x1="116.8999" y1="127.2086" x2="123.5936" y2="72.3222"/><line class="b" x1="116.8999" y1="127.2086" x2="104.7954" y2="72.6191"/><line class="b" x1="116.8999" y1="127.2086" x2="86.4491" y2="74.9541"/><line class="b" x1="116.8999" y1="127.2086" x2="69.2397" y2="79.2401"/><line class="b" x1="116.8999" y1="127.2086" x2="53.8097" y2="85.317"/><line class="b" x1="116.8999" y1="127.2086" x2="40.7353" y2="92.958"/><line class="b" x1="116.8999" y1="127.2086" x2="30.5044" y2="101.8777"/><line class="b" x1="116.8999" y1="127.2086" x2="23.4992" y2="111.7431"/><line class="b" x1="116.8999" y1="127.2086" x2="19.9812" y2="122.186"/><line class="b" x1="116.8999" y1="127.2086" x2="20.0817" y2="132.8164"/><polyline class="b" points="116.9 127.209 25.873 143.879 25.873 175.958"/><polyline class="b" points="116.9 127.209 30.988 153.06 30.988 186.862"/><polyline class="b" points="116.9 127.209 41.387 161.917 41.387 196.483"/><polyline class="b" points="116.9 127.209 54.605 169.479 54.605 203.538"/><polyline class="b" points="116.9 127.209 70.149 175.462 70.149 210.593"/><polyline class="b" points="116.9 127.209 87.439 179.644 87.439 214.442"/><polyline class="b" points="116.9 127.209 105.828 181.868 105.828 217.007"/><polyline class="b" points="116.9 127.209 124.631 182.051 124.631 217.007"/><polyline class="b" points="116.9 127.209 143.145 180.187 143.145 215.083"/><polyline class="b" points="116.9 127.209 160.679 176.345 160.679 210.593"/><polygon class="a" points="30.363 35.601 20.742 29.721 20.742 107.329 30.363 115.667 30.363 35.601"/><polygon class="a" points="11.121 35.601 20.742 29.721 20.742 107.329 11.121 115.667 11.121 35.601"/><polygon class="a" points="11.121 35.601 1.5 29.721 1.5 107.329 11.121 115.667 11.121 35.601"/><path class="a" d="M73.3357,33.57V132.985c0,15.94,20.2448,28.8626,45.218,28.8626s45.218-12.9223,45.218-28.8626V33.57Z"/><ellipse class="a" cx="118.5537" cy="33.5695" rx="45.218" ry="28.8626"/><ellipse class="a" cx="118.5537" cy="23.3073" rx="31.1074" ry="19.8558"/><path class="a" d="M30.3626,34.8523v80.8152s15.3933,30.1453,55.8009,40.4075V76.5427S47.68,69.4874,30.3626,34.8523Z"/><path class="a" d="M30.3626,36.7765H73.615s7.5,28.7946,52.0354,25.3009L86.1635,76.5427S52.8112,74.6185,30.3626,36.7765Z"/><ellipse class="a" cx="51.2077" cy="33.5695" rx="20.8452" ry="9.6208"/><path class="a" d="M66.28,31.5343a3.3178,3.3178,0,0,0,0-2.3435V8.5553H36.1351V29.1908a3.3178,3.3178,0,0,0,0,2.3435v.111h.0429c1.3077,3.2837,7.5369,5.7726,15.03,5.7726s13.7221-2.4889,15.03-5.7726H66.28Z"/><ellipse class="a" cx="51.2077" cy="8.5553" rx="15.2865" ry="7.0553"/><path class="a" d="M84.2393,66.28v93.643c0,5.3135,9.3328,9.6208,20.8452,9.6208s20.8452-4.3073,20.8452-9.6208V66.28Z"/><ellipse class="a" cx="105.0845" cy="66.2804" rx="20.8452" ry="9.6209"/><polygon class="a" points="116.274 85.698 104.966 78.788 104.966 170.006 116.274 179.806 116.274 85.698"/><polygon class="a" points="93.658 85.698 104.966 78.788 104.966 170.006 93.658 179.806 93.658 85.698"/><polygon class="a" points="93.658 85.698 82.35 78.788 82.35 170.006 93.658 179.806 93.658 85.698"/></svg>