<svg xmlns="http://www.w3.org/2000/svg" viewBox="0 0 478.2739 534.4371"><defs><style>.a,.b{fill:#fff;stroke-width:3px;}.a{stroke:#c4c4c4;}.a,.b,.d{stroke-linecap:round;stroke-linejoin:round;}.b{stroke:#d91519;}.c{fill:#d91519;}.d{fill:none;stroke:#606060;stroke-width:2px;}.e,.f{fill:#606060;}.f{font-size:26px;font-family:Lato-Italic, Lato;font-style:italic;}</style></defs><title>vent-camp</title><rect class="a" x="220.9298" y="148.6829" width="152.8354" height="72.7398" transform="matrix(0.8712, 0.491, -0.491, 0.8712, 129.1556, -122.1467)"/><polygon class="a" points="216.876 424.685 206.981 431.091 162.034 430.485 163.675 308.719 218.429 309.456 216.876 424.685"/><rect class="a" x="380.2961" y="101.8238" width="57.2739" height="174.7315" transform="translate(145.5604 -176.3974) rotate(29.4034)"/><path class="a" d="M138.5166,264.8128a5.0667,5.0667,0,0,1-3.7587-8.3836l84.69-97.7612a5.0665,5.0665,0,0,1,7.6587,6.6348l-84.69,97.7612A5.0548,5.0548,0,0,1,138.5166,264.8128Z"/><path class="a" d="M139.2283,333.2261a5.0688,5.0688,0,0,1-4.45-7.3517L288.4573,21.6863a5.0666,5.0666,0,0,1,9.0446,4.5691L143.8227,330.4435A5.0669,5.0669,0,0,1,139.2283,333.2261Z"/><path class="b" d="M285.3436,304.7476l.3429-25.4451-27.6847-.3731c-11.0584-4.2581-24.69-6.8717-39.4748-7.071s-28.4819,2.0461-39.651,6.0047l-27.8584-.3755-.3744,27.7858c-.2555,18.9564,29.7229,34.73,66.9586,35.2321s67.6284-14.4585,67.8839-33.4149A17.81,17.81,0,0,0,285.3436,304.7476Z"/><ellipse class="b" cx="218.4609" cy="276.7618" rx="34.3267" ry="67.4274" transform="translate(-61.2197 491.4734) rotate(-89.2279)"/><rect class="b" x="210.815" y="313.4586" width="2.4519" height="30.2402" rx="0.6738" transform="translate(4.447 -2.8275) rotate(0.7721)"/><rect class="b" x="204.2772" y="313.3705" width="2.4519" height="30.2402" rx="0.6738" transform="translate(4.4452 -2.7394) rotate(0.7721)"/><rect class="b" x="197.7394" y="313.2824" width="2.4519" height="30.2402" rx="0.6738" transform="translate(4.4432 -2.6512) rotate(0.7721)"/><rect class="b" x="191.2346" y="310.7426" width="2.4519" height="30.2402" rx="0.6738" transform="translate(4.4085 -2.5638) rotate(0.7721)"/><rect class="b" x="184.7078" y="309.8372" width="2.4519" height="30.2402" rx="0.6738" transform="translate(4.3961 -2.4762) rotate(0.7722)"/><rect class="b" x="178.203" y="307.2974" width="2.4519" height="30.2402" rx="0.6738" transform="translate(4.361 -2.3886) rotate(0.7721)"/><rect class="b" x="171.6872" y="305.5749" width="2.4519" height="30.2402" rx="0.6738" transform="translate(4.3372 -2.301) rotate(0.7721)"/><rect class="b" x="165.1824" y="303.0351" width="2.4519" height="30.2402" rx="0.6738" transform="translate(4.3024 -2.2136) rotate(0.7721)"/><rect class="b" x="159.5169" y="298.8719" width="2.4519" height="30.2402" rx="0.6738" transform="matrix(0.9999, 0.0135, -0.0135, 0.9999, 4.2458, -2.1376)"/><rect class="b" x="153.8624" y="293.8914" width="2.4519" height="30.2402" rx="0.6738" transform="translate(4.178 -2.0617) rotate(0.7721)"/><rect class="b" x="217.3528" y="313.5467" width="2.4519" height="30.2402" rx="0.6738" transform="translate(4.4488 -2.9156) rotate(0.7721)"/><rect class="b" x="223.8906" y="313.6348" width="2.4519" height="30.2402" rx="0.6738" transform="translate(4.4506 -3.0037) rotate(0.7721)"/><rect class="b" x="230.4284" y="313.7229" width="2.4519" height="30.2402" rx="0.6738" transform="translate(4.4524 -3.0918) rotate(0.7721)"/><rect class="b" x="236.9773" y="312.9938" width="2.4519" height="30.2402" rx="0.6738" transform="translate(4.4429 -3.18) rotate(0.7721)"/><rect class="b" x="243.5371" y="311.4474" width="2.4519" height="30.2402" rx="0.6738" transform="translate(4.423 -3.2687) rotate(0.7721)"/><rect class="b" x="249.2797" y="309.8901" width="2.4519" height="30.2402" rx="0.6738" transform="translate(4.4024 -3.3462) rotate(0.7721)"/><rect class="b" x="255.8396" y="308.3437" width="2.4519" height="30.2402" rx="0.6738" transform="translate(4.3822 -3.4347) rotate(0.7721)"/><rect class="b" x="262.3994" y="306.7974" width="2.4519" height="30.2402" rx="0.6738" transform="translate(4.3619 -3.5233) rotate(0.7721)"/><rect class="b" x="268.1531" y="304.4228" width="2.4519" height="30.2402" rx="0.6738" transform="translate(4.3305 -3.601) rotate(0.7721)"/><rect class="b" x="273.9287" y="300.4138" width="2.4519" height="30.2402" rx="0.6738" transform="translate(4.2769 -3.6792) rotate(0.7721)"/><rect class="b" x="279.7044" y="296.4047" width="2.4519" height="30.2402" rx="0.6738" transform="translate(4.2235 -3.7574) rotate(0.7721)"/><path class="b" d="M274.593,270.6631l.462-34.28-23.0707-.3109a102.4882,102.4882,0,0,0-65.9381-.8887l-23.2153-.3128-.4883,36.23c-.2129,15.797,24.7691,28.9419,55.7989,29.36s56.357-12.0488,56.57-27.8458A14.84,14.84,0,0,0,274.593,270.6631Z"/><ellipse class="b" cx="219.0336" cy="234.266" rx="28.6056" ry="56.1895" transform="translate(-18.1627 450.1228) rotate(-89.2279)"/><path class="a" d="M103.2172,215.9983A7.4049,7.4049,0,0,1,98.7781,202.74L141.73,169.4709a7.4048,7.4048,0,1,1,9.0687,11.7082l-42.9517,33.2688A7.3737,7.3737,0,0,1,103.2172,215.9983Z"/><path class="a" d="M267.4206,343.3833A5.0667,5.0667,0,0,1,263.6619,335l84.69-97.7612a5.0665,5.0665,0,1,1,7.6587,6.6348l-84.69,97.7612A5.0548,5.0548,0,0,1,267.4206,343.3833Z"/><path class="a" d="M268.1316,411.7965a5.0688,5.0688,0,0,1-4.45-7.3517l153.68-304.1879a5.0666,5.0666,0,0,1,9.0446,4.5692L272.7259,409.014A5.0667,5.0667,0,0,1,268.1316,411.7965Z"/><polygon class="a" points="68.757 376.916 142.881 335.412 224.086 374.923 190.293 395.719 220.299 413.288 188.958 434.118 68.757 376.916"/><polygon class="a" points="269.377 410.68 233.928 433.089 235.304 330.936 270.754 308.527 269.377 410.68"/><polygon class="b" points="218.253 322.532 235.304 330.936 270.754 308.527 253.702 300.123 218.253 322.532"/><polygon class="a" points="233.928 433.089 216.876 424.685 218.253 322.532 235.304 330.936 233.928 433.089"/><path class="a" d="M212.9705,259.9809c-.1-.0013-.1987-.0047-.2991-.01-1.4887-.079-36.59-2.2225-48.4719-26.81-11.7586-24.333-1.4908-57.26,25.55-81.934,13.024-11.8846,16.2959-34.4234,18.4609-49.3377a113.77,113.77,0,0,1,2.359-13.0946c2.6307-9.3579,8.4735-16.2042,16.03-18.7831,5.2968-1.8088,13.8064-2.3364,24.2506,5.4221a7.405,7.405,0,0,1-8.8324,11.8879c-2.9139-2.1647-7.125-4.493-10.6353-3.2942-2.8312.9665-5.2818,4.2471-6.5547,8.7752a107.6126,107.6126,0,0,0-1.9607,11.2143c-2.468,17.0017-6.198,42.6951-23.135,58.15-25.5954,23.3557-29.5915,49.2494-22.1973,64.55,8.0622,16.6824,35.6614,18.45,35.9391,18.466a7.4051,7.4051,0,0,1-.5024,14.798Z"/><ellipse class="a" cx="256.3464" cy="437.478" rx="33.1535" ry="22.2478" transform="translate(-249.72 469.0589) rotate(-63.2021)"/><ellipse class="a" cx="262.0119" cy="441.6413" rx="31.0575" ry="20.8412" transform="translate(-250.3248 476.4022) rotate(-63.2021)"/><ellipse class="a" cx="262.0119" cy="441.6413" rx="22.6712" ry="15.2136" transform="translate(-250.3248 476.4022) rotate(-63.2021)"/><path class="a" d="M209.9333,492.744l-.8269-14.7866-.0785.005c2.4417-.1914,14.6082-2.0094,14.2888-19.03-.5-26.7,1.5509-47.298,13.3069-67.4589,7.4241-12.73,17.1037-71.6048,21.7989-108.0718.0085-.0669.0178-.1338.0285-.2a46.046,46.046,0,0,0-12.2526-35.6851c-13.775-14.7957-118.7078-74.8329-159.33-97.479-2.9849-.5114-9.4407-.8222-13.61,2.3385-3.2418,2.4572-5.0209,6.98-5.2877,13.4441-1.18,28.6069-.581,41.7027-.5752,41.8316a7.4047,7.4047,0,0,1-14.7918.7212c-.0269-.5481-.6436-13.7587.57-43.1637.46-11.1607,4.2492-19.48,11.2611-24.7282,11.0508-8.2708,25.2588-5.0425,26.8414-4.6478a7.4189,7.4189,0,0,1,1.81.7151c14.8851,8.289,145.9489,81.5409,163.9517,100.8765a61.1374,61.1374,0,0,1,16.0644,47.935c-1.2762,9.9056-12.4033,94.2284-23.6848,113.5745-10.0151,17.1739-11.7462,35.5835-11.2935,59.72.31,16.4942-7.3337,24.9491-13.8,29.1372A31.8057,31.8057,0,0,1,209.9333,492.744Z"/><path class="c" d="M209.08,494.5841l-1.1512-16.5749-.093.0072c2.55-.2382,15.24-2.3288,14.6645-20.171a8.3076,8.3076,0,1,1,16.6065-.5354c.5747,17.8187-7.5765,27.0763-14.5151,31.7044A34.4539,34.4539,0,0,1,209.08,494.5841Z"/><ellipse class="a" cx="122.037" cy="517.4056" rx="15.5287" ry="26.5623" transform="translate(-396.9661 632.4591) rotate(-89.2279)"/><ellipse class="a" cx="185.0736" cy="510.0813" rx="15.5287" ry="26.5623" transform="translate(-327.4554 688.2645) rotate(-89.2279)"/><path class="a" d="M97.2562,488.6662,97.06,503.2421a15.3628,15.3628,0,0,0,5.1192,11.743c4.0377,3.5643,10.9155,7.2042,22.2228,7.3566,22.38.3016,20.9532-16.8825,46.6044-13.2673,21.8563,3.08,32.343,1.26,39.1443-4.8515a10.0969,10.0969,0,0,0,3.301-7.3845l.1541-11.4325Z"/><path class="a" d="M124.5994,467.051c-8.4194,2.6574-16.6888,5.9136-22.6577,12.419-4.965,5.4111-6.1012,10.6091-2.9314,18.0082,6.6037,15.4147,32.5129,13.5162,43.2249,7.1216s24.638-8.6591,35.1959-3.6126,31.9049-2.0222,35.306-11.7848-5.6641-22.18-33.9711-26.6139C155.9276,459.0112,137.8936,462.8551,124.5994,467.051Z"/><path class="a" d="M2.32,395.383l-.8171,60.6314a26.8552,26.8552,0,0,0,5.8229,17.1485c8.1595,10.2019,26.9979,27.2536,69.3334,45.2659l.5617-41.6786s44.6171,25.1225,90.4479,20.8359c45.5991-4.2649,51.9369-32.8124,48.8332-45.1149Z"/><path class="a" d="M216.4767,452.2313c.1375-10.2039-6.307-19.4815-16.7135-26.08l.0007-.0077-.0738-.04a56.6783,56.6783,0,0,0-6.8846-3.6959L93.6974,369.2022a56.6635,56.6635,0,0,0-8.3752-4.4961l-.0523-.0281-.0066.0022a74.9539,74.9539,0,0,0-28.7333-5.911c-29.5482-.3982-53.7287,14.9886-54.19,34.4135l-.0095.0032S.2182,416.47,38.5,438.6291c33.253,19.2477,82.15,55.8974,134.3617,47.7115a69.189,69.189,0,0,0,22.1585-6.3022l.02-.0081,0-.0021C207.9265,473.7337,216.3225,463.6758,216.4767,452.2313Z"/><rect class="b" x="142.4125" y="220.3232" width="24.519" height="57.2111" rx="3" transform="translate(3.3685 -2.0617) rotate(0.7721)"/><rect class="b" x="130.2035" y="248.6458" width="57.1075" height="0.7795" transform="translate(-92.3951 404.4225) rotate(-89.2279)"/><rect class="b" x="121.2139" y="248.5247" width="57.1075" height="0.7795" transform="translate(-101.1424 395.3142) rotate(-89.2279)"/><rect class="b" x="208.2114" y="250.6355" width="24.519" height="57.2111" rx="3" transform="matrix(0.9999, 0.0135, -0.0135, 0.9999, 3.7829, -2.9456)"/><rect class="b" x="196.0024" y="278.9581" width="57.1075" height="0.7795" transform="translate(-57.7923 500.1192) rotate(-89.2279)"/><rect class="b" x="187.0128" y="278.8369" width="57.1075" height="0.7795" transform="translate(-66.5396 491.0109) rotate(-89.2279)"/><path class="b" d="M153.0706,246.455l-.5066,37.5925s19.316,22.3295,56.92,22.0189l.4185-31.0547Z"/><path class="b" d="M162.9654,240.0494l-9.8948,6.4056s18.4548,25.5874,56.8314,28.5567l.1652-12.2584S179.8408,261.5286,162.9654,240.0494Z"/><ellipse class="a" cx="143.1813" cy="404.0753" rx="27.7883" ry="42.9083" transform="translate(-262.7867 541.7985) rotate(-89.2279)"/><path class="a" d="M101,277.3984h85.8167a0,0,0,0,1,0,0V399.296a23.5821,23.5821,0,0,1-23.5821,23.5821H124.582A23.5821,23.5821,0,0,1,101,399.296V277.3984a0,0,0,0,1,0,0Z" transform="translate(4.7314 -1.9074) rotate(0.7721)"/><ellipse class="a" cx="144.8884" cy="277.405" rx="27.7883" ry="42.9083" transform="translate(-134.4439 418.5421) rotate(-89.2279)"/><polygon class="a" points="83.139 462.117 41.44 437.859 54.966 429.86 96.325 454.121 83.139 462.117"/><polygon class="a" points="54.966 429.86 41.78 437.856 42.232 404.35 55.417 396.354 54.966 429.86"/><polygon class="a" points="96.325 454.121 83.139 462.117 83.591 428.611 96.777 420.615 96.325 454.121"/><polygon class="a" points="86.482 308.923 34.962 337.253 85.255 365.781 136.298 338.618 86.482 308.923"/><polygon class="a" points="34.962 337.253 33.948 412.542 84.265 439.227 85.255 365.781 34.962 337.253"/><polygon class="a" points="136.298 338.618 135.284 413.907 84.265 439.227 85.255 365.781 136.298 338.618"/><polygon class="a" points="87.044 267.244 35.524 295.574 85.817 324.102 136.86 296.94 87.044 267.244"/><polygon class="a" points="35.524 295.574 34.917 340.626 85.234 367.311 85.817 324.102 35.524 295.574"/><polygon class="a" points="136.86 296.94 136.253 341.991 85.234 367.311 85.817 324.102 136.86 296.94"/><polygon class="a" points="88.181 178.964 42.478 204.096 87.073 230.853 132.373 205.307 88.181 178.964"/><polygon class="a" points="42.478 204.096 41.256 294.808 85.873 319.931 87.073 230.853 42.478 204.096"/><polygon class="a" points="132.373 205.307 131.151 296.02 85.873 319.931 87.073 230.853 132.373 205.307"/><path class="a" d="M108.7911,347.8977a2.7248,2.7248,0,0,1-1.5069-.4786l-9.7182-6.67a2.728,2.728,0,1,1,3.0874-4.4985l8.282,5.6842L133.17,327.57l-5.8154-3.4978a2.7281,2.7281,0,0,1,2.8127-4.6754l9.73,5.8527a2.7281,2.7281,0,0,1-.0152,4.6846L110.219,347.5167A2.7259,2.7259,0,0,1,108.7911,347.8977Z"/><path class="a" d="M135.1188,438.8768a77.1333,77.1333,0,0,1-31.1072-7.13,2.728,2.728,0,0,1,2.4575-4.8713h0c.335.1684,33.8532,16.6064,62.6383-3.8111a2.7282,2.7282,0,0,1,3.1571,4.45A61.63,61.63,0,0,1,135.1188,438.8768Z"/><ellipse class="a" cx="149.1519" cy="446.2506" rx="11.8509" ry="20.0239" transform="translate(-299.0681 589.3755) rotate(-89.2279)"/><ellipse class="a" cx="149.218" cy="441.3472" rx="11.8509" ry="15.9374" transform="translate(-294.0999 584.6043) rotate(-89.2279)"/><path class="a" d="M156.2889,371.5569l-12.2584-.1652-.793,58.84.2009.0027a1.8675,1.8675,0,0,0-.2119.8145c-.0244,1.8054,2.7,3.3059,6.0851,3.3515s6.1489-1.3809,6.1733-3.1863a1.8683,1.8683,0,0,0-.19-.82l.2009.0027Z"/><ellipse class="a" cx="150.1597" cy="371.4743" rx="3.2692" ry="6.1298" transform="translate(-223.3044 516.6145) rotate(-89.2279)"/><path class="a" d="M260.507,51.7973H470.8388a0,0,0,0,1,0,0V65.638a0,0,0,0,1,0,0H260.507a3.8034,3.8034,0,0,1-3.8034-3.8034v-6.234A3.8034,3.8034,0,0,1,260.507,51.7973Z" transform="translate(75.687 -171.0317) rotate(29.4034)"/><ellipse class="a" cx="456.077" cy="110.743" rx="7.4631" ry="4.0865" transform="translate(161.3748 476.0113) rotate(-64.7513)"/><circle class="a" cx="254.2679" cy="76.1699" r="4.0865"/><rect class="a" x="356.0683" y="89.9357" width="43.1865" height="82.1394" transform="translate(112.9664 -168.5394) rotate(29.4034)"/><rect class="a" x="238.5326" y="48.6771" width="130.9174" height="81.8696" transform="matrix(0.8712, 0.491, -0.491, 0.8712, 83.1542, -137.7028)"/><rect class="a" x="300.8975" y="67.5698" width="7.3557" height="11.4422" rx="1.875" transform="translate(67.447 -131.4231) rotate(27.2742)"/><rect class="a" x="274.7022" y="70.4863" width="7.3557" height="11.4422" rx="1.875" transform="translate(65.8711 -119.0949) rotate(27.2742)"/><rect class="a" x="316.0944" y="92.2959" width="7.3557" height="11.4422" rx="1.875" transform="translate(80.4672 -135.6381) rotate(27.2742)"/><path class="a" d="M81.2736,209.19a7.4079,7.4079,0,0,1-7.0021-9.494c.1747-.5889,4.4127-14.6046,17.0269-30.3183,11.5581-14.398,32.7136-33.1592,67.8638-40.7735,59.41-12.869,149.1909-32.3172,188.5633-72.2067,28.105-28.4739,52.8295-42.4534,73.3989-41.5631,11.3711.4937,21.0168,5.4255,28.67,14.6588,21.9795,26.5176-5.091,63.1273-6.2537,64.6728a7.405,7.405,0,0,1-11.8333-8.9056c.2062-.2757,21.2-28.8051,6.6854-46.3162-4.9395-5.9586-10.7982-9.0053-17.911-9.3141-11.1423-.4752-31.0248,5.57-62.2162,37.1708-42.47,43.0268-131.1885,62.2449-195.9689,76.2773-24.5721,5.3231-44.4362,17.12-59.04,35.0633C92.2643,191.6483,88.5028,203.8,88.4661,203.9208A7.4239,7.4239,0,0,1,81.2736,209.19Z"/><rect class="a" x="418.9707" y="91.2917" width="31.5055" height="7.2043" transform="translate(102.5877 -201.2061) rotate(29.4034)"/><line class="d" x1="288.1357" y1="473.9371" x2="232.1357" y2="473.2595"/><path class="e" d="M232.19,468.7481a4.5117,4.5117,0,1,0,4.4568,4.566A4.5121,4.5121,0,0,0,232.19,468.7481Z"/><text class="f" transform="translate(306.2236 482.6651)">Campana</text><line class="d" x1="346.1357" y1="301.9371" x2="275.1357" y2="301.2595"/><circle class="e" cx="275.1357" cy="301.2595" r="4.5117" transform="translate(-129.2675 355.2503) rotate(-55.1995)"/><text class="f" transform="translate(364.2236 310.6651)">Ventilador</text></svg>