<svg xmlns="http://www.w3.org/2000/svg" viewBox="0 0 229.3608 81.5717"><defs><style>.a{fill:#fff;}</style></defs><title>appstore</title><path class="a" d="M205.0736,21.7981a2.409,2.409,0,0,0-2.2634,2.3834h4.2863a2.0973,2.0973,0,0,0-2.0229-2.3834Zm-95.8191,5.3472a1.2937,1.2937,0,0,0,1.4014,1.4028,2.0224,2.0224,0,0,0,1.9434-1.3423,1.6731,1.6731,0,0,0,.06-.5415V25.3235c-1.7419-.02-3.4046.34-3.4046,1.8218Zm47.4085-5.2479c-1.7439,0-2.4443,1.7023-2.4443,3.3245,0,1.8838.941,3.3059,2.4243,3.3059,1.4008,0,2.3831-1.3622,2.3831-3.3447,0-1.5229-.6819-3.2857-2.3631-3.2857Zm-16.5519-.0993a2.41,2.41,0,0,0-2.2632,2.3834h4.2859a2.0971,2.0971,0,0,0-2.0227-2.3834Zm-17.7332.24a2.29,2.29,0,0,0-2.1826,1.8023,2.8431,2.8431,0,0,0-.0821.6416v1.582a2.714,2.714,0,0,0,.0612.5818,2.2508,2.2508,0,0,0,2.1826,1.7218c1.5431,0,2.4842-1.222,2.4842-3.2037,0-1.723-.8215-3.1258-2.4633-3.1258Zm86.9792,31.8554H196.73a5.4729,5.4729,0,0,0,1.8335,4.2775,6.2286,6.2286,0,0,0,4.1283,1.3278,13.7648,13.7648,0,0,0,5.1048-.9037l.662,2.9264a15.713,15.713,0,0,1-6.3547,1.1663,9.184,9.184,0,0,1-6.9113-2.5857,9.5683,9.5683,0,0,1-2.5183-6.9524,10.908,10.908,0,0,1,2.3375-7.1386,8.0935,8.0935,0,0,1,6.6266-3.0348,7.04,7.04,0,0,1,6.1967,3.0348,10.27,10.27,0,0,1,1.6755,5.9695,10.4542,10.4542,0,0,1-.1537,1.9129ZM191.9883,24.2406V30.09H189.527V15.87h2.4613v5.7881h.0413a3.2265,3.2265,0,0,1,1.2214-1.101,3.46,3.46,0,0,1,1.7026-.4415c1.6627,0,3.4065,1.1012,3.4065,4.2263V30.09h-2.4655V24.602c0-1.4021-.5211-2.4843-1.882-2.4843A2.0528,2.0528,0,0,0,192.0908,23.5a2.1845,2.1845,0,0,0-.1025.74Zm-.6377,22.8628a7.5022,7.5022,0,0,0-1.3253-.107,3.9828,3.9828,0,0,0-3.4279,1.6724,6.2571,6.2571,0,0,0-1.0521,3.7368v9.9357h-4.208V49.36q0-3.255-.1124-5.957h3.6613l.1566,3.6257h.1153a6.3718,6.3718,0,0,1,2.1041-2.9945,5.05,5.05,0,0,1,3.0435-1.0107,6.6045,6.6045,0,0,1,1.0449.0709v4.0092ZM180.5487,20.3355h1.3823V18.5123l2.4243-.6812v2.5044h2.3417v1.8421h-2.3417v4.3066c0,1.2026.32,1.8032,1.2612,1.8032a3.2347,3.2347,0,0,0,.9609-.1l.0413,1.8622a5.4193,5.4193,0,0,1-1.7823.2613,2.82,2.82,0,0,1-2.1239-.8014,3.8433,3.8433,0,0,1-.7815-2.7442V22.1776h-1.3823V20.3355ZM176.2,59.8932a8.9272,8.9272,0,0,1-6.934,2.8763,8.4805,8.4805,0,0,1-6.6537-2.7651,10.0831,10.0831,0,0,1-2.4685-6.9759,10.2948,10.2948,0,0,1,2.55-7.2068,8.809,8.809,0,0,1,6.8729-2.8,8.6245,8.6245,0,0,1,6.7106,2.7665,9.9747,9.9747,0,0,1,2.4115,6.93A10.3938,10.3938,0,0,1,176.2,59.8932ZM156.5619,30.3107a4.7168,4.7168,0,0,1-4.8871-5.0275,4.8158,4.8158,0,0,1,5.048-5.1681,4.68,4.68,0,0,1,4.8471,5.0075,4.8324,4.8324,0,0,1-5.008,5.1881Zm2.3731,16.2451h-4.6437v9.2058c0,2.3355.8243,3.4948,2.4614,3.4948a7.6738,7.6738,0,0,0,1.8691-.1835l.12,3.1878a9.5135,9.5135,0,0,1-3.2728.4685,5.018,5.018,0,0,1-3.8948-1.52c-.9438-1.0078-1.4093-2.7123-1.4093-5.102V46.5558h-2.7631v-3.153h2.7631V39.9365l4.1268-1.2463v4.7126h4.6437v3.153ZM144.1,60.43a10.3579,10.3579,0,0,1-7.1558,2.2964,12.5472,12.5472,0,0,1-6.8065-1.6333l.9775-3.5061a11.7515,11.7515,0,0,0,6.0708,1.6362,5.77,5.77,0,0,0,3.7062-1.0705,3.5031,3.5031,0,0,0,1.3208-2.8748,3.674,3.674,0,0,0-1.0872-2.6788,10.2811,10.2811,0,0,0-3.6228-2.0256q-6.89-2.5647-6.8939-7.5154a6.6265,6.6265,0,0,1,2.4287-5.3035,9.6569,9.6569,0,0,1,6.4518-2.063,12.8435,12.8435,0,0,1,5.9642,1.2441l-1.0619,3.43a10.4181,10.4181,0,0,0-5.04-1.2095,5.2331,5.2331,0,0,0-3.4839,1.0864,3.1581,3.1581,0,0,0-1.0509,2.3849,3.2512,3.2512,0,0,0,1.2066,2.5774,13.8159,13.8159,0,0,0,3.8147,2.0186,12.8,12.8,0,0,1,4.9932,3.1988,6.69,6.69,0,0,1,1.5973,4.5528A7.0166,7.0166,0,0,1,144.1,60.43ZM122.9188,30.3107a3.3546,3.3546,0,0,1-3.0849-1.6828h-.04L119.674,30.09h-2.1034c.04-.6611.0807-1.742.0807-2.7443V15.87h2.4619v5.8076h.04a3.5291,3.5291,0,0,1,3.1252-1.562c2.3841,0,4.0857,1.9832,4.0662,4.947,0,3.5061-2.2229,5.2486-4.4262,5.2486Zm-2.89,29.9717a7.7121,7.7121,0,0,1-5.8374,2.4871,5.8265,5.8265,0,0,1-5.4022-2.6928V70.022h-4.21V49.6267q0-3.0384-.1556-6.2239h3.6923l.2433,3h.0723a7.4974,7.4974,0,0,1,11.9847-.734,10.413,10.413,0,0,1,2.2424,6.9731,10.7073,10.7073,0,0,1-2.63,7.6405ZM103.602,30.09H101.14V15.87h2.462V30.09ZM99.2229,60.2824A7.7108,7.7108,0,0,1,93.387,62.77q-3.77,0-5.4064-2.6928V70.022H83.7753V49.6267q0-3.0384-.1613-6.2239h3.7021l.2321,3h.0737a7.5057,7.5057,0,0,1,11.9931-.734,10.4557,10.4557,0,0,1,2.2382,6.9731,10.7073,10.7073,0,0,1-2.63,7.6405ZM82.7465,27.406c0-2.444,2.1826-3.7055,5.7887-3.6855v-.16c0-.64-.2613-1.703-1.9837-1.703a5.1654,5.1654,0,0,0-2.6233.7222l-.4811-1.6029a7.02,7.02,0,0,1,3.5256-.8613c3.1237,0,4.0259,1.9832,4.0259,4.1255v3.5061a13.0768,13.0768,0,0,0,.16,2.3431H88.9342l-.1794-1.0809h-.06a3.5676,3.5676,0,0,1-2.8846,1.3018,2.8951,2.8951,0,0,1-3.064-2.9047ZM77.6751,30.09H75.2506L71.625,20.3355H74.29l1.5806,4.9477c.2809.8612.481,1.6425.6618,2.4439h.0612c.1792-.8014.4-1.5639.66-2.4439l1.5626-4.9477h2.5843L77.6751,30.09Zm-.9564,32.2515-2.4523-7.7085H65.7307L63.39,62.3413H59.03l8.448-26.2619h5.2272l8.4981,26.2619Zm-29.7361-.987a4.316,4.316,0,0,1-4.3164,4.3069H24.1668a4.3165,4.3165,0,0,1-4.3191-4.3069V20.2458a4.3211,4.3211,0,0,1,4.3191-4.3116H42.6662a4.32,4.32,0,0,1,4.3164,4.3116V61.3543ZM63.3882,16.59h3.1446l4.3859,13.5H68.2552L67.0346,26.264H62.7668L61.6046,30.09h-2.544l4.3276-13.5Zm33.883,3.7458V30.09h-2.462V20.3355Zm-1.2207-4.0662a1.3328,1.3328,0,1,1-1.3818,1.3421,1.3157,1.3157,0,0,1,1.3818-1.3421Zm14.5665,5.5878a5.1617,5.1617,0,0,0-2.6233.7222l-.481-1.6029a7.0167,7.0167,0,0,1,3.5241-.8613c3.1251,0,4.0274,1.9832,4.0274,4.1255v3.5061a13.2234,13.2234,0,0,0,.1584,2.3431H113l-.1793-1.0809h-.06a3.5678,3.5678,0,0,1-2.8847,1.3018,2.8955,2.8955,0,0,1-3.0653-2.9047c0-2.444,2.1826-3.7055,5.7887-3.6855v-.16c0-.64-.2614-1.703-1.9823-1.703ZM130.1546,15.87h2.4621V30.09h-2.4621V15.87Zm10.0969,4.2456c3.1639,0,4.2074,2.6039,4.2074,4.7476a6.0411,6.0411,0,0,1-.0812,1.0411h-6.53c.06,1.7621,1.4221,2.5233,3.0041,2.5233a7.8414,7.8414,0,0,0,2.7044-.4407l.36,1.6834a8.7788,8.7788,0,0,1-3.405.62c-3.1641,0-5.0269-1.9421-5.0269-4.9262,0-2.7053,1.6417-5.2486,4.7669-5.2486Zm25.87.22.12,1.4626h.0612a3.5785,3.5785,0,0,1,3.1247-1.683c1.7026,0,3.4649,1.1012,3.4649,4.186V30.09h-2.4627V24.5811c0-1.4012-.5224-2.4634-1.8634-2.4634a2.0723,2.0723,0,0,0-1.9247,1.4424,2.3016,2.3016,0,0,0-.12.7813V30.09h-2.4627V23.24c0-1.1225-.04-2.063-.0811-2.9047Zm39.0921-.22c3.1646,0,4.2066,2.6039,4.2066,4.7476a6.0851,6.0851,0,0,1-.08,1.0411h-6.53c.06,1.7621,1.4221,2.5233,3.0036,2.5233a7.8281,7.8281,0,0,0,2.7034-.4407l.36,1.6834a8.768,8.768,0,0,1-3.4037.62c-3.1645,0-5.0265-1.9421-5.0265-4.9262,0-2.7053,1.6413-5.2486,4.766-5.2486Zm-139.6409.9614c-.2613-.8216-.481-1.7426-.6812-2.5231h-.0417c-.1989.7805-.42,1.7216-.6408,2.5231l-1.04,3.3254h3.4644l-1.0607-3.3254Zm22.963,6.1293a1.7112,1.7112,0,0,0,.0584-.5415V25.3235c-1.7419-.02-3.4032.34-3.4032,1.8218a1.2931,1.2931,0,0,0,1.4014,1.4028,2.0253,2.0253,0,0,0,1.9434-1.3423ZM201.3283,45.894a4.0355,4.0355,0,0,0-3.3511,1.7225,6.25,6.25,0,0,0-1.247,3.2655h8.7662a5.7565,5.7565,0,0,0-.8143-3.2307,3.6973,3.6973,0,0,0-3.3538-1.7573ZM69.9762,39.5874h-.0735c-.2643,1.1164-.6744,2.7631-1.2512,4.9484L66.4689,51.395H73.52l-2.2118-6.8592q-.3586-1.0572-1.3319-4.9484Zm43.4851,6.7737a4.3517,4.3517,0,0,0-2.8221,1.03,4.855,4.855,0,0,0-1.66,2.7179,5.5228,5.5228,0,0,0-.19,1.2871v3.1531a5.0449,5.0449,0,0,0,1.2636,3.4921,4.2189,4.2189,0,0,0,3.2865,1.4165,4.3022,4.3022,0,0,0,3.7089-1.8308,8.0489,8.0489,0,0,0,1.329-4.8365,7.8066,7.8066,0,0,0-1.247-4.5528,4.3462,4.3462,0,0,0-3.6686-1.8768Zm55.951-.2614a4.2073,4.2073,0,0,0-3.8493,2.2522,8.5025,8.5025,0,0,0-1.1346,4.539A8.3718,8.3718,0,0,0,165.563,57.36a4.2279,4.2279,0,0,0,3.818,2.2493,4.1842,4.1842,0,0,0,3.7695-2.2966,8.3382,8.3382,0,0,0,1.1759-4.4958,8.4872,8.4872,0,0,0-1.1247-4.4653A4.1843,4.1843,0,0,0,169.4123,46.1Zm-76.762.2614a4.3561,4.3561,0,0,0-2.8208,1.03,4.8364,4.8364,0,0,0-1.6572,2.7179,5.6228,5.6228,0,0,0-.1917,1.2871v3.1531a5.0379,5.0379,0,0,0,1.2636,3.4921,4.2215,4.2215,0,0,0,3.2906,1.4165A4.3064,4.3064,0,0,0,96.24,57.6272,8.0664,8.0664,0,0,0,97.56,52.7907a7.7756,7.7756,0,0,0-1.2429-4.5528A4.3352,4.3352,0,0,0,92.65,46.3611ZM22.4709,56.9919H44.3593V24.6194H22.4709V56.9919Zm10.9422,1.9115a2.2327,2.2327,0,1,0,2.2311,2.2354,2.2359,2.2359,0,0,0-2.2311-2.2354ZM31.2694,21.317h4.2887a.5067.5067,0,1,0,0-1.0134H31.2694a.5067.5067,0,0,0,0,1.0134Z"/><path class="a" d="M10.9949,2.8471a8.1572,8.1572,0,0,0-8.1478,8.1486V70.5893a8.15,8.15,0,0,0,8.1478,8.1353h207.37a8.1511,8.1511,0,0,0,8.1484-8.1353V10.9957a8.1579,8.1579,0,0,0-8.1484-8.1486Zm207.37,78.7246H10.9949A11.0011,11.0011,0,0,1,0,70.5893V10.9957A11.0075,11.0075,0,0,1,10.9949,0h207.37a11.0079,11.0079,0,0,1,10.9955,10.9957V70.5893a11.0014,11.0014,0,0,1-10.9955,10.9824Z"/></svg>