<svg xmlns="http://www.w3.org/2000/svg" viewBox="0 0 212 62"><defs><style>.a{fill:#fff;stroke:#d91519;stroke-miterlimit:10;stroke-width:3px;}.b{font-size:26px;fill:#d91519;font-family:Lato-Bold, Lato;font-weight:700;}</style></defs><title>back_home</title><rect class="a" x="1.5" y="1.5" width="209" height="59" rx="29.5"/><text class="b" transform="translate(74.1058 41.3823)">Ir al inicio</text><path class="a" d="M53.5,45.5h-20a4,4,0,0,1-4-4V26.369a4,4,0,0,1,2.0774-3.5077l9.726-5.3309a4,4,0,0,1,3.7788-.0356l10.274,5.3821A4,4,0,0,1,57.5,26.42V41.5A4,4,0,0,1,53.5,45.5Z"/><path class="a" d="M43,31.5h0a4,4,0,0,1,4,4v10a0,0,0,0,1,0,0H39a0,0,0,0,1,0,0v-10A4,4,0,0,1,43,31.5Z"/></svg>