<svg xmlns="http://www.w3.org/2000/svg" viewBox="0 0 212 62"><defs><style>.a{fill:#fff;stroke-miterlimit:10;}.a,.c{stroke:#d91519;stroke-width:3px;}.b{fill:#d91519;}.c{fill:none;stroke-linecap:round;stroke-linejoin:round;}</style></defs><title>download</title><rect class="a" x="1.5" y="1.5" width="209" height="59" rx="29.5"/><path class="b" d="M92.8908,31.9838a10.1487,10.1487,0,0,1-.6895,3.7949,8.5168,8.5168,0,0,1-4.9394,4.9141,10.5791,10.5791,0,0,1-3.9.69H76.1984V22.5844h7.1631a10.5,10.5,0,0,1,3.9.6953,8.8032,8.8032,0,0,1,3.0029,1.9365,8.654,8.654,0,0,1,1.9365,2.9707A10.1526,10.1526,0,0,1,92.8908,31.9838Zm-3.5879,0a8.7359,8.7359,0,0,0-.41-2.7754,5.7306,5.7306,0,0,0-1.1826-2.08,5.1446,5.1446,0,0,0-1.8721-1.3066,6.411,6.411,0,0,0-2.4765-.4551H79.7081V38.6h3.6534a6.4278,6.4278,0,0,0,2.4765-.4541A5.1675,5.1675,0,0,0,87.71,36.8393a5.7549,5.7549,0,0,0,1.1826-2.08A8.7394,8.7394,0,0,0,89.3029,31.9838Z"/><path class="b" d="M97.9337,35.1166A6.3477,6.3477,0,0,0,98.298,36.89a3.6442,3.6442,0,0,0,.7539,1.2363,2.9763,2.9763,0,0,0,1.1113.7275,4.0478,4.0478,0,0,0,1.4239.24,4.3951,4.3951,0,0,0,1.3457-.1826,6.3,6.3,0,0,0,.9882-.4024q.4219-.2213.74-.4023a1.2379,1.2379,0,0,1,.6181-.1827.664.664,0,0,1,.5977.2989L106.8,39.394a5.386,5.386,0,0,1-1.1962,1.0459,6.6769,6.6769,0,0,1-1.3838.6758,7.582,7.582,0,0,1-1.47.3574,10.52,10.52,0,0,1-1.4492.1045,7.123,7.123,0,0,1-2.5869-.4619,5.8007,5.8007,0,0,1-2.08-1.3643,6.4194,6.4194,0,0,1-1.3906-2.2363,8.6594,8.6594,0,0,1-.5068-3.0879,7.3767,7.3767,0,0,1,.4414-2.5674,6.1694,6.1694,0,0,1,1.2676-2.0928,5.9542,5.9542,0,0,1,2.0146-1.41,6.6253,6.6253,0,0,1,2.6846-.52,6.51,6.51,0,0,1,2.3271.4033,5.0576,5.0576,0,0,1,1.833,1.1758,5.455,5.455,0,0,1,1.2032,1.8984,7.08,7.08,0,0,1,.4355,2.5674,2.088,2.088,0,0,1-.1563.9814.6475.6475,0,0,1-.5986.2539Zm6.1231-1.9375a3.8787,3.8787,0,0,0-.1748-1.1758,2.7886,2.7886,0,0,0-.5274-.9687,2.4406,2.4406,0,0,0-.89-.6563,3.0646,3.0646,0,0,0-1.2549-.2412,2.9749,2.9749,0,0,0-2.19.793,3.8869,3.8869,0,0,0-1.02,2.249Z"/><path class="b" d="M117.4865,30.644a.86.86,0,0,1-.2725.2929.7052.7052,0,0,1-.3643.084,1.1365,1.1365,0,0,1-.5-.13c-.1777-.0869-.3837-.1836-.6181-.2919a5.6457,5.6457,0,0,0-.7988-.293,3.86,3.86,0,0,0-1.06-.13,2.444,2.444,0,0,0-1.4893.4033,1.2544,1.2544,0,0,0-.539,1.0528,1.0036,1.0036,0,0,0,.2793.7216,2.5117,2.5117,0,0,0,.7412.5127,7.0046,7.0046,0,0,0,1.0468.3965q.5846.1758,1.1895.3848t1.19.4736a4.1641,4.1641,0,0,1,1.0459.6768,2.97,2.97,0,0,1,1.02,2.3593,4.4968,4.4968,0,0,1-.3438,1.7735,3.8406,3.8406,0,0,1-1.02,1.4043,4.8286,4.8286,0,0,1-1.6709.9238,7.8179,7.8179,0,0,1-3.64.207,7.8951,7.8951,0,0,1-1.2618-.3437,7.048,7.048,0,0,1-1.1181-.52,5.5109,5.5109,0,0,1-.9033-.65l.7412-1.2227a1.0613,1.0613,0,0,1,.3379-.3379.9467.9467,0,0,1,.4941-.1172,1.0344,1.0344,0,0,1,.5654.17q.2667.1684.6172.3632a5.4168,5.4168,0,0,0,.8262.3643,3.64,3.64,0,0,0,1.2021.1689,3.0916,3.0916,0,0,0,.9815-.1367,2.0659,2.0659,0,0,0,.6758-.3574,1.3422,1.3422,0,0,0,.3906-.5137,1.5447,1.5447,0,0,0,.123-.6035,1.0777,1.0777,0,0,0-.2793-.7676,2.4373,2.4373,0,0,0-.7412-.52,6.9379,6.9379,0,0,0-1.0527-.3965q-.5918-.1758-1.209-.3847a11.1158,11.1158,0,0,1-1.209-.4864,4.1157,4.1157,0,0,1-1.0527-.709,3.21,3.21,0,0,1-.7412-1.0527,3.6724,3.6724,0,0,1-.2793-1.5078,3.8561,3.8561,0,0,1,.3242-1.5606,3.65,3.65,0,0,1,.9561-1.2929,4.7171,4.7171,0,0,1,1.5732-.8848,6.5549,6.5549,0,0,1,2.1768-.331,6.6611,6.6611,0,0,1,2.51.455,5.6741,5.6741,0,0,1,1.8848,1.1963Z"/><path class="b" d="M130.33,30.8647a1.6055,1.6055,0,0,1-.2793.2871.651.651,0,0,1-.3965.1035.8784.8784,0,0,1-.48-.1494q-.2345-.1494-.56-.3379a4.2273,4.2273,0,0,0-.7734-.3389,3.5559,3.5559,0,0,0-1.1114-.1484,3.4008,3.4008,0,0,0-1.4824.3047,2.8139,2.8139,0,0,0-1.06.8779,3.9663,3.9663,0,0,0-.63,1.3838,7.4486,7.4486,0,0,0-.2081,1.84,7.1835,7.1835,0,0,0,.2276,1.8985,4.05,4.05,0,0,0,.6562,1.3974,2.8319,2.8319,0,0,0,1.04.8584,3.1581,3.1581,0,0,0,1.3779.292,3.4087,3.4087,0,0,0,1.2412-.1884,3.8534,3.8534,0,0,0,.8-.4161q.3252-.227.5655-.416a.8555.8555,0,0,1,.54-.1885.6522.6522,0,0,1,.585.2989l.9228,1.1709a5.8574,5.8574,0,0,1-1.1572,1.0459,6.2318,6.2318,0,0,1-1.294.6758,6.5808,6.5808,0,0,1-1.3779.3574,9.6975,9.6975,0,0,1-1.41.1045,5.92,5.92,0,0,1-2.3271-.4619,5.5047,5.5047,0,0,1-1.9111-1.3448,6.4356,6.4356,0,0,1-1.293-2.165,8.3643,8.3643,0,0,1-.4746-2.919,8.4646,8.4646,0,0,1,.4228-2.7226,6.1684,6.1684,0,0,1,1.2412-2.1719,5.6687,5.6687,0,0,1,2.0284-1.4355,6.9625,6.9625,0,0,1,2.7812-.52,6.6091,6.6091,0,0,1,2.62.4814,6.4094,6.4094,0,0,1,2.0215,1.377Z"/><path class="b" d="M132.9953,29.9037a7.9111,7.9111,0,0,1,5.5371-2.1064,5.4135,5.4135,0,0,1,2.0937.3838,4.4342,4.4342,0,0,1,1.56,1.0654,4.5574,4.5574,0,0,1,.9687,1.6318,6.2792,6.2792,0,0,1,.3311,2.08v8.4239h-1.4561a1.4579,1.4579,0,0,1-.7011-.1368.9467.9467,0,0,1-.3907-.5527l-.2861-.9609a11.7229,11.7229,0,0,1-.9873.7988,5.8326,5.8326,0,0,1-1.001.5781,5.3431,5.3431,0,0,1-1.1123.3574,6.3488,6.3488,0,0,1-1.3056.1241,5.1324,5.1324,0,0,1-1.5606-.2276,3.4183,3.4183,0,0,1-1.2353-.6826,3.0664,3.0664,0,0,1-.8057-1.1309,4.0169,4.0169,0,0,1-.2861-1.5732,3.145,3.145,0,0,1,.1689-1.0078,2.9641,2.9641,0,0,1,.5527-.9551,4.5929,4.5929,0,0,1,.9942-.8574,6.4836,6.4836,0,0,1,1.5019-.7031,12.9267,12.9267,0,0,1,2.0733-.4864,20.74,20.74,0,0,1,2.7041-.2285v-.7793a2.9161,2.9161,0,0,0-.5723-1.9824,2.0894,2.0894,0,0,0-1.65-.6436,3.9292,3.9292,0,0,0-1.2939.1817,5.4935,5.4935,0,0,0-.9033.4092q-.39.2284-.7081.41a1.4082,1.4082,0,0,1-.7089.1817.9258.9258,0,0,1-.5723-.1758,1.48,1.48,0,0,1-.377-.4092Zm7.3574,5.7852a17.6166,17.6166,0,0,0-2.34.24,6.2085,6.2085,0,0,0-1.52.4483,1.9939,1.9939,0,0,0-.8193.6367,1.5769,1.5769,0,0,0,.2529,2.0019,2.1675,2.1675,0,0,0,1.3067.3643,3.8126,3.8126,0,0,0,1.71-.3574,5.06,5.06,0,0,0,1.41-1.086Z"/><path class="b" d="M149.5314,30.3588a5.7573,5.7573,0,0,1,1.4814-1.8789,3.16,3.16,0,0,1,2.0284-.6826,2.4772,2.4772,0,0,1,1.4824.4033l-.208,2.4043a.63.63,0,0,1-.1885.332.5264.5264,0,0,1-.332.0977,3.7166,3.7166,0,0,1-.5782-.0654,4.5094,4.5094,0,0,0-.748-.0655,2.702,2.702,0,0,0-.9492.1563,2.3867,2.3867,0,0,0-.7471.4492,3.0477,3.0477,0,0,0-.585.708,6.9466,6.9466,0,0,0-.4746.9492v8.2159h-3.2109V28.0444h1.8848a1.0385,1.0385,0,0,1,.6894.1757,1.0276,1.0276,0,0,1,.26.63Z"/><path class="b" d="M167.9,28.4994v1.1954q0,.5727-.6895.7031l-1.1953.2207a4.0643,4.0643,0,0,1,.2724,1.5078,3.912,3.912,0,0,1-1.4951,3.1465,5.148,5.148,0,0,1-1.6572.8633,6.717,6.717,0,0,1-2.06.3066,7.2308,7.2308,0,0,1-.7539-.0391c-.2432-.0263-.4815-.06-.7149-.1045q-.624.3765-.624.8448a.6212.6212,0,0,0,.37.5918,3.0524,3.0524,0,0,0,.9814.2666,13.5734,13.5734,0,0,0,1.3916.0967q.7794.02,1.5987.0849a13.0638,13.0638,0,0,1,1.5986.2276,4.7085,4.7085,0,0,1,1.3916.5136,2.7384,2.7384,0,0,1,.9815.9551,2.9381,2.9381,0,0,1,.37,1.5537A3.65,3.65,0,0,1,167.23,43.15a4.6034,4.6034,0,0,1-1.2607,1.4825,6.5843,6.5843,0,0,1-2.0283,1.0468,8.7429,8.7429,0,0,1-2.7364.3965,10.4308,10.4308,0,0,1-2.6259-.293,6.2658,6.2658,0,0,1-1.8584-.7793,3.378,3.378,0,0,1-1.1055-1.125,2.6332,2.6332,0,0,1-.3643-1.3261,2.2586,2.2586,0,0,1,.5655-1.5664,3.9292,3.9292,0,0,1,1.5537-1.0078,2.23,2.23,0,0,1-.8447-.7276,2.0769,2.0769,0,0,1-.3125-1.1963,1.8687,1.8687,0,0,1,.1113-.6172,2.633,2.633,0,0,1,.3242-.6308,3.1608,3.1608,0,0,1,.54-.5918,3.7489,3.7489,0,0,1,.7666-.5,4.2147,4.2147,0,0,1-1.5927-1.4561,3.8863,3.8863,0,0,1-.5782-2.1318,3.9616,3.9616,0,0,1,.3965-1.7871,4.0048,4.0048,0,0,1,1.1055-1.3652,5.0323,5.0323,0,0,1,1.6768-.8653,7.5571,7.5571,0,0,1,3.7246-.123,5.5042,5.5042,0,0,1,1.3779.5136ZM164.7013,41.98a.8862.8862,0,0,0-.2344-.6367,1.5244,1.5244,0,0,0-.6367-.3828,4.7005,4.7005,0,0,0-.9424-.2022c-.3593-.0439-.7412-.0752-1.1435-.0976s-.8194-.041-1.2481-.0576-.8476-.0528-1.2548-.1045a2.983,2.983,0,0,0-.8643.7021,1.4284,1.4284,0,0,0-.332.9356,1.292,1.292,0,0,0,.1757.6562,1.4786,1.4786,0,0,0,.5586.5274,3.3459,3.3459,0,0,0,.9952.3437,9.0048,9.0048,0,0,0,3.0419-.0127,3.7134,3.7134,0,0,0,1.0723-.3769,1.6248,1.6248,0,0,0,.6172-.5723A1.39,1.39,0,0,0,164.7013,41.98Zm-3.6269-7.5918a3.0133,3.0133,0,0,0,1.04-.1621,2.0326,2.0326,0,0,0,.7344-.4492,1.835,1.835,0,0,0,.4424-.6885,2.5246,2.5246,0,0,0,.1494-.8838,2.0894,2.0894,0,0,0-.5918-1.5664,3.0081,3.0081,0,0,0-3.5489,0,2.0894,2.0894,0,0,0-.5918,1.5664,2.4922,2.4922,0,0,0,.1495.8711,1.9073,1.9073,0,0,0,.4423.6953,1.9887,1.9887,0,0,0,.7413.4551A3.0233,3.0233,0,0,0,161.0744,34.3881Z"/><path class="b" d="M169.6164,29.9037a7.9111,7.9111,0,0,1,5.5371-2.1064,5.4135,5.4135,0,0,1,2.0937.3838,4.4352,4.4352,0,0,1,1.56,1.0654,4.5574,4.5574,0,0,1,.9687,1.6318,6.2792,6.2792,0,0,1,.3311,2.08v8.4239h-1.4561a1.4579,1.4579,0,0,1-.7011-.1368.9467.9467,0,0,1-.3907-.5527l-.2861-.9609a11.7229,11.7229,0,0,1-.9873.7988,5.8326,5.8326,0,0,1-1.001.5781,5.345,5.345,0,0,1-1.1123.3574,6.3488,6.3488,0,0,1-1.3056.1241,5.1324,5.1324,0,0,1-1.5606-.2276,3.4183,3.4183,0,0,1-1.2353-.6826,3.0664,3.0664,0,0,1-.8057-1.1309,4.0169,4.0169,0,0,1-.2861-1.5732,3.145,3.145,0,0,1,.1689-1.0078,2.9641,2.9641,0,0,1,.5527-.9551,4.59,4.59,0,0,1,.9942-.8574,6.4836,6.4836,0,0,1,1.5019-.7031,12.9267,12.9267,0,0,1,2.0733-.4864,20.74,20.74,0,0,1,2.7041-.2285v-.7793a2.9161,2.9161,0,0,0-.5723-1.9824,2.09,2.09,0,0,0-1.65-.6436,3.9288,3.9288,0,0,0-1.2939.1817,5.4935,5.4935,0,0,0-.9033.4092q-.39.2284-.7081.41a1.4082,1.4082,0,0,1-.7089.1817.9258.9258,0,0,1-.5723-.1758,1.48,1.48,0,0,1-.377-.4092Zm7.3574,5.7852a17.6166,17.6166,0,0,0-2.34.24,6.2085,6.2085,0,0,0-1.52.4483,1.9932,1.9932,0,0,0-.8193.6367,1.5769,1.5769,0,0,0,.2529,2.0019,2.1673,2.1673,0,0,0,1.3067.3643,3.8126,3.8126,0,0,0,1.71-.3574,5.06,5.06,0,0,0,1.41-1.086Z"/><path class="b" d="M186.1515,30.3588A5.7575,5.7575,0,0,1,187.633,28.48a3.16,3.16,0,0,1,2.0283-.6826,2.4772,2.4772,0,0,1,1.4824.4033l-.208,2.4043a.63.63,0,0,1-.1885.332.5262.5262,0,0,1-.332.0977,3.7144,3.7144,0,0,1-.5781-.0654,4.5115,4.5115,0,0,0-.7481-.0655,2.702,2.702,0,0,0-.9492.1563,2.3867,2.3867,0,0,0-.7471.4492,3.0449,3.0449,0,0,0-.5849.708,6.9351,6.9351,0,0,0-.4747.9492v8.2159h-3.2109V28.0444h1.8848a1.0385,1.0385,0,0,1,.6894.1757,1.0276,1.0276,0,0,1,.26.63Z"/><line class="c" x1="40.8214" y1="17.4643" x2="40.8214" y2="37.4643"/><polyline class="c" points="52.821 36.464 52.821 44.464 28.821 44.464 28.821 36.464"/><polyline class="c" points="45.857 32.5 40.821 37.535 35.786 32.5"/></svg>