<svg xmlns="http://www.w3.org/2000/svg" viewBox="0 0 243.2987 81.5016"><defs><style>.a{fill:#fff;}</style></defs><title>googleplay</title><path class="a" d="M12.0532,2.8471a9.2171,9.2171,0,0,0-9.2061,9.2058V69.4481a9.2176,9.2176,0,0,0,9.2061,9.2064H231.2469a9.2165,9.2165,0,0,0,9.2048-9.2064V12.0529a9.2159,9.2159,0,0,0-9.2048-9.2058ZM231.2469,81.5016H12.0532A12.0667,12.0667,0,0,1,0,69.4481V12.0529A12.0665,12.0665,0,0,1,12.0532,0H231.2469a12.0662,12.0662,0,0,1,12.0518,12.0529V69.4481a12.0664,12.0664,0,0,1-12.0518,12.0535Z"/><path class="a" d="M78.5173,20.9358a28.7873,28.7873,0,0,1-.8641-2.8179h-.08q0,.197-.8939,2.8179Zm2.3332,2.8533H79.2347a10.7215,10.7215,0,0,0-.46-1.8888H76.4417a9.7654,9.7654,0,0,0-.474,1.8888h-1.52q0-.1969,1.1787-3.232a25.3341,25.3341,0,0,0,1.1787-3.3431h1.909a27.7127,27.7127,0,0,0,1.0691,3.2951,28.9129,28.9129,0,0,1,1.0677,3.28Z"/><path class="a" d="M87.3618,23.7891H86.1147a12.2989,12.2989,0,0,0-1.3893-2.1868A11.9965,11.9965,0,0,1,83.07,18.7491h-.0812a17.8082,17.8082,0,0,1,.1267,2q0,1.2476.07,3.04H81.9438q.0747-1.5653.0754-3.4391,0-1.843-.0754-3.136h1.4989A9.4782,9.4782,0,0,0,84.6912,19.35a12.5441,12.5441,0,0,1,1.5246,2.6916h.0755a18.9574,18.9574,0,0,1-.121-2.02q0-1.3683-.0712-2.8078h1.2627q-.07,1.2525-.07,3.136,0,1.899.07,3.4391Z"/><path class="a" d="M93.3022,20.4914a2.432,2.432,0,0,0-.5651-1.6337,2.1442,2.1442,0,0,0-1.7268-.6641,5.35,5.35,0,0,0-.5964.0455q.0511,1.01.0512,2.1109,0,1.2072.05,2.3937a3.3392,3.3392,0,0,0,.6563.0657,1.9058,1.9058,0,0,0,1.6086-.6742,2.6,2.6,0,0,0,.5224-1.6438Zm1.38-.2171a3.7211,3.7211,0,0,1-.92,2.5047A3.2085,3.2085,0,0,1,91.1869,23.85q-.7475,0-2.06-.0606.0641-1.5251.0655-3.4391,0-1.8381-.0655-3.136H90.01c.1452,0,.36-.005.6477-.0151.2847-.01.4726-.0153.5594-.0153a3.4018,3.4018,0,0,1,2.6436.9091,3.14,3.14,0,0,1,.8214,2.1816Z"/><path class="a" d="M99.5374,19.1431q0-1.0047-1.294-1.005a4.4156,4.4156,0,0,0-.837.0708q.0555.7828.0554,2.04.2777.01.47.01,1.6058,0,1.6058-1.116Zm1.8933,4.646H99.936a9.9333,9.9333,0,0,0-.9-2.207,1.1765,1.1765,0,0,0-1.0093-.4191c-.195,0-.3829.0019-.5609.0052q0,1.298.0456,2.6209H96.1081q.0662-1.5251.0654-3.4391,0-1.8381-.0654-3.136h.874c.1011,0,.3118-.005.6335-.0151s.6178-.0153.8911-.0153q2.3169,0,2.3176,1.5858a1.7781,1.7781,0,0,1-1.3225,1.7523v.0758a1.5776,1.5776,0,0,1,.894.7953,17.68,17.68,0,0,1,1.0349,2.3963Z"/><path class="a" d="M107.2758,20.5267a2.6083,2.6083,0,0,0-.5409-1.7119,1.6629,1.6629,0,0,0-1.3325-.6564,1.5393,1.5393,0,0,0-1.2527.6615,2.6416,2.6416,0,0,0-.5153,1.6715,2.595,2.595,0,0,0,.5438,1.7094,1.6607,1.6607,0,0,0,1.33.6591,1.5378,1.5378,0,0,0,1.2527-.664,2.6445,2.6445,0,0,0,.5153-1.6692ZM108.67,20.38a3.6228,3.6228,0,0,1-.95,2.57,3.0782,3.0782,0,0,1-2.3474,1.02,2.9642,2.9642,0,0,1-2.2321-.9368,3.2988,3.2988,0,0,1-.9-2.381,3.6234,3.6234,0,0,1,.95-2.57,3.08,3.08,0,0,1,2.3489-1.02,2.9732,2.9732,0,0,1,2.2321.9343A3.3026,3.3026,0,0,1,108.67,20.38Z"/><path class="a" d="M111.5251,23.7891h-1.4293q.0663-1.5653.0656-3.4391,0-1.843-.0656-3.136h1.4293q-.0663,1.2726-.0655,3.136,0,1.9042.0655,3.4391Z"/><path class="a" d="M117.4656,20.4914a2.4321,2.4321,0,0,0-.5652-1.6337,2.144,2.144,0,0,0-1.7268-.6641,5.3286,5.3286,0,0,0-.5964.0455q.0513,1.01.0512,2.1109,0,1.2072.05,2.3937a3.3269,3.3269,0,0,0,.6562.0657,1.9077,1.9077,0,0,0,1.6086-.6742,2.6,2.6,0,0,0,.5225-1.6438Zm1.3794-.2171a3.7285,3.7285,0,0,1-.92,2.5047A3.2106,3.2106,0,0,1,115.35,23.85q-.7475,0-2.0613-.0606.0662-1.5251.0669-3.4391,0-1.8381-.0669-3.136h.884c.1452,0,.36-.005.6463-.0151s.474-.0153.5608-.0153a3.4018,3.4018,0,0,1,2.6436.9091,3.1461,3.1461,0,0,1,.8214,2.1816Z"/><path class="a" d="M126.2218,20.9358a28.7873,28.7873,0,0,1-.8641-2.8179h-.0811q0,.197-.8926,2.8179Zm2.3332,2.8533h-1.6157a10.7215,10.7215,0,0,0-.46-1.8888h-2.3332a9.8215,9.8215,0,0,0-.4755,1.8888h-1.5189q0-.1969,1.1787-3.232a25.3341,25.3341,0,0,0,1.1787-3.3431h1.909a27.7,27.7,0,0,0,1.069,3.2951,28.9129,28.9129,0,0,1,1.0677,3.28Z"/><path class="a" d="M133.1431,19.2138q0-1.08-1.4349-1.0808a4.0643,4.0643,0,0,0-.7573.0759q.0554.9541.0554,2.1614c.0841.0068.1823.01.2933.01q1.8429,0,1.8435-1.1666Zm1.3026-.2777a1.9682,1.9682,0,0,1-.8968,1.7825,3.9829,3.9829,0,0,1-2.2.5757c-.1579,0-.27-.0031-.3373-.01q0,.95.0555,2.5048h-1.4193q.0641-1.4594.0655-3.4391,0-1.818-.0655-3.136h.8783c.1239,0,.3645-.005.7175-.0151s.6591-.0153.9182-.0153a2.8911,2.8911,0,0,1,1.6214.4344,1.4693,1.4693,0,0,1,.662,1.3181Z"/><path class="a" d="M139.1989,19.2138q0-1.08-1.4335-1.0808a4.0547,4.0547,0,0,0-.7574.0759q.0556.9541.0556,2.1614c.0839.0068.1822.01.2932.01q1.8427,0,1.8421-1.1666Zm1.3039-.2777a1.968,1.968,0,0,1-.8968,1.7825,3.9887,3.9887,0,0,1-2.1993.5757c-.1581,0-.2706-.0031-.3388-.01q0,.95.0555,2.5048h-1.4179q.064-1.4594.0655-3.4391,0-1.818-.0655-3.136h.8784q.1857,0,.7174-.0151.53-.0151.9181-.0153a2.8946,2.8946,0,0,1,1.6215.4344,1.4692,1.4692,0,0,1,.6619,1.3181Z"/><path class="a" d="M149.0115,20.5267a2.6083,2.6083,0,0,0-.541-1.7119,1.6627,1.6627,0,0,0-1.3325-.6564,1.5393,1.5393,0,0,0-1.2527.6615,2.6417,2.6417,0,0,0-.5154,1.6715,2.5951,2.5951,0,0,0,.5439,1.7094,1.6606,1.6606,0,0,0,1.33.6591,1.5378,1.5378,0,0,0,1.2527-.664,2.644,2.644,0,0,0,.5154-1.6692Zm1.3936-.1463a3.6227,3.6227,0,0,1-.95,2.57,3.0817,3.0817,0,0,1-2.3489,1.02,2.9685,2.9685,0,0,1-2.2321-.9368,3.3037,3.3037,0,0,1-.8983-2.381,3.6238,3.6238,0,0,1,.95-2.57,3.079,3.079,0,0,1,2.3475-1.02,2.969,2.969,0,0,1,2.2321.9343,3.2977,3.2977,0,0,1,.9,2.3836Z"/><path class="a" d="M157.25,23.7891h-1.2471a12.3345,12.3345,0,0,0-1.3879-2.1868,11.9718,11.9718,0,0,1-1.657-2.8532h-.0811a17.8538,17.8538,0,0,1,.1266,2q0,1.2476.0712,3.04h-1.2427q.0747-1.5653.0754-3.4391,0-1.843-.0754-3.136H153.33a9.5433,9.5433,0,0,0,1.2485,2.1362,12.5509,12.5509,0,0,1,1.5247,2.6916h.0753a19.01,19.01,0,0,1-.121-2.02q0-1.3683-.0711-2.8078H157.25q-.0705,1.2525-.07,3.136,0,1.899.07,3.4391Z"/><path class="a" d="M97.6754,44.855a10.538,10.538,0,0,1-2.9041,7.7989,11.3209,11.3209,0,0,1-8.584,3.46,12.0367,12.0367,0,0,1-12.1386-12.206A12.0341,12.0341,0,0,1,86.1873,31.7039a12.0537,12.0537,0,0,1,4.7988.9786A9.6209,9.6209,0,0,1,94.64,35.2934l-2.0556,2.056a7.8863,7.8863,0,0,0-6.3975-2.7748,9.0362,9.0362,0,0,0-9.0722,9.3336,9.1852,9.1852,0,0,0,15.5992,6.723,7.33,7.33,0,0,0,1.9574-4.7321H86.1873V43.0922H97.5117a9.963,9.963,0,0,1,.1637,1.7628Z"/><path class="a" d="M103.4678,51.7893a5.048,5.048,0,0,0,7.3427,0,5.7331,5.7331,0,0,0,1.55-4.1928,5.7385,5.7385,0,0,0-1.55-4.1942,5.0506,5.0506,0,0,0-7.3427,0,5.7385,5.7385,0,0,0-1.55,4.1942,5.7331,5.7331,0,0,0,1.55,4.1928Zm-2.235-10.279a8.391,8.391,0,0,1,11.8141,0,8.4732,8.4732,0,0,1,2.3161,6.0862,8.4733,8.4733,0,0,1-2.3161,6.0861,8.3908,8.3908,0,0,1-11.8141,0,8.4743,8.4743,0,0,1-2.3175-6.0861,8.4743,8.4743,0,0,1,2.3175-6.0862Z"/><path class="a" d="M120.9276,51.7893a5.048,5.048,0,0,0,7.3427,0,5.7331,5.7331,0,0,0,1.55-4.1928,5.7386,5.7386,0,0,0-1.55-4.1942,5.0506,5.0506,0,0,0-7.3427,0,5.7328,5.7328,0,0,0-1.55,4.1942,5.7274,5.7274,0,0,0,1.55,4.1928ZM118.6913,41.51a8.3909,8.3909,0,0,1,11.814,0,8.4728,8.4728,0,0,1,2.3161,6.0862,8.4729,8.4729,0,0,1-2.3161,6.0861,8.3906,8.3906,0,0,1-11.814,0,8.474,8.474,0,0,1-2.3176-6.0861,8.4739,8.4739,0,0,1,2.3176-6.0862Z"/><path class="a" d="M141.9279,53.3727a4.7839,4.7839,0,0,0,3.6057-1.5667,5.87,5.87,0,0,0,1.4848-4.2095,5.8682,5.8682,0,0,0-1.4848-4.21,4.8981,4.8981,0,0,0-7.1959.0154,5.8467,5.8467,0,0,0-1.5019,4.1942,5.8411,5.8411,0,0,0,1.5019,4.1928,4.7739,4.7739,0,0,0,3.59,1.5834Zm-.2278,9.79a7.2412,7.2412,0,0,1-4.6351-1.4193,8.329,8.329,0,0,1-2.5781-3.2475l2.7418-1.1413A4.488,4.488,0,0,0,138.91,59.54a4.6428,4.6428,0,0,0,2.79.8813,5.14,5.14,0,0,0,3.8991-1.4846,5.5879,5.5879,0,0,0,1.4192-4.03V53.3727h-.1309a6.1224,6.1224,0,0,1-2.2194,1.9574,6.627,6.627,0,0,1-3.23.7841,7.0364,7.0364,0,0,1-5.3525-2.4483,8.6243,8.6243,0,0,1-2.2521-6.0694,8.6279,8.6279,0,0,1,2.2521-6.071,7.04,7.04,0,0,1,5.3525-2.4467,6.6417,6.6417,0,0,1,3.23.7827,6.126,6.126,0,0,1,2.2194,1.9586h.1309V39.6H149.89V54.7753a7.9693,7.9693,0,0,1-2.3816,6.25,8.3933,8.3933,0,0,1-5.808,2.1366Z"/><polygon class="a" points="155.731 55.591 152.73 55.591 152.73 32.225 155.731 32.225 155.731 55.591 155.731 55.591"/><path class="a" d="M169.959,45.671a4.2643,4.2643,0,0,0-1.2571-2.6108,4.4891,4.4891,0,0,0-3.4435-1.24,4.3042,4.3042,0,0,0-2.887,1.0441A5.3378,5.3378,0,0,0,160.69,45.671Zm-4.3077,10.4432a7.7081,7.7081,0,0,1-5.8906-2.4162,8.56,8.56,0,0,1-2.2692-6.1015,8.8054,8.8054,0,0,1,2.2036-6.0057,7.154,7.154,0,0,1,5.6287-2.512,7.375,7.375,0,0,1,5.6943,2.3175,8.7851,8.7851,0,0,1,2.1381,6.2l-.0313.5546h-12.63a5.4193,5.4193,0,0,0,1.6143,3.8174,4.9,4.9,0,0,0,3.4763,1.4042,4.3087,4.3087,0,0,0,4.3732-2.7415l2.6748,1.1094a7.1613,7.1613,0,0,1-2.578,3.1167,7.4931,7.4931,0,0,1-4.4045,1.2569Z"/><path class="a" d="M184.97,43.2562h5.0252a3.8821,3.8821,0,0,0,3.035-1.2733,4.0158,4.0158,0,0,0,0-5.6122,3.8772,3.8772,0,0,0-3.035-1.2734H184.97v8.1589Zm0,12.3352H181.968V32.2252H189.93a7.3906,7.3906,0,0,1,5.14,1.974,6.7931,6.7931,0,0,1,0,9.9538,7.3848,7.3848,0,0,1-5.14,1.974h-4.96v9.4644Z"/><polygon class="a" points="202.201 55.591 199.199 55.591 199.199 32.225 202.201 32.225 202.201 55.591 202.201 55.591"/><path class="a" d="M210.4233,53.3727a4.8935,4.8935,0,0,0,3.3781-1.3874,4.2994,4.2994,0,0,0,1.516-3.2794,5.9112,5.9112,0,0,0-3.8165-1.0441,4.9718,4.9718,0,0,0-3.2969.9453,2.8467,2.8467,0,0,0-1.109,2.22,2.1349,2.1349,0,0,0,1.0122,1.86,4.0366,4.0366,0,0,0,2.3161.6854Zm-.49,2.7415a6.3139,6.3139,0,0,1-4.2578-1.47,4.8586,4.8586,0,0,1-1.714-3.8827,4.7956,4.7956,0,0,1,2.0243-4.0955,8.2055,8.2055,0,0,1,4.9924-1.4847,8.5865,8.5865,0,0,1,4.3389.9787v-.4573a3.57,3.57,0,0,0-1.2056-2.8221,4.339,4.339,0,0,0-2.97-1.0609,4.6,4.6,0,0,0-2.3659.62,3.2,3.2,0,0,0-1.4535,1.6961l-2.7417-1.1747a6.2288,6.2288,0,0,1,2.1865-2.6595,7.0036,7.0036,0,0,1,4.3092-1.2233,7.3951,7.3951,0,0,1,5.0905,1.7947,6.4117,6.4117,0,0,1,2.0229,5.0589v9.659h-2.8728V53.3727h-.1281a5.8909,5.8909,0,0,1-5.2557,2.7415Z"/><polygon class="a" points="224.719 62.64 221.618 62.64 225.338 54.579 218.747 39.6 222.01 39.6 226.774 51.089 226.84 51.089 231.473 39.6 234.736 39.6 224.719 62.64 224.719 62.64"/><path class="a" d="M18.0492,43.512q0-11.195-.0043-22.39a3.3607,3.3607,0,0,1,.8271-2.4441c.2519-.2689.4327-.3408.7431-.0255q7.5312,7.6863,15.0882,15.35Q39.591,38.97,44.4916,43.925c.3174.32.3459.4881.01.8224Q32.4945,56.6853,20.5247,68.6583a.8237.8237,0,0,1-1.2968.0768,3.0383,3.0383,0,0,1-1.1816-2.5865q.0021-6.6306-.01-13.2612-.0021-4.6876,0-9.3754Z"/><path class="a" d="M20.9176,17.8261a2.753,2.753,0,0,1,1.4563.4043q15.3317,8.5914,30.669,17.1728c.47.2625.46.41.0968.7666q-3.4294,3.3738-6.82,6.7858c-.2448.2448-.3929.3862-.7217.0518q-12.197-12.44-24.4167-24.859c-.0684-.0694-.1253-.151-.2634-.3223Z"/><path class="a" d="M23.2053,68.4685Q34.3346,57.22,45.4511,45.959c.4584-.4668.6733-.4043,1.0847.0245Q49.3566,48.92,52.24,51.7948c.3373.3383.3658.4763-.0911.7269q-14.2875,7.82-28.5592,15.667a4.3018,4.3018,0,0,0-.3844.28Z"/><path class="a" d="M65.5886,43.7194a2.3349,2.3349,0,0,1-1.0292,1.8745,12.7167,12.7167,0,0,1-1.4193.8653c-2.88,1.5923-5.7668,3.169-8.641,4.7721a.6442.6442,0,0,1-.9381-.1255q-3.0684-3.1694-6.1853-6.2923c-.3018-.3034-.31-.4694,0-.7748q3.6258-3.5719,7.216-7.1817a.5773.5773,0,0,1,.8356-.1166c2.8442,1.6121,5.7027,3.2014,8.5541,4.8a2.6174,2.6174,0,0,1,1.6072,2.1791Z"/></svg>