<svg xmlns="http://www.w3.org/2000/svg" viewBox="0 0 186 102.1"><defs><style>.a{fill:none;stroke:#fff;stroke-miterlimit:10;stroke-width:2px;}.b{fill:#fff;}</style></defs><title>instruction_ar</title><rect class="a" x="42.95" y="-40.95" width="100.1" height="184" rx="4.72" transform="translate(41.95 144.05) rotate(-90)"/><path class="a" d="M7.26,11.33V33.82a3,3,0,0,0,3,3h0a3.48,3.48,0,0,1,3.48,3.48V61.83a3.47,3.47,0,0,1-3.48,3.47h0a3,3,0,0,0-3,3v22.5a5.93,5.93,0,0,0,5.93,5.93H172.81a5.93,5.93,0,0,0,5.93-5.93V11.33a5.93,5.93,0,0,0-5.93-5.94H13.19A5.93,5.93,0,0,0,7.26,11.33Z"/><path class="b" d="M114.39,16.52l.63.13a8.7,8.7,0,0,1,6.09,4.6A8.1,8.1,0,0,1,122,24a9.19,9.19,0,0,1,0,2,8.43,8.43,0,0,1-1.1,3.44,8.63,8.63,0,0,1-4.19,3.7,7.74,7.74,0,0,1-2.46.62l-.15,0c0,.12,0,.23,0,.34,0,3.29,0,6.58,0,9.88q0,6.7,0,13.43c0,3,0,5.94,0,8.91a11.3,11.3,0,0,1-9,11.16,10.82,10.82,0,0,1-2.12.22H71.51a9.49,9.49,0,0,1-2.54-.4A11.11,11.11,0,0,1,63.6,74a10.76,10.76,0,0,1-2.35-4.26,16,16,0,0,1-.38-1.8,15.57,15.57,0,0,1-.07-2.73q0-9.62,0-19.24V35.46a10.41,10.41,0,0,1,.63-3.5,10.63,10.63,0,0,1,2-3.53,11.45,11.45,0,0,1,3-2.48,11.61,11.61,0,0,1,3.79-1.35,7.81,7.81,0,0,1,1-.1c2.16-.12,4.33-.05,6.5-.06,2.73,0,5.45,0,8.18,0H104.7c.1-.5.16-1,.28-1.43a8.5,8.5,0,0,1,1.63-3.28A8.71,8.71,0,0,1,110,17.18a8.12,8.12,0,0,1,2.27-.61.55.55,0,0,0,.17-.05Zm-9.68,9H72a9.89,9.89,0,0,0-1.33.08,10.77,10.77,0,0,0-2.89.84,10,10,0,0,0-2.8,1.9,10.21,10.21,0,0,0-2.59,4A10.91,10.91,0,0,0,61.86,36V51.17c0,3.34,0,6.68,0,10,0,1.94,0,3.87,0,5.81a8.19,8.19,0,0,0,.23,1.78,10.17,10.17,0,0,0,9.94,7.88c3.75,0,7.5,0,11.25,0,4.44,0,8.88,0,13.32,0,2.25,0,4.49.06,6.73,0a9.78,9.78,0,0,0,2.46-.44,10,10,0,0,0,5-3.5A9.86,9.86,0,0,0,113,66.55c0-3.36,0-6.73,0-10.1V34.1c0-.09,0-.19,0-.29a8.53,8.53,0,0,1-5.68-2.52A8.67,8.67,0,0,1,104.71,25.56Zm14.63-2c-1.45,0-2.86,0-4.31,0V19.22a27.19,27.19,0,0,0-3.29,0v1.43c0,.47,0,.94,0,1.41s0,.95,0,1.46h-4.3a25.23,25.23,0,0,0,0,3.26h4.31v4.28c1.12,0,2.19,0,3.29,0V27.87a9.82,9.82,0,0,1,0-1.08h2.14c.71,0,1.42,0,2.15,0V23.55Z"/><path class="b" d="M79.48,36.44q4.18,11.46,8.36,22.9h0V36.45l.27,0c3.74,0,7.47,0,11.21,0a10,10,0,0,1,4.79,1.16,8.24,8.24,0,0,1,3.8,4.22,9.44,9.44,0,0,1,.61,2.46,9.23,9.23,0,0,1,0,1.66,7.76,7.76,0,0,1-2,4.87,8.2,8.2,0,0,1-3.07,2.06l-.14.06c.34.7.71,1.37,1.06,2s.71,1.38,1.07,2.07l1.08,2.1,1.08,2.06,1.06,2.06,1.08,2.09h-6.59L97.59,53.9h-4a2.4,2.4,0,0,0,0,.28v6.73c0,1.39,0,2.79,0,4.18,0,.08,0,.17,0,.27H84.1l-1.69-5.07H72.18l-1.74,5.07H64.55c0-.35,10.31-28.57,10.51-28.92ZM93.6,49.11l.14,0,5.39,0a4.24,4.24,0,0,0,1.54-.32,3.46,3.46,0,0,0,2-1.93,4.05,4.05,0,0,0,.27-1.85,3.45,3.45,0,0,0-1.52-2.73,3.9,3.9,0,0,0-2.29-.71c-1.75,0-3.5,0-5.25,0l-.25,0ZM77.42,45.19h-.07L73.78,55.47c.53.06,6.8,0,7.09,0Z"/></svg>