<svg xmlns="http://www.w3.org/2000/svg" xmlns:xlink="http://www.w3.org/1999/xlink" viewBox="0 0 450.17 158.96"><defs><style>.a,.aa,.ab,.g,.i,.l,.n,.o,.p,.q,.r,.s,.t,.v,.x,.y{fill:none;}.b,.u{fill:#fff;}.c,.o,.t,.u{opacity:0.3;}.d{clip-path:url(#a);}.e{opacity:0.6;}.f{fill:#5c5b5c;}.aa,.ab,.ac,.g,.i,.l,.o,.p,.q,.r,.s,.v,.w,.x,.y,.z{stroke:#fff;}.aa,.ab,.ac,.g,.i,.l,.n,.o,.q,.r,.s,.t,.v,.w,.y,.z{stroke-miterlimit:10;}.g{stroke-width:0.29px;}.h{fill:#1c1c1c;}.i{stroke-width:0.3px;}.j{fill:#3f3f3f;}.k{fill:#717070;}.l{stroke-width:0.19px;}.m{fill:#a4a09e;}.n{stroke:#343131;}.n,.t{stroke-width:0.5px;}.o,.v,.w{stroke-width:2px;}.p,.q,.x,.y{stroke-linecap:round;}.p,.x{stroke-linejoin:round;}.p,.q,.r,.s{stroke-width:0.48px;}.s{stroke-dasharray:1.11 1.11;}.t{stroke:#d3cfcd;}.w{fill:#00a3a5;}.aa,.ab,.x,.y{stroke-width:0.4px;}.z{fill:#817f7e;}.ab{stroke-dasharray:0.93 0.93;}.ac{fill:#d3cfcd;opacity:0.52;}</style><clipPath id="a" transform="translate(0 17.64)"><rect class="a" x="1" y="1" width="247.68" height="139.32"/></clipPath></defs><title>instruction_screen</title><path class="b" d="M197.85,97.58l.21,0a2.81,2.81,0,0,1,1.34.65,2.94,2.94,0,0,1,.67.86,3.14,3.14,0,0,1,.28.9,3,3,0,0,1,0,.67,2.68,2.68,0,0,1-.36,1.14,2.92,2.92,0,0,1-1.38,1.22,2.53,2.53,0,0,1-.81.2h-.05s0,.08,0,.11v7.69c0,1,0,2,0,2.93a3.72,3.72,0,0,1-3,3.68,3.26,3.26,0,0,1-.7.07H183.72a3,3,0,0,1-.84-.13,3.67,3.67,0,0,1-1.77-1.11,3.62,3.62,0,0,1-.78-1.41c-.05-.19-.08-.39-.12-.59a5.41,5.41,0,0,1,0-.9c0-2.11,0-4.23,0-6.34,0-1.15,0-2.3,0-3.45a3.55,3.55,0,0,1,.21-1.16,3.63,3.63,0,0,1,.67-1.16,3.86,3.86,0,0,1,1-.82,4,4,0,0,1,1.25-.44l.32,0c.71,0,1.42,0,2.14,0h8.91c0-.17.05-.32.09-.48a2.82,2.82,0,0,1,.54-1.08,2.92,2.92,0,0,1,1.1-.84,2.77,2.77,0,0,1,.75-.2l.05,0Zm-3.19,3H183.89a3.11,3.11,0,0,0-.43,0,3.64,3.64,0,0,0-1,.28,3.17,3.17,0,0,0-.92.62,3.3,3.3,0,0,0-.85,1.33,3.43,3.43,0,0,0-.19,1.18v8.31c0,.64,0,1.28,0,1.91a2.89,2.89,0,0,0,.08.59,3.37,3.37,0,0,0,3.28,2.6c1.23,0,2.47,0,3.71,0H192c.74,0,1.48,0,2.21,0a3.82,3.82,0,0,0,.82-.15,3.32,3.32,0,0,0,1.65-1.15,3.21,3.21,0,0,0,.69-2c0-1.11,0-2.22,0-3.33s0-2.28,0-3.42c0-1.32,0-2.63,0-4v-.1a2.77,2.77,0,0,1-1.88-.83A2.85,2.85,0,0,1,194.66,100.56Zm4.83-.66c-.48,0-1,0-1.43,0V98.48a9.7,9.7,0,0,0-1.08,0v.94a3.89,3.89,0,0,1,0,.48h-1.42a9.4,9.4,0,0,0,0,1.07H197v1.42c.37,0,.72,0,1.08,0V102c0-.11,0-.23,0-.34s0-.24,0-.35,0-.24,0-.36h1.42V99.9Z" transform="translate(0 17.64)"/><path class="b" d="M186.35,104.15l2.75,7.55h0v-7.54h.09c1.23,0,2.46,0,3.69,0a3.32,3.32,0,0,1,1.58.38,2.72,2.72,0,0,1,1.25,1.4,2.83,2.83,0,0,1,.2.81,3.25,3.25,0,0,1,0,.54,2.59,2.59,0,0,1-.67,1.61,2.77,2.77,0,0,1-1,.68l-.05,0c.11.23.24.45.35.67l.35.68.36.7c.12.22.24.45.35.68l.36.68.35.69h-2.17l-1.85-3.78H191s0,.06,0,.09v2.22c0,.46,0,.92,0,1.38,0,0,0,.05,0,.08h-3.12l-.56-1.67h-3.37l-.58,1.68h-1.94c0-.12,3.4-9.42,3.47-9.54Zm4.65,4.18h.05l1.77,0a1.45,1.45,0,0,0,.51-.1,1.2,1.2,0,0,0,.65-.64,1.42,1.42,0,0,0,.09-.61,1.16,1.16,0,0,0-.5-.9,1.37,1.37,0,0,0-.76-.24H191ZM185.67,107h0l-1.18,3.39c.17,0,2.24,0,2.33,0Z" transform="translate(0 17.64)"/><g class="c"><g class="d"><g class="e"><path class="f" d="M88.43,25.52l.26,14.9a5,5,0,0,1-5.67,0V23.5" transform="translate(0 17.64)"/><path class="g" d="M88.43,25.52l.26,14.9a5,5,0,0,1-5.67,0V23.5" transform="translate(0 17.64)"/><path class="h" d="M114.1,19.11c.08,1.61-3.65.72-4.79.26a14.84,14.84,0,0,1-2.94-1c-1-.63-1.54-1.71-2.44-2.42a14.56,14.56,0,0,1-2.83-2.48c-.12-.17-.28-.36-.41-.55-.58-.86.14-1.82.83-2.34,1.61-1.21,4.67-.79,6.5-.4a7.77,7.77,0,0,1,5.15,3.3,9.59,9.59,0,0,1,1.1,2.62c.2.82-.26,1.4-.17,3" transform="translate(0 17.64)"/><path class="i" d="M114.1,19.11c.08,1.61-3.65.72-4.79.26a14.84,14.84,0,0,1-2.94-1c-1-.63-1.54-1.71-2.44-2.42a14.56,14.56,0,0,1-2.83-2.48c-.12-.17-.28-.36-.41-.55-.58-.86.14-1.82.83-2.34,1.61-1.21,4.67-.79,6.5-.4a7.77,7.77,0,0,1,5.15,3.3,9.59,9.59,0,0,1,1.1,2.62C114.47,16.89,114,17.47,114.1,19.11Z" transform="translate(0 17.64)"/><path class="j" d="M79.61,18.52a5.48,5.48,0,0,0,.88,2.7c.94,1.08,6.72,4.75,8.25,4.36a.53.53,0,0,0,.42-.33c.07-.22,0-.48,0-.7s.6,0,.7,0a30.52,30.52,0,0,0,5.46-2.72,10.72,10.72,0,0,0,1.55-3,9.89,9.89,0,0,0,.16-4.94,18.45,18.45,0,0,0,4.89-1.65,8.65,8.65,0,0,1,8.22.82c1.69,1.13,2.11,2.93,2.74,4.72.14.38,1.3,3.16,1.68,3,.33,0,.55-.25.84-.37s.63-.26.72-.58a.85.85,0,0,0-.28-.89c-.5-.55-1.5-1.76-.65-2.37,1.07-.75,2.91-1.56,2.91-3.05a2.41,2.41,0,0,0-.09-1.11c-.54-.92-1.68-1.4-2.46-2.09-1-.93-1.89-2-2.87-3-.22-.22-.38-.48-.61-.7-1.54-1.51-.67-3.55.08-5.28a2.94,2.94,0,0,0,.09-1.12c0-1-1-1.86-1.45-2.71a15.5,15.5,0,0,1-1.27-3.61A21,21,0,0,0,108-9.77a10.72,10.72,0,0,0-6.61-5.74c-1.29-.46-2.69-1.08-4-1.41-3.23-.82-7.06-.52-10.37-.52A33.78,33.78,0,0,0,71.2-13.56c-2,1-3.31,2.7-4.9,4.15-3.34,3-5.43,8-6.17,12.35a35.39,35.39,0,0,0-.47,5.31,22.8,22.8,0,0,0,3.26,12.66c.09.13.18.26.26.4a3.48,3.48,0,0,0,.61.6c.25.25.41.54.81.49.16,0,.25-.12.39-.17s.37,0,.55,0,.09-.09.17-.11.19,0,.29,0c3.82-.94,7.87-1.58,11.54-3,.26-.11,2-.86,2.07-.55" transform="translate(0 17.64)"/><path class="i" d="M79.61,18.52a5.48,5.48,0,0,0,.88,2.7c.94,1.08,6.72,4.75,8.25,4.36a.53.53,0,0,0,.42-.33c.07-.22,0-.48,0-.7s.6,0,.7,0a30.52,30.52,0,0,0,5.46-2.72,10.72,10.72,0,0,0,1.55-3,9.89,9.89,0,0,0,.16-4.94,18.45,18.45,0,0,0,4.89-1.65,8.65,8.65,0,0,1,8.22.82c1.69,1.13,2.11,2.93,2.74,4.72.14.38,1.3,3.16,1.68,3,.33,0,.55-.25.84-.37s.63-.26.72-.58a.85.85,0,0,0-.28-.89c-.5-.55-1.5-1.76-.65-2.37,1.07-.75,2.91-1.56,2.91-3.05a2.41,2.41,0,0,0-.09-1.11c-.54-.92-1.68-1.4-2.46-2.09-1-.93-1.89-2-2.87-3-.22-.22-.38-.48-.61-.7-1.54-1.51-.67-3.55.08-5.28a2.94,2.94,0,0,0,.09-1.12c0-1-1-1.86-1.45-2.71a15.5,15.5,0,0,1-1.27-3.61A21,21,0,0,0,108-9.77a10.72,10.72,0,0,0-6.61-5.74c-1.29-.46-2.69-1.08-4-1.41-3.23-.82-7.06-.52-10.37-.52A33.78,33.78,0,0,0,71.2-13.56c-2,1-3.31,2.7-4.9,4.15-3.34,3-5.43,8-6.17,12.35a35.39,35.39,0,0,0-.47,5.31,22.8,22.8,0,0,0,3.26,12.66c.09.13.18.26.26.4a3.48,3.48,0,0,0,.61.6c.25.25.41.54.81.49.16,0,.25-.12.39-.17s.37,0,.55,0,.09-.09.17-.11.19,0,.29,0c3.82-.94,7.87-1.58,11.54-3C77.8,19,79.57,18.21,79.61,18.52Z" transform="translate(0 17.64)"/><path class="k" d="M86.19,7.25c1.35-.56,4.46-.28,6.39.85a10.66,10.66,0,0,1,3.36,3.67,7.75,7.75,0,0,1,1.56,5.12,7,7,0,0,1-2.61,5.25,6.12,6.12,0,0,1-.93.7c-1.37.66-2.93,1.76-4.51,1.74-.12,0-.26,0-.3.12s0,.26,0,.37-.05.14-.14.23-.1.12-.22.13a3.09,3.09,0,0,1-.43,0,6.84,6.84,0,0,1-3.28-1,14.09,14.09,0,0,1-3.49-2,1.71,1.71,0,0,1-.18-.2,2.27,2.27,0,0,0-.25-.18,7.1,7.1,0,0,1-2-4.2,18.74,18.74,0,0,1-.67-5.31,9.24,9.24,0,0,1,2.63-5,2.8,2.8,0,0,1,.56-.39,5,5,0,0,1,2.71-.32,4.41,4.41,0,0,1,1.85.37" transform="translate(0 17.64)"/><path class="i" d="M86.19,7.25c1.35-.56,4.46-.28,6.39.85a10.66,10.66,0,0,1,3.36,3.67,7.75,7.75,0,0,1,1.56,5.12,7,7,0,0,1-2.61,5.25,6.12,6.12,0,0,1-.93.7c-1.37.66-2.93,1.76-4.51,1.74-.12,0-.26,0-.3.12s0,.26,0,.37-.05.14-.14.23-.1.12-.22.13a3.09,3.09,0,0,1-.43,0,6.84,6.84,0,0,1-3.28-1,14.09,14.09,0,0,1-3.49-2,1.71,1.71,0,0,1-.18-.2,2.27,2.27,0,0,0-.25-.18,7.1,7.1,0,0,1-2-4.2,18.74,18.74,0,0,1-.67-5.31,9.24,9.24,0,0,1,2.63-5,2.8,2.8,0,0,1,.56-.39,5,5,0,0,1,2.71-.32A4.41,4.41,0,0,1,86.19,7.25Z" transform="translate(0 17.64)"/><path class="i" d="M88.54,8.85a9.3,9.3,0,0,0-2.35-1.6" transform="translate(0 17.64)"/><path class="i" d="M87.05,11.32h0a2.32,2.32,0,0,0,0-1,2.12,2.12,0,0,0-.5-1.17c-1.18-1.43-3.23-.26-4.46.43-.09.05-.16.12-.24.17a2.91,2.91,0,0,0-1.28,1.86c-.09.31-.19.61-.28.92a8.75,8.75,0,0,0-.34,2.33,1.94,1.94,0,0,0,.36.95,3.27,3.27,0,0,1,.3,1c.08.93-.18,1.75.26,2.62a3.82,3.82,0,0,0,.9,1.14,5.74,5.74,0,0,0,.53.32,2,2,0,0,1,.62.54" transform="translate(0 17.64)"/><path class="i" d="M89,14.59a4.57,4.57,0,0,1-.28,1.55c-.28.7.16,1.19.48,1.78.09.17.14.36.21.53a4.83,4.83,0,0,1,.16.5" transform="translate(0 17.64)"/><path class="i" d="M86.14,11.76c-.08,0-.16.14-.22.2l-.19.16A18.76,18.76,0,0,0,83.66,14c-.64.62-.63,1.2-1,2-.11.21-.15.44-.24.64a1.85,1.85,0,0,0,.12,1.57c.56.94,4.64.92,4.26,2.35" transform="translate(0 17.64)"/><path class="b" d="M86.68,15.92a1.36,1.36,0,0,1,.25-.11.49.49,0,0,1,.17,0,.5.5,0,0,1,.13,0,.87.87,0,0,1,.53.35,1,1,0,0,1,.11.25c0,.05,0,.11,0,.17s.05.1.05.19,0,.18-.08.28-.14.14-.21.21a.58.58,0,0,1-.49.22.78.78,0,0,1-.57-.19,1,1,0,0,1-.18-.18c-.1-.11-.08-.2-.08-.34s-.06-.62.18-.61c0,0,0-.05-.06,0" transform="translate(0 17.64)"/><path class="g" d="M85.1,17h.13c-.23,0-.4-.23-.62-.28,0,0-.06-.09-.13-.1l-.24,0c-.15,0-.28,0-.4.07-.36.31-.2.93-.77,1a.52.52,0,0,0-.06.13" transform="translate(0 17.64)"/><path class="f" d="M90.66,23.34s-1.48.22-1.48,1.21" transform="translate(0 17.64)"/><path class="i" d="M90.66,23.34s-1.48.22-1.48,1.21" transform="translate(0 17.64)"/><path class="l" d="M88.28,38.51a5.58,5.58,0,0,1-4.94,0" transform="translate(0 17.64)"/><path class="l" d="M88.28,39.36s-3.4.62-5.15-.55" transform="translate(0 17.64)"/><path class="l" d="M88.28,39.73s-3.4.63-5.15-.54" transform="translate(0 17.64)"/><path class="l" d="M88.28,40.11s-3.4.63-5.15-.54" transform="translate(0 17.64)"/><path class="l" d="M88.28,40.49s-3.4.63-5.15-.54" transform="translate(0 17.64)"/><path class="j" d="M102.75,31.76c.29,0,.37.52.46.73,1.83,4.34-4.28,3.79-6.57,3.18a24.63,24.63,0,0,1-4.13-2.09c-2.17-1.12-3,0-5.69.43-1.14.2-2.91.6-4-.09a3.2,3.2,0,0,1-1.61-2.86,2.51,2.51,0,0,1,1.27-1.89c.85-.3.83.59,2.71.79,1.35.14,2.15-.53,3.4-.8.56-.12,2.88.71,4.18,1.37,1,.55,4.77,2.75,5.27.52a2.43,2.43,0,0,1,.16-.37c.25-.61,1-.46,1.46-.5a5.46,5.46,0,0,1,2.34.43c.8.27.53.48.54,1.15Z" transform="translate(0 17.64)"/><path class="g" d="M102.75,31.76c.29,0,.37.52.46.73,1.83,4.34-4.28,3.79-6.57,3.18a24.63,24.63,0,0,1-4.13-2.09c-2.17-1.12-3,0-5.69.43-1.14.2-2.91.6-4-.09a3.2,3.2,0,0,1-1.61-2.86,2.51,2.51,0,0,1,1.27-1.89c.85-.3.83.59,2.71.79,1.35.14,2.15-.53,3.4-.8.56-.12,2.88.71,4.18,1.37,1,.55,4.77,2.75,5.27.52a2.43,2.43,0,0,1,.16-.37c.25-.61,1-.46,1.46-.5a5.46,5.46,0,0,1,2.34.43c.8.27.53.48.54,1.15Z" transform="translate(0 17.64)"/><path class="l" d="M102.46,31.65a5.53,5.53,0,0,1-4.4-.13" transform="translate(0 17.64)"/><path class="l" d="M102.37,30.69s-1.44,1-4.1.18" transform="translate(0 17.64)"/><path d="M99.08,30.43c0,.14.5.26,1.11.26s1.11-.12,1.11-.26-.49-.26-1.11-.26-1.11.12-1.11.26" transform="translate(0 17.64)"/><path class="i" d="M111,5.13c.11,0,0,.11,0,.11l0,.08c-.11,0-.16.1-.23.16a1.7,1.7,0,0,1-.22.15c-.13.09-.25.23-.38.32a2.12,2.12,0,0,0-.36.25c-.13.11-.26.22-.26.39a.37.37,0,0,0,0,.26.9.9,0,0,0,.16.18,3.11,3.11,0,0,0,.54.35.86.86,0,0,1,.2.13,1.23,1.23,0,0,1,.25.14.6.6,0,0,1,.06.3,1,1,0,0,1,0,.31,1.07,1.07,0,0,0-.16.44c0,.21-.11.39-.11.6a1.47,1.47,0,0,0,0,.56c.1.16.23.26.34.41a3.69,3.69,0,0,1,.48,1,2.89,2.89,0,0,1,.24,1.15,2,2,0,0,0,0,.35c0,.07,0,.15.05.22s0,.23.09.29" transform="translate(0 17.64)"/><path class="i" d="M110.6,7a1,1,0,0,0,0-1.21" transform="translate(0 17.64)"/></g><rect class="m" x="132.67" y="3.27" width="59.13" height="7.58"/><rect class="b" x="132.67" y="15.68" width="59.13" height="21.39"/><rect class="b" x="132.67" y="39.38" width="59.13" height="13.05"/><rect class="b" x="132.67" y="54.74" width="34.45" height="6.52"/><polyline class="n" points="90.66 29.4 113.66 6.4 132.67 6.4"/></g></g><rect class="o" x="1" y="18.64" width="247.68" height="139.32"/><path class="p" d="M154.75,108.86c4,4.91,5.19-3.35,6.42-5.67.86-1.6,2-3.11,2.94-4.67C166.17,95,168,91,168,86.82c0-5.32,2.56-10.27,2.56-15.53a6,6,0,0,0-.21-2A5.44,5.44,0,0,0,169.6,68c-2.58-3.56-6.47,2.58-8.74,3.46a6.33,6.33,0,0,1-2.22.17,2.26,2.26,0,0,1-1.41-.42c-.94-.67-1.43-1.56-2.51-2h-5.79a.66.66,0,0,0-.66.66v2H134.22a1.85,1.85,0,0,0-1.85,1.86v32.86a1.85,1.85,0,0,0,1.85,1.86h14.05v2.36a.67.67,0,0,0,.66.66h5.82Z" transform="translate(0 17.64)"/><path class="q" d="M170.36,73.61c-.08-.15-.65-1.2-.72-1.36-.86-1.78-2.4-.71-3.22.3C164.89,74.45,163,76,161.53,78c-1.63,2.2-2.18,5.52-2.18,8.22,0,.24.1.93-.12.93H133.09" transform="translate(0 17.64)"/><path class="q" d="M158.27,101.43a12.34,12.34,0,0,1,0-1.49c.24-1.77,1.25-2.84,1.93-4.43.16-.36.36-.7.53-1.05a2.89,2.89,0,0,0,.29-1.34c0-.46-.11-.9-.11-1.22H132.45" transform="translate(0 17.64)"/><path class="q" d="M166.17,73.29c.2.38.54.65.74,1a3.36,3.36,0,0,1,.21,1.58c0,1.58-.24,3.15-.24,4.74,0,.47,0,1,0,1.57a5.8,5.8,0,0,1-.22,2.42c-.12.25-.1.5-.21.74" transform="translate(0 17.64)"/><path class="q" d="M161,78.86c-.15.52,1.34,2.5,1.69,2.88l.58.57a3.41,3.41,0,0,1,.92,2.66,1.34,1.34,0,0,0,.32.84" transform="translate(0 17.64)"/><path class="q" d="M165.33,85.92a3.85,3.85,0,0,1-.43,3.6c-1.29,1.93-1.23,4.19-2.38,6.1a2.76,2.76,0,0,1-1,1c-.32.16-1.57.11-1.67-.43" transform="translate(0 17.64)"/><path class="q" d="M159.39,86.49c.52-.89,1.27-.81,2-1.19.34-.17.46-.5.68-.78a4.8,4.8,0,0,0,.46-1" transform="translate(0 17.64)"/><path class="b" d="M145.88,89.16a9.46,9.46,0,0,1,5.68-1.32H154s.87-.32.87.61v2.41s.14.62-.64.49l-2.73,0s-4.24-.06-5.61-.94Z" transform="translate(0 17.64)"/><path class="r" d="M145.88,89.58l-11.76.28s-2.84-.19-3.24,6.93" transform="translate(0 17.64)"/><line class="s" x1="154.79" y1="86.88" x2="154.79" y2="104.85"/><line class="s" x1="148.26" y1="89.58" x2="148.26" y2="104.85"/><line class="s" x1="154.79" y1="128.06" x2="154.79" y2="109.78"/><line class="s" x1="148.26" y1="125.99" x2="148.26" y2="109.78"/><path class="b" d="M158.18,89.58a.72.72,0,1,0-.71.71.71.71,0,0,0,.71-.71" transform="translate(0 17.64)"/><path class="b" d="M150.46,87.84a.72.72,0,1,0,.72-.71.72.72,0,0,0-.72.71" transform="translate(0 17.64)"/><path class="b" d="M164.11,77.34a.72.72,0,1,0,0,1.43.72.72,0,1,0,0-1.43" transform="translate(0 17.64)"/><line class="t" x1="55.25" y1="69.05" x2="194.43" y2="69.05"/><rect class="u" x="60.46" y="86.24" width="59.13" height="7.58"/><rect class="u" x="60.46" y="98.65" width="59.13" height="21.39"/><rect class="u" x="60.46" y="122.35" width="59.13" height="13.05"/><rect class="v" x="81.46" y="74.87" width="131.14" height="66.74"/><line class="v" x1="81.46" y1="74.87" x2="281.48" y2="131.36"/><line class="v" x1="212.6" y1="74.87" x2="281.48" y2="131.36"/><line class="v" x1="212.6" y1="141.61" x2="281.48" y2="131.36"/><line class="v" x1="81.46" y1="141.61" x2="281.48" y2="131.36"/><rect class="w" x="307.12" y="-8.12" width="100.1" height="184" rx="4.72" transform="translate(273.29 458.69) rotate(-90)"/><path class="w" d="M271.43,44.16V66.65a3,3,0,0,0,3,3h0a3.47,3.47,0,0,1,3.47,3.48V94.65a3.47,3.47,0,0,1-3.47,3.48h0a3,3,0,0,0-3,3v22.5a5.93,5.93,0,0,0,5.93,5.93H437a5.94,5.94,0,0,0,5.93-5.93V44.16A5.94,5.94,0,0,0,437,38.22H277.36A5.93,5.93,0,0,0,271.43,44.16Z" transform="translate(0 17.64)"/><path class="x" d="M344,103.94c3.52,4.84,5.83-4,7.42-6.62,1.09-1.77,2.5-3.48,3.66-5.23,2.59-3.91,5.05-8.37,5.56-12.77.66-5.66,4-11.15,4.65-16.73a6.32,6.32,0,0,0,0-2.12,4.55,4.55,0,0,0-.63-1.29c-2.25-3.55-7.08,3.32-9.56,4.46a6.71,6.71,0,0,1-2.33.39,2,2,0,0,1-1.42-.32c-.9-.62-1.3-1.53-2.36-1.94l-6,.53a.91.91,0,0,0-.77.76L342,65.23l-14.65,1.28a2.53,2.53,0,0,0-2.17,2.14l-1.77,14.76L321,103.56a1.52,1.52,0,0,0,1.7,1.79l14.65-1.28-.31,2.51a.55.55,0,0,0,.61.64l6.07-.53Z" transform="translate(0 17.64)"/><path class="y" d="M364.77,65.08c-.06-.16-.52-1.22-.58-1.38-.67-1.82-2.41-.54-3.39.61-1.84,2.15-4,4-5.79,6.21a18.37,18.37,0,0,0-3.32,8.93c0,.25,0,1-.24,1l-27.27,2.39" transform="translate(0 17.64)"/><path class="y" d="M348.62,95.72a12.56,12.56,0,0,1,.2-1.59c.47-1.9,1.65-3.12,2.57-4.87.21-.4.46-.78.69-1.17a3.65,3.65,0,0,0,.47-1.44c.05-.49,0-1,0-1.29L322.91,88" transform="translate(0 17.64)"/><path class="y" d="M360.45,65.12c.16.38.47.64.63,1a3.44,3.44,0,0,1,0,1.66c-.2,1.68-.65,3.37-.85,5.05-.07.51-.1,1.12-.16,1.68a6.94,6.94,0,0,1-.54,2.58c-.15.28-.16.54-.31.81" transform="translate(0 17.64)"/><path class="y" d="M354.32,71.5c-.22.57,1.08,2.53,1.4,2.9.17.2.36.38.53.56a3.15,3.15,0,0,1,.63,2.74,1.19,1.19,0,0,0,.22.87" transform="translate(0 17.64)"/><path class="y" d="M358,78.6a4.38,4.38,0,0,1-.91,3.86c-1.59,2.17-1.81,4.57-3.26,6.71a4,4,0,0,1-1.14,1.15c-.36.2-1.65.26-1.69-.31" transform="translate(0 17.64)"/><path class="y" d="M351.69,79.75c.65-1,1.43-1,2.22-1.44a3.49,3.49,0,0,0,.81-.9,6.14,6.14,0,0,0,.6-1.1" transform="translate(0 17.64)"/><path class="z" d="M337.27,83.82a11.44,11.44,0,0,1,6.09-1.92l2.54-.22s1-.42.83.57l-.31,2.55s.07.65-.73.59l-2.85.27s-4.41.32-5.72-.49Z" transform="translate(0 17.64)"/><path class="aa" d="M337.22,84.26l-12.31,1.38s-2.93,0-4.26,7.66" transform="translate(0 17.64)"/><line class="ab" x1="349.09" y1="79.49" x2="346.81" y2="98.57"/><line class="ab" x1="341.94" y1="82.96" x2="339.99" y2="99.17"/><line class="ab" x1="343.85" y1="123.23" x2="346.18" y2="103.81"/><line class="ab" x1="337.3" y1="121.63" x2="339.37" y2="104.4"/><line class="aa" x1="345.28" y1="134.34" x2="349.29" y2="100.84"/><path class="z" d="M350,83.14a.59.59,0,0,0-.65-.7,1,1,0,0,0-.84.83.59.59,0,0,0,.65.7,1,1,0,0,0,.84-.83" transform="translate(0 17.64)"/><line class="aa" x1="346.03" y1="73.93" x2="342.96" y2="99.58"/><path class="z" d="M342.21,82a.59.59,0,0,0,.66.7,1,1,0,0,0,.84-.83.59.59,0,0,0-.66-.69,1,1,0,0,0-.84.82" transform="translate(0 17.64)"/><line class="aa" x1="372.4" y1="86.72" x2="357.69" y2="88"/><path class="z" d="M357.78,69.6a1,1,0,0,0-.84.83.6.6,0,0,0,.66.7,1,1,0,0,0,.84-.83.6.6,0,0,0-.66-.7" transform="translate(0 17.64)"/><polygon class="ac" points="356.93 71.05 335.6 72.92 336.1 68.81 357.42 66.94 356.93 71.05"/><polygon class="ac" points="355.2 139.64 333.87 141.5 334.37 137.39 355.69 135.53 355.2 139.64"/><polygon class="ac" points="394.96 90.36 373.64 92.22 374.98 80.99 396.31 79.13 394.96 90.36"/></svg>