<svg xmlns="http://www.w3.org/2000/svg" xmlns:xlink="http://www.w3.org/1999/xlink" viewBox="0 0 471.9828 165.8479"><defs><style>.a{fill:none;}.b,.d{fill:#fff;}.c{fill:#0ea9a7;}.aa,.ab,.ac,.ad,.ae,.af,.ag,.ah,.ai,.aj,.ak,.al,.am,.an,.ao,.ap,.aq,.ar,.as,.at,.au,.av,.aw,.ax,.ay,.az,.ba,.bb,.bc,.bd,.be,.bf,.bg,.bh,.bi,.bj,.bk,.bl,.bm,.bn,.bo,.bp,.bq,.br,.bs,.bt,.bu,.bv,.bw,.bx,.by,.bz,.c,.ca,.cb,.cc,.cd,.ce,.cf,.cg,.ch,.ci,.cj,.ck,.cl,.cm,.cn,.co,.cp,.cq,.cr,.cs,.ct,.cu,.cv,.cw,.cx,.cy,.cz,.d,.da,.dd,.de,.df,.dg,.dh,.di,.dj,.dk,.dl,.dm,.dn,.do,.dp,.dq,.dr,.ds,.dt,.du,.dv,.dw,.dx,.dy,.dz,.e,.ea,.eb,.ec,.ed,.ee,.ef,.eg,.eh,.ei,.ej,.ek,.el,.em,.en,.eo,.ep,.eq,.er,.es,.et,.eu,.ev,.ew,.ex,.ey,.ez,.f,.fa,.fb,.fc,.fd,.fe,.ff,.fg,.fh,.fi,.fj,.fk,.fl,.fm,.fn,.fo,.fp,.fq,.fr,.fs,.ft,.fu,.fv,.fw,.fx,.fy,.fz,.g,.ga,.gb,.gc,.gd,.ge,.gf,.gg,.gh,.gi,.gj,.gk,.gl,.gm,.gn,.go,.gp,.gq,.gr,.gs,.gt,.gu,.gv,.gw,.gx,.gy,.gz,.h,.ha,.hb,.hc,.hd,.he,.hf,.hg,.hh,.hi,.hj,.hk,.hl,.hm,.hn,.ho,.hp,.hq,.hr,.hs,.ht,.hu,.hv,.hw,.i,.ia,.ib,.ic,.id,.ie,.if,.ig,.j,.k,.m,.n,.o,.p,.q,.r,.s,.t,.u,.v,.w,.x,.y,.z{fill-rule:evenodd;}.e,.ih{fill:#fbbc28;}.f,.hz{fill:#a5bfca;}.g{fill:#fdda2d;}.h{fill:#0066b0;}.hy,.i{fill:#e31f26;}.j{fill:#df1e26;}.k{fill:#333738;}.l{clip-path:url(#a);}.m{fill:#fdfdfd;}.n{fill:#fbfbfb;}.o{fill:#faf9f9;}.p{fill:#f8f8f7;}.q{fill:#f7f6f6;}.r{fill:#f6f5f4;}.s{fill:#f5f4f3;}.t{fill:#f4f3f2;}.u{fill:#f3f1f1;}.v{fill:#f1f0ef;}.w{fill:#f0efee;}.x{fill:#efeeed;}.y{fill:#eeedec;}.z{fill:#edeceb;}.aa{fill:#ecebea;}.ab{fill:#ebeae9;}.ac{fill:#eae9e8;}.ad{fill:#e9e8e7;}.ae{fill:#e8e7e6;}.af{fill:#e7e6e5;}.ag{fill:#e6e5e4;}.ah{fill:#e5e4e3;}.ai{fill:#e4e3e2;}.aj{fill:#e3e2e1;}.ak{fill:#e2e1e0;}.al{fill:#e1e0df;}.am{fill:#e0dfde;}.an{fill:#dfdedd;}.ao{fill:#dedddc;}.ap{fill:#dddcdb;}.aq{fill:#dcdbda;}.ar{fill:#dbd9d8;}.as{fill:#dad8d7;}.at{fill:#d9d7d6;}.au{fill:#d8d6d5;}.av{fill:#d7d5d4;}.aw{fill:#d6d4d3;}.ax{fill:#d4d3d2;}.ay{fill:#d3d2d1;}.az{fill:#d3d1d0;}.ba{fill:#d1cfcf;}.bb{fill:#d0cece;}.bc{fill:#d0cdcd;}.bd{fill:#cecccc;}.be{fill:#cdcbcb;}.bf{fill:#cdcaca;}.bg{fill:#cbc9c9;}.bh{fill:#cbc8c7;}.bi{fill:#c9c7c7;}.bj{fill:#c8c6c5;}.bk{fill:#c7c5c4;}.bl{fill:#c6c4c4;}.bm{fill:#c5c3c2;}.bn{fill:#c4c2c1;}.bo{fill:#c3c0c0;}.bp{fill:#c2bfbf;}.bq{fill:#c0bebe;}.br{fill:#bfbdbd;}.bs{fill:#bebcbc;}.bt{fill:#bdbbbb;}.bu{fill:#bcbabb;}.bv{fill:#bab9ba;}.bw{fill:#b9b8b9;}.bx{fill:#b8b7b8;}.by{fill:#b7b6b7;}.bz{fill:#b6b5b6;}.ca{fill:#b5b4b5;}.cb{fill:#b4b3b4;}.cc{fill:#b3b2b3;}.cd{fill:#b2b1b3;}.ce{fill:#b0b0b2;}.cf{fill:#afafb1;}.cg{fill:#aeaeb0;}.ch{fill:#adadaf;}.ci{fill:#acacae;}.cj{fill:#ababad;}.ck{fill:#aaaaad;}.cl{fill:#a9a9ac;}.cm{fill:#a8a8ab;}.cn{fill:#a7a7aa;}.co{fill:#a6a6a9;}.cp{fill:#a5a5a9;}.cq{fill:#a4a4a8;}.cr{fill:#a3a4a7;}.cs{fill:#a2a3a6;}.ct{fill:#a1a2a5;}.cu{fill:#a0a1a5;}.cv{fill:#9fa0a4;}.cw{fill:#9e9fa3;}.cx{fill:#9d9ea2;}.cy{fill:#9c9da1;}.cz{fill:#9b9ca1;}.da{fill:#9a9ca0;}.db{clip-path:url(#b);}.dc{clip-path:url(#c);}.dd{fill:#e3e2e0;}.de{fill:#e2e0df;}.df{fill:#e1dfde;}.dg{fill:#dcdad9;}.dh{fill:#dbdad9;}.di{fill:#d9d8d7;}.dj{fill:#d7d6d6;}.dk{fill:#d6d5d4;}.dl{fill:#d5d4d4;}.dm{fill:#d2d1d1;}.dn{fill:#d1d0cf;}.do{fill:#d0cfcf;}.dp{fill:#cececd;}.dq{fill:#cdcdcc;}.dr{fill:#ccc;}.ds{fill:#cbcbcb;}.dt{fill:#cacaca;}.du{fill:#c9c9c9;}.dv{fill:#c8c8c8;}.dw{fill:#c7c7c7;}.dx{fill:#c6c6c6;}.dy{fill:#c5c5c5;}.dz{fill:#c4c4c4;}.ea{fill:#c3c3c3;}.eb{fill:#c2c2c2;}.ec{fill:#c1c2c1;}.ed{fill:#c0c1c0;}.ee{fill:#bfc0c0;}.ef{fill:#bebfbf;}.eg{fill:#bdbebe;}.eh{fill:#bcbdbd;}.ei{fill:#bbbcbc;}.ej{fill:#babbbb;}.ek{fill:#b9baba;}.el{fill:#b8b9b9;}.em{fill:#b7b9b9;}.en{fill:#b6b8b8;}.eo{fill:#b5b7b7;}.ep{fill:#b4b6b6;}.eq{fill:#b3b4b5;}.er{fill:#b2b3b4;}.es{fill:#b0b2b3;}.et{fill:#afb1b2;}.eu{fill:#aeb0b1;}.ev{fill:#adafb0;}.ew{fill:#acaeaf;}.ex{fill:#abadae;}.ey{fill:#aaabad;}.ez{fill:#a9aaac;}.fa{fill:#a8a9ac;}.fb{fill:#a7a8ab;}.fc{fill:#a5a7aa;}.fd{fill:#a4a6a9;}.fe{fill:#a3a5a8;}.ff{fill:#a2a4a7;}.fg{fill:#a1a3a6;}.fh{fill:#a0a2a5;}.fi{fill:#9fa1a4;}.fj{fill:#9ea0a3;}.fk{fill:#9d9fa3;}.fl{fill:#9c9ea2;}.fm{fill:#9b9da1;}.fn{fill:#999b9f;}.fo{fill:#989a9e;}.fp{fill:#98999d;}.fq{fill:#97989b;}.fr{fill:#96979a;}.fs{fill:#969699;}.ft{fill:#959598;}.fu{fill:#949497;}.fv{fill:#949396;}.fw{fill:#939294;}.fx{fill:#929293;}.fy{fill:#929192;}.fz{fill:#919091;}.ga{fill:#908f90;}.gb{fill:#8f8e8f;}.gc{fill:#8f8d8e;}.gd{fill:#8e8c8d;}.ge{fill:#8d8b8c;}.gf{fill:#8d8a8b;}.gg{fill:#8c8a8a;}.gh{fill:#8b8988;}.gi{fill:#8a8887;}.gj{fill:#8a8786;}.gk{fill:#898685;}.gl{fill:#888584;}.gm{fill:#888483;}.gn{fill:#878382;}.go{fill:#868381;}.gp{fill:#868280;}.gq{fill:#85817f;}.gr{fill:#84807e;}.gs{fill:#847f7d;}.gt{fill:#837e7c;}.gu{fill:#827d7b;}.gv{fill:#827d7a;}.gw{fill:#817c79;}.gx{fill:#807b78;}.gy{fill:#807a77;}.gz{fill:#7f7976;}.ha{fill:#7e7875;}.hb{fill:#7e7874;}.hc{fill:#7d7773;}.hd{fill:#7c7672;}.he{fill:#7c7571;}.hf{fill:#7b7470;}.hg{fill:#7a746f;}.hh{fill:#7a736e;}.hi{fill:#79726d;}.hj{fill:#78716c;}.hk{fill:#78706b;}.hl{fill:#77706a;}.hm{fill:#766f69;}.hn{fill:#756e69;}.ho{fill:#756d68;}.hp{fill:#746c67;}.hq{fill:#746b66;}.hr{fill:#736b65;}.hs{fill:#726a64;}.ht{fill:#716963;}.hu{fill:#90979a;}.hv{fill:#a8d4f0;}.hw{fill:#70c7b6;}.hx,.if{fill:#c19f6b;}.ia{fill:#164260;}.ib{fill:#fab129;}.ic{fill:#ad1f23;}.id{fill:#ffd774;}.ie{fill:#bbbdbc;}.ig{fill:#9c9f9f;}.ii{fill:#bcbfc5;}.ij{fill:#f8c3b5;}</style><clipPath id="a"><path class="a" d="M42.8311,71.8788l4.8658,10.2787s3.0149-2.839,5.9551-2.4073L48.91,69.7934a3.4009,3.4009,0,0,0-1.0057-.1452c-2.4332,0-5.0732,2.2306-5.0732,2.2306"/></clipPath><clipPath id="b"><path class="a" d="M48.91,69.7934,53.652,79.75l.0112.0019c1.4995-2.1731,5.9551-2.2289,5.9551-2.2289l-5.1115-9.9827s-4.943.1787-5.5968,2.2529"/></clipPath><clipPath id="c"><path class="a" d="M53.652,79.75c-3.31-.2252-5.9551,2.4073-5.9551,2.4073l.1061.6939s2.9514-2.692,6.1094-2.4539c2.147-2.398,5.7-2.11,5.7-2.11l.0057-.7647s-.0893-.0036-.2494-.0036c-.8976,0-4.0119.1543-5.7169,2.2306"/></clipPath></defs><title>logo_udem</title><path class="b" d="M151.876,125.0929a10.4008,10.4008,0,0,1-4.2808.7089c-5.2591-.0372-8.4293-3.3525-8.3948-8.39.04-5.4564,3.8481-8.7233,8.9092-8.6861a9.536,9.536,0,0,1,4.0259.7646l-.6809,2.4036a8.0482,8.0482,0,0,0-3.2379-.6605c-3.3683-.024-5.8166,2.0708-5.8445,6.0519-.027,3.6371,2.0967,5.9867,5.7319,6.0128a8.4926,8.4926,0,0,0,3.2974-.59Z"/><path class="b" d="M164.4642,110.3663a1.6975,1.6975,0,1,1-1.6846-1.6594,1.6016,1.6016,0,0,1,1.6846,1.6594m-3.3283,15.2867.0839-11.9677,3.0463.0223-.0838,11.9677Z"/><path class="b" d="M176.4561,120.6243c.0577,2.1656,1.745,3.1105,3.6639,3.1256a9.0147,9.0147,0,0,0,3.32-.5191l.4288,2.0911a11.2036,11.2036,0,0,1-4.183.7087c-3.8845-.0278-6.1532-2.4278-6.1271-6.0891.0251-3.3189,2.0612-6.4256,5.8964-6.3978,3.8826.028,5.1356,3.2315,5.1207,5.86a7.5433,7.5433,0,0,1-.1088,1.278Zm5.2733-2.0742c.0326-1.107-.4456-2.93-2.4613-2.9432a2.9558,2.9558,0,0,0-2.7962,2.9042Z"/><path class="b" d="M193.9,117.48c.0075-1.3747-.0055-2.53-.0743-3.5643l2.6537.02.1368,1.7953h.0707a4.32,4.32,0,0,1,3.8258-2.0372c2.0874.0151,4.24,1.3823,4.2138,5.1664l-.05,7.1029-3.023-.0223.0474-6.7588c.0139-1.7208-.6168-3.025-2.2632-3.0362a2.5333,2.5333,0,0,0-2.3692,1.7526,2.964,2.964,0,0,0-.1321.98l-.0493,7.0286-3.0482-.0223Z"/><path class="b" d="M223.5477,125.7292a8.7221,8.7221,0,0,1-3.3933.59c-3.7357-.0261-6.1532-2.4278-6.1261-6.1393.0249-3.5868,2.5049-6.37,6.7057-6.342a7.5626,7.5626,0,0,1,2.9226.5879l-.5581,2.2566a5.3232,5.3232,0,0,0-2.2809-.4855,3.8776,3.8776,0,0,0-.0568,7.7429,5.9178,5.9178,0,0,0,2.387-.45Z"/><path class="b" d="M235.988,110.8759a1.6955,1.6955,0,1,1-1.6827-1.6592,1.598,1.598,0,0,1,1.6827,1.6592M232.66,126.1628l.0855-11.9679,3.0482.0224-.0855,11.9678Z"/><path class="b" d="M252.5417,126.3041l-.1871-1.3283h-.0762a4.4327,4.4327,0,0,1-3.5467,1.572,3.5494,3.5494,0,0,1-3.7358-3.5906c.0187-3.0193,2.7088-4.5262,7.1345-4.47v-.1955c.0057-.7887-.3031-2.0928-2.4175-2.1077a6.3512,6.3512,0,0,0-3.2276.8632l-.5731-1.97a8.5892,8.5892,0,0,1,4.3338-1.0268c3.8313.0278,4.9206,2.4687,4.9039,5.0713l-.0307,4.3273a19.1963,19.1963,0,0,0,.1507,2.876Zm-.3526-5.8509c-2.1357-.0632-4.1794.3869-4.1933,2.2064a1.59,1.59,0,0,0,1.7088,1.734,2.45,2.45,0,0,0,2.37-1.6317,2.0965,2.0965,0,0,0,.1033-.6623Z"/><path class="b" d="M279.0872,114.5261l2.118,6.43c.2382.7386.48,1.6482.6485,2.34h.0716c.2008-.6883.4269-1.57.6557-2.3552l1.9125-6.3755,3.2463.0223-3.0556,8.1354c-1.68,4.4648-2.8008,6.4462-4.2351,7.6629a6.0612,6.0612,0,0,1-3.1814,1.5254l-.6686-2.5579a5.2167,5.2167,0,0,0,1.7757-.826,5.2954,5.2954,0,0,0,1.6613-1.8791,1.2276,1.2276,0,0,0,.1981-.5376,1.2817,1.2817,0,0,0-.1693-.5915L275.77,114.502Z"/><polygon class="b" points="308.461 110.139 311.482 110.16 311.383 124.193 318.188 124.241 318.171 126.773 308.343 126.702 308.461 110.139"/><path class="b" d="M330.5405,111.55a1.696,1.696,0,1,1-1.6836-1.6577,1.599,1.599,0,0,1,1.6836,1.6577m-3.33,15.2886.0875-11.97,3.0463.024-.0838,11.966Z"/><path class="b" d="M340.2592,126.9311c.0558-.8131.1124-2.14.1246-3.3654l.0985-14.0812,3.0232.02-.0512,7.1271h.0474a4.3274,4.3274,0,0,1,3.8464-1.89c2.9282.0206,4.9988,2.4687,4.9514,6.1058-.0326,4.303-2.7794,6.4184-5.4827,6.4a4.1115,4.1115,0,0,1-3.7662-2.0911h-.0493l-.16,1.7916Zm3.157-4.9171a3.17,3.17,0,0,0,.0687.7127,2.7858,2.7858,0,0,0,2.6633,2.1319c1.8937.013,3.0575-1.5013,3.0741-3.91.0158-2.1135-.98-3.8417-2.9924-3.8568a2.8312,2.8312,0,0,0-2.6956,2.1954,3.55,3.55,0,0,0-.1052.7851Z"/><path class="b" d="M363.7871,121.96c.0578,2.1654,1.7452,3.1105,3.6632,3.1237a9.07,9.07,0,0,0,3.3208-.5155l.427,2.0911a11.27,11.27,0,0,1-4.1821.7089c-3.8836-.028-6.1514-2.43-6.1262-6.091.0249-3.317,2.0612-6.4239,5.8981-6.3978,3.88.028,5.1356,3.2334,5.119,5.8622a7.2974,7.2974,0,0,1-.1109,1.2761Zm5.2733-2.0744c.0326-1.1068-.4456-2.9282-2.4632-2.943a2.9537,2.9537,0,0,0-2.795,2.9023Z"/><path class="b" d="M381.2272,119.1138c.0113-1.6223-.0036-2.7775-.0707-3.86l2.6307.0187.08,2.2863h.1014a3.5628,3.5628,0,0,1,3.2863-2.5319,3.11,3.11,0,0,1,.7144.08l-.0233,2.85a4.0987,4.0987,0,0,0-.8837-.104,2.6658,2.6658,0,0,0-2.7207,2.2639,5.16,5.16,0,0,0-.1043.9358l-.0436,6.1913-3.0259-.02Z"/><path class="b" d="M400.9611,111.9791l-.0251,3.4157,2.8772.0206-.0159,2.26-2.8762-.0187-.0381,5.2817c-.0093,1.4511.3769,2.2157,1.534,2.2232a4.4425,4.4425,0,0,0,1.18-.14l.0307,2.3125a6.712,6.712,0,0,1-2.1887.2791,3.5157,3.5157,0,0,1-2.599-1.0028,4.7884,4.7884,0,0,1-.91-3.3505l.042-5.6258-1.7209-.0129.0159-2.26,1.72.0131.0185-2.7049Z"/><path class="b" d="M419.5984,127.4967l-.1888-1.3284h-.0707a4.4433,4.4433,0,0,1-3.5506,1.57,3.5494,3.5494,0,0,1-3.7336-3.5887c.0222-3.0211,2.71-4.528,7.1335-4.4722v-.1954c.0065-.787-.3042-2.091-2.4177-2.1078a6.3572,6.3572,0,0,0-3.2248.8632l-.5749-1.9683a8.6033,8.6033,0,0,1,4.3318-1.0287c3.8342.0278,4.9226,2.47,4.9032,5.0731l-.028,4.3255a19.4243,19.4243,0,0,0,.15,2.876Zm-.3489-5.8528c-2.1376-.0633-4.1811.3888-4.195,2.2064a1.5869,1.5869,0,0,0,1.7069,1.7339,2.4511,2.4511,0,0,0,2.3719-1.63,2.1141,2.1141,0,0,0,.1033-.6643Z"/><path class="b" d="M443.3627,110.2174l-.1013,14.0811c-.0094,1.228.0326,2.5545.0745,3.3673l-2.7014-.02-.1125-1.89-.0494-.0019a4.3015,4.3015,0,0,1-3.9207,2.1338c-2.8518-.02-5.0936-2.4687-5.0666-6.1559.0055-4.0053,2.5255-6.3717,5.4025-6.3513a3.8087,3.8087,0,0,1,3.3541,1.5981h.0494l.05-6.783Zm-3.0956,10.446a4.3962,4.3962,0,0,0-.0707-.7851,2.645,2.645,0,0,0-2.5887-2.158c-1.9413-.013-3.0351,1.7-3.05,3.9365-.0167,2.186,1.0558,3.79,2.97,3.8045a2.67,2.67,0,0,0,2.62-2.1189,3.243,3.243,0,0,0,.1051-.8837Z"/><path class="b" d="M139.0533,14.0306l8.3271.06-.1759,24.0787a13.6945,13.6945,0,0,0,.9125,5.9067q1.4637,3.3042,6.4453,3.3393,4.9518.0363,6.462-3.25a13.675,13.675,0,0,0,.9963-5.89l.1711-24.0789,8.3289.06-.1758,24.0955q-.0363,6.2537-2.0073,9.7225-3.6585,6.3568-13.8253,6.2843-10.1688-.0726-13.7632-6.4817-1.9143-3.4994-1.8668-9.7484Z"/><path class="b" d="M201.0717,26.35q2.8266,2.3721,2.79,7.8285l-.1385,19.5191-7.769-.0558L196.08,36.009a8.109,8.109,0,0,0-.5785-3.5161c-.734-1.4937-2.134-2.2491-4.212-2.2639a5.2328,5.2328,0,0,0-5.275,3.2351,11.2335,11.2335,0,0,0-.7722,4.4072l-.1106,15.6923-7.58-.054.2084-28.9344,7.3381.052-.0306,4.2288a12.9027,12.9027,0,0,1,2.7794-3.2,9.5384,9.5384,0,0,1,5.9168-1.7116,11.1189,11.1189,0,0,1,7.3077,2.4054"/><path class="b" d="M218.7935,21.355l-7.6824-.0541.0475-6.9949,7.6842.0539ZM211.0841,24.76l7.6852.0558-.2084,28.9883-7.6824-.0541Z"/><polygon class="b" points="243.971 24.992 252.107 25.05 241.431 53.967 233.442 53.91 223.25 24.845 231.759 24.904 237.647 46.332 243.971 24.992"/><path class="b" d="M275.293,25.8011a11.8187,11.8187,0,0,1,4.9774,4.3273,14.2922,14.2922,0,0,1,2.267,6.009,37.3654,37.3654,0,0,1,.2082,5.756l-21.1133-.1507q.14,4.3646,2.9869,6.1374a7.6571,7.6571,0,0,0,4.1681,1.1219,5.8878,5.8878,0,0,0,5.7951-3.2837l7.7382.0539a9.4573,9.4573,0,0,1-2.8465,5.2222q-3.9262,4.2-10.9361,4.1486a15.806,15.806,0,0,1-10.1864-3.639q-4.3952-3.6-4.3413-11.6383.0546-7.5291,4.0743-11.525a13.9908,13.9908,0,0,1,10.3995-3.9442,16.5741,16.5741,0,0,1,6.8089,1.4046m-11.39,6.47a7.8871,7.8871,0,0,0-2.05,4.4724l13.0589.0911a6.3264,6.3264,0,0,0-1.9867-4.5932,6.6565,6.6565,0,0,0-4.4845-1.5981,6.0294,6.0294,0,0,0-4.5375,1.6278"/><path class="b" d="M302.807,24.7334c.0949.0112.3163.0261.6512.0445l-.0549,7.7691c-.4818-.0577-.9051-.0968-1.2762-.1191-.3722-.0186-.6744-.03-.905-.0316q-4.5753-.0337-6.1645,2.9356a11.58,11.58,0,0,0-.9144,5.1569l-.0995,13.8543-7.633-.0541.2056-28.99,7.2348.052-.0362,5.0528a15.991,15.991,0,0,1,3.0864-3.9422,8.3294,8.3294,0,0,1,5.5457-1.7431c.1406,0,.2633.0074.36.0149"/><path class="b" d="M313.6306,45.2253a5.0493,5.0493,0,0,0,1.0232,2.88q1.4051,1.5262,5.2268,1.5533a8.0325,8.0325,0,0,0,3.5719-.6381,2.1316,2.1316,0,0,0,1.3375-1.9868,2.1585,2.1585,0,0,0-1.051-1.95q-1.0632-.6723-7.914-2.3422-4.9353-1.2585-6.9421-3.1124a6.6231,6.6231,0,0,1-1.9848-5.224,9.0278,9.0278,0,0,1,3.208-6.8777q3.1813-2.8657,8.914-2.8223a16.328,16.328,0,0,1,8.8433,2.2306q3.4116,2.1906,3.878,7.5142l-7.58-.0558a4.4613,4.4613,0,0,0-.8093-2.32q-1.2462-1.546-4.2556-1.5721a6.1636,6.1636,0,0,0-3.54.746,2.23,2.23,0,0,0-1.068,1.8028,1.9774,1.9774,0,0,0,1.1061,1.8937q1.1175.6253,7.9,2.16a14.5239,14.5239,0,0,1,6.7689,3.2651,7.31,7.31,0,0,1,2.1942,5.4676,8.7936,8.7936,0,0,1-3.2612,7.0137q-3.2286,2.704-9.9482,2.6546-6.8466-.05-10.0907-2.956a9.3923,9.3923,0,0,1-3.2138-7.38Z"/><path class="b" d="M346.0068,22.2627l-7.6862-.0539.0511-6.995,7.6852.0539Zm-7.7132,3.4045,7.689.0541-.2057,28.99-7.6889-.0539Z"/><path class="b" d="M368.6893,26.3482a9.2,9.2,0,0,1,3.3031,3.2277l.0985-13.83,7.6872.0559-.28,39.15-7.3688-.052.0288-4.0166a10.7178,10.7178,0,0,1-3.7226,3.7262,10.4019,10.4019,0,0,1-5.1681,1.1312,10.7722,10.7722,0,0,1-8.5214-4.171A15.7681,15.7681,0,0,1,351.35,40.9986q.0517-7.4174,3.5013-11.6515a11.1254,11.1254,0,0,1,9.1669-4.19,9.3528,9.3528,0,0,1,4.6715,1.1906m1.718,20.6649a10.595,10.595,0,0,0,1.7181-6.1857q.0406-5.316-2.6323-7.6238a5.7852,5.7852,0,0,0-3.8194-1.41,5.3219,5.3219,0,0,0-4.9,2.4761,11.645,11.645,0,0,0-1.6,6.2266,11.543,11.543,0,0,0,1.5356,6.4349,5.3566,5.3566,0,0,0,4.7831,2.4428,5.6156,5.6156,0,0,0,4.915-2.3609"/><path class="b" d="M397.9939,37.449a12.0256,12.0256,0,0,0,3.0343-.6437,2.2782,2.2782,0,0,0,1.65-2.1413,2.55,2.55,0,0,0-1.2361-2.4706,7.9452,7.9452,0,0,0-3.6771-.7031q-2.721-.02-3.863,1.3022a5.4757,5.4757,0,0,0-1.1,2.6511l-7.3113-.0522a11.0979,11.0979,0,0,1,2.1777-6.2323q3.0514-3.8116,10.3938-3.7579a18.53,18.53,0,0,1,8.4805,1.9477q3.6973,1.9146,3.6594,7.1551l-.0913,13.298c-.0074.9226,0,2.0409.029,3.3523a4.2265,4.2265,0,0,0,.4343,2.026,2.7112,2.7112,0,0,0,1.1162.8837l-.0091,1.1162-8.2453-.0578a8.4155,8.4155,0,0,1-.467-1.6518c-.0855-.5153-.1507-1.1015-.2036-1.7581a15.5371,15.5371,0,0,1-3.6557,2.8742,11.0234,11.0234,0,0,1-5.5764,1.3692,9.5871,9.5871,0,0,1-6.5243-2.2956,7.9906,7.9906,0,0,1-2.5339-6.3867q.04-5.3439,4.2063-7.7093a18.6089,18.6089,0,0,1,6.7114-1.8139Zm4.6119,3.5719a8.6839,8.6839,0,0,1-1.4762.72,12.2486,12.2486,0,0,1-2.0371.5024l-1.7274.3088a11.3593,11.3593,0,0,0-3.4939,1.0121,3.467,3.467,0,0,0-1.8137,3.2054,3.3617,3.3617,0,0,0,1.0725,2.8128,4.1466,4.1466,0,0,0,2.6556.8837,7.9253,7.9253,0,0,0,4.59-1.4027q2.1-1.4233,2.2092-5.222Z"/><path class="b" d="M432.2591,26.802a9.2309,9.2309,0,0,1,3.2976,3.2279l.0985-13.83,7.6871.0539-.28,39.1516-7.368-.0522.028-4.0165a10.6845,10.6845,0,0,1-3.7207,3.7245,10.3816,10.3816,0,0,1-5.1663,1.1329,10.7723,10.7723,0,0,1-8.5244-4.1727,15.7585,15.7585,0,0,1-3.3932-10.5687q.0543-7.42,3.4957-11.6515a11.1334,11.1334,0,0,1,9.1725-4.19,9.3607,9.3607,0,0,1,4.6732,1.1906M433.97,47.469a10.58,10.58,0,0,0,1.72-6.1877q.04-5.3187-2.6307-7.6256a5.791,5.791,0,0,0-3.8174-1.4084,5.3192,5.3192,0,0,0-4.902,2.4781,11.6767,11.6767,0,0,0-1.6018,6.2248,11.5944,11.5944,0,0,0,1.5376,6.435,5.3538,5.3538,0,0,0,4.7829,2.4426A5.6084,5.6084,0,0,0,433.97,47.469"/><path class="b" d="M156.6664,72.3309a9.6576,9.6576,0,0,1,3.4557,3.3766l.1023-14.4661,8.0415.0575-.293,40.9524-7.7085-.0558.0326-4.1988a11.1733,11.1733,0,0,1-3.8956,3.8938,10.8811,10.8811,0,0,1-5.4063,1.1868,11.2583,11.2583,0,0,1-8.9139-4.3644,16.4994,16.4994,0,0,1-3.5544-11.0561q.0574-7.7606,3.6631-12.1893a11.64,11.64,0,0,1,9.5884-4.3829,9.7818,9.7818,0,0,1,4.8881,1.2463m1.7924,21.6176a11.0326,11.0326,0,0,0,1.8-6.47q.0374-5.5642-2.7526-7.9773a6.0444,6.0444,0,0,0-3.9969-1.4753,5.5833,5.5833,0,0,0-5.1262,2.5934,12.22,12.22,0,0,0-1.6727,6.5094A12.07,12.07,0,0,0,148.32,93.863a5.5989,5.5989,0,0,0,5.0034,2.5523,5.8522,5.8522,0,0,0,5.1355-2.4668"/><path class="b" d="M195.1537,72.7328a12.3147,12.3147,0,0,1,5.2045,4.5226,14.8672,14.8672,0,0,1,2.3739,6.2881,38.8408,38.8408,0,0,1,.2194,6.0219l-22.0891-.1581q.1549,4.5654,3.1283,6.42A8.0424,8.0424,0,0,0,188.3532,97a6.1562,6.1562,0,0,0,6.0593-3.4344l8.0982.0577a9.9126,9.9126,0,0,1-2.9813,5.4583q-4.1121,4.3952-11.4412,4.344a16.5249,16.5249,0,0,1-10.6525-3.8081q-4.6072-3.7645-4.5441-12.1743.06-7.8779,4.2621-12.0553a14.6319,14.6319,0,0,1,10.8777-4.1263,17.25,17.25,0,0,1,7.1223,1.4716m-11.9119,6.7661a8.2084,8.2084,0,0,0-2.1451,4.677l13.6591.0987a6.6157,6.6157,0,0,0-2.0763-4.8073,6.958,6.958,0,0,0-4.6946-1.6686,6.2759,6.2759,0,0,0-4.7431,1.7"/><path class="b" d="M250.2776,61.8274l12.3295.0874-.2921,41.0081-7.9856-.0559.1981-27.738c.0057-.798.0232-1.9125.0532-3.3525q.04-2.1543.05-3.3225l-8.0164,34.3572-8.3306-.0594L230.8144,68.281q-.01,1.1693.0055,3.3264.0111,2.1569.0019,3.3541l-.1981,27.7364L222.64,102.64l.2911-41.0082,12.4682.0874,7.2377,32.3018Z"/><path class="b" d="M289.578,73.4063a12.3062,12.3062,0,0,1,5.2062,4.5225,14.8685,14.8685,0,0,1,2.3739,6.2881,39.1445,39.1445,0,0,1,.2175,6.0219L275.29,90.0807q.1464,4.5627,3.1245,6.42a8.0625,8.0625,0,0,0,4.3625,1.1758,6.74,6.74,0,0,0,4.4137-1.3636,6.6386,6.6386,0,0,0,1.6436-2.0744l8.1.0577a9.9133,9.9133,0,0,1-2.9814,5.4585q-4.1063,4.3949-11.4394,4.3438a16.54,16.54,0,0,1-10.6523-3.8062q-4.6075-3.7674-4.5441-12.1761.0571-7.878,4.264-12.0552a14.6155,14.6155,0,0,1,10.8739-4.1265,17.28,17.28,0,0,1,7.1225,1.4717m-11.9121,6.7662a8.23,8.23,0,0,0-2.1449,4.6768l13.6569.0968a6.5881,6.5881,0,0,0-2.0761-4.8052,6.9413,6.9413,0,0,0-4.6909-1.6688,6.28,6.28,0,0,0-4.745,1.7"/><path class="b" d="M317.5877,73.4788a9.6513,9.6513,0,0,1,3.4538,3.3765l.1023-14.4662,8.0432.0578-.293,40.9522-7.7056-.0558.03-4.1989a11.1727,11.1727,0,0,1-3.8975,3.8939,10.8737,10.8737,0,0,1-5.406,1.1868,11.2749,11.2749,0,0,1-8.9159-4.3644,16.5162,16.5162,0,0,1-3.5525-11.0542q.0575-7.7634,3.6632-12.191a11.6337,11.6337,0,0,1,9.5938-4.3812,9.7573,9.7573,0,0,1,4.8845,1.2445m1.7943,21.6175a11.0436,11.0436,0,0,0,1.7961-6.47q.0435-5.5644-2.7524-7.9755a6.0225,6.0225,0,0,0-3.9933-1.4753,5.5655,5.5655,0,0,0-5.1243,2.5916,12.13,12.13,0,0,0-1.6743,6.5112,12.0727,12.0727,0,0,0,1.6055,6.7327,5.6017,5.6017,0,0,0,5.0053,2.5526,5.8586,5.8586,0,0,0,5.1374-2.467"/><path class="b" d="M356.0741,73.8806a12.3954,12.3954,0,0,1,5.2127,4.5225,14.9184,14.9184,0,0,1,2.3674,6.2881,39.1393,39.1393,0,0,1,.2158,6.02l-22.0855-.1562q.1524,4.5651,3.1246,6.42a8.0564,8.0564,0,0,0,4.3625,1.1738,6.17,6.17,0,0,0,6.062-3.436l8.0963.0575a9.8979,9.8979,0,0,1-2.9783,5.46q-4.1091,4.3923-11.4394,4.34a16.5206,16.5206,0,0,1-10.6563-3.8065Q333.7515,97,333.812,88.5906q.0571-7.8775,4.2657-12.0552a14.6172,14.6172,0,0,1,10.8739-4.1262,17.25,17.25,0,0,1,7.1225,1.4714m-11.9119,6.7662a8.2107,8.2107,0,0,0-2.1432,4.6771l13.6569.0985A6.6047,6.6047,0,0,0,353.6,80.6152a6.9459,6.9459,0,0,0-4.6918-1.6688,6.28,6.28,0,0,0-4.7458,1.7"/><rect class="b" x="351.5615" y="79.2401" width="41.011" height="7.9258" transform="translate(286.2463 454.675) rotate(-89.5966)"/><rect class="b" x="367.3933" y="79.3499" width="41.012" height="7.9305" transform="translate(301.7632 470.5978) rotate(-89.583)"/><path class="b" d="M413.528,61.2673l-8.5187,8.2582-5.729-.039,5.4035-8.2825Zm-13.75,12.3083,8.0434.0575-.2194,30.328-8.04-.0558Z"/><path class="b" d="M439.9425,75.6014q2.9609,2.4867,2.9181,8.1895l-.1461,20.4213-8.1234-.0578.1331-18.4474a8.3662,8.3662,0,0,0-.6111-3.6761q-1.14-2.3441-4.4027-2.37a5.4774,5.4774,0,0,0-5.5187,3.3841,11.8408,11.8408,0,0,0-.8092,4.6119l-.1164,16.4176-7.9308-.0575.2168-30.27,7.6814.0558-.0306,4.4221a13.3281,13.3281,0,0,1,2.9068-3.3467,9.9933,9.9933,0,0,1,6.1894-1.7917,11.6349,11.6349,0,0,1,7.6434,2.5152"/><path class="c" d="M61.433,125.212c34.0068.2419,61.9877-27.71,62.2333-62.14C123.9118,28.5489,96.3326.2453,62.3269.0016,28.2281-.2423.2472,27.6671.0016,62.19-.2439,96.62,27.337,124.9683,61.433,125.212"/><path class="d" d="M61.4525,122.3583c32.4653.2326,59.1739-26.4193,59.4082-59.3068.2345-32.9342-26.0879-59.9674-58.5552-60.1981C29.7472,2.621,3.0405,29.2764,2.8043,62.2087c-.2326,32.8876,26.0917,59.9189,58.6482,60.15"/><path class="e" d="M61.4666,104.4316l.293-41.0658-28.9215-.2084c5.0333,16.3882,15.7025,32.1362,28.6285,41.2742"/><path class="f" d="M61.485,101.697c-9.6813-6.59-21.0352-21.66-26.4376-38.5209l26.7122.19Z"/><path class="g" d="M30.642,52.0622C23.3568,55.8984,21.33,67.5573,15.2092,70.2009c2.4045,2.9579,4.586,6.3439,7.0351,9.3037,6.64-2.8166,7.674-9.4786,11.87-12.8534a60.349,60.349,0,0,1-3.4725-14.589"/><path d="M22.2359,79.5362l-.0112-.0167c-1.2743-1.54-2.4956-3.22-3.6769-4.8464-1.0838-1.4937-2.2064-3.0379-3.359-4.4574l-.0205-.0261.0308-.0129c2.9793-1.2855,4.9849-4.7123,7.1113-8.34,2.2538-3.8491,4.5829-7.8285,8.3213-9.7968l.0316-.0186.0038.039a59.35,59.35,0,0,0,3.4716,14.5816l.0055.0187-.0132.011a19.7191,19.7191,0,0,0-4.0257,5.0864c-1.88,2.98-3.8249,6.0611-7.8507,7.7689ZM15.25,70.21c1.147,1.412,2.2612,2.9486,3.3393,4.4332,1.1777,1.62,2.3925,3.2947,3.6613,4.83,4.0007-1.7023,5.9383-4.7719,7.8107-7.7411a19.9,19.9,0,0,1,4.024-5.09A59.4762,59.4762,0,0,1,30.62,52.1032C26.9165,54.07,24.5958,58.03,22.354,61.8609c-2.1226,3.6258-4.1282,7.047-7.1038,8.3493"/><path class="h" d="M22.2443,79.5046c6.4881-2.5784,8.3819-10.5595,11.87-12.8534.8267,2.2158,1.4956,3.7449,2.3738,5.9626-3.8575,3.1273-4.8464,8.9559-10.8116,11.2291-1.14-1.533-3.4324-4.3383-3.4324-4.3383"/><path d="M25.6674,83.8745l-.0112-.0167c-1.1274-1.5143-3.4081-4.31-3.4306-4.3383l-.0213-.0261.0306-.013c3.93-1.5627,6.1494-5.0751,8.1076-8.1744,1.2781-2.0241,2.3832-3.771,3.7588-4.6751l.0261-.0168.012.0278c.52,1.3952.9786,2.5209,1.4652,3.7133.2855.7033.58,1.4287.906,2.2492l.0084.0168-.0158.0112a18.8061,18.8061,0,0,0-3.65,4.4928c-1.7255,2.6286-3.51,5.3486-7.1663,6.7419ZM22.2862,79.514c.2381.292,2.3264,2.8592,3.4006,4.2992,3.6268-1.3916,5.4063-4.0985,7.1244-6.716a18.9147,18.9147,0,0,1,3.6445-4.4928c-.32-.813-.6149-1.5329-.9-2.2306-.4818-1.1832-.9386-2.3012-1.453-3.6835-1.3543.9041-2.45,2.6362-3.7171,4.6416-1.956,3.0975-4.1737,6.6081-8.1,8.1821"/><path class="i" d="M25.4078,88.1814a4.6972,4.6972,0,0,1,2.4363-1.5145c1.1319,2.0447-.188,2.3571-.6586,2.547-.4707.2065-1.359-.3423-1.7777-1.0325"/><path class="i" d="M27.8441,86.6669c-1.8018.482-3.1107,1.7843-2.9627,3.1553-1.7711-1.6985-3.76-3.1179-5.4769-4.8648a11.2612,11.2612,0,0,1,4.1746-3.7691c1.4036,1.8528,3.9524,4.8126,4.265,5.4786"/><path d="M24.88,89.8483a.0343.0343,0,0,1-.0167-.0074c-.8018-.77-1.6614-1.492-2.4939-2.1916-1.0055-.8446-2.0445-1.7171-2.9831-2.6752a.0231.0231,0,0,1-.0019-.0316,11.2078,11.2078,0,0,1,4.1831-3.7784.0277.0277,0,0,1,.0307.0074c.5562.7348,1.2893,1.6389,1.9981,2.5133a30.8653,30.8653,0,0,1,2.2706,2.9711.0314.0314,0,0,1,0,.0222.0233.0233,0,0,1-.0167.013c-1.8483.4949-3.0864,1.81-2.9431,3.1273a.0229.0229,0,0,1-.0151.0261l-.012.0038M19.438,84.9535c.9338.9507,1.9664,1.8176,2.9644,2.6568.8148.6845,1.66,1.3933,2.4474,2.1449-.0949-1.3115,1.1338-2.6063,2.9589-3.1049a32.7362,32.7362,0,0,0-2.252-2.932C24.8543,82.85,24.1241,81.951,23.57,81.22a11.1686,11.1686,0,0,0-4.1318,3.7336"/><path class="h" d="M23.5837,81.1993C22.1224,79.2962,20.61,77.4451,19.156,75.54a14.5853,14.5853,0,0,0-5.1374,4.5356c1.72,1.6967,3.6631,3.1812,5.3859,4.8817a11.5168,11.5168,0,0,1,4.1792-3.7581"/><path d="M19.41,84.9964l-.0233-.0223c-.8605-.85-1.7943-1.6613-2.6975-2.4445-.8986-.7814-1.8307-1.5888-2.6874-2.4371l-.0175-.0149.0139-.0167a14.6431,14.6431,0,0,1,5.1466-4.5431l.02-.0113.0113.0187c.758.9916,1.5449,1.987,2.3049,2.9488.7014.8835,1.4232,1.797,2.1246,2.7086l.0166.0242-.025.0131a11.4172,11.4172,0,0,0-4.17,3.75Zm-5.3588-4.9245c.853.8409,1.7775,1.6427,2.6706,2.42.8957.7759,1.8212,1.5794,2.6788,2.4241a11.4375,11.4375,0,0,1,4.145-3.7245c-.6931-.9041-1.4092-1.81-2.1051-2.6863-.7561-.9563-1.5375-1.946-2.2919-2.932a14.5742,14.5742,0,0,0-5.0974,4.4983"/><path class="g" d="M12.3824,66.4967c-3.1664,1.1871-5.3913,3.01-6.3586,6,2.6649,2.491,5.3318,5.034,7.9948,7.5791A13.01,13.01,0,0,1,19.157,75.54s-4.4844-6.0313-6.7746-9.0434"/><path d="M14.0224,80.1148l-.0213-.0206c-2.5581-2.4462-5.2846-5.0452-7.995-7.5791l-.0113-.0111.0038-.0148c.9125-2.8168,2.9393-4.7292,6.3737-6.0165l.0194-.0057.0112.0149c2.2632,2.9766,6.729,8.9839,6.7745,9.0433l.0167.0261-.0268.013a12.96,12.96,0,0,0-5.1281,4.5244ZM6.0516,72.4892c2.6994,2.5245,5.4137,5.1123,7.9634,7.5475a13.0025,13.0025,0,0,1,5.101-4.506c-.3162-.4259-4.5486-6.1187-6.7437-9.0021-3.4018,1.2779-5.4118,3.1737-6.3207,5.9606"/><path class="i" d="M36.4874,72.6138c-3.9888,3.4157-5.024,8.9875-10.8107,11.2291a17.1833,17.1833,0,0,1,2.3962,3.2761c.4631,1.0531.1674,2.0334-1.1489,2.1283A2.4819,2.4819,0,0,1,25.4,88.1888a2.2342,2.2342,0,0,0-.518,1.6334c4.7849.3459,10.2525-5.0694,14.2988-11.7724-.9339-1.7431-1.8176-3.6407-2.6937-5.436"/><path d="M25.3222,89.8632h0c-.1488,0-.2975-.0057-.4427-.0149l-.0223-.0019v-.0242a2.2668,2.2668,0,0,1,.5237-1.65L25.4,88.146l.0206.0261a2.4291,2.4291,0,0,0,1.5031,1.0493,1.3909,1.3909,0,0,0,1.1656-.59,1.6274,1.6274,0,0,0-.0419-1.5014,10.61,10.61,0,0,0-1.6762-2.4016c-.2362-.281-.48-.5712-.7144-.8689l-.0213-.0278.0307-.0132c3.5439-1.3729,5.3281-4.035,7.0544-6.61A21.8324,21.8324,0,0,1,36.47,72.5932l.0252-.02.0148.03c.2233.454.4447.9154.6689,1.38.6538,1.3545,1.3282,2.7533,2.0248,4.0556l.0058.0132-.0075.011a36.72,36.72,0,0,1-6.65,8.3364c-2.572,2.2993-5.0062,3.4641-7.2294,3.4641m-.4157-.0652c.1376.0094.2763.0149.4157.0149,2.2112,0,4.6306-1.1609,7.1951-3.451a36.7226,36.7226,0,0,0,6.635-8.3121c-.6957-1.2985-1.3674-2.6957-2.0195-4.0463-.2185-.4521-.438-.9041-.6529-1.3507a21.8418,21.8418,0,0,0-3.7171,4.5839c-1.7255,2.5748-3.5086,5.2352-7.0443,6.6175.2261.2882.4623.5692.693.8427A10.688,10.688,0,0,1,28.0952,87.11a1.6826,1.6826,0,0,1,.0381,1.5479,1.4449,1.4449,0,0,1-1.2074.6138A2.4458,2.4458,0,0,1,25.4,88.23a2.2077,2.2077,0,0,0-.4938,1.5682"/><path class="g" d="M93.1737,52.5088c7.2294,3.94,9.0889,15.627,15.1714,18.3562-2.4435,2.9246-4.6732,6.2768-7.1644,9.2033-6.6-2.9114-7.5381-9.5883-11.69-13.0208a60.2253,60.2253,0,0,0,3.6826-14.5387"/><path d="M101.1864,80.0961l-.0177-.0055c-4-1.7656-5.8992-4.8723-7.7382-7.8788a19.7764,19.7764,0,0,0-3.9542-5.1456l-.0139-.0113.0065-.0167a59.2783,59.2783,0,0,0,3.68-14.5314l.0038-.039.0326.0187c3.7094,2.02,5.9819,6.033,8.18,9.9139,2.0735,3.6574,4.0315,7.1122,6.9922,8.44l.028.0148-.02.0242c-1.17,1.401-2.3114,2.9265-3.4138,4.4018-1.2065,1.611-2.452,3.2779-3.7533,4.8035ZM89.5218,67.0382a19.8773,19.8773,0,0,1,3.9533,5.1477c1.8307,2.9934,3.7236,6.0907,7.6982,7.8508,1.2929-1.52,2.5348-3.1795,3.7357-4.7849,1.0968-1.468,2.2323-2.9842,3.3942-4.3775-2.9562-1.3452-4.9132-4.7961-6.9819-8.45-2.1888-3.8623-4.45-7.8546-8.127-9.8749a59.3,59.3,0,0,1-3.6725,14.4885"/><path class="h" d="M101.18,80.0683c-6.4527-2.6733-8.2339-10.6767-11.6877-13.0208-.8548,2.2028-1.5469,3.7226-2.4548,5.9271,3.8119,3.1814,4.7161,9.0229,10.6489,11.3836,1.1635-1.5179,3.4936-4.29,3.4936-4.29"/><path d="M97.6945,84.3881l-.0177-.0076c-3.6361-1.4453-5.383-4.1895-7.0712-6.8424a18.7738,18.7738,0,0,0-3.5851-4.5448l-.0139-.0113.0084-.0185c.3368-.8186.6456-1.5442.9405-2.2454.5012-1.1813.9758-2.2977,1.5124-3.68l.012-.03.0261.0168c1.3629.9245,2.4426,2.6882,3.6919,4.729,1.9134,3.1273,4.0827,6.6714,7.9922,8.29l.03.013-.0223.0261c-.0232.0278-2.3413,2.79-3.4919,4.29ZM87.068,72.9672a18.8079,18.8079,0,0,1,3.5793,4.543c1.6819,2.6417,3.4212,5.3747,7.0295,6.8164,1.0958-1.425,3.2193-3.9607,3.4613-4.249-3.9032-1.6316-6.0713-5.1719-7.9838-8.2973-1.2381-2.0222-2.3089-3.7729-3.65-4.6938-.5311,1.3694-1.0036,2.4781-1.5012,3.652-.2949.6957-.6,1.4158-.9349,2.2287"/><path class="i" d="M97.8908,88.6984a4.6552,4.6552,0,0,0-2.412-1.5478c-1.1619,2.0279.1543,2.3573.6231,2.5545.467.2139,1.3619-.3239,1.7889-1.0067"/><path class="i" d="M95.48,87.1506c1.7924.5062,3.0825,1.8269,2.915,3.1943,1.7963-1.6724,3.8055-3.0621,5.5469-4.7848a11.2788,11.2788,0,0,0-4.1208-3.8287c-1.4287,1.8324-4.023,4.757-4.3411,5.4192"/><path d="M98.3939,90.371l-.0111-.0038a.0222.0222,0,0,1-.0129-.0242c.1617-1.3171-1.0577-2.6491-2.8976-3.1682-.0057,0-.0131-.0074-.0158-.0149a.0194.0194,0,0,1,0-.02,29.535,29.535,0,0,1,2.3013-2.9263c.7264-.8689,1.4752-1.7675,2.0445-2.4987a.026.026,0,0,1,.0306-.0074,11.2416,11.2416,0,0,1,4.13,3.838.0283.0283,0,0,1-.0019.0317c-.9544.945-2.0083,1.8027-3.0231,2.6323-.8427.6883-1.7133,1.3991-2.5245,2.1544a.0249.0249,0,0,1-.02.0074M95.516,87.134c1.8175.5228,3.0249,1.8342,2.91,3.1458.8-.7386,1.6539-1.4362,2.479-2.11,1.0092-.8241,2.0557-1.6782,3.0036-2.6139a11.1779,11.1779,0,0,0-4.08-3.7933c-.5684.7275-1.3125,1.6185-2.0334,2.4819a32.3778,32.3778,0,0,0-2.28,2.8891"/><path class="h" d="M99.8162,81.7426c1.4874-1.8808,3.025-3.7115,4.5069-5.5941a14.5754,14.5754,0,0,1,5.073,4.6081c-1.7469,1.6707-3.7085,3.1292-5.4537,4.8035a11.5563,11.5563,0,0,0-4.1262-3.8175"/><path d="M103.9379,85.5992l-.0168-.0261a11.4279,11.4279,0,0,0-4.1169-3.8082l-.0271-.0148.02-.0223c.718-.91,1.46-1.8214,2.1794-2.7032.7675-.9432,1.5617-1.918,2.3273-2.8911l.0139-.0166.0187.0092a14.6464,14.6464,0,0,1,5.0826,4.6175l.0111.0149-.0149.0149c-.8706.8334-1.8121,1.6278-2.7207,2.3942-.9145.7721-1.8586,1.57-2.7349,2.4112Zm-4.0844-3.864a11.4807,11.4807,0,0,1,4.0937,3.7839c.8687-.8334,1.8082-1.624,2.7152-2.3906.9022-.7608,1.8361-1.55,2.7012-2.3757a14.6207,14.6207,0,0,0-5.0331-4.5726c-.7618.969-1.5507,1.94-2.3163,2.876-.7106.8744-1.4463,1.7785-2.1607,2.679"/><path class="g" d="M111.2259,67.202c3.1486,1.2316,5.35,3.0863,6.2713,6.0907-2.6994,2.452-5.4026,4.958-8.1,7.4639a13.044,13.044,0,0,0-5.0733-4.6081s4.5683-5.9682,6.9021-8.9465"/><path d="M109.3925,80.7937l-.0177-.0242a12.992,12.992,0,0,0-5.0611-4.5987l-.0289-.0131.0186-.0242c.0465-.0594,4.5951-6.0033,6.9019-8.9464l.0122-.015.0168.0057c3.4212,1.3394,5.4183,3.28,6.2862,6.1075l.0065.0149-.012.0112c-2.6633,2.4184-5.3514,4.9094-8.1021,7.4639Zm-5.03-4.6545a13.0289,13.0289,0,0,1,5.0389,4.5783c2.7376-2.5432,5.4155-5.0248,8.0657-7.4322-.8651-2.8-2.8465-4.7235-6.2332-6.0536-2.2344,2.8537-6.5476,8.4852-6.8714,8.9075"/><path class="j" d="M87.0373,72.9746c3.9394,3.4715,4.8955,9.0582,10.6489,11.3836a16.8508,16.8508,0,0,0-2.44,3.2409c-.48,1.0473-.1981,2.0315,1.1162,2.1431A2.4727,2.4727,0,0,0,97.9,88.7042a2.24,2.24,0,0,1,.4947,1.6407c-4.7913.281-10.1779-5.2146-14.13-11.9734.9563-1.73,1.8669-3.6146,2.772-5.3969"/><path d="M98.0424,90.38c-2.2363,0-4.665-1.1851-7.2238-3.5255a36.7365,36.7365,0,0,1-6.5756-8.47l-.0074-.0132.0074-.0129c.6986-1.2633,1.3794-2.6231,2.038-3.9366.24-.4818.4894-.9786.734-1.46l.0149-.0278.0251.02a21.8,21.8,0,0,1,3.6836,4.67c1.6882,2.5988,3.4351,5.2872,6.9577,6.71l.03.0132-.0206.0259c-.2362.2922-.4837.5785-.7218.854A10.6151,10.6151,0,0,0,95.2675,87.61a1.6275,1.6275,0,0,0-.0613,1.4994,1.3877,1.3877,0,0,0,1.1581.6064,2.43,2.43,0,0,0,1.5143-1.0268l.0215-.0261.0185.0261a2.2676,2.2676,0,0,1,.5014,1.6576v.0222l-.0233.0019c-.1181.0056-.2362.0094-.3543.0094M84.2942,78.3715a36.6538,36.6538,0,0,0,6.5588,8.4461c2.55,2.3312,4.9662,3.5125,7.1894,3.5125.1088,0,.2195-.0038.3282-.0113a2.2069,2.2069,0,0,0-.4724-1.5737,2.4456,2.4456,0,0,1-1.532,1.0213h-.0075a1.4373,1.4373,0,0,1-1.1961-.6308,1.68,1.68,0,0,1,.0585-1.5478,10.71,10.71,0,0,1,1.7246-2.3942c.2307-.2679.4688-.5433.6986-.8279-3.5142-1.4305-5.2592-4.117-6.95-6.716a21.887,21.887,0,0,0-3.65-4.6361c-.24.4727-.4837.96-.718,1.4288-.6568,1.3135-1.3348,2.6678-2.0325,3.9291"/><polygon class="k" points="42.83 71.879 42.827 72.614 47.802 82.851 47.696 82.158 42.83 71.879"/><g class="l"><polygon class="d" points="44.359 68.979 44.266 82.158 42.83 82.158 42.83 68.979 44.359 68.979"/><polygon class="d" points="44.547 68.979 44.454 82.158 44.266 82.158 44.359 68.979 44.547 68.979"/><polygon class="m" points="44.735 68.979 44.642 82.158 44.453 82.158 44.546 68.979 44.735 68.979"/><polygon class="n" points="44.923 68.979 44.83 82.158 44.643 82.158 44.734 68.979 44.923 68.979"/><polygon class="o" points="45.112 68.979 45.019 82.158 44.83 82.158 44.923 68.979 45.112 68.979"/><polygon class="p" points="45.301 68.979 45.208 82.158 45.019 82.158 45.112 68.979 45.301 68.979"/><polygon class="q" points="45.489 68.979 45.396 82.158 45.207 82.158 45.3 68.979 45.489 68.979"/><polygon class="r" points="45.678 68.979 45.585 82.158 45.396 82.158 45.489 68.979 45.678 68.979"/><polygon class="s" points="45.865 68.979 45.772 82.158 45.584 82.158 45.677 68.979 45.865 68.979"/><polygon class="t" points="46.054 68.979 45.961 82.158 45.772 82.158 45.865 68.979 46.054 68.979"/><polygon class="u" points="46.243 68.979 46.15 82.158 45.961 82.158 46.054 68.979 46.243 68.979"/><polygon class="v" points="46.431 68.979 46.338 82.158 46.149 82.158 46.242 68.979 46.431 68.979"/><polygon class="w" points="46.62 68.979 46.527 82.158 46.338 82.158 46.431 68.979 46.62 68.979"/><polygon class="x" points="46.808 68.979 46.715 82.158 46.526 82.158 46.619 68.979 46.808 68.979"/><polygon class="y" points="46.997 68.979 46.903 82.158 46.715 82.158 46.808 68.979 46.997 68.979"/><polygon class="z" points="47.185 68.979 47.092 82.158 46.903 82.158 46.997 68.979 47.185 68.979"/><polygon class="aa" points="47.373 68.979 47.28 82.158 47.091 82.158 47.184 68.979 47.373 68.979"/><polygon class="ab" points="47.562 68.979 47.469 82.158 47.28 82.158 47.373 68.979 47.562 68.979"/><polygon class="ac" points="47.75 68.979 47.657 82.158 47.468 82.158 47.561 68.979 47.75 68.979"/><polygon class="ad" points="47.939 68.979 47.846 82.158 47.657 82.158 47.75 68.979 47.939 68.979"/><polygon class="ae" points="48.128 68.979 48.035 82.158 47.846 82.158 47.939 68.979 48.128 68.979"/><polygon class="af" points="48.315 68.979 48.222 82.158 48.034 82.158 48.127 68.979 48.315 68.979"/><polygon class="ag" points="48.503 68.979 48.411 82.158 48.223 82.158 48.315 68.979 48.503 68.979"/><polygon class="ah" points="48.692 68.979 48.599 82.158 48.411 82.158 48.503 68.979 48.692 68.979"/><polygon class="ai" points="48.881 68.979 48.788 82.158 48.599 82.158 48.692 68.979 48.881 68.979"/><polygon class="aj" points="49.069 68.979 48.976 82.158 48.787 82.158 48.88 68.979 49.069 68.979"/><polygon class="ak" points="49.258 68.979 49.165 82.158 48.976 82.158 49.069 68.979 49.258 68.979"/><polygon class="al" points="49.446 68.979 49.353 82.158 49.164 82.158 49.257 68.979 49.446 68.979"/><polygon class="am" points="49.634 68.979 49.542 82.158 49.353 82.158 49.446 68.979 49.634 68.979"/><polygon class="an" points="49.823 68.979 49.73 82.158 49.542 82.158 49.634 68.979 49.823 68.979"/><polygon class="ao" points="50.011 68.979 49.918 82.158 49.729 82.158 49.823 68.979 50.011 68.979"/><polygon class="ap" points="50.2 68.979 50.107 82.158 49.918 82.158 50.011 68.979 50.2 68.979"/><polygon class="ap" points="50.308 68.979 50.215 82.158 50.106 82.158 50.199 68.979 50.308 68.979"/><polygon class="aq" points="50.415 68.979 50.322 82.158 50.215 82.158 50.308 68.979 50.415 68.979"/><polygon class="ar" points="50.523 68.979 50.43 82.158 50.323 82.158 50.414 68.979 50.523 68.979"/><polygon class="as" points="50.631 68.979 50.538 82.158 50.431 82.158 50.522 68.979 50.631 68.979"/><polygon class="at" points="50.739 68.979 50.646 82.158 50.537 82.158 50.63 68.979 50.739 68.979"/><polygon class="au" points="50.846 68.979 50.753 82.158 50.646 82.158 50.739 68.979 50.846 68.979"/><polygon class="av" points="50.954 68.979 50.861 82.158 50.753 82.158 50.845 68.979 50.954 68.979"/><polygon class="aw" points="51.062 68.979 50.968 82.158 50.862 82.158 50.953 68.979 51.062 68.979"/><polygon class="ax" points="51.169 68.979 51.076 82.158 50.967 82.158 51.061 68.979 51.169 68.979"/><polygon class="ay" points="51.277 68.979 51.184 82.158 51.075 82.158 51.168 68.979 51.277 68.979"/><polygon class="az" points="51.384 68.979 51.291 82.158 51.184 82.158 51.277 68.979 51.384 68.979"/><polygon class="ba" points="51.492 68.979 51.399 82.158 51.292 82.158 51.383 68.979 51.492 68.979"/><polygon class="bb" points="51.599 68.979 51.506 82.158 51.399 82.158 51.492 68.979 51.599 68.979"/><polygon class="bc" points="51.708 68.979 51.615 82.158 51.506 82.158 51.599 68.979 51.708 68.979"/><polygon class="bd" points="51.815 68.979 51.722 82.158 51.615 82.158 51.708 68.979 51.815 68.979"/><polygon class="be" points="51.923 68.979 51.83 82.158 51.721 82.158 51.814 68.979 51.923 68.979"/><polygon class="bf" points="52.03 68.979 51.937 82.158 51.83 82.158 51.923 68.979 52.03 68.979"/><polygon class="bg" points="52.138 68.979 52.045 82.158 51.938 82.158 52.029 68.979 52.138 68.979"/><polygon class="bh" points="52.246 68.979 52.153 82.158 52.046 82.158 52.137 68.979 52.246 68.979"/><polygon class="bi" points="52.354 68.979 52.261 82.158 52.152 82.158 52.245 68.979 52.354 68.979"/><polygon class="bj" points="52.461 68.979 52.368 82.158 52.26 82.158 52.353 68.979 52.461 68.979"/><polygon class="bk" points="52.568 68.979 52.475 82.158 52.368 82.158 52.461 68.979 52.568 68.979"/><polygon class="bl" points="52.676 68.979 52.583 82.158 52.476 82.158 52.567 68.979 52.676 68.979"/><polygon class="bm" points="52.784 68.979 52.691 82.158 52.584 82.158 52.675 68.979 52.784 68.979"/><polygon class="bm" points="52.807 68.979 52.714 82.158 52.689 82.158 52.785 68.979 52.807 68.979"/><polygon class="bn" points="52.831 68.979 52.738 82.158 52.713 82.158 52.807 68.979 52.831 68.979"/><polygon class="bo" points="52.853 68.979 52.76 82.158 52.737 82.158 52.83 68.979 52.853 68.979"/><polygon class="bp" points="52.876 68.979 52.783 82.158 52.76 82.158 52.853 68.979 52.876 68.979"/><polygon class="bq" points="52.899 68.979 52.806 82.158 52.782 82.158 52.875 68.979 52.899 68.979"/><polygon class="br" points="52.922 68.979 52.829 82.158 52.806 82.158 52.899 68.979 52.922 68.979"/><polygon class="bs" points="52.945 68.979 52.852 82.158 52.827 82.158 52.922 68.979 52.945 68.979"/><polygon class="bt" points="52.968 68.979 52.875 82.158 52.85 82.158 52.945 68.979 52.968 68.979"/><polygon class="bu" points="52.991 68.979 52.898 82.158 52.874 82.158 52.968 68.979 52.991 68.979"/><polygon class="bv" points="53.014 68.979 52.921 82.158 52.898 82.158 52.992 68.979 53.014 68.979"/><polygon class="bw" points="53.036 68.979 52.943 82.158 52.92 82.158 53.013 68.979 53.036 68.979"/><polygon class="bx" points="53.06 68.979 52.967 82.158 52.942 82.158 53.035 68.979 53.06 68.979"/><polygon class="by" points="53.083 68.979 52.99 82.158 52.967 82.158 53.06 68.979 53.083 68.979"/><polygon class="bz" points="53.106 68.979 53.013 82.158 52.99 82.158 53.083 68.979 53.106 68.979"/><polygon class="ca" points="53.128 68.979 53.035 82.158 53.012 82.158 53.105 68.979 53.128 68.979"/><polygon class="cb" points="53.152 68.979 53.059 82.158 53.035 82.158 53.128 68.979 53.152 68.979"/><polygon class="cc" points="53.175 68.979 53.082 82.158 53.059 82.158 53.152 68.979 53.175 68.979"/><polygon class="cd" points="53.198 68.979 53.105 82.158 53.08 82.158 53.175 68.979 53.198 68.979"/><polygon class="ce" points="53.22 68.979 53.127 82.158 53.104 82.158 53.198 68.979 53.22 68.979"/><polygon class="cf" points="53.244 68.979 53.151 82.158 53.127 82.158 53.22 68.979 53.244 68.979"/><polygon class="cg" points="53.267 68.979 53.174 82.158 53.149 82.158 53.244 68.979 53.267 68.979"/><polygon class="ch" points="53.289 68.979 53.196 82.158 53.173 82.158 53.266 68.979 53.289 68.979"/><polygon class="ci" points="53.313 68.979 53.22 82.158 53.196 82.158 53.289 68.979 53.313 68.979"/><polygon class="cj" points="53.336 68.979 53.243 82.158 53.218 82.158 53.313 68.979 53.336 68.979"/><polygon class="ck" points="53.358 68.979 53.265 82.158 53.242 82.158 53.335 68.979 53.358 68.979"/><polygon class="cl" points="53.381 68.979 53.288 82.158 53.265 82.158 53.358 68.979 53.381 68.979"/><polygon class="cm" points="53.405 68.979 53.312 82.158 53.288 82.158 53.381 68.979 53.405 68.979"/><polygon class="cn" points="53.428 68.979 53.335 82.158 53.31 82.158 53.405 68.979 53.428 68.979"/><polygon class="co" points="53.45 68.979 53.357 82.158 53.334 82.158 53.427 68.979 53.45 68.979"/><polygon class="cp" points="53.473 68.979 53.38 82.158 53.357 82.158 53.45 68.979 53.473 68.979"/><polygon class="cq" points="53.497 68.979 53.404 82.158 53.38 82.158 53.473 68.979 53.497 68.979"/><polygon class="cr" points="53.519 68.979 53.426 82.158 53.403 82.158 53.496 68.979 53.519 68.979"/><polygon class="cs" points="53.542 68.979 53.449 82.158 53.426 82.158 53.519 68.979 53.542 68.979"/><polygon class="ct" points="53.565 68.979 53.473 82.158 53.447 82.158 53.542 68.979 53.565 68.979"/><polygon class="cu" points="53.589 68.979 53.496 82.158 53.473 82.158 53.565 68.979 53.589 68.979"/><polygon class="cv" points="53.611 68.979 53.518 82.158 53.495 82.158 53.588 68.979 53.611 68.979"/><polygon class="cw" points="53.634 68.979 53.541 82.158 53.518 82.158 53.611 68.979 53.634 68.979"/><polygon class="cx" points="53.65 70.03 53.565 82.158 53.539 82.158 53.635 68.979 53.65 68.979 53.65 70.03"/><polygon class="cy" points="53.65 73.27 53.587 82.158 53.565 82.158 53.65 70.03 53.65 73.27"/><polygon class="cz" points="53.65 76.506 53.61 82.158 53.587 82.158 53.65 73.27 53.65 76.506"/><polygon class="da" points="53.65 79.741 53.633 82.158 53.61 82.158 53.65 76.506 53.65 79.741"/><polygon class="da" points="53.633 82.158 53.65 79.741 53.65 82.158 53.633 82.158"/></g><g class="db"><polygon class="d" points="48.91 69.503 54.732 79.752 48.91 79.752 48.91 69.503"/><polygon class="d" points="48.91 69.265 54.865 79.752 54.732 79.752 48.91 69.503 48.91 69.265"/><polygon class="m" points="48.91 69.027 55.001 79.752 54.865 79.752 48.91 69.265 48.91 69.027"/><polygon class="n" points="48.91 68.789 55.138 79.752 55.001 79.752 48.91 69.027 48.91 68.789"/><polygon class="o" points="48.91 68.553 55.27 79.752 55.138 79.752 48.91 68.789 48.91 68.553"/><polygon class="p" points="48.91 68.315 55.406 79.752 55.27 79.752 48.91 68.553 48.91 68.315"/><polygon class="q" points="48.91 68.076 55.541 79.752 55.406 79.752 48.91 68.315 48.91 68.076"/><polygon class="r" points="48.91 67.838 55.677 79.752 55.541 79.752 48.91 68.076 48.91 67.838"/><polygon class="s" points="48.91 67.684 48.946 67.663 55.812 79.752 55.677 79.752 48.91 67.838 48.91 67.684"/><polygon class="t" points="48.945 67.663 49.048 67.606 55.946 79.752 55.811 79.752 48.945 67.663"/><polygon class="u" points="49.048 67.606 49.151 67.546 56.081 79.752 55.946 79.752 49.048 67.606"/><polygon class="v" points="49.15 67.546 49.163 67.539 49.279 67.539 56.216 79.752 56.081 79.752 49.15 67.546"/><polygon class="w" points="49.415 67.539 56.351 79.752 56.216 79.752 49.28 67.539 49.415 67.539"/><polygon class="x" points="49.55 67.539 56.467 79.72 56.41 79.752 56.35 79.752 49.415 67.539 49.55 67.539"/><polygon class="y" points="49.685 67.539 56.569 79.661 56.469 79.72 49.55 67.539 49.685 67.539"/><polygon class="z" points="49.82 67.539 56.672 79.603 56.569 79.661 49.685 67.539 49.82 67.539"/><polygon class="aa" points="49.955 67.539 56.775 79.546 56.671 79.603 49.82 67.539 49.955 67.539"/><polygon class="ab" points="50.089 67.539 56.877 79.486 56.774 79.546 49.955 67.539 50.089 67.539"/><polygon class="ac" points="50.225 67.539 56.978 79.43 56.876 79.486 50.09 67.539 50.225 67.539"/><polygon class="ad" points="50.36 67.539 57.079 79.372 56.978 79.43 50.225 67.539 50.36 67.539"/><polygon class="ae" points="50.495 67.539 57.181 79.313 57.081 79.372 50.36 67.539 50.495 67.539"/><polygon class="af" points="50.63 67.539 57.284 79.255 57.181 79.313 50.495 67.539 50.63 67.539"/><polygon class="ag" points="50.765 67.539 57.387 79.198 57.284 79.255 50.63 67.539 50.765 67.539"/><polygon class="ah" points="50.9 67.539 57.487 79.14 57.386 79.198 50.765 67.539 50.9 67.539"/><polygon class="ai" points="51.035 67.539 57.59 79.082 57.488 79.14 50.901 67.539 51.035 67.539"/><polygon class="aj" points="51.17 67.539 57.693 79.023 57.592 79.082 51.035 67.539 51.17 67.539"/><polygon class="ak" points="51.305 67.539 57.796 78.967 57.693 79.023 51.17 67.539 51.305 67.539"/><polygon class="al" points="51.44 67.539 57.896 78.907 57.795 78.967 51.305 67.539 51.44 67.539"/><polygon class="am" points="51.575 67.539 58.001 78.848 57.896 78.907 51.44 67.539 51.575 67.539"/><polygon class="an" points="51.711 67.539 58.1 78.792 57.999 78.848 51.576 67.539 51.711 67.539"/><polygon class="ao" points="51.846 67.539 58.203 78.734 58.102 78.792 51.711 67.539 51.846 67.539"/><polygon class="ap" points="51.981 67.539 58.305 78.677 58.203 78.734 51.846 67.539 51.981 67.539"/><polygon class="ap" points="52.057 67.539 58.364 78.643 58.305 78.677 51.981 67.539 52.057 67.539"/><polygon class="aq" points="52.135 67.539 58.421 78.61 58.364 78.643 52.057 67.539 52.135 67.539"/><polygon class="ar" points="52.211 67.539 58.481 78.576 58.422 78.61 52.135 67.539 52.211 67.539"/><polygon class="as" points="52.289 67.539 58.537 78.543 58.481 78.576 52.211 67.539 52.289 67.539"/><polygon class="at" points="52.366 67.539 58.597 78.511 58.537 78.543 52.289 67.539 52.366 67.539"/><polygon class="au" points="52.444 67.539 58.656 78.478 58.597 78.511 52.366 67.539 52.444 67.539"/><polygon class="av" points="52.52 67.539 58.713 78.444 58.656 78.478 52.444 67.539 52.52 67.539"/><polygon class="aw" points="52.598 67.539 58.773 78.411 58.713 78.444 52.52 67.539 52.598 67.539"/><polygon class="ax" points="52.674 67.539 58.829 78.377 58.773 78.411 52.598 67.539 52.674 67.539"/><polygon class="ay" points="52.753 67.539 58.889 78.344 58.829 78.377 52.674 67.539 52.753 67.539"/><polygon class="az" points="52.829 67.539 58.946 78.312 58.889 78.344 52.753 67.539 52.829 67.539"/><polygon class="ba" points="52.906 67.539 59.006 78.279 58.947 78.312 52.828 67.539 52.906 67.539"/><polygon class="bb" points="52.983 67.539 59.064 78.245 59.005 78.279 52.905 67.539 52.983 67.539"/><polygon class="bc" points="53.06 67.539 59.122 78.212 59.063 78.245 52.982 67.539 53.06 67.539"/><polygon class="bd" points="53.138 67.539 59.18 78.178 59.123 78.212 53.06 67.539 53.138 67.539"/><polygon class="be" points="53.215 67.539 59.239 78.147 59.179 78.178 53.137 67.539 53.215 67.539"/><polygon class="bf" points="53.292 67.539 59.296 78.113 59.24 78.147 53.214 67.539 53.292 67.539"/><polygon class="bg" points="53.369 67.539 59.355 78.079 59.297 78.113 53.291 67.539 53.369 67.539"/><polygon class="bh" points="53.446 67.539 59.413 78.046 59.356 78.079 53.368 67.539 53.446 67.539"/><polygon class="bi" points="53.524 67.539 59.473 78.013 59.414 78.046 53.445 67.539 53.524 67.539"/><polygon class="bj" points="53.601 67.539 59.531 77.981 59.472 78.013 53.523 67.539 53.601 67.539"/><polygon class="bk" points="53.678 67.539 59.589 77.947 59.53 77.981 53.6 67.539 53.678 67.539"/><polygon class="bl" points="53.754 67.539 59.618 77.862 59.618 77.931 59.589 77.947 53.678 67.539 53.754 67.539"/><polygon class="bm" points="53.832 67.539 59.618 77.724 59.618 77.862 53.754 67.539 53.832 67.539"/><polygon class="bm" points="53.848 67.539 59.616 77.696 59.616 77.726 53.833 67.539 53.848 67.539"/><polygon class="bn" points="53.864 67.539 59.617 77.666 59.617 77.696 53.849 67.539 53.864 67.539"/><polygon class="bo" points="53.881 67.539 59.616 77.639 59.616 77.666 53.863 67.539 53.881 67.539"/><polygon class="bp" points="53.898 67.539 59.616 77.609 59.616 77.639 53.881 67.539 53.898 67.539"/><polygon class="bq" points="53.914 67.539 59.618 77.581 59.618 77.609 53.898 67.539 53.914 67.539"/><polygon class="br" points="53.93 67.539 59.616 77.551 59.616 77.581 53.915 67.539 53.93 67.539"/><polygon class="bs" points="53.947 67.539 59.618 77.523 59.618 77.551 53.93 67.539 53.947 67.539"/><polygon class="bt" points="53.964 67.539 59.617 77.493 59.617 77.523 53.947 67.539 53.964 67.539"/><polygon class="bu" points="53.98 67.539 59.617 77.464 59.617 77.493 53.964 67.539 53.98 67.539"/><polygon class="bv" points="53.997 67.539 59.617 77.436 59.617 77.464 53.98 67.539 53.997 67.539"/><polygon class="bw" points="54.013 67.539 59.617 77.406 59.617 77.436 53.998 67.539 54.013 67.539"/><polygon class="bx" points="54.03 67.539 59.617 77.378 59.617 77.406 54.013 67.539 54.03 67.539"/><polygon class="by" points="54.046 67.539 59.617 77.348 59.617 77.378 54.031 67.539 54.046 67.539"/><polygon class="bz" points="54.062 67.539 59.617 77.319 59.617 77.348 54.046 67.539 54.062 67.539"/><polygon class="ca" points="54.078 67.539 59.618 77.291 59.618 77.319 54.063 67.539 54.078 67.539"/><polygon class="cb" points="54.095 67.539 59.617 77.261 59.617 77.291 54.077 67.539 54.095 67.539"/><polygon class="cc" points="54.111 67.539 59.617 77.233 59.617 77.261 54.095 67.539 54.111 67.539"/><polygon class="cd" points="54.128 67.539 59.616 77.203 59.616 77.233 54.111 67.539 54.128 67.539"/><polygon class="ce" points="54.145 67.539 59.618 77.175 59.618 77.203 54.128 67.539 54.145 67.539"/><polygon class="cf" points="54.162 67.539 59.617 77.146 59.617 77.175 54.145 67.539 54.162 67.539"/><polygon class="cg" points="54.178 67.539 59.616 77.116 59.616 77.146 54.163 67.539 54.178 67.539"/><polygon class="ch" points="54.194 67.539 59.618 77.088 59.618 77.116 54.178 67.539 54.194 67.539"/><polygon class="ci" points="54.211 67.539 59.617 77.058 59.617 77.088 54.194 67.539 54.211 67.539"/><polygon class="cj" points="54.227 67.539 59.618 77.03 59.618 77.058 54.212 67.539 54.227 67.539"/><polygon class="ck" points="54.244 67.539 59.617 77 59.617 77.03 54.227 67.539 54.244 67.539"/><polygon class="cl" points="54.259 67.539 59.618 76.971 59.618 77 54.245 67.539 54.259 67.539"/><polygon class="cm" points="54.276 67.539 59.618 76.943 59.618 76.971 54.259 67.539 54.276 67.539"/><polygon class="cn" points="54.293 67.539 59.617 76.913 59.617 76.943 54.275 67.539 54.293 67.539"/><polygon class="co" points="54.31 67.539 59.617 76.885 59.617 76.913 54.292 67.539 54.31 67.539"/><polygon class="cp" points="54.325 67.539 59.617 76.855 59.617 76.885 54.311 67.539 54.325 67.539"/><polygon class="cq" points="54.342 67.539 59.617 76.826 59.617 76.855 54.325 67.539 54.342 67.539"/><polygon class="cr" points="54.359 67.539 59.616 76.798 59.616 76.826 54.342 67.539 54.359 67.539"/><polygon class="cs" points="54.376 67.539 59.616 76.768 59.616 76.798 54.359 67.539 54.376 67.539"/><polygon class="ct" points="54.392 67.539 59.617 76.74 59.617 76.768 54.377 67.539 54.392 67.539"/><polygon class="cu" points="54.408 67.539 59.616 76.71 59.616 76.74 54.392 67.539 54.408 67.539"/><polygon class="cv" points="54.425 67.539 59.618 76.682 59.618 76.71 54.408 67.539 54.425 67.539"/><polygon class="cw" points="54.441 67.539 59.616 76.653 59.616 76.682 54.426 67.539 54.441 67.539"/><polygon class="cx" points="54.458 67.539 59.616 76.623 59.616 76.653 54.441 67.539 54.458 67.539"/><polygon class="cy" points="54.473 67.539 59.617 76.595 59.617 76.623 54.459 67.539 54.473 67.539"/><polygon class="cz" points="54.49 67.539 59.616 76.565 59.616 76.595 54.473 67.539 54.49 67.539"/><polygon class="da" points="54.507 67.539 59.618 76.537 59.618 76.565 54.489 67.539 54.507 67.539"/><polygon class="da" points="59.617 76.535 54.506 67.539 59.617 67.539 59.617 76.535"/></g><g class="dc"><polygon class="dd" points="48.319 77.308 48.279 82.851 47.696 82.851 47.696 77.308 48.319 77.308"/><polygon class="dd" points="48.51 77.308 48.47 82.851 48.279 82.851 48.319 77.308 48.51 77.308"/><polygon class="de" points="48.702 77.308 48.662 82.851 48.471 82.851 48.509 77.308 48.702 77.308"/><polygon class="df" points="48.893 77.308 48.853 82.851 48.663 82.851 48.701 77.308 48.893 77.308"/><polygon class="an" points="49.084 77.308 49.044 82.851 48.853 82.851 48.893 77.308 49.084 77.308"/><polygon class="ao" points="49.276 77.308 49.236 82.851 49.045 82.851 49.083 77.308 49.276 77.308"/><polygon class="ap" points="49.467 77.308 49.427 82.851 49.236 82.851 49.275 77.308 49.467 77.308"/><polygon class="ap" points="49.564 77.308 49.524 82.851 49.426 82.851 49.466 77.308 49.564 77.308"/><polygon class="dg" points="49.66 77.308 49.62 82.851 49.525 82.851 49.565 77.308 49.66 77.308"/><polygon class="dh" points="49.756 77.308 49.716 82.851 49.622 82.851 49.66 77.308 49.756 77.308"/><polygon class="as" points="49.853 77.308 49.813 82.851 49.718 82.851 49.756 77.308 49.853 77.308"/><polygon class="di" points="49.95 77.308 49.91 82.851 49.813 82.851 49.853 77.308 49.95 77.308"/><polygon class="dj" points="50.046 77.308 50.006 82.851 49.911 82.851 49.951 77.308 50.046 77.308"/><polygon class="dk" points="50.143 77.308 50.103 82.851 50.006 82.851 50.047 77.308 50.143 77.308"/><polygon class="dl" points="50.239 77.308 50.199 82.851 50.104 82.851 50.144 77.308 50.239 77.308"/><polygon class="ax" points="50.336 77.308 50.296 82.851 50.201 82.851 50.239 77.308 50.336 77.308"/><polygon class="ay" points="50.433 77.308 50.393 82.851 50.298 82.851 50.336 77.308 50.433 77.308"/><polygon class="dm" points="50.529 77.308 50.489 82.851 50.393 82.851 50.433 77.308 50.529 77.308"/><polygon class="dn" points="50.625 77.308 50.585 82.851 50.49 82.851 50.53 77.308 50.625 77.308"/><polygon class="do" points="50.723 77.308 50.683 82.851 50.585 82.851 50.625 77.308 50.723 77.308"/><polygon class="dp" points="50.819 77.308 50.779 82.851 50.684 82.851 50.724 77.308 50.819 77.308"/><polygon class="dq" points="50.915 77.308 50.875 82.851 50.781 82.851 50.819 77.308 50.915 77.308"/><polygon class="dr" points="51.012 77.308 50.972 82.851 50.877 82.851 50.915 77.308 51.012 77.308"/><polygon class="ds" points="51.109 77.308 51.069 82.851 50.972 82.851 51.012 77.308 51.109 77.308"/><polygon class="dt" points="51.205 77.308 51.165 82.851 51.07 82.851 51.11 77.308 51.205 77.308"/><polygon class="du" points="51.301 77.308 51.261 82.851 51.166 82.851 51.204 77.308 51.301 77.308"/><polygon class="dv" points="51.398 77.308 51.358 82.851 51.263 82.851 51.301 77.308 51.398 77.308"/><polygon class="dw" points="51.495 77.308 51.455 82.851 51.358 82.851 51.398 77.308 51.495 77.308"/><polygon class="dx" points="51.592 77.308 51.552 82.851 51.457 82.851 51.495 77.308 51.592 77.308"/><polygon class="dy" points="51.688 77.308 51.648 82.851 51.552 82.851 51.592 77.308 51.688 77.308"/><polygon class="dz" points="51.784 77.308 51.746 82.851 51.649 82.851 51.689 77.308 51.784 77.308"/><polygon class="ea" points="51.881 77.308 51.841 82.851 51.746 82.851 51.783 77.308 51.881 77.308"/><polygon class="eb" points="51.978 77.308 51.938 82.851 51.843 82.851 51.881 77.308 51.978 77.308"/><polygon class="ec" points="52.074 77.308 52.034 82.851 51.938 82.851 51.978 77.308 52.074 77.308"/><polygon class="ed" points="52.17 77.308 52.132 82.851 52.035 82.851 52.075 77.308 52.17 77.308"/><polygon class="ee" points="52.268 77.308 52.228 82.851 52.133 82.851 52.171 77.308 52.268 77.308"/><polygon class="ef" points="52.364 77.308 52.324 82.851 52.228 82.851 52.268 77.308 52.364 77.308"/><polygon class="eg" points="52.46 77.308 52.42 82.851 52.326 82.851 52.363 77.308 52.46 77.308"/><polygon class="eh" points="52.557 77.308 52.517 82.851 52.422 82.851 52.46 77.308 52.557 77.308"/><polygon class="ei" points="52.654 77.308 52.614 82.851 52.519 82.851 52.557 77.308 52.654 77.308"/><polygon class="ej" points="52.751 77.308 52.711 82.851 52.614 82.851 52.654 77.308 52.751 77.308"/><polygon class="ek" points="52.847 77.308 52.807 82.851 52.713 82.851 52.751 77.308 52.847 77.308"/><polygon class="el" points="52.943 77.308 52.903 82.851 52.807 82.851 52.848 77.308 52.943 77.308"/><polygon class="em" points="53.04 77.308 53 82.851 52.905 82.851 52.942 77.308 53.04 77.308"/><polygon class="en" points="53.137 77.308 53.097 82.851 53.002 82.851 53.04 77.308 53.137 77.308"/><polygon class="eo" points="53.233 77.308 53.193 82.851 53.099 82.851 53.137 77.308 53.233 77.308"/><polygon class="eo" points="53.364 77.308 53.324 82.851 53.194 82.851 53.234 77.308 53.364 77.308"/><polygon class="ep" points="53.494 77.308 53.454 82.851 53.325 82.851 53.365 77.308 53.494 77.308"/><polygon class="eq" points="53.624 77.308 53.584 82.851 53.455 82.851 53.495 77.308 53.624 77.308"/><polygon class="er" points="53.753 77.308 53.713 82.851 53.584 82.851 53.624 77.308 53.753 77.308"/><polygon class="es" points="53.884 77.308 53.844 82.851 53.714 82.851 53.754 77.308 53.884 77.308"/><polygon class="et" points="54.014 77.308 53.974 82.851 53.845 82.851 53.885 77.308 54.014 77.308"/><polygon class="eu" points="54.144 77.308 54.104 82.851 53.975 82.851 54.015 77.308 54.144 77.308"/><polygon class="ev" points="54.274 77.308 54.234 82.851 54.105 82.851 54.145 77.308 54.274 77.308"/><polygon class="ew" points="54.404 77.308 54.364 82.851 54.235 82.851 54.275 77.308 54.404 77.308"/><polygon class="ex" points="54.535 77.308 54.495 82.851 54.365 82.851 54.405 77.308 54.535 77.308"/><polygon class="ey" points="54.665 77.308 54.625 82.851 54.496 82.851 54.536 77.308 54.665 77.308"/><polygon class="ez" points="54.795 77.308 54.755 82.851 54.626 82.851 54.666 77.308 54.795 77.308"/><polygon class="fa" points="54.925 77.308 54.885 82.851 54.756 82.851 54.796 77.308 54.925 77.308"/><polygon class="fb" points="55.056 77.308 55.016 82.851 54.886 82.851 54.926 77.308 55.056 77.308"/><polygon class="fc" points="55.185 77.308 55.145 82.851 55.016 82.851 55.056 77.308 55.185 77.308"/><polygon class="fd" points="55.315 77.308 55.275 82.851 55.146 82.851 55.186 77.308 55.315 77.308"/><polygon class="fe" points="55.445 77.308 55.405 82.851 55.276 82.851 55.316 77.308 55.445 77.308"/><polygon class="ff" points="55.576 77.308 55.536 82.851 55.406 82.851 55.446 77.308 55.576 77.308"/><polygon class="fg" points="55.706 77.308 55.666 82.851 55.537 82.851 55.577 77.308 55.706 77.308"/><polygon class="fh" points="55.836 77.308 55.796 82.851 55.667 82.851 55.707 77.308 55.836 77.308"/><polygon class="fi" points="55.966 77.308 55.926 82.851 55.797 82.851 55.837 77.308 55.966 77.308"/><polygon class="fj" points="56.097 77.308 56.056 82.851 55.927 82.851 55.967 77.308 56.097 77.308"/><polygon class="fk" points="56.227 77.308 56.187 82.851 56.057 82.851 56.097 77.308 56.227 77.308"/><polygon class="fl" points="56.357 77.308 56.317 82.851 56.188 82.851 56.228 77.308 56.357 77.308"/><polygon class="fm" points="56.487 77.308 56.447 82.851 56.318 82.851 56.358 77.308 56.487 77.308"/><polygon class="da" points="56.618 77.308 56.578 82.851 56.448 82.851 56.488 77.308 56.618 77.308"/><polygon class="da" points="56.668 77.308 56.628 82.851 56.578 82.851 56.617 77.308 56.668 77.308"/><polygon class="fn" points="56.717 77.308 56.677 82.851 56.628 82.851 56.668 77.308 56.717 77.308"/><polygon class="fo" points="56.767 77.308 56.727 82.851 56.678 82.851 56.718 77.308 56.767 77.308"/><polygon class="fp" points="56.817 77.308 56.777 82.851 56.728 82.851 56.768 77.308 56.817 77.308"/><polygon class="fq" points="56.868 77.308 56.828 82.851 56.778 82.851 56.818 77.308 56.868 77.308"/><polygon class="fr" points="56.917 77.308 56.877 82.851 56.828 82.851 56.868 77.308 56.917 77.308"/><polygon class="fs" points="56.967 77.308 56.927 82.851 56.878 82.851 56.918 77.308 56.967 77.308"/><polygon class="ft" points="57.017 77.308 56.977 82.851 56.928 82.851 56.968 77.308 57.017 77.308"/><polygon class="fu" points="57.068 77.308 57.028 82.851 56.978 82.851 57.018 77.308 57.068 77.308"/><polygon class="fv" points="57.117 77.308 57.077 82.851 57.028 82.851 57.068 77.308 57.117 77.308"/><polygon class="fw" points="57.167 77.308 57.127 82.851 57.078 82.851 57.118 77.308 57.167 77.308"/><polygon class="fx" points="57.217 77.308 57.177 82.851 57.128 82.851 57.168 77.308 57.217 77.308"/><polygon class="fy" points="57.268 77.308 57.228 82.851 57.178 82.851 57.218 77.308 57.268 77.308"/><polygon class="fz" points="57.318 77.308 57.278 82.851 57.229 82.851 57.269 77.308 57.318 77.308"/><polygon class="ga" points="57.367 77.308 57.327 82.851 57.278 82.851 57.318 77.308 57.367 77.308"/><polygon class="gb" points="57.417 77.308 57.377 82.851 57.328 82.851 57.368 77.308 57.417 77.308"/><polygon class="gc" points="57.468 77.308 57.428 82.851 57.378 82.851 57.418 77.308 57.468 77.308"/><polygon class="gd" points="57.518 77.308 57.478 82.851 57.428 82.851 57.468 77.308 57.518 77.308"/><polygon class="ge" points="57.567 77.308 57.529 82.851 57.478 82.851 57.518 77.308 57.567 77.308"/><polygon class="gf" points="57.618 77.308 57.578 82.851 57.529 82.851 57.567 77.308 57.618 77.308"/><polygon class="gg" points="57.668 77.308 57.628 82.851 57.578 82.851 57.618 77.308 57.668 77.308"/><polygon class="gh" points="57.718 77.308 57.678 82.851 57.629 82.851 57.669 77.308 57.718 77.308"/><polygon class="gi" points="57.768 77.308 57.728 82.851 57.679 82.851 57.719 77.308 57.768 77.308"/><polygon class="gj" points="57.818 77.308 57.778 82.851 57.729 82.851 57.769 77.308 57.818 77.308"/><polygon class="gk" points="57.868 77.308 57.828 82.851 57.778 82.851 57.818 77.308 57.868 77.308"/><polygon class="gl" points="57.918 77.308 57.878 82.851 57.829 82.851 57.869 77.308 57.918 77.308"/><polygon class="gm" points="57.967 77.308 57.929 82.851 57.88 82.851 57.918 77.308 57.967 77.308"/><polygon class="gn" points="58.018 77.308 57.978 82.851 57.929 82.851 57.967 77.308 58.018 77.308"/><polygon class="go" points="58.068 77.308 58.028 82.851 57.978 82.851 58.018 77.308 58.068 77.308"/><polygon class="gp" points="58.118 77.308 58.078 82.851 58.029 82.851 58.069 77.308 58.118 77.308"/><polygon class="gq" points="58.168 77.308 58.128 82.851 58.079 82.851 58.119 77.308 58.168 77.308"/><polygon class="gr" points="58.218 77.308 58.178 82.851 58.129 82.851 58.169 77.308 58.218 77.308"/><polygon class="gs" points="58.268 77.308 58.228 82.851 58.178 82.851 58.218 77.308 58.268 77.308"/><polygon class="gt" points="58.318 77.308 58.278 82.851 58.229 82.851 58.269 77.308 58.318 77.308"/><polygon class="gu" points="58.368 77.308 58.328 82.851 58.279 82.851 58.319 77.308 58.368 77.308"/><polygon class="gv" points="58.418 77.308 58.378 82.851 58.329 82.851 58.369 77.308 58.418 77.308"/><polygon class="gw" points="58.468 77.308 58.428 82.851 58.378 82.851 58.418 77.308 58.468 77.308"/><polygon class="gx" points="58.519 77.308 58.479 82.851 58.429 82.851 58.468 77.308 58.519 77.308"/><polygon class="gy" points="58.568 77.308 58.528 82.851 58.479 82.851 58.519 77.308 58.568 77.308"/><polygon class="gz" points="58.618 77.308 58.578 82.851 58.529 82.851 58.569 77.308 58.618 77.308"/><polygon class="ha" points="58.668 77.308 58.628 82.851 58.579 82.851 58.619 77.308 58.668 77.308"/><polygon class="hb" points="58.718 77.308 58.678 82.851 58.628 82.851 58.668 77.308 58.718 77.308"/><polygon class="hc" points="58.768 77.308 58.728 82.851 58.679 82.851 58.719 77.308 58.768 77.308"/><polygon class="hd" points="58.818 77.308 58.778 82.851 58.729 82.851 58.769 77.308 58.818 77.308"/><polygon class="he" points="58.868 77.308 58.828 82.851 58.779 82.851 58.819 77.308 58.868 77.308"/><polygon class="hf" points="58.919 77.308 58.879 82.851 58.829 82.851 58.869 77.308 58.919 77.308"/><polygon class="hg" points="58.968 77.308 58.928 82.851 58.879 82.851 58.919 77.308 58.968 77.308"/><polygon class="hh" points="59.018 77.308 58.978 82.851 58.929 82.851 58.969 77.308 59.018 77.308"/><polygon class="hi" points="59.069 77.308 59.029 82.851 58.979 82.851 59.019 77.308 59.069 77.308"/><polygon class="hj" points="59.119 77.308 59.079 82.851 59.029 82.851 59.069 77.308 59.119 77.308"/><polygon class="hk" points="59.169 77.308 59.129 82.851 59.08 82.851 59.12 77.308 59.169 77.308"/><polygon class="hl" points="59.218 77.308 59.178 82.851 59.129 82.851 59.169 77.308 59.218 77.308"/><polygon class="hm" points="59.269 77.308 59.229 82.851 59.179 82.851 59.219 77.308 59.269 77.308"/><polygon class="hn" points="59.319 77.308 59.279 82.851 59.229 82.851 59.269 77.308 59.319 77.308"/><polygon class="ho" points="59.369 77.308 59.329 82.851 59.28 82.851 59.32 77.308 59.369 77.308"/><polygon class="hp" points="59.418 77.308 59.378 82.851 59.329 82.851 59.369 77.308 59.418 77.308"/><polygon class="hq" points="59.468 77.308 59.428 82.851 59.379 82.851 59.419 77.308 59.468 77.308"/><polygon class="hr" points="59.519 77.308 59.479 82.851 59.429 82.851 59.469 77.308 59.519 77.308"/><polygon class="hs" points="59.569 77.308 59.529 82.851 59.48 82.851 59.52 77.308 59.569 77.308"/><polygon class="ht" points="59.617 77.529 59.579 82.851 59.53 82.851 59.57 77.308 59.617 77.308 59.617 77.529"/><polygon class="ht" points="59.579 82.851 59.617 77.529 59.617 82.851 59.579 82.851"/></g><path class="e" d="M48.7742,72.7012c-.7944,1.3636-2.1683,1.5646-2.745,2.2417-.5313.5229-.1657.733.1507.42a1.2738,1.2738,0,0,1,.5786-.4147,2.9244,2.9244,0,0,1,.6212,2.1077c.1545.1581.1507.3739.3088.4743a3.5155,3.5155,0,0,0-.6631-2.7885,7.92,7.92,0,0,1,1.0538-.7331c.522,1.0567,1.0912,2.1654,2.4093,2.2287A3.3045,3.3045,0,0,1,48.5071,73.7c.37-.4724.37-.733.2671-.999"/><path class="hu" d="M62.099,24.4c-10.45,5.7095-18.3507,7.0209-30.62,2.4073-2.2018,13.1342-2.0743,24.968,1.4231,36.3535l28.9205.2066Z"/><path class="hv" d="M62.0842,26.56c-9.56,5.607-19.5071,6.5372-29.099,2.7885C31.429,40.7473,31.56,52.2594,35.0576,63.1742l26.7652.1916Z"/><path class="hw" d="M33.88,58.9066c.1981.8967.7107,2.9524,1.1757,4.2676l26.7671.1916.0326-4.6825c-9.3121.5618-18.8252-.7125-27.9754.2233"/><path class="hx" d="M54.891,59.6991l-.1052-1.613-.4547-.5786-.3852-10.2524.8121-.746.1256-2.2419s-.4976-.1655-1.3981-.372l-.0084.8855c-.3841-.0837-.8325-.173-1.3329-.2624l.0055-.8929c-.5887-.1061-1.265-.21-2.0174-.2977l-.0058.8931c-.4231-.05-.8686-.0968-1.3356-.1359l.0056-.8873c-.3563-.028-.6167-.0671-1.1061-.0707s-.7571.0316-1.1133.0558l-.0076.8855c-.466.0335-.9125.0726-1.3366.1171l.0075-.8929c-.7563.0762-1.4307.173-2.0232.2679l-.0055.8931c-.5014.0817-.9489.1674-1.3377.2455l.0055-.8856c-.9032.1935-1.4036.3516-1.4036.3516l.0949,2.2419.7982.7589L40.84,57.4108l-.465.573-.1275,1.6111a19.19,19.19,0,0,0,7.2145,1.4213.8551.8551,0,0,0,.0987,0c.0307.0019.0669.0019.0994.0019a19.1841,19.1841,0,0,0,7.2313-1.319"/><path class="hy" d="M47.6393,49.9768c-3.3943-.0242-3.545,7.0042-3.385,10.7567a20.0974,20.0974,0,0,0,3.2083.2827.8206.8206,0,0,0,.0967,0c.0326.0019.0669.0019.0995.0019A19.8351,19.8351,0,0,0,50.87,60.78c.2139-3.7487.1608-10.779-3.2306-10.8032"/><path class="hz" d="M47.631,50.9628c-3.0446-.0225-2.7088,7.64-2.5451,9.8934a19.9255,19.9255,0,0,0,2.3757.16.8551.8551,0,0,0,.0987,0c.0307.0019.0669.0019.0994.0019a20.3021,20.3021,0,0,0,2.3758-.1265c.1981-2.2512.6437-9.9084-2.4045-9.9288"/><path class="hu" d="M61.4934,104.4316l.2894-41.0658L90.65,63.57C85.3788,79.886,74.4956,95.48,61.4934,104.4316"/><path class="ia" d="M61.5641,101.697c9.7215-6.45,21.2882-21.357,26.929-38.14l-26.6545-.19Z"/><path class="ib" d="M69.653,73.0378s-3.9449-3.5252-1.1125-5.2537c2.8307-1.73,6.6369-.9077,8.1234-3.0825-.6976,3.0789,1.6269,5.8565-3.4771,8.6359Z"/><path class="i" d="M70.0392,73.0714s-2.9888-2.6695-.8438-3.9792,5.0314-.6866,6.1552-2.3349C74.8211,69.09,76.5829,71.196,72.7153,73.3Z"/><path class="ic" d="M70.8353,73.1514s-1.6705-1.7711.5433-2.653a17.3971,17.3971,0,0,0,1.7069-.5059s.0735,2.9356-1.241,3.2444Z"/><path class="c" d="M74.0026,73.4583l-2.8063-.3572-2.8214-.19s-1.6594.8057-.8668,2.1619c.9451.3423,1.0343.9637,1.0343.9637l.2381,13.8373s-.1478,2.4577.5359,2.5693c.6948.0223,1.0213-2.4186,1.0213-2.4186l2.8994-13.53s.2075-.5934,1.2017-.7479c1.0382-1.1794-.4362-2.2883-.4362-2.2883"/><path class="id" d="M68.6289,81.058s-1.5663.1878-1.6463.4743a1.6371,1.6371,0,0,0,.4343,1.63c-.7125-.1321-1.6437.0781-.8622,1.4436-.61.7572-.57,1.6074.3423,1.8305-.1806.8354-.1583,1.373,1.8593,1.9367l-.011-.6418s1.451-.1711,1.5179-.5376a.842.842,0,0,0-.2056-.6641.7561.7561,0,0,0,.5256-1.0716c.2959-.2736.574-1.55-.413-1.5423-.6557.0038-1.12.2233-1.3849-.625a15.5325,15.5325,0,0,1-.1564-2.2325"/><path class="id" d="M76.3031,86.8511c-.5546-.5766-2.0483-2.7291-2.3015-2.9672-.2566-.2362-.9748-2.0632-1.4453-2.3125a5.175,5.175,0,0,1-1.0558-.9022s-1.6326-1.9293-1.8214-1.8009c-.1869.1284-.253.2753-.32,1.4882-.04.748.987,1.2522,1,1.1741a1.7574,1.7574,0,0,0,.8847,1.3952,3.28,3.28,0,0,0,.0968,2.3032l-.7712,3.7059s1.5656.3088,1.9144.08a9.2817,9.2817,0,0,1,1.12,1.3188s.7106-.8687,1.4669-1.8435c.4363-.562.8855-1.1739,1.2326-1.6391"/><path class="e" d="M62.1762,24.4023c10.3159,5.8564,18.1908,7.2813,30.53,2.8426,2.01,13.1658,1.7143,24.9941-1.9451,36.3294l-28.8627-.2065Z"/><path class="d" d="M62.1594,26.56c9.3708,5.7428,19.3535,6.8144,29.008,3.2053,1.3291,11.4172,1.0418,22.9274-2.6139,33.7919l-26.6554-.1917Z"/><path class="i" d="M61.9632,54.06,82.8384,31.7a42.0074,42.0074,0,0,0,8.329-1.9367c.2949,2.3162.5423,4.7384.6269,7.261l-24.6378,26.38-5.2584-.0371Z"/><path class="ie" d="M77.6777,40.55l5.7858-.3256c.1564.0019.2623.1061.3638.3126a1.1365,1.1365,0,0,0,1.0455.64c.8418.0057,1.4307-.9319,1.1664-1.092-.3143-.1636-.3665.627-1.1645.6215-.8363-.0057-.775-1.0009-1.2512-.9525l-5.942-.0932.0288-3.8417c-.0436-1.1068-.827-2.5394-1.2445-2.543a3.5522,3.5522,0,0,0-1.3292,2.5245l-.027,3.8417-5.3876.013c-.5237-.0558-.48.94-1.2168.9338-.84-.0055-.8864-.7961-1.2064-.638-.26.1562.3126,1.1032,1.1506,1.1107a1.2464,1.2464,0,0,0,1.052-.627.3923.3923,0,0,1,.32-.3069l5.2826.4054-.1,14.1408a.8034.8034,0,0,0,.7766.7963l1.0019.0074a.8084.8084,0,0,0,.7925-.7851Z"/><path class="if" d="M76.1131,60.4693c.3182-.2605.6346-.4169.74-.2568a.4677.4677,0,0,1-.3182.7311c-.4762.1061-.3646-.37-.4214-.4743"/><path class="if" d="M75.5952,59.6229c.2649-.4169,1.3217-.6717,1.6343-.83a.6768.6768,0,0,1-.4243,1.1051c-.4762.0446-.5831.3628-.7412.3628a.4255.4255,0,0,1-.4727-.2176.6079.6079,0,0,1,.0039-.42"/><path class="if" d="M75.4426,58.4116a7.1251,7.1251,0,0,1,1.7979-.8279.6666.6666,0,0,1-.22,1.1032,7.9968,7.9968,0,0,0-1.3207.6214c-.3136.2605-.5731-.5282-.2568-.8967"/><path class="if" d="M75.2955,57.2023a21.5038,21.5038,0,0,1,2.1144-.88.6169.6169,0,0,1-.1181,1.0512,8.9823,8.9823,0,0,0-1.6856.6734c-.32.2065-.625-.532-.3107-.8447"/><path class="if" d="M81.7343,54.358l5.4659.039s.1423,2.4165-2.6975,2.3961c-2.8446-.02-2.7684-2.4351-2.7684-2.4351"/><polygon class="if" points="84.407 40.599 81.734 54.358 81.984 54.358 84.616 40.705 84.407 40.599"/><polygon class="if" points="85.203 40.604 87.157 54.395 86.91 54.395 84.994 40.707 85.203 40.604"/><path class="if" d="M65.4105,54.2408l5.4638.0408s.1442,2.4148-2.6975,2.3963c-2.8444-.0187-2.7663-2.4371-2.7663-2.4371"/><polygon class="if" points="68.082 40.483 65.411 54.241 65.657 54.243 68.289 40.588 68.082 40.483"/><polygon class="if" points="68.878 40.489 70.831 54.28 70.585 54.278 68.669 40.589 68.878 40.489"/><path class="ig" d="M76.4658,33.2762,76.31,55.4741s-1.3161.1917-1.3106-.4334c.0036-.6233.1394-19.4167.1394-19.4167s.5712-2.2158,1.3275-2.3478"/><path class="if" d="M77.41,56.1662c0-.0539-2.0557.8241-2.0538.7182-.16-.1583-.16-.3665.0036-.6791-.0566-.1079-.1059-.1637-.16-.2643-.8912-.4259-1.3107-.59-1.6168-1.22-.2121-.4744.0606-1.3675.5823-1.3655a.3683.3683,0,0,1-.0055.7366c-.0493-.0017-.1032-.05-.2074-.1059.0984.9468,1.4649,1.1162,2.4212-.2456.8325,1.3747,2.7263,1.2817,2.3124.173a.5273.5273,0,0,1-.3731.2065.3924.3924,0,0,1-.3617-.3684.4457.4457,0,0,1,.3675-.3665,1.0707,1.0707,0,0,1,.7812,1.531,2.3664,2.3664,0,0,1-1.6372,1.0419c0,.0484-.0529.1545-.0529.2084"/><path class="ih" d="M49.1843,34.184l.907-.1879-.9051-.1952.84-.374-.9367.0316.6947-.6065-.8761.281.5014-.7721-.7451.5117.253-.8876-.602.6753.0309-.93-.4271.8243a.0814.0814,0,0,1-.02-.0019l.0055-.72.2513.0017.0017-.2659-.2492-.0019V31.308l-.2594-.0019-.0019.2585-.2726-.0017-.0019.2659.2726.0019-.0038.72a.24.24,0,0,0-.04.0038l-.4231-.8334.0539.9226-.6437-.72.3274.8911-.0158.0111-.7673-.4818.4612.7666-.8445-.2661.6557.6008L45.5,33.39l.8215.3888-.9015.1842.9144.2326.0019.0093-.8782.38.9434-.0558-.6763.61.8912-.2865-.4875.774.7757-.4911.0019.0017-.3052.8892.7053-.6844a1.403,1.403,0,0,0,.4362.0724,1.45,1.45,0,0,0,.478-.08l.7024.7087-.3043-.9209.7963.534-.5524-.77.9254.2827-.7292-.6008.9451.0074Z"/><path class="b" d="M49.8067,37.5178c-.0894-.1879-.253-.4614-.4252-.7386.0215-.1879.0065-.45-.2111-.4483a.3251.3251,0,0,1-.0148-.1823.6187.6187,0,0,0,.091-.18c-.0419-.0168-.0148-.0987-.0148-.0987l.1674-.3888-.3237.1229-.1284-.2755-.1786.2549-.2706-.1078.0381.1339a.6438.6438,0,0,0-.2345-.0409c.0633-.0187.0894-.1582.1-.21a8.6825,8.6825,0,0,0-.1926-1.1868,2.3238,2.3238,0,0,1,.3088-.4279.5417.5417,0,0,0-.2633.0595.42.42,0,0,0-.0762-.1749.9592.9592,0,0,0-.2233.2177.2758.2758,0,0,0-.0929-.2735c.0891-.253-.1052-.2882-.1052-.2882s-.1916.0335-.1061.2865a.2808.2808,0,0,0-.0994.2714,1.0828,1.0828,0,0,0-.2149-.2213.4073.4073,0,0,0-.0819.1749.53.53,0,0,0-.2633-.0614,2.2273,2.2273,0,0,1,.3033.4317,8.8737,8.8737,0,0,0-.21,1.1832c.01.052.0326.1915.0976.21a.532.532,0,0,0-.493.26c-.1431.2271-.81,1.2132-1.0408,1.6688-.2307.454-2.23,4.1078-2.23,4.1078s.1636.22.3756.16c.0168.2215.1555.2306.3043.1693.0177.2643.1926.2827.3069.2121a.2254.2254,0,0,0,.3312.1619c.0614.2455.29.16.3506.1339a.2646.2646,0,0,0,.4038.1433c.1637.1935.2176.1581.3414.1078a.2745.2745,0,0,0,.3766.0912.2879.2879,0,0,0,.3685.0429.3234.3234,0,0,0,.3692.052c.1367.1562.3851.0391.3851.0391a.9394.9394,0,0,0,.358.0855.93.93,0,0,0,.362-.08s.2417.119.385-.0334a.3219.3219,0,0,0,.3693-.0483.284.284,0,0,0,.3675-.0374A.2729.2729,0,0,0,49.55,42.71c.1236.0539.1768.0893.3423-.1023a.2651.2651,0,0,0,.4056-.1377c.0633.026.2882.1154.3524-.1283a.2271.2271,0,0,0,.334-.1564c.1145.0707.2894.0541.3107-.2082.1461.0614.2875.0539.3061-.1657.21.0651.3776-.1543.3776-.1543s-1.9469-3.6817-2.1719-4.1394"/><path class="ii" d="M49.8848,42.6171c-.0838-.0522-.2168-.1394-.1313-.2865-.1962-.1191-.0743-.385-.0743-.385a.3468.3468,0,0,1-.0438-.3852.3083.3083,0,0,1-.0855-.4669.3193.3193,0,0,1-.0633-.4576.2834.2834,0,0,1-.0781-.441.2805.2805,0,0,1-.0651-.4372.3022.3022,0,0,1-.093-.4614c-.0606-.0427-.2855-.32-.0874-.4873a.338.338,0,0,1-.08-.4614.2892.2892,0,0,1-.0838-.4168c-.0837-.0168-.1618-.2995-.0743-.4a.27.27,0,0,1-.162-.2846c-.2213.0149-.21-.2568-.21-.2568s-.1974-.028-.1749-.3311a.2148.2148,0,0,1-.1619-.2865.34.34,0,0,1-.1581-.3088.4513.4513,0,0,1,.0019-.4671.9526.9526,0,0,1-.6308-.0036.4443.4443,0,0,1-.0019.465.3374.3374,0,0,1-.16.3071.2178.2178,0,0,1-.1675.2865c.0185.3031-.1813.3255-.1813.3255s.0082.2715-.2094.2566c-.0038.1582-.0912.27-.1674.2791.0855.1042.0019.3852-.08.4a.294.294,0,0,1-.0894.4166.3377.3377,0,0,1-.0884.46c.1964.1713-.0343.4446-.0948.4856a.3041.3041,0,0,1-.1014.4614.2784.2784,0,0,1-.0678.4353.2821.2821,0,0,1-.0865.4391.3228.3228,0,0,1-.07.4595.3041.3041,0,0,1-.09.4633.3525.3525,0,0,1-.0494.385s.1162.2678-.08.3833c.0819.1526-.0548.2362-.14.2882.1543.1787.2075.1471.3311.0949a.2725.2725,0,0,0,.3749.0912.2856.2856,0,0,0,.3683.0429.3209.3209,0,0,0,.3675.052c.1386.1562.3869.0391.3869.0391a.9518.9518,0,0,0,.3581.0855.931.931,0,0,0,.362-.08s.2436.121.385-.0334a.3219.3219,0,0,0,.3693-.0483.2833.2833,0,0,0,.3673-.0374.2753.2753,0,0,0,.38-.0855c.1181.0522.173.0874.3311-.093"/><path class="ij" d="M48.0766,34.1988l-.6457-.0055s-.332,1.2762.3144,1.3265c.6437-.041.3313-1.321.3313-1.321"/><path class="b" d="M456.4022,32.5878V20.4025h5.1811a8.8544,8.8544,0,0,1,2.837.3273,2.798,2.798,0,0,1,1.4177,1.1683,3.5282,3.5282,0,0,1,.5311,1.9218,3.2548,3.2548,0,0,1-.8073,2.2622,3.8573,3.8573,0,0,1-2.41,1.1274,5.6307,5.6307,0,0,1,1.3181,1.0232,13.9658,13.9658,0,0,1,1.4036,1.9776l1.4846,2.3775h-2.9412l-1.7813-2.6511a17.3477,17.3477,0,0,0-1.2939-1.7934,1.8682,1.8682,0,0,0-.7422-.504,3.9116,3.9116,0,0,0-1.239-.14h-.4967v5.0882Zm2.4613-7.0323h1.8231a9.2867,9.2867,0,0,0,2.2055-.1506,1.3339,1.3339,0,0,0,.694-.5153,1.5847,1.5847,0,0,0,.2472-.9116,1.4765,1.4765,0,0,0-.3273-.9952,1.5048,1.5048,0,0,0-.9283-.4781c-.1981-.0261-.7963-.041-1.7943-.041h-1.92Z"/><path class="b" d="M471.9828,26.9639A10.7595,10.7595,0,1,1,461.2233,16.2a10.7587,10.7587,0,0,1,10.76,10.7641m-10.76,9.0879a9.0916,9.0916,0,1,0-9.0908-9.0879,9.1,9.1,0,0,0,9.0908,9.0879"/><path class="b" d="M202.7147,161.2493l-4.8408-14.83h2.0683l2.3106,7.3057c.6377,2.0019,1.1885,3.8056,1.584,5.5439h.0439c.418-1.7158,1.0342-3.5859,1.6944-5.5225l2.5087-7.3271H210.13l-5.3027,14.83Z"/><path class="b" d="M213.4735,147.6077a1.1992,1.1992,0,0,1-2.3984,0,1.1792,1.1792,0,0,1,1.21-1.21A1.1494,1.1494,0,0,1,213.4735,147.6077Zm-2.1563,13.6416V150.6h1.9356v10.6494Z"/><path class="b" d="M225.6405,150.6c-.0449.77-.0889,1.6279-.0889,2.9267v6.1826c0,2.4424-.4834,3.9385-1.5176,4.8623a5.6424,5.6424,0,0,1-3.873,1.2764,6.867,6.867,0,0,1-3.542-.88l.4834-1.4746a6.0035,6.0035,0,0,0,3.125.8369c1.9805,0,3.4326-1.0342,3.4326-3.7187v-1.1885h-.0439a3.8026,3.8026,0,0,1-3.3887,1.7822c-2.6406,0-4.5332-2.2441-4.5332-5.1924,0-3.6084,2.3545-5.6552,4.7969-5.6552a3.5416,3.5416,0,0,1,3.3222,1.8486h.045l.0878-1.6064Zm-2.0029,4.2031a2.831,2.831,0,0,0-2.8165-2.9268c-1.8476,0-3.1679,1.5625-3.1679,4.0264,0,2.0908,1.0556,3.8291,3.1465,3.8291a2.83,2.83,0,0,0,2.6836-1.98,3.3608,3.3608,0,0,0,.1543-1.0342Z"/><path class="b" d="M230.787,147.6077a1.1993,1.1993,0,0,1-2.3985,0,1.1793,1.1793,0,0,1,1.21-1.21A1.1494,1.1494,0,0,1,230.787,147.6077Zm-2.1563,13.6416V150.6h1.9356v10.6494Z"/><path class="b" d="M233.7782,145.6272h1.9365v15.6221h-1.9365Z"/><path class="b" d="M244.867,161.2493l-.1542-1.3418h-.0655a3.9682,3.9682,0,0,1-3.2568,1.584,3.0347,3.0347,0,0,1-3.2569-3.0586c0-2.5743,2.2891-3.9825,6.4034-3.96v-.2207a2.1954,2.1954,0,0,0-2.4209-2.4639,5.3026,5.3026,0,0,0-2.7715.792l-.44-1.2763a6.6058,6.6058,0,0,1,3.498-.9463c3.2568,0,4.0488,2.2226,4.0488,4.3564v3.9834a15.01,15.01,0,0,0,.1758,2.5518Zm-.2861-5.4346c-2.1123-.0439-4.5107.33-4.5107,2.3984a1.7138,1.7138,0,0,0,1.8261,1.8487,2.65,2.65,0,0,0,2.5743-1.7823,2.0151,2.0151,0,0,0,.11-.6162Z"/><path class="b" d="M258.7713,145.6272v12.8721c0,.9463.0225,2.0244.0879,2.75H257.121l-.0879-1.8477h-.044a3.94,3.94,0,0,1-3.6308,2.09c-2.5743,0-4.5547-2.1778-4.5547-5.4131-.0215-3.542,2.1787-5.7207,4.7754-5.7207a3.5591,3.5591,0,0,1,3.2119,1.6289h.0439v-6.3594Zm-1.9365,9.3076a3.4,3.4,0,0,0-.0879-.8144,2.8468,2.8468,0,0,0-2.7939-2.2442c-2.0029,0-3.19,1.76-3.19,4.1143,0,2.1562,1.0556,3.9385,3.1464,3.9385a2.9094,2.9094,0,0,0,2.8379-2.31,3.352,3.352,0,0,0,.0879-.8369Z"/><path class="b" d="M271.619,155.8372c0,3.9384-2.7285,5.6543-5.3027,5.6543-2.8819,0-5.1045-2.1123-5.1045-5.4786,0-3.5644,2.332-5.6552,5.28-5.6552C269.5506,150.3577,271.619,152.58,271.619,155.8372Zm-8.4492.1093c0,2.333,1.3428,4.0928,3.2344,4.0928,1.8486,0,3.2343-1.7383,3.2343-4.1367,0-1.8037-.9013-4.0928-3.19-4.0928S263.17,153.9221,263.17,155.9465Z"/><path class="b" d="M278.7235,154.0764c0-1.3642-.044-2.4638-.0879-3.4765h1.7383l.0879,1.8261h.0439a4.1867,4.1867,0,0,1,3.7842-2.0683c2.5752,0,4.5107,2.1787,4.5107,5.4131,0,3.8281-2.332,5.7207-4.8408,5.7207a3.7359,3.7359,0,0,1-3.2783-1.6719h-.0439v5.7861h-1.9141Zm1.9141,2.8389a4.37,4.37,0,0,0,.0878.792,2.9882,2.9882,0,0,0,2.9043,2.2656c2.0469,0,3.2354-1.6719,3.2354-4.1143,0-2.1337-1.1231-3.9609-3.169-3.9609a3.09,3.09,0,0,0-2.9267,2.3984,3.1715,3.1715,0,0,0-.1318.793Z"/><path class="b" d="M300.8788,155.8372c0,3.9384-2.7285,5.6543-5.3028,5.6543-2.8828,0-5.1054-2.1123-5.1054-5.4786,0-3.5644,2.333-5.6552,5.2812-5.6552C298.81,150.3577,300.8788,152.58,300.8788,155.8372Zm-8.4493.1093c0,2.333,1.3418,4.0928,3.2344,4.0928,1.8477,0,3.2344-1.7383,3.2344-4.1367,0-1.8037-.9023-4.0928-3.19-4.0928S292.43,153.9221,292.43,155.9465Z"/><path class="b" d="M303.3192,153.9221c0-1.2539-.0225-2.332-.0879-3.3222h1.6943l.0655,2.0908h.0888a3.1939,3.1939,0,0,1,2.9483-2.333,2.0922,2.0922,0,0,1,.55.0664V152.25a2.9178,2.9178,0,0,0-.66-.0664,2.717,2.717,0,0,0-2.5967,2.4864,5.47,5.47,0,0,0-.0878.9023v5.6768h-1.9141Z"/><path class="b" d="M327.74,154.7366c-.1094-2.0684-.2412-4.5547-.22-6.4033h-.0664c-.5059,1.7382-1.1221,3.5869-1.87,5.6328l-2.6181,7.1953h-1.4522l-2.3984-7.0625c-.7041-2.0908-1.2979-4.0049-1.7158-5.7656h-.044c-.0439,1.8486-.1543,4.3349-.2861,6.5576l-.3965,6.3584h-1.8262l1.0342-14.83h2.4424l2.53,7.1728c.6162,1.8262,1.122,3.4551,1.4961,4.9952h.0664c.374-1.4961.9023-3.1241,1.5625-4.9952l2.64-7.1728H329.06l.9248,14.83h-1.8711Z"/><path class="b" d="M335.285,147.6077a1.1992,1.1992,0,0,1-2.3984,0,1.1792,1.1792,0,0,1,1.21-1.21A1.1494,1.1494,0,0,1,335.285,147.6077Zm-2.1562,13.6416V150.6h1.9355v10.6494Z"/><path class="b" d="M338.2762,153.4827c0-1.1006-.0224-2.003-.0879-2.8828h1.7159l.11,1.7607h.044a3.9163,3.9163,0,0,1,3.5205-2.0029c1.4746,0,3.7627.8808,3.7627,4.5332v6.3584h-1.9366v-6.1387c0-1.7158-.6377-3.1465-2.4638-3.1465a2.7515,2.7515,0,0,0-2.5967,1.9805,2.7894,2.7894,0,0,0-.1318.9023v6.4024h-1.9366Z"/><path class="b" d="M351.5643,156.2766a3.4113,3.4113,0,0,0,3.6524,3.6963,6.9891,6.9891,0,0,0,2.9482-.55l.33,1.3867a8.6282,8.6282,0,0,1-3.542.66c-3.2783,0-5.2373-2.1563-5.2373-5.3692s1.8926-5.7431,4.9951-5.7431c3.4766,0,4.4,3.0586,4.4,5.0166a7.4508,7.4508,0,0,1-.0654.9023Zm5.6768-1.3857c.0224-1.2324-.5059-3.1465-2.6846-3.1465-1.958,0-2.8164,1.8037-2.97,3.1465Z"/><path class="b" d="M370.7049,145.6272v12.8721c0,.9463.0225,2.0244.0879,2.75h-1.7383l-.0878-1.8477h-.044a3.94,3.94,0,0,1-3.6308,2.09c-2.5743,0-4.5547-2.1778-4.5547-5.4131-.0215-3.542,2.1787-5.7207,4.7754-5.7207a3.5591,3.5591,0,0,1,3.2119,1.6289h.0439v-6.3594Zm-1.9365,9.3076a3.4,3.4,0,0,0-.0879-.8144,2.8468,2.8468,0,0,0-2.7939-2.2442c-2.003,0-3.19,1.76-3.19,4.1143,0,2.1562,1.0557,3.9385,3.1465,3.9385a2.9094,2.9094,0,0,0,2.8379-2.31,3.352,3.352,0,0,0,.0879-.8369Z"/><path class="b" d="M382.827,158.345c0,1.1006.0225,2.0683.0879,2.9043h-1.7158l-.11-1.7383h-.0439a4.0057,4.0057,0,0,1-3.5205,1.9805c-1.6719,0-3.6748-.9239-3.6748-4.6651V150.6h1.9365v5.8974c0,2.0235.6162,3.3877,2.3769,3.3877a2.7227,2.7227,0,0,0,2.7276-2.75V150.6h1.9365Z"/><path class="b" d="M393.6288,160.8538a7.14,7.14,0,0,1-3.0586.6162,5.06,5.06,0,0,1-5.3028-5.4356,5.4106,5.4106,0,0,1,5.7207-5.6543,6.48,6.48,0,0,1,2.6846.55l-.44,1.4961a4.4926,4.4926,0,0,0-2.2442-.5058c-2.4423,0-3.7627,1.8047-3.7627,4.0263a3.6508,3.6508,0,0,0,3.6963,3.9825,5.5149,5.5149,0,0,0,2.377-.5274Z"/><path class="b" d="M401.79,161.2493l-.1533-1.3418H401.57a3.9669,3.9669,0,0,1-3.2569,1.584,3.0338,3.0338,0,0,1-3.2558-3.0586c0-2.5743,2.2881-3.9825,6.4023-3.96v-.2207a2.1946,2.1946,0,0,0-2.42-2.4639,5.304,5.304,0,0,0-2.7725.792l-.44-1.2763a6.61,6.61,0,0,1,3.499-.9463c3.2569,0,4.0489,2.2226,4.0489,4.3564v3.9834a15.011,15.011,0,0,0,.1757,2.5518Zm-.2861-5.4346c-2.1123-.0439-4.51.33-4.51,2.3984a1.7138,1.7138,0,0,0,1.8262,1.8487,2.6513,2.6513,0,0,0,2.5742-1.7823,2.0441,2.0441,0,0,0,.1094-.6162Z"/><path class="b" d="M414.0887,160.8538a7.14,7.14,0,0,1-3.0586.6162,5.06,5.06,0,0,1-5.3027-5.4356,5.4106,5.4106,0,0,1,5.7207-5.6543,6.4808,6.4808,0,0,1,2.6846.55l-.44,1.4961a4.4925,4.4925,0,0,0-2.2441-.5058c-2.4424,0-3.7627,1.8047-3.7627,4.0263a3.6508,3.6508,0,0,0,3.6963,3.9825,5.5143,5.5143,0,0,0,2.3769-.5274Z"/><path class="b" d="M418.51,147.6077a1.1992,1.1992,0,0,1-2.3984,0,1.1792,1.1792,0,0,1,1.21-1.21A1.1489,1.1489,0,0,1,418.51,147.6077Zm-2.1562,13.6416V150.6H418.29v10.6494Z"/><path class="b" d="M431.1385,155.8372c0,3.9384-2.7285,5.6543-5.3027,5.6543-2.8818,0-5.1045-2.1123-5.1045-5.4786,0-3.5644,2.332-5.6552,5.28-5.6552C429.07,150.3577,431.1385,152.58,431.1385,155.8372Zm-8.4492.1093c0,2.333,1.3428,4.0928,3.2344,4.0928,1.8486,0,3.2344-1.7383,3.2344-4.1367,0-1.8037-.9014-4.0928-3.19-4.0928S422.6893,153.9221,422.6893,155.9465Zm6.1387-9.9453-2.6836,3.1465h-1.3867l1.9365-3.1465Z"/><path class="b" d="M433.579,153.4827c0-1.1006-.0225-2.003-.0879-2.8828h1.7158l.11,1.7607h.044a3.9163,3.9163,0,0,1,3.5205-2.0029c1.4746,0,3.7627.8808,3.7627,4.5332v6.3584h-1.9365v-6.1387c0-1.7158-.6377-3.1465-2.4639-3.1465a2.7515,2.7515,0,0,0-2.5967,1.9805,2.7894,2.7894,0,0,0-.1318.9023v6.4024H433.579Z"/></svg>