<svg xmlns="http://www.w3.org/2000/svg" xmlns:xlink="http://www.w3.org/1999/xlink" viewBox="0 0 280.66 82.45"><defs><style>.a{fill:none;clip-rule:evenodd;}.b,.d{fill:#fff;}.c{fill:#0aa3a4;}.c,.d,.e,.f,.g,.hm,.hn,.ho,.hs,.ht,.hu,.hv,.hw,.hx,.hy,.i,.j,.k,.l{fill-rule:evenodd;}.e,.hz{fill:#fabd04;}.f,.hr{fill:#b3c6d1;}.g{fill:#ffdb04;}.h{fill:#000100;}.i{fill:#0c5da7;}.hq,.j{fill:#db0d15;}.k{fill:#da0d15;}.l{fill:#3b3c3c;}.m{clip-path:url(#a);}.n{fill:#fdffff;}.o{fill:#fdfdfd;}.p{fill:#fcfcfc;}.q{fill:#fbfbfb;}.r{fill:#fafafa;}.s{fill:#f9f9f9;}.t{fill:#f9f8f8;}.u{fill:#f8f7f8;}.v{fill:#f7f6f7;}.w{fill:#f6f5f6;}.x{fill:#f5f4f5;}.y{fill:#f4f3f3;}.z{fill:#f3f3f3;}.aa{fill:#f3f2f2;}.ab{fill:#f2f1f1;}.ac{fill:#f1f0f0;}.ad{fill:#f0eeef;}.ae{fill:#efedee;}.af{fill:#eeeded;}.ag{fill:#edecec;}.ah{fill:#edebeb;}.ai{fill:#eceaea;}.aj{fill:#ebe9e9;}.ak{fill:#eae8e8;}.al{fill:#e9e7e7;}.am{fill:#e8e6e6;}.an{fill:#e7e5e5;}.ao{fill:#e6e4e4;}.ap{fill:#e6e3e3;}.aq{fill:#e4e2e2;}.ar{fill:#e3e1e2;}.as{fill:#e2e0e0;}.at{fill:#e2dfdf;}.au{fill:#e1dede;}.av{fill:#e0dddd;}.aw{fill:#dfdcdc;}.ax{fill:#dedbdb;}.ay{fill:#dddadb;}.az{fill:#dcd9d9;}.ba{fill:#dcd8d8;}.bb{fill:#dbd7d7;}.bc{fill:#d9d6d6;}.bd{fill:#d8d5d5;}.be{fill:#d8d4d4;}.bf{fill:#d7d3d3;}.bg{fill:#d6d2d2;}.bh{fill:#d5d1d1;}.bi{fill:#d4d0d0;}.bj{fill:#d3cfcf;}.bk{fill:#d3cece;}.bl{fill:#d2cdcd;}.bm{fill:#d1cccc;}.bn{fill:#cfcbca;}.bo{fill:#cecaca;}.bp{fill:#cdc9c9;}.bq{fill:#ccc8c8;}.br{fill:#cbc8c8;}.bs{fill:#cac6c7;}.bt{fill:#c9c5c6;}.bu{fill:#c8c4c5;}.bv{fill:#c7c3c4;}.bw{fill:#c6c2c3;}.bx{fill:#c5c1c1;}.by{fill:#c4c0c1;}.bz{fill:#c3bfc0;}.ca{fill:#c1bebf;}.cb{fill:#c1bdbe;}.cc{fill:#bfbcbd;}.cd{fill:#bebbbc;}.ce{fill:#bebabc;}.cf{fill:#bcb9bb;}.cg{fill:#bbb8ba;}.ch{fill:#bab7b8;}.ci{fill:#b9b6b8;}.cj{fill:#b8b5b7;}.ck{fill:#b7b4b6;}.cl{fill:#b6b3b5;}.cm{fill:#b5b2b4;}.cn{fill:#b4b1b3;}.co{fill:#b3b0b2;}.cp{fill:#b1afb1;}.cq{fill:#b1aeb1;}.cr{fill:#afadaf;}.cs{fill:#aeacaf;}.ct{fill:#aeabae;}.cu{fill:#acaaad;}.cv{fill:#abaaac;}.cw{fill:#aaa8ab;}.cx{fill:#a9a8ab;}.cy{fill:#a8a7aa;}.cz{fill:#a7a6a9;}.da{fill:#a6a5a8;}.db{fill:#a4a3a6;}.dc{clip-path:url(#b);}.dd{clip-path:url(#c);}.de{fill:#eae8e7;}.df{fill:#e8e7e7;}.dg{fill:#e1dfdf;}.dh{fill:#e0dede;}.di{fill:#dfdddd;}.dj{fill:#dddbdb;}.dk{fill:#dcdada;}.dl{fill:#dbd9d9;}.dm{fill:#dad8d8;}.dn{fill:#d9d8d7;}.do{fill:#d8d6d6;}.dp{fill:#d7d5d5;}.dq{fill:#d6d4d4;}.dr{fill:#d5d4d4;}.ds{fill:#d5d3d3;}.dt{fill:#d4d2d2;}.du{fill:#d2d0d0;}.dv{fill:#d1cfcf;}.dw{fill:#d0cece;}.dx{fill:#cfcece;}.dy{fill:#cecdcd;}.dz{fill:#cecccc;}.ea{fill:#cccacb;}.eb{fill:#cbcaca;}.ec{fill:#cbc9c9;}.ed{fill:#cac8c8;}.ee{fill:#c9c7c7;}.ef{fill:#c8c7c7;}.eg{fill:#c7c5c5;}.eh{fill:#c6c4c4;}.ei{fill:#c5c3c4;}.ej{fill:#c4c3c3;}.ek{fill:#c4c2c2;}.el{fill:#c3c1c1;}.em{fill:silver;}.en{fill:#c0bfbf;}.eo{fill:#bfbebe;}.ep{fill:#bdbcbd;}.eq{fill:#bcbcbc;}.er{fill:#bbbabb;}.es{fill:#bab9ba;}.et{fill:#b9b8b9;}.eu{fill:#b8b7b8;}.ev{fill:#b6b5b7;}.ew{fill:#b6b4b6;}.ex{fill:#b4b3b5;}.ey{fill:#b3b2b4;}.ez{fill:#b2b1b3;}.fa{fill:#b1b0b2;}.fb{fill:#b0afb0;}.fc{fill:#afaeb0;}.fd{fill:#adacae;}.fe{fill:#abaaad;}.ff{fill:#aba9ac;}.fg{fill:#a4a2a6;}.fh{fill:#a3a1a5;}.fi{fill:#a3a1a3;}.fj{fill:#a19fa2;}.fk{fill:#a19fa1;}.fl{fill:#a09e9f;}.fm{fill:#9f9d9f;}.fn{fill:#9f9c9e;}.fo{fill:#9e9b9c;}.fp{fill:#9d9a9b;}.fq{fill:#9d999a;}.fr{fill:#9c9898;}.fs{fill:#9b9797;}.ft{fill:#9a9697;}.fu{fill:#9a9696;}.fv{fill:#999594;}.fw{fill:#989393;}.fx{fill:#989392;}.fy{fill:#979291;}.fz{fill:#969190;}.ga{fill:#96908f;}.gb{fill:#958f8d;}.gc{fill:#948e8c;}.gd{fill:#948d8b;}.ge{fill:#928d8a;}.gf{fill:#928c89;}.gg{fill:#928b88;}.gh{fill:#908a87;}.gi{fill:#908986;}.gj{fill:#908885;}.gk{fill:#8f8784;}.gl{fill:#8e8783;}.gm{fill:#8d8682;}.gn{fill:#8d8581;}.go{fill:#8c8480;}.gp{fill:#8b837f;}.gq{fill:#8b827e;}.gr{fill:#8a817d;}.gs{fill:#89807c;}.gt{fill:#88807a;}.gu{fill:#877f79;}.gv{fill:#877e78;}.gw{fill:#867d77;}.gx{fill:#857c76;}.gy{fill:#857b75;}.gz{fill:#837b74;}.ha{fill:#837a73;}.hb{fill:#827972;}.hc{fill:#817871;}.hd{fill:#817770;}.he{fill:#80776f;}.hf{fill:#80756e;}.hg{fill:#80756d;}.hh{fill:#7f746c;}.hi{fill:#7e736b;}.hj{fill:#7e726a;}.hk{fill:#7d7169;}.hl{fill:#7c7067;}.hm{fill:#9a9ea0;}.hn{fill:#b8dbf4;}.ho{fill:#7bc5b6;}.hp,.hx{fill:#c9a56a;}.hs{fill:#1c3f5e;}.ht{fill:#f9b20b;}.hu{fill:#ac1917;}.hv{fill:#ffd86f;}.hw{fill:#c7c5c4;}.hy{fill:#a6a6a5;}.ia{fill:#c7c7cd;}.ib{fill:#f7c9bd;}</style><clipPath id="a"><path class="a" d="M31,44.2c-1.67-.51-3.83,1.34-3.83,1.34L30.25,52s1.9-1.81,3.76-1.55Z"/></clipPath><clipPath id="b"><path class="a" d="M34.49,42.75s-3.12.13-3.53,1.45l3,6.27h0C35,49.09,37.77,49,37.77,49Z"/></clipPath><clipPath id="c"><path class="a" d="M30.32,52.46a6.06,6.06,0,0,1,3.86-1.58,4.73,4.73,0,0,1,3.59-1.36V49s-2.5-.12-3.76,1.43A5.48,5.48,0,0,0,30.25,52Z"/></clipPath></defs><title>logo_udem</title><path class="b" d="M96.33,78.7a6.5,6.5,0,0,1-2.7.47c-3.33,0-5.35-2.08-5.35-5.27a5.26,5.26,0,0,1,5.59-5.53,5.89,5.89,0,0,1,2.55.47L96,70.36A5,5,0,0,0,94,70a3.49,3.49,0,0,0-3.67,3.86,3.45,3.45,0,0,0,3.66,3.78A5.43,5.43,0,0,0,96,77.2Z"/><path class="b" d="M104.22,69.33a1.07,1.07,0,1,1-1.07-1A1,1,0,0,1,104.22,69.33Zm-2,9.69V71.45h1.92V79Z"/><path class="b" d="M111.85,75.77a2.05,2.05,0,0,0,2.33,2,5.62,5.62,0,0,0,2.1-.34l.28,1.32a7,7,0,0,1-2.64.47,3.58,3.58,0,0,1-3.9-3.82c0-2.1,1.27-4.07,3.7-4.07S117,73.3,117,75a4.86,4.86,0,0,1-.06.81Zm3.33-1.34a1.63,1.63,0,0,0-1.57-1.85,1.87,1.87,0,0,0-1.76,1.85Z"/><path class="b" d="M122.87,73.7c0-.87,0-1.6-.06-2.25h1.68l.09,1.13h0a2.72,2.72,0,0,1,2.41-1.3c1.32,0,2.68.85,2.68,3.24V79h-1.91V74.74c0-1.09-.4-1.91-1.44-1.91A1.6,1.6,0,0,0,124.88,74a1.73,1.73,0,0,0-.08.62V79h-1.93Z"/><path class="b" d="M141.66,78.78a5.51,5.51,0,0,1-2.15.39,3.64,3.64,0,0,1-3.9-3.85,3.92,3.92,0,0,1,4.22-4,4.78,4.78,0,0,1,1.84.35l-.34,1.43a3.36,3.36,0,0,0-1.44-.29,2.45,2.45,0,0,0,0,4.89,3.78,3.78,0,0,0,1.5-.29Z"/><path class="b" d="M149.46,69.33a1.08,1.08,0,0,1-2.15,0,1.08,1.08,0,0,1,2.15,0Zm-2,9.69V71.45h1.93V79Z"/><path class="b" d="M160,79l-.13-.84h-.05a2.79,2.79,0,0,1-2.23,1,2.25,2.25,0,0,1-2.38-2.26c0-1.91,1.69-2.87,4.49-2.86V74c0-.5-.2-1.32-1.54-1.32a4,4,0,0,0-2,.56l-.38-1.25a5.49,5.49,0,0,1,2.74-.66c2.42,0,3.12,1.53,3.12,3.18V77.2a11.91,11.91,0,0,0,.11,1.82Zm-.25-3.7c-1.35,0-2.65.26-2.65,1.41a1,1,0,0,0,1.09,1.09,1.55,1.55,0,0,0,1.49-1,1.32,1.32,0,0,0,.07-.42Z"/><path class="b" d="M176.73,71.45l1.37,4c.15.47.31,1,.42,1.48h0c.13-.44.27-1,.41-1.49l1.18-4h2l-1.89,5.16c-1.05,2.82-1.75,4.08-2.65,4.86a3.79,3.79,0,0,1-2,1l-.44-1.62a3.26,3.26,0,0,0,1.12-.52,3.36,3.36,0,0,0,1-1.2.77.77,0,0,0,.13-.34.89.89,0,0,0-.11-.38l-2.77-6.94Z"/><path class="b" d="M195.29,68.54h1.91v8.87h4.3V79h-6.21Z"/><path class="b" d="M209.26,69.33a1.08,1.08,0,1,1-1.08-1A1,1,0,0,1,209.26,69.33Zm-2,9.69V71.45h1.93V79Z"/><path class="b" d="M215.47,79c0-.52.06-1.36.06-2.13V68h1.92v4.51h0a2.73,2.73,0,0,1,2.42-1.21c1.85,0,3.17,1.53,3.16,3.83,0,2.72-1.73,4.08-3.44,4.08a2.6,2.6,0,0,1-2.39-1.31h0L217.1,79Zm2-3.13a2.15,2.15,0,0,0,0,.45,1.77,1.77,0,0,0,1.7,1.34c1.19,0,1.92-1,1.92-2.49,0-1.33-.63-2.42-1.91-2.42a1.78,1.78,0,0,0-1.69,1.4,2.34,2.34,0,0,0-.06.49Z"/><path class="b" d="M230.33,75.77c0,1.37,1.12,2,2.33,2a5.69,5.69,0,0,0,2.1-.34L235,78.7a7.07,7.07,0,0,1-2.65.47,3.58,3.58,0,0,1-3.9-3.82c0-2.1,1.28-4.07,3.7-4.07s3.27,2,3.27,3.68a3.82,3.82,0,0,1-.07.81Zm3.32-1.34a1.62,1.62,0,0,0-1.57-1.85,1.86,1.86,0,0,0-1.75,1.85Z"/><path class="b" d="M241.35,73.89c0-1,0-1.76-.07-2.44H243l.06,1.44h.06a2.25,2.25,0,0,1,2.07-1.61,2.15,2.15,0,0,1,.45,0v1.8a2.82,2.82,0,0,0-.56-.06,1.68,1.68,0,0,0-1.71,1.45,3.35,3.35,0,0,0-.06.59V79h-1.91Z"/><path class="b" d="M253.79,69.29v2.16h1.82v1.43h-1.82v3.34c0,.92.25,1.4,1,1.4a2.65,2.65,0,0,0,.75-.1l0,1.46a4.16,4.16,0,0,1-1.38.19,2.2,2.2,0,0,1-1.65-.62,3,3,0,0,1-.59-2.11V72.88h-1.09V71.45h1.09V69.74Z"/><path class="b" d="M265.65,79l-.13-.84h0a2.82,2.82,0,0,1-2.24,1,2.26,2.26,0,0,1-2.38-2.26c0-1.91,1.7-2.87,4.49-2.86V74c0-.5-.2-1.32-1.54-1.32a4,4,0,0,0-2,.56l-.37-1.25a5.45,5.45,0,0,1,2.73-.66c2.43,0,3.13,1.53,3.13,3.18V77.2a13.52,13.52,0,0,0,.1,1.82Zm-.25-3.7c-1.35,0-2.64.26-2.64,1.41a1,1,0,0,0,1.09,1.09,1.55,1.55,0,0,0,1.49-1,1.64,1.64,0,0,0,.06-.42Z"/><path class="b" d="M280.6,68v8.91c0,.77,0,1.61.06,2.13H279l-.08-1.2h0a2.71,2.71,0,0,1-2.47,1.37c-1.8,0-3.23-1.54-3.23-3.87,0-2.54,1.57-4,3.39-4a2.41,2.41,0,0,1,2.13,1h0V68Zm-1.91,6.62a2.92,2.92,0,0,0-.05-.5A1.68,1.68,0,0,0,277,72.75c-1.22,0-1.91,1.09-1.91,2.5s.69,2.4,1.9,2.4a1.7,1.7,0,0,0,1.65-1.35,2.53,2.53,0,0,0,.06-.56Z"/><path class="b" d="M87.72,8.53H93V23.75a8.6,8.6,0,0,0,.61,3.73c.62,1.39,2,2.09,4.09,2.09s3.44-.7,4.07-2.09a8.62,8.62,0,0,0,.6-3.73V8.53h5.27V23.77a12.74,12.74,0,0,1-1.23,6.15q-2.28,4-8.71,4t-8.74-4a12.86,12.86,0,0,1-1.22-6.15Z"/><path class="b" d="M127,16c1.2,1,1.81,2.63,1.81,4.93V33.32h-4.92V22.17A5.18,5.18,0,0,0,123.5,20a2.71,2.71,0,0,0-2.67-1.42,3.3,3.3,0,0,0-3.32,2.07,7,7,0,0,0-.47,2.79v9.93h-4.8V15h4.65v2.67a7.9,7.9,0,0,1,1.74-2,6,6,0,0,1,3.73-1.11A7,7,0,0,1,127,16"/><path class="b" d="M138.18,12.8h-4.86V8.37h4.86ZM133.32,15h4.86V33.32h-4.86Z"/><polygon class="b" points="154.12 14.98 159.26 14.98 152.64 33.32 147.59 33.32 141.01 14.98 146.4 14.98 150.22 28.51 154.12 14.98"/><path class="b" d="M173.93,15.36a7.44,7.44,0,0,1,3.17,2.71,9.11,9.11,0,0,1,1.46,3.79,23.68,23.68,0,0,1,.16,3.64H165.36a4.4,4.4,0,0,0,1.92,3.87,4.85,4.85,0,0,0,2.64.69,4,4,0,0,0,2.66-.84,4,4,0,0,0,1-1.27h4.9a6,6,0,0,1-1.78,3.32,8.91,8.91,0,0,1-6.9,2.67,10,10,0,0,1-6.46-2.25c-1.86-1.51-2.8-4-2.8-7.34,0-3.18.85-5.62,2.53-7.31a8.82,8.82,0,0,1,6.56-2.54,10.34,10.34,0,0,1,4.31.86m-7.17,4.14a5,5,0,0,0-1.28,2.84h8.26a4,4,0,0,0-1.28-2.9,4.18,4.18,0,0,0-2.84-1,3.8,3.8,0,0,0-2.86,1.05"/><path class="b" d="M191.32,14.56l.42,0v4.91l-.81-.07h-.57c-1.93,0-3.23.63-3.89,1.88a7.38,7.38,0,0,0-.55,3.27v8.76h-4.83V15h4.57v3.19a10.47,10.47,0,0,1,1.94-2.51,5.27,5.27,0,0,1,3.5-1.12h.22"/><path class="b" d="M198.26,27.47a3.23,3.23,0,0,0,.66,1.81c.6.64,1.7,1,3.32,1a5.07,5.07,0,0,0,2.25-.42,1.35,1.35,0,0,0,.84-1.26,1.36,1.36,0,0,0-.68-1.23,28,28,0,0,0-5-1.45,10.33,10.33,0,0,1-4.4-1.93,4.17,4.17,0,0,1-1.28-3.3,5.71,5.71,0,0,1,2-4.36,8,8,0,0,1,5.63-1.83,10.34,10.34,0,0,1,5.6,1.37,5.9,5.9,0,0,1,2.49,4.74h-4.8a2.72,2.72,0,0,0-.52-1.46,3.3,3.3,0,0,0-2.7-1,3.83,3.83,0,0,0-2.23.49,1.38,1.38,0,0,0-.67,1.14,1.27,1.27,0,0,0,.71,1.2,31.77,31.77,0,0,0,5,1.33,9,9,0,0,1,4.3,2,4.63,4.63,0,0,1,1.41,3.45,5.58,5.58,0,0,1-2,4.45c-1.35,1.15-3.45,1.72-6.28,1.72s-5-.61-6.39-1.82a5.93,5.93,0,0,1-2.07-4.65Z"/><path class="b" d="M218.63,12.8h-4.86V8.37h4.86ZM213.77,15h4.86V33.32h-4.86Z"/><path class="b" d="M233,15.28a5.83,5.83,0,0,1,2.1,2V8.56H240V33.32H235.3V30.78a5.95,5.95,0,0,1-5.6,3.11,6.81,6.81,0,0,1-5.41-2.6,10,10,0,0,1-2.19-6.67,11.46,11.46,0,0,1,2.16-7.38A7,7,0,0,1,230,14.55a5.91,5.91,0,0,1,3,.73m1.18,13.06a6.73,6.73,0,0,0,1.06-3.92c0-2.24-.57-3.85-1.7-4.81a3.7,3.7,0,0,0-2.43-.87A3.34,3.34,0,0,0,228,20.32a7.35,7.35,0,0,0-1,3.95,7.35,7.35,0,0,0,1,4.06,3.38,3.38,0,0,0,3,1.52,3.54,3.54,0,0,0,3.1-1.51"/><path class="b" d="M251.58,22.17a7.56,7.56,0,0,0,1.92-.42,1.46,1.46,0,0,0,1-1.37,1.61,1.61,0,0,0-.79-1.55,5,5,0,0,0-2.33-.43,3.06,3.06,0,0,0-2.44.84,3.48,3.48,0,0,0-.68,1.68h-4.63A7,7,0,0,1,245,17c1.28-1.62,3.46-2.42,6.56-2.42a11.76,11.76,0,0,1,5.37,1.19q2.35,1.2,2.35,4.51v8.41c0,.58,0,1.29,0,2.12a2.72,2.72,0,0,0,.29,1.28,1.63,1.63,0,0,0,.71.55v.71H255.1a5.38,5.38,0,0,1-.3-1c-.06-.33-.1-.7-.14-1.11a9.81,9.81,0,0,1-2.3,1.83,7,7,0,0,1-3.52.89,6,6,0,0,1-4.13-1.42,5.06,5.06,0,0,1-1.64-4,5.22,5.22,0,0,1,2.63-4.89,11.59,11.59,0,0,1,4.24-1.18Zm2.93,2.23a5.8,5.8,0,0,1-.93.47,8.73,8.73,0,0,1-1.28.32l-1.1.21a7.49,7.49,0,0,0-2.2.65,2.21,2.21,0,0,0-1.13,2,2.11,2.11,0,0,0,.69,1.77,2.59,2.59,0,0,0,1.68.55,5,5,0,0,0,2.9-.91,3.83,3.83,0,0,0,1.37-3.31Z"/><path class="b" d="M273.2,15.28a5.83,5.83,0,0,1,2.1,2V8.56h4.86V33.32H275.5V30.78a5.95,5.95,0,0,1-5.6,3.11,6.81,6.81,0,0,1-5.41-2.6,10,10,0,0,1-2.19-6.67,11.46,11.46,0,0,1,2.16-7.38,7,7,0,0,1,5.78-2.69,5.91,5.91,0,0,1,3,.73m1.18,13.06a6.73,6.73,0,0,0,1.06-3.92c0-2.24-.57-3.85-1.7-4.81a3.69,3.69,0,0,0-2.42-.87,3.35,3.35,0,0,0-3.09,1.58,7.35,7.35,0,0,0-1,3.95,7.35,7.35,0,0,0,1,4.06,3.38,3.38,0,0,0,3,1.52,3.54,3.54,0,0,0,3.1-1.51"/><path class="b" d="M99.12,45.32a6.09,6.09,0,0,1,2.2,2.11V38.29h5.09v25.9h-4.88V61.53A7.07,7.07,0,0,1,99.09,64a7,7,0,0,1-3.42.77A7.09,7.09,0,0,1,90,62.06a10.37,10.37,0,0,1-2.3-7q0-4.91,2.26-7.73a7.37,7.37,0,0,1,6-2.81,6.17,6.17,0,0,1,3.1.77M100.35,59a7,7,0,0,0,1.11-4.1q0-3.52-1.78-5a3.81,3.81,0,0,0-2.53-.92,3.54,3.54,0,0,0-3.23,1.66,7.78,7.78,0,0,0-1,4.13,7.62,7.62,0,0,0,1,4.25,3.55,3.55,0,0,0,3.17,1.59A3.72,3.72,0,0,0,100.35,59"/><path class="b" d="M123.46,45.4a7.79,7.79,0,0,1,3.32,2.83,9.44,9.44,0,0,1,1.52,4,24.31,24.31,0,0,1,.17,3.8h-14a4.6,4.6,0,0,0,2,4,5.06,5.06,0,0,0,2.76.72,4.26,4.26,0,0,0,2.79-.88,4.21,4.21,0,0,0,1-1.32h5.12A6.32,6.32,0,0,1,126.35,62a9.34,9.34,0,0,1-7.22,2.8,10.46,10.46,0,0,1-6.75-2.36q-2.92-2.37-2.93-7.68,0-5,2.64-7.64A9.22,9.22,0,0,1,119,44.5a10.91,10.91,0,0,1,4.51.9M116,49.73a5.19,5.19,0,0,0-1.34,3h8.64a4.16,4.16,0,0,0-1.33-3,4.4,4.4,0,0,0-3-1,4,4,0,0,0-3,1.1"/><path class="b" d="M158.27,38.25h7.8V64.19h-5V46.64c0-.5,0-1.21,0-2.12s0-1.61,0-2.1l-4.91,21.77h-5.27L146,42.42c0,.49,0,1.19,0,2.1s0,1.62,0,2.12V64.19H141V38.25h7.88l4.73,20.39Z"/><path class="b" d="M183.18,45.4a7.7,7.7,0,0,1,3.31,2.83,9.32,9.32,0,0,1,1.53,4,24.31,24.31,0,0,1,.17,3.8h-14a4.57,4.57,0,0,0,2,4,5.12,5.12,0,0,0,2.77.72,4.21,4.21,0,0,0,2.78-.88,3.94,3.94,0,0,0,1-1.32h5.13A6.32,6.32,0,0,1,186.07,62a9.36,9.36,0,0,1-7.22,2.8,10.44,10.44,0,0,1-6.75-2.36c-2-1.58-2.93-4.14-2.93-7.68q0-5,2.64-7.64a9.22,9.22,0,0,1,6.86-2.66,10.91,10.91,0,0,1,4.51.9m-7.5,4.33a5.19,5.19,0,0,0-1.34,3H183a4.16,4.16,0,0,0-1.34-3,4.39,4.39,0,0,0-3-1,4,4,0,0,0-3,1.1"/><path class="b" d="M200.89,45.32a6,6,0,0,1,2.2,2.11V38.29h5.09v25.9H203.3V61.53A7.07,7.07,0,0,1,200.86,64a7,7,0,0,1-3.42.77,7.09,7.09,0,0,1-5.65-2.72,10.42,10.42,0,0,1-2.3-7q0-4.91,2.26-7.73a7.38,7.38,0,0,1,6.05-2.81,6.16,6.16,0,0,1,3.09.77M202.13,59a7.07,7.07,0,0,0,1.1-4.1q0-3.52-1.77-5a3.85,3.85,0,0,0-2.54-.92,3.55,3.55,0,0,0-3.23,1.66,7.78,7.78,0,0,0-1,4.13A7.62,7.62,0,0,0,195.71,59a3.55,3.55,0,0,0,3.18,1.59A3.72,3.72,0,0,0,202.13,59"/><path class="b" d="M225.23,45.4a7.79,7.79,0,0,1,3.32,2.83,9.45,9.45,0,0,1,1.53,4,24.55,24.55,0,0,1,.16,3.8h-14a4.6,4.6,0,0,0,2,4,5.09,5.09,0,0,0,2.76.72,4.24,4.24,0,0,0,2.79-.88,4.07,4.07,0,0,0,1-1.32H230A6.25,6.25,0,0,1,228.12,62a9.33,9.33,0,0,1-7.21,2.8,10.47,10.47,0,0,1-6.76-2.36q-2.93-2.37-2.93-7.68,0-5,2.64-7.64a9.24,9.24,0,0,1,6.86-2.66,10.87,10.87,0,0,1,4.51.9m-7.5,4.33a5.18,5.18,0,0,0-1.33,3H225a4.16,4.16,0,0,0-1.33-3,4.4,4.4,0,0,0-3-1,4,4,0,0,0-3,1.1"/><rect class="b" x="232.88" y="38.25" width="5.01" height="25.94"/><rect class="b" x="242.9" y="38.25" width="5.01" height="25.94"/><path class="b" d="M261.51,37.16l-5.35,5.26h-3.62l3.38-5.26ZM252.87,45H258V64.19h-5.09Z"/><path class="b" d="M278.28,46.11c1.26,1,1.88,2.76,1.88,5.16V64.19H275V52.52a5.3,5.3,0,0,0-.41-2.32,2.81,2.81,0,0,0-2.79-1.48,3.47,3.47,0,0,0-3.48,2.16,7.63,7.63,0,0,0-.49,2.92V64.19h-5V45h4.86v2.8a8.16,8.16,0,0,1,1.82-2.13,6.34,6.34,0,0,1,3.9-1.16,7.35,7.35,0,0,1,4.85,1.56"/><path class="c" d="M39.13,79.19c21.51,0,39.08-17.81,39.08-39.58S60.64,0,39.13,0,0,17.78,0,39.61,17.57,79.19,39.13,79.19"/><path class="d" d="M39.13,77.38c20.54,0,37.3-17,37.3-37.77S59.67,1.8,39.13,1.8,1.77,18.78,1.77,39.61,18.54,77.38,39.13,77.38"/><path class="e" d="M39.06,66.05v-26H20.77c3.26,10.34,10.08,20.25,18.29,26"/><path class="f" d="M39.06,64.32c-6.15-4.13-13.4-13.61-16.89-24.25H39.06Z"/><path class="g" d="M19.33,33.07c-4.59,2.45-5.82,9.84-9.68,11.54,1.54,1.86,2.93,4,4.49,5.85,4.19-1.81,4.81-6,7.45-8.18a38.29,38.29,0,0,1-2.26-9.21"/><path class="h" d="M14.12,50.55l0,0c-.81-1-1.59-2-2.35-3.06s-1.4-1.9-2.14-2.79l-.06-.08.09,0c1.86-.81,3.11-3,4.43-5.28,1.41-2.45,2.87-5,5.24-6.25l.11-.06v.12a37.3,37.3,0,0,0,2.26,9.19l0,0-.05,0a12.35,12.35,0,0,0-2.51,3.22c-1.18,1.9-2.4,3.86-4.95,5ZM9.78,44.63c.71.88,1.41,1.82,2.08,2.73s1.51,2,2.31,3c2.47-1.09,3.67-3,4.83-4.89a13,13,0,0,1,2.5-3.22,38.22,38.22,0,0,1-2.24-9.06c-2.27,1.27-3.69,3.75-5.07,6.14S11.63,43.77,9.78,44.63Z"/><path class="i" d="M14.14,50.46c4.1-1.66,5.26-6.72,7.45-8.18.54,1.39,1,2.36,1.53,3.76-2.42,2-3,5.68-6.79,7.15C15.61,52.22,14.14,50.46,14.14,50.46Z"/><path class="h" d="M16.31,53.28l0-.05c-.72-.95-2.17-2.7-2.19-2.72L14,50.43l.1,0c2.46-1,3.85-3.23,5.07-5.19a9.75,9.75,0,0,1,2.37-3l.08-.05,0,.09c.33.87.62,1.57.93,2.32.19.44.38.91.59,1.44l0,.05,0,0a11.63,11.63,0,0,0-2.27,2.84c-1.09,1.68-2.21,3.41-4.54,4.32Zm-2-2.79c.29.35,1.45,1.76,2.09,2.6,2.24-.89,3.34-2.59,4.4-4.24A12.23,12.23,0,0,1,23,46c-.21-.5-.39-.95-.58-1.38-.29-.72-.58-1.4-.89-2.23a10,10,0,0,0-2.25,2.89C18.09,47.24,16.72,49.45,14.27,50.49Z"/><path class="j" d="M16.18,55.93a3,3,0,0,1,1.54-1c.72,1.29-.11,1.49-.41,1.62s-.86-.21-1.13-.65"/><path class="j" d="M17.72,55c-1.14.32-2,1.15-1.86,2-1.13-1.07-2.39-1.95-3.49-3A7.08,7.08,0,0,1,15,51.52C15.89,52.68,17.52,54.54,17.72,55Z"/><path class="h" d="M15.86,57.05l-.06,0c-.51-.48-1.05-.94-1.58-1.38A24.82,24.82,0,0,1,12.32,54a.08.08,0,0,1,0-.1A7.21,7.21,0,0,1,15,51.44a.09.09,0,0,1,.1,0c.35.46.82,1,1.28,1.58a20.17,20.17,0,0,1,1.45,1.88.08.08,0,0,1,0,.07.1.1,0,0,1-.05,0c-1.14.31-1.9,1.12-1.8,1.92a.09.09,0,0,1,0,.08Zm-3.38-3.14c.58.58,1.22,1.11,1.84,1.62s1,.82,1.45,1.25a2.32,2.32,0,0,1,1.83-1.87c-.19-.3-.77-1-1.39-1.76-.43-.53-.89-1.08-1.24-1.54A7,7,0,0,0,12.48,53.91Z"/><path class="i" d="M15,51.52c-.93-1.19-1.9-2.36-2.83-3.55a9.27,9.27,0,0,0-3.23,2.89c1.1,1.06,2.34,2,3.43,3.06A7.27,7.27,0,0,1,15,51.52"/><path class="h" d="M12.39,54,12.32,54c-.55-.54-1.15-1-1.72-1.54s-1.16-1-1.71-1.53l-.05,0,0-.06a9.2,9.2,0,0,1,3.26-2.91l.06,0,0,.05c.48.62,1,1.24,1.45,1.84s.92,1.14,1.37,1.72l.06.07-.08,0A7.14,7.14,0,0,0,12.44,54ZM9.05,50.85c.53.51,1.1,1,1.65,1.47s1.12,1,1.66,1.47a7.29,7.29,0,0,1,2.52-2.29c-.43-.55-.88-1.11-1.31-1.64l-1.42-1.79A9,9,0,0,0,9.05,50.85Z"/><path class="g" d="M7.85,42.28a6,6,0,0,0-4,3.82c1.7,1.56,3.4,3.16,5.09,4.76A8.18,8.18,0,0,1,12.17,48S9.31,44.17,7.85,42.28Z"/><path class="h" d="M9,51l-.07-.07c-1.54-1.45-3.34-3.14-5.09-4.75l0,0,0,0a6.06,6.06,0,0,1,4-3.88l0,0,0,0c1.45,1.87,4.3,5.65,4.33,5.69l0,.08-.08,0A8.08,8.08,0,0,0,9,50.9Zm-5-4.9c1.72,1.57,3.47,3.22,5,4.66a8.31,8.31,0,0,1,3.12-2.8c-.41-.55-2.89-3.83-4.23-5.57A5.92,5.92,0,0,0,3.94,46.08Z"/><path class="j" d="M23.12,46c-2.51,2.17-3.14,5.7-6.79,7.15a10.17,10.17,0,0,1,1.53,2.06c.3.66.12,1.28-.71,1.35a1.56,1.56,0,0,1-1-.66,1.43,1.43,0,0,0-.32,1c3,.2,6.46-3.25,9-7.51-.6-1.1-1.17-2.29-1.73-3.42"/><path class="h" d="M16.11,57.06h-.33V57a1.48,1.48,0,0,1,.34-1.08l.06-.08.06.08a1.51,1.51,0,0,0,.91.63.84.84,0,0,0,.68-.35,1,1,0,0,0,0-.89,6.87,6.87,0,0,0-1.06-1.5l-.46-.54-.06-.09.1,0c2.21-.87,3.32-2.56,4.4-4.18a13.54,13.54,0,0,1,2.36-3l.08-.07,0,.09.45.91c.41.84.84,1.71,1.28,2.51l0,0,0,0C22.1,54.23,18.81,57.06,16.11,57.06Zm-.17-.16h.17a7.06,7.06,0,0,0,4.51-2.19,23.16,23.16,0,0,0,4.14-5.25c-.44-.8-.86-1.65-1.26-2.48l-.41-.82A14.19,14.19,0,0,0,20.84,49c-1.07,1.63-2.18,3.3-4.38,4.21l.39.46a7.2,7.2,0,0,1,1.09,1.53,1.15,1.15,0,0,1,0,1,1,1,0,0,1-.81.43h0a1.53,1.53,0,0,1-1-.62A1.25,1.25,0,0,0,15.94,56.9Z"/><path class="g" d="M58.88,33.07c4.59,2.45,5.82,9.84,9.68,11.54-1.54,1.86-2.93,4-4.49,5.85-4.19-1.81-4.81-6-7.45-8.18a38.29,38.29,0,0,0,2.26-9.21"/><path class="h" d="M64.09,50.55l-.06,0c-2.55-1.11-3.77-3.07-5-5a12.35,12.35,0,0,0-2.51-3.22l0,0,0,0a37.3,37.3,0,0,0,2.26-9.19v-.12l.11.06c2.37,1.27,3.83,3.8,5.24,6.25,1.32,2.3,2.57,4.47,4.43,5.28l.09,0-.06.08c-.74.88-1.45,1.85-2.14,2.79s-1.54,2.09-2.35,3.06Zm-7.38-8.3a13,13,0,0,1,2.5,3.22c1.16,1.87,2.36,3.8,4.83,4.89.8-1,1.57-2,2.31-3s1.37-1.85,2.08-2.72c-1.85-.86-3.1-3-4.41-5.3s-2.8-4.87-5.07-6.14A38.22,38.22,0,0,1,56.71,42.25Z"/><path class="i" d="M64.07,50.46c-4.1-1.66-5.26-6.72-7.45-8.18-.54,1.39-1,2.36-1.53,3.76,2.42,2,3,5.68,6.79,7.15C62.6,52.22,64.07,50.46,64.07,50.46Z"/><path class="h" d="M61.9,53.28l0,0c-2.33-.91-3.45-2.64-4.54-4.32A11.63,11.63,0,0,0,55,46.1l0,0L55,46c.21-.53.4-1,.59-1.44.31-.74.6-1.45.93-2.32l0-.09.08.05a9.75,9.75,0,0,1,2.37,3c1.22,2,2.61,4.19,5.07,5.19l.1,0-.07.08s-1.47,1.77-2.19,2.72ZM55.18,46a12.23,12.23,0,0,1,2.27,2.84c1.06,1.65,2.16,3.35,4.4,4.24.64-.84,1.8-2.25,2.09-2.6-2.45-1-3.82-3.25-5-5.2a10,10,0,0,0-2.25-2.89c-.31.83-.6,1.51-.9,2.23Z"/><path class="j" d="M62,55.93a3,3,0,0,0-1.53-1c-.72,1.29.11,1.49.41,1.62s.86-.21,1.12-.65"/><path class="j" d="M60.49,55c1.14.32,2,1.15,1.86,2,1.13-1.07,2.39-1.95,3.49-3a7.08,7.08,0,0,0-2.63-2.4C62.32,52.68,60.69,54.54,60.49,55Z"/><path class="h" d="M62.35,57.05h0a.09.09,0,0,1,0-.08c.1-.8-.66-1.61-1.8-1.92a.1.1,0,0,1,0,0,.08.08,0,0,1,0-.07,20.17,20.17,0,0,1,1.45-1.88c.46-.55.93-1.12,1.28-1.58a.09.09,0,0,1,.1,0,7.21,7.21,0,0,1,2.65,2.43.08.08,0,0,1,0,.1A24.82,24.82,0,0,1,64,55.65c-.53.44-1.08.9-1.58,1.38Zm-1.74-2.14a2.32,2.32,0,0,1,1.83,1.87c.47-.43,1-.85,1.45-1.25s1.26-1,1.84-1.62a7,7,0,0,0-2.49-2.3c-.35.46-.81,1-1.24,1.54C61.38,53.9,60.8,54.61,60.61,54.91Z"/><path class="i" d="M63.21,51.52c.93-1.19,1.9-2.36,2.83-3.55a9.27,9.27,0,0,1,3.23,2.89c-1.1,1.06-2.34,2-3.43,3.06a7.27,7.27,0,0,0-2.63-2.4"/><path class="h" d="M65.82,54l0-.08a7.14,7.14,0,0,0-2.6-2.37l-.08,0,.06-.07c.45-.59.92-1.17,1.37-1.73s1-1.22,1.45-1.83l0-.05.06,0a9.2,9.2,0,0,1,3.26,2.91l0,.06-.05,0c-.55.53-1.14,1-1.71,1.53s-1.17,1-1.72,1.54ZM63.33,51.5a7.29,7.29,0,0,1,2.52,2.29c.54-.51,1.11-1,1.66-1.47s1.12-1,1.65-1.47a9,9,0,0,0-3.1-2.78c-.47.6-1,1.2-1.42,1.78Z"/><path class="g" d="M70.36,42.28a6,6,0,0,1,4,3.82c-1.69,1.56-3.39,3.16-5.08,4.76A8.18,8.18,0,0,0,66,48S68.9,44.17,70.36,42.28Z"/><path class="h" d="M69.25,51l0-.08A8.08,8.08,0,0,0,66,48l-.09,0,.06-.08s2.88-3.82,4.33-5.69l0,0,.06,0a6.06,6.06,0,0,1,4,3.88v0l0,0c-1.73,1.59-3.46,3.22-5.09,4.75Zm-3.09-3a8.31,8.31,0,0,1,3.12,2.8c1.6-1.51,3.29-3.11,5-4.66a5.88,5.88,0,0,0-3.87-3.71C69.05,44.11,66.57,47.39,66.16,47.94Z"/><path class="k" d="M55.09,46c2.51,2.17,3.14,5.7,6.79,7.15a10.17,10.17,0,0,0-1.53,2.06c-.3.66-.12,1.28.71,1.35a1.56,1.56,0,0,0,1-.66,1.43,1.43,0,0,1,.32,1c-3,.2-6.46-3.25-9-7.51.6-1.1,1.17-2.29,1.73-3.42"/><path class="h" d="M62.1,57.06c-2.7,0-6-2.83-8.81-7.56l0,0,0,0c.44-.8.87-1.67,1.28-2.52L55,46l0-.09.08.07a13.49,13.49,0,0,1,2.36,2.94c1.08,1.63,2.19,3.32,4.4,4.19l.1,0-.06.09-.46.54a6.87,6.87,0,0,0-1.06,1.5,1,1,0,0,0,0,.89.85.85,0,0,0,.69.35c.28,0,.65-.32.9-.63l.06-.08.06.08A1.48,1.48,0,0,1,62.43,57V57H62.1Zm-8.65-7.6a23.16,23.16,0,0,0,4.14,5.25c1.68,1.52,3.25,2.25,4.68,2.19a1.3,1.3,0,0,0-.24-.84,1.57,1.57,0,0,1-1,.62,1,1,0,0,1-.81-.43,1.15,1.15,0,0,1,0-1,7.2,7.2,0,0,1,1.09-1.53l.39-.46c-2.2-.91-3.31-2.58-4.38-4.21a13.89,13.89,0,0,0-2.26-2.85c-.13.27-.26.54-.4.81C54.31,47.8,53.89,48.66,53.45,49.46Z"/><polygon class="l" points="27.13 45.54 27.13 46.01 30.32 52.46 30.25 52.02 27.13 45.54"/><g class="m"><rect class="b" x="27.13" y="43.69" width="0.95" height="8.33"/><rect class="b" x="28.08" y="43.69" width="0.12" height="8.33"/><rect class="n" x="28.2" y="43.69" width="0.12" height="8.33"/><rect class="o" x="28.32" y="43.69" width="0.12" height="8.33"/><rect class="p" x="28.44" y="43.69" width="0.12" height="8.33"/><rect class="q" x="28.56" y="43.69" width="0.12" height="8.33"/><rect class="r" x="28.68" y="43.69" width="0.12" height="8.33"/><rect class="s" x="28.8" y="43.69" width="0.12" height="8.33"/><rect class="t" x="28.92" y="43.69" width="0.12" height="8.33"/><rect class="u" x="29.03" y="43.69" width="0.12" height="8.33"/><rect class="v" x="29.15" y="43.69" width="0.12" height="8.33"/><rect class="w" x="29.27" y="43.69" width="0.12" height="8.33"/><rect class="x" x="29.39" y="43.69" width="0.12" height="8.33"/><rect class="y" x="29.51" y="43.69" width="0.12" height="8.33"/><rect class="z" x="29.63" y="43.69" width="0.12" height="8.33"/><rect class="aa" x="29.75" y="43.69" width="0.12" height="8.33"/><rect class="ab" x="29.87" y="43.69" width="0.12" height="8.33"/><rect class="ac" x="29.99" y="43.69" width="0.12" height="8.33"/><rect class="ad" x="30.11" y="43.69" width="0.12" height="8.33"/><rect class="ae" x="30.23" y="43.69" width="0.12" height="8.33"/><rect class="af" x="30.35" y="43.69" width="0.12" height="8.33"/><rect class="ag" x="30.46" y="43.69" width="0.12" height="8.33"/><rect class="ah" x="30.58" y="43.69" width="0.12" height="8.33"/><rect class="ai" x="30.7" y="43.69" width="0.12" height="8.33"/><rect class="aj" x="30.82" y="43.69" width="0.12" height="8.33"/><rect class="ak" x="30.94" y="43.69" width="0.12" height="8.33"/><rect class="al" x="31.06" y="43.69" width="0.12" height="8.33"/><rect class="am" x="31.18" y="43.69" width="0.12" height="8.33"/><rect class="an" x="31.3" y="43.69" width="0.12" height="8.33"/><rect class="ao" x="31.42" y="43.69" width="0.12" height="8.33"/><rect class="ap" x="31.54" y="43.69" width="0.12" height="8.33"/><rect class="aq" x="31.66" y="43.69" width="0.12" height="8.33"/><rect class="aq" x="31.78" y="43.69" width="0.07" height="8.33"/><rect class="ar" x="31.84" y="43.69" width="0.07" height="8.33"/><rect class="as" x="31.91" y="43.69" width="0.07" height="8.33"/><rect class="at" x="31.98" y="43.69" width="0.07" height="8.33"/><rect class="au" x="32.05" y="43.69" width="0.07" height="8.33"/><rect class="av" x="32.12" y="43.69" width="0.07" height="8.33"/><rect class="aw" x="32.18" y="43.69" width="0.07" height="8.33"/><rect class="ax" x="32.25" y="43.69" width="0.07" height="8.33"/><rect class="ay" x="32.32" y="43.69" width="0.07" height="8.33"/><rect class="az" x="32.39" y="43.69" width="0.07" height="8.33"/><rect class="ba" x="32.46" y="43.69" width="0.07" height="8.33"/><rect class="bb" x="32.52" y="43.69" width="0.07" height="8.33"/><rect class="bc" x="32.59" y="43.69" width="0.07" height="8.33"/><rect class="bd" x="32.66" y="43.69" width="0.07" height="8.33"/><rect class="be" x="32.73" y="43.69" width="0.07" height="8.33"/><rect class="bf" x="32.8" y="43.69" width="0.07" height="8.33"/><rect class="bg" x="32.87" y="43.69" width="0.07" height="8.33"/><rect class="bh" x="32.93" y="43.69" width="0.07" height="8.33"/><rect class="bi" x="33" y="43.69" width="0.07" height="8.33"/><rect class="bj" x="33.07" y="43.69" width="0.07" height="8.33"/><rect class="bk" x="33.14" y="43.69" width="0.07" height="8.33"/><rect class="bl" x="33.2" y="43.69" width="0.07" height="8.33"/><rect class="bm" x="33.27" y="43.69" width="0.07" height="8.33"/><rect class="bn" x="33.34" y="43.69" width="0.07" height="8.33"/><rect class="bn" x="33.41" y="43.69" width="0.01" height="8.33"/><rect class="bo" x="33.42" y="43.69" width="0.02" height="8.33"/><rect class="bp" x="33.44" y="43.69" width="0.02" height="8.33"/><rect class="bq" x="33.45" y="43.69" width="0.02" height="8.33"/><rect class="br" x="33.47" y="43.69" width="0.02" height="8.33"/><rect class="bs" x="33.48" y="43.69" width="0.01" height="8.33"/><rect class="bt" x="33.5" y="43.69" width="0.02" height="8.33"/><rect class="bu" x="33.51" y="43.69" width="0.02" height="8.33"/><rect class="bv" x="33.53" y="43.69" width="0.01" height="8.33"/><rect class="bw" x="33.54" y="43.69" width="0.02" height="8.33"/><rect class="bx" x="33.55" y="43.69" width="0.02" height="8.33"/><rect class="by" x="33.57" y="43.69" width="0.02" height="8.33"/><rect class="bz" x="33.59" y="43.69" width="0.02" height="8.33"/><rect class="ca" x="33.6" y="43.69" width="0.01" height="8.33"/><rect class="cb" x="33.61" y="43.69" width="0.02" height="8.33"/><rect class="cc" x="33.63" y="43.69" width="0.02" height="8.33"/><rect class="cd" x="33.64" y="43.69" width="0.02" height="8.33"/><rect class="ce" x="33.66" y="43.69" width="0.01" height="8.33"/><rect class="cf" x="33.67" y="43.69" width="0.02" height="8.33"/><rect class="cg" x="33.69" y="43.69" width="0.02" height="8.33"/><rect class="ch" x="33.7" y="43.69" width="0.02" height="8.33"/><rect class="ci" x="33.72" y="43.69" width="0.01" height="8.33"/><rect class="cj" x="33.73" y="43.69" width="0.02" height="8.33"/><rect class="ck" x="33.74" y="43.69" width="0.02" height="8.33"/><rect class="cl" x="33.76" y="43.69" width="0.02" height="8.33"/><rect class="cm" x="33.77" y="43.69" width="0.02" height="8.33"/><rect class="cn" x="33.79" y="43.69" width="0.01" height="8.33"/><rect class="co" x="33.8" y="43.69" width="0.02" height="8.33"/><rect class="cp" x="33.82" y="43.69" width="0.02" height="8.33"/><rect class="cq" x="33.83" y="43.69" width="0.02" height="8.33"/><rect class="cr" x="33.85" y="43.69" width="0.01" height="8.33"/><rect class="cs" x="33.86" y="43.69" width="0.02" height="8.33"/><rect class="ct" x="33.87" y="43.69" width="0.02" height="8.33"/><rect class="cu" x="33.89" y="43.69" width="0.02" height="8.33"/><rect class="cv" x="33.91" y="43.69" width="0.01" height="8.33"/><rect class="cw" x="33.92" y="43.69" width="0.02" height="8.33"/><rect class="cx" x="33.93" y="43.69" width="0.02" height="8.33"/><rect class="cy" x="33.95" y="43.69" width="0.02" height="8.33"/><rect class="cz" x="33.96" y="43.69" width="0.02" height="8.33"/><rect class="da" x="33.98" y="43.69" width="0.01" height="8.33"/><rect class="db" x="33.99" y="43.69" width="0.02" height="8.33"/><path class="db" d="M34,52v0Z"/></g><g class="dc"><polygon class="b" points="30.96 44.01 34.69 50.47 30.96 50.47 30.96 44.01"/><polygon class="b" points="30.96 43.87 34.78 50.47 34.69 50.47 30.96 44.01 30.96 43.87"/><polygon class="n" points="30.96 43.72 34.87 50.47 34.78 50.47 30.96 43.87 30.96 43.72"/><polygon class="o" points="30.96 43.57 34.95 50.47 34.87 50.47 30.96 43.72 30.96 43.57"/><polygon class="p" points="30.96 43.42 35.03 50.47 34.95 50.47 30.96 43.57 30.96 43.42"/><polygon class="q" points="30.96 43.27 35.12 50.47 35.03 50.47 30.96 43.42 30.96 43.27"/><polygon class="r" points="30.96 43.12 35.21 50.47 35.12 50.47 30.96 43.27 30.96 43.12"/><polygon class="s" points="30.96 42.97 35.29 50.47 35.21 50.47 30.96 43.12 30.96 42.97"/><polygon class="t" points="30.96 42.83 35.38 50.47 35.29 50.47 30.96 42.97 30.96 42.83"/><polygon class="u" points="31 42.75 35.46 50.47 35.38 50.47 30.96 42.83 30.96 42.75 31 42.75"/><polygon class="v" points="31.09 42.75 35.55 50.47 35.46 50.47 31 42.75 31.09 42.75"/><polygon class="w" points="31.17 42.75 35.64 50.47 35.55 50.47 31.09 42.75 31.17 42.75"/><polygon class="x" points="31.26 42.75 35.72 50.47 35.64 50.47 31.17 42.75 31.26 42.75"/><polygon class="y" points="31.34 42.75 35.81 50.47 35.72 50.47 31.26 42.75 31.34 42.75"/><polygon class="z" points="31.43 42.75 35.89 50.47 35.81 50.47 31.34 42.75 31.43 42.75"/><polygon class="aa" points="31.52 42.75 35.98 50.47 35.89 50.47 31.43 42.75 31.52 42.75"/><polygon class="ab" points="31.6 42.75 36.06 50.47 35.98 50.47 31.52 42.75 31.6 42.75"/><polygon class="ac" points="31.69 42.75 36.15 50.47 36.06 50.47 31.6 42.75 31.69 42.75"/><polygon class="ad" points="31.77 42.75 36.23 50.47 36.15 50.47 31.69 42.75 31.77 42.75"/><polygon class="ae" points="31.86 42.75 36.32 50.47 36.23 50.47 31.77 42.75 31.86 42.75"/><polygon class="af" points="31.95 42.75 36.41 50.47 36.32 50.47 31.86 42.75 31.95 42.75"/><polygon class="ag" points="32.03 42.75 36.49 50.47 36.41 50.47 31.95 42.75 32.03 42.75"/><polygon class="ah" points="32.12 42.75 36.58 50.47 36.49 50.47 32.03 42.75 32.12 42.75"/><polygon class="ai" points="32.2 42.75 36.66 50.47 36.58 50.47 32.12 42.75 32.2 42.75"/><polygon class="aj" points="32.29 42.75 36.75 50.47 36.66 50.47 32.2 42.75 32.29 42.75"/><polygon class="ak" points="32.37 42.75 36.84 50.47 36.75 50.47 32.29 42.75 32.37 42.75"/><polygon class="al" points="32.46 42.75 36.92 50.47 36.84 50.47 32.37 42.75 32.46 42.75"/><polygon class="am" points="32.55 42.75 37.01 50.47 36.92 50.47 32.46 42.75 32.55 42.75"/><polygon class="an" points="32.63 42.75 37.09 50.47 37.01 50.47 32.55 42.75 32.63 42.75"/><polygon class="ao" points="32.72 42.75 37.18 50.47 37.09 50.47 32.63 42.75 32.72 42.75"/><polygon class="ap" points="32.8 42.75 37.26 50.47 37.18 50.47 32.72 42.75 32.8 42.75"/><polygon class="aq" points="32.89 42.75 37.35 50.47 37.26 50.47 32.8 42.75 32.89 42.75"/><polygon class="aq" points="32.94 42.75 37.4 50.47 37.35 50.47 32.89 42.75 32.94 42.75"/><polygon class="ar" points="37.45 50.47 32.99 42.75 32.94 42.75 37.4 50.47 37.45 50.47"/><polygon class="as" points="33.03 42.75 37.49 50.47 37.48 50.47 37.45 50.47 32.99 42.75 33.03 42.75"/><polygon class="at" points="33.09 42.75 37.53 50.45 37.49 50.47 33.03 42.75 33.09 42.75"/><polygon class="au" points="33.13 42.75 37.57 50.42 37.53 50.45 33.09 42.75 33.13 42.75"/><polygon class="av" points="33.18 42.75 37.6 50.4 37.57 50.42 33.13 42.75 33.18 42.75"/><polygon class="aw" points="33.23 42.75 37.64 50.38 37.6 50.4 33.18 42.75 33.23 42.75"/><polygon class="ax" points="33.28 42.75 37.68 50.36 37.64 50.38 33.23 42.75 33.28 42.75"/><polygon class="ay" points="33.33 42.75 37.71 50.34 37.68 50.36 33.28 42.75 33.33 42.75"/><polygon class="az" points="33.38 42.75 37.75 50.32 37.71 50.34 33.33 42.75 33.38 42.75"/><polygon class="ba" points="33.43 42.75 37.77 50.27 37.77 50.31 37.75 50.32 33.38 42.75 33.43 42.75"/><polygon class="bb" points="33.48 42.75 37.77 50.18 37.77 50.27 33.43 42.75 33.48 42.75"/><polygon class="bc" points="33.52 42.75 37.77 50.1 37.77 50.18 33.48 42.75 33.52 42.75"/><polygon class="bd" points="33.57 42.75 37.77 50.01 37.77 50.1 33.52 42.75 33.57 42.75"/><polygon class="be" points="33.62 42.75 37.77 49.93 37.77 50.01 33.57 42.75 33.62 42.75"/><polygon class="bf" points="33.67 42.75 37.77 49.84 37.77 49.93 33.62 42.75 33.67 42.75"/><polygon class="bg" points="33.72 42.75 37.77 49.76 37.77 49.84 33.67 42.75 33.72 42.75"/><polygon class="bh" points="33.77 42.75 37.77 49.67 37.77 49.76 33.72 42.75 33.77 42.75"/><polygon class="bi" points="33.82 42.75 37.77 49.59 37.77 49.67 33.77 42.75 33.82 42.75"/><polygon class="bj" points="33.87 42.75 37.77 49.51 37.77 49.59 33.82 42.75 33.87 42.75"/><polygon class="bk" points="33.92 42.75 37.77 49.42 37.77 49.51 33.87 42.75 33.92 42.75"/><polygon class="bl" points="33.97 42.75 37.77 49.34 37.77 49.42 33.92 42.75 33.97 42.75"/><polygon class="bm" points="34.02 42.75 37.77 49.25 37.77 49.34 33.97 42.75 34.02 42.75"/><polygon class="bn" points="34.06 42.75 37.77 49.16 37.77 49.25 34.02 42.75 34.06 42.75"/><polygon class="bn" points="34.08 42.75 37.77 49.15 37.77 49.16 34.06 42.75 34.08 42.75"/><polygon class="bo" points="37.77 49.13 34.09 42.75 34.08 42.75 37.77 49.15 37.77 49.13"/><polygon class="bp" points="34.1 42.75 37.77 49.11 37.77 49.13 34.09 42.75 34.1 42.75"/><polygon class="bq" points="34.11 42.75 37.77 49.09 37.77 49.11 34.1 42.75 34.11 42.75"/><polygon class="br" points="34.12 42.75 37.77 49.07 37.77 49.09 34.11 42.75 34.12 42.75"/><polygon class="bs" points="34.13 42.75 37.77 49.06 37.77 49.07 34.12 42.75 34.13 42.75"/><polygon class="bt" points="34.14 42.75 37.77 49.04 37.77 49.06 34.13 42.75 34.14 42.75"/><polygon class="bu" points="37.77 49.02 34.15 42.75 34.14 42.75 37.77 49.04 37.77 49.02"/><polygon class="bv" points="34.16 42.75 37.77 49 37.77 49.02 34.15 42.75 34.16 42.75"/><polygon class="bw" points="34.17 42.75 37.77 48.98 37.77 49 34.16 42.75 34.17 42.75"/><polygon class="bx" points="34.18 42.75 37.77 48.97 37.77 48.98 34.17 42.75 34.18 42.75"/><polygon class="by" points="34.19 42.75 37.77 48.95 37.77 48.97 34.18 42.75 34.19 42.75"/><polygon class="bz" points="34.2 42.75 37.77 48.93 37.77 48.95 34.19 42.75 34.2 42.75"/><polygon class="ca" points="34.21 42.75 37.77 48.91 37.77 48.93 34.2 42.75 34.21 42.75"/><polygon class="cb" points="34.22 42.75 37.77 48.89 37.77 48.91 34.21 42.75 34.22 42.75"/><polygon class="cc" points="34.23 42.75 37.77 48.88 37.77 48.89 34.22 42.75 34.23 42.75"/><polygon class="cd" points="34.24 42.75 37.77 48.86 37.77 48.88 34.23 42.75 34.24 42.75"/><polygon class="ce" points="34.25 42.75 37.77 48.84 37.77 48.86 34.24 42.75 34.25 42.75"/><polygon class="cf" points="34.26 42.75 37.77 48.82 37.77 48.84 34.25 42.75 34.26 42.75"/><polygon class="cg" points="34.27 42.75 37.77 48.8 37.77 48.82 34.26 42.75 34.27 42.75"/><polygon class="ch" points="34.28 42.75 37.77 48.78 37.77 48.8 34.27 42.75 34.28 42.75"/><polygon class="ci" points="34.29 42.75 37.77 48.77 37.77 48.78 34.28 42.75 34.29 42.75"/><polygon class="cj" points="34.3 42.75 37.77 48.75 37.77 48.77 34.29 42.75 34.3 42.75"/><polygon class="ck" points="37.77 48.73 34.31 42.75 34.3 42.75 37.77 48.75 37.77 48.73"/><polygon class="cl" points="37.77 48.71 34.33 42.75 34.31 42.75 37.77 48.73 37.77 48.71"/><polygon class="cm" points="34.34 42.75 37.77 48.7 37.77 48.71 34.33 42.75 34.34 42.75"/><polygon class="cn" points="34.35 42.75 37.77 48.68 37.77 48.7 34.34 42.75 34.35 42.75"/><polygon class="co" points="34.36 42.75 37.77 48.66 37.77 48.68 34.35 42.75 34.36 42.75"/><polygon class="cp" points="34.37 42.75 37.77 48.64 37.77 48.66 34.36 42.75 34.37 42.75"/><polygon class="cq" points="34.38 42.75 37.77 48.62 37.77 48.64 34.37 42.75 34.38 42.75"/><polygon class="cr" points="34.39 42.75 37.77 48.6 37.77 48.62 34.38 42.75 34.39 42.75"/><polygon class="cs" points="34.4 42.75 37.77 48.59 37.77 48.6 34.39 42.75 34.4 42.75"/><polygon class="ct" points="37.77 48.57 34.41 42.75 34.4 42.75 37.77 48.59 37.77 48.57"/><polygon class="cu" points="34.42 42.75 37.77 48.55 37.77 48.57 34.41 42.75 34.42 42.75"/><polygon class="cv" points="34.43 42.75 37.77 48.53 37.77 48.55 34.42 42.75 34.43 42.75"/><polygon class="cw" points="34.44 42.75 37.77 48.51 37.77 48.53 34.43 42.75 34.44 42.75"/><polygon class="cx" points="34.45 42.75 37.77 48.49 37.77 48.51 34.44 42.75 34.45 42.75"/><polygon class="cy" points="34.46 42.75 37.77 48.48 37.77 48.49 34.45 42.75 34.46 42.75"/><polygon class="cz" points="34.47 42.75 37.77 48.46 37.77 48.48 34.46 42.75 34.47 42.75"/><polygon class="da" points="34.48 42.75 37.77 48.44 37.77 48.46 34.47 42.75 34.48 42.75"/><polygon class="db" points="34.49 42.75 37.77 48.42 37.77 48.44 34.48 42.75 34.49 42.75"/><polygon class="db" points="37.77 48.42 34.49 42.75 37.77 42.75 37.77 48.42"/></g><g class="dd"><rect class="de" x="30.25" y="48.92" width="0.37" height="3.54"/><rect class="de" x="30.62" y="48.92" width="0.12" height="3.54"/><rect class="df" x="30.75" y="48.92" width="0.12" height="3.54"/><rect class="an" x="30.87" y="48.92" width="0.12" height="3.54"/><rect class="ao" x="30.99" y="48.92" width="0.12" height="3.54"/><rect class="ap" x="31.11" y="48.92" width="0.12" height="3.54"/><rect class="aq" x="31.23" y="48.92" width="0.12" height="3.54"/><rect class="aq" x="31.35" y="48.92" width="0.06" height="3.54"/><rect class="ar" x="31.41" y="48.92" width="0.06" height="3.54"/><rect class="as" x="31.47" y="48.92" width="0.06" height="3.54"/><rect class="at" x="31.53" y="48.92" width="0.06" height="3.54"/><rect class="dg" x="31.59" y="48.92" width="0.06" height="3.54"/><rect class="dh" x="31.65" y="48.92" width="0.06" height="3.54"/><rect class="di" x="31.72" y="48.92" width="0.06" height="3.54"/><rect class="ax" x="31.78" y="48.92" width="0.06" height="3.54"/><rect class="dj" x="31.84" y="48.92" width="0.06" height="3.54"/><rect class="dk" x="31.9" y="48.92" width="0.06" height="3.54"/><rect class="dl" x="31.96" y="48.92" width="0.06" height="3.54"/><rect class="dm" x="32.02" y="48.92" width="0.06" height="3.54"/><rect class="dn" x="32.08" y="48.92" width="0.06" height="3.54"/><rect class="do" x="32.14" y="48.92" width="0.06" height="3.54"/><rect class="dp" x="32.2" y="48.92" width="0.06" height="3.54"/><rect class="dq" x="32.27" y="48.92" width="0.06" height="3.54"/><rect class="dr" x="32.33" y="48.92" width="0.06" height="3.54"/><rect class="ds" x="32.39" y="48.92" width="0.06" height="3.54"/><rect class="dt" x="32.45" y="48.92" width="0.06" height="3.54"/><rect class="du" x="32.51" y="48.92" width="0.06" height="3.54"/><rect class="du" x="32.57" y="48.92" width="0.06" height="3.54"/><rect class="dv" x="32.63" y="48.92" width="0.06" height="3.54"/><rect class="dw" x="32.69" y="48.92" width="0.06" height="3.54"/><rect class="dx" x="32.75" y="48.92" width="0.06" height="3.54"/><rect class="dy" x="32.82" y="48.92" width="0.06" height="3.54"/><rect class="dz" x="32.88" y="48.92" width="0.06" height="3.54"/><rect class="ea" x="32.94" y="48.92" width="0.06" height="3.54"/><rect class="eb" x="33" y="48.92" width="0.06" height="3.54"/><rect class="ec" x="33.06" y="48.92" width="0.06" height="3.54"/><rect class="ed" x="33.12" y="48.92" width="0.06" height="3.54"/><rect class="ee" x="33.18" y="48.92" width="0.06" height="3.54"/><rect class="ef" x="33.24" y="48.92" width="0.06" height="3.54"/><rect class="eg" x="33.3" y="48.92" width="0.06" height="3.54"/><rect class="eh" x="33.37" y="48.92" width="0.06" height="3.54"/><rect class="ei" x="33.43" y="48.92" width="0.06" height="3.54"/><rect class="ej" x="33.49" y="48.92" width="0.06" height="3.54"/><rect class="ek" x="33.55" y="48.92" width="0.06" height="3.54"/><rect class="el" x="33.61" y="48.92" width="0.06" height="3.54"/><rect class="em" x="33.67" y="48.92" width="0.06" height="3.54"/><rect class="em" x="33.73" y="48.92" width="0.08" height="3.54"/><rect class="en" x="33.81" y="48.92" width="0.08" height="3.54"/><rect class="eo" x="33.9" y="48.92" width="0.08" height="3.54"/><rect class="ep" x="33.98" y="48.92" width="0.08" height="3.54"/><rect class="eq" x="34.06" y="48.92" width="0.08" height="3.54"/><rect class="er" x="34.14" y="48.92" width="0.08" height="3.54"/><rect class="es" x="34.23" y="48.92" width="0.08" height="3.54"/><rect class="et" x="34.31" y="48.92" width="0.08" height="3.54"/><rect class="eu" x="34.39" y="48.92" width="0.08" height="3.54"/><rect class="ev" x="34.47" y="48.92" width="0.08" height="3.54"/><rect class="ew" x="34.56" y="48.92" width="0.08" height="3.54"/><rect class="ex" x="34.64" y="48.92" width="0.08" height="3.54"/><rect class="ey" x="34.72" y="48.92" width="0.08" height="3.54"/><rect class="ez" x="34.8" y="48.92" width="0.08" height="3.54"/><rect class="fa" x="34.88" y="48.92" width="0.08" height="3.54"/><rect class="fb" x="34.97" y="48.92" width="0.08" height="3.54"/><rect class="fc" x="35.05" y="48.92" width="0.08" height="3.54"/><rect class="cs" x="35.13" y="48.92" width="0.08" height="3.54"/><rect class="fd" x="35.21" y="48.92" width="0.08" height="3.54"/><rect class="fe" x="35.3" y="48.92" width="0.08" height="3.54"/><rect class="ff" x="35.38" y="48.92" width="0.08" height="3.54"/><rect class="cx" x="35.46" y="48.92" width="0.08" height="3.54"/><rect class="cy" x="35.54" y="48.92" width="0.08" height="3.54"/><rect class="cz" x="35.63" y="48.92" width="0.08" height="3.54"/><rect class="da" x="35.71" y="48.92" width="0.08" height="3.54"/><rect class="db" x="35.79" y="48.92" width="0.08" height="3.54"/><rect class="db" x="35.87" y="48.92" width="0.03" height="3.54"/><rect class="fg" x="35.9" y="48.92" width="0.03" height="3.54"/><rect class="fh" x="35.93" y="48.92" width="0.03" height="3.54"/><rect class="fi" x="35.97" y="48.92" width="0.03" height="3.54"/><rect class="fj" x="36" y="48.92" width="0.03" height="3.54"/><rect class="fk" x="36.03" y="48.92" width="0.03" height="3.54"/><rect class="fl" x="36.06" y="48.92" width="0.03" height="3.54"/><rect class="fm" x="36.09" y="48.92" width="0.03" height="3.54"/><rect class="fn" x="36.13" y="48.92" width="0.03" height="3.54"/><rect class="fo" x="36.16" y="48.92" width="0.03" height="3.54"/><rect class="fp" x="36.19" y="48.92" width="0.03" height="3.54"/><rect class="fq" x="36.22" y="48.92" width="0.03" height="3.54"/><rect class="fr" x="36.25" y="48.92" width="0.03" height="3.54"/><rect class="fs" x="36.28" y="48.92" width="0.03" height="3.54"/><rect class="ft" x="36.31" y="48.92" width="0.03" height="3.54"/><rect class="fu" x="36.35" y="48.92" width="0.03" height="3.54"/><rect class="fv" x="36.38" y="48.92" width="0.03" height="3.54"/><rect class="fw" x="36.41" y="48.92" width="0.03" height="3.54"/><rect class="fx" x="36.44" y="48.92" width="0.03" height="3.54"/><rect class="fy" x="36.47" y="48.92" width="0.03" height="3.54"/><rect class="fz" x="36.5" y="48.92" width="0.03" height="3.54"/><rect class="ga" x="36.54" y="48.92" width="0.03" height="3.54"/><rect class="gb" x="36.57" y="48.92" width="0.03" height="3.54"/><rect class="gc" x="36.6" y="48.92" width="0.03" height="3.54"/><rect class="gd" x="36.63" y="48.92" width="0.03" height="3.54"/><rect class="ge" x="36.66" y="48.92" width="0.03" height="3.54"/><rect class="gf" x="36.69" y="48.92" width="0.03" height="3.54"/><rect class="gg" x="36.73" y="48.92" width="0.03" height="3.54"/><rect class="gh" x="36.76" y="48.92" width="0.03" height="3.54"/><rect class="gi" x="36.79" y="48.92" width="0.03" height="3.54"/><rect class="gj" x="36.82" y="48.92" width="0.03" height="3.54"/><rect class="gk" x="36.85" y="48.92" width="0.03" height="3.54"/><rect class="gl" x="36.88" y="48.92" width="0.03" height="3.54"/><rect class="gm" x="36.92" y="48.92" width="0.03" height="3.54"/><rect class="gn" x="36.95" y="48.92" width="0.03" height="3.54"/><rect class="go" x="36.98" y="48.92" width="0.03" height="3.54"/><rect class="gp" x="37.01" y="48.92" width="0.03" height="3.54"/><rect class="gq" x="37.04" y="48.92" width="0.03" height="3.54"/><rect class="gr" x="37.07" y="48.92" width="0.03" height="3.54"/><rect class="gs" x="37.1" y="48.92" width="0.03" height="3.54"/><rect class="gs" x="37.14" y="48.92" width="0.03" height="3.54"/><rect class="gt" x="37.17" y="48.92" width="0.03" height="3.54"/><rect class="gu" x="37.2" y="48.92" width="0.03" height="3.54"/><rect class="gv" x="37.23" y="48.92" width="0.03" height="3.54"/><rect class="gw" x="37.26" y="48.92" width="0.03" height="3.54"/><rect class="gx" x="37.3" y="48.92" width="0.03" height="3.54"/><rect class="gy" x="37.33" y="48.92" width="0.03" height="3.54"/><rect class="gz" x="37.36" y="48.92" width="0.03" height="3.54"/><rect class="ha" x="37.39" y="48.92" width="0.03" height="3.54"/><rect class="hb" x="37.42" y="48.92" width="0.03" height="3.54"/><rect class="hc" x="37.45" y="48.92" width="0.03" height="3.54"/><rect class="hd" x="37.49" y="48.92" width="0.03" height="3.54"/><rect class="he" x="37.52" y="48.92" width="0.03" height="3.54"/><rect class="hf" x="37.55" y="48.92" width="0.03" height="3.54"/><rect class="hg" x="37.58" y="48.92" width="0.03" height="3.54"/><rect class="hh" x="37.61" y="48.92" width="0.03" height="3.54"/><rect class="hi" x="37.64" y="48.92" width="0.03" height="3.54"/><rect class="hj" x="37.68" y="48.92" width="0.03" height="3.54"/><rect class="hk" x="37.71" y="48.92" width="0.03" height="3.54"/><rect class="hl" x="37.74" y="48.92" width="0.03" height="3.54"/><path class="hl" d="M37.77,52.46v0Z"/></g><path class="e" d="M30.89,46c-.5.86-1.36,1-1.73,1.43s-.1.46.1.26a.77.77,0,0,1,.37-.26A1.88,1.88,0,0,1,30,48.8c.1.1.1.23.2.3a2.24,2.24,0,0,0-.44-1.77,5.29,5.29,0,0,1,.67-.46c.33.66.7,1.36,1.53,1.4a2.1,2.1,0,0,1-1.26-1.6c.23-.3.23-.47.16-.63"/><path class="hm" d="M39.1,15.43C32.52,19.09,27.53,20,19.75,17.09c-1.34,8.32-1.2,15.8,1.06,23H39.1Z"/><path class="hn" d="M39.1,16.8c-6,3.59-12.31,4.22-18.39,1.89-.93,7.22-.8,14.5,1.46,21.38H39.1Z"/><path class="ho" d="M21.41,37.38a27.87,27.87,0,0,0,.76,2.69H39.1v-3c-5.89.4-11.91-.36-17.69.27"/><path class="hp" d="M34.7,37.79l-.07-1-.29-.37-.29-6.48.51-.48L34.63,28s-.32-.1-.89-.23v.56c-.25-.05-.53-.11-.85-.16v-.57l-1.27-.18V28l-.85-.08v-.56a6.15,6.15,0,0,0-1.4,0v.56l-.85.08v-.57l-1.27.18v.57c-.32.05-.6.11-.85.16V27.8c-.57.13-.89.23-.89.23l.07,1.41.51.48L25.8,36.4l-.29.37-.07,1a12.24,12.24,0,0,0,4.57.86h.12A12.18,12.18,0,0,0,34.7,37.79Z"/><path class="hq" d="M30.07,31.67c-2.15,0-2.21,4.45-2.09,6.82a12.39,12.39,0,0,0,2,.16h.12a12.39,12.39,0,0,0,2-.16C32.28,36.12,32.22,31.67,30.07,31.67Z"/><path class="hr" d="M30.07,32.29c-1.93,0-1.68,4.85-1.57,6.27a11.91,11.91,0,0,0,1.51.09h.12a11.63,11.63,0,0,0,1.5-.09C31.75,37.14,32,32.29,30.07,32.29Z"/><path class="hm" d="M39.08,66.05v-26H57.33c-3.26,10.34-10.07,20.25-18.25,26"/><path class="hs" d="M39.11,64.32C45.23,60.19,52.48,50.71,56,40.07H39.11Z"/><path class="ht" d="M44.1,46.15s-2.51-2.21-.73-3.31,4.19-.61,5.12-2c-.42,1.95,1.06,3.7-2.16,5.48Z"/><path class="j" d="M44.34,46.17s-1.9-1.67-.55-2.51,3.18-.46,3.88-1.5c-.32,1.48.8,2.8-1.64,4.15Z"/><path class="hu" d="M44.84,46.22s-1.06-1.11.34-1.68a9.21,9.21,0,0,0,1.07-.33s.06,1.86-.77,2.06Z"/><path class="c" d="M46.85,46.4l-1.78-.21-1.78-.11s-1,.52-.54,1.37c.6.21.66.61.66.61l.21,8.75s-.08,1.55.35,1.62.64-1.54.64-1.54l1.77-8.57s.13-.37.76-.47C47.79,47.1,46.85,46.4,46.85,46.4Z"/><path class="hv" d="M43.48,51.23s-1,.13-1,.31a1,1,0,0,0,.28,1c-.45-.08-1,0-.54.91-.38.49-.35,1,.22,1.16-.11.53-.09.87,1.19,1.22v-.41s.91-.11,1-.35a.54.54,0,0,0-.14-.42.48.48,0,0,0,.33-.68c.19-.17.36-1-.27-1-.41,0-.71.15-.88-.39A11.12,11.12,0,0,1,43.48,51.23Z"/><path class="hv" d="M48.36,54.86c-.35-.36-1.3-1.72-1.47-1.87s-.62-1.3-.92-1.45A3.29,3.29,0,0,1,45.3,51s-1-1.21-1.16-1.13-.16.18-.2.94c0,.48.63.79.64.74a1.09,1.09,0,0,0,.57.88,2,2,0,0,0,.07,1.46l-.47,2.34s1,.19,1.21,0a5.69,5.69,0,0,1,.71.82s.45-.55.92-1.17C47.87,55.54,48.15,55.16,48.36,54.86Z"/><path class="e" d="M39.15,15.43C45.7,19.09,50.69,20,58.47,17.09c1.33,8.32,1.2,15.8-1.07,23H39.15Z"/><path class="d" d="M39.15,16.8a20.34,20.34,0,0,0,18.36,1.89c.89,7.22.76,14.5-1.5,21.38H39.15Z"/><path class="j" d="M39.15,34.19,52.25,20a26.93,26.93,0,0,0,5.26-1.26c.19,1.46.36,3,.43,4.59L42.47,40.07H39.15Z"/><path class="hw" d="M49,25.57l3.66-.23c.1,0,.17.07.23.2a.72.72,0,0,0,.67.4c.53,0,.9-.6.73-.7s-.23.4-.73.4-.5-.63-.8-.6L49,25V22.58c0-.7-.53-1.6-.79-1.6a2.19,2.19,0,0,0-.83,1.6V25L44,25c-.33,0-.3.6-.77.6s-.56-.5-.76-.4.2.7.73.7a.78.78,0,0,0,.66-.4.26.26,0,0,1,.21-.2l3.34.23v9a.51.51,0,0,0,.49.5h.64a.51.51,0,0,0,.49-.5Z"/><path class="hx" d="M48.13,38.18c.19-.17.4-.27.46-.17a.29.29,0,0,1-.2.46c-.3.07-.23-.23-.26-.29"/><path class="hx" d="M47.79,37.64c.17-.26.84-.43,1-.53a.43.43,0,0,1-.26.7c-.3,0-.37.24-.47.24a.28.28,0,0,1-.3-.14.41.41,0,0,1,0-.27"/><path class="hx" d="M47.69,36.88a4.41,4.41,0,0,1,1.14-.53.43.43,0,0,1-.14.7,4.62,4.62,0,0,0-.83.4c-.2.16-.37-.34-.17-.57"/><path class="hx" d="M47.59,36.11c.17-.16,1-.39,1.34-.56a.39.39,0,0,1-.07.66,5.8,5.8,0,0,0-1.07.44c-.2.13-.39-.34-.2-.54"/><path class="hx" d="M51.65,34.29h3.46s.1,1.52-1.7,1.52A1.55,1.55,0,0,1,51.65,34.29Z"/><polygon class="hx" points="53.28 25.57 51.65 34.29 51.81 34.29 53.41 25.64 53.28 25.57"/><polygon class="hx" points="53.78 25.57 55.08 34.29 54.93 34.29 53.65 25.64 53.78 25.57"/><path class="hx" d="M41.33,34.29h3.45s.11,1.52-1.69,1.52A1.54,1.54,0,0,1,41.33,34.29Z"/><polygon class="hx" points="42.96 25.57 41.33 34.29 41.48 34.29 43.09 25.64 42.96 25.57"/><polygon class="hx" points="43.46 25.57 44.76 34.29 44.6 34.29 43.33 25.64 43.46 25.57"/><path class="hy" d="M48.23,21V35s-.83.12-.83-.27V22.47S47.75,21.07,48.23,21Z"/><path class="hx" d="M48.93,35.45s-1.3.53-1.3.46-.1-.23,0-.43a1.4,1.4,0,0,1-.1-.16c-.57-.27-.83-.37-1-.77s0-.86.36-.86a.23.23,0,1,1,0,.46s-.06,0-.13-.06c.07.6.93.7,1.53-.17.53.87,1.73.8,1.46.1a.3.3,0,0,1-.23.13.25.25,0,0,1-.23-.23.28.28,0,0,1,.23-.23.67.67,0,0,1,.5,1,1.53,1.53,0,0,1-1,.67s0,.1,0,.13"/><path class="hz" d="M31,21.68l.57-.13L31,21.43l.53-.24-.6,0,.44-.39L30.8,21l.31-.49-.47.33.16-.56-.38.43v-.59l-.26.52h0v-.46h.16V20h-.16v-.17H30V20h-.17v.16H30v.46h0l-.27-.52,0,.58-.41-.45.22.56h0l-.49-.3.29.48-.53-.17.41.38-.57,0,.52.24-.56.12.57.15h0l-.56.25.6,0-.43.39.56-.19h0l-.3.49.49-.31h0l-.19.56.44-.43h0a1.26,1.26,0,0,0,.28,0,.94.94,0,0,0,.3-.05h0l.45.44-.2-.58.51.33-.35-.48.58.18-.46-.38h.6Z"/><path class="b" d="M31.39,23.78c-.06-.12-.17-.29-.28-.46s0-.29-.13-.29a.23.23,0,0,1,0-.11A.28.28,0,0,0,31,22.8s0-.06,0-.06l.11-.25-.21.08-.08-.17-.11.16-.17-.07,0,.09-.14,0s.05-.1.06-.13a7.39,7.39,0,0,0-.13-.75c0-.05.19-.27.19-.27a.37.37,0,0,0-.16,0,.28.28,0,0,0-.05-.11.71.71,0,0,0-.14.14.22.22,0,0,0-.06-.18c.05-.16-.07-.18-.07-.18s-.12,0-.07.18a.22.22,0,0,0-.06.18.49.49,0,0,0-.14-.14.28.28,0,0,0-.05.11.37.37,0,0,0-.16,0s.19.22.19.27a7.39,7.39,0,0,0-.13.75s0,.12.07.13a.36.36,0,0,0-.32.17c-.08.15-.5.77-.64,1.06s-1.4,2.61-1.4,2.61.11.14.24.1c0,.14.1.14.2.1,0,.17.12.18.19.14a.15.15,0,0,0,.21.1c0,.15.18.1.22.08a.17.17,0,0,0,.26.09c.1.12.14.1.21.07a.18.18,0,0,0,.24.05.19.19,0,0,0,.24,0,.2.2,0,0,0,.23,0c.09.1.24,0,.24,0a.55.55,0,0,0,.46,0s.15.08.24,0a.2.2,0,0,0,.23,0,.19.19,0,0,0,.24,0,.18.18,0,0,0,.24-.05c.07,0,.11.05.21-.07a.17.17,0,0,0,.26-.09s.18.07.22-.08a.15.15,0,0,0,.21-.1c.07,0,.18,0,.2-.14.09,0,.18,0,.19-.1.13,0,.24-.1.24-.1S31.53,24.07,31.39,23.78Z"/><path class="ia" d="M31.46,27c-.06,0-.14-.09-.09-.19-.12-.07-.05-.24-.05-.24a.23.23,0,0,1,0-.24.2.2,0,0,1-.05-.3.2.2,0,0,1,0-.29.17.17,0,0,1-.06-.27s-.18-.13,0-.28a.19.19,0,0,1-.06-.29s-.18-.2-.06-.31a.22.22,0,0,1-.05-.29.18.18,0,0,1-.05-.26c-.06,0-.11-.19-.05-.26s-.11-.07-.11-.18-.13-.16-.13-.16-.13,0-.11-.21a.13.13,0,0,1-.11-.18.2.2,0,0,1-.1-.19.3.3,0,0,1,0-.3.55.55,0,0,1-.4,0,.28.28,0,0,1,0,.3.2.2,0,0,1-.1.19.13.13,0,0,1-.1.18c0,.2-.11.21-.11.21s0,.17-.14.16-.05.18-.1.18,0,.25-.05.26a.18.18,0,0,1-.05.26.22.22,0,0,1-.06.29c.13.11,0,.28-.05.31a.2.2,0,0,1-.07.29c.15.15,0,.28,0,.28a.17.17,0,0,1-.05.27.2.2,0,0,1,0,.29.2.2,0,0,1-.06.3.21.21,0,0,1,0,.24s.08.17-.05.24c.06.1,0,.15-.08.19s.13.09.21.06a.16.16,0,0,0,.23.05.19.19,0,0,0,.24,0,.2.2,0,0,0,.23,0c.09.1.24,0,.24,0a.55.55,0,0,0,.46,0s.15.08.24,0a.22.22,0,0,0,.24,0,.17.17,0,0,0,.23,0,.18.18,0,0,0,.24-.05C31.32,27.1,31.36,27.12,31.46,27Z"/><path class="ib" d="M30.28,21.69h-.41s-.21.81.2.84S30.28,21.69,30.28,21.69Z"/></svg>