<svg xmlns="http://www.w3.org/2000/svg" viewBox="0 0 74 80.9463"><defs><style>.a{fill:none;stroke:#fff;stroke-miterlimit:10;}.b{fill:#fff;}.c{fill:#d91519;}</style></defs><title>cables</title><line class="a" y1="43.9463" x2="74" y2="43.9463"/><rect class="b" x="28.2031" y="17.722" width="17.7333" height="62.5066"/><path class="c" d="M46.57,80.9463h-19V17.0045h19ZM28.8364,79.5112H45.3031V18.44H28.8364Z"/><path class="b" d="M46.9666,59.547l-19.605,2.0822A1.0655,1.0655,0,0,1,26.2532,60.58h0a1.13,1.13,0,0,1,.92-1.2649l19.6049-2.0823a1.0657,1.0657,0,0,1,1.1085,1.05h0A1.13,1.13,0,0,1,46.9666,59.547Z"/><path class="c" d="M27.2637,62.4091a1.5623,1.5623,0,0,1-1.0805-.4464,2.02,2.02,0,0,1-.606-1.3113,2.1125,2.1125,0,0,1,.3839-1.4165,1.6343,1.6343,0,0,1,1.1494-.6916L46.715,56.461a1.55,1.55,0,0,1,1.2412.4381,2.0188,2.0188,0,0,1,.606,1.3113,2.112,2.112,0,0,1-.3839,1.4165,1.6341,1.6341,0,0,1-1.1493.6916L27.4245,62.4008C27.37,62.4061,27.3171,62.4091,27.2637,62.4091Zm19.61-4.4068a.2413.2413,0,0,0-.0325.0023L27.2358,60.0869a.329.329,0,0,0-.23.1377.4221.4221,0,0,0-.0769.283.4029.4029,0,0,0,.1213.2626.302.302,0,0,0,.2477.087l19.6061-2.0823a.3289.3289,0,0,0,.2291-.1378.4218.4218,0,0,0,.0769-.2829.4031.4031,0,0,0-.1213-.2626A.3147.3147,0,0,0,46.8738,58.0023Z"/><path class="b" d="M46.9666,64.9708,27.3616,67.053a1.0655,1.0655,0,0,1-1.1084-1.0495h0a1.13,1.13,0,0,1,.92-1.265l19.6049-2.0822a1.0656,1.0656,0,0,1,1.1085,1.05h0A1.13,1.13,0,0,1,46.9666,64.9708Z"/><path class="c" d="M27.2637,67.8329a1.562,1.562,0,0,1-1.0805-.4465,2.02,2.02,0,0,1-.606-1.3113,2.1122,2.1122,0,0,1,.3839-1.4164,1.634,1.634,0,0,1,1.1494-.6916L46.715,61.8847a1.5427,1.5427,0,0,1,1.2412.4381,2.019,2.019,0,0,1,.606,1.3113,2.1118,2.1118,0,0,1-.3839,1.4165,1.6341,1.6341,0,0,1-1.1493.6916L27.4245,67.8245C27.37,67.83,27.3171,67.8329,27.2637,67.8329Zm19.61-4.4068a.2409.2409,0,0,0-.0325.0022L27.2358,65.5107a.3283.3283,0,0,0-.23.1377.4219.4219,0,0,0-.0769.283.4026.4026,0,0,0,.1213.2625.29.29,0,0,0,.2477.0871l19.6061-2.0824a.3285.3285,0,0,0,.2291-.1377.4221.4221,0,0,0,.0769-.283.4028.4028,0,0,0-.1213-.2625A.3142.3142,0,0,0,46.8738,63.4261Z"/><path class="b" d="M46.9666,70.3945l-19.605,2.0823a1.0656,1.0656,0,0,1-1.1084-1.05h0a1.13,1.13,0,0,1,.92-1.2649L46.7778,68.08a1.0657,1.0657,0,0,1,1.1085,1.05h0A1.13,1.13,0,0,1,46.9666,70.3945Z"/><path class="c" d="M27.2637,73.2566a1.5623,1.5623,0,0,1-1.0805-.4464,2.02,2.02,0,0,1-.606-1.3113,2.1125,2.1125,0,0,1,.3839-1.4165,1.6343,1.6343,0,0,1,1.1494-.6916L46.715,67.3085a1.5608,1.5608,0,0,1,1.2412.4381,2.0188,2.0188,0,0,1,.606,1.3113,2.112,2.112,0,0,1-.3839,1.4165,1.6341,1.6341,0,0,1-1.1493.6916L27.4245,73.2483C27.37,73.2536,27.3171,73.2566,27.2637,73.2566Zm19.61-4.4068a.2413.2413,0,0,0-.0325.0023L27.2358,70.9344a.329.329,0,0,0-.23.1377.4223.4223,0,0,0-.0769.283.4026.4026,0,0,0,.1213.2626.31.31,0,0,0,.2477.087l19.6061-2.0823a.3291.3291,0,0,0,.2291-.1377.4223.4223,0,0,0,.0769-.283.4031.4031,0,0,0-.1213-.2626A.3147.3147,0,0,0,46.8738,68.85Z"/><path class="b" d="M46.9666,75.8183l-19.605,2.0822a1.0655,1.0655,0,0,1-1.1084-1.0495h0a1.13,1.13,0,0,1,.92-1.265l19.6049-2.0822a1.0656,1.0656,0,0,1,1.1085,1.0495h0A1.13,1.13,0,0,1,46.9666,75.8183Z"/><path class="c" d="M27.2637,78.68a1.5623,1.5623,0,0,1-1.0805-.4464,2.02,2.02,0,0,1-.606-1.3113,2.1123,2.1123,0,0,1,.3839-1.4165,1.6343,1.6343,0,0,1,1.1494-.6916L46.715,72.7323a1.5577,1.5577,0,0,1,1.2412.4381,2.0185,2.0185,0,0,1,.606,1.3113,2.1117,2.1117,0,0,1-.3839,1.4164,1.6338,1.6338,0,0,1-1.1493.6916L27.4245,78.6721C27.37,78.6774,27.3171,78.68,27.2637,78.68Zm19.61-4.4068a.2409.2409,0,0,0-.0325.0022L27.2358,76.3582a.3283.3283,0,0,0-.23.1377.4221.4221,0,0,0-.0769.283.4029.4029,0,0,0,.1213.2626.2951.2951,0,0,0,.2477.087l19.6061-2.0824a.3285.3285,0,0,0,.2291-.1377.4219.4219,0,0,0,.0769-.283.4031.4031,0,0,0-.1213-.2625A.3147.3147,0,0,0,46.8738,74.2736Z"/><path class="b" d="M49.7809.7332s-9.9423,5.682-10.0075,17.0461"/><path class="c" d="M40.5481,17.7838l-1.55-.009C39.0658,6.0979,48.9747.3012,49.3965.0605l.7695,1.3454C50.07,1.46,40.61,7.0173,40.5481,17.7838Z"/><path class="b" d="M24.277.7332s9.9423,5.682,10.0075,17.0461"/><path class="c" d="M33.51,17.7838C33.448,7.0173,23.9874,1.46,23.8917,1.4059l.77-1.3454c.4219.2407,10.3311,6.0374,10.3981,17.7143Z"/><line class="b" x1="36.9963" y1="17.7793" x2="36.9963" y2="1.8696"/><rect class="c" x="36.2215" y="1.8697" width="1.5496" height="15.9096"/><line class="b" x1="36.9963" y1="1.508" x2="36.9963" y2="2.2829"/><rect class="c" x="36.6089" y="1.508" width="0.7748" height="0.7748"/><line class="b" x1="23.8659" y1="0.2495" x2="24.8487" y2="1.417"/><rect class="c" x="23.9698" y="0.0705" width="0.7749" height="1.5259" transform="translate(5.1843 15.879) rotate(-40.082)"/><line class="b" x1="50.3917" y1="0.322" x2="49.1234" y2="1.8288"/><rect class="c" x="48.7728" y="0.5757" width="1.9694" height="1.0001" transform="translate(16.8665 38.4273) rotate(-49.8721)"/></svg>