<svg xmlns="http://www.w3.org/2000/svg" viewBox="0 0 525.7645 523.3407"><defs><style>.a,.b,.e,.g{fill:none;}.a,.b,.d,.e,.f,.g,.h{stroke:#fff;stroke-width:3px;}.a,.g{stroke-linecap:round;}.a,.b,.d,.e,.f,.h{stroke-miterlimit:10;}.c,.d,.f,.h{fill:#fff;}.d,.e{opacity:0.38;}.f{opacity:0.51;}.g{stroke-linejoin:round;}.h{opacity:0.53;}</style></defs><title>casco1</title><path class="a" d="M65,211.5s-4,8.3077,1,12"/><path class="b" d="M187,282.5s-32.0242-8.9623-43-16c-10.7292-6.88-65-12-84,21-1.3825,2.4012-4.328,6.312-5,9-3,12-16.6595,49.92-23.5,46.5a49.5034,49.5034,0,0,1-12-8s-2-3,1-7,15-14,7-22-26-13-26-24v-7.0631a15.0319,15.0319,0,0,1,4.1007-10.3335A136.2245,136.2245,0,0,1,18.5,253c16-13,34-33,38-39s10-19-1-42c0,0-4.5-16.5,2.5-24.5s16-29,19-42,22.644-58.7966,44-71c21-12,34-25,98-33h73s88.2858,5.6959,134.4414,38.3611a75.5042,75.5042,0,0,1,5.9909,4.7567C440.8793,51.9839,467.3836,75.96,472,81.5c5,6,55,70,52,125,0,0,2,55-5,82s-28,76-42,69-97-16-126-35c0,0,1-6,2-15s9-46-5-62-13-25-31-27-30,2-32,4,1-5-28-1S215,233.5,187,282.5Z"/><path class="a" d="M62,202.5s12,10,15,11c2.81.9366,2.1106,8.0145-7.0283,12.1944a4.6827,4.6827,0,0,0-2.0305,6.7156q.0288.045.0588.09c2,3,1.5689,12.6466,0,15-2,3-8,5-9,29"/><path class="a" d="M247,366.5s11-1,13,9,0,13,13,11,49-20,52-25,21.055-11.1055,26.0275-40.5528S359.5072,258.0533,348,245.5c-11-12-9.709-17.4156-18.8545-23.2078s-27.9008-7.29-44.1455.2078c-13,6-18,14-18,14"/><path class="b" d="M278.5,259s2-31,25.5-24.5c27.4136,7.5825,32,24,33,26s8.1165,21.4174,5.5,34.5c-2,10-5.5,5.5-5.5,18.5s0,21-5,25-14,9-15,11"/><path class="b" d="M288,263.5l17,16s7,6,10,12,5,13,6,14,4,18-9,21-30,4-31,15"/><path class="b" d="M296,309.5s10-8,13-1,6,7,7,7"/><circle class="c" cx="279" cy="306.5" r="8"/><path class="b" d="M263,288.5s-.5,7.5.5,11.5,4,6-1,14-4,12-4,12"/><path class="d" d="M40.4893,334.1758a.7372.7372,0,0,0,.3981,1.1069c2.9682.9368,12.9885,3.16,31.1126-1.7827,22-6,29-8,36-13s18-18,25-24,21.8332-17.86,23.9166-23.93c0,0-10.9166-4.07-12.9166-6.07s-20.5354-7.5846-39.259-4.7338c-18.5786,2.8287-36.804,11.8179-44.876,25.69-6.7371,11.5781-5.5025,11.5661-7.14,17.4837C51.2605,310.2329,43.7984,329.071,40.4893,334.1758Z"/><path class="e" d="M40.4893,334.1758a.7372.7372,0,0,0,.3981,1.1069c2.9682.9368,12.9885,3.16,31.1126-1.7827,22-6,29-8,36-13s18-18,25-24,21.8332-17.86,23.9166-23.93c0,0-10.9166-4.07-12.9166-6.07s-20.5354-7.5846-39.259-4.7338c-18.5786,2.8287-36.804,11.8179-44.876,25.69-6.7371,11.5781-5.5025,11.5661-7.14,17.4837C51.2605,310.2329,43.7984,329.071,40.4893,334.1758Z"/><path class="b" d="M260.5469,378.5949S239,377.5,217,362.5s-33-35-32-60,2.7486-21.3049,2.7486-21.3049,24.3906-47.741,48.321-54.718S273,218.5,279,220.5l6,2s21.4969-10.9421,40.7484-1.9711c0,0,8.5342,3.9719,12.3929,11.4719a50.61,50.61,0,0,0,8.95,12.4906c.9086,1.0086,7.054,5.335,7.9813,20.1718S354,299.5,353,307.5s-2,15-2,15a54.2462,54.2462,0,0,1-22.6009,35.6767,18.4079,18.4079,0,0,0-4.697,4.734c-2.7021,3.5893-47.9376,28.6247-60.82,23.107C262.8822,386.0177,260.0937,383.69,260.5469,378.5949Z"/><path class="f" d="M260.5469,378.5949S239,377.5,217,362.5s-33-35-32-60,2.7486-21.3049,2.7486-21.3049,24.3906-47.741,48.321-54.718S273,218.5,279,220.5l6,2s21.4969-10.9421,40.7484-1.9711c0,0,8.5342,3.9719,12.3929,11.4719a50.61,50.61,0,0,0,8.95,12.4906c.9086,1.0086,7.054,5.335,7.9813,20.1718S354,299.5,353,307.5s-2,15-2,15a54.2462,54.2462,0,0,1-22.6009,35.6767,18.4079,18.4079,0,0,0-4.697,4.734c-2.7021,3.5893-47.9376,28.6247-60.82,23.107C262.8822,386.0177,260.0937,383.69,260.5469,378.5949Z"/><path class="c" d="M441.0547,513.1229s.5374-2.707-4.2239-3.6593-16.3654-.1161-16.277,4.2272A35.786,35.786,0,0,0,441.0547,513.1229Z"/><path class="g" d="M448.95,509.5354s-6.4052-5.7322-17.8324-4.78-18.2242,4.9913-18.2242,4.9913"/><path class="g" d="M403.8445,506.7305s27.1454-18.0969,50.2693-1.0054"/><path class="h" d="M324.6588,363.5v86.7112H273.8841V387.8059S315.3341,372.3469,324.6588,363.5Z"/><path class="b" d="M280.3488,493.0061s20.7517,12.4367,42.1713,3.2224"/><path class="b" d="M323.382,500.5119s-25.0894,9.1131-43.7776-3.2364"/><path class="b" d="M323.382,504.4462s-25.0894,9.1132-43.7776-3.2363"/><path class="b" d="M323.382,508.3806s-25.0894,9.1131-43.7776-3.2364"/><path class="b" d="M319.9315,513.8757s-21.6389,8.4152-40.3271-3.9343"/><path class="h" d="M325.5821,515.7081a50.0359,50.0359,0,0,1-48.0053,0V487.1929l48.0053-1.901Z"/><path class="b" d="M324.6588,363.5v86.7112H273.8841V387.8059S315.3341,372.3469,324.6588,363.5Z"/><path class="b" d="M325.5821,515.7081a50.0359,50.0359,0,0,1-48.0053,0V487.1929l48.0053-1.901Z"/><path class="c" d="M318.0074,451.0571c1.7106.218,14.9261,1.93,21.6178,3.6031,4.6346,1.1586,5.17,1.4348,14.1124,6.0459,4.2551,2.194,10.6854,5.51,20.3543,10.3442,9.8165,4.9082,18.3925,7.397,25.49,7.397,6.2849,0,10.2261-1.9666,12.4255-3.616a7.5776,7.5776,0,0,1,4.5337-1.6179h37.1967c5.9547,5.2214,7.6733,12.42,5.1079,21.4133a47.4353,47.4353,0,0,1-5.8357,12.4507c-2.0145.3323-5.8678,1.281-12.9913,3.8716a26.562,26.562,0,0,1-9.1031,1.6067,24.289,24.289,0,0,1-8.761-1.5288,2.9891,2.9891,0,0,0-.5272-.1778l-28.4781-6.7422C381.0048,500.4587,369.89,492.4758,362.53,487.19c-5.5054-3.9544-7.3383-5.2054-9.253-5.2054-3.7078,0-24.4409,1.719-26.0313,1.8513l-47.3357,1.82c-8.6976-3.31-13.7254-7.7915-14.9484-13.3272-1.9391-8.7771,5.8-18.3689,8.3843-21.2715h44.6612m.1892-3H272.0378s-27.6953,27.6953,7.3854,40.62l48.0051-1.8462s22.1563-1.8465,25.849-1.8465c3.0406,0,19.852,16.2744,39.0948,22.0218l28.564,6.7624a26.7634,26.7634,0,0,0,9.9794,1.7874,29.5482,29.5482,0,0,0,10.1283-1.7874c10.2289-3.72,13.2186-3.8594,13.61-3.8594.0318,0,.0465.001.0465.001s18.59-24.9258.1266-39.6965H416.541a10.5864,10.5864,0,0,0-6.3336,2.2178c-1.9029,1.427-5.231,3.0161-10.6256,3.0161-5.593,0-13.4071-1.71-24.1483-7.08-29.5416-14.7707-27.6953-14.7707-35.0807-16.6171s-22.1562-3.6927-22.1562-3.6927Z"/></svg>