<svg xmlns="http://www.w3.org/2000/svg" viewBox="0 0 730.7293 667.0762"><defs><style>.a{fill:#757575;}.b{fill:#a3a3a3;}.c,.f,.q{opacity:0.6;}.d,.f{fill:#505050;}.e,.h,.k,.n,.o,.q,.w{fill:none;}.g,.s{fill:#fff;}.g,.h{stroke:#000;}.g,.h,.k,.n,.o,.p,.q,.w{stroke-miterlimit:10;}.i{fill:#878787;}.j{fill:#b2b2b2;}.k{stroke:#d1d1d1;}.k,.n,.o,.p,.q{stroke-width:3px;}.l{opacity:0.64;}.m,.p,.u{fill:#d91519;}.n{stroke:#878787;}.o,.p,.q{stroke:#d91519;}.r{opacity:0.67;}.t{opacity:0.5;}.u{font-size:24.7783px;}.u,.v{font-family:Lato-Italic, Lato;font-style:italic;}.v{font-size:26px;fill:#606060;}.w{stroke:#505050;stroke-width:2px;}</style></defs><title>casco3</title><path class="a" d="M252.4228,290.9168s.3139-1.581-2.467-2.1372-9.5585-.0679-9.5068,2.4689A20.9013,20.9013,0,0,0,252.4228,290.9168Z"/><path class="b" d="M234.1545,289.9353a1.0941,1.0941,0,0,1-.9249-.4862.95.95,0,0,1,.3745-1.3563,31.7237,31.7237,0,0,1,11.9827-3.0508c7.6-.5888,11.9009,2.893,12.0805,3.0411a.94.94,0,0,1,.0845,1.4,1.1359,1.1359,0,0,1-1.5124.08h0c-.0371-.03-3.8275-3.0537-10.4745-2.5456a30.1142,30.1142,0,0,0-11.0662,2.7808A1.1368,1.1368,0,0,1,234.1545,289.9353Z"/><path class="b" d="M229.1233,288.1741a1.0568,1.0568,0,0,1-.8686-.442.9614.9614,0,0,1,.2891-1.3735c.1723-.11,17.4513-10.8378,32.075-.5594a.96.96,0,0,1,.2185,1.386,1.078,1.078,0,0,1-1.4576.2078c-13.4328-9.44-29.5194.5136-29.68.6153A1.0751,1.0751,0,0,1,229.1233,288.1741Z"/><path class="b" d="M184.44,256.1637H154.7847a.9911.9911,0,0,1-.9911-.9911V218.7239a.9906.9906,0,0,1,.6446-.9286c.2407-.09,24.0819-9.0172,29.32-13.9867a.9913.9913,0,0,1,1.6732.7192v50.6448A.9912.9912,0,0,1,184.44,256.1637Zm-28.6646-1.9823h27.6734V206.5836c-6.8565,4.8191-24.05,11.4531-27.6734,12.8262Z"/><g class="c"><path class="d" d="M173.416,284.3485a32.49,32.49,0,0,1-15.0249-3.8977.33.33,0,0,1,.3394-.5666c.12.0716,12.1258,7.1118,24.33,1.8616a.33.33,0,0,1,.2607.6072A24.8956,24.8956,0,0,1,173.416,284.3485Z"/></g><g class="c"><path class="d" d="M171.9564,286.75a25.2136,25.2136,0,0,1-14.0125-3.8136.33.33,0,1,1,.3639-.551c10.6475,7.035,25.1292,1.9077,25.2737,1.8548a.33.33,0,0,1,.2258.6211A38.9742,38.9742,0,0,1,171.9564,286.75Z"/></g><g class="c"><path class="d" d="M171.9571,289.0479a25.2157,25.2157,0,0,1-14.0132-3.8135.33.33,0,1,1,.3639-.551c10.6469,7.035,25.1292,1.9083,25.2737,1.8551a.33.33,0,0,1,.2258.6211A38.9747,38.9747,0,0,1,171.9571,289.0479Z"/></g><g class="c"><path class="d" d="M171.9571,291.3457a25.2132,25.2132,0,0,1-14.0132-3.8135.33.33,0,1,1,.3639-.551c10.652,7.0391,25.1292,1.9077,25.2737,1.8554a.33.33,0,1,1,.2258.6208A38.9747,38.9747,0,0,1,171.9571,291.3457Z"/></g><g class="c"><path class="d" d="M171.8119,294.3a24.8694,24.8694,0,0,1-13.868-3.9654.33.33,0,1,1,.3639-.5511c10.6391,7.0315,23.1263,2.3143,23.2521,2.2655a.33.33,0,0,1,.2394.6156A30.7389,30.7389,0,0,1,171.8119,294.3Z"/></g><path class="b" d="M170.964,298a30.458,30.458,0,0,1-14.4965-3.7025.9917.9917,0,0,1-.5175-.8708V276.7721a.9914.9914,0,0,1,.9518-.99l28.0386-1.1105a1.0089,1.0089,0,0,1,.726.2759.99.99,0,0,1,.3045.7146v17.7651a.991.991,0,0,1-.5168.87,30.4636,30.4636,0,0,1-13.4512,3.6847C171.6532,297.9939,171.306,298,170.964,298Zm-13.0317-5.17a28.2227,28.2227,0,0,0,26.0564.0006V276.6927l-26.0564,1.0321Zm27.0475.5962h0Z"/><path class="b" d="M180.5408,255.8966c1.0535.1344,8.7068,1.128,12.585,2.0976,2.681.67,2.9924.8307,8.193,3.5124,2.4858,1.2818,6.2422,3.2188,11.8906,6.0429,5.7658,2.8829,10.8093,4.3446,14.9906,4.3446a12.03,12.03,0,0,0,7.3953-2.158,4.1987,4.1987,0,0,1,2.51-.8989h21.6381c3.35,2.9806,4.31,7.0823,2.8524,12.2028a27.4237,27.4237,0,0,1-3.3284,7.1372,47.6155,47.6155,0,0,0-7.5284,2.2536,15.2831,15.2831,0,0,1-5.2381.9246,13.98,13.98,0,0,1-5.0234-.873,1.9739,1.9739,0,0,0-.3485-.1176l-16.6264-3.9362c-7.0537-2.1207-13.5238-6.7677-17.8087-9.8454-3.0361-2.1808-4.2928-3.0834-5.5385-3.0834-2.1706,0-14.2468,1.0008-15.2175,1.0815l-27.5953,1.0614c-4.9751-1.9017-7.8491-4.4578-8.544-7.6008-1.0943-4.9493,3.2249-10.3884,4.7753-12.1453h25.967m.1252-1.9823h-26.96S137.5305,270.09,158.02,277.6388l28.038-1.0784s12.9406-1.0784,15.0974-1.0784c1.7759,0,11.5948,9.5053,22.8338,12.8621l16.6832,3.95a15.63,15.63,0,0,0,5.8285,1.044,17.2562,17.2562,0,0,0,5.9156-1.044c5.9744-2.1725,7.7206-2.254,7.9491-2.254l.0271.0005s10.8577-14.5582.0739-23.1853H238.1052a6.1829,6.1829,0,0,0-3.6992,1.2954,10.071,10.071,0,0,1-6.206,1.7616c-3.2667,0-7.8306-.9986-14.1041-4.1353-17.2541-8.6271-16.1757-8.6271-20.4893-9.7055s-12.9406-2.1568-12.9406-2.1568Z"/><g class="c"><path class="e" d="M106.1647,159.5072S87.8852,154.42,81.62,150.4249c-6.1243-3.9051-37.1022-6.8117-47.9474,11.9205-.7892,1.363-2.4705,3.5829-2.8541,5.1088-1.7124,6.8117-9.5093,28.3368-13.4138,26.3953a28.26,28.26,0,0,1-6.85-4.5411s-1.1416-1.703.5708-3.9735,8.5621-7.947,3.9957-12.4881S.2808,165.4674.2808,159.2234v-4.0093a8.5073,8.5073,0,0,1,2.3407-5.8657,77.59,77.59,0,0,1,7.3629-6.5866c9.1329-7.3794,19.4073-18.7322,21.6905-22.138s5.7081-10.7852-.5708-23.841c0,0-2.5686-9.366,1.427-13.9072S41.664,66.414,43.3764,59.0347,56.3017,25.6593,68.4917,18.7322C80.4786,11.9205,87.899,4.5411,124.43,0H166.099s50.3938,3.2332,76.74,21.7753a43.0747,43.0747,0,0,1,3.42,2.7c4.8216,4.1814,19.95,17.7913,22.5853,20.9359,2.854,3.4058,31.3942,39.7349,29.6818,70.9552,0,0,1.1416,31.22-2.854,46.5465s-15.9825,43.1408-23.9738,39.1673-55.934-8.9633-72.4873-19.7484c0,0,.5708-3.4059,1.1416-8.5147s4.5664-27.8144-2.2832-35.1937c-7.944-8.5583-7.4251-14.31-17.6995-15.4454s-18.2611,2.39-19.4027,3.5249,1.7078-4.0925-14.8455-1.8219S122.1472,131.6928,106.1647,159.5072Z"/></g><g class="c"><path class="d" d="M41.0883,109.3922s-2.0208,4.1737.5051,6.0286"/><path class="d" d="M41.5926,116.4179a1.0037,1.0037,0,0,1-.5949-.1948c-3.1572-2.3192-.91-7.0628-.8126-7.2633a1.0073,1.0073,0,0,1,1.3383-.4661.9952.9952,0,0,1,.469,1.33c-.03.063-1.6194,3.4616.1965,4.7949a.994.994,0,0,1,.2108,1.3949A1.004,1.004,0,0,1,41.5926,116.4179Z"/></g><g class="c"><path class="d" d="M39.01,144l-.0465-.0006a1.0262,1.0262,0,0,1-1.0508-1.0082c.51-10.7991,3.1056-13.89,4.5-15.5506.1386-.1645.2629-.312.3684-.4514.6191-.82.87-5.0944,0-6.2457l-.0436-.0593a2.8788,2.8788,0,0,1-.4134-2.6291,3.42,3.42,0,0,1,2.0044-2.051c2.6272-1.06,3.797-2.5069,4.016-3.5075a.8244.8244,0,0,0-.0461-.6576c-1.74-.5056-7.49-4.6947-8.6251-5.5288a.8923.8923,0,0,1-.14-1.3638,1.2,1.2,0,0,1,1.546-.1242c2.69,1.9779,6.9319,4.8965,7.94,5.1934a2.1284,2.1284,0,0,1,1.5525,1.9987c.0986,1.621-1.2384,4.1-5.33,5.7514a1.3891,1.3891,0,0,0-.8118.836,1.1219,1.1219,0,0,0,.1561,1.0384c1.3595,1.7995,1.17,6.9033.0215,8.4235-.1233.1633-.2687.3367-.4309.53-1.2545,1.4937-3.5891,4.2735-4.0711,14.4781A1.0455,1.0455,0,0,1,39.01,144Z"/></g><path class="f" d="M298.2444,118.4856c1.7126-31.22-26.8276-67.549-29.6817-70.9551-2.6351-3.145-17.7637-16.7548-22.5854-20.936a43.0161,43.0161,0,0,0-3.42-2.7C216.212,5.3521,165.8183,2.1192,165.8183,2.1192H124.15C87.6183,6.66,80.1978,14.0394,68.211,20.8508c-12.19,6.9276-23.403,32.9236-25.1154,40.3026s-6.85,19.3-10.8453,23.8411-1.427,13.9074-1.427,13.9074c6.2789,13.0554,2.8541,20.4351.5708,23.8412s-12.5576,14.7587-21.69,22.1377a77.6607,77.6607,0,0,0-7.3629,6.5861A8.5091,8.5091,0,0,0,0,157.3329v4.0093c0,6.2439,10.2744,9.0824,14.8408,13.6236s-2.2832,10.2176-3.9956,12.4878-.5708,3.9737-.5708,3.9737a28.2477,28.2477,0,0,0,6.85,4.5412,1.16,1.16,0,0,0,.5227.123c1.1874,0,2.6495-1.735,4.1633-4.3413a13.201,13.201,0,0,0,3.6494.4068,56.8832,56.8832,0,0,0,14.2191-2.3163c12.6729-3.4377,16.16-4.4594,20.3436-7.43a91.5832,91.5832,0,0,0,9.02-8.2145c2.2058-2.17,4.2884-4.22,5.8947-5.59.6047-.5153,1.3135-1.1056,2.0849-1.748,5.4791-4.5625,10.1611-8.0614,11.7776-10.8236,7.6386,2.9629,17.084,5.5911,17.084,5.5911,15.9825-27.8141,23.403-32.3553,39.9562-34.6255a54.1678,54.1678,0,0,1,7.2523-.5786c7.3674,0,6.9326,2.5637,7.3468,2.5637.0578,0,.1321-.05.2464-.1636.9866-.9812,7.0859-3.7475,15.3562-3.7468a36.8969,36.8969,0,0,1,4.0465.2219c10.2745,1.1351,9.7556,6.887,17.7,15.4452,6.85,7.38,2.854,30.085,2.2832,35.1945s-1.1416,8.5141-1.1416,8.5141c16.5532,10.7851,64.496,15.775,72.4874,19.7479a3.5871,3.5871,0,0,0,1.618.3848c7.9088,0,18.6218-25.2291,22.3556-39.5515C299.386,149.7058,298.2444,118.4856,298.2444,118.4856ZM86.24,154.9973c-1.9082,2.8372-7.2868,7.3152-10.6715,10.1344-.7789.648-1.4949,1.2437-2.1055,1.7646-1.6675,1.4209-3.7782,3.5-6.0131,5.699a90.6755,90.6755,0,0,1-8.7445,7.9816c-3.8662,2.7464-7.2593,3.7366-19.6222,7.09-9.3877,2.5472-14.2644,2.0971-16.0473,1.8175a118.9962,118.9962,0,0,0,7.5025-19.9108c.3836-1.5261,2.0649-3.7455,2.8541-5.1088,6.624-11.4413,20.7558-14.81,32.1507-14.8095,7.2614.0006,13.413,1.3687,15.7967,2.8886A35.19,35.19,0,0,0,86.2493,155Zm206.9578,9.4693a133.5369,133.5369,0,0,1-9.4392,24.6925c-4.9574,9.7111-8.79,13.1708-10.7233,13.1708a1.3166,1.3166,0,0,1-.605-.1457c-3.1642-1.5735-10.8656-3.0639-21.5252-5.1273-16.4514-3.1842-38.75-7.5-49.5059-13.737.2217-1.4821.5715-3.9791.9241-7.1351.06-.5394.16-1.2787.2806-2.1789,1.1014-8.209,3.681-27.4313-3.1509-34.7918a56.1882,56.1882,0,0,1-5.4388-7.0183c-3.1535-4.6092-5.6445-8.25-13.6752-9.1373a39.0872,39.0872,0,0,0-4.2967-.2364,35.0072,35.0072,0,0,0-15.136,3.2054c-1.2753-1.0348-3.5224-1.8587-7.8134-1.8587a56.9827,56.9827,0,0,0-7.5617.6c-17.1251,2.3479-25.1636,7.44-40.7253,34.203-4.6172-1.35-17.4158-5.2462-22.2432-8.3245-3.0437-1.9412-9.8832-3.2446-17.0193-3.2453-7.4825,0-25.7851,1.5522-34.1143,15.9385-.1955.3374-.4786.7737-.7782,1.2354a16.59,16.59,0,0,0-2.31,4.4512,117.7978,117.7978,0,0,1-5.0354,14.4372c-2.8126,6.6864-4.7958,9.4734-5.6752,10.2313a28.2347,28.2347,0,0,1-5.4552-3.5916,1.811,1.811,0,0,1,.4835-1.2987c.2227-.2948.6334-.749,1.0683-1.2306,2.408-2.6633,8.0472-8.901,2.7168-14.2022A35.2135,35.2135,0,0,0,9.8286,168.69c-3.7182-2.2386-7.5631-4.5528-7.5631-7.3481v-4.0093A6.2413,6.2413,0,0,1,3.987,153.015a76.8764,76.8764,0,0,1,7.1453-6.3855c9.2876-7.504,19.7655-19.0841,22.1469-22.6366,4.6542-6.9433,4.5466-15.6458-.3192-25.8688-.5907-2.3087-1.5412-8.7629.9953-11.6454C38.3,81.5411,43.53,69.3034,45.3032,61.6605c1.7309-7.4587,12.6821-32.4034,24.0317-38.8534,1.7073-.97,3.3388-1.9611,4.9166-2.9189C83.7,14.1507,93.4707,8.2174,124.291,4.3722h41.45c2.128.1478,50.4361,3.7153,75.5081,21.3613a40.675,40.675,0,0,1,3.2393,2.5589c5.2821,4.581,19.9163,17.7951,22.3339,20.68.31.3689,30.8924,37.8062,29.16,69.39-.0038.0681-.0045.1361-.0021.2048C295.9916,118.8766,297.0636,149.6371,293.1973,164.4666Z"/><rect class="g" x="591.2806" y="508.9366" width="69.884" height="128.4518" rx="4.7195" transform="translate(53.0601 1199.385) rotate(-90)"/><path class="h" d="M566.3654,545.4306v15.7021a2.0819,2.0819,0,0,0,2.0819,2.0818h0a2.4271,2.4271,0,0,1,2.4271,2.4272v15.0416a2.4272,2.4272,0,0,1-2.4272,2.4272h0a2.0819,2.0819,0,0,0-2.0819,2.0819v15.7019a4.1422,4.1422,0,0,0,4.1422,4.1422h111.43a4.1422,4.1422,0,0,0,4.1422-4.1422V545.4307a4.1422,4.1422,0,0,0-4.1422-4.1422h-111.43A4.1421,4.1421,0,0,0,566.3654,545.4306Z"/><path d="M641.1523,549.0526c.148.0319.2952.0679.4441.095a6.07,6.07,0,0,1,4.25,3.2064,5.7838,5.7838,0,0,1,.59,1.9077,6.4411,6.4411,0,0,1,.03,1.4157,5.8014,5.8014,0,0,1-.77,2.4071,6.0177,6.0177,0,0,1-2.9234,2.5827,5.4087,5.4087,0,0,1-1.7132.4312.9715.9715,0,0,0-.108.0216c-.0037.0832-.01.1588-.01.2345q0,3.448.0019,6.8962,0,4.6879-.0024,9.3759c0,2.0749.0088,4.15-.0024,6.2247a7.783,7.783,0,0,1-1.6764,4.9248,7.6981,7.6981,0,0,1-4.6079,2.86,7.3152,7.3152,0,0,1-1.4816.1547q-8.1363-.0051-16.2725-.0022-2.8411,0-5.6824-.0023a6.5642,6.5642,0,0,1-1.7731-.2823,7.7313,7.7313,0,0,1-3.7466-2.3515,7.5,7.5,0,0,1-1.6441-2.9734,12.5257,12.5257,0,0,1-.2622-1.2558,11.1851,11.1851,0,0,1-.0513-1.9062q-.0081-6.7155-.0016-13.4312,0-3.6549-.0024-7.31a7.3759,7.3759,0,0,1,.4366-2.4449,7.5684,7.5684,0,0,1,1.42-2.4648,7.9864,7.9864,0,0,1,2.07-1.727,8.0852,8.0852,0,0,1,2.65-.9467,5.6064,5.6064,0,0,1,.6654-.0674c1.5132-.0859,3.0277-.0312,4.5417-.0384,1.9026-.009,3.8054-.0044,5.7081-.0043q4.3781,0,8.7559.0023,2.0793,0,4.1585,0h.2479c.0656-.3468.1125-.6769.1921-.9989a5.94,5.94,0,0,1,1.1391-2.288,6.0266,6.0266,0,0,1,2.3354-1.78,5.2615,5.2615,0,0,1,1.5827-.4252.5158.5158,0,0,0,.116-.0407Zm-6.7555,6.3114H624.324q-6.3677,0-12.7353.0024a6.5541,6.5541,0,0,0-.9251.0569,7.3228,7.3228,0,0,0-2.0192.5835,7.137,7.137,0,0,0-3.7609,4.1407,7.5853,7.5853,0,0,0-.3986,2.5025q-.0041,5.2956-.0011,10.5913c0,2.3335-.0051,4.667,0,7,.0028,1.3508.022,2.7017.0316,4.0525a5.602,5.602,0,0,0,.1667,1.2473,7.1074,7.1074,0,0,0,6.9381,5.4965c2.6175.0167,5.2353.0048,7.8529.005,3.1,0,6.2.007,9.3-.0019,1.5658-.0045,3.132.0389,4.6975-.03a6.8107,6.8107,0,0,0,1.7163-.3074,7.1013,7.1013,0,0,0,4.9726-6.7206c.0195-2.3505.0042-4.7014.0042-7.0521q0-3.6165.0006-7.2331,0-4.1848-.0007-8.37c0-.0656-.0118-.1312-.0185-.2021a6.0776,6.0776,0,0,1-5.7478-5.7622Zm10.2147-1.4c-1.0146-.0231-2,.0122-3.01-.0168v-3.0048a19.0966,19.0966,0,0,0-2.2957.0166c0,.3311,0,.6659,0,1.0007,0,.3271.005.6543,0,.9813-.0044.3316.0153.6644-.0163,1.0194h-3.0028a18.01,18.01,0,0,0,.0114,2.2744h3.0085V559.23c.7784.002,1.53.0162,2.2959-.0049,0-.2788,0-.5273,0-.7758,0-.241.0014-.4821.0013-.7231,0-.25-.0034-.4992-.0011-.7488.0024-.2452-.0127-.4917.0124-.751.5184,0,1.008,0,1.4976,0,.4957,0,.9915.0064,1.4986-.0047v-2.2571Z"/><path d="M616.7842,562.9643l5.8364,15.9808.0353-.0068V562.97c.0729-.0066.1307-.0163.1884-.0163,2.6087,0,5.2174-.0109,7.8259.0074a7.0084,7.0084,0,0,1,3.3421.8105,5.7181,5.7181,0,0,1,2.653,2.9477,6.4755,6.4755,0,0,1,.424,1.7163,6.1425,6.1425,0,0,1,.0312,1.1579,5.3931,5.3931,0,0,1-1.4193,3.4,5.6444,5.6444,0,0,1-2.14,1.4361c-.0236.009-.0458.0215-.0967.0456.2327.4864.495.9539.7371,1.4312.2447.4825.4994.96.748,1.44.2528.4883.5026.978.7553,1.4663.2487.4805.5.96.7491,1.44s.4971.9614.7454,1.4422c.247.4782.4938.9566.7529,1.4585h-4.6037l-3.9212-8.003h-2.7767a1.7726,1.7726,0,0,0-.02.1925q-.0014,2.35,0,4.7007,0,1.4593.0011,2.9186c0,.058-.0086.116-.0143.1889h-6.61l-1.1809-3.5369h-7.1387l-1.2161,3.5391h-4.1091c.037-.245,7.1993-19.9486,7.3392-20.1892Zm9.8539,8.8391a.62.62,0,0,0,.0989.0195c1.2547-.0106,2.51-.0242,3.7642-.032a2.8973,2.8973,0,0,0,1.076-.2212,2.4211,2.4211,0,0,0,1.3762-1.3505,2.7871,2.7871,0,0,0,.1852-1.2862,2.4071,2.4071,0,0,0-1.06-1.9106,2.7821,2.7821,0,0,0-1.5981-.497c-1.2213-.0124-2.4429-.0061-3.6644-.0061a1.5509,1.5509,0,0,0-.1784.0209Zm-11.29-2.7339-.0475-.0019-2.4928,7.18c.3687.0407,4.7476.0254,4.9469-.0213Z"/><rect class="i" x="420.9745" y="506.4992" width="2.1342" height="2.1342"/><path class="i" d="M423.1087,502.259h-2.1342V498.02h2.1342Zm0-8.4783h-2.1342v-4.24h2.1342Zm0-8.4794h-2.1342v-4.2391h2.1342Zm0-8.4783h-2.1342v-4.2391h2.1342Zm0-8.4793h-2.1342v-4.2392h2.1342Zm0-8.4784h-2.1342v-4.2391h2.1342Zm0-8.4783h-2.1342v-4.24h2.1342Zm0-8.4794h-2.1342v-4.2391h2.1342Zm0-8.4783h-2.1342V430.19h2.1342Zm0-8.4793h-2.1342v-.986h2.1342Zm0-27.7428h-2.1342v-1.9324h2.1342Zm0-6.1716h-2.1342v-4.2391h2.1342Zm0-8.4783h-2.1342v-4.24h2.1342Zm0-8.4794h-2.1342v-4.2391h2.1342Zm0-8.4783h-2.1342V362.36h2.1342Zm0-8.4794h-2.1342v-4.2391h2.1342Zm0-8.4783h-2.1342v-4.2391h2.1342Zm0-8.4783h-2.1342v-4.24h2.1342Zm0-8.4794h-2.1342v-4.2391h2.1342Z"/><rect class="i" x="420.9745" y="322.0717" width="2.1342" height="2.1342"/><rect class="i" x="390.3959" y="323.0627" width="2.1342" height="2.1342"/><path class="i" d="M392.53,503.25h-2.1342v-4.2391H392.53Zm0-8.4783h-2.1342v-4.24H392.53Zm0-8.4794h-2.1342v-4.2391H392.53Zm0-8.4783h-2.1342v-4.2392H392.53Zm0-8.4794h-2.1342v-4.2391H392.53Zm0-8.4783h-2.1342v-4.2391H392.53Zm0-8.4783h-2.1342v-4.24H392.53Zm0-8.4794h-2.1342V439.66H392.53Zm0-8.4783h-2.1342v-4.2392H392.53Zm0-8.4794h-2.1342V424.964H392.53Zm0-28.7337h-2.1342v-1.8664H392.53Zm0-5.1806h-2.1342v-4.2392H392.53Zm0-8.4783h-2.1342v-4.24H392.53Zm0-8.4794h-2.1342V371.83H392.53Zm0-8.4783h-2.1342v-4.2392H392.53Zm0-8.4794h-2.1342v-4.2391H392.53Zm0-8.4783h-2.1342v-4.2392H392.53Zm0-8.4783h-2.1342v-4.24H392.53Zm0-8.4794h-2.1342v-4.2391H392.53Z"/><rect class="i" x="390.3959" y="507.4902" width="2.1342" height="2.1342"/><polygon class="i" points="423.68 324.24 390.221 324.405 390.221 322.496 423.68 322.331 423.68 324.24"/><rect class="i" x="391.092" y="508.2624" width="31.3206" height="2.1342"/><path class="j" d="M470.6251,393.7352l-.9019-1.7652a3.731,3.731,0,0,0,1.77-1.6268,6.3432,6.3432,0,0,0,.46-1.2775,6.8258,6.8258,0,0,0,.1965-1.3616c-.1491-7.8089.0009-15.7843.4451-23.6454.3281-5.8057.8226-11.6732,1.47-17.4392.2148-4.6559-4.2746-7.0356-4.4653-7.1343l1.4265-1.7284c.991.9909,5.2937,3.0087,5.014,9.0195-.6494,5.794-1.141,11.6248-1.4671,17.3946-.44,7.8109-.5894,15.7359-.4423,23.5554a8.9038,8.9038,0,0,1-.2526,1.8117,8.3458,8.3458,0,0,1-.602,1.6723A5.6235,5.6235,0,0,1,470.6251,393.7352Z"/><path class="j" d="M447.6862,446.1019c-1.3706,0-1.4371-.2632-2.8665-.3174a.35.35,0,0,1-.3041-.5028l.7444-1.4889c1.982.991,2.6294.76,4.69-.2032,4.715-2.2085,8.2386-10.6184,8.2386-16.662,0-7.06,4.2272-13.3378,6.7463-16.452a9.8251,9.8251,0,0,0,2.1271-4.8843c.3029-2.3062.4955-6.3854-1.6229-7.7983-4.5262-3.0175-4.5262-8.8338-4.5262-13.08,0-2.07-3.6882-6.5547-10.9629-13.331-.47-.4384-.8206-.7645-1.0036-.9474-1.4264-1.4265-2.6216-2.83-2.6952-2.9478l.991-1.982c.0165.0271,1.8426,2.2646,3.1056,3.5285.1732.1732.5061.4829.9522.8981,5.3982,5.0285,11.5948,11.2522,11.5948,14.7816,0,4.01,0,9.0021,3.6437,11.4312,2.2645,1.51,3.1249,4.866,2.4881,9.7057a11.7934,11.7934,0,0,1-2.551,5.8724c-2.3546,2.9111-6.305,8.7564-6.305,15.2056,0,6.7917-3.7695,15.8287-9.3806,18.4562A7.3069,7.3069,0,0,1,447.6862,446.1019Z"/><path class="k" d="M442.097,396.5141s13.6176-.9069,13.6176-11.801"/><g class="l"><rect class="m" x="323.0033" y="398.9959" width="118.0402" height="1.982"/></g><g class="l"><rect class="m" x="323.0033" y="422.9181" width="126.6436" height="1.982"/></g><path class="n" d="M391.0917,334.328H329.1065a6.1028,6.1028,0,0,0-6.1027,6.1028V488.7092a4.9445,4.9445,0,0,0,4.9445,4.9446h63.1434"/><path class="o" d="M315.9357,432.3964s-2.973-19.82,12.5151-19.3809c10.89.3085,50.3851,0,50.3851,0"/><line class="o" x1="404.2492" y1="404.0272" x2="404.2492" y2="303.257"/><path class="p" d="M378.8359,412.5365s3.5183-8.7452,18.1711-8.7452h23.7623v16.0329h-25.16S381.6314,419.8242,378.8359,412.5365Z"/><circle class="q" cx="406.3636" cy="405.3919" r="149.3919"/><g class="r"><path class="m" d="M148.5916,213.9948a54.2822,54.2822,0,0,1-25.107-9.2281c-12.6842-8.6-19.0263-20.0675-18.45-34.4015s1.446-14.5,1.446-14.5,14.2577-26.1026,28.0548-30.1029,21.2358-3.5588,24.6951-2.4121l3.4593,1.1468s12.3941-6.2738,23.4936-1.13c0,0,4.92,2.2773,7.1452,6.5775a29.026,29.026,0,0,0,5.16,7.1616c.5238.5783,4.067,3.0589,4.6016,11.5657s-.6185,19.974-1.195,24.5609-1.1531,8.6-1.1531,8.6a31.0624,31.0624,0,0,1-13.0306,20.4555,10.5885,10.5885,0,0,0-2.7081,2.7143c-1.5579,2.058-27.6386,16.4122-35.0658,13.2486A4.9781,4.9781,0,0,1,148.5916,213.9948Z"/></g><g class="r"><path class="s" d="M147.8288,213.9948a54.2822,54.2822,0,0,1-25.107-9.2281c-12.6842-8.6-19.0263-20.0675-18.45-34.4015s1.446-14.5,1.446-14.5,14.2577-26.1026,28.0549-30.1029,21.2357-3.5588,24.695-2.4121l3.4593,1.1468s12.3941-6.2738,23.4936-1.13c0,0,4.92,2.2773,7.1452,6.5775a29.026,29.026,0,0,0,5.16,7.1616c.5238.5783,4.067,3.0589,4.6016,11.5657s-.6185,19.974-1.195,24.5609-1.1531,8.6-1.1531,8.6a31.0624,31.0624,0,0,1-13.0306,20.4555,10.5885,10.5885,0,0,0-2.7081,2.7143c-1.5579,2.058-27.6385,16.4122-35.0658,13.2486A4.9784,4.9784,0,0,1,147.8288,213.9948Z"/></g><path class="m" d="M152.5932,219.8219a7.98,7.98,0,0,1-3.1055-.5253,1.1337,1.1337,0,0,1-.2824-.1726,5.8281,5.8281,0,0,1-1.7751-4.0869,56.2846,56.2846,0,0,1-24.59-9.33c-13.1589-8.9228-19.5338-20.8288-18.9483-35.3867.4536-11.2807,1.0406-14.2987,1.6812-15.1758,1.393-2.5142,15-26.5195,28.6427-30.4753,15.14-4.3884,22.3981-3.3861,25.3778-2.3987l3.0184,1.0008c2.3822-1.0993,13.6416-5.7626,24.0555-.9363.2145.0992,5.3023,2.495,7.6793,7.0878a27.7178,27.7178,0,0,0,4.7339,6.6464c.1095.1148.1967.2059.2593.2748.035.0385.09.0882.1586.1519,1.0444.9778,4.2222,3.9536,4.7347,12.1045.619,9.8576-1.0138,23.2755-1.2023,24.7734-.5713,4.544-1.15,8.5791-1.1554,8.6191A31.9434,31.9434,0,0,1,188.37,203.2193c-.029.02-.0581.0385-.0886.0556a10.0987,10.0987,0,0,0-2.3636,2.412C184.1925,207.9663,162.8522,219.82,152.5932,219.8219ZM150.58,217.28c7.1393,2.6039,31.9874-11.1422,33.5152-12.969a11.9524,11.9524,0,0,1,2.9916-2.9764,30.21,30.21,0,0,0,12.5175-19.6213c.0112-.0822.5877-4.0988,1.1561-8.6228.1855-1.4756,1.7945-14.6972,1.1889-24.3482-.4559-7.2531-3.1383-9.7643-4.02-10.59-.1281-.12-.2257-.2148-.29-.2859-.0529-.0585-.1266-.1348-.2182-.2311a29.9162,29.9162,0,0,1-5.1094-7.1716c-2.012-3.8884-6.5664-6.0463-6.6119-6.0671-10.4727-4.8558-22.372,1.0527-22.49,1.1134a1.1494,1.1494,0,0,1-.8813.0652l-3.4586-1.1467c-2.196-.7282-8.9315-1.9475-24.013,2.4253-13.1873,3.8232-27.23,29.296-27.37,29.553a1.186,1.186,0,0,1-.0946.1452c-.149.4163-.7672,2.7676-1.2135,13.8579-.5519,13.7224,5.4871,24.9654,17.95,33.4163a53.6765,53.6765,0,0,0,24.5219,9.0317,1.1463,1.1463,0,0,1,.8045.39,1.1325,1.1325,0,0,1,.2763.8467A4.13,4.13,0,0,0,150.58,217.28Zm-43.8784-60.2994-.0037.0007Zm.3493-.13a1.1452,1.1452,0,0,1-.3493.13A1.1331,1.1331,0,0,0,107.0506,156.8512Z"/><g class="t"><path class="m" d="M152.3623,219.9863c-3.6277,0-4.2468-1.6119-4.8032-5.1951-.108-.6919-.23-1.4764-.4045-2.3476-.9334-4.64-6.0569-4.2691-6.2737-4.25a1.138,1.138,0,1,1-.2033-2.2668c2.5468-.2289,7.6487.7415,8.7207,6.0708.1855.92.3113,1.73.4223,2.446.549,3.54.58,3.7536,5.7768,2.9587,7.5125-1.1489,27.75-11.4348,29.1739-13.7942a11.7345,11.7345,0,0,1,2.8351-2.6905c3.7127-2.9224,9.9267-7.8138,12.0237-20.165,2.5059-14.76,5.081-35.203-1.46-42.3a42.9792,42.9792,0,0,1-5.5727-7.516c-1.4362-2.3542-2.3852-3.9091-5.0676-5.5981-4.96-3.1254-15.4294-3.9069-24.36.1911-7.0506,3.2358-9.8612,7.5568-9.8887,7.6a1.1476,1.1476,0,0,1-1.577.3556,1.1332,1.1332,0,0,1-.362-1.5645c.1251-.1993,3.1524-4.9159,10.8683-8.4576,10.0019-4.59,21.1406-3.45,26.5442-.0474,3.1361,1.9749,4.3108,3.9017,5.7992,6.3411a40.4843,40.4843,0,0,0,5.303,7.1583c7.1385,7.7442,4.8345,27.698,2.0307,44.2169-2.2445,13.2134-9.1506,18.6493-12.861,21.57a11.5861,11.5861,0,0,0-2.2928,2.0772c-2.0836,3.4535-23.3762,13.7394-30.7881,14.8728A24.41,24.41,0,0,1,152.3623,219.9863Z"/></g><path class="m" d="M181.1406,198.4635a1.1618,1.1618,0,0,1-.5185-.1223,1.1453,1.1453,0,0,1-.5058-1.5371c.4514-.8978,1.93-1.8994,4.7235-3.7395,1.5092-.9934,3.07-2.0209,4.2333-2.9469,2.4538-1.9519,2.4538-6.2781,2.4538-13.4453,0-4.318.6555-5.5907,1.6552-7.0389a8.58,8.58,0,0,0,1.5382-3.7914c1.4541-7.2308-2.57-18.05-3.0727-19.0494-.0544-.1089-.1267-.2792-.22-.5059-2.713-6.61-8.7989-11.2578-18.088-13.8135-3.0958-.85-5.7112-.5408-7.7806.92-4.8434,3.4209-5.4692,12.0178-5.4744,12.1044a1.1443,1.1443,0,0,1-2.2839-.1474c.0261-.3963.6958-9.7539,6.4271-13.8075,2.6586-1.8809,5.931-2.3061,9.7212-1.2623,10.0094,2.7527,16.6026,7.8486,19.5979,15.1461.0633.1556.1095.2734.1475.3482.6272,1.2475,4.8568,12.6193,3.2694,20.5132a10.7624,10.7624,0,0,1-1.895,4.6336c-.7,1.0141-1.2537,1.8157-1.2537,5.7507,0,7.8494,0,12.5868-3.3119,15.2217-1.2448.99-2.8486,2.0468-4.3995,3.0684a26.1676,26.1676,0,0,0-3.9525,2.88A1.1249,1.1249,0,0,1,181.1406,198.4635Z"/><path class="m" d="M152.3623,219.9863c-3.6277,0-4.2468-1.6119-4.8032-5.1951-.108-.6919-.23-1.4764-.4045-2.3476-.9334-4.64-6.0569-4.2691-6.2737-4.25a1.138,1.138,0,1,1-.2033-2.2668c2.5468-.2289,7.6487.7415,8.7207,6.0708.1855.92.3113,1.73.4223,2.446.549,3.54.58,3.7536,5.7768,2.9587,7.5125-1.1489,27.75-11.4348,29.1739-13.7942a11.7345,11.7345,0,0,1,2.8351-2.6905c3.7127-2.9224,9.9267-7.8138,12.0237-20.165,2.5059-14.76,5.081-35.203-1.46-42.3a42.9792,42.9792,0,0,1-5.5727-7.516c-1.4362-2.3542-2.3852-3.9091-5.0676-5.5981-4.96-3.1254-15.4294-3.9069-24.36.1911-7.0506,3.2358-9.8612,7.5568-9.8887,7.6a1.1476,1.1476,0,0,1-1.577.3556,1.1332,1.1332,0,0,1-.362-1.5645c.1251-.1993,3.1524-4.9159,10.8683-8.4576,10.0019-4.59,21.1406-3.45,26.5442-.0474,3.1361,1.9749,4.3108,3.9017,5.7992,6.3411a40.4843,40.4843,0,0,0,5.303,7.1583c7.1385,7.7442,4.8345,27.698,2.0307,44.2169-2.2445,13.2134-9.1506,18.6493-12.861,21.57a11.5861,11.5861,0,0,0-2.2928,2.0772c-2.0836,3.4535-23.3762,13.7394-30.7881,14.8728A24.41,24.41,0,0,1,152.3623,219.9863Z"/><path class="m" d="M181.1406,198.4635a1.1618,1.1618,0,0,1-.5185-.1223,1.1453,1.1453,0,0,1-.5058-1.5371c.4514-.8978,1.93-1.8994,4.7235-3.7395,1.5092-.9934,3.07-2.0209,4.2333-2.9469,2.4538-1.9519,2.4538-6.2781,2.4538-13.4453,0-4.318.6555-5.5907,1.6552-7.0389a8.58,8.58,0,0,0,1.5382-3.7914c1.4541-7.2308-2.57-18.05-3.0727-19.0494-.0544-.1089-.1267-.2792-.22-.5059-2.713-6.61-8.7989-11.2578-18.088-13.8135-3.0958-.85-5.7112-.5408-7.7806.92-4.8434,3.4209-5.4692,12.0178-5.4744,12.1044a1.1443,1.1443,0,0,1-2.2839-.1474c.0261-.3963.6958-9.7539,6.4271-13.8075,2.6586-1.8809,5.931-2.3061,9.7212-1.2623,10.0094,2.7527,16.6026,7.8486,19.5979,15.1461.0633.1556.1095.2734.1475.3482.6272,1.2475,4.8568,12.6193,3.2694,20.5132a10.7624,10.7624,0,0,1-1.895,4.6336c-.7,1.0141-1.2537,1.8157-1.2537,5.7507,0,7.8494,0,12.5868-3.3119,15.2217-1.2448.99-2.8486,2.0468-4.3995,3.0684a26.1676,26.1676,0,0,0-3.9525,2.88A1.1249,1.1249,0,0,1,181.1406,198.4635Z"/><path class="m" d="M160.3858,193.8639q-.0526,0-.1051-.0044a1.14,1.14,0,0,1-1.0362-1.2364c.5543-6.0567,8.0772-7.5042,14.7151-8.7813,1.352-.26,2.75-.5289,4.04-.8253a5.592,5.592,0,0,0,4.033-3.1476,11.1014,11.1014,0,0,0,.4894-7.1049,12.7446,12.7446,0,0,1-1.3811-3.05c-.5825-1.5216-1.3073-3.4151-2.1781-5.1463-1.6038-3.1891-5.4483-6.493-5.4871-6.5256l-9.841-9.2087a1.1349,1.1349,0,0,1-.0492-1.609,1.15,1.15,0,0,1,1.618-.0489l9.8015,9.1739c.1319.1119,4.1924,3.5965,6.0048,7.2005.9215,1.8327,1.6693,3.7854,2.27,5.3536a20.8726,20.8726,0,0,0,1.0161,2.4232c.7822.7733,1.3163,4.7662.3971,7.9538a8.0458,8.0458,0,0,1-6.1791,5.9545c-1.33.3052-2.748.5778-4.1194.8415-6.1321,1.18-12.4728,2.4-12.8706,6.753A1.1422,1.1422,0,0,1,160.3858,193.8639ZM182.6371,172.89h0Z"/><path class="m" d="M180.5632,178.957c-2.06,0-3.7238-1.5386-5.0877-4.7032a1.3518,1.3518,0,0,0-.9319-.9075c-1.3133-.3274-3.6389,1.0045-4.798,1.9216a1.1457,1.1457,0,0,1-1.6075-.1793,1.1333,1.1333,0,0,1,.1788-1.5979c.3963-.3148,3.9473-3.0609,6.7809-2.352a3.6116,3.6116,0,0,1,2.4813,2.2187c.95,2.2053,1.9547,3.3239,2.9841,3.3239a1.1379,1.1379,0,1,1,0,2.2757Z"/><path class="m" d="M159.2311,176.8665a4.2077,4.2077,0,1,1,4.23-4.2077A4.2242,4.2242,0,0,1,159.2311,176.8665Z"/><path class="m" d="M159.2308,168.83a3.8283,3.8283,0,1,1-3.85,3.8281,3.8432,3.8432,0,0,1,3.85-3.8281m0-.7585a4.5868,4.5868,0,1,0,4.6124,4.5866,4.5995,4.5995,0,0,0-4.6124-4.5866Z"/><path class="m" d="M147.4,184.9619a1.1228,1.1228,0,0,1-1.098-.8468c-.0715-.2829-.6064-2.9031,2.4463-7.759,1.9636-3.1254,1.539-4.1862.9512-5.6552a11.3393,11.3393,0,0,1-.5147-1.4926,29.1942,29.1942,0,0,1-.32-6.9457,1.1445,1.1445,0,0,1,2.2839.1511,27.56,27.56,0,0,0,.2562,6.2419,9.4412,9.4412,0,0,0,.42,1.2038c.6763,1.6875,1.4421,3.6-1.136,7.7027-2.5111,3.9943-2.1633,6.0123-2.16,6.0323a1.1521,1.1521,0,0,1-.8753,1.3393A1.1931,1.1931,0,0,1,147.4,184.9619Z"/><line class="q" x1="156.5798" y1="171.5" x2="310.0798" y2="289"/><g class="l"><path class="m" d="M434.992,466.9175c-.0571-.5177-1.3277-12.7725,5.67-21.1708,6.4646-7.7566,6.58-14.2832,6.58-14.3481V425.955h1.982v5.4465c0,.2923-.08,7.2641-7.0386,15.6149-6.45,7.7392-5.2365,19.5643-5.223,19.6834Z"/></g><g class="l"><path class="m" d="M441.03,398.2062h-1.982c0-29.0048,7.0009-36.0076,11.1835-40.1912.993-.993,2.84-3.1762,5.18-5.94,9.3506-11.0509,18.8995-21.9237,23.9241-22.9282,5.765-1.1575,9.0089,5.1349,10.568,8.1572.26.5052-1.7942-2.3516-1.0394-.538-.0687-.08,1.3859,1.5242.9881,1.6113l-.9881,2.3526c-.9358.1946.0658-.9881-.7219-2.5171-1.4391-2.7911-4.1285-7.9851-8.4176-7.1228-4.7672.9533-16.4985,14.8175-22.8006,22.2654-2.3681,2.7988-4.24,5.01-5.29,6.06C447.6669,363.3832,441.03,370.022,441.03,398.2062Z"/></g><path class="j" d="M430.9623,503.7952c-5.4021,0-9.5248-5.2192-9.7028-5.4476l1.5639-1.2184c.0377.0494,3.9485,4.9782,8.53,4.6714,2.7436-.1684,5.281-2.1649,7.5417-5.9334a50.6529,50.6529,0,0,0,5.7679-13.4577c1.6181-5.3953,3.453-11.51,11.2629-24.0064,1.2155-1.9452,2.3884-3.8042,3.5168-5.5936,11.3867-18.0479,18.2588-28.941,19.485-49.77,1.3887-23.6212,8.195-58.7869,9.6341-61.665.8971-1.7933.421-12.2181-.0929-18.4408-.2391-.8071-2.3033-7.3531-6.7618-9.3418a7.7189,7.7189,0,0,0-6.7947.5158c-5.6836,2.8413-10.2825,7.2515-14.3393,11.1428-3.7008,3.5488-6.8963,6.6147-10.2477,7.9551a27.4558,27.4558,0,0,1-14.1061,1.4274c-.6746-.0522-3.5459-.5913-7.4808-5.8385-3.634-4.8456-6.2489-4.91-6.2712-4.9114v-1.982c.3175.0077,3.6059.0368,7.8563,5.705,3.6321,4.8417,6.0244,5.0488,6.0476,5.0507l.1626.0184a25.865,25.865,0,0,0,13.0561-1.31c2.9933-1.1972,6.06-4.1392,9.6118-7.5447,4.1585-3.9891,8.8715-8.51,14.8243-11.4855,3.0465-1.5242,5.9043-1.71,8.495-.55,5.5879,2.4978,7.7924,10.3734,7.8834,10.7083l.031.178c.2313,2.7746,1.3132,16.7608-.1007,19.5895-1.1516,2.3023-8.0256,37.0412-9.4289,60.8947-1.2562,21.3382-8.2308,32.3949-19.7869,50.7118-1.1265,1.7865-2.2985,3.6437-3.513,5.5869-7.6686,12.27-9.4618,18.2492-11.0441,23.5245a52.9664,52.9664,0,0,1-5.9673,13.9087c-2.62,4.3656-5.6914,6.6853-9.13,6.8924Q431.2121,503.7956,430.9623,503.7952Z"/><text class="u" transform="translate(325.6765 172.8799)">Transductor<tspan x="0" y="29.7344">(micrófonos omnidireccionales)</tspan></text><text class="v" transform="translate(637.6768 348.9282)">Pabellón<tspan x="0" y="31.2002">auditivo</tspan></text><text class="v" transform="translate(374.4552 628.7731) rotate(0.0934)">Canal<tspan x="-12.5972" y="31.2002">auditivo</tspan></text><circle class="d" cx="457.9797" cy="362.1895" r="3.522"/><line class="w" x1="457.2927" y1="362.1895" x2="610.0798" y2="362.1895"/><circle class="d" cx="407.0868" cy="435.0355" r="3.522"/><line class="w" x1="407.0868" y1="438.2128" x2="407.0868" y2="591"/></svg>