<svg xmlns="http://www.w3.org/2000/svg" viewBox="0 0 716.0476 741.1368"><defs><style>.a{fill:#a3a3a3;}.b,.f,.h,.i,.k{fill:none;}.b,.h{stroke:#d91519;}.b,.f,.i,.k{stroke-miterlimit:10;}.b,.f,.h,.i{stroke-width:3px;}.b{opacity:0.6;}.c,.g{fill:#d91519;}.d,.g{opacity:0.5;}.e{fill:#fff;}.f{stroke:#b2b2b2;opacity:0.86;}.h{stroke-linecap:round;stroke-linejoin:round;}.i{stroke:#777;}.j{fill:#505050;}.k{stroke:#505050;stroke-width:2px;}.l{font-size:22.9225px;}.l,.n,.p{fill:#606060;font-family:Lato-Italic, Lato;font-style:italic;}.m{font-size:21.7894px;}.n{font-size:22.7798px;}.o{font-size:20.799px;}.p{font-size:26px;}</style></defs><title>casco6</title><path class="a" d="M168.8066,260.05H154.8507a1.1805,1.1805,0,0,1-1.18-1.18v-6.9772a1.18,1.18,0,0,1,.7661-1.105l14.8864-5.5825a1.18,1.18,0,0,1,1.5914,1.1918l-.93,12.56A1.1807,1.1807,0,0,1,168.8066,260.05ZM156.031,257.69h11.68l.7131-9.6267L156.031,252.71Z"/><path class="a" d="M82.05,256.7945H69.0247a1.1807,1.1807,0,0,1-1.1772-1.0935l-.9306-12.56a1.18,1.18,0,0,1,1.5914-1.1918l14.8856,5.5825a1.1812,1.1812,0,0,1,.7562,1.261l-.93,6.9779A1.1808,1.1808,0,0,1,82.05,256.7945Zm-11.93-2.3606H81.0165l.6693-5.0223-12.2785-4.6051Z"/><circle class="b" cx="372.5325" cy="455.7291" r="165.1675"/><path class="c" d="M123.2667,257.0642c-14.7381.0008-29.7321-1.961-39.2327-6.3156A91.2716,91.2716,0,0,0,67.2612,244.82c-4.9847-1.2947-7.73-2.0086-10.0366-6.878a22.1286,22.1286,0,0,1-1.6609-6.7543c-.7577-5.64-1.3052-9.7158-13.3085-10.2268-4.083-.1737-7.7464-.1729-10.9783-.169-11.26,0-18.682.0115-23.3528-7.9954-5.6655-9.7119-5.4818-15.3136.8184-24.9741,2.6445-4.0549,4.1444-6.4193,4.2224-7.8669.06-1.1242-.8906-2.1931-3.2392-4.5421-2.16-2.16-3.16-4.4706-2.9726-6.8673a9.2877,9.2877,0,0,1,3.3422-6.0666c-1.9771-2.3267-5.41-7.3767-2.9968-12.2039a1.5733,1.5733,0,0,1,2.2376-.6332c.1007.0615,10.34,6.2634,16.7448.1945,1.3144-1.2449,2.88-3.0568,4.6923-5.1545,8.06-9.3278,21.55-24.94,43.764-25.5935,26.05-.7576,30.3553,4.41,30.9524,5.4565a1.5746,1.5746,0,0,1-.0384,1.626c-.5241.8268-12.6473,20.4612,3.98,36.0568.7946.6347,13.1821,10.392,23.893,11.1059a1.4857,1.4857,0,0,1,1.1211.4687,1.352,1.352,0,0,1,.3542,1.0481,3.6128,3.6128,0,0,0,.2928.7461l.0315.0615c.1345.0031.3058.0015.4618,0l.249-.0015a30.2492,30.2492,0,0,1,3.7875-.6747,5.9059,5.9059,0,0,0,1.1065-.2044,28.65,28.65,0,0,0,7.8593-3.2634c.0369-.0246.0753-.0484.1145-.07,4.26-2.3413,8.8636-4.5851,13.6869-6.669a31.8463,31.8463,0,0,0,3.1336-3.38l.3965-.4656c1.725-2.5972,2.6195-4.3607,5.1875-9.8418a1.5736,1.5736,0,0,1,2.1154-.7461c14.4216,7.0386,31.5171,14.2048,34.2573,13.6708a1.5738,1.5738,0,0,1,2.22,2.0516,53.4822,53.4822,0,0,1-9.6235,12.4582c-6.5915,6.5922-17.874,19.8289-19.37,34.4187-1.4477,14.1157-2.5588,24.8619-2.7048,26.2742.0914,1.77-1.7336,5.9775-16.91,12.3307C152.6546,255.0786,138.0909,257.0642,123.2667,257.0642Zm-90.8875-39.42c2.9876,0,6.32.0153,10.01.1729,14.6378.6232,15.5176,7.1731,16.2941,12.9523a19.4533,19.4533,0,0,0,1.3862,5.8253c1.6771,3.5408,3.1394,3.9212,7.9834,5.18a95.2252,95.2252,0,0,1,17.2923,6.1127c18.4242,8.4463,58.2509,7.5727,74.5312.7569,13.4887-5.6471,14.86-9.0173,14.971-9.3808a1.5137,1.5137,0,0,1,.0076-.2128s1.1657-11.2719,2.721-26.4295c1.5952-15.558,13.388-29.4355,20.2752-36.3228a58.5037,58.5037,0,0,0,7.6488-9.32c-2.7455-.5187-7.668-2.1231-16.8774-6.1-6.3839-2.757-12.6119-5.7046-15.3413-7.0132a60.24,60.24,0,0,1-4.7933,8.8874,1.6135,1.6135,0,0,1-.113.1491l-.4518.5317a29.4571,29.4571,0,0,1-3.7637,3.955,1.588,1.588,0,0,1-.3327.1952c-4.7818,2.06-9.3408,4.2762-13.55,6.5883a31.8893,31.8893,0,0,1-8.75,3.6508,8.918,8.918,0,0,1-1.573.29,28.8846,28.8846,0,0,0-3.6015.654,1.5511,1.5511,0,0,1-.3412.0376l-.4011.0023c-1.49.0008-2.4827-.1045-3.3326-1.8019-.1137-.2282-.2074-.4388-.2843-.6324-11.7029-1.3463-24.05-11.2972-24.5868-11.7336-.0277-.0223-.0546-.0461-.0815-.0707-16.1758-15.1208-7.7709-34.0552-5.1936-38.9108-1.8819-1.2141-8.3288-3.9834-27.5015-3.4217-20.83.6124-33.2537,14.9909-41.4749,24.5054-1.8676,2.1615-3.48,4.028-4.909,5.3819-6.4039,6.0658-15.0908,2.9376-18.7941,1.1488-.4246,3.9573,3.9711,8.1766,4.0218,8.225a1.5752,1.5752,0,0,1-.1548,2.4167c-1.4731,1.0719-3.2635,2.7878-3.4275,4.8794-.1126,1.4377.58,2.9161,2.06,4.3961,5.8829,5.8829,5.3524,7.27-.5721,16.354-5.609,8.6-5.76,13.0553-.7361,21.6684,3.76,6.4455,9.7507,6.4293,20.6322,6.4339Q31.8185,217.6447,32.3792,217.644Zm142.4971,21.8735.0007.0031Zm-.0008-.003.0008.0023Zm-.0008-.0031.0008.0015Z"/><g class="d"><path class="c" d="M208.2923,165.3611a52.2814,52.2814,0,0,1-9.3285,12.0493c-6.6078,6.6078-18.2684,20.2119-19.8232,35.3708s-2.7208,26.431-2.7208,26.431.7774,3.8868-15.9362,10.8832-57.1373,7.7739-75.7944-.7773-22.544-4.6643-26.0422-12.0493,1.9434-17.1024-16.325-17.88-27.5969,1.9435-33.0385-7.385-5.053-14.3816.7774-23.3214,5.8452-9.3137.7773-14.3814C6.5627,170.0254,8.1174,165.75,12.393,162.64c0,0-6.6077-6.2191-3.8869-11.6607,0,0,11.272,6.9964,18.6571,0s20.9892-29.54,47.42-30.3178,29.54,4.6643,29.54,4.6643S90.52,146.704,108.3992,163.4177c0,0,12.6948,11.1746,24.3555,11.9521,0,0,.4651,0,.93.93.5214,1.0428.7712.93,2.3259.93,4.1867-.93,3.51-.509,5.1171-.93a30.1736,30.1736,0,0,0,8.3334-3.476l0,0c3.121-1.7158,7.6934-4.08,13.7427-6.6854a34.7627,34.7627,0,0,0,3.9738-4.2591c1.9921-2.3323,2.7911-4.6519,5.3547-10.1225C172.5329,151.757,205.1828,167.6934,208.2923,165.3611Z"/></g><g class="d"><path class="e" d="M123.3151,254.8394c-15.8271,0-29.8-2.2437-38.3354-6.1555a93.207,93.207,0,0,0-17.1477-6.0614c-4.8772-1.2675-6.702-1.7418-8.5546-5.6527a20.4038,20.4038,0,0,1-1.4628-6.0837c-.7659-5.7044-1.5581-11.6028-15.4632-12.1947-3.72-.1581-7.0854-.1713-9.9479-.1713l-2.1914.0009c-10.7233,0-16.4972-.3057-20.3261-6.8687-5.1788-8.878-5.0155-13.7338.7593-22.5887,5.85-8.9688,6.1632-9.7793.6864-15.2556-1.6692-1.6695-2.4477-3.38-2.3141-5.0839.1506-1.9193,1.46-3.8278,3.7858-5.5195a.6981.6981,0,0,0,.0681-1.0721c-.0593-.0559-5.6435-5.4023-4.0274-10.1568a22.8223,22.8223,0,0,0,10.2,2.8111,12.0768,12.0768,0,0,0,8.5991-3.3008c1.3969-1.3233,2.9965-3.1745,4.8486-5.3178,7.8159-9.0457,20.8969-24.1846,42.1118-24.8092,1.7072-.05,3.3753-.0754,4.958-.0754,17.7029,0,22.6078,3.1545,23.6976,4.1262a37.8886,37.8886,0,0,0-4.392,12.5863,28.2016,28.2016,0,0,0,9.0556,25.9313c.0123.0118.025.0227.0382.0331.52.4193,12.7194,10.1668,24.3467,11.1449l.7532,1.5069a2.0061,2.0061,0,0,0,2.2365,1.32l.7136-.0036a.6747.6747,0,0,0,.1513-.0168,29.4577,29.4577,0,0,1,3.6988-.67,8.0827,8.0827,0,0,0,1.4441-.2658,30.8532,30.8532,0,0,0,8.5183-3.5538c4.2452-2.3327,8.84-4.5674,13.657-6.6416a.686.686,0,0,0,.1476-.0868,29.1126,29.1126,0,0,0,3.6243-3.8232l.4565-.537c1.6236-1.9011,2.4709-3.761,4.0091-7.1376.342-.7509.7191-1.5786,1.1475-2.5008,4.283,2.071,27.6443,13.2386,34.1033,13.5893a57.2458,57.2458,0,0,1-8.4982,10.6334c-6.8051,6.8051-18.4561,20.5044-20.0243,35.7928-1.5545,15.1584-2.7207,26.43-2.7207,26.43-.01.0954-.0236.1068,0,.1813-.035.3484-.7641,3.9563-15.5119,10.13C152.2756,252.7747,138.1365,254.8394,123.3151,254.8394Z"/><path class="c" d="M79.5639,121.9813c15.7707,0,21.1823,2.5129,22.7927,3.61a38.9689,38.9689,0,0,0-4.1788,12.2967,28.8724,28.8724,0,0,0,9.2685,26.5491c.0247.0231.05.0454.0765.0665.52.42,12.6153,10.083,24.3341,11.261l.58,1.16a2.6706,2.6706,0,0,0,2.8611,1.7054c.0967,0,.2006-.0009.3123-.0016.1228-.0011.256-.002.4007-.002a1.3949,1.3949,0,0,0,.3028-.0332,28.8008,28.8008,0,0,1,3.6211-.658,8.7714,8.7714,0,0,0,1.5471-.2848,31.6765,31.6765,0,0,0,8.7028-3.6309c4.2173-2.3164,8.783-4.5362,13.5717-6.5989a1.4,1.4,0,0,0,.2955-.173,29.4746,29.4746,0,0,0,3.7348-3.9291l.4527-.5324c1.6872-1.9755,2.5491-3.8673,4.1137-7.3017.2591-.5688.54-1.1848.8475-1.8526,5.64,2.72,25.1253,11.9417,32.5979,13.2126a58.3231,58.3231,0,0,1-7.8215,9.58c-6.8708,6.8706-18.6346,20.7118-20.2247,36.2151-1.5546,15.158-2.7206,26.4294-2.7207,26.43a1.3938,1.3938,0,0,0-.0056.2142c-.0832.326-1.2741,3.7456-15.0813,9.5252-7.859,3.29-21.8948,5.3334-36.63,5.3334-15.73,0-29.597-2.22-38.0442-6.0919a95.0624,95.0624,0,0,0-17.2634-6.1028c-4.7769-1.2413-6.3862-1.6595-8.099-5.2753a19.8921,19.8921,0,0,1-1.4018-5.8784c-.767-5.71-1.6364-12.1818-16.125-12.7982-3.7359-.159-7.1135-.1724-9.9862-.1724l-1.1194,0-1.0588.0007c-10.7539,0-16.0848-.2773-19.7281-6.5228-5.0682-8.6884-4.9159-13.1821.7409-21.8559,5.949-9.1218,6.4076-10.3183.5953-16.13-1.5183-1.5184-2.2288-3.0446-2.1118-4.536.1694-2.1594,1.9971-3.9159,3.5005-5.0093a1.3969,1.3969,0,0,0,.137-2.1436c-.0524-.05-4.6947-4.5042-4.0428-8.6272a23.0444,23.0444,0,0,0,9.7359,2.4865,12.7548,12.7548,0,0,0,9.0791-3.4921c1.4221-1.3471,3.0322-3.2106,4.8965-5.3682,4.1022-4.7477,9.2074-10.6563,16.0293-15.575a44.8741,44.8741,0,0,1,25.5754-8.9928c1.7011-.05,3.363-.0754,4.94-.0754m0-1.3955q-2.3407,0-4.9807.0761c-26.4308.7775-40.0349,23.3214-47.42,30.3178a11.4264,11.4264,0,0,1-8.1193,3.1095A22.7328,22.7328,0,0,1,8.5061,150.98C5.7853,156.4213,12.393,162.64,12.393,162.64c-4.2756,3.1095-5.83,7.385-1.5548,11.6607,5.0679,5.0677,5.053,5.4416-.7773,14.3814s-6.2191,13.9928-.7774,23.3214C13.3647,219,19.6313,219.219,30.217,219.219q1.06,0,2.1782-.0011c2.9784,0,6.2741.0157,9.9268.171,18.2684.7775,12.8268,10.4946,16.325,17.88s7.3851,3.4982,26.0422,12.0493c9.3285,4.2755,24.0984,6.2189,38.6256,6.2189s28.8119-1.9434,37.1688-5.4416c16.7136-6.9964,15.9362-10.8832,15.9362-10.8832s1.1661-11.2721,2.7208-26.431,13.2154-28.763,19.8232-35.3708a52.2814,52.2814,0,0,0,9.3285-12.0493,1.7518,1.7518,0,0,1-1.0284.233c-6.3839,0-34.731-13.8371-34.731-13.8371-2.5636,5.4706-3.3626,7.79-5.3547,10.1225a34.7627,34.7627,0,0,1-3.9738,4.2591c-6.0493,2.6055-10.6217,4.97-13.7427,6.6854l0,0a30.1736,30.1736,0,0,1-8.3334,3.476c-1.6071.4213-.93,0-5.1171.93-.2758,0-.51.0037-.713.0037-.9387,0-1.184-.0764-1.6129-.934l-.93-1.8608c-11.6607-.7775-24.3555-11.0217-24.3555-11.0217-17.88-16.7137-4.2756-38.0915-4.2756-38.0915s-2.7083-4.74-24.56-4.74Zm128.7284,44.7753h0Z"/></g><path class="e" d="M208.2923,165.8264s19.0458-38.869,19.8231-41.9785,17.88-49.3635-28.3743-92.8967S65.4867.1541,50.3279,18.8112s-14.972,30.8807-15.932,33.7606c-1.138,3.414-11.897,13.75-6.4553,28.1316,0,0,3.1723,8.5421-2.2694,13.5951S10.554,110.97,8.2219,111.7478c0,0-8.0034,5.559-6.4487,11.0007s10.6213,9.104,10.6213,9.104c.98-.5842,5,1.7849,1.138,7.5866-1.9384,2.9121-7.7472,8.5076-5.0264,12.0058,0,0,10.79,7.5,19.1936-.5256,0,0,17.9439-21.9618,29.7812-26.294s26.4309-6.219,46.6427,1.1661c0,0,9.9835-28.4144,39.873-22.2719q.2742.0564.5507.1166a24.0886,24.0886,0,0,1,11.272-1.5548c5.83.7774,9.3285,1.5548,11.6606,5.053s8.5512,11.272,8.5512,17.88-1.5548,22.1553-3.4982,27.2082C172.5329,152.2222,205.1828,168.5472,208.2923,165.8264Z"/><path class="a" d="M207.21,167.73c-2.2714,0-7.1224-1.2241-18.5948-6.2433-8.4894-3.7145-16.7044-7.8155-16.7867-7.8563a1.5736,1.5736,0,0,1-.7645-1.9725c1.8073-4.698,3.3933-19.9295,3.3933-26.6438,0-5.18-4.43-11.4885-7.0771-15.2584-.4626-.6585-.8752-1.2463-1.21-1.7481-1.95-2.9261-4.8525-3.6046-10.56-4.3661a22.6984,22.6984,0,0,0-10.4458,1.4423,1.6063,1.6063,0,0,1-.9513.0907l-.534-.113c-28.16-5.7892-37.6806,20.147-38.0725,21.2535a1.5746,1.5746,0,0,1-2.024.9551c-21.8643-7.9907-36.4749-4.4913-45.5613-1.1664C46.72,130.2388,29.095,151.6982,28.9183,151.9149a1.6125,1.6125,0,0,1-.1318.1422c-7.3818,7.05-17.0818,3.527-21.1786.68a1.5663,1.5663,0,0,1-.3438-.3265c-2.9242-3.7583.9259-8.6439,3.4736-11.8758.5786-.7346,1.1253-1.4277,1.4845-1.9679,1.6475-2.4743,1.4719-3.8567,1.2207-4.46a1.4064,1.4064,0,0,0-.64-.7346,1.5838,1.5838,0,0,1-.9982-.0607c-.3992-.1613-9.7992-4.02-11.545-10.1307-1.8426-6.4508,6.7-12.4728,7.064-12.7256a1.5906,1.5906,0,0,1,.4-.2006c1.1272-.4687,5.5836-5.2728,8.8378-8.7806,2.8435-3.0652,5.7839-6.2357,8.0388-8.3288,4.5908-4.2632,1.8914-11.8212,1.8634-11.8973-4.5594-12.05,1.5445-21.4079,4.8237-26.4356a18.1466,18.1466,0,0,0,1.6152-2.7386,17.8643,17.8643,0,0,0,.3945-1.9265c.86-4.91,2.8739-16.4086,15.8089-32.3285C56.2456,9.0321,77.6831,2.0173,102.4513.3629,121.2881-.8919,168.5737-.5438,200.82,29.8053c40.31,37.9395,33.7294,78.18,29.029,93.7192-.0991.3289-.1721.5648-.2067.7054-.7953,3.1789-17.98,38.2952-19.9372,42.2887a1.5714,1.5714,0,0,1-.3765.4918A2.712,2.712,0,0,1,207.21,167.73Zm1.0819-1.9034h0ZM174.4536,151.42c13.4341,6.6506,28.777,13.169,32.4769,13.169.0784,0,.1514-.0031.22-.0092,7.6257-15.5711,18.9044-38.9761,19.4384-41.1138.0423-.1691.1283-.4557.2482-.853,4.5306-14.9786,10.8546-53.7833-28.1745-90.5164-31.3442-29.5-77.5772-29.8235-96.0013-28.5933-23.5756,1.5745-44.5936,8.2773-51.112,16.3C39.13,35.0881,37.2152,46.0211,36.3976,50.69a18.0115,18.0115,0,0,1-.5087,2.38,17.5248,17.5248,0,0,1-1.9648,3.4625c-3.1832,4.8794-8.51,13.0468-4.5118,23.614.148.398,3.4713,9.6028-2.67,15.3059-2.1688,2.0133-5.0684,5.1392-7.8727,8.1629-5.52,5.95-8.2531,8.7844-9.8856,9.5213-2.0455,1.4692-6.6921,5.6978-5.6974,9.1795,1.0377,3.6322,6.6567,6.7528,9.25,7.8885a3.6912,3.6912,0,0,1,2.8746,1.2463c.7354.7731,2.8685,3.6969-.5686,8.8606-.4291.6447-1.0139,1.3862-1.6329,2.1715-1.8783,2.3836-4.6861,5.9452-3.5834,7.8163,1.5195.972,10.1038,5.97,16.9184-.4534C27.9193,148.172,45.076,127.4887,56.94,123.148c14.7657-5.4058,29.5154-5.2014,46.3051.6585,2.6418-5.9014,14.23-27.3439,41.0685-21.8282l.0953.02a25.4124,25.4124,0,0,1,11.6183-1.4768c5.9245.79,10.014,1.6167,12.7626,5.74.3227.4833.7207,1.05,1.1664,1.6851,2.8608,4.0741,7.6488,10.8922,7.6488,17.0672C177.6049,130.849,176.3,145.0538,174.4536,151.42Z"/><path class="a" d="M134.7714,179.5839a3.2219,3.2219,0,0,1-1.6913-.3166c-1.4215-.9867-2.0017-2.8385-2.0017-6.3917,0-2.1508-4.2124-3.1166-4.2547-3.1251a1.967,1.967,0,0,1,.7769-3.8566c2.7532.55,7.4121,2.64,7.4121,6.9817a12.4907,12.4907,0,0,0,.2289,2.7863c2.5873-.2874,9.8242-1.6682,12.6127-3.62a60.3747,60.3747,0,0,1,8.1006-4.2155c2.7233-1.264,6.4539-2.996,7.1816-3.8313l.1913-.2182c1.9487-2.2238,7.8785-8.99,9.5245-22.2816.5309-4.287.9758-7.2838,1.3009-9.4722.7622-5.1322.86-5.7923.1152-9.267-.627-2.9269-3.5485-8.24-7.8147-14.2149l-.17-.24c-.9575-1.4192-3.0575-3.8313-4.6258-4.2785-.1445-.0407-14.9287-3.4755-24.4724,6.4669a1.9673,1.9673,0,1,1-2.8385-2.7247c9.7827-10.19,24.8842-8.5279,28.3912-7.5251,3.3611.959,6.258,5.0469,6.8043,5.8568l.113.1583c2.7217,3.8106,7.44,10.9153,8.4594,15.6764.8944,4.1724.7092,5.42-.07,10.6693-.322,2.1685-.7631,5.1384-1.2879,9.3785-1.795,14.4914-8.3249,21.9419-10.4711,24.39l-.1837.2105c-1.2156,1.3955-4.0187,2.7387-8.4917,4.8149a58.69,58.69,0,0,0-7.5,3.87C147.4371,177.1365,138.7,179.5839,134.7714,179.5839Z"/><path class="a" d="M157.8429,162.771a1.1557,1.1557,0,0,1-.54-.1337,1.17,1.17,0,0,1-.5125-1.5621c.0945-.1883,1.0235-1.9049,4.6773-4.3416,3.0452-2.03,4.1456-3.4586,4.529-11.5123.24-5.0607.8122-6.1073,1.473-7.3183a11.0493,11.0493,0,0,0,1.2695-3.7406c1.0381-5.1907-3.5924-16.0168-4.9079-18.2083-.8629-1.4392-8.2212-7.1516-15.5849-6.43-6.53.6532-5.9651,9.6313-5.9375,10.0132a1.18,1.18,0,0,1-2.3544.1721c-.2981-4.0264,1.002-11.8281,8.0568-12.5335,8.2466-.8222,16.4847,5.2982,17.844,7.5642,1.2149,2.024,6.4439,13.6593,5.1983,19.8849a13.3579,13.3579,0,0,1-1.5115,4.4084c-.5432.9959-.9728,1.7819-1.1879,6.3-.4057,8.5224-1.7481,10.8123-5.5771,13.3642-3.0975,2.0655-3.879,3.4409-3.8867,3.4548A1.1979,1.1979,0,0,1,157.8429,162.771Z"/><path class="a" d="M142.29,157.7187a1.1649,1.1649,0,0,1-1.1434-.9128,4.2227,4.2227,0,0,1,.7023-3.162c.9329-1.3486,2.5973-2.2031,4.9471-2.5389,6.4623-.9221,12.8632-3.2918,12.595-6.5069-.3758-4.5228-3.109-10.2091-4.8372-12.628-.9743-1.364-4.14-3.9035-6.6836-5.9437-3.8643-3.099-4.42-3.6007-4.42-4.4606a1.1806,1.1806,0,0,1,2.2783-.4341c.4127.4825,2.1831,1.9025,3.6185,3.0536,2.7955,2.2422,5.9636,4.7834,7.1278,6.4124,1.9364,2.71,4.8509,8.7845,5.269,13.8045.5309,6.3763-11.0513,8.5316-14.6144,9.04a4.8465,4.8465,0,0,0-3.315,1.5107,1.9108,1.9108,0,0,0-.36,1.3617,1.1919,1.1919,0,0,1-.9259,1.38A1.2068,1.2068,0,0,1,142.29,157.7187Z"/><path class="a" d="M131.0254,152.6741H131.02a1.1777,1.1777,0,0,1-1.1749-1.1772,10.9932,10.9932,0,0,1,2.6164-6.5991,6.1932,6.1932,0,0,0,1.3063-5.9421c-.3957-1.5822-1.1533-6.1189-1.1856-6.311a1.18,1.18,0,0,1,2.3283-.3888c.0076.0461.7745,4.6358,1.1472,6.1266a8.5586,8.5586,0,0,1-1.8042,8.0521,8.7333,8.7333,0,0,0-2.0478,5.0677A1.1828,1.1828,0,0,1,131.0254,152.6741Z"/><path class="a" d="M141.1315,146.0689A4.6785,4.6785,0,1,1,145.81,141.39,4.684,4.684,0,0,1,141.1315,146.0689Zm0-6.9964A2.3179,2.3179,0,1,0,143.45,141.39,2.32,2.32,0,0,0,141.1315,139.0725Z"/><path class="a" d="M157.335,147.1523a2.3178,2.3178,0,0,1-.4565-.0461c-1.118-.229-1.9579-1.2525-2.495-3.0436a2.7939,2.7939,0,0,0-1.5622-2.0555,1.3778,1.3778,0,0,0-.9866.04,4.495,4.495,0,0,1-2.6418,1.6544,1.18,1.18,0,0,1-.5763-2.2891,2.9321,2.9321,0,0,0,1.1887-.57,2.9717,2.9717,0,0,1,2.8939-1.2525c.8667.0753,2.986.5948,3.945,3.7944.3665,1.221.7192,1.4124.7223,1.4139a1.566,1.566,0,0,0,.36-.2866,1.1853,1.1853,0,0,1,1.659-.1245,1.1729,1.1729,0,0,1,.1452,1.646A3.1335,3.1335,0,0,1,157.335,147.1523Z"/><path class="f" d="M458.093,473c0,46.8379-39.4231,84.8074-88.0537,84.8074-50.1245,0-88.1655-44.431-88.0537-84.8074.0991-35.8472,25.3793-60.277,44.6355-75.88,20.7043-16.7768,38.5191-17.75,43.0124-17.8542,17.9855-.4149,33.7059,9.7228,44.6355,18.6657C430.2,410.9662,458.093,436.3234,458.093,473Z"/><path class="f" d="M290.7386,438.0018s10.3185-40.4761,16.8109-49.4032,28.4045-38.1431,33.2738-47.07,31.6506-20.2889,47.07-10.55,21.9119,30.0275,32.4622,41.3893,25.1582,37.3315,25.97,43.8239,4.7114,22.0618,3.9788,24.0158c0,0-6.6673-20.1768-44.2777-48.4718s-72.7695.461-72.7695.461S298.2743,417.6113,290.7386,438.0018Z"/><path class="f" d="M443.463,519.8242s-14.9569,52.0784-73.4237,54.62c-55.9973,2.4347-70.89-53.27-70.89-53.27s26.3453,38.4676,72.157,36.6333C421.9788,555.7788,443.463,519.8242,443.463,519.8242Z"/><circle class="g" cx="370.5015" cy="474.0443" r="25.3907"/><path class="c" d="M370.5015,451.6536a22.3906,22.3906,0,1,1-22.3907,22.3906,22.4159,22.4159,0,0,1,22.3907-22.3906m0-3a25.3906,25.3906,0,1,0,25.3906,25.3906,25.3907,25.3907,0,0,0-25.3906-25.3906Z"/><g class="d"><circle class="e" cx="370.5017" cy="474.044" r="23.8906"/><path class="c" d="M370.5015,451.6536a22.3906,22.3906,0,1,1-22.3907,22.3906,22.4159,22.4159,0,0,1,22.3907-22.3906m0-3a25.3906,25.3906,0,1,0,25.3906,25.3906,25.3907,25.3907,0,0,0-25.3906-25.3906Z"/></g><ellipse class="g" cx="371.8291" cy="415.0117" rx="15.736" ry="15.8665"/><path class="c" d="M371.829,402.1453a12.8671,12.8671,0,1,1-12.736,12.8665,12.8164,12.8164,0,0,1,12.736-12.8665m0-3a15.867,15.867,0,1,0,15.7361,15.8665,15.8016,15.8016,0,0,0-15.7361-15.8665Z"/><g class="d"><path class="e" d="M371.9646,429.378a14.25,14.25,0,1,1,14.25-14.2491A14.2645,14.2645,0,0,1,371.9646,429.378Z"/><path class="c" d="M371.9649,402.3792a12.7495,12.7495,0,1,1-12.75,12.7495,12.764,12.764,0,0,1,12.75-12.7495m0-3a15.7495,15.7495,0,1,0,15.75,15.7495,15.75,15.75,0,0,0-15.75-15.7495Z"/></g><circle class="h" cx="370.875" cy="474.4232" r="9.0952"/><circle class="i" cx="309.1726" cy="430.7994" r="11.3618"/><circle class="i" cx="431.7174" cy="430.7994" r="11.3618"/><circle class="i" cx="309.5784" cy="516.4184" r="10.956"/><circle class="h" cx="370.0393" cy="531.4322" r="7.304"/><circle class="i" cx="431.7174" cy="516.0127" r="11.3618"/><circle class="h" cx="371.7773" cy="416.4212" r="5.6809"/><line class="h" x1="382.8444" y1="408.2966" x2="376.2495" y2="412.9262"/><line class="h" x1="367.8191" y1="420.52" x2="362.4531" y2="424.2879"/><line class="h" x1="380.4097" y1="405.8619" x2="373.8149" y2="410.4915"/><line class="h" x1="365.8017" y1="416.4121" x2="359.2069" y2="421.0417"/><circle class="j" cx="437.4203" cy="432.2561" r="4.0358"/><circle class="j" cx="308.908" cy="434.3103" r="4.1989"/><circle class="j" cx="308.3611" cy="515.2011" r="4.4636"/><circle class="j" cx="346.4427" cy="475.0295" r="4.0582"/><circle class="j" cx="370.2114" cy="536.9382" r="3.8269"/><circle class="j" cx="370.5071" cy="401.1156" r="3.9957"/><circle class="j" cx="437.6232" cy="515.426" r="4.2387"/><path class="h" d="M350.4471,486.1728s12.8376-12.5075,0-23.8832"/><path class="h" d="M381.8705,494.3283s-12.4751-14.525-23.8213,0"/><path class="h" d="M390.4454,462.69s-14.525,12.4751,0,23.8213"/><path class="h" d="M358.463,453.28s12.4751,14.5251,23.8213,0"/><line class="k" x1="370.445" y1="398.743" x2="370.445" y2="266.8898"/><line class="k" x1="370.445" y1="653.4169" x2="370.445" y2="536.7073"/><polyline class="k" points="307.955 514.099 307.955 500.302 592.309 500.302"/><line class="k" x1="342.8522" y1="475.0291" x2="187.8632" y2="475.0291"/><polyline class="k" points="437.385 515.722 592.309 515.722 592.309 431.902 437.385 431.902"/><polyline class="k" points="309.208 437.583 309.208 447.321 592.309 447.321"/><line class="b" x1="141.5948" y1="255.3176" x2="234.1681" y2="368.7793"/><text class="l" transform="translate(259.4763 187.7852)">Orificio para atornillar:<tspan class="m"><tspan x="-20.8076" y="26.1475">bases de micrófono, trípodes</tspan><tspan x="-4.8145" y="52.2949">o adaptadores de tornillo</tspan></tspan></text><text class="n" transform="translate(260.1501 685.6348)">Orificio para atornillar:<tspan class="o"><tspan x="-3.0127" y="24.959">mango de sujeción u otro </tspan><tspan x="55.5254" y="49.918">tipo de base</tspan></tspan></text><text class="p" transform="translate(621.1619 481.4522)">Soportes</text><text class="p" transform="translate(53.5583 479.6729)">Eje central</text><line class="k" x1="592.3845" y1="473.8118" x2="612.3845" y2="473.8118"/></svg>