<svg xmlns="http://www.w3.org/2000/svg" viewBox="0 0 656.9444 624.2375"><defs><style>.a,.b,.d,.g,.h,.j{fill:none;}.a,.g{stroke:#a3a3a3;}.a,.b,.g,.h,.j{stroke-linecap:round;stroke-width:3px;}.a,.b,.g,.h{stroke-linejoin:round;}.b{stroke:#d91519;}.c,.f,.j{opacity:0.6;}.e,.f{fill:#505050;}.g,.l,.m{opacity:0.5;}.h{stroke:#757575;}.i{fill:#a3a3a3;}.j{stroke:#505050;stroke-miterlimit:10;}.k,.l{fill:#d91519;}.n{fill:#fff;}</style></defs><title>casco4</title><path class="a" d="M322,302.5l-19.5056,1.2152v-3.6819L175.4693,295.431s-16.5685-4.6024-25.7733,8.2842c-7.7881,10.9034-14.9173,31.0322-16.9272,36.97a1.0237,1.0237,0,0,1-1.7428.34l-12.2625-11.2765a4.7413,4.7413,0,0,0-3.0271-1.2478l-18.4373.0581a2.9564,2.9564,0,0,0-2.9446,2.8381l-.56,13.9927a6.4476,6.4476,0,0,1-6.4425,6.19H45.0984a2.1771,2.1771,0,0,0-2.1771,2.1771v7.1671a3.5424,3.5424,0,0,1-3.5425,3.5424H20.749a2.68,2.68,0,0,0-2.68,2.68v5.5745a2.7906,2.7906,0,0,1-2.7906,2.7907H4.719a3.219,3.219,0,0,0-3.219,3.219V517.1083a4.2106,4.2106,0,0,0,2.7321,3.9425l9.256,3.4709a4.222,4.222,0,0,1,2.7395,3.9531v8.5458a5.0969,5.0969,0,0,1-5.097,5.0969l-.5317.1536a4.04,4.04,0,0,0-2.9027,3.52l-5.8629,65.33a7.9741,7.9741,0,0,0,2.3036,6.3511l.2906.29a18.7221,18.7221,0,0,0,8.3128,4.8241h0a4.2183,4.2183,0,0,0,5.3282-4.07H137.73s28.5346-27.6141,45.1031-30.3755,99.4111-1.841,99.4111-1.841l20.25,24.8528h79.1607v-58.91l16.5685-19.33V426.932a13.8793,13.8793,0,0,0-.4455-3.5044c-1.7712-6.795-8.7593-30.69-19.8049-32.2675-9.3639-1.3377-24.0739-2.1894-31.4165-2.5551a1.311,1.311,0,0,1-.64-2.4149c7.8828-4.99,25.3254-18.56,27.454-41.9741V331.0786a26.8559,26.8559,0,0,0-6.1226-17.2738c-2.3941-2.8577-7.2632-6.3086-11.2482-7.3048,0,0-1.3976,2-6,2H332S324,309.5,322,302.5Z"/><path class="b" d="M355.2626,305.9369v-7.3638H326.7279l-4.6024,3.6819s1.3808,5.9831,6.9036,5.9831c6.6342,0,23.7491-.0979,23.7491-.0979S355.2626,307.7778,355.2626,305.9369Z"/><path class="a" d="M369.9178,317.67s8.5156-5.21,27.8455,11.3583h16.5685s8.2843,2.7614,8.2843,11.0457H434.122v6.9035l57.99,1.841s14.7276-.9205,16.5685,9.2047c0,0-2.6844,18.12-2.3229,26.2811a4.8572,4.8572,0,0,1-3.8374,5.012c-3.704.7553-10.5719,1.3621-23.2948.9234-26.6937-.9205-57.99,0-57.99,0s-26.21,16.5937-27.8325,19.8028"/><path class="a" d="M507.9409,363.4678s7.6429-6.8254,21.45-6.8254,73.6378-3.6819,109.5362,6.4433c0,0,12.8866,1.8409,9.2047,23.9323s-121.9584,20.25-142.441,0Z"/><path class="a" d="M162.1224,317.0621s78.24-1.841,94.8087,0,45.1031,4.6023,46.9441,5.5228,6.4433,1.8409,15.648,0,41.4212-4.6024,34.9779,12.8866-15.648,30.3756-30.3756,37.7394c0,0-8.2842,3.6819-8.2842,11.0456,0,0,0,17.489-30.3756,2.7615s-42.3417-25.7733-50.626-25.7733H162.1224Z"/><path class="a" d="M398.2236,456.7444s37.7393.69,41.4212,1.61V447.3089s20.25,3.6819,32.2166,2.7614c0,0,4.6023-2.7614,8.2842-2.7614,0,0,8.2843-6.4433,15.648,2.7614,0,0,23.0118,3.6819,39.58-1.8409V445.468h8.2843v-3.6819h23.9323l22.0913-9.2048h46.9441s17.489,2.7615,18.4094,22.0914,0,85.6039,0,85.6039-4.6023,12.8866-11.0456,14.7276c-5.07,1.4485-32.9352.6175-44.5842.1974a16.448,16.448,0,0,1-8.771-2.9421,90.4486,90.4486,0,0,0-47.8968-15.6648c-31.296-.92-69.0354-11.0457-90.2063,15.648,0,0-9.2047.92-10.1252-4.6023,0,0-2.7614-2.7614-1.8409-4.6024,0,0-1.8409-9.2047-11.0457-11.0456V517.2648h-31.296Z"/><path class="a" d="M653.1944,541.1971l-12.4264.0476s-12.8866,1.3331-15.648-24.44-2.7614-53.3874,10.1252-59.8307c0,0,14.9138-5.5229,19.8833,0"/><path class="a" d="M631.5676,459.7149s.9162-16.5481-5.5271-18.3891-16.967-5.5228-21.37-8.7445"/><path class="a" d="M633.8645,540.2766s-6.1926,8.9961-6.7782,15.5437"/><line class="a" x1="650.6066" y1="441.3254" x2="628.4903" y2="442.2458"/><path class="a" d="M589.2216,432.1211s10.1252,14.7276,11.0456,29.4551,3.6819,41.4213,0,61.6717-13.283,26.6357-13.283,26.6357"/><path class="a" d="M568.6962,441.3254a61.9166,61.9166,0,0,1,8.099,21.6315c1.8409,11.9662,9.0685,49.9676-12.4945,76.9905"/><path class="a" d="M595.6649,555.4644s5.5228,32.2165-43.2622,27.6142c-6.0981-.5753-11.88-.9924-17.3488-1.2909-38.2823-2.089-61.2365,1.636-70.0961-2.391-10.1252-4.6024-12.7073-17.3179-10.956-28.9094"/><path class="a" d="M535.8342,582.1581s2.7614,18.4094-11.9662,16.5685-13.3292-13.1471-12.1874-17.6192"/><path class="a" d="M495.73,581.2135a67.5732,67.5732,0,0,1-41.1927,8.0332,22.9411,22.9411,0,0,1-12.57-6.0368,7.7917,7.7917,0,0,0-5.0833-2.4325c-4.6024,0-9.2047,5.5228,0,12.8866s46.0236,10.1252,61.6717,0,11.4109-12.5566,11.4109-12.5566"/><path class="a" d="M566.21,510.3613s6.4433-17.489,1.8409-34.0575c0,0-47.8645-.9205-60.7512-3.6819s-49.7055-7.3638-51.5464,1.8409v50.626H469.56s1.8409-16.5685,14.7275-16.5685S566.21,511.2817,566.21,510.3613Z"/><rect class="a" x="106.8941" y="410.0298" width="80.0811" height="115.059"/><rect class="a" x="22.6709" y="410.49" width="30.3756" height="118.7409"/><rect class="a" x="83.422" y="410.49" width="10.1252" height="115.059"/><polygon class="a" points="339.774 540.737 301.114 540.737 301.114 555.464 331.489 604.249 337.933 604.249 339.774 540.737"/><circle class="a" cx="104.1327" cy="576.6353" r="10.5854"/><circle class="a" cx="70.9957" cy="576.6353" r="10.5854"/><rect class="a" x="48.4441" y="371.8302" width="39.5803" height="8.2843"/><rect class="a" x="95.3882" y="371.8302" width="36.8189" height="8.2843"/><rect class="a" x="140.4913" y="371.8302" width="36.8189" height="8.2843"/><rect class="a" x="184.674" y="371.8302" width="36.8189" height="8.2843"/><rect class="a" x="195.7197" y="472.1617" width="16.5685" height="36.8189"/><rect class="a" x="118.4" y="440.8656" width="61.6716" height="39.5803"/><rect class="a" x="118.4" y="417.8538" width="61.6716" height="11.0457"/><rect class="a" x="293.2897" y="495.1735" width="72.7173" height="17.489"/><path class="a" d="M399.144,303.7152s-1.8409,66.274-4.6023,74.5583-10.1252,16.5685-24.8528,29.4551-13.8071,69.9559,29.4551,98.4905,15.6481,85.604,1.841,79.1606"/><path class="a" d="M411.11,303.7152s3.6819,46.9441,9.2047,62.5921c5.2161,14.7789,8.79,42.6946-18.7452,58.9329a13.43,13.43,0,0,0-6.4871,9.77,104.7165,104.7165,0,0,0,11.4252,62.9242c19.33,35.8984,8.2843,59.8307-5.5228,60.7511"/><g class="c"><path class="d" d="M484.3838,173.58s20.1047-5.5362,26.9953-9.8836c6.7358-4.25,40.8069-7.4127,52.7351,12.9722.8679,1.4833,2.7171,3.899,3.139,5.5595,1.8834,7.4127,10.4588,30.8368,14.7532,28.7241a31.0889,31.0889,0,0,0,7.5336-4.9418s1.2556-1.8532-.6278-4.3241-9.417-8.6481-4.3946-13.59,16.3228-8.03,16.3228-14.8253v-4.363a9.205,9.205,0,0,0-2.5745-6.3832,85.0267,85.0267,0,0,0-8.0981-7.1678c-10.0448-8.03-21.3451-20.3848-23.8563-24.0911s-6.278-11.7368.6278-25.9444c0,0,2.8251-10.1924-1.5695-15.1342s-10.0448-17.914-11.9282-25.9443-14.2159-36.32-27.6231-43.8584C512.6347,12.9722,504.4733,4.9418,464.2942,0H418.4649s-55.4256,3.5185-84.402,23.6965a47.3016,47.3016,0,0,0-3.7611,2.9383c-5.3031,4.55-21.9424,19.361-24.8406,22.783-3.139,3.7063-34.5289,43.2406-32.6455,77.2153,0,0-1.2556,33.9748,3.139,50.6533s17.5784,46.9469,26.3675,42.6229,61.5192-9.7541,79.7254-21.4908c0,0-.6278-3.7063-1.2556-9.2658s-5.0224-30.2685,2.5112-38.2989c8.7371-9.3133,8.1664-15.5725,19.4668-16.808s20.0845,2.6,21.34,3.8359-1.8784-4.4536,16.3278-1.9827S466.8054,143.3117,484.3838,173.58Z"/></g><g class="c"><path class="e" d="M551.8757,115.5868s2.1991,4.5419-.55,6.5605"/><path class="e" d="M551.3268,123.2324a1.093,1.093,0,0,0,.6475-.212c3.4357-2.5238.99-7.6859.8843-7.9042a1.0963,1.0963,0,0,0-1.4565-.5071,1.083,1.083,0,0,0-.51,1.4473c.033.0685,1.7622,3.767-.2138,5.2179a1.0846,1.0846,0,0,0,.6488,1.9581Z"/></g><g class="c"><path class="e" d="M554.1371,153.248c.0168,0,.0335,0,.0506-.0007a1.1168,1.1168,0,0,0,1.1435-1.0971c-.5548-11.7519-3.38-15.1153-4.8972-16.9226-.1509-.179-.2862-.34-.4009-.4912-.6738-.892-.9467-5.5439,0-6.7968l.0475-.0645a3.133,3.133,0,0,0,.45-2.8611,3.7228,3.7228,0,0,0-2.1813-2.232c-2.859-1.1533-4.132-2.728-4.37-3.8169a.8973.8973,0,0,1,.05-.7156c1.8931-.55,8.1512-5.1089,9.3861-6.0166a.9711.9711,0,0,0,.1528-1.4841,1.306,1.306,0,0,0-1.6824-.1352c-2.9271,2.1524-7.5435,5.3285-8.6408,5.6516a2.3159,2.3159,0,0,0-1.6894,2.1751c-.1073,1.764,1.3476,4.4618,5.8,6.2588a1.5116,1.5116,0,0,1,.8834.91,1.2208,1.2208,0,0,1-.17,1.13c-1.48,1.9582-1.273,7.5124-.0233,9.1666.1341.1777.2924.3664.4689.5771,1.3651,1.6254,3.9057,4.6505,4.43,15.7554A1.1379,1.1379,0,0,0,554.1371,153.248Z"/></g><path class="f" d="M277.5361,176.8c4.0624,15.4181,15.7181,42.5772,24.3228,42.5772a3.9366,3.9366,0,0,0,1.76-.4142c8.6947-4.2769,60.8564-9.6485,78.8664-21.2587,0,0-.6211-3.6666-1.2421-9.1655s-4.9683-29.9426,2.4841-37.8869c8.643-9.2128,8.0785-15.4047,19.2571-16.6267a40.56,40.56,0,0,1,4.4026-.2389c8.9981-.0008,15.634,2.9772,16.7075,4.0335.1244.1221.2052.1761.2681.1761.4506,0-.0224-2.76,7.9933-2.76a59.5572,59.5572,0,0,1,7.8905.6228c18.01,2.4439,26.0834,7.3325,43.4724,37.2744,0,0,10.2765-2.8293,18.5873-6.0188,1.7588,2.9735,6.8528,6.74,12.8141,11.6516.8393.6916,1.61,1.327,2.2684,1.8817,1.7476,1.4742,4.0135,3.6815,6.4134,6.0174a99.2566,99.2566,0,0,0,9.8143,8.843c4.5512,3.1977,8.3457,4.2976,22.1339,7.9983A62.5028,62.5028,0,0,0,571.2209,206a14.51,14.51,0,0,0,3.9706-.4379c1.6469,2.8056,3.2377,4.6733,4.53,4.6733a1.2731,1.2731,0,0,0,.5688-.1324,30.7386,30.7386,0,0,0,7.4524-4.8886s1.242-1.833-.621-4.2776-9.3156-8.5545-4.3473-13.4431,16.1468-7.9443,16.1468-14.6659v-4.3161a9.1082,9.1082,0,0,0-2.5466-6.3147,84.2041,84.2041,0,0,0-8.0109-7.09c-9.9365-7.9435-21.1152-20.1647-23.5992-23.8313s-6.21-11.6109.621-25.665c0,0,2.7946-10.0827-1.5526-14.9713s-9.9365-17.7208-11.8-25.665S537.97,29.0462,524.7073,21.5886c-13.0417-7.3325-21.1151-15.2761-60.8612-20.1647H418.5106s-54.8284,3.48-83.4926,23.4408a46.7026,46.7026,0,0,0-3.72,2.907c-5.2461,4.501-21.7059,19.152-24.573,22.5376-3.1053,3.6666-34.157,42.7747-32.2936,76.3833C274.431,126.6926,273.1888,160.3011,277.5361,176.8ZM505.0816,166a38.4462,38.4462,0,0,0,5.342-2.6444c2.5935-1.6362,9.2864-3.1089,17.1868-3.11,12.3976-.0008,27.773,3.6259,34.98,15.9425.8586,1.4675,2.6878,3.8567,3.1052,5.5a127.26,127.26,0,0,0,8.1627,21.434c-1.94.301-7.2456.7855-17.4594-1.9565-13.4508-3.61-17.1425-4.6756-21.349-7.6321a98.2986,98.2986,0,0,1-9.514-8.5923c-2.4316-2.3677-4.728-4.6053-6.5422-6.135-.6643-.5606-1.4434-1.2019-2.2908-1.8995-3.6826-3.0349-9.5345-7.8555-11.6107-10.91Zm-228.1873-39.22c.0026-.074.0018-.1472-.0023-.22-1.8846-34,31.39-74.3011,31.7263-74.6983,2.63-3.106,18.5524-17.3309,24.2993-22.2625a44.1859,44.1859,0,0,1,3.5243-2.7546C363.72,7.8489,416.28,4.0084,418.5948,3.8494h45.0974c33.5325,4.1393,44.1634,10.5265,54.4431,16.7029,1.7166,1.0311,3.4917,2.0978,5.3492,3.1422C535.8329,30.638,547.7478,57.4909,549.631,65.52c1.93,8.2276,7.62,21.4015,12.3464,26.7169,2.76,3.103,1.7257,10.0509,1.0829,12.5362-5.2939,11.0051-5.411,20.3733-.3472,27.8479,2.5909,3.8242,13.9909,16.29,24.0958,24.3683a83.3378,83.3378,0,0,1,7.7741,6.8739,6.6808,6.6808,0,0,1,1.8729,4.6482v4.3161c0,3.0091-4.1832,5.5-8.2286,7.91a38.3133,38.3133,0,0,0-7.1963,5.04c-5.7995,5.7067.336,12.4216,2.9559,15.2887.4731.5185.92,1.0074,1.1623,1.3247a1.9363,1.9363,0,0,1,.526,1.3981,30.7336,30.7336,0,0,1-5.9353,3.8663c-.9567-.8159-3.1144-3.816-6.1746-11.014A125.9151,125.9151,0,0,1,568.0868,181.1a17.7945,17.7945,0,0,0-2.5135-4.7917c-.3261-.4971-.6341-.9668-.8468-1.33-9.0621-15.4869-28.9754-17.1579-37.1163-17.1579-7.7641.0008-15.2055,1.4039-18.517,3.4936-5.2522,3.3138-19.1771,7.5086-24.2006,8.9613-16.9311-28.8109-25.677-34.292-44.3091-36.82a62.6354,62.6354,0,0,0-8.2272-.6458c-4.6686,0-7.1134.8869-8.501,2.0009a38.426,38.426,0,0,0-16.4679-3.4507,42.9866,42.9866,0,0,0-4.6748.2545c-8.7375.9549-11.4476,4.8746-14.8787,9.8364a60.57,60.57,0,0,1-5.9173,7.5552c-7.4331,7.9235-4.6266,28.6163-3.4282,37.4534.1315.969.24,1.7649.3053,2.3456.3836,3.3974.7641,6.0854,1.0054,7.6809-11.7023,6.7142-35.9633,11.36-53.8625,14.7879-11.5976,2.2213-19.9767,3.8256-23.4194,5.5195a1.4438,1.4438,0,0,1-.6583.1569c-2.1037,0-6.2732-3.7244-11.6669-14.1784a142.82,142.82,0,0,1-10.27-26.5815C275.7157,160.2271,276.8819,127.1134,276.8943,126.7806Z"/><path class="a" d="M436.2365,231.648a57.4917,57.4917,0,0,0,26.6916-9.8652c13.4847-9.1941,20.2271-21.4529,19.6141-36.7764S483,169.5,483,169.5s-17.1526-27.9-31.82-32.1761-22.576-3.8044-26.2536-2.5786l-3.6777,1.2259s-13.1763-6.7069-24.9763-1.2081c0,0-5.231,2.4345-7.5961,7.0315a31.0193,31.0193,0,0,1-5.4859,7.656c-.5569.6182-4.3237,3.27-4.8921,12.3641s.6575,21.3529,1.2705,26.2564,1.2259,9.1941,1.2259,9.1941a33.25,33.25,0,0,0,13.8529,21.8677,11.2823,11.2823,0,0,1,2.879,2.9017c1.6563,2.2,29.3829,17.5452,37.279,14.1632A5.3372,5.3372,0,0,0,436.2365,231.648Z"/><path class="g" d="M444.54,224.2346s-6.7423-.6129-7.9682,5.5165,0,7.9682-7.9682,6.7423-30.0341-12.2588-31.8729-15.3235-12.9054-6.807-15.9533-24.8564-5.1975-38.55,1.8557-46.2447c6.7423-7.3552,5.951-10.6747,11.5567-14.2249s17.1015-4.4682,27.0585.1273c7.9682,3.6777,11.0329,8.5812,11.0329,8.5812"/><path class="a" d="M425.2323,158.3435s-1.2259-19.0011-15.63-15.017c-16.8029,4.6476-19.614,14.7106-20.227,15.9364s-4.9749,13.1276-3.3711,21.1465c1.2258,6.1294,3.3711,3.3711,3.3711,11.3394s0,12.8717,3.0647,15.3235,8.5812,5.5164,9.1941,6.7423"/><path class="a" d="M419.4094,161.1018l-10.42,9.807s-4.2906,3.6776-6.1294,7.3553-3.0647,7.9682-3.6776,8.5811-2.4518,11.033,5.5164,12.8718,18.3882,2.4518,19.0012,9.1941"/><path class="h" d="M434.7329,176.4253a30.6352,30.6352,0,0,1-.3065,7.0488c-.6129,2.4517-2.4517,3.6776.613,8.5811s2.4517,7.3553,2.4517,7.3553"/><path class="a" d="M444.54,223.5875s-6.7423-.613-7.9682,5.5164,0,7.9683-7.9682,6.7424-30.0341-12.2588-31.8729-15.3235-12.9054-6.807-15.9533-24.8564-5.1975-38.55,1.8557-46.2447c6.7423-7.3553,5.951-10.6747,11.5567-14.225s17.1015-4.4682,27.0585.1274c7.9682,3.6776,11.0329,8.5811,11.0329,8.5811"/><path class="a" d="M425.2323,158.3435s-1.2259-19.0011-15.63-15.017c-16.8029,4.6476-19.614,14.7106-20.227,15.9364s-4.9749,13.1276-3.3711,21.1465c1.2258,6.1294,3.3711,3.3711,3.3711,11.3394s0,12.8717,3.0647,15.3235,8.5812,5.5164,9.1941,6.7423"/><path class="a" d="M419.4094,161.1018l-10.42,9.807s-4.2906,3.6776-6.1294,7.3553-3.0647,7.9682-3.6776,8.5811-2.4518,11.033,5.5164,12.8718,18.3882,2.4518,19.0012,9.1941"/><path class="a" d="M416.5059,190.297s-6.1294-4.9035-7.9683-.6129-3.6776,4.2906-4.2905,4.2906"/><circle class="i" cx="424.9259" cy="188.1053" r="4.9035"/><path class="a" d="M434.7329,176.4253a30.6352,30.6352,0,0,1-.3065,7.0488c-.6129,2.4517-2.4517,3.6776.613,8.5811s2.4517,7.3553,2.4517,7.3553"/><path class="a" d="M394.5,220.0365V267H422V233.2008S399.55,224.8281,394.5,220.0365Z"/><path class="i" d="M339.5108,549.8015l43.9852.6s16.5685,1.8409,17.489,8.2842-8.2843,8.1462-19.33,9.1357-42.3418,0-42.3418,0Z"/><path class="i" d="M339.5108,576.175l43.9852.6s16.5685,1.841,17.489,8.2843-8.2843,8.1461-19.33,9.1356-42.3418,0-42.3418,0Z"/><path class="j" d="M418.4987,288s-11.2393,6.7358-22.84,1.7453"/><path class="j" d="M395.1915,292.0652s13.5887,4.9357,23.71-1.7528"/><path class="j" d="M395.1915,294.196s13.5887,4.9358,23.71-1.7528"/><path class="j" d="M395.1915,296.3269s13.5887,4.9358,23.71-1.7528"/><path class="j" d="M397.06,299.3031s11.72,4.5577,21.8414-2.1308"/><path class="a" d="M394,302.4737s20,2.0592,26,0V287.03L394,286Z"/><path class="k" d="M421.6755,268.8333c1.7651,2.0979,4.5812,6.3563,3.8155,9.8425-.5425,2.47-2.8913,4.5323-6.9853,6.1363l-25.3233-.974c-1.5207-.1265-12.15-1.0048-14.1824-1.0048-1.5292,0-2.7835.9009-5.8138,3.0775-4.8279,3.4677-13.8144,9.9225-22.1862,9.9225-10.2825,0-21.2575.3155-25.3635.4462-1.8318-2.976-5.5851-10.4826-.5068-15.4462h19.6061a2.7851,2.7851,0,0,1,1.63.6012,12.2987,12.2987,0,0,0,7.5549,2.2335c4.0594,0,8.9112-1.3967,14.4205-4.1514,5.2443-2.6221,8.7316-4.42,11.0393-5.61,4.8039-2.4771,4.9914-2.5738,7.3467-3.1626,3.4536-.8635,10.2627-1.7565,11.4625-1.9105h23.4854m1.3245-3H398s-8,1-12,2-3,1-19,9c-5.8182,2.9091-10.05,3.8347-13.0789,3.8347a9.34,9.34,0,0,1-5.7549-1.6335,5.7341,5.7341,0,0,0-3.43-1.2012H324c-10,8,.0685,21.5.0685,21.5s13.9315-.5,26.9315-.5,26-13,28-13,14,1,14,1l26,1c19-7,4-22,4-22Z"/><path class="l" d="M324.0686,299.3333s-10.0686-13.5-.0686-21.5h20.7358a5.7341,5.7341,0,0,1,3.43,1.2012c2.0991,1.5743,7.4052,3.5131,18.8338-2.2012,16-8,15-8,19-9s12-2,12-2h25s15,15-4,22l-26-1s-12-1-14-1-15,13-28,13S324.0686,299.3333,324.0686,299.3333Z"/><g class="m"><path class="n" d="M324.832,297.8057c-1.7177-2.58-7.3974-12.2862-.289-18.4727h20.1924a4.2216,4.2216,0,0,1,2.53.9014,10.8328,10.8328,0,0,0,6.6563,1.9336c3.8242,0,8.45-1.3438,13.749-3.9932,5.2363-2.6182,8.7178-4.4141,11.0225-5.6016,4.8554-2.5039,5.1464-2.6543,7.6709-3.2851,3.6386-.91,10.8349-1.8408,11.73-1.9551h24.252c1.375,1.5361,5.6787,6.82,4.6074,11.6719-.6728,3.0469-3.43,5.5078-8.1973,7.3174l-25.6992-.9883c-.4258-.0371-12.0185-1.001-14.0576-1.001-.999,0-1.9814.6719-4.9385,2.7959-4.9648,3.5664-14.207,10.2041-23.0615,10.2041C339.9092,297.333,328.0107,297.7012,324.832,297.8057Z"/><path class="k" d="M421.6755,268.8333c1.7651,2.0979,4.5812,6.3563,3.8155,9.8425-.5425,2.47-2.8913,4.5323-6.9853,6.1363l-25.3233-.974c-1.5207-.1265-12.15-1.0048-14.1824-1.0048-1.5292,0-2.7835.9009-5.8138,3.0775-4.8279,3.4677-13.8144,9.9225-22.1862,9.9225-10.2825,0-21.2575.3155-25.3635.4462-1.8318-2.976-5.5851-10.4826-.5068-15.4462h19.6061a2.7851,2.7851,0,0,1,1.63.6012,12.2987,12.2987,0,0,0,7.5549,2.2335c4.0594,0,8.9112-1.3967,14.4205-4.1514,5.2443-2.6221,8.7316-4.42,11.0393-5.61,4.8039-2.4771,4.9914-2.5738,7.3467-3.1626,3.4536-.8635,10.2627-1.7565,11.4625-1.9105h23.4854m1.3245-3H398s-8,1-12,2-3,1-19,9c-5.8182,2.9091-10.05,3.8347-13.0789,3.8347a9.34,9.34,0,0,1-5.7549-1.6335,5.7341,5.7341,0,0,0-3.43-1.2012H324c-10,8,.0685,21.5.0685,21.5s13.9315-.5,26.9315-.5,26-13,28-13,14,1,14,1l26,1c19-7,4-22,4-22Z"/></g></svg>