<svg xmlns="http://www.w3.org/2000/svg" viewBox="0 0 501.7878 498.2344"><defs><style>.a,.d{opacity:0.6;}.b,.e,.f,.g,.m{fill:none;}.c,.d{fill:#505050;}.e,.f{stroke:#a3a3a3;}.e,.f,.g,.m{stroke-linecap:round;stroke-linejoin:round;stroke-width:3px;}.f,.i,.j{opacity:0.5;}.g{stroke:#757575;}.h{fill:#a3a3a3;}.i,.l{fill:#d91519;}.k{fill:#fff;}.m{stroke:#d91519;}.n{fill:#757575;}</style></defs><title>casco5</title><g class="a"><path class="b" d="M178.0566,268.2305s-30.7392-8.555-41.2746-15.2729c-10.2987-6.5669-62.3918-11.4547-80.6294,20.0457-1.327,2.2921-4.1543,6.0252-4.7994,8.591-2.88,11.4547-15.991,47.6517-22.557,44.3869a47.5209,47.5209,0,0,1-11.5185-7.6364s-1.92-2.8637.96-6.6819,14.3981-13.3638,6.7191-21S0,278.2534,0,267.7532v-6.7421a14.3059,14.3059,0,0,1,3.9362-9.8639,130.4711,130.4711,0,0,1,12.3817-11.0761c15.3579-12.4093,32.6357-31.5,36.4751-37.2277s9.5988-18.1366-.96-40.0914c0,0-4.3195-15.75,2.4-23.3867s15.3579-27.6821,18.2376-40.0914S94.2059,43.1492,114.7049,31.5C134.8622,20.0457,147.3406,7.6365,208.7725,0h70.0708S363.5865,5.437,407.89,36.6179a72.3829,72.3829,0,0,1,5.75,4.5405c8.1081,7.0314,33.5488,29.9182,37.98,35.2062,4.7994,5.7273,52.7931,66.8189,49.9135,119.32,0,0,1.92,52.5006-4.7994,78.2737s-26.8765,72.5463-40.3147,65.8644S362.36,324.75,334.5237,306.6129c0,0,.96-5.7273,1.92-14.3183s7.679-46.7733-3.8394-59.1825C319.2453,218.72,320.1179,209.048,302.84,207.1389s-30.7082,4.0183-32.6279,5.9275,2.8718-6.8821-24.9645-3.0639S204.933,221.4572,178.0566,268.2305Z"/></g><g class="a"><path class="c" d="M70.3043,178.6144s-3.3982,7.0186.85,10.1379"/><path class="c" d="M71.1524,190.429a1.6887,1.6887,0,0,1-1-.3275c-5.3092-3.9-1.53-11.8769-1.3666-12.2142a1.6941,1.6941,0,0,1,2.2507-.7837,1.6735,1.6735,0,0,1,.7886,2.2365c-.051.1059-2.7231,5.8212.33,8.0632a1.676,1.676,0,0,1-1.0027,3.0257Z"/></g><g class="a"><path class="c" d="M66.81,236.8117c-.0258,0-.0516,0-.0781-.0011a1.7257,1.7257,0,0,1-1.767-1.6954c.8574-18.16,5.2225-23.3574,7.5675-26.15.2332-.2767.4423-.5248.62-.7591,1.0413-1.3784,1.463-8.5669,0-10.5029-.0066-.0085-.0673-.0912-.0733-.1a4.8416,4.8416,0,0,1-.6952-4.4212,5.7528,5.7528,0,0,1,3.3707-3.4491c4.418-1.7822,6.3852-4.2155,6.7535-5.8982a1.3874,1.3874,0,0,0-.0775-1.1058c-2.9255-.85-12.596-7.8947-14.5043-9.2974a1.5005,1.5005,0,0,1-.2361-2.2933,2.0179,2.0179,0,0,1,2.6-.2089c4.5231,3.326,11.6569,8.234,13.3524,8.7333a3.5788,3.5788,0,0,1,2.6107,3.361c.1658,2.726-2.0825,6.8949-8.9627,9.6717a2.3363,2.3363,0,0,0-1.3651,1.4059,1.8866,1.8866,0,0,0,.2625,1.7462c2.2862,3.026,1.9672,11.6088.0361,14.165-.2073.2746-.4518.5662-.7246.8917-2.11,2.5118-6.0355,7.1864-6.846,24.3467A1.7582,1.7582,0,0,1,66.81,236.8117Z"/></g><path class="d" d="M499.0643,195.776c2.849-51.9347-44.6276-112.3679-49.3754-118.0339-4.3836-5.2316-29.55-27.8716-37.5709-34.827A71.539,71.539,0,0,0,406.43,38.423C362.6035,7.5783,278.7735,2.2,278.7735,2.2H209.4577c-60.77,7.5543-73.1138,19.8293-93.0539,31.16C96.1256,44.8846,77.473,88.1288,74.6244,100.4038s-11.3944,32.1055-18.0411,39.66S54.21,163.1985,54.21,163.1985c10.4449,21.7176,4.7477,33.9937.9494,39.66s-20.89,24.5512-36.082,36.8262A129.1661,129.1661,0,0,0,6.8286,250.64a14.1543,14.1543,0,0,0-3.8937,9.7581v6.67c0,10.3867,17.0914,15.1085,24.6877,22.6628s-3.7981,16.9969-6.6467,20.7735-.95,6.61-.95,6.61a46.9913,46.9913,0,0,0,11.3944,7.5543,1.9293,1.9293,0,0,0,.87.2046c1.9753,0,4.4075-2.8862,6.9256-7.2217a21.9585,21.9585,0,0,0,6.0708.6767c5.3348,0,13.23-1.0264,23.6534-3.8532,21.0815-5.7185,26.8831-7.4182,33.8416-12.36,4.0466-2.8748,9.6182-8.36,15.0057-13.665,3.6693-3.61,7.1338-7.0205,9.8058-9.2985,1.006-.8573,2.185-1.8392,3.4682-2.9079,9.1145-7.59,16.903-13.41,19.5921-18.005,12.7068,4.9287,28.4192,9.3008,28.4192,9.3008,26.5869-46.2687,38.9309-53.823,66.4672-57.6a90.1175,90.1175,0,0,1,12.0641-.9624c12.2557,0,11.5325,4.2647,12.2215,4.2647.0961,0,.22-.0835.41-.2721,1.6412-1.6322,11.7873-6.2341,25.545-6.2329a61.356,61.356,0,0,1,6.7313.3692c17.0916,1.8883,16.2285,11.4566,29.4432,25.693,11.3943,12.2762,4.7475,50.0464,3.7981,58.546-.95,8.4973-1.8991,14.1633-1.8991,14.1633C361.39,323.45,441.143,331.7509,454.4367,338.36a5.9688,5.9688,0,0,0,2.6916.64c13.1562,0,30.9772-41.9686,37.1885-65.794C500.9635,247.7107,499.0643,195.776,499.0643,195.776Zm-352.67,60.7372c-3.1743,4.72-12.1217,12.1687-17.7521,16.8586-1.2956,1.0778-2.4868,2.0689-3.5025,2.9353-2.7739,2.3638-6.285,5.8214-10.0028,9.48-5.2827,5.2008-10.7451,10.5776-14.5464,13.2774-6.4315,4.5687-12.076,6.2158-32.6416,11.7938-15.6164,4.2372-23.7288,3.4885-26.6947,3.0233A197.9578,197.9578,0,0,0,53.7347,280.76c.6381-2.5387,3.435-6.2306,4.7477-8.4984,11.0191-19.0326,34.5274-24.6369,53.4827-24.6357,12.0794.0011,22.3125,2.2769,26.2778,4.8053a58.5437,58.5437,0,0,0,8.1677,4.0863Zm344.2742,15.7521a222.1348,222.1348,0,0,1-15.7021,41.076c-8.2467,16.1544-14.6216,21.91-17.8381,21.91a2.1887,2.1887,0,0,1-1.0065-.2424c-5.2636-2.6175-18.075-5.0967-35.8071-8.5293-27.367-5.2968-64.4609-12.4761-82.3532-22.8514.3689-2.4655.9507-6.6193,1.5372-11.8692.1-.8973.2658-2.1272.4668-3.6246,1.8323-13.6558,6.1234-45.6321-5.2415-57.8762a93.4742,93.4742,0,0,1-9.0474-11.6749c-5.2459-7.6675-9.3895-13.7244-22.7487-15.2a65.03,65.03,0,0,0-7.1475-.3932c-11.2,0-20.402,2.8781-25.1787,5.3322-2.1216-1.7214-5.86-3.0919-12.9977-3.0919a94.782,94.782,0,0,0-12.5789.9979c-28.4876,3.9057-41.86,12.3756-67.7465,56.8966-7.6808-2.2449-28.9711-8.727-37.0015-13.8478-5.0632-3.2291-16.4408-5.3974-28.3117-5.3985-12.447,0-42.8935,2.5821-56.749,26.5137-.3252.5612-.7962,1.287-1.2947,2.0552-1.5163,2.3363-3.235,4.9847-3.8431,7.4045a195.9727,195.9727,0,0,1-8.3763,24.0162c-4.6788,11.1228-7.9779,15.759-9.4407,17.02a46.9591,46.9591,0,0,1-9.0748-5.9746,3.0126,3.0126,0,0,1,.8043-2.16c.37-.49,1.0537-1.2459,1.7771-2.0472,4.0057-4.43,13.3866-14.8068,4.5194-23.6253-2.9732-2.9558-7.0552-5.4134-11.0028-7.7886C13.1,275.5675,6.7036,271.7178,6.7036,267.068v-6.67a10.3819,10.3819,0,0,1,2.8637-7.1828,127.8427,127.8427,0,0,1,11.8861-10.6222c15.45-12.483,32.88-31.7465,36.8414-37.656,7.7423-11.55,7.5633-26.0268-.5309-43.0328-.9827-3.8406-2.5638-14.5771,1.6557-19.3721,7.2269-8.2138,15.9267-28.5712,18.8771-41.2851C81.176,88.84,99.3933,47.3444,118.2735,36.6147c2.84-1.6139,5.554-3.2622,8.1787-4.8556,15.717-9.5443,31.9712-19.4143,83.2407-25.8107h68.9519c3.54.2457,83.9,6.18,125.6077,35.5345a67.606,67.606,0,0,1,5.3886,4.2567c8.7867,7.6205,33.1307,29.6022,37.1525,34.4017.5149.6138,51.39,62.8907,48.5079,115.43-.0063.1132-.0074.2263-.0034.3406C495.3169,196.4264,497.1,247.5964,490.6685,272.2653Z"/><path class="e" d="M249,357.962s-20.4085-1.037-41.2461-15.2445-31.2565-33.1508-30.3094-56.83,2.3756-23.9542,2.3756-23.9542,23.4227-43.12,46.0888-49.7289,34.8863-5.8789,40.5693-3.9846l5.683,1.8944s20.3611-10.3641,38.5956-1.867c0,0,8.0832,3.762,11.7381,10.8658a47.9363,47.9363,0,0,0,8.4772,11.8307c.8606.9553,6.6813,5.0531,7.56,19.106s-1.016,32.9963-1.9632,40.5736-1.8943,14.2075-1.8943,14.2075a51.38,51.38,0,0,1-21.4068,33.7918,17.4356,17.4356,0,0,0-4.4489,4.4839c-2.5593,3.4-45.4049,27.1123-57.6065,21.8862C251.2117,364.9927,248.5705,362.7877,249,357.962Z"/><path class="f" d="M236.1686,346.5062s10.4188-.9472,12.3131,8.5245,0,12.3131,12.3132,10.4188,46.4112-18.9433,49.2527-23.6792S329.99,331.2516,334.7,303.36s8.0317-59.5711-2.8675-71.4611c-10.4188-11.366-9.1961-16.4955-17.8584-21.9817s-26.4267-6.9046-41.8131.1969c-12.3132,5.683-17.049,13.26-17.049,13.26"/><path class="e" d="M266.0043,244.6857s1.8943-29.3621,24.1528-23.2055c25.9652,7.1818,30.3093,22.732,31.2565,24.6263s7.6877,20.2859,5.2094,32.6772c-1.8944,9.4717-5.2094,5.2095-5.2094,17.5226s0,19.89-4.7359,23.6792-13.26,8.5245-14.2075,10.4188"/><path class="e" d="M275.0024,248.948l16.1018,15.1547s6.63,5.683,9.4717,11.366,4.7358,12.3131,5.683,13.26,3.7887,17.049-8.5245,19.8905-28.415,3.7887-29.3622,14.2075"/><path class="g" d="M282.58,292.5177s9.4717-7.5774,12.3132-.9472,5.683,6.63,6.63,6.63"/><path class="g" d="M251.3232,272.6272s-.4736,7.1037.4736,10.8924,3.7887,5.683-.9472,13.26-3.7886,11.366-3.7886,11.366"/><path class="e" d="M236.1686,345.5062s10.4188-.9472,12.3131,8.5245,0,12.3131,12.3132,10.4188,46.4112-18.9433,49.2527-23.6792S329.99,330.2516,334.7,302.36s8.0317-59.5711-2.8675-71.4611c-10.4188-11.366-9.1961-16.4955-17.8584-21.9817s-26.4267-6.9046-41.8131.1969c-12.3132,5.683-17.049,13.26-17.049,13.26"/><path class="e" d="M266.0043,244.6857s1.8943-29.3621,24.1528-23.2055c25.9652,7.1818,30.3093,22.732,31.2565,24.6263s7.6877,20.2859,5.2094,32.6772c-1.8944,9.4717-5.2094,5.2095-5.2094,17.5226s0,19.89-4.7359,23.6792-13.26,8.5245-14.2075,10.4188"/><path class="e" d="M275.0024,248.948l16.1018,15.1547s6.63,5.683,9.4717,11.366,4.7358,12.3131,5.683,13.26,3.7887,17.049-8.5245,19.8905-28.415,3.7887-29.3622,14.2075"/><path class="e" d="M282.58,292.5177s9.4717-7.5774,12.3132-.9472,5.683,6.63,6.63,6.63"/><circle class="h" cx="266.4779" cy="290.6762" r="7.5773"/><path class="e" d="M251.3232,272.6272s-.4736,7.1037.4736,10.8924,3.7887,5.683-.9472,13.26-3.7886,11.366-3.7886,11.366"/><path class="i" d="M312.6283,340.7409V429H262.1256V365.4807S303.3536,349.7458,312.6283,340.7409Z"/><g class="j"><path class="k" d="M263.6255,427.5V366.5107c5.9189-2.2919,35.9765-14.1308,47.5029-22.5859V427.5Z"/><path class="l" d="M309.6283,346.7572V426H265.1255V367.5365c7.1919-2.8087,32.0968-12.7727,44.5028-20.7793m3-6.0162c-9.2747,9.0047-50.5028,24.74-50.5028,24.74V429h50.5028V340.741Z"/></g><path class="l" d="M309.6283,346.7572V426H265.1255V367.5365c7.1919-2.8087,32.0968-12.7727,44.5028-20.7793m3-6.0162c-9.2747,9.0047-50.5028,24.74-50.5028,24.74V429h50.5028V340.741Z"/><path class="m" d="M268.5556,469.5535s20.6406,12.37,41.9455,3.2052"/><path class="m" d="M311.3584,477.0191s-24.9551,9.0643-43.5432-3.219"/><path class="m" d="M311.3584,480.9323s-24.9551,9.0644-43.5432-3.2189"/><path class="m" d="M311.3584,484.8456s-24.9551,9.0644-43.5432-3.219"/><path class="m" d="M307.9264,490.3113s-21.5231,8.37-40.1112-3.9132"/><path class="i" d="M313.5466,491.6512a46.58,46.58,0,0,1-47.7482,0v-30.61L313.5466,459Z"/><g class="j"><path class="k" d="M289.6929,496.7344a45.8711,45.8711,0,0,1-22.3946-5.9512V462.4785l44.7481-1.9131v30.2188a45.8016,45.8016,0,0,1-20.7119,5.92Q290.504,496.7349,289.6929,496.7344Z"/><path class="l" d="M310.5466,462.1309v27.767a44.2344,44.2344,0,0,1-19.2679,5.3069c-.5351.02-1.0656.03-1.5879.03a44.25,44.25,0,0,1-20.8924-5.3389v-25.98l41.7482-1.7844m3-3.1309-47.7482,2.0408v30.61a47.5043,47.5043,0,0,0,23.8924,6.5833c.5589,0,1.1266-.01,1.6991-.0315a47.3388,47.3388,0,0,0,22.1567-6.5518V459Z"/></g><path class="l" d="M310.5466,462.1309v27.767a44.2344,44.2344,0,0,1-19.2679,5.3069c-.5351.02-1.0656.03-1.5879.03a44.25,44.25,0,0,1-20.8924-5.3389v-25.98l41.7482-1.7844m3-3.1309-47.7482,2.0408v30.61a47.5043,47.5043,0,0,0,23.8924,6.5833c.5589,0,1.1266-.01,1.6991-.0315a47.3388,47.3388,0,0,0,22.1567-6.5518V459Z"/><path class="k" d="M418.3159,490.4814a25.5018,25.5018,0,0,1-9.3193-1.6494,1.6423,1.6423,0,0,0-.2608-.0879l-28.4111-6.7255c-12.2666-3.6661-23.4756-11.7178-30.8936-17.045-4.8515-3.4853-6.8779-4.8994-8.3378-4.8994-3.6924,0-24.9327,1.7666-25.835,1.8418l-47.3818,1.82c-9.3262-3.4912-14.7344-8.3476-16.0762-14.4375-2.1992-9.9843,7.0322-20.6787,9.1338-22.9541h45.1718c1.254.1592,14.8946,1.91,21.7686,3.6289,4.7773,1.1944,5.501,1.5674,14.3564,6.1338,4.2295,2.1807,10.62,5.4756,20.2295,10.28,9.5567,4.7783,17.8633,7.2,24.69,7.2,5.8418,0,9.4609-1.794,11.4677-3.2988a9.0039,9.0039,0,0,1,5.3995-1.9063H441.564c15.1386,12.6387,2.16,32.8662-.4,36.5391-1.5293.1826-5.2178.9385-13.2862,3.872A27.8849,27.8849,0,0,1,418.3159,490.4814Z"/><path class="h" d="M306.0115,427.8452c1.7058.2175,14.849,1.9207,21.4992,3.5833,4.6081,1.1521,5.14,1.4265,14.0338,6.0124,4.2323,2.1824,10.6282,5.48,20.245,10.2888,9.7662,4.8831,18.2986,7.3589,25.3605,7.3589,6.2558,0,10.1792-1.9577,12.3688-3.6a7.5218,7.5218,0,0,1,4.5-1.6057H441.01c5.9139,5.1887,7.62,12.3411,5.0714,21.2774a47.1667,47.1667,0,0,1-5.7989,12.3745,78.5823,78.5823,0,0,0-12.9176,3.85,26.4029,26.4029,0,0,1-9.0489,1.5972,24.1431,24.1431,0,0,1-8.7074-1.5193,3.0248,3.0248,0,0,0-.5274-.178l-28.3255-6.7058c-12.0768-3.6279-23.13-11.5669-30.4493-16.8242-5.4791-3.9356-7.3034-5.18-9.2128-5.18-3.6881,0-24.3063,1.7092-25.8928,1.8413l-47.0786,1.8108c-8.6438-3.29-13.64-7.7437-14.8554-13.2432-1.9258-8.7173,5.7571-18.2459,8.3309-21.1382h44.4138m.1892-3H260.2891s-27.547,27.5469,7.3459,40.4024l47.748-1.8367s22.0376-1.8364,25.7106-1.8364c3.0244,0,19.7456,16.1872,38.8855,21.9038l28.411,6.726a26.6193,26.6193,0,0,0,9.9259,1.7779,29.3861,29.3861,0,0,0,10.0741-1.7779c10.1742-3.7,13.1479-3.8386,13.537-3.8386.0316,0,.0462.001.0462.001s18.49-24.7922.1259-39.4839H404.0185a10.53,10.53,0,0,0-6.3,2.2058c-1.8926,1.42-5.2032,3-10.5688,3-5.5632,0-13.3352-1.7-24.0188-7.0422-29.3835-14.6919-27.547-14.6919-34.8929-16.5283s-22.0376-3.6729-22.0376-3.6729Z"/><path class="n" d="M427.5278,488s.3282-.9229-3-2c-4.595-1.4871-15.088-2.32-15,2C409.5278,488,416.5744,491.64,427.5278,488Z"/><path class="e" d="M436.2535,485.9943s-6.3709-5.7016-17.7369-4.7544-18.1266,4.9645-18.1266,4.9645"/><path class="e" d="M391.39,483.2044s27-18,50-1"/></svg>