<svg xmlns="http://www.w3.org/2000/svg" viewBox="0 0 495.611 497.2389"><defs><style>.a,.b,.h,.i,.j,.m{fill:none;}.a,.m{stroke:#505050;stroke-miterlimit:10;}.a,.b,.g,.h,.i,.j,.m{stroke-width:3px;}.a,.c,.d,.m{opacity:0.6;}.b,.i{stroke:#a3a3a3;}.b,.g,.h,.i,.j,.m{stroke-linecap:round;}.b,.g,.h,.i,.j{stroke-linejoin:round;}.c,.f{fill:#d91519;}.e,.g{fill:#fff;}.g,.h{stroke:#d91519;}.i{opacity:0.5;}.j{stroke:#757575;}.k{fill:#a3a3a3;}.l{fill:#757575;}</style></defs><title>casco2</title><path class="a" d="M36.6466,312.2905c-.2528.39-.4431,2.3664,0,2.5062,2.8113.8874,11.5337,1.5029,28.7-3.1789,20.8376-5.683,26.5283-7.3787,33.1584-12.1145s17.9886-17.2476,24.6187-22.9306,20.7663-16.7843,22.74-22.5334"/><path class="b" d="M245.8265,357.1717s-20.4085-1.037-41.2461-15.2445-31.2565-33.1509-30.3094-56.83,2.3756-23.9542,2.3756-23.9542,23.4227-43.12,46.0888-49.7289,34.8863-5.8789,40.5693-3.9846l5.683,1.8943s20.3611-10.364,38.5956-1.8669c0,0,8.0832,3.762,11.7381,10.8658a47.9326,47.9326,0,0,0,8.4773,11.8307c.8605.9553,6.6813,5.0531,7.56,19.106s-1.0161,32.9963-1.9633,40.5736-1.8943,14.2075-1.8943,14.2075a51.38,51.38,0,0,1-21.4068,33.7917,17.4375,17.4375,0,0,0-4.4489,4.484c-2.5593,3.4-45.4049,27.1123-57.6065,21.8861C248.0385,364.2023,245.3973,361.9974,245.8265,357.1717Z"/><path class="c" d="M176.1654,266.1538s-30.3322-8.4887-40.7282-15.1546c-10.1624-6.5161-61.5658-11.366-79.562,19.8905-1.3095,2.2743-4.0993,5.9785-4.7358,8.5245C48.2979,290.78,35.36,326.697,28.881,323.4574A46.8845,46.8845,0,0,1,17.515,315.88s-1.8944-2.8415.9471-6.63,14.2075-13.26,6.63-20.8376S.466,276.0991.466,265.68v-6.69a14.2376,14.2376,0,0,1,3.884-9.7875,129.0186,129.0186,0,0,1,12.2178-10.99c15.1547-12.3131,32.2037-31.2565,35.9923-36.94s9.4717-17.9961-.9471-39.781c0,0-4.2623-15.6282,2.3679-23.2056s15.1546-27.4678,17.9961-39.781,21.4477-55.69,41.6754-67.2488C133.5429,19.8905,145.856,7.5773,206.4747,0h69.1432s83.6213,5.3949,127.3384,36.3344a71.4984,71.4984,0,0,1,5.6744,4.5053c8.0007,6.977,33.1047,29.6866,37.4772,34.9336,4.7358,5.683,52.0942,66.3017,49.2527,118.3959,0,0,1.8943,52.0941-4.7359,77.6676s-26.5206,71.9847-39.781,65.3545-92.8147-14.956-120.2825-32.9522c0,0,.9472-5.683,1.8943-14.2075s7.5774-46.4112-3.7886-58.7243c-13.1819-14.28-12.3209-23.8778-29.37-25.7721s-30.3016,3.9872-32.196,5.8816,2.8339-6.8288-24.634-3.04S202.686,219.7427,176.1654,266.1538Z"/><g class="d"><path class="e" d="M453.0627,336.531a4.41,4.41,0,0,1-2.0137-.4829c-4.9746-2.4869-18.2871-5.0777-35.14-8.358-28.13-5.4746-66.4941-12.9409-84.1787-23.9868.31-1.9907,1.0342-6.8672,1.75-13.3076.1006-.9116.2676-2.1626.4707-3.6836,1.7862-13.3823,5.9688-44.7217-4.6474-56.2236a95.6125,95.6125,0,0,1-9.2334-11.9736c-5.0987-7.4927-8.7813-12.9063-21.0733-14.272a62.4851,62.4851,0,0,0-6.88-.38c-12.5068,0-22.1152,3.6953-25.53,5.9116-1.416-1.8725-4.4551-3.6635-12.5518-3.6635a91.85,91.85,0,0,0-12.2392.979c-28.3506,3.91-40.69,11.978-66.8145,57.4975-5.5635-1.604-30.2295-8.9-39.2012-14.6518-4.6445-2.9781-15.7568-5.0581-27.0224-5.0581-12.0235,0-41.417,2.4809-54.6485,25.4624-.3613.6274-.8388,1.3662-1.3515,2.16-1.417,2.1963-3.0244,4.6861-3.54,6.75a202.349,202.349,0,0,1-9.125,25.9741c-7.1582,16.6558-10.458,17.1382-10.8115,17.1382a.406.406,0,0,1-.1953-.0473,47.6438,47.6438,0,0,1-10.8428-7.169c-.2178-.4463-.92-2.3.9531-4.7969.43-.5727,1.11-1.33,1.8995-2.2075,4.166-4.6342,11.9209-13.26,4.5908-20.59-2.7715-2.7725-6.7246-5.1646-10.5469-7.4785C8.4337,276.0139,1.5,271.8171,1.5,265.8786v-6.69a12.6886,12.6886,0,0,1,3.4736-8.7564A129.7688,129.7688,0,0,1,17.048,239.5749c15.25-12.39,32.4082-31.4414,36.2939-37.2715,7.28-10.9194,7.0176-24.7553-.7792-41.1294-.3672-1.4433-3.6446-15.1577,2.081-21.7011,6.8848-7.8687,15.5059-28.1954,18.3291-40.4317,2.93-12.6938,21.5625-55.2007,40.958-66.2837,2.8047-1.6025,5.4971-3.2466,8.1016-4.8369,15.8955-9.7075,32.334-19.7451,84.07-26.2222h69.0488c.7354.0508,83.6084,5.7232,126.4727,36.0591a69.9016,69.9016,0,0,1,5.5556,4.4117c7.6,6.6274,32.9336,29.5117,37.31,34.7631.5195.6226,51.83,63.7867,48.9072,117.354-.0019.0454-.0029.0909-.0009.1363.0185.5185,1.8105,52.1694-4.6895,77.2363C482.0109,297.4851,464.38,336.5305,453.0627,336.531Z"/><path class="f" d="M275.05,3.1986c3.1937.2216,83.8322,6.1473,125.7072,35.7831a68.3546,68.3546,0,0,1,5.4358,4.3176c8.7766,7.6537,33.1064,29.7478,37.1443,34.5932a284.7724,284.7724,0,0,1,27.1324,41.298c15.1634,28.0969,22.5737,54.0364,21.4294,75.0138q-.0075.1361-.0025.2723c.0188.5168,1.8016,51.9529-4.6418,76.8061a224.4221,224.4221,0,0,1-15.7212,41.3545c-10.5483,20.7788-16.8047,22.3936-18.4709,22.3936a2.9406,2.9406,0,0,1-1.3432-.3242c-5.158-2.5789-18.5589-5.187-35.5252-8.489-27.5748-5.3667-65.029-12.6568-82.8284-23.2734.359-2.3779.9793-6.7485,1.6053-12.3827.0986-.8874.27-2.1686.4676-3.6522,1.8138-13.5911,6.0613-45.419-5.0334-57.4383a94.3763,94.3763,0,0,1-9.0948-11.7994c-5.1232-7.53-9.17-13.4774-22.1482-14.92a64.1037,64.1037,0,0,0-7.0452-.3892c-11.4794-.0007-20.7743,3.0472-25.2377,5.4974-1.9177-1.7727-5.484-3.25-12.8446-3.25a93.33,93.33,0,0,0-12.4437.9928c-28.2446,3.8958-41.4658,12.3908-67.3223,57.2153-7.142-2.0868-29.3784-8.8245-37.6784-14.1464-4.9386-3.1666-16.1234-5.2945-27.8319-5.2951-12.2839-.0007-42.3258,2.5524-55.9492,26.2142-.3339.58-.8087,1.3155-1.3114,2.0945-1.4806,2.2942-3.1588,4.8944-3.735,7.1993a201.299,201.299,0,0,1-8.5864,24.663c-5.7533,13.6456-9,16.6145-9.8585,17.203a47.172,47.172,0,0,1-9.8082-6.48c-.1439-.472-.24-1.521.8863-3.0231.39-.52,1.05-1.2546,1.8154-2.1054,4.178-4.6473,12.872-14.3176,4.5361-22.6536-2.9006-2.9006-6.9323-5.3406-10.8312-7.7C9.5663,274.9459,3,270.9718,3,265.8789v-6.69a11.199,11.199,0,0,1,3.0642-7.7265,128.42,128.42,0,0,1,11.93-10.7231C33.35,228.2623,50.66,209.0307,54.59,203.1357c7.5744-11.3616,7.3675-25.6533-.6143-42.4822-1.0644-4.1346-2.6592-15.1007,1.7966-20.193,7.137-8.1566,15.7388-28.4166,18.6617-41.082C77.3257,86.8491,95.6525,44.93,114.6748,34.06c2.8232-1.6132,5.5252-3.2633,8.1383-4.859,15.7512-9.6189,32.0415-19.5653,83.383-26.0023H275.05m.1019-3H206.0088C145.39,7.776,133.0769,20.0891,113.1864,31.4552,92.9588,43.0138,74.3526,86.3907,71.5111,98.7039s-11.366,32.2037-17.9962,39.781-2.3679,23.2056-2.3679,23.2056c10.4189,21.7848,4.7358,34.098.9471,39.781s-20.8376,24.6264-35.9922,36.94a129.02,129.02,0,0,0-12.2178,10.99A14.2379,14.2379,0,0,0,0,259.1889v6.69c0,10.4188,17.049,15.1546,24.6264,22.732s-3.7888,17.049-6.63,20.8376-.9472,6.63-.9472,6.63a46.888,46.888,0,0,0,11.366,7.5773,1.9112,1.9112,0,0,0,.8674.2058c6.7024,0,18.6715-33.3708,21.391-44.249.6365-2.5461,3.4264-6.25,4.7359-8.5246,10.9916-19.0908,34.441-24.712,53.3492-24.711,12.0493.0006,22.2573,2.2844,26.2128,4.8205,10.3959,6.6659,40.7281,15.1547,40.7281,15.1547,26.5207-46.4112,38.8339-53.9884,66.3017-57.7771a89.4533,89.4533,0,0,1,12.0337-.9647c12.2254,0,11.5042,4.2777,12.1915,4.2777.0958,0,.2192-.0833.4088-.273,1.6373-1.6372,11.7569-6.2533,25.4819-6.2525a60.8088,60.8088,0,0,1,6.7141.3709c17.049,1.8944,16.188,11.4918,29.37,25.7721,11.3659,12.3133,4.7357,50.2,3.7886,58.7244s-1.8944,14.2075-1.8944,14.2075C357.5631,322.4339,437.1174,330.76,450.3778,337.39a5.9288,5.9288,0,0,0,2.6849.6409c13.1236,0,30.9-42.0966,37.0961-65.9953,6.63-25.5735,4.7358-77.6677,4.7358-77.6677,2.8415-52.0942-44.5168-112.7128-49.2527-118.3959-4.3725-5.247-29.4764-27.9566-37.4772-34.9336a71.5391,71.5391,0,0,0-5.6743-4.5054C358.7733,5.5935,275.1519.1986,275.1519.1986Z"/></g><g class="d"><path class="f" d="M274.7538,3.15c3.1933.2156,83.8217,5.9827,125.7707,35.5585a68.367,68.367,0,0,1,5.4435,4.308c8.79,7.6378,33.1594,29.6885,37.206,34.5267a284.78,284.78,0,0,1,27.2062,41.25c15.2136,28.07,22.67,53.9959,21.5633,74.9754q-.0073.136-.0021.2724c.02.5166,1.8946,51.9494-4.5045,76.814a224.3973,224.3973,0,0,1-15.6529,41.3936c-10.514,20.7992-16.7654,22.4157-18.4309,22.4157a2.9434,2.9434,0,0,1-1.3382-.3217c-5.1625-2.57-18.5682-5.154-35.54-8.4258-27.5843-5.3174-65.0514-12.5406-82.87-23.1253.3548-2.3785.9673-6.75,1.5833-12.3856.097-.8875.2657-2.1691.461-3.6532,1.79-13.5942,5.98-45.43-5.1361-57.4289a94.3937,94.3937,0,0,1-9.1159-11.7831c-5.1364-7.5208-9.1936-13.4611-22.1747-14.88a64.0656,64.0656,0,0,0-6.9315-.377c-11.533,0-20.8681,3.0739-25.3429,5.5422-1.912-1.7608-5.4573-3.2264-12.7512-3.2264a92.863,92.863,0,0,0-12.54,1.0153c-28.2376,3.9463-41.4438,12.465-67.22,57.3354-7.1457-2.0739-29.3941-8.7719-37.7035-14.0791-4.9118-3.137-16.03-5.245-27.6657-5.2456-12.3241-.0006-42.459,2.5623-56.078,26.3144-.333.5807-.8066,1.3174-1.3079,2.0973-1.4764,2.2966-3.15,4.9-3.7219,7.2054A201.2875,201.2875,0,0,1,39.4171,303.92c-5.729,13.6559-8.97,16.6307-9.8279,17.2206a47.17,47.17,0,0,1-9.82-6.4621c-.1447-.4716-.2429-1.52.881-3.0246.3889-.5205,1.0481-1.2564,1.8115-2.1086,4.17-4.6547,12.8466-14.3406,4.4956-22.6618-2.9057-2.8953-6.9417-5.3282-10.8448-7.6809-6.357-3.8319-12.93-7.7943-12.9395-12.8872l-.012-6.69a11.2,11.2,0,0,1,3.05-7.7321,128.4049,128.4049,0,0,1,11.91-10.7442c15.3343-12.5047,32.61-31.7672,36.53-37.6691,7.5541-11.375,7.3217-25.6661-.69-42.4807-1.0718-4.1327-2.6863-15.0961,1.76-20.1965C62.8441,132.6339,71.41,112.3586,74.31,99.6879c2.8691-12.5345,21.1212-54.4868,40.1239-65.39,2.82-1.6182,5.5195-3.2733,8.13-4.8737C138.2976,19.7768,154.57,9.8015,205.8993,3.2729L274.7538,3.15m.0963-3-69.143.1236c-60.6051,7.6855-72.8962,20.0207-92.7664,31.4222C92.7337,43.29,74.2051,86.7,71.3856,99.0186s-11.3085,32.2239-17.9251,39.813-2.3264,23.21-2.3264,23.21c10.4577,21.7661,4.7967,34.0894,1.0182,39.7791S31.3586,226.4842,16.226,238.8244A129.0245,129.0245,0,0,0,4.0279,249.8366a14.2383,14.2383,0,0,0-3.8666,9.7945l.012,6.69C.1919,276.74,17.2493,281.4452,24.84,289.0089s-3.7582,17.0558-6.5929,20.85-.9352,6.6319-.9352,6.6319a46.8872,46.8872,0,0,0,11.3794,7.557,1.9121,1.9121,0,0,0,.8642.2042c6.7016,0,18.6149-33.4019,21.3156-44.2872.6319-2.5471,3.4152-6.2562,4.7205-8.5329,10.99-19.1678,34.538-24.8074,53.4753-24.8066,11.9753.0006,22.11,2.2568,26.0511,4.774,10.4078,6.6473,40.7552,15.0819,40.7552,15.0819,26.4377-46.4585,38.7373-54.0578,66.1983-57.8955a89.0232,89.0232,0,0,1,12.1251-.9864c12.1264,0,11.4207,4.2561,12.1056,4.2561.0959,0,.2192-.0835.4087-.2736,1.6386-1.6446,11.8-6.2986,25.58-6.2983a60.8607,60.8607,0,0,1,6.6057.3592c17.0523,1.8639,16.2084,11.4627,29.4157,25.72,11.388,12.2928,4.8255,50.1913,3.8936,58.7174s-1.8689,14.2109-1.8689,14.2109c27.5,17.947,107.069,26.1308,120.3412,32.7373a5.9265,5.9265,0,0,0,2.675.6361c13.1247,0,30.8343-42.1457,36.9891-66.0616,6.5845-25.5853,4.5971-77.676,4.5971-77.676,2.7485-52.0992-44.7181-112.6331-49.464-118.3077-4.3819-5.2392-29.5264-27.9039-37.54-34.8665a71.49,71.49,0,0,0-5.6824-4.4953C358.481,5.3951,274.85.15,274.85.15Z"/></g><path class="g" d="M61.5582,198.905s-3.7887,7.8688.9472,11.366"/><path class="h" d="M59.6639,191.3277s11.366,9.4716,14.2075,10.4188c2.6615.8872,1.9991,7.5911-6.657,11.55a4.4351,4.4351,0,0,0-1.9232,6.3607q.0273.0426.0557.0853c1.8943,2.8415,1.486,11.9784,0,14.2075-1.8944,2.8415-7.0766,7.363-8.0238,30.095"/><path class="i" d="M232.9954,345.7158s10.4188-.9471,12.3131,8.5245,0,12.3132,12.3132,10.4189,46.4112-18.9434,49.2527-23.6792,19.9425-10.5188,24.6523-38.41,8.0317-59.5711-2.8675-71.4611c-10.4188-11.366-9.196-16.4955-17.8583-21.9817s-26.4268-6.9046-41.8132.1968c-12.3132,5.683-17.049,13.26-17.049,13.26"/><path class="b" d="M262.8311,243.8954s1.8944-29.3621,24.1528-23.2056c25.9652,7.1819,30.3093,22.732,31.2565,24.6264s7.6877,20.2858,5.2094,32.6772c-1.8943,9.4717-5.2094,5.2094-5.2094,17.5226s0,19.89-4.7359,23.6792-13.26,8.5245-14.2075,10.4188"/><path class="b" d="M271.8292,248.1577l16.1018,15.1546s6.63,5.683,9.4717,11.366,4.7358,12.3132,5.683,13.26,3.7887,17.049-8.5245,19.8905-28.415,3.7886-29.3622,14.2075"/><path class="j" d="M279.4065,291.7273s9.4717-7.5773,12.3132-.9471,5.683,6.63,6.63,6.63"/><path class="j" d="M248.15,271.8368s-.4735,7.1038.4736,10.8925,3.7887,5.683-.9471,13.26-3.7887,11.366-3.7887,11.366"/><path class="b" d="M232.9954,344.7158s10.4188-.9471,12.3131,8.5245,0,12.3132,12.3132,10.4189,46.4112-18.9434,49.2527-23.6792,19.9425-10.5188,24.6523-38.41,8.0317-59.5711-2.8675-71.4611c-10.4188-11.366-9.196-16.4955-17.8583-21.9817s-26.4268-6.9046-41.8132.1968c-12.3132,5.683-17.049,13.26-17.049,13.26"/><path class="b" d="M262.8311,243.8954s1.8944-29.3621,24.1528-23.2056c25.9652,7.1819,30.3093,22.732,31.2565,24.6264s7.6877,20.2858,5.2094,32.6772c-1.8943,9.4717-5.2094,5.2094-5.2094,17.5226s0,19.89-4.7359,23.6792-13.26,8.5245-14.2075,10.4188"/><path class="b" d="M271.8292,248.1577l16.1018,15.1546s6.63,5.683,9.4717,11.366,4.7358,12.3132,5.683,13.26,3.7887,17.049-8.5245,19.8905-28.415,3.7886-29.3622,14.2075"/><path class="b" d="M279.4065,291.7273s9.4717-7.5773,12.3132-.9471,5.683,6.63,6.63,6.63"/><circle class="k" cx="263.3047" cy="289.8858" r="7.5773"/><path class="b" d="M248.15,271.8368s-.4735,7.1038.4736,10.8925,3.7887,5.683-.9471,13.26-3.7887,11.366-3.7887,11.366"/><path class="l" d="M425.8655,487.0678s.5346-2.6925-4.2013-3.64-16.2778-.1156-16.19,4.2044A35.5941,35.5941,0,0,0,425.8655,487.0678Z"/><path class="b" d="M433.7181,483.5s-6.3709-5.7016-17.7369-4.7544-18.1266,4.9645-18.1266,4.9645"/><path class="b" d="M388.8546,480.71s27-18,50-1"/><path class="b" d="M310.093,338.2462V424.493H259.59V362.4219S300.8182,347.0457,310.093,338.2462Z"/><path class="m" d="M266.02,467.0588s20.6406,12.37,41.9455,3.2051"/><path class="m" d="M308.823,474.5243s-24.9551,9.0644-43.5432-3.219"/><path class="m" d="M308.823,478.4376s-24.9551,9.0644-43.5432-3.219"/><path class="m" d="M308.823,482.3509s-24.9551,9.0643-43.5432-3.219"/><path class="m" d="M305.391,487.8166s-21.5231,8.37-40.1112-3.9133"/><path class="b" d="M311.0113,489.6392a49.7681,49.7681,0,0,1-47.7482,0V461.2767l47.7482-1.8909Z"/><path class="k" d="M303.4761,425.3505c1.7059.2175,14.849,1.9207,21.4992,3.5833,4.6079,1.152,5.14,1.4265,14.0333,6.0121,4.2323,2.1824,10.6283,5.48,20.2455,10.289,9.7662,4.883,18.2987,7.359,25.3606,7.359,6.2557,0,10.179-1.9576,12.3687-3.6a7.5213,7.5213,0,0,1,4.5-1.606h36.9914c5.914,5.1888,7.62,12.3413,5.0716,21.2775a47.1726,47.1726,0,0,1-5.7989,12.3746,78.5774,78.5774,0,0,0-12.9178,3.85,26.4024,26.4024,0,0,1-9.0489,1.5971,24.1449,24.1449,0,0,1-8.7073-1.5191,3.0007,3.0007,0,0,0-.5275-.1779L378.22,478.0846c-12.0767-3.628-23.13-11.567-30.4492-16.8244-5.4791-3.9355-7.3035-5.18-9.2129-5.18-3.6884,0-24.3086,1.7094-25.8928,1.8412l-47.0786,1.8108c-8.6437-3.29-13.64-7.7436-14.8553-13.2432-1.9259-8.7171,5.7571-18.2458,8.3308-21.1381h44.4138m.1893-3H257.7537s-27.5469,27.5469,7.3459,40.4022l47.7481-1.8365s22.0375-1.8364,25.7105-1.8364c3.0244,0,19.7457,16.1872,38.8855,21.9038l28.4109,6.7261a26.6218,26.6218,0,0,0,9.9259,1.7777,29.3875,29.3875,0,0,0,10.0741-1.7777c10.1742-3.7,13.1479-3.8386,13.5371-3.8386.0315,0,.0461.0009.0461.0009s18.4906-24.7922.126-39.484H401.4831a10.53,10.53,0,0,0-6.3,2.206c-1.8926,1.4194-5.2031,3-10.5687,3-5.5631,0-13.3353-1.7-24.019-7.0423-29.3834-14.6917-27.5469-14.6917-34.8928-16.5282s-22.0375-3.6729-22.0375-3.6729Z"/></svg>