<svg xmlns="http://www.w3.org/2000/svg" viewBox="0 0 635.9238 704.2524"><defs><style>.a{fill:#fff;}.a,.b,.c{stroke:#d91519;stroke-width:3px;}.a,.b,.c,.e{stroke-linecap:round;stroke-linejoin:round;}.b,.d,.f{fill:#606060;}.c,.e{fill:none;}.d{font-size:33px;font-family:Lato-Italic, Lato;font-style:italic;}.e{stroke:#606060;stroke-width:2px;}</style></defs><title>composition1</title><path class="a" d="M274.4873,255.4356v130.3h.2514c0,2.641,3.0427,4.7822,6.7961,4.7822s6.7953-2.1412,6.7953-4.7822h.2523V253.0915C288.5824,251.7238,274.4873,251.138,274.4873,255.4356Z"/><polyline class="a" points="306.525 442.008 308.435 440.724 305.344 437.427 304.194 438.393"/><path class="a" d="M296.4838,449.1719l1.03-.4121s6.3875-4.5331,9.0661-6.3875c-.4121-3.2968-2.6786-4.121-2.6786-4.121l-8.0359,5.3573c-.6181,1.03-3.4886,2.5214-3.4886,2.5214l-.0142,5.7205,4.121-2.6786"/><path class="a" d="M305.3438,437.4272l3.2124-3.8119,3.0064,3.0064a2.0224,2.0224,0,0,1,0,2.3621,12.7065,12.7065,0,0,1-1.2884,1.7179s-.859,1.0737-1.718.2148S305.3438,437.4272,305.3438,437.4272Z"/><polygon class="a" points="302.253 435.573 304.314 438.251 305.55 437.221 302.253 435.573"/><polygon class="a" points="302.253 435.573 305.454 437.296 308.641 433.718 305.138 431.658 302.253 435.573"/><path class="a" d="M294.2173,424.24,304.52,435.7788s1.8544-.2061,1.8544-1.8544c-1.03-1.4424-10.5084-11.5387-10.5084-11.5387Z"/><polyline class="a" points="293.544 418.471 296.896 421.205 293.496 425.064"/><line class="a" x1="304.1075" y1="436.603" x2="304.9317" y2="437.6332"/><polyline class="a" points="293.496 447.42 296.278 445.463 296.484 449.172 293.599 451.232"/><path class="a" d="M291.4356,445.8751v8.654l2.1635-1.4423v-4.9452A2.2955,2.2955,0,0,0,291.4356,445.8751Z"/><polyline class="a" points="256.47 442.008 254.56 440.724 257.651 437.427 258.801 438.393"/><path class="a" d="M266.5109,449.1719l-1.03-.4121s-6.3875-4.5331-9.0661-6.3875c.4121-3.2968,2.6786-4.121,2.6786-4.121l8.0359,5.3573c.6181,1.03,3.4886,2.5214,3.4886,2.5214l.0142,5.7205-4.121-2.6786"/><path class="a" d="M257.6509,437.4272l-3.2124-3.8119-3.0064,3.0064a2.0224,2.0224,0,0,0,0,2.3621,12.6991,12.6991,0,0,0,1.2885,1.7179s.8589,1.0737,1.7179.2148S257.6509,437.4272,257.6509,437.4272Z"/><polygon class="a" points="260.742 435.573 258.681 438.251 257.445 437.221 260.742 435.573"/><polygon class="a" points="260.742 435.573 257.54 437.296 254.354 433.718 257.857 431.658 260.742 435.573"/><path class="a" d="M268.7775,424.24l-10.3024,11.5387s-1.8544-.2061-1.8544-1.8544c1.03-1.4424,10.5084-11.5387,10.5084-11.5387Z"/><polyline class="a" points="269.451 418.471 266.099 421.205 269.499 425.064"/><line class="a" x1="258.8872" y1="436.603" x2="258.063" y2="437.6332"/><polyline class="a" points="269.499 447.42 266.717 445.463 266.511 449.172 269.396 451.232"/><path class="a" d="M271.5591,445.8751v8.654l-2.1635-1.4423v-4.9452A2.2955,2.2955,0,0,1,271.5591,445.8751Z"/><path class="a" d="M271.6551,428.155v30.9036h.1021c.6858,2.8921,4.8058,5.1156,9.7881,5.1156s9.1024-2.2235,9.7882-5.1156h.1021V428.155Z"/><path class="a" d="M269.5946,384.576v44.7123h.1234c.8287,3.4946,5.8071,6.1814,11.8273,6.1814s10.9987-2.6868,11.8274-6.1814h.1234V384.576Z"/><path class="a" d="M269.9312,430.8336a12.4588,12.4588,0,0,0-1.6484,2.6787l1.4424.8242.2747-.6182Z"/><path class="a" d="M273.228,460.8135v-7.83s-3.2968,1.4424-3.5028,4.7391a29.7284,29.7284,0,0,0,0,4.9452Z"/><path class="a" d="M274.4642,461.6377v-7.83s-3.2967,1.4424-3.5028,4.7391a29.7411,29.7411,0,0,0,0,4.9451Z"/><path class="a" d="M269.7252,462.668a29.7284,29.7284,0,0,1,0-4.9452c.206-3.2967,3.5028-4.7391,3.5028-4.7391l1.2362.8242s-3.2967,1.4424-3.5028,4.7391a29.7411,29.7411,0,0,0,0,4.9451Z"/><polygon class="a" points="257.568 471.219 272.816 463.389 272.816 458.238 257.568 466.068 257.568 471.219"/><polygon class="a" points="257.568 471.219 272.816 463.389 272.816 458.238 257.568 466.068 257.568 471.219"/><path class="a" d="M269.4285,465.1286a3.9366,3.9366,0,0,0-.7336-2.9758l3.9149-2.06"/><path class="a" d="M275.5975,462.2559v-7.83s-3.2968,1.4423-3.5028,4.739a29.7427,29.7427,0,0,0,0,4.9452Z"/><path class="a" d="M276.8338,463.08v-7.83s-3.2968,1.4423-3.5028,4.739a29.7284,29.7284,0,0,0,0,4.9452Z"/><path class="a" d="M272.0947,464.11a29.7427,29.7427,0,0,1,0-4.9452c.206-3.2967,3.5028-4.739,3.5028-4.739l1.2363.8242s-3.2968,1.4423-3.5028,4.739a29.7284,29.7284,0,0,0,0,4.9452Z"/><path class="a" d="M255.48,467.3482l-2.2383,1.3981s-2.2665,3.2968,2.06,3.7089"/><path class="a" d="M255.5212,472.6305s-2.1768-.69-1.3526-2.3388,2.4726-5.7693,2.4726-5.7693l-1.2363-.6182-2.06,4.327s-1.2363,2.2665-.6181,3.0907c-1.4424-.6181-1.2363-2.4725-.4121-3.9149s2.6786-5.9753,2.6786-5.9753l3.2967,2.06"/><path class="a" d="M261.2557,464.1742l-3.5843,7.9719a1.5646,1.5646,0,0,1-1.8544.6182c-1.2363-.4121-.6182-1.6484-.4121-2.2666s2.8846-7.0056,2.8846-7.0056Z"/><polygon class="a" points="261.044 463.904 257.747 461.844 254.965 461.329 258.262 463.389 261.044 463.904"/><path class="a" d="M270.87,436.3529,259.2167,462.977a2.0542,2.0542,0,0,1-2.06-1.03l11.5693-26.6123,1.6177.8564Z"/><polyline class="a" points="273.846 432.173 273.846 430.009 271.167 431.452 271.167 432.07"/><path class="a" d="M269.9312,430.6276v3.2109a9.5192,9.5192,0,0,1,1.1893-1.6655,4.287,4.287,0,0,0,.047-.7212Z"/><path class="a" d="M273.8461,432.07s1.2363.6182.4121,2.2666-1.2363,2.6786-1.2363,2.6786l-2.6786-.8242S271.58,431.6578,273.8461,432.07Z"/><path class="a" d="M270.3433,430.4216c-2.06-1.8545-3.5028,3.9149-3.5028,3.9149l3.5028,1.8544c.8242-2.8847,2.4726-4.5331,3.5028-4.121l-1.8544-.6181a5.9224,5.9224,0,0,0-2.2665,2.8847l-1.4424-.8242s1.2363-2.6787,1.8544-2.8847"/><polygon class="a" points="273.846 430.009 272.404 429.185 269.931 430.628 271.167 431.452 273.846 430.009"/><ellipse class="a" cx="275.0824" cy="461.7407" rx="1.0958" ry="0.6199" transform="translate(-257.5001 534.0644) rotate(-66.9489)"/><path class="a" d="M293.3931,430.8336a12.4561,12.4561,0,0,1,1.6483,2.6787l-1.4423.8242-.2747-.6182Z"/><path class="a" d="M290.0963,460.8135v-7.83s3.2968,1.4424,3.5028,4.7391a29.7284,29.7284,0,0,1,0,4.9452Z"/><path class="a" d="M288.86,461.6377v-7.83s3.2968,1.4424,3.5028,4.7391a29.7268,29.7268,0,0,1,0,4.9451Z"/><path class="a" d="M293.5991,462.668a29.7284,29.7284,0,0,0,0-4.9452c-.206-3.2967-3.5028-4.7391-3.5028-4.7391l-1.2363.8242s3.2968,1.4424,3.5028,4.7391a29.7268,29.7268,0,0,1,0,4.9451Z"/><polygon class="a" points="305.756 471.219 290.508 463.389 290.508 458.238 305.756 466.068 305.756 471.219"/><path class="a" d="M293.8958,465.1286a3.9366,3.9366,0,0,1,.7336-2.9758l-3.9149-2.06"/><path class="a" d="M287.7268,462.2559v-7.83s3.2967,1.4423,3.5028,4.739a29.7427,29.7427,0,0,1,0,4.9452Z"/><path class="a" d="M286.4905,463.08v-7.83s3.2967,1.4423,3.5028,4.739a29.7427,29.7427,0,0,1,0,4.9452Z"/><path class="a" d="M291.23,464.11a29.7427,29.7427,0,0,0,0-4.9452c-.2061-3.2967-3.5028-4.739-3.5028-4.739l-1.2363.8242s3.2967,1.4423,3.5028,4.739a29.7427,29.7427,0,0,1,0,4.9452Z"/><path class="a" d="M307.8446,467.3482l2.2383,1.3981s2.2665,3.2968-2.06,3.7089"/><path class="a" d="M307.8031,472.6305s2.1768-.69,1.3526-2.3388-2.4726-5.7693-2.4726-5.7693l1.2363-.6182,2.06,4.327s1.2363,2.2665.6181,3.0907c1.4423-.6181,1.2363-2.4725.4121-3.9149s-2.6786-5.9753-2.6786-5.9753l-3.2968,2.06"/><path class="a" d="M302.0686,464.1742l3.5843,7.9719a1.5645,1.5645,0,0,0,1.8544.6182c1.2363-.4121.6182-1.6484.4121-2.2666s-2.8847-7.0056-2.8847-7.0056Z"/><polygon class="a" points="302.15 464.11 305.447 462.05 308.228 461.535 304.932 463.595 302.15 464.11"/><path class="a" d="M292.4544,436.3529l11.6531,26.6241a2.0543,2.0543,0,0,0,2.06-1.03l-11.5693-26.6123-1.6177.8564Z"/><polyline class="a" points="289.478 432.173 289.478 430.009 292.157 431.452 292.157 432.07"/><path class="a" d="M293.3931,430.6276v3.2109a9.5192,9.5192,0,0,0-1.1893-1.6655,4.287,4.287,0,0,1-.047-.7212Z"/><path class="a" d="M289.4782,432.07s-1.2363.6182-.4121,2.2666,1.2363,2.6786,1.2363,2.6786l2.6786-.8242S291.7447,431.6578,289.4782,432.07Z"/><path class="a" d="M292.981,430.4216c2.06-1.8545,3.5028,3.9149,3.5028,3.9149l-3.5028,1.8544c-.8242-2.8847-2.4726-4.5331-3.5028-4.121l1.8544-.6181a5.9224,5.9224,0,0,1,2.2665,2.8847l1.4423-.8242s-1.2362-2.6787-1.8544-2.8847"/><polygon class="a" points="289.478 430.009 290.921 429.185 293.393 430.628 292.157 431.452 289.478 430.009"/><ellipse class="a" cx="288.2419" cy="461.7407" rx="0.6199" ry="1.0958" transform="translate(-157.7809 149.7286) rotate(-23.0511)"/><ellipse class="a" cx="281.5453" cy="384.576" rx="11.9507" ry="7.2117"/><ellipse class="a" cx="281.5453" cy="384.1013" rx="9.5791" ry="5.7805"/><path class="a" d="M290.4638,383.7412v-4.5946h-5.3782a14.45,14.45,0,0,0-7.08,0h-5.3782v4.5947a3.3115,3.3115,0,0,0-.022.36c0,2.98,4.0028,5.3951,8.94,5.3951s8.94-2.4155,8.94-5.3951A3.3133,3.3133,0,0,0,290.4638,383.7412Z"/><ellipse class="a" cx="281.5453" cy="379.2567" rx="8.9405" ry="5.3951"/><ellipse class="a" cx="281.5453" cy="379.2567" rx="5.6967" ry="3.4377"/><polygon class="a" points="281.031 227.382 262.658 237.991 281.031 248.6 299.405 237.991 281.031 227.382"/><polygon class="a" points="299.666 262.989 281.041 273.742 281.041 248.909 299.666 238.156 299.666 262.989"/><polygon class="a" points="262.416 262.989 281.04 273.742 281.04 248.909 262.416 238.156 262.416 262.989"/><path class="a" d="M270.6066,268.46c4.6741,2.6986,8.4351-.1171,8.4-6.2892s-4.0295-13.58-8.5263-16.5651a5.9912,5.9912,0,0,0-3.8341-1.1675"/><polyline class="a" points="266.433 244.787 223.402 270.736 223.402 300.435 276.501 268.446"/><path class="a" d="M288.582,237.6534a2.4614,2.4614,0,0,0,.0889-.995l-.0889-.0026V42.8274c0-2.0173-14.0949-3.9261-14.0949,5.1349V236.243l-.0369-.0011a3.4956,3.4956,0,0,0,.0369,1.5367v.7157h.2339a3.7527,3.7527,0,0,0,1.6027,1.8444,11.26,11.26,0,0,0,10.17-.3082,5.1686,5.1686,0,0,0,1.6944-1.5362h.3941Z"/><path class="a" d="M288.5821,107.8654c0,1.0781-.8364,2.1561-2.2611,2.9787a9.9744,9.9744,0,0,1-6.9959,1.0122V51.486s1.2028-8.0542,9.257-7.5508"/><ellipse class="a" cx="284.555" cy="79.1723" rx="4.0155" ry="2.2718" transform="translate(100.2862 310.0074) rotate(-66.9489)"/><polygon class="a" points="509.767 24.928 473.12 34.082 466.576 10.926 503.223 1.772 509.767 24.928"/><path class="a" d="M463.3,6.6462A10.0614,10.0614,0,0,0,457.4858,4.31l-.0048-.02-.0573.0157a6.6565,6.6565,0,0,0-3.6383.9889l-5.2691,1.4323,1.096,4.3828a20.0325,20.0325,0,0,0-.8659,3.75c-1.1979,8.9173,2.4035,19.8079,8.1944,25.564l1.5158,6.0643,8.9646-2.4368s5.2186-2.2931,5.7-10.3867C473.7032,23.8653,470.0305,11.839,463.3,6.6462Z"/><ellipse class="a" cx="452.616" cy="26.6783" rx="11.5777" ry="20.4646" transform="translate(9.1681 121.1609) rotate(-15.401)"/><ellipse class="a" cx="506.7796" cy="13.1565" rx="6.7573" ry="11.9441" transform="translate(14.7041 135.0598) rotate(-15.401)"/><path class="a" d="M274.4879,64.1,223.6535,78.205v28.19l230.543-63.97c2.8684-.5827,5.0943-3.8806,5.7368-8.6641a26.6566,26.6566,0,0,0-5.7322-19.5331l-.0046.0076L289.5889,60.0436l-.3461.6293,67.3791-18.996a1.9465,1.9465,0,0,1,1.6921.3172l.15.113a1.9213,1.9213,0,0,1-.6312,3.3864L266.3746,71.29a2.1041,2.1041,0,0,1-2.6654-2.2277l.0108-.1107a1.9247,1.9247,0,0,1,1.3968-1.6677l9.37-2.7093ZM365.6,58.556a3.2845,3.2845,0,0,1-2.4029,3.1638l-96.0562,26.762a2.1459,2.1459,0,0,1-2.7217-2.0671V85.2755a4.7221,4.7221,0,0,1,3.4546-4.5488l93.6495-26.0913A3.214,3.214,0,0,1,365.6,57.7315Z"/><polyline class="b" points="103.596 602.192 103.596 606.495 262.262 702.752 420.929 606.495 420.929 602.192"/><polygon class="a" points="103.596 601.964 262.262 698.222 420.929 601.964 262.262 505.707 103.596 601.964"/><rect class="a" x="185.5737" y="66.5694" width="38.0799" height="568.7149"/><ellipse class="a" cx="204.6137" cy="66.5694" rx="19.0315" ry="11.6355"/><path class="a" d="M186.7226,137.2154c.8,5.1436,6.7764,9.2989,14.5077,10.2513V84.5434c-7.7313-.9525-13.7081-5.1078-14.5077-10.2514Z"/><path class="a" d="M223.6536,632.6471c0,6.4261-8.51,11.6355-19.0071,11.6355s-19.0071-5.2094-19.0071-11.6355"/><line class="a" x1="200.9927" y1="130.5178" x2="186.655" y2="139.3516"/><ellipse class="a" cx="216.0943" cy="104.3417" rx="11.3774" ry="6.4367" transform="translate(35.4717 262.3271) rotate(-66.9489)"/><path class="c" d="M219.9817,94.0222c0,5.4574-3.318,11.7972-7.4111,14.16a5.2992,5.2992,0,0,1-3.8524.7859"/><path class="c" d="M201.5339,102.7692a10.691,10.691,0,0,1-1.9993,1.5181c-4.093,2.3631-7.4111-.1453-7.4111-5.6027,0-5.27,3.0944-11.3632,6.9928-13.9032q.2076-.1353.4183-.257"/><path class="c" d="M201.067,92.6708a14.4157,14.4157,0,0,1-5.0561,5.5758,5.2982,5.2982,0,0,1-3.8524.7859"/><path class="c" d="M200.9927,111.8925c-5.9624,3.4424-10.5282-1.7339-10.5282-9.6838A27.3391,27.3391,0,0,1,198.16,83.9738"/><text class="d" transform="translate(436.8418 564.9721)">Base</text><text class="d" transform="translate(389.9795 263.3051)">Guía para soporte<tspan x="0" y="39.5996">del cabezal</tspan></text><text class="d" transform="translate(21.3818 101.3647)">Unión</text><text class="d" transform="translate(1.0059 333.0952)">Pilar de<tspan x="-0.9902" y="39.5996">soporte</tspan></text><line class="e" x1="121.5942" y1="316.7231" x2="185.9639" y2="316.0453"/><path class="f" d="M186.0112,320.5568a4.5117,4.5117,0,1,0-4.5586-4.4638A4.5123,4.5123,0,0,0,186.0112,320.5568Z"/><line class="e" x1="135.5391" y1="92.446" x2="185.6792" y2="91.7685"/><path class="f" d="M185.74,96.28a4.5117,4.5117,0,1,0-4.5722-4.45A4.5122,4.5122,0,0,0,185.74,96.28Z"/><line class="e" x1="373.0822" y1="252.3535" x2="299.7964" y2="251.676"/><path class="f" d="M299.8381,247.1645a4.5116,4.5116,0,1,0,4.47,4.5532A4.5121,4.5121,0,0,0,299.8381,247.1645Z"/><text class="d" transform="translate(389.9795 413.3051)">Cabezal<tspan x="0" y="39.5996">intercambiable</tspan></text><line class="e" x1="373.0822" y1="402.3535" x2="293.7964" y2="401.676"/><path class="f" d="M293.835,397.1642a4.5118,4.5118,0,1,0,4.4729,4.55A4.5122,4.5122,0,0,0,293.835,397.1642Z"/><line class="e" x1="421.4824" y1="553.3422" x2="340.8838" y2="552.6645"/><path class="f" d="M340.9219,548.153a4.5118,4.5118,0,1,0,4.4736,4.55A4.5117,4.5117,0,0,0,340.9219,548.153Z"/><line class="e" x1="486.9741" y1="125.1143" x2="487.6506" y2="29.712"/><path class="f" d="M492.1624,29.7441a4.5119,4.5119,0,1,0-4.5437,4.4795A4.5123,4.5123,0,0,0,492.1624,29.7441Z"/><text class="d" transform="translate(467.3242 152.1157)">Mango</text><line class="e" x1="350.974" y1="125.1143" x2="351.6506" y2="65.1088"/><path class="f" d="M356.1621,65.16A4.5117,4.5117,0,1,0,351.6,69.62,4.5123,4.5123,0,0,0,356.1621,65.16Z"/><text class="d" transform="translate(308.0345 152.1157)">Pivote</text></svg>