<svg xmlns="http://www.w3.org/2000/svg" viewBox="0 0 411.5271 701"><defs><style>.a{fill:#fff;}.a,.b,.c,.d{stroke:#fff;stroke-linecap:round;stroke-linejoin:round;stroke-width:3px;}.b,.d{fill:#d91519;}.c{fill:none;}.d{opacity:0.5;}</style></defs><title>ecoladrillo_white</title><polyline class="a" points="1.5 599.406 1.5 603.689 159.43 699.5 317.361 603.689 317.361 599.406"/><polygon class="b" points="178.112 226.334 159.824 236.894 178.112 247.454 196.401 236.894 178.112 226.334"/><path class="b" d="M171.5986,254.2578V383.953h.25c0,2.6288,3.0285,4.76,6.7645,4.76s6.7638-2.1312,6.7638-4.76h.2511V251.9246C185.6283,250.5632,171.5986,249.98,171.5986,254.2578Z"/><polygon class="b" points="196.66 261.776 178.122 272.479 178.122 247.761 196.66 237.058 196.66 261.776"/><polygon class="b" points="1.5 599.179 159.43 694.991 317.361 599.179 159.43 503.368 1.5 599.179"/><rect class="b" x="83.0974" y="66.2676" width="37.9033" height="566.0772"/><ellipse class="b" cx="102.049" cy="66.2676" rx="18.9432" ry="11.5816"/><path class="b" d="M84.2409,136.586c.7959,5.12,6.745,9.2557,14.44,10.2037V84.1582c-7.6954-.948-13.6445-5.0841-14.44-10.2038Z"/><path class="b" d="M121.0007,629.72c0,6.3963-8.47,11.5816-18.919,11.5816S83.1628,636.1161,83.1628,629.72"/><line class="b" x1="98.4449" y1="129.9194" x2="84.1736" y2="138.7122"/><ellipse class="b" cx="113.4764" cy="103.8647" rx="11.3246" ry="6.4068" transform="translate(-26.5271 167.6124) rotate(-66.9489)"/><path class="c" d="M117.3458,93.5931c0,5.4321-3.3027,11.7424-7.3767,14.0946a5.2747,5.2747,0,0,1-3.8346.7822"/><path class="b" d="M185.6279,236.5581a2.4492,2.4492,0,0,0,.0885-.99l-.0885-.0026V42.6357c0-2.0079-14.03-3.9078-14.03,5.1111V235.1542l-.0367-.0011a3.4789,3.4789,0,0,0,.0367,1.53v.7123h.2328a3.7357,3.7357,0,0,0,1.5953,1.8359,11.2075,11.2075,0,0,0,10.1226-.3068,5.146,5.146,0,0,0,1.6866-1.5291h.3922Z"/><path class="c" d="M185.628,107.3721c0,1.0731-.8325,2.1461-2.2506,2.9649a9.9283,9.9283,0,0,1-6.9634,1.0075v-60.09s1.1972-8.0169,9.214-7.5158"/><ellipse class="d" cx="181.6196" cy="78.8121" rx="3.9969" ry="2.2612" transform="translate(37.9868 215.0715) rotate(-66.9489)"/><path class="c" d="M98.9836,102.3a10.6412,10.6412,0,0,1-1.99,1.5111c-4.074,2.3521-7.3767-.1447-7.3767-5.5767,0-5.2457,3.08-11.3105,6.96-13.8387q.2069-.1347.4164-.2559"/><path class="c" d="M98.5188,92.248a14.3488,14.3488,0,0,1-5.0326,5.55,5.2744,5.2744,0,0,1-3.8346.7823"/><polygon class="b" points="405.787 24.819 369.31 33.931 362.796 10.882 399.274 1.771 405.787 24.819"/><path class="b" d="M359.5351,6.6224a10.0143,10.0143,0,0,0-5.7867-2.3255l-.0049-.02-.057.0156a6.6262,6.6262,0,0,0-3.6214.9843l-5.2446,1.4256,1.0908,4.3625a19.94,19.94,0,0,0-.8618,3.7324c-1.1924,8.876,2.3923,19.7161,8.1563,25.4455l1.5088,6.0361,8.9231-2.4255s5.1944-2.2824,5.6731-10.3385C369.8905,23.7616,366.2349,11.7911,359.5351,6.6224Z"/><ellipse class="b" cx="348.9012" cy="26.5615" rx="11.524" ry="20.3697" transform="matrix(0.9641, -0.2656, 0.2656, 0.9641, 5.4748, 93.6128)"/><ellipse class="b" cx="402.8135" cy="13.1025" rx="6.726" ry="11.8887" transform="matrix(0.9641, -0.2656, 0.2656, 0.9641, 10.9851, 107.4472)"/><path class="c" d="M98.4449,111.3805c-5.9348,3.4264-10.4794-1.7259-10.4794-9.6389a27.2119,27.2119,0,0,1,7.66-18.15"/><path class="b" d="M171.5992,63.8094l-50.5986,14.04v28.0589L350.4742,42.2352c2.8552-.58,5.0707-3.8627,5.71-8.6239a26.5328,26.5328,0,0,0-5.7056-19.4425l-.0047.0075L186.63,59.7721l-.3445.6264,67.0667-18.9079a1.9373,1.9373,0,0,1,1.6842.3157l.15.1124a1.9124,1.9124,0,0,1-.6283,3.3707L163.5235,70.9658a2.0944,2.0944,0,0,1-2.6531-2.2174l.0108-.11a1.9159,1.9159,0,0,1,1.39-1.66l9.3269-2.6967Zm90.69-5.5181a3.2692,3.2692,0,0,1-2.3917,3.1492L164.2865,88.0784a2.1359,2.1359,0,0,1-2.709-2.0575v-1.134a4.7,4.7,0,0,1,3.4386-4.5276l93.2151-25.97a3.1991,3.1991,0,0,1,4.0578,3.0818Z"/><polygon class="b" points="159.583 261.776 178.121 272.479 178.121 247.761 159.583 237.058 159.583 261.776"/><path class="b" d="M167.7358,267.222c4.6525,2.6861,8.3961-.1166,8.3615-6.26s-4.0108-13.5173-8.4868-16.4883a5.9635,5.9635,0,0,0-3.8162-1.1621"/><polyline class="b" points="163.582 243.658 120.75 269.487 120.75 299.049 173.603 267.208"/><polyline class="b" points="206.99 430.717 209.157 429.26 205.649 425.518 204.344 426.614"/><path class="b" d="M195.5948,438.8464l1.1692-.4677s7.2485-5.1441,10.2882-7.2485c-.4676-3.7412-3.04-4.6765-3.04-4.6765l-9.1191,6.0794c-.7015,1.1691-3.959,2.8613-3.959,2.8613l-.016,6.4917,4.6764-3.04"/><path class="b" d="M205.6493,425.5184l3.6454-4.3258,3.4117,3.4117a2.2952,2.2952,0,0,1,0,2.6806,14.4289,14.4289,0,0,1-1.4621,1.95s-.9748,1.2185-1.95.2437S205.6493,425.5184,205.6493,425.5184Z"/><polygon class="b" points="202.142 423.414 204.48 426.454 205.883 425.285 202.142 423.414"/><polygon class="b" points="202.142 423.414 205.775 425.37 209.39 421.31 205.415 418.971 202.142 423.414"/><path class="b" d="M193.0228,410.5537l11.6912,13.0941s2.1044-.2338,2.1044-2.1044c-1.1691-1.6368-11.925-13.0942-11.925-13.0942Z"/><polyline class="b" points="192.258 404.007 196.062 407.109 192.204 411.489"/><line class="c" x1="204.2463" y1="424.5831" x2="205.1816" y2="425.7522"/><polyline class="b" points="192.204 436.859 195.361 434.638 195.595 438.846 192.321 441.185"/><path class="b" d="M189.8661,435.1052v9.8206l2.4552-1.6368v-5.6118A2.6049,2.6049,0,0,0,189.8661,435.1052Z"/><polyline class="b" points="150.187 430.717 148.02 429.26 151.527 425.518 152.832 426.614"/><path class="b" d="M161.5814,438.8464l-1.1691-.4677s-7.2485-5.1441-10.2882-7.2485c.4676-3.7412,3.04-4.6765,3.04-4.6765l9.1191,6.0794c.7015,1.1691,3.9589,2.8613,3.9589,2.8613l.0161,6.4917-4.6765-3.04"/><path class="b" d="M151.527,425.5184l-3.6455-4.3258-3.4116,3.4117a2.2952,2.2952,0,0,0,0,2.6806,14.4175,14.4175,0,0,0,1.4621,1.95s.9748,1.2185,1.95.2437S151.527,425.5184,151.527,425.5184Z"/><polygon class="b" points="155.034 423.414 152.696 426.454 151.293 425.285 155.034 423.414"/><polygon class="b" points="155.034 423.414 151.402 425.37 147.786 421.31 151.761 418.971 155.034 423.414"/><path class="b" d="M164.1535,410.5537l-11.6912,13.0941s-2.1044-.2338-2.1044-2.1044c1.1691-1.6368,11.925-13.0942,11.925-13.0942Z"/><polyline class="b" points="164.918 404.007 161.114 407.109 164.972 411.489"/><line class="c" x1="152.9299" y1="424.5831" x2="151.9946" y2="425.7522"/><polyline class="b" points="164.972 436.859 161.815 434.638 161.581 438.846 164.855 441.185"/><path class="b" d="M167.31,435.1052v9.8206l-2.4551-1.6368v-5.6118A2.6049,2.6049,0,0,1,167.31,435.1052Z"/><path class="b" d="M167.419,414.9963v35.07h.1159c.7783,3.282,5.4537,5.8053,11.1077,5.8053s10.3294-2.5233,11.1077-5.8053h.1158v-35.07Z"/><path class="b" d="M165.0808,365.5425v50.74h.14c.94,3.9658,6.59,7.0148,13.4218,7.0148s12.4813-3.049,13.4218-7.0148h.14v-50.74Z"/><path class="b" d="M165.4628,418.036a14.1345,14.1345,0,0,0-1.8706,3.04l1.6367.9353.3118-.7014Z"/><path class="b" d="M169.204,452.0574v-8.8853s-3.7412,1.6368-3.9751,5.378a33.7464,33.7464,0,0,0,0,5.6117Z"/><path class="b" d="M170.6069,452.9927v-8.8853s-3.7412,1.6368-3.975,5.378a33.7464,33.7464,0,0,0,0,5.6117Z"/><path class="b" d="M165.2289,454.1618a33.7464,33.7464,0,0,1,0-5.6117c.2339-3.7412,3.9751-5.378,3.9751-5.378l1.4029.9353s-3.7412,1.6368-3.975,5.378a33.7464,33.7464,0,0,0,0,5.6117Z"/><polygon class="b" points="151.433 463.866 168.736 454.98 168.736 449.135 151.433 458.02 151.433 463.866"/><polygon class="b" points="151.433 463.866 168.736 454.98 168.736 449.135 151.433 458.02 151.433 463.866"/><path class="b" d="M164.8923,456.9542s.3366-2.2078-.8325-3.3769l4.4427-2.3383"/><path class="b" d="M171.8929,453.6942v-8.8853s-3.7412,1.6367-3.975,5.3779a33.7474,33.7474,0,0,0,0,5.6118Z"/><path class="b" d="M173.2959,454.63v-8.8853s-3.7412,1.6367-3.975,5.3779a33.733,33.733,0,0,0,0,5.6118Z"/><path class="b" d="M167.9179,455.7986a33.7474,33.7474,0,0,1,0-5.6118c.2338-3.7412,3.975-5.3779,3.975-5.3779l1.403.9353s-3.7412,1.6367-3.975,5.3779a33.733,33.733,0,0,0,0,5.6118Z"/><path class="b" d="M149.063,459.473l-2.54,1.5866s-2.572,3.7412,2.3383,4.2089"/><path class="b" d="M149.11,465.4675s-2.47-.7836-1.535-2.6542,2.8059-6.547,2.8059-6.547l-1.4029-.7015-2.3383,4.91s-1.4029,2.5721-.7014,3.5073c-1.6368-.7014-1.403-2.8058-.4677-4.4426s3.04-6.7809,3.04-6.7809l3.7412,2.3382"/><path class="b" d="M155.6178,455.8712l-4.0676,9.0465a1.7753,1.7753,0,0,1-2.1044.7015c-1.4029-.4676-.7014-1.8706-.4676-2.572s3.2735-7.95,3.2735-7.95Z"/><polygon class="b" points="155.377 455.565 151.636 453.227 148.479 452.642 152.22 454.98 155.377 455.565"/><path class="b" d="M166.528,424.2993l-13.2241,30.2133a2.3313,2.3313,0,0,1-2.3382-1.1691l13.129-30.2,1.8357.9718Z"/><polyline class="b" points="169.905 419.556 169.905 417.101 166.866 418.737 166.866 419.439"/><path class="b" d="M165.4628,417.8022v3.6438a10.8033,10.8033,0,0,1,1.35-1.89,4.8673,4.8673,0,0,0,.0533-.8184Z"/><path class="b" d="M169.9054,419.439s1.403.7014.4677,2.572-1.403,3.04-1.403,3.04l-3.04-.9353S167.3334,418.9713,169.9054,419.439Z"/><path class="b" d="M165.93,417.5684c-2.3382-2.1044-3.975,4.4426-3.975,4.4426l3.975,2.1044c.9353-3.2735,2.8059-5.1441,3.975-4.6764l-2.1044-.7015a6.722,6.722,0,0,0-2.5721,3.2735l-1.6367-.9353s1.4029-3.04,2.1044-3.2735"/><polygon class="b" points="169.905 417.101 168.269 416.165 165.463 417.802 166.866 418.737 169.905 417.101"/><ellipse class="b" cx="171.3084" cy="453.1096" rx="1.2435" ry="0.7035" transform="translate(-312.6993 433.3245) rotate(-66.9489)"/><path class="b" d="M192.0875,418.036a14.139,14.139,0,0,1,1.8706,3.04l-1.6368.9353-.3118-.7014Z"/><path class="b" d="M188.3463,452.0574v-8.8853s3.7412,1.6368,3.975,5.378a33.7464,33.7464,0,0,1,0,5.6117Z"/><path class="b" d="M186.9433,452.9927v-8.8853s3.7412,1.6368,3.9751,5.378a33.7464,33.7464,0,0,1,0,5.6117Z"/><path class="b" d="M192.3213,454.1618a33.7464,33.7464,0,0,0,0-5.6117c-.2338-3.7412-3.975-5.378-3.975-5.378l-1.403.9353s3.7412,1.6368,3.9751,5.378a33.7464,33.7464,0,0,1,0,5.6117Z"/><polygon class="b" points="206.117 463.866 188.814 454.98 188.814 449.135 206.117 458.02 206.117 463.866"/><path class="b" d="M192.6579,456.9542s-.3366-2.2078.8325-3.3769l-4.4426-2.3383"/><path class="b" d="M185.6573,453.6942v-8.8853s3.7412,1.6367,3.975,5.3779a33.7474,33.7474,0,0,1,0,5.6118Z"/><path class="b" d="M184.2544,454.63v-8.8853s3.7412,1.6367,3.975,5.3779a33.7474,33.7474,0,0,1,0,5.6118Z"/><path class="b" d="M189.6323,455.7986a33.7474,33.7474,0,0,0,0-5.6118c-.2338-3.7412-3.975-5.3779-3.975-5.3779l-1.4029.9353s3.7412,1.6367,3.975,5.3779a33.7474,33.7474,0,0,1,0,5.6118Z"/><path class="b" d="M208.4872,459.473l2.54,1.5866s2.5721,3.7412-2.3382,4.2089"/><path class="b" d="M208.44,465.4675s2.47-.7836,1.5349-2.6542-2.8059-6.547-2.8059-6.547l1.403-.7015,2.3382,4.91s1.403,2.5721.7015,3.5073c1.6367-.7014,1.4029-2.8058.4676-4.4426s-3.04-6.7809-3.04-6.7809l-3.7412,2.3382"/><path class="b" d="M201.9325,455.8712,206,464.9177a1.7754,1.7754,0,0,0,2.1044.7015c1.403-.4676.7015-1.8706.4677-2.572s-3.2736-7.95-3.2736-7.95Z"/><polygon class="b" points="202.025 455.799 205.766 453.46 208.923 452.876 205.182 455.214 202.025 455.799"/><path class="b" d="M191.0223,424.2993l13.224,30.2133a2.3315,2.3315,0,0,0,2.3383-1.1691l-13.129-30.2-1.8358.9718Z"/><polyline class="b" points="187.645 419.556 187.645 417.101 190.685 418.737 190.685 419.439"/><path class="b" d="M192.0875,417.8022v3.6438a10.7992,10.7992,0,0,0-1.35-1.89,4.8673,4.8673,0,0,1-.0533-.8184Z"/><path class="b" d="M187.6448,419.439s-1.4029.7014-.4676,2.572,1.4029,3.04,1.4029,3.04l3.04-.9353S190.2169,418.9713,187.6448,419.439Z"/><path class="b" d="M191.62,417.5684c2.3383-2.1044,3.975,4.4426,3.975,4.4426l-3.975,2.1044c-.9353-3.2735-2.8059-5.1441-3.975-4.6764l2.1044-.7015a6.7214,6.7214,0,0,1,2.5721,3.2735l1.6368-.9353s-1.403-3.04-2.1044-3.2735"/><polygon class="b" points="187.645 417.101 189.282 416.165 192.087 417.802 190.685 418.737 187.645 417.101"/><ellipse class="b" cx="186.2419" cy="453.1096" rx="0.7035" ry="1.2435" transform="translate(-162.5454 109.1012) rotate(-23.0511)"/><ellipse class="b" cx="178.6426" cy="365.5425" rx="13.5618" ry="8.1838"/><ellipse class="b" cx="178.6426" cy="365.0038" rx="10.8704" ry="6.5597"/><path class="b" d="M188.7633,364.5951v-5.214H182.66a16.4,16.4,0,0,0-8.035,0h-6.1032v5.2142a3.7451,3.7451,0,0,0-.025.4085c0,3.3813,4.5424,6.1224,10.1457,6.1224s10.1457-2.7411,10.1457-6.1224A3.75,3.75,0,0,0,188.7633,364.5951Z"/><ellipse class="b" cx="178.6426" cy="359.5061" rx="10.1457" ry="6.1224"/><ellipse class="b" cx="178.6426" cy="359.5061" rx="6.4647" ry="3.9011"/></svg>