<svg xmlns="http://www.w3.org/2000/svg" viewBox="0 0 536.8607 537.971"><defs><style>.a{font-size:33px;font-family:Lato-Italic, Lato;font-style:italic;}.a,.c,.e,.i{fill:#606060;}.b,.d,.f,.h,.k{fill:none;}.b,.d,.h{stroke:#606060;}.b,.d{stroke-linecap:round;stroke-linejoin:round;}.b{stroke-width:2px;}.d,.h{stroke-width:3px;}.e{opacity:0.7;}.f{stroke:#d91519;stroke-width:4px;}.f,.h,.j,.k{stroke-miterlimit:10;}.g{fill:#d91519;}.i{opacity:0.5;}.j{fill:#fff;}.j,.k{stroke:#000;}</style></defs><title>head_bottle</title><text class="a" transform="translate(390.7839 444.3178)">Residuos</text><line class="b" x1="380.8366" y1="432.9961" x2="292.9455" y2="432.3728"/><path class="c" d="M292.967,429.365a3.0079,3.0079,0,1,0,2.9863,3.0292A3.0082,3.0082,0,0,0,292.967,429.365Z"/><line class="d" x1="223.7546" y1="294.6142" x2="223.7546" y2="324.6506"/><polygon class="c" points="217.771 322.9 223.754 333.261 229.738 322.9 217.771 322.9"/><line class="d" x1="274.2453" y1="295.2375" x2="274.2453" y2="325.2739"/><polygon class="c" points="268.261 323.523 274.244 333.885 280.228 323.523 268.261 323.523"/><line class="d" x1="325.3591" y1="295.2375" x2="325.3591" y2="325.2739"/><polygon class="c" points="319.376 323.523 325.359 333.885 331.342 323.523 319.376 323.523"/><polygon class="e" points="288.661 48.621 259.343 60.922 259.343 268.369 288.661 268.369 288.661 48.621"/><polyline class="f" points="258.111 263.458 223.573 262.824 257.114 230.679"/><circle class="g" cx="223.5733" cy="262.8243" r="6.5538"/><circle class="g" cx="257.7384" cy="230.9915" r="6.5538"/><path class="g" d="M259.6312,267.6712a6.5538,6.5538,0,1,1,0-13.1076"/><polyline class="f" points="290.214 263.458 324.752 262.824 291.211 230.679"/><circle class="g" cx="324.7516" cy="262.8243" r="6.5538"/><circle class="g" cx="290.5864" cy="230.9915" r="6.5538"/><path class="g" d="M288.6937,267.6712a6.5538,6.5538,0,1,0,0-13.1076"/><rect class="g" x="256.5519" y="157.231" width="34.2059" height="80.5739"/><line class="f" x1="273.4509" y1="228.6833" x2="273.4509" y2="261.5716"/><rect class="g" x="268.8901" y="253.9703" width="9.1216" height="13.6824"/><path class="h" d="M337.4406,457.3178c-11.6347-25.4421,2.9084-107.4223,2.9084-107.4223V245.3c0-19.7883,0-36.75-20.3612-70.6725S299.6267,118.09,299.6267,118.09l-1.2547-9.8941V89.8206c0-5.6538-16.6479-8.4807-24.9231-8.4807s-25.9611,2.8269-25.9611,8.4807v21.2018l-.2167,7.0672s0,22.6153-20.3612,56.5381S206.55,225.5119,206.55,245.3V349.8955s14.543,81.98,2.9083,107.4223,0,76.3263,14.5431,76.3263,23.2695-5.6538,29.0861-5.6538,8.7264,8.4807,20.3612,8.4807S287.992,527.99,293.81,527.99s14.5431,5.6538,29.0862,5.6538S349.0754,482.76,337.4406,457.3178Z"/><path class="i" d="M337.4407,458.7832c-11.6348-22.9674,1.0087-90.6147,1.0087-90.6147l2.5657-14.4431c-5.5844-3.781-14.6141,7.9749-27.9221,7.5619-3.53-.11-23.3957-15.9424-33.5066-12.6032s-11.08,8.3782-16.26,10.5179c-1.8761.7748-8.87,4.6059-14.454,4.6059a25.0738,25.0738,0,0,1-10.9769-2.9016c-1.7219-.703-2.74-2.2467-4.1423-3.3637-2.5469-2.0291-7.2185-6.3379-15.5951-3.8172s-7.6754,9.0785-9.5051,12.2094c-.452.7734.417,1.5948.1416,2.2337l.2494,1.121s.17.8642.4567,2.4279a2.5433,2.5433,0,0,0,.1133.62c2.5727,14.1531,10.0693,66.2626-.1551,86.4458-11.6347,22.9675,0,75.1358,14.5431,75.1358s23.2695-5.1037,29.0862-5.1037,8.7263,7.6557,20.3611,7.6557,14.5431-7.6557,20.3611-7.6557,14.5432,5.1037,29.0862,5.1037S349.0754,481.7507,337.4407,458.7832Z"/><polygon class="e" points="85.451 0 56.133 12.301 56.133 216.009 85.451 216.009 85.451 0"/><polyline class="f" points="54.901 211.097 47.791 170.57 53.905 130.945"/><circle class="g" cx="47.7907" cy="170.5696" r="6.5538"/><circle class="g" cx="54.5288" cy="131.2567" r="6.5538"/><path class="g" d="M56.4216,215.3105a6.5539,6.5539,0,0,1,0-13.1077"/><polyline class="f" points="87.004 211.097 94.115 169.323 88.001 130.945"/><circle class="g" cx="94.1149" cy="169.323" r="6.5538"/><circle class="g" cx="87.3768" cy="131.2567" r="6.5538"/><path class="g" d="M85.4841,215.3105a6.5539,6.5539,0,0,0,0-13.1077"/><rect class="g" x="53.3423" y="57.4962" width="34.2059" height="80.5739"/><line class="f" x1="70.2413" y1="128.9485" x2="70.2413" y2="209.2109"/><rect class="g" x="65.6805" y="201.6096" width="9.1216" height="13.6824"/><path class="h" d="M134.231,457.3178c-11.6347-25.4421,2.9084-107.4223,2.9084-107.4223V245.3c0-19.7883,0-36.75-20.3612-70.6725S96.4171,118.09,96.4171,118.09l-1.2547-9.8941V89.8206c0-5.6538-16.648-8.4807-24.9231-8.4807s-25.9611,2.8269-25.9611,8.4807v21.2018l-.2168,7.0672s0,22.6153-20.3611,56.5381S3.3405,225.5119,3.3405,245.3V349.8955s14.5431,81.98,2.9084,107.4223,0,76.3263,14.5431,76.3263S44.0614,527.99,49.8781,527.99s8.7264,8.4807,20.3612,8.4807S84.7823,527.99,90.6,527.99s14.5431,5.6538,29.0862,5.6538S145.8658,482.76,134.231,457.3178Z"/><path class="i" d="M134.231,457.3177c-11.6347-25.442,2.9084-107.4222,2.9084-107.4222l.6661-15.86c-5.5844-4.1883-14.6141,8.8342-27.9221,8.3766-3.5295-.1213-23.3957-17.66-33.5066-13.961s-11.08,9.2809-16.26,11.6511c-1.876.8583-8.87,5.1022-14.4539,5.1022s-9.5679-2.5772-10.9769-3.2142c-1.7219-.7789-2.74-2.4889-4.1423-3.7262-2.547-2.2477-7.2185-7.0207-15.5952-4.2285S7.2727,344.0921,5.443,347.56a22.6945,22.6945,0,0,0-1.088,2.3351H3.3406s.17.9573.4567,2.6894a3.0921,3.0921,0,0,0,.1133.6869C6.4833,368.95,16.4732,434.96,6.2489,457.3177c-11.6347,25.4422,0,76.3263,14.543,76.3263s23.27-5.6536,29.0863-5.6536,8.7263,8.4806,20.3611,8.4806S84.7824,527.99,90.6,527.99s14.5431,5.6536,29.0862,5.6536S145.8658,482.76,134.231,457.3177Z"/><rect class="j" x="437.1928" y="189.2604" width="69.884" height="128.4518" rx="4.7195" transform="translate(218.6485 725.6211) rotate(-90)"/><path class="k" d="M412.2776,225.7545v15.702a2.0819,2.0819,0,0,0,2.0819,2.0819h0a2.4271,2.4271,0,0,1,2.4272,2.4271v15.0416a2.4274,2.4274,0,0,1-2.4273,2.4273h0a2.0818,2.0818,0,0,0-2.0819,2.0818v15.7019A4.1422,4.1422,0,0,0,416.42,285.36H527.85a4.1422,4.1422,0,0,0,4.1422-4.1422V225.7545a4.1422,4.1422,0,0,0-4.1422-4.1422H416.42A4.1422,4.1422,0,0,0,412.2776,225.7545Z"/><path d="M487.0645,229.3764c.148.0319.2953.0679.4441.0951a6.0694,6.0694,0,0,1,4.25,3.2063,5.78,5.78,0,0,1,.59,1.9078,6.4278,6.4278,0,0,1,.03,1.4156,5.8018,5.8018,0,0,1-.77,2.4072,6.0178,6.0178,0,0,1-2.9233,2.5826,5.4094,5.4094,0,0,1-1.7132.4312.9963.9963,0,0,0-.1081.0216c-.0037.0832-.01.1589-.01.2345q.0006,3.4482.0019,6.8963,0,4.688-.0023,9.3758c0,2.0749.0087,4.15-.0024,6.2247a7.7834,7.7834,0,0,1-1.6764,4.9248,7.6983,7.6983,0,0,1-4.608,2.86,7.3224,7.3224,0,0,1-1.4816.1548q-8.1362-.0053-16.2724-.0023-2.8413,0-5.6825-.0023a6.5642,6.5642,0,0,1-1.7731-.2823,7.7306,7.7306,0,0,1-3.7466-2.3515,7.5,7.5,0,0,1-1.6441-2.9734,12.4858,12.4858,0,0,1-.2621-1.2558,11.174,11.174,0,0,1-.0514-1.9061q-.0079-6.7157-.0016-13.4313,0-3.6548-.0023-7.31a7.3748,7.3748,0,0,1,.4365-2.4448,7.5681,7.5681,0,0,1,1.42-2.4649,7.9859,7.9859,0,0,1,2.07-1.727,8.09,8.09,0,0,1,2.6505-.9467,5.6274,5.6274,0,0,1,.6654-.0674c1.5132-.0859,3.0278-.0312,4.5417-.0384,1.9027-.0089,3.8054-.0044,5.7082-.0043q4.3779,0,8.7559.0023,2.0791,0,4.1584,0h.2479c.0657-.3468.1125-.6769.1922-.9989a5.9362,5.9362,0,0,1,1.1391-2.2879,6.0249,6.0249,0,0,1,2.3353-1.78,5.2621,5.2621,0,0,1,1.5828-.4252.5167.5167,0,0,0,.1159-.0407Zm-6.7555,6.3115H470.2362q-6.3676,0-12.7353.0024a6.5709,6.5709,0,0,0-.9251.0569,7.3263,7.3263,0,0,0-2.0192.5835,7.137,7.137,0,0,0-3.7609,4.1407,7.5881,7.5881,0,0,0-.3986,2.5026q-.0039,5.2956-.0011,10.5912c0,2.3335-.005,4.667,0,7.0005.0029,1.3509.0221,2.7017.0316,4.0526a5.6019,5.6019,0,0,0,.1667,1.2472,7.1078,7.1078,0,0,0,6.9381,5.4966c2.6176.0167,5.2353.0047,7.853.0049,3.1,0,6.2.0071,9.3-.0019,1.5658-.0045,3.1319.0389,4.6975-.03a6.8078,6.8078,0,0,0,1.7163-.3074,7.1008,7.1008,0,0,0,4.9725-6.72c.02-2.3506.0043-4.7015.0042-7.0522q0-3.6165.0006-7.233,0-4.1849-.0007-8.37c0-.0656-.0117-.1312-.0185-.2021a6.0776,6.0776,0,0,1-5.7478-5.7621Zm10.2147-1.4c-1.0146-.0231-2,.0122-3.01-.0167v-3.0049a19.1191,19.1191,0,0,0-2.2958.0166c0,.3312,0,.666,0,1.0008,0,.3271.0049.6542,0,.9812-.0045.3316.0152.6644-.0164,1.0194h-3.0028a17.9907,17.9907,0,0,0,.0115,2.2744h3.0085v2.9946c.7784.002,1.5295.0162,2.2958-.0049,0-.2788,0-.5273,0-.7758,0-.241.0014-.482.0014-.723,0-.25-.0035-.4993-.0011-.7489.0023-.2452-.0127-.4917.0123-.751.5185,0,1.0081,0,1.4977,0,.4956,0,.9914.0063,1.4985-.0048v-2.2571Z"/><path d="M462.6964,243.2882l5.8365,15.9807.0352-.0068V243.2935c.073-.0065.1307-.0163.1885-.0162,2.6086,0,5.2173-.011,7.8259.0074a7.0074,7.0074,0,0,1,3.3421.81,5.7191,5.7191,0,0,1,2.653,2.9478,6.4775,6.4775,0,0,1,.4239,1.7162,6.1344,6.1344,0,0,1,.0312,1.1579,5.3918,5.3918,0,0,1-1.4193,3.4,5.6421,5.6421,0,0,1-2.14,1.4361c-.0236.009-.0459.0215-.0967.0456.2326.4864.4949.954.737,1.4312.2447.4825.4994.96.7481,1.44.2527.4882.5026.978.7553,1.4662.2487.4806.5.96.749,1.44s.4971.9613.7455,1.4421c.247.4783.4937.9566.7528,1.4585h-4.6037l-3.9211-8.003h-2.7767a1.7506,1.7506,0,0,0-.02.1925q-.0014,2.35,0,4.7008,0,1.4592.001,2.9185c0,.058-.0085.1161-.0143.1889h-6.61l-1.1809-3.5369H457.6l-1.2161,3.5391h-4.1091c.037-.245,7.1993-19.9486,7.3393-20.1891Zm9.8539,8.839a.6232.6232,0,0,0,.0989.02c1.2548-.0107,2.51-.0243,3.7643-.0321a2.8991,2.8991,0,0,0,1.0759-.2211,2.4214,2.4214,0,0,0,1.3762-1.35,2.7862,2.7862,0,0,0,.1852-1.2862,2.4073,2.4073,0,0,0-1.06-1.9107,2.7812,2.7812,0,0,0-1.598-.4969c-1.2214-.0125-2.443-.0061-3.6645-.0062a1.5509,1.5509,0,0,0-.1784.0209Zm-11.29-2.7338-.0475-.002-2.4928,7.18c.3687.0408,4.7476.0255,4.9468-.0212Z"/></svg>