<svg xmlns="http://www.w3.org/2000/svg" viewBox="0 0 239.3956 387.3261"><defs><style>.a{fill:#fff;}.a,.b{stroke:#d91519;stroke-linecap:round;stroke-linejoin:round;stroke-width:3px;}.b{fill:none;}</style></defs><title>head</title><polyline class="a" points="216.857 266.05 224.27 261.065 212.272 248.267 207.807 252.015"/><path class="a" d="M177.8763,293.8607l4-1.6s24.7966-17.5976,35.1952-24.7966c-1.6-12.7983-10.3986-15.9979-10.3986-15.9979l-31.1958,20.7972c-2.4,4-13.5431,9.7883-13.5431,9.7883l-.055,22.2074,15.9978-10.3986"/><path class="a" d="M212.2717,248.2668l12.4709-14.798,11.671,11.671a7.8519,7.8519,0,0,1,0,9.17,49.3287,49.3287,0,0,1-5.0019,6.6691s-3.3346,4.1682-6.6691.8337S212.2717,248.2668,212.2717,248.2668Z"/><polygon class="a" points="200.273 241.068 208.272 251.466 213.072 247.467 200.273 241.068"/><polygon class="a" points="200.273 241.068 212.701 247.758 225.07 233.869 211.472 225.87 200.273 241.068"/><path class="a" d="M169.0775,197.0737l39.9946,44.794s7.199-.8,7.199-7.199c-3.9994-5.5993-40.7945-44.794-40.7945-44.794Z"/><polyline class="a" points="166.462 174.677 179.476 185.291 166.278 200.273"/><line class="b" x1="207.4723" y1="245.0673" x2="210.6719" y2="249.0667"/><polyline class="a" points="166.278 287.062 177.076 279.463 177.876 293.861 166.678 301.86"/><path class="a" d="M158.2789,281.0624v33.5955l8.3989-5.5992V289.8613S166.6778,281.8623,158.2789,281.0624Z"/><polyline class="a" points="22.539 266.05 15.126 261.065 27.124 248.267 31.589 252.015"/><path class="a" d="M61.5193,293.8607l-4-1.6s-24.7966-17.5976-35.1952-24.7966c1.6-12.7983,10.3986-15.9979,10.3986-15.9979L63.919,272.2636c2.4,4,13.5431,9.7883,13.5431,9.7883l.055,22.2074L61.5193,293.8607"/><path class="a" d="M27.1239,248.2668,14.653,233.4688,2.982,245.14a7.8519,7.8519,0,0,0,0,9.17,49.3287,49.3287,0,0,0,5.0019,6.6691s3.3346,4.1682,6.6691.8337S27.1239,248.2668,27.1239,248.2668Z"/><polygon class="a" points="39.122 241.068 31.123 251.466 26.324 247.467 39.122 241.068"/><polygon class="a" points="39.122 241.068 26.695 247.758 14.326 233.869 27.924 225.87 39.122 241.068"/><path class="a" d="M70.3181,197.0737l-39.9946,44.794s-7.1991-.8-7.1991-7.199c3.9995-5.5993,40.7946-44.794,40.7946-44.794Z"/><polyline class="a" points="72.933 174.677 59.92 185.291 73.118 200.273"/><line class="b" x1="31.9233" y1="245.0673" x2="28.7237" y2="249.0667"/><polyline class="a" points="73.118 287.062 62.319 279.463 61.519 293.861 72.718 301.86"/><path class="a" d="M81.1167,281.0624v33.5955l-8.3989-5.5992V289.8613S72.7178,281.8623,81.1167,281.0624Z"/><path class="a" d="M81.4893,212.2717v119.97h.3963c2.6624,11.2276,18.6567,19.8594,37.9985,19.8594s35.3361-8.6318,37.9985-19.8594h.3963v-119.97Z"/><path class="a" d="M73.49,43.0944V216.6711h.479c3.2171,13.5665,22.5435,23.9968,45.9148,23.9968s42.6977-10.43,45.9148-23.9968h.479V43.0944Z"/><path class="a" d="M74.797,222.67a48.3584,48.3584,0,0,0-6.3991,10.3986l5.5992,3.2,1.0665-2.4Z"/><path class="a" d="M87.5953,339.0546V308.6587S74.797,314.258,73.9971,327.0563s0,19.1974,0,19.1974Z"/><path class="a" d="M92.3947,342.2542V311.8583s-12.7983,5.5993-13.5982,18.3975,0,19.1975,0,19.1975Z"/><path class="a" d="M73.9971,346.2537s-.8-6.3992,0-19.1974,13.5982-18.3976,13.5982-18.3976l4.7994,3.2s-12.7983,5.5993-13.5982,18.3975,0,19.1975,0,19.1975Z"/><polygon class="a" points="26.803 379.449 85.996 349.053 85.996 329.056 26.803 359.452 26.803 379.449"/><polygon class="a" points="26.803 379.449 85.996 349.053 85.996 329.056 26.803 359.452 26.803 379.449"/><path class="a" d="M72.8455,355.806s1.1516-7.5526-2.8478-11.552l15.1979-7.999"/><path class="a" d="M96.7941,344.6539V314.258s-12.7983,5.5992-13.5982,18.3975,0,19.1974,0,19.1974Z"/><path class="a" d="M101.5934,347.8535V317.4576s-12.7983,5.5992-13.5982,18.3975,0,19.1974,0,19.1974Z"/><path class="a" d="M83.1959,351.8529s-.8-6.3991,0-19.1974S96.7941,314.258,96.7941,314.258l4.7993,3.2s-12.7983,5.5992-13.5982,18.3975,0,19.1974,0,19.1974Z"/><path class="a" d="M18.6949,364.4226l-8.6892,5.4279s-8.7988,12.7983,7.9989,14.3981"/><path class="a" d="M18.8562,384.9293s-8.4505-2.68-5.251-9.08,9.5987-22.397,9.5987-22.397l-4.7993-2.4-7.9989,16.7978s-4.7994,8.7988-2.4,11.9984c-5.5993-2.4-4.7994-9.5987-1.6-15.198s10.3986-23.1969,10.3986-23.1969l12.7983,7.999"/><path class="a" d="M41.1181,352.1012,27.2034,383.0487a6.0737,6.0737,0,0,1-7.199,2.4c-4.7994-1.6-2.4-6.3991-1.6-8.7988s11.1985-27.1963,11.1985-27.1963Z"/><polygon class="a" points="40.295 351.053 27.497 343.054 16.698 341.054 29.496 349.053 40.295 351.053"/><path class="a" d="M78.441,244.0965,33.2026,347.4535s-5.5992.8-7.9989-3.9994L70.1168,240.1428l6.28,3.3247Z"/><polyline class="a" points="89.995 227.87 89.995 219.471 79.596 225.07 79.596 227.47"/><path class="a" d="M74.797,221.87v12.465s3.6348-6.0659,4.617-6.4658a16.6445,16.6445,0,0,0,.1824-2.8Z"/><path class="a" d="M89.995,227.47s4.7993,2.4,1.6,8.7989-4.7994,10.3986-4.7994,10.3986l-10.3986-3.2S81.1962,225.87,89.995,227.47Z"/><path class="a" d="M76.3968,221.0705c-7.9989-7.199-13.5982,15.198-13.5982,15.198l13.5982,7.199c3.2-11.1985,9.5987-17.5976,13.5982-15.9979l-7.1991-2.4s-4.7993,2.4-8.7988,11.1985l-5.5992-3.2s4.7993-10.3986,7.199-11.1985"/><polygon class="a" points="89.995 219.471 84.396 216.271 74.797 221.87 79.596 225.07 89.995 219.471"/><ellipse class="a" cx="94.7943" cy="342.6542" rx="4.2539" ry="2.4066" transform="translate(-257.6179 295.7131) rotate(-66.9489)"/><path class="a" d="M165.8779,222.67a48.3567,48.3567,0,0,1,6.3992,10.3986l-5.5993,3.2-1.0665-2.4Z"/><path class="a" d="M153.08,339.0546V308.6587s12.7983,5.5993,13.5982,18.3976,0,19.1974,0,19.1974Z"/><path class="a" d="M148.28,342.2542V311.8583s12.7983,5.5993,13.5982,18.3975,0,19.1975,0,19.1975Z"/><path class="a" d="M166.6778,346.2537s.8-6.3992,0-19.1974S153.08,308.6587,153.08,308.6587l-4.7993,3.2s12.7983,5.5993,13.5982,18.3975,0,19.1975,0,19.1975Z"/><polygon class="a" points="213.871 379.449 154.679 349.053 154.679 329.056 213.871 359.452 213.871 379.449"/><path class="a" d="M167.8294,355.806s-1.1516-7.5526,2.8479-11.552l-15.198-7.999"/><path class="a" d="M143.8809,344.6539V314.258s12.7983,5.5992,13.5981,18.3975,0,19.1974,0,19.1974Z"/><path class="a" d="M139.0815,347.8535V317.4576s12.7983,5.5992,13.5982,18.3975,0,19.1974,0,19.1974Z"/><path class="a" d="M157.479,351.8529s.8-6.3991,0-19.1974-13.5981-18.3975-13.5981-18.3975l-4.7994,3.2s12.7983,5.5992,13.5982,18.3975,0,19.1974,0,19.1974Z"/><path class="a" d="M221.98,364.4226l8.6892,5.4279s8.7988,12.7983-7.9989,14.3981"/><path class="a" d="M221.8187,384.9293s8.4506-2.68,5.251-9.08-9.5987-22.397-9.5987-22.397l4.7993-2.4,7.999,16.7978s4.7993,8.7988,2.4,11.9984c5.5993-2.4,4.7994-9.5987,1.6-15.198S223.87,341.4543,223.87,341.4543l-12.7983,7.999"/><path class="a" d="M199.5569,352.1012l13.9146,30.9475a6.0738,6.0738,0,0,0,7.1991,2.4c4.7993-1.6,2.4-6.3991,1.6-8.7988s-11.1985-27.1963-11.1985-27.1963Z"/><polygon class="a" points="199.873 351.853 212.672 343.854 223.47 341.854 210.672 349.853 199.873 351.853"/><path class="a" d="M162.234,244.0965l45.2383,103.357s5.5993.8,7.999-3.9994L170.5581,240.1428l-6.28,3.3247Z"/><polyline class="a" points="150.68 227.87 150.68 219.471 161.079 225.07 161.079 227.47"/><path class="a" d="M165.8779,221.87v12.465s-3.6347-6.0659-4.617-6.4658a16.6535,16.6535,0,0,1-.1823-2.8Z"/><path class="a" d="M150.68,227.47s-4.7994,2.4-1.6,8.7989,4.7993,10.3986,4.7993,10.3986l10.3986-3.2S159.4788,225.87,150.68,227.47Z"/><path class="a" d="M164.2781,221.0705c7.999-7.199,13.5982,15.198,13.5982,15.198l-13.5982,7.199c-3.2-11.1985-9.5987-17.5976-13.5981-15.9979l7.199-2.4s4.7993,2.4,8.7988,11.1985l5.5993-3.2S167.4777,222.67,165.078,221.87"/><polygon class="a" points="150.68 219.471 156.279 216.271 165.878 221.87 161.079 225.07 150.68 219.471"/><ellipse class="a" cx="145.8806" cy="342.6542" rx="2.4066" ry="4.2539" transform="translate(-122.519 84.4785) rotate(-23.0511)"/><ellipse class="a" cx="119.8841" cy="43.0944" rx="46.3938" ry="27.9962"/><ellipse class="a" cx="119.8841" cy="41.2514" rx="37.1868" ry="22.4403"/><path class="a" d="M154.5062,39.8534V22.0168H133.6277a56.0945,56.0945,0,0,0-27.4872,0H85.2619V39.8539a12.85,12.85,0,0,0-.0854,1.3975c0,11.5672,15.5391,20.9442,34.7076,20.9442s34.7077-9.377,34.7077-20.9442A12.8357,12.8357,0,0,0,154.5062,39.8534Z"/><ellipse class="a" cx="119.8841" cy="22.4443" rx="34.7076" ry="20.9443"/><ellipse class="a" cx="119.8841" cy="22.4443" rx="22.115" ry="13.3453"/></svg>