<svg xmlns="http://www.w3.org/2000/svg" viewBox="0 0 500.3366 520.203"><defs><style>.a{font-size:36.2832px;font-family:Lato-Bold, Lato;font-weight:700;}.a,.c{fill:#606060;}.b,.d,.f,.g,.h{fill:none;}.b{stroke:#606060;}.b,.f{stroke-miterlimit:10;}.b,.h{stroke-width:3px;}.c{opacity:0.5;}.d,.f,.g,.h{stroke:#d91519;}.d,.g,.h{stroke-linecap:round;stroke-linejoin:round;}.d,.f{stroke-width:4px;}.e{fill:#d91519;}.g{stroke-width:5px;}</style></defs><title>head_bottle3</title><text class="a" transform="translate(237.1823 505.0243)">1.5L</text><path class="b" d="M320.3132,393.2057c-8.7919-19.2256,2.1977-81.1747,2.1977-81.1747V232.9925c0-14.9532,0-27.77-15.3861-53.4044s-15.3861-42.7235-15.3861-42.7235l-.9481-7.4766V115.5028c0-4.2723-12.58-6.4085-18.8334-6.4085s-19.6178,2.1362-19.6178,6.4085v16.0213l-.1638,5.34s0,17.0894-15.3861,42.7235-15.385,38.4512-15.385,53.4044V312.031s10.99,61.9491,2.1977,81.1747,0,57.6767,10.99,57.6767,17.5838-4.2723,21.9793-4.2723,6.5942,6.4085,15.3861,6.4085,10.99-6.4085,15.3861-6.4085,10.99,4.2723,21.9792,4.2723S329.1051,412.4313,320.3132,393.2057Z"/><polygon class="c" points="282.51 81.853 259.333 91.577 259.333 272.983 282.51 272.983 282.51 81.853"/><polyline class="d" points="256.761 267.74 231.056 267.509 257.571 243.188"/><circle class="e" cx="231.0557" cy="267.5086" r="5.1811"/><circle class="e" cx="258.0647" cy="243.4343" r="5.1811"/><path class="e" d="M259.561,272.4311a5.1811,5.1811,0,1,1,0-10.3621"/><polyline class="d" points="284.417 267.74 311.041 266.418 284.526 243.188"/><circle class="e" cx="311.0414" cy="266.4177" r="5.1811"/><circle class="e" cx="284.0324" cy="243.4343" r="5.1811"/><path class="e" d="M282.5361,272.4311a5.1811,5.1811,0,1,0,0-10.3621"/><rect class="e" x="257.1267" y="185.1236" width="27.0412" height="63.697"/><line class="f" x1="270.4861" y1="241.6096" x2="270.4861" y2="267.6092"/><rect class="e" x="266.8806" y="261.6" width="7.211" height="10.8165"/><text class="a" transform="translate(55.8107 509.8622)">2L</text><path class="b" d="M144.8837,379.1587C132.3152,355.418,148.0254,278.92,148.0254,278.92V181.32c0-18.465,0-34.2921-21.9952-65.9463s-21.9953-52.7571-21.9953-52.7571L102.68,53.3838V36.2378c0-5.2758-17.9841-7.9136-26.9234-7.9136S47.7114,30.962,47.7114,36.2378V56.0217l-.2341,6.5946s0,21.1028-21.9953,52.7571C3.4883,147.0276,3.4883,162.8547,3.4883,181.32V278.92S19.1985,355.418,6.63,379.1587s0,71.2221,15.71,71.2221,25.137-5.2757,31.4205-5.2757,9.4268,7.9135,21.9953,7.9135,15.71-7.9135,21.9953-7.9135c6.2835,0,15.71,5.2757,31.42,5.2757C144.8837,450.3808,157.4522,402.8994,144.8837,379.1587Z"/><polygon class="c" points="90.59 0 62.478 11.795 62.478 225.967 90.59 225.967 90.59 0"/><polyline class="g" points="59.358 219.608 22.132 219.327 60.341 189.828"/><circle class="e" cx="22.1325" cy="219.3268" r="6.2842"/><circle class="e" cx="60.9392" cy="190.1268" r="6.2842"/><path class="e" d="M62.7541,225.2975a6.2842,6.2842,0,1,1,0-12.5684"/><polyline class="g" points="92.903 219.608 131.243 218.004 93.034 189.828"/><circle class="e" cx="131.2426" cy="218.0037" r="6.2842"/><circle class="e" cx="92.4358" cy="190.1268" r="6.2842"/><path class="e" d="M90.621,225.2975a6.2842,6.2842,0,0,0,0-12.5684"/><rect class="e" x="59.8015" y="119.4008" width="32.7986" height="77.259"/><line class="f" x1="76.0053" y1="187.9135" x2="76.0053" y2="219.4488"/><rect class="e" x="71.6321" y="212.1602" width="8.7463" height="13.1195"/><text class="a" transform="translate(393.9018 505.0243)">500Ml</text><path class="b" d="M482.8371,408.8386C476.343,394.6379,484.46,348.88,484.46,348.88V290.4993c0-11.045,0-20.5121-11.3648-39.4464s-11.3647-31.5571-11.3647-31.5571l-.7-5.5225V203.7172c0-3.1557-9.2922-4.7336-13.911-4.7336s-14.49,1.5779-14.49,4.7336v11.8339l-.121,3.9447s0,12.6228-11.3647,31.5571-11.364,28.4014-11.364,39.4464V348.88s8.1173,45.7579,1.6233,59.9586,0,42.6022,8.1173,42.6022,12.9881-3.1558,16.2347-3.1558,4.8707,4.7336,11.3648,4.7336,8.1173-4.7336,11.3647-4.7336,8.1173,3.1558,16.2347,3.1558S489.3311,423.0393,482.8371,408.8386Z"/><polygon class="c" points="454.613 167.546 438.53 174.293 438.53 306.171 454.613 306.171 454.613 167.546"/><polyline class="h" points="436.745 302.533 418.909 302.372 437.308 285.496"/><circle class="e" cx="418.909" cy="302.3722" r="3.5951"/><circle class="e" cx="437.6502" cy="285.6674" r="3.5951"/><path class="e" d="M438.6885,305.788a3.5951,3.5951,0,0,1,0-7.19"/><polyline class="h" points="455.936 302.533 474.41 301.615 456.011 285.496"/><circle class="e" cx="474.4101" cy="301.6153" r="3.5951"/><circle class="e" cx="455.6689" cy="285.6674" r="3.5951"/><path class="e" d="M454.6306,305.788a3.5951,3.5951,0,0,0,0-7.19"/><rect class="e" x="436.9993" y="245.2063" width="18.7635" height="44.1985"/><line class="f" x1="446.2692" y1="284.4013" x2="446.2692" y2="302.442"/><rect class="e" x="443.7674" y="298.2724" width="5.0036" height="7.5054"/></svg>