<svg xmlns="http://www.w3.org/2000/svg" viewBox="0 0 214.9788 496.2451"><defs><style>.a{font-size:33px;font-family:Lato-Italic, Lato;font-style:italic;}.a,.c,.d{fill:#606060;}.b,.e{fill:none;stroke:#606060;}.b{stroke-linecap:round;stroke-linejoin:round;stroke-width:2px;}.d{opacity:0.5;}.e,.f{stroke-miterlimit:10;stroke-width:3px;}.f{fill:#fff;stroke:#d91519;}</style></defs><title>use1</title><text class="a" transform="translate(54.8979 487.3848)">Mortero</text><line class="b" x1="110.8061" y1="454.8028" x2="110.8061" y2="393.8028"/><circle class="c" cx="110.8061" cy="393.8028" r="3.0078"/><path class="d" d="M195.4168,399.6368c1.388-.1047,2.9016-.2661,3.8849-1.2224a4.8062,4.8062,0,0,0,1.0465-3.89c-.5751-7.4428,2.847-12.737.03-19.6819-4.4264-10.9106-6.3606-24.4-4.625-36.0041,5.12-34.2307-9.916-68.8626-3.1029-102.8142,1.6853-8.3981,4.4546-16.5852,5.696-25.0558,1.5314-10.4489.7035-21.078-.36-31.5815-4.7849-47.2736-10.1548-98.2083-2.2334-145.0834,1.0544-6.2393-2.6344-11.166-8.5318-13.8541-2.1389-.975-4.6089-.8858-6.9694-.7769q-44.1133,2.0355-88.2267,4.0709c-22.7538,1.05-45.8113,2.8445-65.1154,2.3585,7.5144,33.3848,7.0583,77.8933,1.6424,111.6586-1.4216,8.8628-3.2914,17.7154-3.3157,26.685-.024,8.8454,1.7476,17.5885,2.8735,26.3661,1.7236,13.437,1.9367,27.0081,2.1476,40.5472l1.0995,70.5956c.1638,10.5185.32,21.1258-1.7358,31.4547-1.2165,6.112-3.1994,12.0761-4.103,18.239-1.3548,9.2394-.25,18.6852-1.4828,27.9412-1.1,8.2625-1.9778,13.471-2.4879,20.7561C79.6951,406.7292,137.1686,404.0317,195.4168,399.6368Z"/><path class="e" d="M195.4168,399.837c1.388-.104,2.9016-.2643,3.8849-1.214a4.7483,4.7483,0,0,0,1.0465-3.8624c-.5751-7.3906-6.49-13.2675-9.3074-20.1637-4.4264-10.8341-.892-22.9413.8437-34.464,5.12-33.9906-6.0478-69.0473.7653-102.7608,1.6853-8.3392,4.4546-16.4689,5.696-24.88,1.5314-10.3756.7035-20.93-.36-31.36-4.7849-46.9421-14.2717-94.3447-6.35-140.891,1.0544-6.1955,1.4825-14.2625-4.4149-16.9317-2.1389-.9682-4.6089-.88-6.9694-.7715Q136.1382,24.559,92.0248,26.58c-22.7538,1.0427-45.04,2.1314-65.1154,2.342,7.5144,33.1506,7.0583,77.3469,1.6424,110.8753-1.4216,8.8007-3.2914,17.5912-3.3157,26.4979-.024,8.7833,1.7476,17.4651,2.8735,26.1812,1.7236,13.3427,1.9367,26.8186,2.1476,40.2627L31.3567,302.84c.1638,10.4447.32,20.9776-1.7358,31.234-1.2165,6.0692-3.1994,11.9914-4.103,18.1111-1.3548,9.1746-.25,18.5541-1.4828,27.7453-1.1,8.2045-1.207,15.6109-1.7171,22.8449C80.4659,409.114,137.1686,404.201,195.4168,399.837Z"/><path class="f" d="M176.6129,321.5043c-11.85,5.4189-50.0322-1.3546-50.0322-1.3546H77.865c-9.2164,0-17.1163,0-32.9159,9.4833s-26.3328,9.4833-26.3328,9.4833l-4.6082.5844H5.45c-2.6333,0-3.95,7.7538-3.95,11.608S2.8166,363.4,5.45,363.4h9.8748l3.2916.1009s10.5331,0,26.3328,9.4833,23.7,9.4826,32.9159,9.4826h48.7157s38.1825-6.7735,50.0322-1.3546,35.5493,0,35.5493-6.7735-2.6333-10.8378-2.6333-13.5469,3.95-4.0644,3.95-9.4833-3.95-6.7735-3.95-9.4833,2.6333-6.7735,2.6333-13.547S188.4627,316.0854,176.6129,321.5043Z"/><path class="f" d="M176.6129,242.0562c-11.85,5.4189-50.0322-1.3546-50.0322-1.3546H77.865c-9.2164,0-17.1163,0-32.9159,9.4833s-26.3328,9.4833-26.3328,9.4833l-4.6082.5843H5.45c-2.6333,0-3.95,7.7539-3.95,11.6081S2.8166,283.952,5.45,283.952h9.8748l3.2916.101s10.5331,0,26.3328,9.4832,23.7,9.4827,32.9159,9.4827h48.7157s38.1825-6.7735,50.0322-1.3546,35.5493,0,35.5493-6.7735-2.6333-10.8378-2.6333-13.547,3.95-4.0643,3.95-9.4832-3.95-6.7735-3.95-9.4833,2.6333-6.7735,2.6333-13.547S188.4627,236.6373,176.6129,242.0562Z"/><path class="f" d="M176.6129,162.6081c-11.85,5.4189-50.0322-1.3546-50.0322-1.3546H77.865c-9.2164,0-17.1163,0-32.9159,9.4833S18.6163,180.22,18.6163,180.22l-4.6082.5844H5.45c-2.6333,0-3.95,7.7538-3.95,11.608s1.3166,12.0915,3.95,12.0915h9.8748l3.2916.1009s10.5331,0,26.3328,9.4833,23.7,9.4826,32.9159,9.4826h48.7157s38.1825-6.7735,50.0322-1.3545,35.5493,0,35.5493-6.7735-2.6333-10.8379-2.6333-13.547,3.95-4.0644,3.95-9.4833-3.95-6.7735-3.95-9.4832,2.6333-6.7735,2.6333-13.547S188.4627,157.1891,176.6129,162.6081Z"/><path class="f" d="M176.6129,83.16c-11.85,5.4189-50.0322-1.3545-50.0322-1.3545H77.865c-9.2164,0-17.1163,0-32.9159,9.4832s-26.3328,9.4833-26.3328,9.4833l-4.6082.5844H5.45c-2.6333,0-3.95,7.7538-3.95,11.608s1.3166,12.0915,3.95,12.0915h9.8748l3.2916.1009s10.5331,0,26.3328,9.4833,23.7,9.4826,32.9159,9.4826h48.7157s38.1825-6.7735,50.0322-1.3546,35.5493,0,35.5493-6.7735-2.6333-10.8378-2.6333-13.5469,3.95-4.0644,3.95-9.4833-3.95-6.7735-3.95-9.4833,2.6333-6.7735,2.6333-13.5469S188.4627,77.741,176.6129,83.16Z"/><path class="f" d="M176.6129,3.7118c-11.85,5.4189-50.0322-1.3546-50.0322-1.3546H77.865c-9.2164,0-17.1163,0-32.9159,9.4833s-26.3328,9.4833-26.3328,9.4833l-4.6082.5843H5.45c-2.6333,0-3.95,7.7539-3.95,11.6081S2.8166,45.6076,5.45,45.6076h9.8748l3.2916.101s10.5331,0,26.3328,9.4832,23.7,9.4827,32.9159,9.4827h48.7157s38.1825-6.7735,50.0322-1.3546,35.5493,0,35.5493-6.7735-2.6333-10.8378-2.6333-13.547,3.95-4.0643,3.95-9.4832-3.95-6.7735-3.95-9.4833,2.6333-6.7735,2.6333-13.547S188.4627-1.7071,176.6129,3.7118Z"/></svg>