<svg xmlns="http://www.w3.org/2000/svg" viewBox="0 0 342.0352 503.7563"><defs><style>.a{font-size:33px;font-family:Lato-Italic, Lato;font-style:italic;}.a,.c{fill:#606060;}.b,.e{fill:none;stroke-width:2px;}.b,.e,.f{stroke:#606060;}.b{stroke-linecap:round;stroke-linejoin:round;}.d{opacity:0.3;}.e,.f,.g{stroke-miterlimit:10;}.f,.g{fill:#fff;stroke-width:3px;}.g{stroke:#d91519;}</style></defs><title>use2</title><text class="a" transform="translate(41.7964 494.8959)">Malla de alambre</text><line class="b" x1="160.6187" y1="462.3139" x2="160.6187" y2="414.3139"/><circle class="c" cx="160.6187" cy="414.3139" r="3.0078"/><g class="d"><line class="e" x1="20.1279" x2="20.1279" y2="422.6854"/><line class="e" x1="40.2558" x2="40.2558" y2="422.6854"/><line class="e" x1="60.3836" x2="60.3836" y2="422.6854"/><line class="e" x1="80.5115" x2="80.5115" y2="422.6854"/><line class="e" x1="100.6394" x2="100.6394" y2="422.6854"/><line class="e" x1="120.7673" x2="120.7673" y2="422.6854"/><line class="e" x1="140.8951" x2="140.8951" y2="422.6854"/><line class="e" x1="161.023" x2="161.023" y2="422.6854"/><line class="e" x1="181.1509" x2="181.1509" y2="422.6854"/><line class="e" x1="201.2788" x2="201.2788" y2="422.6854"/><line class="e" x1="221.4066" x2="221.4066" y2="422.6854"/><line class="e" x1="241.5345" x2="241.5345" y2="422.6854"/><line class="e" x1="261.6624" x2="261.6624" y2="422.6854"/><line class="e" x1="281.7903" x2="281.7903" y2="422.6854"/><line class="e" x1="301.9182" x2="301.9182" y2="422.6854"/><line class="e" x1="322.046" x2="322.046" y2="422.6854"/><line class="e" x1="342.0352" y1="402.5575" y2="402.5575"/><line class="e" x1="342.0352" y1="382.4297" y2="382.4297"/><line class="e" x1="342.0352" y1="362.3018" y2="362.3018"/><line class="e" x1="342.0352" y1="342.1739" y2="342.1739"/><line class="e" x1="342.0352" y1="322.046" y2="322.046"/><line class="e" x1="342.0352" y1="301.9182" y2="301.9182"/><line class="e" x1="342.0352" y1="281.7903" y2="281.7903"/><line class="e" x1="342.0352" y1="261.6624" y2="261.6624"/><line class="e" x1="342.0352" y1="241.5345" y2="241.5345"/><line class="e" x1="342.0352" y1="221.4066" y2="221.4066"/><line class="e" x1="342.0352" y1="201.2788" y2="201.2788"/><line class="e" x1="342.0352" y1="181.1509" y2="181.1509"/><line class="e" x1="342.0352" y1="161.023" y2="161.023"/><line class="e" x1="342.0352" y1="140.8951" y2="140.8951"/><line class="e" x1="342.0352" y1="120.7673" y2="120.7673"/><line class="e" x1="342.0352" y1="100.6394" y2="100.6394"/><line class="e" x1="342.0352" y1="80.5115" y2="80.5115"/><line class="e" x1="342.0352" y1="60.3836" y2="60.3836"/><line class="e" x1="342.0352" y1="40.2558" y2="40.2558"/><line class="e" x1="342.0352" y1="20.1279" y2="20.1279"/></g><path class="f" d="M83.9376,369.5637c-5.2962-11.5814,1.3239-48.8994,1.3239-48.8994V273.0517c0-9.0078,0-16.7287-9.2686-32.1707s-9.2685-25.7365-9.2685-25.7365l-.5712-4.5039v-8.3644c0-2.5736-7.5782-3.8605-11.3452-3.8605S42.99,199.7026,42.99,202.2762v9.6512l-.0987,3.2171s0,10.2946-9.2685,25.7365-9.268,23.1629-9.268,32.1707v47.6126s6.62,37.318,1.3239,48.8994,0,34.7444,6.62,34.7444,10.5924-2.5737,13.24-2.5737,3.9723,3.8605,9.2685,3.8605,6.62-3.8605,9.2686-3.8605,6.62,2.5737,13.24,2.5737S89.2338,381.1452,83.9376,369.5637Z"/><path class="f" d="M161.5868,369.5637c-5.2962-11.5814,1.3239-48.8994,1.3239-48.8994V273.0517c0-9.0078,0-16.7287-9.2685-32.1707s-9.2686-25.7365-9.2686-25.7365l-.5711-4.5039v-8.3644c0-2.5736-7.5783-3.8605-11.3452-3.8605s-11.8177,1.2869-11.8177,3.8605v9.6512l-.0986,3.2171s0,10.2946-9.2686,25.7365-9.2679,23.1629-9.2679,32.1707v47.6126s6.62,37.318,1.3239,48.8994,0,34.7444,6.62,34.7444,10.5925-2.5737,13.24-2.5737,3.9724,3.8605,9.2686,3.8605,6.62-3.8605,9.2685-3.8605,6.62,2.5737,13.24,2.5737S166.8831,381.1452,161.5868,369.5637Z"/><path class="f" d="M239.2361,369.5637c-5.2962-11.5814,1.3239-48.8994,1.3239-48.8994V273.0517c0-9.0078,0-16.7287-9.2686-32.1707s-9.2685-25.7365-9.2685-25.7365l-.5712-4.5039v-8.3644c0-2.5736-7.5782-3.8605-11.3452-3.8605s-11.8177,1.2869-11.8177,3.8605v9.6512l-.0986,3.2171s0,10.2946-9.2685,25.7365-9.268,23.1629-9.268,32.1707v47.6126s6.62,37.318,1.3239,48.8994,0,34.7444,6.62,34.7444,10.5924-2.5737,13.24-2.5737,3.9723,3.8605,9.2685,3.8605,6.62-3.8605,9.2686-3.8605,6.62,2.5737,13.24,2.5737S244.5323,381.1452,239.2361,369.5637Z"/><path class="f" d="M316.8853,369.5637c-5.2962-11.5814,1.3239-48.8994,1.3239-48.8994V273.0517c0-9.0078,0-16.7287-9.2685-32.1707s-9.2686-25.7365-9.2686-25.7365l-.5711-4.5039v-8.3644c0-2.5736-7.5783-3.8605-11.3452-3.8605s-11.8177,1.2869-11.8177,3.8605v9.6512l-.0987,3.2171s0,10.2946-9.2685,25.7365-9.2679,23.1629-9.2679,32.1707v47.6126s6.62,37.318,1.3239,48.8994,0,34.7444,6.62,34.7444,10.5924-2.5737,13.24-2.5737,3.9724,3.8605,9.2686,3.8605,6.62-3.8605,9.2685-3.8605,6.62,2.5737,13.24,2.5737S322.1816,381.1452,316.8853,369.5637Z"/><path class="f" d="M141.8025,56.6521c5.2962,11.5814-1.3239,48.8994-1.3239,48.8994v47.6126c0,9.0078,0,16.7288,9.2685,32.1707s9.2686,25.7365,9.2686,25.7365l.5711,4.5039V223.94c0,2.5737,7.5783,3.86,11.3452,3.86s11.8177-1.2868,11.8177-3.86v-9.6512l.0987-3.2171s0-10.2946,9.2685-25.7365,9.2679-23.1629,9.2679-32.1707V105.5515s-6.62-37.318-1.3239-48.8994,0-34.7443-6.62-34.7443-10.5924,2.5736-13.24,2.5736-3.9723-3.8605-9.2686-3.8605-6.62,3.8605-9.2685,3.8605-6.62-2.5736-13.24-2.5736S136.5063,45.0707,141.8025,56.6521Z"/><path class="f" d="M219.4517,56.6521c5.2963,11.5814-1.3239,48.8994-1.3239,48.8994v47.6126c0,9.0078,0,16.7288,9.2686,32.1707s9.2685,25.7365,9.2685,25.7365l.5712,4.5039V223.94c0,2.5737,7.5783,3.86,11.3452,3.86s11.8177-1.2868,11.8177-3.86v-9.6512l.0986-3.2171s0-10.2946,9.2686-25.7365,9.2679-23.1629,9.2679-32.1707V105.5515s-6.62-37.318-1.3239-48.8994,0-34.7443-6.62-34.7443-10.5925,2.5736-13.24,2.5736-3.9723-3.8605-9.2685-3.8605-6.62,3.8605-9.2686,3.8605-6.62-2.5736-13.24-2.5736S214.1555,45.0707,219.4517,56.6521Z"/><path class="f" d="M64.1532,56.6521c5.2963,11.5814-1.3239,48.8994-1.3239,48.8994v47.6126c0,9.0078,0,16.7288,9.2686,32.1707s9.2685,25.7365,9.2685,25.7365l.5712,4.5039V223.94c0,2.5737,7.5783,3.86,11.3452,3.86s11.8177-1.2868,11.8177-3.86v-9.6512l.0986-3.2171s0-10.2946,9.2686-25.7365,9.2679-23.1629,9.2679-32.1707V105.5515s-6.62-37.318-1.3239-48.8994,0-34.7443-6.62-34.7443-10.5925,2.5736-13.24,2.5736-3.9723-3.8605-9.2685-3.8605-6.62,3.8605-9.2686,3.8605-6.62-2.5736-13.24-2.5736S58.857,45.0707,64.1532,56.6521Z"/><path class="g" d="M83.9376,369.5637c-5.2962-11.5814,1.3239-48.8994,1.3239-48.8994V273.0517c0-9.0078,0-16.7287-9.2686-32.1707s-9.2685-25.7365-9.2685-25.7365l-.5712-4.5039v-8.3644c0-2.5736-7.5782-3.8605-11.3452-3.8605S42.99,199.7026,42.99,202.2762v9.6512l-.0987,3.2171s0,10.2946-9.2685,25.7365-9.268,23.1629-9.268,32.1707v47.6126s6.62,37.318,1.3239,48.8994,0,34.7444,6.62,34.7444,10.5924-2.5737,13.24-2.5737,3.9723,3.8605,9.2685,3.8605,6.62-3.8605,9.2686-3.8605,6.62,2.5737,13.24,2.5737S89.2338,381.1452,83.9376,369.5637Z"/><path class="g" d="M161.5868,369.5637c-5.2962-11.5814,1.3239-48.8994,1.3239-48.8994V273.0517c0-9.0078,0-16.7287-9.2685-32.1707s-9.2686-25.7365-9.2686-25.7365l-.5711-4.5039v-8.3644c0-2.5736-7.5783-3.8605-11.3452-3.8605s-11.8177,1.2869-11.8177,3.8605v9.6512l-.0986,3.2171s0,10.2946-9.2686,25.7365-9.2679,23.1629-9.2679,32.1707v47.6126s6.62,37.318,1.3239,48.8994,0,34.7444,6.62,34.7444,10.5925-2.5737,13.24-2.5737,3.9724,3.8605,9.2686,3.8605,6.62-3.8605,9.2685-3.8605,6.62,2.5737,13.24,2.5737S166.8831,381.1452,161.5868,369.5637Z"/><path class="g" d="M239.2361,369.5637c-5.2962-11.5814,1.3239-48.8994,1.3239-48.8994V273.0517c0-9.0078,0-16.7287-9.2686-32.1707s-9.2685-25.7365-9.2685-25.7365l-.5712-4.5039v-8.3644c0-2.5736-7.5782-3.8605-11.3452-3.8605s-11.8177,1.2869-11.8177,3.8605v9.6512l-.0986,3.2171s0,10.2946-9.2685,25.7365-9.268,23.1629-9.268,32.1707v47.6126s6.62,37.318,1.3239,48.8994,0,34.7444,6.62,34.7444,10.5924-2.5737,13.24-2.5737,3.9723,3.8605,9.2685,3.8605,6.62-3.8605,9.2686-3.8605,6.62,2.5737,13.24,2.5737S244.5323,381.1452,239.2361,369.5637Z"/><path class="g" d="M316.8853,369.5637c-5.2962-11.5814,1.3239-48.8994,1.3239-48.8994V273.0517c0-9.0078,0-16.7287-9.2685-32.1707s-9.2686-25.7365-9.2686-25.7365l-.5711-4.5039v-8.3644c0-2.5736-7.5783-3.8605-11.3452-3.8605s-11.8177,1.2869-11.8177,3.8605v9.6512l-.0987,3.2171s0,10.2946-9.2685,25.7365-9.2679,23.1629-9.2679,32.1707v47.6126s6.62,37.318,1.3239,48.8994,0,34.7444,6.62,34.7444,10.5924-2.5737,13.24-2.5737,3.9724,3.8605,9.2686,3.8605,6.62-3.8605,9.2685-3.8605,6.62,2.5737,13.24,2.5737S322.1816,381.1452,316.8853,369.5637Z"/><path class="g" d="M141.8025,56.6521c5.2962,11.5814-1.3239,48.8994-1.3239,48.8994v47.6126c0,9.0078,0,16.7288,9.2685,32.1707s9.2686,25.7365,9.2686,25.7365l.5711,4.5039V223.94c0,2.5737,7.5783,3.86,11.3452,3.86s11.8177-1.2868,11.8177-3.86v-9.6512l.0987-3.2171s0-10.2946,9.2685-25.7365,9.2679-23.1629,9.2679-32.1707V105.5515s-6.62-37.318-1.3239-48.8994,0-34.7443-6.62-34.7443-10.5924,2.5736-13.24,2.5736-3.9723-3.8605-9.2686-3.8605-6.62,3.8605-9.2685,3.8605-6.62-2.5736-13.24-2.5736S136.5063,45.0707,141.8025,56.6521Z"/><path class="g" d="M219.4517,56.6521c5.2963,11.5814-1.3239,48.8994-1.3239,48.8994v47.6126c0,9.0078,0,16.7288,9.2686,32.1707s9.2685,25.7365,9.2685,25.7365l.5712,4.5039V223.94c0,2.5737,7.5783,3.86,11.3452,3.86s11.8177-1.2868,11.8177-3.86v-9.6512l.0986-3.2171s0-10.2946,9.2686-25.7365,9.2679-23.1629,9.2679-32.1707V105.5515s-6.62-37.318-1.3239-48.8994,0-34.7443-6.62-34.7443-10.5925,2.5736-13.24,2.5736-3.9723-3.8605-9.2685-3.8605-6.62,3.8605-9.2686,3.8605-6.62-2.5736-13.24-2.5736S214.1555,45.0707,219.4517,56.6521Z"/><path class="g" d="M64.1532,56.6521c5.2963,11.5814-1.3239,48.8994-1.3239,48.8994v47.6126c0,9.0078,0,16.7288,9.2686,32.1707s9.2685,25.7365,9.2685,25.7365l.5712,4.5039V223.94c0,2.5737,7.5783,3.86,11.3452,3.86s11.8177-1.2868,11.8177-3.86v-9.6512l.0986-3.2171s0-10.2946,9.2686-25.7365,9.2679-23.1629,9.2679-32.1707V105.5515s-6.62-37.318-1.3239-48.8994,0-34.7443-6.62-34.7443-10.5925,2.5736-13.24,2.5736-3.9723-3.8605-9.2685-3.8605-6.62,3.8605-9.2686,3.8605-6.62-2.5736-13.24-2.5736S58.857,45.0707,64.1532,56.6521Z"/><g class="d"><line class="e" x1="20.1279" x2="20.1279" y2="422.6854"/><line class="e" x1="40.2558" x2="40.2558" y2="422.6854"/><line class="e" x1="60.3836" x2="60.3836" y2="422.6854"/><line class="e" x1="80.5115" x2="80.5115" y2="422.6854"/><line class="e" x1="100.6394" x2="100.6394" y2="422.6854"/><line class="e" x1="120.7673" x2="120.7673" y2="422.6854"/><line class="e" x1="140.8951" x2="140.8951" y2="422.6854"/><line class="e" x1="161.023" x2="161.023" y2="422.6854"/><line class="e" x1="181.1509" x2="181.1509" y2="422.6854"/><line class="e" x1="201.2788" x2="201.2788" y2="422.6854"/><line class="e" x1="221.4066" x2="221.4066" y2="422.6854"/><line class="e" x1="241.5345" x2="241.5345" y2="422.6854"/><line class="e" x1="261.6624" x2="261.6624" y2="422.6854"/><line class="e" x1="281.7903" x2="281.7903" y2="422.6854"/><line class="e" x1="301.9182" x2="301.9182" y2="422.6854"/><line class="e" x1="322.046" x2="322.046" y2="422.6854"/><line class="e" x1="342.0352" y1="402.5575" y2="402.5575"/><line class="e" x1="342.0352" y1="382.4297" y2="382.4297"/><line class="e" x1="342.0352" y1="362.3018" y2="362.3018"/><line class="e" x1="342.0352" y1="342.1739" y2="342.1739"/><line class="e" x1="342.0352" y1="322.046" y2="322.046"/><line class="e" x1="342.0352" y1="301.9182" y2="301.9182"/><line class="e" x1="342.0352" y1="281.7903" y2="281.7903"/><line class="e" x1="342.0352" y1="261.6624" y2="261.6624"/><line class="e" x1="342.0352" y1="241.5345" y2="241.5345"/><line class="e" x1="342.0352" y1="221.4066" y2="221.4066"/><line class="e" x1="342.0352" y1="201.2788" y2="201.2788"/><line class="e" x1="342.0352" y1="181.1509" y2="181.1509"/><line class="e" x1="342.0352" y1="161.023" y2="161.023"/><line class="e" x1="342.0352" y1="140.8951" y2="140.8951"/><line class="e" x1="342.0352" y1="120.7673" y2="120.7673"/><line class="e" x1="342.0352" y1="100.6394" y2="100.6394"/><line class="e" x1="342.0352" y1="80.5115" y2="80.5115"/><line class="e" x1="342.0352" y1="60.3836" y2="60.3836"/><line class="e" x1="342.0352" y1="40.2558" y2="40.2558"/><line class="e" x1="342.0352" y1="20.1279" y2="20.1279"/></g></svg>