<svg xmlns="http://www.w3.org/2000/svg" viewBox="0 0 240 62.0612"><defs><style>.a,.b{fill:#fff;}.b{font-size:27.3566px;font-family:Lato-Black, Lato;font-weight:800;}</style></defs><title>hub</title><path class="a" d="M208.9694,3a28.0306,28.0306,0,0,1,0,56.0612H31.0306A28.0306,28.0306,0,0,1,31.0306,3H208.9694m0-3H31.0306A31.0306,31.0306,0,0,0,0,31.0306H0A31.0306,31.0306,0,0,0,31.0306,62.0612H208.9694A31.0306,31.0306,0,0,0,240,31.0306h0A31.0306,31.0306,0,0,0,208.9694,0Z"/><text class="b" transform="translate(68.9687 41.8574)">Hub virtual</text><path class="a" d="M41.9782,49.7513H34.79A2.933,2.933,0,0,1,31.8726,47.12L30.0642,29.639a2.9331,2.9331,0,0,1,2.9174-3.2348H43.7865A2.9331,2.9331,0,0,1,46.704,29.639L44.8956,47.12A2.933,2.933,0,0,1,41.9782,49.7513Z"/><path class="a" d="M25.4514,25.85h0a1.9006,1.9006,0,0,1-2.4115.4716L19.992,24.6179a1.9007,1.9007,0,0,1-.5568-2.8466l.7173-.8964a1.9007,1.9007,0,0,1,2.8994-.0812l2.3307,2.6A1.9007,1.9007,0,0,1,25.4514,25.85Z"/><path class="a" d="M43.2062,16.5273l-.0686-.34a5.8644,5.8644,0,0,0-6.9062-4.592l-.34.0686A5.8643,5.8643,0,0,0,31.299,18.57l.0684.34a5.8645,5.8645,0,0,0,6.9062,4.592l.3406-.0686A5.8645,5.8645,0,0,0,43.2062,16.5273Zm-8.63,2.9194L34.05,16.8336a.6665.6665,0,0,1,1.3067-.263l.5259,2.6132Zm4.573-.92-.5262-2.6132a.6664.6664,0,0,1,1.3067-.2629l.5259,2.6132Z"/></svg>