<svg xmlns="http://www.w3.org/2000/svg" xmlns:xlink="http://www.w3.org/1999/xlink" viewBox="0 0 320.2481 94.0794"><defs><style>.a{fill:none;clip-rule:evenodd;}.b{fill:#9b9a9b;}.c,.k{fill:#db0d15;}.d{fill:#0aa3a4;}.d,.e,.f,.g,.h,.ho,.hp,.hq,.ht,.hu,.hv,.hw,.hx,.hy,.hz,.j,.k,.l,.m{fill-rule:evenodd;}.e,.o{fill:#fff;}.f,.ia{fill:#fabd04;}.g,.hs{fill:#b3c6d1;}.h{fill:#ffdb04;}.i{fill:#000100;}.j{fill:#0c5da7;}.l{fill:#da0d15;}.m{fill:#3b3c3c;}.n{clip-path:url(#a);}.p{fill:#fdffff;}.q{fill:#fdfdfd;}.r{fill:#fcfcfc;}.s{fill:#fbfbfb;}.t{fill:#fafafa;}.u{fill:#f9f9f9;}.v{fill:#f9f8f8;}.w{fill:#f8f7f8;}.x{fill:#f7f6f7;}.y{fill:#f6f5f6;}.z{fill:#f5f4f5;}.aa{fill:#f4f3f3;}.ab{fill:#f3f3f3;}.ac{fill:#f3f2f2;}.ad{fill:#f2f1f1;}.ae{fill:#f1f0f0;}.af{fill:#f0eeef;}.ag{fill:#efedee;}.ah{fill:#eeeded;}.ai{fill:#edecec;}.aj{fill:#edebeb;}.ak{fill:#eceaea;}.al{fill:#ebe9e9;}.am{fill:#eae8e8;}.an{fill:#e9e7e7;}.ao{fill:#e8e6e6;}.ap{fill:#e7e5e5;}.aq{fill:#e6e4e4;}.ar{fill:#e6e3e3;}.as{fill:#e4e2e2;}.at{fill:#e3e1e2;}.au{fill:#e2e0e0;}.av{fill:#e2dfdf;}.aw{fill:#e1dede;}.ax{fill:#e0dddd;}.ay{fill:#dfdcdc;}.az{fill:#dedbdb;}.ba{fill:#dddadb;}.bb{fill:#dcd9d9;}.bc{fill:#dcd8d8;}.bd{fill:#dbd7d7;}.be{fill:#d9d6d6;}.bf{fill:#d8d5d5;}.bg{fill:#d8d4d4;}.bh{fill:#d7d3d3;}.bi{fill:#d6d2d2;}.bj{fill:#d5d1d1;}.bk{fill:#d4d0d0;}.bl{fill:#d3cfcf;}.bm{fill:#d3cece;}.bn{fill:#d2cdcd;}.bo{fill:#d1cccc;}.bp{fill:#cfcbca;}.bq{fill:#cecaca;}.br{fill:#cdc9c9;}.bs{fill:#ccc8c8;}.bt{fill:#cbc8c8;}.bu{fill:#cac6c7;}.bv{fill:#c9c5c6;}.bw{fill:#c8c4c5;}.bx{fill:#c7c3c4;}.by{fill:#c6c2c3;}.bz{fill:#c5c1c1;}.ca{fill:#c4c0c1;}.cb{fill:#c3bfc0;}.cc{fill:#c1bebf;}.cd{fill:#c1bdbe;}.ce{fill:#bfbcbd;}.cf{fill:#bebbbc;}.cg{fill:#bebabc;}.ch{fill:#bcb9bb;}.ci{fill:#bbb8ba;}.cj{fill:#bab7b8;}.ck{fill:#b9b6b8;}.cl{fill:#b8b5b7;}.cm{fill:#b7b4b6;}.cn{fill:#b6b3b5;}.co{fill:#b5b2b4;}.cp{fill:#b4b1b3;}.cq{fill:#b3b0b2;}.cr{fill:#b1afb1;}.cs{fill:#b1aeb1;}.ct{fill:#afadaf;}.cu{fill:#aeacaf;}.cv{fill:#aeabae;}.cw{fill:#acaaad;}.cx{fill:#abaaac;}.cy{fill:#aaa8ab;}.cz{fill:#a9a8ab;}.da{fill:#a8a7aa;}.db{fill:#a7a6a9;}.dc{fill:#a6a5a8;}.dd{fill:#a4a3a6;}.de{clip-path:url(#b);}.df{clip-path:url(#c);}.dg{fill:#eae8e7;}.dh{fill:#e8e7e7;}.di{fill:#e1dfdf;}.dj{fill:#e0dede;}.dk{fill:#dfdddd;}.dl{fill:#dddbdb;}.dm{fill:#dcdada;}.dn{fill:#dbd9d9;}.do{fill:#dad8d8;}.dp{fill:#d9d8d7;}.dq{fill:#d8d6d6;}.dr{fill:#d7d5d5;}.ds{fill:#d6d4d4;}.dt{fill:#d5d4d4;}.du{fill:#d5d3d3;}.dv{fill:#d4d2d2;}.dw{fill:#d2d0d0;}.dx{fill:#d1cfcf;}.dy{fill:#d0cece;}.dz{fill:#cfcece;}.ea{fill:#cecdcd;}.eb{fill:#cecccc;}.ec{fill:#cccacb;}.ed{fill:#cbcaca;}.ee{fill:#cbc9c9;}.ef{fill:#cac8c8;}.eg{fill:#c9c7c7;}.eh{fill:#c8c7c7;}.ei{fill:#c7c5c5;}.ej{fill:#c6c4c4;}.ek{fill:#c5c3c4;}.el{fill:#c4c3c3;}.em{fill:#c4c2c2;}.en{fill:#c3c1c1;}.eo{fill:silver;}.ep{fill:#c0bfbf;}.eq{fill:#bfbebe;}.er{fill:#bdbcbd;}.es{fill:#bcbcbc;}.et{fill:#bbbabb;}.eu{fill:#bab9ba;}.ev{fill:#b9b8b9;}.ew{fill:#b8b7b8;}.ex{fill:#b6b5b7;}.ey{fill:#b6b4b6;}.ez{fill:#b4b3b5;}.fa{fill:#b3b2b4;}.fb{fill:#b2b1b3;}.fc{fill:#b1b0b2;}.fd{fill:#b0afb0;}.fe{fill:#afaeb0;}.ff{fill:#adacae;}.fg{fill:#abaaad;}.fh{fill:#aba9ac;}.fi{fill:#a4a2a6;}.fj{fill:#a3a1a5;}.fk{fill:#a3a1a3;}.fl{fill:#a19fa2;}.fm{fill:#a19fa1;}.fn{fill:#a09e9f;}.fo{fill:#9f9d9f;}.fp{fill:#9f9c9e;}.fq{fill:#9e9b9c;}.fr{fill:#9d9a9b;}.fs{fill:#9d999a;}.ft{fill:#9c9898;}.fu{fill:#9b9797;}.fv{fill:#9a9697;}.fw{fill:#9a9696;}.fx{fill:#999594;}.fy{fill:#989393;}.fz{fill:#989392;}.ga{fill:#979291;}.gb{fill:#969190;}.gc{fill:#96908f;}.gd{fill:#958f8d;}.ge{fill:#948e8c;}.gf{fill:#948d8b;}.gg{fill:#928d8a;}.gh{fill:#928c89;}.gi{fill:#928b88;}.gj{fill:#908a87;}.gk{fill:#908986;}.gl{fill:#908885;}.gm{fill:#8f8784;}.gn{fill:#8e8783;}.go{fill:#8d8682;}.gp{fill:#8d8581;}.gq{fill:#8c8480;}.gr{fill:#8b837f;}.gs{fill:#8b827e;}.gt{fill:#8a817d;}.gu{fill:#89807c;}.gv{fill:#88807a;}.gw{fill:#877f79;}.gx{fill:#877e78;}.gy{fill:#867d77;}.gz{fill:#857c76;}.ha{fill:#857b75;}.hb{fill:#837b74;}.hc{fill:#837a73;}.hd{fill:#827972;}.he{fill:#817871;}.hf{fill:#817770;}.hg{fill:#80776f;}.hh{fill:#80756e;}.hi{fill:#80756d;}.hj{fill:#7f746c;}.hk{fill:#7e736b;}.hl{fill:#7e726a;}.hm{fill:#7d7169;}.hn{fill:#7c7067;}.ho{fill:#9a9ea0;}.hp{fill:#b8dbf4;}.hq{fill:#7bc5b6;}.hr,.hy{fill:#c9a56a;}.ht{fill:#1c3f5e;}.hu{fill:#f9b20b;}.hv{fill:#ac1917;}.hw{fill:#ffd86f;}.hx{fill:#c7c5c4;}.hz{fill:#a6a6a5;}.ib{fill:#c7c7cd;}.ic{fill:#f7c9bd;}</style><clipPath id="a"><path class="a" d="M35.3307,50.43c-1.91-.5734-4.3754,1.5365-4.3754,1.5365l3.5636,7.3925s2.1614-2.0633,4.2835-1.768Z"/></clipPath><clipPath id="b"><path class="a" d="M39.3574,48.7747s-3.5654.1562-4.0267,1.6553l3.4717,7.161.0092.0012c1.0708-1.5757,4.2859-1.6394,4.2859-1.6394Z"/></clipPath><clipPath id="c"><path class="a" d="M34.5986,59.8589s2.1172-1.96,4.3974-1.8036a5.4314,5.4314,0,0,1,4.1015-1.5487v-.5538S40.24,55.818,38.8024,57.591a6.2533,6.2533,0,0,0-4.2835,1.768Z"/></clipPath></defs><title>logo_positivo</title><path class="b" d="M109.9158,89.8052a7.5273,7.5273,0,0,1-3.0851.533c-3.7952,0-6.1-2.3764-6.1-6.0117a6.0118,6.0118,0,0,1,6.3841-6.3137,6.86,6.86,0,0,1,2.9087.5324l-.4784,1.7374a5.8184,5.8184,0,0,0-2.3415-.4607c-2.43,0-4.1854,1.5248-4.1854,4.398,0,2.6244,1.5438,4.3086,4.167,4.3086a6.1115,6.1115,0,0,0,2.377-.4429Z"/><path class="b" d="M118.9232,79.1124A1.2242,1.2242,0,1,1,117.7,77.9239,1.1552,1.1552,0,0,1,118.9232,79.1124ZM116.6,90.1605V81.5237h2.1987v8.6368Z"/><path class="b" d="M127.63,86.4535c.0527,1.5616,1.2761,2.2349,2.6595,2.2349a6.4915,6.4915,0,0,0,2.3941-.39l.3192,1.5071a8.1073,8.1073,0,0,1-3.0148.533,4.086,4.086,0,0,1-4.4513-4.3631c0-2.3942,1.4544-4.6462,4.221-4.6462,2.8021,0,3.7242,2.3053,3.7242,4.2032a5.3525,5.3525,0,0,1-.0711.9214Zm3.7947-1.5248a1.8569,1.8569,0,0,0-1.7914-2.1105,2.1336,2.1336,0,0,0-2.0033,2.1105Z"/><path class="b" d="M140.2009,84.0949c0-.9918-.0178-1.8256-.07-2.5712h1.9145l.1072,1.2945h.0527a3.1149,3.1149,0,0,1,2.7489-1.4893c1.507,0,3.068.9753,3.068,3.7064v5.1252H145.84V85.2834c0-1.2418-.4607-2.18-1.6492-2.18a1.8288,1.8288,0,0,0-1.7018,1.2767,2.2132,2.2132,0,0,0-.09.7088v5.0719h-2.1987Z"/><path class="b" d="M161.6385,89.8946a6.3013,6.3013,0,0,1-2.4468.4436A4.1483,4.1483,0,0,1,154.74,85.94a4.4657,4.4657,0,0,1,4.8067-4.6106,5.4453,5.4453,0,0,1,2.11.408l-.39,1.6321a3.8394,3.8394,0,0,0-1.6491-.3382,2.7975,2.7975,0,0,0,0,5.5865,4.2728,4.2728,0,0,0,1.72-.3363Z"/><path class="b" d="M170.5393,79.1124a1.224,1.224,0,1,1-1.2235-1.1885A1.1552,1.1552,0,0,1,170.5393,79.1124Zm-2.3237,11.0481V81.5237h2.1993v8.6368Z"/><path class="b" d="M182.562,90.1605l-.1415-.9575h-.0533a3.2044,3.2044,0,0,1-2.5534,1.1523,2.5631,2.5631,0,0,1-2.714-2.57c0-2.1816,1.9335-3.2813,5.1253-3.2635V84.38c0-.5685-.23-1.5083-1.7558-1.5083a4.5832,4.5832,0,0,0-2.3231.639l-.4251-1.4183a6.2153,6.2153,0,0,1,3.1219-.7633c2.7654,0,3.5643,1.7564,3.5643,3.6353v3.1214a13.8217,13.8217,0,0,0,.1237,2.0749Zm-.283-4.221c-1.5426-.0349-3.0153.3014-3.0153,1.6137a1.1459,1.1459,0,0,0,1.2423,1.2424,1.7672,1.7672,0,0,0,1.7019-1.1885,1.57,1.57,0,0,0,.0711-.4791Z"/><path class="b" d="M201.6581,81.5237l1.5616,4.629c.1764.5324.3541,1.1879.4779,1.6848h.0532c.1416-.4969.3008-1.1346.4607-1.7025l1.3484-4.6113h2.3414l-2.1637,5.8874c-1.1885,3.2279-1.9868,4.6645-3.0153,5.5516a4.38,4.38,0,0,1-2.2876,1.1167l-.4962-1.8433a3.7456,3.7456,0,0,0,1.2767-.6041,3.8074,3.8074,0,0,0,1.1885-1.3649.8768.8768,0,0,0,.1409-.39.92.92,0,0,0-.1238-.4264l-3.1562-7.9274Z"/><path class="b" d="M222.83,78.2076h2.1816V88.3337h4.9114v1.8268H222.83Z"/><path class="b" d="M238.7709,79.1124a1.2242,1.2242,0,1,1-1.2234-1.1885A1.1552,1.1552,0,0,1,238.7709,79.1124Zm-2.3237,11.0481V81.5237h2.1993v8.6368Z"/><path class="b" d="M245.8632,90.1605c.0356-.5857.0711-1.5432.0711-2.4291V77.57h2.181v5.1423h.0355a3.1227,3.1227,0,0,1,2.766-1.3833c2.11,0,3.6187,1.7564,3.6016,4.38,0,3.1041-1.97,4.6461-3.92,4.6461a2.97,2.97,0,0,1-2.73-1.4886h-.0355l-.1066,1.2938Zm2.2521-3.5643a2.3992,2.3992,0,0,0,.0532.5141,2.0111,2.0111,0,0,0,1.9329,1.5247c1.3661,0,2.1993-1.1,2.1993-2.837,0-1.5248-.7272-2.7672-2.1809-2.7672a2.0431,2.0431,0,0,0-1.9335,1.5965,2.6061,2.6061,0,0,0-.071.5673Z"/><path class="b" d="M262.8146,86.4535c.0526,1.5616,1.2767,2.2349,2.66,2.2349a6.4962,6.4962,0,0,0,2.3942-.39l.3186,1.5071a8.1032,8.1032,0,0,1-3.0141.533,4.0859,4.0859,0,0,1-4.4513-4.3631c0-2.3942,1.4543-4.6462,4.2209-4.6462,2.8022,0,3.7248,2.3053,3.7248,4.2032a5.2537,5.2537,0,0,1-.0724.9214Zm3.7952-1.5248a1.8573,1.8573,0,0,0-1.7914-2.1105,2.1335,2.1335,0,0,0-2.0038,2.1105Z"/><path class="b" d="M275.3862,84.3088c0-1.17-.0178-2.0046-.07-2.7851h1.898l.07,1.65h.0711a2.5754,2.5754,0,0,1,2.3586-1.8446,2.2909,2.2909,0,0,1,.514.0533v2.0572a3.0381,3.0381,0,0,0-.6384-.07,1.9215,1.9215,0,0,0-1.9505,1.6485,3.7383,3.7383,0,0,0-.0711.6745v4.4685h-2.1816Z"/><path class="b" d="M289.5887,79.0592v2.4645h2.0756v1.6321h-2.0756v3.8129c0,1.0464.2836,1.5953,1.1174,1.5953a3.22,3.22,0,0,0,.8516-.106l.0355,1.6676a4.8039,4.8039,0,0,1-1.5781.2126,2.5222,2.5222,0,0,1-1.88-.71,3.4423,3.4423,0,0,1-.6739-2.4119v-4.06h-1.2418V81.5237h1.2418V79.5731Z"/><path class="b" d="M303.1179,90.1605l-.1416-.9575h-.0532a3.2038,3.2038,0,0,1-2.5535,1.1523,2.5621,2.5621,0,0,1-2.7127-2.57c0-2.1816,1.9323-3.2813,5.1247-3.2635V84.38c0-.5685-.23-1.5083-1.7564-1.5083a4.5826,4.5826,0,0,0-2.3231.639l-.4252-1.4183a6.2131,6.2131,0,0,1,3.1213-.7633c2.7661,0,3.5649,1.7564,3.5649,3.6353v3.1214a13.9,13.9,0,0,0,.1238,2.0749Zm-.2831-4.221c-1.5426-.0349-3.0153.3014-3.0153,1.6137a1.1456,1.1456,0,0,0,1.2412,1.2424,1.7674,1.7674,0,0,0,1.703-1.1885,1.5883,1.5883,0,0,0,.0711-.4791Z"/><path class="b" d="M320.177,77.57V87.7314c0,.8859.0355,1.8434.0711,2.4291h-1.9506l-.0895-1.3649h-.0349a3.1085,3.1085,0,0,1-2.8193,1.56c-2.0572,0-3.6886-1.7558-3.6886-4.4158-.0171-2.8909,1.7907-4.6106,3.8657-4.6106a2.75,2.75,0,0,1,2.43,1.1352h.0355V77.57Zm-2.1809,7.5536a3.1048,3.1048,0,0,0-.0534-.5666,1.9114,1.9114,0,0,0-1.88-1.5433c-1.4,0-2.18,1.2418-2.18,2.8555,0,1.5775.78,2.73,2.1625,2.73a1.9241,1.9241,0,0,0,1.88-1.5426,2.4456,2.4456,0,0,0,.0711-.6383Z"/><path class="c" d="M100.0918,9.7278h6.0074V27.1044a9.8345,9.8345,0,0,0,.6886,4.2558q1.0714,2.3792,4.667,2.3782,3.5727,0,4.6467-2.3782a9.8834,9.8834,0,0,0,.688-4.2558V9.7278h6.0092V27.1172a14.5866,14.5866,0,0,1-1.4011,7.025q-2.6041,4.6056-9.9428,4.6063-7.3406,0-9.9663-4.6063a14.5911,14.5911,0,0,1-1.3967-7.025Z"/><path class="c" d="M144.9065,18.2979q2.0538,1.6982,2.0547,5.6343v14.086h-5.6049V25.2934a5.86,5.86,0,0,0-.4374-2.5332,3.0821,3.0821,0,0,0-3.05-1.613,3.7782,3.7782,0,0,0-3.79,2.3623,8.1415,8.1415,0,0,0-.5341,3.185V38.0182h-5.4683V17.1369h5.2955V20.189a9.2654,9.2654,0,0,1,1.9886-2.323A6.8893,6.8893,0,0,1,139.6214,16.6a8.0209,8.0209,0,0,1,5.2851,1.6983"/><path class="c" d="M157.67,14.6031h-5.5455V9.5551H157.67Zm-5.5455,2.4958H157.67v20.92h-5.5455Z"/><polygon class="c" points="175.856 17.098 181.728 17.098 174.173 38.018 168.408 38.018 160.905 17.098 167.044 17.098 171.402 32.529 175.856 17.098"/><path class="c" d="M198.4621,17.5217a8.5113,8.5113,0,0,1,3.6145,3.095,10.3118,10.3118,0,0,1,1.6675,4.3251,27.048,27.048,0,0,1,.1789,4.1517H188.6864a5.015,5.015,0,0,0,2.1877,4.4146,5.542,5.542,0,0,0,3.0141.7872,4.2494,4.2494,0,0,0,4.1652-2.4h5.5841A6.8353,6.8353,0,0,1,201.61,35.678a10.1685,10.1685,0,0,1-7.87,3.05,11.4026,11.4026,0,0,1-7.37-2.573q-3.1905-2.5748-3.193-8.3764,0-5.4336,2.8818-8.3366a10.0875,10.0875,0,0,1,7.4826-2.9007,11.92,11.92,0,0,1,4.9206.98m-8.1847,4.7258a5.6963,5.6963,0,0,0-1.4568,3.2383h9.4234a4.569,4.569,0,0,0-1.4568-3.3058,4.8,4.8,0,0,0-3.2445-1.129,4.3424,4.3424,0,0,0-3.2653,1.1965"/><path class="c" d="M218.3105,16.6089c.07.0067.2285.0159.4711.0281v5.6061c-.3474-.0392-.6531-.0649-.9214-.0789-.2683-.0117-.487-.0184-.6531-.0184q-3.3016,0-4.4335,2.15a8.3617,8.3617,0,0,0-.6328,3.7242v9.9992h-5.5094v-20.92h5.2208v3.647a11.5366,11.5366,0,0,1,2.2073-2.86,6.0155,6.0155,0,0,1,3.9918-1.2864c.1023,0,.1893.0042.2592.01"/><path class="c" d="M226.2274,31.3394a3.6378,3.6378,0,0,0,.7535,2.0731q1.0211,1.0946,3.78,1.0936a5.7938,5.7938,0,0,0,2.5743-.4791,1.608,1.608,0,0,0,.185-2.8414,31.4353,31.4353,0,0,0-5.7225-1.65,11.8677,11.8677,0,0,1-5.0241-2.208,4.7813,4.7813,0,0,1-1.4593-3.7609,6.5135,6.5135,0,0,1,2.2789-4.98,9.1687,9.1687,0,0,1,6.4166-2.0823,11.78,11.78,0,0,1,6.394,1.5641q2.4729,1.563,2.8377,5.4014H233.77a3.2232,3.2232,0,0,0-.5955-1.6694,3.7653,3.7653,0,0,0-3.079-1.1125,4.4358,4.4358,0,0,0-2.5511.5563,1.6042,1.6042,0,0,0-.7608,1.3055,1.4258,1.4258,0,0,0,.8086,1.3618,34.927,34.927,0,0,0,5.7115,1.5175,10.4745,10.4745,0,0,1,4.9,2.3212,5.28,5.28,0,0,1,1.6124,3.9343,6.3524,6.3524,0,0,1-2.3181,5.0774q-2.3157,1.9676-7.1641,1.9665-4.9411,0-7.2963-2.0816a6.7659,6.7659,0,0,1-2.358-5.3072Z"/><path class="c" d="M249.4722,14.6031h-5.5473V9.5551h5.5473Zm-5.5485,2.4958h5.5479v20.92h-5.5479Z"/><path class="c" d="M265.8605,17.4347a6.6317,6.6317,0,0,1,2.4,2.312v-9.98h5.5473V38.0188h-5.3176V35.1205a7.7323,7.7323,0,0,1-2.6667,2.7072,7.5029,7.5029,0,0,1-3.7236.8436,7.77,7.77,0,0,1-6.1709-2.9663,11.3844,11.3844,0,0,1-2.5056-7.6095q0-5.3537,2.467-8.426a8.0268,8.0268,0,0,1,6.5931-3.07,6.7347,6.7347,0,0,1,3.3767.8356m1.3453,14.9033a7.6383,7.6383,0,0,0,1.2093-4.4728q0-3.8375-1.94-5.4891a4.1756,4.1756,0,0,0-2.7635-.9974,3.8391,3.8391,0,0,0-3.522,1.8122,8.4023,8.4023,0,0,0-1.1236,4.5016,8.333,8.333,0,0,0,1.1426,4.6357,3.8635,3.8635,0,0,0,3.4638,1.7374,4.0462,4.0462,0,0,0,3.5329-1.7276"/><path class="c" d="M287.0634,25.2934a8.6137,8.6137,0,0,0,2.1871-.48A1.6453,1.6453,0,0,0,290.43,23.26a1.84,1.84,0,0,0-.9049-1.7766,5.7457,5.7457,0,0,0-2.6562-.4889,3.4892,3.4892,0,0,0-2.7826.9594,3.9624,3.9624,0,0,0-.778,1.92h-5.2772a8.0033,8.0033,0,0,1,1.5407-4.51q2.18-2.7651,7.48-2.7642a13.3506,13.3506,0,0,1,6.13,1.3619q2.6787,1.3629,2.68,5.1442v9.5968q0,.998.038,2.418a3.0461,3.0461,0,0,0,.3253,1.4593,1.9558,1.9558,0,0,0,.808.6328v.8056h-5.95a6.0452,6.0452,0,0,1-.3455-1.1891q-.0966-.5568-.1538-1.2681a11.2849,11.2849,0,0,1-2.6251,2.0927,7.9515,7.9515,0,0,1-4.0164,1.0176,6.9271,6.9271,0,0,1-4.7209-1.6229,5.7663,5.7663,0,0,1-1.8611-4.5953,5.9554,5.9554,0,0,1,2.9957-5.5852,13.4029,13.4029,0,0,1,4.8349-1.3435Zm3.3468,2.5528a6.1577,6.1577,0,0,1-1.061.5281,8.93,8.93,0,0,1-1.4679.3731l-1.2449.231a8.2017,8.2017,0,0,0-2.5154.7492,2.5014,2.5014,0,0,0-1.2926,2.3219,2.423,2.423,0,0,0,.789,2.024,2.9905,2.9905,0,0,0,1.9194.6249,5.7264,5.7264,0,0,0,3.3051-1.0359q1.5106-1.0376,1.5683-3.7812Z"/><path class="c" d="M311.7338,17.4347a6.6548,6.6548,0,0,1,2.3984,2.312v-9.98h5.5467V38.0188h-5.3181V35.1205a7.7075,7.7075,0,0,1-2.6668,2.7072,7.4951,7.4951,0,0,1-3.7217.8436A7.7736,7.7736,0,0,1,301.8,35.705a11.3741,11.3741,0,0,1-2.5038-7.6095q0-5.3537,2.4646-8.426a8.032,8.032,0,0,1,6.5949-3.07,6.7473,6.7473,0,0,1,3.378.8356m1.3435,14.9033a7.6426,7.6426,0,0,0,1.2087-4.4728q0-3.8375-1.9371-5.4891a4.1843,4.1843,0,0,0-2.7642-.9974,3.8367,3.8367,0,0,0-3.5225,1.8122,8.4077,8.4077,0,0,0-1.1236,4.5016,8.339,8.339,0,0,0,1.1413,4.6357,3.8653,3.8653,0,0,0,3.4644,1.7374,4.0478,4.0478,0,0,0,3.533-1.7276"/><path class="c" d="M113.1015,51.7067a6.9688,6.9688,0,0,1,2.51,2.4186V43.6862h5.8028V73.2386h-5.5627V70.2079a8.0584,8.0584,0,0,1-2.79,2.83,7.8623,7.8623,0,0,1-3.8963.8846,8.1247,8.1247,0,0,1-6.4534-3.1042,11.8969,11.8969,0,0,1-2.6208-7.9592q0-5.6017,2.5791-8.8144a8.399,8.399,0,0,1,6.8976-3.212,7.06,7.06,0,0,1,3.533.8736m1.4053,15.5894a7.9772,7.9772,0,0,0,1.2657-4.6779q0-4.0158-2.0277-5.7416a4.3649,4.3649,0,0,0-2.8916-1.0439,4.0231,4.0231,0,0,0-3.685,1.8967,8.8,8.8,0,0,0-1.1744,4.7074,8.7065,8.7065,0,0,0,1.1953,4.85,4.04,4.04,0,0,0,3.6236,1.8164,4.2245,4.2245,0,0,0,3.6941-1.8073"/><path class="c" d="M140.8754,51.7986a8.89,8.89,0,0,1,3.7811,3.2365,10.7452,10.7452,0,0,1,1.7442,4.5248,28.1121,28.1121,0,0,1,.188,4.3442H130.65q.1332,3.2934,2.2887,4.6173a5.8054,5.8054,0,0,0,3.1545.8233,4.4468,4.4468,0,0,0,4.3557-2.5093h5.8426a7.1658,7.1658,0,0,1-2.1215,3.9539q-2.9443,3.1924-8.2336,3.193a11.9342,11.9342,0,0,1-7.7081-2.6931q-3.3412-2.6914-3.34-8.7611,0-5.6855,3.013-8.7207a10.5529,10.5529,0,0,1,7.8268-3.0344,12.4494,12.4494,0,0,1,5.1473,1.0256m-8.5608,4.9433a5.9291,5.9291,0,0,0-1.5242,3.3865h9.8583a4.78,4.78,0,0,0-1.5242-3.4576,5.0167,5.0167,0,0,0-3.3951-1.18,4.5328,4.5328,0,0,0-3.4148,1.251"/><path class="c" d="M180.5967,43.6452h8.8972V73.2386h-5.7611V53.2223q0-.8646.02-2.4192t.0183-2.4l-5.6067,24.8358h-6.011L166.586,48.4028q0,.8445.02,2.4t.019,2.4192V73.2386h-5.7623V43.6452h8.9982L175.25,66.9157Z"/><path class="c" d="M209.0151,51.7986a8.8931,8.8931,0,0,1,3.7823,3.2365,10.7439,10.7439,0,0,1,1.7442,4.5248,28.1246,28.1246,0,0,1,.1875,4.3442H198.7917q.1286,3.2934,2.2875,4.6173a5.8032,5.8032,0,0,0,3.1538.8233,4.4448,4.4448,0,0,0,4.3558-2.5093h5.8431a7.1526,7.1526,0,0,1-2.1227,3.9539q-2.9406,3.1924-8.2319,3.193a11.9309,11.9309,0,0,1-7.708-2.6931q-3.3431-2.6914-3.3406-8.7611,0-5.6855,3.0141-8.7207a10.5508,10.5508,0,0,1,7.8263-3.0344,12.4475,12.4475,0,0,1,5.146,1.0256m-8.56,4.9433a5.9376,5.9376,0,0,0-1.5236,3.3865h9.856a4.7588,4.7588,0,0,0-1.5237-3.4576,5.0075,5.0075,0,0,0-3.3933-1.18,4.5353,4.5353,0,0,0-3.4154,1.251"/><path class="c" d="M229.228,51.7067a6.96,6.96,0,0,1,2.5093,2.4186V43.6862h5.8041V73.2386H231.98V70.2079a8.0576,8.0576,0,0,1-2.7918,2.83,7.858,7.858,0,0,1-3.8957.8846,8.1312,8.1312,0,0,1-6.4551-3.1042,11.9094,11.9094,0,0,1-2.6209-7.9592q0-5.6017,2.581-8.8144a8.3969,8.3969,0,0,1,6.8982-3.212,7.06,7.06,0,0,1,3.5323.8736m1.4066,15.5894a7.9855,7.9855,0,0,0,1.2633-4.6779q0-4.0158-2.0272-5.7416a4.3645,4.3645,0,0,0-2.89-1.0439,4.0209,4.0209,0,0,0-3.6855,1.8967,8.7893,8.7893,0,0,0-1.175,4.7074,8.7124,8.7124,0,0,0,1.1946,4.85,4.0406,4.0406,0,0,0,3.6243,1.8164,4.2253,4.2253,0,0,0,3.6953-1.8073"/><path class="c" d="M257.0032,51.7986a8.9253,8.9253,0,0,1,3.7823,3.2365,10.769,10.769,0,0,1,1.743,4.5248,28.1724,28.1724,0,0,1,.1856,4.3442H246.7779q.13,3.2934,2.2869,4.6173a5.8061,5.8061,0,0,0,3.1538.8233,4.449,4.449,0,0,0,4.357-2.5093h5.842a7.1443,7.1443,0,0,1-2.121,3.9539q-2.9423,3.1924-8.2324,3.193a11.9342,11.9342,0,0,1-7.7093-2.6931q-3.342-2.6914-3.3406-8.7611,0-5.6855,3.0148-8.7207a10.55,10.55,0,0,1,7.8256-3.0344,12.4614,12.4614,0,0,1,5.1485,1.0256m-8.5614,4.9433a5.9331,5.9331,0,0,0-1.5236,3.3865h9.8565a4.7656,4.7656,0,0,0-1.5236-3.4576,5.0125,5.0125,0,0,0-3.3939-1.18,4.535,4.535,0,0,0-3.4154,1.251"/><rect class="c" x="265.7306" y="43.6452" width="5.7201" height="29.5947"/><rect class="c" x="277.1549" y="43.6452" width="5.7219" height="29.5947"/><path class="c" d="M298.397,42.4l-6.1048,6.0037h-4.1358L292.0122,42.4Zm-9.859,8.9528H294.34V73.24H288.538Z"/><path class="c" d="M317.5305,52.6091q2.1511,1.7772,2.1484,5.8934V73.24h-5.8622V59.9275a6.0745,6.0745,0,0,0-.4582-2.649,3.221,3.221,0,0,0-3.1893-1.6878,3.9521,3.9521,0,0,0-3.9661,2.4707,8.5287,8.5287,0,0,0-.56,3.3321V73.24h-5.7213V51.3961h5.5424v3.1918a9.6787,9.6787,0,0,1,2.08-2.4309,7.2071,7.2071,0,0,1,4.4574-1.3239,8.3923,8.3923,0,0,1,5.5284,1.776"/><path class="d" d="M44.653,90.3553c24.54,0,44.588-20.314,44.588-45.16C89.241,20.2822,69.1929,0,44.653,0,20.0476,0,0,20.2822,0,45.1951c0,24.8462,20.0476,45.16,44.653,45.16"/><path class="e" d="M44.653,88.2975c23.4292,0,42.5627-19.37,42.5627-43.103,0-23.7661-19.1335-43.1373-42.5627-43.1373-23.4954,0-42.6295,19.3712-42.6295,43.1373,0,23.7331,19.1341,43.103,42.63,43.103"/><path class="f" d="M44.57,75.3607V45.7256H23.7c3.7162,11.8,11.4971,23.1076,20.87,29.6351"/><path class="g" d="M44.57,73.3869c-7.0213-4.705-15.2918-15.5215-19.2775-27.66H44.57Z"/><path class="h" d="M22.0582,37.73c-5.2374,2.8058-6.6409,11.2294-11.0432,13.1671,1.75,2.1234,3.3406,4.5549,5.124,6.6782,4.7772-2.067,5.4879-6.88,8.5-9.3351a43.4754,43.4754,0,0,1-2.58-10.51"/><path class="i" d="M16.1133,57.684l-.0432-.0511c-.9309-1.1082-1.8217-2.3172-2.6833-3.4867-.7888-1.07-1.6045-2.177-2.441-3.1921l-.0757-.0916.1088-.0481c2.1206-.9333,3.5452-3.4062,5.0535-6.0242,1.6118-2.7979,3.2785-5.6907,5.9832-7.14l.12-.0641.0122.1351a42.7741,42.7741,0,0,0,2.5755,10.4878l.0218.06-.05.04a14.1964,14.1964,0,0,0-2.8631,3.6742c-1.3472,2.169-2.74,4.4118-5.6573,5.6738ZM11.1586,50.93c.8139.994,1.6061,2.0688,2.3728,3.1094.8466,1.1489,1.7217,2.3362,2.6333,3.4261,2.8239-1.2449,4.1916-3.4466,5.5146-5.577a14.5381,14.5381,0,0,1,2.8533-3.6779,43.15,43.15,0,0,1-2.551-10.3369c-2.59,1.4461-4.2182,4.2719-5.7933,7.006C14.69,47.48,13.2734,49.939,11.1586,50.93Z"/><path class="j" d="M16.139,57.575c4.6688-1.8955,5.9951-7.6627,8.5-9.3351.6078,1.594,1.0991,2.6943,1.7424,4.289-2.7667,2.2771-3.45,6.4882-7.7424,8.16C17.8066,59.5875,16.139,57.575,16.139,57.575Z"/><path class="i" d="M18.6079,60.7968l-.0411-.0542c-.8212-1.0868-2.48-3.09-2.497-3.11l-.0784-.0944.1139-.0462c2.8061-1.1392,4.3833-3.6751,5.7749-5.9124a11.1775,11.1775,0,0,1,2.7084-3.4142l.0938-.0625.04.1051c.3786.9928.7119,1.7943,1.065,2.6429.2135.5133.4344,1.0438.6767,1.6446l.0248.0612-.0512.042a13.4628,13.4628,0,0,0-2.5954,3.2451c-1.2384,1.9153-2.5187,3.8959-5.1715,4.9285Zm-2.3222-3.1853c.3324.4028,1.6523,2.0063,2.3831,2.9682,2.5559-1.0186,3.81-2.9578,5.0226-4.834a13.8253,13.8253,0,0,1,2.5816-3.2441c-.2325-.5753-.4454-1.0865-.6515-1.5818-.3406-.8194-.6635-1.5947-1.0261-2.5409a11.6718,11.6718,0,0,0-2.5624,3.295C20.6455,53.9048,19.0756,56.4291,16.2857,57.6115Z"/><path class="k" d="M18.4669,63.82a3.3809,3.3809,0,0,1,1.75-1.1051c.8271,1.47-.1243,1.7018-.4619,1.8409-.3394.1513-.9826-.24-1.2878-.7358"/><path class="k" d="M20.2166,62.715c-1.2975.3565-2.2348,1.3036-2.1215,2.2911-1.2871-1.216-2.7292-2.23-3.9777-3.4821a8.1445,8.1445,0,0,1,2.9932-2.7415C18.1325,60.1125,19.9881,62.2359,20.2166,62.715Z"/><path class="i" d="M18.0951,65.0959a.09.09,0,0,1-.0619-.0245c-.581-.5492-1.2053-1.0663-1.8088-1.5662-.73-.6046-1.4852-1.23-2.1708-1.9178a.09.09,0,0,1-.0094-.1155,8.17,8.17,0,0,1,3.03-2.7715.09.09,0,0,1,.1082.0273c.4052.5274.94,1.1778,1.4574,1.8069a21.0879,21.0879,0,0,1,1.6584,2.1418.09.09,0,0,1-.0573.1253c-1.2963.3562-2.161,1.2791-2.0559,2.1943a.09.09,0,0,1-.0494.09A.0879.0879,0,0,1,18.0951,65.0959Zm-3.86-3.5817c.6653.6607,1.3964,1.2663,2.1043,1.8526.5511.4564,1.1193.9272,1.6581,1.4249a2.6368,2.6368,0,0,1,2.086-2.1316c-.2172-.3513-.8822-1.16-1.5827-2.0116-.5-.6073-1.0161-1.2353-1.4173-1.7545A8.0433,8.0433,0,0,0,14.2347,61.5142Z"/><path class="j" d="M17.1143,58.7911c-1.0635-1.3656-2.1644-2.6938-3.2236-4.06A10.5222,10.5222,0,0,0,10.2064,58.03c1.25,1.2154,2.6612,2.2771,3.911,3.4944a8.335,8.335,0,0,1,2.9969-2.7329"/><path class="i" d="M14.136,61.6676l-.0814-.0793C13.43,60.98,12.7524,60.4,12.0972,59.839c-.6531-.559-1.3284-1.1371-1.9536-1.7451l-.0545-.053.0434-.0624A10.6315,10.6315,0,0,1,13.85,54.6513l.0665-.034.0456.0588c.5474.706,1.1153,1.4136,1.6648,2.0983.5137.64,1.0448,1.3015,1.5589,1.9615l.0625.0806-.088.0521A8.1752,8.1752,0,0,0,14.1942,61.57Zm-3.812-3.6493c.6055.5844,1.2583,1.1434,1.89,1.684.63.5389,1.2795,1.0951,1.8857,1.6793a8.3771,8.3771,0,0,1,2.8811-2.6156c-.4934-.6323-1.0019-1.2657-1.4944-1.8792-.5346-.666-1.0866-1.354-1.6207-2.0413A10.47,10.47,0,0,0,10.324,58.0183Z"/><path class="h" d="M8.9553,48.24a6.8934,6.8934,0,0,0-4.5572,4.3625c1.9358,1.7839,3.8742,3.6052,5.8083,5.4272a9.3815,9.3815,0,0,1,3.6843-3.2984S10.6242,50.4012,8.9553,48.24Z"/><path class="i" d="M10.2214,58.1672l-.0766-.0721c-1.7638-1.6617-3.8127-3.5884-5.8077-5.4266l-.042-.0389.0172-.0542c.65-2.06,2.1157-3.4641,4.6109-4.4194l.0625-.024.0407.0531c1.65,2.1368,4.9035,6.4487,4.936,6.4919l.0667.0882-.1.0472A9.2753,9.2753,0,0,0,10.28,58.08Zm-5.72-5.5921c1.9533,1.8008,3.956,3.6834,5.69,5.3173a9.4506,9.4506,0,0,1,3.5612-3.1946c-.468-.62-3.2986-4.3683-4.8278-6.35A6.7362,6.7362,0,0,0,4.5013,52.5751Z"/><path class="k" d="M26.3809,52.5289c-2.861,2.4854-3.579,6.5121-7.7424,8.16A12.3808,12.3808,0,0,1,20.3832,63.04c.3407.7578.1318,1.4667-.8178,1.5408a1.7834,1.7834,0,0,1-1.1045-.756,1.6181,1.6181,0,0,0-.3658,1.1811c3.457.2267,7.3717-3.7106,10.2584-8.5681-.6825-1.2522-1.3294-2.6177-1.9726-3.9091"/><path class="i" d="M18.3818,65.1054h0c-.0977,0-.1954-.0031-.2922-.01l-.0818-.0055-.0021-.0818a1.7,1.7,0,0,1,.385-1.2394l.0708-.09.07.09a1.7047,1.7047,0,0,0,1.0338.7216.936.936,0,0,0,.7771-.3969,1.11,1.11,0,0,0-.0413-1.0173,7.6317,7.6317,0,0,0-1.2127-1.708c-.1737-.204-.35-.4107-.52-.6245l-.076-.095.113-.0447c2.5277-1,3.7953-2.9213,5.0208-4.7791a15.7783,15.7783,0,0,1,2.6958-3.3648l.0877-.076.0517.1038c.17.3413.34.6877.5112,1.036.4711.959.9585,1.9506,1.46,2.87l.0246.0447-.0264.0442C25.2227,61.8824,21.4661,65.1054,18.3818,65.1054Zm-.1982-.1844c.0659.0031.1317.0046.1979.0046h0c1.5818,0,3.3115-.839,5.1421-2.494A26.3562,26.3562,0,0,0,28.25,56.4359c-.4944-.91-.9744-1.8869-1.4388-2.8319-.1534-.3124-.3063-.6233-.4588-.93a16.0591,16.0591,0,0,0-2.5761,3.2512c-1.2228,1.8532-2.4866,3.7689-4.9917,4.8015.1452.1788.2938.3534.4408.5259a7.7542,7.7542,0,0,1,1.24,1.7509,1.28,1.28,0,0,1,.0322,1.183,1.0888,1.0888,0,0,1-.9247.4846h0a1.7206,1.7206,0,0,1-1.1086-.7A1.4753,1.4753,0,0,0,18.1836,64.921Z"/><path class="h" d="M67.1828,37.73c5.2368,2.8058,6.64,11.2294,11.042,13.1671-1.7485,2.1234-3.3394,4.5549-5.1228,6.6782-4.7779-2.067-5.4885-6.88-8.5-9.3351a43.4734,43.4734,0,0,0,2.581-10.51"/><path class="i" d="M73.1278,57.684l-.0616-.0266c-2.9174-1.262-4.3108-3.5051-5.6579-5.6741a14.2042,14.2042,0,0,0-2.8631-3.6739l-.05-.04.0217-.06a42.7681,42.7681,0,0,0,2.5761-10.4878l.0122-.1351.12.0641C69.93,39.1,71.5959,41.9923,73.2074,44.79c1.5083,2.6181,2.9326,5.0913,5.0535,6.0246l.1088.0478-.0754.0919c-.8347,1.0136-1.6489,2.1185-2.4361,3.1869-.8629,1.171-1.7552,2.3819-2.6873,3.4919Zm-8.42-9.4732a14.5217,14.5217,0,0,1,2.8529,3.6779c1.3233,2.13,2.691,4.3321,5.5155,5.577.9131-1.0914,1.7895-2.2808,2.637-3.4316.7655-1.0384,1.5561-2.1114,2.3678-3.1039-2.115-.9912-3.5314-3.45-5.0293-6.0506-1.5751-2.7341-3.2025-5.56-5.7924-7.0057A43.1421,43.1421,0,0,1,64.7079,48.2108Z"/><path class="j" d="M73.102,57.575c-4.6694-1.8955-5.9958-7.6627-8.5-9.3351-.607,1.594-1.0984,2.6943-1.7416,4.289,2.7666,2.2771,3.45,6.4882,7.7423,8.16C71.4344,59.5875,73.102,57.575,73.102,57.575Z"/><path class="i" d="M70.6331,60.7968,70.57,60.772c-2.6526-1.0326-3.933-3.0132-5.1714-4.9285a13.4628,13.4628,0,0,0-2.5954-3.2451l-.0512-.042.0249-.0612c.241-.598.4609-1.1266.6738-1.6379.3538-.8506.688-1.6541,1.0672-2.6493l.04-.1054.0938.0625A11.1673,11.1673,0,0,1,67.36,51.579c1.3919,2.2373,2.9691,4.7732,5.7758,5.9127l.114.0462-.0785.0944c-.0165.02-1.6758,2.0235-2.497,3.11ZM62.968,52.5016A13.8253,13.8253,0,0,1,65.55,55.7457c1.213,1.8762,2.4667,3.8154,5.0226,4.834.7309-.9619,2.0508-2.5654,2.3831-2.9682-2.79-1.1824-4.36-3.707-5.7479-5.9376a11.6735,11.6735,0,0,0-2.5623-3.295c-.3633.949-.6868,1.7261-1.0287,2.5476C63.4115,51.42,63.2,51.9291,62.968,52.5016Z"/><path class="k" d="M70.7734,63.82a3.3784,3.3784,0,0,0-1.749-1.1051c-.8277,1.47.1237,1.7018.4619,1.8409.3394.1513.9827-.24,1.2871-.7358"/><path class="k" d="M69.0244,62.715c1.2975.3565,2.2348,1.3036,2.1209,2.2911,1.2877-1.216,2.73-2.23,3.9784-3.4821A8.1447,8.1447,0,0,0,72.13,58.7825C71.1085,60.1125,69.2523,62.2359,69.0244,62.715Z"/><path class="i" d="M71.1453,65.0959a.09.09,0,0,1-.09-.1c.1057-.9149-.7587-1.8378-2.0553-2.194a.09.09,0,0,1-.0573-.1253,21.0566,21.0566,0,0,1,1.659-2.143c.5171-.6286,1.0519-1.2785,1.4568-1.8057a.0892.0892,0,0,1,.1081-.0273,8.1693,8.1693,0,0,1,3.03,2.7715.09.09,0,0,1-.01.1155c-.6862.6883-1.4418,1.3141-2.1724,1.9191-.6031.5-1.2268,1.0163-1.8082,1.5649A.0887.0887,0,0,1,71.1453,65.0959ZM69.1579,62.66a2.6356,2.6356,0,0,1,2.0854,2.1313c.5388-.4971,1.1064-.9673,1.6572-1.4234.7082-.5866,1.44-1.1928,2.1059-1.8538a8.0441,8.0441,0,0,0-2.8484-2.62c-.4013.5189-.9172,1.1462-1.4167,1.7537C70.04,61.5,69.3748,62.3085,69.1579,62.66Z"/><path class="j" d="M72.1267,58.7911c1.0636-1.3656,2.1638-2.6938,3.2236-4.06A10.5225,10.5225,0,0,1,79.0347,58.03c-1.251,1.2154-2.6613,2.2771-3.911,3.4944a8.3353,8.3353,0,0,0-2.997-2.7329"/><path class="i" d="M75.105,61.6676l-.0582-.0973a8.1752,8.1752,0,0,0-2.9657-2.7017l-.0879-.0521.0625-.0806c.5161-.6628,1.0494-1.3272,1.5649-1.97.5474-.6819,1.1131-1.387,1.6587-2.09l.0456-.0588.0665.034a10.6306,10.6306,0,0,1,3.7171,3.3272l.0435.0624-.0548.053c-.6243.6069-1.2982,1.1839-1.95,1.742-.6565.5618-1.3349,1.1429-1.9607,1.7524ZM72.26,58.766a8.3766,8.3766,0,0,1,2.8812,2.6156c.6075-.5851,1.2584-1.1426,1.8888-1.6823s1.2819-1.0975,1.8869-1.681a10.4744,10.4744,0,0,0-3.5416-3.1728c-.5324.6846-1.0822,1.37-1.6146,2.0333C73.2665,57.4948,72.7559,58.131,72.26,58.766Z"/><path class="h" d="M80.2856,48.24a6.8926,6.8926,0,0,1,4.5568,4.3625c-1.936,1.7839-3.8737,3.6052-5.8077,5.4272A9.39,9.39,0,0,0,75.35,54.7312S78.6169,50.4012,80.2856,48.24Z"/><path class="i" d="M79.02,58.1672l-.0591-.0871a9.2822,9.2822,0,0,0-3.6484-3.2677l-.1-.0472.0668-.0882c.0324-.0432,3.2858-4.3551,4.9359-6.4919l.0407-.0531.0625.024c2.4955.9556,3.9606,2.36,4.61,4.4194l.0171.0542-.0419.0389c-1.969,1.8143-3.9484,3.6758-5.8071,5.4266Zm-3.5314-3.4694a9.46,9.46,0,0,1,3.5612,3.1946c1.8234-1.7178,3.7612-3.54,5.69-5.3173A6.7339,6.7339,0,0,0,80.316,48.348C78.7869,50.33,75.9562,54.0779,75.4882,54.6978Z"/><path class="l" d="M62.86,52.5289c2.86,2.4854,3.5789,6.5121,7.7423,8.16A12.36,12.36,0,0,0,68.8577,63.04c-.3406.7578-.1316,1.4667.8173,1.5408a1.7807,1.7807,0,0,0,1.1046-.756,1.6154,1.6154,0,0,1,.3657,1.1811c-3.4565.2267-7.3717-3.7106-10.2578-8.5681.6819-1.2522,1.3294-2.6177,1.9727-3.9091"/><path class="i" d="M70.8589,65.1054c-3.0845,0-6.8412-3.223-10.0486-8.6214L60.784,56.44l.0245-.0447c.5017-.9211.99-1.9141,1.4617-2.8744.1706-.3468.34-.692.5094-1.032l.0518-.1038.0876.076a15.7691,15.7691,0,0,1,2.6952,3.3642c1.2259,1.8581,2.4934,3.78,5.0214,4.78l.113.0447-.0759.095c-.1707.2138-.3468.4208-.5208.6248a7.6018,7.6018,0,0,0-1.212,1.708,1.11,1.11,0,0,0-.0414,1.0173.9384.9384,0,0,0,.7836.3966,1.7071,1.7071,0,0,0,1.0267-.7216l.07-.09.0711.09a1.6969,1.6969,0,0,1,.3851,1.2394l-.0022.0818-.0818.0055C71.0543,65.1023,70.9566,65.1054,70.8589,65.1054Zm-9.8678-8.67a26.3412,26.3412,0,0,0,4.7257,5.9957C67.6239,64.1561,69.42,65,71.0568,64.921a1.4714,1.4714,0,0,0-.28-.95,1.75,1.75,0,0,1-1.1018.7,1.0921,1.0921,0,0,1-.9312-.4846,1.28,1.28,0,0,1,.0319-1.1827,7.7205,7.7205,0,0,1,1.24-1.7506c.147-.1728.2956-.3473.4411-.5265-2.5053-1.0326-3.77-2.9486-4.9923-4.8021a16.0638,16.0638,0,0,0-2.5754-3.2506c-.152.3057-.3042.6154-.457.9263C61.9664,54.5462,61.4858,55.5243,60.9911,56.4359Z"/><polygon class="m" points="30.955 51.966 30.955 52.498 34.599 59.859 34.519 59.359 30.955 51.966"/><g class="n"><rect class="o" x="30.9565" y="49.8563" width="1.0856" height="9.5031"/><rect class="o" x="32.0421" y="49.8563" width="0.1372" height="9.5031"/><rect class="p" x="32.1793" y="49.8563" width="0.1348" height="9.5031"/><rect class="q" x="32.3141" y="49.8563" width="0.1372" height="9.5031"/><rect class="r" x="32.4513" y="49.8563" width="0.1348" height="9.5031"/><rect class="s" x="32.5861" y="49.8563" width="0.1372" height="9.5031"/><rect class="t" x="32.7233" y="49.8563" width="0.1348" height="9.5031"/><rect class="u" x="32.8581" y="49.8563" width="0.1372" height="9.5031"/><rect class="v" x="32.9953" y="49.8563" width="0.1348" height="9.5031"/><rect class="w" x="33.1301" y="49.8563" width="0.1372" height="9.5031"/><rect class="x" x="33.2673" y="49.8563" width="0.1348" height="9.5031"/><rect class="y" x="33.4022" y="49.8563" width="0.1372" height="9.5031"/><rect class="z" x="33.5394" y="49.8563" width="0.1348" height="9.5031"/><rect class="aa" x="33.6742" y="49.8563" width="0.1372" height="9.5031"/><rect class="ab" x="33.8114" y="49.8563" width="0.1348" height="9.5031"/><rect class="ac" x="33.9462" y="49.8563" width="0.1372" height="9.5031"/><rect class="ad" x="34.0834" y="49.8563" width="0.1347" height="9.5031"/><rect class="ae" x="34.2181" y="49.8563" width="0.1373" height="9.5031"/><rect class="af" x="34.3554" y="49.8563" width="0.1347" height="9.5031"/><rect class="ag" x="34.4901" y="49.8563" width="0.1373" height="9.5031"/><rect class="ah" x="34.6274" y="49.8563" width="0.1348" height="9.5031"/><rect class="ai" x="34.7621" y="49.8563" width="0.1348" height="9.5031"/><rect class="aj" x="34.897" y="49.8563" width="0.1372" height="9.5031"/><rect class="ak" x="35.0341" y="49.8563" width="0.1373" height="9.5031"/><rect class="al" x="35.1714" y="49.8563" width="0.1347" height="9.5031"/><rect class="am" x="35.3062" y="49.8563" width="0.1348" height="9.5031"/><rect class="an" x="35.441" y="49.8563" width="0.1372" height="9.5031"/><rect class="ao" x="35.5782" y="49.8563" width="0.1373" height="9.5031"/><rect class="ap" x="35.7154" y="49.8563" width="0.1347" height="9.5031"/><rect class="aq" x="35.8502" y="49.8563" width="0.1348" height="9.5031"/><rect class="ar" x="35.985" y="49.8563" width="0.1372" height="9.5031"/><rect class="as" x="36.1222" y="49.8563" width="0.1347" height="9.5031"/><rect class="as" x="36.2569" y="49.8563" width="0.0784" height="9.5031"/><rect class="at" x="36.3354" y="49.8563" width="0.0784" height="9.5031"/><rect class="au" x="36.4138" y="49.8563" width="0.076" height="9.5031"/><rect class="av" x="36.4897" y="49.8563" width="0.0784" height="9.5031"/><rect class="aw" x="36.5682" y="49.8563" width="0.0784" height="9.5031"/><rect class="ax" x="36.6466" y="49.8563" width="0.0784" height="9.5031"/><rect class="ay" x="36.725" y="49.8563" width="0.076" height="9.5031"/><rect class="az" x="36.801" y="49.8563" width="0.0784" height="9.5031"/><rect class="ba" x="36.8794" y="49.8563" width="0.0784" height="9.5031"/><rect class="bb" x="36.9578" y="49.8563" width="0.076" height="9.5031"/><rect class="bc" x="37.0338" y="49.8563" width="0.0784" height="9.5031"/><rect class="bd" x="37.1122" y="49.8563" width="0.0784" height="9.5031"/><rect class="be" x="37.1906" y="49.8563" width="0.0784" height="9.5031"/><rect class="bf" x="37.269" y="49.8563" width="0.076" height="9.5031"/><rect class="bg" x="37.345" y="49.8563" width="0.0784" height="9.5031"/><rect class="bh" x="37.4234" y="49.8563" width="0.0784" height="9.5031"/><rect class="bi" x="37.5018" y="49.8563" width="0.076" height="9.5031"/><rect class="bj" x="37.5778" y="49.8563" width="0.0784" height="9.5031"/><rect class="bk" x="37.6562" y="49.8563" width="0.0784" height="9.5031"/><rect class="bl" x="37.7346" y="49.8563" width="0.0784" height="9.5031"/><rect class="bm" x="37.813" y="49.8563" width="0.076" height="9.5031"/><rect class="bn" x="37.889" y="49.8563" width="0.0784" height="9.5031"/><rect class="bo" x="37.9674" y="49.8563" width="0.0784" height="9.5031"/><rect class="bp" x="38.0458" y="49.8563" width="0.076" height="9.5031"/><rect class="bp" x="38.1218" y="49.8563" width="0.0171" height="9.5031"/><rect class="bq" x="38.1389" y="49.8563" width="0.0172" height="9.5031"/><rect class="br" x="38.1561" y="49.8563" width="0.0171" height="9.5031"/><rect class="bs" x="38.1732" y="49.8563" width="0.0172" height="9.5031"/><rect class="bt" x="38.1904" y="49.8563" width="0.0147" height="9.5031"/><rect class="bu" x="38.2051" y="49.8563" width="0.0172" height="9.5031"/><rect class="bv" x="38.2223" y="49.8563" width="0.0171" height="9.5031"/><rect class="bw" x="38.2394" y="49.8563" width="0.0147" height="9.5031"/><rect class="bx" x="38.2541" y="49.8563" width="0.0172" height="9.5031"/><rect class="by" x="38.2713" y="49.8563" width="0.0171" height="9.5031"/><rect class="bz" x="38.2884" y="49.8563" width="0.0172" height="9.5031"/><rect class="ca" x="38.3056" y="49.8563" width="0.0171" height="9.5031"/><rect class="cb" x="38.3227" y="49.8563" width="0.0147" height="9.5031"/><rect class="cc" x="38.3375" y="49.8563" width="0.0171" height="9.5031"/><rect class="cd" x="38.3546" y="49.8563" width="0.0171" height="9.5031"/><rect class="ce" x="38.3717" y="49.8563" width="0.0172" height="9.5031"/><rect class="cf" x="38.3889" y="49.8563" width="0.0147" height="9.5031"/><rect class="cg" x="38.4036" y="49.8563" width="0.0172" height="9.5031"/><rect class="ch" x="38.4208" y="49.8563" width="0.0171" height="9.5031"/><rect class="ci" x="38.4379" y="49.8563" width="0.0172" height="9.5031"/><rect class="cj" x="38.4551" y="49.8563" width="0.0147" height="9.5031"/><rect class="ck" x="38.4698" y="49.8563" width="0.0171" height="9.5031"/><rect class="cl" x="38.4869" y="49.8563" width="0.0172" height="9.5031"/><rect class="cm" x="38.5041" y="49.8563" width="0.0171" height="9.5031"/><rect class="cn" x="38.5212" y="49.8563" width="0.0172" height="9.5031"/><rect class="co" x="38.5384" y="49.8563" width="0.0147" height="9.5031"/><rect class="cp" x="38.5531" y="49.8563" width="0.0171" height="9.5031"/><rect class="cq" x="38.5702" y="49.8563" width="0.0172" height="9.5031"/><rect class="cr" x="38.5874" y="49.8563" width="0.0171" height="9.5031"/><rect class="cs" x="38.6045" y="49.8563" width="0.0147" height="9.5031"/><rect class="ct" x="38.6193" y="49.8563" width="0.0171" height="9.5031"/><rect class="cu" x="38.6364" y="49.8563" width="0.0172" height="9.5031"/><rect class="cv" x="38.6536" y="49.8563" width="0.0171" height="9.5031"/><rect class="cw" x="38.6707" y="49.8563" width="0.0147" height="9.5031"/><rect class="cx" x="38.6854" y="49.8563" width="0.0172" height="9.5031"/><rect class="cy" x="38.7026" y="49.8563" width="0.0171" height="9.5031"/><rect class="cz" x="38.7197" y="49.8563" width="0.0172" height="9.5031"/><rect class="da" x="38.7369" y="49.8563" width="0.0171" height="9.5031"/><rect class="db" x="38.754" y="49.8563" width="0.0147" height="9.5031"/><rect class="dc" x="38.7688" y="49.8563" width="0.0171" height="9.5031"/><rect class="dd" x="38.7859" y="49.8563" width="0.0171" height="9.5031"/><path class="dd" d="M38.803,59.3593v0Z"/></g><g class="de"><polygon class="o" points="35.331 50.221 39.585 57.593 35.331 57.593 35.331 50.221"/><polygon class="o" points="35.331 50.052 39.683 57.593 39.585 57.593 35.331 50.221 35.331 50.052"/><polygon class="p" points="35.331 49.883 39.781 57.593 39.683 57.593 35.331 50.052 35.331 49.883"/><polygon class="q" points="35.331 49.714 39.879 57.593 39.781 57.593 35.331 49.883 35.331 49.714"/><polygon class="r" points="35.331 49.545 39.977 57.593 39.879 57.593 35.331 49.714 35.331 49.545"/><polygon class="s" points="35.331 49.376 40.075 57.593 39.977 57.593 35.331 49.545 35.331 49.376"/><polygon class="t" points="35.331 49.207 40.173 57.593 40.075 57.593 35.331 49.376 35.331 49.207"/><polygon class="u" points="35.331 49.035 40.271 57.593 40.173 57.593 35.331 49.207 35.331 49.035"/><polygon class="v" points="35.331 48.866 40.369 57.593 40.271 57.593 35.331 49.035 35.331 48.866"/><polygon class="w" points="35.375 48.776 40.464 57.593 40.369 57.593 35.331 48.866 35.331 48.776 35.375 48.776"/><polygon class="x" points="35.473 48.776 40.562 57.593 40.464 57.593 35.375 48.776 35.473 48.776"/><polygon class="y" points="35.571 48.776 40.661 57.593 40.562 57.593 35.473 48.776 35.571 48.776"/><polygon class="z" points="40.759 57.593 35.669 48.776 35.571 48.776 40.661 57.593 40.759 57.593"/><polygon class="aa" points="35.767 48.776 40.857 57.593 40.759 57.593 35.669 48.776 35.767 48.776"/><polygon class="ab" points="35.865 48.776 40.955 57.593 40.857 57.593 35.767 48.776 35.865 48.776"/><polygon class="ac" points="35.963 48.776 41.053 57.593 40.955 57.593 35.865 48.776 35.963 48.776"/><polygon class="ad" points="36.058 48.776 41.151 57.593 41.053 57.593 35.963 48.776 36.058 48.776"/><polygon class="ae" points="36.156 48.776 41.249 57.593 41.151 57.593 36.058 48.776 36.156 48.776"/><polygon class="af" points="36.254 48.776 41.347 57.593 41.249 57.593 36.156 48.776 36.254 48.776"/><polygon class="ag" points="36.353 48.776 41.445 57.593 41.347 57.593 36.254 48.776 36.353 48.776"/><polygon class="ah" points="36.451 48.776 41.543 57.593 41.445 57.593 36.353 48.776 36.451 48.776"/><polygon class="ai" points="36.549 48.776 41.641 57.593 41.543 57.593 36.451 48.776 36.549 48.776"/><polygon class="aj" points="36.647 48.776 41.739 57.593 41.641 57.593 36.549 48.776 36.647 48.776"/><polygon class="ak" points="36.745 48.776 41.834 57.593 41.739 57.593 36.647 48.776 36.745 48.776"/><polygon class="al" points="36.843 48.776 41.932 57.593 41.834 57.593 36.745 48.776 36.843 48.776"/><polygon class="am" points="36.941 48.776 42.03 57.593 41.932 57.593 36.843 48.776 36.941 48.776"/><polygon class="an" points="37.039 48.776 42.128 57.593 42.03 57.593 36.941 48.776 37.039 48.776"/><polygon class="ao" points="37.137 48.776 42.226 57.593 42.128 57.593 37.039 48.776 37.137 48.776"/><polygon class="ap" points="37.235 48.776 42.324 57.593 42.226 57.593 37.137 48.776 37.235 48.776"/><polygon class="aq" points="37.33 48.776 42.422 57.593 42.324 57.593 37.235 48.776 37.33 48.776"/><polygon class="ar" points="37.428 48.776 42.52 57.593 42.422 57.593 37.33 48.776 37.428 48.776"/><polygon class="as" points="37.526 48.776 42.618 57.593 42.52 57.593 37.428 48.776 37.526 48.776"/><polygon class="as" points="37.583 48.776 42.675 57.593 42.618 57.593 37.526 48.776 37.583 48.776"/><polygon class="at" points="37.639 48.776 42.729 57.593 42.675 57.593 37.583 48.776 37.639 48.776"/><polygon class="au" points="37.695 48.776 42.78 57.585 42.768 57.593 42.729 57.593 37.639 48.776 37.695 48.776"/><polygon class="av" points="37.749 48.776 42.822 57.561 42.78 57.585 37.695 48.776 37.749 48.776"/><polygon class="aw" points="37.806 48.776 42.866 57.536 42.822 57.561 37.749 48.776 37.806 48.776"/><polygon class="ax" points="37.862 48.776 42.908 57.512 42.866 57.536 37.806 48.776 37.862 48.776"/><polygon class="ay" points="37.918 48.776 42.949 57.487 42.908 57.512 37.862 48.776 37.918 48.776"/><polygon class="az" points="37.975 48.776 42.991 57.463 42.949 57.487 37.918 48.776 37.975 48.776"/><polygon class="ba" points="38.029 48.776 43.033 57.441 42.991 57.463 37.975 48.776 38.029 48.776"/><polygon class="bb" points="43.033 57.441 43.074 57.416 38.085 48.776 38.029 48.776 43.033 57.441"/><polygon class="bc" points="38.141 48.776 43.096 57.357 43.096 57.401 43.074 57.416 38.085 48.776 38.141 48.776"/><polygon class="bd" points="38.198 48.776 43.096 57.262 43.096 57.357 38.141 48.776 38.198 48.776"/><polygon class="be" points="38.254 48.776 43.096 57.166 43.096 57.262 38.198 48.776 38.254 48.776"/><polygon class="bf" points="38.308 48.776 43.096 57.068 43.096 57.166 38.254 48.776 38.308 48.776"/><polygon class="bg" points="38.364 48.776 43.096 56.97 43.096 57.068 38.308 48.776 38.364 48.776"/><polygon class="bh" points="38.421 48.776 43.096 56.874 43.096 56.97 38.364 48.776 38.421 48.776"/><polygon class="bi" points="38.477 48.776 43.096 56.779 43.096 56.874 38.421 48.776 38.477 48.776"/><polygon class="bj" points="38.534 48.776 43.096 56.681 43.096 56.779 38.477 48.776 38.534 48.776"/><polygon class="bk" points="38.587 48.776 43.096 56.583 43.096 56.681 38.534 48.776 38.587 48.776"/><polygon class="bl" points="38.644 48.776 43.096 56.487 43.096 56.583 38.587 48.776 38.644 48.776"/><polygon class="bm" points="38.7 48.776 43.096 56.389 43.096 56.487 38.644 48.776 38.7 48.776"/><polygon class="bn" points="38.756 48.776 43.096 56.294 43.096 56.389 38.7 48.776 38.756 48.776"/><polygon class="bo" points="38.813 48.776 43.096 56.196 43.096 56.294 38.756 48.776 38.813 48.776"/><polygon class="bp" points="38.869 48.776 43.096 56.1 43.096 56.196 38.813 48.776 38.869 48.776"/><polygon class="bp" points="38.881 48.776 43.096 56.078 43.096 56.1 38.869 48.776 38.881 48.776"/><polygon class="bq" points="38.891 48.776 43.096 56.058 43.096 56.078 38.881 48.776 38.891 48.776"/><polygon class="br" points="38.904 48.776 43.096 56.039 43.096 56.058 38.891 48.776 38.904 48.776"/><polygon class="bs" points="43.096 56.017 38.916 48.776 38.904 48.776 43.096 56.039 43.096 56.017"/><polygon class="bt" points="38.928 48.776 43.096 55.997 43.096 56.017 38.916 48.776 38.928 48.776"/><polygon class="bu" points="38.94 48.776 43.096 55.975 43.096 55.997 38.928 48.776 38.94 48.776"/><polygon class="bv" points="38.952 48.776 43.096 55.956 43.096 55.975 38.94 48.776 38.952 48.776"/><polygon class="bw" points="38.965 48.776 43.096 55.933 43.096 55.956 38.952 48.776 38.965 48.776"/><polygon class="bx" points="38.975 48.776 43.096 55.914 43.096 55.933 38.965 48.776 38.975 48.776"/><polygon class="by" points="38.987 48.776 43.096 55.894 43.096 55.914 38.975 48.776 38.987 48.776"/><polygon class="bz" points="38.999 48.776 43.096 55.872 43.096 55.894 38.987 48.776 38.999 48.776"/><polygon class="ca" points="39.011 48.776 43.096 55.853 43.096 55.872 38.999 48.776 39.011 48.776"/><polygon class="cb" points="39.024 48.776 43.096 55.831 43.096 55.853 39.011 48.776 39.024 48.776"/><polygon class="cc" points="39.036 48.776 43.096 55.811 43.096 55.831 39.024 48.776 39.036 48.776"/><polygon class="cd" points="39.048 48.776 43.096 55.789 43.096 55.811 39.036 48.776 39.048 48.776"/><polygon class="ce" points="39.058 48.776 43.096 55.769 43.096 55.789 39.048 48.776 39.058 48.776"/><polygon class="cf" points="39.07 48.776 43.096 55.75 43.096 55.769 39.058 48.776 39.07 48.776"/><polygon class="cg" points="39.082 48.776 43.096 55.728 43.096 55.75 39.07 48.776 39.082 48.776"/><polygon class="ch" points="39.095 48.776 43.096 55.708 43.096 55.728 39.082 48.776 39.095 48.776"/><polygon class="ci" points="39.107 48.776 43.096 55.686 43.096 55.708 39.095 48.776 39.107 48.776"/><polygon class="cj" points="39.119 48.776 43.096 55.666 43.096 55.686 39.107 48.776 39.119 48.776"/><polygon class="ck" points="39.131 48.776 43.096 55.644 43.096 55.666 39.119 48.776 39.131 48.776"/><polygon class="cl" points="39.144 48.776 43.096 55.625 43.096 55.644 39.131 48.776 39.144 48.776"/><polygon class="cm" points="39.156 48.776 43.096 55.605 43.096 55.625 39.144 48.776 39.156 48.776"/><polygon class="cn" points="39.166 48.776 43.096 55.583 43.096 55.605 39.156 48.776 39.166 48.776"/><polygon class="co" points="43.096 55.563 39.178 48.776 39.166 48.776 43.096 55.583 43.096 55.563"/><polygon class="cp" points="39.19 48.776 43.096 55.541 43.096 55.563 39.178 48.776 39.19 48.776"/><polygon class="cq" points="39.202 48.776 43.096 55.522 43.096 55.541 39.19 48.776 39.202 48.776"/><polygon class="cr" points="39.215 48.776 43.096 55.5 43.096 55.522 39.202 48.776 39.215 48.776"/><polygon class="cs" points="39.227 48.776 43.096 55.48 43.096 55.5 39.215 48.776 39.227 48.776"/><polygon class="ct" points="39.239 48.776 43.096 55.461 43.096 55.48 39.227 48.776 39.239 48.776"/><polygon class="cu" points="39.249 48.776 43.096 55.439 43.096 55.461 39.239 48.776 39.249 48.776"/><polygon class="cv" points="39.261 48.776 43.096 55.419 43.096 55.439 39.249 48.776 39.261 48.776"/><polygon class="cw" points="39.273 48.776 43.096 55.397 43.096 55.419 39.261 48.776 39.273 48.776"/><polygon class="cx" points="39.286 48.776 43.096 55.377 43.096 55.397 39.273 48.776 39.286 48.776"/><polygon class="cy" points="39.298 48.776 43.096 55.358 43.096 55.377 39.286 48.776 39.298 48.776"/><polygon class="cz" points="39.31 48.776 43.096 55.336 43.096 55.358 39.298 48.776 39.31 48.776"/><polygon class="da" points="39.323 48.776 43.096 55.314 43.096 55.336 39.31 48.776 39.323 48.776"/><polygon class="db" points="39.332 48.776 43.096 55.294 43.096 55.314 39.323 48.776 39.332 48.776"/><polygon class="dc" points="39.345 48.776 43.096 55.274 43.096 55.294 39.332 48.776 39.345 48.776"/><polygon class="dd" points="43.096 55.252 39.357 48.776 39.345 48.776 43.096 55.274 43.096 55.252"/><polygon class="dd" points="43.096 55.252 39.357 48.776 43.096 48.776 43.096 55.252"/></g><g class="df"><rect class="dg" x="34.5196" y="55.8183" width="0.4239" height="4.0409"/><rect class="dg" x="34.9435" y="55.8183" width="0.1372" height="4.0409"/><rect class="dh" x="35.0807" y="55.8183" width="0.1397" height="4.0409"/><rect class="ap" x="35.2204" y="55.8183" width="0.1373" height="4.0409"/><rect class="aq" x="35.3577" y="55.8183" width="0.1372" height="4.0409"/><rect class="ar" x="35.4949" y="55.8183" width="0.1397" height="4.0409"/><rect class="as" x="35.6346" y="55.8183" width="0.1372" height="4.0409"/><rect class="as" x="35.7718" y="55.8183" width="0.0711" height="4.0409"/><rect class="at" x="35.8428" y="55.8183" width="0.0686" height="4.0409"/><rect class="au" x="35.9115" y="55.8183" width="0.0686" height="4.0409"/><rect class="av" x="35.98" y="55.8183" width="0.0711" height="4.0409"/><rect class="di" x="36.0511" y="55.8183" width="0.0686" height="4.0409"/><rect class="dj" x="36.1197" y="55.8183" width="0.0711" height="4.0409"/><rect class="dk" x="36.1908" y="55.8183" width="0.0686" height="4.0409"/><rect class="az" x="36.2594" y="55.8183" width="0.0686" height="4.0409"/><rect class="dl" x="36.328" y="55.8183" width="0.0711" height="4.0409"/><rect class="dm" x="36.3991" y="55.8183" width="0.0686" height="4.0409"/><rect class="dn" x="36.4677" y="55.8183" width="0.0711" height="4.0409"/><rect class="do" x="36.5388" y="55.8183" width="0.0686" height="4.0409"/><rect class="dp" x="36.6074" y="55.8183" width="0.0711" height="4.0409"/><rect class="dq" x="36.6784" y="55.8183" width="0.0686" height="4.0409"/><rect class="dr" x="36.7471" y="55.8183" width="0.0711" height="4.0409"/><rect class="ds" x="36.8181" y="55.8183" width="0.0686" height="4.0409"/><rect class="dt" x="36.8868" y="55.8183" width="0.0686" height="4.0409"/><rect class="du" x="36.9553" y="55.8183" width="0.0711" height="4.0409"/><rect class="dv" x="37.0264" y="55.8183" width="0.0686" height="4.0409"/><rect class="dw" x="37.095" y="55.8183" width="0.0711" height="4.0409"/><rect class="dw" x="37.1661" y="55.8183" width="0.0686" height="4.0409"/><rect class="dx" x="37.2347" y="55.8183" width="0.0711" height="4.0409"/><rect class="dy" x="37.3058" y="55.8183" width="0.0686" height="4.0409"/><rect class="dz" x="37.3744" y="55.8183" width="0.0711" height="4.0409"/><rect class="ea" x="37.4455" y="55.8183" width="0.0686" height="4.0409"/><rect class="eb" x="37.5141" y="55.8183" width="0.0686" height="4.0409"/><rect class="ec" x="37.5827" y="55.8183" width="0.0711" height="4.0409"/><rect class="ed" x="37.6537" y="55.8183" width="0.0686" height="4.0409"/><rect class="ee" x="37.7224" y="55.8183" width="0.0711" height="4.0409"/><rect class="ef" x="37.7934" y="55.8183" width="0.0686" height="4.0409"/><rect class="eg" x="37.862" y="55.8183" width="0.0711" height="4.0409"/><rect class="eh" x="37.9331" y="55.8183" width="0.0686" height="4.0409"/><rect class="ei" x="38.0017" y="55.8183" width="0.0711" height="4.0409"/><rect class="ej" x="38.0728" y="55.8183" width="0.0686" height="4.0409"/><rect class="ek" x="38.1414" y="55.8183" width="0.0686" height="4.0409"/><rect class="el" x="38.21" y="55.8183" width="0.0711" height="4.0409"/><rect class="em" x="38.2811" y="55.8183" width="0.0686" height="4.0409"/><rect class="en" x="38.3497" y="55.8183" width="0.0711" height="4.0409"/><rect class="eo" x="38.4208" y="55.8183" width="0.0686" height="4.0409"/><rect class="eo" x="38.4893" y="55.8183" width="0.0932" height="4.0409"/><rect class="ep" x="38.5825" y="55.8183" width="0.0955" height="4.0409"/><rect class="eq" x="38.678" y="55.8183" width="0.0932" height="4.0409"/><rect class="er" x="38.7712" y="55.8183" width="0.0931" height="4.0409"/><rect class="es" x="38.8643" y="55.8183" width="0.0955" height="4.0409"/><rect class="et" x="38.9598" y="55.8183" width="0.0932" height="4.0409"/><rect class="eu" x="39.053" y="55.8183" width="0.0931" height="4.0409"/><rect class="ev" x="39.1461" y="55.8183" width="0.0956" height="4.0409"/><rect class="ew" x="39.2417" y="55.8183" width="0.0931" height="4.0409"/><rect class="ex" x="39.3348" y="55.8183" width="0.0931" height="4.0409"/><rect class="ey" x="39.4279" y="55.8183" width="0.0956" height="4.0409"/><rect class="ez" x="39.5235" y="55.8183" width="0.0931" height="4.0409"/><rect class="fa" x="39.6166" y="55.8183" width="0.0932" height="4.0409"/><rect class="fb" x="39.7097" y="55.8183" width="0.0955" height="4.0409"/><rect class="fc" x="39.8053" y="55.8183" width="0.0931" height="4.0409"/><rect class="fd" x="39.8984" y="55.8183" width="0.0932" height="4.0409"/><rect class="fe" x="39.9915" y="55.8183" width="0.0955" height="4.0409"/><rect class="cu" x="40.0871" y="55.8183" width="0.0932" height="4.0409"/><rect class="ff" x="40.1802" y="55.8183" width="0.0931" height="4.0409"/><rect class="fg" x="40.2733" y="55.8183" width="0.0955" height="4.0409"/><rect class="fh" x="40.3689" y="55.8183" width="0.0932" height="4.0409"/><rect class="cz" x="40.462" y="55.8183" width="0.0931" height="4.0409"/><rect class="da" x="40.5551" y="55.8183" width="0.0956" height="4.0409"/><rect class="db" x="40.6507" y="55.8183" width="0.0931" height="4.0409"/><rect class="dc" x="40.7438" y="55.8183" width="0.0931" height="4.0409"/><rect class="dd" x="40.8369" y="55.8183" width="0.0956" height="4.0409"/><rect class="dd" x="40.9325" y="55.8183" width="0.0343" height="4.0409"/><rect class="fi" x="40.9668" y="55.8183" width="0.0368" height="4.0409"/><rect class="fj" x="41.0036" y="55.8183" width="0.0367" height="4.0409"/><rect class="fk" x="41.0403" y="55.8183" width="0.0368" height="4.0409"/><rect class="fl" x="41.0771" y="55.8183" width="0.0343" height="4.0409"/><rect class="fm" x="41.1114" y="55.8183" width="0.0368" height="4.0409"/><rect class="fn" x="41.1481" y="55.8183" width="0.0368" height="4.0409"/><rect class="fo" x="41.1849" y="55.8183" width="0.0343" height="4.0409"/><rect class="fp" x="41.2192" y="55.8183" width="0.0368" height="4.0409"/><rect class="fq" x="41.256" y="55.8183" width="0.0368" height="4.0409"/><rect class="fr" x="41.2927" y="55.8183" width="0.0368" height="4.0409"/><rect class="fs" x="41.3295" y="55.8183" width="0.0343" height="4.0409"/><rect class="ft" x="41.3638" y="55.8183" width="0.0368" height="4.0409"/><rect class="fu" x="41.4006" y="55.8183" width="0.0368" height="4.0409"/><rect class="fv" x="41.4373" y="55.8183" width="0.0368" height="4.0409"/><rect class="fw" x="41.4741" y="55.8183" width="0.0343" height="4.0409"/><rect class="fx" x="41.5084" y="55.8183" width="0.0368" height="4.0409"/><rect class="fy" x="41.5451" y="55.8183" width="0.0368" height="4.0409"/><rect class="fz" x="41.5819" y="55.8183" width="0.0343" height="4.0409"/><rect class="ga" x="41.6162" y="55.8183" width="0.0368" height="4.0409"/><rect class="gb" x="41.653" y="55.8183" width="0.0368" height="4.0409"/><rect class="gc" x="41.6897" y="55.8183" width="0.0368" height="4.0409"/><rect class="gd" x="41.7265" y="55.8183" width="0.0343" height="4.0409"/><rect class="ge" x="41.7608" y="55.8183" width="0.0368" height="4.0409"/><rect class="gf" x="41.7976" y="55.8183" width="0.0368" height="4.0409"/><rect class="gg" x="41.8343" y="55.8183" width="0.0368" height="4.0409"/><rect class="gh" x="41.8711" y="55.8183" width="0.0343" height="4.0409"/><rect class="gi" x="41.9054" y="55.8183" width="0.0367" height="4.0409"/><rect class="gj" x="41.9421" y="55.8183" width="0.0368" height="4.0409"/><rect class="gk" x="41.9788" y="55.8183" width="0.0343" height="4.0409"/><rect class="gl" x="42.0132" y="55.8183" width="0.0368" height="4.0409"/><rect class="gm" x="42.0499" y="55.8183" width="0.0368" height="4.0409"/><rect class="gn" x="42.0867" y="55.8183" width="0.0368" height="4.0409"/><rect class="go" x="42.1234" y="55.8183" width="0.0368" height="4.0409"/><rect class="gp" x="42.1602" y="55.8183" width="0.0343" height="4.0409"/><rect class="gq" x="42.1945" y="55.8183" width="0.0368" height="4.0409"/><rect class="gr" x="42.2313" y="55.8183" width="0.0368" height="4.0409"/><rect class="gs" x="42.268" y="55.8183" width="0.0343" height="4.0409"/><rect class="gt" x="42.3024" y="55.8183" width="0.0368" height="4.0409"/><rect class="gu" x="42.3391" y="55.8183" width="0.0368" height="4.0409"/><rect class="gu" x="42.3759" y="55.8183" width="0.0367" height="4.0409"/><rect class="gv" x="42.4126" y="55.8183" width="0.0343" height="4.0409"/><rect class="gw" x="42.4469" y="55.8183" width="0.0368" height="4.0409"/><rect class="gx" x="42.4837" y="55.8183" width="0.0368" height="4.0409"/><rect class="gy" x="42.5204" y="55.8183" width="0.0368" height="4.0409"/><rect class="gz" x="42.5572" y="55.8183" width="0.0343" height="4.0409"/><rect class="ha" x="42.5915" y="55.8183" width="0.0368" height="4.0409"/><rect class="hb" x="42.6283" y="55.8183" width="0.0368" height="4.0409"/><rect class="hc" x="42.665" y="55.8183" width="0.0343" height="4.0409"/><rect class="hd" x="42.6993" y="55.8183" width="0.0368" height="4.0409"/><rect class="he" x="42.7361" y="55.8183" width="0.0368" height="4.0409"/><rect class="hf" x="42.7729" y="55.8183" width="0.0368" height="4.0409"/><rect class="hg" x="42.8096" y="55.8183" width="0.0343" height="4.0409"/><rect class="hh" x="42.8439" y="55.8183" width="0.0368" height="4.0409"/><rect class="hi" x="42.8806" y="55.8183" width="0.0368" height="4.0409"/><rect class="hj" x="42.9174" y="55.8183" width="0.0368" height="4.0409"/><rect class="hk" x="42.9542" y="55.8183" width="0.0343" height="4.0409"/><rect class="hl" x="42.9885" y="55.8183" width="0.0368" height="4.0409"/><rect class="hm" x="43.0252" y="55.8183" width="0.0368" height="4.0409"/><rect class="hn" x="43.062" y="55.8183" width="0.0343" height="4.0409"/><path class="hn" d="M43.0963,59.8592v0Z"/></g><path class="f" d="M35.2479,52.5289c-.5673.9893-1.556,1.1406-1.97,1.6326-.3817.3805-.1152.5311.11.3026a.9294.9294,0,0,1,.4165-.3026,2.1024,2.1024,0,0,1,.4583,1.518c.1127.1134.1127.2678.2261.3413a2.5327,2.5327,0,0,0-.4938-2.01,5.714,5.714,0,0,1,.7578-.533c.381.759.7982,1.556,1.749,1.5952a2.3855,2.3855,0,0,1-1.4421-1.8219c.264-.3425.264-.5293.1874-.7222"/><path class="ho" d="M44.615,17.6074c-7.512,4.1732-13.2057,5.1607-22.0833,1.8943-1.5211,9.49-1.3679,18.027,1.2136,26.2252h20.87Z"/><path class="hp" d="M44.615,19.1647c-6.8687,4.096-14.0426,4.8177-20.9836,2.1632-1.0648,8.2331-.91,16.54,1.6694,24.3977H44.615Z"/><path class="hq" d="M24.43,42.6515c.147.6457.5274,2.1264.8687,3.0741H44.615V42.3464c-6.7156.4534-13.588-.4165-20.1847.3051"/><path class="hr" d="M39.5951,43.1159l-.0839-1.1628-.3314-.4166-.3308-7.3956.582-.5428.08-1.6173s-.359-.117-1.012-.2616v.64c-.2794-.0594-.6016-.1225-.9643-.1838V31.53c-.4258-.0729-.9141-.1445-1.4575-.2034V31.97c-.305-.0343-.6267-.0655-.9636-.0913v-.64c-.2579-.0183-.446-.0459-.8-.0459s-.5452.0276-.8025.0459v.64c-.337.0258-.6592.057-.9643.0913v-.6439c-.544.0589-1.0316.1305-1.458.2034v.6451c-.3615.0613-.6838.1244-.9631.1838v-.64c-.6531.1446-1.0133.2616-1.0133.2616l.0809,1.6173.5808.5428-.33,7.3956-.3314.4166-.0833,1.1628a13.8393,13.8393,0,0,0,5.2116.9888c.0239,0,.0472,0,.0717-.0007s.0477.0007.071.0007A13.8438,13.8438,0,0,0,39.5951,43.1159Z"/><path class="c" d="M34.3119,36.1369c-2.4493,0-2.5228,5.0725-2.388,7.7784a14.3959,14.3959,0,0,0,2.3163.1894c.0239,0,.0472,0,.0717-.0007s.0477.0007.071.0007a14.4041,14.4041,0,0,0,2.3164-.1894C36.8341,41.2094,36.76,36.1369,34.3119,36.1369Z"/><path class="hs" d="M34.3119,36.8488c-2.1981,0-1.9163,5.527-1.7864,7.1517a14.3828,14.3828,0,0,0,1.7147.1042c.0239,0,.0472,0,.0717-.0007s.0477.0007.071.0007a14.3676,14.3676,0,0,0,1.7142-.1042C36.2281,42.3758,36.51,36.8488,34.3119,36.8488Z"/><path class="ho" d="M44.5887,75.3607V45.7256H65.4179c-3.7193,11.8-11.4935,23.1076-20.8292,29.6351"/><path class="ht" d="M44.626,73.3869c6.9815-4.705,15.2519-15.5215,19.2358-27.66H44.626Z"/><path class="hu" d="M50.3167,52.6642s-2.8652-2.5228-.8308-3.7854,4.7859-.69,5.8464-2.2661c-.4877,2.2263,1.2031,4.2186-2.4646,6.2507Z"/><path class="k" d="M50.5954,52.6875s-2.1711-1.9108-.63-2.8677,3.6255-.5219,4.4286-1.7159c-.3694,1.6859.9122,3.1954-1.8666,4.7343Z"/><path class="hv" d="M51.1689,52.74s-1.2143-1.2688.3779-1.9175a12.0724,12.0724,0,0,0,1.2308-.3737s.0674,2.1191-.8785,2.3482Z"/><path class="d" d="M53.4564,52.9467l-2.026-.2439-2.0369-.1219s-1.1946.5888-.6157,1.564c.6842.242.7517.6905.7517.6905l.245,9.9833s-.0955,1.773.3994,1.8507c.5011.0123.7242-1.75.7242-1.75l2.0228-9.7793s.1458-.4289.8626-.5453C54.5273,53.7388,53.4564,52.9467,53.4564,52.9467Z"/><path class="hw" d="M49.6183,58.4572s-1.1285.1446-1.1842.35a1.1771,1.1771,0,0,0,.321,1.1737c-.5158-.0919-1.1866.0637-.6163,1.0464-.435.55-.4019,1.1633.2573,1.319-.1274.6046-.1066.993,1.3514,1.3888l-.011-.4638s1.0458-.13,1.0929-.3964a.6118.6118,0,0,0-.1507-.4772.546.546,0,0,0,.3726-.7768c.2113-.1979.4067-1.1211-.3064-1.1107-.4723.0062-.8074.1673-1.0023-.4435A11.2688,11.2688,0,0,1,49.6183,58.4572Z"/><path class="hw" d="M55.1864,62.5985c-.4031-.4129-1.4923-1.9591-1.678-2.1294s-.7131-1.4838-1.0543-1.6614a3.7282,3.7282,0,0,1-.7664-.6458s-1.1879-1.3839-1.3214-1.29-.1838.2-.2242,1.0752c-.0258.54.7174.9.7278.8429a1.26,1.26,0,0,0,.6444,1.0017,2.3668,2.3668,0,0,0,.0809,1.6608l-.5372,2.6784s1.1315.2151,1.3827.0484a6.7344,6.7344,0,0,1,.8147.9459s.5079-.63,1.0489-1.3379C54.6167,63.379,54.9377,62.9355,55.1864,62.5985Z"/><path class="f" d="M44.67,17.6074c7.4728,4.1732,13.1653,5.1607,22.0459,1.8943,1.5169,9.49,1.3649,18.027-1.2167,26.2252H44.67Z"/><path class="e" d="M44.67,19.1647c6.79,4.096,14,4.8177,20.9469,2.1632,1.0194,8.2331.8711,16.54-1.7105,24.3977H44.67Z"/><path class="k" d="M44.67,39.01,59.6175,22.7681a30.31,30.31,0,0,0,6-1.4408c.2266,1.67.4166,3.416.49,5.2367L48.4635,45.7269H44.67Z"/><path class="hx" d="M55.9388,29.1811l4.1731-.2646c.114,0,.1924.0753.2641.223a.8234.8234,0,0,0,.759.457c.6077,0,1.028-.68.835-.7946-.2273-.1164-.26.4539-.835.4539-.6053,0-.5661-.7179-.9091-.6805l-4.2871-.0374V25.7663c-.0381-.7982-.609-1.8293-.911-1.8293a2.57,2.57,0,0,0-.9466,1.8293v2.7716l-3.8871.0374c-.3779-.0374-.3418.6805-.8735.6805-.606,0-.6433-.57-.8724-.4539-.1881.1146.2291.7946.835.7946a.8984.8984,0,0,0,.756-.457.282.282,0,0,1,.23-.223l3.8117.2646V39.3862a.5815.5815,0,0,0,.5661.57H55.37a.5837.5837,0,0,0,.5686-.57Z"/><path class="hy" d="M54.9132,43.5613c.2273-.1887.457-.3033.5312-.1887a.3359.3359,0,0,1-.2255.5286c-.3425.08-.2647-.264-.3057-.34"/><path class="hy" d="M54.534,42.9542c.1911-.3027.9514-.4926,1.1756-.6072a.4865.4865,0,0,1-.3.797c-.3431.0374-.42.2672-.533.2672a.3059.3059,0,0,1-.3424-.1544.4331.4331,0,0,1,0-.3026"/><path class="hy" d="M54.4182,42.0812a5.1772,5.1772,0,0,1,1.2938-.6072.4824.4824,0,0,1-.1531.7971,5.67,5.67,0,0,0-.95.4558c-.2254.1887-.4171-.3792-.1911-.6457"/><path class="hy" d="M54.3055,41.2088a15.3792,15.3792,0,0,1,1.5217-.6451.4444.4444,0,0,1-.079.7584,6.5151,6.5151,0,0,0-1.2142.495c-.2285.1507-.4528-.38-.2285-.6083"/><path class="hy" d="M58.9381,39.1228H62.881s.1176,1.7435-1.9335,1.7435A1.77,1.77,0,0,1,58.9381,39.1228Z"/><polygon class="hy" points="60.796 29.181 58.938 39.123 59.117 39.123 60.948 29.255 60.796 29.181"/><polygon class="hy" points="61.37 29.181 62.852 39.123 62.673 39.123 61.219 29.255 61.37 29.181"/><path class="hy" d="M47.1574,39.1228H51.1s.1176,1.7435-1.9347,1.7435A1.769,1.769,0,0,1,47.1574,39.1228Z"/><polygon class="hy" points="49.015 29.181 47.157 39.123 47.336 39.123 49.166 29.255 49.015 29.181"/><polygon class="hy" points="49.589 29.181 51.071 39.123 50.892 39.123 49.438 29.255 49.589 29.181"/><path class="hz" d="M55.0278,23.937v16.02s-.9477.1452-.9471-.3057,0-14.012,0-14.012S54.4819,24.0369,55.0278,23.937Z"/><path class="hy" d="M55.826,40.45c0-.0387-1.4788.6052-1.4788.5292-.1158-.1133-.1158-.264,0-.4919-.0417-.076-.0784-.1157-.1158-.1886-.6464-.3021-.9484-.4185-1.1745-.8725-.1543-.3412.0368-.9875.4142-.9875a.2653.2653,0,0,1,0,.53c-.0356,0-.0748-.0355-.1507-.0747.0759.683,1.0623.7977,1.7459-.19.6072.9876,1.9734.91,1.6695.1133a.3841.3841,0,0,1-.2684.1513.2852.2852,0,0,1-.2628-.2646.3221.3221,0,0,1,.2628-.2659.7718.7718,0,0,1,.5723,1.1,1.7009,1.7009,0,0,1-1.1757.76c0,.0355-.038.1126-.038.1513"/><path class="ia" d="M35.3454,24.7335l.6536-.141-.6536-.1365.6034-.2727-.6763.027.5-.4411-.631.2071.3584-.56-.5367.3731.1783-.6408-.4307.49.0166-.6715-.3027.598-.0147-.0019v-.52h.1814v-.1917H34.41V22.664h-.1868v.1869h-.1967v.1917h.1967v.52l-.0288.0024-.3094-.598.0435.6647-.4675-.5176.2408.6432-.0117.0086-.5568-.3442.3382.55-.6108-.1869.4747.4289-.6517-.035.593.2776-.6482.1365.661.1636.0012.0068-.6316.2781.6807-.0453-.4846.4441.6395-.2113h.0007l-.3474.56.5575-.3571.0018.0012-.2162.6432.5054-.4974h0a1.0327,1.0327,0,0,0,.66-.0105h0l.5109.5079-.2249-.6634.5778.381-.4031-.552.67.1985-.5293-.4288h.6812Z"/><path class="o" d="M35.8122,27.1356c-.0668-.1342-.1856-.332-.3094-.5312.0123-.1353.0012-.3253-.1568-.3216a.2722.2722,0,0,1-.0122-.1317.4155.4155,0,0,0,.0655-.1311c-.03-.0116-.0117-.0711-.0117-.0711l.1189-.2812-.2328.09-.0925-.1973-.128.185-.1973-.0778.0288.0974a.4535.4535,0,0,0-.1679-.0294c.0441-.0122.0632-.1139.0692-.1519a6.3852,6.3852,0,0,0-.1446-.8546,1.6832,1.6832,0,0,1,.2206-.31.3744.3744,0,0,0-.19.0441.3.3,0,0,0-.0564-.1268.7324.7324,0,0,0-.1586.1587.1981.1981,0,0,0-.0692-.1967c.063-.1832-.076-.2083-.076-.2083s-.14.0251-.076.2083a.1978.1978,0,0,0-.07.1967.7227.7227,0,0,0-.1581-.1587.2985.2985,0,0,0-.0569.1268.3766.3766,0,0,0-.1906-.0441,1.7059,1.7059,0,0,1,.2218.31,6.2221,6.2221,0,0,0-.1458.8546c.0067.038.0257.14.07.1519a.385.385,0,0,0-.3541.1905c-.1017.1648-.5764.88-.7412,1.2094s-1.5892,2.9755-1.5892,2.9755.12.1587.272.114c.0135.1586.114.1648.2218.12.0122.1905.14.2028.2217.1525a.1631.1631,0,0,0,.2408.114c.0441.1771.2089.1139.253.0949a.1907.1907,0,0,0,.2917.1012c.12.14.158.1139.2462.0759a.1977.1977,0,0,0,.2726.0637.2075.2075,0,0,0,.2659.03.2338.2338,0,0,0,.2659.0355c.1011.1115.2787.0263.2787.0263a.5976.5976,0,0,0,.5195,0s.1765.0852.2782-.0263a.2336.2336,0,0,0,.2658-.0355.2076.2076,0,0,0,.2659-.03.197.197,0,0,0,.272-.0637c.09.038.1275.0637.2476-.0759a.19.19,0,0,0,.2909-.1012c.0447.019.2089.0822.253-.0949a.1637.1637,0,0,0,.2414-.114c.0821.05.2083.038.2212-.1525.1072.0448.2089.0386.2211-.12.152.0447.2727-.114.2727-.114S35.977,27.4646,35.8122,27.1356Z"/><path class="ib" d="M35.8949,30.8156c-.0613-.038-.1568-.1-.098-.2071-.1409-.0845-.0551-.2769-.0551-.2769a.2516.2516,0,0,1-.0331-.2781.2219.2219,0,0,1-.0637-.3363.23.23,0,0,1-.0478-.33.2045.2045,0,0,1-.0594-.318.2016.2016,0,0,1-.0478-.3149.2187.2187,0,0,1-.0705-.3326c-.0441-.03-.2071-.23-.0662-.3517a.2456.2456,0,0,1-.06-.3326.21.21,0,0,1-.0625-.3c-.0594-.011-.1182-.2144-.0551-.2886-.0558-.0073-.1188-.0888-.1188-.2034-.1593.0111-.152-.185-.152-.185s-.144-.0183-.1286-.237a.1573.1573,0,0,1-.1189-.2071.2454.2454,0,0,1-.1152-.2218.3263.3263,0,0,1,0-.3369.6806.6806,0,0,1-.4546,0,.323.323,0,0,1,0,.3369.2441.2441,0,0,1-.1145.2218.1568.1568,0,0,1-.1183.2071c.0148.2187-.13.237-.13.237s.0073.1961-.1513.185c0,.1146-.0631.1961-.1183.2034.0625.0742.0037.2776-.0563.2886a.2085.2085,0,0,1-.0625.3.246.246,0,0,1-.0588.3326c.14.1219-.0227.3217-.0674.3517a.2183.2183,0,0,1-.07.3326.2016.2016,0,0,1-.0485.3149.204.204,0,0,1-.0594.318.23.23,0,0,1-.0478.33.2217.2217,0,0,1-.0625.3363.2542.2542,0,0,1-.033.2781s.0845.1924-.0564.2769c.06.1091-.04.171-.1.2089.1133.1281.152.1036.2384.0662a.1976.1976,0,0,0,.2725.0637.2068.2068,0,0,0,.2653.03.2347.2347,0,0,0,.2665.0355c.1011.1115.2781.0263.2781.0263a.5978.5978,0,0,0,.52,0s.177.0852.2781-.0263a.2337.2337,0,0,0,.2659-.0355.2075.2075,0,0,0,.2659-.03.1977.1977,0,0,0,.2726-.0637C35.7418,30.921,35.781,30.9461,35.8949,30.8156Z"/><path class="ic" d="M34.5472,24.7494H34.08s-.2315.922.2334.9545C34.7787,25.6714,34.5472,24.7494,34.5472,24.7494Z"/></svg>