<svg xmlns="http://www.w3.org/2000/svg" xmlns:xlink="http://www.w3.org/1999/xlink" viewBox="0 0 475.3961 162.3785"><defs><style>.a{fill:none;}.b,.i{fill:#e31f26;}.c{fill:#14a9a7;}.c,.d,.e,.f,.g,.h,.hw,.hx,.hy,.i,.ib,.ic,.id,.ie,.if,.ig,.ih,.j,.k{fill-rule:evenodd;}.d,.m{fill:#fff;}.e,.ii{fill:#fbbc28;}.f,.ia{fill:#a7c0cb;}.g{fill:#fedb2d;}.h{fill:#0166b0;}.j{fill:#e01e26;}.k{fill:#343839;}.l{clip-path:url(#a);}.n{fill:#fdfdfd;}.o{fill:#fbfbfb;}.p{fill:#faf9f9;}.q{fill:#f8f8f7;}.r{fill:#f7f6f6;}.s{fill:#f6f5f5;}.t{fill:#f5f4f3;}.u{fill:#f4f3f2;}.v{fill:#f3f2f1;}.w{fill:#f2f1f0;}.x{fill:#f0f0ef;}.y{fill:#efeeed;}.z{fill:#eeedec;}.aa{fill:#edeceb;}.ab{fill:#ecebea;}.ac{fill:#ebeae9;}.ad{fill:#eae9e8;}.ae{fill:#e9e8e7;}.af{fill:#e8e7e6;}.ag{fill:#e7e6e5;}.ah{fill:#e6e5e4;}.ai{fill:#e5e4e3;}.aj{fill:#e4e3e2;}.ak{fill:#e3e2e1;}.al{fill:#e2e1e0;}.am{fill:#e1e0df;}.an{fill:#e0dfde;}.ao{fill:#dfdfdd;}.ap{fill:#dedddc;}.aq{fill:#dddcdb;}.ar{fill:#dcdbda;}.as{fill:#dbdad9;}.at{fill:#dad9d8;}.au{fill:#d9d8d7;}.av{fill:#d8d7d5;}.aw{fill:#d7d5d4;}.ax{fill:#d6d4d3;}.ay{fill:#d4d3d2;}.az{fill:#d3d2d1;}.ba{fill:#d3d1d0;}.bb{fill:#d1d0cf;}.bc{fill:#d0cfce;}.bd{fill:#d0cecd;}.be{fill:#cecccc;}.bf{fill:#cdcbcb;}.bg{fill:#cdcaca;}.bh{fill:#cbc9c9;}.bi{fill:#cbc8c8;}.bj{fill:#c9c7c7;}.bk{fill:#c8c6c6;}.bl{fill:#c7c5c5;}.bm{fill:#c6c4c4;}.bn{fill:#c5c3c2;}.bo{fill:#c4c2c1;}.bp{fill:#c3c0c0;}.bq{fill:#c2bfbf;}.br{fill:#c0bebe;}.bs{fill:#bfbdbd;}.bt{fill:#bebcbc;}.bu{fill:#bdbbbb;}.bv{fill:#bcbabb;}.bw{fill:#bab9ba;}.bx{fill:#b9b8b9;}.by{fill:#b8b7b8;}.bz{fill:#b7b6b7;}.ca{fill:#b6b5b6;}.cb{fill:#b5b4b5;}.cc{fill:#b4b3b4;}.cd{fill:#b3b2b3;}.ce{fill:#b2b1b3;}.cf{fill:#b0b0b2;}.cg{fill:#afafb1;}.ch{fill:#aeaeb0;}.ci{fill:#adadaf;}.cj{fill:#acacae;}.ck{fill:#ababad;}.cl{fill:#aaaaad;}.cm{fill:#a9a9ac;}.cn{fill:#a8a8ab;}.co{fill:#a7a7aa;}.cp{fill:#a6a6a9;}.cq{fill:#a5a5a9;}.cr{fill:#a4a4a8;}.cs{fill:#a3a4a7;}.ct{fill:#a2a3a6;}.cu{fill:#a1a2a5;}.cv{fill:#a0a1a5;}.cw{fill:#9fa0a4;}.cx{fill:#9e9fa3;}.cy{fill:#9d9ea2;}.cz{fill:#9c9da1;}.da{fill:#9b9ca1;}.db{fill:#9a9ca0;}.dc{clip-path:url(#b);}.dd{clip-path:url(#c);}.de{fill:#e4e2e0;}.df{fill:#e3e1df;}.dg{fill:#e2e0df;}.dh{fill:#e1dfde;}.di{fill:#dfdedd;}.dj{fill:#d7d7d6;}.dk{fill:#d6d6d5;}.dl{fill:#d5d5d4;}.dm{fill:#d4d4d3;}.dn{fill:#d3d3d2;}.do{fill:#d2d2d1;}.dp{fill:#d1d1d0;}.dq{fill:#d0d0cf;}.dr{fill:#cecfce;}.ds{fill:#cdcecd;}.dt{fill:#cccdcc;}.du{fill:#cbcccb;}.dv{fill:#cacbca;}.dw{fill:#c9cac9;}.dx{fill:#c8c9c8;}.dy{fill:#c7c8c7;}.dz{fill:#c6c7c6;}.ea{fill:#c5c6c5;}.eb{fill:#c4c5c4;}.ec{fill:#c3c4c3;}.ed{fill:#c2c3c3;}.ee{fill:#c1c2c2;}.ef{fill:#c0c1c1;}.eg{fill:#bfc0c0;}.eh{fill:#bebfbf;}.ei{fill:#bdbebe;}.ej{fill:#bcbebd;}.ek{fill:#bbbdbc;}.el{fill:#babcbc;}.em{fill:#b9bbbb;}.en{fill:#b8baba;}.eo{fill:#b7b9b9;}.ep{fill:#b6b8b8;}.eq{fill:#b5b7b7;}.er{fill:#b4b6b6;}.es{fill:#b3b5b5;}.et{fill:#b2b4b4;}.eu{fill:#b0b3b3;}.ev{fill:#afb1b2;}.ew{fill:#aeb0b1;}.ex{fill:#adafb0;}.ey{fill:#acaeaf;}.ez{fill:#abadaf;}.fa{fill:#aaacae;}.fb{fill:#a9abad;}.fc{fill:#a8aaac;}.fd{fill:#a6a8ab;}.fe{fill:#a5a7aa;}.ff{fill:#a4a6a9;}.fg{fill:#a3a5a8;}.fh{fill:#a2a4a7;}.fi{fill:#a1a3a6;}.fj{fill:#a0a2a5;}.fk{fill:#9fa1a4;}.fl{fill:#9ea0a3;}.fm{fill:#9d9fa3;}.fn{fill:#9c9ea2;}.fo{fill:#9b9da1;}.fp{fill:#999b9f;}.fq{fill:#989a9e;}.fr{fill:#98999d;}.fs{fill:#97989b;}.ft{fill:#96979a;}.fu{fill:#969699;}.fv{fill:#959598;}.fw{fill:#949497;}.fx{fill:#949396;}.fy{fill:#939294;}.fz{fill:#929293;}.ga{fill:#929192;}.gb{fill:#919091;}.gc{fill:#908f90;}.gd{fill:#8f8e8f;}.ge{fill:#8f8d8e;}.gf{fill:#8e8c8d;}.gg{fill:#8d8b8c;}.gh{fill:#8d8a8b;}.gi{fill:#8c8a8a;}.gj{fill:#8b8988;}.gk{fill:#8a8887;}.gl{fill:#8a8786;}.gm{fill:#898685;}.gn{fill:#888584;}.go{fill:#888483;}.gp{fill:#878382;}.gq{fill:#868381;}.gr{fill:#868280;}.gs{fill:#85817f;}.gt{fill:#84807e;}.gu{fill:#847f7d;}.gv{fill:#837e7c;}.gw{fill:#827d7b;}.gx{fill:#827d7a;}.gy{fill:#817c79;}.gz{fill:#807b78;}.ha{fill:#807a77;}.hb{fill:#7f7976;}.hc{fill:#7e7875;}.hd{fill:#7e7874;}.he{fill:#7d7773;}.hf{fill:#7c7672;}.hg{fill:#7c7571;}.hh{fill:#7b7470;}.hi{fill:#7a746f;}.hj{fill:#7a736e;}.hk{fill:#79726d;}.hl{fill:#78716c;}.hm{fill:#78706b;}.hn{fill:#77706a;}.ho{fill:#766f69;}.hp{fill:#756e69;}.hq{fill:#756d68;}.hr{fill:#746c67;}.hs{fill:#746b66;}.ht{fill:#736b65;}.hu{fill:#726a64;}.hv{fill:#716963;}.hw{fill:#90979b;}.hx{fill:#a9d5f2;}.hy{fill:#6fc8b7;}.hz,.ig{fill:#c19f6b;}.ib{fill:#164260;}.ic{fill:#fcb129;}.id{fill:#ad1f23;}.ie{fill:#ffd774;}.if{fill:#bcbdbc;}.ih{fill:#9c9f9f;}.ij{fill:#bdbfc5;}.ik{fill:#f8c3b5;}.il{fill:#58595b;}</style><clipPath id="a"><path class="a" d="M42.653,71.5783l4.8442,10.2368s3.0039-2.8252,5.93-2.398l-4.7217-9.915a3.3665,3.3665,0,0,0-.999-.144c-2.4209,0-5.0532,2.22-5.0532,2.22"/></clipPath><clipPath id="b"><path class="a" d="M48.7052,69.5021l4.7217,9.915.0122.002c1.4931-2.1631,5.93-2.2193,5.93-2.2193L54.278,67.256s-4.9209.1812-5.5728,2.2461"/></clipPath><clipPath id="c"><path class="a" d="M53.4269,79.4171c-3.294-.226-5.93,2.398-5.93,2.398l.1059.69s2.941-2.6821,6.085-2.4448c2.1392-2.3882,5.6758-2.0962,5.6758-2.0962l.0054-.7642s-.0884-.0048-.2452-.0048c-.892,0-3.997.1547-5.6972,2.2221"/></clipPath></defs><title>Recurso 1</title><path class="b" d="M458.5582,33.463V20.2951h5.5977a9.5779,9.5779,0,0,1,3.0644.353,3.02,3.02,0,0,1,1.5323,1.2637,3.7932,3.7932,0,0,1,.5761,2.0761,3.516,3.516,0,0,1-.873,2.4458,4.1772,4.1772,0,0,1-2.6045,1.2183,6.1205,6.1205,0,0,1,1.4238,1.105,15.0951,15.0951,0,0,1,1.5166,2.1357l1.6055,2.57h-3.1807l-1.9218-2.8652a18.82,18.82,0,0,0-1.3995-1.937,2.056,2.056,0,0,0-.8017-.5459,4.271,4.271,0,0,0-1.34-.1489h-.5371v5.497Zm2.6582-7.5991h1.97a10.0426,10.0426,0,0,0,2.3857-.1631,1.4359,1.4359,0,0,0,.7471-.5561,1.7054,1.7054,0,0,0,.2695-.9859,1.5832,1.5832,0,0,0-.3555-1.0747,1.62,1.62,0,0,0-1.0009-.518q-.3223-.0426-1.94-.043h-2.0762Z"/><path class="b" d="M475.3961,27.383a11.6284,11.6284,0,1,1-11.6289-11.63,11.6293,11.6293,0,0,1,11.6289,11.63m-11.6289,9.8242a9.8255,9.8255,0,1,0-9.8252-9.8242,9.8343,9.8343,0,0,0,9.8252,9.8242"/><path class="b" d="M151.2438,124.5729a10.3862,10.3862,0,0,1-4.2622.7041c-5.2378-.0371-8.396-3.3379-8.36-8.355.0391-5.4331,3.83-8.686,8.8721-8.65a9.4724,9.4724,0,0,1,4.0088.7627l-.6768,2.3921a8.0694,8.0694,0,0,0-3.227-.6592c-3.3531-.0229-5.7911,2.0645-5.8189,6.0293-.0259,3.6221,2.0879,5.961,5.708,5.9859a8.4116,8.4116,0,0,0,3.2837-.587Z"/><path class="b" d="M163.7784,109.9044a1.6892,1.6892,0,1,1-1.6757-1.6508,1.5938,1.5938,0,0,1,1.6757,1.6508m-3.3139,15.2242.0849-11.918,3.0342.022-.0849,11.9179Z"/><path class="b" d="M175.7223,120.1207c.0571,2.1573,1.7378,3.0972,3.647,3.1109a8.9517,8.9517,0,0,0,3.3081-.5147l.4248,2.0821a11.2092,11.2092,0,0,1-4.1651.707c-3.8667-.0283-6.1259-2.418-6.1-6.0649.0239-3.3052,2.0528-6.398,5.8706-6.37,3.8672.0269,5.1162,3.2168,5.0982,5.837a7.3779,7.3779,0,0,1-.1079,1.27Zm5.251-2.0659c.0322-1.102-.4439-2.916-2.4512-2.9311a2.9461,2.9461,0,0,0-2.7857,2.893Z"/><path class="b" d="M193.0929,116.99c.0088-1.3682-.0068-2.5191-.0718-3.5479l2.6416.0181.1362,1.7891h.0718a4.2987,4.2987,0,0,1,3.8072-2.0293c2.08.0161,4.2251,1.3759,4.1967,5.145l-.05,7.0718-3.01-.02.0488-6.7324c.0122-1.7119-.6162-3.0117-2.2549-3.0239a2.5239,2.5239,0,0,0-2.3613,1.7451,3.0825,3.0825,0,0,0-.1309.978l-.05,6.9981-3.0351-.022Z"/><path class="b" d="M222.6193,125.2057a8.7369,8.7369,0,0,1-3.3819.5879c-3.7192-.0278-6.125-2.4189-6.0991-6.1147.0249-3.5733,2.4922-6.3443,6.6792-6.314a7.4968,7.4968,0,0,1,2.9067.583l-.5527,2.248a5.3039,5.3039,0,0,0-2.2734-.4834,3.8605,3.8605,0,0,0-.0547,7.709,5.898,5.898,0,0,0,2.376-.4458Z"/><path class="b" d="M235.0074,110.4127a1.5936,1.5936,0,0,1-1.7236,1.6031,1.5775,1.5775,0,0,1-1.6514-1.626,1.6882,1.6882,0,0,1,3.375.0229m-3.3154,15.2242.085-11.918,3.0351.02-.0849,11.92Z"/><path class="b" d="M251.49,125.778l-.1856-1.3223-.0732-.0019a4.4169,4.4169,0,0,1-3.5352,1.5649,3.5366,3.5366,0,0,1-3.7207-3.5728c.02-3.01,2.7012-4.51,7.1045-4.4531l.002-.1948c.0058-.7852-.3028-2.085-2.4073-2.1a6.3249,6.3249,0,0,0-3.2129.86l-.5712-1.961a8.5556,8.5556,0,0,1,4.3134-1.0239c3.8164.0278,4.9034,2.46,4.8838,5.0518l-.0312,4.3081a19.0676,19.0676,0,0,0,.1513,2.8642Zm-.3487-5.8272c-2.1279-.063-4.1631.3863-4.1767,2.1958a1.5816,1.5816,0,0,0,1.7011,1.7271,2.44,2.44,0,0,0,2.3614-1.6226,2.1874,2.1874,0,0,0,.1025-.66Z"/><path class="b" d="M277.9264,114.048l2.11,6.4028c.2373.7364.4776,1.6421.6436,2.3291l.0732.001c.1993-.6851.4258-1.563.6514-2.3447l1.9063-6.35,3.2324.0229-3.0449,8.1031c-1.6709,4.4428-2.7872,6.4179-4.2149,7.6308a6.04,6.04,0,0,1-3.1689,1.5181l-.666-2.5479a5.1549,5.1549,0,0,0,1.7666-.8213,5.2388,5.2388,0,0,0,1.6552-1.8715,1.2238,1.2238,0,0,0,.1983-.5352,1.28,1.28,0,0,0-.167-.5908l-4.2783-10.97Z"/><polygon class="b" points="307.177 109.68 310.187 109.701 310.089 123.675 316.866 123.722 316.846 126.244 307.059 126.175 307.177 109.68"/><path class="b" d="M329.1656,111.0846a1.6892,1.6892,0,1,1-1.6757-1.6518,1.5938,1.5938,0,0,1,1.6757,1.6518m-3.3144,15.2241.085-11.9179,3.0332.021-.084,11.9179Z"/><path class="b" d="M338.8434,126.4015c.0556-.8091.1133-2.1289.1221-3.3511l.1-14.0239,3.0088.022-.0488,7.0962h.0488a4.3064,4.3064,0,0,1,3.8291-1.8809c2.9131.0195,4.9776,2.459,4.9278,6.08-.0313,4.2842-2.7637,6.3911-5.4561,6.373a4.0947,4.0947,0,0,1-3.7519-2.081l-.05-.001-.1592,1.7852Zm3.1445-4.896a3.2609,3.2609,0,0,0,.0664.708,2.7759,2.7759,0,0,0,2.6543,2.125c1.8828.0132,3.0449-1.4971,3.0615-3.895.0157-2.104-.9765-3.8262-2.9824-3.8389a2.8153,2.8153,0,0,0-2.6826,2.1841,3.5575,3.5575,0,0,0-.1035.7818Z"/><path class="b" d="M362.2731,121.4518c.0576,2.1553,1.74,3.0972,3.6474,3.1108a8.9976,8.9976,0,0,0,3.3086-.5136l.4248,2.082a11.1771,11.1771,0,0,1-4.165.7061c-3.8662-.0284-6.125-2.419-6.1-6.0665.0244-3.3017,2.0537-6.3964,5.8711-6.3686,3.8672.0259,5.1172,3.2168,5.1,5.8369a7.4385,7.4385,0,0,1-.11,1.271Zm5.2519-2.0659c.0332-1.1021-.4443-2.916-2.4521-2.9312a2.946,2.946,0,0,0-2.7852,2.8931Z"/><path class="b" d="M379.6422,118.6159c.0117-1.6138-.0049-2.7662-.0693-3.8428l2.62.0181.0791,2.2778.0976.001a3.5563,3.5563,0,0,1,3.2735-2.523,3.1317,3.1317,0,0,1,.71.0781l-.02,2.8389a4.2147,4.2147,0,0,0-.88-.103,2.6518,2.6518,0,0,0-2.7081,2.2549,5.0735,5.0735,0,0,0-.1044.9321l-.045,6.165-3.0107-.02Z"/><path class="b" d="M399.2936,111.5123l-.0235,3.4009,2.8633.021-.0166,2.25-2.8633-.019-.038,5.2622c-.0088,1.4438.3759,2.2051,1.5273,2.2119a4.4265,4.4265,0,0,0,1.1768-.1382l.0322,2.3023a6.6417,6.6417,0,0,1-2.1807.2768,3.4768,3.4768,0,0,1-2.5889-.998,4.75,4.75,0,0,1-.9062-3.335l.041-5.603-1.7139-.0127.0166-2.251,1.712.0117.0195-2.6919Z"/><path class="b" d="M417.8541,126.9645l-.1865-1.3223h-.0732a4.4131,4.4131,0,0,1-3.5352,1.564,3.5354,3.5354,0,0,1-3.7178-3.5737c.0225-3.01,2.6983-4.5093,7.1035-4.4532l.001-.1958c.0059-.7841-.3027-2.083-2.4072-2.0971a6.346,6.346,0,0,0-3.2129.8569l-.5732-1.96a8.5541,8.5541,0,0,1,4.3134-1.0219c3.8194.0258,4.9053,2.458,4.8858,5.0512l-.03,4.3077a19.26,19.26,0,0,0,.1494,2.8652Zm-.35-5.8281c-2.1269-.062-4.164.3872-4.1767,2.1982a1.5809,1.5809,0,0,0,1.7,1.7271,2.4452,2.4452,0,0,0,2.3642-1.625,2.23,2.23,0,0,0,.1006-.66Z"/><path class="b" d="M441.5192,109.7584l-.1006,14.022c-.0078,1.2241.0312,2.5449.0742,3.3521l-2.6914-.0181-.11-1.8843h-.0478a4.2875,4.2875,0,0,1-3.9063,2.1231c-2.8379-.02-5.0732-2.459-5.0459-6.1289.0049-3.99,2.5157-6.3462,5.38-6.3247a3.7892,3.7892,0,0,1,3.3418,1.5918h.0488l.0489-6.7549Zm-3.084,10.4019a4.1708,4.1708,0,0,0-.0694-.7832,2.638,2.638,0,0,0-2.5791-2.148c-1.9316-.0127-3.0214,1.6924-3.0361,3.9205-.0166,2.1767,1.05,3.7749,2.9561,3.7876a2.6559,2.6559,0,0,0,2.6113-2.11,3.3406,3.3406,0,0,0,.1035-.8789Z"/><path class="b" d="M138.4747,13.9708l8.291.0591-.1709,23.98a13.5577,13.5577,0,0,0,.9078,5.8779q1.4553,3.2952,6.416,3.3291,4.9322.0345,6.436-3.2363a13.6307,13.6307,0,0,0,.9922-5.8657l.1709-23.98,8.293.06-.1719,23.9956q-.0455,6.2256-2.002,9.6811-3.6408,6.33-13.7661,6.2583-10.1308-.0725-13.708-6.4531-1.9065-3.4863-1.8579-9.71Z"/><path class="b" d="M200.2345,26.2389q2.8169,2.3628,2.78,7.7949l-.1387,19.438-7.7353-.0537.125-17.561a8.0847,8.0847,0,0,0-.5777-3.5q-1.092-2.2325-4.1933-2.2564a5.2143,5.2143,0,0,0-5.253,3.2232,11.21,11.21,0,0,0-.769,4.39l-.1109,15.627-7.5468-.0542.206-28.816,7.3081.0523-.0312,4.2119a12.7975,12.7975,0,0,1,2.7671-3.186,9.494,9.494,0,0,1,5.893-1.7061,11.0629,11.0629,0,0,1,7.2769,2.396"/><path class="b" d="M217.8834,21.2643l-7.6528-.0537.05-6.9663,7.6528.0552Zm-7.6767,3.3911,7.6518.0542-.206,28.8687-7.6519-.0537Z"/><polygon class="b" points="242.957 24.887 251.058 24.945 240.427 53.741 232.471 53.684 222.323 24.74 230.796 24.801 236.658 46.139 242.957 24.887"/><path class="b" d="M274.1471,25.694a11.7523,11.7523,0,0,1,4.958,4.3081,14.23,14.23,0,0,1,2.2588,5.9839,37.5431,37.5431,0,0,1,.206,5.7319l-21.0273-.15q.145,4.3455,2.9756,6.1118a7.6389,7.6389,0,0,0,4.1523,1.1172,5.8575,5.8575,0,0,0,5.7715-3.271l7.7061.0547a9.448,9.448,0,0,1-2.835,5.2q-3.9126,4.1822-10.8906,4.1318a15.7419,15.7419,0,0,1-10.1465-3.624q-4.377-3.5844-4.3223-11.5908.0528-7.4971,4.0577-11.4751a13.9193,13.9193,0,0,1,10.3554-3.9287,16.4516,16.4516,0,0,1,6.78,1.4m-11.3408,6.4419a7.8523,7.8523,0,0,0-2.043,4.4541l13.0049.0918a6.3064,6.3064,0,0,0-1.9785-4.5747,6.6225,6.6225,0,0,0-4.4668-1.59,5.9946,5.9946,0,0,0-4.5166,1.6192"/><path class="b" d="M301.5465,24.63c.0967.01.3154.0249.6494.044l-.0547,7.7363c-.4785-.0571-.9013-.0952-1.2705-.1182-.3711-.019-.6728-.0312-.9013-.0322q-4.5558-.033-6.14,2.9233a11.522,11.522,0,0,0-.9092,5.1329l-.1,13.7988-7.6025-.0537.2051-28.87,7.205.0532-.0341,5.0307a15.8652,15.8652,0,0,1,3.0722-3.9238,8.3054,8.3054,0,0,1,5.5225-1.7373c.1406.001.2607.0083.3574.0161"/><path class="b" d="M312.3258,45.0363a5.0362,5.0362,0,0,0,1.0186,2.8681q1.3989,1.519,5.207,1.5459a8.023,8.023,0,0,0,3.5566-.6347,2.2192,2.2192,0,0,0,.2832-3.92q-1.0575-.67-7.88-2.333-4.9131-1.254-6.9112-3.0967a6.591,6.591,0,0,1-1.9765-5.2041,8.98,8.98,0,0,1,3.1933-6.8492q3.1669-2.8527,8.875-2.811A16.2464,16.2464,0,0,1,326.5,26.8224q3.3956,2.1811,3.8633,7.4829l-7.55-.0552a4.4364,4.4364,0,0,0-.8066-2.3086q-1.2378-1.5453-4.2373-1.5673a6.1329,6.1329,0,0,0-3.5254.7431,2.2135,2.2135,0,0,0-1.0625,1.794A1.9673,1.9673,0,0,0,314.2828,34.8q1.1133.62,7.8662,2.15a14.4521,14.4521,0,0,1,6.7393,3.2519,7.2786,7.2786,0,0,1,2.1875,5.4448,8.7665,8.7665,0,0,1-3.249,6.9829q-3.2154,2.6933-9.9053,2.6446-6.82-.0483-10.0488-2.9453a9.3421,9.3421,0,0,1-3.2012-7.3472Z"/><path class="b" d="M344.567,22.1691l-7.6533-.0537.0488-6.9663,7.6543.0542Zm-7.68,3.3911,7.6563.0542-.2071,28.8667-7.6552-.0537Z"/><path class="b" d="M367.1559,26.2379a9.162,9.162,0,0,1,3.289,3.2144l.0987-13.7725,7.6553.0552-.2784,38.9858-7.3388-.0507.0293-3.9991a10.6825,10.6825,0,0,1-3.7061,3.709,10.3561,10.3561,0,0,1-5.1475,1.127,10.7253,10.7253,0,0,1-8.4873-4.1538,15.713,15.713,0,0,1-3.3828-10.5259q.0528-7.3879,3.4883-11.6035a11.0773,11.0773,0,0,1,9.1289-4.1719,9.3082,9.3082,0,0,1,4.6514,1.186m1.71,20.58a10.54,10.54,0,0,0,1.7129-6.1611q.0381-5.2947-2.622-7.5928A5.7585,5.7585,0,0,0,364.151,31.66a5.2955,5.2955,0,0,0-4.877,2.4648,11.61,11.61,0,0,0-1.5957,6.2012A11.5152,11.5152,0,0,0,359.21,46.735a5.3365,5.3365,0,0,0,4.7607,2.4321,5.5865,5.5865,0,0,0,4.8955-2.3491"/><path class="b" d="M396.34,37.2921a12.0178,12.0178,0,0,0,3.0215-.6406,2.2713,2.2713,0,0,0,1.6416-2.1323,2.5378,2.5378,0,0,0-1.23-2.461,7.92,7.92,0,0,0-3.66-.7,4.8077,4.8077,0,0,0-3.8486,1.2959,5.4456,5.4456,0,0,0-1.0928,2.6412l-7.2822-.0523a11.0343,11.0343,0,0,1,2.1689-6.208q3.0352-3.7947,10.35-3.74a18.41,18.41,0,0,1,8.4453,1.9389q3.6812,1.9065,3.6474,7.125l-.0947,13.2427q-.01,1.377.0293,3.3384a4.2031,4.2031,0,0,0,.4326,2.0166,2.7236,2.7236,0,0,0,1.11.8813l-.0069,1.1109-8.2119-.0591a8.3568,8.3568,0,0,1-.4648-1.6431c-.086-.5137-.1514-1.0967-.2012-1.7519a15.5959,15.5959,0,0,1-3.6416,2.8632,10.9972,10.9972,0,0,1-5.5537,1.3638A9.553,9.553,0,0,1,385.4,53.4362a7.9558,7.9558,0,0,1-2.5234-6.36q.0366-5.3232,4.1885-7.6777a18.5005,18.5005,0,0,1,6.6855-1.8072Zm4.5908,3.5552a8.358,8.358,0,0,1-1.47.7183,12.2339,12.2339,0,0,1-2.0293.5009l-1.7188.3057a11.3626,11.3626,0,0,0-3.4795,1.01,3.4485,3.4485,0,0,0-1.8056,3.1909,3.342,3.342,0,0,0,1.0683,2.8008,4.1325,4.1325,0,0,0,2.6436.8813,7.8863,7.8863,0,0,0,4.5693-1.3979q2.0948-1.4166,2.2-5.2Z"/><path class="b" d="M430.4606,26.69a9.1971,9.1971,0,0,1,3.2851,3.2139l.0987-13.7715,7.6543.0537L441.22,55.173l-7.3379-.0513.0284-3.999a10.6364,10.6364,0,0,1-3.7071,3.709,10.327,10.327,0,0,1-5.1435,1.1269,10.7318,10.7318,0,0,1-8.4893-4.1538,15.6969,15.6969,0,0,1-3.3789-10.5273q.0528-7.3857,3.4834-11.6016a11.08,11.08,0,0,1,9.1318-4.1723,9.3316,9.3316,0,0,1,4.6534,1.186m1.705,20.5791a10.5352,10.5352,0,0,0,1.7139-6.16q.0381-5.296-2.6191-7.5927a5.7774,5.7774,0,0,0-3.8047-1.4043,5.2955,5.2955,0,0,0-4.8789,2.4653,11.5907,11.5907,0,0,0-1.5947,6.2007,11.5081,11.5081,0,0,0,1.5293,6.4092,5.335,5.335,0,0,0,4.7617,2.4321,5.5831,5.5831,0,0,0,4.8925-2.35"/><path class="b" d="M156.0143,72.0285a9.61,9.61,0,0,1,3.4409,3.3628l.103-14.4058,8.0083.0566-.291,40.7823-7.6772-.0552.0312-4.1817a11.1409,11.1409,0,0,1-3.8779,3.878,10.88,10.88,0,0,1-5.3862,1.1831A11.2116,11.2116,0,0,1,141.49,98.3a16.4084,16.4084,0,0,1-3.5381-11.0083q.0542-7.7294,3.645-12.1377a11.594,11.594,0,0,1,9.5513-4.3653,9.7429,9.7429,0,0,1,4.8657,1.24M157.8,93.5553a11.0055,11.0055,0,0,0,1.793-6.4419q.0388-5.543-2.7422-7.9443a6.0177,6.0177,0,0,0-3.98-1.4678,5.5441,5.5441,0,0,0-5.103,2.58,12.1339,12.1339,0,0,0-1.667,6.4829,12.0137,12.0137,0,0,0,1.6011,6.707,5.5752,5.5752,0,0,0,4.9819,2.542,5.829,5.829,0,0,0,5.1162-2.458"/><path class="b" d="M194.3414,72.4289a12.2791,12.2791,0,0,1,5.1861,4.5039,14.8414,14.8414,0,0,1,2.3632,6.2607,39.0831,39.0831,0,0,1,.2159,5.9971l-21.9952-.1582q.1517,4.5483,3.1133,6.3955a8.013,8.013,0,0,0,4.3448,1.1679,6.1366,6.1366,0,0,0,6.0351-3.4213l8.063.0581a9.8956,9.8956,0,0,1-2.9668,5.436q-4.0935,4.374-11.3931,4.3252a16.4773,16.4773,0,0,1-10.6113-3.793q-4.5836-3.747-4.5229-12.122.057-7.8465,4.2441-12.0054a14.5647,14.5647,0,0,1,10.8311-4.1109,17.1689,17.1689,0,0,1,7.0927,1.4664M182.48,79.1666a8.1743,8.1743,0,0,0-2.1372,4.6578l13.604.0971a6.602,6.602,0,0,0-2.07-4.7871,6.915,6.915,0,0,0-4.6729-1.66,6.2489,6.2489,0,0,0-4.7241,1.6919"/><path class="b" d="M249.236,61.568l12.2783.0869-.292,40.84-7.95-.0581.1973-27.6221q.0087-1.1924.0527-3.3369.0409-2.1468.0478-3.312l-7.98,34.2168-8.2969-.06-7.4375-34.3267q-.0094,1.1654.0039,3.312.0117,2.1476.002,3.3389l-.1958,27.6221-7.9522-.0562.291-40.8379,12.4175.087,7.207,32.1669Z"/><path class="b" d="M288.3737,73.1007a12.2758,12.2758,0,0,1,5.1865,4.503,14.8331,14.8331,0,0,1,2.3623,6.2607,38.9379,38.9379,0,0,1,.2168,5.9971l-21.9942-.1573q.1451,4.5455,3.1123,6.3946a7.9915,7.9915,0,0,0,4.3438,1.167,6.1308,6.1308,0,0,0,6.0352-3.42l8.0625.0571a9.8545,9.8545,0,0,1-2.9678,5.436q-4.0884,4.377-11.3916,4.3262a16.4718,16.4718,0,0,1-10.6094-3.793q-4.5879-3.747-4.5244-12.123.0572-7.845,4.2441-12.0044a14.5693,14.5693,0,0,1,10.8321-4.1109,17.1847,17.1847,0,0,1,7.0918,1.4673m-11.8623,6.7368a8.178,8.178,0,0,0-2.1348,4.6578l13.6.0971a6.56,6.56,0,0,0-2.0693-4.7856,6.9025,6.9025,0,0,0-4.6709-1.6621,6.2515,6.2515,0,0,0-4.7246,1.6928"/><path class="b" d="M316.2672,73.1725a9.6052,9.6052,0,0,1,3.44,3.3618l.1025-14.4057,8.0078.0571-.29,40.7817-7.6739-.0552.0284-4.1826a11.1377,11.1377,0,0,1-3.8789,3.8789,10.8536,10.8536,0,0,1-5.3858,1.1831,11.2247,11.2247,0,0,1-8.8769-4.3471,16.4327,16.4327,0,0,1-3.5391-11.01q.0571-7.73,3.6494-12.1382a11.59,11.59,0,0,1,9.5508-4.3652,9.7415,9.7415,0,0,1,4.8662,1.2412m1.7861,21.5269a11.0206,11.0206,0,0,0,1.79-6.4429q.0395-5.5422-2.74-7.9429a6.0133,6.0133,0,0,0-3.9785-1.4692,5.5483,5.5483,0,0,0-5.1045,2.58,12.1471,12.1471,0,0,0-1.6679,6.4848,12.0279,12.0279,0,0,0,1.6015,6.7051,5.574,5.574,0,0,0,4.9834,2.542,5.8287,5.8287,0,0,0,5.1162-2.457"/><path class="b" d="M354.5953,73.5724a12.3286,12.3286,0,0,1,5.1885,4.5029,14.8393,14.8393,0,0,1,2.3584,6.2608,38.7928,38.7928,0,0,1,.2139,5.998l-21.9922-.1567q.1479,4.5447,3.1113,6.394a8.0138,8.0138,0,0,0,4.3438,1.167,6.15,6.15,0,0,0,6.039-3.42l8.06.0566a9.854,9.854,0,0,1-2.9648,5.4361q-4.0914,4.3755-11.3916,4.3261a16.475,16.475,0,0,1-10.6123-3.7929q-4.5879-3.7471-4.5245-12.124.0557-7.8435,4.2461-12.0044a14.5718,14.5718,0,0,1,10.8311-4.11,17.2059,17.2059,0,0,1,7.0937,1.4663M342.7321,80.31a8.1775,8.1775,0,0,0-2.1368,4.6582l13.6016.0967a6.58,6.58,0,0,0-2.0674-4.7857,6.9093,6.9093,0,0,0-4.6728-1.6621,6.25,6.25,0,0,0-4.7246,1.6929"/><rect class="b" x="350.0992" y="78.908" width="40.8409" height="7.8937" transform="translate(285.0758 452.7861) rotate(-89.5993)"/><rect class="b" x="365.8658" y="79.0188" width="40.8404" height="7.8972" transform="translate(300.5227 468.6423) rotate(-89.585)"/><path class="b" d="M411.8092,61.0109l-8.4844,8.2236-5.707-.04,5.3809-8.2466ZM398.1158,73.2687l8.0079.0571-.2159,30.2027-8.0068-.0577Z"/><path class="b" d="M438.1129,75.2868q2.9487,2.4733,2.9063,8.1528l-.1455,20.3393-8.0889-.0581.1318-18.3711a8.4055,8.4055,0,0,0-.6064-3.6611q-1.1412-2.3349-4.3858-2.36a5.4517,5.4517,0,0,0-5.4961,3.371,11.7227,11.7227,0,0,0-.8056,4.5918l-.1172,16.3472-7.8965-.0561.2158-30.1441,7.6485.0562-.03,4.4028a13.339,13.339,0,0,1,2.8945-3.333,9.9439,9.9439,0,0,1,6.1641-1.7827,11.5762,11.5762,0,0,1,7.6113,2.5049"/><path class="c" d="M61.1774,124.69c33.8642.2422,61.73-27.5938,61.9751-61.8818C123.3976,28.4289,95.9313.2414,62.0675.0016,28.1124-.2425.2472,27.55.0016,61.9289-.2426,96.2155,27.2223,124.4464,61.1774,124.69"/><path class="d" d="M61.1974,121.8488c32.332.23,58.9258-26.31,59.16-59.062C120.5914,29.9918,94.3785,3.07,62.0465,2.84,29.6246,2.6076,3.0284,29.152,2.7946,61.9489c-.2344,32.7509,25.98,59.67,58.4028,59.9"/><path class="e" d="M61.2106,103.9962l.292-40.896-28.8-.206c5.0107,16.3208,15.6367,32.001,28.5078,41.102"/><path class="f" d="M61.23,101.2721c-9.6431-6.562-20.9492-21.57-26.33-38.36l26.6021.19Z"/><path class="g" d="M30.5153,51.8439C23.2594,55.6652,21.24,67.275,15.1461,69.9059c2.3941,2.9468,4.5654,6.3188,7.0054,9.2671,6.6128-2.8052,7.6406-9.4409,11.8218-12.7988a59.9473,59.9473,0,0,1-3.458-14.53"/><path d="M22.109,79.3458l-.0679-.082c-1.2739-1.5381-2.4912-3.2163-3.6689-4.8384-1.0781-1.4848-2.1919-3.02-3.3369-4.4287l-.1192-.147.1739-.0751c2.93-1.2652,4.9179-4.6612,7.0229-8.2549,2.2534-3.8482,4.583-7.8262,8.335-9.8033l.1924-.1.018.2153a58.8953,58.8953,0,0,0,3.45,14.4941l.0342.0957-.08.064a19.5867,19.5867,0,0,0-3.9829,5.0371c-1.8823,2.9829-3.8291,6.0669-7.8711,7.7822Zm-6.7339-9.3852c1.1079,1.375,2.1861,2.8589,3.229,4.2969,1.1538,1.5893,2.3462,3.2319,3.5889,4.7412,3.895-1.688,5.8-4.7071,7.6431-7.628a20.1,20.1,0,0,1,3.9682-5.0439,59.5473,59.5473,0,0,1-3.4131-14.2534c-3.5693,1.9722-5.8369,5.8442-8.0312,9.59-2.0889,3.5679-4.064,6.9409-6.9849,8.2969"/><path class="h" d="M22.1515,79.1725c6.4619-2.57,8.3481-10.5161,11.8208-12.7988.8232,2.206,1.4912,3.73,2.3623,5.935-3.84,3.1158-4.8252,8.92-10.7642,11.1846-1.1377-1.5278-3.4189-4.3208-3.4189-4.3208"/><path d="M25.52,83.6662l-.0644-.087c-1.1226-1.5083-3.3926-4.288-3.4146-4.3164l-.124-.1518.1817-.0718c3.8779-1.542,6.0781-5.0229,8.018-8.0942,1.28-2.0259,2.3862-3.7759,3.7769-4.691l.15-.0991.063.168c.5117,1.3721.9638,2.481,1.4418,3.6543.29.7119.59,1.4468.919,2.2788l.0381.0981-.0811.066a18.5727,18.5727,0,0,0-3.61,4.4482c-1.729,2.6338-3.5171,5.3569-7.1934,6.7588Zm-3.1352-4.4341C22.8639,79.82,24.63,82,25.62,83.32c3.522-1.38,5.2671-4.0376,6.9561-6.6089a19.1542,19.1542,0,0,1,3.5859-4.4468c-.3129-.791-.6-1.4961-.8789-2.1782-.4589-1.127-.893-2.1929-1.38-3.4912a16.2261,16.2261,0,0,0-3.544,4.5034c-1.9341,3.061-4.1221,6.5229-7.9741,8.1338"/><path class="i" d="M25.3024,87.8126a4.6718,4.6718,0,0,1,2.4248-1.5068c1.1274,2.0356-.188,2.3467-.6548,2.5356-.47.2051-1.353-.3408-1.77-1.0288"/><path class="i" d="M27.7277,86.3053c-1.794.479-3.0972,1.7769-2.95,3.1421-1.7637-1.6919-3.7437-3.104-5.4546-4.8462A11.2436,11.2436,0,0,1,23.48,80.8483c1.398,1.8452,3.937,4.793,4.2481,5.457"/><path d="M24.7775,89.59a.1429.1429,0,0,1-.0992-.0391c-.7968-.7641-1.6528-1.4839-2.4809-2.18-1.002-.8418-2.0381-1.712-2.9771-2.668a.1437.1437,0,0,1-.0141-.1836,11.3084,11.3084,0,0,1,4.2163-3.8023.1477.1477,0,0,1,.1719.045c.5532.73,1.2832,1.6313,1.9892,2.5009a29.401,29.401,0,0,1,2.2739,2.982.1435.1435,0,0,1-.0932.1992c-1.7827.4771-2.979,1.7329-2.8438,2.9883a.145.145,0,0,1-.08.1435.1351.1351,0,0,1-.063.0142M19.51,84.5875c.9072.9131,1.9048,1.751,2.8711,2.563.7461.627,1.5151,1.274,2.2461,1.9571a3.6732,3.6732,0,0,1,2.8867-2.8912c-.3081-.496-1.208-1.6059-2.1538-2.7729-.6783-.8369-1.3789-1.7012-1.9253-2.418a11.0823,11.0823,0,0,0-3.9248,3.562"/><path class="h" d="M23.4855,80.86c-1.4541-1.895-2.96-3.7388-4.4092-5.6338a14.507,14.507,0,0,0-5.1157,4.5147c1.7119,1.6889,3.65,3.1679,5.3618,4.8613A11.5,11.5,0,0,1,23.4855,80.86"/><path d="M19.3507,84.83l-.1279-.1269c-.857-.8457-1.7871-1.6538-2.6861-2.4351-.896-.7768-1.8212-1.581-2.6772-2.4248l-.0869-.0859.07-.0992a14.6967,14.6967,0,0,1,5.1694-4.56l.106-.0542.0718.0952c.7461.9751,1.52,1.9531,2.269,2.8989.7051.8921,1.4351,1.815,2.1411,2.7344l.0987.13-.1407.082a11.2641,11.2641,0,0,0-4.1132,3.6919Zm-5.2031-5.1059c.8252.8071,1.7148,1.58,2.5762,2.3281.8588.7451,1.7446,1.5151,2.5717,2.3218a11.6044,11.6044,0,0,1,3.9771-3.5557c-.6729-.875-1.3672-1.752-2.04-2.6021-.7241-.916-1.4731-1.8632-2.1967-2.8081a14.4168,14.4168,0,0,0-4.8882,4.316"/><path class="g" d="M12.33,66.2194c-3.1518,1.1811-5.3682,2.998-6.332,5.9741,2.6538,2.4819,5.311,5.0137,7.9619,7.5469a12.97,12.97,0,0,1,5.1172-4.5152s-4.4649-6.0068-6.7471-9.0058"/><path d="M13.9821,79.9606l-.1211-.1162C11.4464,77.5363,8.64,74.86,5.9,72.2975l-.0669-.062L5.861,72.15c.92-2.8409,2.96-4.7691,6.4184-6.064l.1-.0381.064.085c2.2573,2.9653,6.7031,8.9482,6.748,9.0083l.105.1406-.16.0742a12.7841,12.7841,0,0,0-5.0582,4.4668Zm-7.82-7.8091c2.6748,2.501,5.4082,5.1069,7.7759,7.3711a13.06,13.06,0,0,1,4.919-4.3511c-.6788-.9131-4.4991-6.0478-6.5767-8.78-3.2754,1.2491-5.2222,3.0821-6.1182,5.76"/><path class="i" d="M36.3341,72.3087c-3.9722,3.4019-5.0019,8.9522-10.7642,11.1851a17.1861,17.1861,0,0,1,2.3853,3.2617c.4619,1.0493.167,2.0254-1.144,2.1182A2.4594,2.4594,0,0,1,25.2931,87.82a2.244,2.244,0,0,0-.5161,1.6269c4.769.3452,10.21-5.0478,14.2412-11.7217-.93-1.7358-1.8091-3.6259-2.6841-5.416"/><path d="M25.2081,89.6051q-.2219,0-.4409-.0151l-.13-.01-.0029-.13a2.374,2.374,0,0,1,.5479-1.72l.1132-.143.1119.145a2.33,2.33,0,0,0,1.4052.998,1.273,1.273,0,0,0,1.06-.5307,1.5141,1.5141,0,0,0-.0493-1.3863,10.4588,10.4588,0,0,0-1.65-2.36c-.2388-.2852-.481-.5733-.7149-.8711l-.12-.1519.1812-.0708c3.4917-1.3535,5.2578-3.9892,6.9658-6.539a21.7591,21.7591,0,0,1,3.7558-4.62l.14-.1211.082.167c.228.4668.457.9419.688,1.42.6431,1.333,1.3081,2.7109,1.9941,3.99l.0381.0727-.042.0689c-4.4931,7.44-9.664,11.8071-13.9331,11.8071m-.2881-.2929c4.1929.2089,9.398-4.11,13.9331-11.5918-.6743-1.2642-1.3281-2.6192-1.96-3.93-.2022-.42-.4043-.8379-.606-1.25a22.25,22.25,0,0,0-3.5644,4.44c-1.7027,2.542-3.4639,5.17-6.92,6.5752.1943.2427.393.48.5893.7139a10.7527,10.7527,0,0,1,1.6939,2.4282,1.7851,1.7851,0,0,1,.0307,1.65,1.5239,1.5239,0,0,1-1.2959.67,2.3705,2.3705,0,0,1-1.5239-.9648,2.02,2.02,0,0,0-.377,1.26"/><path class="g" d="M92.7863,52.2887c7.1992,3.9229,9.0522,15.561,15.1079,18.2788-2.4341,2.9131-4.6529,6.2534-7.1348,9.1651-6.5742-2.9-7.5059-9.5469-11.6392-12.9659a59.9819,59.9819,0,0,0,3.6661-14.478"/><path d="M100.7985,79.9069l-.0967-.043C96.6818,78.091,94.78,74.98,92.94,71.9708a19.5652,19.5652,0,0,0-3.9107-5.0937l-.0781-.0654.0347-.0948A58.9657,58.9657,0,0,0,92.6437,52.275l.021-.2163.19.104c3.7232,2.0293,5.9951,6.0391,8.1929,9.918,2.0542,3.625,3.9931,7.0493,6.9053,8.356l.1728.0771-.1221.146c-1.1606,1.39-2.2949,2.9063-3.3916,4.3731-1.2021,1.6069-2.4463,3.27-3.7441,4.7929ZM89.29,66.7218a20.1185,20.1185,0,0,1,3.895,5.1c1.8008,2.9458,3.6641,5.9917,7.5351,7.7359,1.2671-1.4942,2.4849-3.1221,3.6626-4.6968,1.0611-1.419,2.1573-2.8863,3.2823-4.2422-2.9009-1.398-4.8291-4.7988-6.8672-8.397-2.1387-3.7759-4.3506-7.68-7.8906-9.7021A59.5762,59.5762,0,0,1,89.29,66.7218"/><path class="h" d="M100.7589,79.7326C94.3341,77.0714,92.5607,69.1,89.12,66.7667c-.852,2.1949-1.5419,3.708-2.4448,5.9029,3.7949,3.1689,4.6968,8.9868,10.604,11.3349,1.1592-1.51,3.48-4.2719,3.48-4.2719"/><path d="M97.3263,84.1789l-.1-.04c-3.6558-1.4541-5.4048-4.2021-7.0967-6.86a18.5623,18.5623,0,0,0-3.5464-4.4991l-.081-.0678.04-.0972c.3394-.8228.648-1.5508.9473-2.2559.4961-1.1689.9648-2.2739,1.497-3.644l.066-.168.1489.1021c1.3769.9341,2.458,2.7,3.709,4.7441,1.8969,3.0987,4.0469,6.6109,7.9028,8.208l.1812.0738-.126.15c-.023.0283-2.332,2.7773-3.4761,4.268ZM86.8473,72.6276a19.09,19.09,0,0,1,3.5239,4.4971c1.6509,2.5952,3.3579,5.2768,6.86,6.707,1.0093-1.3071,2.8061-3.461,3.2944-4.043-3.83-1.664-5.9692-5.1592-7.8594-8.2461a16.2378,16.2378,0,0,0-3.479-4.5532c-.5068,1.2954-.958,2.3594-1.4336,3.4824-.2871.6748-.583,1.3716-.9062,2.1558"/><path class="i" d="M97.4845,88.3278a4.6743,4.6743,0,0,0-2.4028-1.542c-1.1573,2.02.1538,2.35.6186,2.5449.4673.2109,1.3594-.3218,1.7842-1.0029"/><path class="i" d="M95.0812,86.7858c1.7871.5049,3.0708,1.8208,2.9038,3.1831,1.789-1.665,3.789-3.0513,5.5254-4.7661a11.2408,11.2408,0,0,0-4.104-3.813c-1.4234,1.8262-4.0064,4.7383-4.3252,5.396"/><path d="M97.9855,90.1124a.1354.1354,0,0,1-.065-.0161.1422.1422,0,0,1-.0771-.145c.1533-1.2519-1.0249-2.5259-2.8008-3.0278a.1415.1415,0,0,1-.0923-.0791.1455.1455,0,0,1,.002-.1211,28.7906,28.7906,0,0,1,2.3071-2.938c.7222-.8643,1.4683-1.7578,2.0342-2.4829a.1377.1377,0,0,1,.1719-.043,11.2872,11.2872,0,0,1,4.1621,3.8609.1431.1431,0,0,1-.0171.184c-.9541.9429-2.003,1.8-3.0181,2.628-.8369.6841-1.7031,1.39-2.5088,2.1421a.1466.1466,0,0,1-.0981.038M95.2955,86.7A3.67,3.67,0,0,1,98.14,89.6315c.7392-.6714,1.517-1.3052,2.2714-1.9214.9776-.7988,1.9888-1.624,2.9107-2.5249a11.0767,11.0767,0,0,0-3.874-3.6167c-.5591.7119-1.2749,1.57-1.9678,2.4009C96.5216,85.1183,95.61,86.21,95.2955,86.7"/><path class="h" d="M99.4015,81.4015c1.4809-1.874,3.0122-3.6958,4.4878-5.5708a14.5156,14.5156,0,0,1,5.0522,4.5879c-1.7392,1.665-3.6948,3.1157-5.4321,4.7837a11.5152,11.5152,0,0,0-4.1079-3.8008"/><path d="M103.4781,85.43l-.0917-.1548a11.2593,11.2593,0,0,0-4.0591-3.7509l-.1387-.084.1006-.128c.7173-.9072,1.458-1.8173,2.1743-2.6982.7627-.937,1.5518-1.9058,2.313-2.8721l.0737-.0937.105.0547a14.6836,14.6836,0,0,1,5.104,4.6342l.0693.1011-.0883.084c-.8677.8311-1.8047,1.6221-2.71,2.3857-.9106.7681-1.8521,1.563-2.7207,2.397Zm-3.8637-4.0669a11.5877,11.5877,0,0,1,3.9248,3.6123c.84-.7954,1.7373-1.5522,2.6059-2.2861.8711-.7363,1.7715-1.4951,2.6084-2.29a14.429,14.429,0,0,0-4.8261-4.3863c-.7388.937-1.502,1.875-2.2412,2.7832-.6827.8379-1.3868,1.7032-2.0718,2.5669"/><path class="g" d="M110.7638,66.921c3.1352,1.2281,5.3252,3.0743,6.2461,6.065-2.689,2.4429-5.3823,4.937-8.0689,7.4331a12.9394,12.9394,0,0,0-5.0522-4.5879s4.5508-5.9443,6.875-8.91"/><path d="M108.9156,80.6378l-.0942-.1386a12.77,12.77,0,0,0-4.9941-4.5391l-.1587-.0771.1069-.1392c.0449-.06,4.5781-5.978,6.876-8.9107l.0649-.0839.1.0385c3.44,1.3472,5.4522,3.3033,6.33,6.1573l.0259.0859-.0669.061c-2.7539,2.503-5.4961,5.044-8.0669,7.4322ZM104.11,75.7789a13.0754,13.0754,0,0,1,4.856,4.4209c2.5161-2.3359,5.19-4.8139,7.88-7.2578-.8559-2.6889-2.7778-4.5512-6.0346-5.8491-2.1162,2.7041-6.01,7.7832-6.7012,8.686"/><path class="j" d="M86.6749,72.67c3.9229,3.457,4.875,9.02,10.604,11.3349a17.1267,17.1267,0,0,0-2.4311,3.2281c-.4771,1.0429-.1958,2.0229,1.1133,2.1352a2.4563,2.4563,0,0,0,1.5317-1.0332,2.2388,2.2388,0,0,1,.4932,1.6338c-4.772.2793-10.1372-5.1938-14.0723-11.9248.9531-1.7212,1.8613-3.5991,2.7612-5.374"/><path d="M97.64,90.1222c-4.2862.001-9.4322-4.45-13.85-12.0068l-.0411-.07.0391-.0708c.7041-1.2691,1.3892-2.6392,2.0518-3.9629.2373-.4722.4721-.9429.707-1.4073l.084-.165.1382.1231a21.7552,21.7552,0,0,1,3.69,4.6733c1.6719,2.5727,3.4,5.2329,6.8731,6.6367l.18.0733-.122.15c-.2383.2939-.483.5766-.7251.8579a10.45,10.45,0,0,0-1.6871,2.3388,1.5131,1.5131,0,0,0-.0668,1.3872,1.2773,1.2773,0,0,0,1.062.5459h.0029a2.3513,2.3513,0,0,0,1.4038-.979l.1143-.143.1118.144a2.3636,2.3636,0,0,1,.5219,1.7271l-.0039.13-.13.0083c-.1182.0069-.2359.01-.354.01M84.0792,78.0412c4.4282,7.5488,9.5752,11.934,13.7661,11.791a2.0161,2.0161,0,0,0-.3593-1.2652,2.3761,2.3761,0,0,1-1.5186.9434h-.0083a1.5273,1.5273,0,0,1-1.2959-.687,1.7846,1.7846,0,0,1,.0552-1.65,10.6486,10.6486,0,0,1,1.73-2.4067c.1987-.231.4008-.4639.5976-.7032-3.437-1.4536-5.16-4.1059-6.8266-6.6718a22.2156,22.2156,0,0,0-3.501-4.49c-.2061.4087-.4141.8228-.6221,1.2388-.6523,1.3017-1.3252,2.6469-2.0171,3.9009"/><polygon class="k" points="42.653 71.578 42.648 72.311 47.603 82.505 47.498 81.816 42.653 71.578"/><g class="l"><polygon class="m" points="44.174 68.691 44.081 81.815 42.653 81.815 42.653 68.691 44.174 68.691"/><polygon class="m" points="44.362 68.691 44.269 81.815 44.081 81.815 44.175 68.691 44.362 68.691"/><polygon class="n" points="44.55 68.691 44.457 81.815 44.269 81.815 44.362 68.691 44.55 68.691"/><polygon class="o" points="44.737 68.691 44.644 81.815 44.456 81.815 44.55 68.691 44.737 68.691"/><polygon class="p" points="44.925 68.691 44.832 81.815 44.644 81.815 44.738 68.691 44.925 68.691"/><polygon class="q" points="45.112 68.691 45.019 81.815 44.831 81.815 44.925 68.691 45.112 68.691"/><polygon class="r" points="45.3 68.691 45.208 81.815 45.019 81.815 45.112 68.691 45.3 68.691"/><polygon class="s" points="45.488 68.691 45.395 81.815 45.207 81.815 45.301 68.691 45.488 68.691"/><polygon class="t" points="45.675 68.691 45.583 81.815 45.394 81.815 45.488 68.691 45.675 68.691"/><polygon class="u" points="45.863 68.691 45.771 81.815 45.583 81.815 45.675 68.691 45.863 68.691"/><polygon class="v" points="46.051 68.691 45.958 81.815 45.77 81.815 45.864 68.691 46.051 68.691"/><polygon class="w" points="46.238 68.691 46.146 81.815 45.958 81.815 46.051 68.691 46.238 68.691"/><polygon class="x" points="46.426 68.691 46.333 81.815 46.145 81.815 46.239 68.691 46.426 68.691"/><polygon class="y" points="46.614 68.691 46.521 81.815 46.333 81.815 46.426 68.691 46.614 68.691"/><polygon class="z" points="46.801 68.691 46.709 81.815 46.521 81.815 46.614 68.691 46.801 68.691"/><polygon class="aa" points="46.989 68.691 46.896 81.815 46.708 81.815 46.802 68.691 46.989 68.691"/><polygon class="ab" points="47.177 68.691 47.084 81.815 46.896 81.815 46.989 68.691 47.177 68.691"/><polygon class="ac" points="47.364 68.691 47.272 81.815 47.084 81.815 47.177 68.691 47.364 68.691"/><polygon class="ad" points="47.552 68.691 47.459 81.815 47.271 81.815 47.365 68.691 47.552 68.691"/><polygon class="ae" points="47.739 68.691 47.647 81.815 47.459 81.815 47.552 68.691 47.739 68.691"/><polygon class="af" points="47.927 68.691 47.835 81.815 47.647 81.815 47.739 68.691 47.927 68.691"/><polygon class="ag" points="48.115 68.691 48.022 81.815 47.834 81.815 47.928 68.691 48.115 68.691"/><polygon class="ah" points="48.302 68.691 48.21 81.815 48.022 81.815 48.115 68.691 48.302 68.691"/><polygon class="ai" points="48.49 68.691 48.397 81.815 48.209 81.815 48.303 68.691 48.49 68.691"/><polygon class="aj" points="48.678 68.691 48.585 81.815 48.397 81.815 48.49 68.691 48.678 68.691"/><polygon class="ak" points="48.865 68.691 48.773 81.815 48.585 81.815 48.678 68.691 48.865 68.691"/><polygon class="al" points="49.053 68.691 48.96 81.815 48.772 81.815 48.866 68.691 49.053 68.691"/><polygon class="am" points="49.241 68.691 49.148 81.815 48.96 81.815 49.053 68.691 49.241 68.691"/><polygon class="an" points="49.428 68.691 49.335 81.815 49.147 81.815 49.241 68.691 49.428 68.691"/><polygon class="ao" points="49.616 68.691 49.523 81.815 49.335 81.815 49.429 68.691 49.616 68.691"/><polygon class="ap" points="49.803 68.691 49.71 81.815 49.522 81.815 49.616 68.691 49.803 68.691"/><polygon class="aq" points="49.991 68.691 49.898 81.815 49.71 81.815 49.803 68.691 49.991 68.691"/><polygon class="aq" points="50.098 68.691 50.006 81.815 49.898 81.815 49.991 68.691 50.098 68.691"/><polygon class="ar" points="50.206 68.691 50.113 81.815 50.005 81.815 50.099 68.691 50.206 68.691"/><polygon class="as" points="50.313 68.691 50.219 81.815 50.112 81.815 50.206 68.691 50.313 68.691"/><polygon class="at" points="50.42 68.691 50.327 81.815 50.22 81.815 50.313 68.691 50.42 68.691"/><polygon class="au" points="50.528 68.691 50.435 81.815 50.326 81.815 50.421 68.691 50.528 68.691"/><polygon class="av" points="50.634 68.691 50.542 81.815 50.434 81.815 50.528 68.691 50.634 68.691"/><polygon class="aw" points="50.742 68.691 50.649 81.815 50.541 81.815 50.635 68.691 50.742 68.691"/><polygon class="ax" points="50.849 68.691 50.756 81.815 50.649 81.815 50.742 68.691 50.849 68.691"/><polygon class="ay" points="50.956 68.691 50.863 81.815 50.756 81.815 50.849 68.691 50.956 68.691"/><polygon class="az" points="51.064 68.691 50.971 81.815 50.862 81.815 50.957 68.691 51.064 68.691"/><polygon class="ba" points="51.171 68.691 51.077 81.815 50.97 81.815 51.064 68.691 51.171 68.691"/><polygon class="bb" points="51.278 68.691 51.185 81.815 51.077 81.815 51.171 68.691 51.278 68.691"/><polygon class="bc" points="51.385 68.691 51.292 81.815 51.185 81.815 51.278 68.691 51.385 68.691"/><polygon class="bd" points="51.492 68.691 51.4 81.815 51.291 81.815 51.385 68.691 51.492 68.691"/><polygon class="be" points="51.599 68.691 51.506 81.815 51.399 81.815 51.492 68.691 51.599 68.691"/><polygon class="bf" points="51.707 68.691 51.614 81.815 51.507 81.815 51.6 68.691 51.707 68.691"/><polygon class="bg" points="51.814 68.691 51.721 81.815 51.613 81.815 51.707 68.691 51.814 68.691"/><polygon class="bh" points="51.921 68.691 51.828 81.815 51.721 81.815 51.814 68.691 51.921 68.691"/><polygon class="bi" points="52.028 68.691 51.935 81.815 51.827 81.815 51.922 68.691 52.028 68.691"/><polygon class="bj" points="52.135 68.691 52.043 81.815 51.935 81.815 52.028 68.691 52.135 68.691"/><polygon class="bk" points="52.243 68.691 52.15 81.815 52.043 81.815 52.136 68.691 52.243 68.691"/><polygon class="bl" points="52.35 68.691 52.257 81.815 52.149 81.815 52.243 68.691 52.35 68.691"/><polygon class="bm" points="52.457 68.691 52.364 81.815 52.257 81.815 52.35 68.691 52.457 68.691"/><polygon class="bn" points="52.565 68.691 52.472 81.815 52.363 81.815 52.458 68.691 52.565 68.691"/><polygon class="bn" points="52.588 68.691 52.494 81.815 52.471 81.815 52.565 68.691 52.588 68.691"/><polygon class="bo" points="52.61 68.691 52.517 81.815 52.494 81.815 52.588 68.691 52.61 68.691"/><polygon class="bp" points="52.633 68.691 52.54 81.815 52.517 81.815 52.61 68.691 52.633 68.691"/><polygon class="bq" points="52.656 68.691 52.563 81.815 52.54 81.815 52.633 68.691 52.656 68.691"/><polygon class="br" points="52.679 68.691 52.586 81.815 52.563 81.815 52.656 68.691 52.679 68.691"/><polygon class="bs" points="52.702 68.691 52.609 81.815 52.586 81.815 52.679 68.691 52.702 68.691"/><polygon class="bt" points="52.725 68.691 52.632 81.815 52.609 81.815 52.702 68.691 52.725 68.691"/><polygon class="bu" points="52.748 68.691 52.655 81.815 52.632 81.815 52.725 68.691 52.748 68.691"/><polygon class="bv" points="52.771 68.691 52.677 81.815 52.654 81.815 52.748 68.691 52.771 68.691"/><polygon class="bw" points="52.793 68.691 52.7 81.815 52.677 81.815 52.771 68.691 52.793 68.691"/><polygon class="bx" points="52.816 68.691 52.723 81.815 52.7 81.815 52.793 68.691 52.816 68.691"/><polygon class="by" points="52.839 68.691 52.746 81.815 52.723 81.815 52.816 68.691 52.839 68.691"/><polygon class="bz" points="52.862 68.691 52.769 81.815 52.746 81.815 52.839 68.691 52.862 68.691"/><polygon class="ca" points="52.885 68.691 52.792 81.815 52.769 81.815 52.862 68.691 52.885 68.691"/><polygon class="cb" points="52.908 68.691 52.815 81.815 52.792 81.815 52.885 68.691 52.908 68.691"/><polygon class="cc" points="52.931 68.691 52.838 81.815 52.815 81.815 52.908 68.691 52.931 68.691"/><polygon class="cd" points="52.953 68.691 52.86 81.815 52.837 81.815 52.931 68.691 52.953 68.691"/><polygon class="ce" points="52.976 68.691 52.883 81.815 52.86 81.815 52.953 68.691 52.976 68.691"/><polygon class="cf" points="52.999 68.691 52.906 81.815 52.883 81.815 52.976 68.691 52.999 68.691"/><polygon class="cg" points="53.022 68.691 52.929 81.815 52.906 81.815 52.999 68.691 53.022 68.691"/><polygon class="ch" points="53.045 68.691 52.952 81.815 52.929 81.815 53.022 68.691 53.045 68.691"/><polygon class="ci" points="53.068 68.691 52.975 81.815 52.952 81.815 53.045 68.691 53.068 68.691"/><polygon class="cj" points="53.091 68.691 52.998 81.815 52.975 81.815 53.068 68.691 53.091 68.691"/><polygon class="ck" points="53.113 68.691 53.021 81.815 52.997 81.815 53.091 68.691 53.113 68.691"/><polygon class="cl" points="53.136 68.691 53.044 81.815 53.021 81.815 53.113 68.691 53.136 68.691"/><polygon class="cm" points="53.159 68.691 53.067 81.815 53.043 81.815 53.136 68.691 53.159 68.691"/><polygon class="cn" points="53.182 68.691 53.089 81.815 53.066 81.815 53.159 68.691 53.182 68.691"/><polygon class="co" points="53.205 68.691 53.112 81.815 53.089 81.815 53.182 68.691 53.205 68.691"/><polygon class="cp" points="53.228 68.691 53.135 81.815 53.112 81.815 53.205 68.691 53.228 68.691"/><polygon class="cq" points="53.251 68.691 53.158 81.815 53.135 81.815 53.228 68.691 53.251 68.691"/><polygon class="cr" points="53.274 68.691 53.181 81.815 53.158 81.815 53.251 68.691 53.274 68.691"/><polygon class="cs" points="53.297 68.691 53.204 81.815 53.18 81.815 53.275 68.691 53.297 68.691"/><polygon class="ct" points="53.32 68.691 53.227 81.815 53.204 81.815 53.297 68.691 53.32 68.691"/><polygon class="cu" points="53.342 68.691 53.25 81.815 53.226 81.815 53.32 68.691 53.342 68.691"/><polygon class="cv" points="53.365 68.691 53.273 81.815 53.25 81.815 53.342 68.691 53.365 68.691"/><polygon class="cw" points="53.388 68.691 53.296 81.815 53.272 81.815 53.365 68.691 53.388 68.691"/><polygon class="cx" points="53.411 68.691 53.319 81.815 53.296 81.815 53.388 68.691 53.411 68.691"/><polygon class="cy" points="53.426 69.748 53.341 81.815 53.319 81.815 53.411 68.691 53.426 68.691 53.426 69.748"/><polygon class="cz" points="53.426 72.971 53.364 81.816 53.341 81.816 53.426 69.748 53.426 72.971"/><polygon class="da" points="53.426 76.194 53.386 81.815 53.364 81.815 53.426 72.971 53.426 76.194"/><polygon class="db" points="53.426 79.417 53.409 81.815 53.386 81.815 53.426 76.194 53.426 79.417"/><polygon class="db" points="53.409 81.815 53.426 79.417 53.426 81.815 53.409 81.815"/></g><g class="dc"><polygon class="m" points="48.706 69.211 54.503 79.419 48.706 79.419 48.706 69.211"/><polygon class="m" points="48.706 68.974 54.638 79.419 54.503 79.419 48.706 69.211 48.706 68.974"/><polygon class="n" points="48.706 68.737 54.772 79.42 54.638 79.42 48.706 68.973 48.706 68.737"/><polygon class="o" points="48.706 68.501 54.907 79.419 54.772 79.419 48.706 68.737 48.706 68.501"/><polygon class="p" points="48.706 68.264 55.041 79.419 54.907 79.419 48.706 68.501 48.706 68.264"/><polygon class="q" points="48.706 68.027 55.176 79.419 55.041 79.419 48.706 68.264 48.706 68.027"/><polygon class="r" points="48.706 67.791 55.31 79.419 55.176 79.419 48.706 68.026 48.706 67.791"/><polygon class="s" points="48.706 67.554 55.445 79.419 55.31 79.419 48.706 67.791 48.706 67.554"/><polygon class="t" points="48.706 67.317 55.579 79.419 55.445 79.419 48.706 67.554 48.706 67.317"/><polygon class="u" points="48.806 67.256 55.713 79.42 55.579 79.42 48.706 67.317 48.706 67.256 48.806 67.256"/><polygon class="v" points="48.94 67.256 55.847 79.42 55.713 79.42 48.806 67.256 48.94 67.256"/><polygon class="w" points="49.074 67.256 55.982 79.42 55.847 79.42 48.94 67.256 49.074 67.256"/><polygon class="x" points="49.209 67.256 56.117 79.42 55.982 79.42 49.075 67.256 49.209 67.256"/><polygon class="y" points="49.343 67.256 56.251 79.42 56.116 79.42 49.209 67.256 49.343 67.256"/><polygon class="z" points="49.478 67.256 56.386 79.42 56.251 79.42 49.344 67.256 49.478 67.256"/><polygon class="aa" points="49.612 67.256 56.52 79.42 56.385 79.42 49.478 67.256 49.612 67.256"/><polygon class="ab" points="49.747 67.256 56.654 79.42 56.52 79.42 49.612 67.256 49.747 67.256"/><polygon class="ac" points="49.881 67.256 56.789 79.42 56.654 79.42 49.747 67.256 49.881 67.256"/><polygon class="ad" points="50.015 67.256 56.924 79.42 56.788 79.42 49.882 67.256 50.015 67.256"/><polygon class="ae" points="50.15 67.256 57.057 79.42 56.923 79.42 50.015 67.256 50.15 67.256"/><polygon class="af" points="50.284 67.256 57.192 79.42 57.057 79.42 50.151 67.256 50.284 67.256"/><polygon class="ag" points="50.419 67.256 57.327 79.42 57.192 79.42 50.285 67.256 50.419 67.256"/><polygon class="ah" points="50.553 67.256 57.461 79.42 57.326 79.42 50.419 67.256 50.553 67.256"/><polygon class="ai" points="50.688 67.256 57.594 79.42 57.461 79.42 50.552 67.256 50.688 67.256"/><polygon class="aj" points="50.822 67.256 57.73 79.42 57.595 79.42 50.688 67.256 50.822 67.256"/><polygon class="ak" points="50.956 67.256 57.864 79.42 57.729 79.42 50.822 67.256 50.956 67.256"/><polygon class="al" points="51.091 67.256 57.998 79.42 57.864 79.42 50.956 67.256 51.091 67.256"/><polygon class="am" points="51.225 67.256 58.133 79.42 57.998 79.42 51.091 67.256 51.225 67.256"/><polygon class="an" points="51.36 67.256 58.268 79.42 58.132 79.42 51.226 67.256 51.36 67.256"/><polygon class="ao" points="51.494 67.256 58.402 79.42 58.267 79.42 51.36 67.256 51.494 67.256"/><polygon class="ap" points="51.629 67.256 58.537 79.42 58.402 79.42 51.494 67.256 51.629 67.256"/><polygon class="aq" points="51.763 67.256 58.671 79.42 58.536 79.42 51.629 67.256 51.763 67.256"/><polygon class="aq" points="51.84 67.256 58.747 79.42 58.671 79.42 51.763 67.256 51.84 67.256"/><polygon class="ar" points="51.917 67.256 58.823 79.42 58.748 79.42 51.84 67.256 51.917 67.256"/><polygon class="as" points="51.993 67.256 58.902 79.42 58.824 79.42 51.916 67.256 51.993 67.256"/><polygon class="at" points="52.07 67.256 58.978 79.42 58.901 79.42 51.993 67.256 52.07 67.256"/><polygon class="au" points="52.147 67.256 59.054 79.42 58.978 79.42 52.07 67.256 52.147 67.256"/><polygon class="av" points="52.224 67.256 59.132 79.42 59.055 79.42 52.147 67.256 52.224 67.256"/><polygon class="aw" points="52.3 67.256 59.209 79.42 59.132 79.42 52.223 67.256 52.3 67.256"/><polygon class="ax" points="52.378 67.256 59.285 79.42 59.209 79.42 52.3 67.256 52.378 67.256"/><polygon class="ay" points="52.454 67.256 59.362 79.42 59.285 79.42 52.377 67.256 52.454 67.256"/><polygon class="az" points="52.531 67.256 59.37 79.297 59.37 79.42 59.362 79.42 52.454 67.256 52.531 67.256"/><polygon class="ba" points="52.608 67.256 59.37 79.162 59.37 79.297 52.531 67.256 52.608 67.256"/><polygon class="bb" points="52.685 67.256 59.37 79.027 59.37 79.162 52.608 67.256 52.685 67.256"/><polygon class="bc" points="52.761 67.256 59.369 78.892 59.369 79.027 52.684 67.256 52.761 67.256"/><polygon class="bd" points="52.839 67.256 59.369 78.756 59.369 78.892 52.761 67.256 52.839 67.256"/><polygon class="be" points="52.915 67.256 59.37 78.622 59.37 78.756 52.838 67.256 52.915 67.256"/><polygon class="bf" points="52.992 67.256 59.37 78.485 59.37 78.622 52.915 67.256 52.992 67.256"/><polygon class="bg" points="53.069 67.256 59.37 78.351 59.37 78.485 52.992 67.256 53.069 67.256"/><polygon class="bh" points="53.146 67.256 59.37 78.215 59.37 78.351 53.069 67.256 53.146 67.256"/><polygon class="bi" points="53.222 67.256 59.369 78.081 59.369 78.215 53.145 67.256 53.222 67.256"/><polygon class="bj" points="53.299 67.256 59.369 77.944 59.369 78.081 53.222 67.256 53.299 67.256"/><polygon class="bk" points="53.376 67.256 59.37 77.81 59.37 77.944 53.299 67.256 53.376 67.256"/><polygon class="bl" points="53.453 67.256 59.37 77.674 59.37 77.81 53.376 67.256 53.453 67.256"/><polygon class="bm" points="53.53 67.256 59.37 77.54 59.37 77.674 53.453 67.256 53.53 67.256"/><polygon class="bn" points="53.607 67.256 59.37 77.403 59.37 77.54 53.529 67.256 53.607 67.256"/><polygon class="bn" points="53.623 67.256 59.37 77.376 59.37 77.403 53.607 67.256 53.623 67.256"/><polygon class="bo" points="53.639 67.256 59.369 77.346 59.369 77.376 53.622 67.256 53.639 67.256"/><polygon class="bp" points="53.656 67.256 59.37 77.317 59.37 77.346 53.639 67.256 53.656 67.256"/><polygon class="bq" points="53.672 67.256 59.37 77.289 59.37 77.317 53.656 67.256 53.672 67.256"/><polygon class="br" points="53.689 67.256 59.37 77.259 59.37 77.289 53.672 67.256 53.689 67.256"/><polygon class="bs" points="53.705 67.256 59.37 77.232 59.37 77.259 53.689 67.256 53.705 67.256"/><polygon class="bt" points="53.721 67.256 59.369 77.202 59.369 77.232 53.704 67.256 53.721 67.256"/><polygon class="bu" points="53.737 67.256 59.369 77.173 59.369 77.202 53.721 67.256 53.737 67.256"/><polygon class="bv" points="53.754 67.256 59.37 77.145 59.37 77.173 53.737 67.256 53.754 67.256"/><polygon class="bw" points="53.771 67.256 59.37 77.115 59.37 77.145 53.754 67.256 53.771 67.256"/><polygon class="bx" points="53.787 67.256 59.37 77.087 59.37 77.115 53.771 67.256 53.787 67.256"/><polygon class="by" points="53.803 67.256 59.369 77.058 59.369 77.087 53.786 67.256 53.803 67.256"/><polygon class="bz" points="53.82 67.256 59.369 77.028 59.369 77.058 53.803 67.256 53.82 67.256"/><polygon class="ca" points="53.836 67.256 59.37 77.001 59.37 77.028 53.819 67.256 53.836 67.256"/><polygon class="cb" points="53.852 67.256 59.37 76.971 59.37 77.001 53.836 67.256 53.852 67.256"/><polygon class="cc" points="53.869 67.256 59.37 76.942 59.37 76.971 53.852 67.256 53.869 67.256"/><polygon class="cd" points="53.885 67.256 59.369 76.914 59.369 76.942 53.868 67.256 53.885 67.256"/><polygon class="ce" points="53.902 67.256 59.369 76.884 59.369 76.914 53.885 67.256 53.902 67.256"/><polygon class="cf" points="53.918 67.256 59.37 76.856 59.37 76.884 53.901 67.256 53.918 67.256"/><polygon class="cg" points="53.934 67.256 59.37 76.826 59.37 76.856 53.918 67.256 53.934 67.256"/><polygon class="ch" points="53.951 67.256 59.37 76.798 59.37 76.826 53.934 67.256 53.951 67.256"/><polygon class="ci" points="53.967 67.256 59.37 76.77 59.37 76.798 53.951 67.256 53.967 67.256"/><polygon class="cj" points="53.984 67.256 59.369 76.74 59.369 76.77 53.966 67.256 53.984 67.256"/><polygon class="ck" points="54 67.256 59.37 76.712 59.37 76.74 53.983 67.256 54 67.256"/><polygon class="cl" points="54.016 67.256 59.37 76.683 59.37 76.712 54 67.256 54.016 67.256"/><polygon class="cm" points="54.033 67.256 59.37 76.653 59.37 76.683 54.016 67.256 54.033 67.256"/><polygon class="cn" points="54.049 67.256 59.37 76.625 59.37 76.653 54.033 67.256 54.049 67.256"/><polygon class="co" points="54.066 67.256 59.369 76.595 59.369 76.625 54.049 67.256 54.066 67.256"/><polygon class="cp" points="54.082 67.256 59.37 76.567 59.37 76.595 54.066 67.256 54.082 67.256"/><polygon class="cq" points="54.098 67.256 59.369 76.539 59.369 76.567 54.081 67.256 54.098 67.256"/><polygon class="cr" points="54.115 67.256 59.37 76.509 59.37 76.539 54.098 67.256 54.115 67.256"/><polygon class="cs" points="54.131 67.256 59.37 76.481 59.37 76.509 54.115 67.256 54.131 67.256"/><polygon class="ct" points="54.148 67.256 59.37 76.451 59.37 76.481 54.131 67.256 54.148 67.256"/><polygon class="cu" points="54.164 67.256 59.37 76.422 59.37 76.451 54.148 67.256 54.164 67.256"/><polygon class="cv" points="54.18 67.256 59.369 76.394 59.369 76.422 54.163 67.256 54.18 67.256"/><polygon class="cw" points="54.197 67.256 59.37 76.364 59.37 76.394 54.18 67.256 54.197 67.256"/><polygon class="cx" points="54.213 67.256 59.37 76.337 59.37 76.364 54.197 67.256 54.213 67.256"/><polygon class="cy" points="54.23 67.256 59.37 76.308 59.37 76.337 54.213 67.256 54.23 67.256"/><polygon class="cz" points="54.246 67.256 59.37 76.278 59.37 76.308 54.23 67.256 54.246 67.256"/><polygon class="da" points="54.262 67.256 59.369 76.25 59.369 76.278 54.245 67.256 54.262 67.256"/><polygon class="db" points="54.278 67.256 59.369 76.22 59.369 76.25 54.262 67.256 54.278 67.256"/><polygon class="db" points="59.37 76.221 54.279 67.257 59.37 67.257 59.37 76.221"/></g><g class="dd"><polygon class="de" points="48.118 76.985 48.078 82.505 47.497 82.505 47.497 76.985 48.118 76.985"/><polygon class="de" points="48.281 76.985 48.242 82.505 48.078 82.505 48.118 76.985 48.281 76.985"/><polygon class="df" points="48.445 76.985 48.405 82.505 48.242 82.505 48.281 76.985 48.445 76.985"/><polygon class="dg" points="48.608 76.985 48.568 82.505 48.405 82.505 48.444 76.985 48.608 76.985"/><polygon class="dh" points="48.771 76.985 48.732 82.505 48.568 82.505 48.608 76.985 48.771 76.985"/><polygon class="di" points="48.934 76.985 48.895 82.505 48.732 82.505 48.771 76.985 48.934 76.985"/><polygon class="ap" points="49.098 76.985 49.059 82.505 48.895 82.505 48.934 76.985 49.098 76.985"/><polygon class="aq" points="49.261 76.985 49.222 82.505 49.059 82.505 49.098 76.985 49.261 76.985"/><polygon class="aq" points="49.357 76.985 49.318 82.505 49.222 82.505 49.261 76.985 49.357 76.985"/><polygon class="ar" points="49.453 76.985 49.414 82.505 49.318 82.505 49.357 76.985 49.453 76.985"/><polygon class="as" points="49.549 76.985 49.51 82.505 49.414 82.505 49.453 76.985 49.549 76.985"/><polygon class="at" points="49.646 76.985 49.607 82.505 49.51 82.505 49.549 76.985 49.646 76.985"/><polygon class="au" points="49.742 76.985 49.703 82.505 49.607 82.505 49.646 76.985 49.742 76.985"/><polygon class="dj" points="49.838 76.985 49.799 82.505 49.703 82.505 49.742 76.985 49.838 76.985"/><polygon class="dk" points="49.934 76.985 49.895 82.505 49.799 82.505 49.838 76.985 49.934 76.985"/><polygon class="dl" points="50.03 76.985 49.991 82.505 49.896 82.505 49.934 76.985 50.03 76.985"/><polygon class="dm" points="50.127 76.985 50.088 82.505 49.992 82.505 50.03 76.985 50.127 76.985"/><polygon class="dn" points="50.223 76.985 50.184 82.505 50.088 82.505 50.127 76.985 50.223 76.985"/><polygon class="do" points="50.319 76.985 50.28 82.505 50.184 82.505 50.223 76.985 50.319 76.985"/><polygon class="dp" points="50.415 76.985 50.376 82.505 50.28 82.505 50.319 76.985 50.415 76.985"/><polygon class="dq" points="50.511 76.985 50.472 82.505 50.377 82.505 50.416 76.985 50.511 76.985"/><polygon class="dr" points="50.608 76.985 50.569 82.505 50.472 82.505 50.511 76.985 50.608 76.985"/><polygon class="ds" points="50.704 76.985 50.665 82.505 50.569 82.505 50.608 76.985 50.704 76.985"/><polygon class="dt" points="50.8 76.985 50.761 82.505 50.665 82.505 50.704 76.985 50.8 76.985"/><polygon class="du" points="50.896 76.985 50.857 82.505 50.761 82.505 50.8 76.985 50.896 76.985"/><polygon class="dv" points="50.992 76.985 50.953 82.505 50.857 82.505 50.896 76.985 50.992 76.985"/><polygon class="dw" points="51.089 76.985 51.049 82.505 50.954 82.505 50.992 76.985 51.089 76.985"/><polygon class="dx" points="51.185 76.985 51.146 82.505 51.05 82.505 51.089 76.985 51.185 76.985"/><polygon class="dy" points="51.281 76.985 51.242 82.505 51.146 82.505 51.185 76.985 51.281 76.985"/><polygon class="dz" points="51.377 76.985 51.338 82.505 51.242 82.505 51.281 76.985 51.377 76.985"/><polygon class="ea" points="51.473 76.985 51.433 82.505 51.339 82.505 51.377 76.985 51.473 76.985"/><polygon class="eb" points="51.57 76.985 51.529 82.505 51.434 82.505 51.473 76.985 51.57 76.985"/><polygon class="ec" points="51.666 76.985 51.626 82.505 51.529 82.505 51.57 76.985 51.666 76.985"/><polygon class="ed" points="51.762 76.985 51.722 82.505 51.626 82.505 51.666 76.985 51.762 76.985"/><polygon class="ee" points="51.858 76.985 51.818 82.505 51.722 82.505 51.762 76.985 51.858 76.985"/><polygon class="ef" points="51.954 76.985 51.914 82.505 51.818 82.505 51.858 76.985 51.954 76.985"/><polygon class="eg" points="52.05 76.985 52.01 82.505 51.914 82.505 51.954 76.985 52.05 76.985"/><polygon class="eh" points="52.147 76.985 52.107 82.505 52.01 82.505 52.05 76.985 52.147 76.985"/><polygon class="ei" points="52.243 76.985 52.203 82.505 52.107 82.505 52.147 76.985 52.243 76.985"/><polygon class="ej" points="52.339 76.985 52.299 82.505 52.203 82.505 52.243 76.985 52.339 76.985"/><polygon class="ek" points="52.435 76.985 52.395 82.505 52.299 82.505 52.339 76.985 52.435 76.985"/><polygon class="el" points="52.531 76.985 52.491 82.505 52.396 82.505 52.435 76.985 52.531 76.985"/><polygon class="em" points="52.628 76.985 52.588 82.505 52.492 82.505 52.531 76.985 52.628 76.985"/><polygon class="en" points="52.723 76.985 52.684 82.505 52.589 82.505 52.627 76.985 52.723 76.985"/><polygon class="eo" points="52.82 76.985 52.78 82.505 52.685 82.505 52.723 76.985 52.82 76.985"/><polygon class="ep" points="52.916 76.985 52.877 82.505 52.78 82.505 52.82 76.985 52.916 76.985"/><polygon class="eq" points="53.012 76.985 52.973 82.505 52.877 82.505 52.916 76.985 53.012 76.985"/><polygon class="eq" points="53.142 76.985 53.103 82.505 52.973 82.505 53.012 76.985 53.142 76.985"/><polygon class="er" points="53.271 76.985 53.232 82.505 53.103 82.505 53.142 76.985 53.271 76.985"/><polygon class="es" points="53.401 76.985 53.362 82.505 53.232 82.505 53.271 76.985 53.401 76.985"/><polygon class="et" points="53.53 76.985 53.491 82.505 53.362 82.505 53.402 76.985 53.53 76.985"/><polygon class="eu" points="53.66 76.985 53.62 82.505 53.491 82.505 53.53 76.985 53.66 76.985"/><polygon class="ev" points="53.79 76.985 53.751 82.505 53.621 82.505 53.661 76.985 53.79 76.985"/><polygon class="ew" points="53.92 76.985 53.88 82.505 53.751 82.505 53.79 76.985 53.92 76.985"/><polygon class="ex" points="54.049 76.985 54.01 82.505 53.88 82.505 53.92 76.985 54.049 76.985"/><polygon class="ey" points="54.179 76.985 54.139 82.505 54.01 82.505 54.049 76.985 54.179 76.985"/><polygon class="ez" points="54.308 76.985 54.269 82.505 54.139 82.505 54.179 76.985 54.308 76.985"/><polygon class="fa" points="54.438 76.985 54.398 82.505 54.269 82.505 54.308 76.985 54.438 76.985"/><polygon class="fb" points="54.568 76.985 54.528 82.505 54.399 82.505 54.439 76.985 54.568 76.985"/><polygon class="fc" points="54.697 76.985 54.658 82.505 54.529 82.505 54.568 76.985 54.697 76.985"/><polygon class="fd" points="54.827 76.985 54.788 82.505 54.658 82.505 54.697 76.985 54.827 76.985"/><polygon class="fe" points="54.956 76.985 54.917 82.505 54.788 82.505 54.827 76.985 54.956 76.985"/><polygon class="ff" points="55.086 76.985 55.047 82.505 54.917 82.505 54.956 76.985 55.086 76.985"/><polygon class="fg" points="55.216 76.985 55.176 82.505 55.048 82.505 55.087 76.985 55.216 76.985"/><polygon class="fh" points="55.345 76.985 55.305 82.505 55.176 82.505 55.216 76.985 55.345 76.985"/><polygon class="fi" points="55.475 76.985 55.436 82.505 55.306 82.505 55.346 76.985 55.475 76.985"/><polygon class="fj" points="55.605 76.985 55.565 82.505 55.436 82.505 55.475 76.985 55.605 76.985"/><polygon class="fk" points="55.734 76.985 55.695 82.505 55.565 82.505 55.605 76.985 55.734 76.985"/><polygon class="fl" points="55.864 76.985 55.824 82.505 55.695 82.505 55.734 76.985 55.864 76.985"/><polygon class="fm" points="55.993 76.985 55.954 82.505 55.824 82.505 55.864 76.985 55.993 76.985"/><polygon class="fn" points="56.123 76.985 56.083 82.505 55.954 82.505 55.993 76.985 56.123 76.985"/><polygon class="fo" points="56.253 76.985 56.214 82.505 56.084 82.505 56.124 76.985 56.253 76.985"/><polygon class="db" points="56.382 76.985 56.343 82.505 56.214 82.505 56.253 76.985 56.382 76.985"/><polygon class="db" points="56.432 76.985 56.393 82.505 56.343 82.505 56.382 76.985 56.432 76.985"/><polygon class="fp" points="56.482 76.985 56.442 82.505 56.393 82.505 56.432 76.985 56.482 76.985"/><polygon class="fq" points="56.532 76.985 56.492 82.505 56.443 82.505 56.482 76.985 56.532 76.985"/><polygon class="fr" points="56.582 76.985 56.542 82.505 56.493 82.505 56.532 76.985 56.582 76.985"/><polygon class="fs" points="56.632 76.985 56.591 82.505 56.543 82.505 56.582 76.985 56.632 76.985"/><polygon class="ft" points="56.681 76.985 56.641 82.505 56.592 82.505 56.632 76.985 56.681 76.985"/><polygon class="fu" points="56.731 76.985 56.691 82.505 56.642 82.505 56.681 76.985 56.731 76.985"/><polygon class="fv" points="56.781 76.985 56.741 82.505 56.692 82.505 56.731 76.985 56.781 76.985"/><polygon class="fw" points="56.831 76.985 56.791 82.505 56.742 82.505 56.781 76.985 56.831 76.985"/><polygon class="fx" points="56.881 76.985 56.841 82.505 56.792 82.505 56.831 76.985 56.881 76.985"/><polygon class="fy" points="56.93 76.985 56.891 82.505 56.841 82.505 56.881 76.985 56.93 76.985"/><polygon class="fz" points="56.98 76.985 56.941 82.505 56.891 82.505 56.93 76.985 56.98 76.985"/><polygon class="ga" points="57.03 76.985 56.991 82.505 56.941 82.505 56.98 76.985 57.03 76.985"/><polygon class="gb" points="57.08 76.985 57.041 82.505 56.991 82.505 57.03 76.985 57.08 76.985"/><polygon class="gc" points="57.13 76.985 57.091 82.505 57.041 82.505 57.08 76.985 57.13 76.985"/><polygon class="gd" points="57.179 76.985 57.14 82.505 57.091 82.505 57.13 76.985 57.179 76.985"/><polygon class="ge" points="57.229 76.985 57.19 82.505 57.14 82.505 57.179 76.985 57.229 76.985"/><polygon class="gf" points="57.279 76.985 57.24 82.505 57.19 82.505 57.229 76.985 57.279 76.985"/><polygon class="gg" points="57.329 76.985 57.29 82.505 57.24 82.505 57.279 76.985 57.329 76.985"/><polygon class="gh" points="57.379 76.985 57.34 82.505 57.29 82.505 57.329 76.985 57.379 76.985"/><polygon class="gi" points="57.428 76.985 57.389 82.505 57.34 82.505 57.379 76.985 57.428 76.985"/><polygon class="gj" points="57.478 76.985 57.439 82.505 57.389 82.505 57.428 76.985 57.478 76.985"/><polygon class="gk" points="57.528 76.985 57.489 82.505 57.439 82.505 57.478 76.985 57.528 76.985"/><polygon class="gl" points="57.578 76.985 57.539 82.505 57.489 82.505 57.528 76.985 57.578 76.985"/><polygon class="gm" points="57.628 76.985 57.589 82.505 57.539 82.505 57.578 76.985 57.628 76.985"/><polygon class="gn" points="57.677 76.985 57.638 82.505 57.589 82.505 57.628 76.985 57.677 76.985"/><polygon class="go" points="57.727 76.985 57.688 82.505 57.638 82.505 57.677 76.985 57.727 76.985"/><polygon class="gp" points="57.777 76.985 57.738 82.505 57.688 82.505 57.727 76.985 57.777 76.985"/><polygon class="gq" points="57.827 76.985 57.788 82.505 57.738 82.505 57.777 76.985 57.827 76.985"/><polygon class="gr" points="57.877 76.985 57.838 82.505 57.788 82.505 57.827 76.985 57.877 76.985"/><polygon class="gs" points="57.926 76.985 57.887 82.505 57.838 82.505 57.877 76.985 57.926 76.985"/><polygon class="gt" points="57.976 76.985 57.937 82.505 57.887 82.505 57.926 76.985 57.976 76.985"/><polygon class="gu" points="58.026 76.985 57.987 82.505 57.937 82.505 57.976 76.985 58.026 76.985"/><polygon class="gv" points="58.076 76.985 58.037 82.505 57.987 82.505 58.026 76.985 58.076 76.985"/><polygon class="gw" points="58.126 76.985 58.087 82.505 58.037 82.505 58.076 76.985 58.126 76.985"/><polygon class="gx" points="58.176 76.985 58.136 82.505 58.087 82.505 58.126 76.985 58.176 76.985"/><polygon class="gy" points="58.226 76.985 58.186 82.505 58.137 82.505 58.176 76.985 58.226 76.985"/><polygon class="gz" points="58.276 76.985 58.236 82.505 58.187 82.505 58.226 76.985 58.276 76.985"/><polygon class="ha" points="58.325 76.985 58.285 82.505 58.236 82.505 58.276 76.985 58.325 76.985"/><polygon class="hb" points="58.375 76.985 58.335 82.505 58.286 82.505 58.325 76.985 58.375 76.985"/><polygon class="hc" points="58.425 76.985 58.385 82.505 58.336 82.505 58.375 76.985 58.425 76.985"/><polygon class="hd" points="58.475 76.985 58.435 82.505 58.386 82.505 58.425 76.985 58.475 76.985"/><polygon class="he" points="58.525 76.985 58.485 82.505 58.436 82.505 58.475 76.985 58.525 76.985"/><polygon class="hf" points="58.574 76.985 58.534 82.505 58.486 82.505 58.524 76.985 58.574 76.985"/><polygon class="hg" points="58.624 76.985 58.585 82.505 58.535 82.505 58.574 76.985 58.624 76.985"/><polygon class="hh" points="58.674 76.985 58.635 82.505 58.585 82.505 58.624 76.985 58.674 76.985"/><polygon class="hi" points="58.724 76.985 58.685 82.505 58.635 82.505 58.674 76.985 58.724 76.985"/><polygon class="hj" points="58.774 76.985 58.735 82.505 58.685 82.505 58.724 76.985 58.774 76.985"/><polygon class="hk" points="58.823 76.985 58.784 82.505 58.735 82.505 58.774 76.985 58.823 76.985"/><polygon class="hl" points="58.873 76.985 58.834 82.505 58.784 82.505 58.823 76.985 58.873 76.985"/><polygon class="hm" points="58.923 76.985 58.884 82.505 58.834 82.505 58.873 76.985 58.923 76.985"/><polygon class="hn" points="58.973 76.985 58.934 82.505 58.884 82.505 58.923 76.985 58.973 76.985"/><polygon class="ho" points="59.023 76.985 58.984 82.505 58.934 82.505 58.973 76.985 59.023 76.985"/><polygon class="hp" points="59.072 76.985 59.033 82.505 58.984 82.505 59.023 76.985 59.072 76.985"/><polygon class="hq" points="59.122 76.985 59.083 82.505 59.033 82.505 59.072 76.985 59.122 76.985"/><polygon class="hr" points="59.172 76.985 59.133 82.505 59.083 82.505 59.122 76.985 59.172 76.985"/><polygon class="hs" points="59.222 76.985 59.183 82.505 59.133 82.505 59.172 76.985 59.222 76.985"/><polygon class="ht" points="59.272 76.985 59.233 82.505 59.183 82.505 59.222 76.985 59.272 76.985"/><polygon class="hu" points="59.321 76.985 59.282 82.505 59.233 82.505 59.272 76.985 59.321 76.985"/><polygon class="hv" points="59.37 77.233 59.332 82.505 59.283 82.505 59.322 76.985 59.37 76.985 59.37 77.233"/><polygon class="hv" points="59.332 82.505 59.37 77.233 59.37 82.505 59.332 82.505"/></g><path class="e" d="M48.57,72.3976c-.792,1.3589-2.1582,1.5581-2.7329,2.2319-.5312.521-.164.7329.1489.42a1.2794,1.2794,0,0,1,.5782-.4146,2.9078,2.9078,0,0,1,.6167,2.1006c.1543.1582.1533.37.3081.4722a3.4875,3.4875,0,0,0-.6612-2.7779,7.9123,7.9123,0,0,1,1.0513-.729c.5181,1.0518,1.086,2.1558,2.398,2.22a3.296,3.296,0,0,1-1.9732-2.5279c.3682-.4712.37-.729.2661-.9951"/><path class="hw" d="M61.8409,24.298C51.4337,29.9831,43.567,31.29,31.3478,26.695c-2.1929,13.081-2.065,24.8642,1.417,36.2021l28.8.2051Z"/><path class="hx" d="M61.8253,26.4474c-9.519,5.584-19.4248,6.51-28.978,2.7778-1.55,11.3521-1.419,22.815,2.064,33.6851l26.6528.19Z"/><path class="hy" d="M33.74,58.6593c.1958.8931.707,2.9409,1.1679,4.251l26.6573.19.0317-4.6616c-9.271.5576-18.7461-.7095-27.8569.2207"/><path class="hz" d="M54.6622,59.45l-.104-1.6049-.4541-.5791-.3828-10.21.8091-.7412.125-2.2319s-.4932-.1636-1.3931-.3716l-.0073.8828c-.3848-.084-.8286-.1738-1.3286-.2622l.0068-.8911c-.5869-.1035-1.26-.208-2.01-.295l-.0059.8892c-.4209-.0508-.8638-.0972-1.3291-.1352l.0073-.8829c-.3559-.0268-.6162-.0669-1.104-.0708s-.7529.0318-1.1079.0547l-.0063.8824c-.4658.0327-.9107.0717-1.3321.1167l.0074-.8877c-.752.0747-1.4263.1689-2.0152.2661l-.0058.89c-.4991.08-.9453.1641-1.3311.2442l.0059-.8829c-.9019.1939-1.4009.3516-1.4009.3516l.0957,2.2324.7964.7549L40.6691,57.171l-.4619.5708-.126,1.604a19.0828,19.0828,0,0,0,7.1821,1.4161H47.46A19.0886,19.0886,0,0,0,54.6622,59.45"/><path class="b" d="M47.4405,49.7667c-3.38-.0239-3.5322,6.9761-3.372,10.711a19.9044,19.9044,0,0,0,3.1948.2842c.0322.0009.0654.0009.0991,0,.0323.0009.065.0009.0982.0009a19.8219,19.8219,0,0,0,3.1977-.2382c.2124-3.733.16-10.7339-3.2178-10.7579"/><path class="ia" d="M47.4332,50.7492c-3.0332-.021-2.6992,7.6079-2.5361,9.852a19.9223,19.9223,0,0,0,2.3662.16c.0327.0009.0649.0009.0991,0,.0318.0009.0659.0009.0977.0009a19.8117,19.8117,0,0,0,2.3672-.1259c.1967-2.2412.64-9.8662-2.3941-9.8872"/><path class="hw" d="M61.236,103.9962,61.528,63.1l28.7441.2061c-5.249,16.2471-16.0879,31.7729-29.0361,40.69"/><path class="ib" d="M61.3072,101.2721c9.68-6.4228,21.2-21.269,26.8169-37.98L61.58,63.1032Z"/><path class="ic" d="M69.3639,72.7316s-3.9292-3.51-1.1079-5.231c2.8188-1.7241,6.61-.9057,8.0888-3.07-.6948,3.0669,1.6192,5.834-3.4619,8.6006Z"/><path class="i" d="M69.7487,72.7663s-2.9781-2.6578-.8409-3.9629,5.0078-.6851,6.128-2.3252c-.5259,2.3242,1.228,4.42-2.6221,6.5161Z"/><path class="id" d="M70.54,72.8458s-1.6641-1.7631.541-2.643a16.677,16.677,0,0,0,1.7012-.503s.0717,2.9229-1.2354,3.231Z"/><path class="c" d="M73.6945,73.1525l-2.793-.356-2.811-.188s-1.6539.8-.8648,2.1509c.9429.3423,1.0308.96,1.0308.96l.24,13.7793s-.1494,2.4468.5327,2.56c.6909.02,1.0161-2.4091,1.0161-2.4091l2.8882-13.4742s.2046-.5908,1.1958-.7451c1.0352-1.1738-.435-2.2778-.435-2.2778"/><path class="ie" d="M68.3439,80.7194s-1.56.187-1.6392.4731a1.6283,1.6283,0,0,0,.4321,1.6221c-.71-.1323-1.6381.0757-.8608,1.437-.605.7549-.5649,1.6021.3418,1.8228-.1821.833-.1558,1.3691,1.8511,1.9311l-.01-.6411s1.4448-.1689,1.5117-.5361a.8439.8439,0,0,0-.2031-.66A.754.754,0,0,0,70.29,85.1c.2934-.2719.5722-1.5439-.4117-1.5366-.6523.0049-1.1162.2236-1.3793-.6211a15.66,15.66,0,0,1-.1548-2.2231"/><path class="ie" d="M75.986,86.4884c-.5518-.5742-2.04-2.7168-2.294-2.9551-.2539-.2358-.97-2.0537-1.439-2.3017a5.1316,5.1316,0,0,1-1.0512-.8989s-1.626-1.9234-1.8106-1.7945c-.187.1284-.2563.2754-.32,1.4834-.041.7437.981,1.2481.9961,1.169a1.7407,1.7407,0,0,0,.8789,1.3886,3.272,3.272,0,0,0,.0962,2.293l-.7681,3.69s1.56.3077,1.9082.0811a9.3128,9.3128,0,0,1,1.1148,1.3125s.707-.8657,1.46-1.8359c.435-.56.8828-1.169,1.229-1.6319"/><path class="e" d="M61.9171,24.3c10.271,5.831,18.1172,7.2509,30.4038,2.83,2,13.1109,1.7061,24.8911-1.937,36.1783L61.64,63.1037Z"/><path class="d" d="M61.9015,26.4474c9.331,5.72,19.271,6.7871,28.8852,3.1919,1.3247,11.3711,1.04,22.832-2.601,33.6509L61.64,63.1017Z"/><path class="i" d="M61.7062,53.8341,82.4933,31.567a41.8048,41.8048,0,0,0,8.2939-1.9287c.2959,2.3076.541,4.7178.6241,7.232L66.8751,63.14,61.64,63.1032Z"/><path class="if" d="M77.3536,40.3805l5.7608-.3237c.1582.001.2651.1059.3633.31a1.1348,1.1348,0,0,0,1.0429.6391c.8379.0049,1.4248-.9282,1.16-1.0879-.312-.1631-.3653.624-1.1582.6177-.835-.0049-.773-.9956-1.2471-.9478l-5.916-.0932.0283-3.8247c-.0454-1.1031-.8232-2.53-1.24-2.5352a3.5558,3.5558,0,0,0-1.3242,2.5161l-.0269,3.8252-5.3638.0127c-.5219-.0547-.479.937-1.2119.9312-.8374-.0059-.8833-.794-1.2-.6363-.2612.1573.3081,1.0992,1.145,1.1055a1.2415,1.2415,0,0,0,1.0469-.623.3922.3922,0,0,1,.32-.3062l5.2578.4028L74.69,54.4455a.8028.8028,0,0,0,.7759.7929l.997.0073a.8058.8058,0,0,0,.79-.7822Z"/><path class="ig" d="M75.797,60.215c.3149-.2569.6328-.4141.7349-.2549a.4644.4644,0,0,1-.3169.728c-.4732.106-.3628-.3681-.418-.4731"/><path class="ig" d="M75.2794,59.3737c.2671-.4151,1.3169-.67,1.6279-.8262a.6713.6713,0,0,1-.4218,1.0972c-.4741.0478-.5811.3642-.7383.3633a.4209.4209,0,0,1-.4707-.2164.6.6,0,0,1,.0029-.4179"/><path class="ig" d="M75.128,58.1671a7.2386,7.2386,0,0,1,1.792-.8252.6665.6665,0,0,1-.22,1.0992,7.9251,7.9251,0,0,0-1.3139.6191c-.313.2588-.5718-.5259-.2579-.8931"/><path class="ig" d="M74.9811,56.963a21.2293,21.2293,0,0,1,2.1069-.875.6131.6131,0,0,1-.1167,1.045,8.9887,8.9887,0,0,0-1.68.6718c-.3169.2051-.6211-.53-.31-.8418"/><path class="ig" d="M81.3951,54.13l5.44.0381s.146,2.4092-2.6851,2.3877c-2.832-.02-2.7549-2.4258-2.7549-2.4258"/><polygon class="ig" points="84.056 40.429 81.395 54.13 81.641 54.132 84.264 40.534 84.056 40.429"/><polygon class="ig" points="84.848 40.435 86.796 54.168 86.548 54.167 84.64 40.535 84.848 40.435"/><path class="ig" d="M65.1383,54.0138l5.44.0391s.1451,2.4057-2.687,2.3867a2.44,2.44,0,0,1-2.7529-2.4258"/><polygon class="ig" points="67.799 40.312 65.138 54.014 65.384 54.016 68.007 40.416 67.799 40.312"/><polygon class="ig" points="68.591 40.319 70.538 54.052 70.291 54.05 68.382 40.42 68.591 40.319"/><path class="ih" d="M76.1481,33.1349,75.99,55.2418s-1.3086.19-1.3037-.4311.1377-19.3369.1377-19.3369.57-2.2061,1.3242-2.3389"/><path class="ig" d="M77.087,55.9313c.001-.0532-2.0459.8208-2.0459.7158-.1591-.1567-.1572-.3647.0049-.6787-.0571-.105-.1069-.16-.1582-.2612-.8887-.4239-1.3047-.5869-1.6128-1.2158-.209-.4732.062-1.3633.583-1.3589a.3665.3665,0,0,1-.0058.7329c-.0493-.001-.1031-.0508-.2071-.105.0977.9438,1.458,1.1108,2.4107-.2461.8281,1.37,2.7143,1.2759,2.3022.1729a.52.52,0,0,1-.372.206.39.39,0,0,1-.3589-.3667.4428.4428,0,0,1,.3647-.3643,1.0645,1.0645,0,0,1,.7793,1.523,2.3512,2.3512,0,0,1-1.63,1.0381c0,.0488-.0532.1548-.0542.208"/><path class="ii" d="M48.9791,34.0407l.9029-.187-.9-.1949.8349-.3711-.9341.0308.6944-.6035-.8721.2788.5-.7691-.7451.5088.2529-.8818-.5991.6709.0293-.9258-.4243.8208-.02-.0019.0063-.7178.25.0029.002-.2651-.25-.001.0009-.2588-.2578-.001-.0014.2569-.272-.002-.002.2652.272.0009-.0049.7178a.2887.2887,0,0,0-.04.0029l-.4209-.8276.0532.917-.64-.7192.3261.8911a.0777.0777,0,0,0-.0161.0107l-.7651-.48.4609.7632-.8408-.2651.6509.5972-.8989-.0552.8159.3891-.897.1822.9121.2329.002.0088-.875.3779.9389-.0566-.6718.6079.8837-.2852-.4838.77.7729-.4878.002.002-.3052.8857.7031-.6831a1.4142,1.4142,0,0,0,.4331.0723,1.47,1.47,0,0,0,.478-.0781l.7.705-.3042-.9179.793.5322-.55-.7661.9229.2807-.7271-.5976.94.0068Z"/><path class="m" d="M49.6,37.361c-.0908-.187-.2529-.46-.4218-.7359.019-.187.0048-.4492-.2134-.4472a.3628.3628,0,0,1-.0147-.18.5907.5907,0,0,0,.0908-.1812c-.0419-.0171-.0151-.0981-.0151-.0981l.166-.3867-.3218.122-.125-.2734-.1792.2534-.2719-.1084.039.1343a.6.6,0,0,0-.2309-.042c.061-.0161.0879-.1572.0972-.208a8.8933,8.8933,0,0,0-.191-1.1821,2.3043,2.3043,0,0,1,.3076-.4248.5176.5176,0,0,0-.2626.059.4045.4045,0,0,0-.0772-.1762.9972.9972,0,0,0-.22.2173.2718.2718,0,0,0-.0938-.2725c.0889-.2519-.103-.2876-.103-.2876s-.1919.0327-.1059.2866a.2742.2742,0,0,0-.0992.271.9963.9963,0,0,0-.2168-.2207.4126.4126,0,0,0-.0791.1748.5093.5093,0,0,0-.2631-.0639,2.3983,2.3983,0,0,1,.3042.43,8.5449,8.5449,0,0,0-.211,1.1787c.01.0523.0347.191.0947.21a.53.53,0,0,0-.49.2593c-.1421.227-.8052,1.208-1.0352,1.6611s-2.2221,4.0908-2.2221,4.0908.164.22.374.16c.0171.2187.1562.23.3052.167.0151.2637.1909.2827.3042.2139a.2264.2264,0,0,0,.332.16c.0586.2437.2866.1587.3477.1318a.2636.2636,0,0,0,.4013.1431c.1646.1939.2168.1577.34.1069a.2717.2717,0,0,0,.3759.0909.2858.2858,0,0,0,.3658.0439.3217.3217,0,0,0,.3662.0523c.1391.1538.3852.039.3852.039a.8284.8284,0,0,0,.7168.0049s.2422.12.3838-.0342a.32.32,0,0,0,.3672-.0469.2849.2849,0,0,0,.3672-.038.2718.2718,0,0,0,.376-.085c.123.0532.1748.0894.3418-.103a.263.263,0,0,0,.4028-.1358c.062.0269.2881.1148.35-.1289a.2256.2256,0,0,0,.334-.1543c.1133.07.2871.0542.3071-.209.147.0621.2881.0562.3062-.164.21.0639.3769-.1538.3769-.1538S49.8239,37.8161,49.6,37.361"/><path class="ij" d="M49.6774,42.44c-.084-.0532-.2149-.14-.1328-.2871-.1944-.1177-.0743-.3828-.0743-.3828a.3516.3516,0,0,1-.0429-.3853.3053.3053,0,0,1-.084-.4629.32.32,0,0,1-.063-.457.2824.2824,0,0,1-.0791-.439.2781.2781,0,0,1-.063-.435.3018.3018,0,0,1-.0928-.46c-.061-.042-.2841-.3188-.0879-.4849a.3388.3388,0,0,1-.08-.46.29.29,0,0,1-.083-.4151c-.0821-.0161-.1612-.2959-.0733-.3979-.0771-.0112-.1631-.124-.1621-.2832-.22.0141-.208-.2549-.208-.2549s-.1978-.0278-.1748-.33a.2168.2168,0,0,1-.1631-.2861.3376.3376,0,0,1-.1558-.3076.45.45,0,0,1,.0039-.4644.9307.9307,0,0,1-.6279-.0058.4467.4467,0,0,1-.0039.4648.3386.3386,0,0,1-.16.3062.2164.2164,0,0,1-.1651.2851c.0181.3008-.1811.3262-.1811.3262s.0083.2685-.211.2529c-.0009.1577-.0888.2695-.166.2788.0859.104.0029.3828-.08.398a.2874.2874,0,0,1-.0888.414.3388.3388,0,0,1-.084.458c.1919.1709-.0352.4439-.0972.4839a.3023.3023,0,0,1-.0986.459.2785.2785,0,0,1-.07.4341.2817.2817,0,0,1-.086.438.3193.3193,0,0,1-.0688.456.3046.3046,0,0,1-.0889.462.35.35,0,0,1-.0493.3833s.1152.2675-.08.3828c.0811.1508-.0556.2348-.1406.2871.1558.1767.208.144.3276.0927a.2713.2713,0,0,0,.376.0909.2868.2868,0,0,0,.3662.0444.3231.3231,0,0,0,.3672.0518c.1377.1538.3838.039.3838.039a.9422.9422,0,0,0,.3569.084.9217.9217,0,0,0,.36-.0791s.2432.12.3843-.0337a.3207.3207,0,0,0,.3667-.0474.2852.2852,0,0,0,.3672-.0375.2735.2735,0,0,0,.3769-.0855c.1192.0522.1729.0874.3311-.0908"/><path class="ik" d="M47.8776,34.0548l-.6451-.0049s-.3281,1.27.313,1.32c.6431-.041.3321-1.315.3321-1.315"/><path class="il" d="M201.96,157.78,197.12,142.95h2.0684l2.3106,7.3047c.6376,2.0019,1.1884,3.8066,1.5839,5.5449h.044c.4179-1.7168,1.0342-3.5869,1.6943-5.5225L207.33,142.95h2.0459l-5.3027,14.83Z"/><path class="il" d="M212.7192,144.1373a1.1993,1.1993,0,0,1-2.3985,0,1.18,1.18,0,0,1,1.21-1.21A1.15,1.15,0,0,1,212.7192,144.1373ZM210.5629,157.78V147.1305h1.9356V157.78Z"/><path class="il" d="M224.8861,147.1305c-.0449.7695-.0888,1.6279-.0888,2.9257V156.24c0,2.4424-.4834,3.9385-1.5176,4.8623a5.6477,5.6477,0,0,1-3.873,1.2764,6.8768,6.8768,0,0,1-3.542-.88l.4834-1.4746a6.0037,6.0037,0,0,0,3.125.8359c1.98,0,3.4326-1.0341,3.4326-3.7187v-1.1875h-.044a3.8023,3.8023,0,0,1-3.3886,1.7822c-2.6407,0-4.5332-2.2451-4.5332-5.1933,0-3.6084,2.3544-5.6543,4.7968-5.6543a3.5411,3.5411,0,0,1,3.3223,1.8476h.0449l.0879-1.6054Zm-2.0029,4.2021a2.7584,2.7584,0,0,0-.1094-.88,2.791,2.791,0,0,0-2.707-2.0469c-1.8476,0-3.168,1.5625-3.168,4.0274,0,2.09,1.0557,3.8281,3.1465,3.8281a2.83,2.83,0,0,0,2.6836-1.9805,3.3572,3.3572,0,0,0,.1543-1.0341Z"/><path class="il" d="M230.0326,144.1373a1.1992,1.1992,0,0,1-2.3984,0,1.18,1.18,0,0,1,1.21-1.21A1.15,1.15,0,0,1,230.0326,144.1373ZM227.8764,157.78V147.1305h1.9355V157.78Z"/><path class="il" d="M233.0238,142.1578H234.96V157.78h-1.9366Z"/><path class="il" d="M244.1127,157.78l-.1543-1.3428h-.0654a3.9662,3.9662,0,0,1-3.2569,1.585,3.0347,3.0347,0,0,1-3.2568-3.0586c0-2.5743,2.2891-3.9825,6.4033-3.961v-.22a2.196,2.196,0,0,0-2.4209-2.4648,5.3114,5.3114,0,0,0-2.7715.7919l-.44-1.2753a6.6064,6.6064,0,0,1,3.4981-.9463c3.2568,0,4.0488,2.2216,4.0488,4.3564v3.9824a15.0191,15.0191,0,0,0,.1758,2.5528Zm-.2861-5.4346c-2.1123-.0449-4.5108.3291-4.5108,2.3975a1.7133,1.7133,0,0,0,1.8262,1.8486,2.6482,2.6482,0,0,0,2.5742-1.7822,2.011,2.011,0,0,0,.11-.6162Z"/><path class="il" d="M258.017,142.1578v12.8711c0,.9463.0225,2.0244.0879,2.751h-1.7383l-.0879-1.8487h-.0439a3.9393,3.9393,0,0,1-3.6309,2.0909c-2.5742,0-4.5547-2.1788-4.5547-5.4131-.0215-3.543,2.1787-5.7207,4.7754-5.7207a3.5584,3.5584,0,0,1,3.2119,1.6279h.044v-6.3584Zm-1.9365,9.3066a3.3871,3.3871,0,0,0-.0879-.8134,2.8477,2.8477,0,0,0-2.794-2.2452c-2.0029,0-3.19,1.7608-3.19,4.1153,0,2.1562,1.0557,3.9385,3.1465,3.9385a2.91,2.91,0,0,0,2.8379-2.3106,3.3439,3.3439,0,0,0,.0879-.8359Z"/><path class="il" d="M270.8647,152.3668c0,3.9385-2.7286,5.6553-5.3028,5.6553-2.8818,0-5.1045-2.1123-5.1045-5.48,0-3.5645,2.3321-5.6543,5.28-5.6543C268.7963,146.8883,270.8647,149.11,270.8647,152.3668Zm-8.4493.11c0,2.3321,1.3428,4.0928,3.2344,4.0928,1.8487,0,3.2344-1.7383,3.2344-4.1367,0-1.8047-.9014-4.0928-3.19-4.0928S262.4154,150.4527,262.4154,152.4771Z"/><path class="il" d="M277.9692,150.607c0-1.3642-.044-2.4648-.0879-3.4765H279.62l.0879,1.8261h.044a4.1848,4.1848,0,0,1,3.7842-2.0683c2.5752,0,4.5107,2.1777,4.5107,5.4121,0,3.8291-2.332,5.7217-4.8408,5.7217a3.7344,3.7344,0,0,1-3.2783-1.6729h-.044v5.7871h-1.914Zm1.914,2.8379a4.37,4.37,0,0,0,.0879.792,2.988,2.988,0,0,0,2.9043,2.2666c2.0469,0,3.2354-1.6719,3.2354-4.1143,0-2.1347-1.1231-3.9609-3.169-3.9609a3.09,3.09,0,0,0-2.9267,2.3984,3.1668,3.1668,0,0,0-.1319.792Z"/><path class="il" d="M300.1244,152.3668c0,3.9385-2.7285,5.6553-5.3027,5.6553-2.8828,0-5.1055-2.1123-5.1055-5.48,0-3.5645,2.333-5.6543,5.2813-5.6543C298.0561,146.8883,300.1244,149.11,300.1244,152.3668Zm-8.4492.11c0,2.3321,1.3418,4.0928,3.2344,4.0928,1.8476,0,3.2344-1.7383,3.2344-4.1367,0-1.8047-.9024-4.0928-3.19-4.0928S291.6752,150.4527,291.6752,152.4771Z"/><path class="il" d="M302.5649,150.4527c0-1.2539-.0225-2.332-.0879-3.3222h1.6943l.0654,2.09h.0889a3.194,3.194,0,0,1,2.9482-2.332,2.0974,2.0974,0,0,1,.55.0654V148.78a2.9144,2.9144,0,0,0-.66-.0655,2.7169,2.7169,0,0,0-2.5967,2.4864,5.4589,5.4589,0,0,0-.0879.9023V157.78h-1.914Z"/><path class="il" d="M326.9858,151.2662c-.1094-2.0674-.2413-4.5537-.22-6.4023H326.7c-.5058,1.7382-1.122,3.5859-1.87,5.6328l-2.6182,7.1953h-1.4521l-2.3984-7.0635c-.7041-2.09-1.2979-4.0049-1.7159-5.7646h-.0439c-.044,1.8486-.1543,4.3349-.2861,6.5566l-.3965,6.3594h-1.8262l1.0342-14.83h2.4424l2.53,7.1728c.6162,1.8262,1.1221,3.4541,1.4961,4.9942h.0664c.3741-1.4961.9024-3.124,1.5625-4.9942l2.64-7.1728h2.4424l.9248,14.83H327.36Z"/><path class="il" d="M334.5307,144.1373a1.1993,1.1993,0,0,1-2.3985,0,1.18,1.18,0,0,1,1.21-1.21A1.15,1.15,0,0,1,334.5307,144.1373ZM332.3744,157.78V147.1305H334.31V157.78Z"/><path class="il" d="M337.5219,150.0123c0-1.1-.0225-2.002-.0879-2.8818H339.15l.11,1.76h.0439a3.9177,3.9177,0,0,1,3.52-2.0019c1.4746,0,3.7627.88,3.7627,4.5322V157.78h-1.9365v-6.1387c0-1.7168-.6377-3.1465-2.4639-3.1465a2.7507,2.7507,0,0,0-2.5967,1.98,2.7922,2.7922,0,0,0-.1318.9023V157.78h-1.9365Z"/><path class="il" d="M350.81,152.8072a3.4113,3.4113,0,0,0,3.6523,3.6963,7.0054,7.0054,0,0,0,2.9483-.55l.33,1.3857a8.6106,8.6106,0,0,1-3.542.66c-3.2783,0-5.2373-2.1563-5.2373-5.3691s1.8926-5.7422,4.9952-5.7422c3.4765,0,4.4,3.0586,4.4,5.0166a7.4471,7.4471,0,0,1-.0654.9023Zm5.6767-1.3867c.0225-1.2324-.5058-3.1465-2.6845-3.1465-1.958,0-2.8164,1.8047-2.97,3.1465Z"/><path class="il" d="M369.9506,142.1578v12.8711c0,.9463.0225,2.0244.0879,2.751H368.3l-.0879-1.8487h-.0439a3.9393,3.9393,0,0,1-3.6309,2.0909c-2.5742,0-4.5547-2.1788-4.5547-5.4131-.0215-3.543,2.1787-5.7207,4.7754-5.7207a3.5585,3.5585,0,0,1,3.2119,1.6279h.044v-6.3584Zm-1.9365,9.3066a3.3871,3.3871,0,0,0-.0879-.8134,2.8477,2.8477,0,0,0-2.794-2.2452c-2.0029,0-3.19,1.7608-3.19,4.1153,0,2.1562,1.0557,3.9385,3.1465,3.9385a2.91,2.91,0,0,0,2.8379-2.3106,3.3439,3.3439,0,0,0,.0879-.8359Z"/><path class="il" d="M382.0727,154.8756c0,1.1.0224,2.0683.0879,2.9043h-1.7159l-.11-1.7383h-.044a4.0076,4.0076,0,0,1-3.52,1.9805c-1.6718,0-3.6748-.9248-3.6748-4.6651v-6.2265h1.9366v5.8964c0,2.0245.6162,3.3887,2.3769,3.3887a2.7234,2.7234,0,0,0,2.7275-2.751v-6.5341h1.9366Z"/><path class="il" d="M392.8744,157.3834a7.1248,7.1248,0,0,1-3.0586.6162,5.0594,5.0594,0,0,1-5.3027-5.4346,5.4113,5.4113,0,0,1,5.7207-5.6552,6.4627,6.4627,0,0,1,2.6846.5507l-.4405,1.4961a4.48,4.48,0,0,0-2.2441-.5068c-2.4424,0-3.7627,1.8047-3.7627,4.0273a3.6513,3.6513,0,0,0,3.6963,3.9825,5.4978,5.4978,0,0,0,2.3769-.5284Z"/><path class="il" d="M401.0356,157.78l-.1534-1.3428h-.0664a3.9645,3.9645,0,0,1-3.2568,1.585,3.0338,3.0338,0,0,1-3.2559-3.0586c0-2.5743,2.2881-3.9825,6.4024-3.961v-.22a2.1952,2.1952,0,0,0-2.42-2.4648,5.3117,5.3117,0,0,0-2.7725.7919l-.44-1.2753a6.6094,6.6094,0,0,1,3.499-.9463c3.2568,0,4.0488,2.2216,4.0488,4.3564v3.9824a15.0294,15.0294,0,0,0,.1758,2.5528Zm-.2862-5.4346c-2.1123-.0449-4.51.3291-4.51,2.3975a1.7133,1.7133,0,0,0,1.8261,1.8486,2.65,2.65,0,0,0,2.5743-1.7822,2.04,2.04,0,0,0,.1093-.6162Z"/><path class="il" d="M413.3344,157.3834a7.1252,7.1252,0,0,1-3.0586.6162,5.0594,5.0594,0,0,1-5.3027-5.4346,5.4113,5.4113,0,0,1,5.7207-5.6552,6.4622,6.4622,0,0,1,2.6845.5507l-.44,1.4961a4.48,4.48,0,0,0-2.2441-.5068c-2.4424,0-3.7627,1.8047-3.7627,4.0273a3.6513,3.6513,0,0,0,3.6963,3.9825,5.4982,5.4982,0,0,0,2.3769-.5284Z"/><path class="il" d="M417.7553,144.1373a1.1993,1.1993,0,0,1-2.3985,0,1.18,1.18,0,0,1,1.21-1.21A1.1494,1.1494,0,0,1,417.7553,144.1373ZM415.599,157.78V147.1305h1.9366V157.78Z"/><path class="il" d="M430.3842,152.3668c0,3.9385-2.7285,5.6553-5.3027,5.6553-2.8819,0-5.1045-2.1123-5.1045-5.48,0-3.5645,2.332-5.6543,5.28-5.6543C428.3158,146.8883,430.3842,149.11,430.3842,152.3668Zm-8.4492.11c0,2.3321,1.3427,4.0928,3.2343,4.0928,1.8487,0,3.2344-1.7383,3.2344-4.1367,0-1.8047-.9013-4.0928-3.19-4.0928S421.935,150.4527,421.935,152.4771Zm6.1386-9.9453-2.6835,3.1465h-1.3868l1.9366-3.1465Z"/><path class="il" d="M432.8246,150.0123c0-1.1-.0224-2.002-.0879-2.8818h1.7159l.11,1.76h.0439a3.9179,3.9179,0,0,1,3.5206-2.0019c1.4746,0,3.7627.88,3.7627,4.5322V157.78h-1.9366v-6.1387c0-1.7168-.6377-3.1465-2.4638-3.1465a2.7506,2.7506,0,0,0-2.5967,1.98,2.7893,2.7893,0,0,0-.1319.9023V157.78h-1.9365Z"/></svg>