<svg xmlns="http://www.w3.org/2000/svg" viewBox="0 0 830.4002 662.7344"><defs><style>.a{fill:#606060;}.b,.c,.f{fill:none;}.b,.e{stroke:#d91519;}.b,.c,.d,.e,.f{stroke-linecap:round;stroke-linejoin:round;}.b,.c,.e{stroke-width:3px;}.c,.d,.f{stroke:#606060;}.d,.e{fill:#fff;}.d,.f{stroke-width:2px;}</style></defs><title>2</title><path class="a" d="M603.3953,191.2549l-.9736,7.97h8.3652l-.3135,2.4258h-8.3486l-1.0068,8.2168h10.3789l-.3135,2.5078H597.7029l2.9043-23.6445h13.4639l-.3135,2.5244Z"/><path class="a" d="M623.2615,203.3994,627.7,212.375h-2.6074a.7629.7629,0,0,1-.52-.165,1.2131,1.2131,0,0,1-.3056-.4121l-3.1348-6.6993a4.003,4.003,0,0,1-.3467.6436l-4.5537,6.0723a2.6286,2.6286,0,0,1-.38.3955.7449.7449,0,0,1-.4951.165h-2.5566l6.748-8.9922-4.01-7.7226h2.624a.9664.9664,0,0,1,.4785.0908.6687.6687,0,0,1,.2471.3222l2.8046,5.7579a6.5739,6.5739,0,0,1,.4131-.709l3.7784-5a.7857.7857,0,0,1,.6933-.4619h2.64Z"/><path class="a" d="M631.4451,209.2236v-.2558c0-.1045.0078-.2559.0244-.4541s.044-.4561.082-.7754.0909-.7363.1573-1.2539l1.0224-8.3653H630.867a.4706.4706,0,0,1-.3711-.1572.6138.6138,0,0,1-.1074-.4863l.1318-1.1719,2.5742-.3467,1.2539-5.164a.9276.9276,0,0,1,.2559-.4043.6272.6272,0,0,1,.4375-.1563h1.5342l-.709,5.7578h4.3886l-.247,2.1289h-4.4063l-1.0058,8.2168q-.0835.6768-.1319,1.0889t-.0752.66c-.0156.165-.0273.28-.0322.3466s-.0088.1153-.0088.1485a1.7188,1.7188,0,0,0,.3965,1.2461,1.4092,1.4092,0,0,0,1.0557.4043,2.149,2.149,0,0,0,.7675-.1241,3.7793,3.7793,0,0,0,.5694-.2724,4.7282,4.7282,0,0,0,.4121-.2725.5055.5055,0,0,1,.28-.123.3244.3244,0,0,1,.2226.0654.6173.6173,0,0,1,.1406.2149l.627,1.4023a6.1771,6.1771,0,0,1-1.84,1.1133,5.6364,5.6364,0,0,1-2.07.4043,3.4933,3.4933,0,0,1-2.5166-.8741A3.4482,3.4482,0,0,1,631.4451,209.2236Z"/><path class="a" d="M646.0135,200.3135a14.2294,14.2294,0,0,1,1.4277-2.4336,7.1281,7.1281,0,0,1,1.6084-1.6172,3.9731,3.9731,0,0,1,1.7324-.709,3.3671,3.3671,0,0,1,1.8154.2715l-.5283,2.8223a3.3739,3.3739,0,0,0-3.7861.6269q-1.6421,1.4839-2.665,5.3623l-.9239,7.7383H641.823l2.0127-16.7314h1.4522a.8827.8827,0,0,1,1.0068.99Z"/><path class="a" d="M666.26,209.2891a14.7267,14.7267,0,0,1-1.65,1.4941,10.0784,10.0784,0,0,1-1.6416,1.0313,7.2417,7.2417,0,0,1-1.7491.6015,9.6732,9.6732,0,0,1-1.9716.19,6.6022,6.6022,0,0,1-2.5743-.4785,5.3333,5.3333,0,0,1-1.93-1.3613,6.1226,6.1226,0,0,1-1.2217-2.1367,8.628,8.628,0,0,1-.4287-2.8057,12.2837,12.2837,0,0,1,.2724-2.5654,11.9907,11.9907,0,0,1,.792-2.4336,10.9993,10.9993,0,0,1,1.27-2.1455,8.5314,8.5314,0,0,1,1.7158-1.707,8.059,8.059,0,0,1,2.1289-1.1309,7.4378,7.4378,0,0,1,2.4991-.4121,5.9867,5.9867,0,0,1,2.1943.3633,4.6579,4.6579,0,0,1,1.5186.9238,3.7008,3.7008,0,0,1,.8828,1.2373,3.2811,3.2811,0,0,1,.2881,1.2871,4.5266,4.5266,0,0,1-.4454,2.0049,4.1612,4.1612,0,0,1-1.6328,1.6494,12.1864,12.1864,0,0,1-3.2675,1.2793,36.0738,36.0738,0,0,1-5.3457.874q0,.1817-.0088.3545c-.0049.1162-.0078.2344-.0078.3555a5.1619,5.1619,0,0,0,.9648,3.374,3.568,3.568,0,0,0,2.9131,1.1631,5.4724,5.4724,0,0,0,1.41-.165,5.9142,5.9142,0,0,0,1.1055-.4043,4.9692,4.9692,0,0,0,.8584-.5274q.3707-.2886.6768-.5283a6.7578,6.7578,0,0,1,.5683-.4043.988.988,0,0,1,.5283-.165.7373.7373,0,0,1,.5616.28Zm-4.6534-11.7481a4.2876,4.2876,0,0,0-1.914.43,5.092,5.092,0,0,0-1.5508,1.18,7.2206,7.2206,0,0,0-1.1553,1.7656,10.5658,10.5658,0,0,0-.7422,2.1856,31.6307,31.6307,0,0,0,4.0752-.7178,10.1174,10.1174,0,0,0,2.36-.874,2.275,2.275,0,0,0,1.3525-2.1534,1.647,1.647,0,0,0-.5527-1.2041,2.2981,2.2981,0,0,0-.751-.4375A3.21,3.21,0,0,0,661.6062,197.541Z"/><path class="a" d="M668.8992,212.375l2.0127-16.7314h1.4521a.8828.8828,0,0,1,1.0069.99l-.2315,2.97a10.3112,10.3112,0,0,1,2.7149-3.126,5.2063,5.2063,0,0,1,3.0937-1.0644,2.8431,2.8431,0,0,1,2.5078,1.1631,5.7949,5.7949,0,0,1,.8086,3.3252A9.6393,9.6393,0,0,1,685.06,196.51a5.6372,5.6372,0,0,1,3.292-1.0967,3.1649,3.1649,0,0,1,3.0362,1.65,7.9415,7.9415,0,0,1,.5283,4.6689l-1.2539,10.6426h-2.9043l1.27-10.6426a6.6972,6.6972,0,0,0-.124-2.9209,1.5063,1.5063,0,0,0-1.5918-.956,3.1,3.1,0,0,0-1.4112.3545,5.1363,5.1363,0,0,0-1.3613,1.039,8.2677,8.2677,0,0,0-1.2285,1.7,13.7817,13.7817,0,0,0-1.0156,2.334V203.3l-1.0723,9.0752H678.32l1.2549-10.6426a7.1787,7.1787,0,0,0-.0664-2.9209,1.4336,1.4336,0,0,0-1.5508-.956,3.176,3.176,0,0,0-1.5264.3955,4.9863,4.9863,0,0,0-1.3857,1.1465,9.37,9.37,0,0,0-1.2129,1.832,17.6442,17.6442,0,0,0-1.0234,2.4336L671.77,212.375Z"/><path class="a" d="M701.0906,212.6064a6.5147,6.5147,0,0,1-2.5088-.4707,5.5074,5.5074,0,0,1-1.9629-1.3613,6.2676,6.2676,0,0,1-1.2871-2.1777,8.6507,8.6507,0,0,1-.4619-2.9375,11.8221,11.8221,0,0,1,.66-3.9766,10.6063,10.6063,0,0,1,1.8144-3.2588,8.709,8.709,0,0,1,2.7149-2.2021,7.1833,7.1833,0,0,1,3.3574-.8086,6.5058,6.5058,0,0,1,2.5078.47,5.5225,5.5225,0,0,1,1.9639,1.3613,6.3044,6.3044,0,0,1,1.2871,2.1788,8.614,8.614,0,0,1,.4619,2.92,11.7866,11.7866,0,0,1-.66,3.96,10.8176,10.8176,0,0,1-1.8066,3.2676,8.63,8.63,0,0,1-2.7149,2.2188A7.1723,7.1723,0,0,1,701.0906,212.6064Zm.28-2.2939a3.8321,3.8321,0,0,0,2.1865-.66,5.9172,5.9172,0,0,0,1.6826-1.7568,8.9071,8.9071,0,0,0,1.0811-2.5332,11.7059,11.7059,0,0,0,.3789-3.0029,5.5458,5.5458,0,0,0-.9151-3.4727,3.1515,3.1515,0,0,0-2.6318-1.164,3.8938,3.8938,0,0,0-2.2031.6523,5.7726,5.7726,0,0,0-1.6748,1.74,8.92,8.92,0,0,0-1.0723,2.5244,11.7074,11.7074,0,0,0-.38,3.003,5.6559,5.6559,0,0,0,.9082,3.49A3.1277,3.1277,0,0,0,701.3709,210.3125Z"/><path class="a" d="M730.493,198.334a1.0561,1.0561,0,0,1-.2637.2881.5719.5719,0,0,1-.33.0908.9264.9264,0,0,1-.5039-.1816c-.1807-.1211-.4014-.2559-.6592-.4043a5.4264,5.4264,0,0,0-.9492-.4122,4.2644,4.2644,0,0,0-1.3525-.1894,4.2092,4.2092,0,0,0-1.3536.206,3.2423,3.2423,0,0,0-1.0478.5694,2.5923,2.5923,0,0,0-.6768.85,2.3111,2.3111,0,0,0-.2392,1.0312,1.5859,1.5859,0,0,0,.5117,1.2373,4.7074,4.7074,0,0,0,1.2871.8008q.7749.3384,1.667.6514a8.5706,8.5706,0,0,1,1.666.792,4.267,4.267,0,0,1,1.2871,1.2207,3.338,3.338,0,0,1,.5117,1.9307,5.5621,5.5621,0,0,1-1.7578,4.0673,6.4171,6.4171,0,0,1-2.0459,1.2784,7.1588,7.1588,0,0,1-2.6806.4785,6.6592,6.6592,0,0,1-2.83-.5694,5.8863,5.8863,0,0,1-2.0049-1.46l.7266-1.1221a1.2352,1.2352,0,0,1,.3213-.33.8039.8039,0,0,1,.9814.1162q.2637.23.66.52a4.07,4.07,0,0,0,2.5244.7509,4.0944,4.0944,0,0,0,1.4609-.248,3.4415,3.4415,0,0,0,1.1055-.66,2.79,2.79,0,0,0,.6924-.9648,2.9433,2.9433,0,0,0,.2392-1.18,1.7747,1.7747,0,0,0-.5117-1.3369,4.1892,4.1892,0,0,0-1.2861-.8252q-.7764-.33-1.667-.6182a8.41,8.41,0,0,1-1.666-.7431,4.0483,4.0483,0,0,1-1.2872-1.18,3.28,3.28,0,0,1-.5117-1.93,5.1108,5.1108,0,0,1,.4209-2.0381,5.2689,5.2689,0,0,1,1.2129-1.7412,5.913,5.913,0,0,1,1.9219-1.2119,6.7864,6.7864,0,0,1,2.5488-.4541,6.5486,6.5486,0,0,1,2.6485.5029,6.1211,6.1211,0,0,1,1.9716,1.3613Z"/><path class="a" d="M748.033,195.66l-2.0137,16.7148h-1.4521a.94.94,0,0,1-1.0723-1.0557l.2481-3.0527a10.2132,10.2132,0,0,1-2.9786,3.2422,6.1029,6.1029,0,0,1-3.4072,1.0976,3.98,3.98,0,0,1-1.8642-.4209,3.357,3.357,0,0,1-1.3125-1.2294,5.24,5.24,0,0,1-.6846-1.9805,9.5918,9.5918,0,0,1,.0166-2.6895l1.2539-10.6259h2.9209l-1.2539,10.6259a5.4546,5.4546,0,0,0,.2392,2.9209,1.7889,1.7889,0,0,0,1.7735.9571,3.4486,3.4486,0,0,0,1.5674-.4121,6.0187,6.0187,0,0,0,1.5507-1.1719,9.9934,9.9934,0,0,0,1.3946-1.84,12.9069,12.9069,0,0,0,1.1142-2.4l1.0391-8.68Z"/><path class="a" d="M754.5828,200.1982a13.5131,13.5131,0,0,1,1.37-1.9716,9.8268,9.8268,0,0,1,1.5674-1.51,6.9043,6.9043,0,0,1,1.708-.9658,5.0251,5.0251,0,0,1,1.8066-.3379,3.9329,3.9329,0,0,1,3.3243,1.5508,7.4034,7.4034,0,0,1,1.18,4.5381,13.2527,13.2527,0,0,1-.28,2.705,13.8282,13.8282,0,0,1-.8,2.583,12.8233,12.8233,0,0,1-1.2539,2.293,9.877,9.877,0,0,1-1.6338,1.8486,7.2676,7.2676,0,0,1-1.9551,1.2286,5.6373,5.6373,0,0,1-2.2109.4462,5.09,5.09,0,0,1-2.2442-.4873,4.881,4.881,0,0,1-1.7158-1.3779l-.8916,7.293H749.699l2.7227-22.3906h1.4521a.8752.8752,0,0,1,.99.99Zm-.8906,8.5137a3.5534,3.5534,0,0,0,1.5019,1.2461,4.5263,4.5263,0,0,0,1.7813.3711,3.6977,3.6977,0,0,0,1.6172-.3633,5.0878,5.0878,0,0,0,1.3857-.9814,7.1876,7.1876,0,0,0,1.1221-1.4522,10.1556,10.1556,0,0,0,.834-1.7822,12.3666,12.3666,0,0,0,.5195-1.9629,11.3618,11.3618,0,0,0,.1816-2.0049,5.23,5.23,0,0,0-.71-2.9863,2.2889,2.2889,0,0,0-1.9961-1.0234,3.089,3.089,0,0,0-1.6006.4863,6.539,6.539,0,0,0-1.56,1.3613,11.8271,11.8271,0,0,0-1.4023,2.0791,16.4736,16.4736,0,0,0-1.13,2.6406Z"/><path class="a" d="M780.9832,209.2891a14.7179,14.7179,0,0,1-1.65,1.4941,10.0742,10.0742,0,0,1-1.6416,1.0313,7.2424,7.2424,0,0,1-1.749.6015,9.6749,9.6749,0,0,1-1.9717.19,6.6017,6.6017,0,0,1-2.5742-.4785,5.3328,5.3328,0,0,1-1.93-1.3613,6.1242,6.1242,0,0,1-1.2217-2.1367,8.6306,8.6306,0,0,1-.4287-2.8057,12.2771,12.2771,0,0,1,.2725-2.5654,11.99,11.99,0,0,1,.7919-2.4336,11,11,0,0,1,1.2706-2.1455,8.5288,8.5288,0,0,1,1.7158-1.707,8.056,8.056,0,0,1,2.1289-1.1309,7.4377,7.4377,0,0,1,2.499-.4121,5.9863,5.9863,0,0,1,2.1943.3633,4.6568,4.6568,0,0,1,1.5186.9238,3.7008,3.7008,0,0,1,.8828,1.2373,3.2811,3.2811,0,0,1,.2881,1.2871,4.5265,4.5265,0,0,1-.4453,2.0049,4.1619,4.1619,0,0,1-1.6328,1.6494,12.1873,12.1873,0,0,1-3.2676,1.2793,36.0738,36.0738,0,0,1-5.3457.874q0,.1817-.0088.3545c-.0049.1162-.0078.2344-.0078.3555a5.1625,5.1625,0,0,0,.9648,3.374,3.568,3.568,0,0,0,2.9131,1.1631,5.4727,5.4727,0,0,0,1.41-.165,5.9131,5.9131,0,0,0,1.1054-.4043,4.9653,4.9653,0,0,0,.8584-.5274q.3707-.2886.6768-.5283a6.7582,6.7582,0,0,1,.5684-.4043.9875.9875,0,0,1,.5283-.165.737.737,0,0,1,.5615.28ZM776.33,197.541a4.2877,4.2877,0,0,0-1.9141.43,5.092,5.092,0,0,0-1.5508,1.18,7.2235,7.2235,0,0,0-1.1553,1.7656,10.56,10.56,0,0,0-.7421,2.1856,31.6371,31.6371,0,0,0,4.0752-.7178,10.1181,10.1181,0,0,0,2.36-.874,2.2745,2.2745,0,0,0,1.3525-2.1534,1.647,1.647,0,0,0-.5527-1.2041,2.297,2.297,0,0,0-.751-.4375A3.21,3.21,0,0,0,776.33,197.541Z"/><path class="a" d="M787.8133,200.3135a14.2294,14.2294,0,0,1,1.4277-2.4336,7.13,7.13,0,0,1,1.6084-1.6172,3.9731,3.9731,0,0,1,1.7324-.709,3.3671,3.3671,0,0,1,1.8154.2715l-.5283,2.8223a3.3739,3.3739,0,0,0-3.7861.6269q-1.6421,1.4839-2.665,5.3623l-.9239,7.7383h-2.8711l2.0127-16.7314h1.4522a.8827.8827,0,0,1,1.0068.99Z"/><path class="a" d="M799.9744,195.66l-2.0127,16.7148H795.074l2.0127-16.7148Zm1.1221-5.2471a1.8616,1.8616,0,0,1-.1739.8008,2.3059,2.3059,0,0,1-.4619.66,2.1629,2.1629,0,0,1-.6592.4531,1.868,1.868,0,0,1-.7675.1651,1.7671,1.7671,0,0,1-.7422-.1651,1.996,1.996,0,0,1-.6358-.4531,2.3521,2.3521,0,0,1-.4375-.66,1.9636,1.9636,0,0,1-.165-.8008,2.0156,2.0156,0,0,1,.165-.8076,2.2233,2.2233,0,0,1,1.0889-1.1309,1.7138,1.7138,0,0,1,.7432-.1728,1.8607,1.8607,0,0,1,.7666.165,2.067,2.067,0,0,1,.6523.4531,2.3432,2.3432,0,0,1,.4531.6768A1.97,1.97,0,0,1,801.0965,190.4131Z"/><path class="a" d="M808.72,212.6064a6.5147,6.5147,0,0,1-2.5088-.4707,5.5074,5.5074,0,0,1-1.9629-1.3613,6.2692,6.2692,0,0,1-1.2871-2.1777,8.6507,8.6507,0,0,1-.4619-2.9375,11.8221,11.8221,0,0,1,.66-3.9766,10.6063,10.6063,0,0,1,1.8144-3.2588,8.709,8.709,0,0,1,2.7149-2.2021,7.1833,7.1833,0,0,1,3.3574-.8086,6.5058,6.5058,0,0,1,2.5078.47,5.5225,5.5225,0,0,1,1.9639,1.3613,6.3044,6.3044,0,0,1,1.2871,2.1788,8.614,8.614,0,0,1,.4619,2.92,11.7866,11.7866,0,0,1-.66,3.96A10.8176,10.8176,0,0,1,814.8,209.57a8.63,8.63,0,0,1-2.7149,2.2188A7.1723,7.1723,0,0,1,808.72,212.6064Zm.28-2.2939a3.8321,3.8321,0,0,0,2.1865-.66,5.916,5.916,0,0,0,1.6826-1.7568,8.9071,8.9071,0,0,0,1.0811-2.5332,11.7059,11.7059,0,0,0,.3789-3.0029,5.5465,5.5465,0,0,0-.915-3.4727,3.1518,3.1518,0,0,0-2.6319-1.164,3.8938,3.8938,0,0,0-2.2031.6523,5.7726,5.7726,0,0,0-1.6748,1.74,8.92,8.92,0,0,0-1.0723,2.5244,11.7074,11.7074,0,0,0-.38,3.003,5.6559,5.6559,0,0,0,.9082,3.49A3.1277,3.1277,0,0,0,809,210.3125Z"/><path class="a" d="M823.8162,200.3135a14.2294,14.2294,0,0,1,1.4277-2.4336,7.13,7.13,0,0,1,1.6084-1.6172,3.9736,3.9736,0,0,1,1.7324-.709,3.3673,3.3673,0,0,1,1.8155.2715l-.5283,2.8223a3.3741,3.3741,0,0,0-3.7862.6269q-1.6421,1.4839-2.665,5.3623l-.9238,7.7383h-2.8711l2.0127-16.7314h1.4521a.8827.8827,0,0,1,1.0068.99Z"/><path class="a" d="M664.1463,239.9131a14.2294,14.2294,0,0,1,1.4277-2.4336,7.13,7.13,0,0,1,1.6084-1.6172,3.9743,3.9743,0,0,1,1.7324-.709,3.3674,3.3674,0,0,1,1.8155.2715l-.5284,2.8223a3.374,3.374,0,0,0-3.7861.6269q-1.642,1.484-2.665,5.3623l-.9239,7.7383h-2.8711l2.0127-16.7314h1.4522a.8827.8827,0,0,1,1.0068.99Z"/><path class="a" d="M677.4627,252.2061a6.5166,6.5166,0,0,1-2.5088-.4707,5.5089,5.5089,0,0,1-1.9629-1.3614,6.2676,6.2676,0,0,1-1.2871-2.1777,8.6507,8.6507,0,0,1-.4619-2.9375,11.8245,11.8245,0,0,1,.66-3.9766,10.6086,10.6086,0,0,1,1.8145-3.2588,8.7112,8.7112,0,0,1,2.7148-2.2021,7.1837,7.1837,0,0,1,3.3575-.8086,6.5061,6.5061,0,0,1,2.5078.47,5.5211,5.5211,0,0,1,1.9638,1.3614,6.303,6.303,0,0,1,1.2871,2.1787,8.6115,8.6115,0,0,1,.462,2.92,11.7862,11.7862,0,0,1-.66,3.96,10.8176,10.8176,0,0,1-1.8066,3.2676,8.6312,8.6312,0,0,1-2.7149,2.2188A7.1727,7.1727,0,0,1,677.4627,252.2061Zm.28-2.294a3.8328,3.8328,0,0,0,2.1865-.66,5.9188,5.9188,0,0,0,1.6826-1.7569,8.9069,8.9069,0,0,0,1.081-2.5332,11.7015,11.7015,0,0,0,.379-3.0029,5.5458,5.5458,0,0,0-.9151-3.4727,3.1516,3.1516,0,0,0-2.6318-1.164,3.8936,3.8936,0,0,0-2.2031.6523,5.7752,5.7752,0,0,0-1.6749,1.74,8.9189,8.9189,0,0,0-1.0722,2.5245,11.7061,11.7061,0,0,0-.38,3.0029,5.6552,5.6552,0,0,0,.9082,3.49A3.1274,3.1274,0,0,0,677.743,249.9121Z"/><path class="a" d="M699.1433,237.9336a1.0544,1.0544,0,0,1-.2636.2881.5719.5719,0,0,1-.33.0908.9256.9256,0,0,1-.5039-.1816c-.1807-.1211-.4014-.2559-.6592-.4043a5.4191,5.4191,0,0,0-.9492-.4121,4.2616,4.2616,0,0,0-1.3526-.19,4.2062,4.2062,0,0,0-1.3535.2061,3.2422,3.2422,0,0,0-1.0478.5693,2.5923,2.5923,0,0,0-.6768.85,2.31,2.31,0,0,0-.2392,1.0313,1.5861,1.5861,0,0,0,.5117,1.2373,4.7072,4.7072,0,0,0,1.2871.8007q.7749.3384,1.667.6514a8.5706,8.5706,0,0,1,1.666.792,4.267,4.267,0,0,1,1.2871,1.2207,3.338,3.338,0,0,1,.5117,1.9307,5.5621,5.5621,0,0,1-1.7578,4.0673,6.4171,6.4171,0,0,1-2.0459,1.2784,7.1588,7.1588,0,0,1-2.6806.4785,6.6592,6.6592,0,0,1-2.83-.5694,5.8853,5.8853,0,0,1-2.0049-1.46l.7266-1.1221a1.2364,1.2364,0,0,1,.3212-.33.804.804,0,0,1,.9815.1162c.1758.1534.3965.3272.66.52a4.0713,4.0713,0,0,0,2.5245.751,4.0943,4.0943,0,0,0,1.4609-.2481,3.4431,3.4431,0,0,0,1.1055-.66,2.7909,2.7909,0,0,0,.6924-.9649,2.9433,2.9433,0,0,0,.2392-1.18,1.7747,1.7747,0,0,0-.5117-1.3369,4.1892,4.1892,0,0,0-1.2861-.8252q-.7764-.33-1.667-.6182a8.4134,8.4134,0,0,1-1.6661-.7431,4.049,4.049,0,0,1-1.2871-1.18,3.279,3.279,0,0,1-.5117-1.93,5.1108,5.1108,0,0,1,.4209-2.0381,5.2689,5.2689,0,0,1,1.2129-1.7412,5.9163,5.9163,0,0,1,1.9219-1.2119,6.7864,6.7864,0,0,1,2.5488-.4541,6.5486,6.5486,0,0,1,2.6485.5029,6.12,6.12,0,0,1,1.9716,1.3614Z"/><path class="a" d="M714.0926,248.9717a15.1025,15.1025,0,0,1-1.6338,1.5674,7.9089,7.9089,0,0,1-1.5508.998,6.2257,6.2257,0,0,1-1.6084.5195,10.1436,10.1436,0,0,1-1.791.1495,6.259,6.259,0,0,1-2.5655-.4952,5.073,5.073,0,0,1-1.8642-1.3945,6.1435,6.1435,0,0,1-1.1387-2.1611,9.4294,9.4294,0,0,1-.3877-2.78,12.0078,12.0078,0,0,1,.6348-3.8945,10.9436,10.9436,0,0,1,1.7744-3.3,8.8162,8.8162,0,0,1,2.7139-2.294,7.086,7.086,0,0,1,3.44-.8574,5.9766,5.9766,0,0,1,2.7881.5859,5.8173,5.8173,0,0,1,1.9639,1.7071l-.9239,1.1054a1.0157,1.0157,0,0,1-.2558.2149.6186.6186,0,0,1-.3213.083.67.67,0,0,1-.4541-.207,5.8949,5.8949,0,0,0-.586-.462,4.19,4.19,0,0,0-.8994-.4619,3.8838,3.8838,0,0,0-1.3779-.206,4.0208,4.0208,0,0,0-2.1445.6191,6.0434,6.0434,0,0,0-1.7657,1.69,8.6334,8.6334,0,0,0-1.1963,2.5411,11.0167,11.0167,0,0,0-.4375,3.1513,6.925,6.925,0,0,0,.2315,1.8565,3.9644,3.9644,0,0,0,.6934,1.4189,3.1787,3.1787,0,0,0,1.13.9082,3.5637,3.5637,0,0,0,1.56.3213,4.5987,4.5987,0,0,0,1.8555-.33,6.2192,6.2192,0,0,0,1.2627-.7177,11.0448,11.0448,0,0,0,.8662-.7178,1.0461,1.0461,0,0,1,.7012-.33.7354.7354,0,0,1,.5615.2813Z"/><path class="a" d="M726.8963,247.5693a14.3161,14.3161,0,0,1-1.2793,1.9141,8.86,8.86,0,0,1-1.4522,1.46,6.3314,6.3314,0,0,1-1.6162.9326,4.8242,4.8242,0,0,1-1.7578.33,4.0947,4.0947,0,0,1-1.7978-.3887,3.74,3.74,0,0,1-1.378-1.1377,5.5432,5.5432,0,0,1-.8828-1.8486,9.173,9.173,0,0,1-.3135-2.5157,11.3574,11.3574,0,0,1,.3711-2.8965,11.78,11.78,0,0,1,2.6973-4.9658,11.0746,11.0746,0,0,1,2.1367-1.8154,10.1448,10.1448,0,0,1,2.5332-1.1875,9.4723,9.4723,0,0,1,2.8379-.4209,12.4051,12.4051,0,0,1,2.0869.1728,8.6935,8.6935,0,0,1,2.0049.6026l-1.9961,16.17h-1.5185a.8919.8919,0,0,1-.7832-.2969,1.2418,1.2418,0,0,1-.2061-.7265Zm1.122-10.2636a4.77,4.77,0,0,0-.7177-.1065q-.356-.0249-.7012-.0254a5.7685,5.7685,0,0,0-1.9141.3223,6.7742,6.7742,0,0,0-1.7324.8994,7.6921,7.6921,0,0,0-1.4687,1.377,9.0183,9.0183,0,0,0-1.1309,1.7578,9.96,9.96,0,0,0-.7334,2.0371,9.2839,9.2839,0,0,0-.2646,2.22q0,3.9771,2.541,3.9766a2.8812,2.8812,0,0,0,1.584-.503,6.1237,6.1237,0,0,0,1.4765-1.4033,11.7856,11.7856,0,0,0,1.2959-2.1279,19.9682,19.9682,0,0,0,1.0557-2.6982Z"/><path class="a" d="M749.4842,227.67l-2.9873,24.3047h-1.5342a.8689.8689,0,0,1-.7754-.2969,1.283,1.283,0,0,1-.1983-.7265l.3135-3.5137a13.1961,13.1961,0,0,1-1.3691,1.9629,10.2038,10.2038,0,0,1-1.56,1.5019,6.7653,6.7653,0,0,1-1.6992.9649,4.9684,4.9684,0,0,1-1.79.3389,3.95,3.95,0,0,1-3.3331-1.56,7.3767,7.3767,0,0,1-1.1884-4.5293,13.2646,13.2646,0,0,1,.2812-2.7061,13.9944,13.9944,0,0,1,.8-2.5908,12.768,12.768,0,0,1,1.2539-2.3017,9.5341,9.5341,0,0,1,1.6416-1.84,7.564,7.564,0,0,1,1.9551-1.2207,5.5758,5.5758,0,0,1,2.2031-.4453,5.14,5.14,0,0,1,2.252.4863,4.8807,4.8807,0,0,1,1.7246,1.378l1.1387-9.2071Zm-4.2569,11.2364a3.3984,3.3984,0,0,0-1.51-1.2452,4.7727,4.7727,0,0,0-1.7911-.3554,3.8174,3.8174,0,0,0-2.3427.7763,6.8152,6.8152,0,0,0-1.7735,2.0039,10.4928,10.4928,0,0,0-1.1308,2.7481,11.806,11.806,0,0,0-.3955,2.9863,5.3156,5.3156,0,0,0,.7011,2.9942,2.2781,2.2781,0,0,0,2.0049,1.0312,3.059,3.059,0,0,0,1.6006-.4941,6.63,6.63,0,0,0,1.5586-1.378,12.1144,12.1144,0,0,0,1.4033-2.0879,16.5952,16.5952,0,0,0,1.13-2.64Z"/><path class="a" d="M757.1072,252.2061a6.5166,6.5166,0,0,1-2.5088-.4707,5.5089,5.5089,0,0,1-1.9629-1.3614,6.2676,6.2676,0,0,1-1.2871-2.1777,8.6507,8.6507,0,0,1-.4619-2.9375,11.8221,11.8221,0,0,1,.66-3.9766,10.6063,10.6063,0,0,1,1.8144-3.2588,8.71,8.71,0,0,1,2.7149-2.2021,7.1833,7.1833,0,0,1,3.3574-.8086,6.5058,6.5058,0,0,1,2.5078.47,5.5215,5.5215,0,0,1,1.9639,1.3614,6.303,6.303,0,0,1,1.2871,2.1787,8.614,8.614,0,0,1,.4619,2.92,11.7862,11.7862,0,0,1-.66,3.96,10.8176,10.8176,0,0,1-1.8066,3.2676,8.63,8.63,0,0,1-2.7149,2.2188A7.1724,7.1724,0,0,1,757.1072,252.2061Zm.28-2.294a3.8328,3.8328,0,0,0,2.1865-.66,5.9176,5.9176,0,0,0,1.6826-1.7569,8.9071,8.9071,0,0,0,1.0811-2.5332,11.7059,11.7059,0,0,0,.3789-3.0029,5.5458,5.5458,0,0,0-.9151-3.4727,3.1515,3.1515,0,0,0-2.6318-1.164,3.8938,3.8938,0,0,0-2.2031.6523,5.7737,5.7737,0,0,0-1.6748,1.74,8.919,8.919,0,0,0-1.0723,2.5245,11.7061,11.7061,0,0,0-.38,3.0029,5.6559,5.6559,0,0,0,.9082,3.49A3.1274,3.1274,0,0,0,757.3875,249.9121Z"/><polyline class="b" points="160.89 457.968 161.861 457.386 162.832 456.609 163.22 455.833 163.608 455.056 163.608 454.085 163.22 453.309 162.637 452.532 161.861 451.756 160.89 451.173 159.531 450.591 158.172 450.397 156.813 450.203 155.26 450.203 153.901 450.203 152.348 450.591 151.183 450.979 150.018 451.562"/><polygon class="b" points="191.953 429.235 192.147 430.012 192.535 430.983 193.118 431.759 194.088 432.342 195.253 432.924 196.418 433.312 197.971 433.506 199.33 433.701 200.883 433.701 202.242 433.506 203.601 433.118 204.766 432.73 205.737 431.953 206.708 431.371 207.096 430.594 207.484 429.624 207.484 428.847 207.096 428.07 206.708 427.1 205.737 426.517 204.766 425.935 203.601 425.352 202.242 424.964 200.883 424.77 199.33 424.77 197.971 424.964 196.418 425.158 195.253 425.547 194.088 426.129 193.118 426.906 192.535 427.488 192.147 428.459 191.953 429.235"/><polygon class="b" points="235.829 403.997 236.023 404.773 236.411 405.55 236.994 406.327 237.964 406.909 239.129 407.491 240.294 408.074 241.847 408.268 243.206 408.462 244.759 408.268 246.118 408.074 247.477 407.686 248.642 407.297 249.613 406.715 250.584 405.938 250.972 405.162 251.36 404.385 251.36 403.414 250.972 402.638 250.584 401.861 249.613 401.085 248.642 400.502 247.477 400.114 246.118 399.726 244.759 399.532 243.206 399.337 241.847 399.532 240.294 399.92 239.129 400.308 237.964 400.891 236.994 401.473 236.411 402.25 236.023 403.026 235.829 403.997"/><polygon class="b" points="279.705 378.564 279.899 379.341 280.287 380.312 281.064 380.894 281.84 381.671 283.005 382.253 284.364 382.641 285.723 382.835 287.082 383.03 288.635 383.03 289.994 382.835 291.353 382.447 292.518 381.865 293.683 381.282 294.46 380.7 294.848 379.729 295.236 378.953 295.236 378.176 294.848 377.205 294.46 376.429 293.683 375.846 292.518 375.264 291.353 374.681 289.994 374.293 288.635 374.099 287.082 374.099 285.723 374.293 284.364 374.487 283.005 374.876 281.84 375.458 281.064 376.04 280.287 376.817 279.899 377.788 279.705 378.564"/><polygon class="b" points="323.581 353.132 323.775 354.102 324.163 354.879 324.94 355.656 325.716 356.238 326.881 356.82 328.24 357.209 329.599 357.597 330.958 357.597 332.511 357.597 333.87 357.403 335.229 357.015 336.394 356.626 337.559 356.044 338.336 355.267 338.918 354.491 339.112 353.714 339.112 352.743 338.918 351.967 338.336 351.19 337.559 350.414 336.394 349.831 335.229 349.249 333.87 349.055 332.511 348.861 330.958 348.667 329.599 348.861 328.24 349.055 326.881 349.637 325.716 350.026 324.94 350.802 324.163 351.579 323.775 352.355 323.581 353.132"/><polygon class="b" points="367.457 327.893 367.651 328.67 368.039 329.447 368.816 330.223 369.592 331 370.757 331.582 372.116 331.97 373.475 332.164 374.834 332.359 376.387 332.359 377.746 332.164 379.105 331.776 380.27 331.194 381.435 330.611 382.212 329.835 382.794 329.058 382.988 328.282 382.988 327.505 382.794 326.534 382.212 325.758 381.435 325.175 380.27 324.399 379.105 324.011 377.746 323.622 376.387 323.428 374.834 323.428 373.475 323.428 372.116 323.816 370.757 324.205 369.592 324.787 368.816 325.37 368.039 326.146 367.651 326.923 367.457 327.893"/><polygon class="b" points="411.333 302.461 411.527 303.432 411.915 304.208 412.692 304.985 413.468 305.567 414.633 306.15 415.992 306.538 417.351 306.926 418.71 306.926 420.263 306.926 421.622 306.732 422.981 306.344 424.34 305.955 425.311 305.373 426.088 304.596 426.67 303.82 426.864 302.849 426.864 302.073 426.67 301.296 426.088 300.519 425.311 299.743 424.34 299.16 422.981 298.578 421.622 298.19 420.263 297.996 418.71 297.996 417.351 298.19 415.992 298.384 414.633 298.772 413.468 299.355 412.692 300.131 411.915 300.908 411.527 301.684 411.333 302.461"/><polygon class="b" points="455.403 277.222 455.403 277.999 455.791 278.776 456.568 279.552 457.538 280.329 458.509 280.911 459.868 281.299 461.227 281.494 462.78 281.688 464.139 281.688 465.692 281.494 466.857 281.105 468.216 280.523 469.187 279.94 469.964 279.164 470.546 278.387 470.74 277.611 470.74 276.834 470.546 275.863 469.964 275.087 469.187 274.31 468.216 273.728 466.857 273.34 465.692 272.951 464.139 272.757 462.78 272.757 461.227 272.757 459.868 273.145 458.509 273.534 457.538 274.116 456.568 274.699 455.791 275.475 455.403 276.252 455.403 277.222"/><polygon class="b" points="499.279 251.79 499.279 252.761 499.667 253.537 500.444 254.314 501.414 254.896 502.385 255.479 503.744 255.867 505.103 256.255 506.656 256.255 508.015 256.255 509.568 256.061 510.927 255.673 512.092 255.284 513.063 254.508 513.84 253.925 514.422 253.149 514.616 252.178 514.616 251.402 514.422 250.625 513.84 249.848 513.063 249.072 512.092 248.489 510.927 247.907 509.568 247.519 508.015 247.325 506.656 247.325 505.103 247.519 503.744 247.713 502.385 248.101 501.414 248.684 500.444 249.46 499.667 250.237 499.279 251.013 499.279 251.79"/><polyline class="b" points="160.89 457.968 161.278 460.298 161.084 462.239 160.89 463.598 161.084 464.957 161.084 465.54 161.084 465.928 161.084 468.646 160.696 474.276 160.89 477.577 161.278 481.459 160.89 484.76 161.278 486.507 161.473 487.284 161.473 487.672 161.084 490.196 160.89 506.504 160.89 507.474 160.89 508.833 160.89 516.599 160.89 519.899 161.278 531.936 161.278 534.072 161.667 537.76 161.278 540.284 161.084 543.002 161.278 544.749 160.89 545.332 159.725 546.691 157.978 547.079 155.454 546.497 155.066 546.497 154.484 546.497 154.095 546.497 153.901 545.914 153.707 545.138 152.93 544.361 151.766 543.779 151.183 542.42 150.601 539.508 150.212 538.925 150.018 537.372 149.824 536.401 150.018 536.013 150.212 531.16 150.018 517.376 150.212 514.658 150.212 513.104 149.824 510.192 149.63 507.863 149.824 505.727 149.824 498.156 150.018 489.225 150.407 469.228 150.407 467.093 150.212 465.54 150.018 463.792 149.824 458.162 149.824 453.309 150.018 451.562"/><polyline class="c" points="294.071 534.46 297.954 563.193 295.819 578.336 290.965 598.527 290.965 614.252 294.071 622.794 291.353 636.384 294.071 650.363 294.071 661.234"/><polyline class="c" points="1.5 492.137 11.984 496.797 17.42 501.456 22.273 502.621 25.185 507.474 37.999 511.94 49.841 522.423 54.695 524.365 60.907 529.995 79.351 535.042 84.398 537.76 84.981 542.032 94.494 550.38 116.238 558.534 134.681 573.288 147.689 576.589 158.172 581.248 163.802 585.907 168.656 587.267 171.568 592.12 184.187 596.391 196.224 606.875 200.883 608.816 207.29 614.446 225.539 619.494 230.781 622.406 231.169 626.677 240.877 634.831 262.62 642.985 280.87 657.74 294.071 661.234"/><polyline class="c" points="659.834 323.04 663.717 351.967 661.387 367.11 656.728 387.107 656.728 402.832 659.834 411.568 656.922 425.158 659.834 439.136 659.834 449.814"/><polyline class="c" points="294.071 661.234 331.735 634.831 394.248 603.186 442.395 578.918 475.982 553.098 493.455 544.944 508.404 537.372 571.111 506.31 621.006 472.335 659.834 449.814"/><polyline class="c" points="191.953 167.532 197.971 171.027 197.389 169.474 196.418 167.338 192.341 158.214 198.165 166.756 198.748 168.697 198.554 160.932 199.33 168.309 201.854 150.448 200.495 166.368 201.66 171.027 204.96 160.738 202.048 172.192 207.678 174.716"/><polyline class="c" points="263.203 131.422 269.415 130.063 265.532 125.792 261.65 123.657 270.58 126.18 271.745 121.909 273.686 129.287 276.987 111.814 278.152 121.521 278.928 127.539 286.694 126.569"/><polyline class="c" points="143.612 226.551 149.63 230.24 149.048 228.493 148.271 226.357 144.194 217.233 149.824 225.969 150.407 227.91 150.407 219.951 150.989 227.328 153.513 209.661 152.154 225.581 153.319 230.24 156.619 219.757 153.901 231.405 159.531 233.735"/><polyline class="c" points="214.862 190.441 221.268 189.276 217.191 185.005 213.308 182.676 222.239 185.393 223.404 180.928 225.345 188.5 228.84 170.833 230.005 180.54 230.781 186.558 238.547 185.588"/><polyline class="c" points="75.08 207.72 81.292 211.408 80.516 209.661 79.739 207.526 75.662 198.401 81.486 207.137 82.069 209.079 81.875 201.119 82.457 208.496 85.175 190.829 83.816 206.749 84.981 211.408 88.281 201.119 85.369 212.573 90.999 214.903"/><polyline class="c" points="146.33 171.609 152.736 170.445 148.853 166.173 144.971 163.844 153.707 166.562 155.066 162.096 157.007 169.668 160.308 152.195 161.473 161.708 162.249 167.727 170.015 166.95"/><polyline class="c" points="307.273 76.674 313.291 80.169 312.709 78.616 311.932 76.48 307.855 67.355 313.485 75.898 314.068 78.033 314.068 70.073 314.65 77.451 317.174 59.784 315.815 75.704 316.98 80.169 320.28 69.879 317.562 81.334 323.193 83.858"/><polyline class="c" points="378.523 40.564 384.93 39.399 380.853 34.934 376.97 32.798 385.9 35.322 387.259 31.051 389.007 38.623 392.501 20.956 393.666 30.663 394.442 36.681 402.208 35.71"/><polyline class="c" points="303.196 151.807 309.408 155.496 308.632 153.943 307.855 151.613 303.778 142.682 309.603 151.225 310.185 153.166 309.991 145.206 310.573 152.778 313.291 134.917 311.932 150.836 313.097 155.496 316.398 145.206 313.485 156.661 319.116 158.99"/><polyline class="c" points="374.446 115.891 380.853 114.532 376.97 110.261 373.087 107.931 381.823 110.649 383.182 106.378 385.124 113.755 388.424 96.283 389.589 105.99 390.365 112.008 398.131 111.037"/><polyline class="c" points="197.777 133.169 203.795 136.664 203.213 135.111 202.436 132.781 198.36 123.851 203.99 132.393 204.572 134.334 204.572 126.374 205.154 133.946 207.678 116.085 206.319 132.005 207.484 136.664 210.785 126.374 208.067 137.829 213.697 140.353"/><polyline class="c" points="269.027 97.059 275.434 95.7 271.357 91.429 267.474 89.293 276.404 91.817 277.763 87.546 279.511 94.924 283.005 77.451 284.17 87.158 284.947 93.176 292.712 92.206"/><polyline class="c" points="342.024 101.136 348.237 104.631 347.46 103.077 346.684 100.942 342.607 91.817 348.431 100.554 349.013 102.495 348.819 94.535 349.402 101.913 351.925 84.246 350.761 100.165 351.925 104.825 355.032 94.341 352.314 105.99 357.944 108.319"/><polyline class="c" points="413.274 65.026 419.681 63.861 415.798 59.59 411.721 57.26 420.652 59.978 422.011 55.513 423.758 63.084 427.252 45.417 428.417 55.125 429.194 61.143 436.959 60.172"/><polyline class="c" points="498.891 230.24 133.128 441.466 155.843 455.639 163.802 459.133 168.656 460.492 171.568 465.346 184.187 469.617 196.224 480.1 200.883 482.236 207.29 487.672 225.539 492.72 230.781 495.632 231.169 499.903 240.877 508.057 242.818 508.833"/><polyline class="c" points="498.891 230.24 523.935 243.248 529.565 247.907 534.224 249.072 537.331 253.925 549.95 258.391 561.987 268.874 566.646 270.816 572.859 276.446 591.302 281.494 595.961 284.017"/><polyline class="c" points="498.891 230.24 501.22 203.255 500.25 186.947 499.279 164.62 501.026 156.272 501.026 155.107 500.25 151.03 498.891 142.682 500.055 113.949 499.667 94.729"/><polyline class="c" points="294.071 534.46 294.071 517.57 331.735 491.166 394.248 459.715 442.395 435.254 475.982 409.433 493.455 401.279 508.404 393.707 571.111 362.839 621.006 328.67 659.834 306.15"/><polyline class="c" points="242.818 488.06 280.676 461.657 342.995 430.012 391.142 405.744 424.729 379.729 442.201 371.769 457.344 364.004 519.858 333.135 569.752 299.16 608.581 276.64"/><polyline class="c" points="242.818 488.06 242.236 491.749 243.4 494.661 242.624 499.126 242.818 504.95 242.818 508.833"/><polyline class="c" points="242.818 488.06 262.62 499.32 280.87 514.075 294.071 517.57"/><polyline class="c" points="242.818 488.06 262.62 499.32 280.87 514.075 294.071 517.57"/><polyline class="c" points="608.581 276.64 628.383 288.094 646.632 302.849 659.834 306.15"/><polyline class="c" points="498.891 230.24 501.22 203.255 500.25 186.947 499.279 164.62 501.026 156.272 501.026 155.107 500.25 151.03 498.891 142.682 500.055 113.949 499.667 94.729"/><path class="c" d="M659.834,323.04V306.15M494.2312,544.5553l27.9564-27.9563m-209.09,29.8978L342.995,516.599m-209.09-149.2949,14.3665-14.3665m388.6714,59.0191L566.84,382.253m-209.09,209.09,29.8978-29.8978M178.7512,591.3435l29.7037-29.8978M23.6321,387.8831l5.63-5.63m283.835,209.09,74.55-74.7445M148.271,576.977l60.1839-60.378m-74.55-104.6423,14.9489-14.949M15.4782,351.19l13.784-13.7841"/><polyline class="c" points="289.8 480.1 296.013 483.595 295.43 482.042 294.46 479.906 290.383 470.782 296.207 479.324 296.789 481.265 296.595 473.5 297.372 480.877 299.896 463.016 298.537 479.13 299.701 483.595 303.002 473.305 300.09 484.76 305.72 487.284"/><polyline class="c" points="361.244 443.99 367.457 442.631 363.574 438.36 359.691 436.224 368.622 438.748 369.786 434.477 371.728 441.854 375.028 424.382 376.193 434.089 376.97 440.107 384.735 439.136"/><polyline class="c" points="449.579 405.356 455.597 408.85 455.015 407.297 454.238 405.162 450.161 396.037 455.985 404.773 456.374 406.715 456.374 398.755 456.956 406.132 459.48 388.466 458.121 404.385 459.48 409.045 462.586 398.561 459.868 410.209 465.498 412.539"/><polyline class="c" points="520.829 369.246 527.235 368.081 523.158 363.81 519.275 361.48 528.206 364.198 529.565 359.733 531.312 367.304 534.807 349.637 535.972 359.344 536.748 365.363 544.514 364.392"/><polyline class="c" points="488.407 354.685 494.425 358.179 493.843 356.626 492.872 354.491 488.795 345.366 494.62 353.908 495.202 355.85 495.008 347.89 495.784 355.461 498.308 337.6 496.949 353.52 498.114 358.179 501.414 347.89 498.697 359.344 504.132 361.868"/><polyline class="c" points="559.657 318.575 565.869 317.216 561.987 312.944 558.104 310.809 567.034 313.333 568.199 309.062 570.141 316.439 573.635 298.966 574.8 308.673 575.382 314.692 583.342 313.721"/><polyline class="c" points="133.905 304.014 171.762 283.629 225.151 253.149 276.21 223.639 312.903 202.478 328.24 193.353 346.684 183.064 403.761 150.06 459.092 118.026 499.667 94.729"/><polyline class="c" points="133.128 441.466 135.458 414.481 134.487 398.173 133.71 375.846 135.264 367.498 135.264 366.333 134.487 362.451 133.128 354.102 134.293 325.175 133.905 304.014"/><polyline class="c" points="2.277 227.91 12.566 232.57 18.196 237.229 23.05 238.394 25.962 243.248 38.581 247.713 50.618 258.197 55.471 260.138 61.684 265.768 79.933 270.816 85.175 273.534 85.563 277.805 95.27 286.153 117.014 294.307 121.674 301.102 133.905 304.014"/><polyline class="c" points="367.845 16.685 378.329 21.15 383.959 26.003 388.618 27.168 391.724 32.022 404.344 36.487 416.38 46.776 421.04 48.912 427.447 54.348 445.696 59.396 450.938 62.308 451.326 66.579 461.033 74.733 482.777 83.081 492.096 92.594 499.667 94.729"/><polyline class="c" points="367.845 16.685 335.812 9.89 331.929 27.168 322.998 29.498 313.291 31.828 303.584 40.37 302.225 60.755 284.752 74.733 245.148 90.07 174.868 110.067 165.938 116.473 166.132 134.723 139.729 160.932 22.856 184.229 1.5 227.716 8.489 259.167 32.757 299.16 31.98 310.226 26.933 314.886 17.225 323.234 13.925 337.795 17.031 365.363 25.379 393.902 41.881 423.023 42.464 448.261 29.651 460.88 7.324 471.946 1.5 492.137"/><polyline class="c" points="379.299 72.015 385.512 70.85 381.629 66.385 377.746 64.249 386.677 66.773 387.842 62.502 389.783 70.073 393.084 52.407 394.442 62.114 395.025 68.132 402.791 67.161"/><path class="c" d="M420.6516,213.9323l23.8794-23.8794m-164.05,164.05,20.579-20.7732m-167.1559,23.88,23.8794-23.88m298.59-83.675,23.8794-23.8794M313.0972,249.6543l23.8794-23.8794m-167.35,167.35,23.8794-23.8794M420.6516,249.6543l59.6014-59.6014M277.181,249.6543,300.09,226.7456M133.9045,393.1249l59.6015-59.7956"/><path class="b" d="M420.2423,271.39l-1.3149-151.9529-2.1863.0189L418.056,271.409"/><path class="b" d="M379.2423,243.39,377.9274,91.4372l-2.1863.0189L377.056,243.409"/><path class="b" d="M464.2423,276.39l-1.3149-151.9529-2.1863.0189L462.056,276.409"/><circle class="d" cx="506.5369" cy="108" r="18"/><path class="b" d="M508.2423,255.39l-1.3149-151.9529-2.1863.0189L506.056,255.409"/><path class="b" d="M686.8755,178.5l.3751-145.2822a3.633,3.633,0,0,1,3.9074-3.6157c4.7084.3581,12.939.238,20.4861.238,7.4878,0,15.65-.05,20.3777-.53a3.6328,3.6328,0,0,1,4,3.6262L735.6476,179.5"/><path class="e" d="M736.2183,140.2376,686.62,154.936a.9024.9024,0,0,1-.614-.0173l-6.3065-2.7321c-.5713-.2491-.5694-1.1033.0039-1.6879l6.3278-6.4358a1.4443,1.4443,0,0,1,.6149-.3776L736.24,129.2981a.9248.9248,0,0,1,.6174.017l6.3088,2.6472c.57.2374.5641,1.0622-.0109,1.6307l-6.3253,6.2722A1.4788,1.4788,0,0,1,736.2183,140.2376Z"/><path class="e" d="M736.2713,117.9745l-49.5986,14.0679a.9038.9038,0,0,1-.6139-.0252l-6.3066-2.8122c-.5713-.2563-.5693-1.11.0039-1.6877l6.3279-6.3553a1.4216,1.4216,0,0,1,.6148-.37l49.5938-13.7566a.9264.9264,0,0,1,.6174.0248l6.3089,2.7274c.57.2446.5641,1.0692-.0109,1.63l-6.3253,6.1916A1.4545,1.4545,0,0,1,736.2713,117.9745Z"/><path class="e" d="M736.3244,95.7128,686.7258,109.15a.9059.9059,0,0,1-.6139-.0329l-6.3066-2.8922c-.5713-.2636-.5693-1.1177.0039-1.6877l6.3278-6.2747a1.3981,1.3981,0,0,1,.6149-.3619l49.5938-13.1261a.9285.9285,0,0,1,.6174.0326l6.3089,2.8074c.5695.2519.564,1.0764-.0109,1.63l-6.3254,6.1111A1.4316,1.4316,0,0,1,736.3244,95.7128Z"/><path class="e" d="M736.3775,73.4524,686.7789,86.2591a.9083.9083,0,0,1-.6139-.0408l-6.3066-2.9723c-.5713-.2708-.5693-1.1248.0039-1.6875l6.3278-6.1941a1.376,1.376,0,0,1,.6149-.3541l49.5938-12.4956a.93.93,0,0,1,.6174.0405l6.3088,2.8875c.57.2591.5641,1.0835-.0109,1.63l-6.3253,6.0305A1.4089,1.4089,0,0,1,736.3775,73.4524Z"/><path class="e" d="M736.4306,51.1933,686.832,63.3694a.91.91,0,0,1-.614-.0486l-6.3065-3.0522c-.5713-.2781-.5694-1.1321.0039-1.6875l6.3278-6.1135a1.3533,1.3533,0,0,1,.6148-.3463l49.5938-11.8651a.9332.9332,0,0,1,.6174.0484l6.3089,2.9675c.57.2664.5641,1.0907-.0109,1.63l-6.3253,5.95A1.3858,1.3858,0,0,1,736.4306,51.1933Z"/><circle class="f" cx="711.5369" cy="92" r="91"/><line class="f" x1="524.5369" y1="108" x2="620.5369" y2="97"/></svg>