<svg xmlns="http://www.w3.org/2000/svg" viewBox="0 0 667.8347 654.6799"><defs><style>.a,.b,.d{fill:none;}.a,.b,.c{stroke:#d91519;}.a,.b,.c,.d{stroke-linecap:round;stroke-linejoin:round;stroke-width:3px;}.b,.c{fill-rule:evenodd;}.c{fill:#d91519;}.d{stroke:#606060;}</style></defs><title>3</title><polyline class="a" points="136.696 434.842 159.558 448.857 167.459 452.287"/><polyline class="a" points="173.611 455.732 175.164 458.342 182.4 460.685"/><polyline class="a" points="192.508 466.501 199.999 472.996 204.826 474.922 211.214 480.333 222.393 483.516"/><polyline class="a" points="234.915 490.405 235.151 492.371 244.843 500.595 247.035 501.232"/><line class="a" x1="180.35" y1="425.9367" x2="180.5687" y2="425.9348"/><polyline class="a" points="159.837 531.724 159.839 531.943 160.06 532.159 160.28 532.376 160.499 532.374 160.718 532.372 160.936 532.37 161.155 532.369 161.374 532.367 161.592 532.365 161.59 532.146 161.809 532.144 161.807 531.926 162.024 531.705"/><path class="a" d="M510.4191,313.535l.2186-.0019m-40.84,5.6011.2186-.0019m-24.459,3.4914.2187-.0018M429.3973,324.95l.2186-.0018m-40.84,5.6011.2187-.0019m-24.459,3.4914.2187-.0019m-16.3789,2.3283.2186-.0019m-65.08,9.0907.2186-.0019m-16.3807,2.11.2186-.0019m97.6373-36.9227.2186-.0019M567.6539,282.21l.2186-.0019m-24.6776,3.4934.2186-.0019m-16.16,2.3264.2186-.0019m-40.84,5.6011.2187-.0019m-24.6777,3.4934.2187-.0019m-16.16,2.3263.2186-.0019M405.61,305.04l.2186-.0019m-24.6776,3.4934.2186-.0019m-56.7813,7.9256.2186-.0019m73.1783-33.4313.2187-.0019m-16.3808,2.11.2187-.0019M584.27,256.702l.2186-.0019m-24.459,3.4914.2186-.0019m-16.3788,2.3283.2186-.0019m-40.84,5.6011.2186-.0019m-24.459,3.4915.2186-.0019m-16.3807,2.11.2186-.0019M495.623,246.099l.2186-.0019M479.68,248.2049l.2187-.0019m-40.8379,5.82.2186-.0019m80.8031-11.4132.2186-.0019M414.6013,257.5142l.2186-.0019m81.4752-34.815.2186-.0019m15.9436-2.1058.2186-.0019m55.8658,63.1447.2186-.0019m-33.8823,26.313.2187-.0019M569.0122,262.3l.2186-.0019M535.5672,288.61l.2186-.0019M501.4681,315.143l.2187-.0019m-33.23,25.87.2186-.0019m-33.8842,26.0943.2186-.0019m101.028-99.9243.2186-.0019m-34.099,26.5335.2186-.0019M468.9271,319.579l.2187-.0019M435.48,345.67l.2186-.0019m-34.3177,26.5354.2187-.0019m-33.23,25.87.2186-.0019m-33.8822,26.3129.2186-.0018M536.7268,245.7433l.2186-.0019m-34.3176,26.5355.2186-.0019m-33.23,25.87.2186-.0019m-33.8842,26.0944.2187-.0019M402.07,350.7691l.2186-.0019m-33.23,25.87.2186-.0019m-33.8823,26.313.2186-.0019m-34.3176,26.5354.2186-.0019m-33.23,25.87.2186-.0019M503.3169,250.8428l.2187-.0018m-33.23,25.87.2187-.0019M436.64,302.8035l.2186-.0019M402.5409,329.337l.2186-.0019m-33.23,25.87.2187-.0019m-33.8823,26.313.2187-.0019m-34.0991,26.5335.2187-.0019m-33.23,25.87.2186-.0019M235.31,460.227l.2186-.0019M503.7874,229.4107l.2186-.0019m-33.23,25.87.2186-.0019M437.11,281.3713l.2186-.0019M403.23,307.9029l.2186-.0019m-33.23,25.87.2186-.0019m-33.8822,26.313.2186-.0019m-34.099,26.5335.2186-.0019m-33.4488,25.8719.2187-.0019M235.9993,438.793l.2187-.0019M403.9191,286.4689l.2187-.0019M370.689,312.3389l.2186-.0019M337.244,338.6481l.2186-.0019M437.8,259.9373l.2187-.0019M303.145,365.1816l.2186-.0019m201.113-157.203.2186-.0019m-33.23,25.87.2186-.0019M270.1334,391.05l.2187-.0019M236.47,417.3609l.2186-.0019M202.59,443.8925l.2186-.0019m101.026-100.143.2186-.0018m67.3254-52.8409.2187-.0019m-33.8823,26.313.2186-.0019M270.604,369.6176l.2186-.0019M404.39,265.0368l.2187-.0019M237.159,395.9268l.2186-.0019m33.9155-47.7412.2187-.0019M237.63,374.4947l.2186-.0018m66.4565-52.1774.2187-.0019M170.7376,426.8945l.2186-.0019M204.22,379.5942l.2186-.0019m-33.23,25.87.2186-.0019m402.2714-132.268,1.2778-3.9469m-39.9831-21.738,1.2778-3.9468M519.8745,294.43l1.2778-3.9468M496.5081,222.04l1.2777-3.9468m-16.6167,50.6528,1.2778-3.9469M465.8322,315.67l1.2777-3.9468m-15.5462,48.02.426-1.3156m-9.524-115.1481,1.2778-3.9468m-16.398,50.6509,1.2778-3.9468m-16.6148,50.8714,1.2777-3.9468M396.67,383.6138l1.2778-3.9467M373.3032,311.223l1.2777-3.9468m-16.3961,50.87,1.2778-3.9468m-16.6167,50.6527,1.2778-3.9468M319.48,332.4609l1.2778-3.9468m-16.6148,50.8714,1.2778-3.9468M289.0222,426.09l1.2778-3.9468m-24.6442-68.444,1.2778-3.9469m-16.6167,50.6528-.0018-.2186M234.98,447.3293l1.2778-3.9468m-38.9126-24.3711.4278-1.097m13.8406-42.9759.6427-1.5361M231.9,445.1694l3.08,2.16m-41.7832-27.6261,2.4182,1.51m90.1088,2.7187,3.2985,2.158m-38.9239-25.683.2186-.0019M210.7333,374.29l.88.6484m127.9339,27.7552,3.2985,2.158m-41.7832-27.6261,3.08,2.16m-41.7851-27.8447,3.2984,2.158M393.59,381.454l3.08,2.16"/><path class="a" d="M136.6964,434.8419l.2186-.0019m21.6092-4.3414-1.7586-1.078m-5.4943-3.2323,1.7585,1.0781m5.4944,3.2322-1.7586-1.078m-5.4943-3.2323,1.7585,1.0781m3.8815,18.9893,1.7585,1.078m-1.9042-17.9131,1.7586,1.078m-7.2529-4.31,1.7585,1.0781"/><polyline class="a" points="246.855 480.462 283.405 459.155 346.49 421.657 393.062 396.327 431.122 372.602 446.347 363.287 460.047 354.64 519.655 319.577 571.865 288.733 610.587 265.876"/><polyline class="a" points="246.855 480.462 246.887 484.179 247.349 487.017 246.952 491.612 247.001 497.297 247.035 501.232"/><polyline class="a" points="136.696 434.842 247.001 497.297 246.855 480.462 610.589 266.095 500.285 203.64 136.551 418.007 246.855 480.462"/><line class="a" x1="136.5507" y1="418.0069" x2="136.6964" y2="434.8419"/><line class="a" x1="158.9614" y1="430.4948" x2="159.1801" y2="430.493"/><polygon class="a" points="158.961 430.495 158.963 430.713 159.182 430.712 159.184 430.93 159.403 430.928 159.621 430.926 159.84 430.925 160.058 430.923 160.277 430.921 160.496 430.919 160.714 430.917 160.931 430.696 160.929 430.478 160.927 430.259 160.925 430.041 160.707 430.042 160.486 429.826 160.268 429.828 160.049 429.829 159.83 429.831 159.612 429.833 159.395 430.054 159.176 430.056 158.96 430.276 158.961 430.495"/><path class="a" d="M153.8352,444.533l-.2167.2206m10.9867,6.2458.4354-.2224"/><path class="a" d="M157.0891,466.8076l-.0075-.8746m1.6439,13.105-.2262-.8727m1.644,13.1051-.0075-.8746m1.6439,13.105-.2281-1.0913m-8.3206,23.9052-.01-1.0932m9.1-9.6995.65-.6615m-10.6167,11.2432.8669-.8822m7.4632-21.93.8669-.8821m-2.2828-11.1316.867-.8821m-2.5035-11.3483.867-.8822m-2.2847-11.35.867-.8821m-2.5034-11.3483.867-.8821m6.34-.0549-.2243-.654m-9.0341-8.012-.2243-.6541m1.8248,8.73-.2244-.654m1.8248,8.73-.2243-.6541m1.6062,8.7322-.0057-.6558m1.6061,8.7322-.0057-.6559m1.6062,8.7322-.2243-.654m1.8247,8.73-.2262-.8727m-9.0322-7.7933-.2262-.8727m1.8248,8.73-.2244-.6541m1.6062,8.7323-.0057-.6559m1.6061,8.7322-.0056-.6559m1.6061,8.7322-.2243-.654m1.8248,8.73-.2243-.654m1.8247,8.73-.2243-.654m-9.0341-8.0121-.2243-.654m1.6061,8.7323-.0056-.656m7.2263,1.2494.6559-.0056m-8.3139-.584.656-.0057m5.62-7.4829.6559-.0057m-8.3139-.584.4373-.0038m5.62-7.4829.656-.0057m-2.2564-8.0706.6559-.0057m-2.2564-8.0707.6559-.0056m5.62-7.4829.6559-.0057m-8.5326-.5821.656-.0056m5.62-7.4829.6559-.0057m-8.3139-.584.6559-.0057m5.4016-7.481.6578.213m-2.2582-8.2893.6578.213m-2.2564-8.0707.6559-.0056m5.62-7.4829.6559-.0057m-8.3139-.584.4373-.0038m-2.0378-8.0725.6559-.0057m8.6334,88.0427.65-.6615m-2.0321-7.4167.4316-.66m-6.71,7.93.6521-.443m4.0254-14.9033.4316-.66m-6.491,7.9278.4335-.4411m4.0255-14.9033.4316-.66m4.2441-14.9052.4316-.66m-6.7078,8.1481.65-.6615m4.0254-14.9033.4316-.66m-6.7078,8.1482.65-.6616m4.0254-14.9033.4316-.66m-6.4891,8.1463.4316-.66m4.0255-14.9033.6521-.4429m4.0255-14.9033.4316-.66m-8.09.07.4316-.66m-2.0321-7.4166.4316-.66"/><path class="a" d="M217.3494,467.5921l-1.0518-.37M232.44,486.7185l-.94-.558m-3.5863-12.807-.2293-.8989m4.1213,14.9044-.3057-1.1985m-14.8968-17.74-.3058-1.1985M183.083,449.3574l-.3057-1.1985m-8.0048.2656-.3058-1.1985m.2362-5.4527-.6757-.1467m-11.5321,3.58-.6757-.1467m8.4137,2.9594-.6757-.1467m8.4138,3.9594-.6757-.1468m8.3021,6.1475-.564-.3348m16.04,1.96-.6756-.1468m8.4137,2.9594-.8637-.2583m-11.3441,3.6918-.8637-.2584m8.4137,2.9595-.6757-.1468m8.3022,3.1475-.5641-.3348m8.3021,3.1474-.564-.3347m8.3021,3.1474-.6757-.1467m8.4137,2.9594-.6756-.1467m8.4137,2.9594-.6756-.1467m-11.5322,3.58-.6757-.1467m8.3022,3.1475-.5641-.3349m4.8107-5.5352.3347-.5641m-4.8045,6.81.3348-.5641m-3.4915-8.6827.3347-.5641m-4.8045,6.81.2232-.3761m-3.4915-8.6827.3348-.5641m-8.0729-2.2486.3348-.5641m-8.0728-2.2486.3348-.5641m-8.0728-2.2486.3347-.564m-3.4915-8.6828.3348-.5641m-4.8045,6.81.3348-.564m-3.3412-7.3075.5228-.4524m-16.0728-6.2486.3348-.5641m-3.4915-8.6827.3347-.5641m-4.8045,6.81.2232-.3761m-3.9612-5.4366.3348-.5641m75.7913,41.2022-.2293-.8988m-7.3972-2.1019-.3409-.7109m3.31,9.8461-.0413-.7873m-10.6655-11.1606-.3409-.7108m3.4212,9.658-.1529-.5993m-10.6655-11.1606-.3408-.7108m-7.3972-2.1019-.2293-.8988m-10.6655-11.1607-.3408-.7108m-4.1289,6.9569-.3409-.7108m-44.8131-34.5988-.7521-.4463m7.0627,8.3793-1.0518-.37m5.3058-1.8015-.3058-1.1985m-10.7051-3.8109-.3058-1.1984m-4.213-2.7546-.6756-.1468m8.4137,2.9594-.8637-.2583m-11.3441,3.6918-.8637-.2584m8.4137,2.9595-.6757-.1468m4.9223-5.7233.3348-.5641m-4.9161,6.9982.3347-.564m-3.4915-8.6828.3348-.5641m-4.8045,6.81.3348-.564m12.873,1.1306-.3409-.7108m-8.3972-6.1019-.3408-.7108m3.4976,9.9576-.2294-.8988m-7.3971-2.1019-.3409-.7108m48.3345,20.8393-.0413-.7872M170.01,448.3955l-.3409-.7109m-7.3971-2.1018-.3409-.7109"/><polygon class="b" points="157.851 428.537 158.07 428.535 158.726 428.529 157.851 428.537"/><path class="b" d="M157.8512,428.5366l.8746-.0076Z"/><polygon class="b" points="157.633 428.538 157.414 428.54 158.07 428.535 157.633 428.538"/><polygon class="b" points="157.633 428.538 157.851 428.537 158.07 428.535 157.633 428.538"/><path class="b" d="M156.7581,428.5461l.6559-.0057Z"/><polygon class="b" points="156.758 428.546 157.633 428.538 157.414 428.54 156.758 428.546"/><polygon class="b" points="158.07 428.535 158.289 428.533 158.726 428.529 158.07 428.535"/><path class="b" d="M158.07,428.5347l.6559-.0057Z"/><polygon class="b" points="157.414 428.54 157.195 428.542 158.289 428.533 157.414 428.54"/><polygon class="b" points="157.414 428.54 158.07 428.535 158.289 428.533 157.414 428.54"/><path class="b" d="M156.7581,428.5461l.4372-.0038Z"/><polygon class="b" points="156.758 428.546 157.414 428.54 157.195 428.542 156.758 428.546"/><polygon class="b" points="158.289 428.533 158.29 428.751 158.728 428.748 158.289 428.533"/><polygon class="b" points="158.289 428.533 158.726 428.529 158.728 428.748 158.289 428.533"/><polygon class="b" points="157.195 428.542 157.197 428.761 158.29 428.751 157.195 428.542"/><polygon class="b" points="157.195 428.542 158.289 428.533 158.29 428.751 157.195 428.542"/><polygon class="b" points="156.758 428.546 156.76 428.765 157.197 428.761 156.758 428.546"/><polygon class="b" points="156.758 428.546 157.195 428.542 157.197 428.761 156.758 428.546"/><polygon class="b" points="158.29 428.751 158.509 428.75 158.728 428.748 158.29 428.751"/><path class="b" d="M158.29,428.7514l.4373-.0037Z"/><polygon class="b" points="157.197 428.761 156.979 428.763 158.509 428.75 157.197 428.761"/><polygon class="b" points="157.197 428.761 158.29 428.751 158.509 428.75 157.197 428.761"/><path class="b" d="M156.76,428.7647l.2186-.0019Z"/><polygon class="b" points="156.76 428.765 157.197 428.761 156.979 428.763 156.76 428.765"/><path class="b" d="M158.5091,428.75l.2186-.0018Z"/><path class="b" d="M158.5091,428.75l.2186-.0018Z"/><polygon class="b" points="156.979 428.763 156.76 428.765 158.509 428.75 156.979 428.763"/><path class="b" d="M156.9786,428.7628l1.53-.0133Z"/><path class="b" d="M156.76,428.7647l.2186-.0019Z"/><path class="b" d="M158.5091,428.75l.2205.2168Z"/><polygon class="b" points="158.509 428.75 158.728 428.748 158.73 428.966 158.509 428.75"/><polygon class="b" points="156.76 428.765 158.509 428.75 158.73 428.966 156.76 428.765"/><path class="b" d="M156.76,428.7647l.0019.2186Z"/><path class="b" d="M156.76,428.7647l.0019.2186Z"/><path class="b" d="M156.7619,428.9833l.0019.2186Z"/><path class="b" d="M156.7656,429.4206l1.7491-.0152Z"/><polygon class="b" points="156.766 429.421 158.733 429.404 158.515 429.405 156.766 429.421"/><polygon class="b" points="156.766 429.421 156.986 429.637 158.517 429.624 156.766 429.421"/><polygon class="b" points="156.986 429.637 157.205 429.635 158.298 429.626 156.986 429.637"/><polygon class="b" points="156.986 429.637 158.517 429.624 158.298 429.626 156.986 429.637"/><path class="b" d="M157.2048,429.6354l1.0932-.01Z"/><path class="b" d="M157.2048,429.6354l1.0932-.01Z"/><polygon class="b" points="157.205 429.635 157.423 429.634 158.079 429.628 157.205 429.635"/><polygon class="b" points="157.205 429.635 158.298 429.626 158.079 429.628 157.205 429.635"/><path class="c" d="M275.5381,358.6423l.2186-.0019Z"/><polygon class="c" points="275.538 358.642 275.54 358.861 275.759 358.859 275.538 358.642"/><polygon class="c" points="275.538 358.642 275.757 358.64 275.759 358.859 275.538 358.642"/><path class="c" d="M275.54,358.8609l.2187-.0019Z"/><path class="c" d="M275.54,358.8609l.0019.2186Z"/><path class="c" d="M275.54,358.8609l.0019.2186Z"/><polygon class="c" points="275.764 359.515 275.983 359.513 277.076 359.504 275.764 359.515"/><polygon class="c" points="275.764 359.515 277.295 359.502 277.076 359.504 275.764 359.515"/><polygon class="c" points="275.983 359.513 276.202 359.511 277.076 359.504 275.983 359.513"/><path class="c" d="M275.9829,359.513l1.0932-.0094Z"/><polygon class="c" points="276.202 359.511 276.203 359.73 276.859 359.724 276.202 359.511"/><polygon class="c" points="276.202 359.511 277.076 359.504 276.859 359.724 276.202 359.511"/><polygon class="c" points="276.203 359.73 276.422 359.728 276.641 359.726 276.203 359.73"/><polygon class="c" points="276.203 359.73 276.859 359.724 276.641 359.726 276.203 359.73"/><path class="c" d="M216.7936,392.3859l2.1863-.0189Z"/><path class="c" d="M216.7936,392.3859l2.1863-.0189Z"/><polygon class="c" points="217.894 393.251 217.676 393.253 218.113 393.249 217.894 393.251"/><polygon class="c" points="218.98 392.367 217.457 393.255 218.988 393.242 218.98 392.367"/><path class="c" d="M218.98,392.367l.0076.8746Z"/><polygon class="c" points="216.794 392.386 216.801 393.261 217.457 393.255 216.794 392.386"/><polygon class="c" points="216.794 392.386 218.98 392.367 217.457 393.255 216.794 392.386"/><polygon class="c" points="217.894 393.251 218.113 393.249 218.988 393.242 217.894 393.251"/><path class="c" d="M217.8943,393.251l1.0932-.0094Z"/><path class="c" d="M217.4571,393.2548l.2186-.0019Z"/><polygon class="c" points="217.457 393.255 217.894 393.251 217.676 393.253 217.457 393.255"/><polygon class="c" points="218.113 393.249 218.332 393.247 218.988 393.242 218.113 393.249"/><path class="c" d="M218.113,393.2492l.8745-.0076Z"/><polygon class="c" points="217.676 393.253 217.457 393.255 218.332 393.247 217.676 393.253"/><polygon class="c" points="217.676 393.253 218.113 393.249 218.332 393.247 217.676 393.253"/><path class="c" d="M217.4571,393.2548l.2186-.0019Z"/><polygon class="c" points="218.332 393.247 218.552 393.464 218.989 393.46 218.332 393.247"/><polygon class="c" points="218.332 393.247 218.988 393.242 218.989 393.46 218.332 393.247"/><polygon class="c" points="217.457 393.255 217.24 393.475 218.552 393.464 217.457 393.255"/><polygon class="c" points="217.457 393.255 218.332 393.247 218.552 393.464 217.457 393.255"/><path class="c" d="M217.4571,393.2548l-.2168.2206Z"/><path class="c" d="M217.4571,393.2548l-.2168.2206Z"/><path class="c" d="M217.24,393.4754l1.3118-.0114Z"/><path class="c" d="M217.24,393.4754l1.3118-.0114Z"/><polygon class="c" points="216.801 393.261 216.803 393.479 217.24 393.475 216.801 393.261"/><polygon class="c" points="216.801 393.261 217.457 393.255 217.24 393.475 216.801 393.261"/><path class="c" d="M218.5521,393.464l.4373-.0038Z"/><path class="c" d="M218.5521,393.464l.4373-.0038Z"/><polygon class="c" points="217.24 393.475 217.022 393.477 218.771 393.462 217.24 393.475"/><polygon class="c" points="217.24 393.475 218.552 393.464 218.771 393.462 217.24 393.475"/><path class="c" d="M216.803,393.4791l.2187-.0019Z"/><polygon class="c" points="216.803 393.479 217.24 393.475 217.022 393.477 216.803 393.479"/><polygon class="c" points="218.552 393.464 218.771 393.462 218.989 393.46 218.552 393.464"/><path class="c" d="M218.5521,393.464l.4373-.0038Z"/><path class="c" d="M217.0217,393.4772l1.7491-.0151Z"/><path class="c" d="M217.0217,393.4772l1.7491-.0151Z"/><polygon class="c" points="216.803 393.479 217.022 393.477 216.805 393.698 216.803 393.479"/><path class="c" d="M217.0217,393.4772l1.7491-.0151Z"/><path class="c" d="M217.0217,393.4772l1.7491-.0151Z"/><path class="c" d="M216.803,393.4791l.2187-.0019Z"/><path class="c" d="M216.803,393.4791l.2187-.0019Z"/><polygon class="c" points="218.771 393.462 218.773 393.681 218.991 393.679 218.771 393.462"/><polygon class="c" points="218.771 393.462 218.989 393.46 218.991 393.679 218.771 393.462"/><polygon class="c" points="217.022 393.477 217.024 393.696 218.773 393.681 217.022 393.477"/><polygon class="c" points="217.022 393.477 218.771 393.462 218.773 393.681 217.022 393.477"/><path class="c" d="M218.7727,393.6807l.2186-.0019Z"/><path class="c" d="M218.7727,393.6807l.2186-.0019Z"/><path class="c" d="M217.0236,393.6959l1.7491-.0152Z"/><path class="c" d="M217.0236,393.6959l1.7491-.0152Z"/><path class="c" d="M217.0236,393.6959l1.7491-.0152Z"/><path class="c" d="M217.0236,393.6959l1.7491-.0152Z"/><path class="c" d="M218.9913,393.6788l.0019.2187Z"/><path class="c" d="M218.7727,393.6807l.2186-.0019Z"/><path class="c" d="M218.7727,393.6807l.2186-.0019Z"/><path class="c" d="M217.0236,393.6959l1.9677-.0171Z"/><polygon class="c" points="217.024 393.696 218.773 393.681 218.991 393.679 217.024 393.696"/><polygon class="c" points="217.024 393.696 217.244 393.913 218.993 393.898 217.024 393.696"/><polygon class="c" points="217.024 393.696 218.991 393.679 218.993 393.898 217.024 393.696"/><path class="c" d="M217.2441,393.9127l1.7491-.0152Z"/><path class="c" d="M217.2441,393.9127l1.7491-.0152Z"/><polygon class="c" points="217.244 393.913 217.463 393.911 218.993 393.898 217.244 393.913"/><path class="c" d="M217.2441,393.9127l1.7491-.0152Z"/><polygon class="c" points="217.463 393.911 217.683 394.128 218.776 394.118 217.463 393.911"/><polygon class="c" points="217.463 393.911 218.993 393.898 218.776 394.118 217.463 393.911"/><polygon class="c" points="217.683 394.128 217.902 394.126 218.776 394.118 217.683 394.128"/><path class="c" d="M217.6832,394.1275l1.0932-.0094Z"/><polygon class="c" points="217.902 394.126 217.904 394.344 218.778 394.337 217.902 394.126"/><polygon class="c" points="217.902 394.126 218.776 394.118 218.778 394.337 217.902 394.126"/><polygon class="c" points="217.904 394.344 218.122 394.342 218.56 394.339 217.904 394.344"/><polygon class="c" points="217.904 394.344 218.778 394.337 218.56 394.339 217.904 394.344"/><path class="c" d="M218.1224,394.3424l.2187-.0019Z"/><path class="c" d="M218.1224,394.3424l.2187-.0019Z"/><polygon class="c" points="218.122 394.342 218.56 394.339 218.341 394.34 218.122 394.342"/><polygon class="c" points="334.933 324.237 335.151 324.235 336.026 324.228 334.933 324.237"/><path class="c" d="M334.9328,324.237l1.0932-.01Z"/><polygon class="c" points="334.933 324.237 334.714 324.239 335.151 324.235 334.933 324.237"/><path class="c" d="M334.9328,324.237l.2186-.0019Z"/><path class="c" d="M333.84,324.2464l.8746-.0075Z"/><polygon class="c" points="333.84 324.246 334.933 324.237 334.714 324.239 333.84 324.246"/><polygon class="c" points="335.151 324.235 335.37 324.233 336.026 324.228 335.151 324.235"/><path class="c" d="M335.1514,324.2351l.8746-.0076Z"/><polygon class="c" points="334.714 324.239 334.496 324.241 335.37 324.233 334.714 324.239"/><polygon class="c" points="334.714 324.239 335.151 324.235 335.37 324.233 334.714 324.239"/><path class="c" d="M333.84,324.2464l.6559-.0057Z"/><polygon class="c" points="333.84 324.246 334.714 324.239 334.496 324.241 333.84 324.246"/><polygon class="c" points="335.37 324.233 335.591 324.45 336.028 324.446 335.37 324.233"/><polygon class="c" points="335.37 324.233 336.026 324.228 336.028 324.446 335.37 324.233"/><polygon class="c" points="334.496 324.241 334.279 324.461 335.591 324.45 334.496 324.241"/><polygon class="c" points="334.496 324.241 335.37 324.233 335.591 324.45 334.496 324.241"/><polygon class="c" points="333.84 324.246 333.841 324.465 334.279 324.461 333.84 324.246"/><polygon class="c" points="333.84 324.246 334.496 324.241 334.279 324.461 333.84 324.246"/><polygon class="c" points="335.591 324.45 335.809 324.448 336.028 324.446 335.591 324.45"/><path class="c" d="M335.5906,324.45l.4373-.0038Z"/><path class="c" d="M334.2788,324.4613l1.53-.0132Z"/><polygon class="c" points="334.279 324.461 335.591 324.45 335.809 324.448 334.279 324.461"/><path class="c" d="M333.8415,324.4651l.4373-.0038Z"/><path class="c" d="M333.8415,324.4651l.4373-.0038Z"/><path class="c" d="M335.8092,324.4481l.2187-.0019Z"/><path class="c" d="M335.8092,324.4481l.2187-.0019Z"/><polygon class="c" points="334.279 324.461 334.06 324.463 335.809 324.448 334.279 324.461"/><path class="c" d="M334.2788,324.4613l1.53-.0132Z"/><path class="c" d="M333.8415,324.4651l.2186-.0019Z"/><polygon class="c" points="333.841 324.465 334.279 324.461 334.06 324.463 333.841 324.465"/><polygon class="c" points="335.809 324.448 335.811 324.667 336.03 324.665 335.809 324.448"/><polygon class="c" points="335.809 324.448 336.028 324.446 336.03 324.665 335.809 324.448"/><polygon class="c" points="334.06 324.463 334.062 324.682 335.811 324.667 334.06 324.463"/><polygon class="c" points="334.06 324.463 335.809 324.448 335.811 324.667 334.06 324.463"/><polygon class="c" points="333.841 324.465 333.843 324.684 334.062 324.682 333.841 324.465"/><polygon class="c" points="333.841 324.465 334.06 324.463 334.062 324.682 333.841 324.465"/><path class="c" d="M335.8111,324.6667l.2187-.0019Z"/><path class="c" d="M335.8111,324.6667l.2187-.0019Z"/><polygon class="c" points="334.062 324.682 333.843 324.684 336.03 324.665 334.062 324.682"/><polygon class="c" points="334.062 324.682 335.811 324.667 336.03 324.665 334.062 324.682"/><path class="c" d="M333.8434,324.6837l.2186-.0019Z"/><path class="c" d="M333.8434,324.6837l.0019.2187Z"/><path class="c" d="M333.8434,324.6837l2.1864-.0189Z"/><path class="c" d="M333.8434,324.6837l2.1864-.0189Z"/><polygon class="c" points="333.843 324.684 333.845 324.902 336.032 324.883 333.843 324.684"/><polygon class="c" points="333.843 324.684 336.03 324.665 336.032 324.883 333.843 324.684"/><path class="c" d="M333.8453,324.9024l2.1864-.019Z"/><path class="c" d="M333.8453,324.9024l2.1864-.019Z"/><polygon class="c" points="333.845 324.902 334.066 325.119 335.815 325.104 333.845 324.902"/><polygon class="c" points="333.845 324.902 336.032 324.883 335.815 325.104 333.845 324.902"/><path class="c" d="M334.0658,325.1191l1.7491-.0151Z"/><path class="c" d="M334.0658,325.1191l1.7491-.0151Z"/><polygon class="c" points="334.066 325.119 334.286 325.336 335.817 325.323 334.066 325.119"/><polygon class="c" points="334.066 325.119 335.815 325.104 335.817 325.323 334.066 325.119"/><path class="c" d="M334.2863,325.3358l1.3118-.0113Z"/><polygon class="c" points="334.286 325.336 335.817 325.323 335.598 325.324 334.286 325.336"/><polygon class="c" points="334.286 325.336 334.505 325.334 335.38 325.326 334.286 325.336"/><polygon class="c" points="334.286 325.336 335.598 325.324 335.38 325.326 334.286 325.336"/><polygon class="c" points="334.505 325.334 334.724 325.332 335.161 325.328 334.505 325.334"/><polygon class="c" points="334.505 325.334 335.38 325.326 335.161 325.328 334.505 325.334"/><path class="c" d="M334.7236,325.3321l.2187-.0019Z"/><polygon class="c" points="334.724 325.332 335.161 325.328 334.942 325.33 334.724 325.332"/><polygon class="c" points="392.58 290.065 392.799 290.064 393.673 290.056 392.58 290.065"/><path class="c" d="M392.58,290.0655l1.0932-.01Z"/><path class="c" d="M392.3617,290.0674l.4372-.0038Z"/><polygon class="c" points="392.362 290.067 392.58 290.065 392.799 290.064 392.362 290.067"/><path class="c" d="M391.4871,290.0749l.8746-.0075Z"/><path class="c" d="M391.4871,290.0749l.8746-.0075Z"/><polygon class="c" points="392.799 290.064 393.02 290.28 393.675 290.275 392.799 290.064"/><polygon class="c" points="392.799 290.064 393.673 290.056 393.675 290.275 392.799 290.064"/><polygon class="c" points="392.362 290.067 392.145 290.288 393.02 290.28 392.362 290.067"/><polygon class="c" points="392.362 290.067 392.799 290.064 393.02 290.28 392.362 290.067"/><polygon class="c" points="391.487 290.075 391.489 290.294 392.145 290.288 391.487 290.075"/><polygon class="c" points="391.487 290.075 392.362 290.067 392.145 290.288 391.487 290.075"/><polygon class="c" points="393.02 290.28 393.238 290.278 393.675 290.275 393.02 290.28"/><path class="c" d="M393.02,290.28l.6559-.0056Z"/><polygon class="c" points="392.145 290.288 391.926 290.29 393.238 290.278 392.145 290.288"/><polygon class="c" points="392.145 290.288 393.02 290.28 393.238 290.278 392.145 290.288"/><path class="c" d="M391.489,290.2936l.4373-.0038Z"/><polygon class="c" points="391.489 290.294 392.145 290.288 391.926 290.29 391.489 290.294"/><path class="c" d="M393.2381,290.2784l.4373-.0037Z"/><path class="c" d="M393.2381,290.2784l.4373-.0037Z"/><polygon class="c" points="391.926 290.29 391.708 290.292 393.238 290.278 391.926 290.29"/><path class="c" d="M391.9263,290.29l1.3118-.0114Z"/><path class="c" d="M391.489,290.2936l.2187-.0019Z"/><polygon class="c" points="391.489 290.294 391.926 290.29 391.708 290.292 391.489 290.294"/><polygon class="c" points="393.238 290.278 393.459 290.495 393.677 290.493 393.238 290.278"/><polygon class="c" points="393.238 290.278 393.675 290.275 393.677 290.493 393.238 290.278"/><polygon class="c" points="391.708 290.292 391.71 290.51 393.459 290.495 391.708 290.292"/><polygon class="c" points="391.708 290.292 393.238 290.278 393.459 290.495 391.708 290.292"/><polygon class="c" points="391.489 290.294 391.491 290.512 391.71 290.51 391.489 290.294"/><polygon class="c" points="391.489 290.294 391.708 290.292 391.71 290.51 391.489 290.294"/><path class="c" d="M393.4587,290.4952l.2186-.0019Z"/><path class="c" d="M393.4587,290.4952l.2186-.0019Z"/><polygon class="c" points="391.71 290.51 391.491 290.512 393.459 290.495 391.71 290.51"/><path class="c" d="M391.71,290.51l1.7491-.0151Z"/><path class="c" d="M391.4909,290.5122l.2187-.0019Z"/><path class="c" d="M393.4587,290.4952l.22.2167Z"/><polygon class="c" points="393.459 290.495 393.677 290.493 393.679 290.712 393.459 290.495"/><polygon class="c" points="391.491 290.512 391.493 290.731 393.679 290.712 391.491 290.512"/><polygon class="c" points="391.491 290.512 393.459 290.495 393.679 290.712 391.491 290.512"/><path class="c" d="M391.4909,290.5122l.0019.2186Z"/><path class="c" d="M391.4909,290.5122l.0019.2186Z"/><path class="c" d="M391.4928,290.7308l2.1864-.0189Z"/><path class="c" d="M391.4928,290.7308l2.1864-.0189Z"/><path class="c" d="M391.4928,290.7308l2.1864-.0189Z"/><path class="c" d="M391.4928,290.7308l2.1864-.0189Z"/><polygon class="c" points="391.493 290.731 391.495 290.949 393.681 290.931 391.493 290.731"/><polygon class="c" points="391.493 290.731 393.679 290.712 393.681 290.931 391.493 290.731"/><path class="c" d="M391.4947,290.95l1.9677-.0171Z"/><polygon class="c" points="391.495 290.949 393.681 290.931 393.462 290.932 391.495 290.949"/><polygon class="c" points="391.495 290.949 391.715 291.166 393.464 291.151 391.495 290.949"/><polygon class="c" points="391.495 290.949 393.462 290.932 393.464 291.151 391.495 290.949"/><path class="c" d="M391.7152,291.1663l1.5305-.0133Z"/><polygon class="c" points="391.715 291.166 393.464 291.151 393.246 291.153 391.715 291.166"/><polygon class="c" points="391.715 291.166 391.934 291.164 393.246 291.153 391.715 291.166"/><path class="c" d="M391.7152,291.1663l1.5305-.0133Z"/><polygon class="c" points="391.934 291.164 392.154 291.381 393.029 291.374 391.934 291.164"/><polygon class="c" points="391.934 291.164 393.246 291.153 393.029 291.374 391.934 291.164"/><polygon class="c" points="392.154 291.381 392.373 291.379 392.81 291.375 392.154 291.381"/><polygon class="c" points="392.154 291.381 393.029 291.374 392.81 291.375 392.154 291.381"/><path class="c" d="M392.373,291.3792l.2187-.0019Z"/><polygon class="c" points="392.373 291.379 392.81 291.375 392.592 291.377 392.373 291.379"/><polygon class="c" points="156.911 446.256 156.923 447.567 158.89 447.55 156.911 446.256"/><polygon class="c" points="157.64 530.431 157.642 530.65 159.609 530.633 157.64 530.431"/><polygon class="c" points="157.64 530.431 159.607 530.414 159.609 530.633 157.64 530.431"/><path class="c" d="M157.6416,530.65l1.9677-.017Z"/><path class="c" d="M157.6416,530.65l1.9677-.017Z"/><polygon class="c" points="157.642 530.65 157.644 530.868 159.393 530.853 157.642 530.65"/><polygon class="c" points="157.642 530.65 159.609 530.633 159.393 530.853 157.642 530.65"/><polygon class="c" points="157.644 530.868 157.862 530.866 159.393 530.853 157.644 530.868"/><path class="c" d="M157.6435,530.8683l1.7491-.0152Z"/><polygon class="c" points="157.862 530.866 158.083 531.083 159.176 531.074 157.862 530.866"/><polygon class="c" points="157.862 530.866 159.393 530.853 159.176 531.074 157.862 530.866"/><path class="c" d="M158.0827,531.0832l1.0932-.01Z"/><path class="c" d="M158.0827,531.0832l1.0932-.01Z"/><polygon class="c" points="158.083 531.083 158.301 531.081 158.957 531.076 158.083 531.083"/><polygon class="c" points="158.083 531.083 159.176 531.074 158.957 531.076 158.083 531.083"/><polygon class="c" points="158.301 531.081 158.52 531.079 158.739 531.077 158.301 531.081"/><polygon class="c" points="158.301 531.081 158.957 531.076 158.739 531.077 158.301 531.081"/><polygon class="c" points="392.58 290.065 392.799 290.064 393.673 290.056 392.58 290.065"/><path class="c" d="M392.58,290.0655l1.0932-.01Z"/><path class="c" d="M392.3617,290.0674l.4372-.0038Z"/><polygon class="c" points="392.362 290.067 392.58 290.065 392.799 290.064 392.362 290.067"/><path class="c" d="M391.4871,290.0749l.8746-.0075Z"/><path class="c" d="M391.4871,290.0749l.8746-.0075Z"/><polygon class="c" points="392.799 290.064 393.02 290.28 393.675 290.275 392.799 290.064"/><polygon class="c" points="392.799 290.064 393.673 290.056 393.675 290.275 392.799 290.064"/><polygon class="c" points="392.362 290.067 392.145 290.288 393.02 290.28 392.362 290.067"/><polygon class="c" points="392.362 290.067 392.799 290.064 393.02 290.28 392.362 290.067"/><polygon class="c" points="391.487 290.075 391.489 290.294 392.145 290.288 391.487 290.075"/><polygon class="c" points="391.487 290.075 392.362 290.067 392.145 290.288 391.487 290.075"/><polygon class="c" points="393.02 290.28 393.238 290.278 393.675 290.275 393.02 290.28"/><path class="c" d="M393.02,290.28l.6559-.0056Z"/><polygon class="c" points="392.145 290.288 391.926 290.29 393.238 290.278 392.145 290.288"/><polygon class="c" points="392.145 290.288 393.02 290.28 393.238 290.278 392.145 290.288"/><path class="c" d="M391.489,290.2936l.4373-.0038Z"/><polygon class="c" points="391.489 290.294 392.145 290.288 391.926 290.29 391.489 290.294"/><path class="c" d="M393.2381,290.2784l.4373-.0037Z"/><path class="c" d="M393.2381,290.2784l.4373-.0037Z"/><polygon class="c" points="391.926 290.29 391.708 290.292 393.238 290.278 391.926 290.29"/><path class="c" d="M391.9263,290.29l1.3118-.0114Z"/><path class="c" d="M391.489,290.2936l.2187-.0019Z"/><polygon class="c" points="391.489 290.294 391.926 290.29 391.708 290.292 391.489 290.294"/><polygon class="c" points="393.238 290.278 393.459 290.495 393.677 290.493 393.238 290.278"/><polygon class="c" points="393.238 290.278 393.675 290.275 393.677 290.493 393.238 290.278"/><polygon class="c" points="391.708 290.292 391.71 290.51 393.459 290.495 391.708 290.292"/><polygon class="c" points="391.708 290.292 393.238 290.278 393.459 290.495 391.708 290.292"/><polygon class="c" points="391.489 290.294 391.491 290.512 391.71 290.51 391.489 290.294"/><polygon class="c" points="391.489 290.294 391.708 290.292 391.71 290.51 391.489 290.294"/><path class="c" d="M393.4587,290.4952l.2186-.0019Z"/><path class="c" d="M393.4587,290.4952l.2186-.0019Z"/><polygon class="c" points="391.71 290.51 391.491 290.512 393.459 290.495 391.71 290.51"/><path class="c" d="M391.71,290.51l1.7491-.0151Z"/><path class="c" d="M391.4909,290.5122l.2187-.0019Z"/><path class="c" d="M393.4587,290.4952l.22.2167Z"/><polygon class="c" points="393.459 290.495 393.677 290.493 393.679 290.712 393.459 290.495"/><polygon class="c" points="391.491 290.512 391.493 290.731 393.679 290.712 391.491 290.512"/><polygon class="c" points="391.491 290.512 393.459 290.495 393.679 290.712 391.491 290.512"/><path class="c" d="M391.4909,290.5122l.0019.2186Z"/><path class="c" d="M391.4909,290.5122l.0019.2186Z"/><path class="c" d="M391.4928,290.7308l2.1864-.0189Z"/><path class="c" d="M391.4928,290.7308l2.1864-.0189Z"/><path class="c" d="M391.4928,290.7308l2.1864-.0189Z"/><path class="c" d="M391.4928,290.7308l2.1864-.0189Z"/><polygon class="c" points="391.493 290.731 391.495 290.949 393.681 290.931 391.493 290.731"/><polygon class="c" points="391.493 290.731 393.679 290.712 393.681 290.931 391.493 290.731"/><path class="c" d="M391.4947,290.95l1.9677-.0171Z"/><polygon class="c" points="391.495 290.949 393.681 290.931 393.462 290.932 391.495 290.949"/><polygon class="c" points="391.495 290.949 391.715 291.166 393.464 291.151 391.495 290.949"/><polygon class="c" points="391.495 290.949 393.462 290.932 393.464 291.151 391.495 290.949"/><path class="c" d="M391.7152,291.1663l1.5305-.0133Z"/><polygon class="c" points="391.715 291.166 393.464 291.151 393.246 291.153 391.715 291.166"/><polygon class="c" points="391.715 291.166 391.934 291.164 393.246 291.153 391.715 291.166"/><path class="c" d="M391.7152,291.1663l1.5305-.0133Z"/><polygon class="c" points="391.934 291.164 392.154 291.381 393.029 291.374 391.934 291.164"/><polygon class="c" points="391.934 291.164 393.246 291.153 393.029 291.374 391.934 291.164"/><polygon class="c" points="392.154 291.381 392.373 291.379 392.81 291.375 392.154 291.381"/><polygon class="c" points="392.154 291.381 393.029 291.374 392.81 291.375 392.154 291.381"/><path class="c" d="M392.373,291.3792l.2187-.0019Z"/><polygon class="c" points="392.373 291.379 392.81 291.375 392.592 291.377 392.373 291.379"/><polygon class="c" points="450.23 256.113 450.448 256.111 451.104 256.105 450.23 256.113"/><path class="c" d="M450.23,256.1126l.8746-.0076Z"/><polygon class="c" points="450.011 256.114 449.792 256.116 450.448 256.111 450.011 256.114"/><polygon class="c" points="450.011 256.114 450.23 256.113 450.448 256.111 450.011 256.114"/><path class="c" d="M449.1365,256.122l.6559-.0056Z"/><polygon class="c" points="449.137 256.122 450.011 256.114 449.792 256.116 449.137 256.122"/><polygon class="c" points="450.448 256.111 450.667 256.109 451.104 256.105 450.448 256.111"/><path class="c" d="M450.4484,256.1107l.6559-.0057Z"/><path class="c" d="M449.7924,256.1164l.8746-.0076Z"/><polygon class="c" points="449.792 256.116 450.448 256.111 450.667 256.109 449.792 256.116"/><path class="c" d="M449.1365,256.122l.6559-.0056Z"/><path class="c" d="M449.1365,256.122l.6559-.0056Z"/><polygon class="c" points="450.667 256.109 450.886 256.107 451.104 256.105 450.667 256.109"/><path class="c" d="M450.667,256.1088l.4373-.0038Z"/><polygon class="c" points="449.792 256.116 449.574 256.118 450.886 256.107 449.792 256.116"/><polygon class="c" points="449.792 256.116 450.667 256.109 450.886 256.107 449.792 256.116"/><path class="c" d="M449.1365,256.122l.4373-.0037Z"/><polygon class="c" points="449.137 256.122 449.792 256.116 449.574 256.118 449.137 256.122"/><polygon class="c" points="450.886 256.107 450.888 256.326 451.106 256.324 450.886 256.107"/><polygon class="c" points="450.886 256.107 451.104 256.105 451.106 256.324 450.886 256.107"/><polygon class="c" points="449.574 256.118 449.357 256.339 450.888 256.326 449.574 256.118"/><polygon class="c" points="449.574 256.118 450.886 256.107 450.888 256.326 449.574 256.118"/><polygon class="c" points="449.137 256.122 449.138 256.341 449.357 256.339 449.137 256.122"/><polygon class="c" points="449.137 256.122 449.574 256.118 449.357 256.339 449.137 256.122"/><path class="c" d="M450.8875,256.3255l.2187-.0019Z"/><path class="c" d="M450.8875,256.3255l.2187-.0019Z"/><path class="c" d="M449.3571,256.3388l1.7491-.0152Z"/><polygon class="c" points="449.357 256.339 450.888 256.326 451.106 256.324 449.357 256.339"/><path class="c" d="M449.1384,256.3407l.2187-.0019Z"/><path class="c" d="M449.1384,256.3407l.2187-.0019Z"/><polygon class="c" points="449.357 256.339 449.138 256.341 451.106 256.324 449.357 256.339"/><path class="c" d="M449.3571,256.3388l1.7491-.0152Z"/><path class="c" d="M449.1384,256.3407l.2187-.0019Z"/><path class="c" d="M451.1062,256.3236l.0018.2187Z"/><path class="c" d="M451.1062,256.3236l.0018.2187Z"/><polygon class="c" points="449.138 256.341 449.14 256.559 451.108 256.542 449.138 256.341"/><polygon class="c" points="449.138 256.341 451.106 256.324 451.108 256.542 449.138 256.341"/><path class="c" d="M449.1384,256.3407l.0019.2187Z"/><path class="c" d="M449.1384,256.3407l.0019.2187Z"/><path class="c" d="M449.14,256.5594l1.9677-.0171Z"/><path class="c" d="M449.14,256.5594l1.9677-.0171Z"/><path class="c" d="M449.14,256.5594l1.9677-.0171Z"/><path class="c" d="M449.14,256.5594l1.9677-.0171Z"/><polygon class="c" points="449.14 256.559 449.142 256.778 451.11 256.761 449.14 256.559"/><polygon class="c" points="449.14 256.559 451.108 256.542 451.11 256.761 449.14 256.559"/><path class="c" d="M449.1422,256.778l1.9677-.017Z"/><path class="c" d="M449.1422,256.778l1.9677-.017Z"/><polygon class="c" points="449.142 256.778 449.363 256.995 451.112 256.98 449.142 256.778"/><polygon class="c" points="449.142 256.778 451.11 256.761 451.112 256.98 449.142 256.778"/><path class="c" d="M449.3627,256.9947l1.53-.0132Z"/><polygon class="c" points="449.363 256.995 451.112 256.98 450.893 256.981 449.363 256.995"/><polygon class="c" points="449.363 256.995 449.583 257.211 450.895 257.2 449.363 256.995"/><polygon class="c" points="449.363 256.995 450.893 256.981 450.895 257.2 449.363 256.995"/><polygon class="c" points="449.583 257.211 449.802 257.21 450.676 257.202 449.583 257.211"/><polygon class="c" points="449.583 257.211 450.895 257.2 450.676 257.202 449.583 257.211"/><path class="c" d="M449.8019,257.21l.6559-.0057Z"/><polygon class="c" points="449.802 257.21 450.676 257.202 450.458 257.204 449.802 257.21"/><polygon class="c" points="449.802 257.21 450.021 257.208 450.239 257.206 449.802 257.21"/><polygon class="c" points="449.802 257.21 450.458 257.204 450.239 257.206 449.802 257.21"/><polygon class="c" points="450.23 256.113 450.448 256.111 451.104 256.105 450.23 256.113"/><path class="c" d="M450.23,256.1126l.8746-.0076Z"/><polygon class="c" points="450.011 256.114 449.792 256.116 450.448 256.111 450.011 256.114"/><polygon class="c" points="450.011 256.114 450.23 256.113 450.448 256.111 450.011 256.114"/><path class="c" d="M449.1365,256.122l.6559-.0056Z"/><polygon class="c" points="449.137 256.122 450.011 256.114 449.792 256.116 449.137 256.122"/><polygon class="c" points="450.448 256.111 450.667 256.109 451.104 256.105 450.448 256.111"/><path class="c" d="M450.4484,256.1107l.6559-.0057Z"/><path class="c" d="M449.7924,256.1164l.8746-.0076Z"/><polygon class="c" points="449.792 256.116 450.448 256.111 450.667 256.109 449.792 256.116"/><path class="c" d="M449.1365,256.122l.6559-.0056Z"/><path class="c" d="M449.1365,256.122l.6559-.0056Z"/><polygon class="c" points="450.667 256.109 450.886 256.107 451.104 256.105 450.667 256.109"/><path class="c" d="M450.667,256.1088l.4373-.0038Z"/><polygon class="c" points="449.792 256.116 449.574 256.118 450.886 256.107 449.792 256.116"/><polygon class="c" points="449.792 256.116 450.667 256.109 450.886 256.107 449.792 256.116"/><path class="c" d="M449.1365,256.122l.4373-.0037Z"/><polygon class="c" points="449.137 256.122 449.792 256.116 449.574 256.118 449.137 256.122"/><polygon class="c" points="450.886 256.107 450.888 256.326 451.106 256.324 450.886 256.107"/><polygon class="c" points="450.886 256.107 451.104 256.105 451.106 256.324 450.886 256.107"/><polygon class="c" points="449.574 256.118 449.357 256.339 450.888 256.326 449.574 256.118"/><polygon class="c" points="449.574 256.118 450.886 256.107 450.888 256.326 449.574 256.118"/><polygon class="c" points="449.137 256.122 449.138 256.341 449.357 256.339 449.137 256.122"/><polygon class="c" points="449.137 256.122 449.574 256.118 449.357 256.339 449.137 256.122"/><path class="c" d="M450.8875,256.3255l.2187-.0019Z"/><path class="c" d="M450.8875,256.3255l.2187-.0019Z"/><path class="c" d="M449.3571,256.3388l1.7491-.0152Z"/><polygon class="c" points="449.357 256.339 450.888 256.326 451.106 256.324 449.357 256.339"/><path class="c" d="M449.1384,256.3407l.2187-.0019Z"/><path class="c" d="M449.1384,256.3407l.2187-.0019Z"/><polygon class="c" points="449.357 256.339 449.138 256.341 451.106 256.324 449.357 256.339"/><path class="c" d="M449.3571,256.3388l1.7491-.0152Z"/><path class="c" d="M449.1384,256.3407l.2187-.0019Z"/><path class="c" d="M451.1062,256.3236l.0018.2187Z"/><path class="c" d="M451.1062,256.3236l.0018.2187Z"/><polygon class="c" points="449.138 256.341 449.14 256.559 451.108 256.542 449.138 256.341"/><polygon class="c" points="449.138 256.341 451.106 256.324 451.108 256.542 449.138 256.341"/><path class="c" d="M449.1384,256.3407l.0019.2187Z"/><path class="c" d="M449.1384,256.3407l.0019.2187Z"/><path class="c" d="M449.14,256.5594l1.9677-.0171Z"/><path class="c" d="M449.14,256.5594l1.9677-.0171Z"/><path class="c" d="M449.14,256.5594l1.9677-.0171Z"/><path class="c" d="M449.14,256.5594l1.9677-.0171Z"/><polygon class="c" points="449.14 256.559 449.142 256.778 451.11 256.761 449.14 256.559"/><polygon class="c" points="449.14 256.559 451.108 256.542 451.11 256.761 449.14 256.559"/><path class="c" d="M449.1422,256.778l1.9677-.017Z"/><path class="c" d="M449.1422,256.778l1.9677-.017Z"/><polygon class="c" points="449.142 256.778 449.363 256.995 451.112 256.98 449.142 256.778"/><polygon class="c" points="449.142 256.778 451.11 256.761 451.112 256.98 449.142 256.778"/><path class="c" d="M449.3627,256.9947l1.53-.0132Z"/><polygon class="c" points="449.363 256.995 451.112 256.98 450.893 256.981 449.363 256.995"/><polygon class="c" points="449.363 256.995 449.583 257.211 450.895 257.2 449.363 256.995"/><polygon class="c" points="449.363 256.995 450.893 256.981 450.895 257.2 449.363 256.995"/><polygon class="c" points="449.583 257.211 449.802 257.21 450.676 257.202 449.583 257.211"/><polygon class="c" points="449.583 257.211 450.895 257.2 450.676 257.202 449.583 257.211"/><path class="c" d="M449.8019,257.21l.6559-.0057Z"/><polygon class="c" points="449.802 257.21 450.676 257.202 450.458 257.204 449.802 257.21"/><polygon class="c" points="449.802 257.21 450.021 257.208 450.239 257.206 449.802 257.21"/><polygon class="c" points="449.802 257.21 450.458 257.204 450.239 257.206 449.802 257.21"/><polygon class="c" points="450.23 256.113 450.448 256.111 451.104 256.105 450.23 256.113"/><path class="c" d="M450.23,256.1126l.8746-.0076Z"/><polygon class="c" points="450.011 256.114 449.792 256.116 450.448 256.111 450.011 256.114"/><polygon class="c" points="450.011 256.114 450.23 256.113 450.448 256.111 450.011 256.114"/><path class="c" d="M449.1365,256.122l.6559-.0056Z"/><polygon class="c" points="449.137 256.122 450.011 256.114 449.792 256.116 449.137 256.122"/><polygon class="c" points="450.448 256.111 450.667 256.109 451.104 256.105 450.448 256.111"/><path class="c" d="M450.4484,256.1107l.6559-.0057Z"/><path class="c" d="M449.7924,256.1164l.8746-.0076Z"/><polygon class="c" points="449.792 256.116 450.448 256.111 450.667 256.109 449.792 256.116"/><path class="c" d="M449.1365,256.122l.6559-.0056Z"/><path class="c" d="M449.1365,256.122l.6559-.0056Z"/><polygon class="c" points="450.667 256.109 450.886 256.107 451.104 256.105 450.667 256.109"/><path class="c" d="M450.667,256.1088l.4373-.0038Z"/><polygon class="c" points="449.792 256.116 449.574 256.118 450.886 256.107 449.792 256.116"/><polygon class="c" points="449.792 256.116 450.667 256.109 450.886 256.107 449.792 256.116"/><path class="c" d="M449.1365,256.122l.4373-.0037Z"/><polygon class="c" points="449.137 256.122 449.792 256.116 449.574 256.118 449.137 256.122"/><polygon class="c" points="450.886 256.107 450.888 256.326 451.106 256.324 450.886 256.107"/><polygon class="c" points="450.886 256.107 451.104 256.105 451.106 256.324 450.886 256.107"/><polygon class="c" points="449.574 256.118 449.357 256.339 450.888 256.326 449.574 256.118"/><polygon class="c" points="449.574 256.118 450.886 256.107 450.888 256.326 449.574 256.118"/><polygon class="c" points="449.137 256.122 449.138 256.341 449.357 256.339 449.137 256.122"/><polygon class="c" points="449.137 256.122 449.574 256.118 449.357 256.339 449.137 256.122"/><path class="c" d="M450.8875,256.3255l.2187-.0019Z"/><path class="c" d="M450.8875,256.3255l.2187-.0019Z"/><path class="c" d="M449.3571,256.3388l1.7491-.0152Z"/><polygon class="c" points="449.357 256.339 450.888 256.326 451.106 256.324 449.357 256.339"/><path class="c" d="M449.1384,256.3407l.2187-.0019Z"/><path class="c" d="M449.1384,256.3407l.2187-.0019Z"/><polygon class="c" points="449.357 256.339 449.138 256.341 451.106 256.324 449.357 256.339"/><path class="c" d="M449.3571,256.3388l1.7491-.0152Z"/><path class="c" d="M449.1384,256.3407l.2187-.0019Z"/><path class="c" d="M451.1062,256.3236l.0018.2187Z"/><path class="c" d="M451.1062,256.3236l.0018.2187Z"/><polygon class="c" points="449.138 256.341 449.14 256.559 451.108 256.542 449.138 256.341"/><polygon class="c" points="449.138 256.341 451.106 256.324 451.108 256.542 449.138 256.341"/><path class="c" d="M449.1384,256.3407l.0019.2187Z"/><path class="c" d="M449.1384,256.3407l.0019.2187Z"/><path class="c" d="M449.14,256.5594l1.9677-.0171Z"/><path class="c" d="M449.14,256.5594l1.9677-.0171Z"/><path class="c" d="M449.14,256.5594l1.9677-.0171Z"/><path class="c" d="M449.14,256.5594l1.9677-.0171Z"/><polygon class="c" points="449.14 256.559 449.142 256.778 451.11 256.761 449.14 256.559"/><polygon class="c" points="449.14 256.559 451.108 256.542 451.11 256.761 449.14 256.559"/><path class="c" d="M449.1422,256.778l1.9677-.017Z"/><path class="c" d="M449.1422,256.778l1.9677-.017Z"/><polygon class="c" points="449.142 256.778 449.363 256.995 451.112 256.98 449.142 256.778"/><polygon class="c" points="449.142 256.778 451.11 256.761 451.112 256.98 449.142 256.778"/><path class="c" d="M449.3627,256.9947l1.53-.0132Z"/><polygon class="c" points="449.363 256.995 451.112 256.98 450.893 256.981 449.363 256.995"/><polygon class="c" points="449.363 256.995 449.583 257.211 450.895 257.2 449.363 256.995"/><polygon class="c" points="449.363 256.995 450.893 256.981 450.895 257.2 449.363 256.995"/><polygon class="c" points="449.583 257.211 449.802 257.21 450.676 257.202 449.583 257.211"/><polygon class="c" points="449.583 257.211 450.895 257.2 450.676 257.202 449.583 257.211"/><path class="c" d="M449.8019,257.21l.6559-.0057Z"/><polygon class="c" points="449.802 257.21 450.676 257.202 450.458 257.204 449.802 257.21"/><polygon class="c" points="449.802 257.21 450.021 257.208 450.239 257.206 449.802 257.21"/><polygon class="c" points="449.802 257.21 450.458 257.204 450.239 257.206 449.802 257.21"/><polyline class="d" points="500.285 203.64 502.603 193.562 501.586 177.172 500.519 154.878 501.977 146.557 501.968 145.463 501.057 141.317 499.674 133.02 500.736 104.149 500.132 84.912"/><path class="d" d="M498.5576,534.6966l27.5248-28.226m-208.758,31.7621L347.0185,508.02M138.26,539.7822,167.9545,509.57M136.7109,360.7182l14.0866-14.553M540.264,401.8315l29.4774-29.992M362.5329,582.6655,392.227,552.453M183.4689,584.215l29.4755-30.2106M26.6956,382.2237l5.6353-5.7338M6.7227,221.9047l18.2047-18.7431M317.7122,583.0534l74.1269-75.4211M152.9535,570.0479l59.603-60.8642M137.0969,405.32l14.7387-14.996M18.2881,345.5626l13.655-13.8933"/><polyline class="d" points="192.921 160.382 199.073 163.828 198.404 162.303 197.51 160.124 193.497 151.194 199.255 159.672 199.928 161.634 199.642 153.765 200.362 161.193 202.832 143.46 201.657 159.214 202.791 164.014 205.98 153.491 203.238 165.103 208.944 167.459"/><polyline class="d" points="263.884 123.69 270.213 122.324 266.242 118.204 262.286 115.833 271.272 118.379 272.548 114.213 274.362 121.632 277.709 104.111 278.885 113.721 279.811 119.617 287.455 118.676"/><polyline class="d" points="145.113 219.833 151.267 223.496 150.595 221.753 149.921 219.572 145.689 210.644 151.447 219.122 152.12 221.084 151.834 213.215 152.554 220.643 155.024 202.91 153.85 218.882 154.983 223.464 158.174 213.16 155.43 224.554 161.136 226.909"/><polyline class="d" points="216.076 183.141 222.407 181.993 218.434 177.654 214.479 175.502 223.466 178.048 224.74 173.664 226.554 181.082 229.901 163.561 231.077 173.171 232.004 179.286 239.647 178.126"/><polyline class="d" points="76.516 201.622 82.67 205.286 81.999 203.542 81.324 201.362 77.093 192.434 82.851 200.911 83.524 202.873 83.237 195.004 83.958 202.432 86.428 184.7 85.254 200.672 86.387 205.254 89.578 194.949 86.834 206.343 92.539 208.699"/><polyline class="d" points="147.48 164.93 153.811 163.782 149.838 159.443 145.883 157.291 154.87 159.837 156.144 155.453 158.176 162.87 161.304 145.35 162.481 154.961 163.408 161.075 171.27 159.914"/><polyline class="d" points="307.576 68.649 313.728 72.094 313.059 70.569 312.165 68.391 307.932 59.244 313.911 67.938 314.584 69.9 314.295 61.813 315.015 69.241 317.267 51.51 316.093 67.482 317.445 72.062 320.635 61.758 317.892 73.151 323.599 75.726"/><polyline class="d" points="304.291 143.894 310.443 147.339 309.774 145.815 308.881 143.636 304.647 134.489 310.626 143.183 311.08 145.147 310.792 137.06 311.514 144.706 313.982 126.755 312.809 142.727 314.16 147.307 317.132 137.005 314.609 148.615 320.096 150.973"/><polyline class="d" points="375.255 107.202 381.584 105.836 377.611 101.497 373.656 99.345 382.424 101.893 383.698 97.508 385.732 105.144 388.859 87.406 390.256 97.233 390.963 103.131 398.826 102.188"/><polyline class="d" points="198.527 126.005 204.679 129.45 204.01 127.926 203.116 125.747 199.101 116.598 204.862 125.294 205.534 127.257 205.246 119.169 205.966 126.597 208.436 108.864 207.263 124.836 208.396 129.418 211.586 119.114 208.844 130.726 214.55 133.082"/><polyline class="d" points="269.49 89.313 275.819 87.947 271.846 83.608 267.892 81.456 276.879 84.002 278.153 79.618 279.968 87.255 283.313 69.515 284.491 79.344 285.417 85.24 293.062 84.299"/><polyline class="d" points="342.551 92.835 348.703 96.281 348.034 94.756 347.141 92.577 343.126 83.428 348.886 92.125 349.559 94.087 349.27 85.999 349.99 93.427 352.242 75.697 351.287 91.667 352.42 96.249 355.611 85.944 352.869 97.557 358.574 99.912"/><polyline class="d" points="413.515 56.144 419.844 54.777 415.871 50.438 411.916 48.286 420.903 50.832 422.177 46.448 423.992 54.085 427.337 36.345 428.516 46.174 429.223 52.072 437.086 51.129"/><polyline class="d" points="378.539 31.957 384.869 30.59 380.895 26.252 376.941 24.099 385.928 26.645 386.983 22.263 389.015 29.68 392.362 12.159 393.54 21.988 394.247 27.885 402.111 26.943"/><polyline class="d" points="3.886 222.585 14.419 226.867 19.926 231.63 24.747 232.9 27.85 237.684 40.569 241.947 52.466 252.339 57.293 254.265 63.681 259.676 82.09 264.546 87.143 267.345 87.837 271.712 97.529 279.937 119.244 287.839 123.894 294.577 136.162 297.313"/><polyline class="d" points="367.62 8.218 378.152 12.5 383.879 17.261 388.481 18.533 391.584 23.317 404.303 27.58 416.417 37.752 421.246 39.896 427.415 45.309 445.824 50.179 451.096 52.976 451.571 57.345 461.261 65.351 483.196 73.47 492.461 82.792 500.132 84.912"/><polyline class="d" points="379.468 63.435 385.797 62.068 381.824 57.73 377.869 55.577 386.856 58.124 388.13 53.739 389.943 61.158 393.29 43.637 394.467 53.247 395.394 59.362 403.039 58.421"/><path class="d" d="M493.3369,537.8029,521.08,509.5751m-208.758,31.762,29.6941-30.2125m-208.758,31.762,29.4754-30.2106M131.7069,363.604,145.7953,349.27m389.2479,55.6682,29.6941-30.2125M357.5288,585.5513l29.4774-29.992m-208.76,31.5434,29.696-29.9939M21.6915,385.11l5.6354-5.7338M1.5,224.7924,19.9252,206.266M312.7081,585.9392l73.91-75.2006M147.7327,573.1542l59.8217-60.8661m-75.46-103.8634,14.7387-14.996m-133.7661-44.76L26.939,334.5551"/><polyline class="d" points="294.669 472.177 300.823 475.84 300.152 474.097 299.258 471.918 295.027 462.99 301.005 471.684 301.458 473.43 301.39 465.559 302.11 472.987 304.362 455.256 303.188 471.228 304.54 475.808 307.73 465.504 304.986 476.898 310.473 479.255"/><polyline class="d" points="365.632 435.485 371.963 434.337 367.99 429.998 364.036 427.846 372.804 430.394 374.078 426.01 376.11 433.426 379.238 415.907 380.633 425.515 381.342 431.632 389.204 430.47"/><polyline class="d" points="453.629 396.24 459.781 399.685 459.112 398.161 458.218 395.982 453.985 386.835 459.964 395.529 460.637 397.491 460.35 389.622 461.07 397.05 463.32 379.101 462.146 395.073 463.498 399.653 466.688 389.349 463.946 400.961 469.652 403.317"/><polyline class="d" points="524.592 359.548 530.922 358.182 526.95 354.062 522.994 351.691 531.981 354.237 533.036 349.854 535.07 357.49 538.415 339.75 539.593 349.579 540.3 355.477 548.164 354.534"/><polyline class="d" points="491.889 345.181 498.041 348.627 497.372 347.102 496.478 344.923 492.463 335.774 498.223 344.471 498.896 346.433 498.61 338.564 499.33 345.992 501.798 328.041 500.625 344.013 501.758 348.595 504.948 338.29 502.206 349.903 507.912 352.258"/><polyline class="d" points="562.852 308.49 569.181 307.123 565.208 302.784 561.254 300.632 570.24 303.178 571.514 298.794 573.33 306.431 576.675 288.691 577.853 298.52 578.779 304.416 586.423 303.475"/><polyline class="d" points="298.417 526.37 302.603 555.196 300.328 570.303 295.911 590.458 296.047 606.199 299.182 614.7 296.459 628.499 299.422 642.467 299.515 653.18"/><polyline class="d" points="5.516 486.705 15.829 490.989 21.556 495.749 26.377 497.02 29.261 501.805 41.98 506.068 54.096 516.459 58.923 518.385 65.094 524.016 83.503 528.886 88.775 531.683 89.248 535.833 98.94 544.058 120.874 551.959 139.366 566.448 152.514 569.833 162.83 574.336 168.556 579.096 173.376 580.148 176.26 584.933 188.978 589.196 201.094 599.587 205.923 601.732 212.311 607.143 230.501 612.014 235.773 614.811 236.246 618.961 245.938 627.187 267.872 635.087 286.366 649.795 299.515 653.18"/><polyline class="d" points="299.515 653.18 336.892 626.399 399.149 594.375 447.04 569.69 480.485 543.38 497.687 535.141 512.707 527.359 574.97 495.99 624.524 461.451 663.247 438.594"/><path class="d" d="M662.1514,312.0034l-.1456-16.8352M298.4175,526.37l-.1457-16.8352"/><polyline class="d" points="298.272 509.535 335.649 482.755 397.906 450.73 445.797 426.045 479.242 399.736 496.444 391.497 511.464 383.714 573.727 352.345 623.281 317.806 662.006 295.168"/><polyline class="d" points="610.587 265.876 630.365 277.294 648.857 291.784 662.006 295.168"/><polyline class="d" points="136.162 297.313 173.811 276.653 227.114 245.799 277.801 215.842 314.348 194.316 329.573 185.001 347.85 174.566 404.631 141.277 459.668 108.658 500.132 84.912"/><polyline class="d" points="138.074 417.119 138.65 407.931 137.634 391.54 136.566 369.247 138.243 360.924 138.234 359.83 137.323 355.684 135.94 347.387 136.783 318.517 136.162 297.313"/><polyline class="d" points="367.62 8.218 335.42 1.5 331.854 19.023 322.909 21.287 313.091 23.777 303.543 32.169 302.409 52.732 285.039 66.876 245.598 82.523 175.371 103.247 166.681 109.663 167.058 128.027 140.828 154.274 24.058 178.461 3.226 222.154 10.495 253.577 35.11 293.377 34.551 304.534 29.343 309.17 19.795 317.562 16.642 332.239 19.942 359.761 28.496 388.112 45.147 417.267 46.021 442.405 33.231 455.197 11.026 466.541 5.516 486.705"/><polyline class="d" points="662.151 312.003 666.335 340.611 664.281 355.934 659.645 376.091 659.781 391.832 662.916 400.333 660.191 413.913 663.154 427.881 663.247 438.594"/><polyline class="d" points="246.855 480.462 266.631 491.661 285.123 506.151 298.272 509.535"/><path class="d" d="M393.6791,290.7119,392.3642,138.759l-2.1863.0189,1.3149,151.9529"/><path class="d" d="M335.6791,324.7119,334.3642,172.759l-2.1863.0189,1.3149,151.9529"/><path class="d" d="M277.6791,361.7119,276.3642,209.759l-2.1863.0189,1.3149,151.9529"/><path class="d" d="M218.6791,393.7119,217.3642,241.759l-2.1863.0189,1.3149,151.9529"/><path class="d" d="M160.6791,429.7119,159.3642,277.759l-2.1863.0189,1.3149,151.9529"/><path class="d" d="M451.6791,258.7119,450.3642,106.759l-2.1863.0189,1.3149,151.9529"/><path class="d" d="M508.6791,222.7119,507.3642,70.759l-2.1863.0189,1.3149,151.9529"/><polygon class="c" points="507.877 221.941 508.096 221.939 508.752 221.934 507.877 221.941"/><path class="c" d="M507.8772,221.9411l.8746-.0076Z"/><polygon class="c" points="507.659 221.943 507.44 221.945 508.096 221.939 507.659 221.943"/><polygon class="c" points="507.659 221.943 507.877 221.941 508.096 221.939 507.659 221.943"/><path class="c" d="M506.784,221.9506l.656-.0057Z"/><polygon class="c" points="506.784 221.951 507.659 221.943 507.44 221.945 506.784 221.951"/><polygon class="c" points="508.096 221.939 508.315 221.937 508.752 221.934 508.096 221.939"/><path class="c" d="M508.0959,221.9392l.6559-.0057Z"/><polygon class="c" points="507.44 221.945 507.221 221.947 508.315 221.937 507.44 221.945"/><polygon class="c" points="507.44 221.945 508.096 221.939 508.315 221.937 507.44 221.945"/><path class="c" d="M506.784,221.9506l.4374-.0038Z"/><polygon class="c" points="506.784 221.951 507.44 221.945 507.221 221.947 506.784 221.951"/><polygon class="c" points="508.315 221.937 508.316 222.156 508.754 222.152 508.315 221.937"/><polygon class="c" points="508.315 221.937 508.752 221.934 508.754 222.152 508.315 221.937"/><polygon class="c" points="507.221 221.947 507.223 222.165 508.316 222.156 507.221 221.947"/><polygon class="c" points="507.221 221.947 508.315 221.937 508.316 222.156 507.221 221.947"/><polygon class="c" points="506.784 221.951 506.786 222.169 507.223 222.165 506.784 221.951"/><polygon class="c" points="506.784 221.951 507.221 221.947 507.223 222.165 506.784 221.951"/><polygon class="c" points="508.316 222.156 508.535 222.154 508.754 222.152 508.316 222.156"/><path class="c" d="M508.3164,222.156l.4373-.0038Z"/><polygon class="c" points="507.223 222.165 507.005 222.167 508.535 222.154 507.223 222.165"/><polygon class="c" points="507.223 222.165 508.316 222.156 508.535 222.154 507.223 222.165"/><path class="c" d="M506.7859,222.1692l.2187-.0019Z"/><polygon class="c" points="506.786 222.169 507.223 222.165 507.005 222.167 506.786 222.169"/><path class="c" d="M508.5351,222.1541l.2186-.0019Z"/><path class="c" d="M508.5351,222.1541l.2186-.0019Z"/><polygon class="c" points="507.005 222.167 506.786 222.169 508.754 222.152 507.005 222.167"/><polygon class="c" points="507.005 222.167 508.535 222.154 508.754 222.152 507.005 222.167"/><path class="c" d="M506.7859,222.1692l.2187-.0019Z"/><path class="c" d="M508.7537,222.1522l.0019.2186Z"/><path class="c" d="M508.7537,222.1522l.0019.2186Z"/><polygon class="c" points="506.786 222.169 506.788 222.388 508.756 222.371 506.786 222.169"/><polygon class="c" points="506.786 222.169 508.754 222.152 508.756 222.371 506.786 222.169"/><path class="c" d="M506.7859,222.1692l.0019.2186Z"/><path class="c" d="M506.7859,222.1692l.0019.2186Z"/><path class="c" d="M506.7878,222.3878l1.9678-.017Z"/><path class="c" d="M506.7878,222.3878l1.9678-.017Z"/><path class="c" d="M506.7878,222.3878l.0019.2187Z"/><path class="c" d="M506.7878,222.3878l1.9678-.017Z"/><path class="c" d="M506.7878,222.3878l1.9678-.017Z"/><polygon class="c" points="506.788 222.388 506.79 222.606 508.757 222.589 506.788 222.388"/><polygon class="c" points="506.788 222.388 508.756 222.371 508.757 222.589 506.788 222.388"/><path class="c" d="M506.79,222.6065l1.9678-.0171Z"/><path class="c" d="M506.79,222.6065l1.9678-.0171Z"/><polygon class="c" points="506.79 222.606 506.792 222.825 508.759 222.808 506.79 222.606"/><polygon class="c" points="506.79 222.606 508.757 222.589 508.759 222.808 506.79 222.606"/><path class="c" d="M506.7916,222.8251l1.9678-.017Z"/><path class="c" d="M506.7916,222.8251l1.9678-.017Z"/><polygon class="c" points="506.792 222.825 507.012 223.042 508.543 223.029 506.792 222.825"/><polygon class="c" points="506.792 222.825 508.759 222.808 508.543 223.029 506.792 222.825"/><polygon class="c" points="507.012 223.042 507.231 223.04 508.324 223.03 507.012 223.042"/><polygon class="c" points="507.012 223.042 508.543 223.029 508.324 223.03 507.012 223.042"/><path class="c" d="M507.2308,223.04l1.0932-.0094Z"/><path class="c" d="M507.2308,223.04l1.0932-.0094Z"/><polygon class="c" points="507.231 223.04 507.449 223.038 508.105 223.032 507.231 223.04"/><polygon class="c" points="507.231 223.04 508.324 223.03 508.105 223.032 507.231 223.04"/><polygon class="c" points="507.449 223.038 507.67 223.255 507.889 223.253 507.449 223.038"/><polygon class="c" points="507.449 223.038 508.105 223.032 507.889 223.253 507.449 223.038"/><polyline class="a" points="162.189 449.708 162.647 452.11 162.445 454.079 162.457 455.391 162.468 456.703 162.474 457.359 162.476 457.577 162.5 460.42 162.112 466.108 162.359 469.386 162.829 473.099 162.422 476.601 162.874 478.346 163.098 479 163.102 479.437 162.904 481.844 162.611 498.465 162.618 499.339 162.63 500.651 162.698 508.522 162.945 511.8 163.268 523.823 163.285 525.79 163.754 529.504 163.339 532.131 163.362 534.755 163.596 536.502 162.946 537.163 161.864 538.485 160.118 538.937 157.708 538.302 157.271 538.306 156.615 538.311 156.177 538.315 155.955 537.88 155.729 537.007 155.065 536.138 153.75 535.712 153.299 534.186 152.62 531.568 152.396 530.914 152.162 529.166 151.936 528.294 152.153 528.073 152.328 523.043 151.99 509.271 152.186 506.645 152.171 504.896 151.709 502.057 151.47 499.654 151.671 497.685 151.605 490.032 151.746 481.066 152.011 461.167 151.774 458.982 151.542 457.453 151.308 455.706 151.04 450.024 151.217 445.212 151.421 443.461"/><path class="b" d="M158.5242,430.4986l.2186-.0019Z"/><polygon class="c" points="156.911 446.256 158.879 446.239 158.89 447.55 156.911 446.256"/><polygon class="c" points="156.909 446.037 156.911 446.256 158.879 446.239 156.909 446.037"/><polygon class="c" points="156.909 446.037 158.877 446.02 158.879 446.239 156.909 446.037"/></svg>