<svg xmlns="http://www.w3.org/2000/svg" viewBox="0 0 402.4521 434.251"><defs><style>.a{fill:#fff;}.a,.b,.c,.d,.e{stroke:#d91519;}.a,.b,.c,.d,.e,.g{stroke-linecap:round;stroke-linejoin:round;}.a,.b,.c,.d{stroke-width:3px;}.b,.c{fill:#fffdfd;}.c{fill-rule:evenodd;}.d,.e,.g{fill:none;}.f{fill:#606060;}.g{stroke:#606060;stroke-width:2px;}</style></defs><title>5_ladrillo</title><path class="a" d="M339.1052,226.4783v72.3135m61.8469-107.5184-61.8469,35.2049L213.5085,155.1165m0,0L276.3068,118.96l124.6453,72.3135v71.3618m-61.8469,36.1566,61.8469-36.1566" transform="translate(0 -4.6777)"/><polygon class="b" points="291.531 150.439 303.9 142.827 327.687 156.148 315.318 163.76 291.531 150.439"/><polygon class="b" points="300.094 172.323 322.93 186.596 310.56 193.256 286.773 179.935 300.094 172.323"/><polygon class="b" points="252.42 145.506 275.255 159.779 262.886 166.439 239.099 153.118 252.42 145.506"/><polygon class="b" points="339.105 177.081 361.941 190.401 374.31 183.741 351.475 169.469 339.105 177.081"/><path class="b" d="M351.4746,174.1465V189.37m-51.38-12.3693v14.2725M303.9,147.5046v14.2725m-51.38-11.4179v14.2723" transform="translate(0 -4.6777)"/><path class="a" d="M277.6373,261.9406v72.3135m61.8469-107.5184-61.8469,35.2049L152.0405,190.5788m0,0,62.7984-36.1567,124.6453,72.3136v71.3618m-61.8469,36.1566,61.8469-36.1566" transform="translate(0 -4.6777)"/><polygon class="b" points="230.063 185.901 242.432 178.289 266.219 191.61 253.85 199.222 230.063 185.901"/><polygon class="b" points="238.626 207.785 261.462 222.058 249.092 228.718 225.305 215.397 238.626 207.785"/><polygon class="b" points="190.952 180.969 213.787 195.241 201.418 201.901 177.631 188.58 190.952 180.969"/><polygon class="b" points="277.637 212.543 300.473 225.864 312.842 219.203 290.007 204.931 277.637 212.543"/><path class="b" d="M290.0066,209.6088v15.2237m-51.38-12.3694v14.2726m3.8059-43.7688v14.2725m-51.38-11.4179v14.2723" transform="translate(0 -4.6777)"/><path class="a" d="M214.7853,297.856V370.17m61.8469-107.5184L214.7853,297.856,89.1885,226.4942m0,0,62.7984-36.1566,124.6453,72.3135v71.3618M214.7853,370.17l61.8469-36.1566" transform="translate(0 -4.6777)"/><polygon class="b" points="167.211 221.816 179.58 214.205 203.367 227.525 190.998 235.138 167.211 221.816"/><polygon class="b" points="175.774 243.701 198.61 257.973 186.24 264.634 162.453 251.313 175.774 243.701"/><polygon class="b" points="128.1 216.884 150.935 231.156 138.566 237.817 114.779 224.496 128.1 216.884"/><polygon class="b" points="214.785 248.458 237.621 261.779 249.99 255.119 227.155 240.846 214.785 248.458"/><path class="b" d="M227.1546,245.5242v15.2237m-51.38-12.3693v14.2725m3.806-43.7687v14.2725M128.2,221.737v14.2722" transform="translate(0 -4.6777)"/><polygon class="b" points="89.078 296.535 214.223 366.865 214.223 292.373 89.078 222.044 89.078 296.535"/><polyline class="b" points="267.018 195.605 267.018 203.288 267.067 203.584 200.526 242.001 133.986 203.584 134.035 203.879 134.035 196.196"/><polygon class="c" points="267.067 195.9 200.526 234.318 133.986 195.901 200.527 157.483 267.067 195.9"/><ellipse class="b" cx="200.5264" cy="195.9004" rx="16.649" ry="9.6123"/><ellipse class="b" cx="200.5264" cy="191.1721" rx="16.649" ry="9.6123"/><line class="d" x1="183.8774" y1="196.1959" x2="183.8774" y2="191.4676"/><line class="d" x1="217.1754" y1="196.1959" x2="217.1754" y2="191.4676"/><ellipse class="b" cx="200.5264" cy="191.1721" rx="5.6149" ry="3.2417"/><ellipse class="b" cx="200.5264" cy="171.6678" rx="5.6149" ry="3.2417"/><polyline class="b" points="206.141 190.877 206.141 177.874 194.912 177.874 194.912 190.877"/><path class="b" d="M209.07,178.3105c2.9257,5.8,2.5231,5.9039-1.378,8.1562a15.6122,15.6122,0,0,1-14.1268,0c-3.901-2.2522-4.3036-2.3558-1.3777-8.1562A9.3381,9.3381,0,0,1,209.07,178.3105Z" transform="translate(0 -4.6777)"/><ellipse class="b" cx="200.5264" cy="171.6678" rx="5.6149" ry="3.2417"/><polyline class="b" points="206.141 171.372 206.141 128.227 194.912 128.227 194.912 171.372"/><ellipse class="b" cx="200.5264" cy="128.5221" rx="5.6149" ry="3.2417"/><path class="e" d="M206.512,140.1674a13.55,13.55,0,0,1-11.9711,2.6493" transform="translate(0 -4.6777)"/><path class="e" d="M206.512,146.1674a13.55,13.55,0,0,1-11.9711,2.6493" transform="translate(0 -4.6777)"/><path class="e" d="M206.512,152.1674a13.55,13.55,0,0,1-11.9711,2.6493" transform="translate(0 -4.6777)"/><path class="e" d="M206.512,158.1674a13.55,13.55,0,0,1-11.9711,2.6493" transform="translate(0 -4.6777)"/><path class="e" d="M206.512,164.1674a13.55,13.55,0,0,1-11.9711,2.6493" transform="translate(0 -4.6777)"/><path class="e" d="M206.512,170.1674a13.55,13.55,0,0,1-11.9711,2.6493" transform="translate(0 -4.6777)"/><path class="f" d="M277.3232,369.6777a11.8576,11.8576,0,0,1,3.16.3711,6.1086,6.1086,0,0,1,2.186,1.0557,4.1829,4.1829,0,0,1,1.2705,1.667,5.5983,5.5983,0,0,1,.4126,2.1865,6.5941,6.5941,0,0,1-.3051,2.0039,5.95,5.95,0,0,1-.9078,1.7744,6.32,6.32,0,0,1-1.5175,1.4356,7.9586,7.9586,0,0,1-2.1367,1.0068,5.8775,5.8775,0,0,1,3.1923,1.666,4.4025,4.4025,0,0,1,1.0645,3.0528,7.4927,7.4927,0,0,1-.5859,2.9941,6.6429,6.6429,0,0,1-1.6915,2.3516,7.7453,7.7453,0,0,1-2.6972,1.5351,11.0765,11.0765,0,0,1-3.5889.544h-7.7715l2.9038-23.6446ZM275.4258,390.88a7.0119,7.0119,0,0,0,2.3105-.3457,4.3431,4.3431,0,0,0,1.6416-.99,4.1327,4.1327,0,0,0,.9815-1.5507,5.9691,5.9691,0,0,0,.33-2.0469,3.1821,3.1821,0,0,0-1.0479-2.5,4.6905,4.6905,0,0,0-3.1924-.9317h-4.6367L270.79,390.88ZM273.1,372.1025l-1.0068,8.2344h3.8115a6.9463,6.9463,0,0,0,2.335-.3555,4.6391,4.6391,0,0,0,1.6665-.9892,3.9861,3.9861,0,0,0,.9985-1.5264,5.6171,5.6171,0,0,0,.33-1.9629,3.1247,3.1247,0,0,0-1.0235-2.55,4.9006,4.9006,0,0,0-3.1679-.8506Z" transform="translate(0 -4.6777)"/><path class="f" d="M286.7119,393.3223l2.9531-24.3047h2.8877L289.6,393.3223Z" transform="translate(0 -4.6777)"/><path class="f" d="M300.2744,393.5537a6.506,6.506,0,0,1-2.5078-.4707,5.5093,5.5093,0,0,1-1.9639-1.3613,6.2912,6.2912,0,0,1-1.2871-2.1778,8.6753,8.6753,0,0,1-.4619-2.9375,11.8211,11.8211,0,0,1,.66-3.9765,10.5918,10.5918,0,0,1,1.8149-3.2578,8.6981,8.6981,0,0,1,2.7144-2.2032,7.1859,7.1859,0,0,1,3.3574-.8085,6.4918,6.4918,0,0,1,2.5083.4707,5.4823,5.4823,0,0,1,1.9634,1.3613,6.2815,6.2815,0,0,1,1.2871,2.1777,8.6144,8.6144,0,0,1,.4619,2.92,11.7886,11.7886,0,0,1-.66,3.961,10.7854,10.7854,0,0,1-1.8066,3.2656,8.6168,8.6168,0,0,1-2.7139,2.22A7.1755,7.1755,0,0,1,300.2744,393.5537Zm.28-2.2939a3.8317,3.8317,0,0,0,2.1865-.66,5.9172,5.9172,0,0,0,1.6826-1.7568,8.88,8.88,0,0,0,1.0811-2.5332,11.7017,11.7017,0,0,0,.3794-3.003,5.5494,5.5494,0,0,0-.9155-3.4736,3.1517,3.1517,0,0,0-2.6319-1.1621,3.9,3.9,0,0,0-2.2031.65,5.7849,5.7849,0,0,0-1.6748,1.7422,8.8885,8.8885,0,0,0-1.0723,2.5234,11.7137,11.7137,0,0,0-.3794,3.0039,5.657,5.657,0,0,0,.9077,3.4893A3.1283,3.1283,0,0,0,300.5547,391.26Z" transform="translate(0 -4.6777)"/><path class="f" d="M321.2949,389.2959a12.6052,12.6052,0,0,1-1.2451,1.7578,9.1677,9.1677,0,0,1-1.4028,1.3447,5.9143,5.9143,0,0,1-1.5425.8584,4.8617,4.8617,0,0,1-1.6831.2969,4.0993,4.0993,0,0,1-1.7984-.3887,3.7969,3.7969,0,0,1-1.3862-1.1386,5.4382,5.4382,0,0,1-.8911-1.8477,9.1722,9.1722,0,0,1-.3135-2.5156,11.3625,11.3625,0,0,1,.3711-2.8965,11.8451,11.8451,0,0,1,1.0562-2.6641,11.5876,11.5876,0,0,1,1.65-2.3027,11.2693,11.2693,0,0,1,2.1455-1.8144,10.123,10.123,0,0,1,2.5322-1.1875,9.4794,9.4794,0,0,1,2.8379-.4209,12.27,12.27,0,0,1,2.0791.1728,8.719,8.719,0,0,1,1.9966.6025l-2.69,21.8291h-1.8481a1.0227,1.0227,0,0,1-.4951-.1074.7893.7893,0,0,1-.3047-.2793,1.0311,1.0311,0,0,1-.1406-.4043,1.6316,1.6316,0,0,1,0-.4629Zm1.3535-10.6426a4.905,4.905,0,0,0-.7177-.1074q-.3553-.0234-.7012-.0234a5.818,5.818,0,0,0-1.9307.3213,6.8161,6.8161,0,0,0-1.7324.8994,7.7,7.7,0,0,0-1.4687,1.3769,8.9671,8.9671,0,0,0-1.13,1.7578,9.962,9.962,0,0,0-.7344,2.0371,9.31,9.31,0,0,0-.2642,2.22,5.4946,5.4946,0,0,0,.6519,2.9775,2.1328,2.1328,0,0,0,1.9058.999,2.887,2.887,0,0,0,1.5673-.4951,5.9963,5.9963,0,0,0,1.4683-1.3779,11.7165,11.7165,0,0,0,1.2871-2.0947,19.78,19.78,0,0,0,1.0562-2.6485Z" transform="translate(0 -4.6777)"/><path class="f" d="M343.1738,376.6084l-2.0127,16.7139H339.709a.9406.9406,0,0,1-1.0723-1.0557l.2471-3.0527a10.2017,10.2017,0,0,1-2.978,3.2422,6.1044,6.1044,0,0,1-3.4073,1.0976,3.9729,3.9729,0,0,1-1.8647-.4219,3.331,3.331,0,0,1-1.3115-1.2285,5.2135,5.2135,0,0,1-.6846-1.98,9.594,9.594,0,0,1,.0161-2.69l1.2544-10.625h2.92l-1.2539,10.625a5.4535,5.4535,0,0,0,.2393,2.9209,1.79,1.79,0,0,0,1.7739.957,3.4411,3.4411,0,0,0,1.5679-.4131,6,6,0,0,0,1.5508-1.1709,9.9919,9.9919,0,0,0,1.394-1.84,12.8182,12.8182,0,0,0,1.1138-2.4014l1.0395-8.6777Z" transform="translate(0 -4.6777)"/><path class="f" d="M358.6836,390.2373a14.8178,14.8178,0,0,1-1.6494,1.4922,9.9842,9.9842,0,0,1-1.6421,1.0312,7.1951,7.1951,0,0,1-1.749.6026,9.7533,9.7533,0,0,1-1.9717.19,6.5956,6.5956,0,0,1-2.5737-.4785,5.3366,5.3366,0,0,1-1.9307-1.3613,6.115,6.115,0,0,1-1.2212-2.1368,8.6274,8.6274,0,0,1-.4292-2.8046,12.2724,12.2724,0,0,1,.2725-2.5664,11.9825,11.9825,0,0,1,.792-2.4336,10.9874,10.9874,0,0,1,1.2705-2.1446,8.5575,8.5575,0,0,1,1.7158-1.709,8.0712,8.0712,0,0,1,2.1289-1.13,7.436,7.436,0,0,1,2.5-.4121,6.0107,6.0107,0,0,1,2.1948.3623,4.6836,4.6836,0,0,1,1.5176.9238,3.7073,3.7073,0,0,1,.8828,1.2383,3.2829,3.2829,0,0,1,.2891,1.2871,4.5112,4.5112,0,0,1-.4458,2.0039,4.16,4.16,0,0,1-1.6333,1.65,12.1763,12.1763,0,0,1-3.2671,1.2793,35.9481,35.9481,0,0,1-5.3462.874c0,.1221-.0029.2393-.0078.3545s-.0088.2344-.0088.3555a5.1606,5.1606,0,0,0,.9658,3.374,3.5658,3.5658,0,0,0,2.9121,1.1631,5.4721,5.4721,0,0,0,1.4107-.1651,6.07,6.07,0,0,0,1.1054-.4043,4.8831,4.8831,0,0,0,.8579-.5283q.3714-.2871.6768-.5273a6.1862,6.1862,0,0,1,.5693-.4043.9928.9928,0,0,1,.5274-.1651.7371.7371,0,0,1,.5615.28Zm-4.6528-11.748a4.2842,4.2842,0,0,0-1.9141.4287,5.086,5.086,0,0,0-1.5508,1.18,7.1993,7.1993,0,0,0-1.1548,1.7646,10.5693,10.5693,0,0,0-.7431,2.1875,32.0148,32.0148,0,0,0,4.0761-.7187,10.1563,10.1563,0,0,0,2.3594-.8741,2.2746,2.2746,0,0,0,1.3526-2.1533,1.6518,1.6518,0,0,0-.5528-1.2051,2.2872,2.2872,0,0,0-.75-.4365A3.1922,3.1922,0,0,0,354.0308,378.4893Z" transform="translate(0 -4.6777)"/><path class="f" d="M261.1211,408.6182l-2.9863,24.3047h-1.5342a.8721.8721,0,0,1-.7759-.2969,1.2854,1.2854,0,0,1-.1977-.7266l.3134-3.5146a13.2824,13.2824,0,0,1-1.37,1.9638,10.2482,10.2482,0,0,1-1.5591,1.502,6.7763,6.7763,0,0,1-1.7.9648,4.9848,4.9848,0,0,1-1.7905.3379,3.95,3.95,0,0,1-3.333-1.5586,7.376,7.376,0,0,1-1.1875-4.5293,13.272,13.272,0,0,1,.28-2.707,14.0431,14.0431,0,0,1,.8-2.59,12.6771,12.6771,0,0,1,1.2539-2.3018,9.4637,9.4637,0,0,1,1.6421-1.84,7.54,7.54,0,0,1,1.9551-1.2217,5.5721,5.5721,0,0,1,2.2027-.4453,5.1331,5.1331,0,0,1,2.2524.4873,4.8747,4.8747,0,0,1,1.7241,1.3779l1.1382-9.207Zm-4.2568,11.2363a3.3927,3.3927,0,0,0-1.51-1.2461,4.77,4.77,0,0,0-1.79-.3545,3.8228,3.8228,0,0,0-2.3433.7754,6.825,6.825,0,0,0-1.7739,2.0049,10.4816,10.4816,0,0,0-1.13,2.7471,11.7984,11.7984,0,0,0-.3965,2.9873,5.3163,5.3163,0,0,0,.7017,2.9941,2.2785,2.2785,0,0,0,2.0044,1.0312,3.0486,3.0486,0,0,0,1.6-.4951,6.6084,6.6084,0,0,0,1.56-1.3779,12.1158,12.1158,0,0,0,1.4024-2.0869,16.5111,16.5111,0,0,0,1.13-2.64Z" transform="translate(0 -4.6777)"/><path class="f" d="M275.6738,429.8369a14.8236,14.8236,0,0,1-1.6494,1.4932,9.98,9.98,0,0,1-1.6421,1.0312,7.2794,7.2794,0,0,1-1.749.6026,9.7618,9.7618,0,0,1-1.9717.1894,6.596,6.596,0,0,1-2.5737-.4785,5.3158,5.3158,0,0,1-1.9307-1.3613,6.108,6.108,0,0,1-1.2212-2.1367,8.6285,8.6285,0,0,1-.4292-2.8047,12.2932,12.2932,0,0,1,.2725-2.5664,12.0231,12.0231,0,0,1,.792-2.4336,11.0219,11.0219,0,0,1,1.27-2.1446,8.5522,8.5522,0,0,1,1.7158-1.708,8.0731,8.0731,0,0,1,2.1289-1.13,7.4161,7.4161,0,0,1,2.4995-.4121,6.0138,6.0138,0,0,1,2.1949.3623,4.6678,4.6678,0,0,1,1.5175.9239,3.6941,3.6941,0,0,1,.8829,1.2373,3.2878,3.2878,0,0,1,.289,1.2871,4.5144,4.5144,0,0,1-.4458,2.0049,4.1578,4.1578,0,0,1-1.6333,1.6494,12.1749,12.1749,0,0,1-3.2671,1.2793,36.0611,36.0611,0,0,1-5.3462.875c0,.1211-.0029.2383-.0078.3545s-.0088.2334-.0088.3545a5.1636,5.1636,0,0,0,.9658,3.375,3.5654,3.5654,0,0,0,2.9122,1.1621,5.5182,5.5182,0,0,0,1.4106-.1641,6.0716,6.0716,0,0,0,1.1055-.4043,5.0065,5.0065,0,0,0,.8579-.5283q.3713-.2886.6767-.5283a6.5972,6.5972,0,0,1,.5694-.4043.991.991,0,0,1,.5273-.1641.7391.7391,0,0,1,.5615.2793Zm-4.6528-11.748a4.2715,4.2715,0,0,0-1.9141.43,5.07,5.07,0,0,0-1.5507,1.18,7.1612,7.1612,0,0,0-1.1548,1.7647,10.54,10.54,0,0,0-.7432,2.1865,32.025,32.025,0,0,0,4.0762-.7178,10.2,10.2,0,0,0,2.3594-.874,2.2772,2.2772,0,0,0,1.3525-2.1543,1.6284,1.6284,0,0,0-.1318-.6181,1.6486,1.6486,0,0,0-.4209-.586,2.2854,2.2854,0,0,0-.75-.4365A3.1914,3.1914,0,0,0,271.021,418.0889Z" transform="translate(0 -4.6777)"/><path class="f" d="M296.3643,428.5166a14.2411,14.2411,0,0,1-1.2789,1.9141,8.9385,8.9385,0,0,1-1.4516,1.4609,6.3174,6.3174,0,0,1-1.6172.9316,4.7989,4.7989,0,0,1-1.7573.33,4.1,4.1,0,0,1-1.7984-.3877,3.7476,3.7476,0,0,1-1.3779-1.1386,5.5574,5.5574,0,0,1-.8828-1.8477,9.1792,9.1792,0,0,1-.3135-2.5166,11.3446,11.3446,0,0,1,.3711-2.8955,11.836,11.836,0,0,1,1.0562-2.6651,11.7153,11.7153,0,0,1,1.6421-2.3017,11.0116,11.0116,0,0,1,2.1367-1.8154,10.1919,10.1919,0,0,1,2.5322-1.1875,9.5133,9.5133,0,0,1,2.8384-.42,12.42,12.42,0,0,1,2.0874.1719,8.7023,8.7023,0,0,1,2.0044.6035l-1.9966,16.17H297.041a.8959.8959,0,0,1-.7842-.2969,1.2442,1.2442,0,0,1-.206-.7266Zm1.122-10.2627a4.6509,4.6509,0,0,0-.7177-.1074q-.3553-.0249-.7012-.0244a5.7723,5.7723,0,0,0-1.9141.3222,6.8163,6.8163,0,0,0-1.7324.8985,7.6777,7.6777,0,0,0-1.4688,1.3779,8.9859,8.9859,0,0,0-1.13,1.7568,9.9924,9.9924,0,0,0-.7344,2.0381,9.3038,9.3038,0,0,0-.2642,2.22q0,3.9754,2.541,3.9765a2.8774,2.8774,0,0,0,1.584-.5039,6.1653,6.1653,0,0,0,1.4771-1.4023,11.8228,11.8228,0,0,0,1.2949-2.1289,19.9546,19.9546,0,0,0,1.0562-2.6973Z" transform="translate(0 -4.6777)"/><path class="f" d="M307.1055,420.4316a10.4129,10.4129,0,0,1,3.0195-3.3408A6.1381,6.1381,0,0,1,313.59,415.96a3.9264,3.9264,0,0,1,1.8565.4218A3.3531,3.3531,0,0,1,316.75,417.61a5.2408,5.2408,0,0,1,.6851,1.9882,9.9482,9.9482,0,0,1,0,2.6817l-1.2539,10.6426H313.26l1.2539-10.6426a5.4058,5.4058,0,0,0-.2471-2.93,1.7962,1.7962,0,0,0-1.7656-.9483,3.45,3.45,0,0,0-1.6089.4288,6.23,6.23,0,0,0-1.5757,1.2207,10.2044,10.2044,0,0,0-1.4111,1.9062,13.3121,13.3121,0,0,0-1.1133,2.4834l-.957,8.4815h-2.9375l2.0136-16.7315h1.4517a.8748.8748,0,0,1,.99.9893Z" transform="translate(0 -4.6777)"/><path class="f" d="M332.9111,429.9189a15.1457,15.1457,0,0,1-1.6333,1.5684,7.9536,7.9536,0,0,1-1.5512.9981,6.2894,6.2894,0,0,1-1.6084.5195,10.1533,10.1533,0,0,1-1.79.1484,6.2637,6.2637,0,0,1-2.5664-.4951,5.0733,5.0733,0,0,1-1.8642-1.3936,6.1477,6.1477,0,0,1-1.1387-2.1621,9.44,9.44,0,0,1-.3877-2.78,11.9789,11.9789,0,0,1,.6357-3.8936,10.9284,10.9284,0,0,1,1.7735-3.3008,8.82,8.82,0,0,1,2.7143-2.2929,7.0721,7.0721,0,0,1,3.44-.8575,5.9943,5.9943,0,0,1,2.789.585,5.82,5.82,0,0,1,1.9629,1.708l-.9238,1.1055a1.037,1.037,0,0,1-.2559.2148.6237.6237,0,0,1-.3213.0821.6692.6692,0,0,1-.4541-.2061,5.6155,5.6155,0,0,0-.5859-.4619,4.1738,4.1738,0,0,0-.8989-.4629,3.9115,3.9115,0,0,0-1.3775-.2051,4.0221,4.0221,0,0,0-2.1455.6182,6.0586,6.0586,0,0,0-1.7656,1.6914,8.6288,8.6288,0,0,0-1.1963,2.541,11.0125,11.0125,0,0,0-.437,3.1514,6.9355,6.9355,0,0,0,.231,1.8564,3.9729,3.9729,0,0,0,.6933,1.419,3.1666,3.1666,0,0,0,1.13.9072,3.5522,3.5522,0,0,0,1.56.3213,4.6066,4.6066,0,0,0,1.8564-.33,6.2339,6.2339,0,0,0,1.2617-.7168,11.2205,11.2205,0,0,0,.8663-.7188,1.051,1.051,0,0,1,.7011-.3291.7339.7339,0,0,1,.5615.28Z" transform="translate(0 -4.6777)"/><path class="f" d="M335.4688,432.9229l2.9536-24.3047H341.31l-2.9532,24.3047Z" transform="translate(0 -4.6777)"/><path class="f" d="M353.14,428.5166a14.2389,14.2389,0,0,1-1.2783,1.9141,8.9408,8.9408,0,0,1-1.4521,1.4609,6.3174,6.3174,0,0,1-1.6172.9316,4.7986,4.7986,0,0,1-1.7568.33,4.1026,4.1026,0,0,1-1.7989-.3877,3.7516,3.7516,0,0,1-1.3779-1.1386,5.5671,5.5671,0,0,1-.8828-1.8477,9.1792,9.1792,0,0,1-.3135-2.5166,11.3229,11.3229,0,0,1,.3716-2.8955,11.7808,11.7808,0,0,1,2.6977-4.9668,11.024,11.024,0,0,1,2.1368-1.8154,10.1952,10.1952,0,0,1,2.5327-1.1875,9.5085,9.5085,0,0,1,2.8384-.42,12.4143,12.4143,0,0,1,2.0869.1719,8.7076,8.7076,0,0,1,2.0049.6035l-1.9966,16.17h-1.5181a.8949.8949,0,0,1-.7837-.2969,1.2444,1.2444,0,0,1-.2065-.7266Zm1.1221-10.2627a4.65,4.65,0,0,0-.7178-.1074q-.3545-.0249-.7011-.0244a5.7723,5.7723,0,0,0-1.9141.3222,6.8163,6.8163,0,0,0-1.7324.8985,7.6925,7.6925,0,0,0-1.4688,1.3779,9.0091,9.0091,0,0,0-1.13,1.7568,9.9924,9.9924,0,0,0-.7344,2.0381,9.3291,9.3291,0,0,0-.2637,2.22q0,3.9754,2.541,3.9765a2.8787,2.8787,0,0,0,1.584-.5039,6.1729,6.1729,0,0,0,1.4766-1.4023,11.7659,11.7659,0,0,0,1.2949-2.1289,19.9545,19.9545,0,0,0,1.0566-2.6973Z" transform="translate(0 -4.6777)"/><path class="f" d="M364.7393,416.208l-2.2115,17.9512a6.4606,6.4606,0,0,1-.4946,1.873,5.113,5.113,0,0,1-.9985,1.51,4.4675,4.4675,0,0,1-1.4932,1.0156,5.0311,5.0311,0,0,1-1.98.3711,4.9449,4.9449,0,0,1-.9819-.083,4.4421,4.4421,0,0,1-.8-.2471l.2969-1.584a.553.553,0,0,1,.124-.2226.3361.3361,0,0,1,.1982-.0918,1.9329,1.9329,0,0,1,.3135-.0078c.1265.0058.2832.0078.47.0078a2.2624,2.2624,0,0,0,1.733-.6016,3.5188,3.5188,0,0,0,.7426-1.9394l2.1944-17.9512Zm1.039-5.2471a1.8687,1.8687,0,0,1-.1728.8,2.3011,2.3011,0,0,1-.4619.66,2.2053,2.2053,0,0,1-.6524.4541,1.8086,1.8086,0,0,1-.7588.165,1.7551,1.7551,0,0,1-.751-.165,2.03,2.03,0,0,1-.6269-.4541,2.3088,2.3088,0,0,1-.437-.66,1.9451,1.9451,0,0,1-.1651-.8,2.0075,2.0075,0,0,1,.1651-.8086,2.2239,2.2239,0,0,1,.4458-.6689,2.2727,2.2727,0,0,1,.6347-.4609,1.6927,1.6927,0,0,1,.751-.1739,1.8087,1.8087,0,0,1,.7588.1651,2.22,2.22,0,0,1,.6519.4541,2.1225,2.1225,0,0,1,.4536.6758A2.0658,2.0658,0,0,1,365.7783,410.9609Z" transform="translate(0 -4.6777)"/><path class="f" d="M380.3809,429.8369a14.8907,14.8907,0,0,1-1.65,1.4932,9.9429,9.9429,0,0,1-1.6416,1.0312,7.2876,7.2876,0,0,1-1.7491.6026,9.7536,9.7536,0,0,1-1.9716.1894,6.5987,6.5987,0,0,1-2.5743-.4785,5.3239,5.3239,0,0,1-1.9306-1.3613,6.1273,6.1273,0,0,1-1.2207-2.1367,8.6261,8.6261,0,0,1-.4287-2.8047,12.3261,12.3261,0,0,1,.2719-2.5664,12.0293,12.0293,0,0,1,.792-2.4336,11.0269,11.0269,0,0,1,1.27-2.1446,8.5546,8.5546,0,0,1,1.7163-1.708,8.0677,8.0677,0,0,1,2.128-1.13,7.4232,7.4232,0,0,1,2.5-.4121,6.0119,6.0119,0,0,1,2.1943.3623,4.6655,4.6655,0,0,1,1.5181.9239,3.7008,3.7008,0,0,1,.8828,1.2373,3.2852,3.2852,0,0,1,.2886,1.2871,4.5223,4.5223,0,0,1-.4453,2.0049,4.1594,4.1594,0,0,1-1.6338,1.6494,12.1789,12.1789,0,0,1-3.2666,1.2793,36.0543,36.0543,0,0,1-5.3462.875c0,.1211-.0025.2383-.0083.3545s-.0078.2334-.0078.3545a5.163,5.163,0,0,0,.9648,3.375,3.5666,3.5666,0,0,0,2.9121,1.1621,5.52,5.52,0,0,0,1.4111-.1641,6.0826,6.0826,0,0,0,1.1055-.4043,5.0027,5.0027,0,0,0,.8579-.5283q.3714-.2886.6763-.5283a6.82,6.82,0,0,1,.5693-.4043.9932.9932,0,0,1,.5284-.1641.7374.7374,0,0,1,.56.2793Zm-4.6534-11.748a4.2714,4.2714,0,0,0-1.914.43,5.0774,5.0774,0,0,0-1.5508,1.18,7.194,7.194,0,0,0-1.1553,1.7647,10.5153,10.5153,0,0,0-.7422,2.1865,32.0145,32.0145,0,0,0,4.0752-.7178,10.1713,10.1713,0,0,0,2.3594-.874,2.2778,2.2778,0,0,0,1.3535-2.1543,1.6276,1.6276,0,0,0-.1323-.6181,1.6519,1.6519,0,0,0-.42-.586,2.2986,2.2986,0,0,0-.751-.4365A3.191,3.191,0,0,0,375.7275,418.0889Z" transform="translate(0 -4.6777)"/><line class="g" x1="313.496" y1="354.0569" x2="313.496" y2="293.1709"/><circle class="f" cx="313.496" cy="293.1709" r="4.5117"/><path class="f" d="M20.5093,170.3223h-2.376a.9318.9318,0,0,1-.6436-.2061,1.1405,1.1405,0,0,1-.33-.5371l-1.2867-5.7744h-9.62l-2.7055,5.7744a1.4419,1.4419,0,0,1-.4536.52,1.1368,1.1368,0,0,1-.6851.2227H0l11.583-23.6446h3.1348Zm-5.1314-8.7618-2.1616-9.7841q-.0828-.4453-.1977-1.0313t-.1983-1.2617q-.2475.6914-.4951,1.27t-.4453,1.04l-4.57,9.7675Z" transform="translate(0 -4.6777)"/><path class="f" d="M27.06,158.2607a14.2006,14.2006,0,0,1,1.4277-2.4336,7.1093,7.1093,0,0,1,1.6084-1.6171,3.97,3.97,0,0,1,1.7324-.709,3.3681,3.3681,0,0,1,1.8155.2715l-.5284,2.8222a3.3748,3.3748,0,0,0-3.7866.627q-1.6421,1.4853-2.6645,5.3623l-.9244,7.7383h-2.871l2.0131-16.7315H26.334a.8824.8824,0,0,1,1.0063.99Z" transform="translate(0 -4.6777)"/><path class="f" d="M44.4834,165.917a14.3143,14.3143,0,0,1-1.2788,1.9141,8.8958,8.8958,0,0,1-1.4517,1.46,6.3509,6.3509,0,0,1-1.6172.9326,4.8175,4.8175,0,0,1-1.7573.33,4.1007,4.1007,0,0,1-1.7983-.3887,3.7277,3.7277,0,0,1-1.378-1.1386,5.54,5.54,0,0,1-.8828-1.8477,9.1763,9.1763,0,0,1-.3134-2.5156,11.3581,11.3581,0,0,1,.3711-2.8965A11.79,11.79,0,0,1,37.0752,156.8a11.0414,11.0414,0,0,1,2.1367-1.8144,10.123,10.123,0,0,1,2.5322-1.1875,9.4827,9.4827,0,0,1,2.8384-.4209,12.4181,12.4181,0,0,1,2.0874.1728,8.6991,8.6991,0,0,1,2.0044.6025l-1.9966,16.17H45.16a.8932.8932,0,0,1-.7842-.2969A1.241,1.241,0,0,1,44.17,169.3Zm1.1221-10.2637a4.9083,4.9083,0,0,0-.7178-.1074q-.3552-.0234-.7012-.0234a5.7688,5.7688,0,0,0-1.914.3213,6.8167,6.8167,0,0,0-1.7325.8994,7.7031,7.7031,0,0,0-1.4687,1.3769,8.9671,8.9671,0,0,0-1.13,1.7578,9.962,9.962,0,0,0-.7344,2.0371,9.315,9.315,0,0,0-.2641,2.22q0,3.9769,2.541,3.9765a2.876,2.876,0,0,0,1.584-.5029,6.1649,6.1649,0,0,0,1.477-1.4023,11.8591,11.8591,0,0,0,1.2949-2.129A20,20,0,0,0,44.896,161.38Z" transform="translate(0 -4.6777)"/><path class="f" d="M55.2246,157.8311a10.4092,10.4092,0,0,1,3.02-3.34A6.1382,6.1382,0,0,1,61.709,153.36a3.9362,3.9362,0,0,1,1.8564.4209,3.3634,3.3634,0,0,1,1.3033,1.2294,5.2375,5.2375,0,0,1,.685,1.9883,9.9408,9.9408,0,0,1,0,2.6807L64.3,170.3223H61.3789L62.6328,159.68a5.4032,5.4032,0,0,0-.2471-2.9287,1.7952,1.7952,0,0,0-1.7656-.9492,3.4412,3.4412,0,0,0-1.6089.43,6.2116,6.2116,0,0,0-1.5757,1.2207,10.1844,10.1844,0,0,0-1.4111,1.9063,13.338,13.338,0,0,0-1.1133,2.4824l-.957,8.4815H51.0166L53.03,153.5908h1.4516a.8752.8752,0,0,1,.99.99Z" transform="translate(0 -4.6777)"/><path class="f" d="M84.5615,146.0176l-2.9863,24.3047H80.0405a.87.87,0,0,1-.7759-.2969,1.282,1.282,0,0,1-.1977-.7256l.3135-3.5156a13.1984,13.1984,0,0,1-1.37,1.9638,10.2245,10.2245,0,0,1-1.559,1.502,6.7593,6.7593,0,0,1-1.7.9648,4.9646,4.9646,0,0,1-1.79.3389,3.9479,3.9479,0,0,1-3.333-1.56,7.3759,7.3759,0,0,1-1.188-4.5293,13.27,13.27,0,0,1,.2808-2.706,13.9764,13.9764,0,0,1,.8-2.59,12.71,12.71,0,0,1,1.2539-2.3027,9.5293,9.5293,0,0,1,1.6421-1.84,7.5384,7.5384,0,0,1,1.9555-1.2207,5.5719,5.5719,0,0,1,2.2022-.4453,5.1432,5.1432,0,0,1,2.2524.4863,4.8726,4.8726,0,0,1,1.7242,1.3779l1.1386-9.207Zm-4.2568,11.2373a3.3921,3.3921,0,0,0-1.51-1.2461,4.7714,4.7714,0,0,0-1.79-.3555,3.8241,3.8241,0,0,0-2.3433.7754,6.8389,6.8389,0,0,0-1.7734,2.0059,10.4606,10.4606,0,0,0-1.13,2.7461,11.781,11.781,0,0,0-.3965,2.9873,5.318,5.318,0,0,0,.7012,2.9951,2.28,2.28,0,0,0,2.0049,1.0312,3.0508,3.0508,0,0,0,1.6006-.4961,6.6249,6.6249,0,0,0,1.56-1.3769,12.1259,12.1259,0,0,0,1.4024-2.0879,16.5132,16.5132,0,0,0,1.13-2.64Z" transform="translate(0 -4.6777)"/><path class="f" d="M99.1143,167.2373a14.8736,14.8736,0,0,1-1.65,1.4922,9.9674,9.9674,0,0,1-1.6421,1.0312,7.1944,7.1944,0,0,1-1.7491.6026,9.7445,9.7445,0,0,1-1.9716.19,6.5961,6.5961,0,0,1-2.5738-.4785,5.337,5.337,0,0,1-1.9306-1.3613,6.1291,6.1291,0,0,1-1.2212-2.1368,8.625,8.625,0,0,1-.4287-2.8046,12.2789,12.2789,0,0,1,.2724-2.5664,11.9577,11.9577,0,0,1,.792-2.4336,10.9725,10.9725,0,0,1,1.27-2.1446,8.5471,8.5471,0,0,1,1.7158-1.709,8.07,8.07,0,0,1,2.1285-1.13,7.44,7.44,0,0,1,2.5-.4121,6.0111,6.0111,0,0,1,2.1948.3623,4.6916,4.6916,0,0,1,1.5181.9238,3.7215,3.7215,0,0,1,.8828,1.2383,3.2818,3.2818,0,0,1,.2886,1.2871,4.5112,4.5112,0,0,1-.4458,2.0039,4.16,4.16,0,0,1-1.6333,1.65,12.1763,12.1763,0,0,1-3.2671,1.2793,35.9422,35.9422,0,0,1-5.3457.874c0,.1221-.003.2393-.0083.3545s-.0083.2344-.0083.3555a5.16,5.16,0,0,0,.9653,3.374,3.5658,3.5658,0,0,0,2.9121,1.1631,5.4691,5.4691,0,0,0,1.4106-.1651,6.0578,6.0578,0,0,0,1.1055-.4043,4.91,4.91,0,0,0,.8584-.5283q.3706-.2871.6763-.5273a6.3109,6.3109,0,0,1,.5693-.4043.9944.9944,0,0,1,.5278-.1651.7365.7365,0,0,1,.5611.28Zm-4.6534-11.748a4.2856,4.2856,0,0,0-1.914.4287,5.092,5.092,0,0,0-1.5508,1.18,7.2137,7.2137,0,0,0-1.1548,1.7646,10.5452,10.5452,0,0,0-.7427,2.1875,32.0034,32.0034,0,0,0,4.0757-.7187,10.1474,10.1474,0,0,0,2.3594-.8741,2.2742,2.2742,0,0,0,1.353-2.1533,1.6348,1.6348,0,0,0-.1318-.6191,1.6535,1.6535,0,0,0-.4209-.586,2.29,2.29,0,0,0-.751-.4365A3.1886,3.1886,0,0,0,94.4609,155.4893Z" transform="translate(0 -4.6777)"/><path class="f" d="M101.8359,170.3223l2.9541-24.3047h2.8872l-2.9536,24.3047Z" transform="translate(0 -4.6777)"/><path class="f" d="M119.5073,165.917a14.3527,14.3527,0,0,1-1.2788,1.9141,8.8781,8.8781,0,0,1-1.4521,1.46,6.3414,6.3414,0,0,1-1.6167.9326,4.822,4.822,0,0,1-1.7574.33,4.1029,4.1029,0,0,1-1.7988-.3887,3.7267,3.7267,0,0,1-1.3774-1.1386,5.5366,5.5366,0,0,1-.8828-1.8477,9.1722,9.1722,0,0,1-.3135-2.5156,11.3142,11.3142,0,0,1,.3716-2.8965,11.7885,11.7885,0,0,1,2.6972-4.9668,11.0688,11.0688,0,0,1,2.1368-1.8144,10.1279,10.1279,0,0,1,2.5332-1.1875,9.4711,9.4711,0,0,1,2.8378-.4209,12.41,12.41,0,0,1,2.087.1728,8.7022,8.7022,0,0,1,2.0048.6025l-1.9961,16.17h-1.5185a.8917.8917,0,0,1-.7832-.2969,1.2413,1.2413,0,0,1-.2066-.7256Zm1.1221-10.2637a4.9083,4.9083,0,0,0-.7178-.1074q-.3552-.0234-.7012-.0234a5.7667,5.7667,0,0,0-1.914.3213,6.8175,6.8175,0,0,0-1.7329.8994,7.7011,7.7011,0,0,0-1.4683,1.3769,8.9738,8.9738,0,0,0-1.13,1.7578,9.9914,9.9914,0,0,0-.7343,2.0371,9.3353,9.3353,0,0,0-.2637,2.22q0,3.9769,2.541,3.9765a2.8748,2.8748,0,0,0,1.584-.5029,6.1729,6.1729,0,0,0,1.4766-1.4023,11.8083,11.8083,0,0,0,1.2954-2.129A20,20,0,0,0,119.92,161.38Z" transform="translate(0 -4.6777)"/><line class="g" x1="133.9521" y1="157.1709" x2="168.49" y2="180.0627"/><path class="f" d="M165.9974,188.5012a4.5117,4.5117,0,1,0-1.268-6.2532A4.5122,4.5122,0,0,0,165.9974,188.5012Z" transform="translate(0 -4.6777)"/><path class="f" d="M173.522,4.6777a11.8529,11.8529,0,0,1,3.16.3711,6.1125,6.1125,0,0,1,2.1866,1.0557,4.1883,4.1883,0,0,1,1.27,1.667,5.6073,5.6073,0,0,1,.4121,2.1865,6.6093,6.6093,0,0,1-.3047,2.0039,5.9636,5.9636,0,0,1-.9077,1.7744,6.3325,6.3325,0,0,1-1.5181,1.4356,7.9413,7.9413,0,0,1-2.1367,1.0068,5.8763,5.8763,0,0,1,3.1924,1.666,4.4005,4.4005,0,0,1,1.0644,3.0528,7.4927,7.4927,0,0,1-.5859,2.9941,6.6463,6.6463,0,0,1-1.6909,2.3516,7.7436,7.7436,0,0,1-2.6978,1.5351,11.072,11.072,0,0,1-3.5888.544h-7.7715L166.51,4.6777ZM171.6245,25.88a7.01,7.01,0,0,0,2.31-.3457,4.3407,4.3407,0,0,0,1.6416-.99,4.14,4.14,0,0,0,.9819-1.5507,5.9693,5.9693,0,0,0,.33-2.0469,3.1814,3.1814,0,0,0-1.0474-2.5,4.6927,4.6927,0,0,0-3.1928-.9317h-4.6368L166.9883,25.88ZM169.2979,7.1025l-1.0064,8.2344h3.8115a6.9429,6.9429,0,0,0,2.3345-.3555,4.637,4.637,0,0,0,1.667-.9892,3.985,3.985,0,0,0,.998-1.5264,5.6148,5.6148,0,0,0,.33-1.9629,3.1234,3.1234,0,0,0-1.0234-2.55,4.8992,4.8992,0,0,0-3.168-.8506Z" transform="translate(0 -4.6777)"/><path class="f" d="M193.1567,23.917a14.3527,14.3527,0,0,1-1.2788,1.9141,8.8781,8.8781,0,0,1-1.4521,1.46,6.34,6.34,0,0,1-1.6167.9326,4.8215,4.8215,0,0,1-1.7573.33,4.103,4.103,0,0,1-1.7989-.3887,3.7267,3.7267,0,0,1-1.3774-1.1386,5.5385,5.5385,0,0,1-.8828-1.8477,9.1722,9.1722,0,0,1-.3135-2.5156,11.3142,11.3142,0,0,1,.3716-2.8965A11.7885,11.7885,0,0,1,185.748,14.8a11.0688,11.0688,0,0,1,2.1368-1.8144,10.1279,10.1279,0,0,1,2.5332-1.1875,9.4713,9.4713,0,0,1,2.8379-.4209,12.41,12.41,0,0,1,2.0869.1728,8.7045,8.7045,0,0,1,2.0049.6025l-1.9961,16.17H193.833a.8917.8917,0,0,1-.7832-.2969,1.2412,1.2412,0,0,1-.2065-.7256Zm1.1221-10.2637a4.9063,4.9063,0,0,0-.7178-.1074q-.3552-.0234-.7011-.0234a5.7668,5.7668,0,0,0-1.9141.3213,6.8192,6.8192,0,0,0-1.7329.8994,7.7011,7.7011,0,0,0-1.4683,1.3769,8.9688,8.9688,0,0,0-1.13,1.7578,9.9917,9.9917,0,0,0-.7344,2.0371,9.3353,9.3353,0,0,0-.2637,2.22q0,3.977,2.541,3.9765a2.8748,2.8748,0,0,0,1.584-.5029,6.1729,6.1729,0,0,0,1.4766-1.4023,11.8083,11.8083,0,0,0,1.2954-2.129,20,20,0,0,0,1.0561-2.6972Z" transform="translate(0 -4.6777)"/><path class="f" d="M203.8813,16.2607a14.2067,14.2067,0,0,1,1.4273-2.4336A7.1275,7.1275,0,0,1,206.917,12.21a3.9713,3.9713,0,0,1,1.7329-.709,3.366,3.366,0,0,1,1.8149.2715l-.5283,2.8222a3.3739,3.3739,0,0,0-3.7861.627q-1.642,1.4853-2.665,5.3623l-.9239,7.7383H199.69l2.0127-16.7315h1.4522a.8828.8828,0,0,1,1.0068.99Z" transform="translate(0 -4.6777)"/><path class="f" d="M215.167,16.2607a14.2006,14.2006,0,0,1,1.4277-2.4336,7.1113,7.1113,0,0,1,1.6084-1.6171,3.97,3.97,0,0,1,1.7324-.709,3.368,3.368,0,0,1,1.8155.2715l-.5283,2.8222a3.3749,3.3749,0,0,0-3.7867.627q-1.6421,1.4853-2.6645,5.3623l-.9243,7.7383h-2.8711l2.0132-16.7315h1.4521a.8825.8825,0,0,1,1.0064.99Z" transform="translate(0 -4.6777)"/><path class="f" d="M232.5908,23.917a14.3047,14.3047,0,0,1-1.2788,1.9141,8.8954,8.8954,0,0,1-1.4516,1.46,6.3526,6.3526,0,0,1-1.6172.9326,4.8181,4.8181,0,0,1-1.7574.33,4.1007,4.1007,0,0,1-1.7983-.3887,3.7274,3.7274,0,0,1-1.3779-1.1386,5.5366,5.5366,0,0,1-.8828-1.8477,9.1722,9.1722,0,0,1-.3135-2.5156,11.3581,11.3581,0,0,1,.3711-2.8965A11.79,11.79,0,0,1,225.1826,14.8a11.0414,11.0414,0,0,1,2.1367-1.8144,10.1236,10.1236,0,0,1,2.5323-1.1875,9.4816,9.4816,0,0,1,2.8383-.4209,12.4181,12.4181,0,0,1,2.0874.1728,8.6977,8.6977,0,0,1,2.0044.6025l-1.9965,16.17h-1.5176a.8932.8932,0,0,1-.7842-.2969,1.241,1.241,0,0,1-.2061-.7256Zm1.1221-10.2637a4.9083,4.9083,0,0,0-.7178-.1074q-.3552-.0234-.7012-.0234a5.7688,5.7688,0,0,0-1.914.3213,6.8145,6.8145,0,0,0-1.7324.8994,7.7036,7.7036,0,0,0-1.4688,1.3769,8.9717,8.9717,0,0,0-1.13,1.7578,9.9618,9.9618,0,0,0-.7343,2.0371,9.31,9.31,0,0,0-.2642,2.22q0,3.977,2.541,3.9765a2.876,2.876,0,0,0,1.584-.5029,6.1631,6.1631,0,0,0,1.477-1.4023,11.8592,11.8592,0,0,0,1.295-2.129,20,20,0,0,0,1.0561-2.6972Z" transform="translate(0 -4.6777)"/><path class="f" d="M117.918,43.6182l-2.9864,24.3047h-1.5341a.8721.8721,0,0,1-.7759-.2969,1.2846,1.2846,0,0,1-.1978-.7266l.3135-3.5146a13.29,13.29,0,0,1-1.37,1.9638,10.2529,10.2529,0,0,1-1.5591,1.502,6.7763,6.7763,0,0,1-1.7.9648,4.9852,4.9852,0,0,1-1.7905.3379,3.95,3.95,0,0,1-3.333-1.5586,7.376,7.376,0,0,1-1.1875-4.5293,13.2718,13.2718,0,0,1,.28-2.707,14.0357,14.0357,0,0,1,.8-2.59,12.6771,12.6771,0,0,1,1.2539-2.3018,9.46,9.46,0,0,1,1.6421-1.84,7.54,7.54,0,0,1,1.9551-1.2217,5.5716,5.5716,0,0,1,2.2026-.4453,5.1335,5.1335,0,0,1,2.2525.4873,4.8765,4.8765,0,0,1,1.7241,1.3779l1.1382-9.207Zm-4.2569,11.2363a3.3925,3.3925,0,0,0-1.51-1.2461,4.77,4.77,0,0,0-1.79-.3545,3.8226,3.8226,0,0,0-2.3432.7754,6.8267,6.8267,0,0,0-1.774,2.0049,10.4814,10.4814,0,0,0-1.13,2.7471,11.7984,11.7984,0,0,0-.3965,2.9873,5.3172,5.3172,0,0,0,.7016,2.9941,2.2787,2.2787,0,0,0,2.0044,1.0312,3.0489,3.0489,0,0,0,1.6006-.4951,6.6084,6.6084,0,0,0,1.56-1.3779,12.11,12.11,0,0,0,1.4023-2.0869,16.5022,16.5022,0,0,0,1.13-2.64Z" transform="translate(0 -4.6777)"/><path class="f" d="M132.4707,64.8369a14.8236,14.8236,0,0,1-1.6494,1.4932,9.9842,9.9842,0,0,1-1.6421,1.0312,7.2809,7.2809,0,0,1-1.749.6026,9.7625,9.7625,0,0,1-1.9717.1894,6.596,6.596,0,0,1-2.5737-.4785,5.315,5.315,0,0,1-1.9307-1.3613,6.108,6.108,0,0,1-1.2212-2.1367,8.6285,8.6285,0,0,1-.4292-2.8047,12.2865,12.2865,0,0,1,.2725-2.5664,12.0231,12.0231,0,0,1,.792-2.4336,11.0169,11.0169,0,0,1,1.27-2.1446,8.55,8.55,0,0,1,1.7158-1.708,8.0715,8.0715,0,0,1,2.1289-1.13,7.4161,7.4161,0,0,1,2.4995-.4121,6.0129,6.0129,0,0,1,2.1948.3623,4.6672,4.6672,0,0,1,1.5176.9239,3.6938,3.6938,0,0,1,.8828,1.2373,3.2863,3.2863,0,0,1,.2891,1.2871,4.5144,4.5144,0,0,1-.4458,2.0049,4.1578,4.1578,0,0,1-1.6333,1.6494,12.1763,12.1763,0,0,1-3.2671,1.2793,36.0634,36.0634,0,0,1-5.3462.875c0,.1211-.0029.2383-.0078.3545s-.0088.2334-.0088.3545a5.1636,5.1636,0,0,0,.9658,3.375,3.5653,3.5653,0,0,0,2.9121,1.1621,5.5185,5.5185,0,0,0,1.4107-.1641,6.07,6.07,0,0,0,1.1054-.4043,5.0037,5.0037,0,0,0,.858-.5283q.3713-.2886.6767-.5283a6.5818,6.5818,0,0,1,.5694-.4043.9907.9907,0,0,1,.5273-.1641.7391.7391,0,0,1,.5615.2793Zm-4.6528-11.748a4.2715,4.2715,0,0,0-1.9141.43,5.0714,5.0714,0,0,0-1.5508,1.18,7.1669,7.1669,0,0,0-1.1548,1.7647,10.54,10.54,0,0,0-.7431,2.1865,32.025,32.025,0,0,0,4.0762-.7178,10.1989,10.1989,0,0,0,2.3593-.874,2.277,2.277,0,0,0,1.3526-2.1543,1.6267,1.6267,0,0,0-.1319-.6181,1.6473,1.6473,0,0,0-.4209-.586,2.2854,2.2854,0,0,0-.7505-.4365A3.1908,3.1908,0,0,0,127.8179,53.0889Z" transform="translate(0 -4.6777)"/><path class="f" d="M147.0234,55.7451a13.6139,13.6139,0,0,1,1.3692-1.9717,9.87,9.87,0,0,1,1.5674-1.51,6.9323,6.9323,0,0,1,1.708-.9649,5.0047,5.0047,0,0,1,1.8066-.3388,3.9367,3.9367,0,0,1,3.3247,1.5507,7.4091,7.4091,0,0,1,1.18,4.5381,13.2993,13.2993,0,0,1-.2808,2.7061,13.7845,13.7845,0,0,1-.8,2.582,12.78,12.78,0,0,1-1.2539,2.293,9.824,9.824,0,0,1-1.6338,1.8486,7.255,7.255,0,0,1-1.955,1.23,5.6348,5.6348,0,0,1-2.211.4453,5.09,5.09,0,0,1-2.2441-.4863,4.8912,4.8912,0,0,1-1.7158-1.3779l-.8911,7.2929h-2.8545l2.7221-22.3906h1.4522a.875.875,0,0,1,.99.9893Zm-.8916,8.5137a3.5463,3.5463,0,0,0,1.502,1.2461,4.5106,4.5106,0,0,0,1.7817.3711,3.7,3.7,0,0,0,1.6172-.3633,5.0913,5.0913,0,0,0,1.3862-.98,7.1493,7.1493,0,0,0,1.1216-1.4531,10.1139,10.1139,0,0,0,.8335-1.7812,12.3311,12.3311,0,0,0,.52-1.9639,11.3721,11.3721,0,0,0,.1816-2.0049,5.2313,5.2313,0,0,0-.7095-2.9863,2.2916,2.2916,0,0,0-1.9966-1.0235,3.09,3.09,0,0,0-1.6005.4873A6.5283,6.5283,0,0,0,149.21,55.168a11.82,11.82,0,0,0-1.4029,2.0791,16.4679,16.4679,0,0,0-1.13,2.64Z" transform="translate(0 -4.6777)"/><path class="f" d="M166.4932,68.1533a6.49,6.49,0,0,1-2.5083-.4707,5.4823,5.4823,0,0,1-1.9634-1.3613,6.267,6.267,0,0,1-1.2871-2.1777,8.6539,8.6539,0,0,1-.4619-2.9366,11.8193,11.8193,0,0,1,.66-3.9765,10.5949,10.5949,0,0,1,1.8145-3.2588,8.6934,8.6934,0,0,1,2.7148-2.2031,7.1836,7.1836,0,0,1,3.3574-.8086,6.5057,6.5057,0,0,1,2.5078.4707,5.5111,5.5111,0,0,1,1.9639,1.3613,6.2984,6.2984,0,0,1,1.2871,2.1777,8.6185,8.6185,0,0,1,.4619,2.92,11.7951,11.7951,0,0,1-.66,3.961,10.81,10.81,0,0,1-1.8067,3.2666,8.6431,8.6431,0,0,1-2.7143,2.22A7.1752,7.1752,0,0,1,166.4932,68.1533Zm.28-2.2929a3.8378,3.8378,0,0,0,2.1861-.66,5.9069,5.9069,0,0,0,1.6831-1.7578,8.8818,8.8818,0,0,0,1.081-2.5332,11.6951,11.6951,0,0,0,.3789-3.002,5.5456,5.5456,0,0,0-.9155-3.4736,3.1512,3.1512,0,0,0-2.6313-1.1631,3.8931,3.8931,0,0,0-2.2032.6514,5.7636,5.7636,0,0,0-1.6748,1.7412,8.9072,8.9072,0,0,0-1.0722,2.5244,11.6841,11.6841,0,0,0-.38,3.0029,5.6627,5.6627,0,0,0,.9077,3.49A3.1292,3.1292,0,0,0,166.7734,65.86Z" transform="translate(0 -4.6777)"/><path class="f" d="M188.1738,53.8809a1.034,1.034,0,0,1-.2641.288.5687.5687,0,0,1-.33.0918.9256.9256,0,0,1-.5039-.1816q-.2718-.1816-.66-.4043a5.3373,5.3373,0,0,0-.9487-.4121,4.7177,4.7177,0,0,0-2.7061.0156,3.2841,3.2841,0,0,0-1.0478.5694,2.5635,2.5635,0,0,0-.6763.85,2.3037,2.3037,0,0,0-.2393,1.0313,1.5821,1.5821,0,0,0,.5113,1.2363,4.6759,4.6759,0,0,0,1.2871.8008q.7756.3384,1.6665.6523a8.6245,8.6245,0,0,1,1.6665.7911,4.2722,4.2722,0,0,1,1.2871,1.2207,3.341,3.341,0,0,1,.5117,1.9316,5.5581,5.5581,0,0,1-1.7578,4.0664,6.4017,6.4017,0,0,1-2.0459,1.2793,7.1735,7.1735,0,0,1-2.6807.4785,6.659,6.659,0,0,1-2.83-.5693,5.9023,5.9023,0,0,1-2.0049-1.46l.7261-1.123a1.2388,1.2388,0,0,1,.3217-.3291.8018.8018,0,0,1,.9815.1152c.1758.1543.3965.3272.66.52a4.3815,4.3815,0,0,0,.9981.52,4.3042,4.3042,0,0,0,1.5263.23,4.0664,4.0664,0,0,0,1.46-.248,3.4252,3.4252,0,0,0,1.1055-.6592,2.7783,2.7783,0,0,0,.6928-.9658,2.9417,2.9417,0,0,0,.2393-1.18,1.7737,1.7737,0,0,0-.5112-1.336,4.1789,4.1789,0,0,0-1.2871-.8251q-.7757-.33-1.6665-.6182a8.4868,8.4868,0,0,1-1.6666-.7432,4.0619,4.0619,0,0,1-1.2866-1.18,3.2856,3.2856,0,0,1-.5117-1.9306,5.1161,5.1161,0,0,1,.4209-2.0371,5.2646,5.2646,0,0,1,1.2124-1.7412,5.9385,5.9385,0,0,1,1.9224-1.2129,6.8032,6.8032,0,0,1,2.5493-.4541,6.5284,6.5284,0,0,1,2.6479.5039,6.1018,6.1018,0,0,1,1.9717,1.3613Z" transform="translate(0 -4.6777)"/><path class="f" d="M191.9189,64.7705v-.2559c0-.1035.0083-.2558.0249-.4531s.0435-.457.0826-.7754.0908-.7373.1567-1.2539l1.023-8.3652h-1.8643a.4743.4743,0,0,1-.3716-.1572.6176.6176,0,0,1-.1069-.4873l.1318-1.1709,2.5742-.3467,1.2539-5.1641a.9145.9145,0,0,1,.2559-.4043.6212.6212,0,0,1,.4365-.1572h1.5352l-.71,5.7588H200.73l-.2476,2.1289h-4.4053L195.07,61.8838q-.0821.6768-.1318,1.0879c-.0332.2754-.0576.4961-.0742.66-.0166.1661-.0274.2813-.0332.3477s-.0079.1152-.0079.1484a1.72,1.72,0,0,0,.3956,1.2451,1.4113,1.4113,0,0,0,1.0561.4043,2.1233,2.1233,0,0,0,.7671-.124,3.6315,3.6315,0,0,0,.5693-.2715,4.8565,4.8565,0,0,0,.4126-.2734.5056.5056,0,0,1,.2808-.123.3223.3223,0,0,1,.2226.0664.6253.6253,0,0,1,.14.2138l.6269,1.4033a6.1983,6.1983,0,0,1-1.8393,1.1133,5.6374,5.6374,0,0,1-2.0713.4043,3.49,3.49,0,0,1-2.5161-.875A3.4486,3.4486,0,0,1,191.9189,64.7705Z" transform="translate(0 -4.6777)"/><path class="f" d="M215.4478,64.8369a14.8437,14.8437,0,0,1-1.65,1.4932,9.9637,9.9637,0,0,1-1.6416,1.0312,7.2876,7.2876,0,0,1-1.7491.6026,9.7611,9.7611,0,0,1-1.9717.1894,6.5985,6.5985,0,0,1-2.5742-.4785,5.3231,5.3231,0,0,1-1.9306-1.3613,6.1118,6.1118,0,0,1-1.2207-2.1367,8.6258,8.6258,0,0,1-.4292-2.8047,12.3261,12.3261,0,0,1,.2719-2.5664,12.0606,12.0606,0,0,1,.792-2.4336,11.047,11.047,0,0,1,1.27-2.1446,8.5676,8.5676,0,0,1,1.7163-1.708,8.0707,8.0707,0,0,1,2.1285-1.13,7.4186,7.4186,0,0,1,2.5-.4121,6.0123,6.0123,0,0,1,2.1943.3623,4.6576,4.6576,0,0,1,1.5176.9239,3.6868,3.6868,0,0,1,.8828,1.2373,3.2863,3.2863,0,0,1,.2891,1.2871,4.521,4.521,0,0,1-.4454,2.0049,4.1587,4.1587,0,0,1-1.6338,1.6494,12.1762,12.1762,0,0,1-3.2666,1.2793,36.0585,36.0585,0,0,1-5.3466.875c0,.1211-.0025.2383-.0078.3545s-.0083.2334-.0083.3545a5.163,5.163,0,0,0,.9653,3.375,3.5664,3.5664,0,0,0,2.9121,1.1621,5.5222,5.5222,0,0,0,1.4111-.1641,6.0992,6.0992,0,0,0,1.1055-.4043,4.9821,4.9821,0,0,0,.8574-.5283q.3722-.2886.6768-.5283a6.6592,6.6592,0,0,1,.5693-.4043.9915.9915,0,0,1,.5278-.1641.7385.7385,0,0,1,.5611.2793Zm-4.6529-11.748a4.27,4.27,0,0,0-1.914.43,5.0714,5.0714,0,0,0-1.5508,1.18,7.18,7.18,0,0,0-1.1553,1.7647,10.5454,10.5454,0,0,0-.7427,2.1865,32.0247,32.0247,0,0,0,4.0757-.7178,10.18,10.18,0,0,0,2.3594-.874,2.2784,2.2784,0,0,0,1.353-2.1543,1.6276,1.6276,0,0,0-.1323-.6181,1.6458,1.6458,0,0,0-.42-.586,2.2959,2.2959,0,0,0-.75-.4365A3.1949,3.1949,0,0,0,210.7949,53.0889Z" transform="translate(0 -4.6777)"/><path class="f" d="M222.2949,55.4316a10.4131,10.4131,0,0,1,3.02-3.3408,6.1376,6.1376,0,0,1,3.4648-1.1308,3.9257,3.9257,0,0,1,1.8564.4218A3.354,3.354,0,0,1,231.939,52.61a5.2425,5.2425,0,0,1,.685,1.9882,9.9482,9.9482,0,0,1,0,2.6817L231.37,67.9229h-2.9209L229.7031,57.28a5.4069,5.4069,0,0,0-.247-2.93,1.7965,1.7965,0,0,0-1.7657-.9483,3.4506,3.4506,0,0,0-1.6089.4288,6.2277,6.2277,0,0,0-1.5756,1.2207,10.2091,10.2091,0,0,0-1.4112,1.9062,13.3251,13.3251,0,0,0-1.1133,2.4834l-.957,8.4815h-2.9375l2.0137-16.7315h1.4516a.8748.8748,0,0,1,.99.9893Z" transform="translate(0 -4.6777)"/><path class="f" d="M246.3516,53.8809a1.0394,1.0394,0,0,1-.2637.288.57.57,0,0,1-.33.0918.9242.9242,0,0,1-.5034-.1816c-.1812-.1211-.4019-.2559-.66-.4043a5.36,5.36,0,0,0-.9492-.4121,4.7175,4.7175,0,0,0-2.706.0156,3.2863,3.2863,0,0,0-1.0474.5694,2.5635,2.5635,0,0,0-.6763.85,2.2983,2.2983,0,0,0-.2392,1.0313,1.58,1.58,0,0,0,.5112,1.2363,4.68,4.68,0,0,0,1.2866.8008q.7764.3384,1.667.6523a8.6174,8.6174,0,0,1,1.666.7911,4.2664,4.2664,0,0,1,1.2871,1.2207,3.34,3.34,0,0,1,.5118,1.9316,5.5608,5.5608,0,0,1-1.7574,4.0664,6.4127,6.4127,0,0,1-2.0459,1.2793,7.1738,7.1738,0,0,1-2.6811.4785,6.6592,6.6592,0,0,1-2.83-.5693,5.9082,5.9082,0,0,1-2.0049-1.46l.7266-1.123a1.2288,1.2288,0,0,1,.3213-.3291.8024.8024,0,0,1,.9819.1152q.2637.2314.66.52a4.3679,4.3679,0,0,0,.998.52,4.3052,4.3052,0,0,0,1.5264.23,4.0681,4.0681,0,0,0,1.46-.248,3.43,3.43,0,0,0,1.1055-.6592,2.7864,2.7864,0,0,0,.6929-.9658,2.9433,2.9433,0,0,0,.2392-1.18,1.7737,1.7737,0,0,0-.5112-1.336,4.1837,4.1837,0,0,0-1.2871-.8251q-.7764-.33-1.667-.6182a8.4684,8.4684,0,0,1-1.666-.7432,4.0572,4.0572,0,0,1-1.2871-1.18,3.2885,3.2885,0,0,1-.5118-1.9306,5.1265,5.1265,0,0,1,.4209-2.0371,5.2587,5.2587,0,0,1,1.2129-1.7412,5.9426,5.9426,0,0,1,1.9219-1.2129,6.8077,6.8077,0,0,1,2.55-.4541,6.5292,6.5292,0,0,1,2.648.5039,6.1132,6.1132,0,0,1,1.9716,1.3613Z" transform="translate(0 -4.6777)"/><path class="f" d="M259.106,63.5166a14.2887,14.2887,0,0,1-1.2789,1.9141,8.9211,8.9211,0,0,1-1.4521,1.4609,6.3062,6.3062,0,0,1-1.6167.9316,4.8027,4.8027,0,0,1-1.7573.33,4.1026,4.1026,0,0,1-1.7989-.3877,3.7461,3.7461,0,0,1-1.3774-1.1386,5.5574,5.5574,0,0,1-.8828-1.8477,9.1792,9.1792,0,0,1-.3135-2.5166A11.3052,11.3052,0,0,1,249,59.3672,11.7742,11.7742,0,0,1,251.6973,54.4a11.0412,11.0412,0,0,1,2.1367-1.8154,10.1985,10.1985,0,0,1,2.5332-1.1875,9.5033,9.5033,0,0,1,2.8379-.42,12.41,12.41,0,0,1,2.0869.1719,8.7062,8.7062,0,0,1,2.0049.6035l-1.9961,16.17h-1.5186a.8944.8944,0,0,1-.7832-.2969,1.2444,1.2444,0,0,1-.2065-.7266Zm1.122-10.2627a4.6509,4.6509,0,0,0-.7177-.1074q-.3553-.0249-.7012-.0244a5.77,5.77,0,0,0-1.9141.3222,6.8193,6.8193,0,0,0-1.7329.8985,7.6752,7.6752,0,0,0-1.4683,1.3779,8.9927,8.9927,0,0,0-1.13,1.7568,10.0222,10.0222,0,0,0-.7344,2.0381,9.3291,9.3291,0,0,0-.2637,2.22q0,3.9754,2.541,3.9765a2.8762,2.8762,0,0,0,1.584-.5039,6.1729,6.1729,0,0,0,1.4766-1.4023,11.7667,11.7667,0,0,0,1.2954-2.1289,19.9678,19.9678,0,0,0,1.0562-2.6973Z" transform="translate(0 -4.6777)"/><path class="f" d="M281.6943,43.6182l-2.9868,24.3047h-1.5346a.8717.8717,0,0,1-.7754-.2969,1.2848,1.2848,0,0,1-.1983-.7266l.3135-3.5146a13.2131,13.2131,0,0,1-1.3691,1.9638,10.214,10.214,0,0,1-1.56,1.502,6.76,6.76,0,0,1-1.6992.9648,4.9887,4.9887,0,0,1-1.79.3379,3.9493,3.9493,0,0,1-3.333-1.5586,7.3758,7.3758,0,0,1-1.1885-4.5293,13.308,13.308,0,0,1,.2808-2.707,13.9976,13.9976,0,0,1,.8-2.59,12.7324,12.7324,0,0,1,1.2539-2.3018,9.4584,9.4584,0,0,1,1.6416-1.84,7.5494,7.5494,0,0,1,1.9556-1.2217,5.5716,5.5716,0,0,1,2.2026-.4453,5.1282,5.1282,0,0,1,2.252.4873,4.8738,4.8738,0,0,1,1.7246,1.3779l1.1386-9.207ZM277.437,54.8545a3.3948,3.3948,0,0,0-1.51-1.2461,4.7662,4.7662,0,0,0-1.7905-.3545,3.8227,3.8227,0,0,0-2.3428.7754,6.8264,6.8264,0,0,0-1.7734,2.0049,10.4858,10.4858,0,0,0-1.13,2.7471,11.8019,11.8019,0,0,0-.396,2.9873,5.3166,5.3166,0,0,0,.7012,2.9941A2.28,2.28,0,0,0,271.2,65.7939a3.0505,3.0505,0,0,0,1.6006-.4951,6.6067,6.6067,0,0,0,1.5591-1.3779,12.087,12.087,0,0,0,1.4023-2.0869,16.5112,16.5112,0,0,0,1.13-2.64Z" transform="translate(0 -4.6777)"/><path class="f" d="M289.3169,68.1533a6.49,6.49,0,0,1-2.5083-.4707,5.491,5.491,0,0,1-1.9634-1.3613,6.2661,6.2661,0,0,1-1.2866-2.1777,8.6413,8.6413,0,0,1-.4624-2.9366,11.8318,11.8318,0,0,1,.66-3.9765,10.5981,10.5981,0,0,1,1.815-3.2588,8.6915,8.6915,0,0,1,2.7143-2.2031,7.1872,7.1872,0,0,1,3.358-.8086,6.5078,6.5078,0,0,1,2.5078.4707,5.5124,5.5124,0,0,1,1.9633,1.3613,6.2832,6.2832,0,0,1,1.2872,2.1777,8.6062,8.6062,0,0,1,.4619,2.92,11.7924,11.7924,0,0,1-.66,3.961,10.8133,10.8133,0,0,1-1.8071,3.2666,8.6446,8.6446,0,0,1-2.7144,2.22A7.1723,7.1723,0,0,1,289.3169,68.1533Zm.2808-2.2929a3.835,3.835,0,0,0,2.1855-.66,5.9083,5.9083,0,0,0,1.6836-1.7578,8.8982,8.8982,0,0,0,1.0806-2.5332,11.7,11.7,0,0,0,.3794-3.002,5.5455,5.5455,0,0,0-.9161-3.4736,3.1506,3.1506,0,0,0-2.6313-1.1631,3.8924,3.8924,0,0,0-2.2026.6514,5.7577,5.7577,0,0,0-1.6748,1.7412,8.905,8.905,0,0,0-1.0728,2.5244A11.6841,11.6841,0,0,0,286.05,61.19a5.6662,5.6662,0,0,0,.9072,3.49A3.13,3.13,0,0,0,289.5977,65.86Z" transform="translate(0 -4.6777)"/><line class="g" x1="200.4961" y1="81.0688" x2="200.4961" y2="124.0569"/><circle class="f" cx="200.4961" cy="124.0569" r="4.5117"/></svg>