<svg xmlns="http://www.w3.org/2000/svg" viewBox="0 0 684.6464 576.3711"><defs><style>.a,.e{fill:#606060;}.a,.d{stroke:#606060;}.a,.c,.d,.f{stroke-linecap:round;stroke-linejoin:round;stroke-width:3px;}.a{opacity:0.3;}.b{opacity:0.5;}.c{fill:#fff;}.c,.f{stroke:#d91519;}.d,.f{fill:none;}</style></defs><title>tensado2</title><rect class="a" x="366.3808" y="133.3013" width="81.7722" height="147.1899"/><rect class="a" x="448.7074" y="133.3013" width="134.439" height="147.1899"/><polygon class="a" points="616.146 281.491 582.707 281.491 582.707 134.301 683.146 134.301 616.146 281.491"/><g class="b"><line class="c" x1="572.1982" y1="221.5656" x2="641.2572" y2="221.336"/><line class="c" x1="654.2572" y1="191.4857" x2="575.0641" y2="191.7144"/><line class="c" x1="583.009" y1="191.3774" x2="499.4351" y2="191.607"/><line class="c" x1="493.1982" y1="221.4573" x2="580.1431" y2="221.2285"/><path class="c" d="M556.1137,225.5954l8.9962-30.357a.5516.5516,0,0,0-.0106-.3757l-1.6722-3.86c-.1524-.35-.6752-.3485-1.0331.0024l-3.939,3.8729a.8847.8847,0,0,0-.2311.3764l-8.8057,30.354a.5664.5664,0,0,0,.01.3779l1.62,3.8613c.1453.3487.65.3453.9981-.0066l3.8389-3.8715A.9051.9051,0,0,0,556.1137,225.5954Z" transform="translate(0 -4.0176)"/><path class="c" d="M569.8348,225.5954l8.9962-30.357a.5516.5516,0,0,0-.0106-.3757l-1.6722-3.86c-.1524-.35-.6752-.3485-1.0331.0024l-3.939,3.8729a.8847.8847,0,0,0-.2311.3764l-8.8057,30.354a.5664.5664,0,0,0,.01.3779l1.62,3.8613c.1453.3487.65.3453.9981-.0066l3.8389-3.8715A.9051.9051,0,0,0,569.8348,225.5954Z" transform="translate(0 -4.0176)"/><path class="c" d="M542.4875,225.6279l8.61-30.357a.5537.5537,0,0,0-.0154-.3758l-1.7212-3.86c-.1569-.35-.68-.3485-1.033.0024l-3.89,3.8729a.87.87,0,0,0-.2264.3763l-8.42,30.3541a.5676.5676,0,0,0,.0152.3779l1.6693,3.8613c.15.3486.6545.3453.998-.0066l3.79-3.8715A.89.89,0,0,0,542.4875,225.6279Z" transform="translate(0 -4.0176)"/><path class="c" d="M528.8622,225.66l8.2243-30.3569a.5546.5546,0,0,0-.02-.3758l-1.77-3.86c-.1613-.35-.6841-.3485-1.0329.0023l-3.84,3.873a.8555.8555,0,0,0-.2216.3763l-8.0339,30.3541a.5684.5684,0,0,0,.02.3779l1.7183,3.8613c.1542.3486.6588.3452.9979-.0067l3.74-3.8714A.8761.8761,0,0,0,528.8622,225.66Z" transform="translate(0 -4.0176)"/><path class="c" d="M515.2376,225.6928l7.8384-30.357a.5555.5555,0,0,0-.025-.3757l-1.8191-3.86c-.1658-.35-.6885-.3484-1.0329.0024l-3.7911,3.873a.8429.8429,0,0,0-.2168.3763l-7.6479,30.3541a.5692.5692,0,0,0,.0248.3778l1.7673,3.8614c.1585.3486.6631.3452.9977-.0067l3.691-3.8714A.8622.8622,0,0,0,515.2376,225.6928Z" transform="translate(0 -4.0176)"/><path class="c" d="M501.6139,225.7253l7.4524-30.357a.5568.5568,0,0,0-.03-.3757l-1.8682-3.86c-.17-.35-.6929-.3484-1.0328.0024l-3.7418,3.873a.8286.8286,0,0,0-.2119.3763l-7.2621,30.354a.5714.5714,0,0,0,.03.3779l1.8163,3.8614c.163.3486.6676.3452.9976-.0067L501.405,226.1A.8494.8494,0,0,0,501.6139,225.7253Z" transform="translate(0 -4.0176)"/><line class="c" x1="407.1982" y1="221.5656" x2="490.7722" y2="221.336"/><line class="c" x1="497.009" y1="191.4857" x2="410.0641" y2="191.7144"/><path class="c" d="M434.0935,195.3828,425.0973,225.74a.5525.5525,0,0,0,.0106.3758l1.6722,3.86c.1525.35.6753.3485,1.0331-.0023l3.939-3.873a.8836.8836,0,0,0,.2312-.3763l8.8057-30.3541a.567.567,0,0,0-.01-.3779l-1.62-3.8613c-.1453-.3486-.65-.3452-.9981.0067l-3.8389,3.8714A.9058.9058,0,0,0,434.0935,195.3828Z" transform="translate(0 -4.0176)"/><path class="c" d="M420.3724,195.3828,411.3762,225.74a.5531.5531,0,0,0,.0106.3758l1.6722,3.86c.1525.35.6753.3485,1.0331-.0023l3.9391-3.873a.8844.8844,0,0,0,.2311-.3763L427.068,195.37a.5664.5664,0,0,0-.01-.3779l-1.62-3.8613c-.1453-.3486-.65-.3452-.998.0067l-3.839,3.8714A.9058.9058,0,0,0,420.3724,195.3828Z" transform="translate(0 -4.0176)"/><path class="c" d="M447.72,195.35l-8.61,30.3569a.5537.5537,0,0,0,.0154.3758l1.7212,3.86c.1569.35.68.3484,1.033-.0024l3.89-3.873a.87.87,0,0,0,.2263-.3763l8.42-30.3541a.5673.5673,0,0,0-.0152-.3778L452.73,191.098c-.15-.3486-.6544-.3452-.9979.0067l-3.79,3.8714A.89.89,0,0,0,447.72,195.35Z" transform="translate(0 -4.0176)"/><path class="c" d="M461.3451,195.3178l-8.2243,30.357a.5537.5537,0,0,0,.02.3757l1.77,3.86c.1613.35.6841.3484,1.033-.0024l3.84-3.873a.8552.8552,0,0,0,.2215-.3763l8.0339-30.354a.5684.5684,0,0,0-.02-.3779l-1.7183-3.8614c-.1541-.3486-.6588-.3452-.9978.0067l-3.74,3.8714A.8766.8766,0,0,0,461.3451,195.3178Z" transform="translate(0 -4.0176)"/><path class="c" d="M474.97,195.2853l-7.8384,30.357a.556.556,0,0,0,.025.3757l1.8192,3.86c.1657.35.6885.3485,1.0329-.0024l3.7911-3.873a.8412.8412,0,0,0,.2167-.3763l7.648-30.354a.5694.5694,0,0,0-.0248-.3779l-1.7673-3.8614c-.1586-.3486-.6632-.3452-.9977.0067l-3.691,3.8714A.8625.8625,0,0,0,474.97,195.2853Z" transform="translate(0 -4.0176)"/><path class="c" d="M488.5933,195.2528l-7.4524,30.357a.5577.5577,0,0,0,.03.3758l1.8682,3.86c.17.35.6929.3485,1.0328-.0024l3.7418-3.8729a.83.83,0,0,0,.212-.3764l7.262-30.354a.5709.5709,0,0,0-.03-.3779l-1.8163-3.8613c-.163-.3487-.6675-.3453-.9976.0066l-3.6417,3.8715A.8491.8491,0,0,0,488.5933,195.2528Z" transform="translate(0 -4.0176)"/></g><rect class="d" x="366.3808" y="133.3013" width="81.7722" height="147.1899"/><rect class="d" x="448.7074" y="133.3013" width="134.439" height="147.1899"/><polygon class="d" points="616.146 280.491 583.707 280.491 583.707 133.301 683.146 133.301 616.146 280.491"/><rect class="d" x="366.3808" y="427.6812" width="81.7722" height="147.1899"/><polygon class="d" points="483.146 574.871 448.707 574.871 448.707 427.681 550.146 427.681 483.146 574.871"/><rect class="d" x="366.3808" y="280.4912" width="81.7722" height="147.1899"/><rect class="d" x="448.7074" y="280.4912" width="67.0809" height="147.1899"/><polygon class="d" points="549.257 427.681 516.066 427.681 516.066 280.491 616.257 280.491 549.257 427.681"/><rect class="c" x="377.9537" y="177.2712" width="59.2502" height="59.2502"/><rect class="c" x="374.8352" y="177.2712" width="59.2502" height="59.2502"/><polygon class="c" points="416.973 191.3 398.965 191.3 389.961 206.896 398.965 222.492 416.973 222.492 425.977 206.896 416.973 191.3"/><polygon class="c" points="413.074 191.3 395.066 191.3 386.062 206.896 395.066 222.492 413.074 222.492 422.079 206.896 413.074 191.3"/><path class="e" d="M135.6219,7.2686H128.659l-2.6074,21.0537h-3.0684l2.5732-21.0537h-6.9951l.2969-2.5909h17.0771Z" transform="translate(0 -4.0176)"/><path class="e" d="M148.8875,25.2363a14.71,14.71,0,0,1-1.65,1.4942,10.0734,10.0734,0,0,1-1.6416,1.0312,7.2427,7.2427,0,0,1-1.749.6016,9.682,9.682,0,0,1-1.9717.19,6.6017,6.6017,0,0,1-2.5742-.4785,5.3328,5.3328,0,0,1-1.93-1.3613,6.1237,6.1237,0,0,1-1.2217-2.1368,8.63,8.63,0,0,1-.4287-2.8056,12.2771,12.2771,0,0,1,.2725-2.5654,11.9825,11.9825,0,0,1,.792-2.4336,10.9944,10.9944,0,0,1,1.27-2.1455,8.5294,8.5294,0,0,1,1.7158-1.7071A8.0586,8.0586,0,0,1,141.9,11.7891a7.4352,7.4352,0,0,1,2.499-.4121,5.9864,5.9864,0,0,1,2.1943.3632,4.6553,4.6553,0,0,1,1.5186.9239,3.7008,3.7008,0,0,1,.8828,1.2373,3.2807,3.2807,0,0,1,.2881,1.2871,4.5268,4.5268,0,0,1-.4453,2.0049,4.1625,4.1625,0,0,1-1.6328,1.6494,12.1873,12.1873,0,0,1-3.2676,1.2793,36.0715,36.0715,0,0,1-5.3457.874q0,.1817-.0088.3545c-.0049.1162-.0078.2344-.0078.3555a5.1625,5.1625,0,0,0,.9648,3.374,3.568,3.568,0,0,0,2.9131,1.1631,5.4681,5.4681,0,0,0,1.41-.1651,5.899,5.899,0,0,0,1.1054-.4043,4.9651,4.9651,0,0,0,.8584-.5273c.2471-.1924.4727-.3692.6768-.5283a6.7352,6.7352,0,0,1,.5684-.4043.9868.9868,0,0,1,.5283-.1651.7371.7371,0,0,1,.5615.28Zm-4.6533-11.748a4.2864,4.2864,0,0,0-1.9141.43,5.092,5.092,0,0,0-1.5508,1.18,7.2165,7.2165,0,0,0-1.1552,1.7656,10.5551,10.5551,0,0,0-.7422,2.1855,31.64,31.64,0,0,0,4.0752-.7177,10.1131,10.1131,0,0,0,2.36-.8741,2.2746,2.2746,0,0,0,1.3526-2.1533,1.6477,1.6477,0,0,0-.5528-1.2041,2.2935,2.2935,0,0,0-.751-.4375A3.21,3.21,0,0,0,144.2342,13.4883Z" transform="translate(0 -4.0176)"/><path class="e" d="M155.7342,15.832a10.418,10.418,0,0,1,3.02-3.3418,6.1453,6.1453,0,0,1,3.4648-1.13,3.934,3.934,0,0,1,1.8565.4209,3.3672,3.3672,0,0,1,1.3037,1.2294,5.23,5.23,0,0,1,.6846,1.9873,9.9078,9.9078,0,0,1,0,2.6817l-1.2539,10.6426h-2.92l1.254-10.6426a5.4011,5.4011,0,0,0-.2481-2.9287,1.7942,1.7942,0,0,0-1.7656-.9483,3.4417,3.4417,0,0,0-1.6084.4287,6.1823,6.1823,0,0,0-1.5762,1.2207,10.1446,10.1446,0,0,0-1.41,1.9063,13.3985,13.3985,0,0,0-1.1143,2.4824l-.957,8.4815h-2.9366L153.54,11.5908h1.4522a.8753.8753,0,0,1,.99.99Z" transform="translate(0 -4.0176)"/><path class="e" d="M179.7918,14.2813a1.0541,1.0541,0,0,1-.2637.288.5707.5707,0,0,1-.33.0909.9261.9261,0,0,1-.5039-.1817c-.1806-.1211-.4013-.2558-.6591-.4043a5.4321,5.4321,0,0,0-.9493-.4121,4.2615,4.2615,0,0,0-1.3525-.1894,4.2058,4.2058,0,0,0-1.3535.206,3.2446,3.2446,0,0,0-1.0479.5693,2.59,2.59,0,0,0-.6767.85,2.31,2.31,0,0,0-.2393,1.0312,1.5859,1.5859,0,0,0,.5117,1.2373,4.7089,4.7089,0,0,0,1.2871.8008q.7749.3384,1.667.6514a8.5563,8.5563,0,0,1,1.666.792,4.2661,4.2661,0,0,1,1.2872,1.2207,3.3376,3.3376,0,0,1,.5117,1.9306,5.5621,5.5621,0,0,1-1.7578,4.0674,6.4163,6.4163,0,0,1-2.0459,1.2783,7.1573,7.1573,0,0,1-2.6807.4785,6.66,6.66,0,0,1-2.83-.5693,5.8852,5.8852,0,0,1-2.0049-1.46l.7266-1.122a1.2352,1.2352,0,0,1,.3213-.33.8039.8039,0,0,1,.9814.1162c.1758.1533.3965.3272.66.52a4.069,4.069,0,0,0,2.5244.751,4.094,4.094,0,0,0,1.4609-.248,3.4422,3.4422,0,0,0,1.1055-.66,2.7893,2.7893,0,0,0,.6924-.9648,2.942,2.942,0,0,0,.2393-1.18,1.7743,1.7743,0,0,0-.5118-1.3369,4.1892,4.1892,0,0,0-1.2861-.8252q-.7764-.33-1.667-.6182a8.4128,8.4128,0,0,1-1.666-.7432,4.0466,4.0466,0,0,1-1.2871-1.18,3.279,3.279,0,0,1-.5117-1.93,5.1091,5.1091,0,0,1,.4209-2.0381,5.266,5.266,0,0,1,1.2129-1.7412,5.9115,5.9115,0,0,1,1.9218-1.2119,6.7849,6.7849,0,0,1,2.5489-.4541,6.5468,6.5468,0,0,1,2.6484.5029,6.1184,6.1184,0,0,1,1.9717,1.3613Z" transform="translate(0 -4.0176)"/><path class="e" d="M192.5457,23.917a14.3161,14.3161,0,0,1-1.2793,1.9141,8.8625,8.8625,0,0,1-1.4521,1.46,6.3307,6.3307,0,0,1-1.6163.9326,4.8217,4.8217,0,0,1-1.7578.33,4.0954,4.0954,0,0,1-1.7978-.3887,3.74,3.74,0,0,1-1.378-1.1377,5.5442,5.5442,0,0,1-.8828-1.8486,9.1719,9.1719,0,0,1-.3134-2.5156,11.3524,11.3524,0,0,1,.3711-2.8965,11.7768,11.7768,0,0,1,2.6972-4.9658,11.0711,11.0711,0,0,1,2.1367-1.8154,10.1378,10.1378,0,0,1,2.5332-1.1875,9.4723,9.4723,0,0,1,2.8379-.4209,12.4034,12.4034,0,0,1,2.0869.1728,8.6883,8.6883,0,0,1,2.0049.6025l-1.9961,16.17h-1.5185a.8923.8923,0,0,1-.7832-.2969,1.2421,1.2421,0,0,1-.2061-.7266Zm1.1221-10.2637a4.7728,4.7728,0,0,0-.7178-.1064q-.3559-.0249-.7012-.0254a5.7654,5.7654,0,0,0-1.914.3223,6.7669,6.7669,0,0,0-1.7325.8994,7.6883,7.6883,0,0,0-1.4687,1.3769,9.0259,9.0259,0,0,0-1.1309,1.7578,9.9656,9.9656,0,0,0-.7334,2.0371,9.29,9.29,0,0,0-.2646,2.22q0,3.977,2.541,3.9765a2.8808,2.8808,0,0,0,1.584-.5029,6.1219,6.1219,0,0,0,1.4765-1.4033,11.7809,11.7809,0,0,0,1.2959-2.128,19.963,19.963,0,0,0,1.0557-2.6982Z" transform="translate(0 -4.0176)"/><path class="e" d="M215.1346,4.0176l-2.9873,24.3047h-1.5342a.8692.8692,0,0,1-.7754-.2969,1.2833,1.2833,0,0,1-.1983-.7266l.3135-3.5136a13.2,13.2,0,0,1-1.3691,1.9628,10.2047,10.2047,0,0,1-1.56,1.502,6.7618,6.7618,0,0,1-1.6992.9648,4.9684,4.9684,0,0,1-1.79.3389,3.95,3.95,0,0,1-3.3331-1.56,7.3765,7.3765,0,0,1-1.1884-4.5293,13.2637,13.2637,0,0,1,.2812-2.706,13.9921,13.9921,0,0,1,.8-2.5908,12.7723,12.7723,0,0,1,1.2539-2.3018,9.53,9.53,0,0,1,1.6416-1.84,7.5613,7.5613,0,0,1,1.9551-1.2207,5.5758,5.5758,0,0,1,2.2031-.4453,5.14,5.14,0,0,1,2.252.4863,4.8815,4.8815,0,0,1,1.7246,1.3779l1.1387-9.207Zm-4.2569,11.2363a3.3981,3.3981,0,0,0-1.51-1.2451,4.7728,4.7728,0,0,0-1.7911-.3555,3.8168,3.8168,0,0,0-2.3427.7764,6.8152,6.8152,0,0,0-1.7735,2.0039,10.4907,10.4907,0,0,0-1.1308,2.748,11.8073,11.8073,0,0,0-.3955,2.9864,5.315,5.315,0,0,0,.7011,2.9941,2.278,2.278,0,0,0,2.0049,1.0313,3.0592,3.0592,0,0,0,1.6006-.4942A6.63,6.63,0,0,0,207.8,24.3213a12.1221,12.1221,0,0,0,1.4033-2.0879,16.5952,16.5952,0,0,0,1.13-2.64Z" transform="translate(0 -4.0176)"/><path class="e" d="M222.7566,28.5537a6.5147,6.5147,0,0,1-2.5088-.4707,5.51,5.51,0,0,1-1.9628-1.3613,6.27,6.27,0,0,1-1.2872-2.1778,8.6531,8.6531,0,0,1-.4619-2.9375,11.8235,11.8235,0,0,1,.66-3.9765,10.6063,10.6063,0,0,1,1.8144-3.2588,8.7108,8.7108,0,0,1,2.7149-2.2022,7.1844,7.1844,0,0,1,3.3574-.8085,6.5058,6.5058,0,0,1,2.5078.47,5.5225,5.5225,0,0,1,1.9639,1.3613,6.303,6.303,0,0,1,1.2871,2.1787,8.6144,8.6144,0,0,1,.4619,2.92,11.7892,11.7892,0,0,1-.66,3.96,10.819,10.819,0,0,1-1.8067,3.2676,8.6294,8.6294,0,0,1-2.7148,2.2187A7.1719,7.1719,0,0,1,222.7566,28.5537Zm.28-2.2939a3.8327,3.8327,0,0,0,2.1865-.66,5.9172,5.9172,0,0,0,1.6826-1.7568,8.9083,8.9083,0,0,0,1.0811-2.5332,11.7067,11.7067,0,0,0,.3789-3.003,5.5463,5.5463,0,0,0-.915-3.4726,3.1516,3.1516,0,0,0-2.6319-1.1641,3.8939,3.8939,0,0,0-2.2031.6524,5.7714,5.7714,0,0,0-1.6748,1.74,8.9225,8.9225,0,0,0-1.0723,2.5244,11.7061,11.7061,0,0,0-.38,3.0029,5.6555,5.6555,0,0,0,.9082,3.49A3.1275,3.1275,0,0,0,223.0369,26.26Z" transform="translate(0 -4.0176)"/><path class="e" d="M111.16,54.9033a9.8812,9.8812,0,0,1,2.8964-2.9453,6.0428,6.0428,0,0,1,3.2422-.998,4.0213,4.0213,0,0,1,1.8809.4209,3.3474,3.3474,0,0,1,1.3115,1.23,5.2286,5.2286,0,0,1,.6846,1.9873,9.9071,9.9071,0,0,1,0,2.6816l-1.2539,10.6426h-2.9366l1.254-10.6426a5.3532,5.3532,0,0,0-.2315-2.9365,1.8053,1.8053,0,0,0-1.7812-.9571,3.3713,3.3713,0,0,0-1.5352.4043,6.0085,6.0085,0,0,0-1.5264,1.1465,10.076,10.076,0,0,0-1.3857,1.7989,12.9459,12.9459,0,0,0-1.13,2.3593l-1.0732,8.8272h-2.92l2.9366-24.3047H112.53Z" transform="translate(0 -4.0176)"/><path class="e" d="M130.35,68.1533a6.5147,6.5147,0,0,1-2.5088-.4707,5.51,5.51,0,0,1-1.9629-1.3613,6.2685,6.2685,0,0,1-1.2871-2.1777,8.6511,8.6511,0,0,1-.4619-2.9375,11.8241,11.8241,0,0,1,.66-3.9766,10.6086,10.6086,0,0,1,1.8145-3.2588,8.71,8.71,0,0,1,2.7148-2.2021,7.1837,7.1837,0,0,1,3.3575-.8086,6.5061,6.5061,0,0,1,2.5078.47,5.5212,5.5212,0,0,1,1.9638,1.3613,6.3015,6.3015,0,0,1,1.2871,2.1787,8.6119,8.6119,0,0,1,.462,2.92,11.7868,11.7868,0,0,1-.66,3.96,10.8188,10.8188,0,0,1-1.8066,3.2676,8.63,8.63,0,0,1-2.7149,2.2187A7.1715,7.1715,0,0,1,130.35,68.1533Zm.28-2.2939a3.8329,3.8329,0,0,0,2.1865-.66A5.9184,5.9184,0,0,0,134.5,63.4424a8.9111,8.9111,0,0,0,1.0811-2.5332,11.7065,11.7065,0,0,0,.3789-3.0029,5.5458,5.5458,0,0,0-.9151-3.4727,3.1514,3.1514,0,0,0-2.6318-1.1641,3.8937,3.8937,0,0,0-2.2031.6524,5.7714,5.7714,0,0,0-1.6748,1.74,8.9168,8.9168,0,0,0-1.0723,2.5244,11.7069,11.7069,0,0,0-.38,3.003,5.6552,5.6552,0,0,0,.9082,3.49A3.1277,3.1277,0,0,0,130.6307,65.8594Z" transform="translate(0 -4.0176)"/><path class="e" d="M145.4471,55.86a14.2294,14.2294,0,0,1,1.4277-2.4336,7.1281,7.1281,0,0,1,1.6084-1.6172,3.9719,3.9719,0,0,1,1.7324-.709,3.3671,3.3671,0,0,1,1.8154.2715l-.5283,2.8222a3.3741,3.3741,0,0,0-3.7861.627q-1.642,1.4838-2.665,5.3623l-.9239,7.7383h-2.8711L143.2693,51.19h1.4522a.8828.8828,0,0,1,1.0068.99Z" transform="translate(0 -4.0176)"/><path class="e" d="M157.6072,51.207l-2.0127,16.7149h-2.8877L154.72,51.207Zm1.1221-5.247a1.8623,1.8623,0,0,1-.1738.8007,2.3073,2.3073,0,0,1-.462.66,2.1642,2.1642,0,0,1-.6591.4531,1.8685,1.8685,0,0,1-.7676.1651,1.7674,1.7674,0,0,1-.7422-.1651,1.9961,1.9961,0,0,1-.6357-.4531,2.3469,2.3469,0,0,1-.4375-.66,1.9612,1.9612,0,0,1-.1651-.8007,2.0148,2.0148,0,0,1,.1651-.8077,2.2229,2.2229,0,0,1,1.0888-1.1308,1.7142,1.7142,0,0,1,.7432-.1729,1.86,1.86,0,0,1,.7666.1651,2.0653,2.0653,0,0,1,.6523.4531,2.3421,2.3421,0,0,1,.4532.6768A1.9711,1.9711,0,0,1,158.7293,45.96Z" transform="translate(0 -4.0176)"/><path class="e" d="M172.9519,51.207l-.165,1.2539a1.8246,1.8246,0,0,1-.1728.6026,2.85,2.85,0,0,1-.3223.52L162.656,65.6279h8.2334l-.2636,2.294H158.8611l.1485-1.2207a1.5993,1.5993,0,0,1,.1484-.5117,2.1578,2.1578,0,0,1,.3467-.545L169.19,53.5176h-8.1015l.28-2.3106Z" transform="translate(0 -4.0176)"/><path class="e" d="M180.3445,68.1533a6.5147,6.5147,0,0,1-2.5088-.4707,5.51,5.51,0,0,1-1.9629-1.3613,6.2716,6.2716,0,0,1-1.2871-2.1777,8.6511,8.6511,0,0,1-.4619-2.9375,11.8216,11.8216,0,0,1,.66-3.9766,10.6063,10.6063,0,0,1,1.8144-3.2588,8.709,8.709,0,0,1,2.7149-2.2021,7.1833,7.1833,0,0,1,3.3574-.8086,6.5058,6.5058,0,0,1,2.5078.47,5.5225,5.5225,0,0,1,1.9639,1.3613A6.303,6.303,0,0,1,188.43,54.97a8.6144,8.6144,0,0,1,.4619,2.92,11.7868,11.7868,0,0,1-.66,3.96,10.8167,10.8167,0,0,1-1.8066,3.2676,8.6281,8.6281,0,0,1-2.7148,2.2187A7.1719,7.1719,0,0,1,180.3445,68.1533Zm.28-2.2939a3.8329,3.8329,0,0,0,2.1865-.66,5.9172,5.9172,0,0,0,1.6826-1.7568,8.9083,8.9083,0,0,0,1.0811-2.5332,11.7065,11.7065,0,0,0,.3789-3.0029,5.5465,5.5465,0,0,0-.915-3.4727A3.1516,3.1516,0,0,0,182.407,53.27a3.8939,3.8939,0,0,0-2.2031.6524,5.7714,5.7714,0,0,0-1.6748,1.74,8.9225,8.9225,0,0,0-1.0723,2.5244,11.7069,11.7069,0,0,0-.38,3.003,5.6559,5.6559,0,0,0,.9082,3.49A3.1277,3.1277,0,0,0,180.6248,65.8594Z" transform="translate(0 -4.0176)"/><path class="e" d="M195.4578,55.4316a10.42,10.42,0,0,1,3.02-3.3418,6.1456,6.1456,0,0,1,3.4649-1.13,3.9336,3.9336,0,0,1,1.8564.4209,3.3667,3.3667,0,0,1,1.3037,1.23,5.2269,5.2269,0,0,1,.6846,1.9873,9.9071,9.9071,0,0,1,0,2.6816L204.533,67.9219h-2.92l1.2539-10.6426a5.4,5.4,0,0,0-.2481-2.9287,1.7942,1.7942,0,0,0-1.7656-.9483,3.441,3.441,0,0,0-1.6084.4288,6.1778,6.1778,0,0,0-1.5762,1.2207,10.1449,10.1449,0,0,0-1.41,1.9062,13.3985,13.3985,0,0,0-1.1143,2.4824l-.957,8.4815h-2.9365L193.2635,51.19h1.4521a.8753.8753,0,0,1,.99.99Z" transform="translate(0 -4.0176)"/><path class="e" d="M210.0613,64.7705v-.2559c0-.1044.0078-.2558.0244-.4541s.044-.456.0821-.7753.0908-.7364.1572-1.2539l1.0225-8.3653h-1.8643a.4708.4708,0,0,1-.3711-.1572.6142.6142,0,0,1-.1074-.4863l.1318-1.1719,2.5742-.3467,1.2539-5.1641a.9291.9291,0,0,1,.2559-.4043.6276.6276,0,0,1,.4375-.1562h1.5342l-.709,5.7578h4.3887l-.2471,2.1289h-4.4063l-1.0058,8.2168q-.0836.6768-.1318,1.0889-.05.4131-.0752.66c-.0157.1651-.0274.28-.0323.3467s-.0088.1153-.0088.1485a1.7183,1.7183,0,0,0,.3965,1.246,1.409,1.409,0,0,0,1.0557.4043,2.15,2.15,0,0,0,.7676-.124,3.778,3.778,0,0,0,.5693-.2724,4.7358,4.7358,0,0,0,.4121-.2725.5058.5058,0,0,1,.28-.123.3239.3239,0,0,1,.2226.0654.6182.6182,0,0,1,.1407.2148l.6269,1.4024a6.1779,6.1779,0,0,1-1.84,1.1133,5.6361,5.6361,0,0,1-2.07.4042,3.4933,3.4933,0,0,1-2.5166-.874A3.448,3.448,0,0,1,210.0613,64.7705Z" transform="translate(0 -4.0176)"/><path class="e" d="M230.7684,63.5166a14.3161,14.3161,0,0,1-1.2793,1.9141,8.859,8.859,0,0,1-1.4522,1.46,6.3285,6.3285,0,0,1-1.6162.9326,4.8221,4.8221,0,0,1-1.7578.33,4.0955,4.0955,0,0,1-1.7979-.3887,3.74,3.74,0,0,1-1.3779-1.1376,5.5437,5.5437,0,0,1-.8828-1.8487,9.1717,9.1717,0,0,1-.3135-2.5156,11.3524,11.3524,0,0,1,.3711-2.8965A11.7785,11.7785,0,0,1,223.3592,54.4a11.0681,11.0681,0,0,1,2.1367-1.8154,10.1378,10.1378,0,0,1,2.5332-1.1875,9.4723,9.4723,0,0,1,2.8379-.4209,12.4051,12.4051,0,0,1,2.0869.1728,8.6837,8.6837,0,0,1,2.0049.6026l-1.9961,16.17h-1.5186a.8924.8924,0,0,1-.7832-.2969,1.2418,1.2418,0,0,1-.206-.7266Zm1.122-10.2637a4.7709,4.7709,0,0,0-.7178-.1064q-.3559-.0249-.7011-.0254a5.7655,5.7655,0,0,0-1.9141.3223,6.7679,6.7679,0,0,0-1.7324.8994,7.6889,7.6889,0,0,0-1.4688,1.3769,9.0208,9.0208,0,0,0-1.1308,1.7578,9.96,9.96,0,0,0-.7334,2.0371,9.2854,9.2854,0,0,0-.2647,2.22q0,3.9769,2.5411,3.9765a2.8808,2.8808,0,0,0,1.5839-.5029,6.1222,6.1222,0,0,0,1.4766-1.4033,11.7856,11.7856,0,0,0,1.2959-2.1279,19.9829,19.9829,0,0,0,1.0557-2.6983Z" transform="translate(0 -4.0176)"/><path class="e" d="M237.3836,67.9219l2.9541-24.3047h2.8877l-2.9541,24.3047Z" transform="translate(0 -4.0176)"/><line class="c" x1="326.1877" y1="148.2697" x2="434.7091" y2="148.2697"/><line class="c" x1="326.1877" y1="264.2754" x2="434.7091" y2="264.2754"/><polyline class="c" points="411.009 191.486 324.064 191.714 321.198 221.566 404.772 221.336"/><path class="c" d="M348.0935,195.3828,339.0973,225.74a.5525.5525,0,0,0,.0106.3758l1.6722,3.86c.1525.35.6753.3485,1.0331-.0023l3.939-3.873a.8836.8836,0,0,0,.2312-.3763l8.8057-30.3541a.567.567,0,0,0-.01-.3779l-1.62-3.8613c-.1453-.3486-.65-.3452-.9981.0067l-3.8389,3.8714A.9058.9058,0,0,0,348.0935,195.3828Z" transform="translate(0 -4.0176)"/><path class="c" d="M334.3724,195.3828,325.3762,225.74a.5531.5531,0,0,0,.0106.3758l1.6722,3.86c.1525.35.6753.3485,1.0331-.0023l3.9391-3.873a.8844.8844,0,0,0,.2311-.3763L341.068,195.37a.5664.5664,0,0,0-.01-.3779l-1.62-3.8613c-.1453-.3486-.65-.3452-.998.0067l-3.839,3.8714A.9058.9058,0,0,0,334.3724,195.3828Z" transform="translate(0 -4.0176)"/><path class="c" d="M361.72,195.35l-8.61,30.3569a.5537.5537,0,0,0,.0154.3758l1.7212,3.86c.1569.35.68.3484,1.033-.0024l3.89-3.873a.87.87,0,0,0,.2263-.3763l8.42-30.3541a.5673.5673,0,0,0-.0152-.3778L366.73,191.098c-.15-.3486-.6544-.3452-.9979.0067l-3.79,3.8714A.89.89,0,0,0,361.72,195.35Z" transform="translate(0 -4.0176)"/><path class="c" d="M375.3451,195.3178l-8.2243,30.357a.5537.5537,0,0,0,.02.3757l1.77,3.86c.1613.35.6841.3484,1.033-.0024l3.84-3.873a.8552.8552,0,0,0,.2215-.3763l8.0339-30.354a.5684.5684,0,0,0-.02-.3779l-1.7183-3.8614c-.1541-.3486-.6588-.3452-.9978.0067l-3.74,3.8714A.8766.8766,0,0,0,375.3451,195.3178Z" transform="translate(0 -4.0176)"/><path class="c" d="M388.97,195.2853l-7.8384,30.357a.556.556,0,0,0,.025.3757l1.8192,3.86c.1657.35.6885.3485,1.0329-.0024l3.7911-3.873a.8412.8412,0,0,0,.2167-.3763l7.648-30.354a.5694.5694,0,0,0-.0248-.3779l-1.7673-3.8614c-.1586-.3486-.6632-.3452-.9977.0067l-3.691,3.8714A.8625.8625,0,0,0,388.97,195.2853Z" transform="translate(0 -4.0176)"/><path class="c" d="M402.5933,195.2528l-7.4524,30.357a.5577.5577,0,0,0,.03.3758l1.8682,3.86c.17.35.6929.3485,1.0328-.0024l3.7418-3.8729a.83.83,0,0,0,.212-.3764l7.262-30.354a.5709.5709,0,0,0-.03-.3779l-1.8163-3.8613c-.163-.3487-.6675-.3453-.9976.0066l-3.6417,3.8715A.8491.8491,0,0,0,402.5933,195.2528Z" transform="translate(0 -4.0176)"/><rect class="c" x="261.3243" y="139.5381" width="74.8423" height="134.7162" rx="7.5"/><ellipse class="c" cx="298.2236" cy="207.5199" rx="25.4693" ry="54.2607"/><polyline class="c" points="298.746 153.259 201.45 153.259 201.45 261.781 298.746 261.781"/><ellipse class="c" cx="200.9286" cy="207.5199" rx="25.4693" ry="54.2607"/><path class="c" d="M175.2708,168.5032h19.4209c11.1561,0,20.2,19.2671,20.2,43.0343s-9.0437,43.0344-20.2,43.0344H175.2708" transform="translate(0 -4.0176)"/><path class="c" d="M137.8345,157.2768h21.9308c14.0663,0,25.4693,24.2934,25.4693,54.2607s-11.403,54.2607-25.4693,54.2607H137.8345" transform="translate(0 -4.0176)"/><ellipse class="c" cx="137.3126" cy="207.5199" rx="25.4693" ry="54.2607"/><path class="c" d="M140.3292,225.5831l-85.7891-.23a2.2235,2.2235,0,0,1-2.213-2.3915c.2192-2.8818.1457-7.9193.1457-12.5386,0-4.5829-.03-9.5788-.3243-12.4722a2.2235,2.2235,0,0,1,2.22-2.4479l89.7033.2287" transform="translate(0 -4.0176)"/><path class="c" d="M120.0419,195.3828l8.9963,30.3569a.5525.5525,0,0,1-.0107.3758l-1.6722,3.86c-.1524.35-.6752.3485-1.033-.0023l-3.9391-3.873a.8844.8844,0,0,1-.2311-.3763L113.3464,195.37a.5658.5658,0,0,1,.01-.3779l1.62-3.8613c.1453-.3486.65-.3452.9981.0067l3.8389,3.8714A.9048.9048,0,0,1,120.0419,195.3828Z" transform="translate(0 -4.0176)"/><path class="c" d="M133.763,195.3828l8.9963,30.3569a.5525.5525,0,0,1-.0107.3758l-1.6722,3.86c-.1524.35-.6752.3485-1.033-.0023l-3.9391-3.873a.8844.8844,0,0,1-.2311-.3763L127.0675,195.37a.5658.5658,0,0,1,.01-.3779l1.62-3.8613c.1453-.3486.65-.3452.9981.0067l3.8389,3.8714A.9048.9048,0,0,1,133.763,195.3828Z" transform="translate(0 -4.0176)"/><path class="c" d="M106.4157,195.35l8.61,30.3569a.5537.5537,0,0,1-.0154.3758l-1.7212,3.86c-.1569.35-.68.3484-1.033-.0024l-3.89-3.873a.87.87,0,0,1-.2264-.3763l-8.42-30.3541a.5673.5673,0,0,1,.0152-.3778l1.6693-3.8614c.15-.3486.6545-.3452.998.0067l3.79,3.8714A.89.89,0,0,1,106.4157,195.35Z" transform="translate(0 -4.0176)"/><path class="c" d="M92.79,195.3178l8.2243,30.357a.5543.5543,0,0,1-.02.3757l-1.77,3.86c-.1613.35-.684.3484-1.0329-.0024l-3.84-3.873a.8564.8564,0,0,1-.2216-.3763l-8.0339-30.354a.5684.5684,0,0,1,.02-.3779l1.7183-3.8614c.1542-.3486.6588-.3452.9979.0067l3.74,3.8714A.8766.8766,0,0,1,92.79,195.3178Z" transform="translate(0 -4.0176)"/><path class="c" d="M79.1658,195.2853l7.8384,30.357a.5554.5554,0,0,1-.025.3757l-1.8191,3.86c-.1658.35-.6885.3485-1.0329-.0024l-3.7911-3.873a.8424.8424,0,0,1-.2168-.3763l-7.6479-30.354a.5694.5694,0,0,1,.0248-.3779l1.7673-3.8614c.1585-.3486.6631-.3452.9977.0067l3.691,3.8714A.8623.8623,0,0,1,79.1658,195.2853Z" transform="translate(0 -4.0176)"/><path class="c" d="M65.5421,195.2528l7.4524,30.357a.5571.5571,0,0,1-.03.3758l-1.8682,3.86c-.17.35-.6929.3485-1.0328-.0024L66.322,225.97a.8289.8289,0,0,1-.2119-.3764L58.848,195.24a.5715.5715,0,0,1,.03-.3779l1.8163-3.8613c.163-.3487.6676-.3453.9976.0066l3.6417,3.8715A.8481.8481,0,0,1,65.5421,195.2528Z" transform="translate(0 -4.0176)"/><path class="f" d="M133.2252,190.9242a6.1091,6.1091,0,0,1,4.0874-1.758c5.7995,0,10.5008,10.016,10.5008,22.3713s-4.7013,22.3714-10.5008,22.3714c-2.1691,0-4.1847-1.4012-5.858-3.8019" transform="translate(0 -4.0176)"/><line class="d" x1="250.2572" y1="303.9014" x2="250.2572" y2="236.9014"/><circle class="e" cx="250.2572" cy="236.9014" r="6.7676"/><line class="d" x1="249.4163" y1="100.3037" x2="100.4163" y2="100.3037"/><polygon class="e" points="103.042 91.328 87.5 100.303 103.042 109.278 103.042 91.328"/><line class="d" x1="37.9163" y1="206.8038" x2="12.9163" y2="206.8038"/><polygon class="e" points="15.542 197.828 0 206.803 15.542 215.778 15.542 197.828"/><path class="e" d="M205.4114,352.3174h-2.376a.9314.9314,0,0,1-.6435-.2061,1.1385,1.1385,0,0,1-.33-.5361L200.7747,345.8h-9.6191l-2.7061,5.7754a1.4538,1.4538,0,0,1-.4536.5195,1.1358,1.1358,0,0,1-.6851.2227h-2.4087l11.583-23.6445H199.62Zm-5.1313-8.7617-2.1616-9.7842q-.0828-.4454-.1983-1.0313t-.1977-1.2627q-.2476.693-.4952,1.27t-.4453,1.04l-4.5708,9.7676Z" transform="translate(0 -4.0176)"/><path class="e" d="M220.2942,349.3145a15.1279,15.1279,0,0,1-1.6338,1.5673,7.9014,7.9014,0,0,1-1.5507.9981,6.2158,6.2158,0,0,1-1.6089.5195,10.15,10.15,0,0,1-1.79.1494,6.2613,6.2613,0,0,1-2.5659-.4951,5.0766,5.0766,0,0,1-1.8642-1.3945,6.135,6.135,0,0,1-1.1387-2.1612,9.4283,9.4283,0,0,1-.3877-2.78,11.985,11.985,0,0,1,.6352-3.8946,10.9253,10.9253,0,0,1,1.774-3.3,8.8226,8.8226,0,0,1,2.7138-2.2939,7.085,7.085,0,0,1,3.4405-.8574,5.9794,5.9794,0,0,1,2.7885.5859,5.8183,5.8183,0,0,1,1.9634,1.707l-.9238,1.1055a1.0249,1.0249,0,0,1-.2559.2149.6172.6172,0,0,1-.3217.083.67.67,0,0,1-.4537-.2071,5.9555,5.9555,0,0,0-.5859-.4619,4.19,4.19,0,0,0-.8994-.4619,3.8825,3.8825,0,0,0-1.3774-.2061,4.0216,4.0216,0,0,0-2.1451.6192,6.037,6.037,0,0,0-1.7656,1.69,8.64,8.64,0,0,0-1.1963,2.541,11,11,0,0,0-.437,3.1514,6.9245,6.9245,0,0,0,.231,1.8564,3.9641,3.9641,0,0,0,.6928,1.419,3.1783,3.1783,0,0,0,1.13.9082,3.5642,3.5642,0,0,0,1.5591.3213,4.6046,4.6046,0,0,0,1.8564-.33,6.2344,6.2344,0,0,0,1.2622-.7178,11.12,11.12,0,0,0,.8663-.7177,1.0466,1.0466,0,0,1,.7011-.33.7343.7343,0,0,1,.5611.2812Z" transform="translate(0 -4.0176)"/><path class="e" d="M224.0892,349.166V348.91q0-.1567.0249-.4541t.0825-.7754q.0572-.4776.1567-1.2539l1.023-8.3653h-1.8648a.4708.4708,0,0,1-.3711-.1572.6162.6162,0,0,1-.1074-.4863l.1323-1.1719,2.5738-.3467,1.2539-5.164a.9314.9314,0,0,1,.2558-.4043.6274.6274,0,0,1,.4375-.1563h1.5342l-.7095,5.7578H232.9l-.2476,2.1289h-4.4052l-1.0069,8.2168q-.0828.6768-.1318,1.0889t-.0742.66c-.0166.1651-.0279.28-.0332.3467s-.0083.1153-.0083.1485a1.7226,1.7226,0,0,0,.396,1.2461,1.4117,1.4117,0,0,0,1.0561.4043,2.15,2.15,0,0,0,.7676-.1241,3.7481,3.7481,0,0,0,.5688-.2724,4.6614,4.6614,0,0,0,.4126-.2725.5056.5056,0,0,1,.2808-.123.3278.3278,0,0,1,.2227.0654.6252.6252,0,0,1,.14.2148l.6269,1.4024a6.1779,6.1779,0,0,1-1.84,1.1133,5.6345,5.6345,0,0,1-2.0708.4043,3.4929,3.4929,0,0,1-2.5161-.8741A3.45,3.45,0,0,1,224.0892,349.166Z" transform="translate(0 -4.0176)"/><path class="e" d="M249.5813,335.6025l-2.0127,16.7149h-1.4521a.9406.9406,0,0,1-1.0728-1.0557l.2476-3.0527a10.2017,10.2017,0,0,1-2.978,3.2422,6.1044,6.1044,0,0,1-3.4073,1.0976,3.9848,3.9848,0,0,1-1.8647-.4209,3.3506,3.3506,0,0,1-1.3115-1.23,5.2222,5.2222,0,0,1-.6851-1.98,9.5956,9.5956,0,0,1,.0166-2.69l1.2539-10.626h2.9209l-1.2544,10.626a5.4585,5.4585,0,0,0,.2393,2.9209,1.79,1.79,0,0,0,1.7739.957,3.4471,3.4471,0,0,0,1.5674-.4121,6.019,6.019,0,0,0,1.5513-1.1718,10.0184,10.0184,0,0,0,1.394-1.84,12.8678,12.8678,0,0,0,1.1138-2.4l1.04-8.68Z" transform="translate(0 -4.0176)"/><path class="e" d="M262.27,347.9121a14.3527,14.3527,0,0,1-1.2788,1.9141,8.89,8.89,0,0,1-1.4522,1.46,6.3537,6.3537,0,0,1-1.6171.9327,4.82,4.82,0,0,1-1.7574.33,4.1036,4.1036,0,0,1-1.7983-.3886,3.7428,3.7428,0,0,1-1.3774-1.1377,5.5333,5.5333,0,0,1-.8829-1.8487,9.1565,9.1565,0,0,1-.3134-2.5156,11.33,11.33,0,0,1,.3711-2.8965,11.7867,11.7867,0,0,1,2.6977-4.9658,11.03,11.03,0,0,1,2.1367-1.8154,10.1314,10.1314,0,0,1,2.5327-1.1875,9.477,9.477,0,0,1,2.8379-.4209,12.4181,12.4181,0,0,1,2.0874.1728,8.7092,8.7092,0,0,1,2.0049.6026l-1.9966,16.17h-1.518a.8919.8919,0,0,1-.7837-.2969,1.2421,1.2421,0,0,1-.2066-.7266Zm1.1216-10.2637a4.7667,4.7667,0,0,0-.7178-.1064q-.3545-.0249-.7012-.0254a5.7719,5.7719,0,0,0-1.914.3223,6.7827,6.7827,0,0,0-1.7324.8994,7.6981,7.6981,0,0,0-1.4683,1.3769,8.98,8.98,0,0,0-1.13,1.7578,9.9546,9.9546,0,0,0-.7343,2.0372,9.3345,9.3345,0,0,0-.2637,2.22q0,3.9771,2.541,3.9765a2.8845,2.8845,0,0,0,1.584-.5029,6.1566,6.1566,0,0,0,1.4765-1.4033,11.785,11.785,0,0,0,1.2955-2.1279,19.9829,19.9829,0,0,0,1.0556-2.6983Z" transform="translate(0 -4.0176)"/><path class="e" d="M284.8582,328.0127l-2.9873,24.3047h-1.5342a.8691.8691,0,0,1-.7754-.2969,1.2831,1.2831,0,0,1-.1982-.7266l.3135-3.5136a13.2039,13.2039,0,0,1-1.3692,1.9629,10.204,10.204,0,0,1-1.56,1.5019,6.7653,6.7653,0,0,1-1.6992.9649,4.97,4.97,0,0,1-1.79.3388,3.95,3.95,0,0,1-3.333-1.56,7.3761,7.3761,0,0,1-1.188-4.5293,13.2986,13.2986,0,0,1,.28-2.7061,14.0313,14.0313,0,0,1,.8-2.5908,12.7291,12.7291,0,0,1,1.2539-2.3018,9.5137,9.5137,0,0,1,1.6416-1.84,7.5534,7.5534,0,0,1,1.955-1.2207,5.5767,5.5767,0,0,1,2.2032-.4453,5.14,5.14,0,0,1,2.2519.4863,4.88,4.88,0,0,1,1.7246,1.3779l1.1387-9.207Zm-4.2568,11.2363a3.3989,3.3989,0,0,0-1.51-1.2451,4.7727,4.7727,0,0,0-1.791-.3555,3.8171,3.8171,0,0,0-2.3428.7764,6.8135,6.8135,0,0,0-1.7734,2.0039,10.4737,10.4737,0,0,0-1.13,2.7481,11.7845,11.7845,0,0,0-.396,2.9863,5.3141,5.3141,0,0,0,.7012,2.9941,2.2773,2.2773,0,0,0,2.0049,1.0313,3.0588,3.0588,0,0,0,1.6005-.4942,6.6275,6.6275,0,0,0,1.5586-1.3779,12.1281,12.1281,0,0,0,1.4034-2.0879,16.6042,16.6042,0,0,0,1.13-2.64Z" transform="translate(0 -4.0176)"/><path class="e" d="M292.4812,352.5488a6.5142,6.5142,0,0,1-2.5087-.4707,5.51,5.51,0,0,1-1.9629-1.3613,6.2685,6.2685,0,0,1-1.2871-2.1777,8.651,8.651,0,0,1-.462-2.9375,11.8241,11.8241,0,0,1,.66-3.9766,10.6063,10.6063,0,0,1,1.8144-3.2588,8.7113,8.7113,0,0,1,2.7149-2.2021,7.1836,7.1836,0,0,1,3.3574-.8086,6.5058,6.5058,0,0,1,2.5078.47,5.5225,5.5225,0,0,1,1.9639,1.3613,6.304,6.304,0,0,1,1.2871,2.1787,8.615,8.615,0,0,1,.4619,2.92,11.7891,11.7891,0,0,1-.66,3.96,10.819,10.819,0,0,1-1.8067,3.2676,8.6281,8.6281,0,0,1-2.7148,2.2187A7.1716,7.1716,0,0,1,292.4812,352.5488Zm.28-2.2939a3.8317,3.8317,0,0,0,2.1865-.66,5.9187,5.9187,0,0,0,1.6827-1.7568,8.911,8.911,0,0,0,1.081-2.5332,11.7059,11.7059,0,0,0,.3789-3.0029,5.5465,5.5465,0,0,0-.915-3.4727,3.1515,3.1515,0,0,0-2.6319-1.1641,3.8939,3.8939,0,0,0-2.2031.6524,5.7726,5.7726,0,0,0-1.6748,1.74,8.9225,8.9225,0,0,0-1.0723,2.5244,11.7068,11.7068,0,0,0-.38,3.003,5.6552,5.6552,0,0,0,.9082,3.49A3.1275,3.1275,0,0,0,292.7615,350.2549Z" transform="translate(0 -4.0176)"/><path class="e" d="M307.5779,340.2559a14.23,14.23,0,0,1,1.4278-2.4336,7.1281,7.1281,0,0,1,1.6084-1.6172,3.9726,3.9726,0,0,1,1.7324-.709,3.3671,3.3671,0,0,1,1.8154.2715l-.5283,2.8222a3.3741,3.3741,0,0,0-3.7861.627q-1.6422,1.4839-2.6651,5.3623l-.9238,7.7383h-2.8711L305.4,335.5859h1.4521a.8829.8829,0,0,1,1.0069.99Z" transform="translate(0 -4.0176)"/><path class="e" d="M187.6741,378.8984a9.8743,9.8743,0,0,1,2.8955-2.9453,6.0454,6.0454,0,0,1,3.2427-.998,4.0216,4.0216,0,0,1,1.8809.4209,3.3488,3.3488,0,0,1,1.3115,1.23,5.2372,5.2372,0,0,1,.685,1.9873,9.9478,9.9478,0,0,1,0,2.6816l-1.2544,10.6426h-2.9365l1.2539-10.6426a5.358,5.358,0,0,0-.2309-2.9365,1.8064,1.8064,0,0,0-1.7823-.957,3.368,3.368,0,0,0-1.5346.4043,5.9932,5.9932,0,0,0-1.5259,1.1464,10.0533,10.0533,0,0,0-1.3862,1.7989,13.0062,13.0062,0,0,0-1.13,2.3593L186.09,391.917h-2.92l2.937-24.3047h2.937Z" transform="translate(0 -4.0176)"/><path class="e" d="M205.7083,375.2021l-2.0132,16.7149h-2.8872l2.0127-16.7149Zm1.1221-5.247a1.876,1.876,0,0,1-.1734.8008,2.3158,2.3158,0,0,1-.4619.66,2.168,2.168,0,0,1-.66.4531,1.8648,1.8648,0,0,1-.7671.1651,1.7693,1.7693,0,0,1-.7427-.1651,1.994,1.994,0,0,1-.6353-.4531,2.34,2.34,0,0,1-.437-.66,1.9473,1.9473,0,0,1-.165-.8008,1.9988,1.9988,0,0,1,.165-.8076,2.2222,2.2222,0,0,1,1.0889-1.1309,1.7084,1.7084,0,0,1,.7427-.1728,1.8647,1.8647,0,0,1,.7671.165,2.07,2.07,0,0,1,.6518.4531,2.3547,2.3547,0,0,1,.4536.6768A1.9854,1.9854,0,0,1,206.83,369.9551Z" transform="translate(0 -4.0176)"/><path class="e" d="M224.2869,367.6123l-2.9863,24.3047h-1.5347a.8691.8691,0,0,1-.7754-.2969,1.2828,1.2828,0,0,1-.1977-.7265l.3134-3.5137a13.2354,13.2354,0,0,1-1.37,1.9629,10.22,10.22,0,0,1-1.5591,1.5019,6.7768,6.7768,0,0,1-1.7.9649,4.9659,4.9659,0,0,1-1.79.3388,3.95,3.95,0,0,1-3.333-1.5595,7.3761,7.3761,0,0,1-1.188-4.5293,13.2986,13.2986,0,0,1,.28-2.7061,14.0313,14.0313,0,0,1,.8-2.5908,12.7291,12.7291,0,0,1,1.2539-2.3018,9.5166,9.5166,0,0,1,1.6416-1.84,7.5477,7.5477,0,0,1,1.9555-1.2207,5.5721,5.5721,0,0,1,2.2027-.4453,5.1447,5.1447,0,0,1,2.2524.4863,4.8868,4.8868,0,0,1,1.7241,1.3779l1.1387-9.207ZM220.03,378.8486a3.3909,3.3909,0,0,0-1.51-1.2451,4.7692,4.7692,0,0,0-1.79-.3555,3.8175,3.8175,0,0,0-2.3433.7764,6.8206,6.8206,0,0,0-1.7734,2.0039,10.4737,10.4737,0,0,0-1.13,2.7481,11.7845,11.7845,0,0,0-.396,2.9863,5.3141,5.3141,0,0,0,.7012,2.9941,2.2773,2.2773,0,0,0,2.0049,1.0313,3.0565,3.0565,0,0,0,1.6-.4942,6.6326,6.6326,0,0,0,1.5595-1.3779,12.0973,12.0973,0,0,0,1.4024-2.0879,16.5138,16.5138,0,0,0,1.13-2.64Z" transform="translate(0 -4.0176)"/><path class="e" d="M229.8807,379.8555a14.1963,14.1963,0,0,1,1.4272-2.4336,7.1113,7.1113,0,0,1,1.6089-1.6172,3.9683,3.9683,0,0,1,1.7324-.709,3.367,3.367,0,0,1,1.815.2715l-.5279,2.8223a3.3757,3.3757,0,0,0-3.7871.6269q-1.6421,1.4839-2.6645,5.3623l-.9239,7.7383H225.69l2.0127-16.7315h1.4522a.8824.8824,0,0,1,1.0063.99Z" transform="translate(0 -4.0176)"/><path class="e" d="M247.3045,387.5117a14.3624,14.3624,0,0,1-1.2788,1.9141,8.8941,8.8941,0,0,1-1.4522,1.46,6.3513,6.3513,0,0,1-1.6172.9327,4.82,4.82,0,0,1-1.7573.33,4.1016,4.1016,0,0,1-1.7983-.3886,3.7421,3.7421,0,0,1-1.3775-1.1377,5.5351,5.5351,0,0,1-.8828-1.8487,9.1563,9.1563,0,0,1-.3135-2.5156,11.3352,11.3352,0,0,1,.3711-2.8965,11.7883,11.7883,0,0,1,2.6978-4.9658,11.03,11.03,0,0,1,2.1367-1.8154,10.1333,10.1333,0,0,1,2.5327-1.1875,9.477,9.477,0,0,1,2.8379-.4209,12.4181,12.4181,0,0,1,2.0874.1728,8.7107,8.7107,0,0,1,2.0049.6026l-1.9966,16.17h-1.518a.8919.8919,0,0,1-.7837-.2969,1.242,1.242,0,0,1-.2066-.7265Zm1.1216-10.2637a4.7667,4.7667,0,0,0-.7178-.1064q-.3544-.0249-.7012-.0254a5.7719,5.7719,0,0,0-1.914.3223,6.7833,6.7833,0,0,0-1.7325.8994,7.7037,7.7037,0,0,0-1.4682,1.3769,8.9736,8.9736,0,0,0-1.13,1.7579,9.96,9.96,0,0,0-.7344,2.0371,9.3344,9.3344,0,0,0-.2636,2.22q0,3.9771,2.541,3.9766a2.8849,2.8849,0,0,0,1.584-.503,6.1584,6.1584,0,0,0,1.4765-1.4033,11.7848,11.7848,0,0,0,1.2954-2.1279,19.97,19.97,0,0,0,1.0557-2.6983Zm4.2573-9.2392-4.0264,4.2568a1.6187,1.6187,0,0,1-.4453.3545,1.1631,1.1631,0,0,1-.5278.1074h-1.6172l2.6894-3.9931a1.81,1.81,0,0,1,.52-.5528,1.4294,1.4294,0,0,1,.7671-.1728Z" transform="translate(0 -4.0176)"/><path class="e" d="M268.9519,375.2021l-2.0126,16.7149h-1.4522a.9406.9406,0,0,1-1.0728-1.0557l.2476-3.0527a10.2017,10.2017,0,0,1-2.978,3.2422,6.1044,6.1044,0,0,1-3.4072,1.0976,3.9852,3.9852,0,0,1-1.8648-.4209,3.3506,3.3506,0,0,1-1.3115-1.23,5.2222,5.2222,0,0,1-.6851-1.98,9.5956,9.5956,0,0,1,.0166-2.69l1.2539-10.626h2.9209l-1.2544,10.626a5.4585,5.4585,0,0,0,.2393,2.9209,1.79,1.79,0,0,0,1.7739.9571,3.4472,3.4472,0,0,0,1.5674-.4122,6.0167,6.0167,0,0,0,1.5513-1.1718,10.0184,10.0184,0,0,0,1.394-1.84,12.8678,12.8678,0,0,0,1.1138-2.4l1.0395-8.68Z" transform="translate(0 -4.0176)"/><path class="e" d="M271.3938,391.917l2.9537-24.3047h2.8876L274.281,391.917Z" transform="translate(0 -4.0176)"/><path class="e" d="M283.8016,375.2021l-2.0127,16.7149h-2.8877l2.0127-16.7149Zm1.122-5.247a1.863,1.863,0,0,1-.1738.8008,2.3059,2.3059,0,0,1-.4619.66,2.1629,2.1629,0,0,1-.6592.4531,1.8681,1.8681,0,0,1-.7676.1651,1.7674,1.7674,0,0,1-.7422-.1651,1.9956,1.9956,0,0,1-.6357-.4531,2.35,2.35,0,0,1-.4375-.66,1.9619,1.9619,0,0,1-.165-.8008,2.0139,2.0139,0,0,1,.165-.8076,2.2222,2.2222,0,0,1,1.0889-1.1309,1.7137,1.7137,0,0,1,.7431-.1728,1.86,1.86,0,0,1,.7666.165,2.0663,2.0663,0,0,1,.6524.4531,2.3432,2.3432,0,0,1,.4531.6768A1.9715,1.9715,0,0,1,284.9236,369.9551Z" transform="translate(0 -4.0176)"/><path class="e" d="M298.8494,388.9141a15.0911,15.0911,0,0,1-1.6338,1.5673,7.9049,7.9049,0,0,1-1.5508.9981,6.2283,6.2283,0,0,1-1.6084.52,10.1518,10.1518,0,0,1-1.791.1494,6.2586,6.2586,0,0,1-2.5654-.4951,5.0737,5.0737,0,0,1-1.8643-1.3945,6.145,6.145,0,0,1-1.1386-2.1611,9.4294,9.4294,0,0,1-.3877-2.78,12.01,12.01,0,0,1,.6347-3.8945,10.95,10.95,0,0,1,1.7744-3.3,8.8172,8.8172,0,0,1,2.7139-2.2939,7.0863,7.0863,0,0,1,3.44-.8574,5.976,5.976,0,0,1,2.7881.5859,5.8151,5.8151,0,0,1,1.9639,1.707l-.9238,1.1055a1.0162,1.0162,0,0,1-.2559.2149.6183.6183,0,0,1-.3213.083.6705.6705,0,0,1-.4541-.2071,5.8961,5.8961,0,0,0-.5859-.4619,4.19,4.19,0,0,0-.8994-.4619,3.8844,3.8844,0,0,0-1.378-.206,4.0208,4.0208,0,0,0-2.1445.6191,6.0419,6.0419,0,0,0-1.7656,1.69,8.6277,8.6277,0,0,0-1.1963,2.541,11.0174,11.0174,0,0,0-.4375,3.1514,6.9252,6.9252,0,0,0,.2314,1.8565,3.9644,3.9644,0,0,0,.6934,1.4189,3.179,3.179,0,0,0,1.13.9082,3.5634,3.5634,0,0,0,1.56.3213,4.5982,4.5982,0,0,0,1.8554-.33,6.2118,6.2118,0,0,0,1.2627-.7178,11.0234,11.0234,0,0,0,.8662-.7177,1.046,1.046,0,0,1,.7012-.33.735.735,0,0,1,.5615.2812Z" transform="translate(0 -4.0176)"/><path class="e" d="M307.5447,392.1484a6.5147,6.5147,0,0,1-2.5088-.4707,5.5074,5.5074,0,0,1-1.9629-1.3613,6.2692,6.2692,0,0,1-1.2871-2.1777,8.6507,8.6507,0,0,1-.4619-2.9375,11.8216,11.8216,0,0,1,.66-3.9766,10.6063,10.6063,0,0,1,1.8144-3.2588,8.709,8.709,0,0,1,2.7149-2.2021,7.1833,7.1833,0,0,1,3.3574-.8086,6.5058,6.5058,0,0,1,2.5078.47,5.5225,5.5225,0,0,1,1.9639,1.3613,6.304,6.304,0,0,1,1.2871,2.1787,8.615,8.615,0,0,1,.4619,2.92,11.7866,11.7866,0,0,1-.66,3.96,10.8176,10.8176,0,0,1-1.8066,3.2676,8.6309,8.6309,0,0,1-2.7148,2.2188A7.173,7.173,0,0,1,307.5447,392.1484Zm.28-2.2939a3.8321,3.8321,0,0,0,2.1865-.66,5.9172,5.9172,0,0,0,1.6826-1.7568,8.9071,8.9071,0,0,0,1.0811-2.5332,11.7059,11.7059,0,0,0,.3789-3.0029,5.5465,5.5465,0,0,0-.915-3.4727,3.1516,3.1516,0,0,0-2.6319-1.1641,3.8939,3.8939,0,0,0-2.2031.6524,5.7726,5.7726,0,0,0-1.6748,1.74,8.9225,8.9225,0,0,0-1.0723,2.5244,11.7069,11.7069,0,0,0-.38,3.003,5.6559,5.6559,0,0,0,.9082,3.49A3.1277,3.1277,0,0,0,307.825,389.8545Z" transform="translate(0 -4.0176)"/></svg>