<svg xmlns="http://www.w3.org/2000/svg" viewBox="0 0 527.6981 759.9164"><defs><style>.a,.d{fill:#606060;}.a,.e,.g{stroke:#606060;}.a,.c,.e,.f,.g{stroke-linecap:round;stroke-linejoin:round;stroke-width:3px;}.a,.g{opacity:0.3;}.b{opacity:0.5;}.c,.g{fill:#fff;}.c,.f{stroke:#d91519;}.e,.f{fill:none;}</style></defs><title>tensado 2</title><rect class="a" x="198.759" y="349.8164" width="227.439" height="147.1899"/><g class="b"><line class="c" x1="340.5687" y1="511.4571" x2="340.3391" y2="758.4164"/><line class="c" x1="310.4889" y1="758.4164" x2="310.7176" y2="514.3231"/><path class="c" d="M310.6486,538.3525l30.357-8.9963a.5525.5525,0,0,1,.3758.0107l3.86,1.6722c.35.1524.3485.6752-.0024,1.033l-3.8729,3.9391a.8847.8847,0,0,1-.3764.2311l-30.354,8.8057a.5664.5664,0,0,1-.3779-.01l-3.8613-1.62c-.3486-.1453-.3453-.65.0066-.998l3.8715-3.8389A.904.904,0,0,1,310.6486,538.3525Z" transform="translate(-0.2803)"/><path class="c" d="M310.6486,524.6314l30.357-8.9963a.5525.5525,0,0,1,.3758.0107l3.86,1.6722c.35.1524.3485.6752-.0024,1.033L341.366,522.29a.8847.8847,0,0,1-.3764.2311l-30.354,8.8057a.5664.5664,0,0,1-.3779-.01l-3.8613-1.62c-.3486-.1453-.3453-.65.0066-.998l3.8715-3.8389A.904.904,0,0,1,310.6486,524.6314Z" transform="translate(-0.2803)"/><path class="c" d="M310.6162,551.9787l30.3569-8.61a.5525.5525,0,0,1,.3758.0154l3.86,1.7212c.35.1569.3485.68-.0023,1.033l-3.873,3.89a.8691.8691,0,0,1-.3763.2263l-30.3541,8.42a.567.567,0,0,1-.3779-.0151l-3.8613-1.6693c-.3486-.15-.3453-.6545.0067-.998l3.8714-3.79A.8891.8891,0,0,1,310.6162,551.9787Z" transform="translate(-0.2803)"/><path class="c" d="M310.5837,565.604l30.3569-8.2243a.554.554,0,0,1,.3758.02l3.86,1.77c.35.1614.3484.6841-.0024,1.033l-3.873,3.84a.8552.8552,0,0,1-.3763.2215l-30.3541,8.0339a.5681.5681,0,0,1-.3778-.02l-3.8614-1.7183c-.3486-.1541-.3452-.6588.0067-.9978l3.8714-3.74A.8761.8761,0,0,1,310.5837,565.604Z" transform="translate(-0.2803)"/><path class="c" d="M310.5512,579.2286l30.357-7.8384a.5554.5554,0,0,1,.3757.0249l3.86,1.8192c.35.1658.3484.6885-.0024,1.0329l-3.873,3.7911a.8417.8417,0,0,1-.3763.2167l-30.354,7.648a.5694.5694,0,0,1-.3779-.0248l-3.8614-1.7673c-.3486-.1586-.3452-.6632.0067-.9977l3.8714-3.691A.8617.8617,0,0,1,310.5512,579.2286Z" transform="translate(-0.2803)"/><line class="c" x1="310.3806" y1="522.268" x2="310.6102" y2="438.694"/><line class="c" x1="340.4605" y1="432.4571" x2="340.2317" y2="519.402"/><path class="c" d="M340.8613,495.3727l-30.357,8.9962a.5525.5525,0,0,1-.3758-.0107l-3.86-1.6721c-.35-.1525-.3485-.6753.0024-1.0331l3.8729-3.9391a.8844.8844,0,0,1,.3763-.2311l30.3541-8.8057a.5664.5664,0,0,1,.3779.01l3.8613,1.62c.3486.1453.3453.65-.0067.998l-3.8714,3.8389A.9053.9053,0,0,1,340.8613,495.3727Z" transform="translate(-0.2803)"/><path class="c" d="M340.8613,509.0937l-30.357,8.9963a.5525.5525,0,0,1-.3758-.0107l-3.86-1.6721c-.35-.1525-.3485-.6753.0024-1.0331l3.8729-3.9391a.8844.8844,0,0,1,.3763-.2311l30.3541-8.8057a.5664.5664,0,0,1,.3779.01l3.8613,1.62c.3486.1453.3453.65-.0067.998l-3.8714,3.8389A.904.904,0,0,1,340.8613,509.0937Z" transform="translate(-0.2803)"/><path class="c" d="M340.8937,481.7465l-30.3569,8.61a.5525.5525,0,0,1-.3758-.0154l-3.86-1.7212c-.35-.1568-.3485-.68.0023-1.033l3.873-3.89a.87.87,0,0,1,.3763-.2263l30.3541-8.42a.5667.5667,0,0,1,.3778.0152l3.8614,1.6692c.3486.15.3452.6545-.0067.998l-3.8714,3.79A.89.89,0,0,1,340.8937,481.7465Z" transform="translate(-0.2803)"/><path class="c" d="M340.9262,468.1211l-30.357,8.2243a.5537.5537,0,0,1-.3757-.02l-3.86-1.77c-.35-.1614-.3484-.6841.0024-1.033l3.873-3.84a.8552.8552,0,0,1,.3763-.2215l30.354-8.0339a.5684.5684,0,0,1,.3779.02l3.8614,1.7183c.3486.1541.3452.6588-.0067.9978l-3.8714,3.74A.8766.8766,0,0,1,340.9262,468.1211Z" transform="translate(-0.2803)"/><path class="c" d="M340.9587,454.4966l-30.357,7.8383a.5554.5554,0,0,1-.3757-.0249l-3.86-1.8192c-.35-.1658-.3484-.6885.0024-1.0329l3.873-3.7911a.8412.8412,0,0,1,.3763-.2167l30.354-7.648a.5694.5694,0,0,1,.3779.0248l3.8614,1.7673c.3486.1586.3452.6632-.0067.9977l-3.8714,3.691A.8635.8635,0,0,1,340.9587,454.4966Z" transform="translate(-0.2803)"/><path class="c" d="M340.9912,440.8728l-30.357,7.4525a.5574.5574,0,0,1-.3757-.03l-3.86-1.8681c-.35-.17-.3485-.6929.0024-1.0329l3.873-3.7417a.8274.8274,0,0,1,.3763-.212l30.354-7.262a.5715.5715,0,0,1,.3779.0295l3.8613,1.8164c.3487.163.3453.6675-.0066.9976l-3.8715,3.6417A.8479.8479,0,0,1,340.9912,440.8728Z" transform="translate(-0.2803)"/><line class="c" x1="340.5687" y1="346.4571" x2="340.3391" y2="430.0311"/><line class="c" x1="310.4889" y1="436.268" x2="310.7176" y2="349.3231"/><path class="c" d="M310.6486,373.3525l30.357-8.9963a.5525.5525,0,0,1,.3758.0107l3.86,1.6722c.35.1524.3485.6752-.0024,1.033l-3.8729,3.9391a.8847.8847,0,0,1-.3764.2311l-30.354,8.8057a.5664.5664,0,0,1-.3779-.01l-3.8613-1.62c-.3486-.1453-.3453-.65.0066-.998l3.8715-3.8389A.904.904,0,0,1,310.6486,373.3525Z" transform="translate(-0.2803)"/><path class="c" d="M310.6486,359.6314l30.357-8.9963a.5525.5525,0,0,1,.3758.0107l3.86,1.6722c.35.1524.3485.6752-.0024,1.033L341.366,357.29a.8847.8847,0,0,1-.3764.2311l-30.354,8.8057a.5664.5664,0,0,1-.3779-.01l-3.8613-1.62c-.3486-.1453-.3453-.65.0066-.998l3.8715-3.8389A.904.904,0,0,1,310.6486,359.6314Z" transform="translate(-0.2803)"/><path class="c" d="M310.6162,386.9787l30.3569-8.61a.5525.5525,0,0,1,.3758.0154l3.86,1.7212c.35.1569.3485.68-.0023,1.033l-3.873,3.89a.8691.8691,0,0,1-.3763.2263l-30.3541,8.42a.567.567,0,0,1-.3779-.0151l-3.8613-1.6693c-.3486-.15-.3453-.6545.0067-.998l3.8714-3.79A.8891.8891,0,0,1,310.6162,386.9787Z" transform="translate(-0.2803)"/><path class="c" d="M310.5837,400.604l30.3569-8.2243a.554.554,0,0,1,.3758.02l3.86,1.77c.35.1614.3484.6841-.0024,1.033l-3.873,3.84a.8552.8552,0,0,1-.3763.2215l-30.3541,8.0339a.5681.5681,0,0,1-.3778-.02l-3.8614-1.7183c-.3486-.1541-.3452-.6588.0067-.9978l3.8714-3.74A.8761.8761,0,0,1,310.5837,400.604Z" transform="translate(-0.2803)"/><path class="c" d="M310.5512,414.2286l30.357-7.8384a.5554.5554,0,0,1,.3757.0249l3.86,1.8192c.35.1658.3484.6885-.0024,1.0329l-3.873,3.7911a.8417.8417,0,0,1-.3763.2167l-30.354,7.648a.5694.5694,0,0,1-.3779-.0248l-3.8614-1.7673c-.3486-.1586-.3452-.6632.0067-.9977l3.8714-3.691A.8617.8617,0,0,1,310.5512,414.2286Z" transform="translate(-0.2803)"/><path class="c" d="M310.5187,427.8523l30.357-7.4524a.5568.5568,0,0,1,.3757.03l3.86,1.8681c.35.17.3485.6929-.0024,1.0329l-3.873,3.7417a.8274.8274,0,0,1-.3763.212l-30.354,7.2621a.572.572,0,0,1-.3779-.03L306.2664,432.7c-.3486-.163-.3452-.6675.0067-.9976l3.8714-3.6416A.848.848,0,0,1,310.5187,427.8523Z" transform="translate(-0.2803)"/></g><path class="d" d="M51.793,527.7729a11.8547,11.8547,0,0,1,3.16.3711,6.1054,6.1054,0,0,1,2.1865,1.0567,4.1823,4.1823,0,0,1,1.2706,1.666,5.6038,5.6038,0,0,1,.4121,2.1865,6.5945,6.5945,0,0,1-.3057,2.0049,5.9443,5.9443,0,0,1-.9072,1.7734,6.3225,6.3225,0,0,1-1.5176,1.4356,7.9169,7.9169,0,0,1-2.1367,1.0068,5.8763,5.8763,0,0,1,3.1924,1.666,4.4005,4.4005,0,0,1,1.0644,3.0528,7.4927,7.4927,0,0,1-.5859,2.9941,6.6414,6.6414,0,0,1-1.6914,2.3516,7.7285,7.7285,0,0,1-2.6973,1.5342,11.0473,11.0473,0,0,1-3.5889.5449H41.877l2.9043-23.6446Zm-1.8975,21.2022a7.01,7.01,0,0,0,2.3106-.3457,4.3418,4.3418,0,0,0,1.6416-.99,4.1266,4.1266,0,0,0,.9814-1.5508,5.9691,5.9691,0,0,0,.33-2.0469,3.1783,3.1783,0,0,0-1.0479-2.499,4.6905,4.6905,0,0,0-3.1924-.9326H46.2822l-1.0234,8.3652Zm-2.3262-18.7764-1.0068,8.2334H50.374a6.9743,6.9743,0,0,0,2.335-.3545,4.6517,4.6517,0,0,0,1.667-.99,3.9975,3.9975,0,0,0,.998-1.5264,5.6163,5.6163,0,0,0,.33-1.9638,3.1245,3.1245,0,0,0-1.0234-2.5489,4.9,4.9,0,0,0-3.168-.85Z" transform="translate(-0.2803)"/><path class="d" d="M71.4277,547.0122a14.297,14.297,0,0,1-1.2793,1.9141,8.8547,8.8547,0,0,1-1.4521,1.46,6.33,6.33,0,0,1-1.6162.9326,4.8225,4.8225,0,0,1-1.7578.33,4.0969,4.0969,0,0,1-1.7979-.3886,3.7411,3.7411,0,0,1-1.3779-1.1377,5.5437,5.5437,0,0,1-.8828-1.8487,9.1717,9.1717,0,0,1-.3135-2.5156,11.3524,11.3524,0,0,1,.3711-2.8965,11.78,11.78,0,0,1,2.6973-4.9658,11.0686,11.0686,0,0,1,2.1367-1.8154,10.1361,10.1361,0,0,1,2.5332-1.1875,9.4713,9.4713,0,0,1,2.8379-.4209,12.4051,12.4051,0,0,1,2.0869.1728,8.69,8.69,0,0,1,2.0049.6026l-1.9961,16.17H72.1035a.8924.8924,0,0,1-.7832-.2969,1.2418,1.2418,0,0,1-.206-.7266ZM72.55,536.7485a4.7709,4.7709,0,0,0-.7178-.1064q-.3559-.0249-.7011-.0254a5.7655,5.7655,0,0,0-1.9141.3223,6.7679,6.7679,0,0,0-1.7324.8994,7.6889,7.6889,0,0,0-1.4688,1.3769,9.0208,9.0208,0,0,0-1.1308,1.7578,9.9526,9.9526,0,0,0-.7334,2.0372,9.2839,9.2839,0,0,0-.2647,2.22q0,3.9769,2.541,3.9765a2.8808,2.8808,0,0,0,1.584-.5029A6.1222,6.1222,0,0,0,69.4883,547.3a11.7856,11.7856,0,0,0,1.2959-2.1279,19.97,19.97,0,0,0,1.0556-2.6983Z" transform="translate(-0.2803)"/><path class="d" d="M82.1523,539.356a14.236,14.236,0,0,1,1.4278-2.4336,7.1281,7.1281,0,0,1,1.6084-1.6172,3.9726,3.9726,0,0,1,1.7324-.709,3.3671,3.3671,0,0,1,1.8154.2715L88.208,537.69a3.3741,3.3741,0,0,0-3.7861.627q-1.6422,1.4839-2.6651,5.3623l-.9238,7.7383H77.9619l2.0127-16.7315h1.4522a.8828.8828,0,0,1,1.0068.99Z" transform="translate(-0.2803)"/><path class="d" d="M93.4375,539.356a14.2294,14.2294,0,0,1,1.4277-2.4336,7.1321,7.1321,0,0,1,1.6084-1.6172,3.9735,3.9735,0,0,1,1.7325-.709,3.3671,3.3671,0,0,1,1.8154.2715l-.5283,2.8222a3.3743,3.3743,0,0,0-3.7862.627q-1.642,1.4839-2.665,5.3623l-.9238,7.7383H89.2471L91.26,534.686h1.4521a.8829.8829,0,0,1,1.0069.99Z" transform="translate(-0.2803)"/><path class="d" d="M110.8623,547.0122a14.3161,14.3161,0,0,1-1.2793,1.9141,8.8547,8.8547,0,0,1-1.4521,1.46,6.329,6.329,0,0,1-1.6163.9326,4.8217,4.8217,0,0,1-1.7578.33,4.0967,4.0967,0,0,1-1.7978-.3886,3.74,3.74,0,0,1-1.3779-1.1377,5.5438,5.5438,0,0,1-.8829-1.8487,9.1757,9.1757,0,0,1-.3134-2.5156,11.3524,11.3524,0,0,1,.3711-2.8965,11.7784,11.7784,0,0,1,2.6972-4.9658,11.0746,11.0746,0,0,1,2.1367-1.8154,10.1394,10.1394,0,0,1,2.5332-1.1875,9.4723,9.4723,0,0,1,2.8379-.4209,12.4055,12.4055,0,0,1,2.087.1728,8.6879,8.6879,0,0,1,2.0048.6026l-1.9961,16.17h-1.5185a.8923.8923,0,0,1-.7832-.2969,1.2419,1.2419,0,0,1-.2061-.7266Zm1.1221-10.2637a4.7728,4.7728,0,0,0-.7178-.1064q-.3559-.0249-.7012-.0254a5.7654,5.7654,0,0,0-1.914.3223,6.7685,6.7685,0,0,0-1.7325.8994,7.6883,7.6883,0,0,0-1.4687,1.3769,9.0259,9.0259,0,0,0-1.1309,1.7578,9.9644,9.9644,0,0,0-.7334,2.0372,9.289,9.289,0,0,0-.2646,2.22q0,3.9769,2.541,3.9765a2.8808,2.8808,0,0,0,1.584-.5029,6.1222,6.1222,0,0,0,1.4766-1.4033,11.7913,11.7913,0,0,0,1.2959-2.1279,19.97,19.97,0,0,0,1.0556-2.6983Z" transform="translate(-0.2803)"/><path class="d" d="M141.1719,527.1128l-2.9873,24.3047H136.65a.8692.8692,0,0,1-.7754-.2969,1.2831,1.2831,0,0,1-.1982-.7266l.3134-3.5136a13.1961,13.1961,0,0,1-1.3691,1.9629,10.2086,10.2086,0,0,1-1.56,1.5019,6.7653,6.7653,0,0,1-1.6992.9649,4.97,4.97,0,0,1-1.79.3388,3.95,3.95,0,0,1-3.333-1.56,7.376,7.376,0,0,1-1.1885-4.5293,13.2639,13.2639,0,0,1,.2812-2.7061,14.0073,14.0073,0,0,1,.8-2.5908,12.7723,12.7723,0,0,1,1.2539-2.3018,9.5367,9.5367,0,0,1,1.6416-1.84,7.564,7.564,0,0,1,1.9551-1.2207,5.5758,5.5758,0,0,1,2.2031-.4453,5.14,5.14,0,0,1,2.252.4863,4.88,4.88,0,0,1,1.7246,1.3779l1.1387-9.207Zm-4.2569,11.2363a3.3981,3.3981,0,0,0-1.51-1.2451,4.7727,4.7727,0,0,0-1.791-.3555,3.8169,3.8169,0,0,0-2.3428.7764,6.8152,6.8152,0,0,0-1.7735,2.0039,10.4914,10.4914,0,0,0-1.1308,2.7481,11.806,11.806,0,0,0-.3955,2.9863,5.3141,5.3141,0,0,0,.7012,2.9941,2.2777,2.2777,0,0,0,2.0048,1.0313,3.0589,3.0589,0,0,0,1.6006-.4942,6.6275,6.6275,0,0,0,1.5586-1.3779,12.1221,12.1221,0,0,0,1.4033-2.0879,16.5952,16.5952,0,0,0,1.13-2.64Z" transform="translate(-0.2803)"/><path class="d" d="M155.7246,548.3315a14.7009,14.7009,0,0,1-1.65,1.4942,10.0692,10.0692,0,0,1-1.6416,1.0312,7.2412,7.2412,0,0,1-1.749.6016,9.682,9.682,0,0,1-1.9717.19,6.602,6.602,0,0,1-2.5742-.4785,5.3336,5.3336,0,0,1-1.93-1.3613,6.1257,6.1257,0,0,1-1.2217-2.1367,8.6306,8.6306,0,0,1-.4287-2.8057,12.2771,12.2771,0,0,1,.2725-2.5654,11.9825,11.9825,0,0,1,.792-2.4336,10.9993,10.9993,0,0,1,1.27-2.1455,8.532,8.532,0,0,1,1.7158-1.7071,8.06,8.06,0,0,1,2.1289-1.1308,7.4377,7.4377,0,0,1,2.499-.4121,5.989,5.989,0,0,1,2.1944.3632,4.6592,4.6592,0,0,1,1.5185.9239,3.7008,3.7008,0,0,1,.8828,1.2373,3.2811,3.2811,0,0,1,.2881,1.2871,4.5268,4.5268,0,0,1-.4453,2.0049,4.1625,4.1625,0,0,1-1.6328,1.6494,12.1859,12.1859,0,0,1-3.2676,1.2793,36.0715,36.0715,0,0,1-5.3457.874q0,.1816-.0088.3545c-.0049.1162-.0078.2344-.0078.3555a5.1619,5.1619,0,0,0,.9649,3.374,3.5676,3.5676,0,0,0,2.913,1.1631,5.4681,5.4681,0,0,0,1.41-.1651,5.9027,5.9027,0,0,0,1.1055-.4043,4.9666,4.9666,0,0,0,.8584-.5273q.3705-.2886.6767-.5283a6.7352,6.7352,0,0,1,.5684-.4043.987.987,0,0,1,.5283-.1651.7371.7371,0,0,1,.5615.28Zm-4.6533-11.748a4.2877,4.2877,0,0,0-1.9141.43,5.092,5.092,0,0,0-1.5508,1.18,7.2165,7.2165,0,0,0-1.1552,1.7656,10.561,10.561,0,0,0-.7422,2.1855,31.64,31.64,0,0,0,4.0752-.7177,10.1113,10.1113,0,0,0,2.36-.8741,2.2746,2.2746,0,0,0,1.3526-2.1533,1.6477,1.6477,0,0,0-.5528-1.2041,2.2947,2.2947,0,0,0-.7509-.4375A3.211,3.211,0,0,0,151.0713,536.5835Z" transform="translate(-0.2803)"/><path class="d" d="M5.1641,578.84a13.5,13.5,0,0,1,1.37-1.9716,9.8268,9.8268,0,0,1,1.5674-1.51,6.9043,6.9043,0,0,1,1.708-.9658,5.0251,5.0251,0,0,1,1.8066-.3379A3.9326,3.9326,0,0,1,14.94,575.606a7.4033,7.4033,0,0,1,1.18,4.538,13.253,13.253,0,0,1-.28,2.7051,13.8282,13.8282,0,0,1-.8,2.583,12.8107,12.8107,0,0,1-1.2539,2.293,9.87,9.87,0,0,1-1.6338,1.8486,7.2643,7.2643,0,0,1-1.955,1.2285,5.6358,5.6358,0,0,1-2.211.4463,5.0907,5.0907,0,0,1-2.2441-.4873,4.88,4.88,0,0,1-1.7158-1.3779l-.8916,7.293H.28l2.7226-22.3907H4.4551a.8753.8753,0,0,1,.99.99Zm-.8907,8.5137A3.5542,3.5542,0,0,0,5.7754,588.6a4.5259,4.5259,0,0,0,1.7812.3711,3.6971,3.6971,0,0,0,1.6172-.3633,5.0867,5.0867,0,0,0,1.3858-.9814,7.1872,7.1872,0,0,0,1.122-1.4522,10.1556,10.1556,0,0,0,.834-1.7822,12.3669,12.3669,0,0,0,.52-1.9629,11.3626,11.3626,0,0,0,.1816-2.0049,5.2289,5.2289,0,0,0-.71-2.9863,2.2886,2.2886,0,0,0-1.9961-1.0234,3.0884,3.0884,0,0,0-1.6005.4863,6.539,6.539,0,0,0-1.56,1.3613,11.8328,11.8328,0,0,0-1.4024,2.0791,16.4734,16.4734,0,0,0-1.13,2.6406Z" transform="translate(-0.2803)"/><path class="d" d="M24.6348,591.2485a6.5144,6.5144,0,0,1-2.5088-.4707,5.5074,5.5074,0,0,1-1.9629-1.3613,6.2676,6.2676,0,0,1-1.2871-2.1777,8.6507,8.6507,0,0,1-.4619-2.9375,11.8241,11.8241,0,0,1,.66-3.9766,10.6065,10.6065,0,0,1,1.8145-3.2588,8.71,8.71,0,0,1,2.7148-2.2021,7.1836,7.1836,0,0,1,3.3574-.8086,6.5063,6.5063,0,0,1,2.5079.47,5.523,5.523,0,0,1,1.9638,1.3613,6.304,6.304,0,0,1,1.2871,2.1787,8.615,8.615,0,0,1,.4619,2.92,11.7891,11.7891,0,0,1-.66,3.96,10.8157,10.8157,0,0,1-1.8067,3.2676A8.63,8.63,0,0,1,28,590.4312,7.1726,7.1726,0,0,1,24.6348,591.2485Zm.28-2.2939a3.8322,3.8322,0,0,0,2.1866-.66,5.9184,5.9184,0,0,0,1.6826-1.7568,8.9069,8.9069,0,0,0,1.081-2.5332,11.7015,11.7015,0,0,0,.3789-3.0029,5.5458,5.5458,0,0,0-.915-3.4727,3.1514,3.1514,0,0,0-2.6318-1.1641,3.894,3.894,0,0,0-2.2032.6524,5.7737,5.7737,0,0,0-1.6748,1.74,8.92,8.92,0,0,0-1.0722,2.5244,11.7025,11.7025,0,0,0-.38,3.003,5.6552,5.6552,0,0,0,.9082,3.49A3.1276,3.1276,0,0,0,24.915,588.9546Z" transform="translate(-0.2803)"/><path class="d" d="M46.3154,576.9761a1.0575,1.0575,0,0,1-.2636.2881.5719.5719,0,0,1-.33.0908.9258.9258,0,0,1-.5039-.1817c-.1807-.1211-.4014-.2558-.6592-.4043a5.4342,5.4342,0,0,0-.9492-.4121,4.2646,4.2646,0,0,0-1.3526-.1894,4.2058,4.2058,0,0,0-1.3535.206,3.2423,3.2423,0,0,0-1.0478.5694,2.5923,2.5923,0,0,0-.6768.85,2.31,2.31,0,0,0-.2392,1.0312,1.5859,1.5859,0,0,0,.5117,1.2373,4.7074,4.7074,0,0,0,1.2871.8008q.7749.3384,1.667.6514a8.5648,8.5648,0,0,1,1.666.792,4.267,4.267,0,0,1,1.2871,1.2207,3.3378,3.3378,0,0,1,.5117,1.9306,5.5621,5.5621,0,0,1-1.7578,4.0674,6.4152,6.4152,0,0,1-2.0459,1.2783,7.1569,7.1569,0,0,1-2.6807.4786,6.659,6.659,0,0,1-2.83-.5694,5.8853,5.8853,0,0,1-2.0049-1.46l.7265-1.1221a1.2382,1.2382,0,0,1,.3213-.33.804.804,0,0,1,.9815.1162c.1758.1533.3965.3272.66.52a4.07,4.07,0,0,0,2.5244.7509,4.0949,4.0949,0,0,0,1.461-.248,3.4433,3.4433,0,0,0,1.1055-.66,2.788,2.788,0,0,0,.6923-.9648,2.9417,2.9417,0,0,0,.2393-1.18,1.7747,1.7747,0,0,0-.5117-1.3369,4.19,4.19,0,0,0-1.2862-.8252q-.7762-.33-1.6669-.6182a8.4166,8.4166,0,0,1-1.6661-.7431,4.0479,4.0479,0,0,1-1.2871-1.18,3.279,3.279,0,0,1-.5117-1.93,5.1108,5.1108,0,0,1,.4209-2.0381,5.2689,5.2689,0,0,1,1.2129-1.7412,5.9119,5.9119,0,0,1,1.9219-1.2119,6.7844,6.7844,0,0,1,2.5488-.4541,6.5461,6.5461,0,0,1,2.6484.5029,6.1174,6.1174,0,0,1,1.9717,1.3613Z" transform="translate(-0.2803)"/><path class="d" d="M50.0605,587.8657V587.61c0-.1045.0079-.2559.0245-.4541s.0439-.4561.082-.7754.0908-.7364.1572-1.2539l1.0225-8.3653H49.4824a.4708.4708,0,0,1-.3711-.1572.6142.6142,0,0,1-.1074-.4863l.1318-1.1719,2.5743-.3467,1.2539-5.164a.9283.9283,0,0,1,.2558-.4043.6274.6274,0,0,1,.4375-.1563h1.5342l-.709,5.7578h4.3887l-.2471,2.1289H54.2178l-1.0059,8.2168q-.0834.6768-.1318,1.0889t-.0752.66c-.0156.165-.0274.28-.0322.3466s-.0088.1153-.0088.1485a1.7183,1.7183,0,0,0,.3965,1.2461,1.409,1.409,0,0,0,1.0556.4043,2.1492,2.1492,0,0,0,.7676-.1241,3.7733,3.7733,0,0,0,.5693-.2724,4.7205,4.7205,0,0,0,.4121-.2725.506.506,0,0,1,.28-.123.3248.3248,0,0,1,.2227.0654.6182.6182,0,0,1,.1406.2148l.6269,1.4024a6.1779,6.1779,0,0,1-1.84,1.1133,5.6359,5.6359,0,0,1-2.07.4043,3.4934,3.4934,0,0,1-2.5166-.8741A3.4478,3.4478,0,0,1,50.0605,587.8657Z" transform="translate(-0.2803)"/><path class="d" d="M73.5889,587.9312a14.7267,14.7267,0,0,1-1.65,1.4941,10.0709,10.0709,0,0,1-1.6416,1.0312,7.2384,7.2384,0,0,1-1.749.6016,9.6749,9.6749,0,0,1-1.9717.19,6.6013,6.6013,0,0,1-2.5742-.4785,5.3328,5.3328,0,0,1-1.93-1.3613,6.1226,6.1226,0,0,1-1.2217-2.1367,8.6306,8.6306,0,0,1-.4287-2.8057,12.2837,12.2837,0,0,1,.2724-2.5654,11.9887,11.9887,0,0,1,.792-2.4336,11.0043,11.0043,0,0,1,1.27-2.1455,8.5324,8.5324,0,0,1,1.7159-1.7071,8.0586,8.0586,0,0,1,2.1289-1.1308,7.4377,7.4377,0,0,1,2.499-.4121,5.9867,5.9867,0,0,1,2.1943.3633,4.6579,4.6579,0,0,1,1.5186.9238,3.7008,3.7008,0,0,1,.8828,1.2373,3.2811,3.2811,0,0,1,.2881,1.2871,4.5279,4.5279,0,0,1-.4453,2.0049,4.1632,4.1632,0,0,1-1.6328,1.6494,12.1873,12.1873,0,0,1-3.2676,1.2793,36.0738,36.0738,0,0,1-5.3457.874q0,.1816-.0088.3545c-.0049.1162-.0078.2344-.0078.3555a5.1625,5.1625,0,0,0,.9648,3.374,3.568,3.568,0,0,0,2.9131,1.1631,5.4692,5.4692,0,0,0,1.41-.1651,5.9087,5.9087,0,0,0,1.1054-.4042,4.9692,4.9692,0,0,0,.8584-.5274q.3707-.2886.6768-.5283a6.751,6.751,0,0,1,.5683-.4043.9872.9872,0,0,1,.5284-.165.7373.7373,0,0,1,.5615.28Zm-4.6534-11.7481a4.2876,4.2876,0,0,0-1.914.43,5.092,5.092,0,0,0-1.5508,1.18,7.2187,7.2187,0,0,0-1.1553,1.7656,10.5658,10.5658,0,0,0-.7422,2.1856,31.6481,31.6481,0,0,0,4.0752-.7178,10.1174,10.1174,0,0,0,2.36-.874,2.2745,2.2745,0,0,0,1.3525-2.1534,1.647,1.647,0,0,0-.5527-1.2041,2.2981,2.2981,0,0,0-.751-.4375A3.21,3.21,0,0,0,68.9355,576.1831Z" transform="translate(-0.2803)"/><path class="d" d="M80.4355,578.5269a10.4172,10.4172,0,0,1,3.02-3.3418,6.1444,6.1444,0,0,1,3.4648-1.13,3.934,3.934,0,0,1,1.8565.4209,3.3674,3.3674,0,0,1,1.3037,1.23,5.2269,5.2269,0,0,1,.6845,1.9873,9.9071,9.9071,0,0,1,0,2.6816l-1.2539,10.6426h-2.92l1.2539-10.6426a5.4013,5.4013,0,0,0-.248-2.9287,1.7942,1.7942,0,0,0-1.7656-.9482,3.4405,3.4405,0,0,0-1.6084.4287,6.1766,6.1766,0,0,0-1.5762,1.2207,10.144,10.144,0,0,0-1.41,1.9062,13.4049,13.4049,0,0,0-1.1142,2.4824l-.9571,8.4815H76.2285l2.0127-16.7315h1.4522a.8753.8753,0,0,1,.99.99Z" transform="translate(-0.2803)"/><path class="d" d="M104.4932,576.9761a1.0561,1.0561,0,0,1-.2637.2881.5717.5717,0,0,1-.33.0908.9258.9258,0,0,1-.5039-.1817c-.1807-.1211-.4014-.2558-.6592-.4043a5.4342,5.4342,0,0,0-.9492-.4121,4.2644,4.2644,0,0,0-1.3525-.1894,4.2058,4.2058,0,0,0-1.3535.206,3.2418,3.2418,0,0,0-1.0479.5694,2.5923,2.5923,0,0,0-.6768.85,2.3108,2.3108,0,0,0-.2392,1.0312,1.5859,1.5859,0,0,0,.5117,1.2373,4.7074,4.7074,0,0,0,1.2871.8008q.7749.3384,1.667.6514a8.5621,8.5621,0,0,1,1.666.792,4.267,4.267,0,0,1,1.2871,1.2207,3.3371,3.3371,0,0,1,.5118,1.9306,5.5617,5.5617,0,0,1-1.7579,4.0674,6.4152,6.4152,0,0,1-2.0459,1.2783,7.1568,7.1568,0,0,1-2.6806.4786,6.6592,6.6592,0,0,1-2.83-.5694,5.8863,5.8863,0,0,1-2.0049-1.46l.7266-1.1221a1.2352,1.2352,0,0,1,.3213-.33.8039.8039,0,0,1,.9814.1162c.1758.1533.3965.3272.66.52a4.07,4.07,0,0,0,2.5244.7509,4.0944,4.0944,0,0,0,1.4609-.248,3.4422,3.4422,0,0,0,1.1055-.66,2.79,2.79,0,0,0,.6924-.9648,2.9416,2.9416,0,0,0,.2392-1.18,1.7747,1.7747,0,0,0-.5117-1.3369,4.1892,4.1892,0,0,0-1.2861-.8252q-.7764-.33-1.667-.6182a8.4157,8.4157,0,0,1-1.666-.7431,4.0469,4.0469,0,0,1-1.2871-1.18,3.279,3.279,0,0,1-.5118-1.93,5.1108,5.1108,0,0,1,.4209-2.0381,5.2689,5.2689,0,0,1,1.2129-1.7412,5.913,5.913,0,0,1,1.9219-1.2119,6.7844,6.7844,0,0,1,2.5488-.4541,6.5469,6.5469,0,0,1,2.6485.5029,6.12,6.12,0,0,1,1.9717,1.3613Z" transform="translate(-0.2803)"/><path class="d" d="M117.2471,586.6118a14.3161,14.3161,0,0,1-1.2793,1.9141,8.859,8.859,0,0,1-1.4522,1.46,6.3289,6.3289,0,0,1-1.6162.9327,4.8241,4.8241,0,0,1-1.7578.33,4.0947,4.0947,0,0,1-1.7978-.3886,3.74,3.74,0,0,1-1.378-1.1377,5.5428,5.5428,0,0,1-.8828-1.8487,9.1717,9.1717,0,0,1-.3135-2.5156,11.3574,11.3574,0,0,1,.3711-2.8965,11.78,11.78,0,0,1,2.6973-4.9658,11.0746,11.0746,0,0,1,2.1367-1.8154,10.1413,10.1413,0,0,1,2.5332-1.1875,9.4723,9.4723,0,0,1,2.8379-.4209,12.4051,12.4051,0,0,1,2.0869.1728,8.6886,8.6886,0,0,1,2.0049.6026l-1.9961,16.17h-1.5185a.8922.8922,0,0,1-.7833-.2969,1.2424,1.2424,0,0,1-.206-.7265Zm1.122-10.2637a4.7825,4.7825,0,0,0-.7177-.1064q-.3559-.0249-.7012-.0254a5.766,5.766,0,0,0-1.9141.3223,6.7679,6.7679,0,0,0-1.7324.8994,7.6885,7.6885,0,0,0-1.4687,1.3769,9.022,9.022,0,0,0-1.1309,1.7579,9.9554,9.9554,0,0,0-.7334,2.0371,9.2839,9.2839,0,0,0-.2646,2.22q0,3.9771,2.541,3.9766a2.8812,2.8812,0,0,0,1.584-.503,6.1237,6.1237,0,0,0,1.4765-1.4033,11.7856,11.7856,0,0,0,1.2959-2.1279,19.97,19.97,0,0,0,1.0557-2.6983Z" transform="translate(-0.2803)"/><path class="d" d="M139.8359,566.7124l-2.9873,24.3047h-1.5341a.8689.8689,0,0,1-.7754-.2969,1.2822,1.2822,0,0,1-.1983-.7265l.3135-3.5137a13.2035,13.2035,0,0,1-1.3691,1.9629,10.2084,10.2084,0,0,1-1.56,1.5019,6.7671,6.7671,0,0,1-1.6992.9649,4.9684,4.9684,0,0,1-1.79.3388,3.95,3.95,0,0,1-3.333-1.56,7.376,7.376,0,0,1-1.1885-4.5293,13.2648,13.2648,0,0,1,.2813-2.7061,13.9921,13.9921,0,0,1,.8-2.5908,12.7661,12.7661,0,0,1,1.2539-2.3018,9.5364,9.5364,0,0,1,1.6416-1.84,7.5623,7.5623,0,0,1,1.9551-1.2207,5.5758,5.5758,0,0,1,2.2031-.4453,5.14,5.14,0,0,1,2.252.4863,4.8815,4.8815,0,0,1,1.7246,1.3779l1.1386-9.207Zm-4.2568,11.2363a3.3984,3.3984,0,0,0-1.51-1.2451,4.772,4.772,0,0,0-1.791-.3555,3.8173,3.8173,0,0,0-2.3428.7764,6.8164,6.8164,0,0,0-1.7734,2.0039,10.4914,10.4914,0,0,0-1.1308,2.7481,11.8062,11.8062,0,0,0-.3956,2.9863,5.3141,5.3141,0,0,0,.7012,2.9941,2.278,2.278,0,0,0,2.0049,1.0313,3.0594,3.0594,0,0,0,1.6006-.4942,6.6275,6.6275,0,0,0,1.5586-1.3779,12.1221,12.1221,0,0,0,1.4033-2.0879,16.6044,16.6044,0,0,0,1.13-2.64Z" transform="translate(-0.2803)"/><path class="d" d="M147.458,591.2485a6.5147,6.5147,0,0,1-2.5088-.4707,5.5074,5.5074,0,0,1-1.9629-1.3613,6.2676,6.2676,0,0,1-1.2871-2.1777,8.6507,8.6507,0,0,1-.4619-2.9375,11.8216,11.8216,0,0,1,.66-3.9766,10.6063,10.6063,0,0,1,1.8144-3.2588,8.709,8.709,0,0,1,2.7149-2.2021,7.1833,7.1833,0,0,1,3.3574-.8086,6.5058,6.5058,0,0,1,2.5078.47,5.5225,5.5225,0,0,1,1.9639,1.3613,6.304,6.304,0,0,1,1.2871,2.1787,8.615,8.615,0,0,1,.4619,2.92,11.7866,11.7866,0,0,1-.66,3.96,10.8176,10.8176,0,0,1-1.8066,3.2676,8.63,8.63,0,0,1-2.7149,2.2188A7.1723,7.1723,0,0,1,147.458,591.2485Zm.28-2.2939a3.8321,3.8321,0,0,0,2.1865-.66,5.9184,5.9184,0,0,0,1.6826-1.7568,8.9071,8.9071,0,0,0,1.0811-2.5332,11.7059,11.7059,0,0,0,.3789-3.0029,5.5458,5.5458,0,0,0-.9151-3.4727,3.1513,3.1513,0,0,0-2.6318-1.1641,3.8939,3.8939,0,0,0-2.2031.6524,5.7726,5.7726,0,0,0-1.6748,1.74,8.92,8.92,0,0,0-1.0723,2.5244,11.7069,11.7069,0,0,0-.38,3.003,5.6559,5.6559,0,0,0,.9082,3.49A3.1277,3.1277,0,0,0,147.7383,588.9546Z" transform="translate(-0.2803)"/><path class="d" d="M102.3232,163.3638H95.36l-2.6075,21.0537H89.6846l2.5732-21.0537H85.2627l.2969-2.5909h17.0771Z" transform="translate(-0.2803)"/><path class="d" d="M115.5889,181.3315a14.7184,14.7184,0,0,1-1.65,1.4942,10.0777,10.0777,0,0,1-1.6416,1.0312,7.2427,7.2427,0,0,1-1.749.6016,9.682,9.682,0,0,1-1.9717.19,6.6013,6.6013,0,0,1-2.5742-.4785,5.3328,5.3328,0,0,1-1.93-1.3613,6.1226,6.1226,0,0,1-1.2217-2.1367,8.6306,8.6306,0,0,1-.4287-2.8057,12.2837,12.2837,0,0,1,.2724-2.5654,11.9887,11.9887,0,0,1,.792-2.4336,11.0043,11.0043,0,0,1,1.27-2.1455,8.5324,8.5324,0,0,1,1.7159-1.7071,8.0586,8.0586,0,0,1,2.1289-1.1308,7.4377,7.4377,0,0,1,2.499-.4121,5.9888,5.9888,0,0,1,2.1943.3632,4.66,4.66,0,0,1,1.5186.9239,3.7008,3.7008,0,0,1,.8828,1.2373,3.2811,3.2811,0,0,1,.2881,1.2871,4.5282,4.5282,0,0,1-.4453,2.0049,4.1632,4.1632,0,0,1-1.6328,1.6494,12.1873,12.1873,0,0,1-3.2676,1.2793,36.0738,36.0738,0,0,1-5.3457.874q0,.1817-.0088.3545c-.0049.1162-.0078.2344-.0078.3555a5.1625,5.1625,0,0,0,.9648,3.374,3.568,3.568,0,0,0,2.9131,1.1631,5.4692,5.4692,0,0,0,1.41-.1651,5.9016,5.9016,0,0,0,1.1054-.4043,4.9628,4.9628,0,0,0,.8584-.5273q.3707-.2886.6768-.5283a6.751,6.751,0,0,1,.5683-.4043.9873.9873,0,0,1,.5284-.1651.7374.7374,0,0,1,.5615.28Zm-4.6534-11.748a4.2876,4.2876,0,0,0-1.914.43,5.092,5.092,0,0,0-1.5508,1.18,7.2168,7.2168,0,0,0-1.1553,1.7656,10.5669,10.5669,0,0,0-.7422,2.1855,31.6332,31.6332,0,0,0,4.0752-.7177,10.1124,10.1124,0,0,0,2.36-.8741,2.2743,2.2743,0,0,0,1.3525-2.1533,1.647,1.647,0,0,0-.5527-1.2041,2.2963,2.2963,0,0,0-.751-.4375A3.21,3.21,0,0,0,110.9355,169.5835Z" transform="translate(-0.2803)"/><path class="d" d="M122.4355,171.9272a10.4193,10.4193,0,0,1,3.02-3.3418,6.1451,6.1451,0,0,1,3.4648-1.13,3.934,3.934,0,0,1,1.8565.4209,3.3674,3.3674,0,0,1,1.3037,1.23,5.2269,5.2269,0,0,1,.6845,1.9873,9.9071,9.9071,0,0,1,0,2.6816l-1.2539,10.6426h-2.92l1.2539-10.6426a5.4013,5.4013,0,0,0-.248-2.9287,1.7943,1.7943,0,0,0-1.7656-.9483,3.4407,3.4407,0,0,0-1.6084.4288,6.1743,6.1743,0,0,0-1.5762,1.2207,10.1408,10.1408,0,0,0-1.41,1.9062,13.4049,13.4049,0,0,0-1.1142,2.4824l-.9571,8.4815h-2.9365l2.0127-16.7315h1.4522a.8753.8753,0,0,1,.99.99Z" transform="translate(-0.2803)"/><path class="d" d="M146.4932,170.3765a1.0561,1.0561,0,0,1-.2637.2881.5717.5717,0,0,1-.33.0908.9258.9258,0,0,1-.5039-.1817c-.1807-.1211-.4014-.2558-.6592-.4043a5.4342,5.4342,0,0,0-.9492-.4121,4.2615,4.2615,0,0,0-1.3525-.1894,4.2058,4.2058,0,0,0-1.3535.206,3.2418,3.2418,0,0,0-1.0479.5694,2.5912,2.5912,0,0,0-.6768.85,2.3108,2.3108,0,0,0-.2392,1.0312,1.5859,1.5859,0,0,0,.5117,1.2373,4.7074,4.7074,0,0,0,1.2871.8008q.7749.3384,1.667.6514a8.5621,8.5621,0,0,1,1.666.792,4.267,4.267,0,0,1,1.2871,1.2207,3.3369,3.3369,0,0,1,.5118,1.9306,5.5617,5.5617,0,0,1-1.7579,4.0674,6.4152,6.4152,0,0,1-2.0459,1.2783,7.1568,7.1568,0,0,1-2.6806.4786,6.6592,6.6592,0,0,1-2.83-.5694,5.8863,5.8863,0,0,1-2.0049-1.46l.7266-1.1221a1.2352,1.2352,0,0,1,.3213-.33.8039.8039,0,0,1,.9814.1162c.1758.1533.3965.3272.66.5195a4.069,4.069,0,0,0,2.5244.751,4.0944,4.0944,0,0,0,1.4609-.248,3.4422,3.4422,0,0,0,1.1055-.66,2.7906,2.7906,0,0,0,.6924-.9648,2.9416,2.9416,0,0,0,.2392-1.18,1.7747,1.7747,0,0,0-.5117-1.3369,4.1892,4.1892,0,0,0-1.2861-.8252q-.7764-.33-1.667-.6182a8.4157,8.4157,0,0,1-1.666-.7431,4.048,4.048,0,0,1-1.2871-1.18,3.279,3.279,0,0,1-.5118-1.93,5.1108,5.1108,0,0,1,.4209-2.0381,5.2689,5.2689,0,0,1,1.2129-1.7412,5.913,5.913,0,0,1,1.9219-1.2119,6.7844,6.7844,0,0,1,2.5488-.4541,6.5469,6.5469,0,0,1,2.6485.5029,6.12,6.12,0,0,1,1.9717,1.3613Z" transform="translate(-0.2803)"/><path class="d" d="M159.2471,180.0122a14.3161,14.3161,0,0,1-1.2793,1.9141,8.859,8.859,0,0,1-1.4522,1.46,6.3285,6.3285,0,0,1-1.6162.9326,4.8221,4.8221,0,0,1-1.7578.33,4.0961,4.0961,0,0,1-1.7978-.3886,3.7406,3.7406,0,0,1-1.378-1.1377,5.5437,5.5437,0,0,1-.8828-1.8487,9.1717,9.1717,0,0,1-.3135-2.5156,11.3568,11.3568,0,0,1,.3711-2.8965,11.78,11.78,0,0,1,2.6973-4.9658,11.0746,11.0746,0,0,1,2.1367-1.8154,10.1378,10.1378,0,0,1,2.5332-1.1875,9.4723,9.4723,0,0,1,2.8379-.4209,12.4051,12.4051,0,0,1,2.0869.1728,8.6886,8.6886,0,0,1,2.0049.6026l-1.9961,16.17h-1.5185a.8925.8925,0,0,1-.7833-.2969,1.2425,1.2425,0,0,1-.206-.7266Zm1.122-10.2637a4.77,4.77,0,0,0-.7177-.1064q-.356-.0249-.7012-.0254a5.766,5.766,0,0,0-1.9141.3223,6.7679,6.7679,0,0,0-1.7324.8994,7.6854,7.6854,0,0,0-1.4687,1.3769,9.0213,9.0213,0,0,0-1.1309,1.7578,9.9585,9.9585,0,0,0-.7334,2.0372,9.2839,9.2839,0,0,0-.2646,2.22q0,3.977,2.541,3.9765a2.8811,2.8811,0,0,0,1.584-.5029,6.1237,6.1237,0,0,0,1.4765-1.4033,11.7856,11.7856,0,0,0,1.2959-2.1279,19.97,19.97,0,0,0,1.0557-2.6983Z" transform="translate(-0.2803)"/><path class="d" d="M181.8359,160.1128l-2.9873,24.3047h-1.5341a.8692.8692,0,0,1-.7754-.2969,1.2823,1.2823,0,0,1-.1983-.7266l.3135-3.5136a13.2035,13.2035,0,0,1-1.3691,1.9629,10.2132,10.2132,0,0,1-1.56,1.5019,6.7671,6.7671,0,0,1-1.6992.9649,4.9706,4.9706,0,0,1-1.79.3388,3.95,3.95,0,0,1-3.333-1.5595,7.376,7.376,0,0,1-1.1885-4.5293,13.2641,13.2641,0,0,1,.2813-2.7061,13.9921,13.9921,0,0,1,.8-2.5908,12.7661,12.7661,0,0,1,1.2539-2.3018,9.5334,9.5334,0,0,1,1.6416-1.84,7.5623,7.5623,0,0,1,1.9551-1.2207,5.5758,5.5758,0,0,1,2.2031-.4453,5.14,5.14,0,0,1,2.252.4863,4.8815,4.8815,0,0,1,1.7246,1.3779l1.1386-9.207Zm-4.2568,11.2363a3.3984,3.3984,0,0,0-1.51-1.2451,4.772,4.772,0,0,0-1.791-.3555,3.8173,3.8173,0,0,0-2.3428.7764,6.8164,6.8164,0,0,0-1.7734,2.0039,10.4914,10.4914,0,0,0-1.1308,2.7481,11.8062,11.8062,0,0,0-.3956,2.9863,5.3141,5.3141,0,0,0,.7012,2.9941,2.278,2.278,0,0,0,2.0049,1.0313,3.0594,3.0594,0,0,0,1.6006-.4942,6.6275,6.6275,0,0,0,1.5586-1.3779,12.1221,12.1221,0,0,0,1.4033-2.0879,16.6044,16.6044,0,0,0,1.13-2.64Z" transform="translate(-0.2803)"/><path class="d" d="M189.458,184.6489a6.5147,6.5147,0,0,1-2.5088-.4707,5.51,5.51,0,0,1-1.9629-1.3613,6.2685,6.2685,0,0,1-1.2871-2.1777,8.6511,8.6511,0,0,1-.4619-2.9375,11.8216,11.8216,0,0,1,.66-3.9766,10.6063,10.6063,0,0,1,1.8144-3.2588,8.709,8.709,0,0,1,2.7149-2.2021,7.1833,7.1833,0,0,1,3.3574-.8086,6.5058,6.5058,0,0,1,2.5078.47,5.5225,5.5225,0,0,1,1.9639,1.3613,6.303,6.303,0,0,1,1.2871,2.1787,8.615,8.615,0,0,1,.4619,2.92,11.7866,11.7866,0,0,1-.66,3.96,10.8188,10.8188,0,0,1-1.8066,3.2676,8.6285,8.6285,0,0,1-2.7149,2.2187A7.1712,7.1712,0,0,1,189.458,184.6489Zm.28-2.2939a3.8321,3.8321,0,0,0,2.1865-.66,5.9184,5.9184,0,0,0,1.6826-1.7568,8.9083,8.9083,0,0,0,1.0811-2.5332,11.7059,11.7059,0,0,0,.3789-3.0029,5.5458,5.5458,0,0,0-.9151-3.4727,3.1513,3.1513,0,0,0-2.6318-1.1641,3.8939,3.8939,0,0,0-2.2031.6524,5.7726,5.7726,0,0,0-1.6748,1.74,8.92,8.92,0,0,0-1.0723,2.5244,11.7069,11.7069,0,0,0-.38,3.003,5.6559,5.6559,0,0,0,.9082,3.49A3.1277,3.1277,0,0,0,189.7383,182.355Z" transform="translate(-0.2803)"/><path class="d" d="M114.6152,207.3022l-8.3818,16.7149H103.791l-4.3222-16.7149h2.3759a.7492.7492,0,0,1,.5274.1817.8778.8778,0,0,1,.2646.43l2.4746,10.7578q.1.627.1651,1.2373t.1152,1.2373q.1817-.6094.3965-1.2207t.4951-1.2539l5.1641-10.7578a1.21,1.21,0,0,1,.3632-.4375.8542.8542,0,0,1,.5284-.1739Z" transform="translate(-0.2803)"/><path class="d" d="M128.2441,220.9312a14.7175,14.7175,0,0,1-1.65,1.4941,10.0673,10.0673,0,0,1-1.6417,1.0312,7.2354,7.2354,0,0,1-1.749.6016,9.6742,9.6742,0,0,1-1.9717.19,6.602,6.602,0,0,1-2.5742-.4785,5.3336,5.3336,0,0,1-1.93-1.3613,6.124,6.124,0,0,1-1.2216-2.1367,8.6279,8.6279,0,0,1-.4288-2.8057,12.2838,12.2838,0,0,1,.2725-2.5654,11.9887,11.9887,0,0,1,.792-2.4336,10.9993,10.9993,0,0,1,1.27-2.1455,8.5346,8.5346,0,0,1,1.7158-1.7071,8.0617,8.0617,0,0,1,2.1289-1.1308,7.4378,7.4378,0,0,1,2.4991-.4121,5.9867,5.9867,0,0,1,2.1943.3633,4.6579,4.6579,0,0,1,1.5186.9238,3.7008,3.7008,0,0,1,.8828,1.2373,3.2826,3.2826,0,0,1,.288,1.2871,4.5265,4.5265,0,0,1-.4453,2.0049,4.1618,4.1618,0,0,1-1.6328,1.6494,12.1859,12.1859,0,0,1-3.2676,1.2793,36.0692,36.0692,0,0,1-5.3457.874q0,.1817-.0087.3545c-.0049.1162-.0079.2344-.0079.3555a5.1619,5.1619,0,0,0,.9649,3.374,3.5677,3.5677,0,0,0,2.9131,1.1631,5.4678,5.4678,0,0,0,1.41-.1651,5.9072,5.9072,0,0,0,1.1055-.4042,4.973,4.973,0,0,0,.8584-.5274q.3706-.2886.6768-.5283a6.7348,6.7348,0,0,1,.5683-.4043.9871.9871,0,0,1,.5283-.165.7373.7373,0,0,1,.5616.28Zm-4.6533-11.7481a4.2873,4.2873,0,0,0-1.914.43,5.0908,5.0908,0,0,0-1.5508,1.18,7.2158,7.2158,0,0,0-1.1553,1.7656,10.56,10.56,0,0,0-.7422,2.1856,31.6481,31.6481,0,0,0,4.0752-.7178,10.1192,10.1192,0,0,0,2.36-.874,2.275,2.275,0,0,0,1.3525-2.1534,1.647,1.647,0,0,0-.5527-1.2041,2.2981,2.2981,0,0,0-.751-.4375A3.21,3.21,0,0,0,123.5908,209.1831Z" transform="translate(-0.2803)"/><path class="d" d="M135.0742,211.9556a14.2229,14.2229,0,0,1,1.4278-2.4336,7.1281,7.1281,0,0,1,1.6084-1.6172,3.9726,3.9726,0,0,1,1.7324-.709,3.3671,3.3671,0,0,1,1.8154.2715L141.13,210.29a3.3739,3.3739,0,0,0-3.7861.6269q-1.6422,1.4839-2.6651,5.3623l-.9238,7.7383h-2.8711l2.0127-16.7315h1.4521a.8829.8829,0,0,1,1.0069.99Z" transform="translate(-0.2803)"/><path class="d" d="M158.29,209.728l-1.749,14.2891h-2.8545l1.7656-14.2891h-7.8046l-1.0225,8.25q-.0836.6768-.1318,1.0889c-.0332.2754-.0586.4951-.0743.66s-.0283.28-.0332.3466-.0087.1153-.0087.1485a1.7231,1.7231,0,0,0,.3964,1.2461,1.4314,1.4314,0,0,0,1.0723.4043,2.16,2.16,0,0,0,.7588-.1241,3.3008,3.3008,0,0,0,.5693-.2724q.2388-.1481.4043-.2725a.5181.5181,0,0,1,.2969-.123.2987.2987,0,0,1,.2061.0654.8068.8068,0,0,1,.1572.2148l.61,1.4024a5.9648,5.9648,0,0,1-1.8232,1.1133,5.6359,5.6359,0,0,1-2.07.4043,3.521,3.521,0,0,1-2.5244-.8741,3.429,3.429,0,0,1-.9571-2.541c0-.0664.002-.1513.0078-.2558s.0166-.2559.0332-.4541.0411-.4561.0743-.7754.082-.7364.1484-1.2539l1.0391-8.3985h-1.8145a.5076.5076,0,0,1-.3965-.165.5932.5932,0,0,1-.1152-.4785l.1318-1.1221,2.541-.33,1.254-5.1972a.9365.9365,0,0,1,.2558-.4043.6289.6289,0,0,1,.4375-.1563h1.5508l-.709,5.7744h10.626Zm1.7-7.6728a1.8777,1.8777,0,0,1-.1738.8008,2.3059,2.3059,0,0,1-.4619.66,2.1552,2.1552,0,0,1-.66.4531,1.86,1.86,0,0,1-.7666.1651,1.7714,1.7714,0,0,1-.7431-.1651,1.9908,1.9908,0,0,1-.6348-.4531,2.3307,2.3307,0,0,1-.4375-.66,1.9473,1.9473,0,0,1-.165-.8008,1.9988,1.9988,0,0,1,.165-.8076,2.2222,2.2222,0,0,1,1.0889-1.1309,1.71,1.71,0,0,1,.7422-.1729,1.8612,1.8612,0,0,1,.7675.1651,2.0508,2.0508,0,0,1,.6514.4531,2.3261,2.3261,0,0,1,.4541.6768A1.9874,1.9874,0,0,1,159.99,202.0552Z" transform="translate(-0.2803)"/><path class="d" d="M173.6016,221.0142a15.0911,15.0911,0,0,1-1.6338,1.5673,7.9049,7.9049,0,0,1-1.5508.9981,6.23,6.23,0,0,1-1.6084.5195,10.1526,10.1526,0,0,1-1.791.1494,6.259,6.259,0,0,1-2.5655-.4951,5.0741,5.0741,0,0,1-1.8642-1.3945,6.1435,6.1435,0,0,1-1.1387-2.1611,9.4294,9.4294,0,0,1-.3877-2.78,12.0089,12.0089,0,0,1,.6348-3.8946,10.9459,10.9459,0,0,1,1.7744-3.3,8.8172,8.8172,0,0,1,2.7139-2.2939,7.086,7.086,0,0,1,3.44-.8574,5.9766,5.9766,0,0,1,2.7881.5859,5.817,5.817,0,0,1,1.9639,1.707l-.9239,1.1055a1.0157,1.0157,0,0,1-.2558.2149.6186.6186,0,0,1-.3213.083.67.67,0,0,1-.4541-.2071,5.9106,5.9106,0,0,0-.586-.4619,4.1881,4.1881,0,0,0-.8994-.4619,3.8838,3.8838,0,0,0-1.3779-.206,4.0208,4.0208,0,0,0-2.1445.6191,6.0434,6.0434,0,0,0-1.7657,1.69,8.6328,8.6328,0,0,0-1.1963,2.541,11.0174,11.0174,0,0,0-.4375,3.1514,6.925,6.925,0,0,0,.2315,1.8565,3.9652,3.9652,0,0,0,.6934,1.4189,3.1787,3.1787,0,0,0,1.13.9082,3.5637,3.5637,0,0,0,1.56.3213,4.5987,4.5987,0,0,0,1.8555-.33,6.2118,6.2118,0,0,0,1.2627-.7178,11.0234,11.0234,0,0,0,.8662-.7177,1.0457,1.0457,0,0,1,.7012-.33.7353.7353,0,0,1,.5615.2812Z" transform="translate(-0.2803)"/><path class="d" d="M186.4063,219.6118a14.3161,14.3161,0,0,1-1.2793,1.9141,8.859,8.859,0,0,1-1.4522,1.46,6.3289,6.3289,0,0,1-1.6162.9327,4.8241,4.8241,0,0,1-1.7578.33,4.0955,4.0955,0,0,1-1.7979-.3886,3.74,3.74,0,0,1-1.3779-1.1377,5.5428,5.5428,0,0,1-.8828-1.8487,9.1717,9.1717,0,0,1-.3135-2.5156,11.3529,11.3529,0,0,1,.3711-2.8965,11.78,11.78,0,0,1,2.6973-4.9658,11.0716,11.0716,0,0,1,2.1367-1.8154,10.14,10.14,0,0,1,2.5332-1.1875,9.4718,9.4718,0,0,1,2.8379-.4209,12.4051,12.4051,0,0,1,2.0869.1728,8.6886,8.6886,0,0,1,2.0049.6026l-1.9961,16.17H187.082a.8922.8922,0,0,1-.7832-.2969,1.2417,1.2417,0,0,1-.206-.7265Zm1.122-10.2637a4.7837,4.7837,0,0,0-.7178-.1064q-.3559-.0249-.7011-.0254a5.7655,5.7655,0,0,0-1.9141.3223,6.7679,6.7679,0,0,0-1.7324.8994,7.692,7.692,0,0,0-1.4688,1.3769,9.0216,9.0216,0,0,0-1.1308,1.7579,9.9554,9.9554,0,0,0-.7334,2.0371,9.2839,9.2839,0,0,0-.2647,2.22q0,3.9771,2.5411,3.9766a2.8809,2.8809,0,0,0,1.5839-.503,6.1222,6.1222,0,0,0,1.4766-1.4033,11.7856,11.7856,0,0,0,1.2959-2.1279,19.9829,19.9829,0,0,0,1.0557-2.6983Z" transform="translate(-0.2803)"/><path class="d" d="M193.0215,224.0171l2.9541-24.3047h2.8877l-2.9541,24.3047Z" transform="translate(-0.2803)"/><line class="e" x1="224.8088" y1="263.9165" x2="224.8088" y2="114.9165"/><polygon class="d" points="233.784 117.542 224.81 102 215.834 117.542 233.784 117.542"/><line class="e" x1="325.8088" y1="37.9165" x2="325.8088" y2="12.9165"/><polygon class="d" points="334.784 15.542 325.81 0 316.834 15.542 334.784 15.542"/><rect class="e" x="198.759" y="349.8164" width="227.439" height="147.1899"/><polygon class="e" points="459.198 497.006 425.759 497.006 425.759 349.816 526.198 349.816 459.198 497.006"/><polygon class="a" points="459.198 497.006 425.759 497.006 425.759 349.816 526.198 349.816 459.198 497.006"/><polygon class="e" points="342.198 758.386 198.759 758.386 198.759 644.196 393.198 644.196 342.198 758.386"/><rect class="e" x="198.759" y="497.0064" width="160.0809" height="147.1899"/><polygon class="e" points="392.309 644.196 359.117 644.196 359.117 497.006 459.309 497.006 392.309 644.196"/><path class="c" d="M311.0856,138.3176l.23-85.7891a2.2236,2.2236,0,0,1,2.3915-2.213c2.8818.2192,7.9194.1457,12.5386.1457,4.583,0,9.5788-.03,12.4723-.3243a2.2235,2.2235,0,0,1,2.4479,2.22l-.2288,89.7033" transform="translate(-0.2803)"/><path class="c" d="M341.286,118.03l-30.357,8.9962a.5516.5516,0,0,1-.3757-.0106l-3.86-1.6722c-.35-.1525-.3484-.6753.0024-1.0331l3.873-3.939a.8844.8844,0,0,1,.3763-.2311l30.3541-8.8058a.5667.5667,0,0,1,.3778.01l3.8614,1.62c.3486.1453.3452.65-.0067.9981l-3.8714,3.8389A.9048.9048,0,0,1,341.286,118.03Z" transform="translate(-0.2803)"/><path class="c" d="M341.286,131.7514l-30.357,8.9962a.5522.5522,0,0,1-.3757-.0106l-3.86-1.6722c-.35-.1525-.3484-.6753.0024-1.0331l3.873-3.939a.8844.8844,0,0,1,.3763-.2311l30.3541-8.8058a.5667.5667,0,0,1,.3778.01l3.8614,1.62c.3486.1453.3452.65-.0067.9981l-3.8714,3.8389A.9048.9048,0,0,1,341.286,131.7514Z" transform="translate(-0.2803)"/><path class="c" d="M341.3185,104.4041l-30.357,8.61a.5534.5534,0,0,1-.3757-.0154l-3.86-1.7212c-.35-.1569-.3484-.68.0024-1.033l3.873-3.89a.87.87,0,0,1,.3763-.2263l30.354-8.42a.5675.5675,0,0,1,.3779.0152l3.8614,1.6693c.3486.15.3452.6544-.0067.9979l-3.8714,3.79A.8909.8909,0,0,1,341.3185,104.4041Z" transform="translate(-0.2803)"/><path class="c" d="M341.351,90.7787l-30.357,8.2244a.5543.5543,0,0,1-.3757-.02l-3.86-1.77c-.35-.1613-.3485-.6841.0024-1.0329l3.873-3.8405a.8556.8556,0,0,1,.3763-.2215l30.354-8.0339a.5684.5684,0,0,1,.3779.02l3.8613,1.7183c.3487.1542.3453.6588-.0066.9978l-3.8715,3.74A.8753.8753,0,0,1,341.351,90.7787Z" transform="translate(-0.2803)"/><path class="c" d="M341.3835,77.1542l-30.357,7.8384a.5557.5557,0,0,1-.3758-.025l-3.86-1.8192c-.35-.1657-.3485-.6884.0024-1.0328l3.8729-3.7911a.8423.8423,0,0,1,.3764-.2168l30.354-7.6479a.57.57,0,0,1,.3779.0247l3.8613,1.7673c.3486.1586.3453.6632-.0066.9978l-3.8715,3.691A.8624.8624,0,0,1,341.3835,77.1542Z" transform="translate(-0.2803)"/><path class="c" d="M341.4159,63.5305,311.059,70.9829a.5571.5571,0,0,1-.3758-.03l-3.86-1.8682c-.35-.17-.3485-.6929.0023-1.0328l3.873-3.7418a.8286.8286,0,0,1,.3763-.2119l30.3541-7.2621a.5709.5709,0,0,1,.3779.03l3.8613,1.8163c.3486.163.3453.6676-.0067.9976L341.79,63.3216A.8489.8489,0,0,1,341.4159,63.5305Z" transform="translate(-0.2803)"/><path class="c" d="M379.392,148.223V126.2921c0-14.0663-24.2934-25.4693-54.2607-25.4693s-54.2607,11.403-54.2607,25.4693V148.223" transform="translate(-0.2803)"/><ellipse class="c" cx="324.851" cy="147.301" rx="54.2607" ry="25.4693"/><path class="c" d="M368.1656,177.88V158.459c0-11.1561-19.2671-20.2-43.0343-20.2s-43.0344,9.0437-43.0344,20.2V177.88" transform="translate(-0.2803)"/><ellipse class="c" cx="324.851" cy="177.917" rx="54.2607" ry="25.4693"/><polyline class="c" points="379.112 177.439 379.112 274.734 270.59 274.734 270.59 177.439"/><rect class="c" x="300.8399" y="207.3758" width="49.8301" height="134.7162" rx="7.5" transform="translate(600.2085 -51.0211) rotate(90)"/><path class="c" d="M305.5891,280.4164a10.1961,10.1961,0,0,1-2.2055-5.3611c0-5.7995,10.016-10.5008,22.3713-10.5008s22.3714,4.7013,22.3714,10.5008c0,2.1691-1.4012,4.1846-3.8019,5.858" transform="translate(-0.2803)"/><polyline class="c" points="340.885 272.187 340.656 348.131 310.805 349.416 311.035 273.416"/><path class="c" d="M341.286,333.1021l-30.357,8.9962a.5522.5522,0,0,1-.3757-.0106l-3.86-1.6722c-.35-.1525-.3484-.6753.0024-1.0331l3.873-3.939a.8834.8834,0,0,1,.3763-.2311l30.3541-8.8058a.5667.5667,0,0,1,.3778.01l3.8614,1.62c.3486.1453.3452.65-.0067.9981l-3.8714,3.8389A.9058.9058,0,0,1,341.286,333.1021Z" transform="translate(-0.2803)"/><path class="c" d="M341.286,338.8232l-30.357,7.9962a.5522.5522,0,0,1-.3757-.0106l-3.86-1.6722c-.35-.1525-.3484-.6753.0024-1.0331l3.873-2.939a.8846.8846,0,0,1,.3763-.2312l30.3541-.8057a.5667.5667,0,0,1,.3778.01l3.8614,1.62c.3486.1453.3452.65-.0067.9981l-3.8714,3.8389C341.5512,346.7036,341.42,338.7834,341.286,338.8232Z" transform="translate(-0.2803)"/><path class="c" d="M341.3185,319.4759l-30.357,8.61a.5534.5534,0,0,1-.3757-.0154l-3.86-1.7212c-.35-.1569-.3484-.68.0024-1.033l3.873-3.89a.87.87,0,0,1,.3763-.2263l30.354-8.42a.5675.5675,0,0,1,.3779.0152l3.8614,1.6693c.3486.15.3452.6544-.0067.9979l-3.8714,3.79A.8909.8909,0,0,1,341.3185,319.4759Z" transform="translate(-0.2803)"/><path class="c" d="M341.351,305.8505l-30.357,8.2244a.5543.5543,0,0,1-.3757-.02l-3.86-1.77c-.35-.1613-.3485-.6841.0024-1.033l3.873-3.84a.8556.8556,0,0,1,.3763-.2215l30.354-8.0339a.5684.5684,0,0,1,.3779.02l3.8613,1.7183c.3487.1541.3453.6588-.0066.9978l-3.8715,3.74A.8753.8753,0,0,1,341.351,305.8505Z" transform="translate(-0.2803)"/><path class="c" d="M341.3835,292.226l-30.357,7.8384a.5563.5563,0,0,1-.3758-.025l-3.86-1.8192c-.35-.1657-.3485-.6884.0024-1.0328l3.8729-3.7911a.8423.8423,0,0,1,.3764-.2168l30.354-7.648a.57.57,0,0,1,.3779.0248l3.8613,1.7673c.3486.1586.3453.6632-.0066.9978l-3.8715,3.691A.8624.8624,0,0,1,341.3835,292.226Z" transform="translate(-0.2803)"/><path class="c" d="M341.4159,278.6023l-30.3569,7.4524a.5571.5571,0,0,1-.3758-.03l-3.86-1.8682c-.35-.17-.3485-.6929.0023-1.0328l3.873-3.7418a.83.83,0,0,1,.3763-.212l30.3541-7.262a.5709.5709,0,0,1,.3779.03l3.8613,1.8163c.3486.163.3453.6675-.0067.9976l-3.8714,3.6417A.8489.8489,0,0,1,341.4159,278.6023Z" transform="translate(-0.2803)"/><path class="f" d="M337.5891,266.4164l-26.53,6.6383a.5571.5571,0,0,1-.3758-.03l-3.0941-1.6086" transform="translate(-0.2803)"/><line class="c" x1="382.1014" y1="269.8189" x2="382.1014" y2="348.4165"/><line class="c" x1="269.0958" y1="269.8189" x2="269.0958" y2="348.4165"/><path class="c" d="M292.1422,339.4164h66.3333a5.8333,5.8333,0,0,1,5.8333,5.8333v4.1667a0,0,0,0,1,0,0h-78a0,0,0,0,1,0,0V345.25A5.8333,5.8333,0,0,1,292.1422,339.4164Z"/><path class="c" d="M305.1422,329.4164h40.3333a5.8333,5.8333,0,0,1,5.8333,5.8333v4.1667a0,0,0,0,1,0,0h-52a0,0,0,0,1,0,0V335.25A5.8333,5.8333,0,0,1,305.1422,329.4164Z"/><polygon class="g" points="342.198 758.386 198.759 758.386 198.759 644.196 393.198 644.196 342.198 758.386"/><rect class="g" x="198.759" y="497.0064" width="160.0809" height="147.1899"/><polygon class="g" points="392.309 644.196 359.117 644.196 359.117 497.006 459.309 497.006 392.309 644.196"/><line class="e" x1="168.8088" y1="541.9165" x2="308.8088" y2="541.9165"/><circle class="d" cx="308.8088" cy="541.9165" r="6.7676"/><path class="d" d="M33.6162,388.6753a11.8618,11.8618,0,0,1,3.16.3711,6.1,6.1,0,0,1,2.1855,1.0566,4.1761,4.1761,0,0,1,1.2715,1.666,5.6221,5.6221,0,0,1,.4121,2.1866,6.5674,6.5674,0,0,1-.3066,2.0048,5.967,5.967,0,0,1-.9063,1.7735,6.3558,6.3558,0,0,1-1.5176,1.4355,7.9473,7.9473,0,0,1-2.1367,1.0069,5.8757,5.8757,0,0,1,3.1914,1.666,4.3953,4.3953,0,0,1,1.0645,3.0527,7.4915,7.4915,0,0,1-.586,2.9942,6.6279,6.6279,0,0,1-1.6914,2.3515,7.7084,7.7084,0,0,1-2.6972,1.5342,11.0388,11.0388,0,0,1-3.5879.5449H23.7l2.9043-23.6445Zm-1.8984,21.2021a7.0055,7.0055,0,0,0,2.3105-.3457,4.351,4.351,0,0,0,1.6426-.99,4.1239,4.1239,0,0,0,.98-1.5508,5.9448,5.9448,0,0,0,.33-2.0469,3.1811,3.1811,0,0,0-1.0468-2.499,4.6952,4.6952,0,0,0-3.1934-.9326H28.1045l-1.0234,8.3652Zm-2.3262-18.7763-1.0059,8.2334h3.8106a6.9783,6.9783,0,0,0,2.3359-.3545,4.6451,4.6451,0,0,0,1.666-.99,3.997,3.997,0,0,0,.9981-1.5263,5.5966,5.5966,0,0,0,.33-1.9639,3.1241,3.1241,0,0,0-1.0235-2.5488,4.9,4.9,0,0,0-3.1679-.85Z" transform="translate(-0.2803)"/><path class="d" d="M43.0029,412.32l2.9551-24.3047h2.8867L45.8916,412.32Z" transform="translate(-0.2803)"/><path class="d" d="M56.5674,412.5513a6.5181,6.5181,0,0,1-2.51-.4707,5.5265,5.5265,0,0,1-1.9629-1.3614,6.283,6.283,0,0,1-1.2871-2.1777,8.6513,8.6513,0,0,1-.4609-2.9375,11.8,11.8,0,0,1,.66-3.9766,10.6081,10.6081,0,0,1,1.8145-3.2587,8.6875,8.6875,0,0,1,2.7148-2.2022,7.1837,7.1837,0,0,1,3.3575-.8086,6.5148,6.5148,0,0,1,2.5078.47,5.5265,5.5265,0,0,1,1.9629,1.3614,6.2891,6.2891,0,0,1,1.2871,2.1787,8.5889,8.5889,0,0,1,.4629,2.92,11.7868,11.7868,0,0,1-.66,3.96,10.8615,10.8615,0,0,1-1.8066,3.2675,8.6424,8.6424,0,0,1-2.7149,2.2188A7.1756,7.1756,0,0,1,56.5674,412.5513Zm.2793-2.294a3.8382,3.8382,0,0,0,2.1875-.66,5.9036,5.9036,0,0,0,1.6816-1.7569,8.8817,8.8817,0,0,0,1.0821-2.5332,11.75,11.75,0,0,0,.3789-3.0029,5.5394,5.5394,0,0,0-.9161-3.4727,3.1508,3.1508,0,0,0-2.6308-1.164,3.8943,3.8943,0,0,0-2.2031.6523,5.7878,5.7878,0,0,0-1.6758,1.74,8.9719,8.9719,0,0,0-1.0723,2.5244,11.75,11.75,0,0,0-.3789,3.0029,5.6552,5.6552,0,0,0,.9082,3.49A3.1255,3.1255,0,0,0,56.8467,410.2573Z" transform="translate(-0.2803)"/><path class="d" d="M77.5869,408.2935a12.4588,12.4588,0,0,1-1.2461,1.7578,9.1244,9.1244,0,0,1-1.4023,1.3447,5.8478,5.8478,0,0,1-1.541.8574,4.8442,4.8442,0,0,1-1.6836.2979,4.103,4.103,0,0,1-1.7989-.3887,3.8149,3.8149,0,0,1-1.3867-1.1377,5.4608,5.4608,0,0,1-.8906-1.8486,9.1749,9.1749,0,0,1-.3125-2.5157,11.3074,11.3074,0,0,1,.3711-2.8964A11.7971,11.7971,0,0,1,68.751,401.1a11.6185,11.6185,0,0,1,1.65-2.3018,11.3254,11.3254,0,0,1,2.1445-1.8154,10.1448,10.1448,0,0,1,2.5332-1.1875,9.48,9.48,0,0,1,2.8379-.4209,12.28,12.28,0,0,1,2.08.1729,8.7375,8.7375,0,0,1,1.9961.6025L79.3037,417.979H77.4561a1.0371,1.0371,0,0,1-.4961-.1064.8084.8084,0,0,1-.3047-.2813,1.0144,1.0144,0,0,1-.1407-.4043,1.67,1.67,0,0,1,0-.4619ZM78.94,397.6509a4.7586,4.7586,0,0,0-.7168-.1065c-.2382-.0166-.4707-.0254-.7011-.0254a5.8211,5.8211,0,0,0-1.9317.3223,6.8071,6.8071,0,0,0-1.7324.8994,7.6926,7.6926,0,0,0-1.4688,1.377,9.0676,9.0676,0,0,0-1.1308,1.7578,10.011,10.011,0,0,0-.7324,2.0371,9.234,9.234,0,0,0-.2657,2.22,5.5092,5.5092,0,0,0,.6524,2.9785,2.1363,2.1363,0,0,0,1.9062.9981,2.8822,2.8822,0,0,0,1.5664-.4951,5.97,5.97,0,0,0,1.4688-1.378,11.7232,11.7232,0,0,0,1.2871-2.0957,19.777,19.777,0,0,0,1.0566-2.6474Z" transform="translate(-0.2803)"/><path class="d" d="M99.4678,395.605,97.4541,412.32H96.001a.94.94,0,0,1-1.0723-1.0556l.2481-3.0528a10.2122,10.2122,0,0,1-2.9786,3.2422,6.0992,6.0992,0,0,1-3.4062,1.0977,3.9849,3.9849,0,0,1-1.8652-.4209,3.358,3.358,0,0,1-1.3125-1.23,5.2566,5.2566,0,0,1-.6836-1.9805,9.6257,9.6257,0,0,1,.0156-2.6894L86.2,395.605h2.9219l-1.2539,10.626a5.4656,5.4656,0,0,0,.2382,2.9209,1.79,1.79,0,0,0,1.7735.957,3.4518,3.4518,0,0,0,1.5683-.4121,6.0321,6.0321,0,0,0,1.5508-1.1719,10.0818,10.0818,0,0,0,1.3946-1.84,12.97,12.97,0,0,0,1.1132-2.4l1.0391-8.68Z" transform="translate(-0.2803)"/><path class="d" d="M114.9756,409.2339a14.7082,14.7082,0,0,1-1.65,1.4941,10.11,10.11,0,0,1-1.6406,1.0313,7.2455,7.2455,0,0,1-1.75.6015,9.6648,9.6648,0,0,1-1.9707.1905,6.604,6.604,0,0,1-2.5743-.4785,5.3262,5.3262,0,0,1-1.93-1.3614,6.1251,6.1251,0,0,1-1.2227-2.1367,8.655,8.655,0,0,1-.4277-2.8057,12.2765,12.2765,0,0,1,.2715-2.5654,11.9329,11.9329,0,0,1,.7929-2.4336,10.9985,10.9985,0,0,1,1.27-2.1455,8.51,8.51,0,0,1,1.7168-1.707,8.028,8.028,0,0,1,2.1289-1.1309,7.4314,7.4314,0,0,1,2.498-.4121,5.9956,5.9956,0,0,1,2.1953.3633,4.6623,4.6623,0,0,1,1.5176.9238,3.6739,3.6739,0,0,1,.8828,1.2373,3.2657,3.2657,0,0,1,.2891,1.2871,4.5279,4.5279,0,0,1-.4453,2.0049,4.1675,4.1675,0,0,1-1.6329,1.6494,12.2091,12.2091,0,0,1-3.2675,1.2793,36.108,36.108,0,0,1-5.3457.8741c0,.121-.0039.2392-.01.3544-.0039.1163-.0078.2344-.0078.3555a5.1682,5.1682,0,0,0,.9648,3.374,3.5714,3.5714,0,0,0,2.9141,1.1631,5.4724,5.4724,0,0,0,1.41-.165,5.9378,5.9378,0,0,0,1.1055-.4043,4.959,4.959,0,0,0,.8574-.5274c.2481-.1923.4727-.3691.6778-.5283a6.7741,6.7741,0,0,1,.5683-.4043.9849.9849,0,0,1,.5274-.165.74.74,0,0,1,.5625.28Zm-4.6524-11.7481a4.2815,4.2815,0,0,0-1.914.43,5.0815,5.0815,0,0,0-1.5508,1.18,7.2523,7.2523,0,0,0-1.1563,1.7656,10.56,10.56,0,0,0-.7421,2.1856,31.652,31.652,0,0,0,4.0761-.7178,10.0979,10.0979,0,0,0,2.3594-.874,2.2735,2.2735,0,0,0,1.3535-2.1533,1.6567,1.6567,0,0,0-.5527-1.2041,2.3,2.3,0,0,0-.752-.4375A3.2018,3.2018,0,0,0,110.3232,397.4858Z" transform="translate(-0.2803)"/><path class="d" d="M141.3916,388.0151,138.4053,412.32H136.87a.87.87,0,0,1-.7754-.2969,1.29,1.29,0,0,1-.1972-.7265l.3125-3.5137a13.13,13.13,0,0,1-1.3692,1.9629,10.1588,10.1588,0,0,1-1.5586,1.502,6.7854,6.7854,0,0,1-1.6992.9648,4.9729,4.9729,0,0,1-1.791.3389,3.9474,3.9474,0,0,1-3.332-1.56,7.3689,7.3689,0,0,1-1.1895-4.5293,13.2655,13.2655,0,0,1,.2813-2.7061,14.0041,14.0041,0,0,1,.8007-2.5908,12.6453,12.6453,0,0,1,1.2539-2.3017,9.53,9.53,0,0,1,1.6407-1.84,7.5786,7.5786,0,0,1,1.955-1.2207,5.58,5.58,0,0,1,2.2032-.4453,5.1369,5.1369,0,0,1,2.2519.4863,4.87,4.87,0,0,1,1.7246,1.378l1.1387-9.2071Zm-4.2559,11.2364a3.4037,3.4037,0,0,0-1.51-1.2452,4.7764,4.7764,0,0,0-1.791-.3554,3.82,3.82,0,0,0-2.3438.7763,6.8282,6.8282,0,0,0-1.7734,2.004,10.5216,10.5216,0,0,0-1.1309,2.748,11.804,11.804,0,0,0-.3945,2.9863,5.3065,5.3065,0,0,0,.7012,2.9942,2.2752,2.2752,0,0,0,2.0039,1.0312,3.0619,3.0619,0,0,0,1.6015-.4941,6.65,6.65,0,0,0,1.5586-1.378,12.1786,12.1786,0,0,0,1.4024-2.0878,16.6938,16.6938,0,0,0,1.1308-2.64Z" transform="translate(-0.2803)"/><path class="d" d="M155.9443,409.2339a14.7,14.7,0,0,1-1.65,1.4941,10.1052,10.1052,0,0,1-1.6406,1.0313,7.244,7.244,0,0,1-1.75.6015,9.6648,9.6648,0,0,1-1.9707.1905,6.6039,6.6039,0,0,1-2.5742-.4785,5.3266,5.3266,0,0,1-1.93-1.3614,6.125,6.125,0,0,1-1.2226-2.1367,8.6549,8.6549,0,0,1-.4278-2.8057,12.2832,12.2832,0,0,1,.2715-2.5654,11.927,11.927,0,0,1,.793-2.4336,10.9981,10.9981,0,0,1,1.2695-2.1455,8.5129,8.5129,0,0,1,1.7168-1.707,8.0311,8.0311,0,0,1,2.1289-1.1309,7.432,7.432,0,0,1,2.4981-.4121,5.996,5.996,0,0,1,2.1953.3633,4.6618,4.6618,0,0,1,1.5175.9238,3.6742,3.6742,0,0,1,.8829,1.2373,3.2672,3.2672,0,0,1,.289,1.2871,4.5265,4.5265,0,0,1-.4453,2.0049,4.1679,4.1679,0,0,1-1.6328,1.6494,12.21,12.21,0,0,1-3.2676,1.2793,36.1058,36.1058,0,0,1-5.3457.8741c0,.121-.0039.2392-.01.3544-.0039.1163-.0078.2344-.0078.3555a5.1676,5.1676,0,0,0,.9649,3.374,3.5711,3.5711,0,0,0,2.914,1.1631,5.4727,5.4727,0,0,0,1.41-.165,5.9431,5.9431,0,0,0,1.1055-.4043,4.9628,4.9628,0,0,0,.8574-.5274c.248-.1923.4726-.3691.6777-.5283a6.7582,6.7582,0,0,1,.5684-.4043.9845.9845,0,0,1,.5273-.165.74.74,0,0,1,.5625.28Zm-4.6523-11.7481a4.2819,4.2819,0,0,0-1.9141.43,5.0815,5.0815,0,0,0-1.5508,1.18,7.252,7.252,0,0,0-1.1562,1.7656,10.56,10.56,0,0,0-.7422,2.1856,31.6572,31.6572,0,0,0,4.0762-.7178,10.1,10.1,0,0,0,2.3594-.874,2.2739,2.2739,0,0,0,1.3535-2.1533,1.6563,1.6563,0,0,0-.5528-1.2041,2.2983,2.2983,0,0,0-.7519-.4375A3.2026,3.2026,0,0,0,151.292,397.4858Z" transform="translate(-0.2803)"/><path class="d" d="M71.9287,447.5142a14.3085,14.3085,0,0,1-1.2793,1.914,8.8127,8.8127,0,0,1-1.4512,1.46,6.35,6.35,0,0,1-1.6171.9326,4.8212,4.8212,0,0,1-1.7579.33,4.0879,4.0879,0,0,1-1.7968-.3887,3.7424,3.7424,0,0,1-1.3789-1.1377,5.5626,5.5626,0,0,1-.8829-1.8486,9.1785,9.1785,0,0,1-.3125-2.5156,11.312,11.312,0,0,1,.3711-2.8965,11.7505,11.7505,0,0,1,2.6973-4.9659,11.0447,11.0447,0,0,1,2.1367-1.8154A10.1448,10.1448,0,0,1,69.19,435.395a9.4707,9.4707,0,0,1,2.8379-.4209,12.3831,12.3831,0,0,1,2.086.1729,8.6952,8.6952,0,0,1,2.0058.6025l-1.9961,16.17H72.6045a.8935.8935,0,0,1-.7832-.2968,1.2492,1.2492,0,0,1-.2051-.7266Zm1.1231-10.2637a4.7859,4.7859,0,0,0-.7188-.1065c-.2363-.0166-.4707-.0253-.7012-.0253a5.7679,5.7679,0,0,0-1.914.3222,6.8038,6.8038,0,0,0-1.7324.8994,7.6926,7.6926,0,0,0-1.4688,1.377,9.068,9.068,0,0,0-1.1309,1.7578,10.017,10.017,0,0,0-.7324,2.0371,9.239,9.239,0,0,0-.2656,2.22q0,3.9771,2.541,3.9766a2.8792,2.8792,0,0,0,1.584-.5029,6.1247,6.1247,0,0,0,1.4766-1.4034,11.7326,11.7326,0,0,0,1.2968-2.1279,19.95,19.95,0,0,0,1.0547-2.6982Z" transform="translate(-0.2803)"/><path class="d" d="M82.6689,439.4292a10.4411,10.4411,0,0,1,3.02-3.3418,6.1476,6.1476,0,0,1,3.4648-1.13,3.9349,3.9349,0,0,1,1.8574.4209,3.3658,3.3658,0,0,1,1.3028,1.2295,5.23,5.23,0,0,1,.6855,1.9873,9.9078,9.9078,0,0,1,0,2.6817l-1.2539,10.6425h-2.92l1.2539-10.6425a5.4212,5.4212,0,0,0-.248-2.9288,1.7961,1.7961,0,0,0-1.7657-.9482,3.4454,3.4454,0,0,0-1.6093.4287,6.1766,6.1766,0,0,0-1.5762,1.2207,10.1854,10.1854,0,0,0-1.41,1.9063,13.4631,13.4631,0,0,0-1.1133,2.4824l-.957,8.4814H78.4619l2.0137-16.7314h1.4512a.8752.8752,0,0,1,.99.99Z" transform="translate(-0.2803)"/><path class="d" d="M108.4756,448.9165a15.0907,15.0907,0,0,1-1.6328,1.5674,7.9587,7.9587,0,0,1-1.5508.998,6.2367,6.2367,0,0,1-1.6094.52,10.1444,10.1444,0,0,1-1.791.1494,6.2591,6.2591,0,0,1-2.5645-.4951,5.0779,5.0779,0,0,1-1.8652-1.3946A6.1762,6.1762,0,0,1,96.3232,448.1a9.4632,9.4632,0,0,1-.3867-2.78,11.9841,11.9841,0,0,1,.6348-3.8945,10.9634,10.9634,0,0,1,1.7734-3.3,8.8328,8.8328,0,0,1,2.7149-2.294,7.086,7.086,0,0,1,3.4394-.8574,5.9793,5.9793,0,0,1,2.7891.586,5.8129,5.8129,0,0,1,1.9629,1.707l-.9239,1.1055a1,1,0,0,1-.2558.2148.6165.6165,0,0,1-.32.083.6724.6724,0,0,1-.4551-.207,5.9079,5.9079,0,0,0-.5859-.4619,4.173,4.173,0,0,0-.8985-.4619,3.8858,3.8858,0,0,0-1.3789-.2061,4.0267,4.0267,0,0,0-2.1445.6191,6.0532,6.0532,0,0,0-1.7656,1.69,8.6291,8.6291,0,0,0-1.1954,2.541,11.0172,11.0172,0,0,0-.4375,3.1513,6.9259,6.9259,0,0,0,.23,1.8565,3.9636,3.9636,0,0,0,.6934,1.4189,3.19,3.19,0,0,0,1.1308.9082,3.5622,3.5622,0,0,0,1.5586.3213,4.5985,4.5985,0,0,0,1.8555-.33,6.2262,6.2262,0,0,0,1.2637-.7178,11.178,11.178,0,0,0,.8652-.7178,1.0481,1.0481,0,0,1,.7012-.33.7385.7385,0,0,1,.5625.2813Z" transform="translate(-0.2803)"/><path class="d" d="M111.0322,451.9194l2.9551-24.3047h2.8867l-2.9531,24.3047Z" transform="translate(-0.2803)"/><path class="d" d="M128.7041,447.5142a14.3085,14.3085,0,0,1-1.2793,1.914,8.8127,8.8127,0,0,1-1.4512,1.46,6.3492,6.3492,0,0,1-1.6172.9326,4.82,4.82,0,0,1-1.7578.33,4.0879,4.0879,0,0,1-1.7968-.3887,3.7424,3.7424,0,0,1-1.3789-1.1377,5.5607,5.5607,0,0,1-.8829-1.8486,9.1785,9.1785,0,0,1-.3125-2.5156,11.312,11.312,0,0,1,.3711-2.8965,11.7505,11.7505,0,0,1,2.6973-4.9659,11.0447,11.0447,0,0,1,2.1367-1.8154,10.1448,10.1448,0,0,1,2.5332-1.1875,9.4707,9.4707,0,0,1,2.8379-.4209,12.381,12.381,0,0,1,2.0859.1729,8.6946,8.6946,0,0,1,2.0059.6025l-1.9961,16.17h-1.52a.8935.8935,0,0,1-.7832-.2968,1.2492,1.2492,0,0,1-.2051-.7266Zm1.123-10.2637a4.7827,4.7827,0,0,0-.7187-.1065c-.2363-.0166-.4707-.0253-.7012-.0253a5.7679,5.7679,0,0,0-1.914.3222,6.8061,6.8061,0,0,0-1.7325.8994,7.6921,7.6921,0,0,0-1.4687,1.377,9.068,9.068,0,0,0-1.1309,1.7578,10.017,10.017,0,0,0-.7324,2.0371,9.239,9.239,0,0,0-.2656,2.22q0,3.9771,2.541,3.9766a2.8792,2.8792,0,0,0,1.584-.5029,6.1226,6.1226,0,0,0,1.4765-1.4034,11.7271,11.7271,0,0,0,1.2969-2.1279,19.95,19.95,0,0,0,1.0547-2.6982Z" transform="translate(-0.2803)"/><path class="d" d="M140.3037,435.2046l-2.2109,17.9521a6.4861,6.4861,0,0,1-.4942,1.8731,5.1469,5.1469,0,0,1-.998,1.51,4.4708,4.4708,0,0,1-1.4942,1.0146,5.6036,5.6036,0,0,1-2.9609.2891,4.3509,4.3509,0,0,1-.8008-.2481l.2969-1.584a.58.58,0,0,1,.123-.2226.3378.3378,0,0,1,.1993-.0908,1.8264,1.8264,0,0,1,.3125-.0079c.1269.0049.2832.0079.4707.0079a2.2562,2.2562,0,0,0,1.7324-.6026,3.5164,3.5164,0,0,0,.7422-1.9385l2.1953-17.9521Zm1.0391-5.2471a1.8757,1.8757,0,0,1-.1719.8008,2.2888,2.2888,0,0,1-.4629.66,2.1843,2.1843,0,0,1-.6523.4531,1.8,1.8,0,0,1-.7578.165,1.7515,1.7515,0,0,1-.75-.165,2.015,2.015,0,0,1-.629-.4531,2.3667,2.3667,0,0,1-.4355-.66,1.9314,1.9314,0,0,1-.166-.8008,1.9833,1.9833,0,0,1,.166-.8076,2.2015,2.2015,0,0,1,.4453-.6689,2.245,2.245,0,0,1,.6348-.462,1.69,1.69,0,0,1,.75-.1728,1.8075,1.8075,0,0,1,.76.165,2.2087,2.2087,0,0,1,.6524.4532,2.1446,2.1446,0,0,1,.4531.6767A2.0768,2.0768,0,0,1,141.3428,429.9575Z" transform="translate(-0.2803)"/><path class="d" d="M155.9443,448.8335a14.69,14.69,0,0,1-1.65,1.4941,10.1052,10.1052,0,0,1-1.6406,1.0313,7.244,7.244,0,0,1-1.75.6015,9.6648,9.6648,0,0,1-1.9707.19,6.6039,6.6039,0,0,1-2.5742-.4785,5.3266,5.3266,0,0,1-1.93-1.3614,6.1241,6.1241,0,0,1-1.2226-2.1367,8.6548,8.6548,0,0,1-.4278-2.8056,12.2834,12.2834,0,0,1,.2715-2.5655,11.927,11.927,0,0,1,.793-2.4336,10.9981,10.9981,0,0,1,1.2695-2.1455,8.5129,8.5129,0,0,1,1.7168-1.707,8.0311,8.0311,0,0,1,2.1289-1.1309,7.432,7.432,0,0,1,2.4981-.4121,5.996,5.996,0,0,1,2.1953.3633,4.6618,4.6618,0,0,1,1.5175.9238,3.6752,3.6752,0,0,1,.8829,1.2373,3.2672,3.2672,0,0,1,.289,1.2871,4.5265,4.5265,0,0,1-.4453,2.0049,4.1679,4.1679,0,0,1-1.6328,1.6494,12.2066,12.2066,0,0,1-3.2676,1.2793,36.1058,36.1058,0,0,1-5.3457.8741c0,.1211-.0039.2392-.01.3545-.0039.1162-.0078.2343-.0078.3554a5.1672,5.1672,0,0,0,.9649,3.374,3.5711,3.5711,0,0,0,2.914,1.1631,5.4727,5.4727,0,0,0,1.41-.165,5.936,5.936,0,0,0,1.1055-.4043,4.9687,4.9687,0,0,0,.8574-.5273c.248-.1924.4726-.3692.6777-.5284a6.7813,6.7813,0,0,1,.5684-.4043.9845.9845,0,0,1,.5273-.165.74.74,0,0,1,.5625.28Zm-4.6523-11.7481a4.2819,4.2819,0,0,0-1.9141.43,5.0815,5.0815,0,0,0-1.5508,1.18,7.252,7.252,0,0,0-1.1562,1.7656,10.56,10.56,0,0,0-.7422,2.1856,31.6572,31.6572,0,0,0,4.0762-.7178,10.1,10.1,0,0,0,2.3594-.874,2.2737,2.2737,0,0,0,1.3535-2.1533,1.6563,1.6563,0,0,0-.5528-1.2041,2.2983,2.2983,0,0,0-.7519-.4375A3.2026,3.2026,0,0,0,151.292,437.0854Z" transform="translate(-0.2803)"/><line class="e" x1="169.0293" y1="402.8188" x2="239.0293" y2="402.8188"/><path class="d" d="M239.31,409.5864a6.7676,6.7676,0,1,0-6.7675-6.7676A6.7681,6.7681,0,0,0,239.31,409.5864Z" transform="translate(-0.2803)"/></svg>