<svg xmlns="http://www.w3.org/2000/svg" viewBox="0 0 663.0535 652.2172"><defs><style>.a,.d{fill:none;stroke-linecap:round;stroke-linejoin:round;stroke-width:3px;}.a{stroke:#606060;}.b{fill:#d91519;opacity:0.5;}.c{fill:#fff;}.d{stroke:#fff;}</style></defs><title>usos</title><polyline class="a" points="293.116 524.357 296.986 552.996 294.857 568.09 290.019 588.214 290.019 603.888 293.116 612.403 290.406 625.948 293.116 639.881 293.116 650.717"/><polyline class="a" points="1.5 482.172 11.949 486.816 17.368 491.461 22.205 492.622 25.108 497.459 37.879 501.91 49.683 512.359 54.521 514.295 60.713 519.906 79.096 524.937 84.128 527.646 84.708 531.904 94.19 540.225 115.863 548.352 134.246 563.058 147.211 566.348 157.66 570.992 163.272 575.636 168.11 576.991 171.012 581.829 183.59 586.086 195.588 596.535 200.232 598.47 206.618 604.082 224.808 609.113 230.032 612.016 230.419 616.273 240.095 624.4 261.767 632.528 279.957 647.234 293.116 650.717"/><polyline class="a" points="657.683 313.627 661.554 342.46 659.232 357.554 654.587 377.485 654.587 393.159 657.683 401.867 654.781 415.412 657.683 429.345 657.683 439.988"/><polyline class="a" points="293.116 650.717 330.656 624.4 392.965 592.858 440.955 568.67 474.432 542.934 491.848 534.806 506.748 527.259 569.251 496.298 618.982 462.435 657.683 439.988"/><polyline class="a" points="191.331 158.628 197.329 162.111 196.749 160.563 195.781 158.434 191.718 149.34 197.523 157.854 198.103 159.789 197.91 152.049 198.684 159.402 201.2 141.599 199.845 157.467 201.006 162.111 204.296 151.855 201.393 163.272 207.005 165.788"/><polyline class="a" points="262.348 122.636 268.54 121.281 264.67 117.024 260.8 114.895 269.701 117.411 270.862 113.154 272.797 120.507 276.087 103.091 277.248 112.767 278.022 118.765 285.762 117.798"/><polyline class="a" points="143.147 217.454 149.146 221.131 148.566 219.389 147.792 217.261 143.728 208.166 149.34 216.874 149.92 218.809 149.92 210.875 150.501 218.228 153.016 200.619 151.662 216.487 152.823 221.131 156.112 210.681 153.403 222.292 159.015 224.614"/><polyline class="a" points="214.165 181.462 220.55 180.301 216.487 176.044 212.617 173.722 221.518 176.431 222.679 171.98 224.614 179.527 228.097 161.918 229.258 171.593 230.032 177.592 237.772 176.624"/><polyline class="a" points="74.839 198.684 81.032 202.361 80.258 200.619 79.483 198.49 75.42 189.396 81.225 198.103 81.806 200.039 81.612 192.105 82.193 199.458 84.902 181.849 83.547 197.716 84.708 202.361 87.998 192.105 85.095 203.522 90.707 205.844"/><polyline class="a" points="145.856 162.692 152.242 161.531 148.372 157.273 144.502 154.951 153.21 157.66 154.564 153.21 156.499 160.757 159.789 143.341 160.95 152.823 161.724 158.821 169.464 158.047"/><polyline class="a" points="306.274 68.067 312.273 71.55 311.692 70.002 310.918 67.873 306.855 58.778 312.466 67.292 313.047 69.421 313.047 61.487 313.627 68.841 316.143 51.231 314.788 67.099 315.949 71.55 319.239 61.294 316.53 72.711 322.142 75.226"/><polyline class="a" points="377.291 32.074 383.677 30.913 379.613 26.462 375.743 24.334 384.645 26.85 385.999 22.592 387.741 30.139 391.224 12.53 392.385 22.205 393.159 28.204 400.899 27.237"/><polyline class="a" points="302.21 142.954 308.403 146.631 307.629 145.082 306.855 142.76 302.791 133.859 308.596 142.373 309.177 144.308 308.983 136.375 309.564 143.921 312.273 126.119 310.918 141.986 312.079 146.631 315.369 136.375 312.466 147.792 318.078 150.114"/><polyline class="a" points="373.228 107.155 379.613 105.8 375.743 101.543 371.873 99.221 380.581 101.93 381.935 97.673 383.871 105.026 387.16 87.611 388.321 97.286 389.095 103.285 396.836 102.317"/><polyline class="a" points="197.136 124.377 203.135 127.86 202.554 126.312 201.78 123.99 197.716 115.089 203.328 123.603 203.909 125.538 203.909 117.604 204.489 125.151 207.005 107.349 205.65 123.216 206.811 127.86 210.101 117.604 207.392 129.021 213.004 131.537"/><polyline class="a" points="268.153 88.385 274.539 87.03 270.475 82.773 266.605 80.645 275.506 83.16 276.861 78.903 278.603 86.256 282.086 68.841 283.247 78.516 284.021 84.515 291.761 83.547"/><polyline class="a" points="340.912 92.448 347.104 95.932 346.33 94.383 345.556 92.255 341.492 83.16 347.298 91.868 347.878 93.803 347.685 85.869 348.265 93.222 350.781 75.613 349.62 91.481 350.781 96.125 353.877 85.676 351.168 97.286 356.78 99.608"/><polyline class="a" points="411.929 56.456 418.315 55.295 414.445 51.038 410.381 48.716 419.282 51.425 420.637 46.974 422.379 54.521 425.862 36.912 427.023 46.587 427.797 52.586 435.537 51.618"/><polyline class="a" points="497.266 221.131 132.698 431.667 155.338 445.793 163.272 449.276 168.11 450.631 171.012 455.468 183.59 459.725 195.588 470.175 200.232 472.303 206.618 477.722 224.808 482.753 230.032 485.655 230.419 489.913 240.095 498.04 242.03 498.814"/><polyline class="a" points="497.266 221.131 522.228 234.096 527.84 238.74 532.484 239.901 535.58 244.739 548.158 249.189 560.156 259.639 564.8 261.574 570.992 267.186 589.375 272.217 594.02 274.732"/><polygon class="b" points="132.698 431.667 135.02 404.769 134.053 388.515 133.279 366.261 134.827 357.941 134.827 356.779 134.053 352.909 132.698 344.589 133.859 315.756 133.472 294.664 171.206 274.345 224.42 243.965 275.313 214.552 311.886 193.459 327.173 184.364 345.556 174.109 402.447 141.212 457.597 109.284 498.04 86.063 498.427 105.22 497.266 133.859 498.62 142.18 499.394 146.243 499.394 147.405 497.653 155.725 498.62 177.979 499.588 194.233 497.266 221.131 132.698 431.667"/><polyline class="a" points="497.266 221.131 499.588 194.233 498.62 177.979 497.653 155.725 499.394 147.405 499.394 146.243 498.62 142.18 497.266 133.859 498.427 105.22 498.04 86.063"/><polygon class="b" points="594.02 274.732 589.375 272.217 570.992 267.186 564.8 261.574 560.156 259.639 548.158 249.189 535.58 244.739 532.484 239.901 527.84 238.74 522.228 234.096 497.266 221.131 132.698 431.667 155.338 445.793 163.272 449.276 168.11 450.631 171.012 455.468 183.59 459.725 195.588 470.175 200.232 472.303 206.618 477.722 224.808 482.753 230.032 485.655 230.419 489.913 240.095 498.04 242.03 498.814 241.768 489.614 241.768 478.794 275.311 479.876 594.02 274.732"/><polygon class="c" points="657.683 296.792 644.525 293.503 626.335 278.796 606.597 267.379 567.896 289.826 518.165 323.69 455.855 354.457 440.762 362.198 423.346 370.131 389.869 396.062 341.879 420.25 279.764 451.792 242.03 478.109 261.767 489.332 279.957 504.039 293.116 507.522 657.683 296.792"/><polyline class="a" points="293.116 524.357 293.116 507.522 330.656 481.205 392.965 449.857 440.955 425.475 474.432 399.738 491.848 391.611 506.748 384.064 569.251 353.296 618.982 319.239 657.683 296.792"/><polyline class="a" points="242.03 478.109 279.764 451.792 341.879 420.25 389.869 396.062 423.346 370.131 440.762 362.198 455.855 354.457 518.165 323.69 567.896 289.826 606.597 267.379"/><polyline class="a" points="242.03 478.109 241.449 481.785 242.61 484.688 241.836 489.139 242.03 494.944 242.03 498.814"/><polyline class="a" points="242.03 478.109 261.767 489.332 279.957 504.039 293.116 507.522"/><polyline class="a" points="242.03 478.109 261.767 489.332 279.957 504.039 293.116 507.522"/><polyline class="a" points="606.597 267.379 626.335 278.796 644.525 293.503 657.683 296.792"/><line class="a" x1="657.6834" y1="313.6274" x2="657.6834" y2="296.7922"/><line class="a" x1="492.6217" y1="534.4192" x2="520.4867" y2="506.5542"/><line class="a" x1="312.0793" y1="536.3543" x2="341.8794" y2="506.5542"/><line class="d" x1="133.472" y1="357.747" x2="147.7916" y2="343.4275"/><line class="a" x1="535.1933" y1="402.2537" x2="564.9934" y2="372.6471"/><line class="a" x1="356.586" y1="581.0546" x2="386.3861" y2="551.2544"/><line class="a" x1="178.1722" y1="581.0546" x2="207.7788" y2="551.2544"/><line class="a" x1="23.5598" y1="378.2588" x2="29.1716" y2="372.6471"/><line class="a" x1="312.0793" y1="581.0546" x2="386.3861" y2="506.5542"/><line class="a" x1="147.7916" y1="566.735" x2="207.7788" y2="506.5542"/><line class="d" x1="133.472" y1="402.2537" x2="148.3721" y2="387.3536"/><line class="a" x1="15.4325" y1="341.6859" x2="29.1716" y2="327.9469"/><polyline class="a" points="288.858 470.175 295.051 473.658 294.47 472.11 293.503 469.981 289.439 460.886 295.244 469.401 295.825 471.336 295.631 463.596 296.405 470.949 298.921 453.146 297.566 469.207 298.727 473.658 302.017 463.402 299.114 474.819 304.726 477.335"/><polyline class="a" points="360.069 434.182 366.261 432.828 362.391 428.571 358.521 426.442 367.422 428.958 368.583 424.701 370.519 432.054 373.808 414.638 374.969 424.314 375.743 430.312 383.484 429.345"/><polyline class="a" points="448.115 395.674 454.114 399.158 453.533 397.61 452.759 395.481 448.696 386.386 454.501 395.094 454.888 397.029 454.888 389.095 455.468 396.448 457.984 378.839 456.629 394.707 457.984 399.351 461.08 388.902 458.371 400.512 463.983 402.834"/><polyline class="a" points="519.132 359.682 525.518 358.521 521.454 354.264 517.584 351.942 526.485 354.651 527.84 350.2 529.582 357.747 533.065 340.138 534.226 349.813 535 355.812 542.74 354.844"/><polyline class="a" points="486.816 345.169 492.815 348.652 492.235 347.104 491.267 344.976 487.203 335.881 493.009 344.395 493.589 346.33 493.396 338.396 494.17 345.943 496.685 328.14 495.331 344.008 496.492 348.652 499.781 338.396 497.072 349.813 502.491 352.329"/><polyline class="a" points="557.834 309.177 564.026 307.822 560.156 303.565 556.286 301.436 565.187 303.952 566.348 299.695 568.283 307.048 571.766 289.632 572.927 299.308 573.508 305.307 581.442 304.339"/><polyline class="a" points="133.472 294.664 171.206 274.345 224.42 243.965 275.313 214.552 311.886 193.459 327.173 184.364 345.556 174.109 402.447 141.212 457.597 109.284 498.04 86.063"/><polyline class="a" points="2.274 218.809 12.53 223.453 18.142 228.097 22.979 229.258 25.882 234.096 38.46 238.547 50.457 248.996 55.295 250.931 61.487 256.543 79.677 261.574 84.902 264.283 85.289 268.54 94.964 276.861 116.637 284.988 121.281 291.761 133.472 294.664"/><polyline class="a" points="366.648 8.273 377.098 12.723 382.709 17.561 387.354 18.722 390.45 23.56 403.028 28.011 415.025 38.266 419.669 40.395 426.055 45.813 444.245 50.844 449.47 53.747 449.857 58.004 459.532 66.131 481.205 74.452 490.493 83.934 498.04 86.063"/><polyline class="a" points="366.648 8.273 334.72 1.5 330.85 18.722 321.948 21.044 312.273 23.366 302.597 31.881 301.243 52.199 283.827 66.131 244.352 81.419 174.302 101.35 165.401 107.736 165.594 125.925 139.277 152.049 22.786 175.27 1.5 218.615 8.466 249.963 32.655 289.826 31.881 300.856 26.849 305.5 17.174 313.821 13.884 328.334 16.981 355.812 25.301 384.258 41.75 413.284 42.33 438.44 29.559 451.018 7.305 462.047 1.5 482.172"/><polyline class="a" points="378.065 63.422 384.258 62.261 380.387 57.811 376.517 55.682 385.419 58.198 386.58 53.941 388.515 61.487 391.804 43.878 393.159 53.554 393.739 59.552 401.48 58.585"/><path class="d" d="M419.2824,204.8762l23.8014-23.8014M279.57,341.3424l20.5118-20.7052m-166.61,27.0475,23.8014-23.8015m297.6143-85.5657,23.8014-23.8014m-166.61,25.9655L335.8807,216.68M169.0774,383.4835l23.8014-23.8014m226.4036-119.2,59.4067-59.4068M276.28,240.4816l22.8339-22.8339M133.472,383.4835l59.4068-59.6"/><polyline class="a" points="132.698 431.667 135.02 404.769 134.053 388.515 133.279 366.261 134.827 357.941 134.827 356.779 134.053 352.909 132.698 344.589 133.859 315.756 133.472 294.664"/></svg>