<svg xmlns="http://www.w3.org/2000/svg" viewBox="0 0 733.8027 529.5857"><defs><style>.a,.g{fill:#d91519;}.a{opacity:0.62;}.b,.e,.h,.i{fill:#fff;}.b,.c,.d,.h{stroke:#d91519;}.b{stroke-miterlimit:10;}.b,.c,.d,.h,.q{stroke-width:2px;}.c,.d,.q{fill:none;}.c,.d,.h,.q{stroke-linecap:round;stroke-linejoin:round;}.c,.k,.p{opacity:0.3;}.f,.j{opacity:0.5;}.i{opacity:0.68;}.j,.k,.m,.n{fill:#00a3a5;}.l{opacity:0.8;}.n{opacity:0.7;}.o{fill:#606060;}.q{stroke:#606060;}</style></defs><title>1_2</title><polygon class="a" points="144.553 173.195 272.761 95.393 497.4 224.697 364.808 303.595 144.553 173.195"/><path class="b" d="M292.664,1.1544,109.38,106.8777v68.7207L368.4809,325.2031,551.34,219.62l.0631-69.2584Zm101.4309,277.762L373.298,291.602a3.395,3.395,0,0,1-3.4815.0327L225.6091,207.36a3.3953,3.3953,0,0,1-.0547-5.83l20.7969-12.6857a3.3952,3.3952,0,0,1,3.4816-.0326L394.04,273.0864A3.3953,3.3953,0,0,1,394.0949,278.9164ZM436.89,253.9525l-20.7969,12.6856a3.395,3.395,0,0,1-3.4815.0326l-144.2074-84.275a3.3953,3.3953,0,0,1-.0547-5.83L289.1467,163.88a3.3954,3.3954,0,0,1,3.4816-.0327l144.2073,84.2751A3.3954,3.3954,0,0,1,436.89,253.9525Zm41.0122-24.9639-20.7969,12.6856a3.3953,3.3953,0,0,1-3.4815.0326L309.4167,157.4317a3.3952,3.3952,0,0,1-.0548-5.83l20.7969-12.6857a3.3958,3.3958,0,0,1,3.4817-.0326l144.2073,84.2751A3.3954,3.3954,0,0,1,477.9025,228.9886Z" transform="translate(-1.2744)"/><polyline class="c" points="108.391 175.386 291.39 67.998 291.008 67.938 549.818 217.374"/><polygon class="d" points="550.066 219.62 367.207 325.203 108.106 175.598 108.106 106.878 291.39 1.154 550.129 150.362 550.066 219.62"/><path class="e" d="M349.8106,109.6768,300.0991,81.1474a6.14,6.14,0,0,0-6.1268.008l-41.4541,23.9357a6.14,6.14,0,0,0,.014,10.6433l49.7115,28.5294a6.14,6.14,0,0,0,6.1268-.0081L349.8246,120.32A6.14,6.14,0,0,0,349.8106,109.6768Z" transform="translate(-1.2744)"/><g class="f"><path class="g" d="M349.8106,109.6768,300.0991,81.1474a6.14,6.14,0,0,0-6.1268.008l-41.4541,23.9357a6.14,6.14,0,0,0,.014,10.6433l49.7115,28.5294a6.14,6.14,0,0,0,6.1268-.0081L349.8246,120.32A6.14,6.14,0,0,0,349.8106,109.6768Z" transform="translate(-1.2744)"/></g><path class="g" d="M297.0427,82.3327a4.145,4.145,0,0,1,2.0608.5493l49.7117,28.5294a4.1407,4.1407,0,0,1,.01,7.1767L307.37,142.5238a4.1406,4.1406,0,0,1-4.1311.0054L253.5276,114a4.14,4.14,0,0,1-.01-7.1766l41.4543-23.9357a4.1466,4.1466,0,0,1,2.07-.5547m0-2a6.1362,6.1362,0,0,0-3.07.8227l-41.4543,23.9357a6.14,6.14,0,0,0,.0141,10.6433l49.7115,28.5294a6.14,6.14,0,0,0,6.1267-.0081L349.8247,120.32a6.14,6.14,0,0,0-.0142-10.6433L300.0991,81.1474a6.1362,6.1362,0,0,0-3.0564-.8147Z" transform="translate(-1.2744)"/><path class="e" d="M291.7333,142.5507l-49.7115-28.5294a6.14,6.14,0,0,0-6.1268.0081L194.4408,137.965a6.14,6.14,0,0,0,.014,10.6433l49.7116,28.5294a6.14,6.14,0,0,0,6.1268-.008l41.4541-23.9356A6.14,6.14,0,0,0,291.7333,142.5507Z" transform="translate(-1.2744)"/><g class="f"><path class="g" d="M291.7333,142.5507l-49.7115-28.5294a6.14,6.14,0,0,0-6.1268.0081L194.4408,137.965a6.14,6.14,0,0,0,.014,10.6433l49.7116,28.5294a6.14,6.14,0,0,0,6.1268-.008l41.4541-23.9356A6.14,6.14,0,0,0,291.7333,142.5507Z" transform="translate(-1.2744)"/></g><path class="g" d="M238.9656,115.2066a4.1458,4.1458,0,0,1,2.0605.5493l49.7117,28.53a4.14,4.14,0,0,1,.01,7.1766l-41.4541,23.9357a4.14,4.14,0,0,1-4.1313.0054L195.45,146.8737a4.14,4.14,0,0,1-.01-7.1767l41.4541-23.9356a4.147,4.147,0,0,1,2.0706-.5548m0-2a6.1369,6.1369,0,0,0-3.07.8228L194.4409,137.965a6.14,6.14,0,0,0,.0139,10.6433l49.7115,28.5294a6.14,6.14,0,0,0,6.1269-.008l41.4541-23.9357a6.14,6.14,0,0,0-.0139-10.6433l-49.7117-28.5294a6.1362,6.1362,0,0,0-3.0564-.8147Z" transform="translate(-1.2744)"/><path class="e" d="M234.7518,177.6163,185.04,149.0869a6.14,6.14,0,0,0-6.1268.008l-41.4542,23.9357a6.14,6.14,0,0,0,.014,10.6433l49.7115,28.5294a6.14,6.14,0,0,0,6.1268-.0081L234.7658,188.26A6.14,6.14,0,0,0,234.7518,177.6163Z" transform="translate(-1.2744)"/><g class="f"><path class="g" d="M234.7518,177.6163,185.04,149.0869a6.14,6.14,0,0,0-6.1268.008l-41.4542,23.9357a6.14,6.14,0,0,0,.014,10.6433l49.7115,28.5294a6.14,6.14,0,0,0,6.1268-.0081L234.7658,188.26A6.14,6.14,0,0,0,234.7518,177.6163Z" transform="translate(-1.2744)"/></g><path class="g" d="M181.9839,150.2721a4.1457,4.1457,0,0,1,2.0608.5494l49.7116,28.5294a4.14,4.14,0,0,1,.01,7.1767l-41.4541,23.9356a4.1408,4.1408,0,0,1-4.1314.0055l-49.7114-28.53a4.14,4.14,0,0,1-.01-7.1766l41.4546-23.9357a4.1451,4.1451,0,0,1,2.07-.5548m0-2a6.1353,6.1353,0,0,0-3.07.8228l-41.4544,23.9357a6.1405,6.1405,0,0,0,.0142,10.6433l49.7114,28.5294a6.1407,6.1407,0,0,0,6.127-.0081L234.7659,188.26a6.14,6.14,0,0,0-.0142-10.6433L185.04,149.0869a6.1365,6.1365,0,0,0-3.0564-.8148Z" transform="translate(-1.2744)"/><path class="e" d="M412.55,78.9317l-25.0618-14.383a3.0957,3.0957,0,0,0-3.0888.0041L363.5,76.62a3.0957,3.0957,0,0,0,.0071,5.3658L388.569,96.3685a3.0957,3.0957,0,0,0,3.0888-.004l20.8989-12.067A3.0957,3.0957,0,0,0,412.55,78.9317Z" transform="translate(-1.2744)"/><g class="f"><path class="g" d="M412.55,78.9317l-25.0618-14.383a3.0957,3.0957,0,0,0-3.0888.0041L363.5,76.62a3.0957,3.0957,0,0,0,.0071,5.3658L388.569,96.3685a3.0957,3.0957,0,0,0,3.0888-.004l20.8989-12.067A3.0957,3.0957,0,0,0,412.55,78.9317Z" transform="translate(-1.2744)"/></g><path class="g" d="M385.9468,66.138a1.0967,1.0967,0,0,1,.5454.1453l25.062,14.3831a1.0955,1.0955,0,0,1,.0024,1.899L390.6577,94.6325a1.0955,1.0955,0,0,1-1.0932.0014L364.5027,80.251a1.0958,1.0958,0,0,1-.0027-1.8992l20.8989-12.067a1.0976,1.0976,0,0,1,.5479-.1468m0-2a3.0944,3.0944,0,0,0-1.5479.4148L363.5,76.62a3.0957,3.0957,0,0,0,.0071,5.3658l25.0617,14.3829a3.0956,3.0956,0,0,0,3.0889-.004l20.8989-12.0671a3.0955,3.0955,0,0,0-.007-5.3657l-25.0618-14.383a3.094,3.094,0,0,0-1.541-.4107Z" transform="translate(-1.2744)"/><path class="e" d="M377.4283,59.3291l-25.0618-14.383a3.0957,3.0957,0,0,0-3.0888.0041l-20.8989,12.067a3.0957,3.0957,0,0,0,.007,5.3658l25.0618,14.3829a3.0957,3.0957,0,0,0,3.0888-.004l20.8989-12.0671A3.0956,3.0956,0,0,0,377.4283,59.3291Z" transform="translate(-1.2744)"/><g class="f"><path class="g" d="M377.4283,59.3291l-25.0618-14.383a3.0957,3.0957,0,0,0-3.0888.0041l-20.8989,12.067a3.0957,3.0957,0,0,0,.007,5.3658l25.0618,14.3829a3.0957,3.0957,0,0,0,3.0888-.004l20.8989-12.0671A3.0956,3.0956,0,0,0,377.4283,59.3291Z" transform="translate(-1.2744)"/></g><path class="g" d="M350.8254,46.5354a1.0955,1.0955,0,0,1,.5454.1454l25.0621,14.383a1.0955,1.0955,0,0,1,.0024,1.899L355.5364,75.03a1.0957,1.0957,0,0,1-1.0933.0014L329.3813,60.6484a1.0959,1.0959,0,0,1-.0026-1.8992l20.8989-12.067a1.0972,1.0972,0,0,1,.5478-.1468m0-2a3.094,3.094,0,0,0-1.5478.4148l-20.8989,12.067a3.0957,3.0957,0,0,0,.007,5.3658l25.0618,14.3829a3.0956,3.0956,0,0,0,3.0889-.004l20.8989-12.0671a3.0955,3.0955,0,0,0-.0071-5.3657l-25.0617-14.383a3.0943,3.0943,0,0,0-1.5411-.4107Z" transform="translate(-1.2744)"/><path class="e" d="M342.3069,39.7265l-25.0618-14.383a3.0957,3.0957,0,0,0-3.0888.0041l-20.8989,12.067a3.0957,3.0957,0,0,0,.0071,5.3658l25.0618,14.3829a3.0957,3.0957,0,0,0,3.0888-.004L342.314,45.0922A3.0956,3.0956,0,0,0,342.3069,39.7265Z" transform="translate(-1.2744)"/><g class="f"><path class="g" d="M342.3069,39.7265l-25.0618-14.383a3.0957,3.0957,0,0,0-3.0888.0041l-20.8989,12.067a3.0957,3.0957,0,0,0,.0071,5.3658l25.0618,14.3829a3.0957,3.0957,0,0,0,3.0888-.004L342.314,45.0922A3.0956,3.0956,0,0,0,342.3069,39.7265Z" transform="translate(-1.2744)"/></g><path class="g" d="M315.7041,26.9328a1.0964,1.0964,0,0,1,.5454.1453l25.062,14.383a1.0956,1.0956,0,0,1,.0025,1.8991l-20.899,12.067a1.0952,1.0952,0,0,1-1.0932.0015L294.26,41.0458a1.0958,1.0958,0,0,1-.0027-1.8992l20.899-12.067a1.0972,1.0972,0,0,1,.5478-.1468m0-2a3.094,3.094,0,0,0-1.5478.4148l-20.899,12.067a3.0958,3.0958,0,0,0,.0071,5.3658l25.0618,14.3829a3.0954,3.0954,0,0,0,3.0888-.004l20.899-12.0671a3.0955,3.0955,0,0,0-.0071-5.3657l-25.0618-14.383a3.0937,3.0937,0,0,0-1.541-.4107Z" transform="translate(-1.2744)"/><polygon class="d" points="550.066 150.771 367.207 256.354 108.106 106.749 290.965 1.166 550.066 150.771"/><line class="h" x1="367.1344" y1="255.4477" x2="367.1344" y2="324.2972"/><path class="i" d="M385.5073,196.8118c-1.0922-3.2573-3.8228-6.3677-8.1918-8.89-11.65-6.727-30.54-6.727-42.19,0-4.2371,2.4465-6.9332,5.4458-8.0884,8.5958,0,0-.58-18.1429,27.4511-17.9932S385.35,191.8233,385.35,191.8233Z" transform="translate(-1.2744)"/><ellipse class="d" cx="354.9459" cy="195.7186" rx="29.8331" ry="17.2257"/><path class="d" d="M327.0367,196.5172c1.1552-3.15,3.8513-6.1493,8.0884-8.5958,11.6506-6.727,30.54-6.727,42.19,0,4.369,2.5227,7.1,5.6331,8.1918,8.89" transform="translate(-1.2744)"/><ellipse class="d" cx="444.8014" cy="143.1609" rx="29.8331" ry="17.2257"/><path class="d" d="M416.8922,143.96c1.1552-3.15,3.8513-6.1493,8.0884-8.5958,11.6505-6.727,30.54-6.727,42.19,0,4.3689,2.5226,7.1,5.633,8.1918,8.89" transform="translate(-1.2744)"/><polygon class="h" points="384.668 246.121 366.482 256.622 345.583 243.929 363.769 233.428 384.668 246.121"/><ellipse class="g" cx="365.4083" cy="244.6976" rx="4.7056" ry="2.717"/><polygon class="h" points="147.918 108.627 129.732 119.128 108.833 106.435 127.019 95.935 147.918 108.627"/><ellipse class="g" cx="128.6578" cy="107.204" rx="4.7056" ry="2.717"/><polygon class="h" points="312.014 14.462 293.827 24.963 272.929 12.27 291.115 1.77 312.014 14.462"/><ellipse class="g" cx="292.7536" cy="13.039" rx="4.7056" ry="2.717"/><polygon class="h" points="548.902 151.214 530.716 161.714 509.817 149.022 528.003 138.521 548.902 151.214"/><ellipse class="g" cx="529.6422" cy="149.7904" rx="4.7056" ry="2.717"/><path class="j" d="M250.5633,310.3721a17.464,17.464,0,0,1-2.4676-5.8,25.7967,25.7967,0,0,1-.56-7.15,57.9922,57.9922,0,0,1,3.703-16.26c.9927-2.7824,2.1516-5.5718,3.3577-8.3454,1.2233-2.7755,2.5324-5.5389,3.86-8.2858,1.3479-2.7473,2.7252-5.4784,4.0969-8.1936q2.089-4.0727,4.1088-8.0969a170.124,170.124,0,0,0,7.1945-15.8383c1.9279-5.1416,3.2375-10.1835,2.9412-14.49a16.5827,16.5827,0,0,0-.5226-3.2394c-.2223-.812-.64-1.4245-.9188-2.1887-.2155-.5914.5353-2.0256,1.3852-1.7672a.8269.8269,0,0,1,.4048.3475,14.2285,14.2285,0,0,1,2.5366,5.06,20.59,20.59,0,0,1,.321,7.2934,46.2694,46.2694,0,0,1-1.7685,8.1448c-.8385,2.7688-1.8708,5.5578-3.0158,8.3353-1.1307,2.7771-2.3945,5.5454-3.6732,8.2956-1.2855,2.7508-2.6351,5.485-3.96,8.2031-1.3466,2.7178-2.69,5.42-3.9921,8.1062q-1.9833,4.0293-3.8,8.0075-1.8336,3.978-3.3725,7.8835a66.6188,66.6188,0,0,0-4.2654,15.0228,26.0239,26.0239,0,0,0,.8938,12.0769,13.0031,13.0031,0,0,1,.6533,2.3863,7.077,7.077,0,0,1,.08,1.3466c-.01.2533.0427.9295-.2484,1.2214C252.7227,313.2616,250.84,310.7858,250.5633,310.3721Z" transform="translate(-1.2744)"/><path class="k" d="M179.4532,403.515a22.0275,22.0275,0,0,1-3.1327-7.332,32.5185,32.5185,0,0,1-.7134-9.0416c.3142-6.4682,2.1623-13.5441,4.6909-20.57,1.2582-3.52,2.7272-7.05,4.2561-10.56,1.5508-3.512,3.21-7.0087,4.8933-10.4848,1.7087-3.4764,3.4549-6.9326,5.1938-10.3686q2.6486-5.1537,5.2091-10.2462a215.0529,215.0529,0,0,0,9.12-20.0415c2.4437-6.5055,4.1029-12.8839,3.7254-18.3292a20.916,20.916,0,0,0-.6643-4.096c-.2823-1.0265-.8127-1.8-1.1664-2.7665-.2737-.7476.6782-2.5626,1.7565-2.2372a1.0468,1.0468,0,0,1,.5136.439,17.9506,17.9506,0,0,1,3.22,6.3956,25.9574,25.9574,0,0,1,.41,9.2233,58.404,58.404,0,0,1-2.24,10.3032c-1.0626,3.503-2.371,7.0317-3.8225,10.5462-1.4332,3.5138-3.0352,7.0168-4.6563,10.4968-1.63,3.4809-3.34,6.9409-5.0207,10.38-1.7071,3.4393-3.41,6.8588-5.0609,10.258q-2.5143,5.0988-4.8168,10.1328-2.3244,5.0337-4.2751,9.9753a84.1092,84.1092,0,0,0-5.4048,19.0055,32.81,32.81,0,0,0,1.1386,15.2719,16.402,16.402,0,0,1,.83,3.0169,8.934,8.934,0,0,1,.1016,1.7029c-.0125.32.0545,1.1753-.3147,1.545C182.1935,407.1658,179.8038,404.0377,179.4532,403.515Z" transform="translate(-1.2744)"/><path class="k" d="M494.179,343.2848a22.0268,22.0268,0,0,1,3.1326,7.3319,32.515,32.515,0,0,1,.7135,9.0417c-.3142,6.4681-2.1623,13.5441-4.6909,20.57-1.2582,3.52-2.7272,7.05-4.2562,10.5594-1.5507,3.512-3.21,7.0088-4.8932,10.4849-1.7087,3.4764-3.4549,6.9326-5.1939,10.3685q-2.6484,5.1538-5.209,10.2463a215.0151,215.0151,0,0,0-9.12,20.0415c-2.4437,6.5055-4.103,12.8838-3.7254,18.3292a20.9085,20.9085,0,0,0,.6643,4.096c.2823,1.0265.8127,1.8,1.1664,2.7665.2737.7476-.6782,2.5625-1.7565,2.2371a1.0466,1.0466,0,0,1-.5136-.4389,17.9514,17.9514,0,0,1-3.22-6.3956,25.9575,25.9575,0,0,1-.41-9.2233,58.4069,58.4069,0,0,1,2.24-10.3033c1.0626-3.5029,2.371-7.0316,3.8224-10.5461,1.4333-3.5138,3.0353-7.0168,4.6564-10.4968,1.63-3.481,3.3405-6.9409,5.0206-10.38,1.7072-3.4393,3.41-6.8589,5.061-10.258q2.5143-5.0988,4.8168-10.1328,2.3244-5.0337,4.275-9.9753a84.106,84.106,0,0,0,5.4049-19.0055,32.81,32.81,0,0,0-1.1386-15.272,16.3909,16.3909,0,0,1-.83-3.0168,8.9346,8.9346,0,0,1-.1016-1.7029c.0125-.32-.0546-1.1754.3147-1.5451C491.4386,339.6339,493.8284,342.762,494.179,343.2848Z" transform="translate(-1.2744)"/><path class="k" d="M419.2743,379.3505a22.0275,22.0275,0,0,1-3.1327-7.332,32.5185,32.5185,0,0,1-.7134-9.0416c.3142-6.4682,2.1623-13.5441,4.6909-20.57,1.2582-3.52,2.7272-7.05,4.2561-10.5595,1.5508-3.512,3.21-7.0087,4.8933-10.4848,1.7087-3.4764,3.4549-6.9326,5.1938-10.3686q2.6486-5.1537,5.2091-10.2462a215.0529,215.0529,0,0,0,9.12-20.0415c2.4437-6.5055,4.1029-12.8839,3.7254-18.3292a20.916,20.916,0,0,0-.6643-4.096c-.2823-1.0265-.8128-1.8-1.1664-2.7665-.2737-.7476.6782-2.5626,1.7565-2.2372a1.0468,1.0468,0,0,1,.5136.439,17.9506,17.9506,0,0,1,3.22,6.3956,25.9574,25.9574,0,0,1,.41,9.2233,58.404,58.404,0,0,1-2.24,10.3032c-1.0626,3.5029-2.371,7.0317-3.8225,10.5462-1.4332,3.5138-3.0352,7.0168-4.6563,10.4968-1.63,3.4809-3.34,6.9409-5.0207,10.38-1.7071,3.4393-3.41,6.8588-5.0609,10.258q-2.5143,5.0988-4.8168,10.1327-2.3244,5.0339-4.2751,9.9754a84.1092,84.1092,0,0,0-5.4048,19.0055,32.81,32.81,0,0,0,1.1386,15.2719,16.402,16.402,0,0,1,.83,3.0169,8.934,8.934,0,0,1,.1016,1.7029c-.0125.32.0545,1.1753-.3147,1.545C422.0146,383.0013,419.6249,379.8732,419.2743,379.3505Z" transform="translate(-1.2744)"/><path class="k" d="M325.832,304.1409a22.03,22.03,0,0,1-3.1326-7.332,32.5226,32.5226,0,0,1-.7135-9.0417c.3143-6.4681,2.1623-13.544,4.6909-20.57,1.2583-3.52,2.7273-7.05,4.2562-10.56,1.5508-3.512,3.21-7.0087,4.8933-10.4848,1.7087-3.4764,3.4548-6.9326,5.1938-10.3686q2.6485-5.1537,5.209-10.2462a215.0544,215.0544,0,0,0,9.12-20.0415c2.4436-6.5055,4.1029-12.8839,3.7253-18.3292a20.9086,20.9086,0,0,0-.6642-4.096c-.2824-1.0265-.8128-1.8-1.1665-2.7666-.2736-.7475.6783-2.5625,1.7566-2.2371a1.048,1.048,0,0,1,.5136.4389,17.9535,17.9535,0,0,1,3.22,6.3957,25.9551,25.9551,0,0,1,.41,9.2233,58.4124,58.4124,0,0,1-2.24,10.3032c-1.0627,3.5029-2.371,7.0317-3.8225,10.5462-1.4332,3.5138-3.0353,7.0168-4.6563,10.4968-1.63,3.4809-3.3405,6.9409-5.0207,10.38-1.7072,3.4393-3.41,6.8588-5.0609,10.258q-2.5144,5.0988-4.8168,10.1327-2.3244,5.0338-4.2751,9.9754a84.1149,84.1149,0,0,0-5.4049,19.0055,32.8108,32.8108,0,0,0,1.1387,15.2719,16.394,16.394,0,0,1,.83,3.0169,8.9339,8.9339,0,0,1,.1017,1.7029c-.0125.32.0545,1.1753-.3148,1.545C328.5724,307.7917,326.1827,304.6636,325.832,304.1409Z" transform="translate(-1.2744)"/><path class="k" d="M404.8029,213.7537c-1.3377,2.6945-2.6664,5.3768-3.963,8.0465q-2.5143,5.0988-4.8167,10.1328-2.3245,5.0337-4.2751,9.9753a84.1045,84.1045,0,0,0-5.4049,19.0055,32.81,32.81,0,0,0,1.1386,15.2719,16.3941,16.3941,0,0,1,.83,3.0169,8.9346,8.9346,0,0,1,.1016,1.7029c-.0125.32.0546,1.1754-.3147,1.5451-1.03,1.0309-3.42-2.0972-3.77-2.62a22.0268,22.0268,0,0,1-3.1326-7.3319,32.515,32.515,0,0,1-.7135-9.0417c.3142-6.4682,2.1623-13.5441,4.6909-20.57,1.2582-3.52,2.7272-7.05,4.2562-10.5594,1.5507-3.5121,3.21-7.0088,4.8932-10.4849,1.7087-3.4764,3.4549-6.9326,5.1939-10.3685" transform="translate(-1.2744)"/><g class="l"><path class="m" d="M345.7246,408.584a6.7738,6.7738,0,0,1-1.9316-3.31,14.2355,14.2355,0,0,1-.3592-3.87,35.0628,35.0628,0,0,1,1.2574-7.6466,111.6748,111.6748,0,0,1,5.2536-14.5167c4.055-9.4476,8.7-18.5933,13.18-27.7936,2.2681-4.5869,4.4956-9.1892,6.63-13.8281,2.1579-4.6284,4.1753-9.3163,5.9973-14.0708a76.1216,76.1216,0,0,0,4.187-14.62,26.8759,26.8759,0,0,0,.2444-7.5482,15.2164,15.2164,0,0,0-.9937-3.6426,11.55,11.55,0,0,0-2.0732-3.1825,11.6985,11.6985,0,0,1,2.3462,3.0533,15.4355,15.4355,0,0,1,1.2434,3.6837,27.61,27.61,0,0,1,.2051,7.7635,70.5946,70.5946,0,0,1-3.6914,15.0239c-3.3853,9.7425-7.8228,19.0305-12.3008,28.2485-4.5249,9.2-9.2366,18.2908-13.5545,27.5455A128.6432,128.6432,0,0,0,345.627,394.03a34.35,34.35,0,0,0-1.667,7.4046,14.0283,14.0283,0,0,0,.1254,3.7716A6.625,6.625,0,0,0,345.7246,408.584Z" transform="translate(-1.2744)"/></g><g class="l"><path class="m" d="M292.7007,529.5857a6.7721,6.7721,0,0,1-1.9317-3.31,14.2363,14.2363,0,0,1-.3593-3.87,35.0757,35.0757,0,0,1,1.2573-7.6466,111.6762,111.6762,0,0,1,5.2539-14.5167c4.0549-9.4475,8.7-18.5933,13.18-27.7935,2.268-4.5869,4.4953-9.1892,6.63-13.8282,2.158-4.6284,4.1753-9.3162,5.9974-14.0707a76.1145,76.1145,0,0,0,4.1867-14.62,26.8647,26.8647,0,0,0,.2444-7.5482,15.2036,15.2036,0,0,0-.9936-3.6426,11.5414,11.5414,0,0,0-2.0733-3.1825A11.6991,11.6991,0,0,1,326.44,418.61a15.4215,15.4215,0,0,1,1.2431,3.6837,27.6061,27.6061,0,0,1,.2051,7.7635,70.5916,70.5916,0,0,1-3.6914,15.0239c-3.3853,9.7426-7.8225,19.0306-12.3008,28.2486-4.5249,9.2-9.2363,18.2907-13.5542,27.5455a128.7027,128.7027,0,0,0-5.7385,14.157,34.3626,34.3626,0,0,0-1.6668,7.4047,14.0318,14.0318,0,0,0,.1255,3.7715A6.6211,6.6211,0,0,0,292.7007,529.5857Z" transform="translate(-1.2744)"/></g><ellipse class="n" cx="366.6955" cy="411.8044" rx="3.8616" ry="3.9649" transform="translate(-185.5061 388.8325) rotate(-45.9285)"/><ellipse class="m" cx="366.6955" cy="411.8044" rx="1.5447" ry="1.586" transform="translate(-185.5061 388.8325) rotate(-45.9285)"/><ellipse class="n" cx="302.9715" cy="365.9043" rx="2.4598" ry="2.5256" transform="translate(-171.9286 329.0746) rotate(-45.9285)"/><ellipse class="m" cx="302.9715" cy="365.9043" rx="0.9839" ry="1.0102" transform="translate(-171.9286 329.0746) rotate(-45.9285)"/><ellipse class="n" cx="429.3769" cy="417.941" rx="2.4598" ry="2.5256" transform="translate(-170.832 435.7357) rotate(-45.9285)"/><ellipse class="m" cx="429.3769" cy="417.941" rx="0.9839" ry="1.0102" transform="translate(-170.832 435.7357) rotate(-45.9285)"/><ellipse class="n" cx="249.0893" cy="466.3899" rx="2.4598" ry="2.5256" transform="translate(-260.5289 320.9539) rotate(-45.9285)"/><ellipse class="m" cx="249.0893" cy="466.3899" rx="0.9839" ry="1.0102" transform="translate(-260.5289 320.9539) rotate(-45.9285)"/><ellipse class="n" cx="398.7803" cy="247.432" rx="2.4598" ry="2.5256" transform="translate(-57.641 361.8422) rotate(-45.9285)"/><ellipse class="m" cx="398.7803" cy="247.432" rx="0.9839" ry="1.0102" transform="translate(-57.641 361.8422) rotate(-45.9285)"/><ellipse class="n" cx="371.3223" cy="454.6144" rx="3.8616" ry="3.9649" transform="translate(-214.8553 405.1901) rotate(-45.9285)"/><ellipse class="m" cx="371.3223" cy="454.6144" rx="1.5447" ry="1.586" transform="translate(-214.8553 405.1901) rotate(-45.9285)"/><ellipse class="n" cx="359.4795" cy="280.6091" rx="3.8616" ry="3.9649" transform="translate(-93.4427 343.7063) rotate(-45.9285)"/><ellipse class="m" cx="359.4795" cy="280.6091" rx="1.5447" ry="1.586" transform="translate(-93.4427 343.7063) rotate(-45.9285)"/><ellipse class="n" cx="251.3108" cy="404.859" rx="3.8616" ry="3.9649" transform="translate(-215.6443 303.8173) rotate(-45.9285)"/><ellipse class="m" cx="251.3108" cy="404.859" rx="1.5447" ry="1.586" transform="translate(-215.6443 303.8173) rotate(-45.9285)"/><ellipse class="n" cx="253.2225" cy="354.68" rx="2.4598" ry="2.5256" transform="translate(-179.01 289.914) rotate(-45.9285)"/><ellipse class="m" cx="253.2225" cy="354.68" rx="0.9839" ry="1.0102" transform="translate(-179.01 289.914) rotate(-45.9285)"/><ellipse class="n" cx="341.1996" cy="346.0526" rx="3.8616" ry="3.9649" transform="translate(-146.0273 350.4966) rotate(-45.9285)"/><ellipse class="m" cx="341.1996" cy="346.0526" rx="1.5447" ry="1.586" transform="translate(-146.0273 350.4966) rotate(-45.9285)"/><ellipse class="n" cx="302.4553" cy="181.1992" rx="3.8616" ry="3.9649" transform="translate(-39.3801 272.4711) rotate(-45.9285)"/><ellipse class="m" cx="302.4553" cy="181.1992" rx="1.5447" ry="1.586" transform="translate(-39.3801 272.4711) rotate(-45.9285)"/><ellipse class="n" cx="308.7732" cy="229.5168" rx="3.8616" ry="3.9649" transform="translate(-72.1716 291.7204) rotate(-45.9285)"/><ellipse class="m" cx="308.7732" cy="229.5168" rx="1.5447" ry="1.586" transform="translate(-72.1716 291.7204) rotate(-45.9285)"/><ellipse class="n" cx="409.075" cy="294.5652" rx="3.8616" ry="3.9649" transform="translate(-88.3707 383.5882) rotate(-45.9285)"/><ellipse class="m" cx="409.075" cy="294.5652" rx="1.5447" ry="1.586" transform="translate(-88.3707 383.5882) rotate(-45.9285)"/><ellipse class="n" cx="301.6982" cy="326.8433" rx="2.4598" ry="2.5256" transform="translate(-144.2519 316.2678) rotate(-45.9285)"/><ellipse class="m" cx="301.6982" cy="326.8433" rx="0.9839" ry="1.0102" transform="translate(-144.2519 316.2678) rotate(-45.9285)"/><ellipse class="n" cx="348.7992" cy="158.1914" rx="2.4598" ry="2.5256" transform="translate(-8.7405 298.7633) rotate(-45.9285)"/><ellipse class="m" cx="348.7992" cy="158.1914" rx="0.9839" ry="1.0102" transform="translate(-8.7405 298.7633) rotate(-45.9285)"/><ellipse class="n" cx="279.9477" cy="427.9606" rx="2.4598" ry="2.5256" transform="translate(-223.5238 331.4253) rotate(-45.9285)"/><ellipse class="m" cx="279.9477" cy="427.9606" rx="0.9839" ry="1.0102" transform="translate(-223.5238 331.4253) rotate(-45.9285)"/><ellipse class="n" cx="425.3419" cy="199.1257" rx="3.8616" ry="3.9649" transform="translate(-14.8476 366.2194) rotate(-45.9285)"/><ellipse class="m" cx="425.3419" cy="199.1257" rx="1.5447" ry="1.586" transform="translate(-14.8476 366.2194) rotate(-45.9285)"/><path class="o" d="M8.8008,414.0528a7.2747,7.2747,0,0,0,1.5215-.1431,6.9575,6.9575,0,0,0,1.17-.3511,4.3365,4.3365,0,0,0,.8642-.4614q.3574-.2534.6241-.4614t.4482-.3511a.5528.5528,0,0,1,.3252-.1431.3824.3824,0,0,1,.1953.0455.4758.4758,0,0,1,.13.11l.8447,1.0532a8.83,8.83,0,0,1-2.8144,2.0606,8.78,8.78,0,0,1-3.711.7344,7.1909,7.1909,0,0,1-2.997-.5982,6.3483,6.3483,0,0,1-2.2364-1.67,7.4884,7.4884,0,0,1-1.4033-2.5547,10.3851,10.3851,0,0,1-.4873-3.2627,12.5953,12.5953,0,0,1,.7539-4.4463,10.5839,10.5839,0,0,1,2.0733-3.4643,9.2464,9.2464,0,0,1,6.9355-3.0484,8.7581,8.7581,0,0,1,1.794.169,6.22,6.22,0,0,1,1.4687.4941,5.87,5.87,0,0,1,1.2031.78,8.2708,8.2708,0,0,1,1.0069,1.0142l-.8321,1.0136a1.0044,1.0044,0,0,1-.2334.2149.5881.5881,0,0,1-.3252.0845.7286.7286,0,0,1-.4941-.26,4.9592,4.9592,0,0,0-.709-.5654A5.3414,5.3414,0,0,0,12.76,399.48a5.44,5.44,0,0,0-1.84-.26,6.571,6.571,0,0,0-5.0957,2.3335A8.3031,8.3031,0,0,0,4.31,404.2764a10.945,10.945,0,0,0-.5528,3.5879,8.2567,8.2567,0,0,0,.377,2.5874,5.8457,5.8457,0,0,0,1.0469,1.9434,4.5612,4.5612,0,0,0,1.5927,1.2285A4.7493,4.7493,0,0,0,8.8008,414.0528Z" transform="translate(-1.2744)"/><path class="o" d="M21.9053,416.12a5.1224,5.1224,0,0,1-1.9756-.3706,4.3385,4.3385,0,0,1-1.5479-1.0728,4.9492,4.9492,0,0,1-1.0136-1.7158,6.8359,6.8359,0,0,1-.3643-2.314,9.3194,9.3194,0,0,1,.52-3.1328,8.3633,8.3633,0,0,1,1.43-2.5679,6.854,6.854,0,0,1,2.1387-1.7353,5.669,5.669,0,0,1,2.6455-.6367,5.1211,5.1211,0,0,1,1.9756.37,4.3392,4.3392,0,0,1,1.5478,1.0727,4.97,4.97,0,0,1,1.0137,1.7159,6.7952,6.7952,0,0,1,.3642,2.3012,9.2775,9.2775,0,0,1-.5205,3.12,8.52,8.52,0,0,1-1.4228,2.5742,6.8019,6.8019,0,0,1-2.1387,1.7485A5.6639,5.6639,0,0,1,21.9053,416.12Zm.2207-1.8072a3.0191,3.0191,0,0,0,1.7226-.52,4.6657,4.6657,0,0,0,1.3262-1.3842,7.0114,7.0114,0,0,0,.8516-1.9957,9.2238,9.2238,0,0,0,.2988-2.3662,4.3663,4.3663,0,0,0-.7217-2.7363,2.4824,2.4824,0,0,0-2.0732-.9165,3.0676,3.0676,0,0,0-1.7354.5137,4.5364,4.5364,0,0,0-1.3193,1.3711,7.0159,7.0159,0,0,0-.8457,1.9892,9.2233,9.2233,0,0,0-.2988,2.3657,4.4581,4.4581,0,0,0,.7148,2.75A2.4634,2.4634,0,0,0,22.126,414.3125Z" transform="translate(-1.2744)"/><path class="o" d="M33.8125,406.0967a8.2065,8.2065,0,0,1,2.3789-2.6328,4.8408,4.8408,0,0,1,2.73-.89,3.1,3.1,0,0,1,1.4619.331,2.65,2.65,0,0,1,1.0273.9688A4.1265,4.1265,0,0,1,41.95,405.44a7.7823,7.7823,0,0,1,0,2.1128l-.9873,8.3847H38.6611l.9883-8.3847a4.2491,4.2491,0,0,0-.1953-2.3076,1.4131,1.4131,0,0,0-1.3906-.7476,2.7137,2.7137,0,0,0-1.2676.3379,4.8842,4.8842,0,0,0-1.2412.9619,7.9359,7.9359,0,0,0-1.1113,1.5015,10.4637,10.4637,0,0,0-.878,1.9565l-.7539,6.6821H30.4971l1.5859-13.1821h1.1445a.69.69,0,0,1,.78.78Z" transform="translate(-1.2744)"/><path class="o" d="M45.3174,413.4546v-.2016c0-.0821.0068-.2017.02-.3574s.0352-.3594.0654-.6109.0713-.5806.1231-.9883l.8066-6.5908h-1.47a.3717.3717,0,0,1-.292-.1235.4872.4872,0,0,1-.0849-.3833l.1044-.9234,2.0284-.2729.9873-4.0689a.7291.7291,0,0,1,.2021-.3183.4912.4912,0,0,1,.3438-.1236H49.36l-.5586,4.5367H52.26l-.1953,1.6772H48.5938l-.793,6.4741c-.044.3555-.0781.6411-.1045.8579s-.0449.39-.0576.52-.0225.2207-.0264.2729-.0068.0908-.0068.1167a1.3553,1.3553,0,0,0,.3125.9819,1.1114,1.1114,0,0,0,.832.3184,1.6859,1.6859,0,0,0,.6045-.0977,2.8588,2.8588,0,0,0,.4482-.2143q.1949-.1172.3252-.2144a.3925.3925,0,0,1,.2207-.0976.2608.2608,0,0,1,.1758.0517.5073.5073,0,0,1,.11.17l.4941,1.105a4.89,4.89,0,0,1-1.4492.8774,4.4523,4.4523,0,0,1-1.6318.3184,2.7507,2.7507,0,0,1-1.9825-.689A2.7181,2.7181,0,0,1,45.3174,413.4546Z" transform="translate(-1.2744)"/><path class="o" d="M61.6328,412.4664a11.3519,11.3519,0,0,1-1.0078,1.5083,7.027,7.027,0,0,1-1.1436,1.15,4.9807,4.9807,0,0,1-1.2744.7344,3.7929,3.7929,0,0,1-1.3847.26,3.2372,3.2372,0,0,1-1.417-.3057,2.9461,2.9461,0,0,1-1.085-.897,4.3609,4.3609,0,0,1-.6953-1.456,7.2159,7.2159,0,0,1-.2471-1.9824,8.9181,8.9181,0,0,1,.292-2.2818,9.3328,9.3328,0,0,1,.8321-2.0991,9.2317,9.2317,0,0,1,1.2939-1.8135,8.6472,8.6472,0,0,1,1.6836-1.43,7.9939,7.9939,0,0,1,1.9951-.9361,7.4823,7.4823,0,0,1,2.2363-.3315,9.7347,9.7347,0,0,1,1.6446.1367,6.8886,6.8886,0,0,1,1.5791.4741l-1.5733,12.74H62.166a.7056.7056,0,0,1-.6181-.2338.9785.9785,0,0,1-.1622-.5723Zm.8838-8.086a3.775,3.775,0,0,0-.5654-.0845c-.1866-.0126-.3711-.0195-.5528-.0195a4.557,4.557,0,0,0-1.5078.2534,5.4088,5.4088,0,0,0-1.3652.7085,6.0819,6.0819,0,0,0-1.1572,1.086,7.0222,7.0222,0,0,0-.89,1.3842,7.8643,7.8643,0,0,0-.5791,1.6055,7.3407,7.3407,0,0,0-.208,1.7485q0,3.1334,2.002,3.1329a2.2651,2.2651,0,0,0,1.248-.3965,4.86,4.86,0,0,0,1.1641-1.105,9.3411,9.3411,0,0,0,1.02-1.6768,15.8617,15.8617,0,0,0,.832-2.1255Z" transform="translate(-1.2744)"/><path class="o" d="M66.78,415.9375l1.5859-13.1821h1.1445a.6955.6955,0,0,1,.793.78l-.1816,2.34a8.12,8.12,0,0,1,2.1377-2.4633,4.11,4.11,0,0,1,2.4375-.8384,2.2406,2.2406,0,0,1,1.9765.9165,4.5573,4.5573,0,0,1,.6367,2.6191,7.5957,7.5957,0,0,1,2.2041-2.6714,4.4312,4.4312,0,0,1,2.5928-.8642,2.4949,2.4949,0,0,1,2.3926,1.3,6.2559,6.2559,0,0,1,.416,3.6792l-.9883,8.3847H81.64l1.001-8.3847a5.2777,5.2777,0,0,0-.0976-2.3013,1.1878,1.1878,0,0,0-1.2539-.7539,2.4494,2.4494,0,0,0-1.1123.2793,4.0452,4.0452,0,0,0-1.0723.8193,6.5176,6.5176,0,0,0-.9688,1.3389,10.8115,10.8115,0,0,0-.7988,1.8394v.0131l-.8457,7.15H74.2041l.9873-8.3847a5.6507,5.6507,0,0,0-.0518-2.3013,1.13,1.13,0,0,0-1.2216-.7539,2.5038,2.5038,0,0,0-1.2032.312,3.9461,3.9461,0,0,0-1.0918.9033,7.3413,7.3413,0,0,0-.955,1.4429,13.977,13.977,0,0,0-.8067,1.918l-.8183,6.8637Z" transform="translate(-1.2744)"/><path class="o" d="M91.2324,402.7686l-1.5859,13.1689H87.3721l1.5859-13.1689Zm.8838-4.1343a1.4767,1.4767,0,0,1-.1357.6309,1.8437,1.8437,0,0,1-.3643.52,1.7089,1.7089,0,0,1-.5205.3574,1.4736,1.4736,0,0,1-.6045.13,1.4017,1.4017,0,0,1-.5849-.13,1.5736,1.5736,0,0,1-.5-.3574,1.8418,1.8418,0,0,1-.3448-.52,1.5329,1.5329,0,0,1-.13-.6309,1.5751,1.5751,0,0,1,.13-.6367,1.7613,1.7613,0,0,1,.8584-.8906,1.3436,1.3436,0,0,1,.585-.1362,1.4785,1.4785,0,0,1,.6045.13,1.6454,1.6454,0,0,1,.5136.3575,1.8615,1.8615,0,0,1,.3575.5332A1.5607,1.5607,0,0,1,92.1162,398.6343Z" transform="translate(-1.2744)"/><path class="o" d="M96.5371,406.0967a8.2077,8.2077,0,0,1,2.3789-2.6328,4.8408,4.8408,0,0,1,2.7305-.89,3.1,3.1,0,0,1,1.4619.331,2.65,2.65,0,0,1,1.0273.9688,4.1265,4.1265,0,0,1,.5391,1.5664,7.7823,7.7823,0,0,1,0,2.1128l-.9873,8.3847h-2.3018l.9883-8.3847a4.2491,4.2491,0,0,0-.1953-2.3076,1.4131,1.4131,0,0,0-1.3906-.7476,2.7137,2.7137,0,0,0-1.2676.3379,4.8842,4.8842,0,0,0-1.2412.9619,7.9359,7.9359,0,0,0-1.1113,1.5015,10.4637,10.4637,0,0,0-.878,1.9565l-.7539,6.6821H93.2217l1.5859-13.1821h1.1445a.69.69,0,0,1,.78.78Z" transform="translate(-1.2744)"/><path class="o" d="M115.14,412.4664a11.3519,11.3519,0,0,1-1.0078,1.5083,7.0266,7.0266,0,0,1-1.1435,1.15,4.9807,4.9807,0,0,1-1.2744.7344,3.793,3.793,0,0,1-1.3848.26,3.2375,3.2375,0,0,1-1.417-.3057,2.9469,2.9469,0,0,1-1.085-.897,4.3609,4.3609,0,0,1-.6953-1.456,7.216,7.216,0,0,1-.247-1.9824,8.9137,8.9137,0,0,1,.292-2.2818,9.3326,9.3326,0,0,1,.832-2.0991,9.2359,9.2359,0,0,1,1.2939-1.8135,8.6472,8.6472,0,0,1,1.6836-1.43,7.9956,7.9956,0,0,1,1.9951-.9361,7.483,7.483,0,0,1,2.2364-.3315,9.7335,9.7335,0,0,1,1.6445.1367,6.8886,6.8886,0,0,1,1.5791.4741l-1.5732,12.74h-1.1953a.7057.7057,0,0,1-.6182-.2338.9785.9785,0,0,1-.1621-.5723Zm.8838-8.086a3.775,3.775,0,0,0-.5654-.0845c-.1865-.0126-.3711-.0195-.5527-.0195a4.5561,4.5561,0,0,0-1.5078.2534,5.4077,5.4077,0,0,0-1.3653.7085,6.0849,6.0849,0,0,0-1.1572,1.086,7.0172,7.0172,0,0,0-.89,1.3842,7.8584,7.8584,0,0,0-.5791,1.6055,7.3408,7.3408,0,0,0-.2081,1.7485q0,3.1334,2.002,3.1329a2.2651,2.2651,0,0,0,1.248-.3965,4.8566,4.8566,0,0,0,1.1641-1.105,9.3354,9.3354,0,0,0,1.02-1.6768,15.8482,15.8482,0,0,0,.832-2.1255Z" transform="translate(-1.2744)"/><path class="o" d="M123.6025,406.0967a8.2088,8.2088,0,0,1,2.3789-2.6328,4.8408,4.8408,0,0,1,2.7305-.89,3.1,3.1,0,0,1,1.4619.331,2.6511,2.6511,0,0,1,1.0274.9688,4.1282,4.1282,0,0,1,.539,1.5664,7.7823,7.7823,0,0,1,0,2.1128l-.9873,8.3847h-2.3017l.9883-8.3847a4.25,4.25,0,0,0-.1954-2.3076,1.413,1.413,0,0,0-1.3906-.7476,2.7137,2.7137,0,0,0-1.2676.3379,4.8859,4.8859,0,0,0-1.2412.9619,7.9359,7.9359,0,0,0-1.1113,1.5015,10.4635,10.4635,0,0,0-.8779,1.9565l-.7539,6.6821h-2.3145l1.5859-13.1821h1.1446a.69.69,0,0,1,.78.78Z" transform="translate(-1.2744)"/><path class="o" d="M135.1074,413.4546v-.2016c0-.0821.0069-.2017.02-.3574s.0351-.3594.0654-.6109.0713-.5806.123-.9883l.8067-6.5908h-1.47a.3714.3714,0,0,1-.2919-.1235.4868.4868,0,0,1-.085-.3833l.1045-.9234,2.0283-.2729.9873-4.0689a.73.73,0,0,1,.2022-.3183.4909.4909,0,0,1,.3437-.1236h1.209l-.5586,4.5367h3.458l-.1953,1.6772h-3.4707l-.793,6.4741c-.0439.3555-.0781.6411-.1045.8579s-.0449.39-.0576.52-.0224.2207-.0264.2729-.0068.0908-.0068.1167a1.3553,1.3553,0,0,0,.3125.9819,1.1116,1.1116,0,0,0,.832.3184,1.6856,1.6856,0,0,0,.6045-.0977,2.86,2.86,0,0,0,.4483-.2143q.1948-.1172.3252-.2144a.392.392,0,0,1,.2207-.0976.2611.2611,0,0,1,.1758.0517.5088.5088,0,0,1,.11.17l.4941,1.105a4.89,4.89,0,0,1-1.4492.8774,4.4523,4.4523,0,0,1-1.6318.3184,2.75,2.75,0,0,1-1.9824-.689A2.7178,2.7178,0,0,1,135.1074,413.4546Z" transform="translate(-1.2744)"/><path class="o" d="M153.6455,413.5064a11.6727,11.6727,0,0,1-1.3,1.1768,7.9435,7.9435,0,0,1-1.2939.8125,5.6857,5.6857,0,0,1-1.378.4746,7.6915,7.6915,0,0,1-1.5537.1494,5.1914,5.1914,0,0,1-2.0273-.377,4.1943,4.1943,0,0,1-1.5215-1.0727,4.8249,4.8249,0,0,1-.9619-1.6836,6.7886,6.7886,0,0,1-.3379-2.21,9.6524,9.6524,0,0,1,.2148-2.0215,9.4129,9.4129,0,0,1,.6241-1.9175,8.6527,8.6527,0,0,1,1.0009-1.69,6.7357,6.7357,0,0,1,1.3516-1.3457,6.36,6.36,0,0,1,1.6767-.89,5.85,5.85,0,0,1,1.97-.3252,4.7321,4.7321,0,0,1,1.73.2861,3.6759,3.6759,0,0,1,1.1953.728,2.9173,2.9173,0,0,1,.6963.9751,2.5916,2.5916,0,0,1,.2275,1.0137,3.5564,3.5564,0,0,1-.3516,1.58,3.28,3.28,0,0,1-1.2871,1.3,9.6165,9.6165,0,0,1-2.5742,1.0073,28.3473,28.3473,0,0,1-4.2119.689c0,.0952-.0019.1885-.0059.2793s-.0068.1845-.0068.28a4.0675,4.0675,0,0,0,.7608,2.6582,2.808,2.808,0,0,0,2.2939.9165,4.3223,4.3223,0,0,0,1.1123-.13,4.73,4.73,0,0,0,.87-.3184,3.8849,3.8849,0,0,0,.6768-.416q.2914-.2271.5322-.416a5.3438,5.3438,0,0,1,.4492-.3184.7782.7782,0,0,1,.416-.13.578.578,0,0,1,.4414.2212Zm-3.666-9.2559a3.3786,3.3786,0,0,0-1.5078.3379,3.9988,3.9988,0,0,0-1.2217.93,5.6649,5.6649,0,0,0-.91,1.3911,8.2691,8.2691,0,0,0-.5849,1.7222,25.2488,25.2488,0,0,0,3.2109-.5654,7.9886,7.9886,0,0,0,1.8584-.689,1.7922,1.7922,0,0,0,1.0664-1.6963,1.3062,1.3062,0,0,0-.4355-.9492,1.7953,1.7953,0,0,0-.5918-.3442A2.5139,2.5139,0,0,0,149.98,404.2505Z" transform="translate(-1.2744)"/><path class="o" d="M164.2139,404.8746a.83.83,0,0,1-.208.2275.4479.4479,0,0,1-.26.0713.7255.7255,0,0,1-.3965-.1431c-.1435-.0952-.3164-.2012-.52-.3183a4.2167,4.2167,0,0,0-.7471-.3247,3.348,3.348,0,0,0-1.0664-.15,3.3124,3.3124,0,0,0-1.0654.1625,2.5726,2.5726,0,0,0-.8262.4488,2.0167,2.0167,0,0,0-.5322.6694,1.8141,1.8141,0,0,0-.1885.8125,1.25,1.25,0,0,0,.4024.9751,3.705,3.705,0,0,0,1.0146.63q.6108.2666,1.3125.5137a6.7865,6.7865,0,0,1,1.3135.624,3.3576,3.3576,0,0,1,1.0137.9619,2.6284,2.6284,0,0,1,.4033,1.521,4.38,4.38,0,0,1-1.3848,3.2046,5.0615,5.0615,0,0,1-1.6123,1.0073,5.6473,5.6473,0,0,1-2.1123.377,5.2461,5.2461,0,0,1-2.2295-.4488,4.6343,4.6343,0,0,1-1.5791-1.15l.5713-.8838a.98.98,0,0,1,.2539-.26.6339.6339,0,0,1,.7734.0913q.2081.1816.5206.4092a3.2015,3.2015,0,0,0,1.9882.5918,3.21,3.21,0,0,0,1.15-.1953,2.6978,2.6978,0,0,0,.8711-.52,2.1831,2.1831,0,0,0,.5459-.76,2.31,2.31,0,0,0,.1885-.93,1.3965,1.3965,0,0,0-.4023-1.0527,3.2916,3.2916,0,0,0-1.0147-.65q-.6108-.26-1.3125-.4878a6.6456,6.6456,0,0,1-1.3135-.585,3.1969,3.1969,0,0,1-1.0136-.93,2.59,2.59,0,0,1-.4034-1.521,4.0441,4.0441,0,0,1,.3321-1.6054,4.1419,4.1419,0,0,1,.955-1.3711,4.6738,4.6738,0,0,1,1.5147-.9556,5.3512,5.3512,0,0,1,2.0088-.3574,5.1434,5.1434,0,0,1,2.0859.3965,4.8057,4.8057,0,0,1,1.5537,1.0722Z" transform="translate(-1.2744)"/><g class="p"><path class="m" d="M277.2139,354.2974l-.8057,6.63h6.9678l-.26,1.9756h-6.9551l-.9882,8.0341H272.73l2.2871-18.6289H285.625l-.2471,1.9888Z" transform="translate(-1.2744)"/><path class="m" d="M286.0674,370.9375l2.3271-19.1489h2.2744l-2.3261,19.1489Z" transform="translate(-1.2744)"/><path class="m" d="M303.76,357.7686l-1.586,13.1689H301.03a.7416.7416,0,0,1-.8457-.832l.1953-2.4048a8.0338,8.0338,0,0,1-2.3467,2.5542,4.805,4.805,0,0,1-2.6846.8648,3.14,3.14,0,0,1-1.4687-.3316,2.6326,2.6326,0,0,1-1.0332-.9687,4.1154,4.1154,0,0,1-.54-1.56,7.5616,7.5616,0,0,1,.0137-2.1186l.9873-8.3721h2.3018l-.9883,8.3721a4.2893,4.2893,0,0,0,.1885,2.3008,1.4091,1.4091,0,0,0,1.3974.7539,2.7128,2.7128,0,0,0,1.2354-.3247,4.7375,4.7375,0,0,0,1.2217-.9234,7.9024,7.9024,0,0,0,1.0986-1.4492,10.1216,10.1216,0,0,0,.8769-1.8916l.8194-6.8379Z" transform="translate(-1.2744)"/><path class="m" d="M309.6094,357.7686l-1.7422,14.144a5.1069,5.1069,0,0,1-.39,1.4756,4.0558,4.0558,0,0,1-.7861,1.19,3.5206,3.5206,0,0,1-1.1768.7993,4.4095,4.4095,0,0,1-2.3339.2275,3.4387,3.4387,0,0,1-.63-.1948l.2334-1.248a.4481.4481,0,0,1,.0976-.1758.2594.2594,0,0,1,.1563-.0713,1.3858,1.3858,0,0,1,.2471-.0063c.1.0039.2226.0063.37.0063a1.781,1.781,0,0,0,1.3652-.4746,2.7683,2.7683,0,0,0,.585-1.5274l1.7295-14.144Zm.8193-4.1343a1.4774,1.4774,0,0,1-.1367.6309,1.8041,1.8041,0,0,1-.3643.52,1.7332,1.7332,0,0,1-.5127.3574,1.4368,1.4368,0,0,1-.5986.13,1.39,1.39,0,0,1-.5918-.13,1.6039,1.6039,0,0,1-.4932-.3574,1.8247,1.8247,0,0,1-.3447-.52,1.5329,1.5329,0,0,1-.13-.6309,1.5751,1.5751,0,0,1,.13-.6367,1.7309,1.7309,0,0,1,.3506-.5264,1.7928,1.7928,0,0,1,.501-.3642,1.3307,1.3307,0,0,1,.5908-.1362,1.4349,1.4349,0,0,1,.5986.13,1.7528,1.7528,0,0,1,.5137.3575,1.6807,1.6807,0,0,1,.3574.5332A1.6364,1.6364,0,0,1,310.4287,353.6343Z" transform="translate(-1.2744)"/><path class="m" d="M316.4736,371.12a5.1231,5.1231,0,0,1-1.9756-.3706,4.3382,4.3382,0,0,1-1.5478-1.0728,4.9494,4.9494,0,0,1-1.0137-1.7158,6.836,6.836,0,0,1-.3642-2.314,9.3194,9.3194,0,0,1,.5205-3.1328,8.3612,8.3612,0,0,1,1.43-2.5679,6.8547,6.8547,0,0,1,2.1386-1.7353,5.67,5.67,0,0,1,2.6455-.6367,5.12,5.12,0,0,1,1.9756.37,4.3387,4.3387,0,0,1,1.5479,1.0727,4.97,4.97,0,0,1,1.0137,1.7159,6.7976,6.7976,0,0,1,.3642,2.3012,9.2775,9.2775,0,0,1-.5205,3.12,8.5226,8.5226,0,0,1-1.4229,2.5742,6.8027,6.8027,0,0,1-2.1386,1.7485A5.664,5.664,0,0,1,316.4736,371.12Zm.2207-1.8072a3.0194,3.0194,0,0,0,1.7227-.52,4.6669,4.6669,0,0,0,1.3262-1.3842,7.0113,7.0113,0,0,0,.8515-1.9957,9.2238,9.2238,0,0,0,.2989-2.3662,4.3669,4.3669,0,0,0-.7217-2.7363,2.4824,2.4824,0,0,0-2.0733-.9165,3.0673,3.0673,0,0,0-1.7353.5137,4.5367,4.5367,0,0,0-1.3194,1.3711,7.0216,7.0216,0,0,0-.8457,1.9892,9.2233,9.2233,0,0,0-.2988,2.3657,4.4581,4.4581,0,0,0,.7149,2.75A2.4632,2.4632,0,0,0,316.6943,369.3125Z" transform="translate(-1.2744)"/><path class="m" d="M343.7988,351.7886l-2.3525,19.1489h-1.21a.6848.6848,0,0,1-.61-.2338,1.0053,1.0053,0,0,1-.1563-.5723l.2471-2.769a10.4128,10.4128,0,0,1-1.0791,1.5473,8.0276,8.0276,0,0,1-1.2285,1.1826,5.3177,5.3177,0,0,1-1.3389.7608,3.9123,3.9123,0,0,1-1.41.2666,3.1113,3.1113,0,0,1-2.626-1.2285,5.8114,5.8114,0,0,1-.9365-3.5689,10.4666,10.4666,0,0,1,.2207-2.1318,11.1029,11.1029,0,0,1,.6308-2.041,10.0408,10.0408,0,0,1,.9883-1.8135,7.4705,7.4705,0,0,1,1.293-1.4492,5.936,5.936,0,0,1,1.541-.9624,4.3894,4.3894,0,0,1,1.7353-.3506,4.0531,4.0531,0,0,1,1.7745.3833,3.8445,3.8445,0,0,1,1.3583,1.0854l.8975-7.2539Zm-3.3545,8.853a2.6687,2.6687,0,0,0-1.1894-.9814,3.7465,3.7465,0,0,0-1.41-.28,3.01,3.01,0,0,0-1.8457.6113,5.3832,5.3832,0,0,0-1.3974,1.5791,8.27,8.27,0,0,0-.8907,2.1646,9.303,9.303,0,0,0-.3125,2.353,4.1938,4.1938,0,0,0,.5528,2.36,1.7962,1.7962,0,0,0,1.58.8125,2.4054,2.4054,0,0,0,1.2607-.39,5.2194,5.2194,0,0,0,1.2285-1.0855,9.4938,9.4938,0,0,0,1.1045-1.6445,12.9407,12.9407,0,0,0,.8906-2.08Z" transform="translate(-1.2744)"/><path class="m" d="M355.2646,368.5064a11.6639,11.6639,0,0,1-1.3,1.1768,7.9435,7.9435,0,0,1-1.2939.8125,5.6864,5.6864,0,0,1-1.3779.4746,7.6929,7.6929,0,0,1-1.5537.1494,5.1923,5.1923,0,0,1-2.0274-.377A4.1952,4.1952,0,0,1,346.19,369.67a4.8249,4.8249,0,0,1-.9619-1.6836,6.7886,6.7886,0,0,1-.3379-2.21,9.6459,9.6459,0,0,1,.2149-2.0215,9.4127,9.4127,0,0,1,.624-1.9175,8.6531,8.6531,0,0,1,1.001-1.69,6.7326,6.7326,0,0,1,1.3515-1.3457,6.36,6.36,0,0,1,1.6768-.89,5.85,5.85,0,0,1,1.97-.3252,4.7318,4.7318,0,0,1,1.73.2861,3.6748,3.6748,0,0,1,1.1953.728,2.9159,2.9159,0,0,1,.6963.9751,2.59,2.59,0,0,1,.2275,1.0137,3.5563,3.5563,0,0,1-.3515,1.58,3.281,3.281,0,0,1-1.2871,1.3,9.6179,9.6179,0,0,1-2.5742,1.0073,28.3489,28.3489,0,0,1-4.212.689c0,.0952-.0019.1885-.0058.2793s-.0069.1845-.0069.28a4.0681,4.0681,0,0,0,.7608,2.6582,2.8081,2.8081,0,0,0,2.2939.9165,4.3217,4.3217,0,0,0,1.1123-.13,4.7287,4.7287,0,0,0,.87-.3184,3.8877,3.8877,0,0,0,.6767-.416q.2916-.2271.5322-.416a5.3606,5.3606,0,0,1,.4493-.3184.7777.7777,0,0,1,.416-.13.5783.5783,0,0,1,.4414.2212Zm-3.666-9.2559a3.3786,3.3786,0,0,0-1.5078.3379,4,4,0,0,0-1.2217.93,5.6675,5.6675,0,0,0-.91,1.3911,8.2634,8.2634,0,0,0-.585,1.7222,25.2541,25.2541,0,0,0,3.211-.5654,7.99,7.99,0,0,0,1.8584-.689,1.7922,1.7922,0,0,0,1.0664-1.6963,1.3058,1.3058,0,0,0-.4356-.9492,1.7933,1.7933,0,0,0-.5918-.3442A2.5139,2.5139,0,0,0,351.5986,359.2505Z" transform="translate(-1.2744)"/><path class="m" d="M371.5664,367.4664a11.3519,11.3519,0,0,1-1.0078,1.5083,7.027,7.027,0,0,1-1.1436,1.15,4.9807,4.9807,0,0,1-1.2744.7344,3.7929,3.7929,0,0,1-1.3847.26,3.2372,3.2372,0,0,1-1.417-.3057,2.9461,2.9461,0,0,1-1.085-.897,4.3609,4.3609,0,0,1-.6953-1.456,7.2159,7.2159,0,0,1-.2471-1.9824,8.9181,8.9181,0,0,1,.292-2.2818,9.3373,9.3373,0,0,1,.832-2.0991,9.2364,9.2364,0,0,1,1.294-1.8135,8.6443,8.6443,0,0,1,1.6836-1.43,7.9939,7.9939,0,0,1,1.9951-.9361,7.4823,7.4823,0,0,1,2.2363-.3315,9.7347,9.7347,0,0,1,1.6446.1367,6.8886,6.8886,0,0,1,1.5791.4741l-1.5733,12.74H372.1a.7058.7058,0,0,1-.6182-.2338.9785.9785,0,0,1-.1621-.5723Zm.8838-8.086a3.775,3.775,0,0,0-.5654-.0845c-.1866-.0126-.3711-.0195-.5528-.0195a4.557,4.557,0,0,0-1.5078.2534,5.4088,5.4088,0,0,0-1.3652.7085,6.0819,6.0819,0,0,0-1.1572,1.086,7.0222,7.0222,0,0,0-.89,1.3842,7.8643,7.8643,0,0,0-.5791,1.6055,7.3407,7.3407,0,0,0-.208,1.7485q0,3.1334,2.002,3.1329a2.2651,2.2651,0,0,0,1.248-.3965,4.86,4.86,0,0,0,1.1641-1.105,9.3411,9.3411,0,0,0,1.02-1.6768,15.8617,15.8617,0,0,0,.832-2.1255Z" transform="translate(-1.2744)"/><path class="m" d="M380.7051,357.7686l-1.586,13.1689h-2.2744l1.586-13.1689Zm.8838-4.1343a1.4768,1.4768,0,0,1-.1358.6309,1.8454,1.8454,0,0,1-.3642.52,1.7089,1.7089,0,0,1-.5205.3574,1.4739,1.4739,0,0,1-.6045.13,1.4018,1.4018,0,0,1-.585-.13,1.5758,1.5758,0,0,1-.5-.3574,1.8437,1.8437,0,0,1-.3447-.52,1.5329,1.5329,0,0,1-.13-.6309,1.5751,1.5751,0,0,1,.13-.6367,1.76,1.76,0,0,1,.8584-.8906,1.3428,1.3428,0,0,1,.5849-.1362,1.4785,1.4785,0,0,1,.6045.13,1.6458,1.6458,0,0,1,.5137.3575,1.8612,1.8612,0,0,1,.3574.5332A1.5608,1.5608,0,0,1,381.5889,353.6343Z" transform="translate(-1.2744)"/><path class="m" d="M385.9961,361.4346a11.16,11.16,0,0,1,1.124-1.9175,5.6045,5.6045,0,0,1,1.2676-1.2739,3.1393,3.1393,0,0,1,1.3652-.5591,2.6543,2.6543,0,0,1,1.43.2144l-.416,2.2231a2.6591,2.6591,0,0,0-2.9834.4942,8.679,8.679,0,0,0-2.1,4.2246l-.7275,6.0971h-2.2627l1.5859-13.1821h1.1445a.6956.6956,0,0,1,.793.78Z" transform="translate(-1.2744)"/><path class="m" d="M401.9463,368.5064a11.6727,11.6727,0,0,1-1.3,1.1768,7.9443,7.9443,0,0,1-1.294.8125,5.685,5.685,0,0,1-1.3779.4746,7.6922,7.6922,0,0,1-1.5537.1494,5.1914,5.1914,0,0,1-2.0273-.377,4.1943,4.1943,0,0,1-1.5215-1.0727,4.8233,4.8233,0,0,1-.9619-1.6836,6.7886,6.7886,0,0,1-.3379-2.21,9.6524,9.6524,0,0,1,.2148-2.0215,9.4188,9.4188,0,0,1,.624-1.9175,8.6581,8.6581,0,0,1,1.001-1.69,6.7331,6.7331,0,0,1,1.3516-1.3457,6.36,6.36,0,0,1,1.6767-.89,5.85,5.85,0,0,1,1.97-.3252,4.7316,4.7316,0,0,1,1.7294.2861,3.6764,3.6764,0,0,1,1.1954.728,2.9173,2.9173,0,0,1,.6963.9751,2.5916,2.5916,0,0,1,.2275,1.0137,3.5564,3.5564,0,0,1-.3516,1.58,3.281,3.281,0,0,1-1.2871,1.3,9.6165,9.6165,0,0,1-2.5742,1.0073,28.3473,28.3473,0,0,1-4.2119.689c0,.0952-.002.1885-.0059.2793s-.0068.1845-.0068.28a4.0681,4.0681,0,0,0,.7607,2.6582,2.8084,2.8084,0,0,0,2.294.9165,4.3223,4.3223,0,0,0,1.1123-.13,4.73,4.73,0,0,0,.87-.3184,3.8887,3.8887,0,0,0,.6768-.416q.2914-.2271.5322-.416a5.3438,5.3438,0,0,1,.4492-.3184.7779.7779,0,0,1,.416-.13.5782.5782,0,0,1,.4414.2212Zm-3.666-9.2559a3.3783,3.3783,0,0,0-1.5078.3379,3.9988,3.9988,0,0,0-1.2217.93,5.6649,5.6649,0,0,0-.91,1.3911,8.2633,8.2633,0,0,0-.5849,1.7222,25.2521,25.2521,0,0,0,3.2109-.5654,7.9886,7.9886,0,0,0,1.8584-.689,1.7922,1.7922,0,0,0,1.0664-1.6963,1.3062,1.3062,0,0,0-.4355-.9492,1.7953,1.7953,0,0,0-.5918-.3442A2.5139,2.5139,0,0,0,398.28,359.2505Z" transform="translate(-1.2744)"/></g><path class="o" d="M622.4336,276.98a9.3542,9.3542,0,0,1,2.5674.3116,4.9727,4.9727,0,0,1,1.7939.8906,3.552,3.552,0,0,1,1.0528,1.4043,4.72,4.72,0,0,1,.3447,1.84,6.3753,6.3753,0,0,1-.3379,2.1055,5.5637,5.5637,0,0,1-.9746,1.7422,5.9756,5.9756,0,0,1-1.5342,1.3066,6.9289,6.9289,0,0,1-2.0283.8,2.2089,2.2089,0,0,1,.6894.793l4.0166,7.4355h-2.1582a.9137.9137,0,0,1-.9091-.5195l-3.5108-6.708a1.0823,1.0823,0,0,0-.39-.4551,1.4378,1.4378,0,0,0-.7022-.1308h-1.7158l-.9619,7.8134h-2.418l2.2744-18.6289Zm-1.1963,9.0479a5.6128,5.6128,0,0,0,1.95-.3115,3.974,3.974,0,0,0,1.4238-.878,3.6578,3.6578,0,0,0,.8711-1.3388,4.7727,4.7727,0,0,0,.292-1.6963,2.6682,2.6682,0,0,0-.8906-2.1651,4.0763,4.0763,0,0,0-2.6709-.747h-2.4707l-.8838,7.1367Z" transform="translate(-1.2744)"/><path class="o" d="M640.2822,293.1778a11.5315,11.5315,0,0,1-1.3,1.1758,7.8416,7.8416,0,0,1-1.2929.8125,5.7109,5.7109,0,0,1-1.378.4746,7.6627,7.6627,0,0,1-1.5537.1494,5.1784,5.1784,0,0,1-2.0283-.377,4.1919,4.1919,0,0,1-1.5205-1.0722,4.8267,4.8267,0,0,1-.9629-1.6836,6.8177,6.8177,0,0,1-.3379-2.21,9.72,9.72,0,0,1,.2148-2.0215,9.39,9.39,0,0,1,.6241-1.917,8.7214,8.7214,0,0,1,1.0009-1.69,6.7644,6.7644,0,0,1,1.3516-1.3457,6.3669,6.3669,0,0,1,1.6777-.8906,5.8689,5.8689,0,0,1,1.9688-.3242,4.7293,4.7293,0,0,1,1.73.2851,3.6926,3.6926,0,0,1,1.1963.7285,2.94,2.94,0,0,1,.6953.9746,2.5906,2.5906,0,0,1,.2275,1.0147,3.557,3.557,0,0,1-.3515,1.5791,3.2764,3.2764,0,0,1-1.2871,1.3,9.5925,9.5925,0,0,1-2.5733,1.0078,28.3123,28.3123,0,0,1-4.2119.6885c0,.0957-.0029.1885-.0068.28s-.0069.1836-.0069.2793a4.0666,4.0666,0,0,0,.7608,2.6582,2.8092,2.8092,0,0,0,2.2949.917,4.3585,4.3585,0,0,0,1.1113-.13,4.7381,4.7381,0,0,0,.8711-.3194,3.8521,3.8521,0,0,0,.6758-.416c.1953-.1514.3721-.29.5332-.416a5.4427,5.4427,0,0,1,.4482-.3184.7862.7862,0,0,1,.4161-.13.5841.5841,0,0,1,.4423.2207Zm-3.666-9.2559a3.3719,3.3719,0,0,0-1.5078.3379,4.0355,4.0355,0,0,0-1.2217.9287,5.67,5.67,0,0,0-.91,1.3916,8.2759,8.2759,0,0,0-.585,1.7227,25.3956,25.3956,0,0,0,3.2109-.5654,8.02,8.02,0,0,0,1.8594-.6895,1.7944,1.7944,0,0,0,1.0654-1.6963,1.2785,1.2785,0,0,0-.1035-.4873,1.2942,1.2942,0,0,0-.332-.4619,1.8,1.8,0,0,0-.5908-.3447A2.5367,2.5367,0,0,0,636.6162,283.9219Z" transform="translate(-1.2744)"/><path class="o" d="M645.6768,285.7676a8.2118,8.2118,0,0,1,2.3789-2.6328,4.84,4.84,0,0,1,2.73-.8906,3.0857,3.0857,0,0,1,1.4619.332,2.6521,2.6521,0,0,1,1.0274.9678,4.1306,4.1306,0,0,1,.54,1.5674,7.8515,7.8515,0,0,1,0,2.1123l-.9883,8.3847h-2.3007l.9873-8.3847a4.26,4.26,0,0,0-.1944-2.3076,1.4165,1.4165,0,0,0-1.3916-.7481,2.7118,2.7118,0,0,0-1.2675.3389,4.862,4.862,0,0,0-1.2413.9619,7.9748,7.9748,0,0,0-1.1113,1.501,10.5188,10.5188,0,0,0-.8779,1.957l-.7539,6.6816h-2.3135l1.5859-13.1816h1.1436a.6891.6891,0,0,1,.78.7793Z" transform="translate(-1.2744)"/><path class="o" d="M668.791,276.459l-2.3525,19.1494H665.23a.6857.6857,0,0,1-.6113-.2343,1.0067,1.0067,0,0,1-.1563-.5713l.2471-2.7695A10.308,10.308,0,0,1,663.63,293.58a7.9669,7.9669,0,0,1-1.2285,1.1836,5.2981,5.2981,0,0,1-1.3389.76,3.9125,3.9125,0,0,1-1.41.2666,3.11,3.11,0,0,1-2.6259-1.2285,5.8061,5.8061,0,0,1-.9366-3.5684,10.4789,10.4789,0,0,1,.2217-2.1318,11.1008,11.1008,0,0,1,.63-2.041,9.9949,9.9949,0,0,1,.9883-1.8135,7.46,7.46,0,0,1,1.2939-1.4492,5.915,5.915,0,0,1,1.54-.9619,4.3851,4.3851,0,0,1,1.7353-.3516,4.0425,4.0425,0,0,1,1.7744.3838,3.8265,3.8265,0,0,1,1.3584,1.0859l.8975-7.2549Zm-3.3535,8.8535a2.6829,2.6829,0,0,0-1.1895-.9814,3.7538,3.7538,0,0,0-1.4111-.2793,3.0086,3.0086,0,0,0-1.8457.61,5.3984,5.3984,0,0,0-1.3974,1.58,8.2589,8.2589,0,0,0-.8907,2.1641,9.3013,9.3013,0,0,0-.3115,2.3535,4.1936,4.1936,0,0,0,.5518,2.3594,1.7984,1.7984,0,0,0,1.58.8125,2.3973,2.3973,0,0,0,1.2608-.3906,5.194,5.194,0,0,0,1.2285-1.085,9.553,9.553,0,0,0,1.1055-1.6445,13.03,13.03,0,0,0,.89-2.08Z" transform="translate(-1.2744)"/><path class="o" d="M673.8867,282.44l-1.5859,13.1689h-2.2754l1.5859-13.1689Zm.8838-4.1338a1.4552,1.4552,0,0,1-.1367.63,1.8091,1.8091,0,0,1-.3633.52,1.7289,1.7289,0,0,1-.52.3574,1.4706,1.4706,0,0,1-.6045.13,1.3963,1.3963,0,0,1-.585-.13,1.5837,1.5837,0,0,1-.5-.3574,1.8133,1.8133,0,0,1-.3447-.52,1.5249,1.5249,0,0,1-.13-.63,1.5816,1.5816,0,0,1,.13-.6377,1.7432,1.7432,0,0,1,.3506-.5264,1.7612,1.7612,0,0,1,.5068-.3632,1.3365,1.3365,0,0,1,.585-.1368,1.4672,1.4672,0,0,1,.6045.13,1.6421,1.6421,0,0,1,.5137.3575,1.8114,1.8114,0,0,1,.3574.5332A1.5447,1.5447,0,0,1,674.7705,278.3057Z" transform="translate(-1.2744)"/><path class="o" d="M679.8662,282.44l-1.7412,14.1436a5.1315,5.1315,0,0,1-.3906,1.4755,4.0234,4.0234,0,0,1-.7862,1.19,3.5288,3.5288,0,0,1-1.1767.8,4.391,4.391,0,0,1-2.333.2275,3.4266,3.4266,0,0,1-.6309-.1953l.2344-1.248a.45.45,0,0,1,.0967-.1748.2654.2654,0,0,1,.1562-.0723,1.5052,1.5052,0,0,1,.2471-.0059c.1.004.2236.0059.3711.0059a1.782,1.782,0,0,0,1.3642-.4736,2.7652,2.7652,0,0,0,.585-1.5283l1.73-14.1436Zm.8193-4.1338a1.4552,1.4552,0,0,1-.1367.63,1.8091,1.8091,0,0,1-.3633.52,1.7609,1.7609,0,0,1-.5136.3574,1.4308,1.4308,0,0,1-.5987.13,1.3768,1.3768,0,0,1-.5908-.13,1.604,1.604,0,0,1-.4941-.3574,1.83,1.83,0,0,1-.3447-.52,1.5233,1.5233,0,0,1-.13-.63,1.58,1.58,0,0,1,.13-.6377,1.777,1.777,0,0,1,.8515-.89,1.322,1.322,0,0,1,.5918-.1368,1.4236,1.4236,0,0,1,.5977.13,1.7481,1.7481,0,0,1,.5136.3575,1.6709,1.6709,0,0,1,.3575.5332A1.6194,1.6194,0,0,1,680.6855,278.3057Z" transform="translate(-1.2744)"/><path class="o" d="M689.9668,292.1377a11.2181,11.2181,0,0,1-1.0068,1.5079,7.0474,7.0474,0,0,1-1.1446,1.15,4.9439,4.9439,0,0,1-1.2734.7344,3.7842,3.7842,0,0,1-1.3848.26,3.2441,3.2441,0,0,1-1.417-.3047,2.9631,2.9631,0,0,1-1.0859-.8975,4.3868,4.3868,0,0,1-.6953-1.456,7.2531,7.2531,0,0,1-.2471-1.9824,8.9122,8.9122,0,0,1,.293-2.2813,9.2866,9.2866,0,0,1,2.125-3.9131,8.7031,8.7031,0,0,1,1.6836-1.4306,8.0139,8.0139,0,0,1,1.9961-.9356,7.491,7.491,0,0,1,2.2353-.331,9.7705,9.7705,0,0,1,1.6446.1357,6.9574,6.9574,0,0,1,1.58.4746l-1.5732,12.74H690.5a.7038.7038,0,0,1-.6172-.2343.9731.9731,0,0,1-.1621-.5713Zm.8848-8.0859a3.64,3.64,0,0,0-.5655-.085c-.1865-.0127-.3711-.0195-.5527-.0195a4.5526,4.5526,0,0,0-1.5078.2539,5.4054,5.4054,0,0,0-1.3652.708,6.0666,6.0666,0,0,0-1.1573,1.086,7.0459,7.0459,0,0,0-.8906,1.3847,7.8135,7.8135,0,0,0-.5781,1.6055,7.3366,7.3366,0,0,0-.208,1.748q0,3.1333,2.0019,3.1329a2.2657,2.2657,0,0,0,1.2481-.3965,4.846,4.846,0,0,0,1.1631-1.1045,9.2824,9.2824,0,0,0,1.0205-1.6778,15.59,15.59,0,0,0,.832-2.125Z" transform="translate(-1.2744)"/><path class="o" d="M703.6045,284.545a.8136.8136,0,0,1-.208.2275.4475.4475,0,0,1-.26.0723.7239.7239,0,0,1-.3965-.1436c-.1435-.0947-.3164-.2012-.52-.3183a4.2131,4.2131,0,0,0-.747-.3252,3.3522,3.3522,0,0,0-1.0664-.1494,3.31,3.31,0,0,0-1.0655.163,2.5593,2.5593,0,0,0-.8262.4483,2.0372,2.0372,0,0,0-.5332.6689,1.8305,1.8305,0,0,0-.1884.8125,1.25,1.25,0,0,0,.4033.9756,3.7,3.7,0,0,0,1.0137.63q.6108.2666,1.3134.5137a6.8085,6.8085,0,0,1,1.3125.624,3.3617,3.3617,0,0,1,1.0147.9619,2.6322,2.6322,0,0,1,.4023,1.5215,4.38,4.38,0,0,1-1.3838,3.2041,5.054,5.054,0,0,1-1.6123,1.0078,5.6473,5.6473,0,0,1-2.1123.377,5.2537,5.2537,0,0,1-2.23-.4483,4.6447,4.6447,0,0,1-1.58-1.15l.5722-.8847a.978.978,0,0,1,.2539-.26.6349.6349,0,0,1,.7735.0908q.2079.1832.5195.41a3.2084,3.2084,0,0,0,1.9893.5908,3.2253,3.2253,0,0,0,1.15-.1943,2.6982,2.6982,0,0,0,.871-.5206,2.1966,2.1966,0,0,0,.5459-.7607,2.3049,2.3049,0,0,0,.1885-.9287,1.403,1.403,0,0,0-.4023-1.0537,3.3014,3.3014,0,0,0-1.0147-.6494q-.6108-.2609-1.3125-.4873a6.677,6.677,0,0,1-1.3134-.585,3.2078,3.2078,0,0,1-1.0137-.93,2.5935,2.5935,0,0,1-.4033-1.5215,4.0233,4.0233,0,0,1,.332-1.6054,4.1371,4.1371,0,0,1,.9551-1.3711,4.7,4.7,0,0,1,1.5146-.9561,5.3515,5.3515,0,0,1,2.0088-.3574,5.16,5.16,0,0,1,2.0859.3965,4.8087,4.8087,0,0,1,1.5538,1.0732Z" transform="translate(-1.2744)"/><path class="o" d="M627.3994,310.459l-2.3525,19.1494h-1.209a.6857.6857,0,0,1-.6113-.2343,1.0067,1.0067,0,0,1-.1563-.5713l.2471-2.7695a10.308,10.308,0,0,1-1.0791,1.5468,7.9669,7.9669,0,0,1-1.2285,1.1836,5.2981,5.2981,0,0,1-1.3389.76,3.9125,3.9125,0,0,1-1.41.2666,3.11,3.11,0,0,1-2.6259-1.2285,5.8061,5.8061,0,0,1-.9366-3.5684,10.4789,10.4789,0,0,1,.2217-2.1318,11.1008,11.1008,0,0,1,.63-2.041,9.9949,9.9949,0,0,1,.9883-1.8135,7.46,7.46,0,0,1,1.2939-1.4492,5.915,5.915,0,0,1,1.54-.9619,4.3851,4.3851,0,0,1,1.7353-.3516,4.0425,4.0425,0,0,1,1.7744.3838,3.8265,3.8265,0,0,1,1.3584,1.0859l.8975-7.2549Zm-3.3535,8.8535a2.6829,2.6829,0,0,0-1.1895-.9814,3.7538,3.7538,0,0,0-1.4111-.2793,3.0086,3.0086,0,0,0-1.8457.61,5.4,5.4,0,0,0-1.3975,1.58,8.2622,8.2622,0,0,0-.8906,2.1641A9.3013,9.3013,0,0,0,617,324.76a4.1936,4.1936,0,0,0,.5518,2.3594,1.7984,1.7984,0,0,0,1.58.8125,2.3973,2.3973,0,0,0,1.2608-.3906,5.194,5.194,0,0,0,1.2285-1.085,9.553,9.553,0,0,0,1.1055-1.6445,13.03,13.03,0,0,0,.89-2.08Z" transform="translate(-1.2744)"/><path class="o" d="M638.8652,327.1778a11.5315,11.5315,0,0,1-1.3,1.1758,7.8416,7.8416,0,0,1-1.2929.8125,5.7109,5.7109,0,0,1-1.378.4746,7.6627,7.6627,0,0,1-1.5537.1494,5.1788,5.1788,0,0,1-2.0283-.377,4.1919,4.1919,0,0,1-1.52-1.0722,4.8267,4.8267,0,0,1-.9629-1.6836,6.8177,6.8177,0,0,1-.3379-2.21,9.713,9.713,0,0,1,.2149-2.0215,9.384,9.384,0,0,1,.624-1.917,8.7168,8.7168,0,0,1,1.001-1.69,6.7613,6.7613,0,0,1,1.3515-1.3457,6.366,6.366,0,0,1,1.6778-.8906,5.8679,5.8679,0,0,1,1.9687-.3242,4.7293,4.7293,0,0,1,1.7295.2851,3.6926,3.6926,0,0,1,1.1963.7285,2.939,2.939,0,0,1,.6953.9746,2.5906,2.5906,0,0,1,.2275,1.0147,3.557,3.557,0,0,1-.3515,1.5791,3.2764,3.2764,0,0,1-1.2871,1.3,9.5925,9.5925,0,0,1-2.5733,1.0078,28.3123,28.3123,0,0,1-4.2119.6885c0,.0957-.0029.1885-.0068.28s-.0069.1836-.0069.2793a4.0666,4.0666,0,0,0,.7608,2.6582,2.8092,2.8092,0,0,0,2.2949.917,4.3585,4.3585,0,0,0,1.1113-.13,4.7381,4.7381,0,0,0,.8711-.3194,3.8521,3.8521,0,0,0,.6758-.416c.1953-.1514.3721-.29.5332-.416a5.4427,5.4427,0,0,1,.4482-.3184.7862.7862,0,0,1,.4161-.13.5841.5841,0,0,1,.4423.2207Zm-3.666-9.2559a3.3719,3.3719,0,0,0-1.5078.3379,4.0355,4.0355,0,0,0-1.2217.9287,5.67,5.67,0,0,0-.91,1.3916,8.2759,8.2759,0,0,0-.585,1.7227,25.3956,25.3956,0,0,0,3.2109-.5654,8.02,8.02,0,0,0,1.8594-.6895,1.7947,1.7947,0,0,0,1.0655-1.6963,1.2787,1.2787,0,0,0-.1036-.4873,1.2942,1.2942,0,0,0-.332-.4619,1.8,1.8,0,0,0-.5908-.3447A2.5367,2.5367,0,0,0,635.1992,317.9219Z" transform="translate(-1.2744)"/><path class="o" d="M657.39,327.1778a11.5315,11.5315,0,0,1-1.3,1.1758,7.8416,7.8416,0,0,1-1.2929.8125,5.7109,5.7109,0,0,1-1.378.4746,7.6627,7.6627,0,0,1-1.5537.1494,5.1788,5.1788,0,0,1-2.0283-.377,4.1927,4.1927,0,0,1-1.52-1.0722,4.8267,4.8267,0,0,1-.9629-1.6836,6.8177,6.8177,0,0,1-.3379-2.21,9.713,9.713,0,0,1,.2149-2.0215,9.39,9.39,0,0,1,.624-1.917,8.7168,8.7168,0,0,1,1.001-1.69,6.7613,6.7613,0,0,1,1.3515-1.3457,6.366,6.366,0,0,1,1.6778-.8906,5.8679,5.8679,0,0,1,1.9687-.3242,4.7289,4.7289,0,0,1,1.7295.2851,3.6915,3.6915,0,0,1,1.1963.7285,2.939,2.939,0,0,1,.6953.9746,2.5906,2.5906,0,0,1,.2275,1.0147,3.5557,3.5557,0,0,1-.3515,1.5791,3.2764,3.2764,0,0,1-1.2871,1.3,9.5925,9.5925,0,0,1-2.5733,1.0078,28.3123,28.3123,0,0,1-4.2119.6885c0,.0957-.0029.1885-.0068.28s-.0069.1836-.0069.2793a4.0671,4.0671,0,0,0,.7608,2.6582,2.8092,2.8092,0,0,0,2.2949.917,4.3585,4.3585,0,0,0,1.1113-.13,4.7381,4.7381,0,0,0,.8711-.3194,3.8521,3.8521,0,0,0,.6758-.416c.1953-.1514.3721-.29.5332-.416a5.4262,5.4262,0,0,1,.4483-.3184.7856.7856,0,0,1,.416-.13.5844.5844,0,0,1,.4424.2207Zm-3.666-9.2559a3.3719,3.3719,0,0,0-1.5078.3379,4.0355,4.0355,0,0,0-1.2217.9287,5.6726,5.6726,0,0,0-.91,1.3916,8.2759,8.2759,0,0,0-.585,1.7227,25.401,25.401,0,0,0,3.211-.5654,8.02,8.02,0,0,0,1.8593-.6895,1.7943,1.7943,0,0,0,1.0655-1.6963,1.28,1.28,0,0,0-.1035-.4873,1.2957,1.2957,0,0,0-.3321-.4619,1.7989,1.7989,0,0,0-.5908-.3447A2.5367,2.5367,0,0,0,653.7236,317.9219Z" transform="translate(-1.2744)"/><path class="o" d="M662.7842,319.7676a8.2118,8.2118,0,0,1,2.3789-2.6328,4.84,4.84,0,0,1,2.7305-.8906,3.0863,3.0863,0,0,1,1.4619.332,2.6512,2.6512,0,0,1,1.0273.9678,4.1306,4.1306,0,0,1,.54,1.5674,7.86,7.86,0,0,1,0,2.1123l-.9883,8.3847h-2.3008l.9873-8.3847a4.2609,4.2609,0,0,0-.1943-2.3076,1.4167,1.4167,0,0,0-1.3916-.7481,2.7122,2.7122,0,0,0-1.2676.3389,4.8617,4.8617,0,0,0-1.2412.9619,7.9707,7.9707,0,0,0-1.1114,1.501,10.5253,10.5253,0,0,0-.8779,1.957l-.7539,6.6816H659.47l1.586-13.1816h1.1435a.6891.6891,0,0,1,.78.7793Z" transform="translate(-1.2744)"/><path class="o" d="M674.29,327.125v-.2011c0-.0821.0059-.2012.02-.3574s.0342-.3594.0644-.6114.0713-.58.124-.9873l.8057-6.5918H673.835a.3735.3735,0,0,1-.293-.123.4876.4876,0,0,1-.084-.3838l.1035-.9229,2.0283-.2724.9883-4.0694a.7285.7285,0,0,1,.2012-.3183.4957.4957,0,0,1,.3447-.124h1.209l-.56,4.5371h3.458l-.1943,1.6767h-3.4717l-.7929,6.4746c-.043.3555-.0782.6416-.1036.8575s-.0459.3906-.0585.52-.0215.2207-.0264.2724-.0059.0918-.0059.1172a1.3535,1.3535,0,0,0,.3115.9815,1.11,1.11,0,0,0,.8321.3183,1.6942,1.6942,0,0,0,.6045-.0967,2.9083,2.9083,0,0,0,.4482-.2148,3.8148,3.8148,0,0,0,.3252-.2149.4022.4022,0,0,1,.2207-.0976.256.256,0,0,1,.1758.0527.4785.4785,0,0,1,.11.169l.4942,1.1045a4.8909,4.8909,0,0,1-1.4492.8779,4.4528,4.4528,0,0,1-1.6319.3184,2.75,2.75,0,0,1-1.9824-.69A2.7157,2.7157,0,0,1,674.29,327.125Z" transform="translate(-1.2744)"/><path class="o" d="M685.7686,320.1055a11.2566,11.2566,0,0,1,1.124-1.918,5.632,5.632,0,0,1,1.2676-1.2734,3.1454,3.1454,0,0,1,1.3652-.56,2.66,2.66,0,0,1,1.43.2149l-.416,2.2226a2.6619,2.6619,0,0,0-2.9834.4942,8.689,8.689,0,0,0-2.1,4.2256l-.7276,6.0966h-2.2617l1.5859-13.1816h1.1436a.6951.6951,0,0,1,.793.7793Z" transform="translate(-1.2744)"/><path class="o" d="M699.4961,326.1377a11.3079,11.3079,0,0,1-1.0078,1.5079,7.0074,7.0074,0,0,1-1.1436,1.15,4.966,4.966,0,0,1-1.2744.7344,3.7828,3.7828,0,0,1-1.3838.26,3.2382,3.2382,0,0,1-1.417-.3047,2.9551,2.9551,0,0,1-1.0859-.8975,4.3674,4.3674,0,0,1-.6953-1.456,7.2146,7.2146,0,0,1-.2471-1.9824,8.9558,8.9558,0,0,1,.292-2.2813,9.2739,9.2739,0,0,1,2.126-3.9131,8.6469,8.6469,0,0,1,1.6836-1.4306,7.9924,7.9924,0,0,1,1.9951-.9356,7.4976,7.4976,0,0,1,2.2363-.331,9.7792,9.7792,0,0,1,1.6446.1357,6.9368,6.9368,0,0,1,1.5791.4746l-1.5733,12.74h-1.1953a.7046.7046,0,0,1-.6182-.2343.9731.9731,0,0,1-.1621-.5713Zm.8838-8.0859a3.6047,3.6047,0,0,0-.5654-.085c-.1866-.0127-.37-.0195-.5528-.0195a4.5574,4.5574,0,0,0-1.5078.2539,5.4071,5.4071,0,0,0-1.3652.708,6.035,6.035,0,0,0-1.1563,1.086,7.0459,7.0459,0,0,0-.8906,1.3847,7.8216,7.8216,0,0,0-.5791,1.6055,7.3366,7.3366,0,0,0-.208,1.748q0,3.1333,2.0019,3.1329a2.2654,2.2654,0,0,0,1.2481-.3965,4.8674,4.8674,0,0,0,1.1641-1.1045,9.3337,9.3337,0,0,0,1.02-1.6778,15.8541,15.8541,0,0,0,.832-2.125Z" transform="translate(-1.2744)"/><path class="o" d="M717.293,310.459,714.94,329.6084h-1.209a.6827.6827,0,0,1-.61-.2343,1,1,0,0,1-.1562-.5713l.247-2.7695a10.441,10.441,0,0,1-1.0791,1.5468,8.0075,8.0075,0,0,1-1.2285,1.1836,5.3165,5.3165,0,0,1-1.3388.76,3.9177,3.9177,0,0,1-1.4112.2666,3.1114,3.1114,0,0,1-2.626-1.2285,5.8069,5.8069,0,0,1-.9355-3.5684,10.47,10.47,0,0,1,.2207-2.1318,11.0268,11.0268,0,0,1,.6309-2.041,9.94,9.94,0,0,1,.9882-1.8135,7.4558,7.4558,0,0,1,1.293-1.4492,5.92,5.92,0,0,1,1.541-.9619,4.3785,4.3785,0,0,1,1.7354-.3516,4.0487,4.0487,0,0,1,1.7744.3838,3.8361,3.8361,0,0,1,1.3584,1.0859l.8965-7.2549Zm-3.3545,8.8535a2.6722,2.6722,0,0,0-1.1895-.9814,3.7491,3.7491,0,0,0-1.41-.2793,3.0086,3.0086,0,0,0-1.8457.61,5.3888,5.3888,0,0,0-1.3985,1.58,8.2947,8.2947,0,0,0-.89,2.1641,9.3033,9.3033,0,0,0-.3125,2.3535,4.1932,4.1932,0,0,0,.5527,2.3594,1.7968,1.7968,0,0,0,1.5791.8125,2.4,2.4,0,0,0,1.2617-.3906,5.2116,5.2116,0,0,0,1.2285-1.085,9.5969,9.5969,0,0,0,1.1045-1.6445,13.0311,13.0311,0,0,0,.8907-2.08Z" transform="translate(-1.2744)"/><path class="o" d="M726.5352,326.1377a11.2185,11.2185,0,0,1-1.0069,1.5079,7.0469,7.0469,0,0,1-1.1445,1.15,4.9473,4.9473,0,0,1-1.2734.7344,3.7846,3.7846,0,0,1-1.3848.26,3.2441,3.2441,0,0,1-1.417-.3047,2.9631,2.9631,0,0,1-1.0859-.8975,4.3869,4.3869,0,0,1-.6954-1.456,7.2572,7.2572,0,0,1-.247-1.9824,8.9121,8.9121,0,0,1,.2929-2.2813,9.29,9.29,0,0,1,2.125-3.9131,8.709,8.709,0,0,1,1.6836-1.4306,8.0172,8.0172,0,0,1,1.9961-.9356,7.4922,7.4922,0,0,1,2.2354-.331,9.7685,9.7685,0,0,1,1.6445.1357,6.9581,6.9581,0,0,1,1.58.4746l-1.5733,12.74h-1.1962a.7036.7036,0,0,1-.6172-.2343.9731.9731,0,0,1-.1621-.5713Zm.8847-8.0859a3.64,3.64,0,0,0-.5654-.085c-.1865-.0127-.3711-.0195-.5527-.0195a4.5536,4.5536,0,0,0-1.5079.2539,5.4071,5.4071,0,0,0-1.3652.708,6.069,6.069,0,0,0-1.1572,1.086,7.0413,7.0413,0,0,0-.8906,1.3847,7.82,7.82,0,0,0-.5782,1.6055,7.3417,7.3417,0,0,0-.208,1.748q0,3.1333,2.002,3.1329a2.2651,2.2651,0,0,0,1.248-.3965,4.8441,4.8441,0,0,0,1.1631-1.1045,9.271,9.271,0,0,0,1.02-1.6778,15.59,15.59,0,0,0,.8321-2.125Z" transform="translate(-1.2744)"/><path class="o" d="M627.3994,344.459l-2.3525,19.1494h-1.209a.6857.6857,0,0,1-.6113-.2343,1.0067,1.0067,0,0,1-.1563-.5713l.2471-2.7695a10.308,10.308,0,0,1-1.0791,1.5468,7.9669,7.9669,0,0,1-1.2285,1.1836,5.2981,5.2981,0,0,1-1.3389.76,3.9125,3.9125,0,0,1-1.41.2666,3.11,3.11,0,0,1-2.6259-1.2285,5.8061,5.8061,0,0,1-.9366-3.5684,10.4789,10.4789,0,0,1,.2217-2.1318,11.1008,11.1008,0,0,1,.63-2.041,9.9949,9.9949,0,0,1,.9883-1.8135,7.46,7.46,0,0,1,1.2939-1.4492,5.915,5.915,0,0,1,1.54-.9619,4.3851,4.3851,0,0,1,1.7353-.3516,4.0425,4.0425,0,0,1,1.7744.3838,3.8265,3.8265,0,0,1,1.3584,1.0859l.8975-7.2549Zm-3.3535,8.8535a2.6829,2.6829,0,0,0-1.1895-.9814,3.7538,3.7538,0,0,0-1.4111-.2793,3.0086,3.0086,0,0,0-1.8457.61,5.4,5.4,0,0,0-1.3975,1.58,8.2622,8.2622,0,0,0-.8906,2.1641A9.3013,9.3013,0,0,0,617,358.76a4.1936,4.1936,0,0,0,.5518,2.3594,1.7984,1.7984,0,0,0,1.58.8125,2.3973,2.3973,0,0,0,1.2608-.3906,5.194,5.194,0,0,0,1.2285-1.085,9.553,9.553,0,0,0,1.1055-1.6445,13.03,13.03,0,0,0,.89-2.08Z" transform="translate(-1.2744)"/><path class="o" d="M638.8652,361.1778a11.5315,11.5315,0,0,1-1.3,1.1758,7.8416,7.8416,0,0,1-1.2929.8125,5.7109,5.7109,0,0,1-1.378.4746,7.6627,7.6627,0,0,1-1.5537.1494,5.1788,5.1788,0,0,1-2.0283-.377,4.1919,4.1919,0,0,1-1.52-1.0722,4.8267,4.8267,0,0,1-.9629-1.6836,6.8177,6.8177,0,0,1-.3379-2.21,9.713,9.713,0,0,1,.2149-2.0215,9.384,9.384,0,0,1,.624-1.917,8.7168,8.7168,0,0,1,1.001-1.69,6.7613,6.7613,0,0,1,1.3515-1.3457,6.366,6.366,0,0,1,1.6778-.8906,5.8679,5.8679,0,0,1,1.9687-.3242,4.7293,4.7293,0,0,1,1.7295.2851,3.6926,3.6926,0,0,1,1.1963.7285,2.939,2.939,0,0,1,.6953.9746,2.5906,2.5906,0,0,1,.2275,1.0147,3.557,3.557,0,0,1-.3515,1.5791,3.2764,3.2764,0,0,1-1.2871,1.3,9.5925,9.5925,0,0,1-2.5733,1.0078,28.3123,28.3123,0,0,1-4.2119.6885c0,.0957-.0029.1885-.0068.28s-.0069.1836-.0069.2793a4.0666,4.0666,0,0,0,.7608,2.6582,2.8092,2.8092,0,0,0,2.2949.917,4.3585,4.3585,0,0,0,1.1113-.13,4.7381,4.7381,0,0,0,.8711-.3194,3.8521,3.8521,0,0,0,.6758-.416c.1953-.1514.3721-.29.5332-.416a5.4427,5.4427,0,0,1,.4482-.3184.7862.7862,0,0,1,.4161-.13.5841.5841,0,0,1,.4423.2207Zm-3.666-9.2559a3.3719,3.3719,0,0,0-1.5078.3379,4.0355,4.0355,0,0,0-1.2217.9287,5.67,5.67,0,0,0-.91,1.3916,8.2759,8.2759,0,0,0-.585,1.7227,25.3956,25.3956,0,0,0,3.2109-.5654,8.02,8.02,0,0,0,1.8594-.6895,1.7947,1.7947,0,0,0,1.0655-1.6963,1.2787,1.2787,0,0,0-.1036-.4873,1.2942,1.2942,0,0,0-.332-.4619,1.8,1.8,0,0,0-.5908-.3447A2.5367,2.5367,0,0,0,635.1992,351.9219Z" transform="translate(-1.2744)"/><path class="o" d="M655.167,360.1377a11.3079,11.3079,0,0,1-1.0078,1.5079,7.0074,7.0074,0,0,1-1.1436,1.15,4.966,4.966,0,0,1-1.2744.7344,3.7828,3.7828,0,0,1-1.3838.26,3.2382,3.2382,0,0,1-1.417-.3047,2.9551,2.9551,0,0,1-1.0859-.8975,4.3674,4.3674,0,0,1-.6953-1.456,7.2146,7.2146,0,0,1-.2471-1.9824,8.9558,8.9558,0,0,1,.292-2.2813,9.2739,9.2739,0,0,1,2.126-3.9131,8.6469,8.6469,0,0,1,1.6836-1.4306,7.9924,7.9924,0,0,1,1.9951-.9356,7.4976,7.4976,0,0,1,2.2363-.331,9.7772,9.7772,0,0,1,1.6445.1357,6.936,6.936,0,0,1,1.5792.4746l-1.5733,12.74H655.7a.7046.7046,0,0,1-.6182-.2343.9731.9731,0,0,1-.1621-.5713Zm.8838-8.0859a3.6047,3.6047,0,0,0-.5654-.085c-.1866-.0127-.37-.0195-.5528-.0195a4.5574,4.5574,0,0,0-1.5078.2539,5.4071,5.4071,0,0,0-1.3652.708,6.035,6.035,0,0,0-1.1563,1.086,7.0459,7.0459,0,0,0-.8906,1.3847,7.8216,7.8216,0,0,0-.5791,1.6055,7.3366,7.3366,0,0,0-.208,1.748q0,3.1333,2.0019,3.1329a2.2654,2.2654,0,0,0,1.2481-.3965,4.8653,4.8653,0,0,0,1.164-1.1045,9.3281,9.3281,0,0,0,1.0206-1.6778,15.8541,15.8541,0,0,0,.832-2.125Z" transform="translate(-1.2744)"/><path class="o" d="M664.3057,350.44l-1.586,13.1689h-2.2754L662.03,350.44Zm.8838-4.1338a1.4552,1.4552,0,0,1-.1368.63,1.8107,1.8107,0,0,1-.3632.52,1.7294,1.7294,0,0,1-.5206.3574,1.47,1.47,0,0,1-.6044.13,1.3957,1.3957,0,0,1-.585-.13,1.5837,1.5837,0,0,1-.5-.3574,1.8092,1.8092,0,0,1-.3447-.52,1.5249,1.5249,0,0,1-.13-.63,1.5816,1.5816,0,0,1,.13-.6377,1.7413,1.7413,0,0,1,.3506-.5264,1.76,1.76,0,0,1,.5068-.3632,1.3361,1.3361,0,0,1,.5849-.1368,1.4668,1.4668,0,0,1,.6045.13,1.64,1.64,0,0,1,.5137.3575,1.8094,1.8094,0,0,1,.3574.5332A1.5448,1.5448,0,0,1,665.19,346.3057Z" transform="translate(-1.2744)"/><path class="o" d="M669.5967,354.1055a11.27,11.27,0,0,1,1.124-1.918,5.632,5.632,0,0,1,1.2676-1.2734,3.1459,3.1459,0,0,1,1.3652-.56,2.66,2.66,0,0,1,1.43.2149l-.416,2.2226a2.6619,2.6619,0,0,0-2.9834.4942,8.69,8.69,0,0,0-2.1,4.2256l-.7276,6.0966h-2.2617l1.586-13.1816h1.1435a.6951.6951,0,0,1,.793.7793Z" transform="translate(-1.2744)"/><path class="o" d="M685.5469,361.1778a11.5315,11.5315,0,0,1-1.3,1.1758,7.8424,7.8424,0,0,1-1.293.8125,5.7117,5.7117,0,0,1-1.3779.4746,7.6641,7.6641,0,0,1-1.5537.1494,5.1793,5.1793,0,0,1-2.0284-.377,4.1927,4.1927,0,0,1-1.52-1.0722,4.8267,4.8267,0,0,1-.9629-1.6836,6.8177,6.8177,0,0,1-.3378-2.21,9.7129,9.7129,0,0,1,.2148-2.0215,9.3962,9.3962,0,0,1,.624-1.917,8.7269,8.7269,0,0,1,1.001-1.69,6.7591,6.7591,0,0,1,1.3516-1.3457,6.3669,6.3669,0,0,1,1.6777-.8906,5.8683,5.8683,0,0,1,1.9687-.3242,4.7289,4.7289,0,0,1,1.7295.2851,3.6915,3.6915,0,0,1,1.1963.7285,2.939,2.939,0,0,1,.6953.9746,2.5908,2.5908,0,0,1,.2276,1.0147,3.5558,3.5558,0,0,1-.3516,1.5791,3.2764,3.2764,0,0,1-1.2871,1.3,9.59,9.59,0,0,1-2.5732,1.0078,28.3117,28.3117,0,0,1-4.212.6885c0,.0957-.0029.1885-.0068.28s-.0068.1836-.0068.2793a4.0671,4.0671,0,0,0,.7607,2.6582,2.8093,2.8093,0,0,0,2.2949.917,4.3588,4.3588,0,0,0,1.1114-.13,4.7408,4.7408,0,0,0,.8711-.3194,3.8548,3.8548,0,0,0,.6757-.416c.1954-.1514.3721-.29.5332-.416a5.4262,5.4262,0,0,1,.4483-.3184.7859.7859,0,0,1,.416-.13.5843.5843,0,0,1,.4424.2207Zm-3.666-9.2559a3.3724,3.3724,0,0,0-1.5079.3379,4.0351,4.0351,0,0,0-1.2216.9287,5.67,5.67,0,0,0-.91,1.3916,8.2757,8.2757,0,0,0-.5849,1.7227,25.4023,25.4023,0,0,0,3.2109-.5654,8.02,8.02,0,0,0,1.8594-.6895,1.7944,1.7944,0,0,0,1.0654-1.6963,1.28,1.28,0,0,0-.1035-.4873,1.2957,1.2957,0,0,0-.3321-.4619,1.7989,1.7989,0,0,0-.5908-.3447A2.5361,2.5361,0,0,0,681.8809,351.9219Z" transform="translate(-1.2744)"/><line class="q" x1="381.1292" y1="285.2086" x2="587.1292" y2="285.2086"/><circle class="o" cx="381.1292" cy="285.2086" r="4.5117"/><line class="q" x1="243.1292" y1="405.2086" x2="170.1292" y2="405.2086"/><circle class="o" cx="243.1292" cy="405.2086" r="4.5117"/><path class="o" d="M632.4434,143.6675a12.5333,12.5333,0,0,1-.7344,4.3682,10.35,10.35,0,0,1-2.041,3.4248,9.2319,9.2319,0,0,1-3.0938,2.2363,9.4214,9.4214,0,0,1-3.8935.8,7.5162,7.5162,0,0,1-3.0879-.6113,6.8052,6.8052,0,0,1-2.34-1.6963,7.4609,7.4609,0,0,1-1.4814-2.581,10.0079,10.0079,0,0,1-.5137-3.2754,12.4788,12.4788,0,0,1,.7412-4.375,10.427,10.427,0,0,1,2.0537-3.4385,9.2854,9.2854,0,0,1,6.9805-3.0547,7.4488,7.4488,0,0,1,3.0879.6172,6.78,6.78,0,0,1,2.334,1.71,7.5743,7.5743,0,0,1,1.4746,2.5937A10.07,10.07,0,0,1,632.4434,143.6675Zm-2.4961.0518a8.5016,8.5016,0,0,0-.3633-2.5674,5.75,5.75,0,0,0-1.0342-1.957,4.5546,4.5546,0,0,0-1.6377-1.2471,5.1813,5.1813,0,0,0-2.1777-.4424,6.2973,6.2973,0,0,0-5.0244,2.3789,8.315,8.315,0,0,0-1.4424,2.7627,11.9271,11.9271,0,0,0-.5137,3.62,8.5689,8.5689,0,0,0,.3574,2.5616,5.5877,5.5877,0,0,0,1.0332,1.9492,4.5632,4.5632,0,0,0,1.6377,1.2422,5.2163,5.2163,0,0,0,2.1719.4355,6.5267,6.5267,0,0,0,2.834-.6113,6.3109,6.3109,0,0,0,2.21-1.7481,8.3277,8.3277,0,0,0,1.4366-2.7568A11.95,11.95,0,0,0,629.9473,143.7193Z" transform="translate(-1.2744)"/><path class="o" d="M637.4355,144.7984a11.2633,11.2633,0,0,1,1.1241-1.918,5.6317,5.6317,0,0,1,1.2675-1.2734,3.1451,3.1451,0,0,1,1.3653-.56,2.6587,2.6587,0,0,1,1.43.2149l-.416,2.2226a2.6619,2.6619,0,0,0-2.9834.4942,8.689,8.689,0,0,0-2.1,4.2255l-.7275,6.0967h-2.2617L635.72,141.12h1.1436a.695.695,0,0,1,.793.7793Z" transform="translate(-1.2744)"/><path class="o" d="M647.0166,141.1324l-1.5859,13.1689h-2.2754l1.5859-13.1689Zm.8838-4.1338a1.4555,1.4555,0,0,1-.1367.63,1.8091,1.8091,0,0,1-.3633.52,1.732,1.732,0,0,1-.52.3574,1.4706,1.4706,0,0,1-.6045.13,1.3963,1.3963,0,0,1-.585-.13,1.5852,1.5852,0,0,1-.5-.3574,1.8113,1.8113,0,0,1-.3447-.52,1.5252,1.5252,0,0,1-.13-.63,1.5816,1.5816,0,0,1,.13-.6377,1.7413,1.7413,0,0,1,.3506-.5264,1.7634,1.7634,0,0,1,.5068-.3633,1.3363,1.3363,0,0,1,.585-.1367,1.4675,1.4675,0,0,1,.6045.13,1.6435,1.6435,0,0,1,.5137.3574,1.8127,1.8127,0,0,1,.3574.5332A1.5455,1.5455,0,0,1,647.9,136.9986Z" transform="translate(-1.2744)"/><path class="o" d="M653.5039,141.3921h7.3711l-1.5732,12.9092h-2.2754l1.3779-11.2324h-5.0176l-1.3262,10.8164-.6113,2.6914a1.5658,1.5658,0,0,1-.4219.7207,1.11,1.11,0,0,1-.7734.2539h-.91l1.7812-14.456-1.2744-.1563a.97.97,0,0,1-.416-.1885.4177.4177,0,0,1-.1172-.3828l.1045-.9756h1.9111l.0908-.7275a6.9131,6.9131,0,0,1,.6241-2.21,5.5269,5.5269,0,0,1,1.2675-1.7168,5.5976,5.5976,0,0,1,1.8848-1.1113,7.3144,7.3144,0,0,1,2.4893-.3965c.1562,0,.3183.0069.4873.02s.3378.03.5068.0527.33.0469.4814.0771a2.4743,2.4743,0,0,1,.3965.1114l-.2344,1.17a.248.248,0,0,1-.123.1816.65.65,0,0,1-.2539.0655,2.8091,2.8091,0,0,1-.3633,0c-.1387-.0088-.3-.0137-.4814-.0137a6.6366,6.6366,0,0,0-1.8721.2344,3.5861,3.5861,0,0,0-1.3389.7021,3.2856,3.2856,0,0,0-.8642,1.1826,5.8579,5.8579,0,0,0-.4356,1.69Z" transform="translate(-1.2744)"/><path class="o" d="M672.7432,151.9351a11.95,11.95,0,0,1-1.2871,1.2354,6.2213,6.2213,0,0,1-1.2217.7861,4.92,4.92,0,0,1-1.2676.41,8.1261,8.1261,0,0,1-1.4111.1163,4.94,4.94,0,0,1-2.0215-.39,3.9954,3.9954,0,0,1-1.4688-1.0986,4.8226,4.8226,0,0,1-.8965-1.7031,7.4179,7.4179,0,0,1-.3056-2.19,9.4646,9.4646,0,0,1,.5-3.0674,8.6306,8.6306,0,0,1,1.3974-2.6005,6.9562,6.9562,0,0,1,2.1387-1.8067,5.5731,5.5731,0,0,1,2.711-.6758,4.7157,4.7157,0,0,1,2.1972.461,4.5985,4.5985,0,0,1,1.5469,1.3457l-.7285.8711a.8194.8194,0,0,1-.2012.1689.4954.4954,0,0,1-.2539.0645.5275.5275,0,0,1-.3574-.1621,4.616,4.616,0,0,0-.461-.3643,3.3259,3.3259,0,0,0-.7089-.3633,3.0594,3.0594,0,0,0-1.085-.1631,3.1786,3.1786,0,0,0-1.69.4873,4.77,4.77,0,0,0-1.3907,1.333,6.7942,6.7942,0,0,0-.9433,2.002,8.6673,8.6673,0,0,0-.3438,2.4834,5.4761,5.4761,0,0,0,.1817,1.4619,3.1393,3.1393,0,0,0,.5459,1.1182,2.51,2.51,0,0,0,.8906.7148,2.8014,2.8014,0,0,0,1.2285.2539,3.6311,3.6311,0,0,0,1.4629-.2607,4.8941,4.8941,0,0,0,.9941-.5655,8.7713,8.7713,0,0,0,.6827-.5654.8257.8257,0,0,1,.5527-.26.5808.5808,0,0,1,.4414.2207Z" transform="translate(-1.2744)"/><path class="o" d="M678.6836,141.1324l-1.5859,13.1689h-2.2745l1.586-13.1689Zm.8848-4.1338a1.4686,1.4686,0,0,1-.1368.63,1.8119,1.8119,0,0,1-.3642.52,1.7275,1.7275,0,0,1-.5195.3574,1.4709,1.4709,0,0,1-.6045.13,1.3926,1.3926,0,0,1-.585-.13,1.5894,1.5894,0,0,1-.501-.3574,1.8512,1.8512,0,0,1-.3447-.52,1.5413,1.5413,0,0,1-.13-.63,1.5986,1.5986,0,0,1,.13-.6377,1.7549,1.7549,0,0,1,.8584-.89,1.3328,1.3328,0,0,1,.585-.1367,1.47,1.47,0,0,1,.6044.13,1.6412,1.6412,0,0,1,.5137.3574,1.8107,1.8107,0,0,1,.3574.5332A1.56,1.56,0,0,1,679.5684,136.9986Z" transform="translate(-1.2744)"/><path class="o" d="M685.5742,154.483a5.129,5.129,0,0,1-1.9765-.37,4.3475,4.3475,0,0,1-1.5469-1.0722,4.94,4.94,0,0,1-1.0137-1.7158,6.8164,6.8164,0,0,1-.3642-2.3145,9.3189,9.3189,0,0,1,.52-3.1328,8.3328,8.3328,0,0,1,1.43-2.5674,6.8353,6.8353,0,0,1,2.1387-1.7353,5.6573,5.6573,0,0,1,2.6455-.6377,5.1243,5.1243,0,0,1,1.9756.3711A4.3383,4.3383,0,0,1,690.93,142.38a4.9551,4.9551,0,0,1,1.0146,1.7158,6.7958,6.7958,0,0,1,.3633,2.3008,9.2815,9.2815,0,0,1-.5195,3.12,8.507,8.507,0,0,1-1.4238,2.5743,6.8026,6.8026,0,0,1-2.1387,1.748A5.6454,5.6454,0,0,1,685.5742,154.483Zm.2207-1.8067a3.019,3.019,0,0,0,1.7227-.5195,4.68,4.68,0,0,0,1.3262-1.3848,7.0373,7.0373,0,0,0,.8515-1.9961,9.2194,9.2194,0,0,0,.2988-2.3652,4.37,4.37,0,0,0-.7216-2.7373,2.4832,2.4832,0,0,0-2.0733-.916,3.0641,3.0641,0,0,0-1.7353.5136,4.5385,4.5385,0,0,0-1.32,1.3711,7.0454,7.0454,0,0,0-.8448,1.9893A9.2272,9.2272,0,0,0,683,148.9976a4.4586,4.4586,0,0,0,.7148,2.749A2.4636,2.4636,0,0,0,685.7949,152.6763Z" transform="translate(-1.2744)"/><path class="o" d="M702.6563,143.2378a.8144.8144,0,0,1-.2081.2276.4477.4477,0,0,1-.26.0722.7237.7237,0,0,1-.3965-.1435c-.1436-.0947-.3164-.2012-.5205-.3184a4.2111,4.2111,0,0,0-.7471-.3252,3.3518,3.3518,0,0,0-1.0664-.1494,3.31,3.31,0,0,0-1.0654.1631,2.561,2.561,0,0,0-.8262.4482,2.0373,2.0373,0,0,0-.5332.669,1.83,1.83,0,0,0-.1885.8125,1.2508,1.2508,0,0,0,.4033.9756,3.7033,3.7033,0,0,0,1.0137.63q.6108.2666,1.3135.5136a6.8147,6.8147,0,0,1,1.3125.6241,3.359,3.359,0,0,1,1.0146.9619,2.6312,2.6312,0,0,1,.4024,1.5215,4.38,4.38,0,0,1-1.3838,3.2041,5.0562,5.0562,0,0,1-1.6123,1.0078,5.6493,5.6493,0,0,1-2.1123.3769,5.2537,5.2537,0,0,1-2.2295-.4482,4.6451,4.6451,0,0,1-1.58-1.15l.5723-.8848a.976.976,0,0,1,.2539-.26.6343.6343,0,0,1,.7734.0908q.208.1831.52.41a3.2074,3.2074,0,0,0,1.9892.5909,3.223,3.223,0,0,0,1.15-.1944,2.6986,2.6986,0,0,0,.8711-.52,2.1979,2.1979,0,0,0,.5459-.7607,2.3052,2.3052,0,0,0,.1885-.9287,1.4035,1.4035,0,0,0-.4024-1.0538,3.3046,3.3046,0,0,0-1.0146-.6494q-.6108-.2607-1.3125-.4873a6.6691,6.6691,0,0,1-1.3135-.5849,3.211,3.211,0,0,1-1.0137-.93,2.5944,2.5944,0,0,1-.4033-1.5215,4.0258,4.0258,0,0,1,.332-1.6055,4.1406,4.1406,0,0,1,.9551-1.3711,4.6989,4.6989,0,0,1,1.5147-.956,5.3512,5.3512,0,0,1,2.0088-.3574,5.1622,5.1622,0,0,1,2.0859.3964,4.8112,4.8112,0,0,1,1.5537,1.0733Z" transform="translate(-1.2744)"/><path class="o" d="M723.3,135.1519l-2.3535,19.1494h-1.209a.6823.6823,0,0,1-.61-.2344.9994.9994,0,0,1-.1563-.5712l.2471-2.77a10.4518,10.4518,0,0,1-1.0791,1.5469,8.012,8.012,0,0,1-1.2285,1.1836,5.3171,5.3171,0,0,1-1.3389.76,3.9176,3.9176,0,0,1-1.4111.2666,3.1111,3.1111,0,0,1-2.626-1.2286,5.8066,5.8066,0,0,1-.9356-3.5683,10.4783,10.4783,0,0,1,.2207-2.1319,11.0367,11.0367,0,0,1,.6309-2.041,9.936,9.936,0,0,1,.9883-1.8134,7.4589,7.4589,0,0,1,1.2929-1.4493,5.9256,5.9256,0,0,1,1.5411-.9619,4.3779,4.3779,0,0,1,1.7353-.3515,4.05,4.05,0,0,1,1.7744.3837,3.8355,3.8355,0,0,1,1.3584,1.086l.8965-7.2549Zm-3.3545,8.8535a2.6718,2.6718,0,0,0-1.1894-.9814,3.7477,3.7477,0,0,0-1.41-.2793,3.0091,3.0091,0,0,0-1.8457.61,5.3875,5.3875,0,0,0-1.3984,1.58,8.2915,8.2915,0,0,0-.89,2.1641,9.3033,9.3033,0,0,0-.3125,2.3535,4.1942,4.1942,0,0,0,.5527,2.3594,1.797,1.797,0,0,0,1.5792.8125,2.4,2.4,0,0,0,1.2617-.3907,5.213,5.213,0,0,0,1.2285-1.0849,9.6056,9.6056,0,0,0,1.1045-1.6446,13.03,13.03,0,0,0,.8906-2.08Z" transform="translate(-1.2744)"/><path class="o" d="M734.7656,151.8707a11.7059,11.7059,0,0,1-1.3,1.1757,7.8423,7.8423,0,0,1-1.2939.8125,5.6815,5.6815,0,0,1-1.378.4746,7.6554,7.6554,0,0,1-1.5537.15,5.1734,5.1734,0,0,1-2.0273-.377,4.1882,4.1882,0,0,1-1.5215-1.0723,4.824,4.824,0,0,1-.9619-1.6836,6.7906,6.7906,0,0,1-.3379-2.21,9.7116,9.7116,0,0,1,.2139-2.0215,9.5061,9.5061,0,0,1,.624-1.917,8.7674,8.7674,0,0,1,1.001-1.69,6.7607,6.7607,0,0,1,1.3525-1.3457,6.3573,6.3573,0,0,1,1.6768-.8907,5.8738,5.8738,0,0,1,1.97-.3242,4.727,4.727,0,0,1,1.7285.2852,3.6808,3.6808,0,0,1,1.1963.7285,2.9111,2.9111,0,0,1,.6953.9746,2.573,2.573,0,0,1,.2275,1.0147,3.5567,3.5567,0,0,1-.3505,1.5791,3.2836,3.2836,0,0,1-1.2871,1.3,9.6179,9.6179,0,0,1-2.5743,1.0078,28.3123,28.3123,0,0,1-4.2119.6885c0,.0957-.0019.1884-.0068.28s-.0059.1836-.0059.2793a4.0611,4.0611,0,0,0,.7608,2.6582,2.8081,2.8081,0,0,0,2.2939.917,4.3485,4.3485,0,0,0,1.1113-.13,4.7381,4.7381,0,0,0,.8711-.3193,3.7852,3.7852,0,0,0,.6758-.416q.2929-.2271.5332-.416a5.26,5.26,0,0,1,.4492-.3184.7805.7805,0,0,1,.4151-.13.5813.5813,0,0,1,.4424.2207Zm-3.666-9.2559a3.3719,3.3719,0,0,0-1.5078.3379,4.0258,4.0258,0,0,0-1.2227.9287,5.6966,5.6966,0,0,0-.91,1.3916,8.3345,8.3345,0,0,0-.585,1.7227,25.4136,25.4136,0,0,0,3.2119-.5655,8.0141,8.0141,0,0,0,1.8584-.6894,1.7933,1.7933,0,0,0,1.0664-1.6963,1.3073,1.3073,0,0,0-.4355-.9492,1.8167,1.8167,0,0,0-.5918-.3448A2.5332,2.5332,0,0,0,731.1,142.6148Z" transform="translate(-1.2744)"/><path class="o" d="M623.2393,177.2378a.8157.8157,0,0,1-.208.2276.446.446,0,0,1-.26.0722.729.729,0,0,1-.3965-.1435c-.1426-.0947-.3164-.2012-.5195-.3184a4.2268,4.2268,0,0,0-.7481-.3252,3.3452,3.3452,0,0,0-1.0654-.1494,3.3113,3.3113,0,0,0-1.0664.1631,2.5663,2.5663,0,0,0-.8252.4482,2.0118,2.0118,0,0,0-.5332.669,1.8169,1.8169,0,0,0-.1885.8125,1.2475,1.2475,0,0,0,.4033.9756,3.7033,3.7033,0,0,0,1.0137.63q.6108.2666,1.3125.5136a6.7955,6.7955,0,0,1,1.3135.6241,3.3686,3.3686,0,0,1,1.0137.9619,2.6321,2.6321,0,0,1,.4033,1.5215,4.3763,4.3763,0,0,1-1.3848,3.2041,5.0514,5.0514,0,0,1-1.6113,1.0078,5.6583,5.6583,0,0,1-2.1133.3769,5.2537,5.2537,0,0,1-2.23-.4482,4.6409,4.6409,0,0,1-1.5791-1.15l.5723-.8848a.9735.9735,0,0,1,.2529-.26.6343.6343,0,0,1,.7734.0908q.208.1831.52.41a3.202,3.202,0,0,0,1.9893.5909,3.2269,3.2269,0,0,0,1.15-.1944,2.72,2.72,0,0,0,.8711-.52,2.1979,2.1979,0,0,0,.5459-.7607,2.3222,2.3222,0,0,0,.1885-.9287,1.4,1.4,0,0,0-.4034-1.0538,3.2874,3.2874,0,0,0-1.0136-.6494q-.6123-.2607-1.3135-.4873a6.6864,6.6864,0,0,1-1.3125-.5849,3.2038,3.2038,0,0,1-1.0147-.93,2.5944,2.5944,0,0,1-.4023-1.5215,4.04,4.04,0,0,1,.3311-1.6055,4.1418,4.1418,0,0,1,.956-1.3711,4.6941,4.6941,0,0,1,1.5137-.956,5.3548,5.3548,0,0,1,2.0088-.3574,5.1641,5.1641,0,0,1,2.0869.3964,4.8068,4.8068,0,0,1,1.5527,1.0733Z" transform="translate(-1.2744)"/><path class="o" d="M637.0586,175.1324l-1.5859,13.1689h-1.1446a.7409.7409,0,0,1-.8447-.832l.1953-2.4053a8.0305,8.0305,0,0,1-2.3467,2.5547,4.8081,4.8081,0,0,1-2.6845.8643,3.14,3.14,0,0,1-1.4688-.3311,2.629,2.629,0,0,1-1.0332-.9687,4.1212,4.1212,0,0,1-.54-1.56,7.5588,7.5588,0,0,1,.0127-2.1192l.9882-8.372h2.3008l-.9873,8.372a4.2894,4.2894,0,0,0,.1885,2.3008,1.4091,1.4091,0,0,0,1.3975.7539,2.7085,2.7085,0,0,0,1.2343-.3252,4.7032,4.7032,0,0,0,1.2227-.9228,7.9219,7.9219,0,0,0,1.0986-1.4492,10.1312,10.1312,0,0,0,.877-1.8916l.8193-6.8379Z" transform="translate(-1.2744)"/><path class="o" d="M648.7842,185.9351a11.95,11.95,0,0,1-1.2871,1.2354,6.2213,6.2213,0,0,1-1.2217.7861,4.919,4.919,0,0,1-1.2676.41,8.1261,8.1261,0,0,1-1.4111.1163,4.94,4.94,0,0,1-2.0215-.39,3.9954,3.9954,0,0,1-1.4688-1.0986,4.8208,4.8208,0,0,1-.8964-1.7031,7.4179,7.4179,0,0,1-.3057-2.19,9.4646,9.4646,0,0,1,.5-3.0674,8.6286,8.6286,0,0,1,1.3975-2.6005,6.9547,6.9547,0,0,1,2.1386-1.8067,5.5734,5.5734,0,0,1,2.711-.6758,4.7157,4.7157,0,0,1,2.1972.461,4.5985,4.5985,0,0,1,1.5469,1.3457l-.7285.8711a.8175.8175,0,0,1-.2012.1689.4954.4954,0,0,1-.2539.0645.5275.5275,0,0,1-.3574-.1621,4.625,4.625,0,0,0-.4609-.3643,3.3293,3.3293,0,0,0-.709-.3633,3.0594,3.0594,0,0,0-1.085-.1631,3.1786,3.1786,0,0,0-1.69.4873,4.7693,4.7693,0,0,0-1.3906,1.333,6.7943,6.7943,0,0,0-.9434,2.002,8.6673,8.6673,0,0,0-.3438,2.4834,5.4761,5.4761,0,0,0,.1817,1.4619,3.1393,3.1393,0,0,0,.5459,1.1182,2.51,2.51,0,0,0,.8906.7148,2.8017,2.8017,0,0,0,1.2285.2539,3.6311,3.6311,0,0,0,1.4629-.2607,4.8978,4.8978,0,0,0,.9942-.5655,8.768,8.768,0,0,0,.6826-.5654.8257.8257,0,0,1,.5527-.26.5808.5808,0,0,1,.4414.2207Z" transform="translate(-1.2744)"/><path class="o" d="M660.6016,185.9351a11.95,11.95,0,0,1-1.2871,1.2354,6.2213,6.2213,0,0,1-1.2217.7861,4.92,4.92,0,0,1-1.2676.41,8.1261,8.1261,0,0,1-1.4111.1163,4.94,4.94,0,0,1-2.0215-.39,3.9954,3.9954,0,0,1-1.4688-1.0986,4.8226,4.8226,0,0,1-.8965-1.7031,7.4179,7.4179,0,0,1-.3056-2.19,9.4646,9.4646,0,0,1,.5-3.0674,8.6306,8.6306,0,0,1,1.3974-2.6005,6.9562,6.9562,0,0,1,2.1387-1.8067,5.5731,5.5731,0,0,1,2.711-.6758,4.7157,4.7157,0,0,1,2.1972.461,4.5985,4.5985,0,0,1,1.5469,1.3457l-.7285.8711a.8194.8194,0,0,1-.2012.1689.4954.4954,0,0,1-.2539.0645.5275.5275,0,0,1-.3574-.1621,4.616,4.616,0,0,0-.461-.3643,3.3259,3.3259,0,0,0-.7089-.3633,3.0594,3.0594,0,0,0-1.085-.1631,3.1786,3.1786,0,0,0-1.69.4873,4.77,4.77,0,0,0-1.3907,1.333,6.7942,6.7942,0,0,0-.9433,2.002,8.6673,8.6673,0,0,0-.3438,2.4834,5.4761,5.4761,0,0,0,.1817,1.4619,3.1393,3.1393,0,0,0,.5459,1.1182,2.51,2.51,0,0,0,.8906.7148,2.8014,2.8014,0,0,0,1.2285.2539,3.6311,3.6311,0,0,0,1.4629-.2607,4.8941,4.8941,0,0,0,.9941-.5655,8.7713,8.7713,0,0,0,.6827-.5654.8257.8257,0,0,1,.5527-.26.5808.5808,0,0,1,.4414.2207Z" transform="translate(-1.2744)"/><path class="o" d="M666.542,175.1324l-1.5859,13.1689h-2.2745l1.586-13.1689Zm.8848-4.1338a1.4686,1.4686,0,0,1-.1368.63,1.8139,1.8139,0,0,1-.3642.52,1.7275,1.7275,0,0,1-.5195.3574,1.4709,1.4709,0,0,1-.6045.13,1.3926,1.3926,0,0,1-.585-.13,1.5894,1.5894,0,0,1-.501-.3574,1.8512,1.8512,0,0,1-.3447-.52,1.5413,1.5413,0,0,1-.13-.63,1.5986,1.5986,0,0,1,.13-.6377,1.7549,1.7549,0,0,1,.8584-.89,1.3328,1.3328,0,0,1,.585-.1367,1.47,1.47,0,0,1,.6044.13,1.6412,1.6412,0,0,1,.5137.3574,1.8107,1.8107,0,0,1,.3574.5332A1.56,1.56,0,0,1,667.4268,170.9986Z" transform="translate(-1.2744)"/><path class="o" d="M673.4326,188.483a5.129,5.129,0,0,1-1.9765-.37,4.3475,4.3475,0,0,1-1.5469-1.0722,4.94,4.94,0,0,1-1.0137-1.7158,6.8164,6.8164,0,0,1-.3642-2.3145,9.3189,9.3189,0,0,1,.52-3.1328,8.3328,8.3328,0,0,1,1.43-2.5674,6.8353,6.8353,0,0,1,2.1387-1.7353,5.6573,5.6573,0,0,1,2.6455-.6377,5.1243,5.1243,0,0,1,1.9756.3711,4.3383,4.3383,0,0,1,1.5469,1.0722,4.9551,4.9551,0,0,1,1.0146,1.7158,6.7958,6.7958,0,0,1,.3633,2.3008,9.2815,9.2815,0,0,1-.52,3.12,8.507,8.507,0,0,1-1.4238,2.5743,6.8026,6.8026,0,0,1-2.1387,1.748A5.6454,5.6454,0,0,1,673.4326,188.483Zm.2207-1.8067a3.019,3.019,0,0,0,1.7227-.5195,4.6789,4.6789,0,0,0,1.3261-1.3848,7.0346,7.0346,0,0,0,.8516-1.9961,9.2194,9.2194,0,0,0,.2988-2.3652,4.37,4.37,0,0,0-.7216-2.7373,2.4832,2.4832,0,0,0-2.0733-.916,3.0641,3.0641,0,0,0-1.7353.5136,4.5385,4.5385,0,0,0-1.32,1.3711,7.0454,7.0454,0,0,0-.8448,1.9893,9.2272,9.2272,0,0,0-.2988,2.3662,4.4586,4.4586,0,0,0,.7148,2.749A2.4636,2.4636,0,0,0,673.6533,186.6763Zm5.6416-17.2119-3.1719,3.3535a1.2765,1.2765,0,0,1-.3505.28.9339.9339,0,0,1-.4161.084H674.082l2.1192-3.1455a1.4209,1.4209,0,0,1,.41-.4356,1.1244,1.1244,0,0,1,.6045-.1367Z" transform="translate(-1.2744)"/><path class="o" d="M685.34,178.4605a8.2121,8.2121,0,0,1,2.379-2.6328,4.8388,4.8388,0,0,1,2.73-.8906,3.0857,3.0857,0,0,1,1.4619.332,2.6514,2.6514,0,0,1,1.0274.9678,4.13,4.13,0,0,1,.54,1.5673,7.86,7.86,0,0,1,0,2.1124l-.9883,8.3847H690.19l.9873-8.3847a4.26,4.26,0,0,0-.1944-2.3077,1.4166,1.4166,0,0,0-1.3916-.748,2.7125,2.7125,0,0,0-1.2676.3389,4.8634,4.8634,0,0,0-1.2412.9619,7.9772,7.9772,0,0,0-1.1113,1.5009,10.5133,10.5133,0,0,0-.8779,1.9571l-.7539,6.6816h-2.3135l1.5859-13.1816h1.1436a.6891.6891,0,0,1,.78.7793Z" transform="translate(-1.2744)"/><path class="o" d="M710.0264,184.8306a11.2172,11.2172,0,0,1-1.0069,1.5078,7.0477,7.0477,0,0,1-1.1445,1.15,4.95,4.95,0,0,1-1.2734.7344,3.7842,3.7842,0,0,1-1.3848.26,3.2441,3.2441,0,0,1-1.417-.3047,2.9641,2.9641,0,0,1-1.0859-.8975,4.3858,4.3858,0,0,1-.6953-1.456,7.2539,7.2539,0,0,1-.2471-1.9825,8.9076,8.9076,0,0,1,.293-2.2812,9.2866,9.2866,0,0,1,2.125-3.9131,8.71,8.71,0,0,1,1.6835-1.4307,8.02,8.02,0,0,1,1.9961-.9355,7.4922,7.4922,0,0,1,2.2354-.3311,9.7684,9.7684,0,0,1,1.6445.1358,6.9581,6.9581,0,0,1,1.58.4746l-1.5732,12.74H710.56a.7034.7034,0,0,1-.6172-.2344.9728.9728,0,0,1-.1621-.5712Zm.8847-8.0859a3.6264,3.6264,0,0,0-.5654-.085c-.1865-.0127-.3711-.0195-.5527-.0195a4.55,4.55,0,0,0-1.5078.2539,5.4028,5.4028,0,0,0-1.3653.708,6.0684,6.0684,0,0,0-1.1572,1.0859,7.045,7.045,0,0,0-.8906,1.3848,7.82,7.82,0,0,0-.5782,1.6055,7.3417,7.3417,0,0,0-.208,1.748q0,3.1333,2.002,3.1328a2.2643,2.2643,0,0,0,1.248-.3965,4.8417,4.8417,0,0,0,1.1631-1.1044,9.271,9.271,0,0,0,1.02-1.6778,15.59,15.59,0,0,0,.8321-2.125Z" transform="translate(-1.2744)"/><path class="o" d="M715.2393,188.3013l2.3271-19.1494h2.2754l-2.3272,19.1494Z" transform="translate(-1.2744)"/><path class="o" d="M614.751,222.3013l1.5859-13.1816h1.1436a.695.695,0,0,1,.7929.7793l-.1816,2.3408a8.1,8.1,0,0,1,2.1387-2.4639,4.1037,4.1037,0,0,1,2.4375-.8388,2.2391,2.2391,0,0,1,1.9756.917,4.5571,4.5571,0,0,1,.6367,2.6191,7.5925,7.5925,0,0,1,2.2041-2.6709,4.4272,4.4272,0,0,1,2.5937-.8652,2.4942,2.4942,0,0,1,2.3916,1.3,6.258,6.258,0,0,1,.416,3.68l-.9882,8.3847h-2.2881l1.001-8.3847a5.276,5.276,0,0,0-.0977-2.3008,1.187,1.187,0,0,0-1.2539-.7549,2.4362,2.4362,0,0,0-1.1113.28,4.0366,4.0366,0,0,0-1.0733.8183,6.5367,6.5367,0,0,0-.9678,1.3389,10.9172,10.9172,0,0,0-.8,1.84v.0127l-.8447,7.15h-2.2881l.9883-8.3847a5.646,5.646,0,0,0-.0527-2.3008,1.1292,1.1292,0,0,0-1.2217-.7549,2.4977,2.4977,0,0,0-1.2022.3125,3.939,3.939,0,0,0-1.0927.9033,7.4286,7.4286,0,0,0-.9551,1.4434,13.8731,13.8731,0,0,0-.8057,1.917l-.8193,6.8642Z" transform="translate(-1.2744)"/><path class="o" d="M640.1133,222.483a5.13,5.13,0,0,1-1.9766-.37,4.3483,4.3483,0,0,1-1.5469-1.0722,4.9409,4.9409,0,0,1-1.0136-1.7158,6.8163,6.8163,0,0,1-.3643-2.3145,9.3189,9.3189,0,0,1,.52-3.1328,8.333,8.333,0,0,1,1.43-2.5674,6.8341,6.8341,0,0,1,2.1387-1.7353,5.657,5.657,0,0,1,2.6455-.6377,5.125,5.125,0,0,1,1.9756.3711,4.3383,4.3383,0,0,1,1.5469,1.0722,4.9582,4.9582,0,0,1,1.0146,1.7158,6.7958,6.7958,0,0,1,.3633,2.3008,9.2815,9.2815,0,0,1-.52,3.12,8.5027,8.5027,0,0,1-1.4238,2.5743,6.8,6.8,0,0,1-2.1387,1.748A5.645,5.645,0,0,1,640.1133,222.483Zm.2207-1.8067a3.0186,3.0186,0,0,0,1.7226-.5195,4.678,4.678,0,0,0,1.3262-1.3848,7.0346,7.0346,0,0,0,.8516-1.9961,9.2194,9.2194,0,0,0,.2988-2.3652,4.3693,4.3693,0,0,0-.7217-2.7373,2.483,2.483,0,0,0-2.0732-.916,3.0647,3.0647,0,0,0-1.7354.5136,4.5408,4.5408,0,0,0-1.32,1.3711,7.0453,7.0453,0,0,0-.8447,1.9893,9.2272,9.2272,0,0,0-.2988,2.3662,4.458,4.458,0,0,0,.7148,2.749A2.4635,2.4635,0,0,0,640.334,220.6763Zm5.6416-17.2119-3.1719,3.3535a1.2782,1.2782,0,0,1-.3506.28.9335.9335,0,0,1-.416.084h-1.2744l2.1191-3.1455a1.42,1.42,0,0,1,.41-.4356,1.1241,1.1241,0,0,1,.6045-.1367Z" transform="translate(-1.2744)"/><path class="o" d="M661.3555,203.1519l-2.3535,19.1494h-1.209a.6825.6825,0,0,1-.61-.2344.9994.9994,0,0,1-.1562-.5712l.247-2.77a10.4368,10.4368,0,0,1-1.0791,1.5469,8.0075,8.0075,0,0,1-1.2285,1.1836,5.3165,5.3165,0,0,1-1.3388.76,3.9177,3.9177,0,0,1-1.4112.2666,3.1112,3.1112,0,0,1-2.626-1.2286,5.8066,5.8066,0,0,1-.9355-3.5683,10.4712,10.4712,0,0,1,.2207-2.1319,11.0291,11.0291,0,0,1,.6309-2.041,9.9356,9.9356,0,0,1,.9882-1.8134,7.4594,7.4594,0,0,1,1.293-1.4493,5.9251,5.9251,0,0,1,1.541-.9619,4.3784,4.3784,0,0,1,1.7354-.3515,4.05,4.05,0,0,1,1.7744.3837,3.8364,3.8364,0,0,1,1.3584,1.086l.8965-7.2549Zm-3.3545,8.8535a2.6715,2.6715,0,0,0-1.1895-.9814,3.7472,3.7472,0,0,0-1.41-.2793,3.0091,3.0091,0,0,0-1.8457.61,5.3893,5.3893,0,0,0-1.3985,1.58,8.2947,8.2947,0,0,0-.89,2.1641,9.3033,9.3033,0,0,0-.3125,2.3535,4.1934,4.1934,0,0,0,.5527,2.3594,1.7968,1.7968,0,0,0,1.5791.8125,2.4,2.4,0,0,0,1.2617-.3907,5.211,5.211,0,0,0,1.2285-1.0849,9.594,9.594,0,0,0,1.1045-1.6446,13.03,13.03,0,0,0,.8907-2.08Z" transform="translate(-1.2744)"/><path class="o" d="M674.3682,209.1324l-1.586,13.1689h-1.1445a.7409.7409,0,0,1-.8447-.832l.1953-2.4053a8.0317,8.0317,0,0,1-2.3467,2.5547,4.8082,4.8082,0,0,1-2.6846.8643,3.14,3.14,0,0,1-1.4687-.3311,2.629,2.629,0,0,1-1.0332-.9687,4.12,4.12,0,0,1-.54-1.56,7.5626,7.5626,0,0,1,.0127-2.1192l.9883-8.372h2.3008l-.9873,8.372a4.2884,4.2884,0,0,0,.1885,2.3008,1.4089,1.4089,0,0,0,1.3974.7539,2.7086,2.7086,0,0,0,1.2344-.3252,4.7049,4.7049,0,0,0,1.2227-.9228,7.9264,7.9264,0,0,0,1.0986-1.4492,10.1246,10.1246,0,0,0,.8769-1.8916l.8194-6.8379Z" transform="translate(-1.2744)"/><path class="o" d="M676.292,222.3013l2.3271-19.1494h2.2745l-2.3272,19.1494Z" transform="translate(-1.2744)"/><path class="o" d="M686.9775,222.483a5.1239,5.1239,0,0,1-1.9755-.37,4.3387,4.3387,0,0,1-1.5469-1.0722,4.9568,4.9568,0,0,1-1.0147-1.7158,6.8416,6.8416,0,0,1-.3633-2.3145,9.3186,9.3186,0,0,1,.52-3.1328,8.3516,8.3516,0,0,1,1.43-2.5674,6.8564,6.8564,0,0,1,2.1386-1.7353,5.6632,5.6632,0,0,1,2.6455-.6377,5.1294,5.1294,0,0,1,1.9766.3711,4.3462,4.3462,0,0,1,1.5469,1.0722,4.955,4.955,0,0,1,1.0137,1.7158,6.7731,6.7731,0,0,1,.3642,2.3008,9.282,9.282,0,0,1-.52,3.12,8.5263,8.5263,0,0,1-1.4228,2.5743,6.8026,6.8026,0,0,1-2.1387,1.748A5.6494,5.6494,0,0,1,686.9775,222.483Zm.2217-1.8067a3.0179,3.0179,0,0,0,1.7217-.5195,4.6681,4.6681,0,0,0,1.3262-1.3848,7.0089,7.0089,0,0,0,.8515-1.9961,9.2151,9.2151,0,0,0,.2989-2.3652,4.3766,4.3766,0,0,0-.7207-2.7373,2.4864,2.4864,0,0,0-2.0743-.916,3.0641,3.0641,0,0,0-1.7353.5136,4.5367,4.5367,0,0,0-1.3193,1.3711,7.0167,7.0167,0,0,0-.8448,1.9893,9.1834,9.1834,0,0,0-.2988,2.3662,4.452,4.452,0,0,0,.7148,2.749A2.4636,2.4636,0,0,0,687.1992,220.6763Z" transform="translate(-1.2744)"/><path class="o" d="M712.6133,220.1822a.6952.6952,0,0,1,.5527.2148.6505.6505,0,0,1,.1367.5528l-.1562,1.3515H701.6543l.0908-.7666a1.5136,1.5136,0,0,1,.5332-.9619l6.1885-6.0195q.87-.8585,1.5723-1.6182a10.6494,10.6494,0,0,0,1.1836-1.5215,7.0449,7.0449,0,0,0,.7412-1.5469,5.4291,5.4291,0,0,0,.26-1.7089,3.2748,3.2748,0,0,0-.2021-1.2032,2.4227,2.4227,0,0,0-.5518-.8574,2.3061,2.3061,0,0,0-.832-.52,3.0508,3.0508,0,0,0-1.0537-.1758,3.4208,3.4208,0,0,0-1.1953.208,3.5721,3.5721,0,0,0-1.02.585,4.1373,4.1373,0,0,0-.8125.8975,4.3288,4.3288,0,0,0-.5459,1.1435,1.1833,1.1833,0,0,1-.4688.5918,1.1078,1.1078,0,0,1-.7275.0713l-1.1436-.1943a7.9712,7.9712,0,0,1,.9287-2.2491,6.4789,6.4789,0,0,1,1.4239-1.6386,5.871,5.871,0,0,1,1.8134-1.001,6.5405,6.5405,0,0,1,2.1123-.3379,5.3877,5.3877,0,0,1,1.8526.3057,4.139,4.139,0,0,1,1.4492.8838,3.9744,3.9744,0,0,1,.9492,1.4042,4.92,4.92,0,0,1,.3379,1.879,6.377,6.377,0,0,1-.3574,2.1835,8.1608,8.1608,0,0,1-.9619,1.8653,13.1967,13.1967,0,0,1-1.4043,1.7031q-.7983.8262-1.6963,1.6963l-5.2129,5.1094c.3643-.0957.7285-.1729,1.0918-.2344a6.3445,6.3445,0,0,1,1.04-.0908Z" transform="translate(-1.2744)"/><line class="q" x1="476.822" y1="143.9017" x2="586.9766" y2="143.9017"/><circle class="o" cx="476.822" cy="143.9017" r="4.5117"/></svg>