<svg xmlns="http://www.w3.org/2000/svg" xmlns:xlink="http://www.w3.org/1999/xlink" viewBox="0 0 654.54 531.4313"><defs><style>.a,.b,.d,.e{fill:#00a3a5;}.a,.l,.o,.r{opacity:0.5;}.b,.f,.i,.n{opacity:0.3;}.c{opacity:0.8;}.e{opacity:0.7;}.g,.m,.n,.r{fill:#d91519;}.g{opacity:0.62;}.h,.k,.o,.p,.q,.s{fill:#fff;}.h,.i,.j,.o,.p{stroke:#d91519;}.h{stroke-miterlimit:10;}.h,.i,.j,.o,.p,.w{stroke-width:2px;}.i,.j,.w{fill:none;}.i,.j,.o,.p,.w{stroke-linecap:round;stroke-linejoin:round;}.q{opacity:0.68;}.s{opacity:0.73;}.t{fill:url(#a);}.u{fill:url(#b);}.v{fill:#606060;}.w{stroke:#606060;}</style><linearGradient id="a" x1="376.6422" y1="201.9401" x2="376.6422" y2="129.3604" gradientUnits="userSpaceOnUse"><stop offset="0" stop-color="#00a3a5" stop-opacity="0"/><stop offset="1" stop-color="#00a3a5"/></linearGradient><linearGradient id="b" x1="276.2122" y1="261.0166" x2="276.2122" y2="188.4369" xlink:href="#a"/></defs><title>2_1</title><path class="a" d="M177.3546,422.3269a19.3993,19.3993,0,0,1-2.7413-6.4439,28.6572,28.6572,0,0,1-.6224-7.9431,64.4283,64.4283,0,0,1,4.1137-18.0639c1.1028-3.0909,2.39-6.19,3.73-9.271,1.359-3.0833,2.8133-6.1531,4.2881-9.2048,1.4973-3.0519,3.0274-6.086,4.5512-9.1023q2.3208-4.5243,4.5645-8.9949a188.9607,188.9607,0,0,0,7.9924-17.5949c2.1418-5.7119,3.5966-11.313,3.2675-16.0967a18.4251,18.4251,0,0,0-.5806-3.5986c-.247-.9021-.7113-1.5824-1.0207-2.4315-.2395-.6569.5946-2.25,1.5388-1.9632a.9189.9189,0,0,1,.45.3861,15.8056,15.8056,0,0,1,2.8179,5.6215,22.87,22.87,0,0,1,.3566,8.1024,51.403,51.403,0,0,1-1.9646,9.0481c-.9315,3.0759-2.0783,6.1741-3.35,9.26-1.2561,3.085-2.66,6.16-4.0806,9.2155-1.4281,3.056-2.9273,6.0934-4.4,9.1129-1.496,3.0193-2.9882,6.0212-4.4348,9.0054q-2.2034,4.476-4.221,8.8955-2.037,4.4193-3.7466,8.7579a74.01,74.01,0,0,0-4.7384,16.6889,28.9122,28.9122,0,0,0,.9929,13.4164,14.4451,14.4451,0,0,1,.7258,2.6509,7.8659,7.8659,0,0,1,.0886,1.496c-.0111.2814.0474,1.0325-.2761,1.3569C179.7534,425.5368,177.6615,422.7865,177.3546,422.3269Z"/><path class="b" d="M98.3576,525.8a24.47,24.47,0,0,1-3.48-8.1451,36.1237,36.1237,0,0,1-.7926-10.0445c.3491-7.1855,2.4021-15.0462,5.2112-22.8512,1.3977-3.9107,3.03-7.8317,4.7282-11.7306,1.7227-3.9015,3.5663-7.7861,5.4359-11.6477,1.8982-3.862,3.8381-7.7015,5.77-11.5185q2.9423-5.7254,5.7868-11.3827a238.8871,238.8871,0,0,0,10.1317-22.2643c2.7147-7.227,4.558-14.3128,4.1386-20.3621a23.2242,23.2242,0,0,0-.738-4.55c-.3136-1.14-.9029-2-1.2958-3.0734-.304-.83.7535-2.8467,1.9514-2.4852a1.1636,1.1636,0,0,1,.5706.4876,19.9451,19.9451,0,0,1,3.5769,7.1049,28.8366,28.8366,0,0,1,.4556,10.2463,64.8862,64.8862,0,0,1-2.4886,11.446c-1.18,3.8914-2.634,7.8115-4.2464,11.7158-1.5922,3.9035-3.3719,7.795-5.1728,11.661-1.81,3.867-3.711,7.7107-5.5775,11.5316-1.8965,3.8208-3.7883,7.62-5.6222,11.3958q-2.7933,5.6642-5.351,11.2565-2.5823,5.592-4.7493,11.0817a93.4456,93.4456,0,0,0-6.0043,21.1134,36.45,36.45,0,0,0,1.2649,16.9657,18.2112,18.2112,0,0,1,.9218,3.3515,9.925,9.925,0,0,1,.1129,1.8918c-.0139.3558.0606,1.3057-.35,1.7164C101.402,529.8559,98.7472,526.3809,98.3576,525.8Z"/><path class="b" d="M364.777,498.9556a24.471,24.471,0,0,1-3.48-8.1451,36.1243,36.1243,0,0,1-.7926-10.0445c.3491-7.1855,2.4021-15.0463,5.2112-22.8513,1.3977-3.9107,3.03-7.8317,4.7282-11.7306,1.7227-3.9015,3.5663-7.786,5.4359-11.6477,1.8982-3.862,3.8381-7.7015,5.77-11.5185q2.9423-5.7253,5.7868-11.3827a238.8857,238.8857,0,0,0,10.1317-22.2642c2.7147-7.227,4.558-14.3128,4.1386-20.3621a23.2252,23.2252,0,0,0-.738-4.55c-.3136-1.14-.9029-2-1.2958-3.0733-.304-.83.7535-2.8468,1.9514-2.4853a1.1636,1.1636,0,0,1,.5706.4876,19.9464,19.9464,0,0,1,3.5769,7.105,28.836,28.836,0,0,1,.4556,10.2462,64.8862,64.8862,0,0,1-2.4886,11.446c-1.1805,3.8914-2.634,7.8115-4.2464,11.7158-1.5922,3.9035-3.3719,7.795-5.1728,11.661-1.81,3.867-3.711,7.7107-5.5775,11.5317-1.8965,3.8207-3.7883,7.62-5.6222,11.3957q-2.7933,5.6643-5.351,11.2566-2.5822,5.592-4.7493,11.0816a93.44,93.44,0,0,0-6.0043,21.1134,36.45,36.45,0,0,0,1.2649,16.9658,18.21,18.21,0,0,1,.9218,3.3514,9.9255,9.9255,0,0,1,.1129,1.8918c-.0139.3559.0606,1.3057-.35,1.7164C367.8213,503.0113,365.1666,499.5363,364.777,498.9556Z"/><path class="b" d="M260.9712,415.4046a24.4707,24.4707,0,0,1-3.48-8.1452,36.1233,36.1233,0,0,1-.7926-10.0444c.349-7.1856,2.4021-15.0463,5.2112-22.8513,1.3977-3.9107,3.03-7.8317,4.7282-11.7306,1.7227-3.9015,3.5663-7.7861,5.4359-11.6477,1.8982-3.862,3.8381-7.7015,5.77-11.5185q2.9423-5.7254,5.7868-11.3827A238.8857,238.8857,0,0,0,293.7623,305.82c2.7147-7.2271,4.558-14.3129,4.1386-20.3621a23.2327,23.2327,0,0,0-.738-4.55c-.3136-1.14-.9029-2-1.2958-3.0734-.304-.83.7535-2.8467,1.9513-2.4852a1.1627,1.1627,0,0,1,.5706.4876,19.9435,19.9435,0,0,1,3.5769,7.1049,28.8365,28.8365,0,0,1,.4557,10.2463,64.8862,64.8862,0,0,1-2.4886,11.446c-1.18,3.8914-2.634,7.8115-4.2465,11.7158-1.5921,3.9035-3.3718,7.795-5.1727,11.661-1.81,3.867-3.711,7.7107-5.5775,11.5317-1.8965,3.8207-3.7883,7.62-5.6223,11.3957q-2.7932,5.6643-5.3509,11.2565-2.5822,5.592-4.7493,11.0817A93.4352,93.4352,0,0,0,263.21,394.39a36.45,36.45,0,0,0,1.2649,16.9657,18.2112,18.2112,0,0,1,.9218,3.3515,9.925,9.925,0,0,1,.1129,1.8918c-.0139.3558.0606,1.3057-.35,1.7164C264.0155,419.46,261.3608,415.9853,260.9712,415.4046Z"/><path class="b" d="M348.7006,314.9926c-1.486,2.9934-2.962,5.9732-4.4024,8.939q-2.7933,5.6643-5.351,11.2566-2.5822,5.592-4.7493,11.0816a93.4456,93.4456,0,0,0-6.0043,21.1134,36.4489,36.4489,0,0,0,1.265,16.9658A18.2157,18.2157,0,0,1,330.38,387.7a9.9255,9.9255,0,0,1,.1129,1.8918c-.0139.3559.0606,1.3057-.35,1.7164-1.1439,1.1453-3.7987-2.33-4.1882-2.91a24.4691,24.4691,0,0,1-3.48-8.1451,36.1243,36.1243,0,0,1-.7926-10.0445c.3491-7.1855,2.4021-15.0463,5.2112-22.8513,1.3977-3.9107,3.03-7.8317,4.7282-11.7306,1.7227-3.9015,3.5664-7.7861,5.4359-11.6477,1.8982-3.862,3.8381-7.7015,5.77-11.5185"/><g class="c"><path class="d" d="M283.07,531.4313a7.517,7.517,0,0,1-2.13-3.6809,15.8031,15.8031,0,0,1-.3861-4.2936,38.9117,38.9117,0,0,1,1.4195-8.4813,124.8645,124.8645,0,0,1,5.8634-16.1067c4.5192-10.4847,9.6831-20.6417,14.6627-30.8624,2.5183-5.0969,4.9924-10.2109,7.3619-15.3672,2.3924-5.1457,4.6325-10.3567,6.6482-15.6454a84.2154,84.2154,0,0,0,4.6238-16.2643,29.8968,29.8968,0,0,0,.2466-8.3973,16.9128,16.9128,0,0,0-1.1178-4.0488,12.8318,12.8318,0,0,0-2.3183-3.5283,12.9925,12.9925,0,0,1,2.5915,3.399,17.1283,17.1283,0,0,1,1.3672,4.09,30.6263,30.6263,0,0,1,.203,8.6125,78.6915,78.6915,0,0,1-4.1283,16.6678c-3.7748,10.81-8.7072,21.1236-13.6833,31.3623-5.0243,10.22-10.2547,20.3224-15.0368,30.6142a141.8275,141.8275,0,0,0-6.3481,15.7472,38.1977,38.1977,0,0,0-1.8289,8.2393,15.5959,15.5959,0,0,0,.1523,4.1953A7.3661,7.3661,0,0,0,283.07,531.4313Z"/></g><ellipse class="e" cx="235.5753" cy="484.0181" rx="2.7326" ry="2.8057" transform="translate(-276.0342 316.6114) rotate(-45.9285)"/><ellipse class="d" cx="235.5753" cy="484.0181" rx="1.093" ry="1.1223" transform="matrix(0.6956, -0.7185, 0.7185, 0.6956, -276.0342, 316.6114)"/><ellipse class="e" cx="342.0101" cy="352.4062" rx="2.7326" ry="2.8057" transform="translate(-149.071 353.0133) rotate(-45.9285)"/><ellipse class="d" cx="342.0101" cy="352.4062" rx="1.093" ry="1.1223" transform="translate(-149.071 353.0133) rotate(-45.9285)"/><ellipse class="e" cx="298.3505" cy="389.2629" rx="4.2899" ry="4.4047" transform="translate(-188.8435 332.8659) rotate(-45.9285)"/><ellipse class="d" cx="298.3505" cy="389.2629" rx="1.716" ry="1.7619" transform="translate(-188.8435 332.8659) rotate(-45.9285)"/><ellipse class="e" cx="180.3086" cy="471.5489" rx="2.7326" ry="2.8057" transform="translate(-283.901 273.1075) rotate(-45.9285)"/><ellipse class="d" cx="180.3086" cy="471.5489" rx="1.093" ry="1.1223" transform="translate(-283.901 273.1075) rotate(-45.9285)"/><ellipse class="e" cx="278.0432" cy="461.9646" rx="4.2899" ry="4.4047" transform="translate(-247.2602 340.4093) rotate(-45.9285)"/><ellipse class="d" cx="278.0432" cy="461.9646" rx="1.716" ry="1.7619" transform="translate(-247.2602 340.4093) rotate(-45.9285)"/><ellipse class="e" cx="235.0018" cy="278.8275" rx="4.2899" ry="4.4047" transform="translate(-128.7849 253.7301) rotate(-45.9285)"/><ellipse class="d" cx="235.0018" cy="278.8275" rx="1.716" ry="1.7619" transform="translate(-128.7849 253.7301) rotate(-45.9285)"/><ellipse class="e" cx="242.0204" cy="332.504" rx="4.2899" ry="4.4047" transform="translate(-165.2132 275.1143) rotate(-45.9285)"/><ellipse class="d" cx="242.0204" cy="332.504" rx="1.716" ry="1.7619" transform="translate(-165.2132 275.1143) rotate(-45.9285)"/><ellipse class="e" cx="353.4466" cy="404.7669" rx="4.2899" ry="4.4047" transform="translate(-183.209 377.1711) rotate(-45.9285)"/><ellipse class="d" cx="353.4466" cy="404.7669" rx="1.716" ry="1.7619" transform="translate(-183.209 377.1711) rotate(-45.9285)"/><ellipse class="e" cx="234.1608" cy="440.6248" rx="2.7326" ry="2.8057" transform="translate(-245.2879 302.3842) rotate(-45.9285)"/><ellipse class="d" cx="234.1608" cy="440.6248" rx="1.093" ry="1.1223" transform="translate(-245.2879 302.3842) rotate(-45.9285)"/><ellipse class="e" cx="286.4856" cy="253.268" rx="2.7326" ry="2.8057" transform="translate(-94.7471 282.9383) rotate(-45.9285)"/><ellipse class="d" cx="286.4856" cy="253.268" rx="1.093" ry="1.1223" transform="translate(-94.7471 282.9383) rotate(-45.9285)"/><ellipse class="e" cx="371.5176" cy="298.7422" rx="4.2899" ry="4.4047" transform="translate(-101.5315 357.8759) rotate(-45.9285)"/><ellipse class="d" cx="371.5176" cy="298.7422" rx="1.716" ry="1.7619" transform="translate(-101.5315 357.8759) rotate(-45.9285)"/><g class="f"><polygon class="g" points="41.712 269.097 184.294 182.219 434.652 325.726 287.192 413.832 41.712 269.097"/><path class="h" d="M204.8444,77.2627,1.001,195.3368l.1383,76.5091L289.9058,437.8847,493.2771,319.9676l-.069-77.1079ZM318.33,386.3007l-23.1283,14.1651a3.78,3.78,0,0,1-3.876.0434L130.6046,306.9729a3.78,3.78,0,0,1-.0726-6.49L153.66,286.3172a3.78,3.78,0,0,1,3.8761-.0433L318.2572,379.81A3.78,3.78,0,0,1,318.33,386.3007Zm47.5954-27.8793-23.1284,14.1651a3.78,3.78,0,0,1-3.876.0434L178.2,279.0936a3.78,3.78,0,0,1-.0726-6.4906l23.1283-14.1652a3.78,3.78,0,0,1,3.8762-.0433l160.7205,93.5363A3.78,3.78,0,0,1,365.925,358.4214Zm45.61-27.8757-23.1284,14.1651a3.78,3.78,0,0,1-3.876.0434L223.81,251.2179a3.78,3.78,0,0,1-.0727-6.4906l23.1284-14.1652a3.78,3.78,0,0,1,3.8761-.0433l160.7205,93.5363A3.78,3.78,0,0,1,411.5351,330.5457Z"/><polyline class="i" points="1.457 271.609 204.979 151.682 204.554 151.616 492.996 317.468"/><polygon class="j" points="493.277 319.968 289.906 437.885 1.139 271.846 1.001 195.337 204.844 77.263 493.208 242.86 493.277 319.968"/><path class="k" d="M268.686,197.9694l-55.4029-31.6627a6.8363,6.8363,0,0,0-6.8212.0213L160.3577,193.06a6.8364,6.8364,0,0,0,.037,11.85l55.4029,31.6627a6.8363,6.8363,0,0,0,6.8212-.0213L268.723,209.819A6.8364,6.8364,0,0,0,268.686,197.9694Z"/><g class="l"><path class="m" d="M268.686,197.9694l-55.4029-31.6627a6.8363,6.8363,0,0,0-6.8212.0213L160.3577,193.06a6.8364,6.8364,0,0,0,.037,11.85l55.4029,31.6627a6.8363,6.8363,0,0,0,6.8212-.0213L268.723,209.819A6.8364,6.8364,0,0,0,268.686,197.9694Z"/></g><path class="m" d="M209.891,167.4058a4.8448,4.8448,0,0,1,2.4.6373l55.4029,31.6627a4.8363,4.8363,0,0,1,.0263,8.3829l-46.1043,26.7318a4.8359,4.8359,0,0,1-4.8256.0151l-55.4029-31.6628a4.8362,4.8362,0,0,1-.0262-8.3829l46.1042-26.7317a4.8413,4.8413,0,0,1,2.4259-.6524m0-2a6.8326,6.8326,0,0,0-3.4291.9221L160.3577,193.06a6.8363,6.8363,0,0,0,.037,11.85l55.4029,31.6628a6.8361,6.8361,0,0,0,6.8212-.0212L268.723,209.819a6.8364,6.8364,0,0,0-.037-11.85l-55.4029-31.6627a6.8324,6.8324,0,0,0-3.3921-.9009Z"/><path class="k" d="M204.0927,234.686,148.69,203.0232a6.8361,6.8361,0,0,0-6.8211.0213L95.7644,229.7763a6.8362,6.8362,0,0,0,.037,11.85l55.4029,31.6628a6.8365,6.8365,0,0,0,6.8212-.0213L204.13,246.5355A6.8363,6.8363,0,0,0,204.0927,234.686Z"/><g class="l"><path class="m" d="M204.0927,234.686,148.69,203.0232a6.8361,6.8361,0,0,0-6.8211.0213L95.7644,229.7763a6.8362,6.8362,0,0,0,.037,11.85l55.4029,31.6628a6.8365,6.8365,0,0,0,6.8212-.0213L204.13,246.5355A6.8363,6.8363,0,0,0,204.0927,234.686Z"/></g><path class="m" d="M145.2977,204.1223a4.8434,4.8434,0,0,1,2.4.6373L203.1,236.4224a4.8363,4.8363,0,0,1,.0262,8.3829L157.0223,271.537a4.8359,4.8359,0,0,1-4.8256.0151l-55.403-31.6628a4.8362,4.8362,0,0,1-.0262-8.3828l46.1042-26.7318a4.8427,4.8427,0,0,1,2.426-.6524m0-2a6.8311,6.8311,0,0,0-3.4291.9223L95.7643,229.7762a6.8364,6.8364,0,0,0,.037,11.85l55.403,31.6628a6.8365,6.8365,0,0,0,6.8212-.0213L204.13,246.5355a6.8363,6.8363,0,0,0-.0369-11.85L148.69,203.0232a6.8325,6.8325,0,0,0-3.3921-.901Z"/><path class="k" d="M140.7237,273.84,85.3208,242.1775a6.8363,6.8363,0,0,0-6.8212.0213L32.3954,268.9306a6.8363,6.8363,0,0,0,.037,11.8495l55.4029,31.6628a6.8363,6.8363,0,0,0,6.8212-.0213L140.7607,285.69A6.8363,6.8363,0,0,0,140.7237,273.84Z"/><g class="l"><path class="m" d="M140.7237,273.84,85.3208,242.1775a6.8363,6.8363,0,0,0-6.8212.0213L32.3954,268.9306a6.8363,6.8363,0,0,0,.037,11.8495l55.4029,31.6628a6.8363,6.8363,0,0,0,6.8212-.0213L140.7607,285.69A6.8363,6.8363,0,0,0,140.7237,273.84Z"/></g><path class="m" d="M81.9288,243.2766a4.8444,4.8444,0,0,1,2.4.6373l55.4029,31.6628a4.8362,4.8362,0,0,1,.0262,8.3829L93.6533,310.6913a4.8359,4.8359,0,0,1-4.8256.0151L33.4248,279.0436a4.8362,4.8362,0,0,1-.0262-8.3828L79.5028,243.929a4.8427,4.8427,0,0,1,2.426-.6524m0-2a6.832,6.832,0,0,0-3.4291.9222L32.3954,268.9305a6.8364,6.8364,0,0,0,.037,11.85l55.4029,31.6628a6.8365,6.8365,0,0,0,6.8212-.0213L140.7607,285.69a6.8363,6.8363,0,0,0-.037-11.8495L85.3208,242.1775a6.8324,6.8324,0,0,0-3.3921-.9009Z"/><path class="k" d="M338.4736,163.6136,310.5425,147.651a3.4465,3.4465,0,0,0-3.4389.0108L283.86,161.1384a3.4465,3.4465,0,0,0,.0187,5.9739L311.81,183.0749a3.4465,3.4465,0,0,0,3.4389-.0107l23.2432-13.4767A3.4465,3.4465,0,0,0,338.4736,163.6136Z"/><g class="l"><path class="m" d="M338.4736,163.6136,310.5425,147.651a3.4465,3.4465,0,0,0-3.4389.0108L283.86,161.1384a3.4465,3.4465,0,0,0,.0187,5.9739L311.81,183.0749a3.4465,3.4465,0,0,0,3.4389-.0107l23.2432-13.4767A3.4465,3.4465,0,0,0,338.4736,163.6136Z"/></g><path class="m" d="M308.8324,149.1968a1.4489,1.4489,0,0,1,.7177.1906L337.4813,165.35a1.4464,1.4464,0,0,1,.0078,2.5072L314.2459,181.334a1.4467,1.4467,0,0,1-1.4433.0045l-27.9311-15.9627a1.4464,1.4464,0,0,1-.0078-2.5072l23.2431-13.4766a1.4481,1.4481,0,0,1,.7256-.1952m0-2a3.4457,3.4457,0,0,0-1.7288.4649l-23.2431,13.4767a3.4465,3.4465,0,0,0,.0187,5.9739l27.931,15.9626a3.4465,3.4465,0,0,0,3.4388-.0107l23.2433-13.4767a3.4465,3.4465,0,0,0-.0187-5.9739L310.5425,147.651a3.4438,3.4438,0,0,0-1.71-.4542Z"/><path class="k" d="M299.3324,141.86l-27.9311-15.9626a3.4467,3.4467,0,0,0-3.4389.0107l-23.2432,13.4767a3.4465,3.4465,0,0,0,.0187,5.9739l27.9311,15.9626a3.4463,3.4463,0,0,0,3.4388-.0107l23.2432-13.4767A3.4465,3.4465,0,0,0,299.3324,141.86Z"/><g class="l"><path class="m" d="M299.3324,141.86l-27.9311-15.9626a3.4467,3.4467,0,0,0-3.4389.0107l-23.2432,13.4767a3.4465,3.4465,0,0,0,.0187,5.9739l27.9311,15.9626a3.4463,3.4463,0,0,0,3.4388-.0107l23.2432-13.4767A3.4465,3.4465,0,0,0,299.3324,141.86Z"/></g><path class="m" d="M269.6912,127.4432a1.4482,1.4482,0,0,1,.7176.1906L298.34,143.5965a1.4464,1.4464,0,0,1,.0078,2.5072L275.1046,159.58a1.4465,1.4465,0,0,1-1.4432.0045L245.73,143.6222a1.4465,1.4465,0,0,1-.0078-2.5072l23.2432-13.4766a1.4478,1.4478,0,0,1,.7256-.1952m0-2a3.4457,3.4457,0,0,0-1.7288.4649l-23.2432,13.4767a3.4465,3.4465,0,0,0,.0187,5.9739l27.931,15.9626a3.4466,3.4466,0,0,0,3.4389-.0107l23.2433-13.4767a3.4465,3.4465,0,0,0-.0187-5.9739l-27.9312-15.9626a3.4438,3.4438,0,0,0-1.71-.4542Z"/><path class="k" d="M260.1911,120.1064,232.26,104.1438a3.4465,3.4465,0,0,0-3.4388.0107L205.578,117.6312a3.4465,3.4465,0,0,0,.0186,5.9739l27.9311,15.9626a3.4465,3.4465,0,0,0,3.4389-.0107L260.21,126.08A3.4465,3.4465,0,0,0,260.1911,120.1064Z"/><g class="l"><path class="m" d="M260.1911,120.1064,232.26,104.1438a3.4465,3.4465,0,0,0-3.4388.0107L205.578,117.6312a3.4465,3.4465,0,0,0,.0186,5.9739l27.9311,15.9626a3.4465,3.4465,0,0,0,3.4389-.0107L260.21,126.08A3.4465,3.4465,0,0,0,260.1911,120.1064Z"/></g><path class="m" d="M230.55,105.69a1.4486,1.4486,0,0,1,.7177.1906l27.9313,15.9627a1.4465,1.4465,0,0,1,.0078,2.5072l-23.2433,13.4767a1.4467,1.4467,0,0,1-1.4433.0045L206.589,121.8686a1.4464,1.4464,0,0,1-.0078-2.5072l23.2431-13.4766a1.4484,1.4484,0,0,1,.7256-.1952m0-2a3.4454,3.4454,0,0,0-1.7287.4649L205.578,117.6312a3.4465,3.4465,0,0,0,.0186,5.9739l27.9311,15.9626a3.4466,3.4466,0,0,0,3.4389-.0107L260.21,126.08a3.4465,3.4465,0,0,0-.0186-5.9739L232.26,104.1438a3.4438,3.4438,0,0,0-1.71-.4542Z"/><path class="n" d="M324.357,310.6332q2.9319-5.7306,5.7662-11.3931a238.8855,238.8855,0,0,0,10.0915-22.2825c2.7016-7.2319,4.5321-14.321,4.1018-20.37a23.2322,23.2322,0,0,0-.7462-4.5489c-.3157-1.14-.9065-1.9984-1.3013-3.071-.3056-.83.7483-2.8481,1.9468-2.4887a1.1629,1.1629,0,0,1,.5715.4865,19.9441,19.9441,0,0,1,3.59,7.0985,28.8368,28.8368,0,0,1,.4742,10.2454,64.8826,64.8826,0,0,1-2.468,11.45c-1.1734,3.8935-2.62,7.8162-4.2252,11.7234-1.5851,3.9064-3.3578,7.8011-5.1517,11.67-1.8034,3.87-3.6971,7.7173-5.5566,11.5417q-.6084,1.2309-1.2154,2.4589"/><path class="n" d="M263.8841,328.96q.6542-1.3,1.3039-2.5961A238.8973,238.8973,0,0,0,275.28,304.0814c2.7016-7.232,4.5321-14.3211,4.1017-20.37a23.231,23.231,0,0,0-.7461-4.5489c-.3157-1.14-.9065-1.9985-1.3014-3.071-.3055-.83.7484-2.8481,1.9469-2.4888a1.1633,1.1633,0,0,1,.5714.4866,19.9431,19.9431,0,0,1,3.59,7.0984,28.8352,28.8352,0,0,1,.4741,10.2455,64.8811,64.8811,0,0,1-2.4679,11.45c-1.1735,3.8936-2.62,7.8163-4.2252,11.7235-1.5852,3.9064-3.3578,7.8011-5.1517,11.67-.9083,1.9493-1.8395,3.8928-2.7777,5.83"/><path class="o" d="M204.8444,77.2627,1.001,195.3368l.1383,76.5091L289.9058,437.8847,493.2771,319.9676l-.069-77.1079Z"/><polygon class="j" points="493.139 243.315 289.767 361.232 1.001 195.193 204.372 77.276 493.139 243.315"/><line class="p" x1="289.6852" y1="360.2238" x2="289.8237" y2="436.8763"/><path class="q" d="M308.6036,294.9081c-1.2226-3.6243-4.2689-7.0818-9.1381-9.8815-12.9845-7.466-34.0146-7.428-46.972.0849-4.7124,2.7322-7.708,6.0769-8.9878,9.5862,0,0-.6828-20.198,30.5261-20.0877s34.3869,14.7445,34.3869,14.7445Z"/><ellipse class="j" cx="275.9952" cy="293.7499" rx="33.2143" ry="19.1779" transform="translate(-0.5303 0.4992) rotate(-0.1035)"/><path class="j" d="M243.5057,294.6977c1.28-3.5093,4.2754-6.854,8.9878-9.5862,12.9574-7.5129,33.9875-7.5509,46.972-.0849,4.8692,2.8,7.9155,6.2572,9.1381,9.8815"/><ellipse class="j" cx="375.9286" cy="235.0548" rx="33.2143" ry="19.1779" transform="translate(-0.4241 0.6797) rotate(-0.1035)"/><path class="j" d="M343.4391,236.0026c1.28-3.5093,4.2755-6.854,8.9878-9.5862,12.9575-7.5129,33.9876-7.5509,46.9721-.0849,4.8692,2.8,7.9155,6.2572,9.1381,9.8815"/><polygon class="p" points="309.188 349.805 288.961 361.532 265.668 347.443 285.895 335.716 309.188 349.805"/><ellipse class="m" cx="287.7418" cy="348.2589" rx="5.2389" ry="3.025" transform="translate(-0.6288 0.5205) rotate(-0.1035)"/><polygon class="p" points="45.329 197.205 25.102 208.932 1.809 194.843 22.036 183.116 45.329 197.205"/><ellipse class="m" cx="23.8828" cy="195.6587" rx="5.2389" ry="3.025" transform="translate(-0.3535 0.0435) rotate(-0.1035)"/><polygon class="p" points="227.833 92.037 207.606 103.765 184.313 89.676 204.54 77.948 227.833 92.037"/><ellipse class="m" cx="206.3869" cy="90.4915" rx="5.2389" ry="3.025" transform="translate(-0.1632 0.3731) rotate(-0.1035)"/><polygon class="p" points="491.844 243.811 471.618 255.538 448.325 241.449 468.551 229.722 491.844 243.811"/><ellipse class="m" cx="470.3982" cy="242.265" rx="5.2389" ry="3.025" transform="translate(-0.437 0.8504) rotate(-0.1035)"/></g><polygon class="p" points="493.328 244.242 289.72 361.806 1.219 195.226 1.219 118.707 205.253 1.067 493.399 167.125 493.328 244.242"/><path class="r" d="M253.409,137.51l-55.4146,31.8024a6.8448,6.8448,0,0,1-6.83-.009l-46.21-26.6816a6.8448,6.8448,0,0,1,.0156-11.8643L200.385,98.9549a6.8448,6.8448,0,0,1,6.83.009l46.21,26.6816A6.8448,6.8448,0,0,1,253.409,137.51Z"/><path class="r" d="M166.3483,187.4246,110.9337,219.227a6.8446,6.8446,0,0,1-6.83-.009l-46.21-26.6816a6.8448,6.8448,0,0,1,.0156-11.8643L113.3243,148.87a6.8448,6.8448,0,0,1,6.83.009l46.21,26.6816A6.8448,6.8448,0,0,1,166.3483,187.4246Z"/><path class="r" d="M321.8967,178.0774,266.4821,209.88a6.8446,6.8446,0,0,1-6.83-.009l-46.21-26.6816a6.8448,6.8448,0,0,1,.0156-11.8643l55.4145-31.8024a6.8448,6.8448,0,0,1,6.83.009l46.21,26.6816A6.8448,6.8448,0,0,1,321.8967,178.0774Z"/><path class="r" d="M234.836,227.9922l-55.4145,31.8024a6.8448,6.8448,0,0,1-6.83-.009l-46.21-26.6816a6.8448,6.8448,0,0,1,.0156-11.8643l55.4145-31.8024a6.8448,6.8448,0,0,1,6.83.009l46.21,26.6816A6.8448,6.8448,0,0,1,234.836,227.9922Z"/><path class="m" d="M203.7921,100.0467h0a4.8511,4.8511,0,0,1,2.4226.6492l46.21,26.6815a4.845,4.845,0,0,1-.0109,8.3978L196.999,167.5775a4.8447,4.8447,0,0,1-4.8342-.0063l-46.21-26.6816a4.8448,4.8448,0,0,1,.011-8.3977L201.38,100.69a4.8519,4.8519,0,0,1,2.4117-.6429m0-2a6.8407,6.8407,0,0,0-3.4071.9082L144.97,130.7573a6.8448,6.8448,0,0,0-.0156,11.8643l46.21,26.6816a6.8447,6.8447,0,0,0,6.83.009L253.4089,137.51a6.8449,6.8449,0,0,0,.0157-11.8644l-46.21-26.6815a6.84,6.84,0,0,0-3.4226-.9172Z"/><path class="m" d="M116.7314,149.9615h0a4.852,4.852,0,0,1,2.4226.6491l46.21,26.6816a4.8449,4.8449,0,0,1-.011,8.3978l-55.4146,31.8023a4.8445,4.8445,0,0,1-4.8341-.0063l-46.21-26.6816a4.8448,4.8448,0,0,1,.011-8.3977L114.32,150.6044a4.8518,4.8518,0,0,1,2.4116-.6429m0-2a6.8407,6.8407,0,0,0-3.4071.9082L57.91,180.6721a6.8448,6.8448,0,0,0-.0155,11.8643l46.21,26.6816a6.8445,6.8445,0,0,0,6.83.009l55.4146-31.8024a6.8449,6.8449,0,0,0,.0156-11.8644l-46.21-26.6815a6.84,6.84,0,0,0-3.4226-.9172Z"/><path class="m" d="M272.28,140.6143h0a4.8507,4.8507,0,0,1,2.4225.6492l46.21,26.6816a4.8448,4.8448,0,0,1-.011,8.3977l-55.4145,31.8023a4.8445,4.8445,0,0,1-4.8341-.0063l-46.21-26.6815a4.8449,4.8449,0,0,1,.011-8.3978l55.4146-31.8023a4.8528,4.8528,0,0,1,2.4116-.6429m0-2a6.8417,6.8417,0,0,0-3.4071.9082l-55.4146,31.8024a6.8449,6.8449,0,0,0-.0155,11.8644l46.21,26.6815a6.8447,6.8447,0,0,0,6.83.009l55.4145-31.8024a6.8448,6.8448,0,0,0,.0157-11.8643l-46.21-26.6816a6.84,6.84,0,0,0-3.4226-.9172Z"/><path class="m" d="M185.2191,190.5291h0a4.8517,4.8517,0,0,1,2.4226.6492l46.21,26.6816a4.8448,4.8448,0,0,1-.0108,8.3977L178.426,258.06a4.8445,4.8445,0,0,1-4.8341-.0063l-46.21-26.6815a4.845,4.845,0,0,1,.0109-8.3978l55.4146-31.8023a4.8528,4.8528,0,0,1,2.4116-.6429m0-2a6.842,6.842,0,0,0-3.4071.9082L126.3975,221.24a6.8449,6.8449,0,0,0-.0156,11.8644l46.21,26.6815a6.8447,6.8447,0,0,0,6.83.009l55.4146-31.8024a6.8448,6.8448,0,0,0,.0155-11.8643l-46.21-26.6816a6.84,6.84,0,0,0-3.4226-.9172Z"/><polygon class="s" points="379.929 179.096 177.425 295.25 177.425 218.259 379.929 102.105 379.929 179.096"/><g class="f"><polygon class="k" points="379.929 179.096 177.425 295.25 177.425 218.259 379.929 102.105 379.929 179.096"/><polygon class="j" points="379.929 179.096 177.425 295.25 177.425 218.259 379.929 102.105 379.929 179.096"/><polyline class="j" points="1.26 195.287 205.253 75.579 204.828 75.512 493.328 242.093"/><path class="r" d="M339.2836,278.405,324.6918,269.98l-.0126-6.4163c.6525-8.114-4.5712-15.9978-14.3385-21.6389-18.6829-10.7884-49.0847-10.7884-67.77,0-9.3391,5.3942-14.44,12.629-14.3838,20.39a1.372,1.372,0,0,0-.01.1563l.0009,14.2115-13.2118,7.5823a7.846,7.846,0,0,0-.0179,13.6l52.9688,30.5842a7.8458,7.8458,0,0,0,7.8286.01l63.52-36.454A7.8459,7.8459,0,0,0,339.2836,278.405Z"/><path class="j" d="M339.2658,292.0046l-63.52,36.454a7.8458,7.8458,0,0,1-7.8286-.01l-52.9688-30.5842a7.846,7.846,0,0,1,.0179-13.6l63.52-36.4539a7.8461,7.8461,0,0,1,7.8286.01l52.9688,30.5842A7.846,7.846,0,0,1,339.2658,292.0046Z"/><path class="j" d="M229.4055,280.9822c.1945,6.8023,4.7865,13.5705,13.7762,18.7612,18.3768,10.6107,48.1715,10.6107,66.5484,0,8.9046-5.1416,13.4945-11.8311,13.7695-18.5684"/><ellipse class="p" cx="276.4559" cy="262.1954" rx="47.0569" ry="27.1706"/><ellipse class="j" cx="276.4559" cy="262.1954" rx="47.0569" ry="27.1706"/><line class="j" x1="229.399" y1="280.7933" x2="229.399" y2="262.4706"/><line class="j" x1="323.4571" y1="262.4706" x2="323.4571" y2="280.7933"/><path class="m" d="M250.368,263.43c-6.3773,3.6822-9.8364,10.6182-3.849,12.1s6.4528-3.7258,12.83-7.4081,11.1194-4.4448,11.9747-5.9264S256.7453,259.7478,250.368,263.43Z"/><path class="m" d="M274.3175,247.1323c-6.3773-3.6823-18.39-5.68-20.9558-2.2225s6.4528,3.7259,12.83,7.4081,7.698,6.42,10.2641,6.9143S280.6948,250.8145,274.3175,247.1323Z"/><path class="m" d="M302.5437,260.9607c6.3773-3.6823,9.8364-10.6183,3.849-12.1s-6.4528,3.7259-12.83,7.4081-11.12,4.4449-11.9748,5.9265S296.1664,264.6429,302.5437,260.9607Z"/><path class="m" d="M278.5942,277.2585c6.3773,3.6822,18.39,5.6795,20.9558,2.2224s-6.4528-3.7258-12.83-7.4081-7.698-6.42-10.264-6.9142S272.2169,273.5763,278.5942,277.2585Z"/><ellipse class="m" cx="276.4559" cy="262.1954" rx="3.6289" ry="2.0953"/><path class="r" d="M439.4476,219.7724l-14.5918-8.4253-.0127-6.4164c.6525-8.114-4.5711-15.9977-14.3384-21.6389-18.683-10.7884-49.0848-10.7884-67.77,0-9.339,5.3942-14.44,12.6291-14.3837,20.39a1.3491,1.3491,0,0,0-.01.1562l.0009,14.2116L315.13,225.6318a7.8461,7.8461,0,0,0-.0178,13.6l52.9687,30.5842a7.8458,7.8458,0,0,0,7.8286.01l63.52-36.4539A7.846,7.846,0,0,0,439.4476,219.7724Z"/><path class="j" d="M439.43,233.3721l-63.52,36.454a7.8463,7.8463,0,0,1-7.8287-.01l-52.9688-30.5842a7.846,7.846,0,0,1,.0179-13.6l63.52-36.454a7.8458,7.8458,0,0,1,7.8286.01l52.9688,30.5842A7.846,7.846,0,0,1,439.43,233.3721Z"/><path class="j" d="M329.5694,222.35c.1945,6.8024,4.7866,13.5706,13.7762,18.7612,18.3768,10.6108,48.1716,10.6108,66.5484,0,8.9047-5.1415,13.4945-11.831,13.7695-18.5683"/><ellipse class="p" cx="376.6198" cy="203.5628" rx="47.0569" ry="27.1706"/><ellipse class="j" cx="376.6198" cy="203.5628" rx="47.0569" ry="27.1706"/><line class="j" x1="329.5629" y1="222.1607" x2="329.5629" y2="203.838"/><line class="j" x1="423.621" y1="203.838" x2="423.621" y2="222.1607"/><path class="m" d="M350.5319,204.7975c-6.3773,3.6823-9.8364,10.6183-3.849,12.1s6.4528-3.7259,12.83-7.4081,11.1194-4.4449,11.9747-5.9265S356.9092,201.1153,350.5319,204.7975Z"/><path class="m" d="M374.4814,188.5c-6.3772-3.6822-18.39-5.6795-20.9558-2.2224s6.4528,3.7259,12.83,7.4081,7.6981,6.42,10.2641,6.9142S380.8587,192.182,374.4814,188.5Z"/><path class="m" d="M402.7076,202.3281c6.3773-3.6822,9.8365-10.6182,3.8491-12.1s-6.4528,3.7258-12.83,7.4081-11.1194,4.4448-11.9748,5.9264S396.33,206.01,402.7076,202.3281Z"/><path class="m" d="M378.7581,218.626c6.3773,3.6822,18.39,5.6795,20.9559,2.2224s-6.4529-3.7259-12.83-7.4081-7.6981-6.42-10.2641-6.9142S372.3809,214.9437,378.7581,218.626Z"/><ellipse class="m" cx="376.6198" cy="203.5628" rx="3.6289" ry="2.0953"/><polygon class="j" points="177.158 266.135 289.537 332.097 493.529 213.61 379.929 149.78 177.158 266.135"/><ellipse class="j" cx="276.1002" cy="261.9267" rx="47.0041" ry="27.1402"/></g><polygon class="j" points="493.328 167.58 289.72 285.144 2.482 118.332 204.828 1 493.328 167.58"/><line class="p" x1="289.6394" y1="284.1353" x2="289.6394" y2="360.7972"/><ellipse class="j" cx="343.0671" cy="278.6614" rx="21.0175" ry="11.8904" transform="translate(-47.6733 485.2265) rotate(-66.9489)"/><path class="j" d="M346.7157,258.9515c3.9518.92,6.5915,5.19,6.5915,11.8057,0,10.0814-6.1294,21.7929-13.6905,26.1583a12.463,12.463,0,0,1-3.6463,1.4506"/><ellipse class="j" cx="395.5772" cy="248.5209" rx="21.0175" ry="11.8904" transform="translate(12.0104 515.2051) rotate(-66.9489)"/><path class="j" d="M399.2259,228.8109c3.9517.92,6.5915,5.19,6.5915,11.8058,0,10.0814-6.13,21.7928-13.6905,26.1582a12.4613,12.4613,0,0,1-3.6463,1.4506"/><ellipse class="j" cx="449.0582" cy="217.4674" rx="21.0175" ry="11.8904" transform="translate(73.1248 545.5215) rotate(-66.9489)"/><path class="j" d="M452.7068,197.7575c3.9518.92,6.5915,5.19,6.5915,11.8057,0,10.0814-6.1294,21.7929-13.69,26.1583a12.46,12.46,0,0,1-3.6463,1.4506"/><polygon class="p" points="309.232 272.915 288.96 284.621 265.663 270.472 285.936 258.767 309.232 272.915"/><ellipse class="m" cx="287.7629" cy="271.3288" rx="5.2454" ry="3.0287"/><polygon class="p" points="46.543 119.648 26.27 131.354 2.974 117.205 23.247 105.499 46.543 119.648"/><ellipse class="m" cx="25.0733" cy="118.0616" rx="5.2454" ry="3.0287"/><polygon class="p" points="228.243 15.902 207.97 27.607 184.674 13.459 204.946 1.753 228.243 15.902"/><ellipse class="m" cx="206.7731" cy="14.3152" rx="5.2454" ry="3.0287"/><polygon class="p" points="492.308 168.342 472.035 180.047 448.739 165.898 469.011 154.193 492.308 168.342"/><ellipse class="m" cx="470.8382" cy="166.7551" rx="5.2454" ry="3.0287"/><path class="r" d="M339.3732,278.0816l-14.63-8.4477-.0127-6.4334c.6543-8.1355-4.5832-16.04-14.3765-21.6963-18.7325-10.8171-49.215-10.8171-67.95,0-9.3639,5.4085-14.4782,12.6625-14.422,20.444a1.3577,1.3577,0,0,0-.01.1567l.0009,14.2493-13.2468,7.6024a7.8668,7.8668,0,0,0-.0179,13.6358l53.1093,30.6653a7.8663,7.8663,0,0,0,7.8493.01l63.6884-36.5507A7.8667,7.8667,0,0,0,339.3732,278.0816Z"/><path class="j" d="M339.3554,291.7173,275.667,328.2681a7.867,7.867,0,0,1-7.8494-.01l-53.1094-30.6654a7.8668,7.8668,0,0,1,.018-13.6358l63.6883-36.5507a7.8667,7.8667,0,0,1,7.8494.01l53.1094,30.6654A7.8668,7.8668,0,0,1,339.3554,291.7173Z"/><path class="j" d="M229.2035,280.6656c.195,6.82,4.7993,13.6066,13.8127,18.811,18.4256,10.6389,48.2995,10.6389,66.7251,0,8.9282-5.1552,13.53-11.8624,13.806-18.6176"/><ellipse class="p" cx="276.3787" cy="261.829" rx="47.1817" ry="27.2427"/><ellipse class="j" cx="276.3787" cy="261.829" rx="47.1817" ry="27.2427"/><line class="j" x1="229.197" y1="280.4762" x2="229.197" y2="262.1049"/><line class="j" x1="323.5047" y1="262.1049" x2="323.5047" y2="280.4762"/><path class="m" d="M250.2216,263.0669c-6.3942,3.692-9.8625,10.6465-3.8592,12.132s6.47-3.7357,12.8641-7.4277,11.149-4.4567,12.0066-5.9422S256.6158,259.3749,250.2216,263.0669Z"/><path class="m" d="M274.2347,246.7259c-6.3942-3.692-18.4386-5.6946-21.0114-2.2283s6.47,3.7357,12.8641,7.4277,7.7185,6.4374,10.2913,6.9326S280.6289,250.4179,274.2347,246.7259Z"/><path class="m" d="M302.5358,260.591c6.3942-3.692,9.8625-10.6464,3.8593-12.132s-6.47,3.7358-12.8642,7.4278-11.1489,4.4566-12.0065,5.9422S296.1416,264.283,302.5358,260.591Z"/><path class="m" d="M278.5228,276.9321c6.3942,3.692,18.4386,5.6946,21.0114,2.2283s-6.47-3.7357-12.8642-7.4278-7.7184-6.4373-10.2913-6.9325S272.1286,273.24,278.5228,276.9321Z"/><ellipse class="m" cx="276.3787" cy="261.829" rx="3.6385" ry="2.1009"/><path class="r" d="M439.803,219.2934l-14.63-8.4477-.0127-6.4333c.6542-8.1356-4.5833-16.04-14.3765-21.6964-18.7325-10.817-49.215-10.817-67.95,0-9.3639,5.4086-14.4782,12.6626-14.4219,20.4441a1.355,1.355,0,0,0-.01.1567l.0009,14.2492-13.2468,7.6024a7.8669,7.8669,0,0,0-.018,13.6359L368.2473,269.47a7.867,7.867,0,0,0,7.8494.01l63.6883-36.5507A7.8668,7.8668,0,0,0,439.803,219.2934Z"/><path class="j" d="M439.7851,232.9292,376.0968,269.48a7.8667,7.8667,0,0,1-7.8494-.01L315.138,238.8043a7.8669,7.8669,0,0,1,.0179-13.6358l63.6884-36.5508a7.867,7.867,0,0,1,7.8494.01l53.1094,30.6653A7.8669,7.8669,0,0,1,439.7851,232.9292Z"/><path class="j" d="M329.6332,221.8775c.195,6.82,4.7993,13.6066,13.8128,18.811,18.4256,10.6389,48.2994,10.6389,66.725,0,8.9283-5.1552,13.53-11.8625,13.806-18.6176"/><ellipse class="p" cx="376.8085" cy="203.0408" rx="47.1817" ry="27.2427"/><ellipse class="j" cx="376.8085" cy="203.0408" rx="47.1817" ry="27.2427"/><line class="j" x1="329.6268" y1="221.6881" x2="329.6268" y2="203.3168"/><line class="j" x1="423.9345" y1="203.3168" x2="423.9345" y2="221.6881"/><path class="m" d="M350.6514,204.2788c-6.3942,3.692-9.8625,10.6464-3.8593,12.132s6.47-3.7358,12.8642-7.4278,11.1489-4.4566,12.0065-5.9422S357.0456,200.5868,350.6514,204.2788Z"/><path class="m" d="M374.6644,187.9378c-6.3942-3.6921-18.4386-5.6947-21.0114-2.2284s6.47,3.7358,12.8642,7.4278,7.7184,6.4374,10.2913,6.9326S381.0587,191.63,374.6644,187.9378Z"/><path class="m" d="M402.9656,201.8029c6.3942-3.692,9.8625-10.6465,3.8592-12.132s-6.47,3.7357-12.8641,7.4277-11.149,4.4567-12.0066,5.9422S396.5714,205.4949,402.9656,201.8029Z"/><path class="m" d="M378.9525,218.1439c6.3942,3.692,18.4386,5.6946,21.0114,2.2284s-6.47-3.7358-12.8641-7.4278-7.7185-6.4374-10.2913-6.9326S372.5583,214.4519,378.9525,218.1439Z"/><ellipse class="m" cx="376.8085" cy="203.0408" rx="3.6385" ry="2.1009"/><polygon class="t" points="376.642 129.36 324.739 165.65 336.555 165.65 336.555 201.94 416.73 201.94 416.73 165.65 428.545 165.65 376.642 129.36"/><polygon class="u" points="276.212 188.437 224.309 224.727 236.125 224.727 236.125 261.017 316.3 261.017 316.3 224.727 328.115 224.727 276.212 188.437"/><path class="v" d="M558.9932,190.8617l-9.2569,18.629H547.54l-4.707-18.629h1.9512a.7428.7428,0,0,1,.5127.169.6812.6812,0,0,1,.2275.416l3.12,13.3115c.0694.2784.1338.583.1944.917s.1133.6826.1562,1.0469c.1211-.3643.2481-.7129.377-1.0469a9.0663,9.0663,0,0,1,.416-.917l6.3574-13.3115a1.1,1.1,0,0,1,.3447-.4033.8919.8919,0,0,1,.5518-.1817Z"/><path class="v" d="M568.9111,207.06a11.5219,11.5219,0,0,1-1.3,1.1758,7.8423,7.8423,0,0,1-1.2939.8125,5.6888,5.6888,0,0,1-1.377.4746,7.68,7.68,0,0,1-1.5547.1494,5.1737,5.1737,0,0,1-2.0273-.377,4.1956,4.1956,0,0,1-1.5215-1.0722,4.8249,4.8249,0,0,1-.9619-1.6836,6.7908,6.7908,0,0,1-.3379-2.21,9.7116,9.7116,0,0,1,.2139-2.0215,9.4479,9.4479,0,0,1,.625-1.917,8.7632,8.7632,0,0,1,1-1.69,6.766,6.766,0,0,1,1.3525-1.3457,6.3615,6.3615,0,0,1,1.6768-.8906,5.8742,5.8742,0,0,1,1.97-.3242,4.7364,4.7364,0,0,1,1.73.2851,3.6863,3.6863,0,0,1,1.1953.7285,2.911,2.911,0,0,1,.6953.9747,2.5744,2.5744,0,0,1,.2285,1.0146,3.557,3.557,0,0,1-.3515,1.5791,3.283,3.283,0,0,1-1.2871,1.3,9.6009,9.6009,0,0,1-2.5743,1.0078,28.3032,28.3032,0,0,1-4.2109.6885c0,.0957-.0029.1885-.0078.28s-.0059.1836-.0059.2793a4.0666,4.0666,0,0,0,.7608,2.6582,2.8084,2.8084,0,0,0,2.2939.917,4.3544,4.3544,0,0,0,1.1114-.13,4.7127,4.7127,0,0,0,.871-.3194,3.7794,3.7794,0,0,0,.6758-.416q.293-.2269.5332-.416a5.42,5.42,0,0,1,.4492-.3183.7855.7855,0,0,1,.4161-.13.581.581,0,0,1,.4414.2207Zm-3.666-9.2559a3.3719,3.3719,0,0,0-1.5078.3379,4.0379,4.0379,0,0,0-1.2226.9287,5.6959,5.6959,0,0,0-.91,1.3916,8.335,8.335,0,0,0-.584,1.7227,25.4108,25.4108,0,0,0,3.2109-.5654,8.02,8.02,0,0,0,1.8594-.6895,1.7947,1.7947,0,0,0,1.0655-1.6963,1.2638,1.2638,0,0,0-.1045-.4873,1.2805,1.2805,0,0,0-.3311-.4619,1.8,1.8,0,0,0-.5908-.3447A2.5429,2.5429,0,0,0,565.2451,197.8041Z"/><path class="v" d="M574.3057,199.65a8.2118,8.2118,0,0,1,2.3789-2.6328,4.84,4.84,0,0,1,2.73-.8906,3.089,3.089,0,0,1,1.462.332,2.6512,2.6512,0,0,1,1.0273.9678,4.1306,4.1306,0,0,1,.54,1.5674,7.8515,7.8515,0,0,1,0,2.1123l-.9882,8.3848h-2.3008l.9873-8.3848a4.27,4.27,0,0,0-.1944-2.3076,1.4165,1.4165,0,0,0-1.3916-.7481,2.7091,2.7091,0,0,0-1.2675.3389,4.8617,4.8617,0,0,0-1.2412.9619,7.9707,7.9707,0,0,0-1.1114,1.501,10.5253,10.5253,0,0,0-.8779,1.957l-.7539,6.6817h-2.3135l1.586-13.1817h1.1435a.6891.6891,0,0,1,.78.7793Z"/><path class="v" d="M597.4717,198.2328l-1.3779,11.2579h-2.2491l1.3907-11.2579h-6.1485l-.8066,6.5q-.0645.5333-.1035.8575t-.0586.52c-.0127.13-.0215.2207-.0254.2724s-.0069.0918-.0069.1172a1.3573,1.3573,0,0,0,.3116.9815,1.1292,1.1292,0,0,0,.8457.3183,1.7111,1.7111,0,0,0,.5976-.0967,2.6021,2.6021,0,0,0,.4492-.2148c.125-.0781.2305-.1494.3184-.2148a.4065.4065,0,0,1,.2334-.0977.2361.2361,0,0,1,.1631.0527.6347.6347,0,0,1,.123.169l.4805,1.1045a4.7142,4.7142,0,0,1-1.4355.8779,4.4528,4.4528,0,0,1-1.6319.3184,2.7736,2.7736,0,0,1-1.9892-.69,2.703,2.703,0,0,1-.7539-2.0019c0-.0518.0019-.1182.0058-.2012s.0137-.2012.0274-.3574c.0117-.1563.0312-.3594.0576-.6114s.0654-.58.1172-.9873l.8193-6.6172h-1.43a.3983.3983,0,0,1-.3125-.13.4716.4716,0,0,1-.0918-.377l.1045-.8848,2.0029-.26.9873-4.0948a.73.73,0,0,1,.2022-.3183.4919.4919,0,0,1,.3437-.124h1.2227l-.56,4.55h8.3721Zm1.34-6.0449a1.47,1.47,0,0,1-.1367.63,1.8337,1.8337,0,0,1-.3642.52,1.717,1.717,0,0,1-.5206.3574,1.4691,1.4691,0,0,1-.6035.13,1.4,1.4,0,0,1-.5859-.13,1.5837,1.5837,0,0,1-.5-.3574,1.8512,1.8512,0,0,1-.3447-.52,1.5233,1.5233,0,0,1-.13-.63,1.58,1.58,0,0,1,.13-.6377,1.7437,1.7437,0,0,1,.8584-.89,1.3254,1.3254,0,0,1,.5839-.1367,1.4716,1.4716,0,0,1,.6055.13,1.6553,1.6553,0,0,1,.5137.3575,1.8489,1.8489,0,0,1,.3574.5332A1.5605,1.5605,0,0,1,598.8115,192.1879Z"/><path class="v" d="M599.7334,209.4907l2.3281-19.15h2.2744l-2.3271,19.15Z"/><path class="v" d="M613.6563,206.02a11.2236,11.2236,0,0,1-1.0069,1.5078,7.0517,7.0517,0,0,1-1.1445,1.15,4.9637,4.9637,0,0,1-1.2735.7343,3.7855,3.7855,0,0,1-1.3847.26,3.2441,3.2441,0,0,1-1.417-.3047,2.9631,2.9631,0,0,1-1.0859-.8975,4.3869,4.3869,0,0,1-.6954-1.456,7.2186,7.2186,0,0,1-.247-1.9824,8.9121,8.9121,0,0,1,.2929-2.2813,9.29,9.29,0,0,1,2.125-3.9131,8.6828,8.6828,0,0,1,1.6836-1.4306,8.0007,8.0007,0,0,1,1.9961-.9356,7.4874,7.4874,0,0,1,2.2354-.331,9.7685,9.7685,0,0,1,1.6445.1357,6.9353,6.9353,0,0,1,1.5791.4746l-1.5723,12.74H614.19a.7057.7057,0,0,1-.6182-.2344.98.98,0,0,1-.1621-.5713Zm.8837-8.086a3.5979,3.5979,0,0,0-.5644-.0849c-.1875-.0127-.3711-.02-.5527-.02a4.5489,4.5489,0,0,0-1.5079.2539,5.3737,5.3737,0,0,0-1.3652.708,6.04,6.04,0,0,0-1.1572,1.086,7.0413,7.0413,0,0,0-.8906,1.3847,7.8157,7.8157,0,0,0-.5791,1.6055,7.3362,7.3362,0,0,0-.2071,1.7481q0,3.1332,2.002,3.1328a2.27,2.27,0,0,0,1.248-.3965,4.8625,4.8625,0,0,0,1.1631-1.1045,9.33,9.33,0,0,0,1.02-1.6777,15.5873,15.5873,0,0,0,.832-2.125Z"/><path class="v" d="M631.4531,190.3412l-2.3525,19.15h-1.209a.6834.6834,0,0,1-.6113-.2344,1.0075,1.0075,0,0,1-.1563-.5713l.2471-2.7695a10.3028,10.3028,0,0,1-1.0791,1.5468,7.9669,7.9669,0,0,1-1.2285,1.1836,5.2981,5.2981,0,0,1-1.3389.76,3.9176,3.9176,0,0,1-1.4111.2666,3.1081,3.1081,0,0,1-2.625-1.2285,5.8,5.8,0,0,1-.9365-3.5684,10.4084,10.4084,0,0,1,.2216-2.1318,11.032,11.032,0,0,1,.63-2.041,9.9462,9.9462,0,0,1,.9883-1.8135,7.46,7.46,0,0,1,1.2939-1.4492,5.9177,5.9177,0,0,1,1.54-.9619,4.378,4.378,0,0,1,1.7353-.3516,4.0432,4.0432,0,0,1,1.7745.3838,3.8349,3.8349,0,0,1,1.3583,1.0859l.8965-7.2549Zm-3.3545,8.8536a2.6716,2.6716,0,0,0-1.1894-.9815,3.7458,3.7458,0,0,0-1.41-.2793,3.0088,3.0088,0,0,0-1.8457.61,5.4013,5.4013,0,0,0-1.3984,1.58,8.2929,8.2929,0,0,0-.89,2.1641,9.3019,9.3019,0,0,0-.3115,2.3535,4.1936,4.1936,0,0,0,.5518,2.3594,1.7979,1.7979,0,0,0,1.5791.8125,2.4,2.4,0,0,0,1.2617-.3906,5.2135,5.2135,0,0,0,1.2285-1.085,9.6107,9.6107,0,0,0,1.1055-1.6445,13.03,13.03,0,0,0,.89-2.08Z"/><path class="v" d="M637.459,209.6723a5.123,5.123,0,0,1-1.9756-.37,4.3389,4.3389,0,0,1-1.5469-1.0723,4.9542,4.9542,0,0,1-1.0146-1.7158,6.8163,6.8163,0,0,1-.3643-2.3145,9.3194,9.3194,0,0,1,.52-3.1328,8.3548,8.3548,0,0,1,1.43-2.5674,6.8353,6.8353,0,0,1,2.1387-1.7353,5.6612,5.6612,0,0,1,2.6455-.6377,5.1337,5.1337,0,0,1,1.9766.3711,4.3482,4.3482,0,0,1,1.5468,1.0723,4.9516,4.9516,0,0,1,1.0137,1.7158,6.7954,6.7954,0,0,1,.3633,2.3008,9.2844,9.2844,0,0,1-.5195,3.12,8.5033,8.5033,0,0,1-1.4239,2.5742,6.7789,6.7789,0,0,1-2.1386,1.748A5.6428,5.6428,0,0,1,637.459,209.6723Zm.2217-1.8066a3.0179,3.0179,0,0,0,1.7216-.52,4.6664,4.6664,0,0,0,1.3262-1.3847,7.0346,7.0346,0,0,0,.8516-1.9961,9.22,9.22,0,0,0,.2988-2.3653,4.37,4.37,0,0,0-.7217-2.7373,2.4831,2.4831,0,0,0-2.0732-.916,3.064,3.064,0,0,0-1.7354.5137,4.5515,4.5515,0,0,0-1.32,1.3711,7.0422,7.0422,0,0,0-.8437,1.9892,9.1834,9.1834,0,0,0-.2989,2.3662,4.4525,4.4525,0,0,0,.7149,2.7491A2.4635,2.4635,0,0,0,637.6807,207.8657Z"/><path class="v" d="M649.3535,199.9877a11.2648,11.2648,0,0,1,1.124-1.9179,5.651,5.651,0,0,1,1.2676-1.2735,3.1463,3.1463,0,0,1,1.3653-.56,2.6566,2.6566,0,0,1,1.43.2149l-.416,2.2226a2.66,2.66,0,0,0-2.9824.4942,8.6727,8.6727,0,0,0-2.1,4.2256l-.7285,6.0967h-2.2617l1.5859-13.1817h1.1445a.6954.6954,0,0,1,.793.7793Z"/><line class="w" x1="417.5293" y1="199.0922" x2="524.5293" y2="199.0922"/><path class="v" d="M417.5293,203.6039a4.5118,4.5118,0,1,1,4.5116-4.5117A4.5122,4.5122,0,0,1,417.5293,203.6039Z"/></svg>