<svg xmlns="http://www.w3.org/2000/svg" viewBox="0 0 744.1963 416.4121"><defs><style>.a,.f,.h{fill:#d91519;}.a{opacity:0.91;}.b,.c{fill:#fff;}.b,.e{stroke:#d91519;}.b,.e,.i{stroke-linecap:round;stroke-linejoin:round;stroke-width:2px;}.d{opacity:0.3;}.e,.i{fill:none;}.f,.g{opacity:0.5;}.i{stroke:#606060;}.j{fill:#606060;}</style></defs><title>3_1</title><path class="a" d="M500.1175,410.1088h0a3.464,3.464,0,0,1-5.1961-3V271.7106a3.4641,3.4641,0,0,1,1.732-3h0a3.4641,3.4641,0,0,1,5.1962,3V407.1088A3.4641,3.4641,0,0,1,500.1175,410.1088Z" transform="translate(-0.6494 -3.166)"/><path class="a" d="M514.1175,419.1088h0a3.464,3.464,0,0,1-5.1961-3V280.7106a3.4641,3.4641,0,0,1,1.732-3h0a3.4641,3.4641,0,0,1,5.1962,3V416.1088A3.4641,3.4641,0,0,1,514.1175,419.1088Z" transform="translate(-0.6494 -3.166)"/><polygon class="b" points="604.268 198.782 584.734 210.06 557.055 194.079 576.589 182.8 604.268 198.782"/><path class="b" d="M569.723,221.7425H587.55L584.1219,49.5568c-.0763-1.8145-2.51-3.2613-5.4853-3.2613h0c-2.9756,0-5.409,1.4468-5.4852,3.2613Z" transform="translate(-0.6494 -3.166)"/><polygon class="c" points="627.88 224.726 373.794 78.017 193.872 181.904 194.137 182.057 193.872 182.031 193.872 249.647 448.811 396.849 628.733 292.962 628.795 224.816 627.88 224.726"/><polygon class="b" points="604.728 198.967 604.728 211.092 593.447 205.029 604.728 198.967"/><g class="d"><polyline class="e" points="194.153 249.684 373.837 143.962 628.489 290.998"/><line class="e" x1="374.2118" y1="78.2514" x2="374.2118" y2="144.0213"/></g><polyline class="e" points="628.795 224.816 628.733 292.962 448.811 396.849 193.873 249.647 193.873 182.031"/><path class="f" d="M406.3211,231.5725l144.0174,83.1556a5.7747,5.7747,0,0,0,5.7751,0l28.34-16.3634a5.7748,5.7748,0,0,0,0-10.002L440.4362,205.207a5.7747,5.7747,0,0,0-5.7751,0l-28.34,16.3635A5.7748,5.7748,0,0,0,406.3211,231.5725Z" transform="translate(-0.6494 -3.166)"/><g class="g"><path class="f" d="M304.8264,291.711l142.6877,82.3879a5.7749,5.7749,0,0,0,5.7752,0l30.1127-17.3871a5.7747,5.7747,0,0,0,0-10.002L340.7143,264.3219a5.7749,5.7749,0,0,0-5.7752,0L304.8264,281.709A5.7748,5.7748,0,0,0,304.8264,291.711Z" transform="translate(-0.6494 -3.166)"/><path class="h" d="M337.8267,265.5481a3.7787,3.7787,0,0,1,1.8875.5059L482.402,348.4417a3.775,3.775,0,0,1,0,6.5383l-30.1128,17.3869a3.7753,3.7753,0,0,1-3.775,0L305.8264,289.979a3.7748,3.7748,0,0,1,0-6.538l30.1128-17.3872a3.7808,3.7808,0,0,1,1.8875-.5057m0-2a5.7709,5.7709,0,0,0-2.8876.7738L304.8264,281.709a5.7748,5.7748,0,0,0,0,10.0021l142.6877,82.3878a5.7752,5.7752,0,0,0,5.7751,0l30.1129-17.387a5.775,5.775,0,0,0,0-10.0022L340.7143,264.3219a5.7706,5.7706,0,0,0-2.8876-.7738Z" transform="translate(-0.6494 -3.166)"/></g><g class="g"><path class="f" d="M351.3633,264.8406,494.051,347.2285a5.7749,5.7749,0,0,0,5.7752,0l30.1127-17.3871a5.7747,5.7747,0,0,0,0-10.002L387.2512,237.4515a5.7749,5.7749,0,0,0-5.7752,0l-30.1127,17.3871A5.7748,5.7748,0,0,0,351.3633,264.8406Z" transform="translate(-0.6494 -3.166)"/><path class="h" d="M384.3636,238.6777a3.7816,3.7816,0,0,1,1.8876.5058l142.6876,82.3879a3.7747,3.7747,0,0,1,0,6.538l-30.1126,17.3872a3.7764,3.7764,0,0,1-3.7752,0L352.3633,263.1085a3.7748,3.7748,0,0,1,0-6.5379l30.1128-17.387a3.78,3.78,0,0,1,1.8875-.5059m0-2a5.7717,5.7717,0,0,0-2.8876.7738l-30.1127,17.3871a5.7748,5.7748,0,0,0,0,10.002L494.051,347.2285a5.7754,5.7754,0,0,0,5.7752,0l30.1128-17.3871a5.7748,5.7748,0,0,0,0-10.002L387.2512,237.4515a5.7717,5.7717,0,0,0-2.8876-.7738Z" transform="translate(-0.6494 -3.166)"/></g><path class="f" d="M315.02,197.7926l35.4312,20.458a5.7749,5.7749,0,0,0,5.7752,0l44.7387-25.8321a5.7748,5.7748,0,0,0,0-10.002l-35.4313-20.458a5.7749,5.7749,0,0,0-5.7752,0L315.02,187.7906A5.7748,5.7748,0,0,0,315.02,197.7926Z" transform="translate(-0.6494 -3.166)"/><path class="h" d="M362.6464,163.1847a3.7787,3.7787,0,0,1,1.8875.5059l35.4313,20.458a3.7746,3.7746,0,0,1,0,6.5378l-44.7386,25.8322a3.7749,3.7749,0,0,1-3.7751,0L316.02,196.0605a3.7747,3.7747,0,0,1,0-6.5379l44.7387-25.832a3.779,3.779,0,0,1,1.8875-.5059m0-2a5.77,5.77,0,0,0-2.8875.7738L315.02,187.7905a5.7749,5.7749,0,0,0,0,10.0021l35.4313,20.458a5.7747,5.7747,0,0,0,5.7752,0l44.7387-25.8321a5.7748,5.7748,0,0,0,0-10.002l-35.4313-20.458a5.7706,5.7706,0,0,0-2.8876-.7738Z" transform="translate(-0.6494 -3.166)"/><path class="h" d="M437.5486,206.4332a3.78,3.78,0,0,1,1.8876.5059l144.0173,83.1556a3.7747,3.7747,0,0,1,0,6.5379l-28.34,16.3635a3.7741,3.7741,0,0,1-3.775,0L407.3212,229.8405a3.7747,3.7747,0,0,1,0-6.5379l28.34-16.3635a3.7794,3.7794,0,0,1,1.8874-.5059m0-2a5.7716,5.7716,0,0,0-2.8875.7738l-28.34,16.3636a5.7747,5.7747,0,0,0,0,10.0019l144.0174,83.1556a5.7739,5.7739,0,0,0,5.7751,0l28.34-16.3635a5.7747,5.7747,0,0,0,0-10.0019L440.4362,205.207a5.7717,5.7717,0,0,0-2.8876-.7738Z" transform="translate(-0.6494 -3.166)"/><g class="g"><path class="f" d="M228.5945,247.6948l49.1707,28.3911a5.7749,5.7749,0,0,0,5.7752,0l43.409-25.0643a5.7748,5.7748,0,0,0,0-10.002l-49.1707-28.3912a5.7749,5.7749,0,0,0-5.7752,0l-43.409,25.0643A5.7749,5.7749,0,0,0,228.5945,247.6948Z" transform="translate(-0.6494 -3.166)"/><path class="h" d="M274.8911,213.8546a3.7784,3.7784,0,0,1,1.8875.5059l49.1708,28.391a3.7749,3.7749,0,0,1,0,6.5381L282.54,274.3539a3.7747,3.7747,0,0,1-3.775,0l-49.1708-28.3913a3.7747,3.7747,0,0,1,0-6.5378l43.4091-25.0643a3.779,3.779,0,0,1,1.8875-.5059m0-2a5.7706,5.7706,0,0,0-2.8876.7738l-43.409,25.0643a5.7748,5.7748,0,0,0,0,10.002l49.1708,28.3912a5.7746,5.7746,0,0,0,5.7751,0L326.95,251.0216a5.7749,5.7749,0,0,0,0-10.0021l-49.1708-28.3911a5.7706,5.7706,0,0,0-2.8876-.7738Z" transform="translate(-0.6494 -3.166)"/></g><polygon class="e" points="628.733 225.218 448.811 329.105 193.873 181.904 373.794 78.017 628.733 225.218"/><line class="b" x1="448.7398" y1="328.2139" x2="448.7398" y2="395.9574"/><path class="b" d="M584.0336,49.0593s-3.7119,5.5891-10.794,0" transform="translate(-0.6494 -3.166)"/><polygon class="b" points="304.573 132.624 286.677 142.957 254.589 124.115 272.484 113.782 304.573 132.624"/><ellipse class="h" cx="273.1416" cy="124.0922" rx="4.6304" ry="2.6736"/><polygon class="b" points="568.416 285.938 550.52 296.271 518.432 277.429 536.327 267.096 568.416 285.938"/><ellipse class="h" cx="549.4637" cy="284.5372" rx="4.6304" ry="2.6736"/><polygon class="b" points="484.56 152.234 502.456 162.566 534.544 143.725 516.649 133.392 484.56 152.234"/><ellipse class="h" cx="515.9912" cy="143.7021" rx="4.6304" ry="2.6736"/><polygon class="b" points="292.026 264.545 309.922 274.878 342.01 256.037 324.114 245.704 292.026 264.545"/><ellipse class="h" cx="310.9781" cy="263.1446" rx="4.6304" ry="2.6736"/><polygon class="b" points="557.516 231.606 585.698 247.876 585.698 210.301 557.516 194.03 557.516 231.606"/><line class="i" x1="446.2618" y1="229.7791" x2="446.2618" y2="73.3223"/><path class="j" d="M451.423,232.9451a4.5118,4.5118,0,1,1-4.5117-4.5115A4.5124,4.5124,0,0,1,451.423,232.9451Z" transform="translate(-0.6494 -3.166)"/><path class="i" d="M354.0109,194.2034V110.1226a15.1107,15.1107,0,0,0-7.6516-13.1412L293.0784,67.2955" transform="translate(-0.6494 -3.166)"/><path class="j" d="M358.5226,194.2034a4.5118,4.5118,0,1,1-4.5117-4.5115A4.5123,4.5123,0,0,1,358.5226,194.2034Z" transform="translate(-0.6494 -3.166)"/><path class="j" d="M406.6768,5.7266H401.19l-2.0537,16.5879h-2.4179l2.0273-16.5879h-5.5117l.2344-2.0411h13.455Z" transform="translate(-0.6494 -3.166)"/><path class="j" d="M414.9053,18.8438a11.3228,11.3228,0,0,1-1.0078,1.5078,6.9769,6.9769,0,0,1-1.1436,1.15,4.9686,4.9686,0,0,1-1.2744.7343,3.7818,3.7818,0,0,1-1.3838.2608,3.2383,3.2383,0,0,1-1.417-.3057,2.9426,2.9426,0,0,1-1.0859-.8965,4.3625,4.3625,0,0,1-.6953-1.457,7.21,7.21,0,0,1-.2471-1.9824,8.9571,8.9571,0,0,1,.292-2.2813,9.3552,9.3552,0,0,1,.832-2.1,9.2254,9.2254,0,0,1,1.294-1.8125,8.6479,8.6479,0,0,1,1.6836-1.4307,7.997,7.997,0,0,1,1.9951-.9365,7.4976,7.4976,0,0,1,2.2363-.331,9.7767,9.7767,0,0,1,1.6445.1367,6.8822,6.8822,0,0,1,1.5791.4736l-1.5732,12.74h-1.1953a.707.707,0,0,1-.6182-.2334.9785.9785,0,0,1-.1621-.5723Zm.8838-8.086a3.711,3.711,0,0,0-.5655-.084c-.1865-.0136-.37-.02-.5527-.02a4.5561,4.5561,0,0,0-1.5078.2529,5.4054,5.4054,0,0,0-1.3652.708,6.0952,6.0952,0,0,0-1.1563,1.086,7.1006,7.1006,0,0,0-.8906,1.3847,7.8584,7.8584,0,0,0-.5791,1.6055,7.3429,7.3429,0,0,0-.208,1.7481q0,3.1347,2.0019,3.1328a2.2576,2.2576,0,0,0,1.2481-.3965,4.8475,4.8475,0,0,0,1.164-1.1045,9.3177,9.3177,0,0,0,1.02-1.6768,15.8407,15.8407,0,0,0,.8321-2.125Z" transform="translate(-0.6494 -3.166)"/><path class="j" d="M423.3545,12.8125a11.1285,11.1285,0,0,1,1.125-1.918,5.5913,5.5913,0,0,1,1.2676-1.2734,3.1247,3.1247,0,0,1,1.3652-.56,2.6587,2.6587,0,0,1,1.43.2139l-.416,2.2236a2.66,2.66,0,0,0-2.9834.4942,8.6809,8.6809,0,0,0-2.1,4.2246l-.7285,6.0967h-2.2618l1.586-13.1817h1.1445a.6954.6954,0,0,1,.793.78Z" transform="translate(-0.6494 -3.166)"/><path class="j" d="M432.9355,9.1465,431.1934,23.29a5.111,5.111,0,0,1-.39,1.4756,4.0259,4.0259,0,0,1-.7871,1.19,3.4979,3.4979,0,0,1-1.1758.7988,4.4153,4.4153,0,0,1-2.334.2285,3.5191,3.5191,0,0,1-.63-.1953l.2334-1.248a.4469.4469,0,0,1,.0976-.1758.262.262,0,0,1,.1563-.0713,1.4754,1.4754,0,0,1,.247-.0068c.1.0039.2227.0068.37.0068a1.7826,1.7826,0,0,0,1.3653-.4746,2.7742,2.7742,0,0,0,.5849-1.5274L430.66,9.1465Zm.8194-4.1348a1.4774,1.4774,0,0,1-.1367.6309,1.81,1.81,0,0,1-.3643.5195,1.7115,1.7115,0,0,1-.5137.3574,1.4238,1.4238,0,0,1-.5976.1309,1.3851,1.3851,0,0,1-.5918-.1309,1.5838,1.5838,0,0,1-.4942-.3574,1.8241,1.8241,0,0,1-.3437-.5195,1.5335,1.5335,0,0,1-.1309-.6309,1.5776,1.5776,0,0,1,.1309-.6367,1.7291,1.7291,0,0,1,.3506-.5264,1.81,1.81,0,0,1,.501-.3642,1.328,1.328,0,0,1,.5908-.1367,1.4316,1.4316,0,0,1,.5986.1308,1.712,1.712,0,0,1,.5127.3574,1.6412,1.6412,0,0,1,.3574.5332A1.62,1.62,0,0,1,433.7549,5.0117Z" transform="translate(-0.6494 -3.166)"/><path class="j" d="M445.26,19.8838a11.7009,11.7009,0,0,1-1.3,1.1767,7.9648,7.9648,0,0,1-1.294.8125,5.6867,5.6867,0,0,1-1.3779.4747,7.6634,7.6634,0,0,1-1.5537.1494,5.1923,5.1923,0,0,1-2.0274-.377,4.1805,4.1805,0,0,1-1.5215-1.0732,4.8159,4.8159,0,0,1-.9619-1.6836,6.7846,6.7846,0,0,1-.3379-2.209,9.7116,9.7116,0,0,1,.2139-2.0215,9.5485,9.5485,0,0,1,.624-1.918,8.74,8.74,0,0,1,1.001-1.6894,6.7371,6.7371,0,0,1,1.3525-1.3457,6.36,6.36,0,0,1,1.6768-.8906,5.85,5.85,0,0,1,1.97-.3252,4.7262,4.7262,0,0,1,1.7285.2861,3.6808,3.6808,0,0,1,1.1963.7285,2.8937,2.8937,0,0,1,.6954.9746,2.574,2.574,0,0,1,.2275,1.0137,3.5594,3.5594,0,0,1-.3506,1.58,3.29,3.29,0,0,1-1.2871,1.3,9.5813,9.5813,0,0,1-2.5742,1.0068,28.2962,28.2962,0,0,1-4.2119.6895c0,.0957-.002.1884-.0069.2793s-.0058.1845-.0058.2793a4.06,4.06,0,0,0,.7607,2.6582,2.8085,2.8085,0,0,0,2.294.917,4.3088,4.3088,0,0,0,1.1113-.13,4.7487,4.7487,0,0,0,.8711-.3184,3.7923,3.7923,0,0,0,.6758-.416c.1953-.1514.373-.291.5332-.416a5.0368,5.0368,0,0,1,.4492-.3184.7729.7729,0,0,1,.415-.1308.5794.5794,0,0,1,.4424.2216Zm-3.666-9.2559a3.3724,3.3724,0,0,0-1.5079.3379,4.0155,4.0155,0,0,0-1.2226.93,5.6969,5.6969,0,0,0-.91,1.3916,8.3013,8.3013,0,0,0-.5849,1.7217,25.225,25.225,0,0,0,3.2119-.5654,7.9652,7.9652,0,0,0,1.8584-.69,1.7909,1.7909,0,0,0,1.0664-1.6953,1.3037,1.3037,0,0,0-.4356-.9492,1.8167,1.8167,0,0,0-.5918-.3448A2.5312,2.5312,0,0,0,441.5938,10.6279Z" transform="translate(-0.6494 -3.166)"/><path class="j" d="M448.3789,19.832v-.2011c0-.0821.0068-.2022.0195-.3575s.0342-.3593.0655-.6113.0713-.58.123-.9883l.8057-6.5908h-1.4688a.37.37,0,0,1-.292-.124.4809.4809,0,0,1-.0849-.3828l.1045-.9239,2.0273-.2724.9883-4.0694a.7328.7328,0,0,1,.2012-.3183.4971.4971,0,0,1,.3447-.1231h1.209l-.5586,4.5372h3.458l-.1953,1.6767h-3.4707l-.793,6.4736c-.0439.3555-.0781.6416-.1045.8584s-.0449.39-.0586.5205c-.0127.129-.0215.2208-.0254.2725s-.0068.0908-.0068.1162a1.3557,1.3557,0,0,0,.3125.9824,1.1074,1.1074,0,0,0,.831.3184,1.6927,1.6927,0,0,0,.6045-.0977,2.7874,2.7874,0,0,0,.4493-.2148,3.8631,3.8631,0,0,0,.3252-.2139.392.392,0,0,1,.2207-.0976.2606.2606,0,0,1,.1757.0517.51.51,0,0,1,.11.17l.4941,1.1044a4.9024,4.9024,0,0,1-1.45.878,4.4637,4.4637,0,0,1-1.6308.3183,2.7527,2.7527,0,0,1-1.9824-.6894A2.7178,2.7178,0,0,1,448.3789,19.832Z" transform="translate(-0.6494 -3.166)"/><path class="j" d="M464.6934,18.8438a11.2236,11.2236,0,0,1-1.0069,1.5078,7.0161,7.0161,0,0,1-1.1445,1.15,4.95,4.95,0,0,1-1.2734.7343,3.7831,3.7831,0,0,1-1.3848.2608,3.2446,3.2446,0,0,1-1.417-.3057,2.9505,2.9505,0,0,1-1.0859-.8965,4.3838,4.3838,0,0,1-.6954-1.457,7.2521,7.2521,0,0,1-.247-1.9824,8.9178,8.9178,0,0,1,.2929-2.2813,9.2779,9.2779,0,0,1,2.125-3.9121,8.713,8.713,0,0,1,1.6836-1.4307,8.0235,8.0235,0,0,1,1.9961-.9365,7.4922,7.4922,0,0,1,2.2354-.331,9.768,9.768,0,0,1,1.6445.1367,6.9047,6.9047,0,0,1,1.58.4736l-1.5732,12.74h-1.1963a.706.706,0,0,1-.6172-.2334.9785.9785,0,0,1-.1621-.5723Zm.8847-8.086a3.7469,3.7469,0,0,0-.5654-.084c-.1865-.0136-.3711-.02-.5527-.02a4.5528,4.5528,0,0,0-1.5079.2529,5.4071,5.4071,0,0,0-1.3652.708,6.1329,6.1329,0,0,0-1.1572,1.086,7.1006,7.1006,0,0,0-.8906,1.3847,7.8623,7.8623,0,0,0-.5782,1.6055,7.348,7.348,0,0,0-.208,1.7481q0,3.1347,2.002,3.1328a2.2571,2.2571,0,0,0,1.248-.3965,4.8247,4.8247,0,0,0,1.1631-1.1045,9.2609,9.2609,0,0,0,1.0205-1.6768,15.59,15.59,0,0,0,.8321-2.125Z" transform="translate(-0.6494 -3.166)"/><path class="j" d="M488.5742,3.166l-2.3525,19.1485h-1.209a.688.688,0,0,1-.6113-.2334,1.0131,1.0131,0,0,1-.1563-.5723l.2471-2.7686a10.3039,10.3039,0,0,1-1.0791,1.5469,8.0058,8.0058,0,0,1-1.2285,1.1826,5.3331,5.3331,0,0,1-1.3389.7608,3.9125,3.9125,0,0,1-1.41.2666,3.11,3.11,0,0,1-2.6259-1.2285,5.8113,5.8113,0,0,1-.9366-3.5694,10.4692,10.4692,0,0,1,.2217-2.1308,11.08,11.08,0,0,1,.63-2.0411,10.04,10.04,0,0,1,.9883-1.8144,7.4889,7.4889,0,0,1,1.2939-1.4492,5.9417,5.9417,0,0,1,1.54-.9619,4.4018,4.4018,0,0,1,1.7353-.3506,4.056,4.056,0,0,1,1.7744.3828A3.8364,3.8364,0,0,1,485.415,10.42l.8975-7.2539ZM485.2207,12.02a2.6857,2.6857,0,0,0-1.1894-.9824,3.7742,3.7742,0,0,0-1.4112-.2793,3.01,3.01,0,0,0-1.8457.6113,5.3832,5.3832,0,0,0-1.3974,1.5791,8.2673,8.2673,0,0,0-.8907,2.1651,9.2943,9.2943,0,0,0-.3115,2.3525,4.1975,4.1975,0,0,0,.5518,2.36,1.7984,1.7984,0,0,0,1.58.8125,2.4055,2.4055,0,0,0,1.2608-.3907,5.1969,5.1969,0,0,0,1.2285-1.0859,9.5142,9.5142,0,0,0,1.1055-1.6445,13.03,13.03,0,0,0,.89-2.08Z" transform="translate(-0.6494 -3.166)"/><path class="j" d="M500.04,19.8838a11.6831,11.6831,0,0,1-1.3,1.1767,7.9641,7.9641,0,0,1-1.2939.8125,5.6867,5.6867,0,0,1-1.3779.4747,7.6644,7.6644,0,0,1-1.5538.1494,5.1918,5.1918,0,0,1-2.0273-.377,4.18,4.18,0,0,1-1.5215-1.0732,4.8159,4.8159,0,0,1-.9619-1.6836,6.7846,6.7846,0,0,1-.3379-2.209,9.7116,9.7116,0,0,1,.2139-2.0215,9.5358,9.5358,0,0,1,.624-1.918,8.73,8.73,0,0,1,1.001-1.6894,6.7371,6.7371,0,0,1,1.3525-1.3457,6.3586,6.3586,0,0,1,1.6768-.8906,5.85,5.85,0,0,1,1.97-.3252,4.7262,4.7262,0,0,1,1.7285.2861,3.6808,3.6808,0,0,1,1.1963.7285,2.892,2.892,0,0,1,.6953.9746,2.5724,2.5724,0,0,1,.2276,1.0137,3.5594,3.5594,0,0,1-.3506,1.58,3.29,3.29,0,0,1-1.2871,1.3,9.5835,9.5835,0,0,1-2.5743,1.0068,28.2917,28.2917,0,0,1-4.2119.6895c0,.0957-.0019.1884-.0068.2793s-.0059.1845-.0059.2793a4.06,4.06,0,0,0,.7608,2.6582,2.8084,2.8084,0,0,0,2.2939.917,4.31,4.31,0,0,0,1.1114-.13,4.7448,4.7448,0,0,0,.871-.3184,3.7852,3.7852,0,0,0,.6758-.416c.1953-.1514.3731-.291.5332-.416a5.0518,5.0518,0,0,1,.4493-.3184.7727.7727,0,0,1,.415-.1308.58.58,0,0,1,.4424.2216Zm-3.666-9.2559a3.3719,3.3719,0,0,0-1.5078.3379,4.0143,4.0143,0,0,0-1.2226.93,5.6969,5.6969,0,0,0-.91,1.3916,8.3073,8.3073,0,0,0-.585,1.7217,25.2238,25.2238,0,0,0,3.212-.5654,7.9652,7.9652,0,0,0,1.8584-.69,1.7914,1.7914,0,0,0,1.0664-1.6953,1.3037,1.3037,0,0,0-.4356-.9492,1.8167,1.8167,0,0,0-.5918-.3448A2.5318,2.5318,0,0,0,496.374,10.6279Z" transform="translate(-0.6494 -3.166)"/><path class="j" d="M394.7158,50.0439a11.3778,11.3778,0,0,1-1.0078,1.5088,7.0077,7.0077,0,0,1-1.1435,1.15,5.0006,5.0006,0,0,1-1.2745.7344,3.8011,3.8011,0,0,1-1.3837.26,3.224,3.224,0,0,1-1.417-.3057,2.9554,2.9554,0,0,1-1.086-.8975,4.3554,4.3554,0,0,1-.6953-1.455,7.2186,7.2186,0,0,1-.2471-1.9825,8.9633,8.9633,0,0,1,.292-2.2822,9.2927,9.2927,0,0,1,2.126-3.9131,8.6486,8.6486,0,0,1,1.6836-1.43,7.9957,7.9957,0,0,1,1.9951-.9355,7.4671,7.4671,0,0,1,2.2363-.332,9.6746,9.6746,0,0,1,1.6446.1367,6.8375,6.8375,0,0,1,1.5791.4746l-1.5733,12.74H395.249a.7044.7044,0,0,1-.6181-.2343.9785.9785,0,0,1-.1621-.5723ZM395.6,41.958a3.8425,3.8425,0,0,0-.5654-.085c-.1865-.0117-.37-.02-.5528-.02a4.5574,4.5574,0,0,0-1.5078.2539,5.4072,5.4072,0,0,0-1.3652.709,6.0062,6.0062,0,0,0-1.1563,1.0859,7.0467,7.0467,0,0,0-.8906,1.3838,7.87,7.87,0,0,0-.5791,1.6055,7.3438,7.3438,0,0,0-.208,1.749q0,3.1318,2.002,3.1328a2.2731,2.2731,0,0,0,1.248-.3964,4.875,4.875,0,0,0,1.1641-1.1055,9.3588,9.3588,0,0,0,1.0205-1.6768,15.86,15.86,0,0,0,.832-2.1259Z" transform="translate(-0.6494 -3.166)"/><path class="j" d="M412.5127,34.3662l-2.3535,19.1494H408.95a.6828.6828,0,0,1-.61-.2343,1.0061,1.0061,0,0,1-.1562-.5723l.2471-2.77a10.52,10.52,0,0,1-1.0791,1.5478A8,8,0,0,1,406.123,52.67a5.3191,5.3191,0,0,1-1.3388.7608,3.9177,3.9177,0,0,1-1.4112.2666,3.1138,3.1138,0,0,1-2.6259-1.2285,5.81,5.81,0,0,1-.9356-3.5684,10.48,10.48,0,0,1,.2207-2.1328,11.05,11.05,0,0,1,.6309-2.041,9.9551,9.9551,0,0,1,.9883-1.8125,7.401,7.401,0,0,1,1.2929-1.4493,5.9264,5.9264,0,0,1,1.5411-.9628,4.3772,4.3772,0,0,1,1.7353-.3506,4.0487,4.0487,0,0,1,1.7744.3838,3.8424,3.8424,0,0,1,1.3584,1.0849l.8965-7.2539Zm-3.3545,8.8526a2.6631,2.6631,0,0,0-1.1894-.98,3.7316,3.7316,0,0,0-1.41-.28,3.01,3.01,0,0,0-1.8457.6113,5.372,5.372,0,0,0-1.3984,1.5791,8.3057,8.3057,0,0,0-.89,2.1641,9.3092,9.3092,0,0,0-.3125,2.3535,4.1918,4.1918,0,0,0,.5527,2.3594,1.7947,1.7947,0,0,0,1.5791.8125,2.4071,2.4071,0,0,0,1.2618-.39,5.2582,5.2582,0,0,0,1.2285-1.0849,9.648,9.648,0,0,0,1.1045-1.6445,13.044,13.044,0,0,0,.8906-2.08Z" transform="translate(-0.6494 -3.166)"/><path class="j" d="M421.5859,50.3438a9.8508,9.8508,0,0,1-.9814,1.3837,7.2306,7.2306,0,0,1-1.1045,1.06,4.6271,4.6271,0,0,1-1.2158.6758,3.81,3.81,0,0,1-1.3262.2344,3.23,3.23,0,0,1-1.417-.3057,3.0131,3.0131,0,0,1-1.0918-.8975,4.2875,4.2875,0,0,1-.7021-1.455,7.2534,7.2534,0,0,1-.2471-1.9825,8.92,8.92,0,0,1,.293-2.2822,9.2633,9.2633,0,0,1,.832-2.0986,9.1111,9.1111,0,0,1,1.3-1.8145,8.8325,8.8325,0,0,1,1.69-1.43,7.9963,7.9963,0,0,1,1.9952-.9355,7.4661,7.4661,0,0,1,2.2363-.332,9.56,9.56,0,0,1,1.6377.1367,6.8778,6.8778,0,0,1,1.5732.4746l-2.1191,17.1992h-1.4561a.8153.8153,0,0,1-.39-.085.6236.6236,0,0,1-.2412-.2216.81.81,0,0,1-.11-.3184,1.2565,1.2565,0,0,1,0-.3633Zm1.0664-8.3858a3.8425,3.8425,0,0,0-.5654-.085c-.1865-.0117-.37-.02-.5527-.02a4.5933,4.5933,0,0,0-1.5205.2539,5.4061,5.4061,0,0,0-1.3653.709,6.037,6.037,0,0,0-1.1572,1.0859,7.0421,7.0421,0,0,0-.8906,1.3838,7.8561,7.8561,0,0,0-.5781,1.6055,7.3387,7.3387,0,0,0-.208,1.749,4.3269,4.3269,0,0,0,.5136,2.3457,1.6784,1.6784,0,0,0,1.501.7871,2.2788,2.2788,0,0,0,1.2354-.3906,4.7287,4.7287,0,0,0,1.1572-1.0849,9.3133,9.3133,0,0,0,1.0137-1.6514,15.7353,15.7353,0,0,0,.832-2.086Z" transform="translate(-0.6494 -3.166)"/><path class="j" d="M438.8242,40.3457l-1.5859,13.17h-1.1445a.741.741,0,0,1-.8448-.832l.1953-2.4053a8.0357,8.0357,0,0,1-2.3466,2.5537,4.802,4.802,0,0,1-2.6846.8653,3.14,3.14,0,0,1-1.4688-.3321,2.6219,2.6219,0,0,1-1.0332-.9687,4.1083,4.1083,0,0,1-.54-1.56,7.5548,7.5548,0,0,1,.0127-2.1181l.9883-8.3731h2.3008l-.9874,8.3731a4.2914,4.2914,0,0,0,.1885,2.3007,1.4106,1.4106,0,0,0,1.3975.7539,2.7089,2.7089,0,0,0,1.2344-.3252,4.7478,4.7478,0,0,0,1.2226-.9228,7.9106,7.9106,0,0,0,1.0986-1.4492,10.1679,10.1679,0,0,0,.877-1.8926l.8193-6.8379Z" transform="translate(-0.6494 -3.166)"/><path class="j" d="M444.6738,40.3457l-1.5859,13.17h-2.2754l1.5859-13.17Zm.8838-4.1338a1.4628,1.4628,0,0,1-.1367.6309,1.8367,1.8367,0,0,1-.3633.5205,1.7472,1.7472,0,0,1-.52.3574,1.4857,1.4857,0,0,1-.6045.1289,1.41,1.41,0,0,1-.5849-.1289,1.5973,1.5973,0,0,1-.5-.3574,1.8393,1.8393,0,0,1-.3448-.5205,1.5329,1.5329,0,0,1-.13-.6309,1.5734,1.5734,0,0,1,.13-.6367,1.7538,1.7538,0,0,1,.8575-.8906,1.3488,1.3488,0,0,1,.5849-.1358,1.4822,1.4822,0,0,1,.6045.1289,1.6587,1.6587,0,0,1,.5137.3575,1.8365,1.8365,0,0,1,.3574.5332A1.548,1.548,0,0,1,445.5576,36.2119Z" transform="translate(-0.6494 -3.166)"/><path class="j" d="M455.1514,42.4521a.8157.8157,0,0,1-.208.2276.4458.4458,0,0,1-.26.0713.7292.7292,0,0,1-.3965-.1436c-.1426-.0947-.3164-.2011-.5195-.3183a4.3086,4.3086,0,0,0-.7481-.3243,3.705,3.705,0,0,0-2.1318.0127,2.5838,2.5838,0,0,0-.8252.4483,2.0139,2.0139,0,0,0-.5332.67,1.8141,1.8141,0,0,0-.1885.8125,1.2453,1.2453,0,0,0,.4033.9746,3.7049,3.7049,0,0,0,1.0137.6309q.6108.2666,1.3125.5136a6.7374,6.7374,0,0,1,1.3135.6241,3.3455,3.3455,0,0,1,1.0137.9619,2.6279,2.6279,0,0,1,.4033,1.5215,4.38,4.38,0,0,1-1.3848,3.2041,5.0491,5.0491,0,0,1-1.6113,1.0068,5.6365,5.6365,0,0,1-2.1133.377,5.2386,5.2386,0,0,1-2.2295-.4483,4.6409,4.6409,0,0,1-1.5791-1.15l.5723-.8838a.96.96,0,0,1,.2529-.26.631.631,0,0,1,.7734.0908q.208.1816.5206.4092a3.1934,3.1934,0,0,0,1.9892.5918,3.207,3.207,0,0,0,1.15-.1953,2.7184,2.7184,0,0,0,.8711-.52,2.2072,2.2072,0,0,0,.5459-.7607,2.327,2.327,0,0,0,.1885-.93,1.3964,1.3964,0,0,0-.4033-1.0527,3.2692,3.2692,0,0,0-1.0137-.65q-.6123-.2607-1.3135-.4882a6.6342,6.6342,0,0,1-1.3125-.585,3.19,3.19,0,0,1-1.0146-.93,2.588,2.588,0,0,1-.4024-1.52,4.04,4.04,0,0,1,.3311-1.6055,4.1418,4.1418,0,0,1,.956-1.3711,4.6622,4.6622,0,0,1,1.5137-.956,5.3548,5.3548,0,0,1,2.0088-.3574,5.1453,5.1453,0,0,1,2.0869.3965,4.8169,4.8169,0,0,1,1.5527,1.0722Z" transform="translate(-0.6494 -3.166)"/><path class="j" d="M461.0537,40.3457l-1.5859,13.17h-2.2754l1.5859-13.17Zm.8838-4.1338a1.4628,1.4628,0,0,1-.1367.6309,1.8367,1.8367,0,0,1-.3633.5205,1.7472,1.7472,0,0,1-.5205.3574,1.4857,1.4857,0,0,1-.6045.1289,1.4106,1.4106,0,0,1-.585-.1289,1.6,1.6,0,0,1-.5-.3574,1.8411,1.8411,0,0,1-.3447-.5205,1.5329,1.5329,0,0,1-.13-.6309,1.5734,1.5734,0,0,1,.13-.6367,1.7541,1.7541,0,0,1,.8574-.8906,1.3492,1.3492,0,0,1,.585-.1358,1.4822,1.4822,0,0,1,.6045.1289,1.6587,1.6587,0,0,1,.5137.3575,1.8365,1.8365,0,0,1,.3574.5332A1.548,1.548,0,0,1,461.9375,36.2119Z" transform="translate(-0.6494 -3.166)"/><path class="j" d="M472.9092,51.1484a11.9511,11.9511,0,0,1-1.2862,1.2364A6.2927,6.2927,0,0,1,470.4,53.17a4.9192,4.9192,0,0,1-1.2676.41,8.0245,8.0245,0,0,1-1.41.1172,4.9367,4.9367,0,0,1-2.0215-.3907,3.9837,3.9837,0,0,1-1.4688-1.0976,4.8552,4.8552,0,0,1-.8974-1.7031,7.4494,7.4494,0,0,1-.3057-2.1914,9.4381,9.4381,0,0,1,.501-3.0674,8.621,8.621,0,0,1,1.3974-2.6006,6.9482,6.9482,0,0,1,2.1387-1.8067,5.5777,5.5777,0,0,1,2.71-.6757,4.7257,4.7257,0,0,1,2.1972.4609,4.6,4.6,0,0,1,1.5469,1.3457l-.7275.8711a.826.826,0,0,1-.2022.17.4917.4917,0,0,1-.2529.0645.5283.5283,0,0,1-.3574-.1621,4.3748,4.3748,0,0,0-.4619-.3643,3.2944,3.2944,0,0,0-.7081-.3643,3.0664,3.0664,0,0,0-1.0859-.1621,3.1748,3.1748,0,0,0-1.69.4873,4.7554,4.7554,0,0,0-1.3906,1.3331,6.78,6.78,0,0,0-.9424,2.0019,8.6651,8.6651,0,0,0-.3448,2.4824,5.4421,5.4421,0,0,0,.1827,1.4629,3.11,3.11,0,0,0,.5459,1.1172,2.4719,2.4719,0,0,0,.8906.7148,2.7846,2.7846,0,0,0,1.2285.254,3.6268,3.6268,0,0,0,1.4619-.26,4.9205,4.9205,0,0,0,.9942-.5654c.2685-.2041.4961-.3916.6826-.5655a.8231.8231,0,0,1,.5527-.26.5781.5781,0,0,1,.4424.2207Z" transform="translate(-0.6494 -3.166)"/><path class="j" d="M478.8506,40.3457l-1.586,13.17h-2.2753l1.5859-13.17Zm.8838-4.1338a1.4628,1.4628,0,0,1-.1367.6309,1.8408,1.8408,0,0,1-.3633.5205,1.7485,1.7485,0,0,1-.52.3574,1.4857,1.4857,0,0,1-.6045.1289,1.41,1.41,0,0,1-.585-.1289,1.6,1.6,0,0,1-.5-.3574,1.839,1.839,0,0,1-.3447-.5205,1.5329,1.5329,0,0,1-.13-.6309,1.5734,1.5734,0,0,1,.13-.6367,1.7541,1.7541,0,0,1,.8574-.8906,1.3492,1.3492,0,0,1,.585-.1358,1.4825,1.4825,0,0,1,.6045.1289,1.6571,1.6571,0,0,1,.5136.3575,1.8368,1.8368,0,0,1,.3575.5332A1.548,1.548,0,0,1,479.7344,36.2119Z" transform="translate(-0.6494 -3.166)"/><path class="j" d="M485.74,53.6973a5.1083,5.1083,0,0,1-1.9756-.3711,4.3143,4.3143,0,0,1-1.5468-1.0723,4.9476,4.9476,0,0,1-1.0147-1.7158,6.8356,6.8356,0,0,1-.3633-2.3135,9.3144,9.3144,0,0,1,.52-3.1328,8.3464,8.3464,0,0,1,1.43-2.5684,6.87,6.87,0,0,1,2.1386-1.7353,5.6635,5.6635,0,0,1,2.6455-.6367,5.1291,5.1291,0,0,1,1.9766.37,4.3477,4.3477,0,0,1,1.5469,1.0723,4.9675,4.9675,0,0,1,1.0137,1.7167,6.769,6.769,0,0,1,.3642,2.3008,9.2725,9.2725,0,0,1-.5205,3.1192,8.5138,8.5138,0,0,1-1.4228,2.5742,6.7921,6.7921,0,0,1-2.1387,1.749A5.6614,5.6614,0,0,1,485.74,53.6973Zm.2217-1.8067a3.0188,3.0188,0,0,0,1.7217-.52,4.6642,4.6642,0,0,0,1.3262-1.3838,7.02,7.02,0,0,0,.8515-1.9961,9.2266,9.2266,0,0,0,.2989-2.3662,4.3716,4.3716,0,0,0-.7207-2.7363,2.4871,2.4871,0,0,0-2.0743-.917,3.0712,3.0712,0,0,0-1.7353.5137,4.559,4.559,0,0,0-1.3194,1.3711,7.0241,7.0241,0,0,0-.8447,1.99,9.1757,9.1757,0,0,0-.2988,2.3652,4.4533,4.4533,0,0,0,.7148,2.75A2.466,2.466,0,0,0,485.9619,51.8906Zm5.6416-17.2129-3.1719,3.3545a1.2735,1.2735,0,0,1-.3515.2793.917.917,0,0,1-.416.085h-1.2735L488.51,35.25a1.4423,1.4423,0,0,1,.4091-.4355,1.1258,1.1258,0,0,1,.6045-.1368Z" transform="translate(-0.6494 -3.166)"/><path class="j" d="M497.6484,43.6738a8.2141,8.2141,0,0,1,2.3789-2.6328,4.8426,4.8426,0,0,1,2.7295-.89,3.1043,3.1043,0,0,1,1.4629.331,2.6543,2.6543,0,0,1,1.0274.9688,4.1478,4.1478,0,0,1,.539,1.5664,7.7857,7.7857,0,0,1,0,2.1133l-.9882,8.3847h-2.3008l.9883-8.3847a4.2628,4.2628,0,0,0-.1954-2.3086,1.4134,1.4134,0,0,0-1.3906-.7471,2.7078,2.7078,0,0,0-1.2676.3379,4.8859,4.8859,0,0,0-1.2412.9619,7.9537,7.9537,0,0,0-1.1123,1.502,10.4779,10.4779,0,0,0-.8769,1.956l-.7539,6.6826H494.333l1.5859-13.1826h1.1446a.69.69,0,0,1,.7793.78Z" transform="translate(-0.6494 -3.166)"/><path class="j" d="M185.6768,5.7266H180.19l-2.0537,16.5879h-2.4179l2.0273-16.5879h-5.5117l.2344-2.0411h13.455Z" transform="translate(-0.6494 -3.166)"/><path class="j" d="M193.9053,18.8438a11.3228,11.3228,0,0,1-1.0078,1.5078,6.9769,6.9769,0,0,1-1.1436,1.15,4.9686,4.9686,0,0,1-1.2744.7343,3.7818,3.7818,0,0,1-1.3838.2608,3.2383,3.2383,0,0,1-1.417-.3057,2.9426,2.9426,0,0,1-1.0859-.8965,4.3625,4.3625,0,0,1-.6953-1.457,7.21,7.21,0,0,1-.2471-1.9824,8.9571,8.9571,0,0,1,.292-2.2813,9.3552,9.3552,0,0,1,.832-2.1,9.2254,9.2254,0,0,1,1.294-1.8125,8.6479,8.6479,0,0,1,1.6836-1.4307,7.997,7.997,0,0,1,1.9951-.9365,7.4976,7.4976,0,0,1,2.2363-.331,9.7767,9.7767,0,0,1,1.6445.1367,6.8822,6.8822,0,0,1,1.5791.4736l-1.5732,12.74h-1.1953a.707.707,0,0,1-.6182-.2334.9785.9785,0,0,1-.1621-.5723Zm.8838-8.086a3.711,3.711,0,0,0-.5655-.084c-.1865-.0136-.37-.02-.5527-.02a4.5561,4.5561,0,0,0-1.5078.2529,5.4054,5.4054,0,0,0-1.3652.708,6.0952,6.0952,0,0,0-1.1563,1.086,7.1006,7.1006,0,0,0-.8906,1.3847,7.8584,7.8584,0,0,0-.5791,1.6055,7.3429,7.3429,0,0,0-.208,1.7481q0,3.1347,2.0019,3.1328a2.2576,2.2576,0,0,0,1.2481-.3965,4.8475,4.8475,0,0,0,1.164-1.1045,9.3177,9.3177,0,0,0,1.02-1.6768,15.8407,15.8407,0,0,0,.8321-2.125Z" transform="translate(-0.6494 -3.166)"/><path class="j" d="M202.3545,12.8125a11.1285,11.1285,0,0,1,1.125-1.918,5.5913,5.5913,0,0,1,1.2676-1.2734,3.1247,3.1247,0,0,1,1.3652-.56,2.6587,2.6587,0,0,1,1.43.2139l-.416,2.2236a2.66,2.66,0,0,0-2.9834.4942,8.6809,8.6809,0,0,0-2.1,4.2246l-.7285,6.0967h-2.2618l1.586-13.1817h1.1445a.6954.6954,0,0,1,.793.78Z" transform="translate(-0.6494 -3.166)"/><path class="j" d="M211.9355,9.1465,210.1934,23.29a5.111,5.111,0,0,1-.39,1.4756,4.0259,4.0259,0,0,1-.7871,1.19,3.4979,3.4979,0,0,1-1.1758.7988,4.4153,4.4153,0,0,1-2.334.2285,3.5191,3.5191,0,0,1-.63-.1953l.2334-1.248a.4469.4469,0,0,1,.0976-.1758.262.262,0,0,1,.1563-.0713,1.4754,1.4754,0,0,1,.247-.0068c.1.0039.2227.0068.37.0068a1.7826,1.7826,0,0,0,1.3653-.4746,2.7742,2.7742,0,0,0,.5849-1.5274L209.66,9.1465Zm.8194-4.1348a1.4774,1.4774,0,0,1-.1367.6309,1.81,1.81,0,0,1-.3643.5195,1.7115,1.7115,0,0,1-.5137.3574,1.4238,1.4238,0,0,1-.5976.1309,1.3851,1.3851,0,0,1-.5918-.1309,1.5838,1.5838,0,0,1-.4942-.3574,1.8241,1.8241,0,0,1-.3437-.5195,1.5335,1.5335,0,0,1-.1309-.6309,1.5776,1.5776,0,0,1,.1309-.6367,1.7291,1.7291,0,0,1,.3506-.5264,1.81,1.81,0,0,1,.501-.3642,1.328,1.328,0,0,1,.5908-.1367,1.4316,1.4316,0,0,1,.5986.1308,1.712,1.712,0,0,1,.5127.3574,1.6412,1.6412,0,0,1,.3574.5332A1.62,1.62,0,0,1,212.7549,5.0117Z" transform="translate(-0.6494 -3.166)"/><path class="j" d="M224.26,19.8838a11.7009,11.7009,0,0,1-1.3,1.1767,7.9648,7.9648,0,0,1-1.294.8125,5.6867,5.6867,0,0,1-1.3779.4747,7.6634,7.6634,0,0,1-1.5537.1494,5.1923,5.1923,0,0,1-2.0274-.377,4.1805,4.1805,0,0,1-1.5215-1.0732,4.8159,4.8159,0,0,1-.9619-1.6836,6.7846,6.7846,0,0,1-.3379-2.209,9.7116,9.7116,0,0,1,.2139-2.0215,9.5485,9.5485,0,0,1,.624-1.918,8.74,8.74,0,0,1,1.001-1.6894,6.7371,6.7371,0,0,1,1.3525-1.3457,6.36,6.36,0,0,1,1.6768-.8906,5.85,5.85,0,0,1,1.97-.3252,4.7262,4.7262,0,0,1,1.7285.2861,3.6808,3.6808,0,0,1,1.1963.7285,2.8937,2.8937,0,0,1,.6954.9746,2.574,2.574,0,0,1,.2275,1.0137,3.5594,3.5594,0,0,1-.3506,1.58,3.29,3.29,0,0,1-1.2871,1.3,9.5813,9.5813,0,0,1-2.5742,1.0068,28.2962,28.2962,0,0,1-4.2119.6895c0,.0957-.002.1884-.0069.2793s-.0058.1845-.0058.2793a4.06,4.06,0,0,0,.7607,2.6582,2.8085,2.8085,0,0,0,2.294.917,4.3088,4.3088,0,0,0,1.1113-.13,4.7487,4.7487,0,0,0,.8711-.3184,3.7923,3.7923,0,0,0,.6758-.416c.1953-.1514.373-.291.5332-.416a5.0368,5.0368,0,0,1,.4492-.3184.7729.7729,0,0,1,.415-.1308.5794.5794,0,0,1,.4424.2216Zm-3.666-9.2559a3.3724,3.3724,0,0,0-1.5079.3379,4.0155,4.0155,0,0,0-1.2226.93,5.6969,5.6969,0,0,0-.91,1.3916,8.3013,8.3013,0,0,0-.5849,1.7217,25.225,25.225,0,0,0,3.2119-.5654,7.9652,7.9652,0,0,0,1.8584-.69,1.7909,1.7909,0,0,0,1.0664-1.6953,1.3037,1.3037,0,0,0-.4356-.9492,1.8167,1.8167,0,0,0-.5918-.3448A2.5312,2.5312,0,0,0,220.5938,10.6279Z" transform="translate(-0.6494 -3.166)"/><path class="j" d="M227.3789,19.832v-.2011c0-.0821.0068-.2022.02-.3575s.0342-.3593.0655-.6113.0713-.58.123-.9883l.8057-6.5908h-1.4688a.37.37,0,0,1-.292-.124.4809.4809,0,0,1-.0849-.3828l.1045-.9239,2.0273-.2724.9883-4.0694a.7328.7328,0,0,1,.2012-.3183.4971.4971,0,0,1,.3447-.1231h1.209l-.5586,4.5372h3.458l-.1953,1.6767h-3.4707l-.793,6.4736c-.0439.3555-.0781.6416-.1045.8584s-.0449.39-.0586.5205c-.0127.129-.0215.2208-.0254.2725s-.0068.0908-.0068.1162a1.3557,1.3557,0,0,0,.3125.9824,1.1074,1.1074,0,0,0,.831.3184,1.6927,1.6927,0,0,0,.6045-.0977,2.7874,2.7874,0,0,0,.4493-.2148,3.8631,3.8631,0,0,0,.3252-.2139.392.392,0,0,1,.2207-.0976.2606.2606,0,0,1,.1757.0517.51.51,0,0,1,.11.17l.4941,1.1044a4.9024,4.9024,0,0,1-1.45.878,4.4637,4.4637,0,0,1-1.6308.3183,2.7527,2.7527,0,0,1-1.9824-.6894A2.7178,2.7178,0,0,1,227.3789,19.832Z" transform="translate(-0.6494 -3.166)"/><path class="j" d="M243.6934,18.8438a11.2236,11.2236,0,0,1-1.0069,1.5078,7.0161,7.0161,0,0,1-1.1445,1.15,4.95,4.95,0,0,1-1.2734.7343,3.7831,3.7831,0,0,1-1.3848.2608,3.2446,3.2446,0,0,1-1.417-.3057,2.9505,2.9505,0,0,1-1.0859-.8965,4.3838,4.3838,0,0,1-.6954-1.457,7.2521,7.2521,0,0,1-.247-1.9824,8.9178,8.9178,0,0,1,.2929-2.2813,9.2779,9.2779,0,0,1,2.125-3.9121,8.713,8.713,0,0,1,1.6836-1.4307,8.0235,8.0235,0,0,1,1.9961-.9365,7.4922,7.4922,0,0,1,2.2354-.331,9.768,9.768,0,0,1,1.6445.1367,6.9047,6.9047,0,0,1,1.58.4736l-1.5732,12.74h-1.1963a.706.706,0,0,1-.6172-.2334.9785.9785,0,0,1-.1621-.5723Zm.8847-8.086a3.7469,3.7469,0,0,0-.5654-.084c-.1865-.0136-.3711-.02-.5527-.02a4.5528,4.5528,0,0,0-1.5079.2529,5.4071,5.4071,0,0,0-1.3652.708,6.1329,6.1329,0,0,0-1.1572,1.086,7.1006,7.1006,0,0,0-.8906,1.3847,7.8623,7.8623,0,0,0-.5782,1.6055,7.348,7.348,0,0,0-.208,1.7481q0,3.1347,2.002,3.1328a2.2571,2.2571,0,0,0,1.248-.3965,4.8247,4.8247,0,0,0,1.1631-1.1045,9.2609,9.2609,0,0,0,1.02-1.6768,15.59,15.59,0,0,0,.8321-2.125Z" transform="translate(-0.6494 -3.166)"/><path class="j" d="M267.5742,3.166l-2.3525,19.1485h-1.209a.688.688,0,0,1-.6113-.2334,1.0131,1.0131,0,0,1-.1563-.5723l.2471-2.7686a10.3039,10.3039,0,0,1-1.0791,1.5469,8.0058,8.0058,0,0,1-1.2285,1.1826,5.3331,5.3331,0,0,1-1.3389.7608,3.9125,3.9125,0,0,1-1.41.2666,3.11,3.11,0,0,1-2.6259-1.2285,5.8113,5.8113,0,0,1-.9366-3.5694,10.4692,10.4692,0,0,1,.2217-2.1308,11.08,11.08,0,0,1,.63-2.0411,10.04,10.04,0,0,1,.9883-1.8144,7.4889,7.4889,0,0,1,1.2939-1.4492,5.9417,5.9417,0,0,1,1.54-.9619,4.4018,4.4018,0,0,1,1.7353-.3506,4.056,4.056,0,0,1,1.7744.3828A3.8364,3.8364,0,0,1,264.415,10.42l.8975-7.2539ZM264.2207,12.02a2.6857,2.6857,0,0,0-1.1894-.9824,3.7742,3.7742,0,0,0-1.4112-.2793,3.01,3.01,0,0,0-1.8457.6113,5.3832,5.3832,0,0,0-1.3974,1.5791,8.2673,8.2673,0,0,0-.8907,2.1651,9.2943,9.2943,0,0,0-.3115,2.3525,4.1975,4.1975,0,0,0,.5518,2.36,1.7984,1.7984,0,0,0,1.58.8125,2.4055,2.4055,0,0,0,1.2608-.3907,5.1969,5.1969,0,0,0,1.2285-1.0859,9.5142,9.5142,0,0,0,1.1055-1.6445,13.03,13.03,0,0,0,.89-2.08Z" transform="translate(-0.6494 -3.166)"/><path class="j" d="M279.04,19.8838a11.6831,11.6831,0,0,1-1.3,1.1767,7.9641,7.9641,0,0,1-1.2939.8125,5.6867,5.6867,0,0,1-1.3779.4747,7.6644,7.6644,0,0,1-1.5538.1494,5.1918,5.1918,0,0,1-2.0273-.377,4.18,4.18,0,0,1-1.5215-1.0732,4.8159,4.8159,0,0,1-.9619-1.6836,6.7846,6.7846,0,0,1-.3379-2.209,9.7116,9.7116,0,0,1,.2139-2.0215,9.5358,9.5358,0,0,1,.624-1.918,8.73,8.73,0,0,1,1.001-1.6894,6.7371,6.7371,0,0,1,1.3525-1.3457,6.3586,6.3586,0,0,1,1.6768-.8906,5.85,5.85,0,0,1,1.97-.3252,4.7262,4.7262,0,0,1,1.7285.2861,3.6808,3.6808,0,0,1,1.1963.7285,2.892,2.892,0,0,1,.6953.9746,2.5724,2.5724,0,0,1,.2276,1.0137,3.5594,3.5594,0,0,1-.3506,1.58,3.29,3.29,0,0,1-1.2871,1.3,9.5835,9.5835,0,0,1-2.5743,1.0068,28.2917,28.2917,0,0,1-4.2119.6895c0,.0957-.0019.1884-.0068.2793s-.0059.1845-.0059.2793a4.06,4.06,0,0,0,.7608,2.6582,2.8084,2.8084,0,0,0,2.2939.917,4.31,4.31,0,0,0,1.1114-.13,4.7448,4.7448,0,0,0,.871-.3184,3.7852,3.7852,0,0,0,.6758-.416c.1953-.1514.3731-.291.5332-.416a5.0518,5.0518,0,0,1,.4493-.3184.7727.7727,0,0,1,.415-.1308.58.58,0,0,1,.4424.2216Zm-3.666-9.2559a3.3719,3.3719,0,0,0-1.5078.3379,4.0143,4.0143,0,0,0-1.2226.93,5.6969,5.6969,0,0,0-.91,1.3916,8.3073,8.3073,0,0,0-.585,1.7217,25.2238,25.2238,0,0,0,3.212-.5654,7.9652,7.9652,0,0,0,1.8584-.69,1.7914,1.7914,0,0,0,1.0664-1.6953,1.3037,1.3037,0,0,0-.4356-.9492,1.8167,1.8167,0,0,0-.5918-.3448A2.5318,2.5318,0,0,0,275.374,10.6279Z" transform="translate(-0.6494 -3.166)"/><path class="j" d="M172.2734,51.0322V50.83c0-.0821.0059-.2012.02-.3574s.0341-.3594.0644-.61.0713-.581.124-.9883l.8057-6.5908h-1.4687a.3735.3735,0,0,1-.293-.123.4894.4894,0,0,1-.084-.3838l.1035-.9229,2.0283-.2734.9883-4.0684a.7228.7228,0,0,1,.2012-.3183.4917.4917,0,0,1,.3447-.1241h1.209l-.56,4.5362h3.458l-.1943,1.6777h-3.4717l-.7929,6.4746c-.043.3555-.0782.6406-.1036.8574s-.0459.3907-.0585.52c-.0137.1308-.0215.2207-.0264.2734s-.0059.0908-.0059.1172a1.3546,1.3546,0,0,0,.3115.9814,1.1133,1.1133,0,0,0,.8321.3184,1.6713,1.6713,0,0,0,.6045-.0977,2.9087,2.9087,0,0,0,.4482-.2138c.13-.0782.2383-.15.3252-.2149a.395.395,0,0,1,.2207-.0976.2611.2611,0,0,1,.1758.0517.4891.4891,0,0,1,.11.169l.4942,1.1054a4.8656,4.8656,0,0,1-1.4492.877,4.4323,4.4323,0,0,1-1.6319.3184,2.75,2.75,0,0,1-1.9824-.6885A2.7173,2.7173,0,0,1,172.2734,51.0322Z" transform="translate(-0.6494 -3.166)"/><path class="j" d="M190.8105,51.084a11.632,11.632,0,0,1-1.3,1.1767,7.9021,7.9021,0,0,1-1.2929.8125,5.7155,5.7155,0,0,1-1.378.4747,7.7348,7.7348,0,0,1-1.5537.1494,5.1969,5.1969,0,0,1-2.0283-.377,4.2158,4.2158,0,0,1-1.52-1.0723,4.8344,4.8344,0,0,1-.9629-1.6835,6.82,6.82,0,0,1-.3379-2.211,9.713,9.713,0,0,1,.2149-2.0215,9.4082,9.4082,0,0,1,.624-1.917,8.7168,8.7168,0,0,1,1.001-1.69,6.7851,6.7851,0,0,1,1.3515-1.3457,6.3631,6.3631,0,0,1,1.6778-.89,5.8432,5.8432,0,0,1,1.9687-.3252,4.728,4.728,0,0,1,1.7295.2861,3.69,3.69,0,0,1,1.1963.7275,2.9336,2.9336,0,0,1,.6953.9756,2.59,2.59,0,0,1,.2275,1.0137,3.5526,3.5526,0,0,1-.3515,1.5791,3.2788,3.2788,0,0,1-1.2871,1.3008,9.66,9.66,0,0,1-2.5733,1.0078,28.4439,28.4439,0,0,1-4.2119.6885c0,.0947-.0029.1884-.0068.2793s-.0069.1845-.0069.28a4.07,4.07,0,0,0,.7608,2.6582,2.8084,2.8084,0,0,0,2.2949.9161,4.3143,4.3143,0,0,0,1.1113-.13,4.7386,4.7386,0,0,0,.8711-.3184,3.9752,3.9752,0,0,0,.6758-.416c.1953-.1514.3721-.29.5332-.416a5.1756,5.1756,0,0,1,.4483-.3184.7771.7771,0,0,1,.416-.13.5815.5815,0,0,1,.4424.2207Zm-3.666-9.2559a3.3854,3.3854,0,0,0-1.5078.3379,4.0228,4.0228,0,0,0-1.2217.93,5.6644,5.6644,0,0,0-.91,1.3906,8.2779,8.2779,0,0,0-.585,1.7227,25.2213,25.2213,0,0,0,3.211-.5654,8.03,8.03,0,0,0,1.8593-.6885,1.7944,1.7944,0,0,0,1.0655-1.6973,1.2787,1.2787,0,0,0-.1036-.4873,1.2942,1.2942,0,0,0-.332-.4619,1.8,1.8,0,0,0-.5908-.3438A2.5146,2.5146,0,0,0,187.1445,41.8281Z" transform="translate(-0.6494 -3.166)"/><path class="j" d="M192.9551,53.5156l2.3271-19.1494h2.2754l-2.3271,19.1494Z" transform="translate(-0.6494 -3.166)"/><path class="j" d="M209.1016,51.084a11.8109,11.8109,0,0,1-1.3,1.1767,7.91,7.91,0,0,1-1.294.8125,5.6867,5.6867,0,0,1-1.3779.4747,7.7356,7.7356,0,0,1-1.5537.1494,5.1923,5.1923,0,0,1-2.0274-.377,4.2119,4.2119,0,0,1-1.5215-1.0723,4.8326,4.8326,0,0,1-.9619-1.6835,6.7931,6.7931,0,0,1-.3379-2.211,9.7116,9.7116,0,0,1,.2139-2.0215,9.5393,9.5393,0,0,1,.624-1.917,8.7776,8.7776,0,0,1,1.001-1.69,6.79,6.79,0,0,1,1.3525-1.3457,6.36,6.36,0,0,1,1.6768-.89,5.85,5.85,0,0,1,1.97-.3252,4.7262,4.7262,0,0,1,1.7285.2861,3.6792,3.6792,0,0,1,1.1963.7275,2.9053,2.9053,0,0,1,.6953.9756,2.5724,2.5724,0,0,1,.2276,1.0137,3.552,3.552,0,0,1-.3506,1.5791,3.2854,3.2854,0,0,1-1.2871,1.3008,9.68,9.68,0,0,1-2.5742,1.0078,28.4439,28.4439,0,0,1-4.2119.6885c0,.0947-.002.1884-.0069.2793s-.0058.1845-.0058.28a4.0648,4.0648,0,0,0,.7607,2.6582,2.8077,2.8077,0,0,0,2.294.9161,4.3088,4.3088,0,0,0,1.1113-.13,4.7413,4.7413,0,0,0,.8711-.3184,3.9055,3.9055,0,0,0,.6758-.416q.293-.2271.5332-.416a5.0163,5.0163,0,0,1,.4492-.3184.7716.7716,0,0,1,.415-.13.5783.5783,0,0,1,.4424.2207Zm-3.6661-9.2559a3.3854,3.3854,0,0,0-1.5078.3379,4.0143,4.0143,0,0,0-1.2226.93,5.6905,5.6905,0,0,0-.91,1.3906,8.33,8.33,0,0,0-.5849,1.7227,25.2429,25.2429,0,0,0,3.2119-.5654,8.02,8.02,0,0,0,1.8584-.6885,1.7934,1.7934,0,0,0,1.0664-1.6973,1.308,1.308,0,0,0-.4356-.9492,1.8154,1.8154,0,0,0-.5918-.3438A2.5084,2.5084,0,0,0,205.4355,41.8281Z" transform="translate(-0.6494 -3.166)"/><path class="j" d="M211.1807,53.5156l1.5859-13.1826h1.1445a.6957.6957,0,0,1,.793.78l-.1826,2.34A8.1222,8.1222,0,0,1,216.66,40.99a4.1033,4.1033,0,0,1,2.4375-.8388,2.2407,2.2407,0,0,1,1.9765.917,4.5629,4.5629,0,0,1,.6367,2.6191,7.5873,7.5873,0,0,1,2.2032-2.6719,4.4359,4.4359,0,0,1,2.5937-.8642,2.4917,2.4917,0,0,1,2.3916,1.3,6.2415,6.2415,0,0,1,.416,3.68l-.9873,8.3847H226.04l1.001-8.3847a5.28,5.28,0,0,0-.0976-2.3018,1.1877,1.1877,0,0,0-1.2549-.7539,2.44,2.44,0,0,0-1.1114.2793,4.0571,4.0571,0,0,0-1.0722.8193,6.4843,6.4843,0,0,0-.9688,1.3389,10.7881,10.7881,0,0,0-.7988,1.8389v.0136l-.8457,7.15h-2.2881l.9883-8.3847a5.6708,5.6708,0,0,0-.0518-2.3018,1.13,1.13,0,0,0-1.2226-.7539,2.5107,2.5107,0,0,0-1.2022.3115,3.9452,3.9452,0,0,0-1.0918.9043,7.38,7.38,0,0,0-.956,1.4424,13.9522,13.9522,0,0,0-.8057,1.918l-.8193,6.8642Z" transform="translate(-0.6494 -3.166)"/><path class="j" d="M242.0039,51.084a11.8109,11.8109,0,0,1-1.3,1.1767,7.91,7.91,0,0,1-1.2939.8125,5.686,5.686,0,0,1-1.378.4747,7.7348,7.7348,0,0,1-1.5537.1494,5.1914,5.1914,0,0,1-2.0273-.377A4.21,4.21,0,0,1,232.93,52.248a4.8326,4.8326,0,0,1-.9619-1.6835,6.7931,6.7931,0,0,1-.3379-2.211,9.7116,9.7116,0,0,1,.2139-2.0215,9.5266,9.5266,0,0,1,.624-1.917,8.7674,8.7674,0,0,1,1.001-1.69,6.79,6.79,0,0,1,1.3525-1.3457,6.358,6.358,0,0,1,1.6767-.89,5.85,5.85,0,0,1,1.97-.3252,4.7265,4.7265,0,0,1,1.7285.2861,3.68,3.68,0,0,1,1.1963.7275,2.9067,2.9067,0,0,1,.6953.9756,2.574,2.574,0,0,1,.2275,1.0137,3.552,3.552,0,0,1-.3506,1.5791,3.2841,3.2841,0,0,1-1.2871,1.3008,9.68,9.68,0,0,1-2.5742,1.0078,28.4439,28.4439,0,0,1-4.2119.6885c0,.0947-.002.1884-.0068.2793s-.0059.1845-.0059.28a4.0648,4.0648,0,0,0,.7607,2.6582,2.8078,2.8078,0,0,0,2.294.9161,4.3088,4.3088,0,0,0,1.1113-.13,4.7386,4.7386,0,0,0,.8711-.3184,3.8979,3.8979,0,0,0,.6758-.416q.2929-.2271.5332-.416a5.0452,5.0452,0,0,1,.4492-.3184.7719.7719,0,0,1,.4151-.13.5781.5781,0,0,1,.4423.2207Zm-3.666-9.2559a3.3854,3.3854,0,0,0-1.5078.3379,4.0147,4.0147,0,0,0-1.2227.93,5.69,5.69,0,0,0-.91,1.3906,8.3366,8.3366,0,0,0-.585,1.7227,25.2363,25.2363,0,0,0,3.2119-.5654,8.0186,8.0186,0,0,0,1.8584-.6885,1.7934,1.7934,0,0,0,1.0664-1.6973,1.3084,1.3084,0,0,0-.4355-.9492,1.8164,1.8164,0,0,0-.5918-.3438A2.5088,2.5088,0,0,0,238.3379,41.8281Z" transform="translate(-0.6494 -3.166)"/><path class="j" d="M245.123,51.0322V50.83c0-.0821.0069-.2012.02-.3574s.0342-.3594.0654-.61.0713-.581.1231-.9883l.8056-6.5908H244.668a.3728.3728,0,0,1-.292-.123.4857.4857,0,0,1-.085-.3838l.1045-.9229,2.0274-.2734.9882-4.0684a.7228.7228,0,0,1,.2012-.3183.4934.4934,0,0,1,.3447-.1241h1.209l-.5586,4.5362h3.458l-.1953,1.6777h-3.4707l-.793,6.4746c-.0439.3555-.0781.6406-.1044.8574s-.045.3907-.0586.52c-.0127.1308-.0215.2207-.0254.2734s-.0069.0908-.0069.1172a1.3548,1.3548,0,0,0,.3125.9814,1.1108,1.1108,0,0,0,.8311.3184,1.6713,1.6713,0,0,0,.6045-.0977,2.8779,2.8779,0,0,0,.4492-.2138c.13-.0782.2383-.15.3252-.2149a.3922.3922,0,0,1,.2207-.0976.2611.2611,0,0,1,.1758.0517.5054.5054,0,0,1,.11.169l.4942,1.1054a4.8581,4.8581,0,0,1-1.45.877,4.4233,4.4233,0,0,1-1.6309.3184,2.7486,2.7486,0,0,1-1.9824-.6885A2.7178,2.7178,0,0,1,245.123,51.0322Z" transform="translate(-0.6494 -3.166)"/><path class="j" d="M256.6016,44.0117a11.1811,11.1811,0,0,1,1.125-1.917,5.6194,5.6194,0,0,1,1.2675-1.2744,3.1345,3.1345,0,0,1,1.3653-.5586,2.65,2.65,0,0,1,1.43.2149l-.4161,2.2226a2.6583,2.6583,0,0,0-2.9834.4942,8.6766,8.6766,0,0,0-2.1,4.2246l-.7285,6.0976H253.3l1.5859-13.1826H256.03a.6957.6957,0,0,1,.7929.78Z" transform="translate(-0.6494 -3.166)"/><path class="j" d="M266.1826,40.3457l-1.5859,13.17h-2.2744l1.5859-13.17Zm2.8731-5.668-3.1719,3.3545a1.2725,1.2725,0,0,1-.3506.2793.9226.9226,0,0,1-.416.085h-1.2744l2.1191-3.1465a1.4424,1.4424,0,0,1,.4092-.4355,1.1277,1.1277,0,0,1,.6045-.1368Z" transform="translate(-0.6494 -3.166)"/><path class="j" d="M276.31,50.0439a11.3876,11.3876,0,0,1-1.0078,1.5088,7.0082,7.0082,0,0,1-1.1436,1.15,4.9984,4.9984,0,0,1-1.2744.7344,3.8016,3.8016,0,0,1-1.3838.26,3.2243,3.2243,0,0,1-1.417-.3057,2.9551,2.9551,0,0,1-1.0859-.8975,4.3516,4.3516,0,0,1-.6953-1.455,7.2148,7.2148,0,0,1-.2471-1.9825,8.9589,8.9589,0,0,1,.292-2.2822,9.29,9.29,0,0,1,2.126-3.9131,8.6428,8.6428,0,0,1,1.6836-1.43,7.994,7.994,0,0,1,1.9951-.9355,7.4661,7.4661,0,0,1,2.2363-.332,9.6734,9.6734,0,0,1,1.6445.1367,6.8361,6.8361,0,0,1,1.5791.4746l-1.5732,12.74h-1.1953a.7046.7046,0,0,1-.6182-.2343.9785.9785,0,0,1-.1621-.5723Zm.8838-8.0859a3.8438,3.8438,0,0,0-.5655-.085c-.1865-.0117-.37-.02-.5527-.02a4.557,4.557,0,0,0-1.5078.2539,5.4078,5.4078,0,0,0-1.3653.709,6.0028,6.0028,0,0,0-1.1562,1.0859,7.0375,7.0375,0,0,0-.8906,1.3838,7.8584,7.8584,0,0,0-.5791,1.6055,7.3387,7.3387,0,0,0-.208,1.749q0,3.1318,2.0019,3.1328a2.2736,2.2736,0,0,0,1.2481-.3964,4.8728,4.8728,0,0,0,1.164-1.1055,9.3531,9.3531,0,0,0,1.0205-1.6768,15.86,15.86,0,0,0,.8321-2.1259Z" transform="translate(-0.6494 -3.166)"/><path class="j" d="M77.1016,299.4043a4.5292,4.5292,0,0,0,1.9238-.4033A4.9237,4.9237,0,0,0,80.56,297.89a5.7917,5.7917,0,0,0,1.0849-1.6962,7.8687,7.8687,0,0,0,.5655-2.1582l1.3916-11.35h2.4306l-1.3906,11.35a9.5875,9.5875,0,0,1-.8457,2.9707,8.3722,8.3722,0,0,1-1.6641,2.3789,7.3536,7.3536,0,0,1-5.291,2.1513,6.4171,6.4171,0,0,1-2.7881-.5722,5.2878,5.2878,0,0,1-1.97-1.5791,6.0425,6.0425,0,0,1-1.0723-2.3789,8.7317,8.7317,0,0,1-.11-2.9707l1.3779-11.35H74.709l-1.3906,11.336a7.0932,7.0932,0,0,0,.039,2.1582,4.444,4.444,0,0,0,.6631,1.7031,3.3522,3.3522,0,0,0,1.2539,1.1182A3.9068,3.9068,0,0,0,77.1016,299.4043Z" transform="translate(-0.6494 -3.166)"/><path class="j" d="M90.8291,291.4746a8.2013,8.2013,0,0,1,2.3789-2.6328,4.8393,4.8393,0,0,1,2.7305-.8906,3.0974,3.0974,0,0,1,1.4619.331,2.6538,2.6538,0,0,1,1.0273.9688,4.1238,4.1238,0,0,1,.54,1.5664,7.86,7.86,0,0,1,0,2.1123l-.9883,8.3848H95.6787l.9873-8.3848a4.2578,4.2578,0,0,0-.1943-2.3067,1.4151,1.4151,0,0,0-1.3916-.748,2.7228,2.7228,0,0,0-1.2676.3379,4.8842,4.8842,0,0,0-1.2412.9619,8.0074,8.0074,0,0,0-1.1113,1.501,10.5783,10.5783,0,0,0-.878,1.957l-.7539,6.6817H87.5146l1.586-13.1817h1.1435a.69.69,0,0,1,.78.78Z" transform="translate(-0.6494 -3.166)"/><path class="j" d="M105.2852,288.1465l-1.586,13.168h-2.2754l1.586-13.168Zm.8837-4.1348a1.4628,1.4628,0,0,1-.1367.6309,1.8044,1.8044,0,0,1-.3633.5195,1.6923,1.6923,0,0,1-.52.3574,1.4714,1.4714,0,0,1-.6045.1309,1.3968,1.3968,0,0,1-.5849-.1309,1.5528,1.5528,0,0,1-.5-.3574,1.8043,1.8043,0,0,1-.3447-.5195,1.5313,1.5313,0,0,1-.13-.6309,1.5752,1.5752,0,0,1,.13-.6367,1.7306,1.7306,0,0,1,.35-.5264,1.7841,1.7841,0,0,1,.5069-.3642,1.35,1.35,0,0,1,.5849-.1367,1.4682,1.4682,0,0,1,.6045.1308,1.6127,1.6127,0,0,1,.5137.3574,1.8107,1.8107,0,0,1,.3574.5332A1.5443,1.5443,0,0,1,106.1689,284.0117Z" transform="translate(-0.6494 -3.166)"/><path class="j" d="M119.9229,282.166,117.57,301.3145h-1.209a.688.688,0,0,1-.6113-.2334,1.0131,1.0131,0,0,1-.1562-.5723l.247-2.7686a10.3039,10.3039,0,0,1-1.0791,1.5469,8.0013,8.0013,0,0,1-1.2285,1.1826,5.3331,5.3331,0,0,1-1.3389.7608,3.9119,3.9119,0,0,1-1.41.2666,3.11,3.11,0,0,1-2.626-1.2285,5.812,5.812,0,0,1-.9365-3.5694,10.4622,10.4622,0,0,1,.2217-2.1308,11.08,11.08,0,0,1,.63-2.0411,10.0522,10.0522,0,0,1,.9883-1.8144,7.4893,7.4893,0,0,1,1.294-1.4492,5.94,5.94,0,0,1,1.54-.9619,4.4019,4.4019,0,0,1,1.7354-.3506,4.0563,4.0563,0,0,1,1.7744.3828,3.8373,3.8373,0,0,1,1.3584,1.0859l.8974-7.2539Zm-3.3536,8.8535a2.6846,2.6846,0,0,0-1.1894-.9824,3.7741,3.7741,0,0,0-1.4111-.2793,3.01,3.01,0,0,0-1.8458.6113,5.3832,5.3832,0,0,0-1.3974,1.5791,8.2671,8.2671,0,0,0-.8906,2.1651,9.2945,9.2945,0,0,0-.3116,2.3525,4.1975,4.1975,0,0,0,.5518,2.36,1.7985,1.7985,0,0,0,1.58.8125,2.4055,2.4055,0,0,0,1.2607-.3907,5.1969,5.1969,0,0,0,1.2285-1.0859,9.5085,9.5085,0,0,0,1.1055-1.6445,13.02,13.02,0,0,0,.89-2.08Z" transform="translate(-0.6494 -3.166)"/><path class="j" d="M129.166,297.8438a11.3132,11.3132,0,0,1-1.0078,1.5078,6.973,6.973,0,0,1-1.1436,1.15,4.9686,4.9686,0,0,1-1.2744.7343,3.7818,3.7818,0,0,1-1.3838.2608,3.2379,3.2379,0,0,1-1.4169-.3057,2.9421,2.9421,0,0,1-1.086-.8965,4.3663,4.3663,0,0,1-.6953-1.457,7.2133,7.2133,0,0,1-.2471-1.9824,8.9615,8.9615,0,0,1,.292-2.2813,9.3555,9.3555,0,0,1,.8321-2.1,9.2249,9.2249,0,0,1,1.2939-1.8125,8.6538,8.6538,0,0,1,1.6836-1.4307,7.9986,7.9986,0,0,1,1.9951-.9365,7.4986,7.4986,0,0,1,2.2363-.331,9.7779,9.7779,0,0,1,1.6446.1367,6.8836,6.8836,0,0,1,1.5791.4736l-1.5733,12.74h-1.1953a.7068.7068,0,0,1-.6181-.2334.9785.9785,0,0,1-.1622-.5723Zm.8838-8.086a3.71,3.71,0,0,0-.5654-.084c-.1865-.0136-.37-.02-.5528-.02a4.5565,4.5565,0,0,0-1.5078.2529,5.4071,5.4071,0,0,0-1.3652.708,6.0982,6.0982,0,0,0-1.1563,1.086,7.11,7.11,0,0,0-.8906,1.3847,7.8643,7.8643,0,0,0-.5791,1.6055,7.3429,7.3429,0,0,0-.208,1.7481q0,3.1347,2.002,3.1328a2.2571,2.2571,0,0,0,1.248-.3965,4.85,4.85,0,0,0,1.1641-1.1045,9.3235,9.3235,0,0,0,1.02-1.6768,15.8541,15.8541,0,0,0,.832-2.125Z" transform="translate(-0.6494 -3.166)"/><path class="j" d="M146.9629,282.166l-2.3535,19.1485H143.4a.6851.6851,0,0,1-.61-.2334,1.0053,1.0053,0,0,1-.1562-.5723l.2471-2.7686a10.4518,10.4518,0,0,1-1.0791,1.5469,8.0474,8.0474,0,0,1-1.2286,1.1826,5.35,5.35,0,0,1-1.3388.7608,3.9177,3.9177,0,0,1-1.4112.2666,3.1112,3.1112,0,0,1-2.6259-1.2285,5.8115,5.8115,0,0,1-.9356-3.5694,10.4677,10.4677,0,0,1,.2207-2.1308,11.0067,11.0067,0,0,1,.6309-2.0411,9.9786,9.9786,0,0,1,.9883-1.8144,7.4846,7.4846,0,0,1,1.2929-1.4492,5.9481,5.9481,0,0,1,1.541-.9619,4.3955,4.3955,0,0,1,1.7354-.3506,4.0623,4.0623,0,0,1,1.7744.3828,3.8452,3.8452,0,0,1,1.3584,1.0859l.8965-7.2539Zm-3.3545,8.8535a2.6747,2.6747,0,0,0-1.1895-.9824,3.7683,3.7683,0,0,0-1.41-.2793,3.01,3.01,0,0,0-1.8457.6113,5.3737,5.3737,0,0,0-1.3985,1.5791,8.3031,8.3031,0,0,0-.89,2.1651,9.2963,9.2963,0,0,0-.3125,2.3525,4.1979,4.1979,0,0,0,.5527,2.36,1.7969,1.7969,0,0,0,1.5791.8125,2.4088,2.4088,0,0,0,1.2618-.3907,5.2184,5.2184,0,0,0,1.2285-1.0859,9.5693,9.5693,0,0,0,1.1045-1.6445,13.04,13.04,0,0,0,.8906-2.08Z" transform="translate(-0.6494 -3.166)"/><path class="j" d="M166.8,282.166l-2.3525,19.1485h-1.209a.6879.6879,0,0,1-.6113-.2334,1.0124,1.0124,0,0,1-.1563-.5723l.2471-2.7686a10.3039,10.3039,0,0,1-1.0791,1.5469A8.01,8.01,0,0,1,160.41,300.47a5.3348,5.3348,0,0,1-1.3389.7608,3.9125,3.9125,0,0,1-1.41.2666,3.11,3.11,0,0,1-2.6259-1.2285,5.8113,5.8113,0,0,1-.9366-3.5694,10.4692,10.4692,0,0,1,.2217-2.1308,11.08,11.08,0,0,1,.63-2.0411,10.04,10.04,0,0,1,.9883-1.8144,7.4889,7.4889,0,0,1,1.2939-1.4492,5.9417,5.9417,0,0,1,1.54-.9619,4.4014,4.4014,0,0,1,1.7353-.3506,4.056,4.056,0,0,1,1.7744.3828,3.8364,3.8364,0,0,1,1.3584,1.0859l.8975-7.2539Zm-3.3535,8.8535a2.6854,2.6854,0,0,0-1.19-.9824,3.7734,3.7734,0,0,0-1.4111-.2793,3.01,3.01,0,0,0-1.8457.6113,5.3849,5.3849,0,0,0-1.3975,1.5791,8.2705,8.2705,0,0,0-.8906,2.1651,9.2943,9.2943,0,0,0-.3115,2.3525,4.1984,4.1984,0,0,0,.5517,2.36,1.7986,1.7986,0,0,0,1.58.8125,2.4058,2.4058,0,0,0,1.2608-.3907,5.1969,5.1969,0,0,0,1.2285-1.0859,9.5142,9.5142,0,0,0,1.1055-1.6445,13.03,13.03,0,0,0,.89-2.08Z" transform="translate(-0.6494 -3.166)"/><path class="j" d="M178.2656,298.8838a11.5253,11.5253,0,0,1-1.3,1.1767,7.9566,7.9566,0,0,1-1.2929.8125,5.7155,5.7155,0,0,1-1.378.4747,7.6627,7.6627,0,0,1-1.5537.1494,5.1965,5.1965,0,0,1-2.0283-.377,4.1835,4.1835,0,0,1-1.52-1.0732,4.8177,4.8177,0,0,1-.9629-1.6836,6.8115,6.8115,0,0,1-.3379-2.209,9.72,9.72,0,0,1,.2148-2.0215,9.4174,9.4174,0,0,1,.6241-1.918,8.6838,8.6838,0,0,1,1.0009-1.6894,6.7355,6.7355,0,0,1,1.3516-1.3457,6.364,6.364,0,0,1,1.6777-.8906,5.8442,5.8442,0,0,1,1.9688-.3252,4.7284,4.7284,0,0,1,1.73.2861,3.6926,3.6926,0,0,1,1.1963.7285,2.9214,2.9214,0,0,1,.6953.9746,2.59,2.59,0,0,1,.2275,1.0137,3.5614,3.5614,0,0,1-.3515,1.58,3.2833,3.2833,0,0,1-1.2871,1.3,9.5615,9.5615,0,0,1-2.5733,1.0068,28.2962,28.2962,0,0,1-4.2119.69c0,.0957-.0029.1884-.0068.2793s-.0069.1845-.0069.2793a4.0647,4.0647,0,0,0,.7608,2.6582,2.8092,2.8092,0,0,0,2.2949.917,4.3143,4.3143,0,0,0,1.1113-.13,4.746,4.746,0,0,0,.8711-.3184,3.858,3.858,0,0,0,.6758-.416c.1953-.1514.3721-.291.5332-.416a5.2125,5.2125,0,0,1,.4482-.3184.779.779,0,0,1,.4161-.1308.5822.5822,0,0,1,.4423.2216Zm-3.666-9.2559a3.3719,3.3719,0,0,0-1.5078.3379,4.0228,4.0228,0,0,0-1.2217.93,5.665,5.665,0,0,0-.91,1.3916,8.249,8.249,0,0,0-.585,1.7217,25.1981,25.1981,0,0,0,3.2109-.5654,7.9739,7.9739,0,0,0,1.8594-.69,1.792,1.792,0,0,0,1.0654-1.6953,1.294,1.294,0,0,0-.4355-.9492,1.8019,1.8019,0,0,0-.5908-.3448A2.5378,2.5378,0,0,0,174.6,289.6279Z" transform="translate(-0.6494 -3.166)"/><path class="j" d="M8.9043,329.0439a11.2869,11.2869,0,0,1-1.0068,1.5088,7.0482,7.0482,0,0,1-1.1446,1.15,4.976,4.976,0,0,1-1.2734.7344,3.8029,3.8029,0,0,1-1.3848.26,3.23,3.23,0,0,1-1.417-.3057,2.9631,2.9631,0,0,1-1.0859-.8975,4.3728,4.3728,0,0,1-.6953-1.455,7.2534,7.2534,0,0,1-.2471-1.9825,8.92,8.92,0,0,1,.293-2.2822,9.3026,9.3026,0,0,1,2.125-3.9131,8.7019,8.7019,0,0,1,1.6836-1.43,8.0172,8.0172,0,0,1,1.9961-.9355,7.46,7.46,0,0,1,2.2353-.332,9.6669,9.6669,0,0,1,1.6446.1367,6.8577,6.8577,0,0,1,1.58.4746l-1.5732,12.74H9.4375a.7038.7038,0,0,1-.6172-.2343.9785.9785,0,0,1-.1621-.5723Zm.8848-8.0859a3.8821,3.8821,0,0,0-.5655-.085c-.1865-.0117-.3711-.0195-.5527-.0195a4.5526,4.5526,0,0,0-1.5078.2539,5.4055,5.4055,0,0,0-1.3652.709,6.0346,6.0346,0,0,0-1.1573,1.0859,7.0421,7.0421,0,0,0-.8906,1.3838,7.8561,7.8561,0,0,0-.5781,1.6055,7.3387,7.3387,0,0,0-.208,1.749q0,3.1318,2.0019,3.1328a2.2736,2.2736,0,0,0,1.2481-.3964,4.8535,4.8535,0,0,0,1.1631-1.1055,9.3072,9.3072,0,0,0,1.0205-1.6768,15.6084,15.6084,0,0,0,.832-2.1259Z" transform="translate(-0.6494 -3.166)"/><path class="j" d="M14.1172,332.5156l2.3271-19.1494H18.72l-2.3271,19.1494Z" transform="translate(-0.6494 -3.166)"/><path class="j" d="M19.9023,332.5156l1.586-13.1826h1.1435a.6957.6957,0,0,1,.793.78l-.1816,2.34a8.0964,8.0964,0,0,1,2.1386-2.4629,4.1037,4.1037,0,0,1,2.4375-.8388,2.239,2.239,0,0,1,1.9756.917,4.5551,4.5551,0,0,1,.6367,2.6191,7.5888,7.5888,0,0,1,2.2041-2.6719,4.4339,4.4339,0,0,1,2.5938-.8642,2.4926,2.4926,0,0,1,2.3916,1.3,6.2575,6.2575,0,0,1,.416,3.68l-.9883,8.3847H34.7607l1.001-8.3847a5.28,5.28,0,0,0-.0976-2.3018,1.1864,1.1864,0,0,0-1.2539-.7539,2.4367,2.4367,0,0,0-1.1114.2793,4.0449,4.0449,0,0,0-1.0732.8193,6.4785,6.4785,0,0,0-.9678,1.3389,10.8673,10.8673,0,0,0-.8,1.8389v.0136l-.8447,7.15H27.3252l.9883-8.3847a5.6489,5.6489,0,0,0-.0528-2.3018,1.1285,1.1285,0,0,0-1.2216-.7539,2.5075,2.5075,0,0,0-1.2022.3115,3.963,3.963,0,0,0-1.0928.9043,7.4192,7.4192,0,0,0-.955,1.4424,13.8294,13.8294,0,0,0-.8057,1.918l-.8193,6.8642Z" transform="translate(-0.6494 -3.166)"/><path class="j" d="M48.502,329.0439a11.3782,11.3782,0,0,1-1.0079,1.5088,7.0038,7.0038,0,0,1-1.1435,1.15,4.9984,4.9984,0,0,1-1.2744.7344,3.8016,3.8016,0,0,1-1.3838.26,3.2243,3.2243,0,0,1-1.417-.3057,2.9551,2.9551,0,0,1-1.0859-.8975,4.3536,4.3536,0,0,1-.6954-1.455,7.2188,7.2188,0,0,1-.247-1.9825,8.9589,8.9589,0,0,1,.292-2.2822,9.2911,9.2911,0,0,1,2.1259-3.9131,8.6486,8.6486,0,0,1,1.6836-1.43,7.9963,7.9963,0,0,1,1.9952-.9355,7.4661,7.4661,0,0,1,2.2363-.332,9.6734,9.6734,0,0,1,1.6445.1367,6.8361,6.8361,0,0,1,1.5791.4746l-1.5732,12.74H49.0352a.7045.7045,0,0,1-.6182-.2343.9785.9785,0,0,1-.1621-.5723Zm.8837-8.0859a3.8425,3.8425,0,0,0-.5654-.085c-.1865-.0117-.37-.0195-.5527-.0195a4.5565,4.5565,0,0,0-1.5078.2539,5.4061,5.4061,0,0,0-1.3653.709,6.0028,6.0028,0,0,0-1.1562,1.0859,7.0375,7.0375,0,0,0-.8906,1.3838,7.8584,7.8584,0,0,0-.5791,1.6055,7.3388,7.3388,0,0,0-.2081,1.749q0,3.1318,2.002,3.1328a2.2731,2.2731,0,0,0,1.248-.3964,4.8713,4.8713,0,0,0,1.1641-1.1055,9.3531,9.3531,0,0,0,1.02-1.6768,15.86,15.86,0,0,0,.832-2.1259Z" transform="translate(-0.6494 -3.166)"/><path class="j" d="M63.5166,330.1484a12.056,12.056,0,0,1-1.2871,1.2364,6.2577,6.2577,0,0,1-1.2217.7851,4.9192,4.9192,0,0,1-1.2676.41,8.0361,8.0361,0,0,1-1.4111.1172,4.94,4.94,0,0,1-2.0215-.3907,3.9915,3.9915,0,0,1-1.4687-1.0976,4.8358,4.8358,0,0,1-.8965-1.7031,7.42,7.42,0,0,1-.3057-2.1914,9.4642,9.4642,0,0,1,.5-3.0674,8.6411,8.6411,0,0,1,1.3975-2.6006,6.969,6.969,0,0,1,2.1387-1.8067,5.5837,5.5837,0,0,1,2.7109-.6757,4.7289,4.7289,0,0,1,2.1973.4609,4.61,4.61,0,0,1,1.5468,1.3457l-.7285.8711a.8181.8181,0,0,1-.2012.17.4954.4954,0,0,1-.2539.0645.5321.5321,0,0,1-.3574-.1621,4.35,4.35,0,0,0-.4609-.3643,3.3267,3.3267,0,0,0-.709-.3643,3.0614,3.0614,0,0,0-1.085-.1621,3.17,3.17,0,0,0-1.69.4873,4.7554,4.7554,0,0,0-1.3906,1.3331,6.7843,6.7843,0,0,0-.9434,2.0019,8.6653,8.6653,0,0,0-.3437,2.4824,5.4839,5.4839,0,0,0,.1816,1.4629,3.1262,3.1262,0,0,0,.5459,1.1172,2.49,2.49,0,0,0,.8906.7148,2.7877,2.7877,0,0,0,1.2285.254,3.6319,3.6319,0,0,0,1.4629-.26,4.9455,4.9455,0,0,0,.9942-.5654c.2685-.2041.4961-.3916.6826-.5655a.8211.8211,0,0,1,.5527-.26.5774.5774,0,0,1,.4414.2207Z" transform="translate(-0.6494 -3.166)"/><path class="j" d="M75.8271,330.084a11.632,11.632,0,0,1-1.3,1.1767,7.9021,7.9021,0,0,1-1.2929.8125,5.7155,5.7155,0,0,1-1.378.4747,7.7348,7.7348,0,0,1-1.5537.1494,5.1969,5.1969,0,0,1-2.0283-.377,4.2158,4.2158,0,0,1-1.52-1.0723,4.8344,4.8344,0,0,1-.9629-1.6835,6.82,6.82,0,0,1-.3379-2.211,9.713,9.713,0,0,1,.2149-2.0215,9.4082,9.4082,0,0,1,.624-1.917,8.7168,8.7168,0,0,1,1.001-1.69,6.7851,6.7851,0,0,1,1.3515-1.3457,6.3631,6.3631,0,0,1,1.6778-.89,5.8432,5.8432,0,0,1,1.9687-.3252,4.728,4.728,0,0,1,1.73.2861,3.69,3.69,0,0,1,1.1963.7275,2.9336,2.9336,0,0,1,.6953.9756,2.59,2.59,0,0,1,.2275,1.0137,3.5526,3.5526,0,0,1-.3515,1.5791,3.2788,3.2788,0,0,1-1.2871,1.3008,9.66,9.66,0,0,1-2.5733,1.0078,28.4439,28.4439,0,0,1-4.2119.6885c0,.0947-.0029.1884-.0068.2793s-.0069.1845-.0069.28a4.07,4.07,0,0,0,.7608,2.6582,2.8084,2.8084,0,0,0,2.2949.9161,4.3143,4.3143,0,0,0,1.1113-.13,4.7386,4.7386,0,0,0,.8711-.3184,3.9752,3.9752,0,0,0,.6758-.416c.1953-.1514.3721-.29.5332-.416a5.1756,5.1756,0,0,1,.4483-.3184.7771.7771,0,0,1,.416-.13.5815.5815,0,0,1,.4424.2207Zm-3.666-9.2559a3.3854,3.3854,0,0,0-1.5078.3379,4.0228,4.0228,0,0,0-1.2217.93,5.6644,5.6644,0,0,0-.91,1.3906,8.2779,8.2779,0,0,0-.585,1.7227,25.2213,25.2213,0,0,0,3.211-.5654,8.03,8.03,0,0,0,1.8593-.6885,1.7944,1.7944,0,0,0,1.0655-1.6973,1.28,1.28,0,0,0-.1035-.4873,1.2957,1.2957,0,0,0-.3321-.4619,1.8,1.8,0,0,0-.5908-.3438A2.5146,2.5146,0,0,0,72.1611,320.8281Z" transform="translate(-0.6494 -3.166)"/><path class="j" d="M81.2217,322.6738a8.2118,8.2118,0,0,1,2.3789-2.6328,4.8453,4.8453,0,0,1,2.7305-.89,3.0979,3.0979,0,0,1,1.4619.331,2.6465,2.6465,0,0,1,1.0273.9688,4.131,4.131,0,0,1,.54,1.5664,7.8671,7.8671,0,0,1,0,2.1133l-.9883,8.3847H86.0713l.9873-8.3847a4.2648,4.2648,0,0,0-.1943-2.3086,1.4161,1.4161,0,0,0-1.3916-.7471,2.7105,2.7105,0,0,0-1.2676.3379,4.8842,4.8842,0,0,0-1.2412.9619,7.947,7.947,0,0,0-1.1114,1.502,10.4858,10.4858,0,0,0-.8779,1.956l-.7539,6.6826H77.9072l1.586-13.1826h1.1435a.69.69,0,0,1,.78.78Z" transform="translate(-0.6494 -3.166)"/><path class="j" d="M99.8252,329.0439a11.3778,11.3778,0,0,1-1.0078,1.5088,7.0082,7.0082,0,0,1-1.1436,1.15,4.9984,4.9984,0,0,1-1.2744.7344,3.8016,3.8016,0,0,1-1.3838.26,3.2246,3.2246,0,0,1-1.417-.3057,2.9551,2.9551,0,0,1-1.0859-.8975,4.3535,4.3535,0,0,1-.6953-1.455,7.2148,7.2148,0,0,1-.2471-1.9825,8.9633,8.9633,0,0,1,.292-2.2822,9.29,9.29,0,0,1,2.126-3.9131,8.6457,8.6457,0,0,1,1.6836-1.43,7.9957,7.9957,0,0,1,1.9951-.9355,7.4661,7.4661,0,0,1,2.2363-.332,9.6755,9.6755,0,0,1,1.6446.1367,6.8375,6.8375,0,0,1,1.5791.4746l-1.5733,12.74h-1.1953a.7046.7046,0,0,1-.6182-.2343.9785.9785,0,0,1-.1621-.5723Zm.8838-8.0859a3.8425,3.8425,0,0,0-.5654-.085c-.1866-.0117-.37-.0195-.5528-.0195a4.5574,4.5574,0,0,0-1.5078.2539,5.4072,5.4072,0,0,0-1.3652.709,6.0033,6.0033,0,0,0-1.1563,1.0859,7.0421,7.0421,0,0,0-.8906,1.3838,7.8643,7.8643,0,0,0-.5791,1.6055,7.3387,7.3387,0,0,0-.208,1.749q0,3.1318,2.0019,3.1328a2.2734,2.2734,0,0,0,1.2481-.3964,4.875,4.875,0,0,0,1.1641-1.1055,9.3588,9.3588,0,0,0,1.02-1.6768,15.873,15.873,0,0,0,.832-2.1259Z" transform="translate(-0.6494 -3.166)"/><path class="j" d="M104.9727,332.5156l1.5859-13.1826h1.1445a.6958.6958,0,0,1,.793.78l-.1826,2.34a8.1233,8.1233,0,0,1,2.1386-2.4629,4.1037,4.1037,0,0,1,2.4375-.8388,2.2408,2.2408,0,0,1,1.9766.917,4.5629,4.5629,0,0,1,.6367,2.6191,7.5863,7.5863,0,0,1,2.2032-2.6719,4.4356,4.4356,0,0,1,2.5937-.8642,2.4917,2.4917,0,0,1,2.3916,1.3,6.2415,6.2415,0,0,1,.416,3.68l-.9873,8.3847H119.832l1.001-8.3847a5.28,5.28,0,0,0-.0976-2.3018,1.1877,1.1877,0,0,0-1.2549-.7539,2.44,2.44,0,0,0-1.1114.2793,4.0571,4.0571,0,0,0-1.0722.8193,6.4843,6.4843,0,0,0-.9688,1.3389,10.7881,10.7881,0,0,0-.7988,1.8389v.0136l-.8457,7.15h-2.2881l.9883-8.3847a5.6708,5.6708,0,0,0-.0518-2.3018,1.13,1.13,0,0,0-1.2226-.7539,2.5107,2.5107,0,0,0-1.2022.3115,3.9452,3.9452,0,0,0-1.0918.9043,7.38,7.38,0,0,0-.956,1.4424,13.9522,13.9522,0,0,0-.8057,1.918l-.8193,6.8642Z" transform="translate(-0.6494 -3.166)"/><path class="j" d="M129.4248,319.3457l-1.5859,13.17h-2.2744l1.5859-13.17Zm.8848-4.1338a1.4774,1.4774,0,0,1-.1367.6309,1.8421,1.8421,0,0,1-.3643.52,1.7439,1.7439,0,0,1-.52.3574,1.4857,1.4857,0,0,1-.6045.1289,1.4069,1.4069,0,0,1-.585-.1289,1.6038,1.6038,0,0,1-.501-.3574,1.8825,1.8825,0,0,1-.3447-.52,1.5491,1.5491,0,0,1-.13-.6309,1.59,1.59,0,0,1,.13-.6367,1.7613,1.7613,0,0,1,.8584-.8906,1.3457,1.3457,0,0,1,.585-.1358,1.486,1.486,0,0,1,.6045.1289,1.6571,1.6571,0,0,1,.5136.3575,1.8368,1.8368,0,0,1,.3575.5332A1.5639,1.5639,0,0,1,130.31,315.2119Z" transform="translate(-0.6494 -3.166)"/><path class="j" d="M141.7754,330.084a11.8109,11.8109,0,0,1-1.3,1.1767,7.91,7.91,0,0,1-1.294.8125,5.6852,5.6852,0,0,1-1.3779.4747,7.7348,7.7348,0,0,1-1.5537.1494,5.1914,5.1914,0,0,1-2.0273-.377,4.21,4.21,0,0,1-1.5215-1.0723,4.831,4.831,0,0,1-.9619-1.6835,6.7931,6.7931,0,0,1-.3379-2.211,9.7182,9.7182,0,0,1,.2138-2.0215,9.5332,9.5332,0,0,1,.6241-1.917,8.7721,8.7721,0,0,1,1.0009-1.69,6.79,6.79,0,0,1,1.3526-1.3457,6.358,6.358,0,0,1,1.6767-.89,5.85,5.85,0,0,1,1.97-.3252,4.7265,4.7265,0,0,1,1.7285.2861,3.6813,3.6813,0,0,1,1.1963.7275,2.9067,2.9067,0,0,1,.6953.9756,2.574,2.574,0,0,1,.2275,1.0137,3.552,3.552,0,0,1-.3506,1.5791,3.2848,3.2848,0,0,1-1.2871,1.3008,9.68,9.68,0,0,1-2.5742,1.0078,28.4439,28.4439,0,0,1-4.2119.6885c0,.0947-.002.1884-.0068.2793s-.0059.1845-.0059.28a4.0648,4.0648,0,0,0,.7607,2.6582,2.8078,2.8078,0,0,0,2.294.9161,4.3088,4.3088,0,0,0,1.1113-.13,4.7413,4.7413,0,0,0,.8711-.3184,3.9017,3.9017,0,0,0,.6758-.416q.2929-.2271.5332-.416a5.0307,5.0307,0,0,1,.4492-.3184.7718.7718,0,0,1,.415-.13.5783.5783,0,0,1,.4424.2207Zm-3.666-9.2559a3.3851,3.3851,0,0,0-1.5078.3379,4.0147,4.0147,0,0,0-1.2227.93,5.6874,5.6874,0,0,0-.91,1.3906,8.3366,8.3366,0,0,0-.585,1.7227,25.2363,25.2363,0,0,0,3.2119-.5654,8.0186,8.0186,0,0,0,1.8584-.6885,1.7934,1.7934,0,0,0,1.0664-1.6973,1.3084,1.3084,0,0,0-.4355-.9492,1.8164,1.8164,0,0,0-.5918-.3438A2.5088,2.5088,0,0,0,138.1094,320.8281Z" transform="translate(-0.6494 -3.166)"/><path class="j" d="M147.17,322.6738a8.213,8.213,0,0,1,2.3789-2.6328,4.8426,4.8426,0,0,1,2.73-.89,3.1043,3.1043,0,0,1,1.4629.331,2.6543,2.6543,0,0,1,1.0274.9688,4.1478,4.1478,0,0,1,.539,1.5664,7.7857,7.7857,0,0,1,0,2.1133l-.9883,8.3847h-2.3007l.9882-8.3847a4.262,4.262,0,0,0-.1953-2.3086,1.4135,1.4135,0,0,0-1.3906-.7471,2.7078,2.7078,0,0,0-1.2676.3379,4.8842,4.8842,0,0,0-1.2412.9619,7.9537,7.9537,0,0,0-1.1123,1.502,10.4714,10.4714,0,0,0-.8769,1.956l-.754,6.6826h-2.3144L145.44,319.333h1.1446a.69.69,0,0,1,.7793.78Z" transform="translate(-0.6494 -3.166)"/><path class="j" d="M158.6748,330.0322V329.83c0-.0821.0068-.2012.0195-.3574s.0342-.3594.0655-.61.0713-.581.123-.9883l.8057-6.5908H158.22a.3729.3729,0,0,1-.292-.123.4857.4857,0,0,1-.0849-.3838l.1045-.9229,2.0273-.2734.9883-4.0684a.7219.7219,0,0,1,.2012-.3183.4932.4932,0,0,1,.3447-.1241h1.209l-.5586,4.5362h3.458l-.1953,1.6777h-3.4707l-.793,6.4746c-.0439.3555-.0781.6406-.1045.8574s-.0449.3907-.0586.52c-.0127.1308-.0215.2207-.0254.2734s-.0068.0908-.0068.1172a1.3548,1.3548,0,0,0,.3125.9814,1.1108,1.1108,0,0,0,.831.3184,1.6709,1.6709,0,0,0,.6045-.0977,2.8749,2.8749,0,0,0,.4493-.2138c.13-.0782.2382-.15.3252-.2149a.392.392,0,0,1,.2207-.0976.2606.2606,0,0,1,.1757.0517.5054.5054,0,0,1,.11.169l.4941,1.1054a4.8581,4.8581,0,0,1-1.45.877,4.4228,4.4228,0,0,1-1.6308.3184,2.7484,2.7484,0,0,1-1.9824-.6885A2.7178,2.7178,0,0,1,158.6748,330.0322Z" transform="translate(-0.6494 -3.166)"/><path class="j" d="M171.7529,332.6973a5.1125,5.1125,0,0,1-1.9765-.3711,4.3225,4.3225,0,0,1-1.5469-1.0723,4.93,4.93,0,0,1-1.0137-1.7158,6.8129,6.8129,0,0,1-.3642-2.3135,9.3147,9.3147,0,0,1,.52-3.1328,8.3259,8.3259,0,0,1,1.43-2.5684,6.8477,6.8477,0,0,1,2.1386-1.7353,5.6577,5.6577,0,0,1,2.6455-.6367,5.124,5.124,0,0,1,1.9756.37,4.3389,4.3389,0,0,1,1.5469,1.0723,4.9676,4.9676,0,0,1,1.0146,1.7167,6.7917,6.7917,0,0,1,.3633,2.3008,9.272,9.272,0,0,1-.5195,3.1192,8.4945,8.4945,0,0,1-1.4238,2.5742,6.7921,6.7921,0,0,1-2.1387,1.749A5.6571,5.6571,0,0,1,171.7529,332.6973Zm.2207-1.8067a3.02,3.02,0,0,0,1.7227-.5205,4.6766,4.6766,0,0,0,1.3262-1.3838,7.0484,7.0484,0,0,0,.8515-1.9961,9.2266,9.2266,0,0,0,.2989-2.3662,4.365,4.365,0,0,0-.7217-2.7363,2.4839,2.4839,0,0,0-2.0733-.917,3.0712,3.0712,0,0,0-1.7353.5137,4.56,4.56,0,0,0-1.32,1.3711,7.0529,7.0529,0,0,0-.8448,1.99,9.2194,9.2194,0,0,0-.2988,2.3652,4.4592,4.4592,0,0,0,.7149,2.75A2.4657,2.4657,0,0,0,171.9736,330.8906Z" transform="translate(-0.6494 -3.166)"/><line class="i" x1="578.1438" y1="91.8789" x2="637.5984" y2="57.8865"/><path class="j" d="M581.0326,98.9617a4.5117,4.5117,0,1,1,1.6774-6.156A4.5119,4.5119,0,0,1,581.0326,98.9617Z" transform="translate(-0.6494 -3.166)"/><line class="i" x1="269.0702" y1="241.5186" x2="196.9045" y2="284.9116"/><path class="j" d="M267.3947,240.8181a4.5118,4.5118,0,1,1-1.5416,6.1914A4.5122,4.5122,0,0,1,267.3947,240.8181Z" transform="translate(-0.6494 -3.166)"/><line class="i" x1="515.9045" y1="372.5186" x2="587.7361" y2="371.7437"/><path class="j" d="M516.6027,380.196a4.5117,4.5117,0,1,1,4.4627-4.56A4.512,4.512,0,0,1,516.6027,380.196Z" transform="translate(-0.6494 -3.166)"/><path class="j" d="M668.95,58.3145h-1.8721a.7332.7332,0,0,1-.5068-.1622.8984.8984,0,0,1-.26-.4218L665.2979,53.18h-7.5791l-2.1319,4.5508a1.1414,1.1414,0,0,1-.3584.4091.8954.8954,0,0,1-.539.1749H652.791l9.126-18.629h2.4707Zm-4.043-6.9024-1.7031-7.709q-.0645-.3514-.1553-.8125t-.1562-.9941q-.1948.5449-.39,1c-.1308.3037-.247.5771-.3515.8193l-3.6006,7.6963Z" transform="translate(-0.6494 -3.166)"/><path class="j" d="M674.124,48.4746a8.2013,8.2013,0,0,1,2.3789-2.6328,4.8393,4.8393,0,0,1,2.7305-.8906,3.0974,3.0974,0,0,1,1.4619.331,2.6548,2.6548,0,0,1,1.0274.9688,4.1255,4.1255,0,0,1,.54,1.5664,7.86,7.86,0,0,1,0,2.1123l-.9883,8.3848h-2.3008l.9873-8.3848a4.2578,4.2578,0,0,0-.1943-2.3067,1.4151,1.4151,0,0,0-1.3916-.748,2.7228,2.7228,0,0,0-1.2676.3379,4.8842,4.8842,0,0,0-1.2412.9619,8.0074,8.0074,0,0,0-1.1113,1.501,10.5716,10.5716,0,0,0-.8779,1.957l-.754,6.6817H670.81l1.5859-13.1817h1.1436a.6894.6894,0,0,1,.78.78Z" transform="translate(-0.6494 -3.166)"/><path class="j" d="M685.63,55.832v-.2011c0-.0821.0058-.2022.0195-.3575s.0342-.3593.0645-.6113.0713-.58.124-.9883l.8057-6.5908h-1.4688a.3711.3711,0,0,1-.293-.124.485.485,0,0,1-.0839-.3828l.1035-.9239L686.93,45.38l.9883-4.0694a.7326.7326,0,0,1,.2011-.3183.4958.4958,0,0,1,.3448-.1231h1.209l-.56,4.5372h3.458l-.1943,1.6767h-3.4717l-.793,6.4736c-.043.3555-.0781.6416-.1035.8584s-.0459.39-.0586.52c-.0137.129-.0215.2208-.0264.2725s-.0058.0908-.0058.1162a1.3555,1.3555,0,0,0,.3115.9824,1.11,1.11,0,0,0,.832.3184,1.6927,1.6927,0,0,0,.6045-.0977,2.8161,2.8161,0,0,0,.4483-.2148,3.8631,3.8631,0,0,0,.3252-.2139.3947.3947,0,0,1,.2207-.0976.2606.2606,0,0,1,.1757.0517.4952.4952,0,0,1,.11.17l.4941,1.1044a4.91,4.91,0,0,1-1.4492.878,4.4728,4.4728,0,0,1-1.6318.3183,2.7544,2.7544,0,0,1-1.9824-.6894A2.7173,2.7173,0,0,1,685.63,55.832Z" transform="translate(-0.6494 -3.166)"/><path class="j" d="M704.167,55.8838a11.5253,11.5253,0,0,1-1.3,1.1767,7.9573,7.9573,0,0,1-1.293.8125,5.7148,5.7148,0,0,1-1.3779.4747,7.6634,7.6634,0,0,1-1.5537.1494,5.1965,5.1965,0,0,1-2.0283-.377,4.1835,4.1835,0,0,1-1.52-1.0732,4.8146,4.8146,0,0,1-.9629-1.6836,6.8115,6.8115,0,0,1-.3379-2.209,9.7129,9.7129,0,0,1,.2148-2.0215,9.4234,9.4234,0,0,1,.624-1.918,8.6893,8.6893,0,0,1,1.001-1.6894,6.73,6.73,0,0,1,1.3516-1.3457,6.364,6.364,0,0,1,1.6777-.8906,5.8442,5.8442,0,0,1,1.9688-.3252,4.7288,4.7288,0,0,1,1.73.2861,3.692,3.692,0,0,1,1.1962.7285,2.92,2.92,0,0,1,.6954.9746,2.5916,2.5916,0,0,1,.2275,1.0137,3.56,3.56,0,0,1-.3516,1.58,3.2833,3.2833,0,0,1-1.2871,1.3,9.5594,9.5594,0,0,1-2.5732,1.0068,28.2962,28.2962,0,0,1-4.2119.69c0,.0957-.003.1884-.0069.2793s-.0068.1845-.0068.2793a4.0653,4.0653,0,0,0,.7607,2.6582,2.8094,2.8094,0,0,0,2.295.917,4.3143,4.3143,0,0,0,1.1113-.13,4.7487,4.7487,0,0,0,.8711-.3184,3.8618,3.8618,0,0,0,.6758-.416c.1953-.1514.372-.291.5332-.416a5.1816,5.1816,0,0,1,.4482-.3184.7787.7787,0,0,1,.416-.1308.5824.5824,0,0,1,.4424.2216Zm-3.666-9.2559a3.3716,3.3716,0,0,0-1.5078.3379,4.0228,4.0228,0,0,0-1.2217.93,5.6681,5.6681,0,0,0-.91,1.3916,8.2488,8.2488,0,0,0-.5849,1.7217,25.2014,25.2014,0,0,0,3.2109-.5654,7.9739,7.9739,0,0,0,1.8594-.6895,1.792,1.792,0,0,0,1.0654-1.6953,1.294,1.294,0,0,0-.4355-.9492,1.8024,1.8024,0,0,0-.5909-.3448A2.5368,2.5368,0,0,0,700.501,46.6279Z" transform="translate(-0.6494 -3.166)"/><path class="j" d="M709.5615,48.4746a8.2013,8.2013,0,0,1,2.3789-2.6328,4.8393,4.8393,0,0,1,2.7305-.8906,3.0974,3.0974,0,0,1,1.4619.331,2.6548,2.6548,0,0,1,1.0274.9688,4.1255,4.1255,0,0,1,.54,1.5664,7.86,7.86,0,0,1,0,2.1123l-.9883,8.3848h-2.3008l.9873-8.3848a4.2578,4.2578,0,0,0-.1943-2.3067,1.4151,1.4151,0,0,0-1.3916-.748,2.7228,2.7228,0,0,0-1.2676.3379,4.8842,4.8842,0,0,0-1.2412.9619,8.0074,8.0074,0,0,0-1.1113,1.501,10.5716,10.5716,0,0,0-.8779,1.957l-.754,6.6817h-2.3134l1.5859-13.1817h1.1436a.6894.6894,0,0,1,.78.78Z" transform="translate(-0.6494 -3.166)"/><path class="j" d="M728.1641,54.8438a11.2236,11.2236,0,0,1-1.0069,1.5078,7.0161,7.0161,0,0,1-1.1445,1.15,4.9481,4.9481,0,0,1-1.2734.7343,3.7831,3.7831,0,0,1-1.3848.2608,3.2446,3.2446,0,0,1-1.417-.3057,2.9505,2.9505,0,0,1-1.0859-.8965,4.3818,4.3818,0,0,1-.6953-1.457,7.248,7.248,0,0,1-.2471-1.9824,8.9178,8.9178,0,0,1,.2929-2.2813,9.2779,9.2779,0,0,1,2.125-3.9121,8.713,8.713,0,0,1,1.6836-1.4307,8.0235,8.0235,0,0,1,1.9961-.9365,7.4922,7.4922,0,0,1,2.2354-.331,9.768,9.768,0,0,1,1.6445.1367,6.9047,6.9047,0,0,1,1.58.4736l-1.5732,12.74h-1.1963a.706.706,0,0,1-.6172-.2334.9785.9785,0,0,1-.1621-.5723Zm.8847-8.086a3.7469,3.7469,0,0,0-.5654-.084c-.1865-.0136-.3711-.02-.5527-.02a4.5518,4.5518,0,0,0-1.5078.2529,5.406,5.406,0,0,0-1.3653.708,6.1329,6.1329,0,0,0-1.1572,1.086,7.1006,7.1006,0,0,0-.8906,1.3847,7.8623,7.8623,0,0,0-.5782,1.6055,7.348,7.348,0,0,0-.208,1.7481q0,3.1347,2.002,3.1328a2.2571,2.2571,0,0,0,1.248-.3965,4.8247,4.8247,0,0,0,1.1631-1.1045,9.2609,9.2609,0,0,0,1.02-1.6768,15.59,15.59,0,0,0,.8321-2.125Z" transform="translate(-0.6494 -3.166)"/><path class="j" d="M622.0244,372.6934a12.2631,12.2631,0,0,1-.7344,4.3359,10.0253,10.0253,0,0,1-2.0351,3.3535,9.0183,9.0183,0,0,1-3.0869,2.1651,9.7615,9.7615,0,0,1-3.8936.7666h-6.4219l2.2881-18.629h6.4346a7.8288,7.8288,0,0,1,3.0937.586,6.643,6.643,0,0,1,2.3467,1.6445,7.2988,7.2988,0,0,1,1.4883,2.5352A9.6892,9.6892,0,0,1,622.0244,372.6934Zm-2.5088.0527a8.5278,8.5278,0,0,0-.3515-2.5352,5.3784,5.3784,0,0,0-1.02-1.9179,4.4961,4.4961,0,0,0-1.6309-1.209,5.3535,5.3535,0,0,0-2.1709-.4219h-3.9912l-1.82,14.69h3.9912a6.7043,6.7043,0,0,0,2.834-.5918,6.2083,6.2083,0,0,0,2.21-1.7022,8.0567,8.0567,0,0,0,1.4366-2.7041A11.7478,11.7478,0,0,0,619.5156,372.7461Z" transform="translate(-0.6494 -3.166)"/><path class="j" d="M631.8779,379.8438a11.3132,11.3132,0,0,1-1.0078,1.5078,6.9764,6.9764,0,0,1-1.1435,1.15,4.9708,4.9708,0,0,1-1.2745.7343,3.7813,3.7813,0,0,1-1.3837.2608,3.2383,3.2383,0,0,1-1.417-.3057,2.9437,2.9437,0,0,1-1.086-.8965,4.3663,4.3663,0,0,1-.6953-1.457,7.2133,7.2133,0,0,1-.2471-1.9824,8.9615,8.9615,0,0,1,.292-2.2813,9.36,9.36,0,0,1,.8321-2.1,9.2249,9.2249,0,0,1,1.2939-1.8125,8.6538,8.6538,0,0,1,1.6836-1.4307,8,8,0,0,1,1.9951-.9365,7.4988,7.4988,0,0,1,2.2364-.331,9.7776,9.7776,0,0,1,1.6445.1367,6.8822,6.8822,0,0,1,1.5791.4736l-1.5733,12.74h-1.1953a.7068.7068,0,0,1-.6181-.2334.9785.9785,0,0,1-.1621-.5723Zm.8838-8.086a3.71,3.71,0,0,0-.5654-.084c-.1865-.0136-.37-.02-.5527-.02a4.5567,4.5567,0,0,0-1.5079.2529,5.4071,5.4071,0,0,0-1.3652.708,6.0977,6.0977,0,0,0-1.1562,1.086,7.1057,7.1057,0,0,0-.8907,1.3847,7.87,7.87,0,0,0-.5791,1.6055,7.348,7.348,0,0,0-.208,1.7481q0,3.1347,2.002,3.1328a2.2571,2.2571,0,0,0,1.248-.3965,4.8478,4.8478,0,0,0,1.1641-1.1045,9.3177,9.3177,0,0,0,1.02-1.6768,15.8407,15.8407,0,0,0,.832-2.125Z" transform="translate(-0.6494 -3.166)"/><path class="j" d="M638.0654,380.832v-.2011c0-.0821.0069-.2022.02-.3575s.0341-.3593.0654-.6113.0713-.58.123-.9883l.8057-6.5908H637.61a.37.37,0,0,1-.292-.124.4805.4805,0,0,1-.085-.3828l.1045-.9239,2.0273-.2724.9883-4.0694a.7337.7337,0,0,1,.2012-.3183.4971.4971,0,0,1,.3447-.1231h1.209l-.5586,4.5372h3.458l-.1953,1.6767h-3.4707l-.793,6.4736c-.0439.3555-.0781.6416-.1045.8584s-.0449.39-.0586.52c-.0127.129-.0214.2208-.0253.2725s-.0069.0908-.0069.1162a1.3557,1.3557,0,0,0,.3125.9824,1.1074,1.1074,0,0,0,.8311.3184,1.6935,1.6935,0,0,0,.6045-.0977,2.79,2.79,0,0,0,.4492-.2148,3.8305,3.8305,0,0,0,.3252-.2139.392.392,0,0,1,.2207-.0976.2611.2611,0,0,1,.1758.0517.51.51,0,0,1,.11.17l.4942,1.1044a4.9036,4.9036,0,0,1-1.45.878,4.4646,4.4646,0,0,1-1.6309.3183,2.7527,2.7527,0,0,1-1.9824-.6894A2.7178,2.7178,0,0,1,638.0654,380.832Z" transform="translate(-0.6494 -3.166)"/><path class="j" d="M651.1436,383.4971a5.15,5.15,0,0,1-1.9766-.37,4.363,4.363,0,0,1-1.5469-1.0733,4.9387,4.9387,0,0,1-1.0137-1.7158,6.8148,6.8148,0,0,1-.3642-2.3145,9.3236,9.3236,0,0,1,.52-3.1328,8.3541,8.3541,0,0,1,1.43-2.5674,6.861,6.861,0,0,1,2.1387-1.7353,5.67,5.67,0,0,1,2.6455-.6367,5.1239,5.1239,0,0,1,1.9755.37,4.33,4.33,0,0,1,1.5469,1.0732,4.9425,4.9425,0,0,1,1.0147,1.7149,6.8007,6.8007,0,0,1,.3633,2.3017,9.2821,9.2821,0,0,1-.52,3.12,8.5184,8.5184,0,0,1-1.4238,2.5742,6.814,6.814,0,0,1-2.1387,1.748A5.657,5.657,0,0,1,651.1436,383.4971Zm.2207-1.8076a3.0187,3.0187,0,0,0,1.7226-.52,4.6813,4.6813,0,0,0,1.3262-1.3847,7.0258,7.0258,0,0,0,.8515-1.9952,9.2172,9.2172,0,0,0,.2989-2.3662,4.3687,4.3687,0,0,0-.7217-2.7363,2.4807,2.4807,0,0,0-2.0732-.916,3.0638,3.0638,0,0,0-1.7354.5137,4.5385,4.5385,0,0,0-1.32,1.3711,7.0368,7.0368,0,0,0-.8447,1.9882,9.2228,9.2228,0,0,0-.2989,2.3662,4.4565,4.4565,0,0,0,.7149,2.7491A2.4607,2.4607,0,0,0,651.3643,381.69Z" transform="translate(-0.6494 -3.166)"/><path class="j" d="M668.2256,372.252a.843.843,0,0,1-.208.2275.4479.4479,0,0,1-.26.0713.7219.7219,0,0,1-.3965-.1426c-.1435-.0957-.3164-.2012-.5205-.3184a4.2278,4.2278,0,0,0-.747-.3252,3.3524,3.3524,0,0,0-1.0665-.1494,3.31,3.31,0,0,0-1.0654.1621,2.544,2.544,0,0,0-.8262.4493,2.027,2.027,0,0,0-.5332.6689,1.8274,1.8274,0,0,0-.1884.8125,1.2519,1.2519,0,0,0,.4033.9756,3.7243,3.7243,0,0,0,1.0137.63q.6108.2666,1.3134.5136a6.7562,6.7562,0,0,1,1.3125.6241,3.3605,3.3605,0,0,1,1.0147.9619,2.6286,2.6286,0,0,1,.4023,1.5205,4.3843,4.3843,0,0,1-1.3838,3.2051,5.09,5.09,0,0,1-1.6123,1.0078,5.6673,5.6673,0,0,1-2.1123.3769,5.2537,5.2537,0,0,1-2.2295-.4492,4.6315,4.6315,0,0,1-1.58-1.15l.5722-.8838a.9963.9963,0,0,1,.2539-.2607.6371.6371,0,0,1,.7735.0918q.2079.1817.5195.4092a3.4138,3.4138,0,0,0,.7871.4092,3.3754,3.3754,0,0,0,1.2022.1826,3.2241,3.2241,0,0,0,1.15-.1953,2.6993,2.6993,0,0,0,.8711-.5205,2.1849,2.1849,0,0,0,.5459-.76,2.31,2.31,0,0,0,.1885-.93,1.4011,1.4011,0,0,0-.4023-1.0527,3.3231,3.3231,0,0,0-1.0147-.65q-.6108-.2593-1.3125-.4873a6.6224,6.6224,0,0,1-1.3135-.585,3.1969,3.1969,0,0,1-1.0136-.93,2.5914,2.5914,0,0,1-.4033-1.5215,4.03,4.03,0,0,1,.332-1.6054,4.1458,4.1458,0,0,1,.9551-1.3711,4.6806,4.6806,0,0,1,1.5146-.9551,5.3515,5.3515,0,0,1,2.0088-.3574,5.1434,5.1434,0,0,1,2.0859.3965,4.7907,4.7907,0,0,1,1.5537,1.0722Z" transform="translate(-0.6494 -3.166)"/><path class="j" d="M688.8691,364.166l-2.3525,19.1485h-1.209a.688.688,0,0,1-.6113-.2334,1.0131,1.0131,0,0,1-.1563-.5723l.2471-2.7686a10.3039,10.3039,0,0,1-1.0791,1.5469A8.0013,8.0013,0,0,1,682.48,382.47a5.3331,5.3331,0,0,1-1.3389.7608,3.9119,3.9119,0,0,1-1.41.2666,3.11,3.11,0,0,1-2.626-1.2285,5.812,5.812,0,0,1-.9365-3.5694,10.4691,10.4691,0,0,1,.2216-2.1308,11.0881,11.0881,0,0,1,.63-2.0411,10.0522,10.0522,0,0,1,.9883-1.8144,7.4893,7.4893,0,0,1,1.294-1.4492,5.94,5.94,0,0,1,1.54-.9619,4.4018,4.4018,0,0,1,1.7353-.3506,4.0568,4.0568,0,0,1,1.7745.3828A3.8373,3.8373,0,0,1,685.71,371.42l.8974-7.2539Zm-3.3535,8.8535a2.6851,2.6851,0,0,0-1.1894-.9824,3.7742,3.7742,0,0,0-1.4112-.2793,3.01,3.01,0,0,0-1.8457.6113,5.3832,5.3832,0,0,0-1.3974,1.5791,8.2671,8.2671,0,0,0-.8906,2.1651,9.29,9.29,0,0,0-.3116,2.3525,4.1975,4.1975,0,0,0,.5518,2.36,1.7984,1.7984,0,0,0,1.58.8125,2.4055,2.4055,0,0,0,1.2607-.3907,5.1969,5.1969,0,0,0,1.2285-1.0859,9.5085,9.5085,0,0,0,1.1055-1.6445,13.02,13.02,0,0,0,.89-2.08Z" transform="translate(-0.6494 -3.166)"/><path class="j" d="M700.335,380.8838a11.7009,11.7009,0,0,1-1.3,1.1767,7.9648,7.9648,0,0,1-1.294.8125,5.6867,5.6867,0,0,1-1.3779.4747,7.6634,7.6634,0,0,1-1.5537.1494,5.1923,5.1923,0,0,1-2.0274-.377,4.1805,4.1805,0,0,1-1.5215-1.0732,4.8159,4.8159,0,0,1-.9619-1.6836,6.7846,6.7846,0,0,1-.3379-2.209,9.7116,9.7116,0,0,1,.2139-2.0215,9.5485,9.5485,0,0,1,.624-1.918,8.74,8.74,0,0,1,1.001-1.6894,6.7371,6.7371,0,0,1,1.3525-1.3457,6.36,6.36,0,0,1,1.6768-.8906,5.85,5.85,0,0,1,1.97-.3252,4.7262,4.7262,0,0,1,1.7285.2861,3.6808,3.6808,0,0,1,1.1963.7285,2.892,2.892,0,0,1,.6953.9746,2.5724,2.5724,0,0,1,.2276,1.0137,3.5594,3.5594,0,0,1-.3506,1.58,3.29,3.29,0,0,1-1.2871,1.3,9.5813,9.5813,0,0,1-2.5742,1.0068,28.2962,28.2962,0,0,1-4.2119.69c0,.0957-.002.1884-.0069.2793s-.0058.1845-.0058.2793a4.06,4.06,0,0,0,.7607,2.6582,2.8084,2.8084,0,0,0,2.2939.917,4.3091,4.3091,0,0,0,1.1114-.13,4.7487,4.7487,0,0,0,.8711-.3184,3.7923,3.7923,0,0,0,.6758-.416c.1953-.1514.373-.291.5332-.416a5.0368,5.0368,0,0,1,.4492-.3184.7729.7729,0,0,1,.415-.1308.5794.5794,0,0,1,.4424.2216Zm-3.6661-9.2559a3.3719,3.3719,0,0,0-1.5078.3379,4.0143,4.0143,0,0,0-1.2226.93,5.6969,5.6969,0,0,0-.91,1.3916,8.3013,8.3013,0,0,0-.5849,1.7217,25.225,25.225,0,0,0,3.2119-.5654,7.9652,7.9652,0,0,0,1.8584-.69,1.7909,1.7909,0,0,0,1.0664-1.6953,1.3037,1.3037,0,0,0-.4356-.9492,1.8167,1.8167,0,0,0-.5918-.3448A2.5314,2.5314,0,0,0,696.6689,371.6279Z" transform="translate(-0.6494 -3.166)"/><path class="j" d="M702.48,383.3145l2.3271-19.1485h2.2754l-2.3271,19.1485Z" transform="translate(-0.6494 -3.166)"/><path class="j" d="M605.3457,414.5156l1.5859-13.1826h1.1436a.6958.6958,0,0,1,.793.78l-.1817,2.34a8.0952,8.0952,0,0,1,2.1387-2.4629,4.1037,4.1037,0,0,1,2.4375-.8388,2.239,2.239,0,0,1,1.9756.917,4.5551,4.5551,0,0,1,.6367,2.6191,7.5888,7.5888,0,0,1,2.2041-2.6719,4.4339,4.4339,0,0,1,2.5938-.8642,2.4927,2.4927,0,0,1,2.3916,1.3,6.2583,6.2583,0,0,1,.416,3.68l-.9883,8.3847h-2.2881l1.001-8.3847a5.2792,5.2792,0,0,0-.0977-2.3018,1.1863,1.1863,0,0,0-1.2539-.7539,2.4366,2.4366,0,0,0-1.1113.2793,4.0436,4.0436,0,0,0-1.0733.8193,6.482,6.482,0,0,0-.9677,1.3389,10.8513,10.8513,0,0,0-.8,1.8389v.0136l-.8448,7.15h-2.288l.9882-8.3847a5.6511,5.6511,0,0,0-.0527-2.3018,1.1287,1.1287,0,0,0-1.2217-.7539,2.5071,2.5071,0,0,0-1.2021.3115,3.9615,3.9615,0,0,0-1.0928.9043,7.4194,7.4194,0,0,0-.9551,1.4424,13.83,13.83,0,0,0-.8056,1.918l-.8194,6.8642Z" transform="translate(-0.6494 -3.166)"/><path class="j" d="M630.708,414.6973a5.1083,5.1083,0,0,1-1.9756-.3711,4.3156,4.3156,0,0,1-1.5469-1.0723,4.949,4.949,0,0,1-1.0146-1.7158,6.8356,6.8356,0,0,1-.3633-2.3135,9.3168,9.3168,0,0,1,.5195-3.1328,8.3485,8.3485,0,0,1,1.43-2.5684,6.8708,6.8708,0,0,1,2.1387-1.7353,5.6632,5.6632,0,0,1,2.6455-.6367,5.13,5.13,0,0,1,1.9766.37,4.3486,4.3486,0,0,1,1.5469,1.0723,4.9673,4.9673,0,0,1,1.0136,1.7167,6.7665,6.7665,0,0,1,.3643,2.3008,9.2725,9.2725,0,0,1-.52,3.1192,8.5119,8.5119,0,0,1-1.4229,2.5742,6.7907,6.7907,0,0,1-2.1386,1.749A5.6617,5.6617,0,0,1,630.708,414.6973Zm.2217-1.8067a3.0192,3.0192,0,0,0,1.7217-.5205,4.6627,4.6627,0,0,0,1.3261-1.3838,7.0173,7.0173,0,0,0,.8516-1.9961,9.2266,9.2266,0,0,0,.2988-2.3662,4.371,4.371,0,0,0-.7207-2.7363,2.4868,2.4868,0,0,0-2.0742-.917,3.0712,3.0712,0,0,0-1.7353.5137,4.5578,4.5578,0,0,0-1.3194,1.3711,7.0241,7.0241,0,0,0-.8447,1.99,9.1757,9.1757,0,0,0-.2988,2.3652,4.4533,4.4533,0,0,0,.7148,2.75A2.4659,2.4659,0,0,0,630.93,412.8906Zm5.6416-17.2129-3.1719,3.3545a1.2764,1.2764,0,0,1-.3515.2793.9175.9175,0,0,1-.4161.085h-1.2734l2.1191-3.1465a1.4424,1.4424,0,0,1,.4092-.4355,1.1255,1.1255,0,0,1,.6045-.1368Z" transform="translate(-0.6494 -3.166)"/><path class="j" d="M651.95,395.3662l-2.3535,19.1494h-1.209a.6828.6828,0,0,1-.61-.2343,1.0061,1.0061,0,0,1-.1562-.5723l.2471-2.7695a10.52,10.52,0,0,1-1.0791,1.5478,8,8,0,0,1-1.2286,1.1826,5.3191,5.3191,0,0,1-1.3388.7608,3.9177,3.9177,0,0,1-1.4112.2666,3.1138,3.1138,0,0,1-2.6259-1.2285,5.81,5.81,0,0,1-.9356-3.5684,10.48,10.48,0,0,1,.2207-2.1328,11.05,11.05,0,0,1,.6309-2.041,9.9551,9.9551,0,0,1,.9883-1.8125,7.401,7.401,0,0,1,1.2929-1.4493,5.9264,5.9264,0,0,1,1.5411-.9628,4.3772,4.3772,0,0,1,1.7353-.3506,4.0487,4.0487,0,0,1,1.7744.3838,3.8424,3.8424,0,0,1,1.3584,1.0849l.8965-7.2539Zm-3.3545,8.8526a2.6631,2.6631,0,0,0-1.1894-.9805,3.7316,3.7316,0,0,0-1.41-.28,3.01,3.01,0,0,0-1.8457.6113,5.372,5.372,0,0,0-1.3984,1.5791,8.3057,8.3057,0,0,0-.89,2.1641,9.3092,9.3092,0,0,0-.3125,2.3535,4.1918,4.1918,0,0,0,.5527,2.3594,1.7947,1.7947,0,0,0,1.5791.8125,2.4071,2.4071,0,0,0,1.2618-.39,5.2582,5.2582,0,0,0,1.2285-1.0849,9.648,9.648,0,0,0,1.1045-1.6445,13.044,13.044,0,0,0,.8906-2.08Z" transform="translate(-0.6494 -3.166)"/><path class="j" d="M664.9629,401.3457l-1.5859,13.17h-1.1446a.7409.7409,0,0,1-.8447-.832l.1953-2.4053a8.0371,8.0371,0,0,1-2.3467,2.5537,4.8017,4.8017,0,0,1-2.6845.8653,3.14,3.14,0,0,1-1.4688-.3321,2.6219,2.6219,0,0,1-1.0332-.9687,4.1083,4.1083,0,0,1-.54-1.56,7.551,7.551,0,0,1,.0127-2.1181l.9882-8.3731h2.3008l-.9873,8.3731a4.2894,4.2894,0,0,0,.1885,2.3007,1.4106,1.4106,0,0,0,1.3975.7539,2.7085,2.7085,0,0,0,1.2343-.3252,4.7482,4.7482,0,0,0,1.2227-.9228,7.92,7.92,0,0,0,1.0986-1.4492,10.1679,10.1679,0,0,0,.877-1.8926l.8193-6.8379Z" transform="translate(-0.6494 -3.166)"/><path class="j" d="M666.8867,414.5156l2.3272-19.1494h2.2744l-2.3272,19.1494Z" transform="translate(-0.6494 -3.166)"/><path class="j" d="M677.5723,414.6973a5.1076,5.1076,0,0,1-1.9756-.3711,4.3138,4.3138,0,0,1-1.5469-1.0723,4.9459,4.9459,0,0,1-1.0146-1.7158,6.8356,6.8356,0,0,1-.3633-2.3135,9.3143,9.3143,0,0,1,.5195-3.1328,8.3464,8.3464,0,0,1,1.43-2.5684,6.87,6.87,0,0,1,2.1387-1.7353,5.663,5.663,0,0,1,2.6455-.6367,5.129,5.129,0,0,1,1.9765.37,4.3477,4.3477,0,0,1,1.5469,1.0723,4.9675,4.9675,0,0,1,1.0137,1.7167,6.769,6.769,0,0,1,.3642,2.3008,9.2725,9.2725,0,0,1-.52,3.1192,8.5116,8.5116,0,0,1-1.4228,2.5742,6.791,6.791,0,0,1-2.1387,1.749A5.661,5.661,0,0,1,677.5723,414.6973Zm.2216-1.8067a3.0188,3.0188,0,0,0,1.7217-.5205,4.663,4.663,0,0,0,1.3262-1.3838,7.02,7.02,0,0,0,.8516-1.9961,9.2266,9.2266,0,0,0,.2988-2.3662,4.371,4.371,0,0,0-.7207-2.7363,2.4871,2.4871,0,0,0-2.0742-.917,3.0715,3.0715,0,0,0-1.7354.5137,4.5575,4.5575,0,0,0-1.3193,1.3711,7.0212,7.0212,0,0,0-.8447,1.99,9.1757,9.1757,0,0,0-.2989,2.3652,4.4526,4.4526,0,0,0,.7149,2.75A2.4657,2.4657,0,0,0,677.7939,412.8906Z" transform="translate(-0.6494 -3.166)"/><path class="j" d="M703.5986,412.8125l-.2216,1.7031h-9.2432l.2217-1.7031h3.6523l1.586-12.8828c.0175-.1738.041-.3516.0722-.5332s.0625-.3692.0967-.56l-3.3272,2.86a1.03,1.03,0,0,1-.3515.1689.6642.6642,0,0,1-.3057.0068.7032.7032,0,0,1-.24-.1044.5925.5925,0,0,1-.1563-.1495l-.5713-.9746,5.6934-4.7968h1.833l-2.08,16.9648Z" transform="translate(-0.6494 -3.166)"/><path class="j" d="M725.542,401.3457l-8.8926,17.0957a1.085,1.085,0,0,1-.331.4024.817.817,0,0,1-.4746.1308h-1.7032l2.86-5.2392-3.419-12.39h1.9112a.5541.5541,0,0,1,.416.1367.8749.8749,0,0,1,.1943.3447l2.1192,8.294c.0429.1816.0781.3643.1044.5459s.0469.3643.0645.5459c.0781-.1816.1563-.3652.2344-.5527q.1172-.2784.247-.5528l4.16-8.3066a.8266.8266,0,0,1,.292-.3311.69.69,0,0,1,.3838-.124Z" transform="translate(-0.6494 -3.166)"/><path class="j" d="M742.9219,412.3965a.6952.6952,0,0,1,.5527.2148.6484.6484,0,0,1,.1367.5518l-.1562,1.3525H731.9629l.0908-.7676a1.5136,1.5136,0,0,1,.5332-.9619l6.1885-6.0185q.87-.8585,1.5723-1.6192a10.5989,10.5989,0,0,0,1.1836-1.5214,7.0064,7.0064,0,0,0,.7412-1.5469,5.4256,5.4256,0,0,0,.26-1.709,3.2835,3.2835,0,0,0-.2021-1.2031,2.4321,2.4321,0,0,0-.5518-.8575,2.306,2.306,0,0,0-.832-.5195,3.0508,3.0508,0,0,0-1.0537-.1758,3.4,3.4,0,0,0-1.1953.208,3.5511,3.5511,0,0,0-1.0205.585,4.1575,4.1575,0,0,0-.8125.8965,4.35,4.35,0,0,0-.5459,1.1445,1.1833,1.1833,0,0,1-.4688.5918,1.1136,1.1136,0,0,1-.7275.0713l-1.1436-.1953a7.9938,7.9938,0,0,1,.9287-2.249,6.4742,6.4742,0,0,1,1.4239-1.6377,5.829,5.829,0,0,1,1.8134-1.001,6.5135,6.5135,0,0,1,2.1123-.3379,5.39,5.39,0,0,1,1.8526.3047,4.1421,4.1421,0,0,1,1.4492.8848,3.9739,3.9739,0,0,1,.9492,1.4043,4.911,4.911,0,0,1,.3379,1.8779,6.3834,6.3834,0,0,1-.3574,2.1846,8.1992,8.1992,0,0,1-.9619,1.8652,13.258,13.258,0,0,1-1.4043,1.7031q-.7985.8262-1.6963,1.6963l-5.2129,5.1084q.5463-.1421,1.0918-.2334a6.3545,6.3545,0,0,1,1.04-.0908Z" transform="translate(-0.6494 -3.166)"/><line class="e" x1="420.4144" y1="210.4083" x2="392.1032" y2="193.2725"/><line class="e" x1="301.2092" y1="224.5639" x2="333.2456" y2="205.1931"/><path class="e" d="M382.74,172.3132l4.4721-2.5784a12.7673,12.7673,0,0,1,12.714-.023l130.4322,74.2917a12.7673,12.7673,0,0,0,12.6953-.0122l29.682-17.0461" transform="translate(-0.6494 -3.166)"/><line class="i" x1="307.5946" y1="356.6698" x2="263.6377" y2="380.5109"/><path class="j" d="M170.5137,381.6855a9.3051,9.3051,0,0,1,2.4892.293,4.8212,4.8212,0,0,1,1.7227.832,3.2924,3.2924,0,0,1,1.001,1.3125,4.4036,4.4036,0,0,1,.3252,1.7227,5.1843,5.1843,0,0,1-.2413,1.58,4.6706,4.6706,0,0,1-.7148,1.3965,4.968,4.968,0,0,1-1.1953,1.1318,6.2567,6.2567,0,0,1-1.6836.793,4.6276,4.6276,0,0,1,2.5156,1.3134,3.4677,3.4677,0,0,1,.8379,2.4043,5.9089,5.9089,0,0,1-.4609,2.3594,5.2388,5.2388,0,0,1-1.333,1.8526,6.098,6.098,0,0,1-2.125,1.2089,8.7085,8.7085,0,0,1-2.8282.4288H162.7l2.2881-18.629Zm-1.4951,16.7051a5.5235,5.5235,0,0,0,1.82-.2724,3.428,3.428,0,0,0,1.2929-.78,3.2371,3.2371,0,0,0,.7735-1.2227,4.6759,4.6759,0,0,0,.26-1.6113,2.5012,2.5012,0,0,0-.8252-1.9687,3.6918,3.6918,0,0,0-2.5156-.7354h-3.6523l-.8067,6.5908Zm-1.8331-14.7929-.7929,6.4863h3.0029a5.5156,5.5156,0,0,0,1.84-.2793,3.64,3.64,0,0,0,1.3125-.78,3.1363,3.1363,0,0,0,.7871-1.2021,4.4417,4.4417,0,0,0,.26-1.5469,2.46,2.46,0,0,0-.8066-2.0088,3.8589,3.8589,0,0,0-2.4951-.6689Z" transform="translate(-0.6494 -3.166)"/><path class="j" d="M185.9834,396.8438a11.3132,11.3132,0,0,1-1.0078,1.5078,6.973,6.973,0,0,1-1.1436,1.15,4.9686,4.9686,0,0,1-1.2744.7343,3.7818,3.7818,0,0,1-1.3838.2608,3.2386,3.2386,0,0,1-1.417-.3057,2.9426,2.9426,0,0,1-1.0859-.8965,4.3644,4.3644,0,0,1-.6953-1.457,7.21,7.21,0,0,1-.2471-1.9824,8.9615,8.9615,0,0,1,.292-2.2813,9.36,9.36,0,0,1,.832-2.1,9.23,9.23,0,0,1,1.294-1.8125,8.6508,8.6508,0,0,1,1.6836-1.4307,7.9986,7.9986,0,0,1,1.9951-.9365,7.4981,7.4981,0,0,1,2.2363-.331,9.7779,9.7779,0,0,1,1.6446.1367,6.8836,6.8836,0,0,1,1.5791.4736l-1.5733,12.74h-1.1953a.707.707,0,0,1-.6182-.2334.9785.9785,0,0,1-.1621-.5723Zm.8838-8.086a3.71,3.71,0,0,0-.5654-.084c-.1866-.0136-.37-.02-.5528-.02a4.5565,4.5565,0,0,0-1.5078.2529,5.4071,5.4071,0,0,0-1.3652.708,6.0982,6.0982,0,0,0-1.1563,1.086,7.1053,7.1053,0,0,0-.8906,1.3847,7.8643,7.8643,0,0,0-.5791,1.6055,7.3429,7.3429,0,0,0-.208,1.7481q0,3.1347,2.0019,3.1328a2.2572,2.2572,0,0,0,1.2481-.3965,4.85,4.85,0,0,0,1.1641-1.1045,9.3235,9.3235,0,0,0,1.02-1.6768,15.8541,15.8541,0,0,0,.832-2.125Z" transform="translate(-0.6494 -3.166)"/><path class="j" d="M192.1709,397.832v-.2011c0-.0821.0068-.2022.02-.3575s.0342-.3593.0655-.6113.0712-.58.123-.9883l.8057-6.5908h-1.4688a.37.37,0,0,1-.292-.124.4809.4809,0,0,1-.0849-.3828l.1045-.9239,2.0273-.2724.9883-4.0694a.7328.7328,0,0,1,.2012-.3183.4971.4971,0,0,1,.3447-.1231h1.209l-.5586,4.5372h3.458l-.1953,1.6767h-3.4707l-.793,6.4736c-.0439.3555-.0781.6416-.1045.8584s-.0449.39-.0586.52c-.0127.129-.0215.2208-.0254.2725s-.0068.0908-.0068.1162a1.3557,1.3557,0,0,0,.3125.9824,1.1074,1.1074,0,0,0,.831.3184,1.6927,1.6927,0,0,0,.6045-.0977,2.7874,2.7874,0,0,0,.4493-.2148,3.8433,3.8433,0,0,0,.3251-.2139.3925.3925,0,0,1,.2207-.0976.2608.2608,0,0,1,.1758.0517.51.51,0,0,1,.11.17l.4941,1.1044a4.9024,4.9024,0,0,1-1.45.878,4.4637,4.4637,0,0,1-1.6308.3183,2.753,2.753,0,0,1-1.9825-.6894A2.7181,2.7181,0,0,1,192.1709,397.832Z" transform="translate(-0.6494 -3.166)"/><path class="j" d="M210.709,397.8838a11.7009,11.7009,0,0,1-1.3,1.1767,7.9648,7.9648,0,0,1-1.294.8125,5.6852,5.6852,0,0,1-1.3779.4747,7.6627,7.6627,0,0,1-1.5537.1494,5.1914,5.1914,0,0,1-2.0273-.377,4.1788,4.1788,0,0,1-1.5215-1.0732,4.8143,4.8143,0,0,1-.9619-1.6836,6.7846,6.7846,0,0,1-.3379-2.209,9.7182,9.7182,0,0,1,.2138-2.0215,9.5424,9.5424,0,0,1,.6241-1.918,8.7341,8.7341,0,0,1,1.0009-1.6894,6.7376,6.7376,0,0,1,1.3526-1.3457,6.358,6.358,0,0,1,1.6767-.8906,5.85,5.85,0,0,1,1.97-.3252,4.7269,4.7269,0,0,1,1.7285.2861,3.6829,3.6829,0,0,1,1.1963.7285,2.8934,2.8934,0,0,1,.6953.9746,2.574,2.574,0,0,1,.2275,1.0137,3.5594,3.5594,0,0,1-.3506,1.58,3.29,3.29,0,0,1-1.2871,1.3,9.5813,9.5813,0,0,1-2.5742,1.0068,28.2962,28.2962,0,0,1-4.2119.69c0,.0957-.002.1884-.0069.2793s-.0058.1845-.0058.2793a4.06,4.06,0,0,0,.7607,2.6582,2.8086,2.8086,0,0,0,2.294.917,4.3088,4.3088,0,0,0,1.1113-.13,4.7487,4.7487,0,0,0,.8711-.3184,3.7888,3.7888,0,0,0,.6758-.416c.1953-.1514.373-.291.5332-.416a5.0368,5.0368,0,0,1,.4492-.3184.7732.7732,0,0,1,.415-.1308.5794.5794,0,0,1,.4424.2216Zm-3.666-9.2559a3.3716,3.3716,0,0,0-1.5078.3379,4.0147,4.0147,0,0,0-1.2227.93,5.6969,5.6969,0,0,0-.91,1.3916,8.313,8.313,0,0,0-.5849,1.7217,25.2218,25.2218,0,0,0,3.2119-.5654,7.9634,7.9634,0,0,0,1.8584-.69,1.7909,1.7909,0,0,0,1.0664-1.6953,1.304,1.304,0,0,0-.4355-.9492,1.8188,1.8188,0,0,0-.5918-.3448A2.5322,2.5322,0,0,0,207.043,388.6279Z" transform="translate(-0.6494 -3.166)"/><path class="j" d="M216.09,390.8125a11.1285,11.1285,0,0,1,1.125-1.918,5.5933,5.5933,0,0,1,1.2676-1.2734,3.1246,3.1246,0,0,1,1.3653-.56,2.6584,2.6584,0,0,1,1.43.2139l-.416,2.2236a2.66,2.66,0,0,0-2.9834.4942,8.6809,8.6809,0,0,0-2.1,4.2246l-.7285,6.0967h-2.2617l1.5859-13.1817h1.1446a.6953.6953,0,0,1,.7929.78Z" transform="translate(-0.6494 -3.166)"/><path class="j" d="M225.6709,387.1465l-1.5859,13.168h-2.2745l1.586-13.168Zm2.873-5.668-3.1718,3.3535a1.2917,1.2917,0,0,1-.3506.2793.9232.9232,0,0,1-.416.084h-1.2744L225.45,382.05a1.4307,1.4307,0,0,1,.4092-.4355,1.1282,1.1282,0,0,1,.6045-.1358Z" transform="translate(-0.6494 -3.166)"/><path class="j" d="M235.7979,396.8438a11.3135,11.3135,0,0,1-1.0079,1.5078,6.9726,6.9726,0,0,1-1.1435,1.15,4.9686,4.9686,0,0,1-1.2744.7343,3.7818,3.7818,0,0,1-1.3838.2608,3.2383,3.2383,0,0,1-1.417-.3057,2.9426,2.9426,0,0,1-1.0859-.8965,4.3645,4.3645,0,0,1-.6954-1.457,7.2135,7.2135,0,0,1-.247-1.9824,8.9571,8.9571,0,0,1,.292-2.2813,9.3552,9.3552,0,0,1,.832-2.1,9.2291,9.2291,0,0,1,1.2939-1.8125,8.6538,8.6538,0,0,1,1.6836-1.4307,8,8,0,0,1,1.9951-.9365,7.4988,7.4988,0,0,1,2.2364-.331,9.7767,9.7767,0,0,1,1.6445.1367,6.8822,6.8822,0,0,1,1.5791.4736l-1.5732,12.74h-1.1953a.7069.7069,0,0,1-.6182-.2334.9785.9785,0,0,1-.1621-.5723Zm.8837-8.086a3.71,3.71,0,0,0-.5654-.084c-.1865-.0136-.37-.02-.5527-.02a4.5556,4.5556,0,0,0-1.5078.2529,5.406,5.406,0,0,0-1.3653.708,6.0977,6.0977,0,0,0-1.1562,1.086,7.1006,7.1006,0,0,0-.8906,1.3847,7.8584,7.8584,0,0,0-.5791,1.6055,7.343,7.343,0,0,0-.2081,1.7481q0,3.1347,2.002,3.1328a2.2571,2.2571,0,0,0,1.248-.3965,4.846,4.846,0,0,0,1.1641-1.1045,9.3177,9.3177,0,0,0,1.02-1.6768,15.8407,15.8407,0,0,0,.832-2.125Z" transform="translate(-0.6494 -3.166)"/><path class="j" d="M249.4346,389.252a.8446.8446,0,0,1-.208.2275.4458.4458,0,0,1-.26.0713.7271.7271,0,0,1-.3965-.1426c-.1426-.0957-.3164-.2012-.5195-.3184a4.2383,4.2383,0,0,0-.7481-.3252,3.3452,3.3452,0,0,0-1.0654-.1494,3.3117,3.3117,0,0,0-1.0664.1621,2.5493,2.5493,0,0,0-.8252.4493,2.0006,2.0006,0,0,0-.5332.6689,1.8141,1.8141,0,0,0-.1885.8125,1.2489,1.2489,0,0,0,.4033.9756,3.7274,3.7274,0,0,0,1.0137.63q.6108.2666,1.3125.5136a6.7374,6.7374,0,0,1,1.3135.6241,3.3686,3.3686,0,0,1,1.0137.9619,2.6287,2.6287,0,0,1,.4033,1.5205,4.38,4.38,0,0,1-1.3848,3.2051,5.0865,5.0865,0,0,1-1.6113,1.0078,5.6764,5.6764,0,0,1-2.1133.3769,5.2537,5.2537,0,0,1-2.23-.4492,4.6277,4.6277,0,0,1-1.5791-1.15l.5723-.8838a.9937.9937,0,0,1,.2529-.2607.637.637,0,0,1,.7734.0918q.208.1817.5206.4092a3.2086,3.2086,0,0,0,1.9892.5918,3.229,3.229,0,0,0,1.15-.1953,2.722,2.722,0,0,0,.8711-.5205,2.1862,2.1862,0,0,0,.5459-.76,2.3266,2.3266,0,0,0,.1885-.93,1.3979,1.3979,0,0,0-.4033-1.0527,3.3057,3.3057,0,0,0-1.0137-.65q-.6123-.2593-1.3135-.4873a6.6342,6.6342,0,0,1-1.3125-.585,3.19,3.19,0,0,1-1.0146-.93,2.5913,2.5913,0,0,1-.4024-1.5215,4.0466,4.0466,0,0,1,.3311-1.6054,4.15,4.15,0,0,1,.956-1.3711,4.6753,4.6753,0,0,1,1.5137-.9551,5.3548,5.3548,0,0,1,2.0088-.3574,5.1453,5.1453,0,0,1,2.0869.3965A4.7874,4.7874,0,0,1,250.02,388.42Z" transform="translate(-0.6494 -3.166)"/><path class="i" d="M359.01,301.4424l-66.8627,38.6968a5.5794,5.5794,0,0,0-.0007,9.664l37.4,21.2681a5.58,5.58,0,0,0,5.5794,0L450.6776,304.06" transform="translate(-0.6494 -3.166)"/><path class="j" d="M356.5544,297.6506a4.5117,4.5117,0,1,1-1.6449,6.1648A4.5124,4.5124,0,0,1,356.5544,297.6506Z" transform="translate(-0.6494 -3.166)"/><path class="j" d="M452.746,308.0759a4.5117,4.5117,0,1,0-6.1663-1.6394A4.5121,4.5121,0,0,0,452.746,308.0759Z" transform="translate(-0.6494 -3.166)"/></svg>