<svg xmlns="http://www.w3.org/2000/svg" viewBox="0 0 470.6813 402.7193"><defs><style>.a{fill:#606060;}.b,.c{fill:#fff;}.b,.e{stroke:#d91519;stroke-linecap:round;stroke-linejoin:round;stroke-width:2px;}.d,.f{opacity:0.3;}.e{fill:none;}.f,.h,.i{fill:#d91519;}.g,.h{opacity:0.5;}.j{opacity:0.25;}</style></defs><title>3_2</title><path class="a" d="M147.3291,42.48l-2.3008,18.6289h-2.1191l1.69-13.7666c.0254-.1739.0586-.3643.0977-.5723s.084-.4248.1357-.65l-7.2666,11.7129a1.0447,1.0447,0,0,1-.9355.56h-.3516a.8767.8767,0,0,1-.5-.1436.7685.7685,0,0,1-.3057-.416L130.9756,46.12q-.0132.312-.0264.6182-.0132.3047-.039.5654l-1.6768,13.8057h-2.1445L129.376,42.48h1.7949a.9763.9763,0,0,1,.4678.084,1.2576,1.2576,0,0,1,.3252.332l4.5107,11.7129c.0606.1738.1123.3467.1563.52s.0859.3516.13.5332q.129-.2724.26-.5332c.0869-.1728.1817-.3457.2861-.52l7.3321-11.7129a1.2646,1.2646,0,0,1,.39-.3379,1.2247,1.2247,0,0,1,.4942-.0781Z"/><path class="a" d="M153.9072,61.29a5.1211,5.1211,0,0,1-1.9756-.37,4.3432,4.3432,0,0,1-1.5478-1.0723,4.9531,4.9531,0,0,1-1.0137-1.7158,6.84,6.84,0,0,1-.3642-2.3144,9.32,9.32,0,0,1,.52-3.1329,8.3522,8.3522,0,0,1,1.43-2.5673,6.8327,6.8327,0,0,1,2.1386-1.7354,5.6644,5.6644,0,0,1,2.6455-.6377,5.1207,5.1207,0,0,1,1.9756.3711,4.3427,4.3427,0,0,1,1.5479,1.0723,4.9669,4.9669,0,0,1,1.0136,1.7158,6.7952,6.7952,0,0,1,.3643,2.3008,9.282,9.282,0,0,1-.52,3.12,8.5226,8.5226,0,0,1-1.4229,2.5742,6.8028,6.8028,0,0,1-2.1386,1.7481A5.6531,5.6531,0,0,1,153.9072,61.29Zm.2207-1.8066a3.019,3.019,0,0,0,1.7227-.52,4.6677,4.6677,0,0,0,1.3262-1.3847,7.0089,7.0089,0,0,0,.8515-1.9961,9.22,9.22,0,0,0,.2989-2.3653,4.37,4.37,0,0,0-.7217-2.7373,2.4835,2.4835,0,0,0-2.0733-.916,3.0635,3.0635,0,0,0-1.7353.5137,4.5253,4.5253,0,0,0-1.3194,1.3711,7.0223,7.0223,0,0,0-.8457,1.9893,9.2266,9.2266,0,0,0-.2988,2.3662,4.4582,4.4582,0,0,0,.7149,2.749A2.4633,2.4633,0,0,0,154.1279,59.4838Zm5.6426-17.2119-3.1719,3.3535a1.2954,1.2954,0,0,1-.3515.28.9308.9308,0,0,1-.416.084h-1.2735l2.1182-3.1455a1.4323,1.4323,0,0,1,.41-.4355,1.1267,1.1267,0,0,1,.6045-.1367Z"/><path class="a" d="M175.1494,41.9594l-2.3525,19.1494h-1.21a.6837.6837,0,0,1-.61-.2344,1,1,0,0,1-.1563-.5713l.2471-2.77a10.3825,10.3825,0,0,1-1.0791,1.5469A8.0159,8.0159,0,0,1,168.76,60.264a5.2951,5.2951,0,0,1-1.3389.76,3.9125,3.9125,0,0,1-1.41.2666,3.11,3.11,0,0,1-2.6259-1.2285,5.8061,5.8061,0,0,1-.9366-3.5684,10.47,10.47,0,0,1,.2208-2.1318,11.0976,11.0976,0,0,1,.6308-2.041,9.9949,9.9949,0,0,1,.9883-1.8135,7.4852,7.4852,0,0,1,1.293-1.4492,5.9234,5.9234,0,0,1,1.541-.9619,4.3816,4.3816,0,0,1,1.7353-.3516,4.0456,4.0456,0,0,1,1.7744.3838,3.8364,3.8364,0,0,1,1.3584,1.0859l.8975-7.2548Zm-3.3545,8.8535a2.6727,2.6727,0,0,0-1.1894-.9815,3.7458,3.7458,0,0,0-1.41-.2793,3.0092,3.0092,0,0,0-1.8457.61,5.3989,5.3989,0,0,0-1.3974,1.58,8.26,8.26,0,0,0-.8907,2.164,9.3045,9.3045,0,0,0-.3125,2.3535,4.1931,4.1931,0,0,0,.5528,2.3594,1.7972,1.7972,0,0,0,1.58.8125,2.3973,2.3973,0,0,0,1.2608-.3906,5.194,5.194,0,0,0,1.2285-1.085,9.49,9.49,0,0,0,1.1045-1.6445,12.9407,12.9407,0,0,0,.8906-2.08Z"/><path class="a" d="M188.1621,47.94l-1.5859,13.169h-1.1436a.7417.7417,0,0,1-.8457-.8321l.1953-2.4052a8.0325,8.0325,0,0,1-2.3466,2.5547,4.8091,4.8091,0,0,1-2.6846.8642,3.14,3.14,0,0,1-1.4688-.331,2.6293,2.6293,0,0,1-1.0332-.9688,4.12,4.12,0,0,1-.54-1.56,7.5652,7.5652,0,0,1,.0137-2.1191L177.71,47.94h2.3017l-.9883,8.3721a4.29,4.29,0,0,0,.1885,2.3008,1.4092,1.4092,0,0,0,1.3975.7539,2.7124,2.7124,0,0,0,1.2353-.3252,4.6958,4.6958,0,0,0,1.2217-.9229,7.9106,7.9106,0,0,0,1.0986-1.4492,10.1282,10.1282,0,0,0,.877-1.8916l.8193-6.8379Z"/><path class="a" d="M190.0859,61.1088l2.3272-19.1494h2.2744l-2.3262,19.1494Z"/><path class="a" d="M200.7715,61.29a5.1211,5.1211,0,0,1-1.9756-.37,4.3423,4.3423,0,0,1-1.5478-1.0723,4.9516,4.9516,0,0,1-1.0137-1.7158,6.84,6.84,0,0,1-.3643-2.3144,9.322,9.322,0,0,1,.52-3.1329,8.3543,8.3543,0,0,1,1.43-2.5673,6.8342,6.8342,0,0,1,2.1387-1.7354,5.6641,5.6641,0,0,1,2.6455-.6377,5.1214,5.1214,0,0,1,1.9756.3711,4.3432,4.3432,0,0,1,1.5478,1.0723,4.967,4.967,0,0,1,1.0137,1.7158,6.7952,6.7952,0,0,1,.3643,2.3008,9.2845,9.2845,0,0,1-.52,3.12,8.5226,8.5226,0,0,1-1.4229,2.5742,6.802,6.802,0,0,1-2.1387,1.7481A5.653,5.653,0,0,1,200.7715,61.29Zm.2207-1.8066a3.0187,3.0187,0,0,0,1.7226-.52A4.6652,4.6652,0,0,0,204.041,57.58a7.0062,7.0062,0,0,0,.8516-1.9961,9.22,9.22,0,0,0,.2988-2.3653,4.37,4.37,0,0,0-.7217-2.7373,2.4831,2.4831,0,0,0-2.0732-.916,3.064,3.064,0,0,0-1.7354.5137,4.525,4.525,0,0,0-1.3193,1.3711,7.0165,7.0165,0,0,0-.8457,1.9893,9.2266,9.2266,0,0,0-.2988,2.3662,4.4588,4.4588,0,0,0,.7148,2.749A2.4635,2.4635,0,0,0,200.9922,59.4838Z"/><path class="a" d="M217.5029,47.5111a7.9442,7.9442,0,0,1,.93-2.249,6.4582,6.4582,0,0,1,1.4229-1.6387,5.87,5.87,0,0,1,1.8135-1.001,6.54,6.54,0,0,1,2.1123-.3378,5.3748,5.3748,0,0,1,1.84.2988,4.0706,4.0706,0,0,1,1.41.8457,3.7243,3.7243,0,0,1,.9043,1.3125,4.4468,4.4468,0,0,1,.3183,1.7158,6.092,6.092,0,0,1-.2539,1.84,4.385,4.385,0,0,1-.7217,1.3974,4.1686,4.1686,0,0,1-1.1308,1.001,5.9906,5.9906,0,0,1-1.4815.6367,4.0968,4.0968,0,0,1,2.1836,1.4238,3.9137,3.9137,0,0,1,.7285,2.3985,5.8988,5.8988,0,0,1-1.957,4.4912,6.3759,6.3759,0,0,1-2.0605,1.2353,6.957,6.957,0,0,1-2.4444.4356,6.1252,6.1252,0,0,1-2.2744-.37,4.0748,4.0748,0,0,1-1.5215-1.0274,4.8187,4.8187,0,0,1-.9355-1.541,9.7314,9.7314,0,0,1-.5069-1.91l1.0137-.4033a1.2692,1.2692,0,0,1,.7607-.0908.6009.6009,0,0,1,.461.416c.0869.2334.1865.5225.3.8643a3.7528,3.7528,0,0,0,.5068.9941,2.8649,2.8649,0,0,0,.91.8194,2.909,2.909,0,0,0,1.4941.3378,3.7731,3.7731,0,0,0,1.6973-.37,3.9644,3.9644,0,0,0,1.2607-.9687,4.3153,4.3153,0,0,0,.7862-1.3516,4.4649,4.4649,0,0,0,.2734-1.5342,3.1054,3.1054,0,0,0-.1953-1.1113,2.1262,2.1262,0,0,0-.6494-.8906,3.2694,3.2694,0,0,0-1.2227-.5918,7.2346,7.2346,0,0,0-1.9111-.2149l.1953-1.6113a4.9884,4.9884,0,0,0,3.38-1.0732,3.6428,3.6428,0,0,0,1.0918-2.8008,3.2459,3.2459,0,0,0-.1944-1.17,2.1843,2.1843,0,0,0-1.3652-1.34,3.1652,3.1652,0,0,0-1.0527-.1689,3.4816,3.4816,0,0,0-1.2032.208,3.5519,3.5519,0,0,0-1.0263.585,4.0184,4.0184,0,0,0-.8067.8974,4.475,4.475,0,0,0-.539,1.1436,1.354,1.354,0,0,1-.4815.5918,1.062,1.062,0,0,1-.7148.0713Z"/><polygon class="b" points="411.395 203.652 391.861 214.931 364.183 198.949 383.717 187.671 411.395 203.652"/><path class="b" d="M376.2011,223.447h17.8272L390.6,51.2613C390.5237,49.4468,388.09,48,385.1147,48h0c-2.9756,0-5.409,1.4468-5.4853,3.2613Z"/><polygon class="b" points="411.856 203.837 411.856 215.963 400.574 209.9 411.856 203.837"/><polygon class="c" points="435.008 229.597 180.922 82.887 1 186.774 1.265 186.927 1 186.901 1 254.518 255.938 401.719 435.86 297.832 435.922 229.687 435.008 229.597"/><g class="d"><polyline class="e" points="1.281 254.555 180.964 148.832 435.616 295.869"/><line class="e" x1="181.3393" y1="83.1219" x2="181.3393" y2="148.8918"/></g><polyline class="e" points="435.922 229.687 435.86 297.832 255.938 401.719 1 254.518 1 186.901"/><path class="f" d="M212.7992,233.277l144.0174,83.1556a5.7747,5.7747,0,0,0,5.7751,0l28.34-16.3635a5.7748,5.7748,0,0,0,0-10.002L246.9143,206.9115a5.7749,5.7749,0,0,0-5.7752,0l-28.34,16.3635A5.7748,5.7748,0,0,0,212.7992,233.277Z"/><g class="g"><path class="h" d="M111.3044,293.4155l142.6878,82.3879a5.7747,5.7747,0,0,0,5.7751,0L289.88,358.4163a5.7748,5.7748,0,0,0,0-10.002L147.1924,266.0264a5.7749,5.7749,0,0,0-5.7752,0l-30.1128,17.3871A5.7748,5.7748,0,0,0,111.3044,293.4155Z"/><path class="i" d="M144.3049,267.2526a3.7814,3.7814,0,0,1,1.8875.5057L288.88,350.1464a3.7747,3.7747,0,0,1,0,6.5378l-30.1128,17.3871a3.7742,3.7742,0,0,1-3.7751,0L112.3044,291.6835a3.7749,3.7749,0,0,1,0-6.538l30.1128-17.3871a3.7809,3.7809,0,0,1,1.8877-.5058m0-2a5.77,5.77,0,0,0-2.8875.7738l-30.1128,17.3871a5.7748,5.7748,0,0,0,0,10.002l142.6878,82.3879a5.7746,5.7746,0,0,0,5.7751,0L289.88,358.4163a5.7748,5.7748,0,0,0,0-10.002L147.1924,266.0264a5.7707,5.7707,0,0,0-2.8877-.7738Z"/></g><g class="g"><path class="h" d="M157.8413,266.5451,300.5291,348.933a5.7747,5.7747,0,0,0,5.7751,0l30.1128-17.3871a5.7748,5.7748,0,0,0,0-10.002L193.7293,239.156a5.7749,5.7749,0,0,0-5.7752,0l-30.1128,17.3871A5.7748,5.7748,0,0,0,157.8413,266.5451Z"/><path class="i" d="M190.8418,240.3822a3.7817,3.7817,0,0,1,1.8875.5057l142.6877,82.388a3.7749,3.7749,0,0,1,0,6.538l-30.1128,17.387a3.7742,3.7742,0,0,1-3.7751,0L158.8413,264.813a3.7747,3.7747,0,0,1,0-6.5378l30.1128-17.3871a3.7794,3.7794,0,0,1,1.8877-.5059m0-2a5.77,5.77,0,0,0-2.8875.7738l-30.1128,17.3871a5.7748,5.7748,0,0,0,0,10.002L300.5291,348.933a5.7746,5.7746,0,0,0,5.7751,0l30.1128-17.3871a5.7749,5.7749,0,0,0,0-10.0021L193.7293,239.156a5.7713,5.7713,0,0,0-2.8877-.7738Z"/></g><g class="d"><path class="h" d="M121.4982,199.4971l35.4313,20.458a5.7749,5.7749,0,0,0,5.7752,0l44.7386-25.8321a5.7748,5.7748,0,0,0,0-10.002l-35.4312-20.4581a5.7749,5.7749,0,0,0-5.7752,0L121.4982,189.495A5.7749,5.7749,0,0,0,121.4982,199.4971Z"/><path class="i" d="M169.1245,164.8892a3.78,3.78,0,0,1,1.8875.5058l35.4314,20.458a3.7748,3.7748,0,0,1,0,6.5379l-44.739,25.8323a3.7747,3.7747,0,0,1-3.775,0l-35.4311-20.458a3.7748,3.7748,0,0,1,0-6.5379l44.7385-25.8321a3.7809,3.7809,0,0,1,1.8877-.5058m0-2a5.7716,5.7716,0,0,0-2.8877.7738l-44.7385,25.832a5.7749,5.7749,0,0,0,0,10.0021l35.4311,20.458a5.7747,5.7747,0,0,0,5.7752,0l44.7388-25.8322a5.7747,5.7747,0,0,0,0-10.0019L172.012,163.663a5.77,5.77,0,0,0-2.8875-.7738Z"/></g><g class="j"><path class="i" d="M244.0269,208.1377a3.7792,3.7792,0,0,1,1.8874.5059l144.0173,83.1556a3.7746,3.7746,0,0,1,0,6.5378l-28.34,16.3636a3.7749,3.7749,0,0,1-3.7751,0L213.7991,231.5449a3.7747,3.7747,0,0,1,0-6.5378l28.34-16.3635a3.7794,3.7794,0,0,1,1.8877-.5059m0-2a5.77,5.77,0,0,0-2.8874.7738l-28.34,16.3635a5.7748,5.7748,0,0,0,0,10.002l144.0176,83.1556a5.7746,5.7746,0,0,0,5.7751,0l28.34-16.3635a5.7747,5.7747,0,0,0,0-10.002L246.9143,206.9115a5.7713,5.7713,0,0,0-2.8877-.7738Z"/></g><g class="g"><path class="h" d="M35.0726,249.3992,84.2433,277.79a5.7749,5.7749,0,0,0,5.7752,0l43.409-25.0644a5.7748,5.7748,0,0,0,0-10.002L84.2568,214.3328a5.7749,5.7749,0,0,0-5.7752,0l-43.409,25.0644A5.7748,5.7748,0,0,0,35.0726,249.3992Z"/><path class="i" d="M81.3691,215.5591a3.7794,3.7794,0,0,1,1.8877.5059l49.1707,28.3909a3.775,3.775,0,0,1,0,6.5381L89.0186,276.0584a3.7751,3.7751,0,0,1-3.7752,0L36.0725,247.6671a3.7747,3.7747,0,0,1,0-6.5378l43.4094-25.0645a3.7792,3.7792,0,0,1,1.8872-.5057m0-2a5.77,5.77,0,0,0-2.8874.7738L35.0725,239.3972a5.7748,5.7748,0,0,0,0,10.002L84.2434,277.79a5.7747,5.7747,0,0,0,5.7752,0l43.4089-25.0643a5.7749,5.7749,0,0,0,0-10.0021L84.2568,214.3329a5.7713,5.7713,0,0,0-2.8877-.7738Z"/></g><polygon class="e" points="435.86 230.089 255.938 333.976 1 186.774 180.922 82.887 435.86 230.089"/><line class="b" x1="255.8673" y1="333.0844" x2="255.8673" y2="400.8279"/><path class="b" d="M390.5117,50.7638s-3.7119,5.5891-10.794,0"/><polygon class="b" points="111.7 137.494 93.805 147.827 61.716 128.986 79.612 118.653 111.7 137.494"/><ellipse class="i" cx="80.2691" cy="128.9627" rx="4.6304" ry="2.6736"/><polygon class="b" points="375.543 290.808 357.648 301.141 325.559 282.3 343.455 271.967 375.543 290.808"/><ellipse class="i" cx="356.5911" cy="289.4077" rx="4.6304" ry="2.6736"/><polygon class="b" points="291.687 157.104 309.583 167.437 341.672 148.596 323.776 138.263 291.687 157.104"/><ellipse class="i" cx="323.1187" cy="148.5726" rx="4.6304" ry="2.6736"/><polygon class="b" points="99.153 269.416 117.049 279.748 149.138 260.907 131.242 250.574 99.153 269.416"/><ellipse class="i" cx="118.1056" cy="268.0151" rx="4.6304" ry="2.6736"/><path class="e" d="M415.8829,33.7566a25.8,25.8,0,0,1,0,36.4868"/><path class="e" d="M432.1565,18.4831a47.4,47.4,0,0,1,0,67.0338"/><path class="e" d="M448.5565,1a72.1249,72.1249,0,0,1,0,102"/></svg>