<svg xmlns="http://www.w3.org/2000/svg" viewBox="0 0 668.2342 444.3878"><defs><style>.a,.b{fill:#d91519;}.a,.c{opacity:0.5;}.c,.d,.f{fill:none;}.c,.d,.e{stroke:#d91519;}.c,.d,.e,.f{stroke-linecap:round;stroke-linejoin:round;stroke-width:2px;}.e{fill:#fff;}.f{stroke:#606060;}.g{fill:#606060;}</style></defs><title>3_3</title><path class="a" d="M281.5988,228.407,317.03,248.865a5.7749,5.7749,0,0,0,5.7752,0l44.7386-25.8321a5.7748,5.7748,0,0,0,0-10.002l-35.4313-20.458a5.7742,5.7742,0,0,0-5.7751,0L281.5988,218.405A5.7748,5.7748,0,0,0,281.5988,228.407Z" transform="translate(-0.9696)"/><path class="b" d="M329.2251,193.799a3.78,3.78,0,0,1,1.8874.5058l35.4314,20.458a3.7749,3.7749,0,0,1,0,6.5381l-44.739,25.832a3.7739,3.7739,0,0,1-3.7749,0l-35.4311-20.458a3.7749,3.7749,0,0,1,0-6.538l44.7385-25.8321a3.7814,3.7814,0,0,1,1.8877-.5058m0-2a5.7717,5.7717,0,0,0-2.8877.7739l-44.7385,25.832a5.7748,5.7748,0,0,0,0,10.002l35.4311,20.458a5.7741,5.7741,0,0,0,5.7752,0l44.7387-25.8321a5.7746,5.7746,0,0,0,0-10.0019l-35.4314-20.458a5.77,5.77,0,0,0-2.8874-.7739Z" transform="translate(-0.9696)"/><path class="a" d="M339.5988,263.407,437.03,319.865a5.7749,5.7749,0,0,0,5.7752,0l44.7386-25.8321a5.7748,5.7748,0,0,0,0-10.002l-97.4313-56.458a5.7742,5.7742,0,0,0-5.7751,0L339.5988,253.405A5.7748,5.7748,0,0,0,339.5988,263.407Z" transform="translate(-0.9696)"/><path class="b" d="M387.2251,228.799a3.7766,3.7766,0,0,1,1.8848.5044l97.434,56.4594a3.7749,3.7749,0,0,1,0,6.5381l-44.739,25.832a3.7737,3.7737,0,0,1-3.7722.0015l-97.4338-56.46a3.7749,3.7749,0,0,1,0-6.538l44.7385-25.8321a3.7814,3.7814,0,0,1,1.8877-.5058m0-2a5.7717,5.7717,0,0,0-2.8877.7739l-44.7385,25.832a5.7748,5.7748,0,0,0,0,10.002l97.4311,56.458a5.7741,5.7741,0,0,0,5.7752,0l44.7387-25.8321a5.7746,5.7746,0,0,0,0-10.0019l-97.4314-56.458a5.77,5.77,0,0,0-2.8874-.7739Z" transform="translate(-0.9696)"/><path class="a" d="M208.5988,270.407,244.03,290.865a5.7749,5.7749,0,0,0,5.7752,0l44.7386-25.8321a5.7748,5.7748,0,0,0,0-10.002l-35.4313-20.458a5.7742,5.7742,0,0,0-5.7751,0L208.5988,260.405A5.7748,5.7748,0,0,0,208.5988,270.407Z" transform="translate(-0.9696)"/><path class="b" d="M256.2251,235.799a3.78,3.78,0,0,1,1.8874.5058l35.4314,20.458a3.7749,3.7749,0,0,1,0,6.5381l-44.739,25.832a3.7739,3.7739,0,0,1-3.7749,0l-35.4311-20.458a3.7749,3.7749,0,0,1,0-6.538l44.7385-25.8321a3.7814,3.7814,0,0,1,1.8877-.5058m0-2a5.7717,5.7717,0,0,0-2.8877.7739l-44.7385,25.832a5.7748,5.7748,0,0,0,0,10.002l35.4311,20.458a5.7741,5.7741,0,0,0,5.7752,0l44.7387-25.8321a5.7746,5.7746,0,0,0,0-10.0019l-35.4314-20.458a5.77,5.77,0,0,0-2.8874-.7739Z" transform="translate(-0.9696)"/><polyline class="c" points="528.687 283.926 334.687 171.91 140.687 283.926"/><polyline class="d" points="528.687 201.91 334.687 313.926 140.687 201.91"/><polygon class="d" points="334.687 89.894 140.687 201.91 140.687 284.91 334.687 396.926 528.687 284.91 528.687 201.91 334.687 89.894"/><polygon class="e" points="213.526 245.115 193.992 256.394 166.804 240.715 186.338 229.436 213.526 245.115"/><path class="e" d="M188.2154,245.67h0c4.8939,0,8.8336-2.4885,8.7362-5.5183L193.7006,92.39c-.0762-1.6284-2.51-2.9267-5.4852-2.9267h0c-2.9756,0-5.409,1.2983-5.4853,2.9267L179.4792,240.152C179.3818,243.1818,183.3215,245.67,188.2154,245.67Z" transform="translate(-0.9696)"/><polygon class="e" points="214.74 272.178 193.986 284.16 193.986 256.489 214.74 244.506 214.74 272.178"/><polygon class="e" points="166.687 269.196 193.678 284.196 193.678 256.089 166.687 241.089 166.687 269.196"/><line class="d" x1="334.6874" y1="313.9099" x2="334.6874" y2="396.9099"/><path class="a" d="M379.2142,359.8673l-23.0517,13.3089a4.0626,4.0626,0,0,1-6.0939-3.5183v-9.1871a4.0625,4.0625,0,0,1,2.0313-3.5183l23.0517-13.3089a4.0626,4.0626,0,0,1,6.0939,3.5183v9.1871A4.0625,4.0625,0,0,1,379.2142,359.8673Z" transform="translate(-0.9696)"/><path class="b" d="M377.1772,345.0934a2.0731,2.0731,0,0,1,2.0684,2.0686v9.187a2.0689,2.0689,0,0,1-1.0315,1.7864L355.1626,371.444a2.0286,2.0286,0,0,1-1.0251.2825,2.0734,2.0734,0,0,1-2.0689-2.0687v-9.187a2.0691,2.0691,0,0,1,1.0313-1.7863l23.0517-13.3089a2.0317,2.0317,0,0,1,1.0256-.2822m0-2a4.03,4.03,0,0,0-2.0252.55L352.1,356.9525a4.063,4.063,0,0,0-2.0313,3.5183v9.187a4.0545,4.0545,0,0,0,6.094,3.5184l23.0515-13.3089a4.0626,4.0626,0,0,0,2.0315-3.5183v-9.187a4.0674,4.0674,0,0,0-4.0688-4.0686Z" transform="translate(-0.9696)"/><path class="a" d="M417.2142,337.8673l-23.0517,13.3089a4.0626,4.0626,0,0,1-6.0939-3.5183v-9.1871a4.0625,4.0625,0,0,1,2.0313-3.5183l23.0517-13.3089a4.0626,4.0626,0,0,1,6.0939,3.5183v9.1871A4.0625,4.0625,0,0,1,417.2142,337.8673Z" transform="translate(-0.9696)"/><path class="b" d="M415.1772,323.0934a2.0731,2.0731,0,0,1,2.0684,2.0686v9.187a2.0689,2.0689,0,0,1-1.0315,1.7864L393.1626,349.444a2.0286,2.0286,0,0,1-1.0251.2825,2.0734,2.0734,0,0,1-2.0689-2.0687v-9.187a2.0691,2.0691,0,0,1,1.0313-1.7863l23.0517-13.3089a2.0317,2.0317,0,0,1,1.0256-.2822m0-2a4.03,4.03,0,0,0-2.0252.55L390.1,334.9525a4.063,4.063,0,0,0-2.0313,3.5183v9.187a4.0545,4.0545,0,0,0,6.094,3.5184l23.0515-13.3089a4.0626,4.0626,0,0,0,2.0315-3.5183v-9.187a4.0674,4.0674,0,0,0-4.0688-4.0686Z" transform="translate(-0.9696)"/><path class="e" d="M193.6123,92.6737s-3.712,5.5891-10.794,0" transform="translate(-0.9696)"/><path class="d" d="M161.7819,107.1533a25.8,25.8,0,0,1,0-36.4867" transform="translate(-0.9696)"/><path class="d" d="M145.5084,122.4268a47.4,47.4,0,0,1,0-67.0337" transform="translate(-0.9696)"/><path class="d" d="M129.1084,139.91a72.1249,72.1249,0,0,1,0-102" transform="translate(-0.9696)"/><path class="f" d="M324.657,220.91V148.829a15.11,15.11,0,0,1,7.6516-13.1411L413.657,89.91" transform="translate(-0.9696)"/><path class="g" d="M329.1687,220.91a4.5117,4.5117,0,1,1-4.5117-4.5115A4.5123,4.5123,0,0,1,329.1687,220.91Z" transform="translate(-0.9696)"/><path class="f" d="M445.657,287.91V231.829a15.11,15.11,0,0,1,7.6516-13.1411L534.657,172.91" transform="translate(-0.9696)"/><path class="g" d="M450.1687,287.91a4.5117,4.5117,0,1,1-4.5117-4.5115A4.5123,4.5123,0,0,1,450.1687,287.91Z" transform="translate(-0.9696)"/><path class="g" d="M564.0293,142.341H558.543l-2.0547,16.5878H554.07l2.0283-16.5878h-5.5117L550.82,140.3h13.4551Z" transform="translate(-0.9696)"/><path class="g" d="M572.2578,155.4581a11.3079,11.3079,0,0,1-1.0078,1.5079,6.9377,6.9377,0,0,1-1.1445,1.15,4.9491,4.9491,0,0,1-1.2735.7344,3.7851,3.7851,0,0,1-1.3847.2608,3.2367,3.2367,0,0,1-1.416-.3057,2.9359,2.9359,0,0,1-1.086-.8965,4.3663,4.3663,0,0,1-.6953-1.457,7.2116,7.2116,0,0,1-.248-1.9824,8.9178,8.9178,0,0,1,.2929-2.2813,9.3555,9.3555,0,0,1,.8321-2.1,9.2619,9.2619,0,0,1,1.2929-1.8125,8.713,8.713,0,0,1,1.6836-1.4307,8.0218,8.0218,0,0,1,1.9961-.9365,7.4981,7.4981,0,0,1,2.2363-.331,9.7867,9.7867,0,0,1,1.6446.1367,6.897,6.897,0,0,1,1.5791.4736l-1.5733,12.74H572.791a.7066.7066,0,0,1-.6181-.2334.978.978,0,0,1-.1622-.5722Zm.8838-8.0859a3.7283,3.7283,0,0,0-.5654-.084c-.1866-.0137-.3711-.0195-.5528-.0195a4.5565,4.5565,0,0,0-1.5078.2529,5.4071,5.4071,0,0,0-1.3652.708,6.095,6.095,0,0,0-1.1563,1.086,7.018,7.018,0,0,0-.8906,1.3847,7.8113,7.8113,0,0,0-.5791,1.6055,7.3427,7.3427,0,0,0-.208,1.748q0,3.1349,2.002,3.1329a2.2571,2.2571,0,0,0,1.248-.3965,4.85,4.85,0,0,0,1.1641-1.1045,9.3163,9.3163,0,0,0,1.0195-1.6768,15.59,15.59,0,0,0,.832-2.125Z" transform="translate(-0.9696)"/><path class="g" d="M580.707,149.4269a11.1285,11.1285,0,0,1,1.125-1.918,5.5733,5.5733,0,0,1,1.2676-1.2734,3.1235,3.1235,0,0,1,1.3652-.56,2.66,2.66,0,0,1,1.43.2139l-.416,2.2236a2.6618,2.6618,0,0,0-2.9844.4942,8.6981,8.6981,0,0,0-2.1,4.2246l-.7275,6.0966h-2.2617l1.5859-13.1816h1.1436a.6949.6949,0,0,1,.7929.78Z" transform="translate(-0.9696)"/><path class="g" d="M590.2871,145.7609l-1.7412,14.1435a5.1407,5.1407,0,0,1-.39,1.4756,4.0281,4.0281,0,0,1-.7872,1.19,3.4984,3.4984,0,0,1-1.1757.7988,4.4154,4.4154,0,0,1-2.334.2285,3.53,3.53,0,0,1-.6309-.1953l.2344-1.248a.4372.4372,0,0,1,.0976-.1758.2623.2623,0,0,1,.1563-.0713,1.4631,1.4631,0,0,1,.2461-.0069c.1.004.2236.0069.3711.0069a1.7825,1.7825,0,0,0,1.3652-.4746,2.766,2.766,0,0,0,.584-1.5274l1.73-14.1435Zm.82-4.1348a1.4774,1.4774,0,0,1-.1367.6309,1.8273,1.8273,0,0,1-.3643.5195,1.7128,1.7128,0,0,1-.5136.3574,1.4257,1.4257,0,0,1-.5987.1309,1.3839,1.3839,0,0,1-.5908-.1309,1.5838,1.5838,0,0,1-.4941-.3574,1.825,1.825,0,0,1-.3447-.5195,1.5475,1.5475,0,0,1-.13-.6309,1.5921,1.5921,0,0,1,.13-.6367,1.7519,1.7519,0,0,1,.3515-.5264,1.8083,1.8083,0,0,1,.5-.3642,1.3341,1.3341,0,0,1,.5918-.1368,1.4246,1.4246,0,0,1,.5977.1309,1.7,1.7,0,0,1,.5136.3574,1.6414,1.6414,0,0,1,.3575.5332A1.62,1.62,0,0,1,591.1074,141.6261Z" transform="translate(-0.9696)"/><path class="g" d="M602.6113,156.4982a11.6273,11.6273,0,0,1-1.2988,1.1767,8.0142,8.0142,0,0,1-1.2939.8125,5.7109,5.7109,0,0,1-1.378.4746,7.6554,7.6554,0,0,1-1.5537.15,5.1969,5.1969,0,0,1-2.0283-.377,4.1835,4.1835,0,0,1-1.52-1.0732,4.8,4.8,0,0,1-.9619-1.6836,6.785,6.785,0,0,1-.3379-2.209,9.7182,9.7182,0,0,1,.2138-2.0215,9.48,9.48,0,0,1,.6241-1.918,8.7341,8.7341,0,0,1,1.0009-1.6894,6.7143,6.7143,0,0,1,1.3526-1.3457,6.3551,6.3551,0,0,1,1.6767-.8906,5.8459,5.8459,0,0,1,1.97-.3252,4.7265,4.7265,0,0,1,1.7285.2861,3.6818,3.6818,0,0,1,1.1963.7285,2.9063,2.9063,0,0,1,.6953.9746,2.59,2.59,0,0,1,.2275,1.0137,3.5614,3.5614,0,0,1-.3515,1.58,3.2766,3.2766,0,0,1-1.2871,1.3,9.5649,9.5649,0,0,1-2.5733,1.0068,28.2962,28.2962,0,0,1-4.2119.69c0,.0957-.002.1884-.0068.2793s-.0069.1845-.0069.2793a4.06,4.06,0,0,0,.7617,2.6582,2.8072,2.8072,0,0,0,2.294.9169,4.3145,4.3145,0,0,0,1.1113-.13,4.746,4.746,0,0,0,.8711-.3184,3.8213,3.8213,0,0,0,.6758-.416c.1953-.1514.3721-.291.5332-.416a5.2125,5.2125,0,0,1,.4482-.3184.779.779,0,0,1,.4161-.1308.5807.5807,0,0,1,.4423.2216Zm-3.666-9.2559a3.375,3.375,0,0,0-1.5078.3379,4.0228,4.0228,0,0,0-1.2217.93,5.6678,5.6678,0,0,0-.91,1.3916,8.3053,8.3053,0,0,0-.585,1.7217,25.2134,25.2134,0,0,0,3.2109-.5655,7.9568,7.9568,0,0,0,1.8594-.6894,2.0085,2.0085,0,0,0,.8574-.7988,2.0322,2.0322,0,0,0,.209-.8965,1.2845,1.2845,0,0,0-.1045-.4883,1.2992,1.2992,0,0,0-.331-.4609,1.8177,1.8177,0,0,0-.5918-.3448A2.5338,2.5338,0,0,0,598.9453,147.2423Z" transform="translate(-0.9696)"/><path class="g" d="M605.7314,156.4464v-.2012c0-.082.0069-.2021.02-.3574s.0342-.3593.0654-.6113c.0293-.252.07-.58.1231-.9883l.8056-6.5908h-1.4687a.3675.3675,0,0,1-.292-.124.481.481,0,0,1-.085-.3828l.1045-.9239,2.0274-.2724.9882-4.0694a.7337.7337,0,0,1,.2012-.3183.4968.4968,0,0,1,.3447-.1231h1.209l-.56,4.5371h3.459l-.1953,1.6768h-3.4707l-.793,6.4736c-.0439.3555-.0781.6416-.1044.8584s-.0459.39-.0586.52c-.0127.1289-.0215.2207-.0264.2725s-.0059.0908-.0059.1162a1.3514,1.3514,0,0,0,.3125.9824,1.1061,1.1061,0,0,0,.8311.3184,1.6931,1.6931,0,0,0,.6045-.0977,2.8317,2.8317,0,0,0,.4492-.2148,3.7965,3.7965,0,0,0,.3242-.2139.395.395,0,0,1,.2207-.0976.2606.2606,0,0,1,.1758.0517.5093.5093,0,0,1,.1113.17l.4942,1.1045a4.9151,4.9151,0,0,1-1.45.878,4.4694,4.4694,0,0,1-1.6319.3183,2.7562,2.7562,0,0,1-1.9824-.6894A2.7173,2.7173,0,0,1,605.7314,156.4464Z" transform="translate(-0.9696)"/><path class="g" d="M622.0459,155.4581a11.2181,11.2181,0,0,1-1.0068,1.5079,7.0119,7.0119,0,0,1-1.1446,1.15,4.9635,4.9635,0,0,1-1.2734.7344,3.7891,3.7891,0,0,1-1.3848.2608,3.2446,3.2446,0,0,1-1.417-.3057,2.9515,2.9515,0,0,1-1.0859-.8965,4.3837,4.3837,0,0,1-.6953-1.457,7.21,7.21,0,0,1-.2471-1.9824,8.9179,8.9179,0,0,1,.293-2.2813,9.275,9.275,0,0,1,2.125-3.9121,8.6774,8.6774,0,0,1,1.6836-1.4307,8.0036,8.0036,0,0,1,1.9961-.9365,7.4867,7.4867,0,0,1,2.2353-.331,9.77,9.77,0,0,1,1.6446.1367,6.8836,6.8836,0,0,1,1.5791.4736l-1.5723,12.74h-1.1963a.708.708,0,0,1-.6182-.2334.9853.9853,0,0,1-.1621-.5722Zm.8838-8.0859a3.7151,3.7151,0,0,0-.5645-.084c-.1875-.0137-.3711-.0195-.5527-.0195a4.5479,4.5479,0,0,0-1.5078.2529,5.3737,5.3737,0,0,0-1.3652.708,6.1,6.1,0,0,0-1.1573,1.086,7.1053,7.1053,0,0,0-.8906,1.3847,7.8643,7.8643,0,0,0-.5791,1.6055,7.3421,7.3421,0,0,0-.207,1.748q0,3.1349,2.0019,3.1329a2.2621,2.2621,0,0,0,1.2481-.3965,4.8466,4.8466,0,0,0,1.1631-1.1045,9.3235,9.3235,0,0,0,1.02-1.6768,15.59,15.59,0,0,0,.832-2.125Z" transform="translate(-0.9696)"/><path class="g" d="M645.9268,139.78l-2.3526,19.1484h-1.209a.6854.6854,0,0,1-.6113-.2334,1.0125,1.0125,0,0,1-.1562-.5722l.247-2.7686a10.2966,10.2966,0,0,1-1.0791,1.5469,8.0013,8.0013,0,0,1-1.2285,1.1826,5.3331,5.3331,0,0,1-1.3389.7608,3.9168,3.9168,0,0,1-1.4111.2666,3.1081,3.1081,0,0,1-2.625-1.2286,5.8048,5.8048,0,0,1-.9365-3.5693,10.393,10.393,0,0,1,.2217-2.1309,11.0107,11.0107,0,0,1,.63-2.041,9.9874,9.9874,0,0,1,.9883-1.8144,7.4893,7.4893,0,0,1,1.294-1.4492,5.9426,5.9426,0,0,1,1.54-.962,4.3947,4.3947,0,0,1,1.7354-.3505,4.056,4.056,0,0,1,1.7744.3828,3.846,3.846,0,0,1,1.3584,1.0859l.8965-7.2539Zm-3.3545,8.8535a2.6747,2.6747,0,0,0-1.19-.9824,3.7652,3.7652,0,0,0-1.41-.2793,3.01,3.01,0,0,0-1.8457.6113,5.3864,5.3864,0,0,0-1.3985,1.5791,8.3017,8.3017,0,0,0-.89,2.1651,9.2939,9.2939,0,0,0-.3116,2.3525,4.1975,4.1975,0,0,0,.5518,2.36,1.798,1.798,0,0,0,1.5791.8125,2.4087,2.4087,0,0,0,1.2617-.3907,5.2145,5.2145,0,0,0,1.2285-1.0859,9.56,9.56,0,0,0,1.1055-1.6445,13.03,13.03,0,0,0,.89-2.08Z" transform="translate(-0.9696)"/><path class="g" d="M657.3926,156.4982a11.6366,11.6366,0,0,1-1.3008,1.1767,7.9214,7.9214,0,0,1-1.293.8125,5.6822,5.6822,0,0,1-1.3779.4746,7.6554,7.6554,0,0,1-1.5537.15,5.1923,5.1923,0,0,1-2.0274-.377,4.1793,4.1793,0,0,1-1.5214-1.0732,4.83,4.83,0,0,1-.9629-1.6836,6.8119,6.8119,0,0,1-.3379-2.209,9.7129,9.7129,0,0,1,.2148-2.0215,9.4855,9.4855,0,0,1,.624-1.918,8.6893,8.6893,0,0,1,1.001-1.6894,6.7589,6.7589,0,0,1,1.3516-1.3457,6.3611,6.3611,0,0,1,1.6777-.8906,5.848,5.848,0,0,1,1.9688-.3252,4.7288,4.7288,0,0,1,1.73.2861,3.6926,3.6926,0,0,1,1.1963.7285,2.9063,2.9063,0,0,1,.6953.9746,2.574,2.574,0,0,1,.2275,1.0137,3.5594,3.5594,0,0,1-.3506,1.58,3.296,3.296,0,0,1-1.2871,1.3,9.5846,9.5846,0,0,1-2.5742,1.0068,28.2962,28.2962,0,0,1-4.2119.69c0,.0957-.003.1884-.0069.2793s-.0058.1845-.0058.2793a4.0652,4.0652,0,0,0,.76,2.6582,2.8107,2.8107,0,0,0,2.295.9169,4.309,4.309,0,0,0,1.1113-.13,4.7487,4.7487,0,0,0,.8711-.3184,3.8249,3.8249,0,0,0,.6758-.416c.1953-.1514.373-.291.5332-.416a5.0368,5.0368,0,0,1,.4492-.3184.7732.7732,0,0,1,.415-.1308.5807.5807,0,0,1,.4424.2216Zm-3.666-9.2559a3.3686,3.3686,0,0,0-1.5078.3379,4.0147,4.0147,0,0,0-1.2227.93,5.6969,5.6969,0,0,0-.91,1.3916,8.2469,8.2469,0,0,0-.5849,1.7217,25.2371,25.2371,0,0,0,3.2119-.5655,7.9816,7.9816,0,0,0,1.8584-.6894,1.7876,1.7876,0,0,0,1.0654-1.6953,1.294,1.294,0,0,0-.4355-.9492,1.8029,1.8029,0,0,0-.5908-.3448A2.5357,2.5357,0,0,0,653.7266,147.2423Z" transform="translate(-0.9696)"/><path class="g" d="M558.0615,189.4581a11.2086,11.2086,0,0,1-1.0068,1.5079,7.0153,7.0153,0,0,1-1.1445,1.15,4.9657,4.9657,0,0,1-1.2735.7344,3.7886,3.7886,0,0,1-1.3847.2608,3.2442,3.2442,0,0,1-1.417-.3057,2.9518,2.9518,0,0,1-1.086-.8965,4.3856,4.3856,0,0,1-.6953-1.457,7.2133,7.2133,0,0,1-.2471-1.9824,8.9179,8.9179,0,0,1,.293-2.2813,9.275,9.275,0,0,1,2.125-3.9121,8.6833,8.6833,0,0,1,1.6836-1.4307,8.0052,8.0052,0,0,1,1.9961-.9365,7.4872,7.4872,0,0,1,2.2353-.331,9.7691,9.7691,0,0,1,1.6446.1367,6.8822,6.8822,0,0,1,1.5791.4736l-1.5723,12.74h-1.1963a.7077.7077,0,0,1-.6181-.2334.9845.9845,0,0,1-.1621-.5722Zm.8838-8.0859a3.7157,3.7157,0,0,0-.5644-.084c-.1875-.0137-.3711-.0195-.5528-.0195a4.5479,4.5479,0,0,0-1.5078.2529,5.3737,5.3737,0,0,0-1.3652.708,6.0967,6.0967,0,0,0-1.1572,1.086,7.1057,7.1057,0,0,0-.8907,1.3847,7.87,7.87,0,0,0-.5791,1.6055,7.3472,7.3472,0,0,0-.207,1.748q0,3.1349,2.0019,3.1329a2.2621,2.2621,0,0,0,1.2481-.3965,4.8466,4.8466,0,0,0,1.1631-1.1045,9.3235,9.3235,0,0,0,1.02-1.6768,15.59,15.59,0,0,0,.832-2.125Z" transform="translate(-0.9696)"/><path class="g" d="M575.8584,173.78l-2.3525,19.1484h-1.209a.6857.6857,0,0,1-.6114-.2334,1.0125,1.0125,0,0,1-.1562-.5722l.2471-2.7686a10.3039,10.3039,0,0,1-1.0791,1.5469,8.01,8.01,0,0,1-1.2285,1.1826,5.3348,5.3348,0,0,1-1.3389.7608,3.9176,3.9176,0,0,1-1.4111.2666,3.108,3.108,0,0,1-2.625-1.2286,5.8048,5.8048,0,0,1-.9366-3.5693,10.4,10.4,0,0,1,.2217-2.1309,11.0034,11.0034,0,0,1,.63-2.041,9.9813,9.9813,0,0,1,.9883-1.8144,7.4889,7.4889,0,0,1,1.2939-1.4492,5.9448,5.9448,0,0,1,1.54-.962,4.3946,4.3946,0,0,1,1.7353-.3505,4.056,4.056,0,0,1,1.7744.3828,3.8452,3.8452,0,0,1,1.3584,1.0859l.8965-7.2539Zm-3.3545,8.8535a2.675,2.675,0,0,0-1.1894-.9824,3.7654,3.7654,0,0,0-1.41-.2793,3.01,3.01,0,0,0-1.8457.6113,5.3861,5.3861,0,0,0-1.3984,1.5791,8.2984,8.2984,0,0,0-.89,2.1651,9.2937,9.2937,0,0,0-.3115,2.3525,4.1984,4.1984,0,0,0,.5517,2.36,1.7981,1.7981,0,0,0,1.5791.8125,2.4088,2.4088,0,0,0,1.2618-.3907,5.2184,5.2184,0,0,0,1.2285-1.0859,9.5655,9.5655,0,0,0,1.1054-1.6445,13.03,13.03,0,0,0,.89-2.08Z" transform="translate(-0.9696)"/><path class="g" d="M584.9316,189.757a9.9407,9.9407,0,0,1-.98,1.3847,7.19,7.19,0,0,1-1.1055,1.06,4.6414,4.6414,0,0,1-1.2148.6768,3.8406,3.8406,0,0,1-1.3262.2334,3.249,3.249,0,0,1-1.418-.3057,3.0094,3.0094,0,0,1-1.0918-.8965,4.297,4.297,0,0,1-.7011-1.457,7.2076,7.2076,0,0,1-.2481-1.9824,8.9179,8.9179,0,0,1,.293-2.2813,9.3552,9.3552,0,0,1,.832-2.1,9.0626,9.0626,0,0,1,1.3008-1.8125,8.8014,8.8014,0,0,1,1.6894-1.4307,8.0159,8.0159,0,0,1,1.9952-.9365,7.4976,7.4976,0,0,1,2.2363-.331,9.6533,9.6533,0,0,1,1.6377.1367,6.91,6.91,0,0,1,1.5732.4736l-2.1191,17.1992h-1.4561a.8067.8067,0,0,1-.39-.084.6285.6285,0,0,1-.2412-.2207.8039.8039,0,0,1-.1094-.3183,1.2634,1.2634,0,0,1,0-.3643Zm1.0664-8.3848a3.71,3.71,0,0,0-.5654-.084c-.1865-.0137-.37-.0195-.5517-.0195a4.5941,4.5941,0,0,0-1.5215.2529,5.406,5.406,0,0,0-1.3653.708,6.0945,6.0945,0,0,0-1.1562,1.086,7.0135,7.0135,0,0,0-.8906,1.3847,7.8,7.8,0,0,0-.5791,1.6055,7.3427,7.3427,0,0,0-.208,1.748,4.3428,4.3428,0,0,0,.5136,2.3477,1.6816,1.6816,0,0,0,1.502.7852,2.2737,2.2737,0,0,0,1.2344-.3887,4.7715,4.7715,0,0,0,1.1572-1.086,9.2205,9.2205,0,0,0,1.0137-1.6513,15.7543,15.7543,0,0,0,.832-2.0869Z" transform="translate(-0.9696)"/><path class="g" d="M602.17,179.7609l-1.5859,13.1679H599.44a.7407.7407,0,0,1-.8438-.832l.1943-2.4043a8.03,8.03,0,0,1-2.3466,2.5547,4.8078,4.8078,0,0,1-2.6836.8643,3.144,3.144,0,0,1-1.47-.3311,2.65,2.65,0,0,1-1.0332-.9687,4.1257,4.1257,0,0,1-.54-1.5606,7.5274,7.5274,0,0,1,.0137-2.1191l.9883-8.3711H594.02l-.9882,8.3711a4.2993,4.2993,0,0,0,.1884,2.3007,1.4076,1.4076,0,0,0,1.3975.754,2.7044,2.7044,0,0,0,1.2344-.3243,4.715,4.715,0,0,0,1.2226-.9238,7.8448,7.8448,0,0,0,1.0987-1.4492,10.1634,10.1634,0,0,0,.8779-1.8906l.8183-6.8379Z" transform="translate(-0.9696)"/><path class="g" d="M608.02,179.7609l-1.5859,13.1679h-2.2754l1.5859-13.1679Zm.8848-4.1348a1.4774,1.4774,0,0,1-.1367.6309,1.8273,1.8273,0,0,1-.3643.5195,1.6834,1.6834,0,0,1-.52.3574,1.4706,1.4706,0,0,1-.6035.1309,1.4013,1.4013,0,0,1-.5859-.1309,1.5522,1.5522,0,0,1-.5-.3574,1.8465,1.8465,0,0,1-.3448-.5195,1.5328,1.5328,0,0,1-.13-.6309,1.5768,1.5768,0,0,1,.13-.6367,1.7663,1.7663,0,0,1,.3506-.5264,1.7883,1.7883,0,0,1,.5078-.3642,1.342,1.342,0,0,1,.584-.1368,1.4728,1.4728,0,0,1,.6055.1309,1.6222,1.6222,0,0,1,.5137.3574,1.8523,1.8523,0,0,1,.3574.5332A1.56,1.56,0,0,1,608.9043,175.6261Z" transform="translate(-0.9696)"/><path class="g" d="M618.498,181.8663a.8435.8435,0,0,1-.2089.2276.4436.4436,0,0,1-.26.0713.7271.7271,0,0,1-.3965-.1426c-.1426-.0957-.3164-.2012-.5195-.3184a4.1913,4.1913,0,0,0-.7481-.3252A3.3452,3.3452,0,0,0,615.3,181.23a3.31,3.31,0,0,0-1.0654.1621,2.5422,2.5422,0,0,0-.8262.4493,2.0006,2.0006,0,0,0-.5332.6689,1.8275,1.8275,0,0,0-.1885.8125,1.2489,1.2489,0,0,0,.4033.9756,3.7274,3.7274,0,0,0,1.0137.63q.6108.2666,1.3125.5136a6.7374,6.7374,0,0,1,1.3135.6241,3.3822,3.3822,0,0,1,1.0146.9619,2.6354,2.6354,0,0,1,.4024,1.52,4.38,4.38,0,0,1-1.3848,3.2051,5.0753,5.0753,0,0,1-1.6113,1.0078,5.6726,5.6726,0,0,1-2.1133.3769,5.2491,5.2491,0,0,1-2.2285-.4492,4.6223,4.6223,0,0,1-1.58-1.15l.5723-.8838a.9809.9809,0,0,1,.2539-.2607.629.629,0,0,1,.3574-.09.6359.6359,0,0,1,.416.1817q.2081.1816.52.4092a3.4138,3.4138,0,0,0,.7871.4091,3.3728,3.3728,0,0,0,1.2021.1827,3.2229,3.2229,0,0,0,1.15-.1954,2.7075,2.7075,0,0,0,.8711-.52,2.1849,2.1849,0,0,0,.5459-.76,2.3266,2.3266,0,0,0,.1885-.93,1.3979,1.3979,0,0,0-.4033-1.0527,3.3057,3.3057,0,0,0-1.0137-.65q-.6123-.2594-1.3125-.4873a6.6172,6.6172,0,0,1-1.3135-.585,3.2121,3.2121,0,0,1-1.0146-.93,2.5989,2.5989,0,0,1-.4024-1.5215,4.0321,4.0321,0,0,1,.332-1.6054,4.1473,4.1473,0,0,1,.9551-1.3711,4.6753,4.6753,0,0,1,1.5137-.9551,5.3565,5.3565,0,0,1,2.01-.3574,5.1454,5.1454,0,0,1,2.0859.3964,4.7877,4.7877,0,0,1,1.5527,1.0723Z" transform="translate(-0.9696)"/><path class="g" d="M624.3994,179.7609l-1.5859,13.1679h-2.2744l1.5859-13.1679Zm.8838-4.1348a1.4628,1.4628,0,0,1-.1367.6309,1.7871,1.7871,0,0,1-.3633.5195,1.7029,1.7029,0,0,1-.5195.3574,1.4728,1.4728,0,0,1-.6055.1309,1.39,1.39,0,0,1-.584-.1309,1.5584,1.5584,0,0,1-.501-.3574,1.8084,1.8084,0,0,1-.3447-.5195,1.5491,1.5491,0,0,1-.13-.6309,1.5938,1.5938,0,0,1,.13-.6367,1.7158,1.7158,0,0,1,.3516-.5264,1.7791,1.7791,0,0,1,.5058-.3642,1.3534,1.3534,0,0,1,.586-.1368,1.4672,1.4672,0,0,1,.6035.1309,1.6,1.6,0,0,1,.5137.3574,1.7766,1.7766,0,0,1,.3574.5332A1.5443,1.5443,0,0,1,625.2832,175.6261Z" transform="translate(-0.9696)"/><path class="g" d="M636.2559,190.5636a11.933,11.933,0,0,1-1.2871,1.2344,6.234,6.234,0,0,1-1.2227.7871,4.91,4.91,0,0,1-1.2676.4092,8.0245,8.0245,0,0,1-1.41.1172,4.94,4.94,0,0,1-2.0215-.39,3.9968,3.9968,0,0,1-1.4688-1.1,4.8178,4.8178,0,0,1-.8965-1.7021,7.4221,7.4221,0,0,1-.3066-2.19,9.4663,9.4663,0,0,1,.501-3.0683,8.6144,8.6144,0,0,1,1.3974-2.6,6.9331,6.9331,0,0,1,2.1387-1.8067,5.571,5.571,0,0,1,2.7109-.6767,4.7035,4.7035,0,0,1,2.1973.4619,4.5969,4.5969,0,0,1,1.5469,1.3457l-.7285.8711a.835.835,0,0,1-.2012.1679.4863.4863,0,0,1-.2539.0655.5246.5246,0,0,1-.3574-.1631,4.9038,4.9038,0,0,0-.461-.3633,3.28,3.28,0,0,0-.7089-.3643,3.0617,3.0617,0,0,0-1.086-.163,3.17,3.17,0,0,0-1.6894.4882,4.7551,4.7551,0,0,0-1.3907,1.3321,6.8044,6.8044,0,0,0-.9433,2.0019,8.6722,8.6722,0,0,0-.3438,2.4834,5.4709,5.4709,0,0,0,.1817,1.4619,3.1277,3.1277,0,0,0,.5459,1.1192,2.5324,2.5324,0,0,0,.8906.7148,2.8156,2.8156,0,0,0,1.2285.2529,3.6441,3.6441,0,0,0,1.4619-.26,4.895,4.895,0,0,0,.9942-.5654c.2695-.2032.4961-.3926.6836-.5655a.8254.8254,0,0,1,.5527-.2607.5788.5788,0,0,1,.4414.2217Z" transform="translate(-0.9696)"/><path class="g" d="M642.1963,179.7609,640.61,192.9288h-2.2745l1.586-13.1679Zm.8838-4.1348a1.4628,1.4628,0,0,1-.1367.6309,1.789,1.789,0,0,1-.3633.5195,1.7033,1.7033,0,0,1-.52.3574,1.4724,1.4724,0,0,1-.6054.1309,1.3894,1.3894,0,0,1-.584-.1309,1.5584,1.5584,0,0,1-.501-.3574,1.8064,1.8064,0,0,1-.3447-.5195,1.5491,1.5491,0,0,1-.13-.6309,1.5938,1.5938,0,0,1,.13-.6367,1.714,1.714,0,0,1,.3516-.5264,1.7777,1.7777,0,0,1,.5058-.3642,1.3531,1.3531,0,0,1,.586-.1368,1.4675,1.4675,0,0,1,.6035.1309,1.5986,1.5986,0,0,1,.5136.3574,1.775,1.775,0,0,1,.3575.5332A1.5443,1.5443,0,0,1,643.08,175.6261Z" transform="translate(-0.9696)"/><path class="g" d="M649.0859,193.1115a5.1462,5.1462,0,0,1-1.9755-.37,4.3526,4.3526,0,0,1-1.5469-1.0732,4.9559,4.9559,0,0,1-1.0147-1.7158,6.8375,6.8375,0,0,1-.3633-2.3145,9.3482,9.3482,0,0,1,.52-3.1328,8.3957,8.3957,0,0,1,1.43-2.5674,6.8845,6.8845,0,0,1,2.1386-1.7353,5.6767,5.6767,0,0,1,2.6465-.6367,5.1276,5.1276,0,0,1,1.9756.37,4.33,4.33,0,0,1,1.5469,1.0732,4.9562,4.9562,0,0,1,1.0146,1.7149,6.8007,6.8007,0,0,1,.3633,2.3017,9.3065,9.3065,0,0,1-.5195,3.12,8.5609,8.5609,0,0,1-1.4238,2.5743,6.8163,6.8163,0,0,1-2.1387,1.748A5.6585,5.6585,0,0,1,649.0859,193.1115Zm.2217-1.8077a3.0179,3.0179,0,0,0,1.7217-.5195,4.6681,4.6681,0,0,0,1.3262-1.3848,6.9732,6.9732,0,0,0,.8515-1.9951,9.2172,9.2172,0,0,0,.2989-2.3662,4.3753,4.3753,0,0,0-.7207-2.7363,2.4814,2.4814,0,0,0-2.0743-.916,3.0632,3.0632,0,0,0-1.7343.5136,4.5385,4.5385,0,0,0-1.32,1.3711,7.0388,7.0388,0,0,0-.8448,1.9883,9.1834,9.1834,0,0,0-.2988,2.3662,4.4506,4.4506,0,0,0,.7148,2.7491A2.4612,2.4612,0,0,0,649.3076,191.3038Zm5.6416-17.2109-3.1719,3.3535a1.2779,1.2779,0,0,1-.3515.2793.9145.9145,0,0,1-.416.084h-1.2735l2.1192-3.1455a1.4233,1.4233,0,0,1,.41-.4356,1.1235,1.1235,0,0,1,.6035-.1357Z" transform="translate(-0.9696)"/><path class="g" d="M660.9941,183.089a8.2025,8.2025,0,0,1,2.3789-2.6328,4.8393,4.8393,0,0,1,2.7305-.8906,3.1,3.1,0,0,1,1.4619.331,2.6548,2.6548,0,0,1,1.0274.9688,4.1255,4.1255,0,0,1,.54,1.5664,7.86,7.86,0,0,1,0,2.1123l-.9883,8.3847h-2.3007l.9873-8.3847a4.2684,4.2684,0,0,0-.1944-2.3067,1.415,1.415,0,0,0-1.3916-.748,2.72,2.72,0,0,0-1.2676.3379,4.8859,4.8859,0,0,0-1.2412.9619,8.0074,8.0074,0,0,0-1.1113,1.501,10.5716,10.5716,0,0,0-.8779,1.957l-.7539,6.6816H657.68l1.5859-13.1816h1.1436a.69.69,0,0,1,.78.78Z" transform="translate(-0.9696)"/><path class="g" d="M15.5479,326.4327H10.0625L8.0078,343.0206H5.59l2.0274-16.5879H2.1055l.2343-2.041H15.7949Z" transform="translate(-0.9696)"/><path class="g" d="M23.7764,339.55a11.2109,11.2109,0,0,1-1.0069,1.5078,7.0083,7.0083,0,0,1-1.1445,1.15,4.9635,4.9635,0,0,1-1.2734.7344,3.7891,3.7891,0,0,1-1.3848.2608,3.2446,3.2446,0,0,1-1.417-.3057,2.9515,2.9515,0,0,1-1.0859-.8965,4.3818,4.3818,0,0,1-.6953-1.457,7.21,7.21,0,0,1-.2471-1.9824,8.9135,8.9135,0,0,1,.293-2.2813,9.275,9.275,0,0,1,2.125-3.9121,8.68,8.68,0,0,1,1.6835-1.4307,8.0069,8.0069,0,0,1,1.9961-.9365,7.4874,7.4874,0,0,1,2.2354-.331,9.768,9.768,0,0,1,1.6445.1367,6.8822,6.8822,0,0,1,1.5791.4736l-1.5722,12.74H24.31a.708.708,0,0,1-.6182-.2334.9853.9853,0,0,1-.1621-.5722Zm.8838-8.0859a3.7169,3.7169,0,0,0-.5645-.084c-.1875-.0137-.3711-.0195-.5527-.0195a4.5474,4.5474,0,0,0-1.5078.2529,5.3743,5.3743,0,0,0-1.3653.708,6.1,6.1,0,0,0-1.1572,1.086,7.1006,7.1006,0,0,0-.8906,1.3847,7.8584,7.8584,0,0,0-.5791,1.6055,7.3421,7.3421,0,0,0-.2071,1.748q0,3.1348,2.002,3.1329a2.262,2.262,0,0,0,1.248-.3965,4.8429,4.8429,0,0,0,1.1631-1.1045,9.3177,9.3177,0,0,0,1.0205-1.6768,15.59,15.59,0,0,0,.8321-2.125Z" transform="translate(-0.9696)"/><path class="g" d="M32.2266,333.5187a11.0635,11.0635,0,0,1,1.124-1.918,5.5913,5.5913,0,0,1,1.2676-1.2734,3.1321,3.1321,0,0,1,1.3652-.56,2.6578,2.6578,0,0,1,1.43.2139l-.416,2.2236a2.66,2.66,0,0,0-2.9834.4942,8.6809,8.6809,0,0,0-2.1,4.2246l-.7286,6.0966H28.9238L30.51,329.839h1.1445a.6954.6954,0,0,1,.793.78Z" transform="translate(-0.9696)"/><path class="g" d="M41.8066,329.8527l-1.7421,14.1435a5.1118,5.1118,0,0,1-.39,1.4756,4.0427,4.0427,0,0,1-.7861,1.19,3.5121,3.5121,0,0,1-1.1768.7988,4.4116,4.4116,0,0,1-2.333.2285,3.5075,3.5075,0,0,1-.6309-.1953l.2344-1.2481a.448.448,0,0,1,.0967-.1757.262.262,0,0,1,.1563-.0713,1.4779,1.4779,0,0,1,.247-.0069c.1.0039.2227.0069.3711.0069a1.7788,1.7788,0,0,0,1.3643-.4746,2.7742,2.7742,0,0,0,.5849-1.5274l1.7286-14.1435Zm.8194-4.1348a1.4774,1.4774,0,0,1-.1367.6309,1.7922,1.7922,0,0,1-.3643.5195,1.7021,1.7021,0,0,1-.5137.3574,1.4238,1.4238,0,0,1-.5976.1309,1.3851,1.3851,0,0,1-.5918-.1309,1.5958,1.5958,0,0,1-.4942-.3574,1.8241,1.8241,0,0,1-.3437-.5195,1.5335,1.5335,0,0,1-.1309-.6309,1.5776,1.5776,0,0,1,.1309-.6367,1.7155,1.7155,0,0,1,.3515-.5264,1.7937,1.7937,0,0,1,.5-.3642,1.3285,1.3285,0,0,1,.5918-.1368,1.4307,1.4307,0,0,1,.5977.1309,1.7271,1.7271,0,0,1,.5137.3574,1.6734,1.6734,0,0,1,.3574.5332A1.6366,1.6366,0,0,1,42.626,325.7179Z" transform="translate(-0.9696)"/><path class="g" d="M54.1309,340.59a11.5445,11.5445,0,0,1-1.3,1.1767,7.9717,7.9717,0,0,1-1.294.8125,5.69,5.69,0,0,1-1.3769.4746,7.6732,7.6732,0,0,1-1.5547.1495,5.1923,5.1923,0,0,1-2.0274-.377,4.189,4.189,0,0,1-1.5215-1.0732,4.8168,4.8168,0,0,1-.9619-1.6836,6.785,6.785,0,0,1-.3379-2.209,9.7116,9.7116,0,0,1,.2139-2.0215,9.4878,9.4878,0,0,1,.625-1.918,8.7253,8.7253,0,0,1,1-1.6894,6.7371,6.7371,0,0,1,1.3525-1.3457,6.3589,6.3589,0,0,1,1.6768-.8907,5.852,5.852,0,0,1,1.97-.3251,4.7355,4.7355,0,0,1,1.7295.2861,3.6863,3.6863,0,0,1,1.1953.7285,2.89,2.89,0,0,1,.6953.9746,2.5746,2.5746,0,0,1,.2286,1.0137,3.56,3.56,0,0,1-.3516,1.58,3.29,3.29,0,0,1-1.2871,1.3,9.5724,9.5724,0,0,1-2.5742,1.0068,28.3018,28.3018,0,0,1-4.211.6895c0,.0957-.0029.1884-.0078.2793s-.0058.1845-.0058.2792a4.0654,4.0654,0,0,0,.7607,2.6583,2.8084,2.8084,0,0,0,2.2939.9169,4.3093,4.3093,0,0,0,1.1114-.13,4.7244,4.7244,0,0,0,.8711-.3184,3.7923,3.7923,0,0,0,.6758-.416c.1953-.1514.373-.291.5332-.416a5.1641,5.1641,0,0,1,.4492-.3184.7785.7785,0,0,1,.416-.1308.579.579,0,0,1,.4414.2216Zm-3.6661-9.2559a3.3719,3.3719,0,0,0-1.5078.3379,4.0252,4.0252,0,0,0-1.2226.93,5.6969,5.6969,0,0,0-.91,1.3916,8.3038,8.3038,0,0,0-.584,1.7217,25.2516,25.2516,0,0,0,3.211-.5655,7.9734,7.9734,0,0,0,1.8593-.6894,1.7919,1.7919,0,0,0,1.0655-1.6953,1.3037,1.3037,0,0,0-.4356-.9492,1.8008,1.8008,0,0,0-.5908-.3448A2.5413,2.5413,0,0,0,50.4648,331.3341Z" transform="translate(-0.9696)"/><path class="g" d="M57.25,340.5382v-.2012c0-.082.0068-.2021.02-.3574s.0352-.3594.0655-.6113.0713-.58.124-.9883l.8047-6.5908H56.7949a.37.37,0,0,1-.292-.124.4849.4849,0,0,1-.0849-.3828l.1045-.9239,2.0283-.2724.9883-4.0694a.7237.7237,0,0,1,.2011-.3183.4928.4928,0,0,1,.3438-.1231h1.209l-.5586,4.5371h3.458l-.1944,1.6768H60.5264l-.793,6.4736c-.0439.3555-.0781.6416-.1045.8584s-.0449.39-.0586.5205c-.0127.1289-.0215.2207-.0254.2725s-.0058.0908-.0058.1162a1.3557,1.3557,0,0,0,.3115.9824,1.1087,1.1087,0,0,0,.831.3184,1.7024,1.7024,0,0,0,.6055-.0977,2.8161,2.8161,0,0,0,.4483-.2148,3.868,3.868,0,0,0,.3251-.2139.3925.3925,0,0,1,.2208-.0976.26.26,0,0,1,.1757.0517.4957.4957,0,0,1,.11.17l.4941,1.1045a4.9024,4.9024,0,0,1-1.45.878,4.4637,4.4637,0,0,1-1.6308.3183,2.753,2.753,0,0,1-1.9825-.6894A2.7221,2.7221,0,0,1,57.25,340.5382Z" transform="translate(-0.9696)"/><path class="g" d="M73.5645,339.55a11.2109,11.2109,0,0,1-1.0069,1.5078,7.0431,7.0431,0,0,1-1.1435,1.15,4.9712,4.9712,0,0,1-1.2745.7344,3.7834,3.7834,0,0,1-1.3837.2608,3.2459,3.2459,0,0,1-1.418-.3057,2.96,2.96,0,0,1-1.0859-.8965,4.3838,4.3838,0,0,1-.6954-1.457,7.2543,7.2543,0,0,1-.2461-1.9824,8.9615,8.9615,0,0,1,.292-2.2813,9.2652,9.2652,0,0,1,2.126-3.9121,8.6538,8.6538,0,0,1,1.6836-1.4307,8,8,0,0,1,1.9951-.9365,7.4922,7.4922,0,0,1,2.2354-.331,9.76,9.76,0,0,1,1.6445.1367,6.89,6.89,0,0,1,1.58.4736l-1.5733,12.74H74.0977a.7058.7058,0,0,1-.6172-.2334.978.978,0,0,1-.1621-.5722Zm.8847-8.0859a3.7283,3.7283,0,0,0-.5654-.084c-.1865-.0137-.37-.0195-.5527-.0195a4.5523,4.5523,0,0,0-1.5079.2529,5.4071,5.4071,0,0,0-1.3652.708,6.13,6.13,0,0,0-1.1572,1.086,7.1948,7.1948,0,0,0-.8906,1.3847,7.9221,7.9221,0,0,0-.5782,1.6055,7.3478,7.3478,0,0,0-.208,1.748q0,3.1348,2.002,3.1329a2.2571,2.2571,0,0,0,1.248-.3965,4.8265,4.8265,0,0,0,1.1631-1.1045,9.2624,9.2624,0,0,0,1.0215-1.6768,15.8407,15.8407,0,0,0,.832-2.125Z" transform="translate(-0.9696)"/><path class="g" d="M97.4453,323.8722l-2.3525,19.1484h-1.209a.6849.6849,0,0,1-.61-.2334,1.0047,1.0047,0,0,1-.1562-.5722l.2461-2.7686a10.3733,10.3733,0,0,1-1.0781,1.5469,8.0935,8.0935,0,0,1-1.2286,1.1826,5.3537,5.3537,0,0,1-1.34.7608,3.9085,3.9085,0,0,1-1.41.2666,3.11,3.11,0,0,1-2.6259-1.2286,5.8108,5.8108,0,0,1-.9366-3.5693,10.47,10.47,0,0,1,.2217-2.1309,11.0794,11.0794,0,0,1,.63-2.041,10.0951,10.0951,0,0,1,.9883-1.8144,7.4889,7.4889,0,0,1,1.2939-1.4492,5.9448,5.9448,0,0,1,1.54-.962,4.403,4.403,0,0,1,1.7363-.3505,4.0547,4.0547,0,0,1,1.7734.3828,3.8485,3.8485,0,0,1,1.3594,1.0859l.8965-7.2539Zm-3.3535,8.8535a2.6854,2.6854,0,0,0-1.19-.9824,3.7664,3.7664,0,0,0-1.41-.2793,3.0059,3.0059,0,0,0-1.8457.6113,5.3737,5.3737,0,0,0-1.3985,1.5791,8.3378,8.3378,0,0,0-.8906,2.1651,9.339,9.339,0,0,0-.3115,2.3525,4.2058,4.2058,0,0,0,.5518,2.36,1.8,1.8,0,0,0,1.58.8125,2.4114,2.4114,0,0,0,1.2618-.3907,5.2184,5.2184,0,0,0,1.2285-1.0859,9.5693,9.5693,0,0,0,1.1045-1.6445,12.9481,12.9481,0,0,0,.89-2.08Z" transform="translate(-0.9696)"/><path class="g" d="M108.9111,340.59a11.7029,11.7029,0,0,1-1.3,1.1767,7.9634,7.9634,0,0,1-1.2929.8125,5.7043,5.7043,0,0,1-1.3789.4746,7.64,7.64,0,0,1-1.5528.1495,5.1969,5.1969,0,0,1-2.0283-.377,4.1759,4.1759,0,0,1-1.52-1.0732,4.8186,4.8186,0,0,1-.9629-1.6836,6.8119,6.8119,0,0,1-.3379-2.209,9.713,9.713,0,0,1,.2149-2.0215,9.4708,9.4708,0,0,1,.623-1.918,8.6834,8.6834,0,0,1,1.002-1.6894,6.7324,6.7324,0,0,1,1.3515-1.3457,6.3633,6.3633,0,0,1,1.6778-.8907,5.8457,5.8457,0,0,1,1.9687-.3251,4.7191,4.7191,0,0,1,1.7285.2861,3.687,3.687,0,0,1,1.1973.7285,2.918,2.918,0,0,1,.6953.9746,2.5878,2.5878,0,0,1,.2266,1.0137,3.5611,3.5611,0,0,1-.3506,1.58,3.2833,3.2833,0,0,1-1.2871,1.3,9.5784,9.5784,0,0,1-2.5733,1.0068,28.29,28.29,0,0,1-4.2129.6895c0,.0957-.0019.1884-.0058.2793s-.0069.1845-.0069.2792a4.06,4.06,0,0,0,.7608,2.6583,2.8091,2.8091,0,0,0,2.2949.9169,4.3145,4.3145,0,0,0,1.1113-.13,4.7732,4.7732,0,0,0,.8711-.3184,3.858,3.858,0,0,0,.6758-.416c.1953-.1514.3721-.291.5332-.416a5.0407,5.0407,0,0,1,.4482-.3184.7733.7733,0,0,1,.4151-.1308.5826.5826,0,0,1,.4433.2216Zm-3.666-9.2559a3.3719,3.3719,0,0,0-1.5078.3379,4.0108,4.0108,0,0,0-1.2217.93,5.6678,5.6678,0,0,0-.91,1.3916,8.2486,8.2486,0,0,0-.586,1.7217,25.201,25.201,0,0,0,3.2119-.5655,7.9622,7.9622,0,0,0,1.8584-.6894,1.7913,1.7913,0,0,0,1.0665-1.6953,1.2946,1.2946,0,0,0-.4356-.9492,1.8167,1.8167,0,0,0-.5918-.3448A2.5279,2.5279,0,0,0,105.2451,331.3341Z" transform="translate(-0.9696)"/><path class="g" d="M1.8066,371.7384v-.2021c0-.0821.0069-.2012.02-.3575s.0351-.3593.0654-.61.0713-.5811.124-.9883l.8047-6.5908H1.3516a.3725.3725,0,0,1-.292-.1231.4889.4889,0,0,1-.085-.3837l.1045-.9229,2.0283-.2734.9883-4.0684a.7144.7144,0,0,1,.2012-.3184.4891.4891,0,0,1,.3437-.124H5.85l-.5586,4.5362H8.749l-.1943,1.6777H5.083L4.29,369.464c-.0439.3555-.0781.6406-.1045.8574s-.0449.3906-.0585.52c-.0127.1308-.0215.2207-.0254.2734s-.0059.0908-.0059.1172a1.3546,1.3546,0,0,0,.3115.9814,1.1128,1.1128,0,0,0,.8311.3184,1.6807,1.6807,0,0,0,.6055-.0977,2.9087,2.9087,0,0,0,.4482-.2138c.13-.0782.2383-.15.3252-.2149a.392.392,0,0,1,.2207-.0976.2606.2606,0,0,1,.1758.0517.491.491,0,0,1,.11.169l.4942,1.1054a4.8581,4.8581,0,0,1-1.45.877,4.4232,4.4232,0,0,1-1.6309.3183,2.7486,2.7486,0,0,1-1.9824-.6884A2.7217,2.7217,0,0,1,1.8066,371.7384Z" transform="translate(-0.9696)"/><path class="g" d="M20.3447,371.79a11.8018,11.8018,0,0,1-1.3,1.1767,7.9021,7.9021,0,0,1-1.2929.8125,5.7035,5.7035,0,0,1-1.379.4746,7.71,7.71,0,0,1-1.5527.1495,5.1965,5.1965,0,0,1-2.0283-.377,4.2085,4.2085,0,0,1-1.5205-1.0723,4.8349,4.8349,0,0,1-.9629-1.6836,6.8194,6.8194,0,0,1-.3379-2.2109,9.72,9.72,0,0,1,.2148-2.0215,9.4681,9.4681,0,0,1,.6231-1.917,8.7256,8.7256,0,0,1,1.0019-1.69,6.7882,6.7882,0,0,1,1.3516-1.3457,6.3614,6.3614,0,0,1,1.6777-.89,5.8442,5.8442,0,0,1,1.9688-.3252,4.719,4.719,0,0,1,1.7285.2862,3.6854,3.6854,0,0,1,1.1973.7275,2.933,2.933,0,0,1,.6953.9756,2.5878,2.5878,0,0,1,.2266,1.0137,3.5537,3.5537,0,0,1-.3506,1.5791,3.2788,3.2788,0,0,1-1.2871,1.3008,9.6735,9.6735,0,0,1-2.5733,1.0078,28.4376,28.4376,0,0,1-4.2129.6885c0,.0947-.0019.1884-.0058.2792s-.0069.1846-.0069.28a4.0648,4.0648,0,0,0,.7608,2.6582,2.8084,2.8084,0,0,0,2.2949.916,4.3145,4.3145,0,0,0,1.1113-.13,4.7732,4.7732,0,0,0,.8711-.3184,3.9816,3.9816,0,0,0,.6758-.416c.1953-.1514.3721-.29.5332-.416a5.0407,5.0407,0,0,1,.4482-.3184.7719.7719,0,0,1,.4151-.13.5815.5815,0,0,1,.4433.2207Zm-3.666-9.2559a3.3854,3.3854,0,0,0-1.5078.3379,4.0108,4.0108,0,0,0-1.2217.93,5.6615,5.6615,0,0,0-.91,1.3906,8.2775,8.2775,0,0,0-.586,1.7227,25.1832,25.1832,0,0,0,3.2119-.5655,8.0145,8.0145,0,0,0,1.8584-.6884A1.7934,1.7934,0,0,0,18.59,363.964a1.2983,1.2983,0,0,0-.4355-.9492,1.8154,1.8154,0,0,0-.5918-.3438A2.5049,2.5049,0,0,0,16.6787,362.5343Z" transform="translate(-0.9696)"/><path class="g" d="M22.4893,374.2218l2.3271-19.1494h2.2754l-2.3281,19.1494Z" transform="translate(-0.9696)"/><path class="g" d="M38.6348,371.79a11.7076,11.7076,0,0,1-1.2989,1.1767,7.9478,7.9478,0,0,1-1.2939.8125,5.7117,5.7117,0,0,1-1.3779.4746,7.7288,7.7288,0,0,1-1.5537.1495,5.197,5.197,0,0,1-2.0284-.377,4.217,4.217,0,0,1-1.5205-1.0723,4.8174,4.8174,0,0,1-.9619-1.6836,6.7925,6.7925,0,0,1-.3379-2.2109,9.7116,9.7116,0,0,1,.2139-2.0215,9.47,9.47,0,0,1,.624-1.917,8.7674,8.7674,0,0,1,1.001-1.69,6.7636,6.7636,0,0,1,1.3525-1.3457,6.356,6.356,0,0,1,1.6768-.89,5.8453,5.8453,0,0,1,1.97-.3252,4.7261,4.7261,0,0,1,1.7285.2862,3.6792,3.6792,0,0,1,1.1963.7275,2.9174,2.9174,0,0,1,.6953.9756,2.59,2.59,0,0,1,.2276,1.0137,3.553,3.553,0,0,1-.3516,1.5791,3.2722,3.2722,0,0,1-1.2871,1.3008,9.66,9.66,0,0,1-2.5732,1.0078,28.4433,28.4433,0,0,1-4.212.6885c0,.0947-.0019.1884-.0068.2792s-.0068.1846-.0068.28a4.0648,4.0648,0,0,0,.7617,2.6582,2.8062,2.8062,0,0,0,2.2939.916,4.3153,4.3153,0,0,0,1.1114-.13,4.7487,4.7487,0,0,0,.8711-.3184,3.9453,3.9453,0,0,0,.6757-.416c.1953-.1514.3721-.29.5332-.416a5.1756,5.1756,0,0,1,.4483-.3184.7773.7773,0,0,1,.416-.13.58.58,0,0,1,.4424.2207Zm-3.666-9.2559a3.3886,3.3886,0,0,0-1.5079.3379,4.0224,4.0224,0,0,0-1.2216.93,5.6618,5.6618,0,0,0-.91,1.3906,8.3345,8.3345,0,0,0-.585,1.7227,25.2009,25.2009,0,0,0,3.211-.5655,8.009,8.009,0,0,0,1.8594-.6884,1.7978,1.7978,0,0,0,1.0664-1.6973,1.2816,1.2816,0,0,0-.1045-.4873,1.3041,1.3041,0,0,0-.3311-.4619,1.8154,1.8154,0,0,0-.5918-.3438A2.51,2.51,0,0,0,34.9688,362.5343Z" transform="translate(-0.9696)"/><path class="g" d="M40.7148,374.2218l1.586-13.1826h1.1445a.6961.6961,0,0,1,.793.78l-.1826,2.34a8.0964,8.0964,0,0,1,2.1386-2.4629,4.1037,4.1037,0,0,1,2.4375-.8388,2.238,2.238,0,0,1,1.9756.9169,4.5555,4.5555,0,0,1,.6367,2.6192,7.5888,7.5888,0,0,1,2.2041-2.6719,4.4355,4.4355,0,0,1,2.5938-.8642,2.4926,2.4926,0,0,1,2.3916,1.3,6.242,6.242,0,0,1,.416,3.68l-.9883,8.3848H55.5742l1-8.3848a5.2636,5.2636,0,0,0-.0976-2.3017,1.1857,1.1857,0,0,0-1.2539-.7539,2.4367,2.4367,0,0,0-1.1114.2793,4.0232,4.0232,0,0,0-1.0722.8193,6.444,6.444,0,0,0-.9688,1.3389,10.79,10.79,0,0,0-.7988,1.8388v.0137l-.8457,7.15H48.1377l.9883-8.3848a5.67,5.67,0,0,0-.0518-2.3017,1.13,1.13,0,0,0-1.2226-.7539,2.51,2.51,0,0,0-1.2022.3115,3.963,3.963,0,0,0-1.0928.9043,7.4192,7.4192,0,0,0-.955,1.4424,13.8294,13.8294,0,0,0-.8057,1.918l-.8193,6.8642Z" transform="translate(-0.9696)"/><path class="g" d="M71.5371,371.79a11.7161,11.7161,0,0,1-1.2988,1.1767,7.9528,7.9528,0,0,1-1.294.8125,5.7087,5.7087,0,0,1-1.3779.4746,7.7274,7.7274,0,0,1-1.5537.1495,5.1965,5.1965,0,0,1-2.0283-.377,4.2162,4.2162,0,0,1-1.52-1.0723,4.8174,4.8174,0,0,1-.9619-1.6836,6.7925,6.7925,0,0,1-.3379-2.2109,9.7182,9.7182,0,0,1,.2138-2.0215,9.47,9.47,0,0,1,.6241-1.917,8.7721,8.7721,0,0,1,1.0009-1.69,6.7667,6.7667,0,0,1,1.3526-1.3457,6.3554,6.3554,0,0,1,1.6767-.89,5.8459,5.8459,0,0,1,1.97-.3252,4.7268,4.7268,0,0,1,1.7285.2862,3.6813,3.6813,0,0,1,1.1963.7275,2.9188,2.9188,0,0,1,.6953.9756,2.5916,2.5916,0,0,1,.2275,1.0137,3.553,3.553,0,0,1-.3516,1.5791,3.2722,3.2722,0,0,1-1.2871,1.3008,9.6574,9.6574,0,0,1-2.5732,1.0078,28.4439,28.4439,0,0,1-4.2119.6885c0,.0947-.002.1884-.0069.2792s-.0068.1846-.0068.28a4.0648,4.0648,0,0,0,.7617,2.6582,2.8065,2.8065,0,0,0,2.294.916,4.3145,4.3145,0,0,0,1.1113-.13,4.7487,4.7487,0,0,0,.8711-.3184,3.9463,3.9463,0,0,0,.6758-.416c.1953-.1514.372-.29.5332-.416a5.1752,5.1752,0,0,1,.4482-.3184.7776.7776,0,0,1,.416-.13.58.58,0,0,1,.4424.2207Zm-3.666-9.2559a3.3884,3.3884,0,0,0-1.5078.3379,4.0228,4.0228,0,0,0-1.2217.93,5.6618,5.6618,0,0,0-.91,1.3906,8.34,8.34,0,0,0-.5849,1.7227,25.1956,25.1956,0,0,0,3.2109-.5655,8.0072,8.0072,0,0,0,1.8594-.6884,1.7978,1.7978,0,0,0,1.0664-1.6973,1.2816,1.2816,0,0,0-.1045-.4873,1.3038,1.3038,0,0,0-.331-.4619,1.8175,1.8175,0,0,0-.5918-.3438A2.5108,2.5108,0,0,0,67.8711,362.5343Z" transform="translate(-0.9696)"/><path class="g" d="M74.6572,371.7384v-.2021c0-.0821.0069-.2012.02-.3575s.0341-.3593.0654-.61c.0293-.251.07-.5811.123-.9883l.8057-6.5908H74.2021a.37.37,0,0,1-.2919-.1231.4849.4849,0,0,1-.085-.3837l.1045-.9229,2.0273-.2734.9883-4.0684a.7231.7231,0,0,1,.2012-.3184.4931.4931,0,0,1,.3447-.124H78.7l-.56,4.5362H81.6l-.1953,1.6777H77.9336l-.793,6.4746c-.0439.3555-.0781.6406-.1045.8574s-.0459.3906-.0586.52c-.0127.1308-.0214.2207-.0263.2734s-.0059.0908-.0059.1172a1.35,1.35,0,0,0,.3125.9814,1.11,1.11,0,0,0,.8311.3184,1.6717,1.6717,0,0,0,.6045-.0977,2.9219,2.9219,0,0,0,.4492-.2138c.1289-.0782.2383-.15.3242-.2149a.395.395,0,0,1,.2207-.0976.2606.2606,0,0,1,.1758.0517.5045.5045,0,0,1,.1113.169l.4942,1.1054a4.8718,4.8718,0,0,1-1.45.877,4.4283,4.4283,0,0,1-1.6319.3183,2.7516,2.7516,0,0,1-1.9824-.6884A2.7173,2.7173,0,0,1,74.6572,371.7384Z" transform="translate(-0.9696)"/><path class="g" d="M86.1357,364.7179a11.2522,11.2522,0,0,1,1.1241-1.917,5.6582,5.6582,0,0,1,1.2675-1.2744,3.1441,3.1441,0,0,1,1.3653-.5586,2.6485,2.6485,0,0,1,1.43.2148l-.416,2.2227a2.657,2.657,0,0,0-2.9825.4941,8.6685,8.6685,0,0,0-2.1,4.2247l-.7285,6.0976H82.834L84.42,361.0392h1.1446a.6961.6961,0,0,1,.7929.78Z" transform="translate(-0.9696)"/><path class="g" d="M95.7168,361.0519l-1.5859,13.17H91.8555l1.5859-13.17Zm2.873-5.668-3.1718,3.3545a1.2771,1.2771,0,0,1-.3516.2793.9226.9226,0,0,1-.416.085H93.377l2.1191-3.1465a1.4289,1.4289,0,0,1,.4082-.4356,1.1327,1.1327,0,0,1,.6055-.1367Z" transform="translate(-0.9696)"/><path class="g" d="M105.8438,370.75a11.3847,11.3847,0,0,1-1.0079,1.5088,6.9694,6.9694,0,0,1-1.1445,1.15,4.976,4.976,0,0,1-1.2734.7344,3.805,3.805,0,0,1-1.3848.26,3.223,3.223,0,0,1-1.416-.3057,2.9471,2.9471,0,0,1-1.0859-.8975,4.3532,4.3532,0,0,1-.6954-1.4551,7.2162,7.2162,0,0,1-.248-1.9824,8.9153,8.9153,0,0,1,.293-2.2822,9.3026,9.3026,0,0,1,2.125-3.9131,8.7019,8.7019,0,0,1,1.6836-1.43,8.0182,8.0182,0,0,1,1.996-.9355,7.4673,7.4673,0,0,1,2.2364-.3321,9.682,9.682,0,0,1,1.6445.1368,6.8507,6.8507,0,0,1,1.5791.4746l-1.5732,12.74H106.377a.7043.7043,0,0,1-.6182-.2344.978.978,0,0,1-.1621-.5722Zm.8837-8.0859a3.8605,3.8605,0,0,0-.5654-.085c-.1865-.0117-.3711-.0195-.5527-.0195a4.5565,4.5565,0,0,0-1.5078.2539,5.4061,5.4061,0,0,0-1.3653.709,6.0028,6.0028,0,0,0-1.1562,1.0859,6.9474,6.9474,0,0,0-.8906,1.3838,7.7975,7.7975,0,0,0-.5791,1.6055,7.3388,7.3388,0,0,0-.2081,1.749q0,3.1319,2.002,3.1328a2.2724,2.2724,0,0,0,1.248-.3965,4.8687,4.8687,0,0,0,1.1641-1.1054,9.3516,9.3516,0,0,0,1.0195-1.6768,15.6047,15.6047,0,0,0,.8321-2.126Z" transform="translate(-0.9696)"/><path class="g" d="M437.32,74.0187a4.5224,4.5224,0,0,0,1.9238-.4033,4.9163,4.9163,0,0,0,1.5352-1.1114,5.8136,5.8136,0,0,0,1.085-1.6963A7.9034,7.9034,0,0,0,442.43,68.65L443.82,57.3h2.4317l-1.3907,11.35a9.61,9.61,0,0,1-.8457,2.9707,8.393,8.393,0,0,1-1.664,2.379,7.4742,7.4742,0,0,1-2.3536,1.5791,7.389,7.389,0,0,1-2.9375.5722,6.4163,6.4163,0,0,1-2.788-.5722,5.2881,5.2881,0,0,1-1.97-1.5791,6.0267,6.0267,0,0,1-1.0722-2.379,8.7559,8.7559,0,0,1-.1114-2.9707L432.498,57.3h2.4307l-1.3916,11.336a7.1542,7.1542,0,0,0,.0391,2.1582,4.46,4.46,0,0,0,.664,1.7031,3.3522,3.3522,0,0,0,1.2539,1.1182A3.9057,3.9057,0,0,0,437.32,74.0187Z" transform="translate(-0.9696)"/><path class="g" d="M451.0488,66.089a8.2013,8.2013,0,0,1,2.3789-2.6328,4.8393,4.8393,0,0,1,2.7305-.8906,3.1,3.1,0,0,1,1.4619.331,2.6548,2.6548,0,0,1,1.0274.9688,4.1255,4.1255,0,0,1,.54,1.5664,7.86,7.86,0,0,1,0,2.1123l-.9883,8.3847h-2.3008l.9873-8.3847a4.2676,4.2676,0,0,0-.1943-2.3067,1.415,1.415,0,0,0-1.3916-.748,2.72,2.72,0,0,0-1.2676.3379,4.8859,4.8859,0,0,0-1.2412.9619A8.0074,8.0074,0,0,0,451.68,67.29a10.5716,10.5716,0,0,0-.8779,1.957l-.7539,6.6816h-2.3135L449.32,62.7472h1.1436a.6894.6894,0,0,1,.78.78Z" transform="translate(-0.9696)"/><path class="g" d="M465.5039,62.7609,463.918,75.9288h-2.2744L463.23,62.7609Zm.8848-4.1348a1.4628,1.4628,0,0,1-.1367.6309,1.8261,1.8261,0,0,1-.3633.52,1.7084,1.7084,0,0,1-.52.3574,1.4717,1.4717,0,0,1-.6045.1309,1.3973,1.3973,0,0,1-.585-.1309,1.5693,1.5693,0,0,1-.501-.3574,1.8241,1.8241,0,0,1-.3437-.52,1.5335,1.5335,0,0,1-.1309-.6309,1.5776,1.5776,0,0,1,.1309-.6367,1.7291,1.7291,0,0,1,.3506-.5264,1.7823,1.7823,0,0,1,.5068-.3642,1.3488,1.3488,0,0,1,.585-.1368,1.4721,1.4721,0,0,1,.6045.1309,1.61,1.61,0,0,1,.5136.3574,1.8129,1.8129,0,0,1,.3575.5332A1.5443,1.5443,0,0,1,466.3887,58.6261Z" transform="translate(-0.9696)"/><path class="g" d="M480.1426,56.78l-2.3535,19.1484H476.58a.687.687,0,0,1-.61-.2334,1.0047,1.0047,0,0,1-.1562-.5722l.247-2.7686a10.4368,10.4368,0,0,1-1.0791,1.5469,8.0469,8.0469,0,0,1-1.2285,1.1826,5.35,5.35,0,0,1-1.3388.7608,3.9125,3.9125,0,0,1-1.41.2666,3.1129,3.1129,0,0,1-2.6269-1.2286,5.8177,5.8177,0,0,1-.9356-3.5693,10.5327,10.5327,0,0,1,.2207-2.1309,11.074,11.074,0,0,1,.6309-2.041,10.0365,10.0365,0,0,1,.9883-1.8144,7.4846,7.4846,0,0,1,1.2929-1.4492,5.9512,5.9512,0,0,1,1.541-.962,4.4018,4.4018,0,0,1,1.7354-.35,4.0623,4.0623,0,0,1,1.7744.3828,3.8373,3.8373,0,0,1,1.3584,1.0859l.8975-7.2539Zm-3.3535,8.8535a2.6854,2.6854,0,0,0-1.19-.9824,3.7776,3.7776,0,0,0-1.4111-.2793,3.01,3.01,0,0,0-1.8457.6113,5.3708,5.3708,0,0,0-1.3975,1.5791,8.2691,8.2691,0,0,0-.8906,2.1651,9.2957,9.2957,0,0,0-.3125,2.3525,4.1979,4.1979,0,0,0,.5527,2.36,1.7975,1.7975,0,0,0,1.58.8125,2.4055,2.4055,0,0,0,1.2607-.3907,5.1992,5.1992,0,0,0,1.2286-1.0859,9.5121,9.5121,0,0,0,1.1045-1.6445,13.04,13.04,0,0,0,.8906-2.08Z" transform="translate(-0.9696)"/><path class="g" d="M489.3848,72.4581a11.2185,11.2185,0,0,1-1.0069,1.5079,7.0463,7.0463,0,0,1-1.1435,1.15,4.969,4.969,0,0,1-1.2744.7344,3.7839,3.7839,0,0,1-1.3838.2608,3.2459,3.2459,0,0,1-1.418-.3057,2.96,2.96,0,0,1-1.0859-.8965,4.3818,4.3818,0,0,1-.6953-1.457,7.25,7.25,0,0,1-.2461-1.9824,8.9571,8.9571,0,0,1,.292-2.2813,9.2635,9.2635,0,0,1,2.1259-3.9121,8.6538,8.6538,0,0,1,1.6836-1.4307,8,8,0,0,1,1.9951-.9365,7.4922,7.4922,0,0,1,2.2354-.331,9.76,9.76,0,0,1,1.6445.1367,6.89,6.89,0,0,1,1.58.4736l-1.5732,12.74H489.918a.7058.7058,0,0,1-.6172-.2334.978.978,0,0,1-.1621-.5722Zm.8847-8.0859a3.7283,3.7283,0,0,0-.5654-.084c-.1865-.0137-.37-.02-.5527-.02a4.5518,4.5518,0,0,0-1.5078.2529,5.406,5.406,0,0,0-1.3653.708,6.13,6.13,0,0,0-1.1572,1.086,7.1948,7.1948,0,0,0-.8906,1.3847,7.9221,7.9221,0,0,0-.5782,1.6055,7.3478,7.3478,0,0,0-.208,1.748q0,3.1349,2.002,3.1329a2.2571,2.2571,0,0,0,1.248-.3965,4.8247,4.8247,0,0,0,1.1631-1.1045,9.2624,9.2624,0,0,0,1.0215-1.6768,15.8407,15.8407,0,0,0,.832-2.125Z" transform="translate(-0.9696)"/><path class="g" d="M507.1816,56.78l-2.3525,19.1484H503.62a.6845.6845,0,0,1-.61-.2334,1.0048,1.0048,0,0,1-.1563-.5722l.2461-2.7686a10.3733,10.3733,0,0,1-1.0781,1.5469,8.093,8.093,0,0,1-1.2285,1.1826,5.356,5.356,0,0,1-1.34.7608,3.9083,3.9083,0,0,1-1.41.2666,3.11,3.11,0,0,1-2.626-1.2286,5.8115,5.8115,0,0,1-.9365-3.5693,10.47,10.47,0,0,1,.2216-2.1309,11.0871,11.0871,0,0,1,.63-2.041,10.1048,10.1048,0,0,1,.9883-1.8144,7.4893,7.4893,0,0,1,1.294-1.4492,5.9426,5.9426,0,0,1,1.54-.962,4.403,4.403,0,0,1,1.7363-.35,4.0555,4.0555,0,0,1,1.7735.3828,3.8482,3.8482,0,0,1,1.3593,1.0859L504.92,56.78Zm-3.3535,8.8535a2.6851,2.6851,0,0,0-1.1894-.9824,3.7692,3.7692,0,0,0-1.41-.2793,3.0061,3.0061,0,0,0-1.8457.6113,5.372,5.372,0,0,0-1.3984,1.5791,8.3309,8.3309,0,0,0-.8906,2.1651,9.3346,9.3346,0,0,0-.3116,2.3525,4.2058,4.2058,0,0,0,.5518,2.36,1.8,1.8,0,0,0,1.58.8125,2.4114,2.4114,0,0,0,1.2617-.3907,5.2164,5.2164,0,0,0,1.2285-1.0859,9.5636,9.5636,0,0,0,1.1045-1.6445,12.93,12.93,0,0,0,.89-2.08Z" transform="translate(-0.9696)"/><path class="g" d="M527.02,56.78,524.666,75.9288h-1.209a.6869.6869,0,0,1-.61-.2334,1.0048,1.0048,0,0,1-.1563-.5722l.2471-2.7686a10.4518,10.4518,0,0,1-1.0791,1.5469,8.0469,8.0469,0,0,1-1.2285,1.1826,5.3505,5.3505,0,0,1-1.3389.7608,3.9123,3.9123,0,0,1-1.41.2666,3.113,3.113,0,0,1-2.627-1.2286,5.8183,5.8183,0,0,1-.9355-3.5693,10.5327,10.5327,0,0,1,.2207-2.1309,11.0815,11.0815,0,0,1,.6308-2.041,10.0489,10.0489,0,0,1,.9883-1.8144,7.4851,7.4851,0,0,1,1.293-1.4492,5.9479,5.9479,0,0,1,1.541-.962,4.4017,4.4017,0,0,1,1.7353-.35,4.0624,4.0624,0,0,1,1.7745.3828,3.8373,3.8373,0,0,1,1.3584,1.0859l.8974-7.2539Zm-3.3535,8.8535a2.6851,2.6851,0,0,0-1.1894-.9824,3.7781,3.7781,0,0,0-1.4112-.2793,3.01,3.01,0,0,0-1.8457.6113,5.3691,5.3691,0,0,0-1.3974,1.5791,8.2659,8.2659,0,0,0-.8907,2.1651,9.2957,9.2957,0,0,0-.3125,2.3525,4.197,4.197,0,0,0,.5528,2.36,1.7973,1.7973,0,0,0,1.58.8125,2.4055,2.4055,0,0,0,1.2607-.3907,5.1969,5.1969,0,0,0,1.2285-1.0859,9.5064,9.5064,0,0,0,1.1045-1.6445,13.0219,13.0219,0,0,0,.8906-2.08Z" transform="translate(-0.9696)"/><path class="g" d="M538.4854,73.4982a11.7122,11.7122,0,0,1-1.3,1.1767,7.9634,7.9634,0,0,1-1.2929.8125,5.7043,5.7043,0,0,1-1.3789.4746,7.64,7.64,0,0,1-1.5528.15,5.1969,5.1969,0,0,1-2.0283-.377,4.1759,4.1759,0,0,1-1.52-1.0732,4.8177,4.8177,0,0,1-.9629-1.6836,6.8119,6.8119,0,0,1-.3379-2.209,9.713,9.713,0,0,1,.2149-2.0215,9.4833,9.4833,0,0,1,.623-1.918,8.6884,8.6884,0,0,1,1.002-1.6894,6.7324,6.7324,0,0,1,1.3515-1.3457,6.36,6.36,0,0,1,1.6778-.8906,5.8432,5.8432,0,0,1,1.9687-.3252,4.7187,4.7187,0,0,1,1.7285.2861,3.6859,3.6859,0,0,1,1.1973.7285,2.919,2.919,0,0,1,.6953.9746,2.5878,2.5878,0,0,1,.2266,1.0137,3.5594,3.5594,0,0,1-.3506,1.58,3.2833,3.2833,0,0,1-1.2871,1.3,9.5771,9.5771,0,0,1-2.5733,1.0068,28.29,28.29,0,0,1-4.2129.6895c0,.0957-.0019.1884-.0058.2793s-.0068.1845-.0068.2793a4.06,4.06,0,0,0,.7607,2.6582,2.8091,2.8091,0,0,0,2.2949.9169,4.3145,4.3145,0,0,0,1.1113-.13,4.77,4.77,0,0,0,.8711-.3184,3.858,3.858,0,0,0,.6758-.416c.1953-.1514.3721-.291.5332-.416a5.0472,5.0472,0,0,1,.4483-.3184.7729.7729,0,0,1,.415-.1308.5829.5829,0,0,1,.4434.2216Zm-3.6661-9.2559a3.3719,3.3719,0,0,0-1.5078.3379,4.012,4.012,0,0,0-1.2217.93,5.6707,5.6707,0,0,0-.91,1.3916,8.2427,8.2427,0,0,0-.5859,1.7217,25.2075,25.2075,0,0,0,3.2119-.5655,7.9657,7.9657,0,0,0,1.8584-.6894,1.7909,1.7909,0,0,0,1.0664-1.6953,1.2936,1.2936,0,0,0-.4356-.9492,1.8167,1.8167,0,0,0-.5918-.3448A2.5279,2.5279,0,0,0,534.8193,64.2423Z" transform="translate(-0.9696)"/><path class="g" d="M438.0615,106.4581a11.2086,11.2086,0,0,1-1.0068,1.5079,7.0153,7.0153,0,0,1-1.1445,1.15,4.9657,4.9657,0,0,1-1.2735.7344,3.7886,3.7886,0,0,1-1.3847.2608,3.2442,3.2442,0,0,1-1.417-.3057,2.9518,2.9518,0,0,1-1.086-.8965,4.3856,4.3856,0,0,1-.6953-1.457,7.2133,7.2133,0,0,1-.2471-1.9824,8.9179,8.9179,0,0,1,.293-2.2813,9.275,9.275,0,0,1,2.125-3.9121,8.6833,8.6833,0,0,1,1.6836-1.4307,8.0052,8.0052,0,0,1,1.9961-.9365,7.4872,7.4872,0,0,1,2.2353-.331,9.7691,9.7691,0,0,1,1.6446.1367,6.8822,6.8822,0,0,1,1.5791.4736l-1.5723,12.74h-1.1963a.7077.7077,0,0,1-.6181-.2334.9845.9845,0,0,1-.1621-.5722Zm.8838-8.0859a3.7157,3.7157,0,0,0-.5644-.084c-.1875-.0137-.3711-.02-.5528-.02a4.5479,4.5479,0,0,0-1.5078.2529,5.3737,5.3737,0,0,0-1.3652.708,6.0967,6.0967,0,0,0-1.1572,1.086,7.1057,7.1057,0,0,0-.8907,1.3847,7.87,7.87,0,0,0-.5791,1.6055,7.3472,7.3472,0,0,0-.207,1.748q0,3.1349,2.0019,3.1329a2.2621,2.2621,0,0,0,1.2481-.3965,4.8466,4.8466,0,0,0,1.1631-1.1045,9.3235,9.3235,0,0,0,1.0205-1.6768,15.59,15.59,0,0,0,.832-2.125Z" transform="translate(-0.9696)"/><path class="g" d="M443.2744,109.9288,445.6016,90.78h2.2754l-2.3282,19.1484Z" transform="translate(-0.9696)"/><path class="g" d="M449.0586,109.9288l1.5859-13.1816h1.1446a.6953.6953,0,0,1,.7929.78l-.1816,2.34a8.1225,8.1225,0,0,1,2.1387-2.4638,4.1086,4.1086,0,0,1,2.4375-.8379,2.2382,2.2382,0,0,1,1.9755.916,4.5587,4.5587,0,0,1,.6368,2.6191A7.591,7.591,0,0,1,461.793,97.43a4.4329,4.4329,0,0,1,2.5937-.8642,2.4918,2.4918,0,0,1,2.3906,1.3,6.2379,6.2379,0,0,1,.4161,3.6787l-.9873,8.3847H463.918l1.0009-8.3847a5.2759,5.2759,0,0,0-.0976-2.3008,1.1887,1.1887,0,0,0-1.2549-.7539,2.4537,2.4537,0,0,0-1.1113.2793,4.0347,4.0347,0,0,0-1.0723.8193,6.48,6.48,0,0,0-.9687,1.3389,10.91,10.91,0,0,0-.7989,1.84v.0127l-.8457,7.1494h-2.2871l.9883-8.3847a5.6832,5.6832,0,0,0-.0527-2.3008,1.1309,1.1309,0,0,0-1.2227-.7539,2.4828,2.4828,0,0,0-1.2012.3125,3.92,3.92,0,0,0-1.0927.9023,7.388,7.388,0,0,0-.9561,1.4434,14.0189,14.0189,0,0,0-.8047,1.918l-.82,6.8632Z" transform="translate(-0.9696)"/><path class="g" d="M477.6582,106.4581a11.2181,11.2181,0,0,1-1.0068,1.5079,7.0468,7.0468,0,0,1-1.1436,1.15,4.969,4.969,0,0,1-1.2744.7344,3.7839,3.7839,0,0,1-1.3838.2608,3.2459,3.2459,0,0,1-1.418-.3057,2.96,2.96,0,0,1-1.0859-.8965,4.3837,4.3837,0,0,1-.6953-1.457,7.25,7.25,0,0,1-.2461-1.9824,8.9615,8.9615,0,0,1,.292-2.2813,9.2623,9.2623,0,0,1,2.126-3.9121,8.6479,8.6479,0,0,1,1.6836-1.4307,7.997,7.997,0,0,1,1.9951-.9365,7.491,7.491,0,0,1,2.2353-.331,9.7613,9.7613,0,0,1,1.6446.1367,6.8891,6.8891,0,0,1,1.58.4736l-1.5732,12.74h-1.1963a.7059.7059,0,0,1-.6172-.2334.978.978,0,0,1-.1621-.5722Zm.8848-8.0859a3.7277,3.7277,0,0,0-.5655-.084c-.1865-.0137-.37-.02-.5527-.02a4.5518,4.5518,0,0,0-1.5078.2529,5.4054,5.4054,0,0,0-1.3652.708,6.13,6.13,0,0,0-1.1573,1.086,7.2,7.2,0,0,0-.8906,1.3847,7.9219,7.9219,0,0,0-.5781,1.6055,7.3427,7.3427,0,0,0-.208,1.748q0,3.1349,2.0019,3.1329a2.2576,2.2576,0,0,0,1.2481-.3965,4.8283,4.8283,0,0,0,1.1631-1.1045,9.2679,9.2679,0,0,0,1.0214-1.6768,15.8407,15.8407,0,0,0,.8321-2.125Z" transform="translate(-0.9696)"/><path class="g" d="M492.6738,107.5636a11.9237,11.9237,0,0,1-1.2871,1.2344,6.23,6.23,0,0,1-1.2226.7871,4.91,4.91,0,0,1-1.2676.4092,8.0248,8.0248,0,0,1-1.41.1172,4.94,4.94,0,0,1-2.0215-.39,3.9964,3.9964,0,0,1-1.4687-1.1A4.8162,4.8162,0,0,1,483.1,106.92a7.4221,7.4221,0,0,1-.3066-2.19,9.4662,9.4662,0,0,1,.5009-3.0683,8.6169,8.6169,0,0,1,1.3975-2.6A6.9331,6.9331,0,0,1,486.83,97.255a5.5707,5.5707,0,0,1,2.7109-.6767,4.7038,4.7038,0,0,1,2.1973.4619,4.5969,4.5969,0,0,1,1.5469,1.3457l-.7286.8711a.8327.8327,0,0,1-.2011.1679.4863.4863,0,0,1-.2539.0655.5248.5248,0,0,1-.3575-.1631,4.8878,4.8878,0,0,0-.4609-.3633,3.2791,3.2791,0,0,0-.709-.3643,3.0608,3.0608,0,0,0-1.0859-.163,3.17,3.17,0,0,0-1.6895.4882,4.7536,4.7536,0,0,0-1.3906,1.3321,6.8071,6.8071,0,0,0-.9434,2.0019,8.6757,8.6757,0,0,0-.3437,2.4834,5.471,5.471,0,0,0,.1816,1.4619,3.1293,3.1293,0,0,0,.5459,1.1192,2.5336,2.5336,0,0,0,.8907.7148,2.8152,2.8152,0,0,0,1.2285.2529,3.6441,3.6441,0,0,0,1.4619-.26,4.8941,4.8941,0,0,0,.9941-.5654c.27-.2032.4961-.3926.6836-.5655a.8256.8256,0,0,1,.5528-.2607.5789.5789,0,0,1,.4414.2217Z" transform="translate(-0.9696)"/><path class="g" d="M504.9844,107.4982a11.5445,11.5445,0,0,1-1.3,1.1767,7.9717,7.9717,0,0,1-1.294.8125,5.69,5.69,0,0,1-1.3769.4746,7.6725,7.6725,0,0,1-1.5547.15,5.1923,5.1923,0,0,1-2.0274-.377,4.1877,4.1877,0,0,1-1.5214-1.0732,4.8145,4.8145,0,0,1-.962-1.6836,6.7877,6.7877,0,0,1-.3378-2.209,9.7115,9.7115,0,0,1,.2138-2.0215,9.4878,9.4878,0,0,1,.625-1.918,8.7354,8.7354,0,0,1,1-1.6894,6.7376,6.7376,0,0,1,1.3526-1.3457,6.3551,6.3551,0,0,1,1.6767-.8906,5.85,5.85,0,0,1,1.97-.3252,4.7355,4.7355,0,0,1,1.73.2861,3.6863,3.6863,0,0,1,1.1953.7285,2.8927,2.8927,0,0,1,.6954.9746,2.5762,2.5762,0,0,1,.2285,1.0137,3.56,3.56,0,0,1-.3516,1.58,3.29,3.29,0,0,1-1.2871,1.3,9.571,9.571,0,0,1-2.5742,1.0068,28.3018,28.3018,0,0,1-4.211.6895c0,.0957-.0029.1884-.0078.2793s-.0058.1845-.0058.2793a4.0653,4.0653,0,0,0,.7607,2.6582,2.8086,2.8086,0,0,0,2.294.9169,4.309,4.309,0,0,0,1.1113-.13,4.7217,4.7217,0,0,0,.8711-.3184,3.7923,3.7923,0,0,0,.6758-.416c.1953-.1514.373-.291.5332-.416a5.1858,5.1858,0,0,1,.4492-.3184.7787.7787,0,0,1,.416-.1308.579.579,0,0,1,.4414.2216Zm-3.666-9.2559a3.3724,3.3724,0,0,0-1.5079.3379,4.0276,4.0276,0,0,0-1.2226.93,5.6969,5.6969,0,0,0-.91,1.3916,8.3036,8.3036,0,0,0-.5839,1.7217,25.2529,25.2529,0,0,0,3.2109-.5655,7.9744,7.9744,0,0,0,1.8594-.6894A1.792,1.792,0,0,0,503.23,99.673a1.3037,1.3037,0,0,0-.4356-.9492,1.8008,1.8008,0,0,0-.5908-.3448A2.5411,2.5411,0,0,0,501.3184,98.2423Z" transform="translate(-0.9696)"/><path class="g" d="M510.3789,100.089a8.2013,8.2013,0,0,1,2.3789-2.6328,4.8393,4.8393,0,0,1,2.7305-.8906,3.1,3.1,0,0,1,1.4619.331,2.6538,2.6538,0,0,1,1.0273.9688,4.1238,4.1238,0,0,1,.54,1.5664,7.86,7.86,0,0,1,0,2.1123l-.9883,8.3847h-2.3008l.9873-8.3847a4.2676,4.2676,0,0,0-.1943-2.3067,1.4151,1.4151,0,0,0-1.3916-.748,2.72,2.72,0,0,0-1.2676.3379,4.8842,4.8842,0,0,0-1.2412.9619,8.0074,8.0074,0,0,0-1.1113,1.501,10.5783,10.5783,0,0,0-.878,1.957l-.7539,6.6816h-2.3134L508.65,96.7472h1.1435a.6894.6894,0,0,1,.78.78Z" transform="translate(-0.9696)"/><path class="g" d="M528.9824,106.4581a11.3079,11.3079,0,0,1-1.0078,1.5079,6.9377,6.9377,0,0,1-1.1445,1.15,4.9491,4.9491,0,0,1-1.2735.7344,3.7847,3.7847,0,0,1-1.3847.2608,3.2367,3.2367,0,0,1-1.416-.3057,2.9367,2.9367,0,0,1-1.086-.8965,4.3663,4.3663,0,0,1-.6953-1.457,7.2116,7.2116,0,0,1-.248-1.9824,8.9178,8.9178,0,0,1,.2929-2.2813,9.3555,9.3555,0,0,1,.8321-2.1,9.2619,9.2619,0,0,1,1.2929-1.8125,8.713,8.713,0,0,1,1.6836-1.4307,8.0218,8.0218,0,0,1,1.9961-.9365,7.4986,7.4986,0,0,1,2.2363-.331,9.7867,9.7867,0,0,1,1.6446.1367,6.897,6.897,0,0,1,1.5791.4736l-1.5733,12.74h-1.1953a.7066.7066,0,0,1-.6181-.2334.978.978,0,0,1-.1621-.5722Zm.8838-8.0859a3.7283,3.7283,0,0,0-.5654-.084c-.1865-.0137-.3711-.02-.5528-.02a4.5565,4.5565,0,0,0-1.5078.2529,5.4071,5.4071,0,0,0-1.3652.708,6.0945,6.0945,0,0,0-1.1562,1.086,7.0139,7.0139,0,0,0-.8907,1.3847,7.8113,7.8113,0,0,0-.5791,1.6055,7.3478,7.3478,0,0,0-.208,1.748q0,3.1349,2.002,3.1329a2.2571,2.2571,0,0,0,1.248-.3965,4.85,4.85,0,0,0,1.1641-1.1045,9.3163,9.3163,0,0,0,1.0195-1.6768,15.577,15.577,0,0,0,.832-2.125Z" transform="translate(-0.9696)"/><path class="g" d="M534.13,109.9288l1.5859-13.1816h1.1436a.6949.6949,0,0,1,.7929.78l-.1816,2.34a8.15,8.15,0,0,1,2.1387-2.4638,4.1086,4.1086,0,0,1,2.4375-.8379,2.241,2.241,0,0,1,1.9765.916,4.5665,4.5665,0,0,1,.6368,2.6191,7.6,7.6,0,0,1,2.2031-2.6709,4.4329,4.4329,0,0,1,2.5937-.8642,2.4933,2.4933,0,0,1,2.3916,1.3,6.2533,6.2533,0,0,1,.416,3.6787l-.9873,8.3847h-2.289l1.0019-8.3847a5.2916,5.2916,0,0,0-.0976-2.3008,1.19,1.19,0,0,0-1.2549-.7539,2.4506,2.4506,0,0,0-1.1113.2793,4.0542,4.0542,0,0,0-1.0733.8193,6.5154,6.5154,0,0,0-.9677,1.3389,10.9091,10.9091,0,0,0-.8,1.84v.0127l-.8447,7.1494h-2.2881l.9883-8.3847a5.647,5.647,0,0,0-.0527-2.3008,1.13,1.13,0,0,0-1.2217-.7539,2.4859,2.4859,0,0,0-1.2021.3125,3.9172,3.9172,0,0,0-1.0918.9023,7.388,7.388,0,0,0-.9561,1.4434,14.0174,14.0174,0,0,0-.8057,1.918l-.8193,6.8632Z" transform="translate(-0.9696)"/><path class="g" d="M558.582,96.7609l-1.5859,13.1679h-2.2754l1.5859-13.1679Zm.8848-4.1348a1.4774,1.4774,0,0,1-.1367.6309,1.8273,1.8273,0,0,1-.3643.5195,1.6834,1.6834,0,0,1-.52.3574,1.4706,1.4706,0,0,1-.6035.1309,1.4013,1.4013,0,0,1-.5859-.1309,1.5522,1.5522,0,0,1-.5-.3574,1.8465,1.8465,0,0,1-.3448-.5195,1.5328,1.5328,0,0,1-.13-.6309,1.5768,1.5768,0,0,1,.13-.6367,1.7663,1.7663,0,0,1,.3506-.5264,1.7883,1.7883,0,0,1,.5078-.3642,1.342,1.342,0,0,1,.584-.1368,1.4728,1.4728,0,0,1,.6055.1309,1.6222,1.6222,0,0,1,.5137.3574,1.8523,1.8523,0,0,1,.3574.5332A1.56,1.56,0,0,1,559.4668,92.6261Z" transform="translate(-0.9696)"/><path class="g" d="M570.9316,107.4982a11.6273,11.6273,0,0,1-1.2988,1.1767,8.0142,8.0142,0,0,1-1.2939.8125,5.7109,5.7109,0,0,1-1.378.4746,7.6554,7.6554,0,0,1-1.5537.15,5.1969,5.1969,0,0,1-2.0283-.377,4.1844,4.1844,0,0,1-1.5205-1.0732,4.8,4.8,0,0,1-.9619-1.6836,6.785,6.785,0,0,1-.3379-2.209,9.7116,9.7116,0,0,1,.2139-2.0215,9.473,9.473,0,0,1,.624-1.918,8.73,8.73,0,0,1,1.001-1.6894,6.7113,6.7113,0,0,1,1.3525-1.3457,6.3541,6.3541,0,0,1,1.6768-.8906,5.8449,5.8449,0,0,1,1.97-.3252,4.7265,4.7265,0,0,1,1.7285.2861,3.6808,3.6808,0,0,1,1.1963.7285,2.9063,2.9063,0,0,1,.6953.9746,2.59,2.59,0,0,1,.2275,1.0137,3.56,3.56,0,0,1-.3515,1.58,3.2766,3.2766,0,0,1-1.2871,1.3,9.5649,9.5649,0,0,1-2.5733,1.0068,28.2962,28.2962,0,0,1-4.2119.6895c0,.0957-.0019.1884-.0068.2793s-.0069.1845-.0069.2793a4.0591,4.0591,0,0,0,.7618,2.6582,2.8069,2.8069,0,0,0,2.2939.9169,4.3145,4.3145,0,0,0,1.1113-.13,4.746,4.746,0,0,0,.8711-.3184,3.8213,3.8213,0,0,0,.6758-.416c.1953-.1514.3721-.291.5332-.416a5.1974,5.1974,0,0,1,.4483-.3184.7785.7785,0,0,1,.416-.1308.581.581,0,0,1,.4424.2216Zm-3.666-9.2559a3.375,3.375,0,0,0-1.5078.3379,4.0228,4.0228,0,0,0-1.2217.93,5.6707,5.6707,0,0,0-.91,1.3916,8.3053,8.3053,0,0,0-.585,1.7217,25.2187,25.2187,0,0,0,3.211-.5655,7.9575,7.9575,0,0,0,1.8593-.6894,2.0094,2.0094,0,0,0,.8575-.7988,2.0334,2.0334,0,0,0,.2089-.8965,1.2845,1.2845,0,0,0-.1045-.4883,1.2992,1.2992,0,0,0-.331-.4609,1.8177,1.8177,0,0,0-.5918-.3448A2.5338,2.5338,0,0,0,567.2656,98.2423Z" transform="translate(-0.9696)"/><path class="g" d="M576.3262,100.089a8.223,8.223,0,0,1,2.3789-2.6328,4.8412,4.8412,0,0,1,2.73-.8906,3.1043,3.1043,0,0,1,1.4629.331,2.6672,2.6672,0,0,1,1.0274.9688,4.1406,4.1406,0,0,1,.539,1.5664,7.779,7.779,0,0,1,0,2.1123l-.9882,8.3847h-2.3008l.9883-8.3847a4.2571,4.2571,0,0,0-.1953-2.3067,1.4138,1.4138,0,0,0-1.3907-.748,2.72,2.72,0,0,0-1.2676.3379,4.8722,4.8722,0,0,0-1.2421.9619,8.0033,8.0033,0,0,0-1.1114,1.501,10.5766,10.5766,0,0,0-.8769,1.957l-.7539,6.6816h-2.3145l1.586-13.1816h1.1445a.6891.6891,0,0,1,.7793.78Z" transform="translate(-0.9696)"/><path class="g" d="M587.832,107.4464v-.2012c0-.082.0059-.2021.02-.3574s.0341-.3593.0644-.6113.0723-.58.124-.9883l.8057-6.5908H587.377a.3738.3738,0,0,1-.293-.124.4847.4847,0,0,1-.084-.3828l.1035-.9239,2.0283-.2724.9883-4.0694a.7337.7337,0,0,1,.2012-.3183.4949.4949,0,0,1,.3447-.1231h1.209l-.5586,4.5371h3.457l-.1943,1.6768h-3.4717l-.7929,6.4736c-.043.3555-.0782.6416-.1036.8584s-.0449.39-.0586.52c-.0136.1289-.0214.2207-.0253.2725s-.0069.0908-.0069.1162a1.36,1.36,0,0,0,.3115.9824,1.1113,1.1113,0,0,0,.8321.3184,1.6935,1.6935,0,0,0,.6045-.0977,2.7777,2.7777,0,0,0,.4482-.2148,3.8649,3.8649,0,0,0,.3262-.2139.392.392,0,0,1,.2207-.0976.2606.2606,0,0,1,.1758.0517.4954.4954,0,0,1,.1093.17l.4942,1.1045a4.8973,4.8973,0,0,1-1.4492.878,4.4686,4.4686,0,0,1-1.6309.3183,2.7511,2.7511,0,0,1-1.9824-.6894A2.7178,2.7178,0,0,1,587.832,107.4464Z" transform="translate(-0.9696)"/><path class="g" d="M600.91,110.1115a5.1446,5.1446,0,0,1-1.9766-.37,4.3615,4.3615,0,0,1-1.5469-1.0732,4.9387,4.9387,0,0,1-1.0137-1.7158,6.8148,6.8148,0,0,1-.3642-2.3145,9.2987,9.2987,0,0,1,.5205-3.1328,8.3356,8.3356,0,0,1,1.43-2.5674,6.861,6.861,0,0,1,2.1387-1.7353,5.6684,5.6684,0,0,1,2.6445-.6367,5.1262,5.1262,0,0,1,1.9766.37,4.3379,4.3379,0,0,1,1.5468,1.0732,4.9254,4.9254,0,0,1,1.0137,1.7149,6.7755,6.7755,0,0,1,.3643,2.3017,9.2572,9.2572,0,0,1-.5206,3.12A8.4942,8.4942,0,0,1,605.7,107.72a6.814,6.814,0,0,1-2.1387,1.748A5.66,5.66,0,0,1,600.91,110.1115Zm.2207-1.8077a3.0186,3.0186,0,0,0,1.7226-.5195A4.68,4.68,0,0,0,604.18,106.4a7.0554,7.0554,0,0,0,.8516-1.9951,9.2216,9.2216,0,0,0,.2988-2.3662,4.3687,4.3687,0,0,0-.7217-2.7363,2.4831,2.4831,0,0,0-2.0732-.916,3.0656,3.0656,0,0,0-1.7364.5136,4.5379,4.5379,0,0,0-1.3193,1.3711,7.01,7.01,0,0,0-.8447,1.9883,9.2228,9.2228,0,0,0-.2989,2.3662,4.4565,4.4565,0,0,0,.7149,2.7491A2.4609,2.4609,0,0,0,601.1309,108.3038Z" transform="translate(-0.9696)"/><line class="f" x1="235.3287" y1="272.299" x2="133.6873" y2="333.9098"/><path class="g" d="M233.96,268.4408a4.5118,4.5118,0,1,1-1.5193,6.197A4.5121,4.5121,0,0,1,233.96,268.4408Z" transform="translate(-0.9696)"/><path class="g" d="M443.8408,387.3a8.4236,8.4236,0,0,1,2.5733.3516,4.7869,4.7869,0,0,1,1.8007,1.001,4.0772,4.0772,0,0,1,1.0606,1.56,5.6138,5.6138,0,0,1,.3506,2.0284,7.3441,7.3441,0,0,1-.4815,2.6972,5.8488,5.8488,0,0,1-1.3974,2.1123,6.4315,6.4315,0,0,1-2.2617,1.3848,8.7777,8.7777,0,0,1-3.0752.5H439.707l-.8584,6.9941h-2.4179L438.7051,387.3Zm-1.1963,9.711a5.22,5.22,0,0,0,1.95-.3379,3.9066,3.9066,0,0,0,1.417-.9424,4.0564,4.0564,0,0,0,.8711-1.4424,5.4074,5.4074,0,0,0,.2988-1.8262,3.8971,3.8971,0,0,0-.2207-1.3525,2.6712,2.6712,0,0,0-.663-1.0205,2.9673,2.9673,0,0,0-1.1182-.65,4.9418,4.9418,0,0,0-1.5723-.2266h-2.7051l-.9609,7.7989Z" transform="translate(-0.9696)"/><path class="g" d="M462.4434,392.7609l-1.586,13.1679h-1.1445a.7407.7407,0,0,1-.8438-.832l.1944-2.4043a8.0317,8.0317,0,0,1-2.3467,2.5547,4.8075,4.8075,0,0,1-2.6836.8643,3.1436,3.1436,0,0,1-1.47-.3311,2.65,2.65,0,0,1-1.0332-.9687,4.1241,4.1241,0,0,1-.54-1.5606,7.5274,7.5274,0,0,1,.0137-2.1191l.9883-8.3711h2.3008l-.9883,8.3711a4.2981,4.2981,0,0,0,.1885,2.3007,1.4074,1.4074,0,0,0,1.3974.754,2.7038,2.7038,0,0,0,1.2344-.3243,4.7154,4.7154,0,0,0,1.2227-.9238,7.8446,7.8446,0,0,0,1.0986-1.4492,10.1506,10.1506,0,0,0,.8779-1.8906l.8184-6.8379Z" transform="translate(-0.9696)"/><path class="g" d="M474.6641,403.4982a11.6366,11.6366,0,0,1-1.3008,1.1767,7.9214,7.9214,0,0,1-1.293.8125,5.6822,5.6822,0,0,1-1.3779.4746,7.6561,7.6561,0,0,1-1.5537.1495,5.1923,5.1923,0,0,1-2.0274-.377,4.1805,4.1805,0,0,1-1.5215-1.0732,4.8316,4.8316,0,0,1-.9628-1.6836,6.8092,6.8092,0,0,1-.3379-2.209,9.7129,9.7129,0,0,1,.2148-2.0215,9.4855,9.4855,0,0,1,.624-1.918,8.6893,8.6893,0,0,1,1.001-1.6894,6.7563,6.7563,0,0,1,1.3516-1.3457,6.3611,6.3611,0,0,1,1.6777-.8906,5.848,5.848,0,0,1,1.9688-.3252,4.7278,4.7278,0,0,1,1.7294.2861,3.6915,3.6915,0,0,1,1.1963.7285,2.9049,2.9049,0,0,1,.6953.9746,2.5724,2.5724,0,0,1,.2276,1.0137,3.5594,3.5594,0,0,1-.3506,1.58,3.2966,3.2966,0,0,1-1.2871,1.3,9.5846,9.5846,0,0,1-2.5742,1.0068,28.2962,28.2962,0,0,1-4.2119.69c0,.0957-.003.1884-.0069.2793s-.0058.1845-.0058.2793a4.0652,4.0652,0,0,0,.76,2.6582,2.8106,2.8106,0,0,0,2.295.9169,4.309,4.309,0,0,0,1.1113-.13,4.7487,4.7487,0,0,0,.8711-.3184,3.8286,3.8286,0,0,0,.6758-.416c.1953-.1514.373-.291.5332-.416a5.0368,5.0368,0,0,1,.4492-.3184.7729.7729,0,0,1,.415-.1308.5809.5809,0,0,1,.4424.2216Zm-3.6661-9.2559a3.3692,3.3692,0,0,0-1.5078.3379,4.0143,4.0143,0,0,0-1.2226.93,5.6969,5.6969,0,0,0-.91,1.3916,8.2469,8.2469,0,0,0-.5849,1.7217,25.24,25.24,0,0,0,3.2119-.5655,7.9816,7.9816,0,0,0,1.8584-.6894,1.7876,1.7876,0,0,0,1.0654-1.6953,1.294,1.294,0,0,0-.4355-.9492,1.8024,1.8024,0,0,0-.5909-.3448A2.535,2.535,0,0,0,470.998,394.2423Z" transform="translate(-0.9696)"/><path class="g" d="M480.0449,396.4269a11.1285,11.1285,0,0,1,1.125-1.918,5.5733,5.5733,0,0,1,1.2676-1.2734,3.1235,3.1235,0,0,1,1.3652-.56,2.66,2.66,0,0,1,1.43.2139l-.416,2.2236a2.6618,2.6618,0,0,0-2.9844.4942,8.6981,8.6981,0,0,0-2.1,4.2246l-.7275,6.0966h-2.2617l1.5859-13.1816h1.1436a.6949.6949,0,0,1,.7929.78Z" transform="translate(-0.9696)"/><path class="g" d="M486.6758,403.4464v-.2012c0-.082.0058-.2021.0195-.3574.0117-.1562.0332-.3593.0645-.6113s.0713-.58.123-.9883l.8067-6.5908h-1.4688a.3711.3711,0,0,1-.293-.124.4812.4812,0,0,1-.0839-.3828l.1035-.9239,2.0273-.2724.9883-4.0694a.742.742,0,0,1,.2012-.3183.4992.4992,0,0,1,.3457-.1231h1.209l-.56,4.5371h3.458l-.1953,1.6768h-3.4707l-.793,6.4736c-.043.3555-.0781.6416-.1035.8584s-.0459.39-.0586.52c-.0137.1289-.0215.2207-.0264.2725s-.0068.0908-.0068.1162a1.3558,1.3558,0,0,0,.3125.9824,1.1081,1.1081,0,0,0,.832.3184,1.6832,1.6832,0,0,0,.6035-.0977,2.7874,2.7874,0,0,0,.4493-.2148,3.8631,3.8631,0,0,0,.3252-.2139.3947.3947,0,0,1,.2207-.0976.26.26,0,0,1,.1757.0517.5107.5107,0,0,1,.11.17l.4941,1.1045a4.91,4.91,0,0,1-1.4492.878,4.4728,4.4728,0,0,1-1.6318.3183,2.7544,2.7544,0,0,1-1.9824-.6894A2.7133,2.7133,0,0,1,486.6758,403.4464Z" transform="translate(-0.9696)"/><path class="g" d="M499.7529,406.1115a5.14,5.14,0,0,1-1.9756-.37,4.3531,4.3531,0,0,1-1.5468-1.0732,4.9559,4.9559,0,0,1-1.0147-1.7158,6.8148,6.8148,0,0,1-.3642-2.3145,9.3236,9.3236,0,0,1,.52-3.1328,8.3748,8.3748,0,0,1,1.43-2.5674,6.8617,6.8617,0,0,1,2.1386-1.7353,5.6727,5.6727,0,0,1,2.6455-.6367,5.1327,5.1327,0,0,1,1.9766.37,4.3374,4.3374,0,0,1,1.5469,1.0732,4.9389,4.9389,0,0,1,1.0136,1.7149,6.8007,6.8007,0,0,1,.3633,2.3017,9.2815,9.2815,0,0,1-.52,3.12,8.5178,8.5178,0,0,1-1.4238,2.5743,6.794,6.794,0,0,1-2.1387,1.748A5.6545,5.6545,0,0,1,499.7529,406.1115Zm.2217-1.8077a3.0181,3.0181,0,0,0,1.7217-.52,4.6681,4.6681,0,0,0,1.3262-1.3848,7.03,7.03,0,0,0,.8515-1.9951,9.2216,9.2216,0,0,0,.2989-2.3662,4.3687,4.3687,0,0,0-.7217-2.7363,2.4807,2.4807,0,0,0-2.0733-.916,3.0641,3.0641,0,0,0-1.7353.5136,4.5515,4.5515,0,0,0-1.32,1.3711,7.0377,7.0377,0,0,0-.8438,1.9883,9.1834,9.1834,0,0,0-.2988,2.3662,4.4506,4.4506,0,0,0,.7148,2.7491A2.4612,2.4612,0,0,0,499.9746,404.3038Z" transform="translate(-0.9696)"/><path class="g" d="M516.834,394.8663a.8421.8421,0,0,1-.207.2276.45.45,0,0,1-.26.0713.7219.7219,0,0,1-.3965-.1426c-.1436-.0957-.3164-.2012-.52-.3184a4.2438,4.2438,0,0,0-.7471-.3252,3.3518,3.3518,0,0,0-1.0664-.1494,3.3117,3.3117,0,0,0-1.0664.1621,2.5474,2.5474,0,0,0-.8252.4493,2.0258,2.0258,0,0,0-.5332.6689,1.8141,1.8141,0,0,0-.1885.8125,1.252,1.252,0,0,0,.4034.9756,3.7252,3.7252,0,0,0,1.0136.63q.611.2665,1.3135.5136a6.7562,6.7562,0,0,1,1.3125.6241,3.3455,3.3455,0,0,1,1.0137.9619,2.6212,2.6212,0,0,1,.4033,1.5205,4.3843,4.3843,0,0,1-1.3838,3.2051,5.1026,5.1026,0,0,1-1.6123,1.0078,5.671,5.671,0,0,1-2.1123.3769,5.2584,5.2584,0,0,1-2.2305-.4492,4.6384,4.6384,0,0,1-1.5791-1.15l.5723-.8838a1.01,1.01,0,0,1,.2529-.2607.6367.6367,0,0,1,.7735.0918q.2079.1816.52.4092a3.21,3.21,0,0,0,1.9892.5918,3.2264,3.2264,0,0,0,1.15-.1954,2.7075,2.7075,0,0,0,.8711-.52,2.1849,2.1849,0,0,0,.5459-.76,2.31,2.31,0,0,0,.1885-.93,1.4007,1.4007,0,0,0-.4024-1.0527,3.3213,3.3213,0,0,0-1.0146-.65q-.6108-.2594-1.3135-.4873a6.6342,6.6342,0,0,1-1.3125-.585,3.1784,3.1784,0,0,1-1.0137-.93,2.585,2.585,0,0,1-.4033-1.5215,4.0466,4.0466,0,0,1,.3311-1.6054,4.15,4.15,0,0,1,.956-1.3711,4.6811,4.6811,0,0,1,1.5147-.9551,5.35,5.35,0,0,1,2.0078-.3574,5.1466,5.1466,0,0,1,2.0869.3964,4.792,4.792,0,0,1,1.5537,1.0723Z" transform="translate(-0.9696)"/><path class="g" d="M439.9141,426.7609l-1.586,13.1679h-2.2744l1.5859-13.1679Zm.8847-4.1348a1.4628,1.4628,0,0,1-.1367.6309,1.8241,1.8241,0,0,1-.3633.5195,1.706,1.706,0,0,1-.5205.3574,1.4717,1.4717,0,0,1-.6045.1309,1.3968,1.3968,0,0,1-.5849-.1309,1.5671,1.5671,0,0,1-.501-.3574,1.8244,1.8244,0,0,1-.3438-.5195,1.5335,1.5335,0,0,1-.1308-.6309,1.5776,1.5776,0,0,1,.1308-.6367,1.7328,1.7328,0,0,1,.3506-.5264,1.7827,1.7827,0,0,1,.5069-.3642,1.3487,1.3487,0,0,1,.5849-.1368,1.4717,1.4717,0,0,1,.6045.1309,1.6111,1.6111,0,0,1,.5137.3574,1.8127,1.8127,0,0,1,.3574.5332A1.5443,1.5443,0,0,1,440.7988,422.6261Z" transform="translate(-0.9696)"/><path class="g" d="M445.2188,430.089a8.2,8.2,0,0,1,2.3789-2.6328,4.8388,4.8388,0,0,1,2.73-.8906,3.1,3.1,0,0,1,1.4619.331,2.6548,2.6548,0,0,1,1.0274.9688,4.1255,4.1255,0,0,1,.54,1.5664,7.86,7.86,0,0,1,0,2.1123l-.9883,8.3847h-2.3007l.9873-8.3847a4.2675,4.2675,0,0,0-.1944-2.3067,1.415,1.415,0,0,0-1.3916-.748,2.72,2.72,0,0,0-1.2676.3379,4.8859,4.8859,0,0,0-1.2412.9619,8.0074,8.0074,0,0,0-1.1113,1.501,10.5716,10.5716,0,0,0-.8779,1.957l-.7539,6.6816h-2.3135l1.5859-13.1816h1.1436a.69.69,0,0,1,.78.78Z" transform="translate(-0.9696)"/><path class="g" d="M458.9854,430.3351a10.556,10.556,0,0,1,1.0791-1.5527,7.7785,7.7785,0,0,1,1.2343-1.19,5.4442,5.4442,0,0,1,1.3457-.7617,3.9677,3.9677,0,0,1,1.4239-.2656,3.0985,3.0985,0,0,1,2.6191,1.2216,5.8351,5.8351,0,0,1,.93,3.5752,10.4637,10.4637,0,0,1-.2207,2.1319,10.8265,10.8265,0,0,1-.6309,2.0342,9.9877,9.9877,0,0,1-.9883,1.8076,7.7835,7.7835,0,0,1-1.2861,1.456,5.7351,5.7351,0,0,1-1.54.9688,4.4525,4.4525,0,0,1-1.7422.3506,4.0066,4.0066,0,0,1-1.7686-.3838,3.859,3.859,0,0,1-1.3525-1.086l-.7012,5.7461h-2.249l2.1455-17.6406h1.1426a.69.69,0,0,1,.7812.78Zm-.7022,6.708a2.8,2.8,0,0,0,1.1836.9814,3.5528,3.5528,0,0,0,1.4043.293,2.92,2.92,0,0,0,1.2734-.2861,4.0031,4.0031,0,0,0,1.0918-.7735,5.6572,5.6572,0,0,0,.8848-1.1435,8.0275,8.0275,0,0,0,.6562-1.4043,9.6765,9.6765,0,0,0,.4092-1.5469,9.0218,9.0218,0,0,0,.1436-1.58,4.1284,4.1284,0,0,0-.56-2.3535,1.8039,1.8039,0,0,0-1.5732-.8047,2.43,2.43,0,0,0-1.2608.3828,5.1274,5.1274,0,0,0-1.2285,1.0723,9.2888,9.2888,0,0,0-1.1045,1.6387,12.9407,12.9407,0,0,0-.8906,2.08Z" transform="translate(-0.9696)"/><path class="g" d="M481.332,426.7609l-1.5859,13.1679h-1.1445a.7407.7407,0,0,1-.8438-.832l.1943-2.4043a8.03,8.03,0,0,1-2.3466,2.5547,4.8078,4.8078,0,0,1-2.6836.8643,3.1443,3.1443,0,0,1-1.47-.3311,2.65,2.65,0,0,1-1.0332-.9687,4.1257,4.1257,0,0,1-.54-1.5606,7.5274,7.5274,0,0,1,.0137-2.1191l.9883-8.3711h2.3007l-.9882,8.3711a4.2993,4.2993,0,0,0,.1884,2.3007,1.4076,1.4076,0,0,0,1.3975.754,2.7044,2.7044,0,0,0,1.2344-.3243,4.7134,4.7134,0,0,0,1.2226-.9238,7.84,7.84,0,0,0,1.0987-1.4492,10.157,10.157,0,0,0,.8779-1.8906l.8184-6.8379Z" transform="translate(-0.9696)"/><path class="g" d="M484.2314,437.4464v-.2012c0-.082.0069-.2021.02-.3574s.0342-.3593.0654-.6113c.0293-.252.07-.58.1231-.9883l.8056-6.5908h-1.4687a.3675.3675,0,0,1-.292-.124.481.481,0,0,1-.085-.3828l.1045-.9239,2.0274-.2724.9882-4.0694a.7337.7337,0,0,1,.2012-.3183.4968.4968,0,0,1,.3447-.1231h1.209l-.56,4.5371h3.459l-.1953,1.6768h-3.4707l-.793,6.4736c-.0439.3555-.0781.6416-.1044.8584s-.0459.39-.0586.52c-.0127.1289-.0215.2207-.0264.2725s-.0059.0908-.0059.1162a1.3514,1.3514,0,0,0,.3125.9824,1.1061,1.1061,0,0,0,.8311.3184,1.6931,1.6931,0,0,0,.6045-.0977,2.8317,2.8317,0,0,0,.4492-.2148,3.7965,3.7965,0,0,0,.3242-.2139.395.395,0,0,1,.2207-.0976.2606.2606,0,0,1,.1758.0517.5093.5093,0,0,1,.1113.17l.4942,1.1045a4.9151,4.9151,0,0,1-1.45.878,4.4694,4.4694,0,0,1-1.6319.3183,2.7562,2.7562,0,0,1-1.9824-.6894A2.7173,2.7173,0,0,1,484.2314,437.4464Z" transform="translate(-0.9696)"/><path class="g" d="M499.7129,440.255a1.5012,1.5012,0,0,1-.584.6367,1.45,1.45,0,0,1-.7285.2207h-.9492l9.4258-19.2265a1.5852,1.5852,0,0,1,.5195-.5987,1.287,1.287,0,0,1,.7412-.2207h.9482Z" transform="translate(-0.9696)"/><path class="g" d="M520.3447,440.1115a5.14,5.14,0,0,1-1.9756-.37,4.3531,4.3531,0,0,1-1.5468-1.0732,4.9559,4.9559,0,0,1-1.0147-1.7158,6.8148,6.8148,0,0,1-.3642-2.3145,9.3236,9.3236,0,0,1,.52-3.1328,8.3728,8.3728,0,0,1,1.43-2.5674,6.8617,6.8617,0,0,1,2.1386-1.7353,5.6727,5.6727,0,0,1,2.6455-.6367,5.1327,5.1327,0,0,1,1.9766.37,4.3374,4.3374,0,0,1,1.5469,1.0732,4.9389,4.9389,0,0,1,1.0136,1.7149,6.8007,6.8007,0,0,1,.3633,2.3017,9.2815,9.2815,0,0,1-.5195,3.12,8.5178,8.5178,0,0,1-1.4238,2.5743,6.794,6.794,0,0,1-2.1387,1.748A5.6545,5.6545,0,0,1,520.3447,440.1115Zm.2217-1.8077a3.0181,3.0181,0,0,0,1.7217-.52,4.6681,4.6681,0,0,0,1.3262-1.3848,7.03,7.03,0,0,0,.8515-1.9951,9.2216,9.2216,0,0,0,.2988-2.3662,4.3687,4.3687,0,0,0-.7216-2.7363,2.4807,2.4807,0,0,0-2.0733-.916,3.0641,3.0641,0,0,0-1.7353.5136,4.5515,4.5515,0,0,0-1.32,1.3711,7.0377,7.0377,0,0,0-.8438,1.9883,9.1834,9.1834,0,0,0-.2988,2.3662,4.4506,4.4506,0,0,0,.7148,2.7491A2.4612,2.4612,0,0,0,520.5664,438.3038Z" transform="translate(-0.9696)"/><path class="g" d="M540.8457,426.7609,539.26,439.9288h-1.1446a.7409.7409,0,0,1-.8447-.832l.1943-2.4043a8.0284,8.0284,0,0,1-2.3457,2.5547,4.8081,4.8081,0,0,1-2.6845.8643,3.1469,3.1469,0,0,1-1.47-.3311,2.6569,2.6569,0,0,1-1.0332-.9687,4.1426,4.1426,0,0,1-.539-1.5606,7.5242,7.5242,0,0,1,.0127-2.1191l.9883-8.3711h2.3007l-.9873,8.3711a4.3009,4.3009,0,0,0,.1875,2.3007,1.4091,1.4091,0,0,0,1.3985.754,2.7069,2.7069,0,0,0,1.2343-.3243,4.73,4.73,0,0,0,1.2227-.9238,7.8422,7.8422,0,0,0,1.0977-1.4492,10.157,10.157,0,0,0,.8779-1.8906l.8193-6.8379Z" transform="translate(-0.9696)"/><path class="g" d="M543.7441,437.4464v-.2012c0-.082.0069-.2021.02-.3574s.0351-.3593.0654-.6113.0713-.58.124-.9883l.8047-6.5908h-1.4687a.37.37,0,0,1-.292-.124.4845.4845,0,0,1-.085-.3828l.1045-.9239,2.0283-.2724.9883-4.0694a.7247.7247,0,0,1,.2012-.3183.4926.4926,0,0,1,.3437-.1231h1.209l-.5586,4.5371h3.458l-.1943,1.6768h-3.4717l-.793,6.4736c-.0439.3555-.0781.6416-.1045.8584s-.0449.39-.0585.52c-.0127.1289-.0215.2207-.0254.2725s-.0059.0908-.0059.1162a1.3557,1.3557,0,0,0,.3115.9824,1.109,1.109,0,0,0,.8311.3184,1.7028,1.7028,0,0,0,.6055-.0977,2.819,2.819,0,0,0,.4482-.2148,3.8305,3.8305,0,0,0,.3252-.2139.392.392,0,0,1,.2207-.0976.2606.2606,0,0,1,.1758.0517.4971.4971,0,0,1,.11.17l.4942,1.1045a4.9024,4.9024,0,0,1-1.45.878,4.4642,4.4642,0,0,1-1.6309.3183,2.7529,2.7529,0,0,1-1.9824-.6894A2.7217,2.7217,0,0,1,543.7441,437.4464Z" transform="translate(-0.9696)"/><path class="g" d="M555.2227,430.3351a10.6365,10.6365,0,0,1,1.08-1.5527,7.6993,7.6993,0,0,1,1.2344-1.19,5.4263,5.4263,0,0,1,1.3457-.7617,3.96,3.96,0,0,1,1.4238-.2656,3.1,3.1,0,0,1,2.6192,1.2216,5.8418,5.8418,0,0,1,.93,3.5752,10.5276,10.5276,0,0,1-.2207,2.1319,10.908,10.908,0,0,1-.6309,2.0342,10.1119,10.1119,0,0,1-.9883,1.8076,7.7879,7.7879,0,0,1-1.2871,1.456,5.7351,5.7351,0,0,1-1.54.9688,4.4493,4.4493,0,0,1-1.7422.3506,4.0125,4.0125,0,0,1-1.7686-.3838,3.8557,3.8557,0,0,1-1.3515-1.086l-.7012,5.7461h-2.25l2.1455-17.6406h1.1436a.69.69,0,0,1,.78.78Zm-.7012,6.708a2.7911,2.7911,0,0,0,1.1826.9814,3.5565,3.5565,0,0,0,1.4043.293,2.9248,2.9248,0,0,0,1.2744-.2861,4.0183,4.0183,0,0,0,1.0918-.7735,5.69,5.69,0,0,0,.8838-1.1435,8.0275,8.0275,0,0,0,.6562-1.4043,9.6765,9.6765,0,0,0,.4092-1.5469,8.9361,8.9361,0,0,0,.1436-1.58,4.12,4.12,0,0,0-.56-2.3535,1.8022,1.8022,0,0,0-1.5723-.8047,2.4326,2.4326,0,0,0-1.2617.3828,5.1638,5.1638,0,0,0-1.2285,1.0723,9.3435,9.3435,0,0,0-1.1045,1.6387,12.9407,12.9407,0,0,0-.8906,2.08Z" transform="translate(-0.9696)"/><path class="g" d="M577.57,426.7609l-1.5859,13.1679H574.84a.7409.7409,0,0,1-.8447-.832l.1944-2.4043a8.0306,8.0306,0,0,1-2.3457,2.5547,4.8084,4.8084,0,0,1-2.6846.8643,3.1462,3.1462,0,0,1-1.47-.3311,2.6556,2.6556,0,0,1-1.0332-.9687,4.1409,4.1409,0,0,1-.5391-1.5606,7.5242,7.5242,0,0,1,.0127-2.1191l.9883-8.3711h2.3007l-.9873,8.3711a4.3009,4.3009,0,0,0,.1875,2.3007,1.4091,1.4091,0,0,0,1.3985.754,2.7076,2.7076,0,0,0,1.2344-.3243,4.73,4.73,0,0,0,1.2226-.9238,7.8378,7.8378,0,0,0,1.0977-1.4492,10.157,10.157,0,0,0,.8779-1.8906l.8193-6.8379Z" transform="translate(-0.9696)"/><path class="g" d="M580.4688,437.4464v-.2012c0-.082.0058-.2021.0195-.3574s.0342-.3593.0644-.6113.0723-.58.1241-.9883l.8056-6.5908h-1.4687a.3738.3738,0,0,1-.293-.124.4851.4851,0,0,1-.084-.3828l.1035-.9239,2.0284-.2724.9882-4.0694a.7337.7337,0,0,1,.2012-.3183.4951.4951,0,0,1,.3447-.1231h1.209l-.5586,4.5371H587.41l-.1944,1.6768h-3.4717l-.7929,6.4736c-.043.3555-.0782.6416-.1035.8584s-.045.39-.0586.52c-.0137.1289-.0215.2207-.0254.2725s-.0069.0908-.0069.1162a1.36,1.36,0,0,0,.3116.9824,1.1109,1.1109,0,0,0,.832.3184,1.6931,1.6931,0,0,0,.6045-.0977,2.7777,2.7777,0,0,0,.4482-.2148,3.8649,3.8649,0,0,0,.3262-.2139.3922.3922,0,0,1,.2207-.0976.2606.2606,0,0,1,.1758.0517.4969.4969,0,0,1,.1094.17l.4941,1.1045a4.8973,4.8973,0,0,1-1.4492.878,4.4682,4.4682,0,0,1-1.6309.3183,2.7513,2.7513,0,0,1-1.9824-.6894A2.7177,2.7177,0,0,1,580.4688,437.4464Z" transform="translate(-0.9696)"/><line class="f" x1="370.6873" y1="357.299" x2="421.3287" y2="387.9098"/><path class="g" d="M369.323,361.16a4.5118,4.5118,0,1,1,6.1951-1.5274A4.5124,4.5124,0,0,1,369.323,361.16Z" transform="translate(-0.9696)"/><path class="b" d="M237.8078,45.2416H225.8V29.2706c.3625-.314.7273-.6241,1.0717-.9687A20.0122,20.0122,0,0,0,226.872,0L213.3308,13.5414,208.056,8.2666a4.04,4.04,0,1,0-1.8866,1.8866l5.2748,5.2748L198.57,28.3019a20.0038,20.0038,0,0,0,24.562,2.9195v14.02H211.1245a1.3342,1.3342,0,1,0,0,2.6683h26.6833a1.3342,1.3342,0,1,0,0-2.6683Z" transform="translate(-0.9696)"/><path class="g" d="M267.9277,17.379l-.7666,6.2784h6.5909l-.2471,1.9111h-6.5781l-.793,6.4746h8.1767l-.247,1.9756h-10.62L265.7305,15.39h10.6084l-.2471,1.9892Z" transform="translate(-0.9696)"/><path class="g" d="M285.4131,22.9552a.8122.8122,0,0,1-.208.2275.4475.4475,0,0,1-.26.0723.7264.7264,0,0,1-.3965-.1435c-.1435-.0948-.3164-.2012-.5205-.3184a4.1809,4.1809,0,0,0-.747-.3252,3.3524,3.3524,0,0,0-1.0665-.1494,3.31,3.31,0,0,0-1.0654.1631,2.5715,2.5715,0,0,0-.8262.4482,2.0216,2.0216,0,0,0-.5322.669,1.8166,1.8166,0,0,0-.1885.8125,1.25,1.25,0,0,0,.4024.9756,3.6921,3.6921,0,0,0,1.0146.63q.611.2667,1.3125.5137a6.8515,6.8515,0,0,1,1.3135.624,3.371,3.371,0,0,1,1.0137.9619,2.6325,2.6325,0,0,1,.4033,1.5215,4.3758,4.3758,0,0,1-1.3848,3.2041,5.0434,5.0434,0,0,1-1.6123,1.0078,5.6473,5.6473,0,0,1-2.1123.377,5.2537,5.2537,0,0,1-2.23-.4482,4.6445,4.6445,0,0,1-1.5791-1.15l.5713-.8848a.978.978,0,0,1,.2539-.26.6347.6347,0,0,1,.7735.0909q.2079.183.52.41a3.2,3.2,0,0,0,1.9883.5908,3.2186,3.2186,0,0,0,1.15-.1943,2.6975,2.6975,0,0,0,.8711-.5205,2.1844,2.1844,0,0,0,.5459-.7608,2.3049,2.3049,0,0,0,.1885-.9287,1.4,1.4,0,0,0-.4023-1.0537,3.2943,3.2943,0,0,0-1.0147-.6494q-.6108-.2607-1.3125-.4873a6.6982,6.6982,0,0,1-1.3135-.585,3.2082,3.2082,0,0,1-1.0136-.93,2.5937,2.5937,0,0,1-.4033-1.5215,4.0409,4.0409,0,0,1,.332-1.6055,4.1366,4.1366,0,0,1,.9551-1.3711,4.7,4.7,0,0,1,1.5146-.956,5.3515,5.3515,0,0,1,2.0088-.3575,5.16,5.16,0,0,1,2.0859.3965,4.809,4.809,0,0,1,1.5537,1.0733Z" transform="translate(-0.9696)"/><path class="g" d="M288.3633,31.5353v-.2012c0-.082.0068-.2012.0195-.3574s.0352-.3594.0654-.6113.0713-.58.1231-.9873l.8066-6.5918h-1.47a.373.373,0,0,1-.292-.1231.4868.4868,0,0,1-.0849-.3838l.1044-.9228,2.0284-.2725.9873-4.0693a.73.73,0,0,1,.2021-.3184.4937.4937,0,0,1,.3438-.124h1.209l-.5586,4.5371h3.458l-.1953,1.6768H291.64l-.7929,6.4746c-.044.3554-.0781.6416-.1045.8574s-.0449.3906-.0576.52-.0225.2207-.0264.2725-.0068.0918-.0068.1172a1.3533,1.3533,0,0,0,.3125.9814,1.11,1.11,0,0,0,.832.3184,1.7,1.7,0,0,0,.6045-.0967,2.9038,2.9038,0,0,0,.4482-.2149,3.8405,3.8405,0,0,0,.3252-.2148.3992.3992,0,0,1,.2207-.0977.2552.2552,0,0,1,.1758.0528.4935.4935,0,0,1,.11.1689l.4941,1.1045a4.8888,4.8888,0,0,1-1.4492.8779,4.4527,4.4527,0,0,1-1.6318.3184,2.7487,2.7487,0,0,1-1.9825-.69A2.7161,2.7161,0,0,1,288.3633,31.5353Z" transform="translate(-0.9696)"/><path class="g" d="M304.6787,30.548a11.3067,11.3067,0,0,1-1.0078,1.5078,7.0436,7.0436,0,0,1-1.1436,1.15,4.9719,4.9719,0,0,1-1.2744.7344,3.7839,3.7839,0,0,1-1.3847.26,3.2424,3.2424,0,0,1-1.417-.3047,2.953,2.953,0,0,1-1.085-.8974,4.3708,4.3708,0,0,1-.6953-1.4561,7.2179,7.2179,0,0,1-.2471-1.9824,8.9107,8.9107,0,0,1,.292-2.2812,9.2752,9.2752,0,0,1,2.126-3.9131,8.65,8.65,0,0,1,1.6836-1.4307,7.9957,7.9957,0,0,1,1.9951-.9355,7.4981,7.4981,0,0,1,2.2363-.3311,9.7871,9.7871,0,0,1,1.6446.1357,6.9607,6.9607,0,0,1,1.5791.4747l-1.5733,12.74h-1.1953a.7041.7041,0,0,1-.6181-.2344.9732.9732,0,0,1-.1622-.5713Zm.8838-8.086a3.6043,3.6043,0,0,0-.5654-.0849q-.28-.0191-.5528-.0195a4.5548,4.5548,0,0,0-1.5078.2539,5.4006,5.4006,0,0,0-1.3652.708,6.0655,6.0655,0,0,0-1.1572,1.0859,6.9946,6.9946,0,0,0-.89,1.3848,7.8207,7.8207,0,0,0-.5791,1.6054,7.3368,7.3368,0,0,0-.208,1.7481q0,3.1334,2.002,3.1328a2.2643,2.2643,0,0,0,1.248-.3965,4.8674,4.8674,0,0,0,1.1641-1.1045,9.3291,9.3291,0,0,0,1.02-1.6777,15.8541,15.8541,0,0,0,.832-2.125Z" transform="translate(-0.9696)"/><path class="g" d="M319.6924,31.6525a11.8565,11.8565,0,0,1-1.2871,1.2353,6.2266,6.2266,0,0,1-1.2217.7862,4.919,4.919,0,0,1-1.2676.41,8.123,8.123,0,0,1-1.41.1162,4.9384,4.9384,0,0,1-2.0215-.39,3.9981,3.9981,0,0,1-1.47-1.0987,4.8352,4.8352,0,0,1-.8964-1.7031,7.4177,7.4177,0,0,1-.3057-2.19,9.4385,9.4385,0,0,1,.501-3.0674,8.5872,8.5872,0,0,1,1.3974-2.6006,6.942,6.942,0,0,1,2.1377-1.8066,5.5734,5.5734,0,0,1,2.711-.6758,4.7158,4.7158,0,0,1,2.1972.4609,4.6007,4.6007,0,0,1,1.5469,1.3457l-.7285.8711a.8158.8158,0,0,1-.2012.169.4938.4938,0,0,1-.2539.0644.5275.5275,0,0,1-.3574-.1621,4.498,4.498,0,0,0-.4609-.3642,3.2818,3.2818,0,0,0-.709-.3633,3.0594,3.0594,0,0,0-1.085-.1631,3.1786,3.1786,0,0,0-1.69.4873,4.768,4.768,0,0,0-1.3906,1.333,6.793,6.793,0,0,0-.9424,2.002,8.6318,8.6318,0,0,0-.3448,2.4834,5.4761,5.4761,0,0,0,.1817,1.4619,3.1388,3.1388,0,0,0,.5459,1.1181,2.5116,2.5116,0,0,0,.8906.7149,2.8062,2.8062,0,0,0,1.2285.2539,3.626,3.626,0,0,0,1.4629-.2608,4.8705,4.8705,0,0,0,.9942-.5654,8.768,8.768,0,0,0,.6826-.5654.8273.8273,0,0,1,.5527-.26.5808.5808,0,0,1,.4414.2207Z" transform="translate(-0.9696)"/><path class="g" d="M325.6338,20.85l-1.5859,13.169h-2.2745l1.586-13.169Zm.8838-4.1337a1.4675,1.4675,0,0,1-.1358.63,1.8323,1.8323,0,0,1-.3642.52,1.7181,1.7181,0,0,1-.5205.3575,1.4674,1.4674,0,0,1-.6045.13,1.3959,1.3959,0,0,1-.585-.13,1.584,1.584,0,0,1-.5-.3575,1.8307,1.8307,0,0,1-.3447-.52,1.5247,1.5247,0,0,1-.13-.63,1.5816,1.5816,0,0,1,.13-.6377,1.76,1.76,0,0,1,.3516-.5264,1.7315,1.7315,0,0,1,.5068-.3633,1.33,1.33,0,0,1,.585-.1367,1.47,1.47,0,0,1,.6044.13,1.651,1.651,0,0,1,.5137.3574,1.85,1.85,0,0,1,.3574.5332A1.5586,1.5586,0,0,1,326.5176,16.716Z" transform="translate(-0.9696)"/><path class="g" d="M332.5234,34.2a5.12,5.12,0,0,1-1.9755-.37A4.3427,4.3427,0,0,1,329,32.7579a4.9531,4.9531,0,0,1-1.0137-1.7158,6.84,6.84,0,0,1-.3642-2.3144,9.3189,9.3189,0,0,1,.5205-3.1328,8.3516,8.3516,0,0,1,1.43-2.5674,6.8355,6.8355,0,0,1,2.1386-1.7354,5.6644,5.6644,0,0,1,2.6455-.6377,5.1225,5.1225,0,0,1,1.9756.3711,4.3427,4.3427,0,0,1,1.5479,1.0723,4.97,4.97,0,0,1,1.0137,1.7158,6.7977,6.7977,0,0,1,.3642,2.3008,9.282,9.282,0,0,1-.52,3.12,8.5246,8.5246,0,0,1-1.4228,2.5742,6.8015,6.8015,0,0,1-2.1387,1.7481A5.6519,5.6519,0,0,1,332.5234,34.2Zm.2207-1.8066a3.02,3.02,0,0,0,1.7227-.52,4.6681,4.6681,0,0,0,1.3262-1.3848,7.0089,7.0089,0,0,0,.8515-1.9961,9.2151,9.2151,0,0,0,.2989-2.3652,4.37,4.37,0,0,0-.7217-2.7373,2.4833,2.4833,0,0,0-2.0733-.9161,3.0635,3.0635,0,0,0-1.7353.5137,4.5238,4.5238,0,0,0-1.3193,1.3711,7.0207,7.0207,0,0,0-.8458,1.9893,9.2266,9.2266,0,0,0-.2988,2.3662,4.458,4.458,0,0,0,.7149,2.749A2.4633,2.4633,0,0,0,332.7441,32.3937Zm5.6426-17.2119-3.1719,3.3535a1.2979,1.2979,0,0,1-.3515.28.9322.9322,0,0,1-.416.0839h-1.2735l2.1182-3.1455a1.4335,1.4335,0,0,1,.41-.4355,1.1267,1.1267,0,0,1,.6045-.1367Z" transform="translate(-0.9696)"/><path class="g" d="M344.4316,24.1779a8.212,8.212,0,0,1,2.3789-2.6328,4.8371,4.8371,0,0,1,2.7305-.8907,3.0886,3.0886,0,0,1,1.4619.3321,2.6518,2.6518,0,0,1,1.0274.9677,4.13,4.13,0,0,1,.539,1.5674,7.7784,7.7784,0,0,1,0,2.1123l-.9873,8.3848H349.28l.9883-8.3848a4.25,4.25,0,0,0-.1954-2.3076,1.4142,1.4142,0,0,0-1.3906-.748,2.71,2.71,0,0,0-1.2676.3388,4.8634,4.8634,0,0,0-1.2412.9619,7.938,7.938,0,0,0-1.1113,1.501,10.4569,10.4569,0,0,0-.8779,1.957l-.7539,6.6817h-2.3145l1.5859-13.1817h1.1446a.69.69,0,0,1,.78.7793Z" transform="translate(-0.9696)"/><path class="g" d="M362.0205,31.5353v-.2012c0-.082.0068-.2012.0195-.3574s.0352-.3594.0655-.6113.0713-.58.123-.9873l.8067-6.5918h-1.47a.373.373,0,0,1-.292-.1231.4872.4872,0,0,1-.0849-.3838l.1045-.9228,2.0283-.2725.9873-4.0693a.73.73,0,0,1,.2021-.3184.4939.4939,0,0,1,.3438-.124h1.209l-.5586,4.5371h3.458l-.1953,1.6768h-3.4707l-.793,6.4746c-.0439.3554-.0781.6416-.1045.8574s-.0449.3906-.0576.52-.0225.2207-.0264.2725-.0068.0918-.0068.1172a1.3533,1.3533,0,0,0,.3125.9814,1.11,1.11,0,0,0,.832.3184,1.7,1.7,0,0,0,.6045-.0967,2.9051,2.9051,0,0,0,.4483-.2149,3.8733,3.8733,0,0,0,.3252-.2148.3987.3987,0,0,1,.2207-.0977.255.255,0,0,1,.1757.0528.4935.4935,0,0,1,.11.1689l.4941,1.1045a4.8888,4.8888,0,0,1-1.4492.8779,4.4523,4.4523,0,0,1-1.6318.3184,2.7485,2.7485,0,0,1-1.9824-.69A2.7157,2.7157,0,0,1,362.0205,31.5353Z" transform="translate(-0.9696)"/><path class="g" d="M380.5586,31.588a11.609,11.609,0,0,1-1.3,1.1758,7.8431,7.8431,0,0,1-1.294.8125,5.6807,5.6807,0,0,1-1.3779.4746,7.6563,7.6563,0,0,1-1.5537.1494,5.1752,5.1752,0,0,1-2.0273-.3769,4.1874,4.1874,0,0,1-1.5215-1.0723,4.8233,4.8233,0,0,1-.9619-1.6836,6.7906,6.7906,0,0,1-.3379-2.21,9.6517,9.6517,0,0,1,.2148-2.0215,9.3922,9.3922,0,0,1,.624-1.917,8.6775,8.6775,0,0,1,1.001-1.69,6.7357,6.7357,0,0,1,1.3516-1.3457,6.3609,6.3609,0,0,1,1.6767-.8906,5.8748,5.8748,0,0,1,1.97-.3242,4.7308,4.7308,0,0,1,1.73.2852,3.6778,3.6778,0,0,1,1.1953.7285,2.9285,2.9285,0,0,1,.6963.9746,2.5919,2.5919,0,0,1,.2275,1.0146A3.5554,3.5554,0,0,1,380.52,25.25a3.2757,3.2757,0,0,1-1.2871,1.3,9.5954,9.5954,0,0,1-2.5742,1.0078,28.2637,28.2637,0,0,1-4.2119.6885c0,.0957-.002.1885-.0059.28s-.0068.1836-.0068.2793a4.0671,4.0671,0,0,0,.7607,2.6582,2.8086,2.8086,0,0,0,2.294.917,4.3666,4.3666,0,0,0,1.1123-.13,4.7371,4.7371,0,0,0,.87-.3193,3.8348,3.8348,0,0,0,.6768-.416q.2914-.2271.5322-.4161.2416-.1875.4492-.3183a.7854.7854,0,0,1,.416-.13.5808.5808,0,0,1,.4414.2207Zm-3.666-9.2558a3.3719,3.3719,0,0,0-1.5078.3379,4.0081,4.0081,0,0,0-1.2217.9287,5.6681,5.6681,0,0,0-.91,1.3916,8.2768,8.2768,0,0,0-.5849,1.7226,25.4108,25.4108,0,0,0,3.2109-.5654,8.009,8.009,0,0,0,1.8584-.6895,1.7933,1.7933,0,0,0,1.0664-1.6962,1.3083,1.3083,0,0,0-.4355-.9493,1.7977,1.7977,0,0,0-.5918-.3447A2.5293,2.5293,0,0,0,376.8926,22.3322Z" transform="translate(-0.9696)"/><path class="g" d="M385.94,24.5158a11.1939,11.1939,0,0,1,1.1241-1.918,5.6114,5.6114,0,0,1,1.2675-1.2734,3.1439,3.1439,0,0,1,1.3653-.56,2.6587,2.6587,0,0,1,1.43.2148l-.4161,2.2227a2.6617,2.6617,0,0,0-2.9834.4941,8.6813,8.6813,0,0,0-2.1,4.2256L384.9,34.0187h-2.2627l1.5859-13.1817h1.1446a.695.695,0,0,1,.7929.7793Z" transform="translate(-0.9696)"/><path class="g" d="M394.832,24.5158a11.1939,11.1939,0,0,1,1.1241-1.918,5.6135,5.6135,0,0,1,1.2675-1.2734,3.1439,3.1439,0,0,1,1.3653-.56,2.6587,2.6587,0,0,1,1.43.2148l-.4161,2.2227a2.6617,2.6617,0,0,0-2.9834.4941,8.6813,8.6813,0,0,0-2.1,4.2256l-.7275,6.0967h-2.2627l1.5859-13.1817H394.26a.695.695,0,0,1,.7929.7793Z" transform="translate(-0.9696)"/><path class="g" d="M410.7832,31.588a11.609,11.609,0,0,1-1.3,1.1758,7.8423,7.8423,0,0,1-1.2939.8125,5.6815,5.6815,0,0,1-1.378.4746,7.6556,7.6556,0,0,1-1.5537.1494,5.1752,5.1752,0,0,1-2.0273-.3769,4.1874,4.1874,0,0,1-1.5215-1.0723,4.8249,4.8249,0,0,1-.9619-1.6836,6.7906,6.7906,0,0,1-.3379-2.21,9.6517,9.6517,0,0,1,.2148-2.0215,9.3922,9.3922,0,0,1,.624-1.917,8.6775,8.6775,0,0,1,1.001-1.69,6.7383,6.7383,0,0,1,1.3516-1.3457,6.3609,6.3609,0,0,1,1.6767-.8906,5.8748,5.8748,0,0,1,1.97-.3242,4.7308,4.7308,0,0,1,1.73.2852,3.6767,3.6767,0,0,1,1.1953.7285,2.9285,2.9285,0,0,1,.6963.9746,2.5919,2.5919,0,0,1,.2275,1.0146,3.5554,3.5554,0,0,1-.3516,1.5791,3.2751,3.2751,0,0,1-1.2871,1.3,9.5954,9.5954,0,0,1-2.5742,1.0078,28.2637,28.2637,0,0,1-4.2119.6885c0,.0957-.002.1885-.0059.28s-.0068.1836-.0068.2793a4.0671,4.0671,0,0,0,.7607,2.6582,2.8086,2.8086,0,0,0,2.294.917,4.3666,4.3666,0,0,0,1.1123-.13,4.7371,4.7371,0,0,0,.87-.3193,3.8312,3.8312,0,0,0,.6768-.416q.2914-.2271.5322-.4161.2417-.1875.4492-.3183a.7854.7854,0,0,1,.416-.13.5807.5807,0,0,1,.4414.2207Zm-3.666-9.2558a3.3719,3.3719,0,0,0-1.5078.3379,4.0081,4.0081,0,0,0-1.2217.9287,5.6681,5.6681,0,0,0-.91,1.3916,8.2827,8.2827,0,0,0-.5849,1.7226,25.4108,25.4108,0,0,0,3.2109-.5654,8.009,8.009,0,0,0,1.8584-.6895,1.7933,1.7933,0,0,0,1.0664-1.6962,1.3083,1.3083,0,0,0-.4355-.9493,1.7977,1.7977,0,0,0-.5918-.3447A2.5293,2.5293,0,0,0,407.1172,22.3322Z" transform="translate(-0.9696)"/><path class="g" d="M421.3516,22.9552a.8137.8137,0,0,1-.208.2275.4475.4475,0,0,1-.26.0723.7264.7264,0,0,1-.3965-.1435c-.1435-.0948-.3164-.2012-.5205-.3184a4.1821,4.1821,0,0,0-.7471-.3252,3.3518,3.3518,0,0,0-1.0664-.1494,3.31,3.31,0,0,0-1.0654.1631,2.5715,2.5715,0,0,0-.8262.4482,2.02,2.02,0,0,0-.5322.669,1.8166,1.8166,0,0,0-.1885.8125,1.25,1.25,0,0,0,.4024.9756,3.6921,3.6921,0,0,0,1.0146.63q.6108.2667,1.3125.5137a6.8515,6.8515,0,0,1,1.3135.624,3.371,3.371,0,0,1,1.0137.9619,2.6325,2.6325,0,0,1,.4033,1.5215,4.3758,4.3758,0,0,1-1.3848,3.2041,5.0434,5.0434,0,0,1-1.6123,1.0078,5.6473,5.6473,0,0,1-2.1123.377,5.2537,5.2537,0,0,1-2.2295-.4482,4.6435,4.6435,0,0,1-1.5791-1.15l.5713-.8848a.978.978,0,0,1,.2539-.26.6346.6346,0,0,1,.7734.0909q.208.183.52.41a3.2009,3.2009,0,0,0,1.9883.5908,3.2192,3.2192,0,0,0,1.15-.1943,2.6986,2.6986,0,0,0,.8711-.5205,2.1844,2.1844,0,0,0,.5459-.7608,2.3049,2.3049,0,0,0,.1885-.9287,1.3994,1.3994,0,0,0-.4024-1.0537,3.2926,3.2926,0,0,0-1.0146-.6494q-.6108-.2607-1.3125-.4873a6.6956,6.6956,0,0,1-1.3135-.585,3.21,3.21,0,0,1-1.0137-.93,2.5944,2.5944,0,0,1-.4033-1.5215,4.0411,4.0411,0,0,1,.3321-1.6055,4.1378,4.1378,0,0,1,.955-1.3711,4.7,4.7,0,0,1,1.5147-.956,5.3511,5.3511,0,0,1,2.0088-.3575,5.16,5.16,0,0,1,2.0859.3965,4.81,4.81,0,0,1,1.5537,1.0733Z" transform="translate(-0.9696)"/><path class="g" d="M424.3018,31.5353v-.2012c0-.082.0068-.2012.0195-.3574s.0351-.3594.0654-.6113.0713-.58.1231-.9873l.8066-6.5918h-1.47a.3728.3728,0,0,1-.292-.1231.4872.4872,0,0,1-.085-.3838l.1045-.9228,2.0283-.2725.9873-4.0693a.7305.7305,0,0,1,.2022-.3184.4936.4936,0,0,1,.3437-.124h1.209l-.5586,4.5371h3.458l-.1953,1.6768h-3.4707l-.7929,6.4746c-.044.3554-.0782.6416-.1045.8574s-.045.3906-.0577.52-.0224.2207-.0263.2725-.0069.0918-.0069.1172a1.3533,1.3533,0,0,0,.3125.9814,1.11,1.11,0,0,0,.8321.3184,1.7,1.7,0,0,0,.6045-.0967,2.9082,2.9082,0,0,0,.4482-.2149,3.8405,3.8405,0,0,0,.3252-.2148.3989.3989,0,0,1,.2207-.0977.2555.2555,0,0,1,.1758.0528.492.492,0,0,1,.11.1689l.4942,1.1045a4.8888,4.8888,0,0,1-1.4492.8779,4.4528,4.4528,0,0,1-1.6319.3184,2.7486,2.7486,0,0,1-1.9824-.69A2.7157,2.7157,0,0,1,424.3018,31.5353Z" transform="translate(-0.9696)"/><path class="g" d="M435.7813,24.5158a11.1938,11.1938,0,0,1,1.124-1.918,5.6117,5.6117,0,0,1,1.2676-1.2734,3.143,3.143,0,0,1,1.3652-.56,2.6586,2.6586,0,0,1,1.43.2148l-.416,2.2227a2.6616,2.6616,0,0,0-2.9834.4941,8.6813,8.6813,0,0,0-2.1,4.2256l-.7276,6.0967h-2.2627l1.586-13.1817h1.1445a.6951.6951,0,0,1,.793.7793Z" transform="translate(-0.9696)"/><path class="g" d="M451.7314,31.588a11.6,11.6,0,0,1-1.3,1.1758,7.8423,7.8423,0,0,1-1.2939.8125,5.6822,5.6822,0,0,1-1.3779.4746,7.657,7.657,0,0,1-1.5537.1494,5.1757,5.1757,0,0,1-2.0274-.3769,4.1882,4.1882,0,0,1-1.5215-1.0723,4.8249,4.8249,0,0,1-.9619-1.6836,6.7906,6.7906,0,0,1-.3379-2.21,9.6452,9.6452,0,0,1,.2149-2.0215,9.3861,9.3861,0,0,1,.624-1.917,8.6725,8.6725,0,0,1,1.001-1.69,6.7352,6.7352,0,0,1,1.3515-1.3457,6.3615,6.3615,0,0,1,1.6768-.8906,5.8742,5.8742,0,0,1,1.97-.3242,4.73,4.73,0,0,1,1.73.2852,3.6756,3.6756,0,0,1,1.1953.7285,2.9271,2.9271,0,0,1,.6963.9746,2.59,2.59,0,0,1,.2275,1.0146,3.5554,3.5554,0,0,1-.3515,1.5791,3.2757,3.2757,0,0,1-1.2871,1.3,9.5967,9.5967,0,0,1-2.5742,1.0078,28.2653,28.2653,0,0,1-4.212.6885c0,.0957-.0019.1885-.0058.28s-.0069.1836-.0069.2793a4.0671,4.0671,0,0,0,.7608,2.6582,2.8084,2.8084,0,0,0,2.2939.917,4.3666,4.3666,0,0,0,1.1123-.13,4.7355,4.7355,0,0,0,.87-.3193,3.8338,3.8338,0,0,0,.6767-.416q.2914-.2271.5322-.4161.2418-.1875.4493-.3183a.7849.7849,0,0,1,.416-.13.581.581,0,0,1,.4414.2207Zm-3.666-9.2558a3.3719,3.3719,0,0,0-1.5078.3379,4.0093,4.0093,0,0,0-1.2217.9287,5.6707,5.6707,0,0,0-.91,1.3916,8.277,8.277,0,0,0-.585,1.7226,25.4162,25.4162,0,0,0,3.211-.5654,8.0108,8.0108,0,0,0,1.8584-.6895,1.7933,1.7933,0,0,0,1.0664-1.6962,1.308,1.308,0,0,0-.4356-.9493,1.7967,1.7967,0,0,0-.5918-.3447A2.5293,2.5293,0,0,0,448.0654,22.3322Z" transform="translate(-0.9696)"/><line class="f" x1="186.8568" y1="127.9098" x2="133.6873" y2="158.6593"/><path class="g" d="M185.5679,124.0043a4.5117,4.5117,0,1,1-1.647,6.1643A4.5121,4.5121,0,0,1,185.5679,124.0043Z" transform="translate(-0.9696)"/><path class="g" d="M42.6152,164.9288h-1.873a.7307.7307,0,0,1-.5059-.1621.892.892,0,0,1-.2607-.4218l-1.0137-4.5508H31.3828l-2.1318,4.5508a1.1414,1.1414,0,0,1-.3584.4091.8965.8965,0,0,1-.5391.1748H26.4551L35.582,146.3h2.47Zm-4.0429-6.9023-1.7032-7.709q-.0658-.3516-.1562-.8125t-.1563-.9941q-.1947.545-.39,1t-.3506.8193l-3.6016,7.6963Z" transform="translate(-0.9696)"/><path class="g" d="M47.7891,155.089a8.1775,8.1775,0,0,1,2.3789-2.6328,4.8337,4.8337,0,0,1,2.73-.8906,3.0977,3.0977,0,0,1,1.4619.331,2.6477,2.6477,0,0,1,1.0273.9688,4.1238,4.1238,0,0,1,.54,1.5664,7.86,7.86,0,0,1,0,2.1123l-.9883,8.3847H52.6377l.9873-8.3847a4.2588,4.2588,0,0,0-.1943-2.3067,1.4143,1.4143,0,0,0-1.3916-.748,2.7224,2.7224,0,0,0-1.2676.3379,4.8977,4.8977,0,0,0-1.24.9619,8.006,8.006,0,0,0-1.1124,1.501,10.5848,10.5848,0,0,0-.8779,1.957l-.7539,6.6816H44.4736l1.586-13.1816h1.1435a.69.69,0,0,1,.78.78Z" transform="translate(-0.9696)"/><path class="g" d="M59.2939,162.4464v-.2012c0-.082.0069-.2021.02-.3574s.0342-.3593.0654-.6113c.0293-.252.07-.58.1231-.9883l.8056-6.5908H58.8389a.3675.3675,0,0,1-.292-.124.481.481,0,0,1-.085-.3828l.1045-.9239,2.0274-.2724.9882-4.0694a.7337.7337,0,0,1,.2012-.3183.4968.4968,0,0,1,.3447-.1231h1.209l-.56,4.5371h3.459l-.1953,1.6768H62.57l-.793,6.4736c-.0439.3555-.0781.6416-.1044.8584s-.0459.39-.0586.52c-.0127.1289-.0215.2207-.0264.2725s-.0059.0908-.0059.1162a1.3514,1.3514,0,0,0,.3125.9824,1.1061,1.1061,0,0,0,.8311.3184,1.6931,1.6931,0,0,0,.6045-.0977,2.8317,2.8317,0,0,0,.4492-.2148,3.7965,3.7965,0,0,0,.3242-.2139.395.395,0,0,1,.2207-.0976.2606.2606,0,0,1,.1758.0517.5093.5093,0,0,1,.1113.17l.4942,1.1045a4.9151,4.9151,0,0,1-1.45.878,4.4694,4.4694,0,0,1-1.6319.3183,2.7562,2.7562,0,0,1-1.9824-.6894A2.7173,2.7173,0,0,1,59.2939,162.4464Z" transform="translate(-0.9696)"/><path class="g" d="M77.832,162.4982a11.6361,11.6361,0,0,1-1.3007,1.1767,7.9257,7.9257,0,0,1-1.293.8125,5.6822,5.6822,0,0,1-1.3779.4746,7.6571,7.6571,0,0,1-1.5538.15,5.1918,5.1918,0,0,1-2.0273-.377,4.18,4.18,0,0,1-1.5215-1.0732,4.8333,4.8333,0,0,1-.9629-1.6836,6.8119,6.8119,0,0,1-.3379-2.209,9.713,9.713,0,0,1,.2149-2.0215,9.4793,9.4793,0,0,1,.624-1.918,8.6793,8.6793,0,0,1,1.001-1.6894,6.7585,6.7585,0,0,1,1.3515-1.3457,6.3617,6.3617,0,0,1,1.6778-.8906,5.8478,5.8478,0,0,1,1.9687-.3252,4.728,4.728,0,0,1,1.73.2861,3.6915,3.6915,0,0,1,1.1963.7285,2.9049,2.9049,0,0,1,.6953.9746,2.5724,2.5724,0,0,1,.2276,1.0137,3.5608,3.5608,0,0,1-.3506,1.58,3.2966,3.2966,0,0,1-1.2871,1.3,9.5868,9.5868,0,0,1-2.5743,1.0068,28.2962,28.2962,0,0,1-4.2119.69c0,.0957-.0029.1884-.0068.2793s-.0059.1845-.0059.2793a4.0652,4.0652,0,0,0,.76,2.6582,2.81,2.81,0,0,0,2.2949.9169,4.309,4.309,0,0,0,1.1113-.13,4.746,4.746,0,0,0,.8711-.3184,3.8213,3.8213,0,0,0,.6758-.416c.1953-.1514.3731-.291.5332-.416a5.0659,5.0659,0,0,1,.4492-.3184.7733.7733,0,0,1,.4151-.1308.581.581,0,0,1,.4424.2216Zm-3.666-9.2559a3.3689,3.3689,0,0,0-1.5078.3379,4.0147,4.0147,0,0,0-1.2227.93,5.6966,5.6966,0,0,0-.91,1.3916,8.247,8.247,0,0,0-.585,1.7217,25.2338,25.2338,0,0,0,3.2119-.5655,7.9816,7.9816,0,0,0,1.8584-.6894,1.788,1.788,0,0,0,1.0655-1.6953,1.2936,1.2936,0,0,0-.4356-.9492,1.8008,1.8008,0,0,0-.5908-.3448A2.5357,2.5357,0,0,0,74.166,153.2423Z" transform="translate(-0.9696)"/><path class="g" d="M83.2266,155.089a8.1775,8.1775,0,0,1,2.3789-2.6328,4.8337,4.8337,0,0,1,2.7295-.8906,3.0977,3.0977,0,0,1,1.4619.331,2.6477,2.6477,0,0,1,1.0273.9688,4.1238,4.1238,0,0,1,.54,1.5664,7.86,7.86,0,0,1,0,2.1123l-.9883,8.3847H88.0752l.9873-8.3847a4.2588,4.2588,0,0,0-.1943-2.3067,1.4143,1.4143,0,0,0-1.3916-.748,2.7224,2.7224,0,0,0-1.2676.3379,4.8977,4.8977,0,0,0-1.24.9619,8.006,8.006,0,0,0-1.1124,1.501,10.5848,10.5848,0,0,0-.8779,1.957l-.7539,6.6816H79.9111l1.586-13.1816h1.1435a.69.69,0,0,1,.78.78Z" transform="translate(-0.9696)"/><path class="g" d="M101.8281,161.4581a11.2086,11.2086,0,0,1-1.0068,1.5079,7.0468,7.0468,0,0,1-1.1436,1.15,4.969,4.969,0,0,1-1.2744.7344,3.7839,3.7839,0,0,1-1.3838.2608,3.2454,3.2454,0,0,1-1.4179-.3057,2.959,2.959,0,0,1-1.086-.8965,4.3856,4.3856,0,0,1-.6953-1.457,7.2538,7.2538,0,0,1-.2461-1.9824,8.9615,8.9615,0,0,1,.292-2.2813,9.2623,9.2623,0,0,1,2.126-3.9121,8.6508,8.6508,0,0,1,1.6836-1.4307,7.9986,7.9986,0,0,1,1.9951-.9365,7.4922,7.4922,0,0,1,2.2354-.331,9.76,9.76,0,0,1,1.6445.1367,6.8914,6.8914,0,0,1,1.58.4736l-1.5733,12.74h-1.1963a.7059.7059,0,0,1-.6172-.2334.978.978,0,0,1-.1621-.5722Zm.8848-8.0859a3.7283,3.7283,0,0,0-.5654-.084c-.1866-.0137-.37-.0195-.5528-.0195a4.5522,4.5522,0,0,0-1.5078.2529,5.4071,5.4071,0,0,0-1.3652.708,6.1267,6.1267,0,0,0-1.1572,1.086,7.2,7.2,0,0,0-.8907,1.3847,7.9219,7.9219,0,0,0-.5781,1.6055,7.3427,7.3427,0,0,0-.208,1.748q0,3.1349,2.0019,3.1329a2.2572,2.2572,0,0,0,1.2481-.3965,4.8283,4.8283,0,0,0,1.1631-1.1045,9.268,9.268,0,0,0,1.0215-1.6768,15.8541,15.8541,0,0,0,.832-2.125Z" transform="translate(-0.9696)"/></svg>