<svg xmlns="http://www.w3.org/2000/svg" viewBox="0 0 406.5682 718.526"><defs><style>.a,.g,.m{fill:#fff;}.a{opacity:0.62;}.b,.e,.h,.i,.j,.l{fill:#d91519;}.b,.c,.d,.h,.i{stroke:#fff;stroke-width:3px;}.b{stroke-miterlimit:10;}.c,.d{fill:none;}.c,.d,.h,.i{stroke-linecap:round;stroke-linejoin:round;}.c,.k{opacity:0.3;}.f,.h,.m{opacity:0.5;}.j{opacity:0.68;}.l{opacity:0.73;}</style></defs><title>Recurso 3</title><polygon class="a" points="34.87 578.045 151.894 507.03 356.938 625.055 235.912 697.071 34.87 578.045"/><path class="b" d="M168.8979,421.0121,1.6021,517.5132v62.7262L238.1012,716.7939,405.01,620.4209l.0576-63.2169Zm92.583,253.5328-18.9827,11.579a3.0988,3.0988,0,0,1-3.1778.03L107.6922,609.23a3.0992,3.0992,0,0,1-.05-5.3214L126.625,592.33a3.0988,3.0988,0,0,1,3.1779-.03l131.6282,76.9236A3.0992,3.0992,0,0,1,261.4809,674.5449Zm39.0624-22.7863-18.9828,11.579a3.0991,3.0991,0,0,1-3.1778.03L146.7545,586.4437a3.0992,3.0992,0,0,1-.05-5.3215l18.9828-11.579a3.0992,3.0992,0,0,1,3.1779-.03l131.628,76.9237A3.0992,3.0992,0,0,1,300.5433,651.7586Zm37.4346-22.7863-18.9827,11.579a3.0993,3.0993,0,0,1-3.1778.03L184.1892,563.6574a3.0992,3.0992,0,0,1-.05-5.3215l18.9827-11.579a3.0992,3.0992,0,0,1,3.178-.03l131.628,76.9237A3.0992,3.0992,0,0,1,337.9779,628.9723Z"/><polyline class="c" points="1.863 580.046 168.898 482.025 168.55 481.97 404.783 618.371"/><polygon class="d" points="405.01 620.421 238.101 716.794 1.602 580.239 1.602 517.513 168.898 421.012 405.067 557.204 405.01 620.421"/><path class="e" d="M221.06,520.0681l-45.3752-26.0408a5.6043,5.6043,0,0,0-5.5923.0074L132.254,515.8824a5.6047,5.6047,0,0,0,.0128,9.7149l45.3751,26.0408a5.605,5.605,0,0,0,5.5924-.0074l37.8381-21.8477A5.6048,5.6048,0,0,0,221.06,520.0681Z"/><g class="f"><path class="g" d="M221.06,520.0681l-45.3752-26.0408a5.6043,5.6043,0,0,0-5.5923.0074L132.254,515.8824a5.6047,5.6047,0,0,0,.0128,9.7149l45.3751,26.0408a5.605,5.605,0,0,0,5.5924-.0074l37.8381-21.8477A5.6048,5.6048,0,0,0,221.06,520.0681Z"/></g><path class="g" d="M172.8947,496.2836a2.6079,2.6079,0,0,1,1.2964.3457L219.5664,522.67a2.6052,2.6052,0,0,1,.0058,4.5154L181.734,549.0328a2.6045,2.6045,0,0,1-2.5988.0032l-45.3752-26.04a2.605,2.605,0,0,1-.0059-4.5152l37.838-21.8476a2.6091,2.6091,0,0,1,1.3026-.3491m0-3a5.6,5.6,0,0,0-2.8026.7509L132.254,515.8824a5.6048,5.6048,0,0,0,.0127,9.7149l45.3752,26.0408a5.6048,5.6048,0,0,0,5.5923-.0074l37.8382-21.8476a5.605,5.605,0,0,0-.0127-9.7151l-45.3753-26.0408a5.6011,5.6011,0,0,0-2.79-.7436Z"/><path class="e" d="M168.0484,550.0744l-45.3752-26.0408a5.6048,5.6048,0,0,0-5.5923.0074L79.2428,545.8887a5.6048,5.6048,0,0,0,.0127,9.7149l45.3752,26.0408a5.6045,5.6045,0,0,0,5.5924-.0074l37.8381-21.8477A5.6048,5.6048,0,0,0,168.0484,550.0744Z"/><g class="f"><path class="g" d="M168.0484,550.0744l-45.3752-26.0408a5.6048,5.6048,0,0,0-5.5923.0074L79.2428,545.8887a5.6048,5.6048,0,0,0,.0127,9.7149l45.3752,26.0408a5.6045,5.6045,0,0,0,5.5924-.0074l37.8381-21.8477A5.6048,5.6048,0,0,0,168.0484,550.0744Z"/></g><path class="g" d="M119.8835,526.29a2.6082,2.6082,0,0,1,1.2964.3457l45.3752,26.0405a2.6051,2.6051,0,0,1,.0059,4.5154l-37.838,21.8477a2.6048,2.6048,0,0,1-2.599.0032L80.7489,553.0018a2.6048,2.6048,0,0,1-.006-4.5151l37.838-21.8477a2.61,2.61,0,0,1,1.3026-.3491m0-3a5.6008,5.6008,0,0,0-2.8026.751L79.2428,545.8888a5.6046,5.6046,0,0,0,.0128,9.7148l45.3751,26.0408a5.6047,5.6047,0,0,0,5.5924-.0073l37.838-21.8477a5.6049,5.6049,0,0,0-.0127-9.7151l-45.3752-26.0407a5.6,5.6,0,0,0-2.79-.7437Z"/><path class="e" d="M116.0374,582.0812,70.6622,556.04a5.6048,5.6048,0,0,0-5.5923.0074L27.2318,577.8955a5.6048,5.6048,0,0,0,.0127,9.7149L72.62,613.6512a5.605,5.605,0,0,0,5.5924-.0074L116.05,591.7961A5.6048,5.6048,0,0,0,116.0374,582.0812Z"/><g class="f"><path class="g" d="M116.0374,582.0812,70.6622,556.04a5.6048,5.6048,0,0,0-5.5923.0074L27.2318,577.8955a5.6048,5.6048,0,0,0,.0127,9.7149L72.62,613.6512a5.605,5.605,0,0,0,5.5924-.0074L116.05,591.7961A5.6048,5.6048,0,0,0,116.0374,582.0812Z"/></g><path class="g" d="M67.8723,558.2967a2.6056,2.6056,0,0,1,1.2966.3458l45.3753,26.04a2.6049,2.6049,0,0,1,.0058,4.5151L76.7123,611.0458a2.6048,2.6048,0,0,1-2.5993.0034L28.7379,585.0087a2.6051,2.6051,0,0,1-.006-4.5154L66.57,558.6456a2.6075,2.6075,0,0,1,1.3021-.3489m0-3a5.6,5.6,0,0,0-2.8024.751L27.2318,577.8954a5.6049,5.6049,0,0,0,.0128,9.7151L72.62,613.6512a5.6047,5.6047,0,0,0,5.5924-.0073L116.05,591.796a5.6047,5.6047,0,0,0-.0127-9.7148L70.6622,556.04a5.6016,5.6016,0,0,0-2.79-.7437Z"/><path class="e" d="M278.3258,492.0049,255.45,478.8766a2.8257,2.8257,0,0,0-2.8194.0037l-19.0759,11.0144a2.8256,2.8256,0,0,0,.0065,4.8977l22.8756,13.1283a2.8257,2.8257,0,0,0,2.8194-.0037l19.0759-11.0144A2.8256,2.8256,0,0,0,278.3258,492.0049Z"/><g class="f"><path class="g" d="M278.3258,492.0049,255.45,478.8766a2.8257,2.8257,0,0,0-2.8194.0037l-19.0759,11.0144a2.8256,2.8256,0,0,0,.0065,4.8977l22.8756,13.1283a2.8257,2.8257,0,0,0,2.8194-.0037l19.0759-11.0144A2.8256,2.8256,0,0,0,278.3258,492.0049Z"/></g><path class="g" d="M254.1307,481.4784h0m-.0868.05L276.57,494.4562l-18.7266,10.8127-22.5258-12.9277,18.7265-10.8128m0-3.0268a2.824,2.824,0,0,0-1.4129.3786l-19.0759,11.0144a2.8257,2.8257,0,0,0,.0065,4.8978l22.8756,13.1284a2.8251,2.8251,0,0,0,2.8194-.0037l19.0758-11.0144a2.8255,2.8255,0,0,0-.0064-4.8977L255.45,478.8766a2.8239,2.8239,0,0,0-1.4065-.375Z"/><path class="e" d="M246.2681,474.1122l-22.8756-13.1283a2.8257,2.8257,0,0,0-2.8194.0037L201.4972,472.002a2.8256,2.8256,0,0,0,.0065,4.8977l22.8756,13.1284a2.8259,2.8259,0,0,0,2.8194-.0037L246.2746,479.01A2.8256,2.8256,0,0,0,246.2681,474.1122Z"/><g class="f"><path class="g" d="M246.2681,474.1122l-22.8756-13.1283a2.8257,2.8257,0,0,0-2.8194.0037L201.4972,472.002a2.8256,2.8256,0,0,0,.0065,4.8977l22.8756,13.1284a2.8259,2.8259,0,0,0,2.8194-.0037L246.2746,479.01A2.8256,2.8256,0,0,0,246.2681,474.1122Z"/></g><path class="g" d="M222.0736,463.5856h0m-.0874.05,22.5259,12.9274-18.7265,10.8128L203.26,474.4486l18.7265-10.8127m0-3.0269a2.8223,2.8223,0,0,0-1.4127.3787l-19.0758,11.0144a2.8256,2.8256,0,0,0,.0063,4.8977l22.8758,13.1281a2.8252,2.8252,0,0,0,2.8193-.0036L246.2746,479.01a2.8257,2.8257,0,0,0-.0064-4.8977L223.3924,460.984a2.8237,2.8237,0,0,0-1.4066-.375Z"/><path class="e" d="M214.21,456.22l-22.8756-13.1284a2.8257,2.8257,0,0,0-2.8194.0037L169.44,454.1094a2.8256,2.8256,0,0,0,.0065,4.8977l22.8756,13.1283a2.8257,2.8257,0,0,0,2.8194-.0037l19.0759-11.0144A2.8256,2.8256,0,0,0,214.21,456.22Z"/><g class="f"><path class="g" d="M214.21,456.22l-22.8756-13.1284a2.8257,2.8257,0,0,0-2.8194.0037L169.44,454.1094a2.8256,2.8256,0,0,0,.0065,4.8977l22.8756,13.1283a2.8257,2.8257,0,0,0,2.8194-.0037l19.0759-11.0144A2.8256,2.8256,0,0,0,214.21,456.22Z"/></g><path class="g" d="M190.0155,445.693h0m-.0869.05,22.5258,12.9278-18.7265,10.8127L171.202,456.5558l18.7266-10.8128m0-3.0268a2.8233,2.8233,0,0,0-1.4128.3786L169.44,454.1092a2.8257,2.8257,0,0,0,.0065,4.8978l22.8756,13.1284a2.8251,2.8251,0,0,0,2.8194-.0037l19.0759-11.0144a2.8256,2.8256,0,0,0-.0065-4.8977l-22.8756-13.1284a2.8234,2.8234,0,0,0-1.4065-.375Z"/><path class="h" d="M168.8979,421.0121,1.6021,517.5132v62.7262L238.1012,716.7939,405.01,620.4209l.0576-63.2169Z"/><polygon class="d" points="405.01 557.577 238.101 653.95 1.602 517.396 168.511 421.023 405.01 557.577"/><line class="i" x1="238.0354" y1="653.1233" x2="238.0354" y2="715.9671"/><path class="j" d="M253.6424,599.6023c-.9969-2.9732-3.4893-5.8123-7.4772-8.1149-10.6343-6.14-27.8758-6.14-38.51,0-3.8675,2.2331-6.3284,4.9708-7.3829,7.846,0,0-.53-16.56,25.0566-16.4237s28.17,12.1392,28.17,12.1392Z"/><ellipse class="d" cx="226.9101" cy="598.6045" rx="27.2308" ry="15.7231"/><path class="d" d="M200.2722,599.3334c1.0545-2.8752,3.5154-5.6129,7.3829-7.846,10.6343-6.14,27.8758-6.14,38.51,0,3.9879,2.3026,6.48,5.1417,7.4772,8.1149"/><ellipse class="d" cx="308.9275" cy="550.6314" rx="27.2308" ry="15.7231"/><path class="d" d="M282.29,551.36c1.0544-2.8753,3.5154-5.6129,7.3828-7.846,10.6343-6.14,27.8759-6.14,38.51,0,3.9878,2.3026,6.48,5.1417,7.4772,8.1149"/><polygon class="i" points="254.04 644.61 237.44 654.195 218.364 642.61 234.964 633.025 254.04 644.61"/><ellipse class="g" cx="236.4599" cy="643.311" rx="4.2951" ry="2.48"/><polygon class="i" points="37.941 519.11 21.341 528.695 2.266 517.11 18.865 507.525 37.941 519.11"/><ellipse class="g" cx="20.3613" cy="517.811" rx="4.2951" ry="2.48"/><polygon class="i" points="187.723 433.159 171.123 442.744 152.047 431.159 168.647 421.574 187.723 433.159"/><ellipse class="g" cx="170.1429" cy="431.8601" rx="4.2951" ry="2.48"/><polygon class="i" points="403.948 557.982 387.348 567.566 368.272 555.981 384.872 546.396 403.948 557.982"/><ellipse class="g" cx="386.3676" cy="556.6826" rx="4.2951" ry="2.48"/><polygon class="i" points="404.596 427.152 237.91 523.396 1.727 387.024 1.727 324.382 168.76 228.075 404.653 364.019 404.596 427.152"/><g class="k"><path class="g" d="M208.184,339.7746,162.8184,365.81a5.6035,5.6035,0,0,1-5.5912-.0073l-37.83-21.8431a5.6037,5.6037,0,0,1,.0128-9.7129l45.3656-26.0352a5.6033,5.6033,0,0,1,5.5911.0073l37.83,21.8431A5.6036,5.6036,0,0,1,208.184,339.7746Z"/></g><g class="k"><path class="g" d="M136.911,380.6377,91.5455,406.673a5.6037,5.6037,0,0,1-5.5912-.0074l-37.83-21.8431a5.6035,5.6035,0,0,1,.0128-9.7128l45.3655-26.0353a5.6037,5.6037,0,0,1,5.5912.0074l37.83,21.843A5.6036,5.6036,0,0,1,136.911,380.6377Z"/></g><g class="k"><path class="g" d="M264.252,372.9856l-45.3656,26.0352a5.6035,5.6035,0,0,1-5.5912-.0073l-37.83-21.8431a5.6037,5.6037,0,0,1,.0128-9.7129l45.3656-26.0352a5.6035,5.6035,0,0,1,5.5912.0073l37.83,21.8431A5.6037,5.6037,0,0,1,264.252,372.9856Z"/></g><g class="k"><path class="g" d="M192.9791,413.8487,147.6135,439.884a5.6037,5.6037,0,0,1-5.5912-.0074l-37.83-21.8431a5.6036,5.6036,0,0,1,.0128-9.7128l45.3656-26.0353a5.6035,5.6035,0,0,1,5.5911.0074l37.83,21.843A5.6036,5.6036,0,0,1,192.9791,413.8487Z"/></g><g class="k"><path class="e" d="M160.0291,365.0533a4.1089,4.1089,0,0,1-2.0517-.55l-37.83-21.8432a4.1035,4.1035,0,0,1,.0093-7.1128l45.3652-26.0352a4.105,4.105,0,0,1,4.0947.0052l37.83,21.8432a4.1034,4.1034,0,0,1-.0093,7.1128l-45.3657,26.0354A4.1084,4.1084,0,0,1,160.0291,365.0533Z"/><path class="g" d="M167.565,310.4676a2.6037,2.6037,0,0,1,1.3015.3492l37.83,21.8432a2.6034,2.6034,0,0,1-.006,4.5127l-45.3651,26.0352a2.6025,2.6025,0,0,1-2.5981-.0034l-37.83-21.8433a2.6033,2.6033,0,0,1,.006-4.5127l45.3658-26.0352a2.6066,2.6066,0,0,1,1.296-.3457m0-3a5.6007,5.6007,0,0,0-2.789.7437L119.41,334.2465a5.6036,5.6036,0,0,0-.0128,9.7128l37.83,21.8433a5.6024,5.6024,0,0,0,5.5912.0073l45.3654-26.0351a5.6036,5.6036,0,0,0,.0128-9.7129l-37.83-21.8433a5.6011,5.6011,0,0,0-2.8022-.751Z"/></g><g class="k"><path class="e" d="M88.7562,405.9164a4.11,4.11,0,0,1-2.0518-.55l-37.83-21.8432a4.1035,4.1035,0,0,1,.0092-7.1128l45.3658-26.0354a4.1031,4.1031,0,0,1,4.0942.0053l37.83,21.8433a4.1035,4.1035,0,0,1-.0093,7.1128L90.7987,405.3719A4.1088,4.1088,0,0,1,88.7562,405.9164Z"/><path class="g" d="M96.2921,351.3309a2.6038,2.6038,0,0,1,1.3015.3491l37.83,21.8428a2.6037,2.6037,0,0,1-.0059,4.513L90.0523,404.0709a2.6041,2.6041,0,0,1-2.5979-.0032l-37.83-21.843a2.6036,2.6036,0,0,1,.0058-4.5129l45.3659-26.0352a2.6061,2.6061,0,0,1,1.296-.3457m0-3a5.6014,5.6014,0,0,0-2.7892.7437L48.1369,375.11a5.6036,5.6036,0,0,0-.0127,9.7129l37.83,21.843a5.6041,5.6041,0,0,0,5.5912.0074l45.3656-26.0352a5.6038,5.6038,0,0,0,.0127-9.7131l-37.83-21.8428a5.6,5.6,0,0,0-2.802-.751Z"/></g><g class="k"><path class="e" d="M216.0975,398.2643a4.1083,4.1083,0,0,1-2.0522-.55l-37.83-21.8433a4.1032,4.1032,0,0,1,.0093-7.1125L221.59,342.7233a4.104,4.104,0,0,1,4.0947.0053l37.83,21.8433a4.1034,4.1034,0,0,1-.01,7.1125L218.14,397.72A4.11,4.11,0,0,1,216.0975,398.2643Z"/><path class="g" d="M223.6329,343.6786a2.6036,2.6036,0,0,1,1.3016.3491l37.83,21.8433a2.6034,2.6034,0,0,1-.0059,4.5127l-45.3654,26.0351a2.6041,2.6041,0,0,1-2.5979-.0032l-37.83-21.8435a2.6034,2.6034,0,0,1,.0059-4.5127l45.3658-26.0351a2.6055,2.6055,0,0,1,1.2959-.3457m0-3a5.6008,5.6008,0,0,0-2.7892.7436l-45.3656,26.0352a5.6036,5.6036,0,0,0-.0127,9.7129l37.83,21.8432a5.6039,5.6039,0,0,0,5.5911.0074l45.3656-26.0352a5.6036,5.6036,0,0,0,.0127-9.7129l-37.83-21.8432a5.6009,5.6009,0,0,0-2.802-.751Z"/></g><g class="k"><path class="e" d="M144.8246,439.1273a4.1077,4.1077,0,0,1-2.0523-.55l-37.83-21.843a4.1035,4.1035,0,0,1,.0093-7.1128l45.3657-26.0352a4.1032,4.1032,0,0,1,4.0948.0054l37.83,21.843a4.1037,4.1037,0,0,1-.01,7.1128L146.867,438.5829A4.11,4.11,0,0,1,144.8246,439.1273Z"/><path class="g" d="M152.36,384.5419a2.6038,2.6038,0,0,1,1.3015.3491l37.83,21.8428a2.6036,2.6036,0,0,1-.0059,4.5129L146.12,437.2819a2.6047,2.6047,0,0,1-2.5979-.0032l-37.83-21.843a2.6036,2.6036,0,0,1,.0059-4.513l45.3658-26.0354a2.6079,2.6079,0,0,1,1.296-.3454m0-3a5.5993,5.5993,0,0,0-2.7892.7436L104.205,408.3207a5.6036,5.6036,0,0,0-.0128,9.7129l37.83,21.843a5.6044,5.6044,0,0,0,5.5912.0073l45.3656-26.0351a5.6036,5.6036,0,0,0,.0127-9.7129l-37.83-21.8431a5.6013,5.6013,0,0,0-2.802-.7509Z"/></g><polygon class="l" points="311.76 373.82 145.979 468.91 145.979 405.881 311.76 310.791 311.76 373.82"/><g class="f"><polygon class="e" points="311.76 373.82 145.979 468.91 145.979 405.881 311.76 310.791 311.76 373.82"/><polygon class="d" points="311.76 373.82 145.979 468.91 145.979 405.881 311.76 310.791 311.76 373.82"/><polyline class="d" points="1.76 387.075 168.76 289.075 168.412 289.02 404.596 425.392"/><path class="m" d="M278.4859,455.12,266.54,448.222l-.01-5.2528c.5342-6.6426-3.7422-13.0967-11.7383-17.7148-15.2949-8.8321-40.1836-8.8321-55.48,0-7.6455,4.416-11.8213,10.3388-11.7754,16.6924a1.1275,1.1275,0,0,0-.0078.1279l.0008,11.6344-10.816,6.2073a6.4232,6.4232,0,0,0-.0146,11.1335l43.3633,25.038a6.4232,6.4232,0,0,0,6.4089.0084l52.001-29.8433A6.4231,6.4231,0,0,0,278.4859,455.12Z"/><path class="d" d="M278.4714,466.253,226.47,496.0963a6.4234,6.4234,0,0,1-6.409-.0084L176.6981,471.05a6.4232,6.4232,0,0,1,.0146-11.1335l52.001-29.8433a6.4229,6.4229,0,0,1,6.409.0084L278.486,455.12A6.4232,6.4232,0,0,1,278.4714,466.253Z"/><path class="d" d="M188.5333,457.2293c.1592,5.5688,3.9186,11.11,11.278,15.359,15.0443,8.6866,39.436,8.6866,54.48,0,7.29-4.2091,11.0474-9.6855,11.2725-15.2011"/><ellipse class="i" cx="227.0515" cy="441.8494" rx="38.5235" ry="22.2434"/><ellipse class="d" cx="227.0515" cy="441.8494" rx="38.5235" ry="22.2434"/><line class="d" x1="188.528" y1="457.0747" x2="188.528" y2="442.0747"/><line class="d" x1="265.5294" y1="442.0747" x2="265.5294" y2="457.0747"/><path class="g" d="M205.6944,442.86c-5.2208,3.0145-8.0526,8.6927-3.151,9.9056s5.2827-3.05,10.5035-6.0647,9.103-3.6388,9.8032-4.8517S210.9153,439.8457,205.6944,442.86Z"/><path class="g" d="M225.3009,429.5179c-5.2208-3.0145-15.055-4.65-17.1556-1.82s5.2826,3.05,10.5034,6.0647,6.3021,5.2561,8.4028,5.66S230.5217,432.5323,225.3009,429.5179Z"/><path class="g" d="M248.4085,440.8386c5.2208-3.0145,8.0527-8.6927,3.1511-9.9057s-5.2827,3.05-10.5035,6.0647-9.103,3.6388-9.8032,4.8518S243.1877,443.8531,248.4085,440.8386Z"/><path class="g" d="M228.8021,454.1809c5.2208,3.0145,15.0549,4.65,17.1556,1.8194s-5.2826-3.05-10.5034-6.0647-6.3021-5.256-8.4028-5.66S223.5812,451.1664,228.8021,454.1809Z"/><ellipse class="g" cx="227.0515" cy="441.8494" rx="2.9708" ry="1.7154"/><path class="m" d="M360.4859,407.12,348.54,400.222l-.01-5.2528c.5342-6.6426-3.7422-13.0967-11.7383-17.7148-15.2949-8.8321-40.1836-8.8321-55.4805,0-7.6455,4.416-11.8213,10.3388-11.7754,16.6924a1.1275,1.1275,0,0,0-.0078.1279l.0008,11.6344-10.816,6.2073a6.4232,6.4232,0,0,0-.0146,11.1335l43.3633,25.038a6.4232,6.4232,0,0,0,6.4089.0084l52.001-29.8433A6.4231,6.4231,0,0,0,360.4859,407.12Z"/><path class="d" d="M360.4714,418.253,308.47,448.0963a6.4234,6.4234,0,0,1-6.409-.0084L258.6981,423.05a6.4232,6.4232,0,0,1,.0146-11.1335l52.001-29.8433a6.4229,6.4229,0,0,1,6.409.0084L360.486,407.12A6.4232,6.4232,0,0,1,360.4714,418.253Z"/><path class="d" d="M270.5333,409.2293c.1592,5.5688,3.9186,11.11,11.278,15.359,15.0443,8.6866,39.436,8.6866,54.48,0,7.29-4.2091,11.0474-9.6855,11.2725-15.2011"/><ellipse class="i" cx="309.0515" cy="393.8494" rx="38.5235" ry="22.2434"/><ellipse class="d" cx="309.0515" cy="393.8494" rx="38.5235" ry="22.2434"/><line class="d" x1="270.528" y1="409.0747" x2="270.528" y2="394.0747"/><line class="d" x1="347.5294" y1="394.0747" x2="347.5294" y2="409.0747"/><path class="g" d="M287.6944,394.86c-5.2208,3.0145-8.0526,8.6927-3.151,9.9056s5.2827-3.05,10.5035-6.0647,9.103-3.6388,9.8032-4.8517S292.9153,391.8457,287.6944,394.86Z"/><path class="g" d="M307.3009,381.5179c-5.2208-3.0145-15.055-4.65-17.1556-1.82s5.2826,3.05,10.5034,6.0647,6.3021,5.2561,8.4028,5.66S312.5217,384.5323,307.3009,381.5179Z"/><path class="g" d="M330.4085,392.8386c5.2208-3.0145,8.0527-8.6927,3.1511-9.9057s-5.2827,3.05-10.5035,6.0647-9.103,3.6388-9.8032,4.8518S325.1877,395.8531,330.4085,392.8386Z"/><path class="g" d="M310.8021,406.1809c5.2208,3.0145,15.0549,4.65,17.1556,1.8194s-5.2826-3.05-10.5034-6.0647-6.3021-5.256-8.4028-5.66S305.5812,403.1664,310.8021,406.1809Z"/><ellipse class="g" cx="309.0515" cy="393.8494" rx="2.9708" ry="1.7154"/><polygon class="d" points="145.76 445.075 237.76 499.075 404.76 402.075 311.76 349.82 145.76 445.075"/><ellipse class="d" cx="226.7604" cy="441.6295" rx="38.4803" ry="22.2185"/></g><polygon class="d" points="404.596 364.392 237.91 460.636 2.76 324.075 168.412 228.02 404.596 364.392"/><line class="i" x1="237.8443" y1="459.8107" x2="237.8443" y2="522.5706"/><ellipse class="d" cx="281.5833" cy="455.3295" rx="17.2061" ry="9.7342" transform="translate(-247.6453 536.1453) rotate(-66.9489)"/><path class="d" d="M284.57,439.1937c3.2351.7532,5.3962,4.2487,5.3962,9.6649,0,8.2532-5.018,17.8409-11.2079,21.4147a10.2027,10.2027,0,0,1-2.985,1.1875"/><ellipse class="d" cx="324.5712" cy="430.6547" rx="17.2061" ry="9.7342" transform="translate(-198.7847 560.6875) rotate(-66.9489)"/><path class="d" d="M327.5582,414.5189c3.2351.7532,5.3961,4.2487,5.3961,9.6649,0,8.2532-5.0179,17.8409-11.2078,21.4147a10.2032,10.2032,0,0,1-2.9851,1.1875"/><ellipse class="d" cx="368.3537" cy="405.2325" rx="17.2061" ry="9.7342" transform="translate(-148.7529 585.5062) rotate(-66.9489)"/><path class="d" d="M371.3407,389.0968c3.2352.7531,5.3962,4.2487,5.3962,9.6649,0,8.2532-5.0179,17.8409-11.2078,21.4146a10.2037,10.2037,0,0,1-2.9851,1.1876"/><polygon class="i" points="253.884 450.625 237.288 460.208 218.216 448.625 234.813 439.042 253.884 450.625"/><ellipse class="g" cx="236.3081" cy="449.3266" rx="4.2942" ry="2.4795"/><polygon class="i" points="38.831 325.152 22.235 334.735 3.163 323.152 19.76 313.569 38.831 325.152"/><ellipse class="g" cx="21.2552" cy="323.8531" rx="4.2942" ry="2.4795"/><polygon class="i" points="187.581 240.219 170.985 249.802 151.913 238.219 168.51 228.636 187.581 240.219"/><ellipse class="g" cx="170.0051" cy="238.9203" rx="4.2942" ry="2.4795"/><polygon class="i" points="403.76 365.015 387.164 374.598 368.092 363.015 384.689 353.432 403.76 365.015"/><ellipse class="g" cx="386.1841" cy="363.7164" rx="4.2942" ry="2.4795"/><polygon class="i" points="382.131 145.864 364.014 156.324 338.343 141.502 356.46 131.041 382.131 145.864"/><path class="i" d="M349.49,164.2229h16.5343l-3.18-159.6981C362.7738,2.8418,360.517,1.5,357.7571,1.5h0c-2.76,0-5.0167,1.3418-5.0874,3.0248Z"/><polygon class="i" points="382.559 146.035 382.559 157.281 372.096 151.658 382.559 146.035"/><polygon class="e" points="404.032 169.926 168.373 33.857 1.5 130.21 1.745 130.352 1.5 130.327 1.5 193.04 237.949 329.566 404.822 233.213 404.88 170.01 404.032 169.926"/><g class="k"><polyline class="d" points="1.76 193.075 168.412 95.02 404.596 231.392"/><line class="d" x1="168.7604" y1="34.0747" x2="168.7604" y2="95.0747"/></g><polyline class="d" points="404.88 170.01 404.822 233.213 237.949 329.566 1.5 193.04 1.5 130.327"/><g class="f"><path class="g" d="M103.8047,229.117l132.34,76.4128a5.3564,5.3564,0,0,0,5.3563,0l27.9288-16.1262a5.3559,5.3559,0,0,0,0-9.2766L137.09,203.7142a5.3559,5.3559,0,0,0-5.3563,0L103.8047,219.84A5.356,5.356,0,0,0,103.8047,229.117Z"/><path class="g" d="M146.9666,204.1953,279.306,280.6081a5.3559,5.3559,0,0,0,5.3563,0l27.9289-16.1261a5.356,5.356,0,0,0,0-9.2766L180.2518,178.7926a5.3561,5.3561,0,0,0-5.3564,0l-27.9288,16.1261A5.3559,5.3559,0,0,0,146.9666,204.1953Z"/><path class="g" d="M113.2592,142.01l32.8617,18.9743a5.3559,5.3559,0,0,0,5.3563,0l41.494-23.9587a5.356,5.356,0,0,0,0-9.2766L160.11,108.7746a5.3561,5.3561,0,0,0-5.3564,0l-41.494,23.9586A5.3561,5.3561,0,0,0,113.2592,142.01Z"/><path class="g" d="M197.9386,173.34l133.5727,77.1249a5.3559,5.3559,0,0,0,5.3563,0l26.2846-15.1768a5.356,5.356,0,0,0,0-9.2766L229.58,148.8866a5.3559,5.3559,0,0,0-5.3563,0l-26.2847,15.1767A5.356,5.356,0,0,0,197.9386,173.34Z"/><path class="g" d="M33.1015,188.2929l45.6047,26.3322a5.3559,5.3559,0,0,0,5.3563,0l40.2608-23.2466a5.3561,5.3561,0,0,0,0-9.2767L78.7186,155.77a5.3559,5.3559,0,0,0-5.3563,0L33.1015,179.0163A5.356,5.356,0,0,0,33.1015,188.2929Z"/><g class="k"><path class="e" d="M238.8226,304.7474a3.8616,3.8616,0,0,1-1.9282-.5166l-132.34-76.4128a3.8561,3.8561,0,0,1,0-6.6785l27.9292-16.1262a3.856,3.856,0,0,1,3.856,0l132.34,76.4128a3.856,3.856,0,0,1,0,6.6785L240.75,304.2306A3.8593,3.8593,0,0,1,238.8226,304.7474Z"/><path class="g" d="M134.4117,205.9965a2.3588,2.3588,0,0,1,1.1781.3159l132.34,76.4126a2.3559,2.3559,0,0,1,0,4.08L240,302.9315a2.3542,2.3542,0,0,1-2.3559,0L105.3048,226.5189a2.356,2.356,0,0,1,0-4.0806l27.9292-16.1259a2.3568,2.3568,0,0,1,1.1777-.3159m0-3a5.352,5.352,0,0,0-2.6782.7177L103.8047,219.84a5.3562,5.3562,0,0,0,0,9.2769L236.1441,305.53a5.3559,5.3559,0,0,0,5.3564,0l27.9289-16.126a5.3562,5.3562,0,0,0,0-9.2769L137.09,203.7142a5.3519,5.3519,0,0,0-2.6781-.7177Z"/><path class="e" d="M281.9842,279.8258a3.863,3.863,0,0,1-1.9282-.5166L147.7166,202.8964a3.8561,3.8561,0,0,1,0-6.6785l27.9288-16.1262a3.8558,3.8558,0,0,1,3.8564,0l132.3394,76.4131a3.8561,3.8561,0,0,1,0,6.6785l-27.9288,16.126A3.8611,3.8611,0,0,1,281.9842,279.8258Z"/><path class="g" d="M177.5736,181.0751a2.3577,2.3577,0,0,1,1.1781.3154l132.34,76.4131a2.3556,2.3556,0,0,1,0,4.08L283.1626,278.01a2.3579,2.3579,0,0,1-2.3565,0l-132.34-76.4131a2.3555,2.3555,0,0,1,0-4.08l27.9285-16.1265a2.3608,2.3608,0,0,1,1.1785-.3154m0-3a5.3557,5.3557,0,0,0-2.6782.7173l-27.929,16.1264a5.3558,5.3558,0,0,0,0,9.2764l132.34,76.4131a5.3583,5.3583,0,0,0,5.3563,0l27.9289-16.1265a5.3558,5.3558,0,0,0,0-9.2764l-132.3394-76.413a5.3556,5.3556,0,0,0-2.6781-.7173Z"/><path class="e" d="M148.7992,160.2018a3.86,3.86,0,0,1-1.9283-.5166l-32.8618-18.9744a3.8561,3.8561,0,0,1,0-6.6785l41.4942-23.9587a3.8568,3.8568,0,0,1,3.8564,0L192.221,129.048a3.8554,3.8554,0,0,1,0,6.6784l-41.4936,23.9588A3.86,3.86,0,0,1,148.7992,160.2018Z"/><path class="g" d="M157.4314,111.057a2.36,2.36,0,0,1,1.1781.3159L191.471,130.347a2.3559,2.3559,0,0,1,0,4.0806l-41.4941,23.9585a2.3543,2.3543,0,0,1-2.356,0l-32.8615-18.9746a2.3555,2.3555,0,0,1,0-4.08l41.4941-23.9585a2.3594,2.3594,0,0,1,1.1779-.3159m0-3a5.3521,5.3521,0,0,0-2.6782.7178l-41.4941,23.9585a5.3557,5.3557,0,0,0,0,9.2763l32.8616,18.9746a5.3551,5.3551,0,0,0,5.3563,0l41.4941-23.9584a5.3562,5.3562,0,0,0,0-9.2769L160.11,108.7748a5.352,5.352,0,0,0-2.6781-.7178Z"/><path class="e" d="M334.1893,249.6825a3.863,3.863,0,0,1-1.9282-.5166l-133.5723-77.125a3.8556,3.8556,0,0,1,0-6.6785l26.2847-15.1767a3.8559,3.8559,0,0,1,3.8559,0L362.4022,227.31a3.8561,3.8561,0,0,1,0,6.6785l-26.2847,15.1767A3.86,3.86,0,0,1,334.1893,249.6825Z"/><path class="g" d="M226.9015,151.1688a2.36,2.36,0,0,1,1.1779.3159L361.6521,228.61a2.3556,2.3556,0,0,1,0,4.08l-26.2848,15.1768a2.3543,2.3543,0,0,1-2.356,0l-133.5725-77.125a2.3555,2.3555,0,0,1,0-4.08l26.2847-15.1768a2.3592,2.3592,0,0,1,1.178-.3159m0-3a5.3523,5.3523,0,0,0-2.6781.7178l-26.2845,15.1767a5.3558,5.3558,0,0,0,0,9.2764l133.5726,77.125a5.3551,5.3551,0,0,0,5.3563,0l26.2846-15.1767a5.3558,5.3558,0,0,0,0-9.2764L229.58,148.8866a5.3528,5.3528,0,0,0-2.6783-.7178Z"/><path class="e" d="M81.3841,213.8426a3.8612,3.8612,0,0,1-1.9277-.5166l-45.605-26.3322a3.8561,3.8561,0,0,1,0-6.6785l40.2608-23.2466a3.8568,3.8568,0,0,1,3.8564,0l45.6045,26.3323a3.8556,3.8556,0,0,1,0,6.6785L83.3123,213.326A3.8616,3.8616,0,0,1,81.3841,213.8426Z"/><path class="g" d="M76.04,158.0521a2.36,2.36,0,0,1,1.1781.3159L122.8233,184.7a2.3554,2.3554,0,0,1,0,4.08l-40.261,23.2466a2.3542,2.3542,0,0,1-2.3559,0l-45.6046-26.332a2.3555,2.3555,0,0,1,0-4.08L74.8625,158.368a2.3594,2.3594,0,0,1,1.1779-.3159m0-3a5.352,5.352,0,0,0-2.6781.7178L33.1015,179.0165a5.3557,5.3557,0,0,0,0,9.2763l45.6046,26.3321a5.3559,5.3559,0,0,0,5.3564,0l40.2608-23.2466a5.3557,5.3557,0,0,0,0-9.2764L78.7186,155.77a5.3521,5.3521,0,0,0-2.6782-.7178Z"/></g></g><polygon class="d" points="404.822 170.383 237.949 266.736 1.5 130.21 168.373 33.857 404.822 170.383"/><line class="i" x1="237.8833" y1="265.9089" x2="237.8833" y2="328.7394"/><path class="i" d="M362.7627,4.0634s-3.4427,5.1837-10.0112,0"/><polygon class="i" points="104.172 84.504 87.574 94.087 57.813 76.612 74.411 67.029 104.172 84.504"/><ellipse class="g" cx="75.0202" cy="76.5909" rx="4.2946" ry="2.4797"/><polygon class="i" points="348.88 226.699 332.282 236.282 302.521 218.807 319.119 209.224 348.88 226.699"/><ellipse class="g" cx="331.3022" cy="225.3999" rx="4.2946" ry="2.4797"/><polygon class="i" points="271.106 102.691 287.703 112.275 317.465 94.8 300.867 85.217 271.106 102.691"/><ellipse class="g" cx="300.2573" cy="94.7787" rx="4.2946" ry="2.4797"/><polygon class="i" points="92.535 206.858 109.133 216.441 138.894 198.966 122.296 189.383 92.535 206.858"/><ellipse class="g" cx="110.1126" cy="205.5587" rx="4.2946" ry="2.4797"/></svg>