<svg xmlns="http://www.w3.org/2000/svg" viewBox="0 0 553.3184 433.5674"><defs><style>.a,.d,.g{fill:none;stroke-width:3px;}.a,.d{stroke:#606060;}.a{stroke-linecap:round;stroke-linejoin:round;}.b,.c,.e,.i{fill:#606060;}.c{font-size:33px;}.c,.e{font-family:Lato-Italic, Lato;font-style:italic;}.d{stroke-miterlimit:10;}.e{font-size:30px;}.f{fill:#d91519;}.g{stroke:#d91519;stroke-linejoin:bevel;}.h{opacity:0.5;}.i{opacity:0.3;}</style></defs><title>compuerta</title><path class="a" d="M324.5,432.0674c-11.2737,0,2.8718-44.6249,4.2274-66.7964"/><polygon class="b" points="337.348 365.6 324.501 353.067 320.068 370.459 337.348 365.6"/><path class="a" d="M342.5,353.0674c8.9557,0-1.0259,44.0014-2.51,66.3267"/><polygon class="b" points="331.237 418.093 342.499 432.067 348.972 415.328 331.237 418.093"/><text class="c" transform="translate(370.3867 404.4203)">Flujo de agua</text><line class="d" x1="160.5896" y1="311.007" x2="262.0161" y2="311.007"/><path class="b" d="M262.0161,317.7746a6.7676,6.7676,0,1,0-6.7674-6.7676A6.7683,6.7683,0,0,0,262.0161,317.7746Z"/><text class="e" transform="translate(52.2783 317.206)">Bisagra</text><polygon class="f" points="265.64 318.602 270.211 323.172 375.699 221.75 371.297 217.347 265.64 318.602"/><rect class="f" x="255.2202" y="318.641" width="10.2406" height="8.6651"/><polygon class="g" points="265.461 315.84 269.426 311.795 271.185 318.641 265.461 315.84"/><polygon class="g" points="260.341 316.278 265.067 316.278 262.704 322.974 260.341 316.278"/><path class="g" d="M371.5679,219.3523s-85.0679-60.2849-169.6-47.342"/><circle class="f" cx="194.8472" cy="174.3023" r="8.1861"/><line class="d" x1="160.3196" y1="174.3023" x2="187.0807" y2="174.3023"/><path class="b" d="M187.0807,181.07a6.7676,6.7676,0,1,0-6.7675-6.7676A6.7682,6.7682,0,0,0,187.0807,181.07Z"/><text class="e" transform="translate(26.4956 163.7851)">Elemento <tspan x="-19.2593" y="36">de bloqueo</tspan></text><line class="d" x1="160.5896" y1="253.2325" x2="334.3882" y2="253.2325"/><circle class="b" cx="334.3882" cy="253.2325" r="6.7676"/><text class="e" transform="translate(3.4355 259.4316)">Compuerta</text><g class="h"><polygon class="i" points="411.587 330.063 254.826 330.063 254.826 25.236 411.587 0.028 411.587 330.063"/><line class="d" x1="411.9805" x2="411.9805" y2="330.0632"/><line class="d" x1="255.2202" y1="330.0632" x2="255.2202" y2="178.8171"/><line class="d" x1="255.2202" y1="165.8193" x2="255.2202" y2="25.2077"/><polygon class="b" points="412.198 152.117 412.003 144.972 426.698 137.323 426.698 63.699 412.003 53.595 412.935 46.91 433 60.332 433 141.12 412.198 152.117"/><polygon class="b" points="254.324 152.121 233.39 141.126 233.39 60.32 253.722 46.899 254.455 53.595 239.692 63.711 239.692 137.317 255.242 145.76 254.324 152.121"/></g></svg>