<svg xmlns="http://www.w3.org/2000/svg" xmlns:xlink="http://www.w3.org/1999/xlink" viewBox="0 0 562.4897 837.4164"><defs><style>.a,.f,.i,.j{fill:none;}.a,.h,.i,.j{stroke:#606060;}.a{stroke-linecap:round;stroke-linejoin:round;}.a,.e,.f,.i,.k{stroke-width:3px;}.b,.c,.h{fill:#606060;}.c{font-size:33px;font-family:Lato-Italic, Lato;font-style:italic;}.d{fill:#00a3a5;}.e,.k{fill:#d91519;}.e,.f{stroke:#d91519;}.e,.f,.h,.i,.j,.k{stroke-miterlimit:10;}.g{opacity:0.5;}.h{opacity:0.6;}.j{stroke-width:6px;}.k{stroke:#fff;}.l{fill:url(#a);}</style><radialGradient id="a" cx="298.4385" cy="526.4819" r="262.1953" gradientUnits="userSpaceOnUse"><stop offset="0" stop-color="#00a3a5"/><stop offset="0.1475" stop-color="#00a3a5" stop-opacity="0.8078"/><stop offset="0.4379" stop-color="#00a3a5" stop-opacity="0.4629"/><stop offset="0.6871" stop-color="#00a3a5" stop-opacity="0.2115"/><stop offset="0.8825" stop-color="#00a3a5" stop-opacity="0.0571"/><stop offset="1" stop-color="#00a3a5" stop-opacity="0"/></radialGradient></defs><title>comp_3</title><line class="a" x1="393.3643" y1="416.9139" x2="393.3643" y2="259.4164"/><polygon class="b" points="402.34 262.043 393.365 246.5 384.39 262.043 402.34 262.043"/><text class="c" transform="translate(417.3727 351.4153)">Extracción</text><path class="d" d="M214.1143,714.4164h122v-345.5c-14.6458,4.9973-96.3152,5.55-122-1.1347Z"/><line class="e" x1="211.941" y1="707.6277" x2="337.1143" y2="707.6277"/><path class="f" d="M314.5094,706.8705s-25.8951-77.4541-109.9545-93.9436"/><circle class="e" cx="197.0106" cy="610.198" r="7.9447"/><g class="g"><rect class="h" x="212.2768" y="78.5" width="125" height="636"/><rect class="i" x="212.2768" y="78.5" width="125" height="636"/><polyline class="j" points="337.31 521.805 352.277 531.816 352.277 593.722 336.943 601.829"/><polyline class="j" points="212.445 521.805 197.277 531.816 197.277 593.722 212.711 601.829"/><polyline class="j" points="337.31 213.146 352.277 223.158 352.277 285.064 336.943 293.17"/><polyline class="j" points="212.445 213.146 197.277 223.158 197.277 285.064 212.711 293.17"/></g><rect class="e" x="250.2768" y="1.5" width="45" height="69"/><rect class="e" x="244.2768" y="70.5" width="56" height="16"/><path class="k" d="M353.7768,39.5h-75.5a5.5,5.5,0,0,1-5.5-5.5h0a5.5,5.5,0,0,1,5.5-5.5h75.5Z"/><path class="l" d="M39.5757,491.4019c22.405,10.2885,49.5617,13.6386,74.7506,9.2213,25.34-4.4439,48.8335-16.3993,74.7647-16.3009,36.4114.1382,67.3943,23.9341,103.7556,25.4826,46.7559,1.9911,86.9927-33.0058,133.699-30.3628,22.3619,1.2654,42.3438,11.0584,62.7918,18.4741s44.7251,12.4891,64.7769,4.399V837.4164H40.1318Z"/><text class="c" transform="translate(35.7881 397.3641)">Muestra<tspan x="6.6328" y="39.5996">de agua</tspan><tspan x="-35.7881" y="79.2002">compuesta</tspan></text><line class="i" x1="169.1143" y1="389.4164" x2="227.6143" y2="389.5734"/><path class="b" d="M227.5961,396.3409a6.7676,6.7676,0,1,0-6.7493-6.7856A6.768,6.768,0,0,0,227.5961,396.3409Z"/></svg>