<svg xmlns="http://www.w3.org/2000/svg" viewBox="0 0 318.1973 316.5"><defs><style>.a,.e{fill:none;}.a,.b,.e{stroke:#d91519;stroke-width:3px;}.a,.b{stroke-linecap:round;stroke-linejoin:round;}.b{fill:#fff;}.b,.d{opacity:0.5;}.c,.d{fill:#d91519;}.e{stroke-miterlimit:10;}.f{font-size:33px;fill:#606060;font-family:Lato-Italic, Lato;font-style:italic;}</style></defs><title>comp_2</title><path class="a" d="M149,74v46s12.0331,11.0461,12.0331,35.1193S149,188.78,149,188.78V237.5h58.5"/><line class="a" x1="69.1736" y1="206.0211" x2="141.2436" y2="208.8239"/><line class="a" x1="69.259" y1="214.3159" x2="141.329" y2="217.1187"/><line class="a" x1="69.3445" y1="222.6108" x2="141.4145" y2="225.4135"/><line class="a" x1="69.43" y1="230.9056" x2="141.5" y2="233.7084"/><line class="a" x1="69.0881" y1="79.7263" x2="141.1581" y2="82.5291"/><line class="a" x1="69.1736" y1="88.0211" x2="141.2436" y2="90.8239"/><line class="a" x1="69.259" y1="96.3159" x2="141.329" y2="99.1187"/><line class="a" x1="69.3445" y1="104.6108" x2="141.4145" y2="107.4135"/><path class="a" d="M144.5986,116.1431s6.92,8.4775,6.92,39.051-6.92,39.051-6.92,39.051-6.92-14.19-6.92-39.3282S144.5986,116.1431,144.5986,116.1431Z"/><path class="a" d="M64.8392,116.1431s6.92,8.4775,6.92,39.051-6.92,39.051-6.92,39.051-6.92-14.19-6.92-39.3282S64.8392,116.1431,64.8392,116.1431Z"/><line class="a" x1="64.2667" y1="114.8077" x2="144.0261" y2="114.8077"/><line class="a" x1="64.2667" y1="193.8077" x2="144.0261" y2="193.8077"/><path class="b" d="M110.5,1.5h-11s-3.64,37.3909-3.64,83.917S99.2234,166.5,99.2234,166.5H110.5s3.2978-39.0853,3.2978-82.5C113.7978,40.5287,110.5,1.5,110.5,1.5Z"/><circle class="c" cx="104.5229" cy="153.9853" r="2.7161"/><path class="a" d="M257,159.9624v-11s-37.3909-3.64-83.917-3.64S92,148.6858,92,148.6858v11.2766s39.0853,3.2978,82.5,3.2978C217.9713,163.26,257,159.9624,257,159.9624Z"/><circle class="d" cx="104.5229" cy="153.9853" r="2.7161"/><polyline class="a" points="2 315 2 206.5 61.5 206.5"/><polyline class="a" points="148.5 206.5 208 206.5 208 315"/><path class="a" d="M1.5,237.5H62V188.78s-12.0331-9.5869-12.0331-33.66S62,120,62,120V74"/><line class="a" x1="1.5" y1="215.5" x2="61.5" y2="215.5"/><line class="a" x1="148.5" y1="215.5" x2="207.5" y2="215.5"/><path class="e" d="M135.0494,41.4268s76.0177-5.2959,80.3594,73.4119"/><polygon class="c" points="210.814 111.618 215.318 113.359 219.697 111.326 215.602 122 210.814 111.618"/><text class="f" transform="translate(230.6162 116.9119)">Cerrar</text></svg>