<svg xmlns="http://www.w3.org/2000/svg" xmlns:xlink="http://www.w3.org/1999/xlink" viewBox="0 0 668.2597 844.4164"><defs><style>.a{fill:#00a3a5;}.b,.h{fill:#d91519;}.b,.c{stroke:#d91519;}.b,.c,.e,.f,.g,.h{stroke-miterlimit:10;}.b,.c,.f,.h,.k,.l{stroke-width:3px;}.c,.f,.g,.k,.l{fill:none;}.d{opacity:0.5;}.e,.i,.j{fill:#606060;}.e,.f,.g,.k{stroke:#606060;}.e{opacity:0.6;}.g{stroke-width:6px;}.h{stroke:#fff;}.i{font-size:33px;font-family:Lato-Italic, Lato;font-style:italic;}.k,.l{stroke-linecap:round;stroke-linejoin:round;}.l{stroke:#00a3a5;}.m{fill:url(#a);}</style><radialGradient id="a" cx="258.8628" cy="451.9819" r="262.1953" gradientUnits="userSpaceOnUse"><stop offset="0" stop-color="#00a3a5"/><stop offset="0.1475" stop-color="#00a3a5" stop-opacity="0.8078"/><stop offset="0.4379" stop-color="#00a3a5" stop-opacity="0.4629"/><stop offset="0.6871" stop-color="#00a3a5" stop-opacity="0.2115"/><stop offset="0.8825" stop-color="#00a3a5" stop-opacity="0.0571"/><stop offset="1" stop-color="#00a3a5" stop-opacity="0"/></radialGradient></defs><title>pun_2</title><path class="a" d="M175.5385,763.4164h123V543.8314c-14.0058,4.9973-29.2542,8.6554-45.2677,7.9734-27.776-1.1828-52.4159-15.3385-77.7323-22.023Z"/><line class="b" x1="174.3653" y1="756.1277" x2="277.4778" y2="701.576"/><path class="c" d="M264.6735,707.4935S227.9293,664.7908,148.979,653.37"/><circle class="b" cx="141.0344" cy="654.4863" r="7.9447"/><g class="d"><rect class="e" x="174.7011" y="127" width="125" height="636"/><rect class="f" x="174.7011" y="127" width="125" height="636"/><polyline class="g" points="299.734 570.305 314.701 580.316 314.701 642.222 299.367 650.329"/><polyline class="g" points="174.869 570.305 159.701 580.316 159.701 642.222 175.135 650.329"/><polyline class="g" points="299.734 261.646 314.701 271.658 314.701 333.564 299.367 341.67"/><polyline class="g" points="174.869 261.646 159.701 271.658 159.701 333.564 175.135 341.67"/></g><rect class="b" x="212.7011" y="50" width="45" height="69"/><rect class="b" x="206.7011" y="119" width="56" height="16"/><path class="h" d="M240.7011,1.5V77a5.5,5.5,0,0,1-5.5,5.5h0a5.5,5.5,0,0,1-5.5-5.5V1.5Z"/><text class="i" transform="translate(457.7612 31.9545)">Válvula<tspan x="0" y="39.5996">abierta</tspan></text><line class="f" x1="432.8707" y1="24.164" x2="241.794" y2="24.164"/><path class="j" d="M241.794,17.3964a6.7676,6.7676,0,1,0,6.7675,6.7676A6.7683,6.7683,0,0,0,241.794,17.3964Z"/><line class="k" x1="364.0385" y1="763.164" x2="327.5385" y2="763.164"/><polygon class="j" points="330.165 754.189 314.622 763.163 330.165 772.139 330.165 754.189"/><text class="i" transform="translate(377.797 773.9154)">Profundidad deseada</text><path class="l" d="M162.0385,842.9164c37.0046,0,54.0135-22.958,58.0371-49.1172"/><polygon class="a" points="228.58 797.203 221.039 780.916 210.703 795.589 228.58 797.203"/><path class="l" d="M313.0385,842.9164c-37.0046,0-54.0134-22.958-58.037-49.1172"/><polygon class="a" points="264.375 795.589 254.039 780.916 246.498 797.203 264.375 795.589"/><path class="m" d="M0,416.9019c22.405,10.2885,49.5617,13.6386,74.7506,9.2213,25.34-4.4438,48.8335-16.3993,74.7647-16.3009,36.4114.1382,67.3943,23.9341,103.7555,25.4826,46.756,1.9911,86.9927-33.0058,133.699-30.3628,22.362,1.2654,42.3438,11.0584,62.7918,18.4741s44.7251,12.4891,64.7769,4.399V762.9164H.556Z"/></svg>