<svg xmlns="http://www.w3.org/2000/svg" xmlns:xlink="http://www.w3.org/1999/xlink" viewBox="0 0 554.4787 801.4164"><defs><style>.a{fill:#00a3a5;}.b,.h{fill:#d91519;}.b,.c{stroke:#d91519;}.b,.c,.e,.f,.g,.h,.m,.n{stroke-miterlimit:10;}.b,.c,.f,.h,.j{stroke-width:3px;}.c,.f,.g,.j,.n{fill:none;}.d{opacity:0.5;}.e,.k,.l{fill:#606060;}.e,.f,.g,.j{stroke:#606060;}.e{opacity:0.6;}.g{stroke-width:6px;}.h{stroke:#fff;}.i{fill:url(#a);}.j{stroke-linecap:round;stroke-linejoin:round;}.l{font-size:33px;font-family:Lato-Italic, Lato;font-style:italic;}.m{fill:#fff;}.m,.n{stroke:#000;}</style><radialGradient id="a" cx="258.8628" cy="490.4819" r="262.1953" gradientUnits="userSpaceOnUse"><stop offset="0" stop-color="#00a3a5"/><stop offset="0.1475" stop-color="#00a3a5" stop-opacity="0.8078"/><stop offset="0.4379" stop-color="#00a3a5" stop-opacity="0.4629"/><stop offset="0.6871" stop-color="#00a3a5" stop-opacity="0.2115"/><stop offset="0.8825" stop-color="#00a3a5" stop-opacity="0.0571"/><stop offset="1" stop-color="#00a3a5" stop-opacity="0"/></radialGradient></defs><title>pun_3</title><path class="a" d="M175.5385,714.9164h123V379.3314c-14.0058,4.9973-29.2542,8.6554-45.2677,7.9734-27.776-1.1828-52.4159-15.3385-77.7323-22.0231Z"/><line class="b" x1="174.3653" y1="707.6277" x2="298.5385" y2="707.9991"/><path class="c" d="M276.9356,707.1971s-12.3345-54.9683-76.63-102.1882"/><circle class="b" cx="192.7704" cy="602.2561" r="7.9447"/><g class="d"><rect class="e" x="174.7011" y="78.5" width="125" height="636"/><rect class="f" x="174.7011" y="78.5" width="125" height="636"/><polyline class="g" points="299.734 521.805 314.701 531.816 314.701 593.722 299.367 601.829"/><polyline class="g" points="174.869 521.805 159.701 531.816 159.701 593.722 175.135 601.829"/><polyline class="g" points="299.734 213.146 314.701 223.158 314.701 285.064 299.367 293.17"/><polyline class="g" points="174.869 213.146 159.701 223.158 159.701 285.064 175.135 293.17"/></g><rect class="b" x="212.7011" y="1.5" width="45" height="69"/><rect class="b" x="206.7011" y="70.5" width="56" height="16"/><path class="h" d="M316.2011,39.5h-75.5a5.5,5.5,0,0,1-5.5-5.5h0a5.5,5.5,0,0,1,5.5-5.5h75.5Z"/><path class="i" d="M0,455.4019c22.405,10.2885,49.5617,13.6386,74.7506,9.2213,25.34-4.4439,48.8335-16.3993,74.7647-16.3009,36.4114.1382,67.3943,23.9341,103.7555,25.4826,46.756,1.9911,86.9927-33.0058,133.699-30.3628,22.362,1.2654,42.3438,11.0584,62.7918,18.4741s44.7251,12.4891,64.7769,4.399V801.4164H.556Z"/><line class="j" x1="360.5584" y1="410.6546" x2="360.5584" y2="253.1571"/><polygon class="k" points="369.534 255.783 360.559 240.241 351.584 255.783 369.534 255.783"/><text class="l" transform="translate(386.5667 345.1561)">Extracción</text><rect class="m" x="454.8108" y="129.7619" width="69.884" height="128.4518" rx="4.7195" transform="translate(295.765 683.7406) rotate(-90)"/><path class="n" d="M429.8957,166.256v15.702a2.0818,2.0818,0,0,0,2.0818,2.0819h0a2.427,2.427,0,0,1,2.4271,2.4271v15.0416a2.4273,2.4273,0,0,1-2.4273,2.4273h0a2.0817,2.0817,0,0,0-2.0818,2.0818V221.72a4.1422,4.1422,0,0,0,4.1422,4.1422h111.43A4.1422,4.1422,0,0,0,549.61,221.72V166.256a4.1422,4.1422,0,0,0-4.1422-4.1422h-111.43A4.1421,4.1421,0,0,0,429.8957,166.256Z"/><path d="M504.6826,169.8779c.148.0319.2952.0679.4441.0951A5.9221,5.9221,0,0,1,507.96,171.36a5.9832,5.9832,0,0,1,1.4167,1.82,5.7843,5.7843,0,0,1,.59,1.9078,6.44,6.44,0,0,1,.03,1.4156,5.802,5.802,0,0,1-.77,2.4072,6.0173,6.0173,0,0,1-2.9233,2.5826,5.4094,5.4094,0,0,1-1.7132.4312.99.99,0,0,0-.108.0216c-.0038.0832-.01.1589-.01.2345q0,3.4482.0019,6.8963,0,4.688-.0024,9.3758c0,2.0749.0087,4.15-.0024,6.2247a7.7828,7.7828,0,0,1-1.6764,4.9248,7.698,7.698,0,0,1-4.608,2.86,7.3216,7.3216,0,0,1-1.4816.1548q-8.1361-.0053-16.2724-.0022-2.8411,0-5.6824-.0024a6.5649,6.5649,0,0,1-1.7732-.2823,7.7307,7.7307,0,0,1-3.7465-2.3515,7.499,7.499,0,0,1-1.6441-2.9734,12.4862,12.4862,0,0,1-.2622-1.2558,11.1637,11.1637,0,0,1-.0513-1.9061q-.0081-6.7157-.0016-13.4313,0-3.6547-.0024-7.31a7.3773,7.3773,0,0,1,.4365-2.4448,7.5681,7.5681,0,0,1,1.42-2.4649,7.9847,7.9847,0,0,1,2.07-1.727,8.0889,8.0889,0,0,1,2.6505-.9467,5.6253,5.6253,0,0,1,.6654-.0674c1.5131-.0859,3.0277-.0312,4.5416-.0383,1.9027-.009,3.8055-.0045,5.7082-.0044q4.3779,0,8.7559.0023,2.0793.0006,4.1584,0h.2479c.0657-.3468.1126-.6769.1922-.9989a5.9362,5.9362,0,0,1,1.1391-2.2879,6.0263,6.0263,0,0,1,2.3353-1.78,5.2621,5.2621,0,0,1,1.5828-.4252.5175.5175,0,0,0,.116-.0407Zm-6.7555,6.3115H487.8543q-6.3677,0-12.7353.0024a6.569,6.569,0,0,0-.9251.0569,7.3269,7.3269,0,0,0-2.0193.5835,7.1373,7.1373,0,0,0-3.7608,4.1407,7.5881,7.5881,0,0,0-.3987,2.5026q-.0039,5.2956-.0011,10.5912c0,2.3335-.005,4.667,0,7.0005.0029,1.3509.0221,2.7017.0317,4.0526a5.6019,5.6019,0,0,0,.1667,1.2472,7.1076,7.1076,0,0,0,6.938,5.4966c2.6176.0167,5.2353.0047,7.853.0049,3.1,0,6.2.0071,9.3-.0019,1.5658-.0045,3.1319.0389,4.6975-.03a6.8062,6.8062,0,0,0,1.7163-.3074,7.1008,7.1008,0,0,0,4.9725-6.72c.02-2.3506.0043-4.7015.0043-7.0522q0-3.6165.0006-7.233,0-4.1849-.0008-8.37c0-.0656-.0117-.1312-.0184-.2021a6.0776,6.0776,0,0,1-5.7478-5.7621Zm10.2146-1.4c-1.0145-.0231-2,.0122-3.01-.0167v-3.0049a19.14,19.14,0,0,0-2.2958.0166c0,.3312,0,.666,0,1.0008,0,.3271.0049.6542,0,.9812-.0045.3316.0152.6644-.0163,1.0194h-3.0028a17.9916,17.9916,0,0,0,.0114,2.2744h3.0085v2.9947c.7784.0019,1.5295.0161,2.2958-.005,0-.2788,0-.5273,0-.7758,0-.241.0014-.482.0013-.723,0-.25-.0035-.4993-.0011-.7489.0023-.2452-.0127-.4917.0124-.751.5184,0,1.008,0,1.4976,0,.4957,0,.9915.0063,1.4985-.0048V174.79Z"/><path d="M480.3145,183.79l5.8364,15.9807.0353-.0068V183.795c.0729-.0065.1307-.0163.1884-.0162,2.6087,0,5.2174-.0109,7.8259.0074a7.0071,7.0071,0,0,1,3.3421.81,5.7183,5.7183,0,0,1,2.653,2.9478,6.4777,6.4777,0,0,1,.424,1.7162,6.1343,6.1343,0,0,1,.0311,1.1579,5.3918,5.3918,0,0,1-1.4193,3.4,5.6421,5.6421,0,0,1-2.14,1.4361c-.0236.009-.0459.0215-.0967.0456.2327.4864.495.954.737,1.4312.2447.4825.4994.96.7481,1.44.2527.4882.5026.978.7553,1.4663.2487.4805.5.96.7491,1.44s.4971.9613.7454,1.4421c.247.4783.4938.9566.7528,1.4585h-4.6037l-3.9211-8.003h-2.7767a1.8007,1.8007,0,0,0-.02.1925q-.0012,2.3505,0,4.7008,0,1.4592.0011,2.9185c0,.058-.0086.1161-.0143.1889h-6.61l-1.181-3.5369H475.218l-1.2161,3.5391h-4.1092c.0371-.2449,7.1993-19.9486,7.3393-20.1891Zm9.8539,8.839a.621.621,0,0,0,.0989.02c1.2547-.0107,2.5094-.0243,3.7642-.0321a2.8992,2.8992,0,0,0,1.076-.2211,2.422,2.422,0,0,0,1.3762-1.3505,2.7861,2.7861,0,0,0,.1851-1.2862,2.4068,2.4068,0,0,0-1.06-1.9107,2.781,2.781,0,0,0-1.598-.4969c-1.2214-.0125-2.4429-.0061-3.6644-.0061a1.5472,1.5472,0,0,0-.1784.0208Zm-11.29-2.7338-.0475-.002-2.4928,7.18c.3687.0408,4.7476.0255,4.9468-.0212Z"/></svg>