<svg xmlns="http://www.w3.org/2000/svg" xmlns:xlink="http://www.w3.org/1999/xlink" viewBox="0 0 530.3032 716"><defs><style>.a,.g{fill:#d91519;}.a,.b{stroke:#d91519;}.a,.b,.d,.e,.f,.g{stroke-miterlimit:10;}.a,.b,.e,.g{stroke-width:3px;}.b,.e,.f{fill:none;}.c{opacity:0.5;}.d,.h,.i{fill:#606060;}.d,.e,.f{stroke:#606060;}.d{opacity:0.6;}.f{stroke-width:6px;}.g{stroke:#fff;}.h{font-size:33px;font-family:Lato-Italic, Lato;font-style:italic;}.j{fill:url(#a);}</style><radialGradient id="a" cx="258.8628" cy="403.4819" r="262.1953" gradientUnits="userSpaceOnUse"><stop offset="0" stop-color="#00a3a5"/><stop offset="0.1475" stop-color="#00a3a5" stop-opacity="0.8078"/><stop offset="0.4379" stop-color="#00a3a5" stop-opacity="0.4629"/><stop offset="0.6871" stop-color="#00a3a5" stop-opacity="0.2115"/><stop offset="0.8825" stop-color="#00a3a5" stop-opacity="0.0571"/><stop offset="1" stop-color="#00a3a5" stop-opacity="0"/></radialGradient></defs><title>pun_1</title><line class="a" x1="174.3653" y1="707.6277" x2="299.5385" y2="707.6277"/><path class="b" d="M276.9337,706.8705s-23.8952-85.4541-109.9545-90.9436"/><circle class="a" cx="159.4348" cy="613.198" r="7.9447"/><g class="c"><rect class="d" x="174.7011" y="78.5" width="125" height="636"/><rect class="e" x="174.7011" y="78.5" width="125" height="636"/><polyline class="f" points="299.734 521.805 314.701 531.816 314.701 593.722 299.367 601.829"/><polyline class="f" points="174.869 521.805 159.701 531.816 159.701 593.722 175.135 601.829"/><polyline class="f" points="299.734 213.146 314.701 223.158 314.701 285.064 299.367 293.17"/><polyline class="f" points="174.869 213.146 159.701 223.158 159.701 285.064 175.135 293.17"/></g><rect class="a" x="212.7011" y="1.5" width="45" height="69"/><rect class="a" x="206.7011" y="70.5" width="56" height="16"/><path class="g" d="M316.2011,39.5h-75.5a5.5,5.5,0,0,1-5.5-5.5h0a5.5,5.5,0,0,1,5.5-5.5h75.5Z"/><text class="h" transform="translate(425.7612 39.4547)">Válvula<tspan x="0" y="39.5996">cerrada</tspan></text><line class="e" x1="400.8707" y1="31.6639" x2="316.0385" y2="31.6639"/><path class="i" d="M316.0385,24.8964a6.7676,6.7676,0,1,0,6.7675,6.7675A6.7683,6.7683,0,0,0,316.0385,24.8964Z"/><path class="j" d="M0,368.4019c22.405,10.2885,49.5617,13.6386,74.7506,9.2213,25.34-4.4439,48.8335-16.3993,74.7647-16.3009,36.4114.1382,67.3943,23.9341,103.7555,25.4826,46.756,1.9911,86.9927-33.0058,133.699-30.3628,22.362,1.2654,42.3438,11.0584,62.7918,18.4741s44.7251,12.4891,64.7769,4.399V714.4164H.556Z"/></svg>