<svg xmlns="http://www.w3.org/2000/svg" viewBox="0 0 186.1114 716"><defs><style>.a,.c{fill:#d91519;}.a,.b,.d{stroke:#fff;stroke-miterlimit:10;}.a,.b{stroke-width:3px;}.b,.d{fill:none;}.c{opacity:0.6;}.d{stroke-width:6px;}</style></defs><title>tubo_white</title><line class="a" x1="42.7756" y1="707.6277" x2="145.8881" y2="653.076"/><path class="b" d="M133.0838,658.9935S96.34,616.2908,17.3894,604.87"/><circle class="a" cx="9.4447" cy="605.9863" r="7.9447"/><rect class="c" x="43.1114" y="78.5" width="125" height="636"/><rect class="b" x="43.1114" y="78.5" width="125" height="636"/><polyline class="d" points="168.145 521.805 183.111 531.816 183.111 593.722 167.778 601.829"/><polyline class="d" points="43.279 521.805 28.111 531.816 28.111 593.722 43.546 601.829"/><polyline class="d" points="168.145 213.146 183.111 223.158 183.111 285.064 167.778 293.17"/><polyline class="d" points="43.279 213.146 28.111 223.158 28.111 285.064 43.546 293.17"/><rect class="a" x="81.1114" y="1.5" width="45" height="69"/><rect class="a" x="75.1114" y="70.5" width="56" height="16"/><rect class="a" x="103.1114" y="28.5" width="81" height="11"/></svg>