<svg xmlns="http://www.w3.org/2000/svg" viewBox="0 0 695.249 716"><defs><style>.a,.c{fill:#d91519;}.a,.b,.c,.d{stroke:#d91519;}.a,.b,.c,.d,.f{stroke-miterlimit:10;}.a,.b,.f{stroke-width:3px;}.b,.d,.f{fill:none;}.c{opacity:0.6;}.d{stroke-width:6px;}.e{font-size:33px;font-family:Lato-Italic, Lato;font-style:italic;}.e,.g{fill:#606060;}.f{stroke:#606060;}</style></defs><title>tubo_partes</title><line class="a" x1="250.4527" y1="707.6277" x2="353.5652" y2="653.076"/><path class="b" d="M340.7609,658.9935S304.0168,616.2908,225.0665,604.87"/><circle class="a" cx="217.1218" cy="605.9863" r="7.9447"/><rect class="c" x="250.7885" y="78.5" width="125" height="636"/><rect class="b" x="250.7885" y="78.5" width="125" height="636"/><polyline class="d" points="375.822 521.805 390.789 531.816 390.789 593.722 375.455 601.829"/><polyline class="d" points="250.956 521.805 235.789 531.816 235.789 593.722 251.223 601.829"/><polyline class="d" points="375.822 213.146 390.789 223.158 390.789 285.064 375.455 293.17"/><polyline class="d" points="250.956 213.146 235.789 223.158 235.789 285.064 251.223 293.17"/><rect class="a" x="288.7885" y="1.5" width="45" height="69"/><rect class="a" x="282.7885" y="70.5" width="56" height="16"/><rect class="a" x="310.7885" y="28.5" width="81" height="11"/><text class="e" transform="translate(533.8486 63.4545)">Válvula</text><line class="f" x1="508.9581" y1="58.6639" x2="317.8813" y2="58.6639"/><path class="g" d="M317.8813,51.8964a6.7676,6.7676,0,1,0,6.7676,6.7675A6.7683,6.7683,0,0,0,317.8813,51.8964Z"/><text class="e" transform="translate(533.8486 258.4545)">Maniguetas</text><line class="f" x1="508.9581" y1="252.6639" x2="392.626" y2="252.6639"/><path class="g" d="M392.626,245.8964a6.7676,6.7676,0,1,0,6.7674,6.7675A6.7683,6.7683,0,0,0,392.626,245.8964Z"/><text class="e" transform="translate(533.8486 681.2777)">Compuerta</text><line class="f" x1="509.0676" y1="672.4316" x2="317.9908" y2="672.4316"/><path class="g" d="M317.9908,665.664a6.7676,6.7676,0,1,0,6.7675,6.7676A6.7684,6.7684,0,0,0,317.9908,665.664Z"/><text class="e" transform="translate(0 399.0326)">Cilindro</text><line class="f" x1="130.3178" y1="390.1867" x2="318.3945" y2="390.1867"/><path class="g" d="M318.3945,396.9542a6.7676,6.7676,0,1,0-6.7674-6.7675A6.7683,6.7683,0,0,0,318.3945,396.9542Z"/></svg>