<svg xmlns="http://www.w3.org/2000/svg" viewBox="0 0 343.0508 320.5376"><defs><style>.a{font-size:33px;fill:#606060;font-family:Lato-Italic, Lato;font-style:italic;}.b,.c,.h{fill:none;}.b,.c,.d,.f,.h{stroke:#d91519;stroke-width:3px;}.b,.c,.d,.f{stroke-linecap:round;stroke-linejoin:round;}.c{stroke-dasharray:5;}.d,.f{fill:#fff;}.e,.g{fill:#d91519;}.f,.g{opacity:0.5;}.h{stroke-miterlimit:10;}</style></defs><title>valvula_abrir</title><text class="a" transform="translate(248.7883 311.6772)">Ajuste </text><path class="b" d="M149,74.4841v46s12.0331,11.0461,12.0331,35.1193S149,189.2635,149,189.2635v48.7206h58.5"/><line class="b" x1="69.0881" y1="198.2104" x2="141.1581" y2="201.0131"/><line class="b" x1="69.1736" y1="206.5052" x2="141.2436" y2="209.308"/><line class="b" x1="69.259" y1="214.8" x2="141.329" y2="217.6028"/><line class="b" x1="69.3445" y1="223.0948" x2="141.4145" y2="225.8976"/><line class="b" x1="69.43" y1="231.3897" x2="141.5" y2="234.1924"/><line class="b" x1="69.0881" y1="80.2104" x2="141.1581" y2="83.0131"/><line class="b" x1="69.1736" y1="88.5052" x2="141.2436" y2="91.308"/><line class="b" x1="69.259" y1="96.8" x2="141.329" y2="99.6028"/><line class="b" x1="69.3445" y1="105.0948" x2="141.4145" y2="107.8976"/><line class="b" x1="69.43" y1="113.3897" x2="141.5" y2="116.1924"/><path class="b" d="M66.3355,122.01s8.4775-5.7262,39.051-5.7262,39.0509,5.7262,39.0509,5.7262-14.19,5.7261-39.3282,5.7261S66.3355,122.01,66.3355,122.01Z"/><path class="b" d="M66.3355,188.01s8.4775-5.7262,39.051-5.7262,39.0509,5.7262,39.0509,5.7262-14.19,5.7261-39.3282,5.7261S66.3355,188.01,66.3355,188.01Z"/><line class="c" x1="65" y1="188.4841" x2="65" y2="122.4841"/><line class="c" x1="144" y1="188.4841" x2="144" y2="122.4841"/><path class="d" d="M110.5,1.9841h-11s-3.64,37.3909-3.64,83.917,3.3633,81.083,3.3633,81.083H110.5s3.2978-39.0853,3.2978-82.5C113.7978,41.0128,110.5,1.9841,110.5,1.9841Z"/><circle class="e" cx="104.5229" cy="154.4694" r="2.7161"/><path class="f" d="M257,160.4465v-11s-37.3909-3.64-83.917-3.64S92,149.17,92,149.17v11.2766s39.0853,3.2978,82.5,3.2978C217.9713,163.7443,257,160.4465,257,160.4465Z"/><circle class="g" cx="104.5229" cy="154.4694" r="2.7161"/><polyline class="b" points="2 315.484 2 206.984 61.5 206.984"/><polyline class="b" points="148.5 206.984 208 206.984 208 315.484"/><path class="b" d="M1.5,237.9841H62V189.2635s-12.0331-9.5868-12.0331-33.66S62,120.4841,62,120.4841v-46"/><line class="b" x1="1.5" y1="215.9841" x2="61.5" y2="215.9841"/><line class="b" x1="148.5" y1="215.9841" x2="207.5" y2="215.9841"/><path class="h" d="M142.2106,41.9468c19.0333.9664,69.6717,9.5563,73.1976,73.3643"/><polygon class="e" points="145.519 46.504 143.695 42.034 145.646 37.617 135.049 41.911 145.519 46.504"/><polygon class="e" points="210.814 112.102 215.318 113.843 219.697 111.809 215.602 122.484 210.814 112.102"/><text class="a" transform="translate(127.9829 28.3223)">Abierta</text><text class="a" transform="translate(230.6162 117.396)">Cerrada</text><path class="b" d="M238.5,300.15H121.156A14.6765,14.6765,0,0,1,106.48,285.4734V215.9841"/><path class="e" d="M110.9912,215.9841a4.5117,4.5117,0,1,0-4.5117,4.5116A4.5122,4.5122,0,0,0,110.9912,215.9841Z"/></svg>