<svg xmlns="http://www.w3.org/2000/svg" viewBox="0 0 284.5142 519.5836"><defs><style>.a{opacity:0.5;}.b,.h,.i{fill:#606060;}.b,.c,.d,.g{stroke:#606060;}.b,.c,.d,.e,.f{stroke-miterlimit:10;}.b{opacity:0.6;}.c,.d,.g{fill:none;}.c,.e,.f,.g{stroke-width:3px;}.d{stroke-width:6px;}.e,.f{fill:#d91519;}.e{stroke:#d91519;}.f{stroke:#fff;}.g{stroke-linecap:round;stroke-linejoin:round;}.i{font-size:33px;font-family:Lato-Italic, Lato;font-style:italic;}</style></defs><title>valvula</title><g class="a"><polyline class="b" points="18 519.584 18 166.584 143 166.584 143 458.584"/><polyline class="c" points="18 519.584 18 166.584 143 166.584 143 458.584"/><polyline class="d" points="143.033 301.23 158 311.241 158 373.147 142.666 381.254"/><polyline class="d" points="18.168 301.23 3 311.241 3 373.147 18.434 381.254"/></g><rect class="e" x="56" y="89.5836" width="45" height="69"/><rect class="e" x="50" y="158.5836" width="56" height="16"/><path class="f" d="M145.7441,85.2837l-66.15,36.3933a5.5,5.5,0,0,1-7.47-2.1676h0a5.5,5.5,0,0,1,2.1676-7.47l66.15-36.3933Z"/><path class="g" d="M71.3374,80.5c-11.2737,0,2.8719-44.6248,4.2274-66.7963"/><polygon class="h" points="84.185 14.033 71.338 1.5 66.905 18.892 84.185 14.033"/><path class="g" d="M89.3374,1.5c8.9557,0-1.0259,44.0014-2.51,66.3268"/><polygon class="h" points="78.074 66.526 89.337 80.5 95.81 63.76 78.074 66.526"/><text class="i" transform="translate(117.2241 40.853)">Flujo de aire</text></svg>