<svg xmlns="http://www.w3.org/2000/svg" viewBox="0 0 545.9619 454.0332"><defs><style>.a,.c,.e,.g,.h{fill:none;stroke-linecap:round;stroke-linejoin:round;}.a,.c,.e{stroke:#606060;}.a,.e{stroke-width:3px;}.a,.b{opacity:0.5;}.c{stroke-width:9px;}.d{fill:#606060;}.f{fill:#fff;}.g,.h{stroke:#d91519;stroke-width:4px;}.h{stroke-dasharray:8.5333 8.5333;}</style></defs><title>amarre</title><path class="a" d="M7.5947,107.6643,269.7733,160.93,355.0542,303.726a19.1454,19.1454,0,0,0,25.9708,6.7863L541.7709,218.209a4.878,4.878,0,0,0-1.49-9.0169L275.6605,157.2506,184.5187,7.86a13.2693,13.2693,0,0,0-17.94-4.5933L5.666,95.76A6.4453,6.4453,0,0,0,7.5947,107.6643Z"/><g class="b"><line class="c" x1="170.9619" y1="19.0873" x2="170.9619" y2="166.0873"/><path class="d" d="M170.4008,25.5538a4.2845,4.2845,0,0,1,3.4589,1.7567l82.347,120.7832L43.816,96.37,168.45,26.0313a4.2037,4.2037,0,0,1,1.9512-.4775M284.0553,168.2715,497.56,219.9953l-120.5854,68.722c-.0318.0181-.0637.0365-.0952.055a3.9382,3.9382,0,0,1-2.0168.55,4,4,0,0,1-2.93-1.2695L284.0553,168.2715M170.4008,16.5537a13.2231,13.2231,0,0,0-6.2686,1.58L26.4672,95.8261a3.11,3.11,0,0,0,.6931,5.75L266.7733,159.93l98.1283,133.7534a12.9989,12.9989,0,0,0,16.5293,2.8531l131.13-74.7317A4.2031,4.2031,0,0,0,511.449,214.1L272.66,156.2506,181.2379,22.1555a13.2653,13.2653,0,0,0-10.8371-5.6018Z"/><line class="c" x1="370.9619" y1="298.0873" x2="370.9619" y2="446.0873"/><line class="c" x1="510.9619" y1="219.0873" x2="510.9619" y2="365.0873"/><line class="c" x1="27.9619" y1="99.0873" x2="27.9619" y2="243.0873"/></g><g class="b"><path class="e" d="M1.5,105.8979V241.3032l264.4619,54.7841,91.4244,149.4471a14.8543,14.8543,0,0,0,20.1829,4.919L544.4619,351.48V215.3393"/><path class="e" d="M376.019,365.4835l168.4429-96.6517v30.6638L376.2445,399.007a13.2488,13.2488,0,0,1-18.0084-4.426l-96.19-155.2778L1.5,184.6391v-24.53l262.754,54.1735,94.0132,146.8527A13.2487,13.2487,0,0,0,376.019,365.4835Z"/><line class="e" x1="11.3798" y1="108.4333" x2="11.3798" y2="151.3634"/><line class="e" x1="29.0414" y1="112.1128" x2="29.0414" y2="155.0429"/><line class="e" x1="50.3824" y1="116.5282" x2="50.3824" y2="159.4583"/><line class="e" x1="71.7235" y1="120.9435" x2="71.7235" y2="163.8737"/><line class="e" x1="93.0645" y1="125.3589" x2="93.0645" y2="168.2891"/><line class="e" x1="114.4055" y1="129.7743" x2="114.4055" y2="172.7045"/><line class="e" x1="135.7466" y1="134.1897" x2="135.7466" y2="177.1199"/><line class="e" x1="157.0876" y1="138.6051" x2="157.0876" y2="181.5352"/><line class="e" x1="178.4286" y1="143.0205" x2="178.4286" y2="185.9506"/><line class="e" x1="199.7697" y1="147.4359" x2="199.7697" y2="190.366"/><line class="e" x1="221.1107" y1="151.8513" x2="221.1107" y2="194.7814"/><line class="e" x1="242.4518" y1="156.2666" x2="242.4518" y2="199.1968"/><line class="e" x1="263.7928" y1="160.682" x2="263.7928" y2="203.6122"/><line class="e" x1="11.3798" y1="198.9487" x2="11.3798" y2="241.8789"/><line class="e" x1="29.0414" y1="202.6282" x2="29.0414" y2="245.5584"/><line class="e" x1="50.3824" y1="207.0436" x2="50.3824" y2="249.9737"/><line class="e" x1="71.7235" y1="211.459" x2="71.7235" y2="254.3891"/><line class="e" x1="93.0645" y1="215.8744" x2="93.0645" y2="258.8045"/><line class="e" x1="114.4055" y1="220.2898" x2="114.4055" y2="263.2199"/><line class="e" x1="135.7466" y1="224.7051" x2="135.7466" y2="267.6353"/><line class="e" x1="157.0876" y1="229.1205" x2="157.0876" y2="272.0507"/><line class="e" x1="178.4286" y1="233.5359" x2="178.4286" y2="276.4661"/><line class="e" x1="199.7697" y1="237.9513" x2="199.7697" y2="280.8815"/><line class="e" x1="221.1107" y1="242.3667" x2="221.1107" y2="285.2968"/><line class="e" x1="242.4518" y1="246.7821" x2="242.4518" y2="289.7122"/><line class="e" x1="263.7928" y1="251.1975" x2="263.7928" y2="294.1276"/><line class="e" x1="278.5108" y1="274.0103" x2="278.5108" y2="316.9405"/><line class="e" x1="278.5108" y1="181.2872" x2="278.5108" y2="224.2173"/><line class="e" x1="290.2851" y1="295.3513" x2="290.2851" y2="338.2815"/><line class="e" x1="290.2851" y1="202.6282" x2="290.2851" y2="245.5584"/><line class="e" x1="303.5313" y1="316.6924" x2="303.5313" y2="359.6225"/><line class="e" x1="303.5313" y1="223.9692" x2="303.5313" y2="266.8994"/><line class="e" x1="316.7775" y1="338.0334" x2="316.7775" y2="380.9636"/><line class="e" x1="316.7775" y1="246.7821" x2="316.7775" y2="289.7122"/><line class="e" x1="332.2313" y1="362.3181" x2="332.2313" y2="405.2482"/><line class="e" x1="332.2313" y1="268.1231" x2="332.2313" y2="311.0533"/><line class="e" x1="348.4211" y1="387.3386" x2="348.4211" y2="430.2687"/><line class="e" x1="348.4211" y1="295.3513" x2="348.4211" y2="338.2815"/><line class="e" x1="384.4801" y1="308.5975" x2="384.4801" y2="351.5277"/><line class="e" x1="407.2929" y1="295.3513" x2="407.2929" y2="338.2815"/><line class="e" x1="430.1057" y1="282.1052" x2="430.1057" y2="325.0353"/><line class="e" x1="452.9186" y1="268.859" x2="452.9186" y2="311.7892"/><line class="e" x1="475.7314" y1="255.6129" x2="475.7314" y2="298.543"/><line class="e" x1="498.5442" y1="242.3667" x2="498.5442" y2="285.2968"/><line class="e" x1="521.3571" y1="229.1205" x2="521.3571" y2="272.0507"/><line class="e" x1="543.1699" y1="216.8744" x2="543.1699" y2="259.8045"/><line class="e" x1="384.4801" y1="401.3206" x2="384.4801" y2="444.2508"/><line class="e" x1="407.2929" y1="388.0745" x2="407.2929" y2="431.0046"/><line class="e" x1="430.1057" y1="374.8283" x2="430.1057" y2="417.7585"/><line class="e" x1="452.9186" y1="361.5822" x2="452.9186" y2="404.5123"/><line class="e" x1="475.7314" y1="348.336" x2="475.7314" y2="391.2661"/><line class="e" x1="498.5442" y1="335.0898" x2="498.5442" y2="378.02"/><line class="e" x1="521.3571" y1="321.8437" x2="521.3571" y2="364.7738"/><line class="e" x1="543.1699" y1="309.5975" x2="543.1699" y2="352.5277"/></g><line class="f" x1="267.9619" y1="161.0873" x2="267.9619" y2="298.0873"/><line class="g" x1="267.9619" y1="161.0873" x2="267.9619" y2="165.5873"/><line class="h" x1="267.9619" y1="174.1207" x2="267.9619" y2="289.3207"/><line class="g" x1="267.9619" y1="293.5873" x2="267.9619" y2="298.0873"/></svg>