<svg xmlns="http://www.w3.org/2000/svg" viewBox="0 0 607.8145 569.1293"><defs><style>.a,.b,.c,.f{fill:none;stroke-linecap:round;stroke-linejoin:round;}.a,.f{stroke:#606060;}.a,.b,.f{stroke-width:3px;}.a,.e{opacity:0.5;}.b,.c{stroke:#d91519;}.c{stroke-width:9px;}.d{fill:#d91519;}.g,.h{fill:#606060;}.h{font-size:33px;font-family:Lato-Italic, Lato;font-style:italic;}</style></defs><title>estructura</title><path class="a" d="M67.6338,107.6643,329.8123,160.93,415.0932,303.726a19.1455,19.1455,0,0,0,25.9709,6.7863L601.81,218.209a4.878,4.878,0,0,0-1.4895-9.0169L335.7,157.2506,244.5577,7.86a13.2691,13.2691,0,0,0-17.94-4.5933L65.705,95.76A6.4454,6.4454,0,0,0,67.6338,107.6643Z"/><path class="b" d="M87.1993,101.5762,326.8123,159.93l98.1284,133.7534a13.0011,13.0011,0,0,0,16.5293,2.8531L572.6,221.805a4.2033,4.2033,0,0,0-1.1122-7.7054L332.7,156.2506,241.277,22.1555a13.2694,13.2694,0,0,0-17.1058-4.022L86.5062,95.8261A3.1094,3.1094,0,0,0,87.1993,101.5762Z"/><line class="c" x1="231.001" y1="19.0873" x2="231.001" y2="166.0873"/><path class="d" d="M230.44,25.5537a4.2851,4.2851,0,0,1,3.4587,1.7563l82.3472,120.7837-212.39-51.7244L228.4886,26.0312a4.2043,4.2043,0,0,1,1.9512-.4775m113.6546,142.718,213.5047,51.7234L437.0137,288.7172q-.0478.0274-.0955.0552a3.936,3.936,0,0,1-2.0164.55,4,4,0,0,1-2.93-1.2693L344.0944,168.2717M230.44,16.5537a13.2215,13.2215,0,0,0-6.2685,1.58L86.5063,95.8261a3.1093,3.1093,0,0,0,.693,5.75l239.613,58.354,98.1284,133.7534a12.9991,12.9991,0,0,0,16.5292,2.8531L572.6,221.8049a4.2032,4.2032,0,0,0-1.1122-7.7053L332.7,156.2507,241.2769,22.1555A13.2652,13.2652,0,0,0,230.44,16.5537Z"/><line class="c" x1="431.001" y1="298.0873" x2="431.001" y2="446.0873"/><line class="c" x1="571.001" y1="219.0873" x2="571.001" y2="365.0873"/><line class="c" x1="88.001" y1="99.0873" x2="88.001" y2="243.0873"/><g class="e"><path class="f" d="M61.5391,105.8979V241.3032L322.8213,293.76l94.6041,151.7747a14.8543,14.8543,0,0,0,20.1829,4.919L604.501,351.48c.5-.3931,0-134.606,0-134.606"/><path class="f" d="M436.0581,365.4835,604.501,268.8318v30.6638L436.2835,399.007a13.2487,13.2487,0,0,1-18.0083-4.426l-96.19-155.2778L61.5391,184.6391v-24.53l262.754,54.1735,94.0132,146.8527A13.2487,13.2487,0,0,0,436.0581,365.4835Z"/><line class="f" x1="71.4189" y1="108.4333" x2="71.4189" y2="151.3634"/><line class="f" x1="89.0804" y1="112.1128" x2="89.0804" y2="155.0429"/><line class="f" x1="110.4215" y1="116.5282" x2="110.4215" y2="159.4583"/><line class="f" x1="131.7625" y1="120.9435" x2="131.7625" y2="163.8737"/><line class="f" x1="153.1036" y1="125.3589" x2="153.1036" y2="168.2891"/><line class="f" x1="174.4446" y1="129.7743" x2="174.4446" y2="172.7045"/><line class="f" x1="195.7856" y1="134.1897" x2="195.7856" y2="177.1199"/><line class="f" x1="217.1267" y1="138.6051" x2="217.1267" y2="181.5352"/><line class="f" x1="238.4677" y1="143.0205" x2="238.4677" y2="185.9506"/><line class="f" x1="259.8087" y1="147.4359" x2="259.8087" y2="190.366"/><line class="f" x1="281.1498" y1="151.8513" x2="281.1498" y2="194.7814"/><line class="f" x1="302.4908" y1="156.2666" x2="302.4908" y2="199.1968"/><line class="f" x1="323.8319" y1="160.682" x2="323.8319" y2="203.6122"/><line class="f" x1="71.4189" y1="198.9487" x2="71.4189" y2="241.8789"/><line class="f" x1="89.0804" y1="202.6282" x2="89.0804" y2="245.5584"/><line class="f" x1="110.4215" y1="207.0436" x2="110.4215" y2="249.9737"/><line class="f" x1="131.7625" y1="211.459" x2="131.7625" y2="254.3891"/><line class="f" x1="153.1036" y1="215.8744" x2="153.1036" y2="258.8045"/><line class="f" x1="174.4446" y1="220.2898" x2="174.4446" y2="263.2199"/><line class="f" x1="195.7856" y1="224.7051" x2="195.7856" y2="267.6353"/><line class="f" x1="217.1267" y1="229.1205" x2="217.1267" y2="272.0507"/><line class="f" x1="238.4677" y1="233.5359" x2="238.4677" y2="276.4661"/><line class="f" x1="259.8087" y1="237.9513" x2="259.8087" y2="280.8815"/><line class="f" x1="281.1498" y1="242.3667" x2="281.1498" y2="285.2968"/><line class="f" x1="302.4908" y1="246.7821" x2="302.4908" y2="289.7122"/><line class="f" x1="323.8319" y1="251.1975" x2="323.8319" y2="294.1276"/><line class="f" x1="338.5498" y1="274.0103" x2="338.5498" y2="316.9405"/><line class="f" x1="338.5498" y1="181.2872" x2="338.5498" y2="224.2173"/><line class="f" x1="350.3242" y1="295.3513" x2="350.3242" y2="338.2815"/><line class="f" x1="350.3242" y1="202.6282" x2="350.3242" y2="245.5584"/><line class="f" x1="363.5704" y1="316.6924" x2="363.5704" y2="359.6225"/><line class="f" x1="363.5704" y1="223.9692" x2="363.5704" y2="266.8994"/><line class="f" x1="376.8165" y1="338.0334" x2="376.8165" y2="380.9636"/><line class="f" x1="376.8165" y1="246.7821" x2="376.8165" y2="289.7122"/><line class="f" x1="392.2704" y1="362.3181" x2="392.2704" y2="405.2482"/><line class="f" x1="392.2704" y1="268.1231" x2="392.2704" y2="311.0533"/><line class="f" x1="408.4601" y1="387.3386" x2="408.4601" y2="430.2687"/><line class="f" x1="408.4601" y1="295.3513" x2="408.4601" y2="338.2815"/><line class="f" x1="444.5191" y1="308.5975" x2="444.5191" y2="351.5277"/><line class="f" x1="467.332" y1="295.3513" x2="467.332" y2="338.2815"/><line class="f" x1="490.1448" y1="282.1052" x2="490.1448" y2="325.0353"/><line class="f" x1="512.9576" y1="268.859" x2="512.9576" y2="311.7892"/><line class="f" x1="535.7705" y1="255.6129" x2="535.7705" y2="298.543"/><line class="f" x1="558.5833" y1="242.3667" x2="558.5833" y2="285.2968"/><line class="f" x1="581.3961" y1="229.1205" x2="581.3961" y2="272.0507"/><line class="f" x1="603.209" y1="216.8744" x2="603.209" y2="259.8045"/><line class="f" x1="444.5191" y1="401.3206" x2="444.5191" y2="444.2508"/><line class="f" x1="467.332" y1="388.0745" x2="467.332" y2="431.0046"/><line class="f" x1="490.1448" y1="374.8283" x2="490.1448" y2="417.7585"/><line class="f" x1="512.9576" y1="361.5822" x2="512.9576" y2="404.5123"/><line class="f" x1="535.7705" y1="348.336" x2="535.7705" y2="391.2661"/><line class="f" x1="558.5833" y1="335.0898" x2="558.5833" y2="378.02"/><line class="f" x1="581.3961" y1="321.8437" x2="581.3961" y2="364.7738"/><line class="f" x1="603.209" y1="309.5975" x2="603.209" y2="352.5277"/></g><line class="f" x1="500.001" y1="196.8012" x2="500.001" y2="144.0873"/><circle class="g" cx="500.001" cy="196.5756" r="4.5117"/><line class="f" x1="500.001" y1="264.3735" x2="500.001" y2="443.0873"/><circle class="g" cx="500.001" cy="264.5991" r="4.5117"/><text class="h" transform="translate(407.1455 121.6694)">Barra diagonal</text><text class="h" transform="translate(470.3994 520.6691)">Barra<tspan x="-16.8955" y="39.5996">paralela</tspan></text><line class="f" x1="88.001" y1="243.3735" x2="88.001" y2="288.0873"/><circle class="g" cx="88.001" cy="243.5991" r="4.5117"/><text class="h" transform="translate(0 327.6691)">Barra vertical</text></svg>