<svg xmlns="http://www.w3.org/2000/svg" xmlns:xlink="http://www.w3.org/1999/xlink" viewBox="0 0 796.0771 475.7854"><defs><style>.a,.e,.h,.k,.m{fill:none;}.b{opacity:0.5;}.c,.f{fill:#fff;}.c,.e,.k,.m{stroke:#606060;}.c,.e,.f,.h,.m{stroke-linecap:round;}.c,.e,.f,.h,.k,.m{stroke-linejoin:round;}.c,.e,.f,.h{stroke-width:3px;}.d{clip-path:url(#a);}.f,.h{stroke:#d91519;}.g{fill:#d91519;}.i{clip-path:url(#b);}.j{font-size:33px;font-family:Lato-Italic, Lato;font-style:italic;}.j,.l{fill:#606060;}.k{stroke-linecap:square;}.k,.m{stroke-width:2px;}</style><clipPath id="a"><path class="a" d="M375.76,259.0383c-97.8857-.09-177.28,45.512-177.3319,101.8548s79.2586,102.0906,177.1443,102.1806,177.28-45.512,177.3319-101.8548S473.6461,259.1283,375.76,259.0383Zm-.1677,182.4095c-81.788-.0752-148.0561-37.2142-148.0141-82.9522s66.3784-82.755,148.1663-82.68S523.8011,313.03,523.759,358.7679,457.3807,441.523,375.5927,441.4478Z"/></clipPath><clipPath id="b"><path class="a" d="M375.9815,1.5c-97.8857-.09-177.28,45.512-177.3319,101.8548s79.2586,102.0906,177.1443,102.1806,177.28-45.512,177.3319-101.8547S473.8672,1.59,375.9815,1.5Zm-.1677,182.41c-81.788-.0752-148.0561-37.2143-148.0141-82.9522s66.3784-82.7551,148.1664-82.68S524.0222,55.4917,523.98,101.23,457.6018,183.9848,375.8138,183.91Z"/></clipPath></defs><title>llanta</title><g class="b"><path class="c" d="M375.76,259.0383c-97.8857-.09-177.28,45.512-177.3319,101.8548s79.2586,102.0906,177.1443,102.1806,177.28-45.512,177.3319-101.8548S473.6461,259.1283,375.76,259.0383Zm-.1677,182.4095c-81.788-.0752-148.0561-37.2142-148.0141-82.9522s66.3784-82.755,148.1663-82.68S523.8011,313.03,523.759,358.7679,457.3807,441.523,375.5927,441.4478Z"/><g class="d"><line class="e" x1="190.8827" y1="386.7432" x2="254.8399" y2="365.1761"/><line class="e" x1="450.4908" y1="280.7329" x2="514.448" y2="259.1658"/><line class="e" x1="366.796" y1="293.8195" x2="430.7532" y2="272.2524"/><line class="e" x1="418.4919" y1="313.6124" x2="482.4491" y2="292.0453"/><line class="e" x1="214.4132" y1="360.4376" x2="278.3705" y2="338.8705"/><line class="e" x1="349.8835" y1="280.6404" x2="413.8407" y2="259.0733"/><line class="e" x1="182.3806" y1="429.9871" x2="246.3378" y2="408.42"/><line class="e" x1="223.8521" y1="320.9555" x2="287.8093" y2="299.3884"/><line class="e" x1="232.1873" y1="459.1808" x2="296.1446" y2="437.6137"/><line class="e" x1="297.9914" y1="474.2854" x2="361.9486" y2="452.7183"/><line class="e" x1="532.2299" y1="349.4467" x2="596.1871" y2="327.8796"/><line class="e" x1="222.8444" y1="394.2946" x2="286.8017" y2="372.7275"/><line class="e" x1="155.1772" y1="360.3832" x2="219.1344" y2="338.8161"/><line class="e" x1="258.5465" y1="424.4156" x2="322.5037" y2="402.8485"/><line class="e" x1="461.7133" y1="346.5611" x2="525.6706" y2="324.994"/><line class="e" x1="509.7053" y1="304.2937" x2="573.6625" y2="282.7266"/><line class="e" x1="316.8224" y1="446.0951" x2="380.7797" y2="424.528"/><line class="e" x1="467.3082" y1="397.3401" x2="531.2654" y2="375.773"/></g></g><path class="f" d="M479.4869,188.7062c-29.0306-11.2663-64.6657-17.9243-103.1909-17.96s-74.1724,6.557-103.2236,17.77l-73.5608,18.9324-.0709,77.1009c-.0482,33.4482,79.0544,95.0385,176.6807,95.1283s176.8071-42.3552,176.8553-94.8033l.0709-96.1009Z"/><ellipse class="g" cx="376.2822" cy="185.7906" rx="179.8945" ry="94.9658"/><ellipse class="f" cx="376.2483" cy="222.6571" rx="160.3889" ry="55.005"/><line class="h" x1="207.5807" y1="211.0215" x2="207.5599" y2="233.6483"/><line class="h" x1="238.5778" y1="245.1729" x2="238.5598" y2="264.7052"/><line class="h" x1="278.0503" y1="264.9545" x2="278.0324" y2="284.4869"/><line class="h" x1="333.5124" y1="279.1093" x2="333.4945" y2="298.6417"/><line class="h" x1="436.0037" y1="275.4425" x2="435.9857" y2="294.9749"/><line class="h" x1="483.0305" y1="260.168" x2="483.0097" y2="282.7948"/><line class="h" x1="546.0735" y1="210.3924" x2="546.0541" y2="231.472"/><line class="h" x1="518.7784" y1="240.4555" x2="518.7576" y2="263.0823"/><line class="h" x1="382.404" y1="281.0348" x2="382.386" y2="300.5671"/><line class="h" x1="227.2481" y1="307.8766" x2="227.2301" y2="327.4089"/><line class="h" x1="262.0176" y1="330.5344" x2="261.9997" y2="350.0668"/><line class="h" x1="299.6166" y1="346.7923" x2="299.5987" y2="366.3247"/><line class="h" x1="341.9195" y1="358.2338" x2="341.9015" y2="377.7661"/><line class="h" x1="394.5729" y1="359.2224" x2="394.5549" y2="378.7548"/><line class="h" x1="444.4133" y1="351.7462" x2="444.3954" y2="371.2785"/><line class="h" x1="493.3213" y1="335.8068" x2="493.3033" y2="355.3391"/><line class="h" x1="529.0692" y1="316.0346" x2="529.0555" y2="330.9253"/><path class="h" d="M200.1805,271.4418c39.0705,41.0344,101.57,67.4714,174.4272,67.5384,73.8.0678,138.8218-27.2615,177.56-63.6121"/><path class="h" d="M553.1079,249.9849c-34.2748,39.5639-101.968,68.1409-178.4874,68.0706-75.9-.07-139.9858-30.3959-174.4217-69.4462"/><g class="b"><path class="c" d="M375.9815,1.5c-97.8857-.09-177.28,45.512-177.3319,101.8548s79.2586,102.0906,177.1443,102.1806,177.28-45.512,177.3319-101.8547S473.8672,1.59,375.9815,1.5Zm-.1677,182.41c-81.788-.0752-148.0561-37.2143-148.0141-82.9522s66.3784-82.7551,148.1664-82.68S524.0222,55.4917,523.98,101.23,457.6018,183.9848,375.8138,183.91Z"/><g class="i"><line class="e" x1="191.1038" y1="129.205" x2="255.061" y2="107.6379"/><line class="e" x1="450.7119" y1="23.1947" x2="514.6691" y2="1.6276"/><line class="e" x1="367.0171" y1="36.2814" x2="430.9743" y2="14.7143"/><line class="e" x1="418.713" y1="56.0743" x2="482.6702" y2="34.5072"/><line class="e" x1="214.6344" y1="102.8995" x2="278.5916" y2="81.3324"/><line class="e" x1="350.1046" y1="23.1022" x2="414.0618" y2="1.5351"/><line class="e" x1="182.6017" y1="172.449" x2="246.559" y2="150.8819"/><line class="e" x1="232.4085" y1="201.6427" x2="296.3657" y2="180.0756"/><line class="e" x1="298.2125" y1="216.7473" x2="362.1697" y2="195.1802"/><line class="e" x1="532.451" y1="91.9085" x2="596.4082" y2="70.3415"/><line class="e" x1="223.0655" y1="136.7564" x2="287.0228" y2="115.1893"/><line class="e" x1="155.3983" y1="102.845" x2="219.3555" y2="81.2779"/><line class="e" x1="258.7676" y1="166.8774" x2="322.7248" y2="145.3104"/><line class="e" x1="461.9345" y1="89.023" x2="525.8917" y2="67.4559"/><line class="e" x1="509.9264" y1="46.7556" x2="573.8836" y2="25.1885"/><line class="e" x1="317.0435" y1="188.5569" x2="381.0008" y2="166.9898"/><line class="e" x1="467.5293" y1="139.8019" x2="531.4866" y2="118.2348"/></g></g><text class="j" transform="translate(638.7529 222.7789)">Paredes del<tspan x="0" y="39.5996">neumático</tspan></text><text class="j" transform="translate(0 233.7789)">Banda de<tspan x="1.8477" y="39.5996">rodadura</tspan></text><line class="k" x1="376.2822" y1="395.5702" x2="376.2822" y2="420.9762"/><polygon class="l" points="370.299 419.225 376.282 429.587 382.265 419.225 370.299 419.225"/><line class="k" x1="376.2822" y1="72.9762" x2="376.2822" y2="47.5702"/><polygon class="l" points="382.266 49.321 376.283 38.959 370.299 49.321 382.266 49.321"/><line class="k" x1="198.6733" y1="245.3346" x2="149.8613" y2="245.3346"/><circle class="l" cx="198.6733" cy="245.3346" r="4.5117"/><polyline class="k" points="540.022 65.941 600.433 65.996 600.143 381.991 548.751 381.935"/><path class="l" d="M540.0186,70.4523a4.5118,4.5118,0,1,1,4.5156-4.5076A4.5125,4.5125,0,0,1,540.0186,70.4523Z"/><path class="l" d="M548.7559,377.4232a4.5118,4.5118,0,1,0,4.5068,4.5166A4.5122,4.5122,0,0,0,548.7559,377.4232Z"/><line class="m" x1="600.2838" y1="228.6403" x2="624.6804" y2="228.6627"/></svg>