<svg xmlns="http://www.w3.org/2000/svg" viewBox="0 0 711.4902 622.7764"><defs><style>.a,.c,.e{fill:none;}.a,.b,.c{stroke:#d91519;stroke-linecap:round;}.a,.b,.c,.e{stroke-linejoin:round;}.a,.b{stroke-width:3px;}.b{fill:#fff;}.c{stroke-width:9px;}.d{fill:#d91519;}.e{stroke:#606060;stroke-linecap:square;stroke-width:2px;}.f,.g{fill:#606060;}.g{font-size:33px;font-family:Lato-Italic, Lato;font-style:italic;}</style></defs><title>moldear</title><path class="a" d="M354.4937,247.7455,512.085,338.2818,709.99,447.9459V312.5406L518.708,205.084,354.1039,108.3094A14.8544,14.8544,0,0,0,333.921,103.39l-166.8927,98.973V338.5044L332.8374,242.126A15.9854,15.9854,0,0,1,354.4937,247.7455Z"/><path class="b" d="M522.5248,400.5109,364.9336,309.9746,167.0283,200.3105V335.7158L358.3105,443.1724,522.9146,539.947a14.8545,14.8545,0,0,0,20.183,4.9191L709.99,445.8931V309.752L544.1811,406.13A15.9855,15.9855,0,0,1,522.5248,400.5109Z"/><line class="b" x1="176.9081" y1="206.8459" x2="176.9081" y2="249.7761"/><line class="b" x1="194.5697" y1="217.5254" x2="194.5697" y2="260.4556"/><line class="b" x1="215.9107" y1="228.9408" x2="215.9107" y2="271.871"/><line class="b" x1="237.2518" y1="240.3562" x2="237.2518" y2="283.2863"/><line class="b" x1="258.5928" y1="253.7716" x2="258.5928" y2="296.7017"/><line class="b" x1="279.9339" y1="265.187" x2="279.9339" y2="308.1171"/><line class="b" x1="301.2749" y1="277.6024" x2="301.2749" y2="320.5325"/><line class="b" x1="322.6159" y1="289.0177" x2="322.6159" y2="331.9479"/><line class="b" x1="343.957" y1="300.4331" x2="343.957" y2="343.3633"/><line class="b" x1="365.298" y1="312.8485" x2="365.298" y2="355.7787"/><line class="b" x1="386.639" y1="325.2639" x2="386.639" y2="368.1941"/><line class="b" x1="407.9801" y1="335.6793" x2="407.9801" y2="378.6094"/><line class="b" x1="429.3211" y1="349.0947" x2="429.3211" y2="392.0248"/><line class="b" x1="176.9081" y1="297.3614" x2="176.9081" y2="340.2915"/><line class="b" x1="194.5697" y1="308.0409" x2="194.5697" y2="350.971"/><line class="b" x1="215.9107" y1="319.4562" x2="215.9107" y2="362.3864"/><line class="b" x1="237.2518" y1="330.8716" x2="237.2518" y2="373.8018"/><line class="b" x1="258.5928" y1="344.287" x2="258.5928" y2="387.2172"/><line class="b" x1="279.9339" y1="355.7024" x2="279.9339" y2="398.6326"/><line class="b" x1="301.2749" y1="368.1178" x2="301.2749" y2="411.0479"/><line class="b" x1="322.6159" y1="379.5332" x2="322.6159" y2="422.4633"/><line class="b" x1="343.957" y1="390.9486" x2="343.957" y2="433.8787"/><line class="b" x1="365.298" y1="403.364" x2="365.298" y2="446.2941"/><line class="b" x1="386.639" y1="415.7793" x2="386.639" y2="458.7095"/><line class="b" x1="407.9801" y1="428.1947" x2="407.9801" y2="471.1249"/><line class="b" x1="429.3211" y1="441.6101" x2="429.3211" y2="484.5403"/><line class="b" x1="451.298" y1="362.8485" x2="451.298" y2="405.7787"/><line class="b" x1="472.639" y1="373.2639" x2="472.639" y2="416.1941"/><line class="b" x1="493.9801" y1="386.6793" x2="493.9801" y2="429.6094"/><line class="b" x1="515.3211" y1="398.0947" x2="515.3211" y2="441.0248"/><line class="b" x1="451.298" y1="453.364" x2="451.298" y2="496.2941"/><line class="b" x1="472.639" y1="465.7793" x2="472.639" y2="508.7095"/><line class="b" x1="493.9801" y1="478.1947" x2="493.9801" y2="521.1249"/><line class="b" x1="515.3211" y1="492.6101" x2="515.3211" y2="535.5403"/><line class="b" x1="550.0084" y1="403.0102" x2="550.0084" y2="445.9403"/><line class="b" x1="572.8212" y1="389.764" x2="572.8212" y2="432.6941"/><line class="b" x1="595.6341" y1="376.5178" x2="595.6341" y2="419.448"/><line class="b" x1="618.4469" y1="363.2717" x2="618.4469" y2="406.2018"/><line class="b" x1="641.2597" y1="350.0255" x2="641.2597" y2="392.9557"/><line class="b" x1="664.0726" y1="336.7793" x2="664.0726" y2="379.7095"/><line class="b" x1="686.8854" y1="323.5332" x2="686.8854" y2="366.4633"/><line class="b" x1="708.6982" y1="311.287" x2="708.6982" y2="354.2172"/><line class="b" x1="550.0084" y1="495.7333" x2="550.0084" y2="538.6634"/><line class="b" x1="572.8212" y1="482.4871" x2="572.8212" y2="525.4173"/><line class="b" x1="595.6341" y1="469.241" x2="595.6341" y2="512.1711"/><line class="b" x1="618.4469" y1="455.9948" x2="618.4469" y2="498.925"/><line class="b" x1="641.2597" y1="442.7486" x2="641.2597" y2="485.6788"/><line class="b" x1="664.0726" y1="429.5025" x2="664.0726" y2="472.4326"/><line class="b" x1="686.8854" y1="416.2563" x2="686.8854" y2="459.1865"/><line class="b" x1="708.6982" y1="404.0102" x2="708.6982" y2="446.9403"/><path class="a" d="M519.7656,390.7155a17.7827,17.7827,0,0,0,24.1224,6.3032L693.193,311.285A4.5308,4.5308,0,0,0,691.81,302.91L350.3677,111.9076a12.3249,12.3249,0,0,0-16.6633-4.2664l-149.46,85.91a5.9866,5.9866,0,0,0,1.7915,11.057Z"/><path class="a" d="M520.5825,398.1387a19.1453,19.1453,0,0,0,25.9708,6.7862l160.746-92.3033a4.878,4.878,0,0,0-1.49-9.0168L350.047,102.273a13.2692,13.2692,0,0,0-17.94-4.5933l-160.9125,92.493a6.4453,6.4453,0,0,0,1.9287,11.9042Z"/><line class="c" x1="336.4902" y1="4.5" x2="336.4902" y2="151.5"/><path class="d" d="M335.9291,10.9664a4.2851,4.2851,0,0,1,3.459,1.7567L421.735,133.5063,209.3443,81.7821,333.9779,11.4439a4.2052,4.2052,0,0,1,1.9512-.4775M449.5836,153.6841l213.5049,51.7238L542.5029,274.13q-.0477.0273-.0952.0551a3.9391,3.9391,0,0,1-2.0168.55,4,4,0,0,1-2.93-1.27L449.5836,153.6841M335.9291,1.9664a13.2229,13.2229,0,0,0-6.2686,1.58L191.9955,81.2388a3.1094,3.1094,0,0,0,.6931,5.75l239.613,58.3539L530.43,279.0962a12.9987,12.9987,0,0,0,16.5293,2.853l131.13-74.7315a4.2033,4.2033,0,0,0-1.1122-7.7054l-238.7886-57.849L346.7662,7.5682a13.2652,13.2652,0,0,0-10.8371-5.6018Z"/><line class="c" x1="536.4902" y1="283.5" x2="536.4902" y2="431.5"/><line class="c" x1="676.4902" y1="204.5" x2="676.4902" y2="350.5"/><line class="c" x1="193.4902" y1="84.5" x2="193.4902" y2="228.5"/><line class="e" x1="364.1265" y1="370.9337" x2="265.7402" y2="422.9114"/><polygon class="f" points="264.493 416.803 258.126 426.933 270.083 427.384 264.493 416.803"/><line class="e" x1="451.1265" y1="419.9337" x2="352.7402" y2="471.9114"/><polygon class="f" points="351.493 465.803 345.126 475.933 357.083 476.384 351.493 465.803"/><line class="e" x1="279.1265" y1="319.9337" x2="180.7402" y2="371.9114"/><polygon class="f" points="179.493 365.803 173.126 375.933 185.083 376.384 179.493 365.803"/><text class="g" transform="translate(30.5 455.5156)">La cara interna<tspan x="-30.5" y="39.5996">del neumático debe</tspan><tspan x="4.0752" y="79.2002">estar mirando </tspan><tspan x="17.9268" y="118.7998">hacia afuera</tspan></text></svg>