<svg xmlns="http://www.w3.org/2000/svg" xmlns:xlink="http://www.w3.org/1999/xlink" viewBox="0 0 689.6762 603.6977"><defs><style>.a,.f,.g{fill:none;}.b{fill:#fff;}.c{opacity:0.5;}.d{clip-path:url(#a);}.e{fill:#d91519;}.f{stroke:#d91519;stroke-width:3px;}.f,.g{stroke-linecap:round;stroke-linejoin:round;}.g{stroke:#606060;stroke-width:2px;}.h,.i{fill:#606060;}.i{font-size:33px;font-family:Lato-Italic, Lato;font-style:italic;}</style><clipPath id="a" transform="translate(0 32.4656)"><path class="a" d="M123.173,193.4458,365.6239,253.583,458.035,384.8989a13.92,13.92,0,0,0,18.2681,4.0873l129.6617-73.783a5.6371,5.6371,0,0,0-1.41-10.381L371.511,249.9035,277.0885,114.8084a13.2693,13.2693,0,0,0-17.1057-4.022L122.6539,189.7441A2.0145,2.0145,0,0,0,123.173,193.4458Z"/></clipPath></defs><title>partes</title><path class="b" d="M102.1429,200.0525,363.0508,253.06a5.9432,5.9432,0,0,1,3.9193,2.777l81.5748,136.59a23.8274,23.8274,0,0,0,32.322,8.4459L635.1483,312.282a5.9434,5.9434,0,0,0-1.8149-10.9863L374.0777,250.4073a5.9435,5.9435,0,0,1-3.9289-2.7367L283.3849,105.4561a19.2127,19.2127,0,0,0-25.9758-6.6507l-157.0448,90.27A5.9434,5.9434,0,0,0,102.1429,200.0525Z" transform="translate(0 32.4656)"/><g class="c"><g class="d"><path class="e" d="M111.8144,281.8024c-.113-5.8257-15.2249-46.3022-20.4237-52.5606-4.1487-4.9946-16.5823-7.71-27.4894-8.4022l-.8268,1.1852-.7193,1.031L51.52,238.5871l-1.2042,1.726-1.6286,2.3345c2.6607,10.7354,6.6162,24.4036,10.8845,37.1831l4.197,2.9281,4.5443,3.17,12.4489,8.6852L95.246,304.72C103.8886,295.6983,111.8823,285.2949,111.8144,281.8024Z" transform="translate(0 32.4656)"/><path class="e" d="M153.8005,223.77c4.0829-3.856-20.012-55.1467-26.0812-58.4231-3.4264-1.85-15.4847-.8687-26.0646,1.3793l-1.95,2.7954-1.81,2.5945L84.1937,191.7536l-2.1732,3.115-2.4122,3.4575c.4893,6.1728,2.3648,12.2189,6.5728,16.5795C95.5388,224.6025,149.7176,227.6258,153.8005,223.77Z" transform="translate(0 32.4656)"/><path class="e" d="M106.5609,237.9919c.1441,7.42,14.6528,40.8721,27.3163,50.6648s67.4717,25.0435,72.4535,19.8991c1.8277-1.8874,12.5847-18.0382,8.3133-23.8916-12.7041-17.4089-42.8009-42.312-47.545-45.6218C159.606,233.8147,106.3722,228.2825,106.5609,237.9919Z" transform="translate(0 32.4656)"/><path class="e" d="M150.5468,173.1486c-7.8437.0982,14.8416,50.5817,20.9863,57.742s39.1153,39.7408,47.9567,43.0357c5.1763,1.929,23.8619-8.2548,27.4576-13.4086,2.2473-3.2211,4.1927-21.9773,1.3074-27.8216C244.823,225.7452,184.2622,172.726,150.5468,173.1486Z" transform="translate(0 32.4656)"/><path class="e" d="M170.1958,309.9847c-18.4874-4.1989-44.5451-10.3035-51.0242-10.6953-4.3575-.2636-9.6386,4.991-14.2653,12.17l1.8006,1.2562,2.1017,1.4663L128.858,328.17l9.7683,6.815,9.1724,6.3993c21.0075-8.1978,40.8871-17.9823,42.9276-20.9072C195.67,313.3905,186.0214,313.5789,170.1958,309.9847Z" transform="translate(0 32.4656)"/><path class="e" d="M260.0826,394.2687c.261-10.3537-36.9824-69.2488-48.0354-70.8665-13.8985-2.0342-46.4663,25.8457-48.2005,29.1686l-.0034.0071,2.34,1.6325,2.2657,1.5807,25.3923,17.7154,35.3011,24.6284,18.3589,12.8084C254.4948,405.255,259.9675,398.8356,260.0826,394.2687Z" transform="translate(0 32.4656)"/><path class="e" d="M308.7492,269.932c-10.3714,1.6363-8.7536,49.5441-5.1548,68.3373,2.7356,14.2842,11.3316,12.14,30.3085,14.4407,28.2468,3.4245,47.5256,5.9624,47.6139,1.6115.23-11.3109-29.3066-71.3-39.9681-77.4847C336.8248,274.0966,322.3267,267.79,308.7492,269.932Z" transform="translate(0 32.4656)"/><path class="e" d="M222.5442,298.9866c-4.4569,8.3842,3.2248,23.3213,11.2428,31.7885,6.3845,6.7424,27.9769,15.1855,52.5611,18.4721,15.2844,2.0435,1.9668-68.2782-4.1353-71.7117a48.6493,48.6493,0,0,0-23.7092-6.14C250.7716,271.3445,227.001,290.6026,222.5442,298.9866Z" transform="translate(0 32.4656)"/><path class="e" d="M250.7749,351.2062c-2.21,5.163,19.1891,45.605,25.443,49.3579,9.8157,5.89,31.2074,13.1523,38.5874,12.5542s-8.2477-44.0658-15.2912-49.9376S252.9845,346.0432,250.7749,351.2062Z" transform="translate(0 32.4656)"/><path class="e" d="M409.0391,389.5812c2.9967-4.8757-10.2855-17.2942-14.2379-19.5113-7.006-3.93-65.0187-8.8089-73.6134-8.2569s.1216,40.983,9.2974,50.5448c9.5072,9.907,38.088,22.563,49.9557,23.2031C388.3119,435.9857,398.74,406.34,409.0391,389.5812Z" transform="translate(0 32.4656)"/><path class="e" d="M299.6728,418.452c-1.3442-2.5486-24.121-12.5426-29.3341-11.8452-3.7816.506-10.7674,7.1127-13.46,10.8786l1.8671,1.3027,2.1788,1.52,13.7579,9.5985,9.9995,6.9762,4.4449,3.1011C294.8959,432.54,301.34,421.613,299.6728,418.452Z" transform="translate(0 32.4656)"/><path class="e" d="M410.1874,497.5155c1.6845-8.4027-18.117-38.1676-26.342-48.0695-3.7843-4.5557-55.0348-26.9025-66.0855-25.0342-6.18,1.0447-14.7623,11.0912-20.3,21.3857l2.6535,1.8513,3.0672,2.14,47.3772,33.0535,27.5986,19.2546,16.4935,11.507C403.0728,507.3672,409.5105,500.8925,410.1874,497.5155Z" transform="translate(0 32.4656)"/><path class="e" d="M158.6926,162.8207c6.3678-5.1353,7.609-44.7224-1.5056-53.7289-2.2844-2.2573-5.51-5.2339-9.33-8.59l-2.506,3.5919-5.4146,7.7611L122.7915,136.43l-7.7155,11.059-4.0709,5.8351C119.53,157.6248,152.7319,167.6276,158.6926,162.8207Z" transform="translate(0 32.4656)"/><path class="e" d="M171.7472,163.4476c6.8386,8.544,34.2814,28.706,40.7246,27.4545s6.1759-38.7919,3.74-45.28-33.3689-29.16-37.9146-25.4938C171.93,125.2632,166.5391,156.9408,171.7472,163.4476Z" transform="translate(0 32.4656)"/><path class="e" d="M224.1162,193.5677c1.137,7.0174,19.8955,25.3739,25.5152,29.2946s38.1755,15.14,47.3533,11.9654c8.2087-2.84,27.066-10.7686,24.1226-18.6086-2.923-7.786-46.0865-65.6759-56.314-68.98s-30.3807,5.6225-34.4634,9.4788C225.3966,161.3771,222.5414,183.849,224.1162,193.5677Z" transform="translate(0 32.4656)"/><path class="e" d="M266.4823,238.3005c-5.0571,1.2607-6.2168,12.9029-6.5532,19.3727-.2827,5.44,28.96,16.3734,33.5677,15.7569s4.1929-21.9774,1.3452-25.88C293.1568,245.241,271.54,237.04,266.4823,238.3005Z" transform="translate(0 32.4656)"/><path class="e" d="M350.0143,263.6538c5.9938-.6072,5.5033-25.8521-2.9263-31.7331-6.8186-4.7572-35.0636,2.3553-40.4571,10.086-3.5956,5.1538.7134,12.9491,7.2322,15.5814S340.2414,264.644,350.0143,263.6538Z" transform="translate(0 32.4656)"/><path class="e" d="M333.6,158.2513c-7.9424-4.5834-41.2461-6.7469-44.3923-2.2372s38.7748,57.7012,46.4983,63.09c6.5566,4.5743,35.1771,3.47,36.45-2.3461S341.5428,162.8348,333.6,158.2513Z" transform="translate(0 32.4656)"/><path class="e" d="M449.8515,292.3465c2.5457-11.6329-30.0883-50.6832-40.8032-55.2852s-39.8975-8.6795-43.98-4.8235-5.4173,45.9455-4.5257,52.3945c1.6123,11.6606,22.8185,33.16,31.66,36.4551S447.3058,303.9794,449.8515,292.3465Z" transform="translate(0 32.4656)"/><path class="e" d="M435.1867,322.126c-10.6769-2.66-35.8495,9.4694-40.3819,13.97s7.1824,27.6431,11.7679,35.0283c5.2456,8.4487,71.8529,12.7756,70.8031,6.2964S445.8635,324.7859,435.1867,322.126Z" transform="translate(0 32.4656)"/><path class="e" d="M183.92,105.7493c1.6318,7.3162,33.42,31.9362,41.8119,35.8753s23.5258-1.7852,26.147-9.5342-33.76-49.4132-41.1772-50.7571S181.8961,96.6748,183.92,105.7493Z" transform="translate(0 32.4656)"/><path class="e" d="M184.5609,84.9592c4.4153-3.5606,12.2484-11.5684,12.5846-18.0382.1453-2.7958-6.5949-9.1425-15.0056-15.5583l-.8824,1.2647-17.5606,25.17-6.47,9.2737C169.3805,87.4751,182.6711,86.4831,184.5609,84.9592Z" transform="translate(0 32.4656)"/><path class="e" d="M281.7361,67.0618c-11.6136-3.3134-48.0636-.9673-51.21,3.542S256.9816,124.499,268.746,135.58c9.3684,8.8242,42.2581,11.2842,51.436,8.1093s12.06-21.278,12.3583-29.69S293.35,70.3753,281.7361,67.0618Z" transform="translate(0 32.4656)"/><path class="e" d="M271.3679,53.33c2.7345-1.9235.4083-26.5333-6.5974-30.4632-6.5325-3.6645-37.33-15.929-53.0015-13.9733l-1.4861,2.13-2.3794,3.4106L192.7244,36.1913,190.93,38.763l-1.9183,2.75a5.54,5.54,0,0,0,.4653.659c8.0658,9.78,36.0383,16.6784,40.4214,16.7074C236.8291,58.925,264.7027,58.0185,271.3679,53.33Z" transform="translate(0 32.4656)"/><path class="e" d="M222.5218,79.9073c3.7089.6719-.7134-12.9491-4.01-16.2072s-11.5759-1.3715-12.4371,1.8589C204.8929,69.9911,214.4878,78.4521,222.5218,79.9073Z" transform="translate(0 32.4656)"/><path class="e" d="M454.791,518.6409c-4.5161-1.08-16.815,8.2144-26.2449,18.6114l1.8,1.2558,1.29.9L462.14,560.69l6.7383,4.7012,8.3725,5.8411c4.2067-5.12,6.8928-9.7941,6.1307-12.5309C479.4087,544.4359,463.3358,520.6837,454.791,518.6409Z" transform="translate(0 32.4656)"/><path class="e" d="M304.7071,56.8529c-2.1542,3.0878-.519,13.4105,2.0923,19.1672,3.0466,6.7165,36.4274,33.2842,43.2945,36.1075s9.69-4.3888,12.1519-7.9179-28.2238-38.71-32.2465-40.86C322.8555,59.53,306.8615,53.7649,304.7071,56.8529Z" transform="translate(0 32.4656)"/><path class="e" d="M461.4038,390.25c-6.9683-1.9882-32.4048-3.452-38.323,1.0391s-21.8723,39.3345-27.7152,47.7095,21.7059,44.3967,23.9817,45.4649c8.3918,3.9392,47.4595-30.1033,51.9541-36.5455S468.3719,392.238,461.4038,390.25Z" transform="translate(0 32.4656)"/><path class="e" d="M444.6524,503.01c.1527-2.9375-10.7864-10.3628-16.7839-7.8783-3.6346,1.5057-17.2523,14.8333-25.4818,23.87l1.7944,1.252,1.1867.8279,2.05,1.43,10.69,7.4579,5.1589,3.5992C432.39,523.1575,444.421,507.4592,444.6524,503.01Z" transform="translate(0 32.4656)"/><path class="e" d="M276.1291,12.3572C274.5167.6966,262.0877-33.427,254.47-32.4449c-3.9814.5131-27.2688,23.118-20.1875,30.9319C242.0756,7.086,276.8712,17.7231,276.1291,12.3572Z" transform="translate(0 32.4656)"/><path class="e" d="M74.4826,213.9076c.91-.177.3687-2.8975-.9929-6.8115l-4.7851,6.8588A41.657,41.657,0,0,0,74.4826,213.9076Z" transform="translate(0 32.4656)"/><path class="e" d="M484.0587,423.6c-.7859,7.1141-5.7266,38.1475.4181,45.3078s24.7985,7.122,29.2208,6.02c5.0573-1.2608,25.2858-6.3037,28.432-10.8133s-17.2365-31.1812-21.0208-35.7368C514.0818,419.9171,484.8446,416.4855,484.0587,423.6Z" transform="translate(0 32.4656)"/><path class="e" d="M460.4622,471.5709c1.7294,3.2786,14.8727,4.63,16.2212,2.6969s-1.5748-9.7186-4.8719-12.9767S458.064,467.0244,460.4622,471.5709Z" transform="translate(0 32.4656)"/><path class="e" d="M506.1571,381.9633c-1.5576-6.4326-23.4878,3.727-28.9568,7.5738s5.8837,17.514,14.7627,22.7507S508.6683,392.3355,506.1571,381.9633Z" transform="translate(0 32.4656)"/><path class="e" d="M297.2146,26.453c-2.398-4.5465-16.746-5.9367-18.9933-2.7156s2.3636,26.5516,4.2746,29.8006c3.8219,6.4974,13.1128,9.1483,14.9106,6.5714S299.6128,31,297.2146,26.453Z" transform="translate(0 32.4656)"/><path class="e" d="M360.3044,50.3541c-5.62-3.9207-21.2408.5057-22.0642,5.6779-.701,4.404,25.1791,35.7648,30.3494,40.33S381.6615,79.621,381.6615,79.621,365.924,54.2747,360.3044,50.3541Z" transform="translate(0 32.4656)"/><path class="e" d="M367.3138,120.1711c-.28,7.8743,40.2029,48.1618,46.7215,50.7941s17.2644-38.7181,16.74-41.9576S400.69,102.2714,392.785,99.63,367.6123,111.7592,367.3138,120.1711Z" transform="translate(0 32.4656)"/><path class="e" d="M360.7733,130.6435c-5.582-1.9786-23.9375,4.3712-21.9509,11.5037.8181,2.9379,13.8758,27.4277,21.0585,37.679,6.6867,9.5431,17.2795,13.7449,22.479,15.6828,7.2438,2.7,14.0087-16.0872,15.2814-21.9035S366.3554,132.6223,360.7733,130.6435Z" transform="translate(0 32.4656)"/><path class="e" d="M461.4618,243.3618c4.6077-.6163,14.3446-22.5571,8.6493-30.3614s-41.2872-32.636-48.7047-33.98-19.1409,13.4639-21.8,19.2712,3.1492,19.4373,6.9713,25.935C410.4363,230.7866,456.854,243.9783,461.4618,243.3618Z" transform="translate(0 32.4656)"/><path class="e" d="M382.528,221.5242c5.6972,3.9748,12.063,2.6693,14.31-.5519s-4.4225-13.6208-8.169-16.2347S376.9082,217.6035,382.528,221.5242Z" transform="translate(0 32.4656)"/><path class="e" d="M523.0414,325.835c-7.0436-5.8721-53.2371-29.48-60.1676-29.5258s-16.743,18.0105-15.7309,22.5479c1.46,6.5436,37.918,49.441,46.2347,49.4965S530.0848,331.7069,523.0414,325.835Z" transform="translate(0 32.4656)"/><path class="e" d="M537.4381,274.3271c-2.4356-6.4884-36.676-9.3052-43.1571-9.9959s-34.35,15.3045-30.079,21.1579,39.75,24.859,48.5539,26.212S539.874,280.8155,537.4381,274.3271Z" transform="translate(0 32.4656)"/><path class="e" d="M480.69,257.1982c-6.6229-4.62-44.858-15.3126-46.4163-11.312-1.76,4.519,16.2245,26.644,19.9332,27.3159S484.4363,259.8121,480.69,257.1982Z" transform="translate(0 32.4656)"/><path class="e" d="M521.8208,350.9746c.1079,5.5607,25.2887,17.6433,30.7954,15.7383s-8.32-24.0026-14.389-27.2792S521.7454,347.0908,521.8208,350.9746Z" transform="translate(0 32.4656)"/><path class="e" d="M557.0263,328.1886c5.9938-.6073,52.7055-21.6542,52.1054-28.7776s-56.3075-21.086-58.5172-15.9229-20.1878,30.9321-17.79,35.4783C535.6217,324.2685,551.0324,328.7958,557.0263,328.1886Z" transform="translate(0 32.4656)"/><path class="e" d="M617.6654,314.6435c-5.095-.6811-43.2294,10.0675-39.4451,14.6232,3.5132,4.23,37.2764,16.4286,40.91,13.217S622.76,315.3245,617.6654,314.6435Z" transform="translate(0 32.4656)"/><path class="e" d="M484.4584,215.3279c-3.3549,4.5287-6.5543,19.3219-6.44,25.1985.0755,3.8839,14.1249,13.6855,21.58,16.9713s36.1515,6.0659,44.43,4.1794S558.71,232.65,558.6342,228.7663s-34.7305-28.0618-39.8632-30.6847C515.9187,196.6239,487.21,211.6142,484.4584,215.3279Z" transform="translate(0 32.4656)"/><path class="e" d="M492.0812,157.8344c-3.7843-4.5557-29.2241-29.9667-38.4394-28.7334s-24.195,38.6717-22.2464,43.8623c2.0087,5.3507,34.7687,30.0039,43.1228,32.0011s28.4319-10.8135,30.192-15.3323S495.8657,162.39,492.0812,157.8344Z" transform="translate(0 32.4656)"/><path class="e" d="M611.6438,289.3976c7.38-.5981,6.7382-33.61,6.1758-38.7918s-15.5865-17.5787-22.0674-18.2692-36.0727,21.765-36.8584,28.8793c-.5593,5.0647,4.4225,13.6209,8.6185,15.5905S604.2638,289.9958,611.6438,289.3976Z" transform="translate(0 32.4656)"/><path class="e" d="M621.2116,298.4171c-1.6119,7.3658,5.3591,14.2743,10.0045,15.6s23.3747-9.5525,25.622-12.7737S632.3724,278.428,628.2142,278.4,622.4845,292.6,621.2116,298.4171Z" transform="translate(0 32.4656)"/><path class="e" d="M174.9854,95.96c-2.2381-3.0667-16.99-4.2175-22.0048-2.8023L151.6328,95.09c3.3944,4.8565,14.4672,15.73,19.5338,18.32C176.2991,116.0327,177.833,99.8624,174.9854,95.96Z" transform="translate(0 32.4656)"/><path class="e" d="M488.2172,531.9549c-.8408,1.2051.5243,8.9428,3.15,19.5363l1.6287-2.3346,1.2042-1.726,10.8356-15.5312.7194-1.0311.8268-1.1851C497.5919,529.113,489.6386,529.9174,488.2172,531.9549Z" transform="translate(0 32.4656)"/><path class="e" d="M291.6909,13.997c4.1436-2.32,10.2067-7.73,15.9807-13.757L293.187-9.8654,276.1936-21.7211l-4.1968-2.928C279.2781-2.8491,287.4685,16.3609,291.6909,13.997Z" transform="translate(0 32.4656)"/><path class="e" d="M307.5909,43.191c8.8089,9.72,22.9821,4.1887,38.323-1.0392,4.6974-1.6008,9.533-3.3833,14.31-5.2475l-9.1723-6.3993-9.7684-6.815L321.2342,9.7022l-2.1018-1.4663-1.8-1.2562C309.19,19.6134,303.0755,38.2086,307.5909,43.191Z" transform="translate(0 32.4656)"/><path class="e" d="M433.8143,119.303c5.9464.4014,17.2507-5.6317,26.1125-12.84L441.5679,93.6551,406.2666,69.0266l-25.392-17.7153-2.2658-1.5807-2.34-1.6325C368.02,63.95,423.1766,118.585,433.8143,119.303Z" transform="translate(0 32.4656)"/><path class="e" d="M468.2308,114.9745c-1.5042,6.8728,21.8441,30.5646,26.8637,27.362,1.53-.9759,3.9288-3.57,6.4577-6.8324l-4.445-3.1011-9.9994-6.9762L473.35,115.8283l-2.1788-1.52-1.8671-1.3027A6.4228,6.4228,0,0,0,468.2308,114.9745Z" transform="translate(0 32.4656)"/><path class="e" d="M505.1291,161.8337c8.169,16.2352,48.7078,57.9269,63.5809,62.5565,8.8955,2.769,25.83-5.985,38.365-15.2662l-16.4935-11.507L562.983,178.3624l-47.3772-33.0535-3.0672-2.14-2.6535-1.8513C505.5212,149.43,503.0473,157.6964,505.1291,161.8337Z" transform="translate(0 32.4656)"/><path class="e" d="M629.6855,255.98c6.22,11.0441,24.73,36.4089,31.1729,35.1575,4.3682-.8484,19.9629-13.6071,28.8178-24.3854l-8.3722-5.841-6.7384-4.7012-30.5043-21.2818-1.29-.9-1.8-1.2558C632.958,241.6085,627.0162,251.2407,629.6855,255.98Z" transform="translate(0 32.4656)"/><path class="e" d="M608.5684,222.1537c-3.3516,6.3051,12.8517,19.5022,17.8712,16.2992,1.5673-1,5.11-4.637,9.2523-9.3639L630.533,225.49l-10.69-7.4579-2.05-1.43-1.1867-.8279-1.7945-1.252A56.96,56.96,0,0,0,608.5684,222.1537Z" transform="translate(0 32.4656)"/><path class="e" d="M522.2886,507.17l2.4122-3.4576,2.1733-3.1151,13.7006-19.6377,1.81-2.5945,1.95-2.7954c-8.16,1.7339-15.4411,4.2215-17.2025,6.7462C524.5918,485.9574,521.4623,496.7445,522.2886,507.17Z" transform="translate(0 32.4656)"/><path class="e" d="M532.9172,372.1844c-8.2411,3.8284-17.23,16.7127-17.5286,25.1246s31.6631,60.4019,36.91,64.0626a11.87,11.87,0,0,0,1.3866.7955l4.071-5.8351,7.7155-11.0591,17.1452-24.575,5.4147-7.7611,2.506-3.5919C572.3061,393.3241,540.535,368.6455,532.9172,372.1844Z" transform="translate(0 32.4656)"/><path class="e" d="M551.4118,342.8147c-4.2638,6.1115,21.21,45.4467,29.152,50.03,3.2287,1.8631,11.0192,2.794,19.3435,3.07l6.47-9.2737,17.5605-25.1705.8824-1.2647c-11.0525-8.4309-24.991-16.981-29.99-17.75C586.0262,341.1037,556.3558,335.7283,551.4118,342.8147Z" transform="translate(0 32.4656)"/><path class="e" d="M631.6923,350.3561l1.9184-2.75,1.7941-2.5716,15.1791-21.7569,2.38-3.4108,1.4857-2.13a18.2229,18.2229,0,0,0-3.155.6548C637.4935,322.6929,627.22,342.9579,631.6923,350.3561Z" transform="translate(0 32.4656)"/><path class="e" d="M448.5658,487.3444c.471,5.588,16.7492,29.8833,23.7175,31.8715,5.483,1.5644,28.1275,3.2429,39.1017,3.5825L516.17,515.94c-3.4563-9.9351-12.1987-27.5651-15.9074-30.84C495.0924,480.5349,447.9654,480.2209,448.5658,487.3444Z" transform="translate(0 32.4656)"/><path class="e" d="M594.179,403.7425c.0416.0611.09.1277.1342.1909l1.3477-1.9317C594.2948,402.3872,593.649,402.9627,594.179,403.7425Z" transform="translate(0 32.4656)"/></g></g><path class="f" d="M452.8471,398.7511,365.2559,253.2148,97.3506,198.5508V333.9561l261.2822,52.4565,94.6041,151.7747a14.8543,14.8543,0,0,0,20.1829,4.919l166.8927-98.973V307.9922L474.5034,404.3706A15.9854,15.9854,0,0,1,452.8471,398.7511Z" transform="translate(0 32.4656)"/><path class="f" d="M471.87,458.1364l168.4429-96.6517v30.6638L472.095,491.66a13.2487,13.2487,0,0,1-18.0083-4.4259l-96.19-155.2778L97.3506,277.292v-24.53l262.754,54.1736,94.0132,146.8527A13.2487,13.2487,0,0,0,471.87,458.1364Z" transform="translate(0 32.4656)"/><line class="f" x1="107.2304" y1="233.5518" x2="107.2304" y2="276.4819"/><line class="f" x1="124.892" y1="237.2313" x2="124.892" y2="280.1614"/><line class="f" x1="146.233" y1="241.6467" x2="146.233" y2="284.5768"/><line class="f" x1="167.574" y1="246.0621" x2="167.574" y2="288.9922"/><line class="f" x1="188.9151" y1="250.4775" x2="188.9151" y2="293.4076"/><line class="f" x1="210.2561" y1="254.8928" x2="210.2561" y2="297.823"/><line class="f" x1="231.5972" y1="259.3082" x2="231.5972" y2="302.2384"/><line class="f" x1="252.9382" y1="263.7236" x2="252.9382" y2="306.6538"/><line class="f" x1="274.2792" y1="268.139" x2="274.2792" y2="311.0691"/><line class="f" x1="295.6203" y1="272.5544" x2="295.6203" y2="315.4845"/><line class="f" x1="316.9613" y1="276.9698" x2="316.9613" y2="319.8999"/><line class="f" x1="338.3024" y1="281.3852" x2="338.3024" y2="324.3153"/><line class="f" x1="359.6434" y1="285.8005" x2="359.6434" y2="328.7307"/><line class="f" x1="107.2304" y1="324.0672" x2="107.2304" y2="366.9974"/><line class="f" x1="124.892" y1="327.7467" x2="124.892" y2="370.6769"/><line class="f" x1="146.233" y1="332.1621" x2="146.233" y2="375.0923"/><line class="f" x1="167.574" y1="336.5775" x2="167.574" y2="379.5077"/><line class="f" x1="188.9151" y1="340.9929" x2="188.9151" y2="383.923"/><line class="f" x1="210.2561" y1="345.4083" x2="210.2561" y2="388.3384"/><line class="f" x1="231.5972" y1="349.8237" x2="231.5972" y2="392.7538"/><line class="f" x1="252.9382" y1="354.2391" x2="252.9382" y2="397.1692"/><line class="f" x1="274.2792" y1="358.6544" x2="274.2792" y2="401.5846"/><line class="f" x1="295.6203" y1="363.0698" x2="295.6203" y2="406"/><line class="f" x1="316.9613" y1="367.4852" x2="316.9613" y2="410.4154"/><line class="f" x1="338.3024" y1="371.9006" x2="338.3024" y2="414.8308"/><line class="f" x1="359.6434" y1="376.316" x2="359.6434" y2="419.2461"/><line class="f" x1="374.3613" y1="399.1288" x2="374.3613" y2="442.059"/><line class="f" x1="374.3613" y1="306.4057" x2="374.3613" y2="349.3358"/><line class="f" x1="386.1357" y1="420.4699" x2="386.1357" y2="463.4"/><line class="f" x1="386.1357" y1="327.7467" x2="386.1357" y2="370.6769"/><line class="f" x1="399.3819" y1="441.8109" x2="399.3819" y2="484.7411"/><line class="f" x1="399.3819" y1="349.0878" x2="399.3819" y2="392.0179"/><line class="f" x1="412.628" y1="463.1519" x2="412.628" y2="506.0821"/><line class="f" x1="412.628" y1="371.9006" x2="412.628" y2="414.8308"/><line class="f" x1="428.0819" y1="487.4366" x2="428.0819" y2="530.3667"/><line class="f" x1="428.0819" y1="393.2416" x2="428.0819" y2="436.1718"/><line class="f" x1="444.2716" y1="512.4571" x2="444.2716" y2="555.3873"/><line class="f" x1="444.2716" y1="420.4699" x2="444.2716" y2="463.4"/><line class="f" x1="480.3306" y1="433.716" x2="480.3306" y2="476.6462"/><line class="f" x1="503.1435" y1="420.4699" x2="503.1435" y2="463.4"/><line class="f" x1="525.9563" y1="407.2237" x2="525.9563" y2="450.1539"/><line class="f" x1="548.7692" y1="393.9775" x2="548.7692" y2="436.9077"/><line class="f" x1="571.582" y1="380.7314" x2="571.582" y2="423.6615"/><line class="f" x1="594.3948" y1="367.4852" x2="594.3948" y2="410.4154"/><line class="f" x1="617.2077" y1="354.2391" x2="617.2077" y2="397.1692"/><line class="f" x1="639.0205" y1="341.9929" x2="639.0205" y2="384.923"/><line class="f" x1="480.3306" y1="526.4392" x2="480.3306" y2="569.3693"/><line class="f" x1="503.1435" y1="513.193" x2="503.1435" y2="556.1232"/><line class="f" x1="525.9563" y1="499.9468" x2="525.9563" y2="542.877"/><line class="f" x1="548.7692" y1="486.7007" x2="548.7692" y2="529.6308"/><line class="f" x1="571.582" y1="473.4545" x2="571.582" y2="516.3847"/><line class="f" x1="594.3948" y1="460.2084" x2="594.3948" y2="503.1385"/><line class="f" x1="617.2077" y1="446.9622" x2="617.2077" y2="489.8923"/><line class="f" x1="639.0205" y1="434.716" x2="639.0205" y2="477.6462"/><path class="f" d="M103.4453,200.3172,365.6239,253.583l85.2809,142.7959a19.1454,19.1454,0,0,0,25.9708,6.7863l160.7459-92.3034a4.878,4.878,0,0,0-1.49-9.0168L371.511,249.9035l-91.1417-149.39a13.2693,13.2693,0,0,0-17.94-4.5933l-160.9125,92.493A6.4453,6.4453,0,0,0,103.4453,200.3172Z" transform="translate(0 32.4656)"/><path class="f" d="M123.0109,194.2291l239.613,58.3539,98.1283,133.7534a13.0011,13.0011,0,0,0,16.5293,2.853l131.13-74.7315a4.2033,4.2033,0,0,0-1.1121-7.7054L368.511,248.9035,277.0885,114.8084a13.2693,13.2693,0,0,0-17.1057-4.022L122.3178,188.479A3.1094,3.1094,0,0,0,123.0109,194.2291Z" transform="translate(0 32.4656)"/><path class="e" d="M266.2513,118.2065a4.2851,4.2851,0,0,1,3.4587,1.7564l82.3472,120.7837-212.39-51.7244L264.3,118.6841a4.2044,4.2044,0,0,1,1.9512-.4776M379.9059,260.9246l213.5048,51.7233L472.8252,381.37c-.0319.0183-.0637.0366-.0955.0552a3.9357,3.9357,0,0,1-2.0164.55,4,4,0,0,1-2.93-1.2693L379.9059,260.9246M266.2513,109.2065a13.2216,13.2216,0,0,0-6.2685,1.58L122.3178,188.479a3.1093,3.1093,0,0,0,.6931,5.75l239.613,58.354,98.1283,133.7534a12.9993,12.9993,0,0,0,16.5293,2.8531l131.13-74.7317a4.2033,4.2033,0,0,0-1.1123-7.7054L368.511,248.9036,277.0884,114.8083a13.2654,13.2654,0,0,0-10.8371-5.6018Z" transform="translate(0 32.4656)"/><line class="g" x1="158.3125" y1="357.992" x2="158.3125" y2="432.7059"/><circle class="h" cx="158.3125" cy="358.2176" r="4.5117"/><line class="g" x1="253.4512" y1="144.5145" x2="178.3125" y2="60.7059"/><path class="h" d="M256.66,108.8691a4.5118,4.5118,0,1,1-6.3711-.3476A4.5124,4.5124,0,0,1,256.66,108.8691Z" transform="translate(0 32.4656)"/><text class="i" transform="translate(91.04 480.7879)">Banda de<tspan x="-18.6367" y="39.5996">rodadura de</tspan><tspan x="-14.1572" y="79.2002">neumáticos</tspan></text><text class="i" transform="translate(77.5322 60.7879)">Molde<tspan x="-77.5322" y="39.5996">en forma de</tspan><tspan x="-40.0771" y="79.2002">mariposa</tspan></text><text class="i" transform="translate(411.9736 138.2879)">Relleno con<tspan x="1.5928" y="39.5996">material de</tspan><tspan x="-8.9189" y="79.2002">construcción</tspan></text><line class="g" x1="490.3125" y1="233.7059" x2="490.3125" y2="374.4197"/><circle class="h" cx="490.3125" cy="374.1941" r="4.5117"/></svg>