<svg xmlns="http://www.w3.org/2000/svg" viewBox="0 0 673.9619 492.933"><defs><style>.a{fill:#fff;}.b{fill:none;stroke:#d91519;stroke-linecap:round;stroke-linejoin:round;stroke-width:3px;}.c{fill:#d91519;}</style></defs><title>patron</title><path class="a" d="M212.5961,113.3686l191.99,39.0058a4.3733,4.3733,0,0,1,2.8841,2.0435l60.0269,100.51a17.5334,17.5334,0,0,0,23.7842,6.2149l113.5282-65.19a4.3735,4.3735,0,0,0-1.3355-8.0843L412.7,150.4223a4.3736,4.3736,0,0,1-2.8911-2.0139L345.9634,43.76a14.1378,14.1378,0,0,0-19.1144-4.8939L211.2874,105.291A4.3734,4.3734,0,0,0,212.5961,113.3686Z"/><path class="a" d="M608.2153,193.0251a3.5873,3.5873,0,0,0-2.6826-4.7524L410.8113,150.0516,343.7442,40.1225a9.7639,9.7639,0,0,0-13.2011-3.38l-118.4078,68.061a4.7469,4.7469,0,0,0-.3277,8.0188l-2.7379-.5587v99.6381l192.265,38.6,69.6145,111.6836a10.9308,10.9308,0,0,0,14.8517,3.62l122.8082-72.8295v-100.18ZM420.3831,176.04l-14.0268-23.3061.1228.025Zm50.8309,84.3623a14.0837,14.0837,0,0,0,15.6684,3.1487l-.2842.1652A11.7581,11.7581,0,0,1,471.214,260.4025Z"/><path class="b" d="M470.6624,259.5813,406.2082,152.4882,209.07,112.2636v99.6381l192.265,38.6,69.6145,111.6836a10.9306,10.9306,0,0,0,14.8516,3.62l122.8083-72.8295v-100.18l-122.0109,70.92A11.7629,11.7629,0,0,1,470.6624,259.5813Z"/><path class="b" d="M484.66,303.28l123.949-71.1214v22.564L484.826,327.9483a9.7491,9.7491,0,0,1-13.2515-3.2568L400.7932,210.43,209.07,170.2054v-18.05l193.3479,39.8637,69.18,108.0618A9.7493,9.7493,0,0,0,484.66,303.28Z"/><line class="b" x1="216.3398" y1="114.1292" x2="216.3398" y2="145.7194"/><line class="b" x1="229.3361" y1="116.8368" x2="229.3361" y2="148.427"/><line class="b" x1="245.0399" y1="120.0859" x2="245.0399" y2="151.6761"/><line class="b" x1="260.7438" y1="123.3349" x2="260.7438" y2="154.9251"/><line class="b" x1="276.4476" y1="126.584" x2="276.4476" y2="158.1742"/><line class="b" x1="292.1514" y1="129.8331" x2="292.1514" y2="161.4233"/><line class="b" x1="307.8553" y1="133.0821" x2="307.8553" y2="164.6724"/><line class="b" x1="323.5591" y1="136.3312" x2="323.5591" y2="167.9214"/><line class="b" x1="339.263" y1="139.5803" x2="339.263" y2="171.1705"/><line class="b" x1="354.9668" y1="142.8293" x2="354.9668" y2="174.4196"/><line class="b" x1="370.6706" y1="146.0784" x2="370.6706" y2="177.6686"/><line class="b" x1="386.3745" y1="149.3275" x2="386.3745" y2="180.9177"/><line class="b" x1="402.0783" y1="152.5766" x2="402.0783" y2="184.1668"/><line class="b" x1="216.3398" y1="180.7352" x2="216.3398" y2="212.3254"/><line class="b" x1="229.3361" y1="183.4427" x2="229.3361" y2="215.0329"/><line class="b" x1="245.0399" y1="186.6918" x2="245.0399" y2="218.282"/><line class="b" x1="260.7438" y1="189.9409" x2="260.7438" y2="221.5311"/><line class="b" x1="276.4476" y1="193.1899" x2="276.4476" y2="224.7801"/><line class="b" x1="292.1514" y1="196.439" x2="292.1514" y2="228.0292"/><line class="b" x1="307.8553" y1="199.6881" x2="307.8553" y2="231.2783"/><line class="b" x1="323.5591" y1="202.9371" x2="323.5591" y2="234.5273"/><line class="b" x1="339.263" y1="206.1862" x2="339.263" y2="237.7764"/><line class="b" x1="354.9668" y1="209.4353" x2="354.9668" y2="241.0255"/><line class="b" x1="370.6706" y1="212.6843" x2="370.6706" y2="244.2745"/><line class="b" x1="386.3745" y1="215.9334" x2="386.3745" y2="247.5236"/><line class="b" x1="402.0783" y1="219.1825" x2="402.0783" y2="250.7727"/><line class="b" x1="412.9085" y1="235.9693" x2="412.9085" y2="267.5595"/><line class="b" x1="412.9085" y1="167.7389" x2="412.9085" y2="199.3291"/><line class="b" x1="421.5727" y1="251.6732" x2="421.5727" y2="283.2634"/><line class="b" x1="421.5727" y1="183.4427" x2="421.5727" y2="215.0329"/><line class="b" x1="431.3199" y1="267.377" x2="431.3199" y2="298.9672"/><line class="b" x1="431.3199" y1="199.1465" x2="431.3199" y2="230.7368"/><line class="b" x1="441.0671" y1="283.0808" x2="441.0671" y2="314.6711"/><line class="b" x1="441.0671" y1="215.9334" x2="441.0671" y2="247.5236"/><line class="b" x1="452.4389" y1="300.9507" x2="452.4389" y2="332.5409"/><line class="b" x1="452.4389" y1="231.6372" x2="452.4389" y2="263.2275"/><line class="b" x1="464.3521" y1="319.3621" x2="464.3521" y2="350.9523"/><line class="b" x1="464.3521" y1="251.6732" x2="464.3521" y2="283.2634"/><line class="b" x1="490.8862" y1="261.4204" x2="490.8862" y2="293.0106"/><line class="b" x1="507.673" y1="251.6732" x2="507.673" y2="283.2634"/><line class="b" x1="524.4599" y1="241.926" x2="524.4599" y2="273.5162"/><line class="b" x1="541.2468" y1="232.1788" x2="541.2468" y2="263.769"/><line class="b" x1="558.0336" y1="222.4315" x2="558.0336" y2="254.0218"/><line class="b" x1="574.8205" y1="212.6843" x2="574.8205" y2="244.2745"/><line class="b" x1="591.6073" y1="202.9371" x2="591.6073" y2="234.5273"/><line class="b" x1="607.6583" y1="193.9258" x2="607.6583" y2="225.516"/><line class="b" x1="490.8862" y1="329.6508" x2="490.8862" y2="361.241"/><line class="b" x1="507.673" y1="319.9036" x2="507.673" y2="351.4938"/><line class="b" x1="524.4599" y1="310.1564" x2="524.4599" y2="341.7466"/><line class="b" x1="541.2468" y1="300.4092" x2="541.2468" y2="331.9994"/><line class="b" x1="558.0336" y1="290.662" x2="558.0336" y2="322.2522"/><line class="b" x1="574.8205" y1="280.9148" x2="574.8205" y2="312.505"/><line class="b" x1="591.6073" y1="271.1676" x2="591.6073" y2="302.7578"/><line class="b" x1="607.6583" y1="262.1562" x2="607.6583" y2="293.7464"/><path class="b" d="M213.5545,113.5634,406.479,152.7591l62.7541,105.0766a14.0883,14.0883,0,0,0,19.1107,4.9937l118.2851-67.9216a3.59,3.59,0,0,0-1.096-6.635L410.8111,150.0515,343.7443,40.1225a9.7642,9.7642,0,0,0-13.2013-3.38L212.1353,104.8036A4.7428,4.7428,0,0,0,213.5545,113.5634Z"/><path class="b" d="M227.9519,109.0835l176.32,42.94,72.2079,98.4227a9.5669,9.5669,0,0,0,12.1631,2.0994l96.4924-54.9913a3.093,3.093,0,0,0-.8184-5.67L408.6036,149.3157,341.33,50.6416a9.7641,9.7641,0,0,0-12.5872-2.96l-101.301,57.17A2.2881,2.2881,0,0,0,227.9519,109.0835Z"/><path class="c" d="M333.3556,55.52a.768.768,0,0,1,.6083.2944l57.0817,83.7253-144.43-35.1735,86.4232-48.7738a.7262.7262,0,0,1,.3168-.0724m89.4013,106.4853,144.9583,35.1177-83.529,47.6035q-.0479.0272-.0954.0551a.5373.5373,0,0,1-.2816.0783.5726.5726,0,0,1-.3543-.12l-60.698-82.7342M333.3556,46.52a9.7305,9.7305,0,0,0-4.6128,1.1625l-101.3009,57.17a2.2881,2.2881,0,0,0,.51,4.2312l176.32,42.94,72.2079,98.4226a9.5649,9.5649,0,0,0,12.163,2.0994l96.4925-54.9913a3.093,3.093,0,0,0-.8184-5.67L408.6036,149.3157,341.33,50.6416a9.7615,9.7615,0,0,0-7.9746-4.1221Z"/><path class="a" d="M5.0264,79.4264l191.99,39.0058a4.3734,4.3734,0,0,1,2.884,2.0435l60.0269,100.51a17.5336,17.5336,0,0,0,23.7843,6.2148l113.5281-65.19a4.3735,4.3735,0,0,0-1.3354-8.0843L205.13,116.48a4.3734,4.3734,0,0,1-2.8912-2.0138L138.3936,9.8175a14.1375,14.1375,0,0,0-19.1143-4.8939L3.7177,71.3487A4.3735,4.3735,0,0,0,5.0264,79.4264Z"/><path class="a" d="M400.6455,159.0828a3.5872,3.5872,0,0,0-2.6825-4.7523L203.2415,116.1094,136.1745,6.18A9.7641,9.7641,0,0,0,122.9733,2.8L4.5656,70.8613A4.7468,4.7468,0,0,0,4.2379,78.88L1.5,78.3213V177.96l192.2649,38.6,69.6145,111.6836a10.9307,10.9307,0,0,0,14.8518,3.62l122.8081-72.8294V158.854ZM212.8133,142.098l-14.0268-23.3061.1229.025ZM263.6442,226.46a14.0838,14.0838,0,0,0,15.6685,3.1487l-.2842.1652A11.7584,11.7584,0,0,1,263.6442,226.46Z"/><path class="b" d="M263.0926,225.6391,198.6385,118.546,1.5,78.3213V177.96l192.2649,38.6L263.38,328.2433a10.93,10.93,0,0,0,14.8516,3.62l122.8082-72.8294V158.854l-122.0109,70.92A11.7629,11.7629,0,0,1,263.0926,225.6391Z"/><path class="b" d="M277.09,269.3378l123.949-71.1213v22.564l-123.783,73.2256a9.7491,9.7491,0,0,1-13.2515-3.2569L193.2234,176.4879,1.5,136.2632v-18.05l193.3479,39.8637,69.18,108.0618A9.749,9.749,0,0,0,277.09,269.3378Z"/><line class="b" x1="8.7701" y1="80.187" x2="8.7701" y2="111.7772"/><line class="b" x1="21.7664" y1="82.8946" x2="21.7664" y2="114.4848"/><line class="b" x1="37.4702" y1="86.1436" x2="37.4702" y2="117.7339"/><line class="b" x1="53.174" y1="89.3927" x2="53.174" y2="120.9829"/><line class="b" x1="68.8779" y1="92.6418" x2="68.8779" y2="124.232"/><line class="b" x1="84.5817" y1="95.8908" x2="84.5817" y2="127.4811"/><line class="b" x1="100.2855" y1="99.1399" x2="100.2855" y2="130.7301"/><line class="b" x1="115.9894" y1="102.389" x2="115.9894" y2="133.9792"/><line class="b" x1="131.6932" y1="105.6381" x2="131.6932" y2="137.2283"/><line class="b" x1="147.397" y1="108.8871" x2="147.397" y2="140.4773"/><line class="b" x1="163.1009" y1="112.1362" x2="163.1009" y2="143.7264"/><line class="b" x1="178.8047" y1="115.3853" x2="178.8047" y2="146.9755"/><line class="b" x1="194.5085" y1="118.6343" x2="194.5085" y2="150.2245"/><line class="b" x1="8.7701" y1="146.7929" x2="8.7701" y2="178.3831"/><line class="b" x1="21.7664" y1="149.5005" x2="21.7664" y2="181.0907"/><line class="b" x1="37.4702" y1="152.7496" x2="37.4702" y2="184.3398"/><line class="b" x1="53.174" y1="155.9986" x2="53.174" y2="187.5888"/><line class="b" x1="68.8779" y1="159.2477" x2="68.8779" y2="190.8379"/><line class="b" x1="84.5817" y1="162.4968" x2="84.5817" y2="194.087"/><line class="b" x1="100.2855" y1="165.7458" x2="100.2855" y2="197.336"/><line class="b" x1="115.9894" y1="168.9949" x2="115.9894" y2="200.5851"/><line class="b" x1="131.6932" y1="172.244" x2="131.6932" y2="203.8342"/><line class="b" x1="147.397" y1="175.493" x2="147.397" y2="207.0833"/><line class="b" x1="163.1009" y1="178.7421" x2="163.1009" y2="210.3323"/><line class="b" x1="178.8047" y1="181.9912" x2="178.8047" y2="213.5814"/><line class="b" x1="194.5085" y1="185.2403" x2="194.5085" y2="216.8305"/><line class="b" x1="205.3388" y1="202.0271" x2="205.3388" y2="233.6173"/><line class="b" x1="205.3388" y1="133.7967" x2="205.3388" y2="165.3869"/><line class="b" x1="214.003" y1="217.7309" x2="214.003" y2="249.3212"/><line class="b" x1="214.003" y1="149.5005" x2="214.003" y2="181.0907"/><line class="b" x1="223.7502" y1="233.4348" x2="223.7502" y2="265.025"/><line class="b" x1="223.7502" y1="165.2043" x2="223.7502" y2="196.7945"/><line class="b" x1="233.4974" y1="249.1386" x2="233.4974" y2="280.7288"/><line class="b" x1="233.4974" y1="181.9912" x2="233.4974" y2="213.5814"/><line class="b" x1="244.8691" y1="267.0085" x2="244.8691" y2="298.5987"/><line class="b" x1="244.8691" y1="197.695" x2="244.8691" y2="229.2852"/><line class="b" x1="256.7824" y1="285.4199" x2="256.7824" y2="317.0101"/><line class="b" x1="256.7824" y1="217.7309" x2="256.7824" y2="249.3212"/><line class="b" x1="283.3164" y1="227.4782" x2="283.3164" y2="259.0684"/><line class="b" x1="300.1033" y1="217.7309" x2="300.1033" y2="249.3212"/><line class="b" x1="316.8902" y1="207.9837" x2="316.8902" y2="239.5739"/><line class="b" x1="333.677" y1="198.2365" x2="333.677" y2="229.8267"/><line class="b" x1="350.4639" y1="188.4893" x2="350.4639" y2="220.0795"/><line class="b" x1="367.2507" y1="178.7421" x2="367.2507" y2="210.3323"/><line class="b" x1="384.0376" y1="168.9949" x2="384.0376" y2="200.5851"/><line class="b" x1="400.0886" y1="159.9835" x2="400.0886" y2="191.5738"/><line class="b" x1="283.3164" y1="295.7086" x2="283.3164" y2="327.2988"/><line class="b" x1="300.1033" y1="285.9614" x2="300.1033" y2="317.5516"/><line class="b" x1="316.8902" y1="276.2142" x2="316.8902" y2="307.8044"/><line class="b" x1="333.677" y1="266.467" x2="333.677" y2="298.0572"/><line class="b" x1="350.4639" y1="256.7198" x2="350.4639" y2="288.31"/><line class="b" x1="367.2507" y1="246.9726" x2="367.2507" y2="278.5628"/><line class="b" x1="384.0376" y1="237.2254" x2="384.0376" y2="268.8156"/><line class="b" x1="400.0886" y1="228.214" x2="400.0886" y2="259.8042"/><path class="b" d="M5.9848,79.6211l192.9245,39.1958,62.7541,105.0766a14.088,14.088,0,0,0,19.1106,4.9936l118.2852-67.9215a3.5894,3.5894,0,0,0-1.0961-6.635L203.2414,116.1093,136.1746,6.18A9.7642,9.7642,0,0,0,122.9733,2.8L4.5655,70.8614A4.7428,4.7428,0,0,0,5.9848,79.6211Z"/><path class="b" d="M20.3822,75.1412l176.3195,42.94L268.91,216.5036a9.5669,9.5669,0,0,0,12.1631,2.1l96.4925-54.9914a3.0929,3.0929,0,0,0-.8184-5.67l-175.713-42.5683L133.76,16.6994a9.7642,9.7642,0,0,0-12.5873-2.96L19.8721,70.91A2.2881,2.2881,0,0,0,20.3822,75.1412Z"/><path class="c" d="M125.7859,21.5774a.7676.7676,0,0,1,.608.294l57.0819,83.7256L39.0459,70.4235,125.4692,21.65a.7256.7256,0,0,1,.3167-.0723m89.4013,106.4853L360.1455,163.18l-83.529,47.6035c-.0318.0181-.0635.0365-.0951.0549a.5378.5378,0,0,1-.2819.0784.5728.5728,0,0,1-.3544-.12l-60.6979-82.7341M125.7859,12.5773a9.73,9.73,0,0,0-4.6127,1.1625L19.8721,70.91a2.2881,2.2881,0,0,0,.51,4.2312l176.32,42.94L268.91,216.5036a9.5654,9.5654,0,0,0,12.1632,2.1l96.4924-54.9913a3.093,3.093,0,0,0-.8185-5.67L201.0338,115.3735,133.76,16.6994a9.761,9.761,0,0,0-7.9745-4.1221Z"/><path class="a" d="M276.449,237.466l191.9895,39.0058a4.3732,4.3732,0,0,1,2.884,2.0434l60.0269,100.51a17.5334,17.5334,0,0,0,23.7842,6.2149l113.5282-65.19a4.3735,4.3735,0,0,0-1.3354-8.0843L476.5527,274.52a4.3737,4.3737,0,0,1-2.8912-2.0138L409.8162,167.8571a14.1377,14.1377,0,0,0-19.1143-4.894L275.14,229.3883A4.3735,4.3735,0,0,0,276.449,237.466Z"/><path class="a" d="M672.0681,317.1224a3.5872,3.5872,0,0,0-2.6825-4.7523L474.6641,274.1489,407.5971,164.22a9.7639,9.7639,0,0,0-13.2012-3.38l-118.4077,68.061a4.7467,4.7467,0,0,0-.3277,8.0187l-2.7379-.5587v99.6382l192.2649,38.6L534.802,486.2829a10.9308,10.9308,0,0,0,14.8518,3.62l122.8081-72.8294v-100.18ZM484.2359,300.1376l-14.0268-23.3061.1229.025ZM535.0668,384.5a14.084,14.084,0,0,0,15.6685,3.1487l-.2842.1651A11.7583,11.7583,0,0,1,535.0668,384.5Z"/><path class="b" d="M534.5152,383.6787,470.0611,276.5856,272.9226,236.3609v99.6382l192.2649,38.6L534.802,486.2829a10.9306,10.9306,0,0,0,14.8517,3.62l122.8082-72.8294v-100.18l-122.0109,70.92A11.763,11.763,0,0,1,534.5152,383.6787Z"/><path class="b" d="M548.5129,427.3774l123.949-71.1213V378.82l-123.783,73.2256a9.7492,9.7492,0,0,1-13.2515-3.2569L464.646,334.5274,272.9226,294.3027v-18.05L466.2705,316.116l69.18,108.0618A9.749,9.749,0,0,0,548.5129,427.3774Z"/><line class="b" x1="280.1927" y1="238.2266" x2="280.1927" y2="269.8168"/><line class="b" x1="293.189" y1="240.9341" x2="293.189" y2="272.5244"/><line class="b" x1="308.8928" y1="244.1832" x2="308.8928" y2="275.7734"/><line class="b" x1="324.5966" y1="247.4323" x2="324.5966" y2="279.0225"/><line class="b" x1="340.3005" y1="250.6814" x2="340.3005" y2="282.2716"/><line class="b" x1="356.0043" y1="253.9304" x2="356.0043" y2="285.5206"/><line class="b" x1="371.7081" y1="257.1795" x2="371.7081" y2="288.7697"/><line class="b" x1="387.412" y1="260.4286" x2="387.412" y2="292.0188"/><line class="b" x1="403.1158" y1="263.6776" x2="403.1158" y2="295.2678"/><line class="b" x1="418.8196" y1="266.9267" x2="418.8196" y2="298.5169"/><line class="b" x1="434.5235" y1="270.1758" x2="434.5235" y2="301.766"/><line class="b" x1="450.2273" y1="273.4248" x2="450.2273" y2="305.015"/><line class="b" x1="465.9311" y1="276.6739" x2="465.9311" y2="308.2641"/><line class="b" x1="280.1927" y1="304.8325" x2="280.1927" y2="336.4227"/><line class="b" x1="293.189" y1="307.5401" x2="293.189" y2="339.1303"/><line class="b" x1="308.8928" y1="310.7891" x2="308.8928" y2="342.3793"/><line class="b" x1="324.5966" y1="314.0382" x2="324.5966" y2="345.6284"/><line class="b" x1="340.3005" y1="317.2873" x2="340.3005" y2="348.8775"/><line class="b" x1="356.0043" y1="320.5363" x2="356.0043" y2="352.1266"/><line class="b" x1="371.7081" y1="323.7854" x2="371.7081" y2="355.3756"/><line class="b" x1="387.412" y1="327.0345" x2="387.412" y2="358.6247"/><line class="b" x1="403.1158" y1="330.2835" x2="403.1158" y2="361.8738"/><line class="b" x1="418.8196" y1="333.5326" x2="418.8196" y2="365.1228"/><line class="b" x1="434.5235" y1="336.7817" x2="434.5235" y2="368.3719"/><line class="b" x1="450.2273" y1="340.0308" x2="450.2273" y2="371.621"/><line class="b" x1="465.9311" y1="343.2798" x2="465.9311" y2="374.87"/><line class="b" x1="476.7614" y1="360.0667" x2="476.7614" y2="391.6569"/><line class="b" x1="476.7614" y1="291.8362" x2="476.7614" y2="323.4264"/><line class="b" x1="485.4256" y1="375.7705" x2="485.4256" y2="407.3607"/><line class="b" x1="485.4256" y1="307.5401" x2="485.4256" y2="339.1303"/><line class="b" x1="495.1728" y1="391.4744" x2="495.1728" y2="423.0646"/><line class="b" x1="495.1728" y1="323.2439" x2="495.1728" y2="354.8341"/><line class="b" x1="504.92" y1="407.1782" x2="504.92" y2="438.7684"/><line class="b" x1="504.92" y1="340.0308" x2="504.92" y2="371.621"/><line class="b" x1="516.2917" y1="425.0481" x2="516.2917" y2="456.6383"/><line class="b" x1="516.2917" y1="355.7346" x2="516.2917" y2="387.3248"/><line class="b" x1="528.205" y1="443.4595" x2="528.205" y2="475.0497"/><line class="b" x1="528.205" y1="375.7705" x2="528.205" y2="407.3607"/><line class="b" x1="554.739" y1="385.5177" x2="554.739" y2="417.1079"/><line class="b" x1="571.5259" y1="375.7705" x2="571.5259" y2="407.3607"/><line class="b" x1="588.3127" y1="366.0233" x2="588.3127" y2="397.6135"/><line class="b" x1="605.0996" y1="356.2761" x2="605.0996" y2="387.8663"/><line class="b" x1="621.8865" y1="346.5289" x2="621.8865" y2="378.1191"/><line class="b" x1="638.6733" y1="336.7817" x2="638.6733" y2="368.3719"/><line class="b" x1="655.4602" y1="327.0345" x2="655.4602" y2="358.6247"/><line class="b" x1="671.5112" y1="318.0231" x2="671.5112" y2="349.6133"/><line class="b" x1="554.739" y1="453.7482" x2="554.739" y2="485.3384"/><line class="b" x1="571.5259" y1="444.001" x2="571.5259" y2="475.5912"/><line class="b" x1="588.3127" y1="434.2538" x2="588.3127" y2="465.844"/><line class="b" x1="605.0996" y1="424.5066" x2="605.0996" y2="456.0968"/><line class="b" x1="621.8865" y1="414.7594" x2="621.8865" y2="446.3496"/><line class="b" x1="638.6733" y1="405.0121" x2="638.6733" y2="436.6024"/><line class="b" x1="655.4602" y1="395.2649" x2="655.4602" y2="426.8551"/><line class="b" x1="671.5112" y1="386.2536" x2="671.5112" y2="417.8438"/><path class="b" d="M277.4074,237.6607l192.9245,39.1957L533.086,381.933a14.088,14.088,0,0,0,19.1106,4.9937l118.2852-67.9215a3.59,3.59,0,0,0-1.0961-6.6351L474.664,274.1489,407.5972,164.22a9.7644,9.7644,0,0,0-13.2014-3.38L275.9881,228.901A4.7428,4.7428,0,0,0,277.4074,237.6607Z"/><path class="b" d="M291.8047,233.1808l176.32,42.94,72.2079,98.4226a9.5669,9.5669,0,0,0,12.1631,2.0995l96.4925-54.9914a3.093,3.093,0,0,0-.8184-5.67L472.4564,273.413,405.183,174.739a9.7642,9.7642,0,0,0-12.5873-2.96l-101.301,57.17A2.2881,2.2881,0,0,0,291.8047,233.1808Z"/><path class="c" d="M397.2085,179.6169a.7673.7673,0,0,1,.6081.2944l57.0818,83.7252-144.43-35.1735,86.4233-48.7738a.7253.7253,0,0,1,.3167-.0723M486.61,286.1022,631.568,321.22l-83.529,47.6034q-.0477.0273-.095.0551a.54.54,0,0,1-.282.0782.573.573,0,0,1-.3543-.12L486.61,286.1022M397.2085,170.6169a9.73,9.73,0,0,0-4.6128,1.1625l-101.301,57.17a2.288,2.288,0,0,0,.51,4.2312l176.32,42.94,72.2079,98.4228a9.5655,9.5655,0,0,0,12.1631,2.0993l96.4925-54.9913a3.0929,3.0929,0,0,0-.8184-5.67L472.4564,273.413,405.183,174.739a9.7612,9.7612,0,0,0-7.9745-4.1221Z"/><path class="a" d="M67.5738,195.691l191.9894,39.0057a4.3737,4.3737,0,0,1,2.8841,2.0435l60.0269,100.51a17.5334,17.5334,0,0,0,23.7842,6.2149l113.5282-65.19a4.3735,4.3735,0,0,0-1.3355-8.0843L267.6774,232.7446a4.3735,4.3735,0,0,1-2.8911-2.0138L200.941,126.082a14.1376,14.1376,0,0,0-19.1143-4.8939L66.265,187.6133A4.3735,4.3735,0,0,0,67.5738,195.691Z"/><path class="a" d="M463.1929,275.3474a3.5872,3.5872,0,0,0-2.6826-4.7523L265.7889,232.3739,198.7218,122.4448a9.7639,9.7639,0,0,0-13.2011-3.38L67.1129,187.1259a4.7468,4.7468,0,0,0-.3276,8.0187l-2.7379-.5587V294.224l192.2649,38.6,69.6145,111.6836a10.9308,10.9308,0,0,0,14.8517,3.62l122.8082-72.8295v-100.18ZM275.3607,258.3625l-14.0268-23.306.1229.0249Zm50.8309,84.3624a14.0837,14.0837,0,0,0,15.6684,3.1486l-.2842.1652A11.7582,11.7582,0,0,1,326.1916,342.7249Z"/><path class="b" d="M325.64,341.9036,261.1859,234.8105,64.0474,194.5859V294.224l192.2649,38.6,69.6145,111.6836a10.9308,10.9308,0,0,0,14.8517,3.62l122.8082-72.8295v-100.18l-122.0109,70.92A11.7629,11.7629,0,0,1,325.64,341.9036Z"/><path class="b" d="M339.6377,385.6024l123.949-71.1214v22.564L339.8036,410.2706a9.7491,9.7491,0,0,1-13.2514-3.2568L255.7708,292.7524,64.0474,252.5277v-18.05L257.3953,274.341l69.18,108.0618A9.7491,9.7491,0,0,0,339.6377,385.6024Z"/><line class="b" x1="71.3175" y1="196.4515" x2="71.3175" y2="228.0418"/><line class="b" x1="84.3137" y1="199.1591" x2="84.3137" y2="230.7493"/><line class="b" x1="100.0176" y1="202.4082" x2="100.0176" y2="233.9984"/><line class="b" x1="115.7214" y1="205.6572" x2="115.7214" y2="237.2475"/><line class="b" x1="131.4252" y1="208.9063" x2="131.4252" y2="240.4965"/><line class="b" x1="147.1291" y1="212.1554" x2="147.1291" y2="243.7456"/><line class="b" x1="162.8329" y1="215.4044" x2="162.8329" y2="246.9947"/><line class="b" x1="178.5367" y1="218.6535" x2="178.5367" y2="250.2437"/><line class="b" x1="194.2406" y1="221.9026" x2="194.2406" y2="253.4928"/><line class="b" x1="209.9444" y1="225.1517" x2="209.9444" y2="256.7419"/><line class="b" x1="225.6483" y1="228.4007" x2="225.6483" y2="259.9909"/><line class="b" x1="241.3521" y1="231.6498" x2="241.3521" y2="263.24"/><line class="b" x1="257.0559" y1="234.8989" x2="257.0559" y2="266.4891"/><line class="b" x1="71.3175" y1="263.0575" x2="71.3175" y2="294.6477"/><line class="b" x1="84.3137" y1="265.765" x2="84.3137" y2="297.3552"/><line class="b" x1="100.0176" y1="269.0141" x2="100.0176" y2="300.6043"/><line class="b" x1="115.7214" y1="272.2632" x2="115.7214" y2="303.8534"/><line class="b" x1="131.4252" y1="275.5122" x2="131.4252" y2="307.1024"/><line class="b" x1="147.1291" y1="278.7613" x2="147.1291" y2="310.3515"/><line class="b" x1="162.8329" y1="282.0104" x2="162.8329" y2="313.6006"/><line class="b" x1="178.5367" y1="285.2594" x2="178.5367" y2="316.8497"/><line class="b" x1="194.2406" y1="288.5085" x2="194.2406" y2="320.0987"/><line class="b" x1="209.9444" y1="291.7576" x2="209.9444" y2="323.3478"/><line class="b" x1="225.6483" y1="295.0066" x2="225.6483" y2="326.5969"/><line class="b" x1="241.3521" y1="298.2557" x2="241.3521" y2="329.8459"/><line class="b" x1="257.0559" y1="301.5048" x2="257.0559" y2="333.095"/><line class="b" x1="267.8862" y1="318.2916" x2="267.8862" y2="349.8819"/><line class="b" x1="267.8862" y1="250.0612" x2="267.8862" y2="281.6514"/><line class="b" x1="276.5503" y1="333.9955" x2="276.5503" y2="365.5857"/><line class="b" x1="276.5503" y1="265.765" x2="276.5503" y2="297.3552"/><line class="b" x1="286.2975" y1="349.6993" x2="286.2975" y2="381.2895"/><line class="b" x1="286.2975" y1="281.4689" x2="286.2975" y2="313.0591"/><line class="b" x1="296.0448" y1="365.4031" x2="296.0448" y2="396.9934"/><line class="b" x1="296.0448" y1="298.2557" x2="296.0448" y2="329.8459"/><line class="b" x1="307.4165" y1="383.273" x2="307.4165" y2="414.8632"/><line class="b" x1="307.4165" y1="313.9595" x2="307.4165" y2="345.5498"/><line class="b" x1="319.3297" y1="401.6844" x2="319.3297" y2="433.2746"/><line class="b" x1="319.3297" y1="333.9955" x2="319.3297" y2="365.5857"/><line class="b" x1="345.8638" y1="343.7427" x2="345.8638" y2="375.3329"/><line class="b" x1="362.6507" y1="333.9955" x2="362.6507" y2="365.5857"/><line class="b" x1="379.4375" y1="324.2483" x2="379.4375" y2="355.8385"/><line class="b" x1="396.2244" y1="314.5011" x2="396.2244" y2="346.0913"/><line class="b" x1="413.0112" y1="304.7539" x2="413.0112" y2="336.3441"/><line class="b" x1="429.7981" y1="295.0066" x2="429.7981" y2="326.5969"/><line class="b" x1="446.585" y1="285.2594" x2="446.585" y2="316.8497"/><line class="b" x1="462.636" y1="276.2481" x2="462.636" y2="307.8383"/><line class="b" x1="345.8638" y1="411.9731" x2="345.8638" y2="443.5634"/><line class="b" x1="362.6507" y1="402.2259" x2="362.6507" y2="433.8161"/><line class="b" x1="379.4375" y1="392.4787" x2="379.4375" y2="424.0689"/><line class="b" x1="396.2244" y1="382.7315" x2="396.2244" y2="414.3217"/><line class="b" x1="413.0112" y1="372.9843" x2="413.0112" y2="404.5745"/><line class="b" x1="429.7981" y1="363.2371" x2="429.7981" y2="394.8273"/><line class="b" x1="446.585" y1="353.4899" x2="446.585" y2="385.0801"/><line class="b" x1="462.636" y1="344.4785" x2="462.636" y2="376.0687"/><path class="b" d="M68.5322,195.8857l192.9245,39.1957,62.754,105.0766a14.0883,14.0883,0,0,0,19.1107,4.9937L461.6065,277.23a3.5894,3.5894,0,0,0-1.096-6.635L265.7887,232.3738l-67.0668-109.929a9.7642,9.7642,0,0,0-13.2013-3.38L67.1129,187.1259A4.7428,4.7428,0,0,0,68.5322,195.8857Z"/><path class="b" d="M82.93,191.4058l176.32,42.94,72.2079,98.4226a9.5669,9.5669,0,0,0,12.1631,2.0994l96.4924-54.9913a3.0929,3.0929,0,0,0-.8184-5.67L263.5812,231.638l-67.2734-98.6741a9.7642,9.7642,0,0,0-12.5873-2.96L82.42,187.1746A2.2881,2.2881,0,0,0,82.93,191.4058Z"/><path class="c" d="M188.3333,137.8419a.7676.7676,0,0,1,.6079.294l57.082,83.7257-144.43-35.1736,86.4233-48.7738a.7261.7261,0,0,1,.3168-.0723m89.4012,106.4853L422.693,279.4448l-83.5292,47.6035q-.0477.0273-.0951.055a.5384.5384,0,0,1-.2818.0783.5724.5724,0,0,1-.3544-.12l-60.698-82.734M188.3333,128.8419a9.73,9.73,0,0,0-4.6128,1.1624L82.42,187.1746a2.2881,2.2881,0,0,0,.51,4.2312l176.32,42.94,72.2079,98.4225a9.5653,9.5653,0,0,0,12.1631,2.0995l96.4924-54.9913a3.093,3.093,0,0,0-.8184-5.67L263.5812,231.638l-67.2735-98.6741a9.7607,9.7607,0,0,0-7.9744-4.122Z"/></svg>