<svg xmlns="http://www.w3.org/2000/svg" xmlns:xlink="http://www.w3.org/1999/xlink" viewBox="0 0 794.8786 579.0729"><defs><style>.a,.f,.j,.o{fill:none;}.b,.n{fill:#fff;}.c{opacity:0.5;}.d{clip-path:url(#a);}.e{fill:#d91519;}.f{stroke:#d91519;}.f,.j,.l{stroke-linecap:round;stroke-linejoin:round;stroke-width:3px;}.g{clip-path:url(#b);}.h{clip-path:url(#c);}.i{font-size:33px;font-family:Lato-Italic, Lato;font-style:italic;}.i,.k,.l{fill:#606060;}.j{stroke:#606060;}.l{stroke:#fff;}.m{clip-path:url(#d);}.n,.o{stroke:#000;stroke-miterlimit:10;}</style><clipPath id="a" transform="translate(30.7622)"><path class="a" d="M198.6192,211.6158l160.7352,39.8685,61.2648,87.0572a9.2284,9.2284,0,0,0,12.111,2.71l85.96-48.9151a3.7372,3.7372,0,0,0-.9345-6.8822L363.2574,249.045,300.659,159.4824a8.797,8.797,0,0,0-11.34-2.6665l-91.0435,52.3458A1.3356,1.3356,0,0,0,198.6192,211.6158Z"/></clipPath><clipPath id="b" transform="translate(30.7622)"><path class="a" d="M18.6192,181.6158l160.7352,39.8685,61.2648,87.0572a9.2284,9.2284,0,0,0,12.111,2.71l85.9605-48.9151a3.7372,3.7372,0,0,0-.9345-6.8822L183.2574,219.045,120.659,129.4824a8.797,8.797,0,0,0-11.34-2.6665L18.2751,179.1617A1.3356,1.3356,0,0,0,18.6192,181.6158Z"/></clipPath><clipPath id="c" transform="translate(30.7622)"><path class="a" d="M262.6192,328.6158l160.7352,39.8685,61.2648,87.0572a9.2284,9.2284,0,0,0,12.111,2.71l85.96-48.9151a3.7372,3.7372,0,0,0-.9345-6.8822L427.2574,366.045,364.659,276.4824a8.797,8.797,0,0,0-11.34-2.6665l-91.0435,52.3458A1.3356,1.3356,0,0,0,262.6192,328.6158Z"/></clipPath><clipPath id="d" transform="translate(30.7622)"><path class="a" d="M75.0908,292.7044,235.6,333.4731l60.776,87.3991a9.2283,9.2283,0,0,0,12.0956,2.7776l86.2333-48.4326a3.7373,3.7373,0,0,0-.896-6.8874L239.5165,331.0557l-62.0954-89.9121a8.7971,8.7971,0,0,0-11.3253-2.73L74.76,290.2485A1.3355,1.3355,0,0,0,75.0908,292.7044Z"/></clipPath></defs><title>relleno</title><path class="b" d="M541.1071,287.7617A3.2319,3.2319,0,0,0,538.69,283.48L363.2575,249.045l-60.4236-99.04a8.7968,8.7968,0,0,0-11.8934-3.0452L184.2619,208.2792a4.2765,4.2765,0,0,0-.2952,7.2243L181.5,215v89.7682L354.72,339.545l62.7187,100.6205a9.8478,9.8478,0,0,0,13.38,3.2611l110.6431-65.6151V287.5554Zm-181.8633-36.3.1107.0225,12.5289,20.979Zm72.2934,99.9887a10.5936,10.5936,0,0,1-13.86-2.9856,12.6887,12.6887,0,0,0,14.1164,2.8367Z" transform="translate(30.7622)"/><path class="b" d="M184.6771,215.9958l172.9714,35.142a3.94,3.94,0,0,1,2.5984,1.841l54.0808,90.5538a15.7966,15.7966,0,0,0,21.4282,5.5993l102.2823-58.7325a3.94,3.94,0,0,0-1.2031-7.2835L364.959,249.379a3.94,3.94,0,0,1-2.6048-1.8144l-57.5209-94.2824a12.7372,12.7372,0,0,0-17.2209-4.4092L183.498,208.7183A3.94,3.94,0,0,0,184.6771,215.9958Z" transform="translate(30.7622)"/><g class="c"><g class="d"><path class="e" d="M191.0889,270.1926c-.0749-3.8621-10.0935-30.6964-13.54-34.8455-2.7505-3.3112-10.9935-5.1116-18.2244-5.57l-.5482.7857-.4768.6835-7.1837,10.2967-.7983,1.1442-1.08,1.5477c1.764,7.1172,4.3863,16.1786,7.216,24.6509l2.7824,1.9412,3.0127,2.1018,8.2532,5.758,9.6027,6.7C185.8344,279.4051,191.1339,272.5081,191.0889,270.1926Z" transform="translate(30.7622)"/><path class="e" d="M218.924,231.7193c2.7068-2.5563-13.2671-36.56-17.2908-38.7322-2.2716-1.2263-10.2657-.5759-17.28.9144l-1.293,1.8533-1.2,1.72-9.083,13.019-1.4408,2.0652-1.5991,2.2922c.3244,4.0922,1.5678,8.1,4.3575,10.9914C180.2989,232.2715,216.2172,234.2758,218.924,231.7193Z" transform="translate(30.7622)"/><path class="e" d="M187.6061,241.1481c.0955,4.9191,9.7142,27.0966,18.11,33.5887s44.731,16.6029,48.0337,13.1923c1.2117-1.2513,8.3432-11.9586,5.5114-15.8392-8.4223-11.5414-28.3752-28.0511-31.52-30.2454C222.7728,238.3788,187.481,234.7111,187.6061,241.1481Z" transform="translate(30.7622)"/><path class="e" d="M216.767,198.16c-5.2.0651,9.8394,33.5336,13.913,38.2806s25.9319,26.3465,31.7934,28.5309c3.4316,1.2789,15.8195-5.4726,18.2032-8.8893,1.49-2.1355,2.78-14.57.8668-18.4446C279.2683,233.029,239.1189,197.8794,216.767,198.16Z" transform="translate(30.7622)"/><path class="e" d="M229.7935,288.8764c-12.2565-2.7837-29.5317-6.8308-33.8271-7.0906-2.8888-.1747-6.39,3.3089-9.4573,8.0683l1.1937.8328,1.3934.9721,13.2919,9.2734,6.4761,4.5181,6.0808,4.2424c13.9272-5.4348,27.1065-11.9215,28.4594-13.8606C246.682,291.1343,240.2852,291.2592,229.7935,288.8764Z" transform="translate(30.7622)"/><path class="e" d="M289.3848,344.7533c.173-6.8641-24.5179-45.9092-31.8455-46.9816-9.2142-1.3487-30.8053,17.1346-31.955,19.3375l-.0023.0048,1.5513,1.0823,1.5021,1.0479L245.47,330.9888l23.4031,16.3276,12.1713,8.4915C285.68,352.0368,289.3085,347.781,289.3848,344.7533Z" transform="translate(30.7622)"/><path class="e" d="M321.6488,262.3231c-6.8759,1.0848-5.8033,32.8457-3.4174,45.3048,1.8135,9.47,7.5124,8.0485,20.0933,9.5737,18.7264,2.27,31.5076,3.9528,31.5661,1.0683.1522-7.4987-19.4291-47.2694-26.4973-51.3692C340.2618,265.084,330.65,260.903,321.6488,262.3231Z" transform="translate(30.7622)"/><path class="e" d="M264.4983,281.5851c-2.9547,5.5584,2.1379,15.4611,7.4535,21.0745,4.2327,4.47,18.5476,10.0674,34.8459,12.2463,10.133,1.3547,1.3039-45.2657-2.7415-47.542a32.2521,32.2521,0,0,0-15.7182-4.07C283.2119,263.26,267.453,276.0268,264.4983,281.5851Z" transform="translate(30.7622)"/><path class="e" d="M283.2141,316.2046c-1.4648,3.4229,12.7216,30.2343,16.8678,32.7223,6.5074,3.9051,20.6892,8.7194,25.5818,8.3229s-5.4679-29.2138-10.1374-33.1066S284.679,312.7817,283.2141,316.2046Z" transform="translate(30.7622)"/><path class="e" d="M388.1369,341.6457c1.9867-3.2324-6.8188-11.4654-9.4391-12.9352-4.6447-2.6055-43.1048-5.84-48.8027-5.474s.0806,27.17,6.1638,33.5091c6.3029,6.568,25.2508,14.9584,33.1186,15.3828C374.3957,372.41,381.3087,352.7563,388.1369,341.6457Z" transform="translate(30.7622)"/><path class="e" d="M315.6315,360.7859c-.8912-1.69-15.9912-8.3153-19.4473-7.8529-2.5071.3354-7.1384,4.7154-8.9237,7.2121l1.2379.8636,1.4444,1.0077,9.121,6.3634,6.6292,4.625,2.9468,2.0559C312.4646,370.1259,316.7369,362.8815,315.6315,360.7859Z" transform="translate(30.7622)"/><path class="e" d="M388.8982,413.2018c1.1168-5.5707-12.0108-25.3036-17.4637-31.8682-2.5088-3.02-36.4858-17.8352-43.812-16.5967-4.0974.6927-9.7868,7.3531-13.4583,14.1779l1.7591,1.2274,2.0335,1.4186,31.4091,21.9132,18.2968,12.765,10.9345,7.6287C384.1815,419.7331,388.4494,415.4406,388.8982,413.2018Z" transform="translate(30.7622)"/><path class="e" d="M222.1673,191.3126c4.2216-3.4045,5.0444-29.6492-.9982-35.62-1.5144-1.4965-3.653-3.47-6.1851-5.6951l-1.6614,2.3813-3.59,5.1453-11.3666,16.2922-5.115,7.3317-2.6989,3.8685C196.2042,187.8679,218.2156,194.4994,222.1673,191.3126Z" transform="translate(30.7622)"/><path class="e" d="M230.822,191.7282c4.5337,5.6643,22.7271,19.0309,26.9988,18.2012s4.0943-25.7174,2.4794-30.019-22.1222-19.3319-25.1358-16.9014C230.9428,166.4134,227.3692,187.4144,230.822,191.7282Z" transform="translate(30.7622)"/><path class="e" d="M265.5405,211.6966c.7538,4.6523,13.19,16.8219,16.9156,19.4212s25.3088,10.0374,31.3933,7.9325c5.442-1.8826,17.9437-7.1391,15.9923-12.3367-1.9378-5.1618-30.5535-43.5405-37.3339-45.731s-20.1412,3.7275-22.8479,6.2841C266.3894,190.3555,264.4965,205.2535,265.5405,211.6966Z" transform="translate(30.7622)"/><path class="e" d="M293.6275,241.3527c-3.3526.8357-4.1215,8.554-4.3445,12.8433-.1874,3.6064,19.1994,10.8549,22.2541,10.4461s2.78-14.57.8918-17.1572C311.3116,245.9539,296.98,240.5169,293.6275,241.3527Z" transform="translate(30.7622)"/><path class="e" d="M349.0059,258.1609c3.9737-.4026,3.6485-17.1389-1.94-21.0378-4.5205-3.1538-23.2458,1.5615-26.8215,6.6866-2.3837,3.4168.473,8.5847,4.7947,10.33S342.5269,258.8174,349.0059,258.1609Z" transform="translate(30.7622)"/><path class="e" d="M338.1241,188.2833c-5.2656-3.0387-27.3445-4.473-29.43-1.4832S334.4,225.0536,339.52,228.626c4.3467,3.0326,23.3209,2.3006,24.1647-1.5553S343.39,191.3219,338.1241,188.2833Z" transform="translate(30.7622)"/><path class="e" d="M415.194,277.183c1.6877-7.7121-19.9474-33.6009-27.051-36.6519s-26.45-5.7541-29.1572-3.1978-3.5915,30.46-3,34.7355c1.0689,7.7305,15.1278,21.9838,20.9894,24.1682S413.5063,284.8951,415.194,277.183Z" transform="translate(30.7622)"/><path class="e" d="M405.4718,296.9256c-7.0784-1.7635-23.7668,6.2778-26.7716,9.2613s4.7616,18.3262,7.8016,23.2223c3.4777,5.6012,47.6356,8.47,46.94,4.1743S412.55,298.689,405.4718,296.9256Z" transform="translate(30.7622)"/><path class="e" d="M238.8921,153.4765c1.0818,4.85,22.1561,21.1724,27.72,23.7839s15.5967-1.1835,17.3344-6.3208-22.3813-32.7589-27.2988-33.65S237.55,147.4605,238.8921,153.4765Z" transform="translate(30.7622)"/><path class="e" d="M239.3169,139.6935c2.9272-2.3605,8.12-7.6693,8.3431-11.9586.0963-1.8535-4.3722-6.0611-9.9481-10.3145l-.585.8385-11.642,16.6869-4.2893,6.1481C229.2529,141.3615,238.0641,140.7038,239.3169,139.6935Z" transform="translate(30.7622)"/><path class="e" d="M303.74,127.8283c-7.6994-2.1967-31.8643-.6413-33.95,2.3482s17.5387,35.73,25.3381,43.0767c6.2108,5.85,28.0154,7.481,34.1,5.3761s7.9953-14.1064,8.1931-19.6831S311.44,130.025,303.74,127.8283Z" transform="translate(30.7622)"/><path class="e" d="M296.8665,118.7248c1.8129-1.2751.2707-17.59-4.3738-20.1958-4.3308-2.4294-24.7482-10.56-35.1379-9.2637l-.9852,1.4121-1.5775,2.261-10.0631,14.424-1.19,1.7049-1.2717,1.8229a3.6763,3.6763,0,0,0,.3084.4369c5.3474,6.4838,23.892,11.0571,26.7978,11.0763C273.9687,122.4339,292.4477,121.8329,296.8665,118.7248Z" transform="translate(30.7622)"/><path class="e" d="M264.4835,136.3444c2.4588.4454-.473-8.5848-2.6587-10.7448s-7.6744-.9092-8.2453,1.2324C252.7962,129.77,259.1573,135.38,264.4835,136.3444Z" transform="translate(30.7622)"/><path class="e" d="M418.4686,427.2071c-2.994-.7158-11.1477,5.4458-17.3993,12.3386l1.1933.8325.855.5965,20.2232,14.1091L427.808,458.2l5.5506,3.8725c2.7889-3.3947,4.57-6.4931,4.0644-8.3075C434.7891,444.3081,424.1335,428.5613,418.4686,427.2071Z" transform="translate(30.7622)"/><path class="e" d="M318.969,121.06c-1.4281,2.0471-.3441,8.8906,1.3871,12.7071,2.02,4.4527,24.15,22.0661,28.7026,23.9378s6.4239-2.91,8.0562-5.2492-18.7113-25.6631-21.3782-27.0889C331.0007,122.835,320.3973,119.013,318.969,121.06Z" transform="translate(30.7622)"/><path class="e" d="M422.8527,342.0891c-4.62-1.3181-21.4831-2.2886-25.4067.6888s-14.5,26.0772-18.374,31.63,14.39,29.4332,15.8989,30.1415c5.5634,2.6114,31.4637-19.9573,34.4434-24.2283S427.4722,343.4071,422.8527,342.0891Z" transform="translate(30.7622)"/><path class="e" d="M411.7471,416.8442c.1013-1.9475-7.1509-6.87-11.127-5.2231-2.41.9982-11.4376,9.8339-16.8935,15.8252l1.19.83.7868.5489,1.3589.948,7.0869,4.9443,3.42,2.3862C403.6177,430.2014,411.5937,419.7941,411.7471,416.8442Z" transform="translate(30.7622)"/><path class="e" d="M300.0229,91.5613c-1.0689-7.7305-9.3088-30.353-14.359-29.7019-2.6395.34-18.0781,15.3262-13.3835,20.5065C277.4469,88.0668,300.5149,95.1187,300.0229,91.5613Z" transform="translate(30.7622)"/><path class="e" d="M166.34,225.1811c.6035-.1173.2444-1.9209-.6583-4.5157l-3.1723,4.5471A27.6089,27.6089,0,0,0,166.34,225.1811Z" transform="translate(30.7622)"/><path class="e" d="M437.8719,364.1984c-.521,4.7164-3.7965,25.29.2772,30.0373s16.44,4.7216,19.3722,3.9908c3.3528-.8359,16.7635-4.1792,18.8493-7.1688s-11.4271-20.6719-13.9359-23.6921C457.776,361.7572,438.3929,359.4821,437.8719,364.1984Z" transform="translate(30.7622)"/><path class="e" d="M422.2284,396.0016c1.1465,2.1736,9.86,3.0692,10.754,1.7879s-1.044-6.443-3.23-8.603S420.6385,392.9874,422.2284,396.0016Z" transform="translate(30.7622)"/><path class="e" d="M452.5223,336.5953c-1.0326-4.2646-15.5715,2.4709-19.1972,5.0211s3.9007,11.6111,9.7871,15.0829S454.1871,343.4717,452.5223,336.5953Z" transform="translate(30.7622)"/><path class="e" d="M314.0018,100.9063c-1.59-3.0142-11.102-3.9358-12.5918-1.8s1.567,17.6026,2.8339,19.7565c2.5338,4.3076,8.6932,6.065,9.8851,4.3566S315.5917,103.9205,314.0018,100.9063Z" transform="translate(30.7622)"/><path class="e" d="M355.8278,116.7517c-3.7257-2.5992-14.0818.3353-14.6277,3.7643-.4647,2.92,16.6927,23.7106,20.12,26.7369s8.6662-11.0984,8.6662-11.0984S359.5534,119.351,355.8278,116.7517Z" transform="translate(30.7622)"/><path class="e" d="M360.4748,163.0376c-.1854,5.22,26.6528,31.9294,30.9744,33.6745s11.4457-25.6686,11.0977-27.8163-19.9452-17.725-25.1858-19.4763S360.6727,157.4608,360.4748,163.0376Z" transform="translate(30.7622)"/><path class="e" d="M356.1387,169.98c-3.7007-1.3118-15.87,2.8979-14.5526,7.6265.5424,1.9477,9.1991,18.1835,13.961,24.98,4.433,6.3267,11.4555,9.1123,14.9026,10.3971,4.8023,1.79,9.2872-10.6652,10.131-14.5211S359.8394,171.2923,356.1387,169.98Z" transform="translate(30.7622)"/><path class="e" d="M422.8911,244.7081c3.0547-.4086,9.51-14.9544,5.7342-20.1284s-27.3718-21.6363-32.2894-22.5272-12.69,8.926-14.4525,12.776,2.0878,12.8861,4.6217,17.1939C389.0632,236.3712,419.8363,245.1168,422.8911,244.7081Z" transform="translate(30.7622)"/><path class="e" d="M370.5612,230.2306c3.777,2.6352,7.9973,1.77,9.4871-.3658s-2.9319-9.03-5.4157-10.763S366.8355,227.6314,370.5612,230.2306Z" transform="translate(30.7622)"/><path class="e" d="M463.7159,299.3845c-4.67-3.8929-35.2941-19.5438-39.8887-19.5744s-11.1,11.94-10.429,14.9483c.9677,4.3382,25.1381,32.7774,30.6518,32.8143S468.3854,303.2773,463.7159,299.3845Z" transform="translate(30.7622)"/><path class="e" d="M473.26,265.2369c-1.6147-4.3016-24.3147-6.169-28.6114-6.6269s-22.7729,10.1462-19.9411,14.0268,26.3528,16.4805,32.1892,17.3775S474.8752,269.5384,473.26,265.2369Z" transform="translate(30.7622)"/><path class="e" d="M435.6384,253.8811c-4.3907-3.0633-29.739-10.1516-30.7721-7.4994-1.167,2.9959,10.7562,17.6639,13.2149,18.1093S438.1223,255.614,435.6384,253.8811Z" transform="translate(30.7622)"/><path class="e" d="M462.9067,316.051c.0715,3.6866,16.7653,11.6968,20.4161,10.4339s-5.5157-15.9128-9.5393-18.085S462.8567,313.4763,462.9067,316.051Z" transform="translate(30.7622)"/><path class="e" d="M486.2465,300.9448c3.9737-.4026,34.9417-14.3558,34.5438-19.0783s-37.33-13.9792-38.7945-10.5563-13.3837,20.5067-11.7939,23.5207C472.0561,298.346,482.2728,301.3474,486.2465,300.9448Z" transform="translate(30.7622)"/><path class="e" d="M526.4478,291.965c-3.3778-.4516-28.6594,6.6744-26.1505,9.6946,2.3291,2.8042,24.7127,10.8915,27.1215,8.7623S529.8254,292.4165,526.4478,291.965Z" transform="translate(30.7622)"/><path class="e" d="M438.1369,226.1227c-2.2242,3.0024-4.3452,12.81-4.27,16.7056.05,2.5749,9.3642,9.0729,14.3069,11.2514s23.9669,4.0213,29.4554,2.7707,9.7328-19.2438,9.6828-21.8185-23.025-18.6039-26.4277-20.3428C458.9938,213.7228,439.9609,223.6607,438.1369,226.1227Z" transform="translate(30.7622)"/><path class="e" d="M443.1905,188.0069c-2.5088-3.02-19.3744-19.8667-25.4837-19.0491s-16.04,25.6377-14.7485,29.0789c1.3317,3.5473,23.05,19.8914,28.5887,21.2155s18.8492-7.169,20.016-10.1647S445.7,191.0272,443.1905,188.0069Z" transform="translate(30.7622)"/><path class="e" d="M522.4557,275.228c4.8925-.3965,4.4672-22.2823,4.0943-25.7175s-10.3332-11.6539-14.63-12.1117-23.9147,14.4293-24.4356,19.1458c-.3708,3.3578,2.9319,9.03,5.7137,10.3359S517.5631,275.6245,522.4557,275.228Z" transform="translate(30.7622)"/><path class="e" d="M528.7988,281.2075c-1.0686,4.8833,3.5528,9.4633,6.6326,10.342s15.4965-6.3329,16.9863-8.4684-16.22-15.1255-18.9765-15.144S529.6427,277.3513,528.7988,281.2075Z" transform="translate(30.7622)"/><path class="e" d="M232.9688,146.9868c-1.4838-2.0331-11.2639-2.796-14.5883-1.8578l-.8936,1.2808c2.25,3.22,9.5912,10.4286,12.95,12.1452C233.84,160.294,234.8566,149.5738,232.9688,146.9868Z" transform="translate(30.7622)"/><path class="e" d="M440.6288,436.0337c-.5573.7989.3476,5.9287,2.0882,12.9518l1.08-1.5477.7983-1.1444,7.1836-10.2965.4769-.6836.5482-.7857C446.8439,434.15,441.5712,434.6829,440.6288,436.0337Z" transform="translate(30.7622)"/><path class="e" d="M310.34,92.6484c2.7471-1.5378,6.7667-5.1247,10.5946-9.12l-9.6027-6.6994-11.266-7.86-2.7823-1.9411C302.1106,81.48,307.5406,94.2156,310.34,92.6484Z" transform="translate(30.7622)"/><path class="e" d="M320.8809,112.0029c5.84,6.4438,15.2362,2.7769,25.4066-.6889,3.1142-1.0613,6.32-2.243,9.4871-3.4789l-6.0808-4.2425-6.4761-4.5181-13.2919-9.2733-1.3934-.9721-1.1937-.8328C321.9411,96.3719,317.8873,108.7,320.8809,112.0029Z" transform="translate(30.7622)"/><path class="e" d="M404.5619,162.4621c3.9422.2661,11.4365-3.7336,17.3116-8.5121l-12.1713-8.4914-23.4033-16.3278L369.465,117.3864l-1.5021-1.048-1.5513-1.0823C360.9432,125.7654,397.51,161.9861,404.5619,162.4621Z" transform="translate(30.7622)"/><path class="e" d="M427.3787,159.5925c-.9972,4.5564,14.4817,20.2631,17.81,18.14a22.4318,22.4318,0,0,0,4.2812-4.53l-2.9468-2.0559-6.6292-4.625-9.121-6.3634-1.4444-1.0077-1.2379-.8636A4.2584,4.2584,0,0,0,427.3787,159.5925Z" transform="translate(30.7622)"/><path class="e" d="M451.8407,190.6583c5.4158,10.7632,32.2914,38.4032,42.1516,41.4724,5.8974,1.8357,17.124-3.9678,25.4345-10.1209l-10.9345-7.6287-18.2968-12.765-31.4091-21.9132-2.0335-1.4186-1.7591-1.2273C452.1007,182.4351,450.4606,187.9154,451.8407,190.6583Z" transform="translate(30.7622)"/><path class="e" d="M534.4166,253.0734c4.1238,7.3218,16.395,24.1377,20.6664,23.308,2.896-.5624,13.2346-9.0209,19.1051-16.1665l-5.55-3.8724-4.4672-3.1166-20.2232-14.109-.855-.5966-1.1933-.8325C536.5862,243.5457,532.647,249.9315,534.4166,253.0734Z" transform="translate(30.7622)"/><path class="e" d="M520.4168,230.648c-2.2219,4.18,8.52,12.9291,11.848,10.8057a45.5746,45.5746,0,0,0,6.1338-6.2079l-3.42-2.3861-7.0869-4.9443-1.3589-.9481-.7868-.5489-1.19-.83A37.76,37.76,0,0,0,520.4168,230.648Z" transform="translate(30.7622)"/><path class="e" d="M463.2168,419.6021l1.5992-2.2922,1.4408-2.0652,9.083-13.019,1.2-1.72,1.293-1.8532c-5.41,1.1495-10.2369,2.7987-11.4046,4.4725C464.7438,405.5392,462.669,412.6906,463.2168,419.6021Z" transform="translate(30.7622)"/><path class="e" d="M470.2632,330.1123c-5.4636,2.538-11.4229,11.08-11.6208,16.6566s20.9913,40.044,24.47,42.4709a7.8551,7.8551,0,0,0,.9194.5274l2.6988-3.8684,5.1151-7.3318,11.3666-16.2922,3.59-5.1453,1.6614-2.3813C496.3764,344.127,475.3135,327.7661,470.2632,330.1123Z" transform="translate(30.7622)"/><path class="e" d="M482.5243,310.6414c-2.8267,4.0516,14.0611,30.1293,19.3266,33.1678,2.1406,1.2352,7.3053,1.8524,12.824,2.0356l4.2893-6.1481,11.642-16.687.5849-.8385c-7.3273-5.5893-16.568-11.2577-19.8824-11.7671C505.4723,309.5071,485.802,305.9434,482.5243,310.6414Z" transform="translate(30.7622)"/><path class="e" d="M535.7471,315.641l1.2718-1.8229,1.1894-1.7049,10.0631-14.424,1.5776-2.2612.985-1.4118a12.0842,12.0842,0,0,0-2.0917.4341C539.593,297.3014,532.7821,310.7363,535.7471,315.641Z" transform="translate(30.7622)"/><path class="e" d="M414.3416,406.4587c.3122,3.7047,11.104,19.8115,15.7237,21.1295,3.635,1.0372,18.6474,2.15,25.9228,2.3751l3.1724-4.5471c-2.2914-6.5866-8.0872-18.2745-10.546-20.4455C445.1868,401.9443,413.9435,401.7362,414.3416,406.4587Z" transform="translate(30.7622)"/><path class="e" d="M510.8772,351.034c.0276.0405.06.0847.089.1266l.8935-1.2806C510.954,350.1355,510.5259,350.5171,510.8772,351.034Z" transform="translate(30.7622)"/></g></g><path class="f" d="M417.18,347.725,359.11,251.24,181.5,215v89.7682L354.72,339.545l62.7187,100.6205a9.8478,9.8478,0,0,0,13.38,3.2611l110.6431-65.6151V287.5554L431.5371,351.4505A10.5976,10.5976,0,0,1,417.18,347.725Z" transform="translate(30.7622)"/><path class="f" d="M429.791,387.095l111.6709-64.0762v20.3289L429.9405,409.32a8.7833,8.7833,0,0,1-11.9388-2.9342l-63.77-102.9429L181.5,267.2024V250.94L355.6954,286.855l62.3269,97.3574A8.7833,8.7833,0,0,0,429.791,387.095Z" transform="translate(30.7622)"/><line class="f" x1="218.8121" y1="216.681" x2="218.8121" y2="245.142"/><line class="f" x1="230.521" y1="219.1204" x2="230.521" y2="247.5814"/><line class="f" x1="244.6693" y1="222.0476" x2="244.6693" y2="250.5086"/><line class="f" x1="258.8175" y1="224.9748" x2="258.8175" y2="253.4358"/><line class="f" x1="272.9658" y1="227.9021" x2="272.9658" y2="256.363"/><line class="f" x1="287.114" y1="230.8293" x2="287.114" y2="259.2903"/><line class="f" x1="301.2623" y1="233.7565" x2="301.2623" y2="262.2175"/><line class="f" x1="315.4105" y1="236.6837" x2="315.4105" y2="265.1447"/><line class="f" x1="329.5588" y1="239.611" x2="329.5588" y2="268.0719"/><line class="f" x1="343.7071" y1="242.5382" x2="343.7071" y2="270.9992"/><line class="f" x1="357.8553" y1="245.4654" x2="357.8553" y2="273.9264"/><line class="f" x1="372.0036" y1="248.3926" x2="372.0036" y2="276.8536"/><line class="f" x1="386.1518" y1="251.3199" x2="386.1518" y2="279.7808"/><line class="f" x1="218.8121" y1="276.6891" x2="218.8121" y2="305.1501"/><line class="f" x1="230.521" y1="279.1285" x2="230.521" y2="307.5895"/><line class="f" x1="244.6693" y1="282.0557" x2="244.6693" y2="310.5167"/><line class="f" x1="258.8175" y1="284.9829" x2="258.8175" y2="313.4439"/><line class="f" x1="272.9658" y1="287.9102" x2="272.9658" y2="316.3711"/><line class="f" x1="287.114" y1="290.8374" x2="287.114" y2="319.2984"/><line class="f" x1="301.2623" y1="293.7646" x2="301.2623" y2="322.2256"/><line class="f" x1="315.4105" y1="296.6918" x2="315.4105" y2="325.1528"/><line class="f" x1="329.5588" y1="299.6191" x2="329.5588" y2="328.08"/><line class="f" x1="343.7071" y1="302.5463" x2="343.7071" y2="331.0073"/><line class="f" x1="357.8553" y1="305.4735" x2="357.8553" y2="333.9345"/><line class="f" x1="372.0036" y1="308.4007" x2="372.0036" y2="336.8617"/><line class="f" x1="386.1518" y1="311.328" x2="386.1518" y2="339.7889"/><line class="f" x1="395.9092" y1="326.452" x2="395.9092" y2="354.9129"/><line class="f" x1="395.9092" y1="264.9802" x2="395.9092" y2="293.4412"/><line class="f" x1="403.7151" y1="340.6002" x2="403.7151" y2="369.0612"/><line class="f" x1="403.7151" y1="279.1285" x2="403.7151" y2="307.5895"/><line class="f" x1="412.4968" y1="354.7485" x2="412.4968" y2="383.2094"/><line class="f" x1="412.4968" y1="293.2767" x2="412.4968" y2="321.7377"/><line class="f" x1="421.2785" y1="368.8967" x2="421.2785" y2="397.3577"/><line class="f" x1="421.2785" y1="308.4007" x2="421.2785" y2="336.8617"/><line class="f" x1="431.5238" y1="384.9964" x2="431.5238" y2="413.4574"/><line class="f" x1="431.5238" y1="322.549" x2="431.5238" y2="351.01"/><line class="f" x1="442.2569" y1="401.584" x2="442.2569" y2="430.045"/><line class="f" x1="442.2569" y1="340.6002" x2="442.2569" y2="369.0612"/><line class="f" x1="466.1626" y1="349.3819" x2="466.1626" y2="377.8428"/><line class="f" x1="481.2866" y1="340.6002" x2="481.2866" y2="369.0612"/><line class="f" x1="496.4106" y1="331.8185" x2="496.4106" y2="360.2795"/><line class="f" x1="511.5346" y1="323.0369" x2="511.5346" y2="351.4978"/><line class="f" x1="526.6586" y1="314.2552" x2="526.6586" y2="342.7162"/><line class="f" x1="541.7826" y1="305.4735" x2="541.7826" y2="333.9345"/><line class="f" x1="556.9066" y1="296.6918" x2="556.9066" y2="325.1528"/><line class="f" x1="571.3676" y1="288.5731" x2="571.3676" y2="317.0341"/><line class="f" x1="466.1626" y1="410.8536" x2="466.1626" y2="439.3146"/><line class="f" x1="481.2866" y1="402.0719" x2="481.2866" y2="430.5329"/><line class="f" x1="496.4106" y1="393.2902" x2="496.4106" y2="421.7512"/><line class="f" x1="511.5346" y1="384.5086" x2="511.5346" y2="412.9695"/><line class="f" x1="526.6586" y1="375.7269" x2="526.6586" y2="404.1879"/><line class="f" x1="541.7826" y1="366.9452" x2="541.7826" y2="395.4062"/><line class="f" x1="556.9066" y1="358.1636" x2="556.9066" y2="386.6245"/><line class="f" x1="571.3676" y1="350.0448" x2="571.3676" y2="378.5058"/><path class="f" d="M185.5405,216.1712l173.8139,35.3131,56.5378,94.668a12.6926,12.6926,0,0,0,17.2176,4.499l106.5681-61.1934a3.2339,3.2339,0,0,0-.9875-5.9778L363.2574,249.045l-60.4234-99.04A8.797,8.797,0,0,0,290.94,146.96L184.2619,208.2792A4.273,4.273,0,0,0,185.5405,216.1712Z" transform="translate(30.7622)"/><path class="f" d="M198.5117,212.1351l158.8538,38.6863,65.0552,88.6731a8.6192,8.6192,0,0,0,10.9582,1.8915l86.9342-49.5441a2.7866,2.7866,0,0,0-.7374-5.1083L361.2685,248.382l-60.61-88.9a8.797,8.797,0,0,0-11.34-2.6665L198.0522,208.323A2.0615,2.0615,0,0,0,198.5117,212.1351Z" transform="translate(30.7622)"/><path class="e" d="M293.4172,164.8372l49.9887,73.3215L217.73,207.5522l75.6876-42.715m82.7656,96.4183L502.226,291.7909l-73.0838,41.6506-52.9594-72.186M293.4743,155.7686a8.7651,8.7651,0,0,0-4.1557,1.0473L198.0522,208.323a2.0614,2.0614,0,0,0,.4595,3.8121l158.8538,38.6863,65.0552,88.6731a8.6178,8.6178,0,0,0,10.9582,1.8915l86.9342-49.5441a2.7866,2.7866,0,0,0-.7374-5.1083L361.2685,248.382l-60.61-88.9a8.7946,8.7946,0,0,0-7.1847-3.7137Z" transform="translate(30.7622)"/><path class="b" d="M361.1071,257.7617A3.2319,3.2319,0,0,0,358.69,253.48L183.2575,219.045l-60.4236-99.04a8.7968,8.7968,0,0,0-11.8934-3.0452L4.2619,178.2792a4.2765,4.2765,0,0,0-.2952,7.2243L1.5,185v89.7682L174.72,309.545l62.7187,100.6205a9.8478,9.8478,0,0,0,13.3805,3.2611l110.6431-65.6151V257.5554Zm-181.8633-36.3.1107.0225,12.5289,20.979Zm72.2934,99.9887a10.5936,10.5936,0,0,1-13.86-2.9856,12.6887,12.6887,0,0,0,14.1164,2.8367Z" transform="translate(30.7622)"/><path class="b" d="M4.6771,185.9958l172.9714,35.142a3.94,3.94,0,0,1,2.5984,1.841l54.0808,90.5538a15.7966,15.7966,0,0,0,21.4282,5.5993l102.2823-58.7325a3.94,3.94,0,0,0-1.2031-7.2835L184.959,219.379a3.94,3.94,0,0,1-2.6048-1.8144l-57.5209-94.2824a12.7372,12.7372,0,0,0-17.2209-4.4092L3.498,178.7183A3.94,3.94,0,0,0,4.6771,185.9958Z" transform="translate(30.7622)"/><g class="c"><g class="g"><path class="e" d="M11.0889,240.1926c-.0749-3.8621-10.0935-30.6964-13.54-34.8455-2.75-3.3112-10.9935-5.1116-18.2244-5.57l-.5482.7857-.4768.6835-7.1837,10.2967-.7983,1.1442-1.08,1.5477c1.764,7.1172,4.3863,16.1786,7.216,24.6509l2.7824,1.9412,3.0127,2.1018,8.2532,5.758,9.6027,6.7C5.8344,249.4051,11.1339,242.5081,11.0889,240.1926Z" transform="translate(30.7622)"/><path class="e" d="M38.924,201.7193c2.7068-2.5563-13.2671-36.56-17.2908-38.7322-2.2716-1.2263-10.2657-.5759-17.28.9144l-1.293,1.8533-1.2,1.72-9.083,13.019-1.4408,2.0652-1.5991,2.2922c.3244,4.0922,1.5678,8.1,4.3575,10.9914C.2989,202.2715,36.2172,204.2758,38.924,201.7193Z" transform="translate(30.7622)"/><path class="e" d="M7.6061,211.1481c.0955,4.9191,9.7142,27.0966,18.11,33.5887s44.731,16.6029,48.0337,13.1923c1.2117-1.2513,8.3432-11.9586,5.5114-15.8392-8.4223-11.5414-28.3752-28.0511-31.52-30.2454C42.7728,208.3788,7.481,204.7111,7.6061,211.1481Z" transform="translate(30.7622)"/><path class="e" d="M36.767,168.16c-5.2.0651,9.8394,33.5336,13.913,38.2806s25.9319,26.3465,31.7934,28.5309c3.4316,1.2789,15.82-5.4726,18.2032-8.8893,1.49-2.1355,2.78-14.57.8668-18.4446C99.2683,203.029,59.1189,167.8794,36.767,168.16Z" transform="translate(30.7622)"/><path class="e" d="M49.7935,258.8764c-12.2565-2.7837-29.5317-6.8308-33.8271-7.0906-2.8888-.1747-6.39,3.3089-9.4573,8.0683l1.1937.8328,1.3934.9721,13.2919,9.2734,6.4761,4.5181,6.0808,4.2424c13.9272-5.4348,27.1065-11.9215,28.4594-13.8606C66.682,261.1343,60.2852,261.2592,49.7935,258.8764Z" transform="translate(30.7622)"/><path class="e" d="M109.3848,314.7533c.173-6.8641-24.5179-45.9092-31.8455-46.9816-9.2142-1.3487-30.8053,17.1346-31.955,19.3375l-.0023.0048,1.5513,1.0823,1.5021,1.0479L65.47,300.9888l23.4031,16.3276,12.1713,8.4915C105.68,322.0368,109.3085,317.781,109.3848,314.7533Z" transform="translate(30.7622)"/><path class="e" d="M141.6488,232.3231c-6.8759,1.0848-5.8033,32.8457-3.4174,45.3048,1.8135,9.47,7.5124,8.0485,20.0933,9.5737,18.7264,2.27,31.5076,3.9528,31.5661,1.0683.1522-7.4987-19.4291-47.2694-26.4973-51.3692C160.2618,235.084,150.65,230.903,141.6488,232.3231Z" transform="translate(30.7622)"/><path class="e" d="M84.4983,251.5851c-2.9547,5.5584,2.1379,15.4611,7.4535,21.0745,4.2327,4.47,18.5476,10.0674,34.8459,12.2463,10.133,1.3547,1.3039-45.2657-2.7415-47.542a32.2521,32.2521,0,0,0-15.7182-4.07C103.2119,233.26,87.453,246.0268,84.4983,251.5851Z" transform="translate(30.7622)"/><path class="e" d="M103.2141,286.2046c-1.4648,3.4229,12.7216,30.2343,16.8678,32.7223,6.5074,3.9051,20.6892,8.7194,25.5818,8.3229s-5.4679-29.2138-10.1374-33.1066S104.679,282.7817,103.2141,286.2046Z" transform="translate(30.7622)"/><path class="e" d="M208.1369,311.6457c1.9867-3.2324-6.8188-11.4654-9.4391-12.9352-4.6447-2.6055-43.1048-5.84-48.8027-5.474s.0806,27.17,6.1638,33.5091c6.3029,6.568,25.2508,14.9584,33.1186,15.3828C194.3957,342.41,201.3087,322.7563,208.1369,311.6457Z" transform="translate(30.7622)"/><path class="e" d="M135.6315,330.7859c-.8912-1.69-15.9912-8.3153-19.4473-7.8529-2.5071.3354-7.1384,4.7154-8.9237,7.2121l1.2379.8636,1.4444,1.0077,9.121,6.3634,6.6292,4.625,2.9468,2.0559C132.4646,340.1259,136.7369,332.8815,135.6315,330.7859Z" transform="translate(30.7622)"/><path class="e" d="M208.8982,383.2018c1.1168-5.5707-12.0108-25.3036-17.4637-31.8682-2.5088-3.02-36.4858-17.8352-43.812-16.5967-4.0974.6927-9.7868,7.3531-13.4583,14.1779l1.7591,1.2274,2.0335,1.4186,31.4091,21.9132,18.2968,12.765,10.9345,7.6287C204.1815,389.7331,208.4494,385.4406,208.8982,383.2018Z" transform="translate(30.7622)"/><path class="e" d="M42.1673,161.3126c4.2216-3.4045,5.0444-29.6492-.9982-35.62-1.5144-1.4965-3.653-3.47-6.1851-5.6951l-1.6614,2.3813-3.59,5.1453L18.3663,143.8162l-5.115,7.3317-2.6989,3.8685C16.2042,157.8679,38.2156,164.4994,42.1673,161.3126Z" transform="translate(30.7622)"/><path class="e" d="M50.822,161.7282c4.5337,5.6643,22.7271,19.0309,26.9988,18.2012S81.9151,154.212,80.3,149.91,58.178,130.5785,55.1644,133.009C50.9428,136.4134,47.3692,157.4144,50.822,161.7282Z" transform="translate(30.7622)"/><path class="e" d="M85.5405,181.6966c.7538,4.6523,13.19,16.8219,16.9156,19.4212s25.3088,10.0374,31.3933,7.9325c5.442-1.8826,17.9437-7.1391,15.9923-12.3367-1.9378-5.1618-30.5535-43.5405-37.3339-45.731S92.3666,154.71,89.66,157.2667C86.3894,160.3555,84.4965,175.2535,85.5405,181.6966Z" transform="translate(30.7622)"/><path class="e" d="M113.6275,211.3527c-3.3526.8357-4.1215,8.554-4.3445,12.8433-.1874,3.6064,19.1994,10.8549,22.2541,10.4461s2.78-14.57.8918-17.1572C131.3116,215.9539,116.98,210.5169,113.6275,211.3527Z" transform="translate(30.7622)"/><path class="e" d="M169.0059,228.1609c3.9737-.4026,3.6485-17.1389-1.94-21.0378-4.52-3.1538-23.2458,1.5615-26.8215,6.6866-2.3837,3.4168.473,8.5847,4.7947,10.33S162.5269,228.8174,169.0059,228.1609Z" transform="translate(30.7622)"/><path class="e" d="M158.1241,158.2833c-5.2656-3.0387-27.3445-4.473-29.43-1.4832S154.4,195.0536,159.52,198.626c4.3467,3.0326,23.3209,2.3006,24.1647-1.5553S163.39,161.3219,158.1241,158.2833Z" transform="translate(30.7622)"/><path class="e" d="M235.194,247.183c1.6877-7.7121-19.9474-33.6009-27.051-36.6519s-26.45-5.7541-29.1572-3.1978-3.5915,30.46-3,34.7355c1.0689,7.73,15.1278,21.9838,20.9894,24.1682S233.5063,254.8951,235.194,247.183Z" transform="translate(30.7622)"/><path class="e" d="M225.4718,266.9256c-7.0784-1.7635-23.7668,6.2778-26.7716,9.2613s4.7616,18.3262,7.8016,23.2223c3.4777,5.6012,47.6356,8.47,46.94,4.1743S232.55,268.689,225.4718,266.9256Z" transform="translate(30.7622)"/><path class="e" d="M58.8921,123.4765c1.0818,4.85,22.1561,21.1724,27.72,23.7839s15.5967-1.1835,17.3344-6.3208-22.3813-32.7589-27.2988-33.65S57.55,117.4605,58.8921,123.4765Z" transform="translate(30.7622)"/><path class="e" d="M59.3169,109.6935c2.9272-2.3605,8.12-7.6693,8.3431-11.9586.0963-1.8535-4.3722-6.0611-9.9481-10.3145l-.585.8385-11.642,16.6869-4.2893,6.1481C49.2529,111.3615,58.0641,110.7038,59.3169,109.6935Z" transform="translate(30.7622)"/><path class="e" d="M123.74,97.8283c-7.6994-2.1967-31.8643-.6413-33.95,2.3482s17.5387,35.73,25.3381,43.0767c6.2108,5.85,28.0154,7.481,34.1,5.3761s7.9953-14.1064,8.1931-19.6831S131.44,100.025,123.74,97.8283Z" transform="translate(30.7622)"/><path class="e" d="M116.8665,88.7248c1.8129-1.2751.2707-17.59-4.3738-20.1958-4.3308-2.4294-24.7482-10.56-35.1379-9.2637L76.37,60.6774l-1.5775,2.261L64.729,77.3624l-1.19,1.7049L62.2678,80.89a3.6763,3.6763,0,0,0,.3084.4369c5.3474,6.4838,23.892,11.0571,26.7978,11.0763C93.9687,92.4339,112.4477,91.8329,116.8665,88.7248Z" transform="translate(30.7622)"/><path class="e" d="M84.4835,106.3444c2.4588.4454-.473-8.5848-2.6587-10.7448S74.15,94.69,73.58,96.832C72.7962,99.77,79.1573,105.38,84.4835,106.3444Z" transform="translate(30.7622)"/><path class="e" d="M238.4686,397.2071c-2.994-.7158-11.1477,5.4458-17.3993,12.3386l1.1933.8325.855.5965,20.2232,14.1091L247.808,428.2l5.5506,3.8725c2.7889-3.3947,4.57-6.4931,4.0644-8.3075C254.7891,414.3081,244.1335,398.5613,238.4686,397.2071Z" transform="translate(30.7622)"/><path class="e" d="M138.969,91.06c-1.4281,2.0471-.3441,8.8906,1.3871,12.7071,2.02,4.4527,24.15,22.0661,28.7026,23.9378s6.4239-2.91,8.0562-5.2492S158.4036,96.7928,155.7367,95.367C151.0007,92.835,140.3973,89.013,138.969,91.06Z" transform="translate(30.7622)"/><path class="e" d="M242.8527,312.0891c-4.62-1.3181-21.4831-2.2886-25.4067.6888s-14.5,26.0772-18.374,31.63,14.39,29.4332,15.8989,30.1415c5.5634,2.6114,31.4637-19.9573,34.4434-24.2283S247.4722,313.4071,242.8527,312.0891Z" transform="translate(30.7622)"/><path class="e" d="M231.7471,386.8442c.1013-1.9475-7.1509-6.87-11.127-5.2231-2.41.9982-11.4376,9.8339-16.8935,15.8252l1.19.83.7868.5489,1.3589.948,7.0869,4.9443,3.42,2.3862C223.6177,400.2014,231.5937,389.7941,231.7471,386.8442Z" transform="translate(30.7622)"/><path class="e" d="M120.0229,61.5613c-1.0689-7.73-9.3088-30.353-14.359-29.7019-2.6395.34-18.0781,15.3262-13.3835,20.5065C97.4469,58.0668,120.5149,65.1187,120.0229,61.5613Z" transform="translate(30.7622)"/><path class="e" d="M-13.66,195.1811c.6035-.1173.2444-1.9209-.6583-4.5157l-3.1723,4.5471A27.6089,27.6089,0,0,0-13.66,195.1811Z" transform="translate(30.7622)"/><path class="e" d="M257.8719,334.1984c-.521,4.7164-3.7965,25.29.2772,30.0373s16.44,4.7216,19.3722,3.9908c3.3528-.8359,16.7635-4.1792,18.8493-7.1688s-11.4271-20.6719-13.9359-23.6921C277.776,331.7572,258.3929,329.4821,257.8719,334.1984Z" transform="translate(30.7622)"/><path class="e" d="M242.2284,366.0016c1.1465,2.1736,9.86,3.0692,10.754,1.7879s-1.044-6.443-3.23-8.603S240.6385,362.9874,242.2284,366.0016Z" transform="translate(30.7622)"/><path class="e" d="M272.5223,306.5953c-1.0326-4.2646-15.5715,2.4709-19.1972,5.0211s3.9007,11.6111,9.7871,15.0829S274.1871,313.4717,272.5223,306.5953Z" transform="translate(30.7622)"/><path class="e" d="M134.0018,70.9063c-1.59-3.0142-11.102-3.9358-12.5918-1.8s1.567,17.6026,2.8339,19.7565c2.5338,4.3076,8.6932,6.065,9.8851,4.3566S135.5917,73.9205,134.0018,70.9063Z" transform="translate(30.7622)"/><path class="e" d="M175.8278,86.7517c-3.7257-2.5992-14.0818.3353-14.6277,3.7643-.4647,2.92,16.6927,23.7106,20.12,26.7369s8.6662-11.0984,8.6662-11.0984S179.5534,89.351,175.8278,86.7517Z" transform="translate(30.7622)"/><path class="e" d="M180.4748,133.0376c-.1854,5.22,26.6528,31.9294,30.9744,33.6745s11.4457-25.6686,11.0977-27.8163-19.9452-17.725-25.1858-19.4763S180.6727,127.4608,180.4748,133.0376Z" transform="translate(30.7622)"/><path class="e" d="M176.1387,139.98c-3.7007-1.3118-15.87,2.8979-14.5526,7.6265.5424,1.9477,9.1991,18.1835,13.961,24.98,4.433,6.3267,11.4555,9.1123,14.9026,10.3971,4.8023,1.79,9.2872-10.6652,10.131-14.5211S179.8394,141.2923,176.1387,139.98Z" transform="translate(30.7622)"/><path class="e" d="M242.8911,214.7081c3.0547-.4086,9.51-14.9544,5.7342-20.1284s-27.3718-21.6363-32.2894-22.5272-12.69,8.926-14.4525,12.776,2.0878,12.8861,4.6217,17.1939C209.0632,206.3712,239.8363,215.1168,242.8911,214.7081Z" transform="translate(30.7622)"/><path class="e" d="M190.5612,200.2306c3.777,2.6352,7.9973,1.77,9.4871-.3658s-2.9319-9.03-5.4157-10.763S186.8355,197.6314,190.5612,200.2306Z" transform="translate(30.7622)"/><path class="e" d="M283.7159,269.3845c-4.67-3.8929-35.2941-19.5438-39.8887-19.5744s-11.1,11.94-10.429,14.9483c.9677,4.3382,25.1381,32.7774,30.6518,32.8143S288.3854,273.2773,283.7159,269.3845Z" transform="translate(30.7622)"/><path class="e" d="M293.26,235.2369c-1.6147-4.3016-24.3147-6.169-28.6114-6.6269s-22.7729,10.1462-19.9411,14.0268,26.3528,16.4805,32.1892,17.3775S294.8752,239.5384,293.26,235.2369Z" transform="translate(30.7622)"/><path class="e" d="M255.6384,223.8811c-4.3907-3.0633-29.739-10.1516-30.7721-7.4994-1.167,2.9959,10.7562,17.6639,13.2149,18.1093S258.1223,225.614,255.6384,223.8811Z" transform="translate(30.7622)"/><path class="e" d="M282.9067,286.051c.0715,3.6866,16.7653,11.6968,20.4161,10.4339s-5.5157-15.9128-9.5393-18.085S282.8567,283.4763,282.9067,286.051Z" transform="translate(30.7622)"/><path class="e" d="M306.2465,270.9448c3.9737-.4026,34.9417-14.3558,34.5438-19.0783s-37.33-13.9792-38.7945-10.5563-13.3837,20.5067-11.7939,23.5207C292.0561,268.346,302.2728,271.3474,306.2465,270.9448Z" transform="translate(30.7622)"/><path class="e" d="M346.4478,261.965c-3.3778-.4516-28.6594,6.6744-26.15,9.6946,2.3291,2.8042,24.7127,10.8915,27.1215,8.7623S349.8254,262.4165,346.4478,261.965Z" transform="translate(30.7622)"/><path class="e" d="M258.1369,196.1227c-2.2242,3.0024-4.3452,12.81-4.27,16.7056.05,2.5749,9.3642,9.0729,14.3069,11.2514s23.9669,4.0213,29.4554,2.7707,9.7328-19.2438,9.6828-21.8185-23.025-18.6039-26.4277-20.3428C278.9938,183.7228,259.9609,193.6607,258.1369,196.1227Z" transform="translate(30.7622)"/><path class="e" d="M263.1905,158.0069c-2.5088-3.02-19.3744-19.8667-25.4837-19.0491s-16.04,25.6377-14.7485,29.0789c1.3317,3.5473,23.05,19.8914,28.5887,21.2155s18.8492-7.169,20.016-10.1647S265.7,161.0272,263.1905,158.0069Z" transform="translate(30.7622)"/><path class="e" d="M342.4557,245.228c4.8925-.3965,4.4672-22.2823,4.0943-25.7175s-10.3332-11.6539-14.63-12.1117-23.9147,14.4293-24.4356,19.1458c-.3708,3.3578,2.9319,9.03,5.7137,10.3359S337.5631,245.6245,342.4557,245.228Z" transform="translate(30.7622)"/><path class="e" d="M348.7988,251.2075c-1.0686,4.8833,3.5528,9.4633,6.6326,10.342s15.4965-6.3329,16.9863-8.4684-16.22-15.1255-18.9765-15.144S349.6427,247.3513,348.7988,251.2075Z" transform="translate(30.7622)"/><path class="e" d="M52.9688,116.9868c-1.4838-2.0331-11.2639-2.796-14.5883-1.8578l-.8936,1.2808c2.25,3.22,9.5912,10.4286,12.95,12.1452C53.84,130.294,54.8566,119.5738,52.9688,116.9868Z" transform="translate(30.7622)"/><path class="e" d="M260.6288,406.0337c-.5573.7989.3476,5.9287,2.0882,12.9518l1.08-1.5477.7983-1.1444,7.1836-10.2965.4769-.6836.5482-.7857C266.8439,404.15,261.5712,404.6829,260.6288,406.0337Z" transform="translate(30.7622)"/><path class="e" d="M130.34,62.6484c2.7471-1.5378,6.7667-5.1247,10.5946-9.12l-9.6027-6.6994-11.266-7.86-2.7823-1.9411C122.1106,51.48,127.5406,64.2156,130.34,62.6484Z" transform="translate(30.7622)"/><path class="e" d="M140.8809,82.0029c5.84,6.4438,15.2362,2.7769,25.4066-.6889,3.1142-1.0613,6.32-2.243,9.4871-3.4789l-6.0808-4.2425-6.4761-4.5181-13.2919-9.2733-1.3934-.9721-1.1937-.8328C141.9411,66.3719,137.8873,78.7,140.8809,82.0029Z" transform="translate(30.7622)"/><path class="e" d="M224.5619,132.4621c3.9422.2661,11.4365-3.7336,17.3116-8.5121l-12.1713-8.4914L206.2989,99.1308,189.465,87.3864l-1.5021-1.048-1.5513-1.0823C180.9432,95.7654,217.51,131.9861,224.5619,132.4621Z" transform="translate(30.7622)"/><path class="e" d="M247.3787,129.5925c-.9972,4.5564,14.4817,20.2631,17.8095,18.14a22.4318,22.4318,0,0,0,4.2812-4.53l-2.9468-2.0559-6.6292-4.625-9.121-6.3634-1.4444-1.0077-1.2379-.8636A4.2584,4.2584,0,0,0,247.3787,129.5925Z" transform="translate(30.7622)"/><path class="e" d="M271.8407,160.6583c5.4158,10.7632,32.2914,38.4032,42.1516,41.4724,5.8974,1.8357,17.124-3.9678,25.4345-10.1209l-10.9345-7.6287-18.2968-12.765-31.4091-21.9132-2.0335-1.4186-1.7591-1.2273C272.1007,152.4351,270.4606,157.9154,271.8407,160.6583Z" transform="translate(30.7622)"/><path class="e" d="M354.4166,223.0734c4.1238,7.3218,16.395,24.1377,20.6664,23.308,2.896-.5624,13.2346-9.0209,19.1051-16.1665l-5.55-3.8724-4.4672-3.1166-20.2232-14.109-.855-.5966-1.1933-.8325C356.5862,213.5457,352.647,219.9315,354.4166,223.0734Z" transform="translate(30.7622)"/><path class="e" d="M340.4168,200.648c-2.2219,4.18,8.52,12.9291,11.848,10.8057a45.5746,45.5746,0,0,0,6.1338-6.2079l-3.42-2.3861-7.0869-4.9443-1.3589-.9481-.7868-.5489-1.19-.83A37.76,37.76,0,0,0,340.4168,200.648Z" transform="translate(30.7622)"/><path class="e" d="M283.2168,389.6021l1.5992-2.2922,1.4408-2.0652,9.083-13.019,1.2-1.72,1.293-1.8532c-5.41,1.1495-10.2369,2.7987-11.4046,4.4725C284.7438,375.5392,282.669,382.6906,283.2168,389.6021Z" transform="translate(30.7622)"/><path class="e" d="M290.2632,300.1123c-5.4636,2.538-11.4229,11.08-11.6208,16.6566s20.9913,40.044,24.47,42.4709a7.8551,7.8551,0,0,0,.9194.5274l2.6988-3.8684,5.1151-7.3318,11.3666-16.2922,3.59-5.1453,1.6614-2.3813C316.3764,314.127,295.3135,297.7661,290.2632,300.1123Z" transform="translate(30.7622)"/><path class="e" d="M302.5243,280.6414c-2.8267,4.0516,14.0611,30.1293,19.3266,33.1678,2.1406,1.2352,7.3053,1.8524,12.824,2.0356l4.2893-6.1481,11.642-16.687.5849-.8385c-7.3273-5.5893-16.568-11.2577-19.8824-11.7671C325.4723,279.5071,305.802,275.9434,302.5243,280.6414Z" transform="translate(30.7622)"/><path class="e" d="M355.7471,285.641l1.2718-1.8229,1.1894-1.7049,10.0631-14.424,1.5776-2.2612.985-1.4118a12.0842,12.0842,0,0,0-2.0917.4341C359.593,267.3014,352.7821,280.7363,355.7471,285.641Z" transform="translate(30.7622)"/><path class="e" d="M234.3416,376.4587c.3122,3.7047,11.104,19.8115,15.7237,21.1295,3.635,1.0372,18.6474,2.15,25.9228,2.3751l3.1724-4.5471c-2.2914-6.5866-8.0872-18.2745-10.546-20.4455C265.1868,371.9443,233.9435,371.7362,234.3416,376.4587Z" transform="translate(30.7622)"/><path class="e" d="M330.8772,321.034c.0276.0405.06.0847.089.1266l.8935-1.2806C330.954,320.1355,330.5259,320.5171,330.8772,321.034Z" transform="translate(30.7622)"/></g></g><path class="f" d="M237.18,317.725,179.11,221.24,1.5,185v89.7682L174.72,309.545l62.7187,100.6205a9.8478,9.8478,0,0,0,13.3805,3.2611l110.6431-65.6151V257.5554L251.5371,321.4505A10.5976,10.5976,0,0,1,237.18,317.725Z" transform="translate(30.7622)"/><path class="f" d="M249.791,357.095l111.6709-64.0762v20.3289L249.9405,379.32a8.7833,8.7833,0,0,1-11.9388-2.9342l-63.77-102.9429L1.5,237.2024V220.94L175.6954,256.855l62.3269,97.3574A8.7833,8.7833,0,0,0,249.791,357.095Z" transform="translate(30.7622)"/><line class="f" x1="38.8121" y1="186.681" x2="38.8121" y2="215.142"/><line class="f" x1="50.521" y1="189.1204" x2="50.521" y2="217.5814"/><line class="f" x1="64.6693" y1="192.0476" x2="64.6693" y2="220.5086"/><line class="f" x1="78.8175" y1="194.9748" x2="78.8175" y2="223.4358"/><line class="f" x1="92.9658" y1="197.9021" x2="92.9658" y2="226.363"/><line class="f" x1="107.114" y1="200.8293" x2="107.114" y2="229.2903"/><line class="f" x1="121.2623" y1="203.7565" x2="121.2623" y2="232.2175"/><line class="f" x1="135.4105" y1="206.6837" x2="135.4105" y2="235.1447"/><line class="f" x1="149.5588" y1="209.611" x2="149.5588" y2="238.0719"/><line class="f" x1="163.7071" y1="212.5382" x2="163.7071" y2="240.9992"/><line class="f" x1="177.8553" y1="215.4654" x2="177.8553" y2="243.9264"/><line class="f" x1="192.0036" y1="218.3926" x2="192.0036" y2="246.8536"/><line class="f" x1="206.1518" y1="221.3199" x2="206.1518" y2="249.7808"/><line class="f" x1="38.8121" y1="246.6891" x2="38.8121" y2="275.1501"/><line class="f" x1="50.521" y1="249.1285" x2="50.521" y2="277.5895"/><line class="f" x1="64.6693" y1="252.0557" x2="64.6693" y2="280.5167"/><line class="f" x1="78.8175" y1="254.9829" x2="78.8175" y2="283.4439"/><line class="f" x1="92.9658" y1="257.9102" x2="92.9658" y2="286.3711"/><line class="f" x1="107.114" y1="260.8374" x2="107.114" y2="289.2984"/><line class="f" x1="121.2623" y1="263.7646" x2="121.2623" y2="292.2256"/><line class="f" x1="135.4105" y1="266.6918" x2="135.4105" y2="295.1528"/><line class="f" x1="149.5588" y1="269.6191" x2="149.5588" y2="298.08"/><line class="f" x1="163.7071" y1="272.5463" x2="163.7071" y2="301.0073"/><line class="f" x1="177.8553" y1="275.4735" x2="177.8553" y2="303.9345"/><line class="f" x1="192.0036" y1="278.4007" x2="192.0036" y2="306.8617"/><line class="f" x1="206.1518" y1="281.328" x2="206.1518" y2="309.7889"/><line class="f" x1="215.9092" y1="296.452" x2="215.9092" y2="324.9129"/><line class="f" x1="215.9092" y1="234.9802" x2="215.9092" y2="263.4412"/><line class="f" x1="223.7151" y1="310.6002" x2="223.7151" y2="339.0612"/><line class="f" x1="223.7151" y1="249.1285" x2="223.7151" y2="277.5895"/><line class="f" x1="232.4968" y1="324.7485" x2="232.4968" y2="353.2094"/><line class="f" x1="232.4968" y1="263.2767" x2="232.4968" y2="291.7377"/><line class="f" x1="241.2785" y1="338.8967" x2="241.2785" y2="367.3577"/><line class="f" x1="241.2785" y1="278.4007" x2="241.2785" y2="306.8617"/><line class="f" x1="251.5238" y1="354.9964" x2="251.5238" y2="383.4574"/><line class="f" x1="251.5238" y1="292.549" x2="251.5238" y2="321.01"/><line class="f" x1="262.2569" y1="371.584" x2="262.2569" y2="400.045"/><line class="f" x1="262.2569" y1="310.6002" x2="262.2569" y2="339.0612"/><line class="f" x1="286.1626" y1="319.3819" x2="286.1626" y2="347.8428"/><line class="f" x1="301.2866" y1="310.6002" x2="301.2866" y2="339.0612"/><line class="f" x1="316.4106" y1="301.8185" x2="316.4106" y2="330.2795"/><line class="f" x1="331.5346" y1="293.0369" x2="331.5346" y2="321.4978"/><line class="f" x1="346.6586" y1="284.2552" x2="346.6586" y2="312.7162"/><line class="f" x1="361.7826" y1="275.4735" x2="361.7826" y2="303.9345"/><line class="f" x1="376.9066" y1="266.6918" x2="376.9066" y2="295.1528"/><line class="f" x1="391.3676" y1="258.5731" x2="391.3676" y2="287.0341"/><line class="f" x1="286.1626" y1="380.8536" x2="286.1626" y2="409.3146"/><line class="f" x1="301.2866" y1="372.0719" x2="301.2866" y2="400.5329"/><line class="f" x1="316.4106" y1="363.2902" x2="316.4106" y2="391.7512"/><line class="f" x1="331.5346" y1="354.5086" x2="331.5346" y2="382.9695"/><line class="f" x1="346.6586" y1="345.7269" x2="346.6586" y2="374.1879"/><line class="f" x1="361.7826" y1="336.9452" x2="361.7826" y2="365.4062"/><line class="f" x1="376.9066" y1="328.1636" x2="376.9066" y2="356.6245"/><line class="f" x1="391.3676" y1="320.0448" x2="391.3676" y2="348.5058"/><path class="f" d="M5.5405,186.1712l173.8139,35.3131,56.5378,94.668a12.6926,12.6926,0,0,0,17.2176,4.499l106.5681-61.1934a3.2339,3.2339,0,0,0-.9875-5.9778L183.2574,219.045l-60.4234-99.04A8.797,8.797,0,0,0,110.94,116.96L4.2619,178.2792A4.273,4.273,0,0,0,5.5405,186.1712Z" transform="translate(30.7622)"/><path class="f" d="M18.5117,182.1351l158.8538,38.6863,65.0552,88.6731a8.6192,8.6192,0,0,0,10.9582,1.8915l86.9342-49.5441a2.7866,2.7866,0,0,0-.7374-5.1083L181.2685,218.382l-60.6095-88.9a8.797,8.797,0,0,0-11.34-2.6665L18.0522,178.323A2.0615,2.0615,0,0,0,18.5117,182.1351Z" transform="translate(30.7622)"/><path class="e" d="M113.4172,134.8372l49.9886,73.3215L37.73,177.5522l75.6876-42.715m82.7656,96.4183L322.226,261.7909l-73.0838,41.6506-52.9594-72.186M113.4743,125.7686a8.7651,8.7651,0,0,0-4.1557,1.0473L18.0522,178.323a2.0614,2.0614,0,0,0,.46,3.8121l158.8538,38.6863,65.0552,88.6731a8.6178,8.6178,0,0,0,10.9582,1.8915l86.9342-49.5441a2.7866,2.7866,0,0,0-.7374-5.1083L181.2684,218.382l-60.6094-88.9a8.7946,8.7946,0,0,0-7.1847-3.7137Z" transform="translate(30.7622)"/><path class="b" d="M605.1071,404.7617A3.2319,3.2319,0,0,0,602.69,400.48L427.2575,366.045l-60.4236-99.04a8.7968,8.7968,0,0,0-11.8934-3.0452L248.2619,325.2792a4.2765,4.2765,0,0,0-.2952,7.2243L245.5,332v89.7682L418.72,456.545l62.7187,100.62a9.8478,9.8478,0,0,0,13.38,3.2611l110.6431-65.6151V404.5554Zm-181.8633-36.3.1107.0225,12.5289,20.979Zm72.2934,99.9887a10.5936,10.5936,0,0,1-13.86-2.9856,12.6887,12.6887,0,0,0,14.1164,2.8367Z" transform="translate(30.7622)"/><path class="b" d="M248.6771,332.9958l172.9714,35.142a3.94,3.94,0,0,1,2.5984,1.841l54.0808,90.5538a15.7966,15.7966,0,0,0,21.4282,5.5993l102.2823-58.7325a3.94,3.94,0,0,0-1.2031-7.2835L428.959,366.379a3.94,3.94,0,0,1-2.6048-1.8144l-57.5209-94.2824a12.7372,12.7372,0,0,0-17.2209-4.4092L247.498,325.7183A3.94,3.94,0,0,0,248.6771,332.9958Z" transform="translate(30.7622)"/><g class="c"><g class="h"><path class="e" d="M255.0889,387.1926c-.0749-3.8621-10.0935-30.6964-13.54-34.8455-2.7505-3.3112-10.9935-5.1116-18.2244-5.57l-.5482.7857-.4768.6835-7.1837,10.2967-.7983,1.1442-1.08,1.5477c1.764,7.1172,4.3863,16.1786,7.216,24.6509l2.7824,1.9412,3.0127,2.1018,8.2532,5.758,9.6027,6.7C249.8344,396.4051,255.1339,389.5081,255.0889,387.1926Z" transform="translate(30.7622)"/><path class="e" d="M282.924,348.7193c2.7068-2.5563-13.2671-36.56-17.2908-38.7322-2.2716-1.2263-10.2657-.5759-17.28.9144l-1.293,1.8533-1.2,1.72-9.083,13.019-1.4408,2.0652-1.5991,2.2922c.3244,4.0922,1.5678,8.1005,4.3575,10.9914C244.2989,349.2715,280.2172,351.2758,282.924,348.7193Z" transform="translate(30.7622)"/><path class="e" d="M251.6061,358.1481c.0955,4.9191,9.7142,27.0966,18.11,33.5887s44.731,16.6029,48.0337,13.1923c1.2117-1.2513,8.3432-11.9586,5.5114-15.8392-8.4223-11.5414-28.3752-28.0511-31.52-30.2454C286.7728,355.3788,251.481,351.7111,251.6061,358.1481Z" transform="translate(30.7622)"/><path class="e" d="M280.767,315.16c-5.2.0651,9.8394,33.5336,13.913,38.2806s25.9319,26.3465,31.7934,28.5309c3.4316,1.2789,15.8195-5.4726,18.2032-8.8893,1.49-2.1355,2.78-14.57.8668-18.4446C343.2683,350.029,303.1189,314.8794,280.767,315.16Z" transform="translate(30.7622)"/><path class="e" d="M293.7935,405.8764c-12.2565-2.7837-29.5317-6.8308-33.8271-7.0906-2.8888-.1747-6.39,3.3089-9.4573,8.0683l1.1937.8328,1.3934.9721,13.2919,9.2734,6.4761,4.5181,6.0808,4.2424c13.9272-5.4348,27.1065-11.9215,28.4594-13.8606C310.682,408.1343,304.2852,408.2592,293.7935,405.8764Z" transform="translate(30.7622)"/><path class="e" d="M353.3848,461.7533c.173-6.8641-24.5179-45.9092-31.8455-46.9816-9.2142-1.3487-30.8053,17.1346-31.955,19.3375l-.0023.0048,1.5513,1.0823,1.5021,1.0479L309.47,447.9888l23.4031,16.3276,12.1713,8.4915C349.68,469.0368,353.3085,464.781,353.3848,461.7533Z" transform="translate(30.7622)"/><path class="e" d="M385.6488,379.3231c-6.8759,1.0848-5.8033,32.8457-3.4174,45.3048,1.8135,9.47,7.5124,8.0485,20.0933,9.5737,18.7264,2.27,31.5076,3.9528,31.5661,1.0683.1522-7.4987-19.4291-47.2694-26.4973-51.3692C404.2618,382.084,394.65,377.903,385.6488,379.3231Z" transform="translate(30.7622)"/><path class="e" d="M328.4983,398.5851c-2.9547,5.5584,2.1379,15.4611,7.4535,21.0745,4.2327,4.47,18.5476,10.0674,34.8459,12.2463,10.133,1.3547,1.3039-45.2657-2.7415-47.542a32.2521,32.2521,0,0,0-15.7182-4.07C347.2119,380.26,331.453,393.0268,328.4983,398.5851Z" transform="translate(30.7622)"/><path class="e" d="M347.2141,433.2046c-1.4648,3.4229,12.7216,30.2343,16.8678,32.7223,6.5074,3.9051,20.6892,8.7194,25.5818,8.3229s-5.4679-29.2138-10.1374-33.1066S348.679,429.7817,347.2141,433.2046Z" transform="translate(30.7622)"/><path class="e" d="M452.1369,458.6457c1.9867-3.2324-6.8188-11.4654-9.4391-12.9352-4.6447-2.6055-43.1048-5.84-48.8027-5.474s.0806,27.17,6.1638,33.5091c6.3029,6.568,25.2508,14.9584,33.1186,15.3828C438.3957,489.41,445.3087,469.7563,452.1369,458.6457Z" transform="translate(30.7622)"/><path class="e" d="M379.6315,477.7859c-.8912-1.69-15.9912-8.3153-19.4473-7.8529-2.5071.3354-7.1384,4.7154-8.9237,7.2121l1.2379.8636,1.4444,1.0077,9.121,6.3634,6.6292,4.625,2.9468,2.0559C376.4646,487.1259,380.7369,479.8815,379.6315,477.7859Z" transform="translate(30.7622)"/><path class="e" d="M452.8982,530.2018c1.1168-5.5707-12.0108-25.3036-17.4637-31.8682-2.5088-3.02-36.4858-17.8352-43.812-16.5967-4.0974.6927-9.7868,7.3531-13.4583,14.1779l1.7591,1.2274,2.0335,1.4186,31.4091,21.9132,18.2968,12.765,10.9345,7.6287C448.1815,536.7331,452.4494,532.4406,452.8982,530.2018Z" transform="translate(30.7622)"/><path class="e" d="M286.1673,308.3126c4.2216-3.4045,5.0444-29.6492-.9982-35.62-1.5144-1.4965-3.653-3.47-6.1851-5.6951l-1.6614,2.3813-3.59,5.1453-11.3666,16.2922-5.115,7.3317-2.6989,3.8685C260.2042,304.8679,282.2156,311.4994,286.1673,308.3126Z" transform="translate(30.7622)"/><path class="e" d="M294.822,308.7282c4.5337,5.6643,22.7271,19.0309,26.9988,18.2012s4.0943-25.7174,2.4794-30.019-22.1222-19.3319-25.1358-16.9014C294.9428,283.4134,291.3692,304.4144,294.822,308.7282Z" transform="translate(30.7622)"/><path class="e" d="M329.5405,328.6966c.7538,4.6523,13.19,16.8219,16.9156,19.4212s25.3088,10.0374,31.3933,7.9325c5.442-1.8826,17.9437-7.1391,15.9923-12.3367-1.9378-5.1618-30.5535-43.5405-37.3339-45.731s-20.1412,3.7275-22.8479,6.2841C330.3894,307.3555,328.4965,322.2535,329.5405,328.6966Z" transform="translate(30.7622)"/><path class="e" d="M357.6275,358.3527c-3.3526.8357-4.1215,8.554-4.3445,12.8433-.1874,3.6064,19.1994,10.8549,22.2541,10.4461s2.78-14.57.8918-17.1572C375.3116,362.9539,360.98,357.5169,357.6275,358.3527Z" transform="translate(30.7622)"/><path class="e" d="M413.0059,375.1609c3.9737-.4026,3.6485-17.1389-1.94-21.0378-4.5205-3.1538-23.2458,1.5615-26.8215,6.6866-2.3837,3.4168.473,8.5847,4.7947,10.33S406.5269,375.8174,413.0059,375.1609Z" transform="translate(30.7622)"/><path class="e" d="M402.1241,305.2833c-5.2656-3.0387-27.3445-4.473-29.43-1.4832S398.4,342.0536,403.52,345.626c4.3467,3.0326,23.3209,2.3006,24.1647-1.5553S407.39,308.3219,402.1241,305.2833Z" transform="translate(30.7622)"/><path class="e" d="M479.194,394.183c1.6877-7.7121-19.9474-33.6009-27.051-36.6519s-26.45-5.7541-29.1572-3.1978-3.5915,30.46-3,34.7355c1.0689,7.7305,15.1278,21.9838,20.9894,24.1682S477.5063,401.8951,479.194,394.183Z" transform="translate(30.7622)"/><path class="e" d="M469.4718,413.9256c-7.0784-1.7635-23.7668,6.2778-26.7716,9.2613s4.7616,18.3262,7.8016,23.2223c3.4777,5.6012,47.6356,8.47,46.94,4.1743S476.55,415.689,469.4718,413.9256Z" transform="translate(30.7622)"/><path class="e" d="M302.8921,270.4765c1.0818,4.85,22.1561,21.1724,27.72,23.7839s15.5967-1.1835,17.3344-6.3208-22.3813-32.7589-27.2988-33.65S301.55,264.4605,302.8921,270.4765Z" transform="translate(30.7622)"/><path class="e" d="M303.3169,256.6935c2.9272-2.36,8.12-7.6693,8.3431-11.9586.0963-1.8535-4.3722-6.0611-9.9481-10.3145l-.585.8385-11.642,16.6869-4.2893,6.1481C293.2529,258.3615,302.0641,257.7038,303.3169,256.6935Z" transform="translate(30.7622)"/><path class="e" d="M367.74,244.8283c-7.6994-2.1967-31.8643-.6413-33.95,2.3482s17.5387,35.73,25.3381,43.0767c6.2108,5.85,28.0154,7.481,34.1,5.3761s7.9953-14.1064,8.1931-19.6831S375.44,247.025,367.74,244.8283Z" transform="translate(30.7622)"/><path class="e" d="M360.8665,235.7248c1.8129-1.2751.2707-17.59-4.3738-20.1958-4.3308-2.4294-24.7482-10.56-35.1379-9.2637l-.9852,1.4121-1.5775,2.261-10.0631,14.424-1.19,1.7049-1.2717,1.8229a3.6763,3.6763,0,0,0,.3084.4369c5.3474,6.4838,23.892,11.0571,26.7978,11.0763C337.9687,239.4339,356.4477,238.8329,360.8665,235.7248Z" transform="translate(30.7622)"/><path class="e" d="M328.4835,253.3444c2.4588.4454-.473-8.5848-2.6587-10.7448s-7.6744-.9092-8.2453,1.2324C316.7962,246.77,323.1573,252.38,328.4835,253.3444Z" transform="translate(30.7622)"/><path class="e" d="M482.4686,544.2071c-2.994-.7158-11.1477,5.4458-17.3993,12.3386l1.1933.8325.855.5965,20.2232,14.1091L491.808,575.2l5.5506,3.8725c2.7889-3.3947,4.57-6.4931,4.0644-8.3075C498.7891,561.3081,488.1335,545.5613,482.4686,544.2071Z" transform="translate(30.7622)"/><path class="e" d="M382.969,238.06c-1.4281,2.0471-.3441,8.8906,1.3871,12.7071,2.02,4.4527,24.15,22.0661,28.7026,23.9378s6.4239-2.91,8.0562-5.2492-18.7113-25.6631-21.3782-27.0889C395.0007,239.835,384.3973,236.013,382.969,238.06Z" transform="translate(30.7622)"/><path class="e" d="M486.8527,459.0891c-4.62-1.3181-21.4831-2.2886-25.4067.6888s-14.5,26.0772-18.374,31.63,14.39,29.4332,15.8989,30.1415c5.5634,2.6114,31.4637-19.9573,34.4434-24.2283S491.4722,460.4071,486.8527,459.0891Z" transform="translate(30.7622)"/><path class="e" d="M475.7471,533.8442c.1013-1.9475-7.1509-6.87-11.127-5.2231-2.41.9982-11.4376,9.8339-16.8935,15.8252l1.19.83.7868.5489,1.3589.948,7.0869,4.9443,3.42,2.3862C467.6177,547.2014,475.5937,536.7941,475.7471,533.8442Z" transform="translate(30.7622)"/><path class="e" d="M364.0229,208.5613c-1.0689-7.73-9.3088-30.353-14.359-29.7019-2.6395.34-18.0781,15.3262-13.3835,20.5065C341.4469,205.0668,364.5149,212.1187,364.0229,208.5613Z" transform="translate(30.7622)"/><path class="e" d="M230.34,342.1811c.6035-.1173.2444-1.9209-.6583-4.5157l-3.1723,4.5471A27.6089,27.6089,0,0,0,230.34,342.1811Z" transform="translate(30.7622)"/><path class="e" d="M501.8719,481.1984c-.521,4.7164-3.7965,25.29.2772,30.0373s16.44,4.7216,19.3722,3.9908c3.3528-.8359,16.7635-4.1792,18.8493-7.1688s-11.4271-20.6719-13.9359-23.6921C521.776,478.7572,502.3929,476.4821,501.8719,481.1984Z" transform="translate(30.7622)"/><path class="e" d="M486.2284,513.0016c1.1465,2.1736,9.86,3.0692,10.754,1.7879s-1.044-6.443-3.23-8.603S484.6385,509.9874,486.2284,513.0016Z" transform="translate(30.7622)"/><path class="e" d="M516.5223,453.5953c-1.0326-4.2646-15.5715,2.4709-19.1972,5.0211s3.9007,11.6111,9.7871,15.0829S518.1871,460.4717,516.5223,453.5953Z" transform="translate(30.7622)"/><path class="e" d="M378.0018,217.9063c-1.59-3.0142-11.102-3.9358-12.5918-1.8s1.567,17.6026,2.8339,19.7565c2.5338,4.3076,8.6932,6.065,9.8851,4.3566S379.5917,220.9205,378.0018,217.9063Z" transform="translate(30.7622)"/><path class="e" d="M419.8278,233.7517c-3.7257-2.5992-14.0818.3353-14.6277,3.7643-.4647,2.92,16.6927,23.7106,20.12,26.7369s8.6662-11.0984,8.6662-11.0984S423.5534,236.351,419.8278,233.7517Z" transform="translate(30.7622)"/><path class="e" d="M424.4748,280.0376c-.1854,5.22,26.6528,31.9294,30.9744,33.6745s11.4457-25.6686,11.0977-27.8163-19.9452-17.725-25.1858-19.4763S424.6727,274.4608,424.4748,280.0376Z" transform="translate(30.7622)"/><path class="e" d="M420.1387,286.98c-3.7007-1.3118-15.87,2.8979-14.5526,7.6265.5424,1.9477,9.1991,18.1835,13.961,24.98,4.433,6.3267,11.4555,9.1123,14.9026,10.3971,4.8023,1.79,9.2872-10.6652,10.131-14.5211S423.8394,288.2923,420.1387,286.98Z" transform="translate(30.7622)"/><path class="e" d="M486.8911,361.7081c3.0547-.4086,9.51-14.9544,5.7342-20.1284s-27.3718-21.6363-32.2894-22.5272-12.69,8.926-14.4525,12.776,2.0878,12.8861,4.6217,17.1939C453.0632,353.3712,483.8363,362.1168,486.8911,361.7081Z" transform="translate(30.7622)"/><path class="e" d="M434.5612,347.2306c3.777,2.6352,7.9973,1.77,9.4871-.3658s-2.9319-9.03-5.4157-10.763S430.8355,344.6314,434.5612,347.2306Z" transform="translate(30.7622)"/><path class="e" d="M527.7159,416.3845c-4.67-3.8929-35.2941-19.5438-39.8887-19.5744s-11.1,11.94-10.429,14.9483c.9677,4.3382,25.1381,32.7774,30.6518,32.8143S532.3854,420.2773,527.7159,416.3845Z" transform="translate(30.7622)"/><path class="e" d="M537.26,382.2369c-1.6147-4.3016-24.3147-6.169-28.6114-6.6269s-22.7729,10.1462-19.9411,14.0268,26.3528,16.4805,32.1892,17.3775S538.8752,386.5384,537.26,382.2369Z" transform="translate(30.7622)"/><path class="e" d="M499.6384,370.8811c-4.3907-3.0633-29.739-10.1516-30.7721-7.4994-1.167,2.9959,10.7562,17.6639,13.2149,18.1093S502.1223,372.614,499.6384,370.8811Z" transform="translate(30.7622)"/><path class="e" d="M526.9067,433.051c.0715,3.6866,16.7653,11.6968,20.4161,10.4339s-5.5157-15.9128-9.5393-18.085S526.8567,430.4763,526.9067,433.051Z" transform="translate(30.7622)"/><path class="e" d="M550.2465,417.9448c3.9737-.4026,34.9417-14.3558,34.5438-19.0783s-37.33-13.9792-38.7945-10.5563-13.3837,20.5067-11.7939,23.5207C536.0561,415.346,546.2728,418.3474,550.2465,417.9448Z" transform="translate(30.7622)"/><path class="e" d="M590.4478,408.965c-3.3778-.4516-28.6594,6.6744-26.1505,9.6946,2.3291,2.8042,24.7127,10.8915,27.1215,8.7623S593.8254,409.4165,590.4478,408.965Z" transform="translate(30.7622)"/><path class="e" d="M502.1369,343.1227c-2.2242,3.0024-4.3452,12.81-4.27,16.7056.05,2.5749,9.3642,9.0729,14.3069,11.2514s23.9669,4.0213,29.4554,2.7707,9.7328-19.2438,9.6828-21.8185-23.025-18.6039-26.4277-20.3428C522.9938,330.7228,503.9609,340.6607,502.1369,343.1227Z" transform="translate(30.7622)"/><path class="e" d="M507.1905,305.0069c-2.5088-3.02-19.3744-19.8667-25.4837-19.0491s-16.04,25.6377-14.7485,29.0789c1.3317,3.5473,23.05,19.8914,28.5887,21.2155s18.8492-7.169,20.016-10.1647S509.7,308.0272,507.1905,305.0069Z" transform="translate(30.7622)"/><path class="e" d="M586.4557,392.228c4.8925-.3965,4.4672-22.2823,4.0943-25.7175s-10.3332-11.6539-14.63-12.1117-23.9147,14.4293-24.4356,19.1458c-.3708,3.3578,2.9319,9.03,5.7137,10.3359S581.5631,392.6245,586.4557,392.228Z" transform="translate(30.7622)"/><path class="e" d="M592.7988,398.2075c-1.0686,4.8833,3.5528,9.4633,6.6326,10.342s15.4965-6.3329,16.9863-8.4684-16.22-15.1255-18.9765-15.144S593.6427,394.3513,592.7988,398.2075Z" transform="translate(30.7622)"/><path class="e" d="M296.9688,263.9868c-1.4838-2.0331-11.2639-2.796-14.5883-1.8578l-.8936,1.2808c2.25,3.22,9.5912,10.4286,12.95,12.1452C297.84,277.294,298.8566,266.5738,296.9688,263.9868Z" transform="translate(30.7622)"/><path class="e" d="M504.6288,553.0337c-.5573.7989.3476,5.9287,2.0882,12.9518l1.08-1.5477.7983-1.1444,7.1836-10.2965.4769-.6836.5482-.7857C510.8439,551.15,505.5712,551.6829,504.6288,553.0337Z" transform="translate(30.7622)"/><path class="e" d="M374.34,209.6484c2.7471-1.5378,6.7667-5.1247,10.5946-9.12l-9.6027-6.6994-11.266-7.86-2.7823-1.9411C366.1106,198.48,371.5406,211.2156,374.34,209.6484Z" transform="translate(30.7622)"/><path class="e" d="M384.8809,229.0029c5.84,6.4438,15.2362,2.7769,25.4066-.6889,3.1142-1.0613,6.32-2.243,9.4871-3.4789l-6.0808-4.2425-6.4761-4.5181-13.2919-9.2733-1.3934-.9721-1.1937-.8328C385.9411,213.3719,381.8873,225.7,384.8809,229.0029Z" transform="translate(30.7622)"/><path class="e" d="M468.5619,279.4621c3.9422.2661,11.4365-3.7336,17.3116-8.5121l-12.1713-8.4914-23.4033-16.3278L433.465,234.3864l-1.5021-1.048-1.5513-1.0823C424.9432,242.7654,461.51,278.9861,468.5619,279.4621Z" transform="translate(30.7622)"/><path class="e" d="M491.3787,276.5925c-.9972,4.5564,14.4817,20.2631,17.81,18.14a22.4318,22.4318,0,0,0,4.2812-4.53l-2.9468-2.0559-6.6292-4.625-9.121-6.3634-1.4444-1.0077-1.2379-.8636A4.2584,4.2584,0,0,0,491.3787,276.5925Z" transform="translate(30.7622)"/><path class="e" d="M515.8407,307.6583c5.4158,10.7632,32.2914,38.4032,42.1516,41.4724,5.8974,1.8357,17.124-3.9678,25.4345-10.1209l-10.9345-7.6287-18.2968-12.765-31.4091-21.9132-2.0335-1.4186-1.7591-1.2273C516.1007,299.4351,514.4606,304.9154,515.8407,307.6583Z" transform="translate(30.7622)"/><path class="e" d="M598.4166,370.0734c4.1238,7.3218,16.395,24.1377,20.6664,23.308,2.896-.5624,13.2346-9.0209,19.1051-16.1665l-5.55-3.8724-4.4672-3.1166-20.2232-14.109-.855-.5966-1.1933-.8325C600.5862,360.5457,596.647,366.9315,598.4166,370.0734Z" transform="translate(30.7622)"/><path class="e" d="M584.4168,347.648c-2.2219,4.18,8.52,12.9291,11.848,10.8057a45.5746,45.5746,0,0,0,6.1338-6.2079l-3.42-2.3861-7.0869-4.9443-1.3589-.9481-.7868-.5489-1.19-.83A37.76,37.76,0,0,0,584.4168,347.648Z" transform="translate(30.7622)"/><path class="e" d="M527.2168,536.6021l1.5992-2.2922,1.4408-2.0652,9.083-13.019,1.2-1.72,1.293-1.8532c-5.41,1.15-10.2369,2.7987-11.4046,4.4725C528.7438,522.5392,526.669,529.6906,527.2168,536.6021Z" transform="translate(30.7622)"/><path class="e" d="M534.2632,447.1123c-5.4636,2.538-11.4229,11.08-11.6208,16.6566s20.9913,40.044,24.47,42.4709a7.8551,7.8551,0,0,0,.9194.5274l2.6988-3.8684,5.1151-7.3318,11.3666-16.2922,3.59-5.1453,1.6614-2.3813C560.3764,461.127,539.3135,444.7661,534.2632,447.1123Z" transform="translate(30.7622)"/><path class="e" d="M546.5243,427.6414c-2.8267,4.0516,14.0611,30.1293,19.3266,33.1678,2.1406,1.2352,7.3053,1.8524,12.824,2.0356l4.2893-6.1481,11.642-16.687.5849-.8385c-7.3273-5.5893-16.568-11.2577-19.8824-11.7671C569.4723,426.5071,549.802,422.9434,546.5243,427.6414Z" transform="translate(30.7622)"/><path class="e" d="M599.7471,432.641l1.2718-1.8229,1.1894-1.7049,10.0631-14.424,1.5776-2.2612.985-1.4118a12.0842,12.0842,0,0,0-2.0917.4341C603.593,414.3014,596.7821,427.7363,599.7471,432.641Z" transform="translate(30.7622)"/><path class="e" d="M478.3416,523.4587c.3122,3.7047,11.104,19.8115,15.7237,21.13,3.635,1.0372,18.6474,2.15,25.9228,2.3751l3.1724-4.5471c-2.2914-6.5866-8.0872-18.2745-10.546-20.4455C509.1868,518.9443,477.9435,518.7362,478.3416,523.4587Z" transform="translate(30.7622)"/><path class="e" d="M574.8772,468.034c.0276.0405.06.0847.089.1266l.8935-1.2806C574.954,467.1355,574.5259,467.5171,574.8772,468.034Z" transform="translate(30.7622)"/></g></g><path class="f" d="M481.18,464.725,423.11,368.24,245.5,332v89.7682L418.72,456.545l62.7187,100.62a9.8478,9.8478,0,0,0,13.38,3.2611l110.6431-65.6151V404.5554L495.5371,468.4505A10.5976,10.5976,0,0,1,481.18,464.725Z" transform="translate(30.7622)"/><path class="f" d="M493.791,504.095l111.6709-64.0762v20.3289L493.9405,526.32a8.7833,8.7833,0,0,1-11.9388-2.9342l-63.77-102.9429L245.5,384.2024V367.94L419.6954,403.855l62.3269,97.3574A8.7833,8.7833,0,0,0,493.791,504.095Z" transform="translate(30.7622)"/><line class="f" x1="282.8121" y1="333.681" x2="282.8121" y2="362.142"/><line class="f" x1="294.521" y1="336.1204" x2="294.521" y2="364.5814"/><line class="f" x1="308.6693" y1="339.0476" x2="308.6693" y2="367.5086"/><line class="f" x1="322.8175" y1="341.9748" x2="322.8175" y2="370.4358"/><line class="f" x1="336.9658" y1="344.9021" x2="336.9658" y2="373.363"/><line class="f" x1="351.114" y1="347.8293" x2="351.114" y2="376.2903"/><line class="f" x1="365.2623" y1="350.7565" x2="365.2623" y2="379.2175"/><line class="f" x1="379.4105" y1="353.6837" x2="379.4105" y2="382.1447"/><line class="f" x1="393.5588" y1="356.611" x2="393.5588" y2="385.0719"/><line class="f" x1="407.7071" y1="359.5382" x2="407.7071" y2="387.9992"/><line class="f" x1="421.8553" y1="362.4654" x2="421.8553" y2="390.9264"/><line class="f" x1="436.0036" y1="365.3926" x2="436.0036" y2="393.8536"/><line class="f" x1="450.1518" y1="368.3199" x2="450.1518" y2="396.7808"/><line class="f" x1="282.8121" y1="393.6891" x2="282.8121" y2="422.1501"/><line class="f" x1="294.521" y1="396.1285" x2="294.521" y2="424.5895"/><line class="f" x1="308.6693" y1="399.0557" x2="308.6693" y2="427.5167"/><line class="f" x1="322.8175" y1="401.9829" x2="322.8175" y2="430.4439"/><line class="f" x1="336.9658" y1="404.9102" x2="336.9658" y2="433.3711"/><line class="f" x1="351.114" y1="407.8374" x2="351.114" y2="436.2984"/><line class="f" x1="365.2623" y1="410.7646" x2="365.2623" y2="439.2256"/><line class="f" x1="379.4105" y1="413.6918" x2="379.4105" y2="442.1528"/><line class="f" x1="393.5588" y1="416.6191" x2="393.5588" y2="445.08"/><line class="f" x1="407.7071" y1="419.5463" x2="407.7071" y2="448.0073"/><line class="f" x1="421.8553" y1="422.4735" x2="421.8553" y2="450.9345"/><line class="f" x1="436.0036" y1="425.4007" x2="436.0036" y2="453.8617"/><line class="f" x1="450.1518" y1="428.328" x2="450.1518" y2="456.7889"/><line class="f" x1="459.9092" y1="443.452" x2="459.9092" y2="471.9129"/><line class="f" x1="459.9092" y1="381.9802" x2="459.9092" y2="410.4412"/><line class="f" x1="467.7151" y1="457.6002" x2="467.7151" y2="486.0612"/><line class="f" x1="467.7151" y1="396.1285" x2="467.7151" y2="424.5895"/><line class="f" x1="476.4968" y1="471.7485" x2="476.4968" y2="500.2094"/><line class="f" x1="476.4968" y1="410.2767" x2="476.4968" y2="438.7377"/><line class="f" x1="485.2785" y1="485.8967" x2="485.2785" y2="514.3577"/><line class="f" x1="485.2785" y1="425.4007" x2="485.2785" y2="453.8617"/><line class="f" x1="495.5238" y1="501.9964" x2="495.5238" y2="530.4574"/><line class="f" x1="495.5238" y1="439.549" x2="495.5238" y2="468.01"/><line class="f" x1="506.2569" y1="518.584" x2="506.2569" y2="547.045"/><line class="f" x1="506.2569" y1="457.6002" x2="506.2569" y2="486.0612"/><line class="f" x1="530.1626" y1="466.3819" x2="530.1626" y2="494.8428"/><line class="f" x1="545.2866" y1="457.6002" x2="545.2866" y2="486.0612"/><line class="f" x1="560.4106" y1="448.8185" x2="560.4106" y2="477.2795"/><line class="f" x1="575.5346" y1="440.0369" x2="575.5346" y2="468.4978"/><line class="f" x1="590.6586" y1="431.2552" x2="590.6586" y2="459.7162"/><line class="f" x1="605.7826" y1="422.4735" x2="605.7826" y2="450.9345"/><line class="f" x1="620.9066" y1="413.6918" x2="620.9066" y2="442.1528"/><line class="f" x1="635.3676" y1="405.5731" x2="635.3676" y2="434.0341"/><line class="f" x1="530.1626" y1="527.8536" x2="530.1626" y2="556.3146"/><line class="f" x1="545.2866" y1="519.0719" x2="545.2866" y2="547.5329"/><line class="f" x1="560.4106" y1="510.2902" x2="560.4106" y2="538.7512"/><line class="f" x1="575.5346" y1="501.5086" x2="575.5346" y2="529.9695"/><line class="f" x1="590.6586" y1="492.7269" x2="590.6586" y2="521.1879"/><line class="f" x1="605.7826" y1="483.9452" x2="605.7826" y2="512.4062"/><line class="f" x1="620.9066" y1="475.1636" x2="620.9066" y2="503.6245"/><line class="f" x1="635.3676" y1="467.0448" x2="635.3676" y2="495.5058"/><path class="f" d="M249.5405,333.1712l173.8139,35.3131,56.5378,94.668a12.6926,12.6926,0,0,0,17.2176,4.499l106.5681-61.1934a3.2339,3.2339,0,0,0-.9875-5.9778L427.2574,366.045l-60.4234-99.04A8.797,8.797,0,0,0,354.94,263.96L248.2619,325.2792A4.273,4.273,0,0,0,249.5405,333.1712Z" transform="translate(30.7622)"/><path class="f" d="M262.5117,329.1351l158.8538,38.6863,65.0552,88.6731a8.6192,8.6192,0,0,0,10.9582,1.8915l86.9342-49.5441a2.7866,2.7866,0,0,0-.7374-5.1083L425.2685,365.382l-60.61-88.9a8.797,8.797,0,0,0-11.34-2.6665L262.0522,325.323A2.0615,2.0615,0,0,0,262.5117,329.1351Z" transform="translate(30.7622)"/><path class="e" d="M357.4172,281.8372l49.9887,73.3215L281.73,324.5522l75.6876-42.715m82.7656,96.4183L566.226,408.7909l-73.0838,41.6506-52.9594-72.186M357.4743,272.7686a8.7654,8.7654,0,0,0-4.1557,1.0473L262.0522,325.323a2.0614,2.0614,0,0,0,.4595,3.8121l158.8538,38.6863,65.0552,88.6731a8.6178,8.6178,0,0,0,10.9582,1.8915l86.9341-49.5441a2.7865,2.7865,0,0,0-.7373-5.1083L425.2685,365.382l-60.61-88.9a8.7946,8.7946,0,0,0-7.1847-3.7137Z" transform="translate(30.7622)"/><text class="i" transform="translate(502.2319 195.082)">Material de<tspan x="-9.2656" y="39.5996">construccin</tspan></text><path class="j" d="M488.7222,37.4623S335.5117,9.5468,300.353,195.54" transform="translate(30.7622)"/><polygon class="k" points="325.68 192.723 329.618 204.021 337.435 194.962 325.68 192.723"/><path class="l" d="M656.76,3.4128a3.7694,3.7694,0,0,0-5.134-1.4253L626.3179,16.2962a3.7778,3.7778,0,0,0-1.2354,1.1235L589.2877,68.7162l-8.0494-19.2778,2.2467-1.1247a3.7674,3.7674,0,1,0-3.3728-6.7378C543.8918,59.7087,475.034,94.1725,473.3612,94.98a3.7675,3.7675,0,0,0,3.1954,6.8239c.14-.0648,1.8788-.9311,4.8175-2.3984,10.4989,2.9492,34.9354,8.7788,55.5471,5.9127L534.47,116.23a24.4471,24.4471,0,1,0,7.3487,1.6636l2.2085-9.8323c12.3075,3.2678,50.3427,13.3451,58.8617,15.351a12.856,12.856,0,0,0,14.5229-6.4114,14.5313,14.5313,0,0,0-2.4758-17.3281c-5.9653-5.87-19.3684-18.33-23.712-22.359l.9312-.4324a3.7687,3.7687,0,0,0,1.503-1.2609L630.772,22.4339,655.335,8.5468A3.7679,3.7679,0,0,0,656.76,3.4128ZM548.1216,133.436a16.8254,16.8254,0,1,1-15.332-9.7237l-2.0156,8.9732a8.1278,8.1278,0,1,0,7.3516,1.65l2.0149-8.97A16.7318,16.7318,0,0,1,548.1216,133.436Zm61.53-28.3925a6.8989,6.8989,0,0,1,1.1633,8.3168,5.321,5.321,0,0,1-6.2,2.7172c-7.51-1.7681-39.3862-10.1909-54.4676-14.1886a38.6017,38.6017,0,0,0,4.13-1.9863,280.8353,280.8353,0,0,0,29.913-18.97,3.7579,3.7579,0,0,0,.5524.6476C584.9221,81.7461,602.7136,98.2171,609.6518,105.0435Z" transform="translate(30.7622)"/><path class="e" d="M478.2466,89.0763c1.68-4.3068,2.6495-9.6668,4.5087-11.5652s4.8335-5.0416,5.3213-5.4088a2.3707,2.3707,0,0,0,.7361-1.1246c.54-1.498,1.6921-5.0909,3.242-6.6408s4.2678-3.7771,4.5281-4.1373l3.5036-4.8468c1.3718-1.8977-.5473-.8655,2.2976-6.4026s6.4676-5.5283,9.0951-5.5146a3.651,3.651,0,0,0,2.5119-.612,6.25,6.25,0,0,0,1.0911-1.9533c1.3132-2.5479,4.6383-3.119,7.4922-3.3877l19.4723-1.8334a15.9982,15.9982,0,0,1,3.5645-.0691,12.3429,12.3429,0,0,1,2.7081.7332,26.9934,26.9934,0,0,1,4.6059,2.2414c1.5624.9536,3.6144,2.0647,5.0442.9219.3573-.2857,2.981-1.205,3.9227-.814a21.9885,21.9885,0,0,1,7.0669,4.7165" transform="translate(30.7622)"/><path class="b" d="M417.1465,370.7685a3.2319,3.2319,0,0,0-2.3928-4.2951l-175.237-35.4177-59.8676-99.3769a8.7969,8.7969,0,0,0-11.8762-3.1118l-107.0206,60.72a4.2766,4.2766,0,0,0-.3357,7.2226l-2.4638-.5172L57.45,385.76l173.022,35.7468,62.1538,100.97a9.8479,9.8479,0,0,0,13.3621,3.336l111.0091-64.9939.5058-90.2547ZM235.49,333.45l.1106.0231,12.4111,21.0489Zm71.7319,100.3922a10.5936,10.5936,0,0,1-13.8434-3.0632,12.6889,12.6889,0,0,0,14.1,2.9158Z" transform="translate(30.7622)"/><path class="b" d="M61.1243,297.0062,233.8961,333.117a3.94,3.94,0,0,1,2.588,1.8556l53.5724,90.8554a15.7967,15.7967,0,0,0,21.3965,5.7193l102.61-58.1583a3.94,3.94,0,0,0-1.1623-7.29l-171.6844-34.7a3.94,3.94,0,0,1-2.5945-1.8289L181.63,234.967a12.7372,12.7372,0,0,0-17.1959-4.5057L59.986,289.7222A3.94,3.94,0,0,0,61.1243,297.0062Z" transform="translate(30.7622)"/><g class="c"><g class="m"><path class="e" d="M67.2323,351.2381c-.0533-3.8625-9.9213-30.7525-13.3446-34.9208-2.7318-3.3266-10.9646-5.1732-18.1928-5.6724l-.5526.7826-.4807.6809L27.42,322.3646l-.8047,1.14-1.0884,1.5415c1.724,7.127,4.2955,16.203,7.0778,24.691l2.7714,1.9568,3.0009,2.1187,8.2207,5.8041,9.5651,6.7532C61.9262,360.421,67.2643,353.5538,67.2323,351.2381Z" transform="translate(30.7622)"/><path class="e" d="M95.2826,312.9214c2.721-2.5412-13.0621-36.6338-17.0735-38.8285-2.2647-1.239-10.2623-.6334-17.2846.8176l-1.3033,1.846-1.21,1.7133-9.1557,12.9679-1.4524,2.0571-1.612,2.2831c.3015,4.0941,1.5224,8.1093,4.2959,11.0158C56.6549,313.2571,92.5615,315.4626,95.2826,312.9214Z" transform="translate(30.7622)"/><path class="e" d="M63.9123,322.1745c.068,4.92,9.5622,27.1506,17.921,33.69s44.6373,16.8533,47.9591,13.4613c1.2187-1.2445,8.41-11.9117,5.6-15.8081-8.3574-11.5884-28.2175-28.21-31.35-30.4216C99.094,319.6023,63.8233,315.7369,63.9123,322.1745Z" transform="translate(30.7622)"/><path class="e" d="M93.3136,279.35c-5.2.036,9.6513,33.5882,13.6983,38.358s25.7838,26.4915,31.633,28.7087c3.4244,1.298,15.85-5.3839,18.2528-8.7872,1.5018-2.1271,2.8612-14.5543.97-18.44C155.6186,314.5692,115.6668,279.1952,93.3136,279.35Z" transform="translate(30.7622)"/><path class="e" d="M105.8315,370.1385c-12.2406-2.8523-29.4929-6.9962-33.7867-7.28-2.8878-.191-6.4085,3.2729-9.5024,8.0151l1.189.8395,1.3879.98,13.24,9.3477L84.81,386.595l6.057,4.2765c13.9573-5.3567,27.1729-11.77,28.5365-13.7009C122.7071,372.491,116.31,372.58,105.8315,370.1385Z" transform="translate(30.7622)"/><path class="e" d="M165.1088,426.3485c.2114-6.863-24.26-46.0459-31.5818-47.1594-9.2064-1.4-30.9008,16.9617-32.0628,19.1582l-.0023.0047,1.5452,1.091,1.4962,1.0564,16.768,11.8387,23.3113,16.4585,12.1234,8.56C161.3635,433.6111,165.0155,429.3757,165.1088,426.3485Z" transform="translate(30.7622)"/><path class="e" d="M197.8342,344.1c-6.8818,1.0462-5.9873,32.8127-3.6713,45.285,1.76,9.48,7.4672,8.09,20.0394,9.6861,18.7134,2.3751,31.4849,4.1293,31.56,1.2452.1943-7.4977-19.1639-47.3775-26.2089-51.517C216.4315,346.9656,206.8434,342.7307,197.8342,344.1Z" transform="translate(30.7622)"/><path class="e" d="M140.5767,363.0418c-2.9859,5.5417,2.0512,15.4728,7.3353,21.116,4.2075,4.4935,18.4908,10.1711,34.7767,12.4413,10.1252,1.4115,1.5576-45.2577-2.475-47.5566a32.2525,32.2525,0,0,0-15.6952-4.1583C159.3927,344.8214,143.5625,357.5,140.5767,363.0418Z" transform="translate(30.7622)"/><path class="e" d="M159.0982,397.7657c-1.484,3.4146,12.552,30.305,16.6841,32.8162,6.4854,3.9416,20.64,8.8353,25.5348,8.4662s-5.3041-29.244-9.9517-33.1629S160.5822,394.3511,159.0982,397.7657Z" transform="translate(30.7622)"/><path class="e" d="M263.8768,423.7943c2.0047-3.2212-6.7545-11.5034-9.3665-12.9878-4.63-2.6315-43.0714-6.0815-48.7713-5.7475s-.0717,27.17,5.9759,33.5432c6.266,6.6032,25.1666,15.1,33.0319,15.5681C249.9633,454.4812,256.9864,434.8665,263.8768,423.7943Z" transform="translate(30.7622)"/><path class="e" d="M191.2652,442.5279c-.8817-1.6946-15.9444-8.4047-19.403-7.9618-2.5089.3214-7.1647,4.6754-8.9639,7.162l1.2329.87,1.4388,1.0158,9.0852,6.4144,6.6032,4.6621,2.9352,2.0724C188.046,451.85,192.3589,444.63,191.2652,442.5279Z" transform="translate(30.7622)"/><path class="e" d="M264.237,495.3536c1.148-5.5643-11.8688-25.37-17.2848-31.9655-2.4918-3.0343-36.3853-18.04-43.7183-16.842-4.1012.67-9.8279,7.2981-13.5376,14.1023l1.7523,1.2371,2.0254,1.43L224.76,485.4044l18.2249,12.8673,10.8916,7.69C259.4838,501.8583,263.7757,497.59,264.237,495.3536Z" transform="translate(30.7622)"/><path class="e" d="M98.7522,272.5334c4.2406-3.3807,5.21-29.62-.7985-35.625-1.506-1.505-3.6335-3.49-6.1531-5.73l-1.6747,2.3719-3.6185,5.1251L75.05,254.904l-5.1561,7.3029L67.1731,266.06C72.8089,268.9433,94.7827,275.6981,98.7522,272.5334Z" transform="translate(30.7622)"/><path class="e" d="M107.4045,272.9976c4.5018,5.69,22.62,19.1579,26.8963,18.3522s4.2384-25.6941,2.6477-30.0046-22.0136-19.4556-25.0408-17.042C107.6672,247.6839,103.9759,268.6645,107.4045,272.9976Z" transform="translate(30.7622)"/><path class="e" d="M142.0105,293.16c.7277,4.6564,13.0955,16.8955,16.8065,19.5156s25.2521,10.1791,31.3483,8.1084c5.4526-1.8521,17.9835-7.0385,16.0613-12.247-1.9089-5.1726-30.3091-43.711-37.0771-45.9394s-20.1618,3.6145-22.8827,6.1559C142.979,271.8243,141.0026,286.7114,142.0105,293.16Z" transform="translate(30.7622)"/><path class="e" d="M169.9309,322.9732c-3.3573.817-4.1694,8.5309-4.4164,12.8188-.2076,3.6053,19.1382,10.9623,22.1951,10.5707s2.8614-14.5543.988-17.1519C187.589,327.6736,173.2883,322.1563,169.9309,322.9732Z" transform="translate(30.7622)"/><path class="e" d="M225.2142,340.0916c3.9759-.38,3.7445-17.1182-1.8221-21.0484-4.5027-3.1791-23.2542,1.4312-26.8585,6.5362-2.4028,3.4034.4249,8.5872,4.7367,10.3566S218.7316,340.7117,225.2142,340.0916Z" transform="translate(30.7622)"/><path class="e" d="M214.7242,270.1541c-5.2485-3.0681-27.319-4.6262-29.4216-1.6482s25.4914,38.3971,30.5917,41.9981c4.33,3.0568,23.3077,2.4313,24.173-1.42S219.9726,273.2222,214.7242,270.1541Z" transform="translate(30.7622)"/><path class="e" d="M291.2946,359.4843c1.7309-7.7026-19.7587-33.7122-26.8451-36.8029s-26.4178-5.9023-29.1388-3.3611-3.7621,30.4393-3.195,34.718c1.0256,7.7364,15.0043,22.0683,20.8536,24.2855S289.5637,367.1869,291.2946,359.4843Z" transform="translate(30.7622)"/><path class="e" d="M281.462,379.1721c-7.0684-1.8032-23.8016,6.1445-26.8231,9.1111s4.6588,18.3526,7.6713,23.2657c3.4463,5.6206,47.5874,8.7366,46.9156,4.4373S288.53,380.9751,281.462,379.1721Z" transform="translate(30.7622)"/><path class="e" d="M115.6888,234.7917c1.0546,4.8564,22.0371,21.2963,27.5859,23.9389s15.6031-1.0961,17.37-6.2236-22.1974-32.8838-27.11-33.8023S114.3807,228.7683,115.6888,234.7917Z" transform="translate(30.7622)"/><path class="e" d="M116.1909,221.0113c2.94-2.3441,8.163-7.6237,8.41-11.9116.1067-1.8529-4.3382-6.0855-9.89-10.37l-.59.8351-11.7353,16.6215L98.062,222.31C106.1177,222.6229,114.9324,222.0146,116.1909,221.0113Z" transform="translate(30.7622)"/><path class="e" d="M180.68,209.5073c-7.6869-2.24-31.86-.82-33.9626,2.158s17.3382,35.828,25.0963,43.2179c6.1779,5.8848,27.973,7.6379,34.0693,5.5672s8.0741-14.0614,8.3032-19.6369S188.3665,211.7471,180.68,209.5073Z" transform="translate(30.7622)"/><path class="e" d="M173.857,200.3655c1.82-1.265.3693-17.5887-4.2605-20.22-4.3171-2.4536-24.6887-10.6988-35.0854-9.46l-.9931,1.4066-1.59,2.2522L121.7841,188.711l-1.1991,1.6983-1.2819,1.8157a3.6638,3.6638,0,0,0,.306.4386c5.3109,6.5137,23.83,11.1908,26.7353,11.2264C150.9388,203.9462,169.4209,203.4488,173.857,200.3655Z" transform="translate(30.7622)"/><path class="e" d="M141.3758,217.8033c2.4563.4592-.4249-8.5873-2.5984-10.76s-7.6692-.9523-8.2521,1.1862C129.7256,211.1638,136.0551,216.8086,141.3758,217.8033Z" transform="translate(30.7622)"/><path class="e" d="M293.7285,509.5244c-2.99-.7326-11.178,5.3832-17.4682,12.2409l1.1886.8392.8517.6013,20.1437,14.2221,4.45,3.1417,5.5288,3.9035c2.8079-3.379,4.606-6.4674,4.1109-8.2846C309.9529,526.7166,299.3857,510.91,293.7285,509.5244Z" transform="translate(30.7622)"/><path class="e" d="M195.9462,202.8247c-1.44,2.039-.394,8.8885,1.3158,12.7146,1.9948,4.464,24.0259,22.2011,28.568,24.0983s6.44-2.8735,8.0854-5.204-18.5671-25.7675-21.226-27.2082C207.9676,204.6669,197.3859,200.7855,195.9462,202.8247Z" transform="translate(30.7622)"/><path class="e" d="M298.59,424.4323c-4.6123-1.344-21.47-2.4089-25.41.5465s-14.6463,25.9955-18.551,31.526,14.225,29.5133,15.73,30.23c5.5487,2.6426,31.5751-19.7806,34.5787-24.0348S303.2016,425.7761,298.59,424.4323Z" transform="translate(30.7622)"/><path class="e" d="M287.0652,499.1239c.1121-1.9468-7.1124-6.91-11.0977-5.2853-2.4151.9847-11.4924,9.77-16.9818,15.73l1.185.8366.7837.5533,1.3535.9557,7.0591,4.9839,3.4068,2.4053C278.861,512.4354,286.8952,502.073,287.0652,499.1239Z" transform="translate(30.7622)"/><path class="e" d="M177.1657,173.22c-1.0256-7.7364-9.1386-30.4047-14.1923-29.782-2.6415.3254-18.1638,15.2248-13.4983,20.4313C154.61,169.5991,177.6377,176.78,177.1657,173.22Z" transform="translate(30.7622)"/><path class="e" d="M42.7355,306.0886c.6042-.1139.2551-1.9195-.633-4.5193l-3.1977,4.5292A27.5922,27.5922,0,0,0,42.7355,306.0886Z" transform="translate(30.7622)"/><path class="e" d="M313.4846,446.6255c-.5474,4.7133-3.9382,25.2685.1089,30.0383s16.4136,4.8136,19.3495,4.0993c3.3574-.8171,16.7866-4.0852,18.8891-7.0631s-11.311-20.7355-13.8029-23.77C333.402,444.2958,314.032,441.9121,313.4846,446.6255Z" transform="translate(30.7622)"/><path class="e" d="M297.6631,478.34c1.1343,2.18,9.8427,3.1245,10.7438,1.8482s-1.0079-6.4488-3.1816-8.621S296.09,475.3174,297.6631,478.34Z" transform="translate(30.7622)"/><path class="e" d="M328.2894,419.1049c-1.0087-4.27-15.585,2.3835-19.225,4.9134s3.8355,11.6328,9.7024,15.1375S329.9157,425.9905,328.2894,419.1049Z" transform="translate(30.7622)"/><path class="e" d="M191.092,182.6432c-1.5729-3.023-11.08-3.9979-12.5816-1.8708s1.4683,17.6111,2.7232,19.7721c2.51,4.3217,8.6591,6.1137,9.8605,4.412S192.6649,185.6663,191.092,182.6432Z" transform="translate(30.7622)"/><path class="e" d="M232.8285,198.7229c-3.7111-2.62-14.0834.2563-14.6485,3.6822-.4812,2.917,16.5595,23.8037,19.97,26.8493s8.7282-11.05,8.7282-11.05S236.5394,201.3429,232.8285,198.7229Z" transform="translate(30.7622)"/><path class="e" d="M237.216,245.034c-.2146,5.2193,26.4735,32.0783,30.7852,33.8476s11.5893-25.604,11.2535-27.7536-19.8457-17.8366-25.0763-19.6172S237.4451,239.4585,237.216,245.034Z" transform="translate(30.7622)"/><path class="e" d="M232.8411,251.9525c-3.6933-1.3325-15.8857,2.8089-14.5951,7.5448.5314,1.9506,9.097,18.2347,13.8207,25.0574,4.3975,6.3515,11.4044,9.1764,14.8442,10.48,4.7922,1.8166,9.3468-10.613,10.2121-14.4642S236.5344,253.285,232.8411,251.9525Z" transform="translate(30.7622)"/><path class="e" d="M299.1736,327.053c3.057-.3914,9.5936-14.9009,5.8469-20.0959s-27.25-21.7894-32.1625-22.7078-12.74,8.8548-14.5239,12.6948,2.0155,12.8976,4.5252,17.2195C265.393,318.5267,296.1166,327.4446,299.1736,327.053Z" transform="translate(30.7622)"/><path class="e" d="M246.9257,312.2826c3.7622,2.6562,7.9872,1.8144,9.489-.3127s-2.8812-9.0464-5.3553-10.7932S243.2146,309.6624,246.9257,312.2826Z" transform="translate(30.7622)"/><path class="e" d="M339.6914,381.9574c-4.6477-3.9191-35.184-19.7413-39.7784-19.7977s-11.1667,11.8779-10.5125,14.89c.9433,4.3435,24.9539,32.9177,30.4673,32.9855S344.339,385.8763,339.6914,381.9574Z" transform="translate(30.7622)"/><path class="e" d="M349.427,347.8638c-1.5905-4.3106-24.28-6.3052-28.5738-6.7872s-22.8294,10.0185-20.0194,13.9149,26.26,16.6279,32.0913,17.5576S351.0178,352.1743,349.427,347.8638Z" transform="translate(30.7622)"/><path class="e" d="M311.8694,336.2973c-4.3735-3.0878-29.6817-10.3181-30.73-7.6717-1.1837,2.9893,10.6571,17.7239,13.1132,18.1831S314.3434,338.0441,311.8694,336.2973Z" transform="translate(30.7622)"/><path class="e" d="M338.7888,398.6191c.0509,3.6869,16.7,11.7906,20.3573,10.5481s-5.4264-15.9434-9.4378-18.1381S338.7532,396.0441,338.7888,398.6191Z" transform="translate(30.7622)"/><path class="e" d="M362.2129,383.644c3.9759-.38,35.0216-14.16,34.65-18.8845s-37.2507-14.1882-38.7348-10.7735S344.63,374.4174,346.2028,377.44C348.0373,380.9656,358.237,384.0243,362.2129,383.644Z" transform="translate(30.7622)"/><path class="e" d="M402.4639,374.89c-3.3752-.47-28.6963,6.5136-26.2045,9.5478,2.3134,2.8172,24.6514,11.03,27.0721,8.9142S405.8389,375.36,402.4639,374.89Z" transform="translate(30.7622)"/><path class="e" d="M314.5234,308.5534c-2.241,2.99-4.417,12.7851-4.3631,16.6814.0356,2.5751,9.3132,9.1253,14.2436,11.3314s23.944,4.1556,29.4394,2.9357,9.8405-19.189,9.8049-21.7639-22.92-18.7326-26.3133-20.49C335.45,296.2705,316.3611,306.1017,314.5234,308.5534Z" transform="translate(30.7622)"/><path class="e" d="M319.7905,270.4665c-2.4918-3.0343-19.2628-19.975-25.3766-19.1916s-16.1837,25.5474-14.9112,28.9958c1.3118,3.5547,22.9384,20.02,28.4694,21.3753s18.889-7.0632,20.0727-10.0523S322.2825,273.5008,319.7905,270.4665Z" transform="translate(30.7622)"/><path class="e" d="M398.5656,358.13c4.8947-.369,4.592-22.2569,4.2384-25.6941s-10.2677-11.7116-14.5617-12.1935S364.2471,334.5379,363.7,339.2514c-.39,3.3556,2.8813,9.0464,5.6557,10.3677S393.6709,358.5,398.5656,358.13Z" transform="translate(30.7622)"/><path class="e" d="M404.8751,364.1454c-1.096,4.8772,3.5,9.4831,6.5745,10.379s15.5318-6.246,17.0336-8.3731-16.1347-15.2162-18.8914-15.25S405.7406,360.294,404.8751,364.1454Z" transform="translate(30.7622)"/><path class="e" d="M109.8019,228.2689c-1.4723-2.0414-11.248-2.8591-14.5776-1.94l-.9007,1.2757c2.2323,3.2323,9.5326,10.4822,12.8819,12.2177C110.5983,241.5808,111.6753,230.8664,109.8019,228.2689Z" transform="translate(30.7622)"/><path class="e" d="M315.8389,518.4751c-.5619.7957.3143,5.9305,2.0155,12.9632l1.0885-1.5416.8047-1.14,7.2412-10.2561.4807-.6809.5526-.7827C322.0644,516.6258,316.7888,517.13,315.8389,518.4751Z" transform="translate(30.7622)"/><path class="e" d="M187.4763,174.365c2.7556-1.5224,6.7953-5.0867,10.6455-9.0608l-9.565-6.7532-11.2217-7.9228-2.7714-1.9567C179.31,163.1508,184.6683,175.9165,187.4763,174.365Z" transform="translate(30.7622)"/><path class="e" d="M197.9087,193.7782c5.8038,6.4765,15.22,2.8623,25.41-.5465,3.12-1.0438,6.3325-2.2075,9.5065-3.4257l-6.057-4.2764-6.4506-4.5544-13.24-9.3476-1.388-.98-1.189-.8395C199.0565,178.1534,194.9338,190.4584,197.9087,193.7782Z" transform="translate(30.7622)"/><path class="e" d="M281.3057,244.7056c3.9406.2882,11.4572-3.6694,17.359-8.4149l-12.1235-8.5595L263.23,211.2725l-16.7679-11.8386-1.4962-1.0564-1.5452-1.0909C237.8933,207.765,274.2561,244.19,281.3057,244.7056Z" transform="translate(30.7622)"/><path class="e" d="M304.1381,241.9639c-1.0227,4.5507,14.368,20.344,17.7077,18.2394a22.4365,22.4365,0,0,0,4.3065-4.5055l-2.9353-2.0724-6.6032-4.662-9.0851-6.4144-1.4388-1.0158-1.233-.8706A4.2605,4.2605,0,0,0,304.1381,241.9639Z" transform="translate(30.7622)"/><path class="e" d="M328.4257,273.1663c5.3554,10.7934,32.0756,38.5836,41.9185,41.708,5.887,1.8687,17.146-3.8718,25.4909-9.9782l-10.8917-7.69-18.2249-12.8674L335.4326,262.25l-2.0254-1.43-1.7523-1.2372C328.7318,264.9447,327.061,270.4157,328.4257,273.1663Z" transform="translate(30.7622)"/><path class="e" d="M410.6505,336.0433c4.0827,7.3448,16.26,24.2291,20.5355,23.4234,2.8991-.5462,13.2849-8.9466,19.1953-16.0592l-5.5286-3.9034-4.45-3.1416L420.2592,322.14l-.8517-.6013-1.1886-.8392C412.8734,326.5278,408.8986,332.8915,410.6505,336.0433Z" transform="translate(30.7622)"/><path class="e" d="M396.7766,313.54c-2.2453,4.1675,8.4476,12.9767,11.7872,10.8719a45.5587,45.5587,0,0,0,6.1686-6.1734l-3.4067-2.4052-7.0591-4.984-1.3536-.9556-.7837-.5533-1.185-.8367A37.7674,37.7674,0,0,0,396.7766,313.54Z" transform="translate(30.7622)"/><path class="e" d="M338.5186,502.17l1.612-2.2832,1.4524-2.0571,9.1558-12.9679,1.21-1.7133,1.3033-1.846c-5.4162,1.1192-10.2523,2.7413-11.4294,4.4085C340.1243,488.1162,338.01,495.2559,338.5186,502.17Z" transform="translate(30.7622)"/><path class="e" d="M346.0663,412.7214c-5.4776,2.5074-11.4847,11.0156-11.7139,16.5912s20.7666,40.161,24.2316,42.6074a7.8707,7.8707,0,0,0,.9163.5325l2.7205-3.8532,5.1561-7.303,11.4577-16.2283,3.6185-5.1251,1.6747-2.3719C372.1006,426.8823,351.13,410.4036,346.0663,412.7214Z" transform="translate(30.7622)"/><path class="e" d="M358.4364,393.32c-2.8493,4.0357,13.892,30.2077,19.14,33.2756,2.1336,1.2472,7.2949,1.8933,12.8124,2.1074l4.3237-6.124,11.7353-16.6214.59-.8352c-7.296-5.63-16.5047-11.35-19.8162-11.8784C381.39,392.3138,361.74,388.64,358.4364,393.32Z" transform="translate(30.7622)"/><path class="e" d="M411.63,398.6173l1.282-1.8158,1.199-1.6981,10.1438-14.3674,1.59-2.2523.9929-1.4063a12.0771,12.0771,0,0,0-2.0941.4224C415.579,380.3,408.6929,393.6961,411.63,398.6173Z" transform="translate(30.7622)"/><path class="e" d="M289.7178,488.7532c.2914,3.7064,10.9928,19.8734,15.6051,21.2173,3.6291,1.0575,18.635,2.2544,25.9091,2.52l3.1978-4.5292c-2.2545-6.5994-7.9847-18.32-10.4313-20.5043C320.5878,484.4118,289.3462,484.0285,289.7178,488.7532Z" transform="translate(30.7622)"/><path class="e" d="M386.5625,433.87c.0274.0406.0592.085.0883.1271l.9006-1.2757C386.6443,432.9723,386.2141,433.3515,386.5625,433.87Z" transform="translate(30.7622)"/></g></g><path class="f" d="M292.8852,430.0363l-57.5278-96.8086L57.9528,295.9928,57.45,385.76l173.022,35.7468,62.1539,100.97a9.8478,9.8478,0,0,0,13.3619,3.3361l111.0092-64.994.5058-90.2547-110.2812,63.278A10.5977,10.5977,0,0,1,292.8852,430.0363Z" transform="translate(30.7622)"/><path class="f" d="M305.2755,469.4764,417.3037,406.027l-.1139,20.3286L305.3,491.7016a8.7833,8.7833,0,0,1-11.9221-3.0011L230.1862,385.4018,57.66,348.1942l.0911-16.2621,173.9914,36.8906,61.78,97.7052A8.7834,8.7834,0,0,0,305.2755,469.4764Z" transform="translate(30.7622)"/><line class="f" x1="95.2555" y1="297.7103" x2="95.0959" y2="326.1709"/><line class="f" x1="106.9505" y1="300.2153" x2="106.791" y2="328.6758"/><line class="f" x1="121.0821" y1="303.2217" x2="120.9226" y2="331.6823"/><line class="f" x1="135.2137" y1="306.2282" x2="135.0542" y2="334.6887"/><line class="f" x1="149.3454" y1="309.2347" x2="149.1859" y2="337.6952"/><line class="f" x1="163.477" y1="312.2411" x2="163.3175" y2="340.7017"/><line class="f" x1="177.6086" y1="315.2476" x2="177.4491" y2="343.7081"/><line class="f" x1="191.7402" y1="318.2541" x2="191.5807" y2="346.7146"/><line class="f" x1="205.8719" y1="321.2606" x2="205.7124" y2="349.7211"/><line class="f" x1="220.0035" y1="324.267" x2="219.844" y2="352.7275"/><line class="f" x1="234.1351" y1="327.2735" x2="233.9756" y2="355.734"/><line class="f" x1="248.2667" y1="330.28" x2="248.1072" y2="358.7405"/><line class="f" x1="262.3984" y1="333.2864" x2="262.2389" y2="361.7469"/><line class="f" x1="94.9192" y1="357.7175" x2="94.7597" y2="386.178"/><line class="f" x1="106.6142" y1="360.2224" x2="106.4547" y2="388.6829"/><line class="f" x1="120.7458" y1="363.2289" x2="120.5863" y2="391.6894"/><line class="f" x1="134.8774" y1="366.2354" x2="134.7179" y2="394.6959"/><line class="f" x1="149.0091" y1="369.2418" x2="148.8496" y2="397.7024"/><line class="f" x1="163.1407" y1="372.2483" x2="162.9812" y2="400.7088"/><line class="f" x1="177.2723" y1="375.2548" x2="177.1128" y2="403.7153"/><line class="f" x1="191.4039" y1="378.2612" x2="191.2444" y2="406.7218"/><line class="f" x1="205.5356" y1="381.2677" x2="205.3761" y2="409.7282"/><line class="f" x1="219.6672" y1="384.2742" x2="219.5077" y2="412.7347"/><line class="f" x1="233.7988" y1="387.2806" x2="233.6393" y2="415.7412"/><line class="f" x1="247.9304" y1="390.2871" x2="247.7709" y2="418.7476"/><line class="f" x1="262.0621" y1="393.2936" x2="261.9026" y2="421.7541"/><line class="f" x1="271.7346" y1="408.472" x2="271.5751" y2="436.9325"/><line class="f" x1="272.0791" y1="347.0013" x2="271.9196" y2="375.4618"/><line class="f" x1="279.4611" y1="422.6638" x2="279.3016" y2="451.1243"/><line class="f" x1="279.8056" y1="361.193" x2="279.6461" y2="389.6536"/><line class="f" x1="288.1633" y1="436.861" x2="288.0038" y2="465.3215"/><line class="f" x1="288.5078" y1="375.3903" x2="288.3483" y2="403.8508"/><line class="f" x1="296.8656" y1="451.0583" x2="296.7061" y2="479.5188"/><line class="f" x1="297.2046" y1="390.5633" x2="297.0451" y2="419.0238"/><line class="f" x1="307.0205" y1="467.2152" x2="306.861" y2="495.6757"/><line class="f" x1="307.3704" y1="404.7687" x2="307.2109" y2="433.2292"/><line class="f" x1="317.6605" y1="483.8627" x2="317.501" y2="512.3232"/><line class="f" x1="318.0023" y1="422.8798" x2="317.8428" y2="451.3403"/><line class="f" x1="341.8583" y1="431.7953" x2="341.6988" y2="460.2558"/><line class="f" x1="357.0313" y1="423.0985" x2="356.8718" y2="451.559"/><line class="f" x1="372.2043" y1="414.4017" x2="372.0448" y2="442.8623"/><line class="f" x1="387.3772" y1="405.705" x2="387.2177" y2="434.1655"/><line class="f" x1="402.5502" y1="397.0082" x2="402.3907" y2="425.4687"/><line class="f" x1="417.7232" y1="388.3114" x2="417.5637" y2="416.7719"/><line class="f" x1="432.8962" y1="379.6146" x2="432.7367" y2="408.0751"/><line class="f" x1="447.4025" y1="371.5771" x2="447.243" y2="400.0376"/><line class="f" x1="341.5138" y1="493.266" x2="341.3543" y2="521.7266"/><line class="f" x1="356.6868" y1="484.5693" x2="356.5273" y2="513.0298"/><line class="f" x1="371.8598" y1="475.8725" x2="371.7003" y2="504.333"/><line class="f" x1="387.0327" y1="467.1757" x2="386.8732" y2="495.6362"/><line class="f" x1="402.2057" y1="458.4789" x2="402.0462" y2="486.9394"/><line class="f" x1="417.3787" y1="449.7821" x2="417.2192" y2="478.2427"/><line class="f" x1="432.5517" y1="441.0854" x2="432.3922" y2="469.5459"/><line class="f" x1="447.058" y1="433.0478" x2="446.8985" y2="461.5083"/><path class="f" d="M61.9867,297.1865,235.6,333.4731l56.0063,94.9833a12.6927,12.6927,0,0,0,17.1922,4.5954l106.9093-60.5952a3.2339,3.2339,0,0,0-.9539-5.9832L239.5165,331.0557l-59.8673-99.3769a8.7971,8.7971,0,0,0-11.8764-3.1118l-107.02,60.72A4.273,4.273,0,0,0,61.9867,297.1865Z" transform="translate(30.7622)"/><path class="f" d="M74.98,293.2231,233.6148,332.799l64.5572,89.0363a8.6192,8.6192,0,0,0,10.9475,1.9529l87.21-49.0561a2.7866,2.7866,0,0,0-.7087-5.1124l-158.09-39.2381-60.11-89.238a8.7971,8.7971,0,0,0-11.3253-2.73L74.5422,289.4085A2.0614,2.0614,0,0,0,74.98,293.2231Z" transform="translate(30.7622)"/><path class="e" d="M170.1493,246.4579l49.5769,73.6L94.2235,288.748l75.9258-42.29m82.2241,96.8806,125.87,31.2411L304.9273,415.82l-52.5539-72.4816M170.2082,237.39a8.7664,8.7664,0,0,0-4.1124,1.0242L74.5422,289.4084a2.0615,2.0615,0,0,0,.4381,3.8147L233.6149,332.799l64.5571,89.0363a8.6175,8.6175,0,0,0,10.9475,1.9529l87.21-49.0561a2.7865,2.7865,0,0,0-.7087-5.1123l-158.09-39.2382-60.11-89.2379a8.7947,8.7947,0,0,0-7.2129-3.7542Z" transform="translate(30.7622)"/><rect class="n" x="664.4485" y="256.4884" width="69.884" height="128.4518" rx="4.7195" transform="translate(409.4384 1020.1048) rotate(-90)"/><path class="o" d="M639.5333,292.9824v15.7021a2.0819,2.0819,0,0,0,2.0819,2.0818h0a2.4272,2.4272,0,0,1,2.4271,2.4272v15.0416a2.4273,2.4273,0,0,1-2.4273,2.4272h0a2.0819,2.0819,0,0,0-2.0819,2.0819v15.7019a4.1423,4.1423,0,0,0,4.1422,4.1422h111.43a4.1422,4.1422,0,0,0,4.1422-4.1422V292.9825a4.1422,4.1422,0,0,0-4.1422-4.1422h-111.43A4.1421,4.1421,0,0,0,639.5333,292.9824Z" transform="translate(30.7622)"/><path d="M714.32,296.6044c.148.0319.2953.0679.4441.095a6.07,6.07,0,0,1,4.2495,3.2064,5.7791,5.7791,0,0,1,.59,1.9077,6.435,6.435,0,0,1,.03,1.4157,5.803,5.803,0,0,1-.77,2.4071,6.0175,6.0175,0,0,1-2.9233,2.5827,5.4094,5.4094,0,0,1-1.7132.4312.967.967,0,0,0-.108.0216c-.0038.0832-.01.1588-.01.2345q0,3.448.0019,6.8962,0,4.688-.0024,9.3759c0,2.0749.0087,4.15-.0024,6.2247a7.7836,7.7836,0,0,1-1.6764,4.9248,7.6983,7.6983,0,0,1-4.608,2.86,7.3152,7.3152,0,0,1-1.4816.1547q-8.1361-.0051-16.2724-.0022-2.8413,0-5.6825-.0023a6.5648,6.5648,0,0,1-1.7731-.2823,7.7317,7.7317,0,0,1-3.7466-2.3515,7.5016,7.5016,0,0,1-1.6441-2.9734,12.4974,12.4974,0,0,1-.2621-1.2558,11.1749,11.1749,0,0,1-.0514-1.9062q-.008-6.7155-.0016-13.4312,0-3.6549-.0023-7.31a7.3758,7.3758,0,0,1,.4365-2.4449,7.5687,7.5687,0,0,1,1.42-2.4648,7.9859,7.9859,0,0,1,2.07-1.727,8.0852,8.0852,0,0,1,2.65-.9467,5.6059,5.6059,0,0,1,.6655-.0674c1.5131-.0859,3.0277-.0312,4.5416-.0384,1.9027-.009,3.8054-.0044,5.7082-.0043q4.3779,0,8.7559.0023,2.0792,0,4.1584,0h.2479c.0657-.3468.1125-.6769.1922-.9989a5.9373,5.9373,0,0,1,1.1391-2.288,6.0256,6.0256,0,0,1,2.3353-1.78,5.2621,5.2621,0,0,1,1.5828-.4252.5167.5167,0,0,0,.1159-.0407Zm-6.7555,6.3114H697.4919q-6.3676,0-12.7352.0024a6.5541,6.5541,0,0,0-.9251.0569,7.3235,7.3235,0,0,0-2.0193.5835,7.137,7.137,0,0,0-3.7609,4.1407,7.5879,7.5879,0,0,0-.3986,2.5025q-.0039,5.2956-.0011,10.5913c0,2.3335-.005,4.667,0,7.0005.0029,1.3508.0221,2.7017.0316,4.0525a5.6079,5.6079,0,0,0,.1667,1.2473,7.1076,7.1076,0,0,0,6.9381,5.4965c2.6176.0167,5.2353.0048,7.853.005,3.1,0,6.2.007,9.3-.0019,1.5658-.0045,3.1319.0389,4.6975-.03a6.8123,6.8123,0,0,0,1.7163-.3074,7.1011,7.1011,0,0,0,4.9725-6.7206c.02-2.3505.0043-4.7014.0042-7.0521q0-3.6165.0006-7.2331,0-4.1849-.0007-8.37c0-.0656-.0117-.1312-.0185-.2021a6.0776,6.0776,0,0,1-5.7478-5.7622Zm10.2147-1.4c-1.0146-.0231-2,.0122-3.01-.0168v-3.0048a19.0985,19.0985,0,0,0-2.2958.0166c0,.3311,0,.6659,0,1.0007,0,.3271.0049.6543.0005.9813-.0045.3316.0152.6644-.0164,1.0194h-3.0028a17.9909,17.9909,0,0,0,.0115,2.2744h3.0085v2.9946c.7784.002,1.5295.0162,2.2958-.0049,0-.2788,0-.5273,0-.7758,0-.241.0013-.4821.0013-.7231,0-.25-.0035-.4992-.0011-.7488.0023-.2452-.0127-.4917.0123-.751.5185,0,1.0081,0,1.4977,0,.4956,0,.9914.0064,1.4985-.0047v-2.2571Z" transform="translate(30.7622)"/><path d="M689.9521,310.5161l5.8365,15.9808.0352-.0068V310.5215c.073-.0066.1307-.0163.1885-.0163,2.6086,0,5.2173-.0109,7.8259.0074a7.0087,7.0087,0,0,1,3.3421.81,5.7189,5.7189,0,0,1,2.653,2.9477,6.4792,6.4792,0,0,1,.4239,1.7163,6.1342,6.1342,0,0,1,.0312,1.1579,5.392,5.392,0,0,1-1.4193,3.4,5.6432,5.6432,0,0,1-2.14,1.4361c-.0236.009-.0459.0215-.0967.0456.2326.4864.4949.9539.737,1.4312.2447.4825.4994.96.7481,1.44.2527.4883.5026.978.7553,1.4663.2487.48.5.96.749,1.44s.4971.9614.7455,1.4422c.247.4782.4938.9566.7528,1.4585h-4.6037l-3.9211-8.003h-2.7767a1.748,1.748,0,0,0-.02.1925q-.0012,2.35,0,4.7007,0,1.4593.001,2.9186c0,.058-.0085.116-.0143.1889h-6.61l-1.1809-3.5369h-7.1386l-1.2162,3.5391H679.53c.0371-.245,7.1993-19.9486,7.3393-20.1892Zm9.8539,8.8391a.62.62,0,0,0,.0989.0195c1.2548-.0106,2.51-.0242,3.7643-.032a2.8972,2.8972,0,0,0,1.0759-.2212,2.4213,2.4213,0,0,0,1.3763-1.3505,2.7857,2.7857,0,0,0,.1851-1.2862,2.4071,2.4071,0,0,0-1.06-1.9106,2.7821,2.7821,0,0,0-1.598-.497c-1.2214-.0124-2.443-.0061-3.6644-.0061a1.55,1.55,0,0,0-.1785.0209Zm-11.29-2.7339-.0475-.0019-2.4928,7.18c.3687.0407,4.7476.0254,4.9468-.0213Z" transform="translate(30.7622)"/></svg>