<svg xmlns="http://www.w3.org/2000/svg" viewBox="0 0 417.9587 230.2074"><defs><style>.a{font-size:33px;fill:#606060;font-family:Lato-Italic, Lato;font-style:italic;}.b{fill:#d91519;}.c{fill:#fff;stroke:#d91519;stroke-linecap:round;stroke-linejoin:round;stroke-width:3px;}</style></defs><title>top</title><text class="a" transform="translate(0.9504 28.3223)">Vista superior</text><path class="b" d="M6.5971,229.6116,54.546,201.9283l50.9225-29.4,50.9225,29.4L204.34,229.6116a4.3981,4.3981,0,0,0,6.5971-3.8089V115.07a4.3981,4.3981,0,0,0-6.5971-3.8088L156.391,138.944l-50.9225,29.4-50.9225-29.4L6.5971,111.2607A4.398,4.398,0,0,0,0,115.07V225.8027A4.3981,4.3981,0,0,0,6.5971,229.6116ZM202.5483,116.44a3.3365,3.3365,0,0,1,5.0068,2.8882V221.5438a3.3364,3.3364,0,0,1-5.0068,2.8881l-44.1764-25.55-49.1832-28.4458L158.3719,141.99ZM3.3819,221.5438V119.3285A3.3365,3.3365,0,0,1,8.3887,116.44l44.1765,25.55,49.1832,28.4457L52.5652,198.8819l-44.1765,25.55A3.3364,3.3364,0,0,1,3.3819,221.5438Z"/><circle class="c" cx="8.1458" cy="218.1338" r="6.4061"/><circle class="c" cx="8.1458" cy="121.9246" r="6.4061"/><circle class="c" cx="203.0526" cy="218.1338" r="6.4061"/><circle class="c" cx="203.0526" cy="121.9246" r="6.4061"/><path class="b" d="M108.5971,170.6116l47.9489-27.6833,50.9225-29.4,50.9225,29.4L306.34,170.6116a4.3981,4.3981,0,0,0,6.5971-3.8089V56.07a4.3981,4.3981,0,0,0-6.5971-3.8088L258.391,79.944l-50.9225,29.4-50.9225-29.4L108.5971,52.2607A4.398,4.398,0,0,0,102,56.07V166.8027A4.3981,4.3981,0,0,0,108.5971,170.6116ZM304.5483,57.44a3.3365,3.3365,0,0,1,5.0068,2.8882V162.5438a3.3364,3.3364,0,0,1-5.0068,2.8881l-44.1764-25.55-49.1832-28.4458L260.3719,82.99ZM105.3819,162.5438V60.3285a3.3365,3.3365,0,0,1,5.0068-2.8882l44.1765,25.55,49.1832,28.4457-49.1832,28.4458-44.1765,25.55A3.3364,3.3364,0,0,1,105.3819,162.5438Z"/><circle class="c" cx="110.1458" cy="159.1338" r="6.4061"/><circle class="c" cx="110.1458" cy="62.9246" r="6.4061"/><circle class="c" cx="305.0526" cy="159.1338" r="6.4061"/><circle class="c" cx="305.0526" cy="62.9246" r="6.4061"/><path class="b" d="M213.5971,229.6116l47.9489-27.6833,50.9225-29.4,50.9225,29.4L411.34,229.6116a4.3981,4.3981,0,0,0,6.5971-3.8089V115.07a4.3981,4.3981,0,0,0-6.5971-3.8088L363.391,138.944l-50.9225,29.4-50.9225-29.4-47.9489-27.6833A4.398,4.398,0,0,0,207,115.07V225.8027A4.3981,4.3981,0,0,0,213.5971,229.6116ZM409.5483,116.44a3.3365,3.3365,0,0,1,5.0068,2.8882V221.5438a3.3364,3.3364,0,0,1-5.0068,2.8881l-44.1764-25.55-49.1832-28.4458L365.3719,141.99ZM210.3819,221.5438V119.3285a3.3365,3.3365,0,0,1,5.0068-2.8882l44.1765,25.55,49.1832,28.4457-49.1832,28.4458-44.1765,25.55A3.3364,3.3364,0,0,1,210.3819,221.5438Z"/><circle class="c" cx="215.1458" cy="218.1338" r="6.4061"/><circle class="c" cx="215.1458" cy="121.9246" r="6.4061"/><circle class="c" cx="410.0526" cy="218.1338" r="6.4061"/><circle class="c" cx="410.0526" cy="121.9246" r="6.4061"/></svg>