<svg xmlns="http://www.w3.org/2000/svg" xmlns:xlink="http://www.w3.org/1999/xlink" viewBox="0 0 640.9895 603.6977"><defs><style>.a,.g{fill:none;}.b{fill:#d91519;}.c{opacity:0.5;}.d{clip-path:url(#a);}.e,.f{fill:#fff;}.f{opacity:0.55;}.g{stroke:#fff;stroke-linecap:round;stroke-linejoin:round;stroke-width:3px;}</style><clipPath id="a" transform="translate(48.0935 125.1185)"><path class="a" d="M26.3929,100.7929,268.8437,160.93,361.2548,292.246a13.92,13.92,0,0,0,18.2681,4.0873L509.1846,222.55a5.6372,5.6372,0,0,0-1.41-10.3811l-233.044-54.9187L180.3083,22.1555a13.2693,13.2693,0,0,0-17.1057-4.022L25.8738,97.0912A2.0145,2.0145,0,0,0,26.3929,100.7929Z"/></clipPath></defs><title>white</title><path class="b" d="M5.3627,107.4l260.9079,53.0076a5.9437,5.9437,0,0,1,3.9194,2.777l81.5747,136.59a23.8276,23.8276,0,0,0,32.3221,8.4458l154.2813-88.5913a5.9434,5.9434,0,0,0-1.8148-10.9863L277.2976,157.7544a5.9431,5.9431,0,0,1-3.929-2.7367L186.6048,12.8033a19.2127,19.2127,0,0,0-25.9759-6.6508L3.5842,96.4223A5.9435,5.9435,0,0,0,5.3627,107.4Z" transform="translate(48.0935 125.1185)"/><g class="c"><g class="d"><path class="e" d="M15.0342,189.15c-.113-5.8257-15.2249-46.3021-20.4236-52.5606-4.1488-4.9946-16.5824-7.71-27.4894-8.4021l-.8268,1.1851-.7194,1.031-10.8356,15.5313-1.2042,1.726-1.6287,2.3345c2.6608,10.7354,6.6162,24.4036,10.8846,37.1831l4.1969,2.9281,4.5443,3.17,12.449,8.6852L-1.5341,212.067C7.1084,203.0454,15.1021,192.642,15.0342,189.15Z" transform="translate(48.0935 125.1185)"/><path class="e" d="M57.02,131.1168c4.0828-3.856-20.012-55.1467-26.0813-58.4231-3.4264-1.85-15.4847-.8687-26.0645,1.3793l-1.95,2.7954-1.81,2.5945L-12.5864,99.1007l-2.1733,3.115-2.4122,3.4575c.4893,6.1728,2.3649,12.2189,6.5729,16.58C-1.2414,131.95,52.9375,134.9729,57.02,131.1168Z" transform="translate(48.0935 125.1185)"/><path class="e" d="M9.7808,145.339c.1441,7.42,14.6528,40.8722,27.3163,50.6648s67.4717,25.0436,72.4534,19.8991c1.8278-1.8874,12.5847-18.0382,8.3133-23.8916C105.16,174.6024,75.063,149.6993,70.3189,146.39,62.8258,141.1618,9.5921,135.63,9.7808,145.339Z" transform="translate(48.0935 125.1185)"/><path class="e" d="M53.7667,80.4957c-7.8438.0982,14.8416,50.5817,20.9862,57.742s39.1153,39.7408,47.9568,43.0357c5.1762,1.929,23.8619-8.2548,27.4575-13.4086,2.2473-3.2211,4.1927-21.9773,1.3074-27.8216C148.0429,133.0923,87.4821,80.0731,53.7667,80.4957Z" transform="translate(48.0935 125.1185)"/><path class="e" d="M73.4157,217.3318c-18.4875-4.1988-44.5452-10.3035-51.0243-10.6953-4.3574-.2636-9.6385,4.991-14.2652,12.17l1.8,1.2562,2.1018,1.4663,20.0493,13.9878,9.7684,6.8151,9.1723,6.3992c21.0075-8.1978,40.8871-17.9823,42.9277-20.9071C98.89,220.7376,89.2412,220.926,73.4157,217.3318Z" transform="translate(48.0935 125.1185)"/><path class="e" d="M163.3025,301.6158c.261-10.3537-36.9825-69.2488-48.0354-70.8665-13.8985-2.0342-46.4663,25.8457-48.2005,29.1686l-.0034.0071,2.34,1.6325,2.2658,1.5808,25.3923,17.7153,35.301,24.6284L150.7211,318.29C157.7146,312.6022,163.1874,306.1827,163.3025,301.6158Z" transform="translate(48.0935 125.1185)"/><path class="e" d="M211.9691,177.2791c-10.3715,1.6363-8.7536,49.5441-5.1548,68.3373,2.7356,14.2842,11.3316,12.14,30.3085,14.4408,28.2467,3.4244,47.5256,5.9624,47.6139,1.6114.23-11.3109-29.3067-71.3005-39.9681-77.4847C240.0447,181.4437,225.5466,175.137,211.9691,177.2791Z" transform="translate(48.0935 125.1185)"/><path class="e" d="M125.764,206.3337c-4.4569,8.3842,3.2249,23.3213,11.2428,31.7885,6.3845,6.7424,27.977,15.1855,52.5611,18.4722,15.2844,2.0434,1.9668-68.2782-4.1352-71.7117a48.6484,48.6484,0,0,0-23.7092-6.14C153.9914,178.6916,130.2208,197.95,125.764,206.3337Z" transform="translate(48.0935 125.1185)"/><path class="e" d="M153.9947,258.5533c-2.21,5.1631,19.1891,45.605,25.4431,49.3579,9.8157,5.89,31.2074,13.1523,38.5873,12.5542S209.7774,276.4,202.734,270.5278,156.2044,253.39,153.9947,258.5533Z" transform="translate(48.0935 125.1185)"/><path class="e" d="M312.2589,296.9283c2.9967-4.8757-10.2854-17.2942-14.2378-19.5113-7.0061-3.93-65.0188-8.8089-73.6134-8.2569s.1215,40.9831,9.2974,50.5448c9.5072,9.907,38.088,22.563,49.9556,23.2031C291.5318,343.3328,301.9594,313.6875,312.2589,296.9283Z" transform="translate(48.0935 125.1185)"/><path class="e" d="M202.8927,325.7991c-1.3443-2.5486-24.121-12.5426-29.3341-11.8452-3.7817.506-10.7674,7.1127-13.46,10.8786l1.8671,1.3027,2.1788,1.52,13.7579,9.5984,9.9994,6.9763,4.445,3.1011C198.1158,339.8876,204.56,328.96,202.8927,325.7991Z" transform="translate(48.0935 125.1185)"/><path class="e" d="M313.4073,404.8626c1.6845-8.4027-18.117-38.1676-26.3421-48.07-3.7842-4.5557-55.0348-26.9025-66.0854-25.0342-6.1805,1.0447-14.7624,11.0912-20.3,21.3858l2.6535,1.8512,3.0672,2.14,47.3772,33.0535,27.5985,19.2546,16.4935,11.507C306.2927,414.7144,312.73,408.24,313.4073,404.8626Z" transform="translate(48.0935 125.1185)"/><path class="e" d="M61.9124,70.1678c6.3678-5.1353,7.609-44.7224-1.5055-53.7289-2.2844-2.2573-5.51-5.2339-9.33-8.59L48.5713,11.44l-5.4147,7.7611L26.0114,43.7766l-7.7155,11.059-4.071,5.8351C22.75,64.9719,55.9517,74.9747,61.9124,70.1678Z" transform="translate(48.0935 125.1185)"/><path class="e" d="M74.9671,70.7948c6.8386,8.5439,34.2813,28.7059,40.7246,27.4544s6.1759-38.7919,3.74-45.28S86.0628,23.809,81.5171,27.4751C75.1494,32.61,69.759,64.2879,74.9671,70.7948Z" transform="translate(48.0935 125.1185)"/><path class="e" d="M127.3361,100.9149c1.137,7.0173,19.8954,25.3738,25.5152,29.2945s38.1754,15.14,47.3532,11.9654c8.2087-2.84,27.0661-10.7686,24.1227-18.6086-2.9231-7.786-46.0866-65.6758-56.314-68.98S137.6324,60.2087,133.55,64.065C128.6165,68.7242,125.7613,91.1961,127.3361,100.9149Z" transform="translate(48.0935 125.1185)"/><path class="e" d="M169.7022,145.6476c-5.0571,1.2607-6.2169,12.9029-6.5532,19.3727-.2828,5.44,28.96,16.3734,33.5677,15.7569s4.1928-21.9774,1.3452-25.88C196.3766,152.5881,174.7594,144.3869,169.7022,145.6476Z" transform="translate(48.0935 125.1185)"/><path class="e" d="M253.2342,171.0009c5.9938-.6072,5.5033-25.8521-2.9263-31.7331-6.8187-4.7572-35.0637,2.3553-40.4571,10.086-3.5957,5.1538.7134,12.9491,7.2322,15.5814S243.4613,171.9911,253.2342,171.0009Z" transform="translate(48.0935 125.1185)"/><path class="e" d="M236.82,65.5984c-7.9425-4.5834-41.2461-6.7469-44.3924-2.2372s38.7748,57.7012,46.4984,63.09c6.5566,4.5743,35.177,3.47,36.45-2.3461S244.7627,70.1819,236.82,65.5984Z" transform="translate(48.0935 125.1185)"/><path class="e" d="M353.0714,199.6936c2.5457-11.6329-30.0883-50.6832-40.8033-55.2852s-39.8975-8.6795-43.98-4.8235S262.87,185.53,263.762,191.9794c1.6123,11.6606,22.8185,33.16,31.66,36.4551S350.5257,211.3265,353.0714,199.6936Z" transform="translate(48.0935 125.1185)"/><path class="e" d="M338.4066,229.4731c-10.677-2.66-35.85,9.4694-40.382,13.97s7.1824,27.6431,11.7679,35.0283c5.2457,8.4487,71.853,12.7757,70.8032,6.2964S349.0834,232.133,338.4066,229.4731Z" transform="translate(48.0935 125.1185)"/><path class="e" d="M87.14,13.0964c1.6318,7.3162,33.42,31.9362,41.812,35.8753s23.5258-1.7852,26.1469-9.5342S121.3392-9.9757,113.9217-11.32,85.1159,4.0219,87.14,13.0964Z" transform="translate(48.0935 125.1185)"/><path class="e" d="M87.7807-7.6937c4.4154-3.5606,12.2484-11.5683,12.5847-18.0382.1452-2.7958-6.595-9.1425-15.0057-15.5583l-.8824,1.2647L66.9168-14.855l-6.47,9.2737C72.6-5.1778,85.891-6.17,87.7807-7.6937Z" transform="translate(48.0935 125.1185)"/><path class="e" d="M184.9559-25.5911c-11.6136-3.3134-48.0636-.9673-51.21,3.5421s26.4552,53.8951,38.22,64.9762c9.3684,8.8242,42.2582,11.2842,51.436,8.1094s12.06-21.2781,12.3583-29.69S196.57-22.2776,184.9559-25.5911Z" transform="translate(48.0935 125.1185)"/><path class="e" d="M174.5877-39.3226c2.7346-1.9235.4084-26.5332-6.5974-30.4632-6.5325-3.6645-37.33-15.929-53.0015-13.9733l-1.486,2.13-2.3794,3.41L95.9443-56.4616,94.15-53.89l-1.9183,2.75a5.54,5.54,0,0,0,.4653.659c8.0658,9.78,36.0383,16.6784,40.4213,16.7074C140.049-33.7279,167.9225-34.6344,174.5877-39.3226Z" transform="translate(48.0935 125.1185)"/><path class="e" d="M125.7416-12.7455c3.709.6719-.7134-12.9492-4.01-16.2073s-11.576-1.3715-12.4371,1.859C108.1128-22.6618,117.7077-14.2008,125.7416-12.7455Z" transform="translate(48.0935 125.1185)"/><path class="e" d="M358.0109,425.988c-4.5162-1.08-16.8151,8.2144-26.245,18.6114l1.8,1.2558,1.29.9L365.36,468.0369l6.7384,4.7011,8.3724,5.8412c4.2068-5.12,6.8928-9.7941,6.1307-12.531C382.6285,451.783,366.5557,428.0308,358.0109,425.988Z" transform="translate(48.0935 125.1185)"/><path class="e" d="M207.927-35.8c-2.1543,3.0877-.5191,13.41,2.0923,19.1671,3.0466,6.7165,36.4274,33.2842,43.2945,36.1075s9.69-4.3888,12.1518-7.9179-28.2237-38.71-32.2465-40.86C226.0753-33.1229,210.0814-38.888,207.927-35.8Z" transform="translate(48.0935 125.1185)"/><path class="e" d="M364.6237,297.5971c-6.9683-1.9882-32.4049-3.452-38.3231,1.0391s-21.8722,39.3345-27.7152,47.71,21.7059,44.3967,23.9817,45.465c8.3919,3.9391,47.46-30.1033,51.9541-36.5456S371.5918,299.5852,364.6237,297.5971Z" transform="translate(48.0935 125.1185)"/><path class="e" d="M347.8722,410.3567c.1528-2.9375-10.7864-10.3628-16.7839-7.8783-3.6346,1.5057-17.2522,14.8333-25.4818,23.87l1.7945,1.2519,1.1867.8279,2.05,1.43,10.69,7.4579,5.1589,3.5992C335.61,430.5046,347.6408,414.8063,347.8722,410.3567Z" transform="translate(48.0935 125.1185)"/><path class="e" d="M179.3489-80.2957c-1.6123-11.6606-14.0413-45.7842-21.6589-44.8021-3.9815.5131-27.2688,23.118-20.1875,30.9319C145.2955-85.5669,180.091-74.93,179.3489-80.2957Z" transform="translate(48.0935 125.1185)"/><path class="e" d="M-22.2975,121.2547c.91-.1769.3686-2.8975-.9929-6.8115l-4.7851,6.8588A41.6575,41.6575,0,0,0-22.2975,121.2547Z" transform="translate(48.0935 125.1185)"/><path class="e" d="M387.2785,330.9466c-.7858,7.1141-5.7266,38.1475.4182,45.3079s24.7984,7.1219,29.2207,6.0195c5.0573-1.2607,25.2859-6.3037,28.432-10.8132S428.113,340.28,424.3287,335.7239C417.3016,327.2642,388.0644,323.8326,387.2785,330.9466Z" transform="translate(48.0935 125.1185)"/><path class="e" d="M363.682,378.9181c1.7294,3.2786,14.8728,4.63,16.2212,2.6968s-1.5747-9.7186-4.8718-12.9767S361.2838,374.3715,363.682,378.9181Z" transform="translate(48.0935 125.1185)"/><path class="e" d="M409.377,289.31c-1.5576-6.4326-23.4878,3.727-28.9569,7.5738s5.8838,17.514,14.7628,22.7508S411.8882,299.6826,409.377,289.31Z" transform="translate(48.0935 125.1185)"/><path class="e" d="M200.4345-66.2c-2.3981-4.5465-16.7461-5.9367-18.9934-2.7156s2.3636,26.5516,4.2746,29.8006c3.8219,6.4974,13.1128,9.1484,14.9107,6.5714S202.8327-61.6533,200.4345-66.2Z" transform="translate(48.0935 125.1185)"/><path class="e" d="M263.5242-42.2988c-5.62-3.9207-21.2407.5057-22.0641,5.678-.7011,4.404,25.179,35.7647,30.3493,40.33s13.072-16.7407,13.072-16.7407S269.1438-38.3782,263.5242-42.2988Z" transform="translate(48.0935 125.1185)"/><path class="e" d="M270.5337,27.5182c-.28,7.8743,40.2028,48.1618,46.7214,50.7942s17.2645-38.7181,16.74-41.9577S303.91,9.6185,296.0049,6.9769,270.8322,19.1063,270.5337,27.5182Z" transform="translate(48.0935 125.1185)"/><path class="e" d="M263.9932,37.9907c-5.5821-1.9787-23.9376,4.3711-21.9509,11.5037.8181,2.9378,13.8758,27.4276,21.0585,37.6789,6.6867,9.5431,17.2794,13.7449,22.479,15.6828,7.2437,2.7,14.0086-16.0872,15.2814-21.9035S269.5753,39.9694,263.9932,37.9907Z" transform="translate(48.0935 125.1185)"/><path class="e" d="M364.6816,150.7089c4.6078-.6163,14.3446-22.5571,8.6494-30.3614s-41.2872-32.636-48.7048-33.98-19.1409,13.464-21.8,19.2712,3.1492,19.4373,6.9713,25.9351C313.6562,138.1337,360.0738,151.3254,364.6816,150.7089Z" transform="translate(48.0935 125.1185)"/><path class="e" d="M285.7478,128.8713c5.6973,3.9748,12.0631,2.6693,14.31-.5519s-4.4224-13.6208-8.169-16.2347S280.1281,124.9506,285.7478,128.8713Z" transform="translate(48.0935 125.1185)"/><path class="e" d="M426.2613,233.1821c-7.0436-5.8721-53.2372-29.48-60.1676-29.5258s-16.7431,18.0105-15.7309,22.5479c1.46,6.5436,37.9179,49.441,46.2346,49.4965S433.3047,239.054,426.2613,233.1821Z" transform="translate(48.0935 125.1185)"/><path class="e" d="M440.6579,181.6742c-2.4355-6.4884-36.676-9.3052-43.1571-9.9959s-34.35,15.3045-30.0789,21.1579,39.75,24.859,48.5539,26.2121S443.0938,188.1626,440.6579,181.6742Z" transform="translate(48.0935 125.1185)"/><path class="e" d="M383.91,164.5453c-6.6229-4.62-44.858-15.3125-46.4164-11.3119-1.76,4.5189,16.2246,26.644,19.9332,27.3159S387.6561,167.1592,383.91,164.5453Z" transform="translate(48.0935 125.1185)"/><path class="e" d="M425.0406,258.3217c.108,5.5608,25.2887,17.6433,30.7955,15.7383s-8.32-24.0026-14.389-27.2791S424.9653,254.4379,425.0406,258.3217Z" transform="translate(48.0935 125.1185)"/><path class="e" d="M460.2461,235.5357c5.9939-.6073,52.7056-21.6542,52.1055-28.7776s-56.3075-21.086-58.5172-15.9229-20.1878,30.9321-17.79,35.4783C438.8416,231.6156,454.2523,236.143,460.2461,235.5357Z" transform="translate(48.0935 125.1185)"/><path class="e" d="M520.8852,221.9906c-5.0949-.6811-43.2294,10.0676-39.4451,14.6232,3.5133,4.23,37.2765,16.4286,40.91,13.217S525.98,222.6716,520.8852,221.9906Z" transform="translate(48.0935 125.1185)"/><path class="e" d="M387.6783,122.675c-3.355,4.5287-6.5543,19.3219-6.44,25.1985.0756,3.8839,14.125,13.6855,21.58,16.9714s36.1514,6.0658,44.43,4.1793,14.6808-29.0271,14.6053-32.9108-34.7305-28.0618-39.8632-30.6847C419.1386,103.971,390.43,118.9613,387.6783,122.675Z" transform="translate(48.0935 125.1185)"/><path class="e" d="M395.3011,65.1815c-3.7843-4.5556-29.2242-29.9666-38.4394-28.7334S332.6667,75.12,334.6152,80.31c2.0088,5.3507,34.7687,30.0039,43.1229,32.0011S406.17,101.498,407.93,96.9792,399.0856,69.7374,395.3011,65.1815Z" transform="translate(48.0935 125.1185)"/><path class="e" d="M514.8636,196.7447c7.38-.598,6.7383-33.61,6.1759-38.7918s-15.5866-17.5787-22.0675-18.2692-36.0726,21.765-36.8583,28.8793c-.5593,5.0647,4.4225,13.6209,8.6185,15.5905S507.4836,197.3429,514.8636,196.7447Z" transform="translate(48.0935 125.1185)"/><path class="e" d="M524.4315,205.7642c-1.6119,7.3658,5.359,14.2743,10.0045,15.6s23.3747-9.5525,25.622-12.7736-24.4657-22.8152-28.624-22.8431S525.7044,199.9475,524.4315,205.7642Z" transform="translate(48.0935 125.1185)"/><path class="e" d="M78.2053,3.3074C75.9672.2407,61.215-.91,56.2005.5051L54.8527,2.437c3.3944,4.8566,14.4672,15.73,19.5338,18.32C79.519,23.38,81.0529,7.21,78.2053,3.3074Z" transform="translate(48.0935 125.1185)"/><path class="e" d="M391.437,439.302c-.8407,1.2051.5243,8.9428,3.15,19.5363l1.6287-2.3346,1.2043-1.726,10.8355-15.5312.7194-1.0311.8268-1.1851C400.8117,436.46,392.8585,437.2645,391.437,439.302Z" transform="translate(48.0935 125.1185)"/><path class="e" d="M194.9108-78.6559c4.1436-2.32,10.2067-7.73,15.9806-13.7569l-14.4846-10.1055L179.4135-114.374l-4.1968-2.928C182.4979-95.502,190.6884-76.292,194.9108-78.6559Z" transform="translate(48.0935 125.1185)"/><path class="e" d="M210.8108-49.4619c8.8089,9.72,22.982,4.1887,38.3229-1.0392,4.6975-1.6008,9.5331-3.3833,14.31-5.2475l-9.1724-6.3992-9.7683-6.8151L224.454-82.9507l-2.1017-1.4663-1.8006-1.2562C212.41-73.0395,206.2954-54.4443,210.8108-49.4619Z" transform="translate(48.0935 125.1185)"/><path class="e" d="M337.0342,26.65c5.9463.4014,17.2506-5.6317,26.1125-12.8395L344.7878,1.0022,309.4865-23.6263,284.0944-41.3415l-2.2657-1.5808-2.34-1.6325C271.24-28.7027,326.3965,25.9322,337.0342,26.65Z" transform="translate(48.0935 125.1185)"/><path class="e" d="M371.4506,22.3217c-1.5041,6.8727,21.8441,30.5645,26.8638,27.3619,1.53-.9759,3.9288-3.57,6.4576-6.8323L400.3271,39.75l-9.9995-6.9763L376.57,23.1755l-2.1789-1.52-1.8671-1.3027A6.4241,6.4241,0,0,0,371.4506,22.3217Z" transform="translate(48.0935 125.1185)"/><path class="e" d="M408.3489,69.1809c8.169,16.2351,48.7078,57.9269,63.5809,62.5564,8.8955,2.769,25.83-5.985,38.3651-15.2662l-16.4935-11.507L466.2028,85.71,418.8256,52.656l-3.0672-2.14-2.6535-1.8513C408.741,56.7771,406.2671,65.0435,408.3489,69.1809Z" transform="translate(48.0935 125.1185)"/><path class="e" d="M532.9053,163.3271c6.22,11.0441,24.73,36.4089,31.1729,35.1575,4.3683-.8484,19.9629-13.6071,28.8179-24.3854l-8.3723-5.841-6.7383-4.7012-30.5043-21.2818-1.29-.9-1.8-1.2558C536.1778,148.9556,530.2361,158.5878,532.9053,163.3271Z" transform="translate(48.0935 125.1185)"/><path class="e" d="M511.7882,129.5008C508.4367,135.806,524.64,149.003,529.66,145.8c1.5673-1,5.11-4.637,9.2522-9.3639l-5.1589-3.5992-10.69-7.4579-2.05-1.43-1.1868-.8279-1.7944-1.2519A56.95,56.95,0,0,0,511.7882,129.5008Z" transform="translate(48.0935 125.1185)"/><path class="e" d="M425.5084,414.5168l2.4123-3.4575,2.1733-3.1152,13.7006-19.6377,1.81-2.5945,1.95-2.7954c-8.16,1.734-15.441,4.2215-17.2025,6.7462C427.8117,393.3045,424.6821,404.0916,425.5084,414.5168Z" transform="translate(48.0935 125.1185)"/><path class="e" d="M436.1371,279.5315c-8.2412,3.8284-17.23,16.7127-17.5286,25.1246s31.663,60.4019,36.91,64.0626a11.88,11.88,0,0,0,1.3867.7955l4.0709-5.8351,7.7156-11.0591,17.1452-24.575,5.4147-7.7611,2.5059-3.5919C475.5259,300.6712,443.7549,275.9926,436.1371,279.5315Z" transform="translate(48.0935 125.1185)"/><path class="e" d="M454.6316,250.1618c-4.2637,6.1115,21.2095,45.4467,29.152,50.03,3.2288,1.8631,11.0193,2.794,19.3436,3.07l6.47-9.2737,17.5606-25.1705.8824-1.2647c-11.0526-8.4309-24.9911-16.981-29.99-17.7494C489.2461,248.4508,459.5756,243.0754,454.6316,250.1618Z" transform="translate(48.0935 125.1185)"/><path class="e" d="M534.9122,257.7032l1.9183-2.75,1.7941-2.5716,15.1791-21.7569,2.38-3.4108,1.4858-2.13a18.2145,18.2145,0,0,0-3.1551.6549C540.7134,230.04,530.44,250.305,534.9122,257.7032Z" transform="translate(48.0935 125.1185)"/><path class="e" d="M351.7857,394.6915c.4709,5.588,16.7492,29.8833,23.7175,31.8715,5.483,1.5644,28.1275,3.2429,39.1016,3.5825l4.7852-6.8588c-3.4563-9.9351-12.1987-27.5651-15.9075-30.84C398.3122,387.882,351.1853,387.5681,351.7857,394.6915Z" transform="translate(48.0935 125.1185)"/><path class="e" d="M497.3988,311.09c.0416.0611.09.1277.1342.1909l1.3477-1.9317C497.5146,309.7343,496.8689,310.31,497.3988,311.09Z" transform="translate(48.0935 125.1185)"/></g></g><path class="f" d="M356.0669,306.0983,268.4757,160.562.57,105.8979V241.3032L261.8527,293.76l94.604,151.7747a14.8544,14.8544,0,0,0,20.183,4.919L543.5324,351.48V215.3393L377.7232,311.7177A15.9854,15.9854,0,0,1,356.0669,306.0983Z" transform="translate(48.0935 125.1185)"/><polygon class="f" points="48.664 285.228 48.664 309.758 309.21 364.422 412.236 530.735 412.236 496.883 311.418 339.401 48.664 285.228"/><polygon class="f" points="412.236 496.883 591.626 393.95 591.626 424.614 412.236 530.735 412.236 496.883"/><line class="g" x1="58.5437" y1="233.5518" x2="58.5437" y2="276.4819"/><line class="g" x1="76.2053" y1="237.2313" x2="76.2053" y2="280.1614"/><line class="g" x1="97.5463" y1="241.6467" x2="97.5463" y2="284.5768"/><line class="g" x1="118.8874" y1="246.0621" x2="118.8874" y2="288.9922"/><line class="g" x1="140.2284" y1="250.4775" x2="140.2284" y2="293.4076"/><line class="g" x1="161.5695" y1="254.8928" x2="161.5695" y2="297.823"/><line class="g" x1="182.9105" y1="259.3082" x2="182.9105" y2="302.2384"/><line class="g" x1="204.2515" y1="263.7236" x2="204.2515" y2="306.6538"/><line class="g" x1="225.5926" y1="268.139" x2="225.5926" y2="311.0691"/><line class="g" x1="246.9336" y1="272.5544" x2="246.9336" y2="315.4845"/><line class="g" x1="268.2746" y1="276.9698" x2="268.2746" y2="319.8999"/><line class="g" x1="289.6157" y1="281.3852" x2="289.6157" y2="324.3153"/><line class="g" x1="310.9567" y1="285.8005" x2="310.9567" y2="328.7307"/><line class="g" x1="58.5437" y1="324.0672" x2="58.5437" y2="366.9974"/><line class="g" x1="76.2053" y1="327.7467" x2="76.2053" y2="370.6769"/><line class="g" x1="97.5463" y1="332.1621" x2="97.5463" y2="375.0923"/><line class="g" x1="118.8874" y1="336.5775" x2="118.8874" y2="379.5077"/><line class="g" x1="140.2284" y1="340.9929" x2="140.2284" y2="383.923"/><line class="g" x1="161.5695" y1="345.4083" x2="161.5695" y2="388.3384"/><line class="g" x1="182.9105" y1="349.8237" x2="182.9105" y2="392.7538"/><line class="g" x1="204.2515" y1="354.2391" x2="204.2515" y2="397.1692"/><line class="g" x1="225.5926" y1="358.6544" x2="225.5926" y2="401.5846"/><line class="g" x1="246.9336" y1="363.0698" x2="246.9336" y2="406"/><line class="g" x1="268.2746" y1="367.4852" x2="268.2746" y2="410.4154"/><line class="g" x1="289.6157" y1="371.9006" x2="289.6157" y2="414.8308"/><line class="g" x1="310.9567" y1="376.316" x2="310.9567" y2="419.2461"/><line class="g" x1="325.6747" y1="399.1288" x2="325.6747" y2="442.059"/><line class="g" x1="325.6747" y1="306.4057" x2="325.6747" y2="349.3358"/><line class="g" x1="337.449" y1="420.4699" x2="337.449" y2="463.4"/><line class="g" x1="337.449" y1="327.7467" x2="337.449" y2="370.6769"/><line class="g" x1="350.6952" y1="441.8109" x2="350.6952" y2="484.7411"/><line class="g" x1="350.6952" y1="349.0878" x2="350.6952" y2="392.0179"/><line class="g" x1="363.9414" y1="463.1519" x2="363.9414" y2="506.0821"/><line class="g" x1="363.9414" y1="371.9006" x2="363.9414" y2="414.8308"/><line class="g" x1="379.3952" y1="487.4366" x2="379.3952" y2="530.3667"/><line class="g" x1="379.3952" y1="393.2416" x2="379.3952" y2="436.1718"/><line class="g" x1="395.585" y1="512.4571" x2="395.585" y2="555.3873"/><line class="g" x1="395.585" y1="420.4699" x2="395.585" y2="463.4"/><line class="g" x1="431.644" y1="433.716" x2="431.644" y2="476.6462"/><line class="g" x1="454.4568" y1="420.4699" x2="454.4568" y2="463.4"/><line class="g" x1="477.2697" y1="407.2237" x2="477.2697" y2="450.1539"/><line class="g" x1="500.0825" y1="393.9775" x2="500.0825" y2="436.9077"/><line class="g" x1="522.8953" y1="380.7314" x2="522.8953" y2="423.6615"/><line class="g" x1="545.7082" y1="367.4852" x2="545.7082" y2="410.4154"/><line class="g" x1="568.521" y1="354.2391" x2="568.521" y2="397.1692"/><line class="g" x1="590.3338" y1="341.9929" x2="590.3338" y2="384.923"/><line class="g" x1="431.644" y1="526.4392" x2="431.644" y2="569.3693"/><line class="g" x1="454.4568" y1="513.193" x2="454.4568" y2="556.1232"/><line class="g" x1="477.2697" y1="499.9468" x2="477.2697" y2="542.877"/><line class="g" x1="500.0825" y1="486.7007" x2="500.0825" y2="529.6308"/><line class="g" x1="522.8953" y1="473.4545" x2="522.8953" y2="516.3847"/><line class="g" x1="545.7082" y1="460.2084" x2="545.7082" y2="503.1385"/><line class="g" x1="568.521" y1="446.9622" x2="568.521" y2="489.8923"/><line class="g" x1="590.3338" y1="434.716" x2="590.3338" y2="477.6462"/><path class="g" d="M6.6651,107.6643,268.8437,160.93,354.1246,303.726a19.1455,19.1455,0,0,0,25.9709,6.7863L540.8414,218.209a4.878,4.878,0,0,0-1.49-9.0169l-264.621-51.9415L183.5891,7.86a13.2692,13.2692,0,0,0-17.94-4.5933L4.7364,95.76A6.4454,6.4454,0,0,0,6.6651,107.6643Z" transform="translate(48.0935 125.1185)"/><path class="g" d="M26.2307,101.5762,265.8437,159.93,363.972,293.6835a13.0011,13.0011,0,0,0,16.5293,2.8531l131.13-74.7316A4.2033,4.2033,0,0,0,510.52,214.1l-238.7886-57.849L180.3083,22.1555a13.2693,13.2693,0,0,0-17.1057-4.022L25.5376,95.8261A3.1094,3.1094,0,0,0,26.2307,101.5762Z" transform="translate(48.0935 125.1185)"/><path class="e" d="M169.4715,25.5537a4.2841,4.2841,0,0,1,3.4585,1.7568l82.3472,120.7832L42.8867,96.37,167.5208,26.0312a4.202,4.202,0,0,1,1.9507-.4775M283.1256,168.2714l213.5052,51.7237L376.0451,288.7172c-.0319.0181-.0636.0367-.0953.0552a3.94,3.94,0,0,1-2.0168.55,3.9994,3.9994,0,0,1-2.9293-1.269L283.1256,168.2714M169.4715,16.5537a13.2213,13.2213,0,0,0-6.2689,1.58L25.5376,95.8261a3.1094,3.1094,0,0,0,.6931,5.75l239.613,58.354,98.1284,133.7534a12.9991,12.9991,0,0,0,16.5292,2.8531l131.13-74.7315A4.2034,4.2034,0,0,0,510.52,214.1L271.7309,156.25,180.3083,22.1557a13.2643,13.2643,0,0,0-10.8368-5.602Z" transform="translate(48.0935 125.1185)"/></svg>