<svg xmlns="http://www.w3.org/2000/svg" viewBox="0 0 1159.1535 313.2741"><defs><style>.a{fill:#d91519;}.b{opacity:0.5;}.c,.g,.h,.j,.k,.l{fill:none;}.c,.d{stroke:#606060;}.c,.d,.e,.g,.h,.k{stroke-miterlimit:10;}.c,.d,.e,.g,.j,.k,.l{stroke-width:3px;}.d,.e,.i{fill:#fff;}.e,.g,.l{stroke:#d91519;}.f{opacity:0.3;}.g{stroke-linecap:square;}.h,.j,.k{stroke:#fff;}.h{stroke-width:2px;}.j,.l{stroke-linecap:round;stroke-linejoin:round;}</style></defs><title>0_1</title><rect class="a" x="738.4498" y="109.6821" width="40.0417" height="51.4822"/><rect class="a" x="744.17" y="161.1643" width="28.6012" height="22.881"/><rect class="a" x="769.9111" y="118.2625" width="28.6012" height="11.4405" transform="translate(908.1944 -660.229) rotate(90)"/><rect class="a" x="715.5688" y="184.0453" width="85.8037" height="127.7288" transform="translate(1516.9412 495.8194) rotate(-180)"/><g class="b"><rect class="c" x="124.1755" y="185.8239" width="47.3636" height="125.9503" transform="translate(295.7147 497.598) rotate(-180)"/><rect class="c" x="314.7563" y="185.9287" width="125.8454" height="125.8454" transform="translate(755.358 497.7029) rotate(-180)"/><rect class="c" x="514.8865" y="185.9287" width="125.8454" height="125.8454" transform="translate(1155.6184 497.7029) rotate(-180)"/><rect class="d" x="941.9684" y="184.0453" width="47.3556" height="127.7288" transform="translate(1931.2925 495.8194) rotate(-180)"/><rect class="c" x="351.9379" y="168.6631" width="51.4822" height="17.1607"/><rect class="c" x="549.2533" y="168.6631" width="57.2025" height="17.1607"/><rect class="c" x="532.0925" y="111.4607" width="91.5239" height="57.2025" rx="9.2558"/><rect class="c" x="623.6165" y="122.9012" width="34.3215" height="34.3215"/><rect class="c" x="366.2385" y="157.2226" width="22.881" height="11.4405"/><circle class="c" cx="377.3041" cy="118.9181" r="40.0417"/></g><rect class="e" x="866.4245" y="1.5" width="291.229" height="143.9784" rx="10.1667"/><g class="f"><rect class="g" x="877.8773" y="12.4075" width="268.3234" height="122.1635" rx="7.125"/><path class="a" d="M1084.0282,11.8621h55.0475a7.125,7.125,0,0,1,7.125,7.125V126.9006a7.125,7.125,0,0,1-7.125,7.125h-55.0475a0,0,0,0,1,0,0V11.8621A0,0,0,0,1,1084.0282,11.8621Z"/><rect class="h" x="1096.5718" y="28.7686" width="16.3612" height="16.3612" rx="4"/><rect class="i" x="1096.5718" y="57.128" width="16.3612" height="16.3612" rx="4"/><rect class="i" x="1096.5718" y="86.5781" width="16.3612" height="16.3612" rx="4"/><line class="h" x1="1120.5682" y1="33.1316" x2="1134.7478" y2="33.1316"/><line class="h" x1="1120.5682" y1="38.5853" x2="1134.7478" y2="38.5853"/><line class="h" x1="1120.5682" y1="61.491" x2="1134.7478" y2="61.491"/><line class="h" x1="1120.5682" y1="66.9447" x2="1134.7478" y2="66.9447"/><line class="h" x1="1120.5682" y1="92.0319" x2="1134.7478" y2="92.0319"/><line class="h" x1="1120.5682" y1="97.4856" x2="1134.7478" y2="97.4856"/></g><polygon class="a" points="1104.925 305.751 0 305.751 31.632 191.963 1135.357 191.963 1104.925 305.751"/><line class="j" x1="77.9133" y1="248.857" x2="182.1518" y2="248.857"/><polygon class="i" points="177.096 255.523 179.928 248.857 177.096 242.191 192.897 248.857 177.096 255.523"/><line class="j" x1="294.1948" y1="248.857" x2="398.4332" y2="248.857"/><polygon class="i" points="393.378 255.523 396.21 248.857 393.378 242.191 409.179 248.857 393.378 255.523"/><line class="j" x1="510.4763" y1="248.857" x2="614.7147" y2="248.857"/><polygon class="i" points="609.659 255.523 612.491 248.857 609.659 242.191 625.46 248.857 609.659 255.523"/><line class="j" x1="726.7576" y1="248.857" x2="830.9962" y2="248.857"/><polygon class="i" points="825.941 255.523 828.773 248.857 825.941 242.191 841.742 248.857 825.941 255.523"/><line class="j" x1="943.0391" y1="248.857" x2="1047.2776" y2="248.857"/><polygon class="i" points="1042.222 255.523 1045.054 248.857 1042.222 242.191 1058.023 248.857 1042.222 255.523"/><line class="k" x1="1104.7303" y1="304.9631" x2="0.1948" y2="304.9631"/><line class="k" x1="31.8265" y1="192.6349" x2="1136.3619" y2="192.6349"/><line class="e" x1="789.6535" y1="123.3458" x2="866.6535" y2="123.3458"/><line class="l" x1="925.1127" y1="72.6974" x2="1029.3513" y2="72.6974"/><polygon class="a" points="1024.296 79.363 1027.128 72.697 1024.296 66.032 1040.097 72.697 1024.296 79.363"/></svg>