<svg xmlns="http://www.w3.org/2000/svg" viewBox="0 0 1159.1535 313.2741"><defs><style>.a,.d,.h,.i,.k,.m,.n{fill:none;}.a,.f,.h,.n{stroke:#d91519;}.a,.d,.f,.h,.i,.k,.n{stroke-miterlimit:10;}.a,.d,.f,.h,.k,.m{stroke-width:3px;}.b{fill:#d91519;}.c{opacity:0.5;}.d{stroke:#606060;}.e{fill:#ccc;}.f,.j,.l{fill:#fff;}.g{opacity:0.3;}.h{stroke-linecap:square;}.i,.k,.m{stroke:#fff;}.i{stroke-width:2px;}.l{opacity:0.45;}.m{stroke-linecap:round;stroke-linejoin:round;}.n{stroke-width:4.2px;}</style></defs><title>0_3</title><path class="a" d="M867.6535,42.8458H402.8422a23.6887,23.6887,0,0,0-23.6887,23.6887V79.8458"/><rect class="b" x="314.7563" y="185.9287" width="125.8454" height="125.8454" transform="translate(755.358 497.7029) rotate(-180)"/><rect class="b" x="351.9379" y="168.6631" width="51.4822" height="17.1607"/><rect class="b" x="366.2385" y="157.2226" width="22.881" height="11.4405"/><circle class="b" cx="377.3041" cy="118.9181" r="40.0417"/><g class="c"><rect class="d" x="941.9684" y="184.0453" width="47.3556" height="127.7288" transform="translate(1931.2925 495.8194) rotate(-180)"/><rect class="d" x="124.1755" y="185.8239" width="47.3636" height="125.9503" transform="translate(295.7147 497.598) rotate(-180)"/><rect class="d" x="514.8865" y="185.9287" width="125.8454" height="125.8454" transform="translate(1155.6184 497.7029) rotate(-180)"/><rect class="d" x="549.2533" y="168.6631" width="57.2025" height="17.1607"/><rect class="d" x="532.0925" y="111.4607" width="91.5239" height="57.2025" rx="9.2558"/><rect class="d" x="623.6165" y="122.9012" width="34.3215" height="34.3215"/><rect class="d" x="738.4498" y="109.6821" width="40.0417" height="51.4822"/><rect class="d" x="744.17" y="161.1643" width="28.6012" height="22.881"/><rect class="d" x="769.9111" y="118.2625" width="28.6012" height="11.4405" transform="translate(908.1944 -660.229) rotate(90)"/><rect class="d" x="715.5688" y="184.0453" width="85.8037" height="127.7288" transform="translate(1516.9412 495.8194) rotate(-180)"/></g><polygon class="e" points="798.382 191.963 1104.73 191.963 1073.099 305.751 796.654 305.751 798.382 191.963"/><rect class="f" x="866.4245" y="1.5" width="291.229" height="143.9784" rx="10.1667"/><g class="g"><rect class="h" x="877.8773" y="12.4075" width="268.3234" height="122.1635" rx="7.125"/><path class="b" d="M1084.0282,11.8621h55.0475a7.125,7.125,0,0,1,7.125,7.125V126.9006a7.125,7.125,0,0,1-7.125,7.125h-55.0475a0,0,0,0,1,0,0V11.8621A0,0,0,0,1,1084.0282,11.8621Z"/><rect class="i" x="1096.5718" y="28.7686" width="16.3612" height="16.3612" rx="4"/><rect class="j" x="1096.5718" y="57.128" width="16.3612" height="16.3612" rx="4"/><rect class="j" x="1096.5718" y="86.5781" width="16.3612" height="16.3612" rx="4"/><line class="i" x1="1120.5682" y1="33.1316" x2="1134.7478" y2="33.1316"/><line class="i" x1="1120.5682" y1="38.5853" x2="1134.7478" y2="38.5853"/><line class="i" x1="1120.5682" y1="61.491" x2="1134.7478" y2="61.491"/><line class="i" x1="1120.5682" y1="66.9447" x2="1134.7478" y2="66.9447"/><line class="i" x1="1120.5682" y1="92.0319" x2="1134.7478" y2="92.0319"/><line class="i" x1="1120.5682" y1="97.4856" x2="1134.7478" y2="97.4856"/></g><polygon class="b" points="795.925 305.751 0 305.751 31.632 191.963 797.654 191.963 795.925 305.751"/><line class="k" x1="1104.7303" y1="304.9631" x2="0.1948" y2="304.9631"/><line class="k" x1="31.8265" y1="192.6349" x2="1136.3619" y2="192.6349"/><path class="j" d="M381.34,244.1348a14.4333,14.4333,0,0,1-.8476,5.0391,11.9511,11.9511,0,0,1-2.3545,3.9531,10.66,10.66,0,0,1-3.57,2.58,10.8713,10.8713,0,0,1-4.4922.9219,8.65,8.65,0,0,1-3.5625-.7051,7.8447,7.8447,0,0,1-2.7-1.957,8.6073,8.6073,0,0,1-1.71-2.9776,11.5548,11.5548,0,0,1-.5928-3.78,14.3846,14.3846,0,0,1,.8555-5.0468,12.0377,12.0377,0,0,1,2.37-3.9678,10.7192,10.7192,0,0,1,8.0547-3.5254,8.59,8.59,0,0,1,3.5625.7129,7.8183,7.8183,0,0,1,2.6924,1.9726,8.7384,8.7384,0,0,1,1.7022,2.9922A11.6283,11.6283,0,0,1,381.34,244.1348Zm-2.88.06a9.7906,9.7906,0,0,0-.42-2.9629,6.6161,6.6161,0,0,0-1.1924-2.2568,5.2743,5.2743,0,0,0-1.89-1.4405,5.99,5.99,0,0,0-2.5127-.51,7.2632,7.2632,0,0,0-5.7979,2.7451,9.6072,9.6072,0,0,0-1.665,3.1875,13.7634,13.7634,0,0,0-.5928,4.1777,9.8649,9.8649,0,0,0,.4131,2.9541,6.4129,6.4129,0,0,0,1.1924,2.25,5.2653,5.2653,0,0,0,1.89,1.4326,5.995,5.995,0,0,0,2.5049.503,7.5325,7.5325,0,0,0,3.2705-.7051,7.2571,7.2571,0,0,0,2.55-2.0176,9.5789,9.5789,0,0,0,1.6573-3.18A13.7635,13.7635,0,0,0,378.46,244.1944Z"/><path class="j" d="M387.1154,245.0489a9.46,9.46,0,0,1,2.7451-3.0371,5.5852,5.5852,0,0,1,3.15-1.0274,3.5665,3.5665,0,0,1,1.6875.3828,3.0628,3.0628,0,0,1,1.1846,1.1172,4.759,4.759,0,0,1,.6221,1.8076,8.9869,8.9869,0,0,1,0,2.4375l-1.14,9.6749H392.71l1.1407-9.6749a4.9126,4.9126,0,0,0-.2256-2.663,1.6327,1.6327,0,0,0-1.6045-.8623,3.1206,3.1206,0,0,0-1.4629.3906,5.6283,5.6283,0,0,0-1.4326,1.1094,9.2167,9.2167,0,0,0-1.2822,1.7324,12.11,12.11,0,0,0-1.0127,2.2578l-.87,7.71h-2.67l1.83-15.21h1.32a.7953.7953,0,0,1,.8994.9Z"/><path class="j" d="M413.7853,234.31,411.07,256.4044H409.675a.7911.7911,0,0,1-.7051-.27,1.1646,1.1646,0,0,1-.18-.66l.2842-3.1953a12.0584,12.0584,0,0,1-1.2441,1.7851,9.2733,9.2733,0,0,1-1.418,1.3652,6.1538,6.1538,0,0,1-1.5449.877,4.5177,4.5177,0,0,1-1.628.3076,3.59,3.59,0,0,1-3.0293-1.417,6.7017,6.7017,0,0,1-1.08-4.1181,12.1024,12.1024,0,0,1,.2548-2.46,12.7308,12.7308,0,0,1,.7276-2.3545,11.4763,11.4763,0,0,1,1.14-2.0928,8.6231,8.6231,0,0,1,1.4932-1.6728,6.835,6.835,0,0,1,1.7773-1.1094,5.053,5.053,0,0,1,2.002-.4053,4.6761,4.6761,0,0,1,2.0478.4424A4.4247,4.4247,0,0,1,410.14,242.68l1.0352-8.37Zm-3.87,10.2149a3.0932,3.0932,0,0,0-1.373-1.1328,4.3317,4.3317,0,0,0-1.627-.3223,3.4738,3.4738,0,0,0-2.13.7051,6.1982,6.1982,0,0,0-1.6132,1.8222,9.5688,9.5688,0,0,0-1.0274,2.4981,10.7112,10.7112,0,0,0-.3594,2.7148,4.84,4.84,0,0,0,.6368,2.7227,2.0734,2.0734,0,0,0,1.8232.9375,2.7715,2.7715,0,0,0,1.4541-.45,6.0021,6.0021,0,0,0,1.418-1.2529,10.9762,10.9762,0,0,0,1.2754-1.8975A15.0564,15.0564,0,0,0,409.42,248.47Z"/><path class="j" d="M424.45,252.4a13.1016,13.1016,0,0,1-1.1631,1.74,8.1248,8.1248,0,0,1-1.3193,1.3272,5.7545,5.7545,0,0,1-1.4707.8476,4.3721,4.3721,0,0,1-1.5977.3,3.7292,3.7292,0,0,1-1.6348-.3525,3.3958,3.3958,0,0,1-1.2519-1.0352,5.0223,5.0223,0,0,1-.8028-1.68,8.3287,8.3287,0,0,1-.2851-2.2871,10.2716,10.2716,0,0,1,.3379-2.6328,10.7128,10.7128,0,0,1,2.4521-4.5156,10.0257,10.0257,0,0,1,1.9424-1.6494,9.2245,9.2245,0,0,1,2.3027-1.08,8.6375,8.6375,0,0,1,2.58-.3828,11.2123,11.2123,0,0,1,1.8975.1582,7.9015,7.9015,0,0,1,1.8222.5469l-1.8154,14.7h-1.38a.8122.8122,0,0,1-.7119-.27,1.1309,1.1309,0,0,1-.1875-.66Zm1.0195-9.33a4.2726,4.2726,0,0,0-.6523-.0977q-.3223-.0219-.6377-.0224a5.2524,5.2524,0,0,0-1.74.2929,6.1659,6.1659,0,0,0-1.5742.8174,6.9883,6.9883,0,0,0-1.3349,1.252,8.1511,8.1511,0,0,0-1.0284,1.5976,9.1452,9.1452,0,0,0-.667,1.8526,8.4651,8.4651,0,0,0-.24,2.0176q0,3.6152,2.3106,3.6152a2.6121,2.6121,0,0,0,1.4394-.458,5.61,5.61,0,0,0,1.3428-1.2744,10.7623,10.7623,0,0,0,1.1777-1.9356,18.2506,18.2506,0,0,0,.96-2.4521Z"/><path class="j" d="M440.0793,249.7891q0,1.11.1055,2.3028.1039,1.1923.3076,2.3925.202,1.2.5175,2.3545a19.379,19.379,0,0,0,.72,2.16.8165.8165,0,0,1,.0224.69,1.1328,1.1328,0,0,1-.3828.39l-1.2148.69a20.175,20.175,0,0,1-1.0723-2.6631,26.5076,26.5076,0,0,1-1.1474-5.4824q-.1349-1.3491-.1348-2.5947a34.0619,34.0619,0,0,1,.2392-4.0879,22.2586,22.2586,0,0,1,.878-4.0118,26.4573,26.4573,0,0,1,1.747-4.1777,36.5642,36.5642,0,0,1,2.8653-4.583l1.0654.7051a.8727.8727,0,0,1,.2852.3906q.0892.24-.1953.6748a35.4877,35.4877,0,0,0-1.9649,3.4121,24.9956,24.9956,0,0,0-1.44,3.5029,24.4286,24.4286,0,0,0-.8926,3.7569A26.9351,26.9351,0,0,0,440.0793,249.7891Z"/><path class="j" d="M458.98,241.7647l-.1055.8848a.8335.8335,0,0,1-.6.72l-1.9053.33a4.9825,4.9825,0,0,1,.2852,1.7246,4.874,4.874,0,0,1-.1729,1.3506,6.4068,6.4068,0,0,1-.4267,1.11,9.1319,9.1319,0,0,1-.5557.96q-.3.45-.5547.8916a5.9361,5.9361,0,0,0-.4277.915,2.9735,2.9735,0,0,0-.1719,1.0283,2.1255,2.1255,0,0,0,.1416.7725,4.4969,4.4969,0,0,0,.36.72q.2167.3531.48.7129a6.4356,6.4356,0,0,1,.48.7647,4.82,4.82,0,0,1,.36.8769,3.6166,3.6166,0,0,1,.1426,1.043,4.4669,4.4669,0,0,1-.5108,2.0176,5.291,5.291,0,0,1-1.4092,1.6875,6.9973,6.9973,0,0,1-2.2207,1.1621,9.4138,9.4138,0,0,1-2.9394.4277,9.7587,9.7587,0,0,1-2.378-.2695,6.0208,6.0208,0,0,1-1.83-.7656,3.6489,3.6489,0,0,1-1.17-1.1924A2.97,2.97,0,0,1,443.44,258.1a3.4493,3.4493,0,0,1,.4053-1.6953,4.0688,4.0688,0,0,1,1.0947-1.2676,6.1765,6.1765,0,0,1,1.6045-.877,9.9813,9.9813,0,0,1,1.9424-.5107,12.8,12.8,0,0,1,2.1084-.1572,15.4992,15.4992,0,0,1,2.1143.1572,3.4537,3.4537,0,0,1-.2168-.5918,2.5428,2.5428,0,0,1-.083-.668,3.4764,3.4764,0,0,1,.1425-.96,6.1516,6.1516,0,0,1,.4727-1.125,4.6925,4.6925,0,0,1-1.2754.6074,5.4232,5.4232,0,0,1-1.6045.2177,4.5765,4.5765,0,0,1-1.6279-.2851,3.7867,3.7867,0,0,1-1.3272-.84,3.9273,3.9273,0,0,1-.9-1.3876,5.2551,5.2551,0,0,1-.33-1.9424,5.9268,5.9268,0,0,1,.3974-2.1231,5.59,5.59,0,0,1,3.0528-3.1719,6.39,6.39,0,0,1,2.5947-.4951,6.0046,6.0046,0,0,1,1.5449.1953,4.3637,4.3637,0,0,1,1.32.585Zm-5.1006,15.0147a3.4371,3.4371,0,0,0-.0742-.7422,4.1987,4.1987,0,0,0-.1953-.6377,16.285,16.285,0,0,0-3.42-.2325,7.9836,7.9836,0,0,0-2.3779.4424,3.1706,3.1706,0,0,0-1.3877.93,1.9471,1.9471,0,0,0-.4492,1.2305,1.8314,1.8314,0,0,0,.9072,1.6494,4.8456,4.8456,0,0,0,2.5723.57,5.8951,5.8951,0,0,0,1.8076-.2627,4.68,4.68,0,0,0,1.3955-.6972,3.2213,3.2213,0,0,0,.8994-1.02A2.5169,2.5169,0,0,0,453.8791,256.7794Zm-3.0147-7.2305a2.8631,2.8631,0,0,0,1.4327-.3516,3.34,3.34,0,0,0,1.05-.9306,4.3192,4.3192,0,0,0,.6523-1.2969,4.847,4.847,0,0,0,.2256-1.4551,2.7239,2.7239,0,0,0-.668-1.9951,2.4666,2.4666,0,0,0-1.8369-.6748,2.9752,2.9752,0,0,0-1.4258.3291,3.238,3.238,0,0,0-1.042.8857,3.968,3.968,0,0,0-.6455,1.26,4.9718,4.9718,0,0,0-.2168,1.47,2.9216,2.9216,0,0,0,.6524,2.0557A2.3589,2.3589,0,0,0,450.8644,249.5489Z"/><path class="j" d="M465.339,256.6143a5.917,5.917,0,0,1-2.28-.4277,5.0147,5.0147,0,0,1-1.7852-1.2373,5.7227,5.7227,0,0,1-1.17-1.98,7.8955,7.8955,0,0,1-.42-2.6709,10.7429,10.7429,0,0,1,.6006-3.6143,9.628,9.628,0,0,1,1.6494-2.9629,7.8985,7.8985,0,0,1,2.4677-2.0019,6.5312,6.5312,0,0,1,3.0528-.7354,5.907,5.907,0,0,1,2.2793.4278,5.0039,5.0039,0,0,1,1.7851,1.2373,5.7066,5.7066,0,0,1,1.17,1.98,7.8234,7.8234,0,0,1,.42,2.6552,10.7284,10.7284,0,0,1-.6,3.6006,9.82,9.82,0,0,1-1.6426,2.97,7.8519,7.8519,0,0,1-2.4678,2.0176A6.5233,6.5233,0,0,1,465.339,256.6143Zm.2549-2.0849a3.4873,3.4873,0,0,0,1.9873-.6,5.3877,5.3877,0,0,0,1.53-1.5976,8.0981,8.0981,0,0,0,.9824-2.3027,10.62,10.62,0,0,0,.3448-2.7305,5.0451,5.0451,0,0,0-.8321-3.1572,2.8646,2.8646,0,0,0-2.3926-1.0577,3.5469,3.5469,0,0,0-2.0029.5928,5.2518,5.2518,0,0,0-1.5224,1.583,8.0765,8.0765,0,0,0-.9747,2.2949,10.611,10.611,0,0,0-.3447,2.73,5.1473,5.1473,0,0,0,.8242,3.1729A2.8463,2.8463,0,0,0,465.5939,254.5294Z"/><path class="j" d="M475.3293,256.4044l2.6846-22.0948h2.625l-2.6846,22.0948Z"/><path class="j" d="M485.8137,245.334a12.3144,12.3144,0,0,1,1.2451-1.792,8.9424,8.9424,0,0,1,1.4248-1.373,6.2835,6.2835,0,0,1,1.5527-.877,4.5485,4.5485,0,0,1,1.6416-.3076,3.576,3.576,0,0,1,3.0225,1.41,6.7314,6.7314,0,0,1,1.0732,4.125,12.0879,12.0879,0,0,1-.2549,2.46,12.6573,12.6573,0,0,1-.7275,2.3477,11.6684,11.6684,0,0,1-1.1406,2.085,8.9527,8.9527,0,0,1-1.4844,1.68,6.6028,6.6028,0,0,1-1.7783,1.1171,5.1082,5.1082,0,0,1-2.01.4053,4.6252,4.6252,0,0,1-2.04-.4424,4.4506,4.4506,0,0,1-1.56-1.2529l-.81,6.63h-2.5948l2.4756-20.3545h1.3194a.7956.7956,0,0,1,.9.9Zm-.8106,7.74a3.2336,3.2336,0,0,0,1.3652,1.1328,4.1191,4.1191,0,0,0,1.62.3369,3.3545,3.3545,0,0,0,1.47-.33,4.6205,4.6205,0,0,0,1.26-.8916,6.5259,6.5259,0,0,0,1.02-1.32,9.2478,9.2478,0,0,0,.7578-1.62,11.1824,11.1824,0,0,0,.4717-1.7852,10.3092,10.3092,0,0,0,.165-1.8222,4.7556,4.7556,0,0,0-.6445-2.7149,2.0836,2.0836,0,0,0-1.8155-.9306,2.8106,2.8106,0,0,0-1.455.4433,5.9259,5.9259,0,0,0-1.417,1.2373,10.7819,10.7819,0,0,0-1.2754,1.89,15.0606,15.0606,0,0,0-1.0274,2.4Z"/><path class="j" d="M509.8137,253.6a13.3774,13.3774,0,0,1-1.5,1.3574,9.1282,9.1282,0,0,1-1.4922.9375,6.5473,6.5473,0,0,1-1.59.5469,8.8268,8.8268,0,0,1-1.7929.1728,6.005,6.005,0,0,1-2.34-.4346,4.8371,4.8371,0,0,1-1.7549-1.2382,5.5409,5.5409,0,0,1-1.11-1.9424,7.8469,7.8469,0,0,1-.39-2.55,11.1621,11.1621,0,0,1,.2471-2.3321,10.8865,10.8865,0,0,1,.7207-2.2128,9.9978,9.9978,0,0,1,1.1543-1.95,7.81,7.81,0,0,1,1.56-1.5528,7.3345,7.3345,0,0,1,1.9346-1.0273,6.753,6.753,0,0,1,2.2725-.375,5.45,5.45,0,0,1,1.9951.33,4.2539,4.2539,0,0,1,1.38.84,3.3711,3.3711,0,0,1,.8027,1.125,2.99,2.99,0,0,1,.2627,1.17,4.1083,4.1083,0,0,1-.4053,1.8233,3.7845,3.7845,0,0,1-1.4853,1.5,11.11,11.11,0,0,1-2.97,1.1621,32.7532,32.7532,0,0,1-4.8594.7949c0,.11-.0029.2178-.0078.3223s-.0078.2129-.0078.3232a4.6936,4.6936,0,0,0,.8779,3.0674,3.2412,3.2412,0,0,0,2.6474,1.0576,4.9641,4.9641,0,0,0,1.2823-.15,5.4759,5.4759,0,0,0,1.0049-.3672,4.5718,4.5718,0,0,0,.78-.48q.3369-.2622.6153-.4795a5.9787,5.9787,0,0,1,.5175-.3682.898.898,0,0,1,.48-.1494.6673.6673,0,0,1,.51.2549Zm-4.2295-10.6807a3.9036,3.9036,0,0,0-1.74.3906,4.6273,4.6273,0,0,0-1.41,1.0723,6.5581,6.5581,0,0,0-1.05,1.6045,9.5369,9.5369,0,0,0-.6748,1.9883,29.2392,29.2392,0,0,0,3.705-.6524,9.2072,9.2072,0,0,0,2.1446-.7959,2.3183,2.3183,0,0,0,.99-.9219,2.3546,2.3546,0,0,0,.24-1.0351,1.5,1.5,0,0,0-.5029-1.0947,2.0664,2.0664,0,0,0-.6826-.3975A2.9034,2.9034,0,0,0,505.5842,242.919Z"/><path class="j" d="M533.8283,234.31l-2.7158,22.0948H529.718a.7911.7911,0,0,1-.7051-.27,1.1646,1.1646,0,0,1-.18-.66l.2842-3.1953a12.0588,12.0588,0,0,1-1.2442,1.7851,9.2728,9.2728,0,0,1-1.4179,1.3652,6.1544,6.1544,0,0,1-1.545.877,4.5168,4.5168,0,0,1-1.6279.3076,3.59,3.59,0,0,1-3.0293-1.417,6.7016,6.7016,0,0,1-1.08-4.1181,12.1025,12.1025,0,0,1,.2549-2.46,12.7156,12.7156,0,0,1,.7276-2.3545,11.4763,11.4763,0,0,1,1.14-2.0928,8.6231,8.6231,0,0,1,1.4932-1.6728,6.835,6.835,0,0,1,1.7773-1.1094,5.053,5.053,0,0,1,2.002-.4053,4.6761,4.6761,0,0,1,2.0478.4424,4.4247,4.4247,0,0,1,1.5674,1.2529l1.0352-8.37Zm-3.87,10.2149a3.0934,3.0934,0,0,0-1.3731-1.1328,4.3308,4.3308,0,0,0-1.6269-.3223,3.4738,3.4738,0,0,0-2.13.7051,6.1971,6.1971,0,0,0-1.6133,1.8222,9.5721,9.5721,0,0,0-1.0273,2.4981,10.7067,10.7067,0,0,0-.3594,2.7148,4.8405,4.8405,0,0,0,.6367,2.7227,2.0735,2.0735,0,0,0,1.8233.9375,2.7715,2.7715,0,0,0,1.4541-.45,6,6,0,0,0,1.4179-1.2529,10.9706,10.9706,0,0,0,1.2754-1.8975,15.0566,15.0566,0,0,0,1.0274-2.3994Z"/><path class="j" d="M547.0578,253.6a13.3774,13.3774,0,0,1-1.5,1.3574,9.1239,9.1239,0,0,1-1.4922.9375,6.5465,6.5465,0,0,1-1.59.5469,8.8285,8.8285,0,0,1-1.793.1728,6.0049,6.0049,0,0,1-2.34-.4346,4.8363,4.8363,0,0,1-1.7549-1.2382,5.5411,5.5411,0,0,1-1.11-1.9424,7.85,7.85,0,0,1-.39-2.55,11.1619,11.1619,0,0,1,.247-2.3321,10.8927,10.8927,0,0,1,.7207-2.2128,10.0028,10.0028,0,0,1,1.1543-1.95,7.8075,7.8075,0,0,1,1.5606-1.5528,7.3345,7.3345,0,0,1,1.9346-1.0273,6.7524,6.7524,0,0,1,2.2724-.375,5.45,5.45,0,0,1,1.9951.33,4.2539,4.2539,0,0,1,1.38.84,3.37,3.37,0,0,1,.8028,1.125,2.99,2.99,0,0,1,.2627,1.17,4.1083,4.1083,0,0,1-.4053,1.8233,3.7854,3.7854,0,0,1-1.4854,1.5,11.1081,11.1081,0,0,1-2.97,1.1621,32.7532,32.7532,0,0,1-4.8594.7949c0,.11-.0029.2178-.0078.3223s-.0078.2129-.0078.3232a4.6942,4.6942,0,0,0,.8779,3.0674,3.2414,3.2414,0,0,0,2.6475,1.0576,4.9633,4.9633,0,0,0,1.2822-.15,5.4732,5.4732,0,0,0,1.0049-.3672,4.5728,4.5728,0,0,0,.78-.48q.3369-.2622.6152-.4795a5.9792,5.9792,0,0,1,.5176-.3682.8978.8978,0,0,1,.4795-.1494.6673.6673,0,0,1,.51.2549Zm-4.23-10.6807a3.9029,3.9029,0,0,0-1.74.3906,4.6277,4.6277,0,0,0-1.41,1.0723,6.5639,6.5639,0,0,0-1.05,1.6045,9.5485,9.5485,0,0,0-.6748,1.9883,29.2413,29.2413,0,0,0,3.7051-.6524,9.2062,9.2062,0,0,0,2.1445-.7959,2.3192,2.3192,0,0,0,.99-.9219,2.356,2.356,0,0,0,.24-1.0351,1.5,1.5,0,0,0-.5029-1.0947,2.0669,2.0669,0,0,0-.6827-.3975A2.9031,2.9031,0,0,0,542.8283,242.919Z"/><path class="j" d="M565.8674,252.4a13.1016,13.1016,0,0,1-1.1631,1.74,8.1252,8.1252,0,0,1-1.3194,1.3272,5.7511,5.7511,0,0,1-1.4707.8476,4.3712,4.3712,0,0,1-1.5976.3,3.7292,3.7292,0,0,1-1.6348-.3525,3.3958,3.3958,0,0,1-1.2519-1.0352,5.0223,5.0223,0,0,1-.8028-1.68,8.3287,8.3287,0,0,1-.2851-2.2871,10.2716,10.2716,0,0,1,.3379-2.6328,10.7128,10.7128,0,0,1,2.4521-4.5156,10.0257,10.0257,0,0,1,1.9424-1.6494,9.2229,9.2229,0,0,1,2.3027-1.08,8.6375,8.6375,0,0,1,2.58-.3828,11.2123,11.2123,0,0,1,1.8975.1582,7.9015,7.9015,0,0,1,1.8222.5469l-1.8154,14.7h-1.38a.8122.8122,0,0,1-.7119-.27,1.1309,1.1309,0,0,1-.1875-.66Zm1.0195-9.33a4.2726,4.2726,0,0,0-.6523-.0977q-.3224-.0219-.6377-.0224a5.2524,5.2524,0,0,0-1.74.2929,6.1659,6.1659,0,0,0-1.5742.8174,6.9918,6.9918,0,0,0-1.335,1.252,8.1552,8.1552,0,0,0-1.0283,1.5976,9.1391,9.1391,0,0,0-.667,1.8526,8.4651,8.4651,0,0,0-.24,2.0176q0,3.6152,2.3105,3.6152a2.6121,2.6121,0,0,0,1.4395-.458,5.61,5.61,0,0,0,1.3428-1.2744,10.7623,10.7623,0,0,0,1.1777-1.9356,18.2506,18.2506,0,0,0,.96-2.4521Z"/><path class="j" d="M575.6164,245.44a12.8977,12.8977,0,0,1,1.2969-2.2129,6.4766,6.4766,0,0,1,1.4629-1.47,3.6246,3.6246,0,0,1,1.5752-.6455,3.0661,3.0661,0,0,1,1.6494.248l-.48,2.5645a3.0707,3.0707,0,0,0-3.4424.57,10.0213,10.0213,0,0,0-2.4229,4.875l-.84,7.0352h-2.61l1.83-15.21h1.32a.8025.8025,0,0,1,.9151.9Z"/><path class="j" d="M586.6711,241.209l-1.83,15.1954h-2.625l1.83-15.1954Zm1.0195-4.7695a1.7084,1.7084,0,0,1-.1572.7275,2.1082,2.1082,0,0,1-.42.6,1.9845,1.9845,0,0,1-.6006.413,1.7014,1.7014,0,0,1-.6973.1495,1.6194,1.6194,0,0,1-.6748-.1495,1.8369,1.8369,0,0,1-.5771-.413,2.1154,2.1154,0,0,1-.3975-.6,1.7638,1.7638,0,0,1-.15-.7275,1.8171,1.8171,0,0,1,.15-.7353,2.0148,2.0148,0,0,1,.4043-.6075,2.04,2.04,0,0,1,.585-.42,1.562,1.562,0,0,1,.6757-.1572,1.71,1.71,0,0,1,.6973.1494,1.9174,1.9174,0,0,1,.5928.4131,2.1124,2.1124,0,0,1,.4121.6152A1.8049,1.8049,0,0,1,587.6906,236.44Z"/><path class="j" d="M600.9211,253.6a13.3774,13.3774,0,0,1-1.5,1.3574,9.1282,9.1282,0,0,1-1.4922.9375,6.5473,6.5473,0,0,1-1.59.5469,8.8268,8.8268,0,0,1-1.7929.1728,6.0057,6.0057,0,0,1-2.34-.4346,4.8359,4.8359,0,0,1-1.7548-1.2382,5.5411,5.5411,0,0,1-1.11-1.9424,7.847,7.847,0,0,1-.39-2.55,11.1619,11.1619,0,0,1,.247-2.3321,10.8927,10.8927,0,0,1,.7207-2.2128,9.9978,9.9978,0,0,1,1.1543-1.95,7.8075,7.8075,0,0,1,1.5606-1.5528,7.3339,7.3339,0,0,1,1.9345-1.0273,6.753,6.753,0,0,1,2.2725-.375,5.45,5.45,0,0,1,1.9951.33,4.2539,4.2539,0,0,1,1.38.84,3.37,3.37,0,0,1,.8027,1.125,2.99,2.99,0,0,1,.2627,1.17,4.1082,4.1082,0,0,1-.4052,1.8233,3.7854,3.7854,0,0,1-1.4854,1.5,11.11,11.11,0,0,1-2.97,1.1621,32.7532,32.7532,0,0,1-4.8594.7949c0,.11-.0029.2178-.0078.3223s-.0078.2129-.0078.3232a4.6936,4.6936,0,0,0,.8779,3.0674,3.2414,3.2414,0,0,0,2.6475,1.0576,4.9633,4.9633,0,0,0,1.2822-.15,5.4732,5.4732,0,0,0,1.0049-.3672,4.5728,4.5728,0,0,0,.78-.48q.3369-.2622.6152-.4795a5.9792,5.9792,0,0,1,.5176-.3682.8975.8975,0,0,1,.48-.1494.6673.6673,0,0,1,.51.2549Zm-4.23-10.6807a3.9029,3.9029,0,0,0-1.74.3906,4.6277,4.6277,0,0,0-1.41,1.0723,6.5581,6.5581,0,0,0-1.05,1.6045,9.5485,9.5485,0,0,0-.6748,1.9883,29.2413,29.2413,0,0,0,3.7051-.6524,9.2062,9.2062,0,0,0,2.1445-.7959,2.3183,2.3183,0,0,0,.99-.9219,2.3548,2.3548,0,0,0,.24-1.0351,1.5007,1.5007,0,0,0-.503-1.0947,2.0664,2.0664,0,0,0-.6826-.3975A2.9034,2.9034,0,0,0,596.6916,242.919Z"/><path class="j" d="M604.5207,253.5391v-.2324c0-.0947.0078-.2324.0225-.4121s.04-.4151.0751-.7051.0821-.67.1426-1.1406l.93-7.6045h-1.6953a.4311.4311,0,0,1-.3369-.1426.5588.5588,0,0,1-.0977-.4424l.12-1.0654,2.34-.3145,1.14-4.6953a.8575.8575,0,0,1,.2325-.3672.574.574,0,0,1,.3984-.1425h1.3945l-.6445,5.2353h3.9893l-.2247,1.9346H608.301l-.9151,7.47c-.0508.41-.09.74-.12.99s-.0527.45-.0674.6-.0254.2558-.03.3154-.0079.1045-.0079.1348a1.5637,1.5637,0,0,0,.36,1.1328,1.2819,1.2819,0,0,0,.96.3672,1.9347,1.9347,0,0,0,.6972-.1123,3.3271,3.3271,0,0,0,.5176-.2471,4.4574,4.4574,0,0,0,.375-.2481.4566.4566,0,0,1,.2549-.1123.3017.3017,0,0,1,.2031.06.5771.5771,0,0,1,.127.1953l.57,1.2754a5.6177,5.6177,0,0,1-1.6729,1.0117,5.1192,5.1192,0,0,1-1.8818.3682,3.1766,3.1766,0,0,1-2.2881-.7949A3.1364,3.1364,0,0,1,604.5207,253.5391Z"/><path class="j" d="M625.91,253.6a13.36,13.36,0,0,1-1.5,1.3574,9.1274,9.1274,0,0,1-1.4921.9375,6.5473,6.5473,0,0,1-1.59.5469,8.8278,8.8278,0,0,1-1.793.1728,6.0049,6.0049,0,0,1-2.34-.4346,4.8371,4.8371,0,0,1-1.7549-1.2382,5.5394,5.5394,0,0,1-1.11-1.9424,7.8469,7.8469,0,0,1-.39-2.55,11.1554,11.1554,0,0,1,.2471-2.3321,10.8865,10.8865,0,0,1,.7207-2.2128,9.9928,9.9928,0,0,1,1.1543-1.95,7.81,7.81,0,0,1,1.5605-1.5528,7.3345,7.3345,0,0,1,1.9346-1.0273,6.753,6.753,0,0,1,2.2725-.375,5.45,5.45,0,0,1,1.9951.33,4.255,4.255,0,0,1,1.38.84,3.3711,3.3711,0,0,1,.8027,1.125,2.99,2.99,0,0,1,.2627,1.17,4.1083,4.1083,0,0,1-.4053,1.8233,3.7845,3.7845,0,0,1-1.4853,1.5,11.11,11.11,0,0,1-2.97,1.1621,32.7493,32.7493,0,0,1-4.8593.7949c0,.11-.003.2178-.0078.3223s-.0079.2129-.0079.3232a4.6936,4.6936,0,0,0,.878,3.0674,3.2412,3.2412,0,0,0,2.6474,1.0576,4.9641,4.9641,0,0,0,1.2823-.15,5.4721,5.4721,0,0,0,1.0048-.3672,4.5689,4.5689,0,0,0,.78-.48q.3369-.2622.6152-.4795a5.9946,5.9946,0,0,1,.5176-.3682.898.898,0,0,1,.48-.1494.6673.6673,0,0,1,.51.2549Zm-4.23-10.6807a3.9035,3.9035,0,0,0-1.74.3906,4.6261,4.6261,0,0,0-1.41,1.0723,6.5581,6.5581,0,0,0-1.05,1.6045,9.5429,9.5429,0,0,0-.6749,1.9883,29.238,29.238,0,0,0,3.7051-.6524,9.2072,9.2072,0,0,0,2.1446-.7959,2.3189,2.3189,0,0,0,.99-.9219,2.3546,2.3546,0,0,0,.24-1.0351,1.5,1.5,0,0,0-.5029-1.0947,2.0664,2.0664,0,0,0-.6826-.3975A2.9036,2.9036,0,0,0,621.6808,242.919Z"/><path class="j" d="M631.715,244.15q0-1.0942-.1054-2.295t-.3223-2.4q-.2168-1.2-.5244-2.3545a18.6166,18.6166,0,0,0-.7129-2.16.8028.8028,0,0,1-.03-.6748,1.08,1.08,0,0,1,.375-.3906l1.2451-.7051a22.63,22.63,0,0,1,1.0576,2.67,24.5925,24.5925,0,0,1,.72,2.7451q.2783,1.3813.4131,2.7305t.1347,2.6094a34.06,34.06,0,0,1-.24,4.0879,22.6633,22.6633,0,0,1-.87,4.0127,25.8013,25.8013,0,0,1-1.7393,4.17A36.8592,36.8592,0,0,1,628.25,260.77l-1.0654-.69a.9393.9393,0,0,1-.18-.1651.53.53,0,0,1-.1055-.2168.6325.6325,0,0,1,.0156-.3008,1.36,1.36,0,0,1,.1944-.3974,34.8824,34.8824,0,0,0,1.95-3.45,26.4554,26.4554,0,0,0,1.4472-3.5772,24.988,24.988,0,0,0,.9-3.78A25.8083,25.8083,0,0,0,631.715,244.15Z"/><path class="l" d="M267.702,255.3531q0-31.8948,3.1427-63.0073H214.22q-2.84,31.2584-2.8543,63.0073,0,24.5994,1.72,48.923h56.5066Q267.7177,280.0563,267.702,255.3531Z"/><line class="m" x1="331.3823" y1="248.2576" x2="160.8991" y2="248.2576"/><polygon class="j" points="165.955 241.592 163.123 248.258 165.955 254.923 150.154 248.258 165.955 241.592"/><path class="n" d="M881.8292,109.824c16.8086,0,14.64-72.713,28.7374-72.713s3.2533,62.36,26.0264,62.36,15.182-47.7445,24.9419-47.7445,1.6266,38.4879,16.2665,38.4879,10.8443-24.3594,22.2308-24.3594,3.7955,17.0516,14.0976,17.0516,7.2139-12.18,17.516-12.18,6.8837,10.231,16.1014,10.231,7.591-5.3591,15.7243-5.3591,8.1332,5.3591,15.182,5.3591"/><path class="b" d="M407.6535,48.6461V36.0454a1.4908,1.4908,0,0,1,2.545-1.0542l6.3,6.3a1.4908,1.4908,0,0,1,0,2.1083l-6.3,6.3A1.4908,1.4908,0,0,1,407.6535,48.6461Z"/><path class="b" d="M459.6535,48.6461V36.0454a1.4908,1.4908,0,0,1,2.545-1.0542l6.3,6.3a1.4908,1.4908,0,0,1,0,2.1083l-6.3,6.3A1.4908,1.4908,0,0,1,459.6535,48.6461Z"/><path class="b" d="M511.6535,48.6461V36.0454a1.4908,1.4908,0,0,1,2.545-1.0542l6.3,6.3a1.4908,1.4908,0,0,1,0,2.1083l-6.3,6.3A1.4908,1.4908,0,0,1,511.6535,48.6461Z"/><path class="b" d="M563.6535,48.6461V36.0454a1.4908,1.4908,0,0,1,2.545-1.0542l6.3,6.3a1.4908,1.4908,0,0,1,0,2.1083l-6.3,6.3A1.4908,1.4908,0,0,1,563.6535,48.6461Z"/><path class="b" d="M615.6535,48.6461V36.0454a1.4908,1.4908,0,0,1,2.545-1.0542l6.3,6.3a1.4908,1.4908,0,0,1,0,2.1083l-6.3,6.3A1.4908,1.4908,0,0,1,615.6535,48.6461Z"/><path class="b" d="M667.6535,48.6461V36.0454a1.4908,1.4908,0,0,1,2.545-1.0542l6.3,6.3a1.4908,1.4908,0,0,1,0,2.1083l-6.3,6.3A1.4908,1.4908,0,0,1,667.6535,48.6461Z"/><path class="b" d="M719.6535,48.6461V36.0454a1.4908,1.4908,0,0,1,2.545-1.0542l6.3,6.3a1.4908,1.4908,0,0,1,0,2.1083l-6.3,6.3A1.4908,1.4908,0,0,1,719.6535,48.6461Z"/><path class="b" d="M771.6535,48.6461V36.0454a1.4908,1.4908,0,0,1,2.545-1.0542l6.3,6.3a1.4908,1.4908,0,0,1,0,2.1083l-6.3,6.3A1.4908,1.4908,0,0,1,771.6535,48.6461Z"/><path class="b" d="M823.6535,48.6461V36.0454a1.4908,1.4908,0,0,1,2.545-1.0542l6.3,6.3a1.4908,1.4908,0,0,1,0,2.1083l-6.3,6.3A1.4908,1.4908,0,0,1,823.6535,48.6461Z"/></svg>