<svg xmlns="http://www.w3.org/2000/svg" viewBox="0 0 413.717 169.7846"><defs><style>.a{fill:#606060;}.b,.c{fill:none;stroke:#606060;stroke-width:3px;}.b{stroke-miterlimit:10;}.c{stroke-linecap:round;stroke-linejoin:round;opacity:0.7;}</style></defs><title>0_graph</title><path class="a" d="M242.6484,148.7378h-5.4863l-2.0547,16.5879H232.69l2.0283-16.5879h-5.5117l.2334-2.0411h13.455Z" transform="translate(-1.2734)"/><path class="a" d="M246.73,152.1567l-1.5859,13.169h-2.2745l1.586-13.169Zm.8838-4.1338a1.4552,1.4552,0,0,1-.1367.63,1.7936,1.7936,0,0,1-.3633.52,1.7382,1.7382,0,0,1-.52.3574,1.4721,1.4721,0,0,1-.6055.13,1.3886,1.3886,0,0,1-.584-.13,1.5878,1.5878,0,0,1-.501-.3574,1.8113,1.8113,0,0,1-.3447-.52,1.541,1.541,0,0,1-.13-.63,1.5986,1.5986,0,0,1,.13-.6377,1.7243,1.7243,0,0,1,.3516-.5263,1.7537,1.7537,0,0,1,.5058-.3633,1.34,1.34,0,0,1,.586-.1367,1.4662,1.4662,0,0,1,.6035.13,1.6308,1.6308,0,0,1,.5136.3575,1.7738,1.7738,0,0,1,.3575.5332A1.5447,1.5447,0,0,1,247.6133,148.0229Z" transform="translate(-1.2734)"/><path class="a" d="M259.08,162.895a11.6136,11.6136,0,0,1-1.3008,1.1758,7.7943,7.7943,0,0,1-1.293.8125,5.6822,5.6822,0,0,1-1.3779.4746,7.6627,7.6627,0,0,1-1.5537.1494,5.1742,5.1742,0,0,1-2.0274-.377,4.1876,4.1876,0,0,1-1.5214-1.0722,4.8393,4.8393,0,0,1-.9629-1.6836,6.8177,6.8177,0,0,1-.3379-2.21,9.7129,9.7129,0,0,1,.2148-2.0215,9.4581,9.4581,0,0,1,.624-1.917,8.7269,8.7269,0,0,1,1.001-1.69,6.788,6.788,0,0,1,1.3516-1.3457,6.3669,6.3669,0,0,1,1.6777-.8906,5.8727,5.8727,0,0,1,1.9688-.3242,4.73,4.73,0,0,1,1.7295.2851,3.6926,3.6926,0,0,1,1.1963.7285,2.9266,2.9266,0,0,1,.6953.9747,2.574,2.574,0,0,1,.2275,1.0146,3.5551,3.5551,0,0,1-.3506,1.5791,3.289,3.289,0,0,1-1.2871,1.3,9.6124,9.6124,0,0,1-2.5742,1.0078,28.2992,28.2992,0,0,1-4.2119.6885c0,.0957-.003.1885-.0069.28s-.0058.1836-.0058.2793a4.0671,4.0671,0,0,0,.76,2.6582,2.8107,2.8107,0,0,0,2.295.917,4.353,4.353,0,0,0,1.1113-.13,4.7408,4.7408,0,0,0,.8711-.3194,3.819,3.819,0,0,0,.6758-.416q.2929-.2269.5332-.416a5.226,5.226,0,0,1,.4492-.3183.78.78,0,0,1,.415-.13.5826.5826,0,0,1,.4424.2207Zm-3.666-9.2559a3.3686,3.3686,0,0,0-1.5078.3379,4.0274,4.0274,0,0,0-1.2227.9287,5.6988,5.6988,0,0,0-.91,1.3916,8.2777,8.2777,0,0,0-.5849,1.7227,25.4014,25.4014,0,0,0,3.2119-.5654,8.0269,8.0269,0,0,0,1.8584-.69,1.79,1.79,0,0,0,1.0654-1.6963,1.2983,1.2983,0,0,0-.4355-.9492,1.801,1.801,0,0,0-.5908-.3447A2.537,2.537,0,0,0,255.4141,153.6391Z" transform="translate(-1.2734)"/><path class="a" d="M261.1592,165.3257l1.5859-13.1817h1.1436a.6946.6946,0,0,1,.7929.7793l-.1816,2.3408a8.1265,8.1265,0,0,1,2.1387-2.4638,4.1032,4.1032,0,0,1,2.4375-.8389,2.2419,2.2419,0,0,1,1.9765.917,4.5643,4.5643,0,0,1,.6368,2.6191,7.5909,7.5909,0,0,1,2.2031-2.6709,4.4279,4.4279,0,0,1,2.5937-.8652,2.4933,2.4933,0,0,1,2.3916,1.3,6.2581,6.2581,0,0,1,.416,3.68l-.9873,8.3848h-2.289l1.0019-8.3848a5.29,5.29,0,0,0-.0976-2.3008,1.1891,1.1891,0,0,0-1.2549-.7549,2.4406,2.4406,0,0,0-1.1113.28,4.0689,4.0689,0,0,0-1.0733.8184,6.5709,6.5709,0,0,0-.9678,1.3388,10.9149,10.9149,0,0,0-.8,1.84v.0127l-.8447,7.15H268.582l.9883-8.3848a5.6461,5.6461,0,0,0-.0527-2.3008,1.1293,1.1293,0,0,0-1.2217-.7549,2.4971,2.4971,0,0,0-1.2021.3125,3.9217,3.9217,0,0,0-1.0918.9033,7.388,7.388,0,0,0-.9561,1.4434,14.0022,14.0022,0,0,0-.8057,1.917l-.8193,6.8643Z" transform="translate(-1.2734)"/><path class="a" d="M284.9229,155.7319a10.6256,10.6256,0,0,1,1.0791-1.5537,7.7785,7.7785,0,0,1,1.2343-1.19,5.4719,5.4719,0,0,1,1.3457-.7607,3.95,3.95,0,0,1,1.4239-.2666,3.099,3.099,0,0,1,2.6191,1.2227,5.8294,5.8294,0,0,1,.93,3.5742,10.48,10.48,0,0,1-.2207,2.1328,10.87,10.87,0,0,1-.6309,2.0342,9.9755,9.9755,0,0,1-.9883,1.8066,7.7246,7.7246,0,0,1-1.2861,1.4561,5.7347,5.7347,0,0,1-1.54.9687,4.4347,4.4347,0,0,1-1.7422.3506,4.0187,4.0187,0,0,1-1.7686-.3828,3.87,3.87,0,0,1-1.3525-1.086l-.7012,5.7461h-2.249l2.1455-17.6406h1.1426a.69.69,0,0,1,.7812.7793Zm-.7022,6.708a2.8078,2.8078,0,0,0,1.1836.9815,3.5709,3.5709,0,0,0,1.4043.292,2.9065,2.9065,0,0,0,1.2734-.2862,4.0027,4.0027,0,0,0,1.0918-.7734,5.63,5.63,0,0,0,.8848-1.1436,7.99,7.99,0,0,0,.6562-1.4043,9.6725,9.6725,0,0,0,.4092-1.5468,9.0115,9.0115,0,0,0,.1436-1.5791,4.1285,4.1285,0,0,0-.56-2.3536,1.8046,1.8046,0,0,0-1.5732-.8056,2.43,2.43,0,0,0-1.2608.3838,5.1026,5.1026,0,0,0-1.2285,1.0722,9.242,9.242,0,0,0-1.1045,1.6377,12.9407,12.9407,0,0,0-.8906,2.08Z" transform="translate(-1.2734)"/><path class="a" d="M300.2627,165.5073a5.123,5.123,0,0,1-1.9756-.37,4.3407,4.3407,0,0,1-1.5469-1.0723,4.9557,4.9557,0,0,1-1.0146-1.7158,6.8163,6.8163,0,0,1-.3643-2.3145,9.3219,9.3219,0,0,1,.52-3.1328,8.3548,8.3548,0,0,1,1.43-2.5674,6.8353,6.8353,0,0,1,2.1387-1.7353,5.6612,5.6612,0,0,1,2.6455-.6377,5.1333,5.1333,0,0,1,1.9766.3711,4.3482,4.3482,0,0,1,1.5468,1.0723,4.9516,4.9516,0,0,1,1.0137,1.7158,6.7954,6.7954,0,0,1,.3633,2.3008,9.2844,9.2844,0,0,1-.5195,3.12,8.5033,8.5033,0,0,1-1.4239,2.5742,6.7789,6.7789,0,0,1-2.1386,1.748A5.6428,5.6428,0,0,1,300.2627,165.5073Zm.2217-1.8066a3.0184,3.0184,0,0,0,1.7217-.52,4.6673,4.6673,0,0,0,1.3261-1.3847,7.0346,7.0346,0,0,0,.8516-1.9961,9.22,9.22,0,0,0,.2988-2.3653,4.37,4.37,0,0,0-.7217-2.7373,2.4831,2.4831,0,0,0-2.0732-.916,3.064,3.064,0,0,0-1.7354.5137,4.5515,4.5515,0,0,0-1.32,1.3711,7.0451,7.0451,0,0,0-.8437,1.9892,9.1834,9.1834,0,0,0-.2988,2.3662,4.4525,4.4525,0,0,0,.7148,2.7491A2.4635,2.4635,0,0,0,300.4844,163.7007Z" transform="translate(-1.2734)"/><path class="a" d="M8.6836,53.6967a8.462,8.462,0,0,1,2.5742.3506,4.8017,4.8017,0,0,1,1.8008,1.001,4.0856,4.0856,0,0,1,1.06,1.5606,5.604,5.604,0,0,1,.3506,2.0273,7.3493,7.3493,0,0,1-.48,2.6982A5.8673,5.8673,0,0,1,12.59,63.4467a6.43,6.43,0,0,1-2.2617,1.3848,8.7945,8.7945,0,0,1-3.0742.5H4.55l-.8584,6.9942H1.2734l2.2754-18.629Zm-1.1953,9.711A5.2116,5.2116,0,0,0,9.4375,63.07a3.9357,3.9357,0,0,0,1.418-.9424,4.0682,4.0682,0,0,0,.8711-1.4433,5.4033,5.4033,0,0,0,.2988-1.8262,3.9061,3.9061,0,0,0-.2207-1.3526,2.69,2.69,0,0,0-.6641-1.02,2.9566,2.9566,0,0,0-1.1172-.6494A4.9488,4.9488,0,0,0,8.45,55.6079H5.7461l-.9619,7.8Z" transform="translate(-1.2734)"/><path class="a" d="M18.6807,62.8227a11.2516,11.2516,0,0,1,1.124-1.9179,5.651,5.651,0,0,1,1.2676-1.2735,3.1454,3.1454,0,0,1,1.3652-.56,2.6569,2.6569,0,0,1,1.43.2149l-.416,2.2226a2.66,2.66,0,0,0-2.9824.4942,8.6735,8.6735,0,0,0-2.1,4.2256l-.7285,6.0967H15.3789L16.9648,59.144h1.1446a.6954.6954,0,0,1,.7929.7793Z" transform="translate(-1.2734)"/><path class="a" d="M34.6318,69.895a11.68,11.68,0,0,1-1.3,1.1758,7.835,7.835,0,0,1-1.2929.8125,5.7043,5.7043,0,0,1-1.3789.4746,7.6473,7.6473,0,0,1-1.5528.1494,5.1788,5.1788,0,0,1-2.0283-.377,4.1842,4.1842,0,0,1-1.5205-1.0722,4.8267,4.8267,0,0,1-.9629-1.6836,6.8177,6.8177,0,0,1-.3379-2.21,9.713,9.713,0,0,1,.2149-2.0215,9.4434,9.4434,0,0,1,.623-1.917,8.721,8.721,0,0,1,1.002-1.69A6.7613,6.7613,0,0,1,27.4492,60.19a6.366,6.366,0,0,1,1.6778-.8906,5.8679,5.8679,0,0,1,1.9687-.3242,4.72,4.72,0,0,1,1.7285.2851,3.687,3.687,0,0,1,1.1973.7285,2.9394,2.9394,0,0,1,.6953.9747,2.5878,2.5878,0,0,1,.2266,1.0146,3.5565,3.5565,0,0,1-.3506,1.5791,3.2764,3.2764,0,0,1-1.2871,1.3,9.6062,9.6062,0,0,1-2.5733,1.0078,28.293,28.293,0,0,1-4.2129.6885c0,.0957-.0019.1885-.0058.28s-.0069.1836-.0069.2793a4.0614,4.0614,0,0,0,.7608,2.6582,2.8092,2.8092,0,0,0,2.2949.917,4.3585,4.3585,0,0,0,1.1113-.13,4.7653,4.7653,0,0,0,.8711-.3194,3.8521,3.8521,0,0,0,.6758-.416c.1953-.1513.3721-.29.5332-.416a5.2529,5.2529,0,0,1,.4482-.3183.78.78,0,0,1,.4151-.13.5844.5844,0,0,1,.4433.2207Zm-3.666-9.2559a3.3719,3.3719,0,0,0-1.5078.3379,4.0234,4.0234,0,0,0-1.2217.9287,5.67,5.67,0,0,0-.91,1.3916A8.28,8.28,0,0,0,26.74,65.02a25.3649,25.3649,0,0,0,3.2119-.5654,8.0073,8.0073,0,0,0,1.8584-.69,1.7937,1.7937,0,0,0,1.0665-1.6963,1.2989,1.2989,0,0,0-.4356-.9492,1.8148,1.8148,0,0,0-.5918-.3447A2.5292,2.5292,0,0,0,30.9658,60.6391Z" transform="translate(-1.2734)"/><path class="a" d="M45.2,61.2622a.8136.8136,0,0,1-.208.2275.4473.4473,0,0,1-.26.0723.7266.7266,0,0,1-.3965-.1436c-.1425-.0947-.3164-.2011-.52-.3183a4.2256,4.2256,0,0,0-.748-.3252,3.3522,3.3522,0,0,0-1.0664-.1494,3.31,3.31,0,0,0-1.0655.163,2.5455,2.5455,0,0,0-.8252.4483,2.0127,2.0127,0,0,0-.5332.6689,1.8181,1.8181,0,0,0-.1894.8125,1.2477,1.2477,0,0,0,.4043.9756,3.671,3.671,0,0,0,1.0136.63q.6094.2665,1.3125.5137a6.7528,6.7528,0,0,1,1.3125.624,3.363,3.363,0,0,1,1.0147.9619,2.6323,2.6323,0,0,1,.4033,1.5215,4.3758,4.3758,0,0,1-1.3848,3.2041,5.06,5.06,0,0,1-1.6113,1.0078,5.6563,5.6563,0,0,1-2.1133.377,5.254,5.254,0,0,1-2.23-.4483,4.6321,4.6321,0,0,1-1.5791-1.15l.5723-.8847a.974.974,0,0,1,.2529-.26.6349.6349,0,0,1,.7735.0908c.1386.1221.3115.2588.5205.41a3.2,3.2,0,0,0,1.9883.5908,3.2214,3.2214,0,0,0,1.15-.1943,2.7,2.7,0,0,0,.871-.52,2.2128,2.2128,0,0,0,.5469-.7608,2.3211,2.3211,0,0,0,.1875-.9287,1.403,1.403,0,0,0-.4023-1.0537,3.3082,3.3082,0,0,0-1.0137-.6494q-.6123-.2609-1.3135-.4873a6.73,6.73,0,0,1-1.3134-.585,3.2078,3.2078,0,0,1-1.0137-.93,2.5934,2.5934,0,0,1-.4024-1.5215,4.0223,4.0223,0,0,1,.3311-1.6054,4.14,4.14,0,0,1,.956-1.3711,4.6965,4.6965,0,0,1,1.5137-.9561,5.3552,5.3552,0,0,1,2.0088-.3574,5.1685,5.1685,0,0,1,2.0869.3965,4.8167,4.8167,0,0,1,1.5528,1.0732Z" transform="translate(-1.2734)"/><path class="a" d="M51.1016,59.1567l-1.586,13.169H47.2412l1.5859-13.169Zm.8847-4.1338a1.4552,1.4552,0,0,1-.1367.63,1.8288,1.8288,0,0,1-.3633.52,1.74,1.74,0,0,1-.52.3574,1.4706,1.4706,0,0,1-.6045.13,1.3956,1.3956,0,0,1-.5849-.13,1.5969,1.5969,0,0,1-.501-.3574,1.8293,1.8293,0,0,1-.3438-.52,1.5254,1.5254,0,0,1-.1308-.63,1.5823,1.5823,0,0,1,.1308-.6377,1.7477,1.7477,0,0,1,.8575-.89,1.3359,1.3359,0,0,1,.5849-.1367,1.47,1.47,0,0,1,.6045.13,1.6437,1.6437,0,0,1,.5137.3575,1.8114,1.8114,0,0,1,.3574.5332A1.5447,1.5447,0,0,1,51.9863,55.0229Z" transform="translate(-1.2734)"/><path class="a" d="M57.9922,72.5073a5.1349,5.1349,0,0,1-1.9766-.37,4.3473,4.3473,0,0,1-1.5468-1.0723,4.9387,4.9387,0,0,1-1.0137-1.7158,6.8416,6.8416,0,0,1-.3633-2.3145,9.319,9.319,0,0,1,.52-3.1328,8.3342,8.3342,0,0,1,1.43-2.5674A6.8556,6.8556,0,0,1,57.18,59.5991a5.6612,5.6612,0,0,1,2.6455-.6377,5.1214,5.1214,0,0,1,1.9756.3711,4.34,4.34,0,0,1,1.5469,1.0723,4.9548,4.9548,0,0,1,1.0146,1.7158,6.77,6.77,0,0,1,.3643,2.3008,9.2849,9.2849,0,0,1-.52,3.12,8.5226,8.5226,0,0,1-1.4229,2.5742,6.8227,6.8227,0,0,1-2.1387,1.748A5.6519,5.6519,0,0,1,57.9922,72.5073Zm.2207-1.8066a3.0187,3.0187,0,0,0,1.7226-.52,4.6788,4.6788,0,0,0,1.3262-1.3847A7.0062,7.0062,0,0,0,62.1133,66.8a9.22,9.22,0,0,0,.2988-2.3653,4.3763,4.3763,0,0,0-.7207-2.7373,2.4864,2.4864,0,0,0-2.0742-.916,3.064,3.064,0,0,0-1.7354.5137,4.525,4.525,0,0,0-1.3193,1.3711,7.0159,7.0159,0,0,0-.8457,1.9892,9.2272,9.2272,0,0,0-.2988,2.3662,4.4592,4.4592,0,0,0,.7148,2.7491A2.4635,2.4635,0,0,0,58.2129,70.7007Zm5.6426-17.212-3.1719,3.3536a1.2823,1.2823,0,0,1-.3516.28.9335.9335,0,0,1-.416.084H58.6426l2.1191-3.1455a1.4071,1.4071,0,0,1,.4092-.4355,1.1255,1.1255,0,0,1,.6045-.1368Z" transform="translate(-1.2734)"/><path class="a" d="M69.9,62.4848a8.19,8.19,0,0,1,2.3789-2.6328,4.8347,4.8347,0,0,1,2.7295-.8906,3.0857,3.0857,0,0,1,1.4619.332,2.6443,2.6443,0,0,1,1.0273.9678,4.1289,4.1289,0,0,1,.54,1.5674,7.86,7.86,0,0,1,0,2.1123L77.05,72.3257H74.749l.9873-8.3848a4.26,4.26,0,0,0-.1943-2.3076,1.4157,1.4157,0,0,0-1.3916-.7481,2.7125,2.7125,0,0,0-1.2676.3389,4.875,4.875,0,0,0-1.24.9619A7.9731,7.9731,0,0,0,70.53,63.687a10.519,10.519,0,0,0-.878,1.957l-.7539,6.6817H66.585L68.1709,59.144h1.1436a.6891.6891,0,0,1,.78.7793Z" transform="translate(-1.2734)"/><polyline class="b" points="413.658 128.985 119.658 128.985 119.658 0"/><path class="c" d="M122.3728,94.9669c24.8613,0,17.33-67.9743,38.1813-67.9743s9.1354,58.2962,42.8184,58.2962,22.4553-44.633,36.8909-44.633,3.8471,35.98,25.5,35.98,12.4366-23.8466,29.2781-23.8466,9.9374,18.09,25.175,18.09,9.2287-13.5354,24.4662-13.5354,10.9021,10.639,24.5358,10.639,10.507-5.01,22.5367-5.01,11.3091,5.01,21.7348,5.01" transform="translate(-1.2734)"/></svg>