<svg xmlns="http://www.w3.org/2000/svg" viewBox="0 0 1159.1535 313.2741"><defs><style>.a{fill:#d91519;}.b{opacity:0.5;}.c,.g,.h,.j,.k,.l,.n{fill:none;}.c,.d,.n{stroke:#606060;}.c,.d,.e,.g,.h,.k{stroke-miterlimit:10;}.c,.d,.e,.g,.j,.k,.l{stroke-width:3px;}.d,.e,.i{fill:#fff;}.e,.g,.l{stroke:#d91519;}.f{opacity:0.3;}.g{stroke-linecap:square;}.h,.j,.k{stroke:#fff;}.h,.n{stroke-width:2px;}.j,.l,.n{stroke-linecap:round;stroke-linejoin:round;}.m{fill:#606060;}</style></defs><title>1_1</title><rect class="a" x="738.4498" y="109.6821" width="40.0417" height="51.4822"/><rect class="a" x="744.17" y="161.1643" width="28.6012" height="22.881"/><rect class="a" x="769.9111" y="118.2625" width="28.6012" height="11.4405" transform="translate(908.1944 -660.229) rotate(90)"/><rect class="a" x="715.5688" y="184.0453" width="85.8037" height="127.7288" transform="translate(1516.9412 495.8194) rotate(-180)"/><g class="b"><rect class="c" x="124.1755" y="185.8239" width="47.3636" height="125.9503" transform="translate(295.7147 497.598) rotate(-180)"/><rect class="c" x="314.7563" y="185.9287" width="125.8454" height="125.8454" transform="translate(755.358 497.7029) rotate(-180)"/><rect class="c" x="514.8865" y="185.9287" width="125.8454" height="125.8454" transform="translate(1155.6184 497.7029) rotate(-180)"/><rect class="d" x="941.9684" y="184.0453" width="47.3556" height="127.7288" transform="translate(1931.2925 495.8194) rotate(-180)"/><rect class="c" x="351.9379" y="168.6631" width="51.4822" height="17.1607"/><rect class="c" x="549.2533" y="168.6631" width="57.2025" height="17.1607"/><rect class="c" x="532.0925" y="111.4607" width="91.5239" height="57.2025" rx="9.2558"/><rect class="c" x="623.6165" y="122.9012" width="34.3215" height="34.3215"/><rect class="c" x="366.2385" y="157.2226" width="22.881" height="11.4405"/><circle class="c" cx="377.3041" cy="118.9181" r="40.0417"/></g><rect class="e" x="866.4245" y="1.5" width="291.229" height="143.9784" rx="10.1667"/><g class="f"><rect class="g" x="877.8773" y="12.4075" width="268.3234" height="122.1635" rx="7.125"/><path class="a" d="M1084.0282,11.8621h55.0475a7.125,7.125,0,0,1,7.125,7.125V126.9006a7.125,7.125,0,0,1-7.125,7.125h-55.0475a0,0,0,0,1,0,0V11.8621A0,0,0,0,1,1084.0282,11.8621Z"/><rect class="h" x="1096.5718" y="28.7686" width="16.3612" height="16.3612" rx="4"/><rect class="i" x="1096.5718" y="57.128" width="16.3612" height="16.3612" rx="4"/><rect class="i" x="1096.5718" y="86.5781" width="16.3612" height="16.3612" rx="4"/><line class="h" x1="1120.5682" y1="33.1316" x2="1134.7478" y2="33.1316"/><line class="h" x1="1120.5682" y1="38.5853" x2="1134.7478" y2="38.5853"/><line class="h" x1="1120.5682" y1="61.491" x2="1134.7478" y2="61.491"/><line class="h" x1="1120.5682" y1="66.9447" x2="1134.7478" y2="66.9447"/><line class="h" x1="1120.5682" y1="92.0319" x2="1134.7478" y2="92.0319"/><line class="h" x1="1120.5682" y1="97.4856" x2="1134.7478" y2="97.4856"/></g><polygon class="a" points="1104.925 305.751 0 305.751 31.632 191.963 1135.357 191.963 1104.925 305.751"/><line class="j" x1="77.9133" y1="248.857" x2="182.1518" y2="248.857"/><polygon class="i" points="177.096 255.523 179.928 248.857 177.096 242.191 192.897 248.857 177.096 255.523"/><line class="j" x1="294.1948" y1="248.857" x2="398.4332" y2="248.857"/><polygon class="i" points="393.378 255.523 396.21 248.857 393.378 242.191 409.179 248.857 393.378 255.523"/><line class="j" x1="510.4763" y1="248.857" x2="614.7147" y2="248.857"/><polygon class="i" points="609.659 255.523 612.491 248.857 609.659 242.191 625.46 248.857 609.659 255.523"/><line class="j" x1="726.7576" y1="248.857" x2="830.9962" y2="248.857"/><polygon class="i" points="825.941 255.523 828.773 248.857 825.941 242.191 841.742 248.857 825.941 255.523"/><line class="j" x1="943.0391" y1="248.857" x2="1047.2776" y2="248.857"/><polygon class="i" points="1042.222 255.523 1045.054 248.857 1042.222 242.191 1058.023 248.857 1042.222 255.523"/><line class="k" x1="1104.7303" y1="304.9631" x2="0.1948" y2="304.9631"/><line class="k" x1="31.8265" y1="192.6349" x2="1136.3619" y2="192.6349"/><line class="e" x1="789.6535" y1="123.3458" x2="866.6535" y2="123.3458"/><line class="l" x1="925.113" y1="72.6973" x2="1029.3513" y2="72.6973"/><polygon class="a" points="1024.296 79.363 1027.128 72.697 1024.296 66.032 1040.097 72.697 1024.296 79.363"/><path class="l" d="M78.3815,195.2193s.189-47.7625-11.1889-73.0554"/><polygon class="a" points="75.283 123.343 68.093 124.211 63.726 129.989 61.628 112.968 75.283 123.343"/><path class="l" d="M78.6281,195.2193s-.189-47.7625,11.189-73.0554"/><polygon class="a" points="93.283 129.989 88.917 124.211 81.727 123.343 95.382 112.968 93.283 129.989"/><path class="l" d="M94.294,167.468c-9.2088,10.4451.8338,27.2942.8338,27.2942"/><path class="l" d="M62.1278,194.7622s11.7174-13.1792-.727-27.2942"/><path class="m" d="M132.4118,152.669l-.8057,6.63h6.9678l-.26,1.9765h-6.955l-.9883,8.0333h-2.4439l2.2881-18.629h10.6079l-.247,1.9893Z"/><path class="m" d="M145.1906,156.1407l-1.5859,13.168H141.33l1.5859-13.168Zm.8843-4.1348a1.47,1.47,0,0,1-.1367.6309,1.806,1.806,0,0,1-.3638.5195,1.6925,1.6925,0,0,1-.52.3574,1.4717,1.4717,0,0,1-.6045.1309,1.3959,1.3959,0,0,1-.585-.1309,1.5548,1.5548,0,0,1-.5005-.3574,1.8271,1.8271,0,0,1-.3447-.5195,1.541,1.541,0,0,1-.13-.6309,1.5853,1.5853,0,0,1,.13-.6367,1.74,1.74,0,0,1,.3511-.5264,1.7823,1.7823,0,0,1,.5068-.3642,1.3488,1.3488,0,0,1,.585-.1367,1.47,1.47,0,0,1,.6045.1308,1.6111,1.6111,0,0,1,.5136.3574,1.811,1.811,0,0,1,.3575.5332A1.5522,1.5522,0,0,1,146.0749,152.0059Z"/><path class="m" d="M155.6686,158.2462a.8414.8414,0,0,1-.208.2275.4463.4463,0,0,1-.26.0713.7242.7242,0,0,1-.3965-.1426c-.1431-.0957-.3164-.2012-.52-.3184a4.2386,4.2386,0,0,0-.7476-.3252,3.3485,3.3485,0,0,0-1.0659-.1494,3.31,3.31,0,0,0-1.0659.1621,2.5466,2.5466,0,0,0-.8257.4493,2.0131,2.0131,0,0,0-.5332.6689,1.8208,1.8208,0,0,0-.1885.8125,1.2506,1.2506,0,0,0,.4033.9756,3.7274,3.7274,0,0,0,1.0137.63q.6108.2665,1.313.5136a6.7523,6.7523,0,0,1,1.313.6241,3.363,3.363,0,0,1,1.0141.9619,2.6279,2.6279,0,0,1,.4029,1.52,4.3833,4.3833,0,0,1-1.3843,3.2051,5.0889,5.0889,0,0,1-1.6118,1.0078,5.6718,5.6718,0,0,1-2.1128.3769,5.2537,5.2537,0,0,1-2.23-.4492,4.63,4.63,0,0,1-1.58-1.15l.5723-.8838a.995.995,0,0,1,.2534-.2607.637.637,0,0,1,.7734.0918q.208.1817.52.4092a3.41,3.41,0,0,0,.7867.4092,3.3762,3.3762,0,0,0,1.2026.1826,3.227,3.227,0,0,0,1.15-.1953,2.71,2.71,0,0,0,.8711-.5206,2.1849,2.1849,0,0,0,.5459-.76,2.3181,2.3181,0,0,0,.1885-.93,1.3992,1.3992,0,0,0-.4029-1.0527,3.3126,3.3126,0,0,0-1.0141-.65q-.6117-.2593-1.313-.4873a6.6257,6.6257,0,0,1-1.313-.585,3.1947,3.1947,0,0,1-1.0142-.93,2.5921,2.5921,0,0,1-.4028-1.5215,4.0384,4.0384,0,0,1,.3315-1.6054,4.1487,4.1487,0,0,1,.9556-1.3711,4.6777,4.6777,0,0,1,1.5142-.9551,5.3526,5.3526,0,0,1,2.0088-.3574,5.1448,5.1448,0,0,1,2.0864.3965,4.7891,4.7891,0,0,1,1.5532,1.0722Z"/><path class="m" d="M169.4875,156.1407l-1.586,13.168h-1.144a.741.741,0,0,1-.8447-.8321l.1948-2.4043a8.0363,8.0363,0,0,1-2.3462,2.5547,4.8094,4.8094,0,0,1-2.6846.8643,3.1418,3.1418,0,0,1-1.4692-.3311,2.6468,2.6468,0,0,1-1.0332-.9687,4.1164,4.1164,0,0,1-.54-1.5606,7.5388,7.5388,0,0,1,.0126-2.1191l.9883-8.3711h2.3008l-.9878,8.3711a4.2936,4.2936,0,0,0,.1885,2.3008,1.4077,1.4077,0,0,0,1.3975.7539,2.7088,2.7088,0,0,0,1.2348-.3243,4.7218,4.7218,0,0,0,1.2222-.9238,7.8632,7.8632,0,0,0,1.0986-1.4492,10.1244,10.1244,0,0,0,.8775-1.8906l.8188-6.8379Z"/><path class="m" d="M174.6486,159.8067a11.16,11.16,0,0,1,1.1245-1.918,5.6034,5.6034,0,0,1,1.2676-1.2734,3.13,3.13,0,0,1,1.3652-.56,2.6586,2.6586,0,0,1,1.43.2139l-.416,2.2236a2.66,2.66,0,0,0-2.9834.4942,8.6852,8.6852,0,0,0-2.1,4.2246l-.728,6.0967h-2.2617l1.5859-13.1817h1.144a.6953.6953,0,0,1,.793.78Z"/><path class="m" d="M188.3762,165.8379a11.268,11.268,0,0,1-1.0074,1.5079,6.9943,6.9943,0,0,1-1.144,1.15,4.9575,4.9575,0,0,1-1.2739.7343,3.7825,3.7825,0,0,1-1.3843.2608,3.2414,3.2414,0,0,1-1.417-.3057,2.9465,2.9465,0,0,1-1.0859-.8965,4.3741,4.3741,0,0,1-.6954-1.457,7.2327,7.2327,0,0,1-.247-1.9824,8.9352,8.9352,0,0,1,.2925-2.2813,9.27,9.27,0,0,1,2.1254-3.9121,8.6833,8.6833,0,0,1,1.6836-1.4307,8.0119,8.0119,0,0,1,1.9956-.9365,7.4955,7.4955,0,0,1,2.2359-.331,9.7723,9.7723,0,0,1,1.6445.1367,6.8934,6.8934,0,0,1,1.58.4736l-1.5732,12.74h-1.1958a.7065.7065,0,0,1-.6177-.2334.9785.9785,0,0,1-.1621-.5723Zm.8842-8.0859a3.7283,3.7283,0,0,0-.5654-.084c-.1865-.0136-.3706-.0195-.5527-.0195a4.5539,4.5539,0,0,0-1.5078.2529,5.406,5.406,0,0,0-1.3653.708,6.1121,6.1121,0,0,0-1.1567,1.086,7.1006,7.1006,0,0,0-.8906,1.3847,7.8634,7.8634,0,0,0-.5787,1.6055,7.348,7.348,0,0,0-.208,1.7481q0,3.1347,2.002,3.1328a2.2571,2.2571,0,0,0,1.248-.3965,4.8353,4.8353,0,0,0,1.1636-1.1045,9.2892,9.2892,0,0,0,1.02-1.6768,15.7209,15.7209,0,0,0,.8321-2.125Z"/><line class="n" x1="122.1931" y1="158.8458" x2="90.6931" y2="182.3458"/><path class="m" d="M87.9948,178.73a4.5118,4.5118,0,1,0,6.3145.9185A4.5123,4.5123,0,0,0,87.9948,178.73Z"/></svg>