<svg xmlns="http://www.w3.org/2000/svg" viewBox="0 0 1159.1535 313.2741"><defs><style>.a{fill:#d91519;}.b{opacity:0.5;}.c,.g,.h,.k,.l,.n,.o,.q{fill:none;}.c,.d,.n{stroke:#606060;}.c,.d,.e,.g,.h,.k,.o,.q{stroke-miterlimit:10;}.c,.d,.e,.g,.k,.l,.o{stroke-width:3px;}.d,.e,.i,.p{fill:#fff;}.e,.g,.l,.o{stroke:#d91519;}.f{opacity:0.3;}.g{stroke-linecap:square;}.h,.k,.q{stroke:#fff;}.h,.n{stroke-width:2px;}.j{fill:#afafaf;}.l,.n{stroke-linecap:round;stroke-linejoin:round;}.m{fill:#606060;}.p{opacity:0.4;}.q{stroke-width:4px;}</style></defs><title>1_2</title><rect class="a" x="314.7563" y="185.9287" width="125.8454" height="125.8454" transform="translate(755.358 497.7029) rotate(-180)"/><rect class="a" x="351.9379" y="168.6631" width="51.4822" height="17.1607"/><rect class="a" x="366.2385" y="157.2226" width="22.881" height="11.4405"/><circle class="a" cx="377.3041" cy="118.9181" r="40.0417"/><g class="b"><rect class="c" x="124.1755" y="185.8239" width="47.3636" height="125.9503" transform="translate(295.7147 497.598) rotate(-180)"/><rect class="c" x="514.8865" y="185.9287" width="125.8454" height="125.8454" transform="translate(1155.6184 497.7029) rotate(-180)"/><rect class="d" x="941.9684" y="184.0453" width="47.3556" height="127.7288" transform="translate(1931.2925 495.8194) rotate(-180)"/><rect class="c" x="549.2533" y="168.6631" width="57.2025" height="17.1607"/><rect class="c" x="532.0925" y="111.4607" width="91.5239" height="57.2025" rx="9.2558"/><rect class="c" x="623.6165" y="122.9012" width="34.3215" height="34.3215"/><rect class="c" x="738.4498" y="109.6821" width="40.0417" height="51.4822"/><rect class="c" x="744.17" y="161.1643" width="28.6012" height="22.881"/><rect class="c" x="769.9111" y="118.2625" width="28.6012" height="11.4405" transform="translate(908.1944 -660.229) rotate(90)"/><rect class="c" x="715.5688" y="184.0453" width="85.8037" height="127.7288" transform="translate(1516.9412 495.8194) rotate(-180)"/></g><rect class="e" x="866.4245" y="1.5" width="291.229" height="143.9784" rx="10.1667"/><g class="f"><rect class="g" x="877.8773" y="12.4075" width="268.3234" height="122.1635" rx="7.125"/><path class="a" d="M1084.0282,11.8621h55.0475a7.125,7.125,0,0,1,7.125,7.125V126.9006a7.125,7.125,0,0,1-7.125,7.125h-55.0475a0,0,0,0,1,0,0V11.8621A0,0,0,0,1,1084.0282,11.8621Z"/><rect class="h" x="1096.5718" y="28.7686" width="16.3612" height="16.3612" rx="4"/><rect class="i" x="1096.5718" y="57.128" width="16.3612" height="16.3612" rx="4"/><rect class="i" x="1096.5718" y="86.5781" width="16.3612" height="16.3612" rx="4"/><line class="h" x1="1120.5682" y1="33.1316" x2="1134.7478" y2="33.1316"/><line class="h" x1="1120.5682" y1="38.5853" x2="1134.7478" y2="38.5853"/><line class="h" x1="1120.5682" y1="61.491" x2="1134.7478" y2="61.491"/><line class="h" x1="1120.5682" y1="66.9447" x2="1134.7478" y2="66.9447"/><line class="h" x1="1120.5682" y1="92.0319" x2="1134.7478" y2="92.0319"/><line class="h" x1="1120.5682" y1="97.4856" x2="1134.7478" y2="97.4856"/></g><polygon class="a" points="638.654 305.751 0 305.751 31.632 191.963 639.357 191.963 638.654 305.751"/><polygon class="j" points="642.704 191.963 1133.357 191.963 1101.726 305.751 642 305.751 642.704 191.963"/><line class="k" x1="1104.7303" y1="304.9631" x2="0.1948" y2="304.9631"/><line class="k" x1="31.8265" y1="192.6349" x2="1136.3619" y2="192.6349"/><path class="l" d="M78.3425,195.2193s.1884-47.7625-11.1895-73.0554"/><polygon class="a" points="75.243 123.343 68.053 124.211 63.687 129.989 61.589 112.968 75.243 123.343"/><path class="l" d="M78.5886,195.2193S78.4,147.4568,89.778,122.1639"/><polygon class="a" points="93.244 129.989 88.878 124.211 81.687 123.343 95.342 112.968 93.244 129.989"/><path class="l" d="M94.2547,167.468c-9.2089,10.4451.8337,27.2942.8337,27.2942"/><path class="l" d="M62.0884,194.7622s11.7174-13.1792-.7269-27.2942"/><path class="m" d="M132.3723,152.669l-.8047,6.63h6.9668l-.26,1.9765H131.32l-.9883,8.0333h-2.4433l2.2881-18.629h10.6084l-.2481,1.9893Z"/><path class="m" d="M145.1515,156.1407l-1.5859,13.168H141.29l1.586-13.168Zm.8848-4.1348a1.4774,1.4774,0,0,1-.1367.6309,1.8273,1.8273,0,0,1-.3643.5195,1.6817,1.6817,0,0,1-.52.3574,1.4706,1.4706,0,0,1-.6035.1309,1.4013,1.4013,0,0,1-.5859-.1309,1.5517,1.5517,0,0,1-.5-.3574,1.8462,1.8462,0,0,1-.3447-.5195,1.5313,1.5313,0,0,1-.13-.6309,1.5752,1.5752,0,0,1,.13-.6367,1.7679,1.7679,0,0,1,.35-.5264,1.7883,1.7883,0,0,1,.5078-.3642,1.3432,1.3432,0,0,1,.584-.1367,1.4727,1.4727,0,0,1,.6055.1308,1.6238,1.6238,0,0,1,.5137.3574,1.85,1.85,0,0,1,.3574.5332A1.56,1.56,0,0,1,146.0363,152.0059Z"/><path class="m" d="M155.63,158.2462a.8446.8446,0,0,1-.209.2275.4436.4436,0,0,1-.26.0713.7271.7271,0,0,1-.3965-.1426c-.1425-.0957-.3164-.2012-.52-.3184a4.2078,4.2078,0,0,0-.748-.3252,3.3463,3.3463,0,0,0-1.0655-.1494,3.31,3.31,0,0,0-1.0654.1621,2.544,2.544,0,0,0-.8262.4493,2.0018,2.0018,0,0,0-.5332.6689,1.8275,1.8275,0,0,0-.1885.8125,1.2486,1.2486,0,0,0,.4034.9756,3.7252,3.7252,0,0,0,1.0136.63q.611.2665,1.3125.5136a6.7374,6.7374,0,0,1,1.3135.6241,3.3838,3.3838,0,0,1,1.0147.9619,2.6362,2.6362,0,0,1,.4023,1.52,4.38,4.38,0,0,1-1.3848,3.2051,5.0753,5.0753,0,0,1-1.6113,1.0078,5.6726,5.6726,0,0,1-2.1133.3769,5.2491,5.2491,0,0,1-2.2285-.4492,4.6232,4.6232,0,0,1-1.58-1.15l.5723-.8838a.9809.9809,0,0,1,.2539-.2607.629.629,0,0,1,.3574-.09.6357.6357,0,0,1,.416.1816q.2081.1817.52.4092a3.4138,3.4138,0,0,0,.7871.4092,3.3752,3.3752,0,0,0,1.2021.1826,3.2251,3.2251,0,0,0,1.15-.1953,2.7084,2.7084,0,0,0,.8711-.5206,2.1849,2.1849,0,0,0,.5459-.76,2.3266,2.3266,0,0,0,.1885-.93,1.3979,1.3979,0,0,0-.4033-1.0527,3.3057,3.3057,0,0,0-1.0137-.65q-.6123-.2593-1.3125-.4873a6.6172,6.6172,0,0,1-1.3135-.585,3.211,3.211,0,0,1-1.0146-.93,2.5986,2.5986,0,0,1-.4024-1.5215,4.03,4.03,0,0,1,.3321-1.6054,4.147,4.147,0,0,1,.955-1.3711,4.6774,4.6774,0,0,1,1.5137-.9551,5.3568,5.3568,0,0,1,2.01-.3574,5.1434,5.1434,0,0,1,2.0859.3965,4.7859,4.7859,0,0,1,1.5527,1.0722Z"/><path class="m" d="M169.4484,156.1407l-1.5859,13.168H166.718a.7407.7407,0,0,1-.8438-.8321l.1943-2.4043a8.03,8.03,0,0,1-2.3466,2.5547,4.8078,4.8078,0,0,1-2.6836.8643,3.144,3.144,0,0,1-1.47-.3311,2.65,2.65,0,0,1-1.0332-.9687,4.1251,4.1251,0,0,1-.54-1.5606,7.5274,7.5274,0,0,1,.0137-2.1191l.9883-8.3711h2.3007l-.9882,8.3711a4.3,4.3,0,0,0,.1884,2.3008,1.4077,1.4077,0,0,0,1.3975.7539,2.7044,2.7044,0,0,0,1.2344-.3243,4.715,4.715,0,0,0,1.2226-.9238,7.8415,7.8415,0,0,0,1.0987-1.4492,10.157,10.157,0,0,0,.8779-1.8906l.8183-6.8379Z"/><path class="m" d="M174.61,159.8067a11.1792,11.1792,0,0,1,1.124-1.918,5.6317,5.6317,0,0,1,1.2676-1.2734,3.1333,3.1333,0,0,1,1.3652-.56,2.6562,2.6562,0,0,1,1.43.2139l-.416,2.2236a2.6585,2.6585,0,0,0-2.9825.4942,8.6732,8.6732,0,0,0-2.1,4.2246l-.7285,6.0967h-2.2617l1.5859-13.1817h1.1446a.6957.6957,0,0,1,.7929.78Z"/><path class="m" d="M188.3371,165.8379a11.3079,11.3079,0,0,1-1.0078,1.5079,6.9769,6.9769,0,0,1-1.1436,1.15,4.9519,4.9519,0,0,1-1.2744.7343,3.7779,3.7779,0,0,1-1.3838.2608,3.2386,3.2386,0,0,1-1.417-.3057,2.9426,2.9426,0,0,1-1.0859-.8965,4.3644,4.3644,0,0,1-.6953-1.457,7.248,7.248,0,0,1-.2471-1.9824,8.9615,8.9615,0,0,1,.292-2.2813,9.36,9.36,0,0,1,.832-2.1,9.23,9.23,0,0,1,1.294-1.8125,8.68,8.68,0,0,1,1.6836-1.4307,8.0152,8.0152,0,0,1,1.9951-.9365,7.5024,7.5024,0,0,1,2.2363-.331,9.7788,9.7788,0,0,1,1.6446.1367,6.904,6.904,0,0,1,1.58.4736l-1.5742,12.74H188.87a.7049.7049,0,0,1-.6172-.2334.9713.9713,0,0,1-.1621-.5723Zm.8848-8.0859a3.7409,3.7409,0,0,0-.5664-.084c-.1856-.0136-.37-.0195-.5528-.0195a4.56,4.56,0,0,0-1.5078.2529,5.4392,5.4392,0,0,0-1.3652.708,6.122,6.122,0,0,0-1.1563,1.086,7.1053,7.1053,0,0,0-.8906,1.3847,7.8561,7.8561,0,0,0-.5781,1.6055,7.3435,7.3435,0,0,0-.209,1.7481q0,3.1347,2.0019,3.1328a2.2528,2.2528,0,0,0,1.2481-.3965,4.8314,4.8314,0,0,0,1.1641-1.1045,9.2722,9.2722,0,0,0,1.02-1.6768,15.8541,15.8541,0,0,0,.832-2.125Z"/><line class="n" x1="122.1535" y1="158.8458" x2="90.6535" y2="182.3458"/><path class="m" d="M87.9557,178.73a4.5117,4.5117,0,1,0,6.314.9185A4.5121,4.5121,0,0,0,87.9557,178.73Z"/><path class="e" d="M866.6535,37.3458H397.2691a19.6155,19.6155,0,0,0-19.6156,19.6155V79.3458"/><path class="o" d="M877.49,90.8842c17.6063,0,15.3345-34.37,30.1011-34.37s3.4077,29.4762,27.2613,29.4762S950.7545,63.423,960.9775,63.423s1.7039,18.1924,17.0384,18.1924,11.3589-11.5142,23.2857-11.5142,3.9756,8.06,14.7665,8.06,7.5562-5.7571,18.3472-5.7571,7.21,4.836,16.8654,4.836,7.9512-2.5331,16.47-2.5331,8.5191,2.5331,15.9024,2.5331"/><path class="p" d="M252.1535,248.3458a105.8571,105.8571,0,0,1,16.1906-56.3833H237.6633a133.3387,133.3387,0,0,0,.4781,113.789h30.8431A105.8733,105.8733,0,0,1,252.1535,248.3458Z"/><line class="q" x1="641.1535" y1="192.8458" x2="641.1535" y2="303.8458"/><path class="i" d="M297.2658,248.2891a12.531,12.531,0,0,1-.7344,4.3682,10.3655,10.3655,0,0,1-2.041,3.4248,9.2315,9.2315,0,0,1-3.0937,2.2363,9.4286,9.4286,0,0,1-3.8936.8,7.51,7.51,0,0,1-3.0879-.6113,6.8057,6.8057,0,0,1-2.34-1.6963,7.4768,7.4768,0,0,1-1.4824-2.5811,10.0335,10.0335,0,0,1-.5127-3.2753,12.4993,12.4993,0,0,1,.74-4.375,10.4428,10.4428,0,0,1,2.0547-3.4385,9.2854,9.2854,0,0,1,6.9805-3.0547,7.45,7.45,0,0,1,3.0878.6172,6.777,6.777,0,0,1,2.333,1.71,7.56,7.56,0,0,1,1.4756,2.5938A10.07,10.07,0,0,1,297.2658,248.2891Zm-2.4961.0518a8.4728,8.4728,0,0,0-.3642-2.5674,5.7319,5.7319,0,0,0-1.0332-1.957,4.5546,4.5546,0,0,0-1.6377-1.2471,5.185,5.185,0,0,0-2.1778-.4424,6.2977,6.2977,0,0,0-5.0244,2.3789,8.3184,8.3184,0,0,0-1.4434,2.7627,11.961,11.961,0,0,0-.5136,3.62,8.536,8.536,0,0,0,.3584,2.5616A5.5722,5.5722,0,0,0,283.967,255.4a4.5546,4.5546,0,0,0,1.6377,1.2422,5.2145,5.2145,0,0,0,2.1709.4355,6.5242,6.5242,0,0,0,2.834-.6113,6.2942,6.2942,0,0,0,2.21-1.7481,8.3091,8.3091,0,0,0,1.4365-2.7568A11.9179,11.9179,0,0,0,294.77,248.3409Z"/><path class="i" d="M302.2707,249.0821a8.2108,8.2108,0,0,1,2.3789-2.6328,4.8367,4.8367,0,0,1,2.7305-.8906,3.0886,3.0886,0,0,1,1.4619.332,2.65,2.65,0,0,1,1.0273.9678,4.1281,4.1281,0,0,1,.5391,1.5673,7.7784,7.7784,0,0,1,0,2.1123l-.9873,8.3848h-2.3018l.9883-8.3848a4.25,4.25,0,0,0-.1953-2.3076,1.4144,1.4144,0,0,0-1.3906-.748,2.71,2.71,0,0,0-1.2676.3388,4.8622,4.8622,0,0,0-1.2412.962,7.9342,7.9342,0,0,0-1.1114,1.5009,10.4614,10.4614,0,0,0-.8779,1.9571l-.7539,6.6816h-2.3144l1.5859-13.1816h1.1445a.69.69,0,0,1,.78.7793Z"/><path class="i" d="M325.3849,239.7735l-2.3525,19.1494h-1.21a.6835.6835,0,0,1-.61-.2344,1,1,0,0,1-.1563-.5713l.2471-2.77a10.37,10.37,0,0,1-1.0791,1.5469,8.0122,8.0122,0,0,1-1.2285,1.1836,5.2947,5.2947,0,0,1-1.3389.76,3.91,3.91,0,0,1-1.41.2666,3.11,3.11,0,0,1-2.626-1.2285,5.8064,5.8064,0,0,1-.9365-3.5683,10.4712,10.4712,0,0,1,.2207-2.1319,11.1053,11.1053,0,0,1,.6308-2.041,10.0072,10.0072,0,0,1,.9883-1.8135,7.4943,7.4943,0,0,1,1.293-1.4492,5.9251,5.9251,0,0,1,1.541-.9619,4.3816,4.3816,0,0,1,1.7354-.3515,4.0472,4.0472,0,0,1,1.7744.3837,3.8364,3.8364,0,0,1,1.3584,1.086l.8974-7.2549Zm-3.3544,8.8535a2.6715,2.6715,0,0,0-1.19-.9814,3.7439,3.7439,0,0,0-1.41-.2793,3.0093,3.0093,0,0,0-1.8457.61,5.3989,5.3989,0,0,0-1.3974,1.58,8.2588,8.2588,0,0,0-.8906,2.1641,9.2988,9.2988,0,0,0-.3125,2.3535,4.1934,4.1934,0,0,0,.5527,2.3594,1.7974,1.7974,0,0,0,1.58.8125,2.3965,2.3965,0,0,0,1.2607-.3907,5.1935,5.1935,0,0,0,1.2285-1.0849,9.4892,9.4892,0,0,0,1.1045-1.6446,12.9305,12.9305,0,0,0,.8906-2.08Z"/><path class="i" d="M334.6281,255.4522A11.3067,11.3067,0,0,1,333.62,256.96a7.0436,7.0436,0,0,1-1.1436,1.15,4.9719,4.9719,0,0,1-1.2744.7344,3.7839,3.7839,0,0,1-1.3847.26,3.2437,3.2437,0,0,1-1.417-.3046,2.9533,2.9533,0,0,1-1.085-.8975,4.37,4.37,0,0,1-.6953-1.4561,7.2179,7.2179,0,0,1-.2471-1.9824,8.9113,8.9113,0,0,1,.292-2.2812,9.2768,9.2768,0,0,1,2.126-3.9131,8.65,8.65,0,0,1,1.6836-1.4307,7.9957,7.9957,0,0,1,1.9951-.9355,7.4981,7.4981,0,0,1,2.2363-.3311,9.7766,9.7766,0,0,1,1.6446.1358,6.9655,6.9655,0,0,1,1.5791.4746l-1.5733,12.74h-1.1953a.7041.7041,0,0,1-.6181-.2344.9729.9729,0,0,1-.1622-.5713Zm.8838-8.0859a3.593,3.593,0,0,0-.5654-.085q-.28-.019-.5528-.0195a4.5548,4.5548,0,0,0-1.5078.2539,5.4038,5.4038,0,0,0-1.3652.708,6.0655,6.0655,0,0,0-1.1572,1.0859,6.9975,6.9975,0,0,0-.89,1.3848,7.82,7.82,0,0,0-.5791,1.6055,7.3359,7.3359,0,0,0-.208,1.748q0,3.1333,2.002,3.1328a2.2643,2.2643,0,0,0,1.248-.3965,4.8654,4.8654,0,0,0,1.1641-1.1045,9.3291,9.3291,0,0,0,1.0205-1.6777,15.8541,15.8541,0,0,0,.832-2.125Z"/><path class="i" d="M348.173,253.19q0,.9624.0909,1.9961t.2666,2.0732q.1756,1.04.4482,2.0411a17.22,17.22,0,0,0,.624,1.872.7033.7033,0,0,1,.02.5977.9794.9794,0,0,1-.3311.3379l-1.0527.5986a17.3594,17.3594,0,0,1-.93-2.3076,22.9832,22.9832,0,0,1-.9951-4.752q-.1173-1.1689-.1163-2.249a29.3194,29.3194,0,0,1,.2081-3.542,19.1906,19.1906,0,0,1,.76-3.4775,22.9371,22.9371,0,0,1,1.5147-3.62,31.48,31.48,0,0,1,2.4834-3.9717l.9228.61a.7563.7563,0,0,1,.2471.3379c.0517.14-.0049.334-.169.586a30.8733,30.8733,0,0,0-1.7031,2.957,21.654,21.654,0,0,0-1.248,3.0352,21.1594,21.1594,0,0,0-.7735,3.2568A23.3373,23.3373,0,0,0,348.173,253.19Z"/><path class="i" d="M364.5529,246.2344l-.0908.7676a.725.725,0,0,1-.5205.624l-1.6514.2862a4.3172,4.3172,0,0,1,.2471,1.4951,4.2391,4.2391,0,0,1-.1494,1.17,5.61,5.61,0,0,1-.37.9619,7.6426,7.6426,0,0,1-.4815.8321q-.2592.39-.4805.7734a5.0393,5.0393,0,0,0-.371.793,2.5726,2.5726,0,0,0-.1495.8906,1.82,1.82,0,0,0,.1241.6689,3.7962,3.7962,0,0,0,.3115.6241q.189.3062.416.6181a5.6889,5.6889,0,0,1,.416.6621,4.1654,4.1654,0,0,1,.3125.7608,3.1334,3.1334,0,0,1,.1231.9033,3.8768,3.8768,0,0,1-.4414,1.749,4.5769,4.5769,0,0,1-1.2227,1.4619,6.0361,6.0361,0,0,1-1.9238,1.0078,8.16,8.16,0,0,1-2.5479.3711,8.4284,8.4284,0,0,1-2.0605-.2343,5.2012,5.2012,0,0,1-1.586-.6631,3.1626,3.1626,0,0,1-1.0136-1.0332,2.5726,2.5726,0,0,1-.3575-1.333,2.99,2.99,0,0,1,.3506-1.4688,3.5249,3.5249,0,0,1,.9492-1.0986,5.3763,5.3763,0,0,1,1.3907-.7608,8.67,8.67,0,0,1,1.6836-.4414,11.0216,11.0216,0,0,1,1.8261-.1367,13.4629,13.4629,0,0,1,1.833.1367,3.0457,3.0457,0,0,1-.1884-.5136,2.2156,2.2156,0,0,1-.0713-.5782,2.975,2.975,0,0,1,.124-.832,5.33,5.33,0,0,1,.4092-.9756,4.0393,4.0393,0,0,1-1.1055.5264,4.7052,4.7052,0,0,1-1.3906.1885,3.9621,3.9621,0,0,1-1.41-.2471,3.2773,3.2773,0,0,1-1.15-.7276,3.3859,3.3859,0,0,1-.78-1.2021,4.5371,4.5371,0,0,1-.2862-1.6836,5.1094,5.1094,0,0,1,.3448-1.84,4.8292,4.8292,0,0,1,2.6455-2.7491,5.5333,5.5333,0,0,1,2.249-.43,5.2181,5.2181,0,0,1,1.3389.1689,3.8315,3.8315,0,0,1,1.1435.5068Zm-4.42,13.0137a2.9961,2.9961,0,0,0-.0654-.6436,3.536,3.536,0,0,0-.169-.5527,14.1007,14.1007,0,0,0-2.9638-.2012,6.9376,6.9376,0,0,0-2.0606.3829,2.7379,2.7379,0,0,0-1.2021.8066,1.6823,1.6823,0,0,0-.3907,1.0654,1.5913,1.5913,0,0,0,.7871,1.4307,4.2,4.2,0,0,0,2.23.4941,5.116,5.116,0,0,0,1.5664-.2275,4.0868,4.0868,0,0,0,1.209-.6045,2.7973,2.7973,0,0,0,.7793-.8848A2.175,2.175,0,0,0,360.133,259.2481Zm-2.6133-6.2666a2.48,2.48,0,0,0,1.2412-.3047,2.9036,2.9036,0,0,0,.91-.8066,3.7422,3.7422,0,0,0,.5654-1.124,4.2139,4.2139,0,0,0,.1953-1.2618,2.36,2.36,0,0,0-.5791-1.7285,2.1386,2.1386,0,0,0-1.5918-.5849,2.5778,2.5778,0,0,0-1.2353.2861,2.7962,2.7962,0,0,0-.9033.7666,3.4187,3.4187,0,0,0-.5586,1.0918,4.2916,4.2916,0,0,0-.19,1.2744,2.5334,2.5334,0,0,0,.5664,1.7813A2.0448,2.0448,0,0,0,357.52,252.9815Z"/><path class="i" d="M370.0646,259.1045a5.1211,5.1211,0,0,1-1.9756-.37,4.343,4.343,0,0,1-1.5478-1.0722,4.9545,4.9545,0,0,1-1.0137-1.7159,6.84,6.84,0,0,1-.3642-2.3144,9.3189,9.3189,0,0,1,.5205-3.1328,8.3516,8.3516,0,0,1,1.43-2.5674,6.8355,6.8355,0,0,1,2.1386-1.7354,5.6643,5.6643,0,0,1,2.6455-.6376,5.1225,5.1225,0,0,1,1.9756.371,4.3427,4.3427,0,0,1,1.5479,1.0723,4.97,4.97,0,0,1,1.0137,1.7158,6.7977,6.7977,0,0,1,.3642,2.3008,9.282,9.282,0,0,1-.52,3.12,8.5246,8.5246,0,0,1-1.4228,2.5742,6.8015,6.8015,0,0,1-2.1387,1.7481A5.6519,5.6519,0,0,1,370.0646,259.1045Zm.2207-1.8066a3.0187,3.0187,0,0,0,1.7227-.52,4.6681,4.6681,0,0,0,1.3262-1.3848,7.0089,7.0089,0,0,0,.8515-1.9961,9.22,9.22,0,0,0,.2989-2.3652,4.37,4.37,0,0,0-.7217-2.7373,2.4832,2.4832,0,0,0-2.0733-.916,3.0641,3.0641,0,0,0-1.7353.5136,4.5264,4.5264,0,0,0-1.3194,1.3711,7.0235,7.0235,0,0,0-.8457,1.9893,9.2272,9.2272,0,0,0-.2988,2.3662,4.458,4.458,0,0,0,.7149,2.749A2.4633,2.4633,0,0,0,370.2853,257.2979Z"/><path class="i" d="M378.7228,258.9229l2.3272-19.1494h2.2744l-2.3262,19.1494Z"/><path class="i" d="M387.81,249.3292a10.6267,10.6267,0,0,1,1.0791-1.5538,7.6982,7.6982,0,0,1,1.2343-1.1894,5.4556,5.4556,0,0,1,1.3457-.7607,3.9474,3.9474,0,0,1,1.4239-.2666,3.1017,3.1017,0,0,1,2.6191,1.2226,5.8365,5.8365,0,0,1,.93,3.5742,10.543,10.543,0,0,1-.2207,2.1328,10.9424,10.9424,0,0,1-.6309,2.0342,10.1,10.1,0,0,1-.9883,1.8067,7.7282,7.7282,0,0,1-1.2871,1.456,5.72,5.72,0,0,1-1.54.9688,4.4328,4.4328,0,0,1-1.7422.35,4.0143,4.0143,0,0,1-1.7676-.3828,3.86,3.86,0,0,1-1.3525-1.0859l-.7022,5.7461h-2.249l2.1455-17.6406H387.25a.6891.6891,0,0,1,.78.7793Zm-.7022,6.708a2.8043,2.8043,0,0,0,1.1826.9814,3.5745,3.5745,0,0,0,1.4043.292,2.9041,2.9041,0,0,0,1.2735-.2861,4.0094,4.0094,0,0,0,1.0927-.7735,5.6258,5.6258,0,0,0,.8838-1.1435,8.0012,8.0012,0,0,0,.6563-1.4043,9.5822,9.5822,0,0,0,.4091-1.5469,8.9165,8.9165,0,0,0,.1436-1.5791,4.12,4.12,0,0,0-.56-2.3535,1.8029,1.8029,0,0,0-1.5722-.8057,2.4348,2.4348,0,0,0-1.2618.3838,5.1434,5.1434,0,0,0-1.2285,1.0723,9.2962,9.2962,0,0,0-1.1045,1.6377,12.9458,12.9458,0,0,0-.8906,2.08Z"/><path class="i" d="M408.61,256.4922a11.609,11.609,0,0,1-1.3,1.1758,7.8472,7.8472,0,0,1-1.294.8125,5.6822,5.6822,0,0,1-1.3779.4746,7.6563,7.6563,0,0,1-1.5537.1494,5.176,5.176,0,0,1-2.0274-.3769,4.1891,4.1891,0,0,1-1.5215-1.0723,4.824,4.824,0,0,1-.9619-1.6836,6.7906,6.7906,0,0,1-.3379-2.21,9.6459,9.6459,0,0,1,.2149-2.0215,9.3922,9.3922,0,0,1,.624-1.917,8.6717,8.6717,0,0,1,1.001-1.69,6.73,6.73,0,0,1,1.3515-1.3457,6.3589,6.3589,0,0,1,1.6768-.8907,5.8742,5.8742,0,0,1,1.97-.3242,4.73,4.73,0,0,1,1.73.2852,3.6756,3.6756,0,0,1,1.1953.7285,2.9271,2.9271,0,0,1,.6963.9746,2.5908,2.5908,0,0,1,.2276,1.0147,3.5561,3.5561,0,0,1-.3516,1.5791,3.277,3.277,0,0,1-1.2871,1.3,9.6034,9.6034,0,0,1-2.5742,1.0078,28.2806,28.2806,0,0,1-4.2119.6884c0,.0958-.002.1885-.0059.28s-.0068.1836-.0068.2793a4.0668,4.0668,0,0,0,.7607,2.6582,2.8084,2.8084,0,0,0,2.2939.917,4.3611,4.3611,0,0,0,1.1123-.13,4.7282,4.7282,0,0,0,.87-.3193,3.8338,3.8338,0,0,0,.6767-.416q.2916-.2271.5323-.416t.4492-.3184a.7858.7858,0,0,1,.416-.13.581.581,0,0,1,.4414.2207Zm-3.6661-9.2558a3.3719,3.3719,0,0,0-1.5078.3379,4.0109,4.0109,0,0,0-1.2217.9287,5.6707,5.6707,0,0,0-.91,1.3916,8.277,8.277,0,0,0-.585,1.7226,25.4162,25.4162,0,0,0,3.211-.5654,8.0159,8.0159,0,0,0,1.8584-.6894,1.7933,1.7933,0,0,0,1.0664-1.6963,1.308,1.308,0,0,0-.4356-.9492,1.794,1.794,0,0,0-.5918-.3448A2.5293,2.5293,0,0,0,404.9435,247.2364Z"/><path class="i" d="M429.4221,239.7735,427.07,258.9229h-1.21a.6836.6836,0,0,1-.61-.2344,1,1,0,0,1-.1562-.5713l.247-2.77a10.37,10.37,0,0,1-1.0791,1.5469,8.0122,8.0122,0,0,1-1.2285,1.1836,5.2947,5.2947,0,0,1-1.3389.76,3.91,3.91,0,0,1-1.41.2666,3.11,3.11,0,0,1-2.626-1.2285,5.8064,5.8064,0,0,1-.9365-3.5683,10.4712,10.4712,0,0,1,.2207-2.1319,11.1053,11.1053,0,0,1,.6308-2.041,10.0072,10.0072,0,0,1,.9883-1.8135,7.4943,7.4943,0,0,1,1.293-1.4492,5.9251,5.9251,0,0,1,1.541-.9619,4.3816,4.3816,0,0,1,1.7354-.3515,4.0469,4.0469,0,0,1,1.7744.3837,3.8364,3.8364,0,0,1,1.3584,1.086l.8974-7.2549Zm-3.3545,8.8535a2.6715,2.6715,0,0,0-1.19-.9814,3.7438,3.7438,0,0,0-1.41-.2793,3.0091,3.0091,0,0,0-1.8457.61,5.3992,5.3992,0,0,0-1.3975,1.58,8.2588,8.2588,0,0,0-.8906,2.1641,9.3033,9.3033,0,0,0-.3125,2.3535,4.1934,4.1934,0,0,0,.5527,2.3594,1.7974,1.7974,0,0,0,1.58.8125,2.3965,2.3965,0,0,0,1.2607-.3907,5.1935,5.1935,0,0,0,1.2285-1.0849,9.4892,9.4892,0,0,0,1.1045-1.6446,12.94,12.94,0,0,0,.8907-2.08Z"/><path class="i" d="M440.8869,256.4922a11.609,11.609,0,0,1-1.3,1.1758,7.8423,7.8423,0,0,1-1.2939.8125,5.6815,5.6815,0,0,1-1.378.4746,7.6556,7.6556,0,0,1-1.5537.1494,5.1752,5.1752,0,0,1-2.0273-.3769,4.1874,4.1874,0,0,1-1.5215-1.0723,4.824,4.824,0,0,1-.9619-1.6836,6.7906,6.7906,0,0,1-.3379-2.21,9.6524,9.6524,0,0,1,.2148-2.0215,9.3922,9.3922,0,0,1,.624-1.917,8.6767,8.6767,0,0,1,1.001-1.69,6.73,6.73,0,0,1,1.3516-1.3457,6.3583,6.3583,0,0,1,1.6767-.8907,5.8748,5.8748,0,0,1,1.97-.3242,4.7308,4.7308,0,0,1,1.73.2852,3.6778,3.6778,0,0,1,1.1953.7285,2.9285,2.9285,0,0,1,.6963.9746,2.5924,2.5924,0,0,1,.2275,1.0147,3.5561,3.5561,0,0,1-.3516,1.5791,3.2763,3.2763,0,0,1-1.2871,1.3,9.602,9.602,0,0,1-2.5742,1.0078,28.2784,28.2784,0,0,1-4.2119.6884c0,.0958-.002.1885-.0059.28s-.0068.1836-.0068.2793a4.0668,4.0668,0,0,0,.7607,2.6582,2.8086,2.8086,0,0,0,2.294.917,4.3622,4.3622,0,0,0,1.1123-.13,4.73,4.73,0,0,0,.87-.3193,3.8312,3.8312,0,0,0,.6768-.416q.2914-.2271.5322-.416t.4492-.3184a.7863.7863,0,0,1,.416-.13.5807.5807,0,0,1,.4414.2207Zm-3.666-9.2558a3.3719,3.3719,0,0,0-1.5078.3379,4.01,4.01,0,0,0-1.2217.9287,5.6681,5.6681,0,0,0-.91,1.3916,8.2768,8.2768,0,0,0-.5849,1.7226,25.4108,25.4108,0,0,0,3.2109-.5654,8.0141,8.0141,0,0,0,1.8584-.6894,1.7933,1.7933,0,0,0,1.0664-1.6963,1.3084,1.3084,0,0,0-.4355-.9492,1.7961,1.7961,0,0,0-.5918-.3448A2.5293,2.5293,0,0,0,437.2209,247.2364Z"/><path class="i" d="M457.19,255.4522a11.3067,11.3067,0,0,1-1.0078,1.5078,7.0471,7.0471,0,0,1-1.1435,1.15,4.9752,4.9752,0,0,1-1.2744.7344,3.7841,3.7841,0,0,1-1.3848.26,3.2441,3.2441,0,0,1-1.417-.3046,2.9541,2.9541,0,0,1-1.085-.8975,4.37,4.37,0,0,1-.6953-1.4561,7.2181,7.2181,0,0,1-.247-1.9824,8.9112,8.9112,0,0,1,.2919-2.2812,9.2768,9.2768,0,0,1,2.126-3.9131,8.65,8.65,0,0,1,1.6836-1.4307,7.9973,7.9973,0,0,1,1.9951-.9355,7.4988,7.4988,0,0,1,2.2364-.3311,9.7754,9.7754,0,0,1,1.6445.1358,6.9655,6.9655,0,0,1,1.5791.4746l-1.5732,12.74h-1.1954a.7042.7042,0,0,1-.6181-.2344.9729.9729,0,0,1-.1621-.5713Zm.8838-8.0859a3.593,3.593,0,0,0-.5654-.085c-.1865-.0127-.3711-.0195-.5527-.0195a4.555,4.555,0,0,0-1.5079.2539,5.4038,5.4038,0,0,0-1.3652.708,6.0684,6.0684,0,0,0-1.1572,1.0859,6.9975,6.9975,0,0,0-.89,1.3848,7.8253,7.8253,0,0,0-.5791,1.6055,7.3411,7.3411,0,0,0-.208,1.748q0,3.1333,2.002,3.1328a2.2643,2.2643,0,0,0,1.248-.3965,4.8618,4.8618,0,0,0,1.1641-1.1045,9.3234,9.3234,0,0,0,1.02-1.6777,15.8407,15.8407,0,0,0,.832-2.125Z"/><path class="i" d="M465.6389,249.42a11.1977,11.1977,0,0,1,1.124-1.918,5.6117,5.6117,0,0,1,1.2676-1.2734,3.1442,3.1442,0,0,1,1.3652-.56,2.6586,2.6586,0,0,1,1.43.2148l-.416,2.2227a2.6616,2.6616,0,0,0-2.9834.4941,8.6813,8.6813,0,0,0-2.1,4.2256l-.7276,6.0967h-2.2627l1.586-13.1816h1.1445a.695.695,0,0,1,.793.7793Z"/><path class="i" d="M475.2189,245.754l-1.5859,13.1689h-2.2744l1.5859-13.1689Zm.8838-4.1338a1.4693,1.4693,0,0,1-.1357.63,1.832,1.832,0,0,1-.3643.52,1.7184,1.7184,0,0,1-.5205.3574,1.4672,1.4672,0,0,1-.6045.13,1.3956,1.3956,0,0,1-.5849-.13,1.583,1.583,0,0,1-.5-.3574,1.83,1.83,0,0,1-.3448-.52,1.5251,1.5251,0,0,1-.13-.63,1.5815,1.5815,0,0,1,.13-.6377,1.7629,1.7629,0,0,1,.3516-.5264,1.7347,1.7347,0,0,1,.5068-.3633,1.33,1.33,0,0,1,.585-.1367,1.4706,1.4706,0,0,1,.6045.13,1.6534,1.6534,0,0,1,.5137.3574,1.8523,1.8523,0,0,1,.3574.5332A1.56,1.56,0,0,1,476.1027,241.62Z"/><path class="i" d="M487.57,256.4922a11.609,11.609,0,0,1-1.3,1.1758,7.8423,7.8423,0,0,1-1.2939.8125,5.6815,5.6815,0,0,1-1.378.4746,7.6556,7.6556,0,0,1-1.5537.1494,5.1752,5.1752,0,0,1-2.0273-.3769,4.1882,4.1882,0,0,1-1.5215-1.0723,4.824,4.824,0,0,1-.9619-1.6836,6.7906,6.7906,0,0,1-.3379-2.21,9.6524,9.6524,0,0,1,.2148-2.0215,9.3863,9.3863,0,0,1,.6241-1.917,8.6713,8.6713,0,0,1,1.0009-1.69,6.7331,6.7331,0,0,1,1.3516-1.3457,6.3573,6.3573,0,0,1,1.6768-.8907,5.8738,5.8738,0,0,1,1.97-.3242,4.7308,4.7308,0,0,1,1.73.2852,3.6767,3.6767,0,0,1,1.1953.7285,2.9285,2.9285,0,0,1,.6963.9746,2.5924,2.5924,0,0,1,.2275,1.0147,3.5574,3.5574,0,0,1-.3515,1.5791,3.2766,3.2766,0,0,1-1.2872,1.3,9.602,9.602,0,0,1-2.5742,1.0078,28.2784,28.2784,0,0,1-4.2119.6884c0,.0958-.0019.1885-.0058.28s-.0069.1836-.0069.2793a4.0662,4.0662,0,0,0,.7608,2.6582,2.8083,2.8083,0,0,0,2.2939.917,4.3622,4.3622,0,0,0,1.1123-.13,4.73,4.73,0,0,0,.87-.3193,3.8312,3.8312,0,0,0,.6768-.416q.2915-.2271.5322-.416t.4492-.3184a.7863.7863,0,0,1,.416-.13.581.581,0,0,1,.4415.2207Zm-3.666-9.2558a3.3719,3.3719,0,0,0-1.5078.3379,4.01,4.01,0,0,0-1.2217.9287,5.665,5.665,0,0,0-.91,1.3916,8.277,8.277,0,0,0-.585,1.7226,25.4108,25.4108,0,0,0,3.2109-.5654,8.0141,8.0141,0,0,0,1.8584-.6894,1.7933,1.7933,0,0,0,1.0664-1.6963,1.3084,1.3084,0,0,0-.4355-.9492,1.7951,1.7951,0,0,0-.5918-.3448A2.5293,2.5293,0,0,0,483.9035,247.2364Z"/><path class="i" d="M490.6887,256.44v-.2012c0-.082.0068-.2011.0195-.3574s.0351-.3594.0654-.6113.0713-.58.1231-.9873l.8066-6.5918h-1.47a.3725.3725,0,0,1-.292-.1231.4871.4871,0,0,1-.085-.3837l.1045-.9229,2.0283-.2725.9873-4.0693a.7305.7305,0,0,1,.2022-.3184.4936.4936,0,0,1,.3437-.124h1.209l-.5586,4.5371h3.458l-.1953,1.6768H493.965l-.7929,6.4746c-.044.3555-.0782.6416-.1045.8574s-.045.3906-.0577.52-.0224.2207-.0263.2725-.0069.0918-.0069.1172a1.3532,1.3532,0,0,0,.3125.9814,1.11,1.11,0,0,0,.8321.3184,1.698,1.698,0,0,0,.6045-.0967,2.9083,2.9083,0,0,0,.4482-.2148,3.8634,3.8634,0,0,0,.3252-.2149.3994.3994,0,0,1,.2207-.0976.2555.2555,0,0,1,.1758.0527.493.493,0,0,1,.11.1689l.4942,1.1045a4.8891,4.8891,0,0,1-1.4492.878,4.4527,4.4527,0,0,1-1.6319.3183,2.749,2.749,0,0,1-1.9824-.6894A2.7161,2.7161,0,0,1,490.6887,256.44Z"/><path class="i" d="M509.2267,256.4922a11.6,11.6,0,0,1-1.3,1.1758,7.8423,7.8423,0,0,1-1.2939.8125,5.6822,5.6822,0,0,1-1.3779.4746,7.657,7.657,0,0,1-1.5537.1494,5.1757,5.1757,0,0,1-2.0274-.3769,4.1882,4.1882,0,0,1-1.5215-1.0723,4.824,4.824,0,0,1-.9619-1.6836,6.7906,6.7906,0,0,1-.3379-2.21,9.6459,9.6459,0,0,1,.2149-2.0215,9.3861,9.3861,0,0,1,.624-1.917,8.6667,8.6667,0,0,1,1.001-1.69,6.73,6.73,0,0,1,1.3515-1.3457,6.3589,6.3589,0,0,1,1.6768-.8907,5.8742,5.8742,0,0,1,1.97-.3242,4.73,4.73,0,0,1,1.7295.2852,3.6756,3.6756,0,0,1,1.1953.7285,2.9271,2.9271,0,0,1,.6963.9746,2.5906,2.5906,0,0,1,.2275,1.0147,3.556,3.556,0,0,1-.3515,1.5791,3.277,3.277,0,0,1-1.2871,1.3,9.6048,9.6048,0,0,1-2.5742,1.0078,28.28,28.28,0,0,1-4.212.6884c0,.0958-.0019.1885-.0058.28s-.0069.1836-.0069.2793a4.0668,4.0668,0,0,0,.7608,2.6582,2.8084,2.8084,0,0,0,2.2939.917,4.3622,4.3622,0,0,0,1.1123-.13,4.7282,4.7282,0,0,0,.87-.3193,3.8338,3.8338,0,0,0,.6767-.416q.2914-.2271.5322-.416t.4493-.3184a.7858.7858,0,0,1,.416-.13.581.581,0,0,1,.4414.2207Zm-3.666-9.2558a3.3719,3.3719,0,0,0-1.5078.3379,4.0109,4.0109,0,0,0-1.2217.9287,5.6707,5.6707,0,0,0-.91,1.3916,8.277,8.277,0,0,0-.585,1.7226,25.4162,25.4162,0,0,0,3.211-.5654,8.0159,8.0159,0,0,0,1.8584-.6894,1.7933,1.7933,0,0,0,1.0664-1.6963,1.308,1.308,0,0,0-.4356-.9492,1.7951,1.7951,0,0,0-.5918-.3448A2.5293,2.5293,0,0,0,505.5607,247.2364Z"/><path class="i" d="M514.257,248.3018q0-.9492-.0908-1.9892t-.2793-2.08q-.189-1.0386-.4551-2.041a16.15,16.15,0,0,0-.6172-1.8711.697.697,0,0,1-.0263-.586.9448.9448,0,0,1,.3252-.3379l1.0791-.61a19.813,19.813,0,0,1,.916,2.3135,21.3578,21.3578,0,0,1,.624,2.3789q.24,1.1967.3574,2.3662t.1172,2.2617a29.53,29.53,0,0,1-.208,3.543,19.5825,19.5825,0,0,1-.7539,3.4775,22.4135,22.4135,0,0,1-1.5078,3.6143,31.9887,31.9887,0,0,1-2.4834,3.9648l-.9229-.5986a.8458.8458,0,0,1-.1562-.1426.4574.4574,0,0,1-.0908-.1885.5448.5448,0,0,1,.0127-.26,1.2156,1.2156,0,0,1,.1689-.3448,30.4014,30.4014,0,0,0,1.69-2.99,23.0589,23.0589,0,0,0,1.2549-3.1006,21.7889,21.7889,0,0,0,.7793-3.2754A22.3764,22.3764,0,0,0,514.257,248.3018Z"/></svg>