<svg xmlns="http://www.w3.org/2000/svg" viewBox="0 0 1159.5 313.2741"><defs><style>.a{opacity:0.5;}.b,.f,.h,.j,.l,.m{fill:none;}.b,.c,.j{stroke:#606060;}.b,.c,.d,.f,.h,.m{stroke-miterlimit:10;}.b,.c,.d,.f,.j{stroke-width:3px;}.c,.d,.i{fill:#fff;}.d,.f,.l,.m{stroke:#d91519;}.e,.l{opacity:0.3;}.f{stroke-linecap:square;}.g{fill:#d91519;}.h{stroke:#fff;stroke-width:2px;}.j,.l{stroke-linecap:round;stroke-linejoin:round;}.k{fill:#606060;}.l,.m{stroke-width:4px;}</style></defs><title>2_2</title><g class="a"><rect class="b" x="124.522" y="185.8239" width="47.3636" height="125.9503" transform="translate(296.4077 497.598) rotate(-180)"/><rect class="b" x="515.233" y="185.9287" width="125.8454" height="125.8454" transform="translate(1156.3114 497.7029) rotate(-180)"/><rect class="c" x="942.3149" y="184.0453" width="47.3556" height="127.7288" transform="translate(1931.9855 495.8194) rotate(-180)"/><rect class="b" x="549.5998" y="168.6631" width="57.2025" height="17.1607"/><rect class="b" x="532.439" y="111.4607" width="91.5239" height="57.2025" rx="9.2558"/><rect class="b" x="623.963" y="122.9012" width="34.3215" height="34.3215"/><rect class="b" x="738.7963" y="109.6821" width="40.0417" height="51.4822"/><rect class="b" x="744.5165" y="161.1643" width="28.6012" height="22.881"/><rect class="b" x="770.2576" y="118.2625" width="28.6012" height="11.4405" transform="translate(908.5409 -660.5755) rotate(90)"/><rect class="b" x="715.9153" y="184.0453" width="85.8037" height="127.7288" transform="translate(1517.6342 495.8194) rotate(-180)"/><rect class="b" x="315.1028" y="185.9287" width="125.8454" height="125.8454" transform="translate(756.051 497.7029) rotate(-180)"/><rect class="b" x="352.2844" y="168.6631" width="51.4822" height="17.1607"/><rect class="b" x="366.585" y="157.2226" width="22.881" height="11.4405"/><circle class="b" cx="377.6506" cy="118.9181" r="40.0417"/></g><rect class="d" x="866.771" y="1.5" width="291.229" height="143.9784" rx="10.1667"/><g class="e"><rect class="f" x="878.2238" y="12.4075" width="268.3234" height="122.1635" rx="7.125"/><path class="g" d="M1084.3747,11.8621h55.0475a7.125,7.125,0,0,1,7.125,7.125V126.9006a7.125,7.125,0,0,1-7.125,7.125h-55.0475a0,0,0,0,1,0,0V11.8621A0,0,0,0,1,1084.3747,11.8621Z"/><rect class="h" x="1096.9183" y="28.7686" width="16.3612" height="16.3612" rx="4"/><rect class="i" x="1096.9183" y="57.128" width="16.3612" height="16.3612" rx="4"/><rect class="i" x="1096.9183" y="86.5781" width="16.3612" height="16.3612" rx="4"/><line class="h" x1="1120.9147" y1="33.1316" x2="1135.0943" y2="33.1316"/><line class="h" x1="1120.9147" y1="38.5853" x2="1135.0943" y2="38.5853"/><line class="h" x1="1120.9147" y1="61.491" x2="1135.0943" y2="61.491"/><line class="h" x1="1120.9147" y1="66.9447" x2="1135.0943" y2="66.9447"/><line class="h" x1="1120.9147" y1="92.0319" x2="1135.0943" y2="92.0319"/><line class="h" x1="1120.9147" y1="97.4856" x2="1135.0943" y2="97.4856"/></g><polygon class="i" points="40 191.963 1136.539 191.963 1104.907 305.751 0 305.751 40 191.963"/><line class="b" x1="1105.0768" y1="304.9631" x2="0.5413" y2="304.9631"/><line class="j" x1="96" y1="192.6349" x2="1136.7084" y2="192.6349"/><line class="j" x1="32.173" y1="192.6349" x2="61.5" y2="192.6349"/><path class="j" d="M78.689,192.2193s.1884-47.7622-11.1895-73.0557"/><polygon class="k" points="75.59 120.343 68.4 121.211 64.033 126.988 61.935 109.968 75.59 120.343"/><path class="j" d="M78.9351,192.2193s-.189-47.7622,11.1894-73.0557"/><polygon class="k" points="93.591 126.988 89.224 121.211 82.034 120.343 95.689 109.968 93.591 126.988"/><path class="j" d="M94.6012,164.468c-9.2089,10.4451.8337,27.2942.8337,27.2942"/><path class="j" d="M62.4349,191.7622s11.7174-13.1792-.7269-27.2942"/><line class="l" x1="923" y1="73.5859" x2="1032" y2="73.5859"/><line class="m" x1="966" y1="73.5859" x2="1015" y2="73.5859"/><polygon class="g" points="956.151 85.586 966.151 75.586 976.151 85.586 956.151 85.586"/><polygon class="g" points="1005.151 85.346 1015.151 75.346 1025.151 85.346 1005.151 85.346"/></svg>