<svg xmlns="http://www.w3.org/2000/svg" viewBox="0 0 509.8442 179.3933"><defs><style>.a{fill:#d91519;}.b{fill:#606060;}.c,.d,.e,.g,.h{fill:none;}.c{stroke:#606060;stroke-miterlimit:10;}.c,.d,.e{stroke-width:3px;}.d,.e,.g,.h{stroke:#d91519;stroke-linecap:round;stroke-linejoin:round;}.d,.g{opacity:0.8;}.e,.h{opacity:0.3;}.f{fill:#fff;}.g,.h{stroke-width:4px;}</style></defs><title>2_graph</title><circle class="a" cx="342.1429" cy="28.6774" r="28.6774"/><path class="b" d="M226.2417,162.407h-4.4272l-1.6578,13.3877h-1.9516l1.6367-13.3877h-4.4482l.1884-1.6475h10.8589Z" transform="translate(-1.0283)"/><path class="b" d="M229.5356,165.1667l-1.28,10.628H226.42l1.28-10.628Zm.7134-3.3369a1.1884,1.1884,0,0,1-.11.5088,1.4547,1.4547,0,0,1-.294.42,1.3811,1.3811,0,0,1-.4194.2891,1.2013,1.2013,0,0,1-.4878.1045,1.1388,1.1388,0,0,1-.4722-.1045,1.2713,1.2713,0,0,1-.4043-.2891,1.4731,1.4731,0,0,1-.2778-.42,1.2377,1.2377,0,0,1-.105-.5088,1.278,1.278,0,0,1,.105-.5137,1.3984,1.3984,0,0,1,.2832-.4248,1.4174,1.4174,0,0,1,.4092-.2939,1.0863,1.0863,0,0,1,.4721-.11,1.1827,1.1827,0,0,1,.4878.1055,1.3173,1.3173,0,0,1,.4146.2881,1.4762,1.4762,0,0,1,.2886.4307A1.2583,1.2583,0,0,1,230.249,161.83Z" transform="translate(-1.0283)"/><path class="b" d="M239.5029,173.8327a9.3172,9.3172,0,0,1-1.0493.9493,6.3584,6.3584,0,0,1-1.0439.6562,4.585,4.585,0,0,1-1.1118.3828,6.2066,6.2066,0,0,1-1.254.12,4.2,4.2,0,0,1-1.6367-.3037,3.3965,3.3965,0,0,1-1.2275-.8652,3.8925,3.8925,0,0,1-.7764-1.3594,5.4778,5.4778,0,0,1-.2729-1.7832,7.7953,7.7953,0,0,1,.1733-1.6318,7.6155,7.6155,0,0,1,.5034-1.5469,6.9961,6.9961,0,0,1,.8081-1.3643,5.4082,5.4082,0,0,1,1.0909-1.0859,5.1064,5.1064,0,0,1,1.3535-.7187,4.723,4.723,0,0,1,1.5893-.2627,3.802,3.802,0,0,1,1.3955.2314,2.9685,2.9685,0,0,1,.9654.5869,2.3656,2.3656,0,0,1,.5615.7871,2.0926,2.0926,0,0,1,.1836.8184,2.8691,2.8691,0,0,1-.2837,1.2744,2.6442,2.6442,0,0,1-1.0386,1.05,7.7306,7.7306,0,0,1-2.0771.8125,22.7732,22.7732,0,0,1-3.3994.5566c0,.0772-.002.1524-.0054.2256s-.0049.1485-.0049.2256a3.282,3.282,0,0,0,.6138,2.1455,2.2672,2.2672,0,0,0,1.8515.7393,3.4734,3.4734,0,0,0,.897-.1045,3.86,3.86,0,0,0,.7031-.2568,3.1775,3.1775,0,0,0,.5454-.336q.236-.1832.43-.3359a4.2938,4.2938,0,0,1,.3618-.2569.6276.6276,0,0,1,.336-.1054.4673.4673,0,0,1,.3569.1787Zm-2.9585-7.47a2.7278,2.7278,0,0,0-1.2173.2725,3.2394,3.2394,0,0,0-.9863.75,4.5935,4.5935,0,0,0-.7344,1.123,6.7081,6.7081,0,0,0-.4721,1.39,20.4585,20.4585,0,0,0,2.5918-.4561,6.4242,6.4242,0,0,0,1.5-.5566,1.6256,1.6256,0,0,0,.6924-.6446,1.6451,1.6451,0,0,0,.1679-.7246,1.032,1.032,0,0,0-.084-.3935,1.0467,1.0467,0,0,0-.2675-.3721,1.4775,1.4775,0,0,0-.4771-.2783A2.045,2.045,0,0,0,236.5444,166.363Z" transform="translate(-1.0283)"/><path class="b" d="M241.1816,175.7947l1.28-10.6387h.9234a.5613.5613,0,0,1,.64.63l-.147,1.8877a6.5492,6.5492,0,0,1,1.7261-1.9873,3.3126,3.3126,0,0,1,1.9668-.6768,1.807,1.807,0,0,1,1.5947.7393,3.68,3.68,0,0,1,.5142,2.1142,6.1317,6.1317,0,0,1,1.7778-2.1562,3.5839,3.5839,0,0,1,2.0938-.6973,2.01,2.01,0,0,1,1.93,1.0488,5.0318,5.0318,0,0,1,.3359,2.9688l-.7969,6.7676h-1.8457l.8067-6.7676a4.2615,4.2615,0,0,0-.0782-1.8565.9588.9588,0,0,0-1.0117-.6084,1.9742,1.9742,0,0,0-.8984.2256,3.2443,3.2443,0,0,0-.8653.6611,5.2267,5.2267,0,0,0-.7812,1.08,8.79,8.79,0,0,0-.6455,1.4844v.0107l-.6817,5.7706h-1.8466l.7973-6.7676a4.5609,4.5609,0,0,0-.042-1.8565.9122.9122,0,0,0-.9863-.6084,2.0162,2.0162,0,0,0-.97.252,3.147,3.147,0,0,0-.8814.7285,5.9659,5.9659,0,0,0-.7714,1.165,11.2566,11.2566,0,0,0-.65,1.5469l-.6612,5.54Z" transform="translate(-1.0283)"/><path class="b" d="M260.36,168.0515a8.7171,8.7171,0,0,1,.87-1.2539,6.3273,6.3273,0,0,1,.9971-.96,4.4049,4.4049,0,0,1,1.0859-.6133,3.18,3.18,0,0,1,1.1484-.2148,2.5,2.5,0,0,1,2.1143.9863,4.7087,4.7087,0,0,1,.75,2.8848,8.4353,8.4353,0,0,1-.1778,1.7207,8.8351,8.8351,0,0,1-.5087,1.6416,8.15,8.15,0,0,1-.7979,1.459,6.2821,6.2821,0,0,1-1.0381,1.1748,4.6234,4.6234,0,0,1-1.2431.7812,3.5747,3.5747,0,0,1-1.4063.2832,3.2253,3.2253,0,0,1-1.4267-.31,3.1074,3.1074,0,0,1-1.0918-.876l-.5665,4.6377h-1.8144l1.7305-14.2373h.9238a.5564.5564,0,0,1,.6289.63Zm-.5664,5.414a2.2559,2.2559,0,0,0,.9541.792,2.8807,2.8807,0,0,0,1.1337.2364,2.3441,2.3441,0,0,0,1.0274-.2315,3.2094,3.2094,0,0,0,.8818-.624,4.5023,4.5023,0,0,0,.7129-.9229,6.4752,6.4752,0,0,0,.53-1.1337,7.6977,7.6977,0,0,0,.33-1.2481,7.2233,7.2233,0,0,0,.1162-1.2744,3.3329,3.3329,0,0,0-.4512-1.8994,1.4572,1.4572,0,0,0-1.2695-.65,1.9618,1.9618,0,0,0-1.0176.31,4.15,4.15,0,0,0-.9922.8652,7.52,7.52,0,0,0-.8916,1.3223,10.5155,10.5155,0,0,0-.7187,1.6787Z" transform="translate(-1.0283)"/><path class="b" d="M272.74,175.9411a4.1418,4.1418,0,0,1-1.5947-.2988,3.4961,3.4961,0,0,1-1.248-.8652,3.9827,3.9827,0,0,1-.8184-1.3848,5.5,5.5,0,0,1-.2939-1.8682,7.5139,7.5139,0,0,1,.42-2.5283,6.7494,6.7494,0,0,1,1.1533-2.0722,5.5386,5.5386,0,0,1,1.7266-1.4,4.5673,4.5673,0,0,1,2.1347-.5137,4.1423,4.1423,0,0,1,1.5948.2988,3.5077,3.5077,0,0,1,1.249.8653,4.01,4.01,0,0,1,.8183,1.3847,5.49,5.49,0,0,1,.293,1.8574,7.4962,7.4962,0,0,1-.4189,2.5176,6.8772,6.8772,0,0,1-1.1494,2.0781,5.5106,5.5106,0,0,1-1.7256,1.4112A4.5723,4.5723,0,0,1,272.74,175.9411Zm.1788-1.458a2.4308,2.4308,0,0,0,1.39-.42,3.7488,3.7488,0,0,0,1.07-1.1172,5.6367,5.6367,0,0,0,.6875-1.61,7.4261,7.4261,0,0,0,.2412-1.9092,3.5317,3.5317,0,0,0-.582-2.209,2.0047,2.0047,0,0,0-1.6738-.7393,2.4739,2.4739,0,0,0-1.4.4141A3.6741,3.6741,0,0,0,271.5854,168a5.6873,5.6873,0,0,0-.6816,1.6045,7.4321,7.4321,0,0,0-.2412,1.91,3.5992,3.5992,0,0,0,.5771,2.2187A1.99,1.99,0,0,0,272.9185,174.4831Z" transform="translate(-1.0283)"/><path class="b" d="M7.0083,79.6238a6.7944,6.7944,0,0,1,2.0776.2841,3.8621,3.8621,0,0,1,1.4532.8076,3.2993,3.2993,0,0,1,.8549,1.2588,4.5114,4.5114,0,0,1,.2832,1.6368,5.918,5.918,0,0,1-.3881,2.1767,4.7333,4.7333,0,0,1-1.128,1.7051A5.1893,5.1893,0,0,1,8.3354,88.61a7.0788,7.0788,0,0,1-2.4809.4043H3.6719L2.98,94.6589H1.0283l1.836-15.0351Zm-.9648,7.8378a4.2231,4.2231,0,0,0,1.5737-.2724,3.1818,3.1818,0,0,0,1.1435-.7608,3.266,3.266,0,0,0,.7027-1.165A4.3527,4.3527,0,0,0,9.7051,83.79a3.13,3.13,0,0,0-.1787-1.0918,2.1577,2.1577,0,0,0-.5352-.8233,2.3784,2.3784,0,0,0-.9018-.5244,3.9926,3.9926,0,0,0-1.27-.1836H4.6372l-.7764,6.2949Z" transform="translate(-1.0283)"/><path class="b" d="M15.0762,86.989a9.0309,9.0309,0,0,1,.9077-1.5469,4.5162,4.5162,0,0,1,1.0229-1.0283,2.5389,2.5389,0,0,1,1.1016-.4512,2.14,2.14,0,0,1,1.1543.1729l-.3359,1.7939a2.1468,2.1468,0,0,0-2.4078.3994,6.9991,6.9991,0,0,0-1.6943,3.4092l-.5879,4.9209H12.4116l1.28-10.6387h.9233a.5614.5614,0,0,1,.64.63Z" transform="translate(-1.0283)"/><path class="b" d="M27.95,92.697a9.3062,9.3062,0,0,1-1.0493.9492,6.3557,6.3557,0,0,1-1.044.6563,4.5821,4.5821,0,0,1-1.1118.3828,6.2056,6.2056,0,0,1-1.2539.12,4.2017,4.2017,0,0,1-1.6367-.3037,3.3955,3.3955,0,0,1-1.2275-.8653,3.8889,3.8889,0,0,1-.7764-1.3593,5.4782,5.4782,0,0,1-.273-1.7832,7.7964,7.7964,0,0,1,.1734-1.6319,7.6126,7.6126,0,0,1,.5034-1.5468,6.99,6.99,0,0,1,.8081-1.3643,5.41,5.41,0,0,1,1.0908-1.0859,5.11,5.11,0,0,1,1.3535-.7188,4.724,4.724,0,0,1,1.5894-.2627,3.8019,3.8019,0,0,1,1.3955.2315,2.9669,2.9669,0,0,1,.9653.5869,2.3646,2.3646,0,0,1,.5616.7871,2.0943,2.0943,0,0,1,.1836.8183,2.8706,2.8706,0,0,1-.2837,1.2745,2.6455,2.6455,0,0,1-1.0386,1.05,7.73,7.73,0,0,1-2.0772.8125,22.7817,22.7817,0,0,1-3.3994.5566c0,.0772-.0019.1523-.0053.2256s-.0049.1484-.0049.2256a3.2827,3.2827,0,0,0,.6137,2.1455,2.2676,2.2676,0,0,0,1.8516.7392,3.4742,3.4742,0,0,0,.897-.1044,3.86,3.86,0,0,0,.7031-.2569,3.1772,3.1772,0,0,0,.5454-.3359q.2358-.1831.43-.336a4.291,4.291,0,0,1,.3618-.2568.6275.6275,0,0,1,.3359-.1055.4676.4676,0,0,1,.357.1787Zm-2.9585-7.47a2.7288,2.7288,0,0,0-1.2173.2724,3.2426,3.2426,0,0,0-.9863.75,4.5912,4.5912,0,0,0-.7344,1.1231,6.7072,6.7072,0,0,0-.4721,1.39,20.461,20.461,0,0,0,2.5918-.456,6.4273,6.4273,0,0,0,1.5-.5567,1.6245,1.6245,0,0,0,.6923-.6445,1.6442,1.6442,0,0,0,.168-.7246,1.0325,1.0325,0,0,0-.084-.3936,1.0464,1.0464,0,0,0-.2676-.372,1.476,1.476,0,0,0-.477-.2784A2.0475,2.0475,0,0,0,24.9912,85.2273Z" transform="translate(-1.0283)"/><path class="b" d="M36.48,85.73a.6652.6652,0,0,1-.168.1836.3578.3578,0,0,1-.21.0576.5864.5864,0,0,1-.32-.1152c-.1152-.0772-.2553-.1621-.42-.2569a3.4287,3.4287,0,0,0-.603-.2627,3.0119,3.0119,0,0,0-1.7207.0108,2.0626,2.0626,0,0,0-.666.3623,1.6244,1.6244,0,0,0-.43.54,1.4646,1.4646,0,0,0-.1523.6563,1.0067,1.0067,0,0,0,.3251.7861,2.97,2.97,0,0,0,.8184.5088q.4929.2154,1.06.415a5.5087,5.5087,0,0,1,1.06.503,2.7251,2.7251,0,0,1,.8184.7763,2.1281,2.1281,0,0,1,.3252,1.2276A3.5366,3.5366,0,0,1,35.0786,93.71a4.0836,4.0836,0,0,1-1.3008.8125,4.5522,4.5522,0,0,1-1.705.3047,4.2406,4.2406,0,0,1-1.7994-.3623,3.7411,3.7411,0,0,1-1.2744-.9287l.4614-.7129a.7868.7868,0,0,1,.2046-.21.5124.5124,0,0,1,.6241.0733c.1118.0986.2519.208.42.331a2.586,2.586,0,0,0,1.605.4766,2.5876,2.5876,0,0,0,.9287-.1573,2.1759,2.1759,0,0,0,.7031-.4189,1.78,1.78,0,0,0,.44-.6143,1.8647,1.8647,0,0,0,.1524-.75,1.13,1.13,0,0,0-.3252-.85,2.6605,2.6605,0,0,0-.8184-.5244q-.4937-.2109-1.06-.3935a5.4078,5.4078,0,0,1-1.06-.4727,2.59,2.59,0,0,1-.8184-.75,2.09,2.09,0,0,1-.3252-1.2275,3.2612,3.2612,0,0,1,.2676-1.2959,3.345,3.345,0,0,1,.771-1.1065,3.77,3.77,0,0,1,1.2227-.7715,4.3173,4.3173,0,0,1,1.6206-.288,4.1649,4.1649,0,0,1,1.6841.3193,3.8912,3.8912,0,0,1,1.2539.8662Z" transform="translate(-1.0283)"/><path class="b" d="M41.2422,84.031l-1.28,10.6279H38.1265l1.28-10.6279Zm.7134-3.3369a1.1888,1.1888,0,0,1-.11.5088,1.4544,1.4544,0,0,1-.2939.42,1.383,1.383,0,0,1-.4195.289,1.2,1.2,0,0,1-.4878.1045,1.1368,1.1368,0,0,1-.4721-.1045,1.2726,1.2726,0,0,1-.4043-.289,1.4734,1.4734,0,0,1-.2779-.42,1.2379,1.2379,0,0,1-.1049-.5088A1.2772,1.2772,0,0,1,39.49,80.18a1.4,1.4,0,0,1,.2832-.4248,1.4191,1.4191,0,0,1,.4092-.294,1.088,1.088,0,0,1,.4722-.11,1.1812,1.1812,0,0,1,.4878.1055,1.3182,1.3182,0,0,1,.4145.288,1.4736,1.4736,0,0,1,.2886.4307A1.2588,1.2588,0,0,1,41.9556,80.6941Z" transform="translate(-1.0283)"/><path class="b" d="M46.8027,94.8054a4.1418,4.1418,0,0,1-1.5947-.2988,3.4983,3.4983,0,0,1-1.2485-.8653,4.0044,4.0044,0,0,1-.8184-1.3847,5.5123,5.5123,0,0,1-.2934-1.8682,7.5262,7.5262,0,0,1,.4194-2.5283,6.7488,6.7488,0,0,1,1.1543-2.0723,5.532,5.532,0,0,1,1.7256-1.4,4.5719,4.5719,0,0,1,2.1352-.5136,4.14,4.14,0,0,1,1.5948.2988,3.498,3.498,0,0,1,1.2485.8652,4.0047,4.0047,0,0,1,.8183,1.3848,5.4793,5.4793,0,0,1,.294,1.8574,7.4846,7.4846,0,0,1-.42,2.5176,6.8635,6.8635,0,0,1-1.149,2.0781,5.5018,5.5018,0,0,1-1.7255,1.4111A4.5709,4.5709,0,0,1,46.8027,94.8054Zm.1787-1.458a2.4355,2.4355,0,0,0,1.39-.42,3.7534,3.7534,0,0,0,1.07-1.1172,5.6526,5.6526,0,0,0,.6875-1.61,7.4475,7.4475,0,0,0,.2412-1.9092,3.5281,3.5281,0,0,0-.5825-2.2089,2.0031,2.0031,0,0,0-1.6733-.7393,2.4739,2.4739,0,0,0-1.4.4141,3.66,3.66,0,0,0-1.065,1.1074,5.6438,5.6438,0,0,0-.6821,1.6045,7.4319,7.4319,0,0,0-.2412,1.91,3.5993,3.5993,0,0,0,.5771,2.2188A1.989,1.989,0,0,0,46.9814,93.3474Zm4.5533-13.8906-2.56,2.706a1.02,1.02,0,0,1-.2832.2256.7406.7406,0,0,1-.3359.0684H47.3276l1.71-2.5391a1.1741,1.1741,0,0,1,.3306-.3516.91.91,0,0,1,.4878-.1093Z" transform="translate(-1.0283)"/><path class="b" d="M56.4131,86.7165a6.6076,6.6076,0,0,1,1.92-2.124,3.9013,3.9013,0,0,1,2.2031-.7187,2.4976,2.4976,0,0,1,1.1807.2675,2.1355,2.1355,0,0,1,.8286.7813,3.3361,3.3361,0,0,1,.4356,1.2646,6.3248,6.3248,0,0,1,0,1.7041l-.7974,6.7676H60.3267l.7973-6.7676a3.4328,3.4328,0,0,0-.1577-1.8623,1.1416,1.1416,0,0,0-1.1225-.6025,2.1917,2.1917,0,0,0-1.023.2724,3.9322,3.9322,0,0,0-1.002.7764,6.4459,6.4459,0,0,0-.8969,1.2119,8.4563,8.4563,0,0,0-.708,1.5791l-.6089,5.3926H53.7378l1.28-10.6387h.9233a.5564.5564,0,0,1,.6294.63Z" transform="translate(-1.0283)"/><polyline class="c" points="375.717 146.884 90.341 146.884 90.341 21.683"/><path class="d" d="M92.0689,104.3929c24.1319,0,21.0181-47.038,41.2579-47.038s4.6707,40.3408,37.3656,40.3408S192.489,66.81,206.5011,66.81s2.3354,24.8979,23.3536,24.8979,15.569-15.7582,31.9164-15.7582S267.22,86.98,282.0109,86.98s10.3568-7.879,25.1474-7.879,9.8828,6.6184,23.1165,6.6184,10.8983-3.4668,22.5751-3.4668S364.5266,85.72,374.6465,85.72" transform="translate(-1.0283)"/><path class="e" d="M92.0689,133.07c24.1319,0,21.0181-104.3929,41.2579-104.3929s4.6707,89.53,37.3656,89.53,21.7966-68.5461,35.8087-68.5461,2.3354,55.2565,23.3536,55.2565,15.569-34.9724,31.9164-34.9724,5.4492,24.4807,20.24,24.4807S292.3677,76.94,307.1583,76.94s9.8828,14.6884,23.1165,14.6884S341.1731,83.934,352.85,83.934s11.6767,7.6939,21.7966,7.6939" transform="translate(-1.0283)"/><rect class="f" x="339.3452" y="21.1584" width="5.5956" height="25.1802"/><circle class="f" cx="342.1429" cy="13.8141" r="3.3224"/><line class="g" x1="418.678" y1="114.0103" x2="432.667" y2="114.0103"/><line class="h" x1="418.678" y1="72.0433" x2="432.667" y2="72.0433"/><path class="b" d="M460.45,61.904l-1.8574,15.0352h-.9756a.7375.7375,0,0,1-.3877-.0889,1.0011,1.0011,0,0,1-.2842-.2783l-6.4834-11.499c-.0146.14-.0244.2715-.0312.3935s-.0176.2393-.0323.3516l-1.3525,11.1211H447.314l1.8466-15.0352h1.0176a.8359.8359,0,0,1,.378.0635.7423.7423,0,0,1,.2412.2725l6.4941,11.4882c.0137-.16.0264-.3144.0371-.4609s.0225-.2832.0361-.4092l1.3536-10.9541Z" transform="translate(-1.0283)"/><path class="b" d="M465.7583,77.0857a4.14,4.14,0,0,1-1.5947-.2989,3.4965,3.4965,0,0,1-1.2481-.8652,3.9807,3.9807,0,0,1-.8183-1.3848,5.499,5.499,0,0,1-.294-1.8681,7.516,7.516,0,0,1,.42-2.5283,6.7469,6.7469,0,0,1,1.1534-2.0723,5.5422,5.5422,0,0,1,1.7265-1.4,4.568,4.568,0,0,1,2.1348-.5137,4.14,4.14,0,0,1,1.5947.2989,3.5078,3.5078,0,0,1,1.249.8652,4.01,4.01,0,0,1,.8184,1.3848,5.4922,5.4922,0,0,1,.293,1.8574,7.4971,7.4971,0,0,1-.419,2.5176,6.8751,6.8751,0,0,1-1.1494,2.0781,5.5094,5.5094,0,0,1-1.7256,1.4111A4.5717,4.5717,0,0,1,465.7583,77.0857Zm.1787-1.458a2.4312,2.4312,0,0,0,1.39-.42,3.7476,3.7476,0,0,0,1.07-1.1172,5.6423,5.6423,0,0,0,.6875-1.61,7.43,7.43,0,0,0,.2412-1.9092,3.5323,3.5323,0,0,0-.582-2.209,2.005,2.005,0,0,0-1.6739-.7392,2.4746,2.4746,0,0,0-1.4.414,3.6719,3.6719,0,0,0-1.0654,1.1075,5.6832,5.6832,0,0,0-.6816,1.6045,7.4275,7.4275,0,0,0-.2412,1.91,3.5989,3.5989,0,0,0,.5771,2.2188A1.99,1.99,0,0,0,465.937,75.6277Z" transform="translate(-1.0283)"/><path class="b" d="M475.3579,69.2693a8.9979,8.9979,0,0,1,.9072-1.5469,4.4979,4.4979,0,0,1,1.0235-1.0283,2.5319,2.5319,0,0,1,1.1015-.4512,2.1377,2.1377,0,0,1,1.1534.1728l-.335,1.794a2.1472,2.1472,0,0,0-2.4082.3994,6.9978,6.9978,0,0,0-1.6943,3.4092l-.5879,4.9209h-1.8252l1.28-10.6387h.9229a.5609.5609,0,0,1,.64.63Z" transform="translate(-1.0283)"/><path class="b" d="M479.87,76.9392l1.28-10.6387h.9229a.561.561,0,0,1,.64.63l-.1465,1.8877a6.5574,6.5574,0,0,1,1.7256-1.9873,3.3164,3.3164,0,0,1,1.9678-.6768,1.8083,1.8083,0,0,1,1.5947.7393,3.6806,3.6806,0,0,1,.5137,2.1142,6.1167,6.1167,0,0,1,1.7783-2.1562,3.5793,3.5793,0,0,1,2.0937-.6973,2.0108,2.0108,0,0,1,1.93,1.0489,5.0386,5.0386,0,0,1,.336,2.9687l-.7969,6.7676h-1.8467l.8076-6.7676a4.2566,4.2566,0,0,0-.0791-1.8564.958.958,0,0,0-1.0117-.6084,1.971,1.971,0,0,0-.8974.2255,3.2448,3.2448,0,0,0-.8653.6612,5.2261,5.2261,0,0,0-.7822,1.08,8.75,8.75,0,0,0-.6445,1.4843v.0108l-.6827,5.77H485.86l.7978-6.7676a4.5694,4.5694,0,0,0-.042-1.8564.9125.9125,0,0,0-.9863-.6084,2.0179,2.0179,0,0,0-.9707.2519,3.1668,3.1668,0,0,0-.8809.7285,5.99,5.99,0,0,0-.7715,1.1651,11.3679,11.3679,0,0,0-.65,1.5468l-.6612,5.54Z" transform="translate(-1.0283)"/><path class="b" d="M502.9507,74.1374a9.141,9.141,0,0,1-.8125,1.2178,5.734,5.734,0,0,1-.9238.9287,4.0486,4.0486,0,0,1-1.0284.5928,3.0649,3.0649,0,0,1-1.1172.209,2.6145,2.6145,0,0,1-1.1435-.2461,2.3773,2.3773,0,0,1-.876-.7237,3.528,3.528,0,0,1-.5615-1.1757,5.8366,5.8366,0,0,1-.1992-1.6,7.2174,7.2174,0,0,1,.2363-1.8417,7.473,7.473,0,0,1,1.7148-3.1573,7.0289,7.0289,0,0,1,1.3594-1.1543,6.4722,6.4722,0,0,1,1.61-.7558,6.0573,6.0573,0,0,1,1.8047-.2676,7.9068,7.9068,0,0,1,1.3271.11,5.5543,5.5543,0,0,1,1.2744.3829l-1.2695,10.2822h-.9649a.5693.5693,0,0,1-.499-.1885.7947.7947,0,0,1-.1308-.4619Zm.7139-6.5254a3.0329,3.0329,0,0,0-.4561-.0683c-.1514-.0108-.3-.0157-.4463-.0157a3.6645,3.6645,0,0,0-1.2168.2051,4.2853,4.2853,0,0,0-1.1016.5713,4.9423,4.9423,0,0,0-.9345.876,5.7371,5.7371,0,0,0-.7178,1.1172,6.3287,6.3287,0,0,0-.4678,1.2959,5.9563,5.9563,0,0,0-.167,1.4111q0,2.5284,1.6153,2.5283a1.83,1.83,0,0,0,1.0068-.3193,3.9226,3.9226,0,0,0,.94-.8926,7.5345,7.5345,0,0,0,.8232-1.3525,12.74,12.74,0,0,0,.6719-1.7158Z" transform="translate(-1.0283)"/><path class="b" d="M507.1587,76.9392l1.8779-15.4541h1.836l-1.878,15.4541Z" transform="translate(-1.0283)"/><path class="b" d="M458.645,119.6062h-1.5107a.5953.5953,0,0,1-.4092-.1309.7229.7229,0,0,1-.21-.3408l-.8183-3.6729H449.58l-1.72,3.6729a.9308.9308,0,0,1-.2891.33.72.72,0,0,1-.4355.1416H445.604l7.3652-15.0352h1.9932Zm-3.2627-5.5713-1.375-6.2217q-.0526-.2827-.126-.6553t-.1259-.8027q-.1568.4409-.3145.8076t-.2832.6611l-2.9062,6.211Z" transform="translate(-1.0283)"/><path class="b" d="M468.1079,117.697a9.6337,9.6337,0,0,1-1.0381.9961,5.0289,5.0289,0,0,1-.9863.6348,4.0076,4.0076,0,0,1-1.0234.331,6.5358,6.5358,0,0,1-1.1377.0938,3.9777,3.9777,0,0,1-1.6319-.3145,3.2192,3.2192,0,0,1-1.1855-.8867,3.8931,3.8931,0,0,1-.7237-1.374,5.9779,5.9779,0,0,1-.247-1.7676,7.6221,7.6221,0,0,1,.4043-2.4766,6.9349,6.9349,0,0,1,1.1279-2.0986,5.6109,5.6109,0,0,1,1.7256-1.458,4.5064,4.5064,0,0,1,2.1875-.5459,3.8086,3.8086,0,0,1,1.7734.373,3.6966,3.6966,0,0,1,1.2481,1.086l-.5869.7031a.6847.6847,0,0,1-.1631.1357.3946.3946,0,0,1-.2041.0528.4283.4283,0,0,1-.2891-.1309,3.6645,3.6645,0,0,0-.3721-.2939,2.6674,2.6674,0,0,0-.5722-.294,2.4878,2.4878,0,0,0-.876-.1308,2.5593,2.5593,0,0,0-1.3643.3935,3.824,3.824,0,0,0-1.122,1.0752,5.4714,5.4714,0,0,0-.7608,1.6152,6.9915,6.9915,0,0,0-.2783,2.004A4.3821,4.3821,0,0,0,462.16,116.6a2.5126,2.5126,0,0,0,.44.9024,2.0234,2.0234,0,0,0,.7187.5771,2.27,2.27,0,0,0,.9913.2041,2.9212,2.9212,0,0,0,1.1806-.21,4.001,4.001,0,0,0,.8028-.456q.3252-.2462.5507-.4561a.6663.6663,0,0,1,.4454-.21.469.469,0,0,1,.3574.1787Z" transform="translate(-1.0283)"/><path class="b" d="M470.521,117.6023v-.1631c0-.0664.0059-.1621.0156-.2881s.0283-.29.0528-.4932.0576-.4687.1-.7968l.65-5.3194h-1.1856a.2991.2991,0,0,1-.2353-.1.39.39,0,0,1-.0684-.31l.084-.7451,1.6367-.2207.7969-3.2842a.5951.5951,0,0,1,.1631-.2568.3977.3977,0,0,1,.2773-.1h.9766l-.4512,3.6621h2.79l-.1572,1.3535h-2.8008l-.6406,5.2246c-.0352.2871-.0625.5176-.084.6924s-.0361.3145-.0469.42-.0175.1778-.0205.22-.0058.0732-.0058.0947a1.0926,1.0926,0,0,0,.2519.792.8955.8955,0,0,0,.6719.2568,1.3718,1.3718,0,0,0,.4873-.0781,2.3256,2.3256,0,0,0,.3623-.1738,2.9029,2.9029,0,0,0,.2617-.1729.3268.3268,0,0,1,.1787-.0781.2045.2045,0,0,1,.1416.042.3858.3858,0,0,1,.0889.1357l.3994.8916a3.9356,3.9356,0,0,1-1.17.709,3.5947,3.5947,0,0,1-1.3174.2568,2.2211,2.2211,0,0,1-1.6-.5566A2.1969,2.1969,0,0,1,470.521,117.6023Z" transform="translate(-1.0283)"/><path class="b" d="M486.731,108.9782l-1.28,10.628h-.9229a.5986.5986,0,0,1-.6826-.6719l.1582-1.94a6.4846,6.4846,0,0,1-1.8945,2.0615,3.8792,3.8792,0,0,1-2.166.6973,2.526,2.526,0,0,1-1.1856-.2676,2.12,2.12,0,0,1-.834-.7813,3.321,3.321,0,0,1-.4355-1.2588,6.0894,6.0894,0,0,1,.0107-1.71l.7969-6.7569h1.8574l-.7978,6.7569a3.47,3.47,0,0,0,.1523,1.8564,1.1364,1.1364,0,0,0,1.128.6084,2.1906,2.1906,0,0,0,.997-.2617,3.8121,3.8121,0,0,0,.9854-.7451,6.33,6.33,0,0,0,.8867-1.17,8.1948,8.1948,0,0,0,.709-1.5264l.66-5.5186Z" transform="translate(-1.0283)"/><path class="b" d="M494.7983,116.8044a9.1217,9.1217,0,0,1-.8125,1.2178,5.734,5.734,0,0,1-.9238.9287,4.0528,4.0528,0,0,1-1.0283.5928,3.0653,3.0653,0,0,1-1.1172.209,2.6149,2.6149,0,0,1-1.1436-.2461,2.3778,2.3778,0,0,1-.8759-.7237,3.53,3.53,0,0,1-.5616-1.1757,5.8366,5.8366,0,0,1-.1992-1.6,7.2144,7.2144,0,0,1,.2364-1.8418,7.4734,7.4734,0,0,1,1.7148-3.1572,7.0289,7.0289,0,0,1,1.3594-1.1543,6.4732,6.4732,0,0,1,1.61-.7558,6.0578,6.0578,0,0,1,1.8047-.2676,7.908,7.908,0,0,1,1.3272.11,5.5589,5.5589,0,0,1,1.2744.3828l-1.27,10.2823h-.9648a.5693.5693,0,0,1-.499-.1885.7948.7948,0,0,1-.1309-.4619Zm.7139-6.5254a3.0317,3.0317,0,0,0-.456-.0683c-.1514-.0108-.3-.0157-.4463-.0157a3.664,3.664,0,0,0-1.2168.2051,4.2853,4.2853,0,0,0-1.1016.5713,4.94,4.94,0,0,0-.9346.876,5.7367,5.7367,0,0,0-.7177,1.1172,6.3287,6.3287,0,0,0-.4678,1.2959,5.9563,5.9563,0,0,0-.167,1.4111q0,2.5284,1.6152,2.5283a1.83,1.83,0,0,0,1.0069-.3193,3.9224,3.9224,0,0,0,.9394-.8926,7.5346,7.5346,0,0,0,.8233-1.3525,12.7532,12.7532,0,0,0,.6718-1.7158Z" transform="translate(-1.0283)"/><path class="b" d="M499.0063,119.6062l1.878-15.4541H502.72l-1.8779,15.4541Z" transform="translate(-1.0283)"/></svg>