<svg xmlns="http://www.w3.org/2000/svg" viewBox="0 0 157.4056 109.6313"><defs><style>.a{isolation:isolate;}.b{fill:none;stroke:#606060;stroke-miterlimit:10;stroke-width:3px;}.b,.e{opacity:0.4;mix-blend-mode:multiply;}.c{opacity:0.5;}.d{fill:#606060;}</style></defs><title>drag</title><g class="a"><polyline class="b" points="141.728 3.722 155.732 31.982 141.728 60.242"/><polyline class="b" points="15.677 3.722 1.674 31.982 15.677 60.242"/><g class="c"><path class="d" d="M45.8772,109.3764H43.593a.8954.8954,0,0,1-.6191-.1992,1.1008,1.1008,0,0,1-.3164-.5176L41.42,103.0845H32.1721L29.5706,108.66a1.3909,1.3909,0,0,1-.4356.502,1.0861,1.0861,0,0,1-.6582.2148H26.16L37.2961,86.5512H40.31Zm-4.9336-8.458-2.0772-9.4453c-.0537-.2871-.1171-.6181-.19-.9951s-.1377-.7832-.19-1.2187q-.2388.6693-.4766,1.2265t-.4277,1.0029l-4.3936,9.43Z"/><path class="d" d="M52.1741,97.7329a13.7018,13.7018,0,0,1,1.372-2.35,6.84,6.84,0,0,1,1.5469-1.5606,3.8191,3.8191,0,0,1,1.6651-.6855,3.2335,3.2335,0,0,1,1.7451.2637l-.5078,2.7236a3.236,3.236,0,0,0-3.6407.6045q-1.5776,1.434-2.5615,5.1767l-.8877,7.4707H48.1448L50.08,93.2251h1.3955a.85.85,0,0,1,.9678.956Z"/><path class="d" d="M63.0237,97.7329a13.7083,13.7083,0,0,1,1.372-2.35,6.8417,6.8417,0,0,1,1.5469-1.5606,3.8191,3.8191,0,0,1,1.6651-.6855,3.2335,3.2335,0,0,1,1.7451.2637l-.5078,2.7236a3.236,3.236,0,0,0-3.6407.6045q-1.5775,1.434-2.5615,5.1767l-.8877,7.4707H58.9944L60.93,93.2251h1.3955a.85.85,0,0,1,.9678.956Z"/><path class="d" d="M79.7737,105.1235a13.7469,13.7469,0,0,1-1.23,1.8477,8.5275,8.5275,0,0,1-1.3955,1.41,6.0372,6.0372,0,0,1-1.5547.8994,4.6,4.6,0,0,1-1.6895.3184,3.9386,3.9386,0,0,1-1.7285-.374,3.5907,3.5907,0,0,1-1.3242-1.0987,5.3518,5.3518,0,0,1-.8486-1.7841,8.8819,8.8819,0,0,1-.3018-2.4287,10.9726,10.9726,0,0,1,.3574-2.7959,11.3769,11.3769,0,0,1,2.5928-4.794,10.5871,10.5871,0,0,1,2.0547-1.7529,9.7451,9.7451,0,0,1,2.4346-1.1465,9.1083,9.1083,0,0,1,2.7285-.4063,11.8748,11.8748,0,0,1,2.0058.167,8.3937,8.3937,0,0,1,1.9278.5821l-1.92,15.6093h-1.459a.8553.8553,0,0,1-.753-.2871,1.1932,1.1932,0,0,1-.1982-.7Zm1.0791-9.9072a4.5413,4.5413,0,0,0-.6905-.1035c-.2275-.0157-.4521-.0244-.6738-.0244a5.531,5.531,0,0,0-1.84.3115,6.571,6.571,0,0,0-1.666.8672,7.46,7.46,0,0,0-1.4112,1.33,8.6792,8.6792,0,0,0-1.0869,1.6963,9.63,9.63,0,0,0-.706,1.9678,9.0375,9.0375,0,0,0-.2539,2.1426q0,3.8379,2.4433,3.8379a2.7568,2.7568,0,0,0,1.5225-.4854,5.96,5.96,0,0,0,1.42-1.3535,11.4142,11.4142,0,0,0,1.2451-2.0557,19.2018,19.2018,0,0,0,1.0147-2.6035Z"/><path class="d" d="M96.4123,95.8218a1.0253,1.0253,0,0,1-.2539.2783.5449.5449,0,0,1-.3173.0879.8808.8808,0,0,1-.4834-.1758q-.2622-.1743-.6348-.39a5.1626,5.1626,0,0,0-.9121-.3984,4.5389,4.5389,0,0,0-2.6016.0156,3.1394,3.1394,0,0,0-1.0068.55,2.4849,2.4849,0,0,0-.65.82,2.2389,2.2389,0,0,0-.2305.9961A1.532,1.532,0,0,0,89.8137,98.8a4.5322,4.5322,0,0,0,1.2373.7724q.7456.3267,1.6016.6289a8.29,8.29,0,0,1,1.6025.7647,4.12,4.12,0,0,1,1.2373,1.1787,3.2326,3.2326,0,0,1,.4912,1.8633,5.3822,5.3822,0,0,1-.4355,2.1347,5.3246,5.3246,0,0,1-1.2539,1.792,6.17,6.17,0,0,1-1.9668,1.2344,6.8682,6.8682,0,0,1-2.5772.4619,6.388,6.388,0,0,1-2.7207-.55,5.6593,5.6593,0,0,1-1.9267-1.4092l.6972-1.083a1.198,1.198,0,0,1,.31-.3193.7818.7818,0,0,1,.4365-.1113.7733.7733,0,0,1,.5078.2236q.2535.2226.6338.501a3.9039,3.9039,0,0,0,2.4268.7256,3.9183,3.9183,0,0,0,1.4043-.2393,3.2948,3.2948,0,0,0,1.0625-.6377,2.6738,2.6738,0,0,0,.666-.9316,2.8463,2.8463,0,0,0,.2305-1.1387,1.7152,1.7152,0,0,0-.4922-1.29,4.0221,4.0221,0,0,0-1.2373-.7969q-.7457-.3179-1.6016-.5967a8.0791,8.0791,0,0,1-1.6025-.7168,3.9232,3.9232,0,0,1-1.2373-1.1387,3.1911,3.1911,0,0,1-.4912-1.8642,4.9646,4.9646,0,0,1,.4043-1.9668,5.0753,5.0753,0,0,1,1.166-1.6807A5.7241,5.7241,0,0,1,90.2336,93.44a6.5072,6.5072,0,0,1,2.4512-.4375,6.2735,6.2735,0,0,1,2.5459.4854,5.8934,5.8934,0,0,1,1.8955,1.3144Z"/><path class="d" d="M100.0129,106.3345v-.2471c0-.1006.0078-.2471.0235-.4385s.042-.44.0791-.748.0879-.712.1513-1.211l.9834-8.0752H99.4573a.4545.4545,0,0,1-.3565-.1513.5972.5972,0,0,1-.1035-.47l.127-1.1308,2.4746-.335,1.205-4.9853a.9005.9005,0,0,1,.2461-.3907.6034.6034,0,0,1,.4209-.1513h1.4747l-.6817,5.56h4.2188l-.2373,2.0547H104.01l-.9678,7.9317q-.079.6532-.1269,1.0517c-.0313.2656-.0557.4776-.0713.6367s-.0264.2715-.0313.335-.0088.1113-.0088.1436a1.6629,1.6629,0,0,0,.3809,1.2021,1.3531,1.3531,0,0,0,1.0156.3906,2.0351,2.0351,0,0,0,.7373-.12,3.4367,3.4367,0,0,0,.5469-.2627,4.688,4.688,0,0,0,.3975-.2627.4847.4847,0,0,1,.27-.1191.3162.3162,0,0,1,.2139.0635.6011.6011,0,0,1,.1347.207l.6026,1.3535a5.9194,5.9194,0,0,1-1.7686,1.0752,5.3868,5.3868,0,0,1-1.99.3906,3.0423,3.0423,0,0,1-3.3311-3.2968Z"/><path class="d" d="M114.0188,97.7329a13.7019,13.7019,0,0,1,1.3721-2.35,6.8394,6.8394,0,0,1,1.5468-1.5606,3.8191,3.8191,0,0,1,1.6651-.6855,3.2334,3.2334,0,0,1,1.7451.2637l-.5078,2.7236a3.2358,3.2358,0,0,0-3.6406.6045q-1.5777,1.434-2.5616,5.1767l-.8877,7.4707H109.99l1.9355-16.1513h1.3956a.85.85,0,0,1,.9677.956Z"/><path class="d" d="M130.7688,105.1235a13.7374,13.7374,0,0,1-1.23,1.8477,8.5275,8.5275,0,0,1-1.3955,1.41,6.0372,6.0372,0,0,1-1.5547.8994,4.6,4.6,0,0,1-1.6894.3184,3.939,3.939,0,0,1-1.7286-.374,3.5907,3.5907,0,0,1-1.3242-1.0987,5.3518,5.3518,0,0,1-.8486-1.7841,8.8819,8.8819,0,0,1-.3018-2.4287,10.9726,10.9726,0,0,1,.3574-2.7959,11.3769,11.3769,0,0,1,2.5928-4.794,10.5871,10.5871,0,0,1,2.0547-1.7529,9.7451,9.7451,0,0,1,2.4346-1.1465,9.1083,9.1083,0,0,1,2.7285-.4063,11.876,11.876,0,0,1,2.0059.167,8.3944,8.3944,0,0,1,1.9277.5821l-1.92,15.6093h-1.459a.8551.8551,0,0,1-.7529-.2871,1.1926,1.1926,0,0,1-.1983-.7Zm1.0791-9.9072a4.542,4.542,0,0,0-.69-.1035c-.2276-.0157-.4522-.0244-.6739-.0244a5.531,5.531,0,0,0-1.84.3115,6.571,6.571,0,0,0-1.666.8672,7.46,7.46,0,0,0-1.4112,1.33,8.6792,8.6792,0,0,0-1.0869,1.6963,9.63,9.63,0,0,0-.706,1.9678,9.0375,9.0375,0,0,0-.2539,2.1426q0,3.8379,2.4433,3.8379a2.7568,2.7568,0,0,0,1.5225-.4854,5.958,5.958,0,0,0,1.42-1.3535,11.4142,11.4142,0,0,0,1.2451-2.0557,19.2018,19.2018,0,0,0,1.0147-2.6035Z"/></g><g class="e"><path class="d" d="M81.6223,49.9992l-7.318,12.6725L52.8023,50.1243a7.3169,7.3169,0,0,1-2.6772-9.9953h0A7.3168,7.3168,0,0,1,60.12,37.4518Z"/><path class="d" d="M66.9689,53.5719,45.7718,10.1645c-1.71-3.5019-.9038-7.6824,2.0264-9.3936,3.2108-1.875,7.4616-.195,9.3055,3.5809l9.34,19.1267c-1.8439-3.776-.5549-8.1612,2.8981-9.54,3.1512-1.2585,6.9437.6764,8.6538,4.1782L79.22,20.6235c-1.8439-3.776-.555-8.1612,2.8981-9.54,3.1512-1.2585,6.9437.6764,8.6537,4.1782l1.5579,3.19c-1.8439-3.776-.555-8.1611,2.8981-9.54,3.1512-1.2586,6.9437.6763,8.6537,4.1781l8.8548,18.133c7.0928,14.5245,2.5972,31.3022-10.0411,37.4738h0C90.0568,74.8679,74.0616,68.0965,66.9689,53.5719Z"/></g></g></svg>