<svg xmlns="http://www.w3.org/2000/svg" xmlns:xlink="http://www.w3.org/1999/xlink" viewBox="0 0 1351.3214 384.6694"><defs><style>.a{opacity:0.25;fill:url(#a);}.b{fill:#fff;}.c,.e,.h,.i{fill:none;}.c,.e{stroke:#d91519;}.c,.i{stroke-linecap:round;stroke-linejoin:round;}.c,.e,.h{stroke-width:3px;}.d{fill:#d91519;}.e,.h{stroke-miterlimit:10;}.f{fill:#727272;}.g{fill:#606060;}.h{stroke:#424242;}.i{stroke:#606060;stroke-width:2px;}</style><radialGradient id="a" cx="346.0032" cy="108.8005" r="512.0179" gradientUnits="userSpaceOnUse"><stop offset="0" stop-color="#d91519"/><stop offset="0.107" stop-color="#d91519" stop-opacity="0.9743"/><stop offset="0.2439" stop-color="#d91519" stop-opacity="0.9009"/><stop offset="0.3971" stop-color="#d91519" stop-opacity="0.7798"/><stop offset="0.5623" stop-color="#d91519" stop-opacity="0.6106"/><stop offset="0.737" stop-color="#d91519" stop-opacity="0.3935"/><stop offset="0.917" stop-color="#d91519" stop-opacity="0.1324"/><stop offset="1" stop-color="#d91519" stop-opacity="0"/></radialGradient></defs><title>fisura2</title><path class="a" d="M2.9183,379.4752H1350V95.4545l-395.0437-.3969c-664.9563,78-796.4758.9122-952.038.3969C3,96.0576,2.9183,379.4752,2.9183,379.4752Z" transform="translate(0 -3.1655)"/><polygon class="b" points="1350 278.392 0 278.392 0 383.392 1348.521 383.392 1350 278.392"/><line class="c" x1="495.6718" y1="330.8921" x2="604.4288" y2="330.8921"/><polygon class="d" points="599.373 337.558 602.205 330.892 599.373 324.226 615.174 330.892 599.373 337.558"/><line class="e" x1="1320.8214" y1="383.1694" x2="0.1786" y2="383.1694"/><line class="c" x1="6" y1="330.8921" x2="114.757" y2="330.8921"/><polygon class="d" points="109.702 337.558 112.533 330.892 109.702 324.226 125.503 330.892 109.702 337.558"/><line class="c" x1="250.8359" y1="330.8921" x2="359.593" y2="330.8921"/><polygon class="d" points="354.537 337.558 357.369 330.892 354.537 324.226 370.338 330.892 354.537 337.558"/><path class="c" d="M298.2538,281.8088s.1889-47.7623-11.1892-73.0554" transform="translate(0 -3.1655)"/><polygon class="d" points="295.155 206.767 287.965 207.635 283.598 213.413 281.5 196.392 295.155 206.767"/><path class="c" d="M298.5,281.8088s-.1889-47.7623,11.1893-73.0554" transform="translate(0 -3.1655)"/><polygon class="d" points="313.156 213.413 308.789 207.635 301.599 206.767 315.254 196.392 313.156 213.413"/><line class="c" x1="740.5077" y1="330.8921" x2="849.2648" y2="330.8921"/><polygon class="d" points="844.209 337.558 847.041 330.892 844.209 324.226 860.01 330.892 844.209 337.558"/><line class="c" x1="985.3436" y1="330.8921" x2="1094.1007" y2="330.8921"/><polygon class="d" points="1089.045 337.558 1091.877 330.892 1089.045 324.226 1104.846 330.892 1089.045 337.558"/><path class="c" d="M314.1662,254.0576c-9.2088,10.4451.8338,27.2943.8338,27.2943H1349.8214" transform="translate(0 -3.1655)"/><path class="c" d="M29.1786,281.3519H282s11.7174-13.1793-.727-27.2943" transform="translate(0 -3.1655)"/><rect class="f" x="4" y="58.7046" width="1345" height="34.3434"/><path class="g" d="M661.3394,11.6934a12.2494,12.2494,0,0,1-.7344,4.3354,10.0324,10.0324,0,0,1-2.0347,3.354,9.0258,9.0258,0,0,1-3.0874,2.1646,9.7613,9.7613,0,0,1-3.8935.7671h-6.4219l2.2881-18.629h6.435a7.8416,7.8416,0,0,1,3.0938.585,6.6576,6.6576,0,0,1,2.3467,1.6445A7.3062,7.3062,0,0,1,660.8193,8.45,9.6973,9.6973,0,0,1,661.3394,11.6934Zm-2.5088.0522A8.54,8.54,0,0,0,658.48,9.21,5.3739,5.3739,0,0,0,657.459,7.293a4.477,4.477,0,0,0-1.6314-1.209,5.3452,5.3452,0,0,0-2.1709-.4224h-3.9912l-1.82,14.69h3.9907a6.7023,6.7023,0,0,0,2.834-.5918,6.2168,6.2168,0,0,0,2.21-1.7027,8.0485,8.0485,0,0,0,1.4365-2.7041A11.7344,11.7344,0,0,0,658.8306,11.7456Z" transform="translate(0 -3.1655)"/><path class="g" d="M673.416,19.8833a11.6727,11.6727,0,0,1-1.3,1.1768,7.94,7.94,0,0,1-1.2934.8125,5.6962,5.6962,0,0,1-1.378.4746,7.6986,7.6986,0,0,1-1.5537.1494,5.194,5.194,0,0,1-2.0278-.377,4.1967,4.1967,0,0,1-1.521-1.0727,4.8258,4.8258,0,0,1-.9624-1.6836,6.802,6.802,0,0,1-.3379-2.21,9.7189,9.7189,0,0,1,.2143-2.0215,9.472,9.472,0,0,1,.6241-1.9174,8.7255,8.7255,0,0,1,1.0009-1.69,6.7667,6.7667,0,0,1,1.3521-1.3457,6.3625,6.3625,0,0,1,1.6772-.89,5.8472,5.8472,0,0,1,1.9693-.3252,4.7275,4.7275,0,0,1,1.729.2861,3.6864,3.6864,0,0,1,1.1963.728,2.914,2.914,0,0,1,.6953.9751,2.5828,2.5828,0,0,1,.2275,1.0137,3.5573,3.5573,0,0,1-.351,1.58,3.2834,3.2834,0,0,1-1.2872,1.3,9.6192,9.6192,0,0,1-2.5737,1.0073,28.37,28.37,0,0,1-4.2119.689c0,.0952-.0024.1885-.0068.2793s-.0064.1845-.0064.28a4.0646,4.0646,0,0,0,.7608,2.6582,2.8084,2.8084,0,0,0,2.2944.9165,4.3115,4.3115,0,0,0,1.1113-.13,4.7386,4.7386,0,0,0,.8711-.3184,3.8748,3.8748,0,0,0,.6758-.416q.293-.2271.5332-.416a5.138,5.138,0,0,1,.4487-.3184.7754.7754,0,0,1,.4156-.13.58.58,0,0,1,.4423.2212Zm-3.666-9.2559a3.3786,3.3786,0,0,0-1.5078.3379,4.0188,4.0188,0,0,0-1.2222.93,5.6809,5.6809,0,0,0-.91,1.3911,8.2926,8.2926,0,0,0-.585,1.7222,25.2083,25.2083,0,0,0,3.2114-.5654,7.9939,7.9939,0,0,0,1.8589-.689,1.7927,1.7927,0,0,0,1.0659-1.6963,1.3011,1.3011,0,0,0-.4355-.9492,1.8072,1.8072,0,0,0-.5913-.3442A2.5231,2.5231,0,0,0,669.75,10.6274Z" transform="translate(0 -3.1655)"/><path class="g" d="M683.9844,11.2515a.8267.8267,0,0,1-.2071.2275.4488.4488,0,0,1-.26.0713.7255.7255,0,0,1-.3965-.1431c-.1445-.0952-.3164-.2011-.5215-.3183a4.2074,4.2074,0,0,0-.7461-.3247,3.3508,3.3508,0,0,0-1.0664-.15,3.3115,3.3115,0,0,0-1.0664.1626,2.583,2.583,0,0,0-.8262.4487,2.0263,2.0263,0,0,0-.5312.6694,1.8019,1.8019,0,0,0-.1895.8125,1.2528,1.2528,0,0,0,.4024.9751,3.7241,3.7241,0,0,0,1.0156.63q.6093.2666,1.3125.5137a6.8058,6.8058,0,0,1,1.3125.624,3.3347,3.3347,0,0,1,1.0137.9619,2.621,2.621,0,0,1,.4043,1.521,4.3812,4.3812,0,0,1-1.3848,3.2046,5.0775,5.0775,0,0,1-1.6133,1.0073,5.642,5.642,0,0,1-2.1113.377,5.2508,5.2508,0,0,1-2.2305-.4488,4.6391,4.6391,0,0,1-1.5791-1.15l.5723-.8837a.9777.9777,0,0,1,.2534-.26.6333.6333,0,0,1,.773.0913q.2079.1817.5214.4092a3.1945,3.1945,0,0,0,1.9883.5918,3.2141,3.2141,0,0,0,1.15-.1953,2.71,2.71,0,0,0,.8711-.52,2.1816,2.1816,0,0,0,.5449-.76,2.2936,2.2936,0,0,0,.19-.93,1.4,1.4,0,0,0-.4024-1.0527,3.2951,3.2951,0,0,0-1.0156-.65q-.6093-.26-1.3125-.4878a6.6368,6.6368,0,0,1-1.3125-.585,3.1773,3.1773,0,0,1-1.0137-.93,2.5831,2.5831,0,0,1-.4033-1.521,4.0431,4.0431,0,0,1,.3311-1.6054,4.1407,4.1407,0,0,1,.9551-1.3711,4.677,4.677,0,0,1,1.5156-.9556,5.3458,5.3458,0,0,1,2.0078-.3574,5.1367,5.1367,0,0,1,2.0859.3965,4.8019,4.8019,0,0,1,1.5547,1.0722Z" transform="translate(0 -3.1655)"/><path class="g" d="M696.2568,19.8833a11.6639,11.6639,0,0,1-1.3,1.1768,7.9435,7.9435,0,0,1-1.2939.8125,5.6822,5.6822,0,0,1-1.3779.4746,7.6932,7.6932,0,0,1-1.5538.1494,5.1918,5.1918,0,0,1-2.0273-.377,4.1952,4.1952,0,0,1-1.5215-1.0727,4.8249,4.8249,0,0,1-.9619-1.6836,6.7886,6.7886,0,0,1-.3379-2.21,9.6459,9.6459,0,0,1,.2149-2.0215,9.4036,9.4036,0,0,1,.624-1.9174,8.646,8.646,0,0,1,1.001-1.69,6.7352,6.7352,0,0,1,1.3515-1.3457,6.36,6.36,0,0,1,1.6768-.89,5.85,5.85,0,0,1,1.97-.3252,4.7321,4.7321,0,0,1,1.73.2861,3.6759,3.6759,0,0,1,1.1953.728,2.9159,2.9159,0,0,1,.6963.9751,2.59,2.59,0,0,1,.2275,1.0137,3.5577,3.5577,0,0,1-.3515,1.58,3.28,3.28,0,0,1-1.2871,1.3,9.6187,9.6187,0,0,1-2.5743,1.0073,28.3473,28.3473,0,0,1-4.2119.689c0,.0952-.0019.1885-.0058.2793s-.0069.1845-.0069.28a4.0675,4.0675,0,0,0,.7608,2.6582,2.8081,2.8081,0,0,0,2.2939.9165,4.3223,4.3223,0,0,0,1.1123-.13,4.7276,4.7276,0,0,0,.87-.3184,3.8849,3.8849,0,0,0,.6768-.416q.2915-.2271.5322-.416a5.3766,5.3766,0,0,1,.4492-.3184.7783.7783,0,0,1,.4161-.13.5783.5783,0,0,1,.4414.2212Zm-3.666-9.2559a3.3786,3.3786,0,0,0-1.5078.3379,3.9988,3.9988,0,0,0-1.2217.93,5.6666,5.6666,0,0,0-.91,1.3911,8.2634,8.2634,0,0,0-.585,1.7222,25.2309,25.2309,0,0,0,3.2109-.5654,7.9868,7.9868,0,0,0,1.8584-.689,1.7925,1.7925,0,0,0,1.0665-1.6963,1.3058,1.3058,0,0,0-.4356-.9492,1.7943,1.7943,0,0,0-.5918-.3442A2.5162,2.5162,0,0,0,692.5908,10.6274Z" transform="translate(0 -3.1655)"/><path class="g" d="M706.8252,11.2515a.8281.8281,0,0,1-.208.2275.447.447,0,0,1-.26.0713.7255.7255,0,0,1-.3965-.1431c-.1435-.0952-.3164-.2011-.5205-.3183a4.2186,4.2186,0,0,0-.747-.3247,3.3513,3.3513,0,0,0-1.0664-.15,3.31,3.31,0,0,0-1.0655.1626,2.5708,2.5708,0,0,0-.8261.4487,2.017,2.017,0,0,0-.5323.6694,1.8141,1.8141,0,0,0-.1885.8125,1.25,1.25,0,0,0,.4024.9751,3.7026,3.7026,0,0,0,1.0146.63q.6109.2666,1.3125.5137a6.7865,6.7865,0,0,1,1.3135.624,3.3576,3.3576,0,0,1,1.0137.9619,2.6284,2.6284,0,0,1,.4033,1.521,4.38,4.38,0,0,1-1.3848,3.2046,5.06,5.06,0,0,1-1.6123,1.0073,5.6473,5.6473,0,0,1-2.1123.377,5.2465,5.2465,0,0,1-2.2295-.4488,4.6352,4.6352,0,0,1-1.5791-1.15l.5713-.8837a.9805.9805,0,0,1,.2539-.26.6341.6341,0,0,1,.7735.0913q.2079.1817.52.4092a3.2,3.2,0,0,0,1.9883.5918,3.21,3.21,0,0,0,1.15-.1953,2.6989,2.6989,0,0,0,.871-.52,2.1844,2.1844,0,0,0,.5459-.76,2.31,2.31,0,0,0,.1885-.93,1.3965,1.3965,0,0,0-.4023-1.0527,3.29,3.29,0,0,0-1.0147-.65q-.6108-.26-1.3125-.4878a6.6447,6.6447,0,0,1-1.3134-.585,3.1962,3.1962,0,0,1-1.0137-.93,2.59,2.59,0,0,1-.4033-1.521,4.044,4.044,0,0,1,.332-1.6054,4.1422,4.1422,0,0,1,.9551-1.3711,4.6733,4.6733,0,0,1,1.5146-.9556,5.3515,5.3515,0,0,1,2.0088-.3574,5.1434,5.1434,0,0,1,2.0859.3965,4.8077,4.8077,0,0,1,1.5538,1.0722Z" transform="translate(0 -3.1655)"/><path class="g" d="M709.7754,19.8315V19.63c0-.082.0068-.2017.0195-.3574s.0352-.3594.0655-.6109.0712-.5805.123-.9883l.8066-6.5908h-1.47a.3717.3717,0,0,1-.292-.1235.4872.4872,0,0,1-.0849-.3833l.1045-.9234,2.0283-.2729.9873-4.0689a.7291.7291,0,0,1,.2021-.3183.4911.4911,0,0,1,.3438-.1235h1.209L713.26,9.4053h3.458l-.1953,1.6772h-3.4707l-.793,6.4741c-.044.3555-.0781.6412-.1045.858s-.0449.39-.0576.52-.0225.2207-.0264.2729-.0068.0908-.0068.1167a1.3556,1.3556,0,0,0,.3125.982,1.1113,1.1113,0,0,0,.832.3183,1.6879,1.6879,0,0,0,.6045-.0976,2.8677,2.8677,0,0,0,.4482-.2144q.1948-.1171.3252-.2144a.3925.3925,0,0,1,.2207-.0976.2608.2608,0,0,1,.1758.0517.5083.5083,0,0,1,.11.1695l.4941,1.105a4.89,4.89,0,0,1-1.4492.8774,4.4523,4.4523,0,0,1-1.6318.3184,2.7507,2.7507,0,0,1-1.9825-.689A2.7181,2.7181,0,0,1,709.7754,19.8315Z" transform="translate(0 -3.1655)"/><path class="g" d="M726.0908,18.8433a11.3519,11.3519,0,0,1-1.0078,1.5083,7.0353,7.0353,0,0,1-1.1435,1.15,4.9854,4.9854,0,0,1-1.2745.7343,3.7925,3.7925,0,0,1-1.3847.26,3.2372,3.2372,0,0,1-1.417-.3057,2.9461,2.9461,0,0,1-1.085-.897,4.36,4.36,0,0,1-.6953-1.456,7.2159,7.2159,0,0,1-.2471-1.9824,8.9181,8.9181,0,0,1,.292-2.2818,9.3328,9.3328,0,0,1,.8321-2.0991,9.2317,9.2317,0,0,1,1.2939-1.8135,8.6472,8.6472,0,0,1,1.6836-1.43,7.9939,7.9939,0,0,1,1.9951-.9361,7.4828,7.4828,0,0,1,2.2363-.3315,9.7347,9.7347,0,0,1,1.6446.1367,6.8886,6.8886,0,0,1,1.5791.4741l-1.5733,12.74H726.624a.7056.7056,0,0,1-.6181-.2339.9785.9785,0,0,1-.1621-.5723Zm.8838-8.086a3.7746,3.7746,0,0,0-.5654-.0844c-.1865-.0127-.3711-.02-.5528-.02a4.557,4.557,0,0,0-1.5078.2534,5.4088,5.4088,0,0,0-1.3652.7085,6.0849,6.0849,0,0,0-1.1572,1.086,7.0222,7.0222,0,0,0-.89,1.3842,7.87,7.87,0,0,0-.5791,1.6055,7.346,7.346,0,0,0-.208,1.7486q0,3.1332,2.002,3.1328a2.2651,2.2651,0,0,0,1.248-.3965,4.86,4.86,0,0,0,1.1641-1.105,9.3376,9.3376,0,0,0,1.02-1.6768,15.852,15.852,0,0,0,.832-2.1254Z" transform="translate(0 -3.1655)"/><path class="g" d="M734.6836,12.4863a10.8618,10.8618,0,0,1,1.06-1.456,7.4824,7.4824,0,0,1,1.1894-1.1114,5.3385,5.3385,0,0,1,1.3-.7148,3.9008,3.9008,0,0,1,1.378-.2534,3.1172,3.1172,0,0,1,2.6259,1.2217,5.8046,5.8046,0,0,1,.9366,3.5752,10.5349,10.5349,0,0,1-.2208,2.1318,10.9188,10.9188,0,0,1-.6308,2.0347,10.1212,10.1212,0,0,1-.9883,1.8071,7.7568,7.7568,0,0,1-1.2871,1.4556,5.71,5.71,0,0,1-1.54.9687,4.4408,4.4408,0,0,1-1.7422.3511,4.0375,4.0375,0,0,1-1.8985-.4419,3.831,3.831,0,0,1-1.4033-1.2612l-.1826.8452a1.31,1.31,0,0,1-.26.5068.7406.7406,0,0,1-.5586.169h-1.2226l2.3144-19.149h2.2618Zm-.8447,6.9419a2.7917,2.7917,0,0,0,1.1894.982,3.5835,3.5835,0,0,0,1.3975.2924,2.91,2.91,0,0,0,1.2734-.2861,4.02,4.02,0,0,0,1.0928-.7734,5.4965,5.4965,0,0,0,.8769-1.1441,8.6117,8.6117,0,0,0,.6563-1.4043,8.7589,8.7589,0,0,0,.41-1.5468,9.3932,9.3932,0,0,0,.1367-1.58,4.16,4.16,0,0,0-.5528-2.3531,1.7882,1.7882,0,0,0-1.5664-.8056,2.4078,2.4078,0,0,0-1.2617.39,5.3308,5.3308,0,0,0-1.2344,1.086,9.1734,9.1734,0,0,0-1.1113,1.6508,13.1731,13.1731,0,0,0-.8906,2.0865Z" transform="translate(0 -3.1655)"/><path class="g" d="M748.97,9.1455l-1.5859,13.169h-2.2744l1.5859-13.169Zm.8838-4.1343a1.4767,1.4767,0,0,1-.1357.6309,1.8423,1.8423,0,0,1-.3643.52,1.7089,1.7089,0,0,1-.5205.3574,1.4736,1.4736,0,0,1-.6045.13,1.4017,1.4017,0,0,1-.5849-.13,1.5736,1.5736,0,0,1-.5-.3574,1.84,1.84,0,0,1-.3448-.52,1.5329,1.5329,0,0,1-.13-.6309,1.5751,1.5751,0,0,1,.13-.6367,1.7613,1.7613,0,0,1,.8584-.8906,1.3436,1.3436,0,0,1,.585-.1362,1.4785,1.4785,0,0,1,.6045.13,1.647,1.647,0,0,1,.5137.3575,1.8647,1.8647,0,0,1,.3574.5332A1.5607,1.5607,0,0,1,749.8535,5.0112Z" transform="translate(0 -3.1655)"/><path class="g" d="M751.0244,22.3145l2.3272-19.149h2.2744L753.3,22.3145Z" transform="translate(0 -3.1655)"/><path class="g" d="M760.8,9.1455l-1.5859,13.169H756.94l1.5859-13.169Zm.8838-4.1343a1.4767,1.4767,0,0,1-.1357.6309,1.8423,1.8423,0,0,1-.3643.52,1.7089,1.7089,0,0,1-.52.3574,1.4736,1.4736,0,0,1-.6045.13,1.4025,1.4025,0,0,1-.585-.13,1.5758,1.5758,0,0,1-.5-.3574,1.8423,1.8423,0,0,1-.3447-.52,1.5329,1.5329,0,0,1-.13-.6309,1.5751,1.5751,0,0,1,.13-.6367,1.7613,1.7613,0,0,1,.8584-.8906,1.3433,1.3433,0,0,1,.585-.1362,1.4789,1.4789,0,0,1,.6045.13,1.6454,1.6454,0,0,1,.5136.3575,1.8629,1.8629,0,0,1,.3575.5332A1.5607,1.5607,0,0,1,761.6836,5.0112Z" transform="translate(0 -3.1655)"/><path class="g" d="M772.89,9.1455l-.13.9878a1.43,1.43,0,0,1-.1368.4746,2.2672,2.2672,0,0,1-.2539.41l-7.5918,9.49h6.4873l-.208,1.8072h-9.2695l.1172-.962a1.2715,1.2715,0,0,1,.1172-.4033,1.7,1.7,0,0,1,.2734-.4287l7.6309-9.5552H763.543l.2207-1.82Z" transform="translate(0 -3.1655)"/><path class="g" d="M781.9512,18.8433a11.3616,11.3616,0,0,1-1.0078,1.5083,7.0357,7.0357,0,0,1-1.1436,1.15,4.9832,4.9832,0,0,1-1.2744.7343,3.793,3.793,0,0,1-1.3848.26,3.2375,3.2375,0,0,1-1.417-.3057,2.9458,2.9458,0,0,1-1.0849-.897,4.3561,4.3561,0,0,1-.6953-1.456,7.212,7.212,0,0,1-.2471-1.9824,8.9181,8.9181,0,0,1,.292-2.2818,9.3326,9.3326,0,0,1,.832-2.0991,9.2322,9.2322,0,0,1,1.294-1.8135,8.6414,8.6414,0,0,1,1.6836-1.43,7.9923,7.9923,0,0,1,1.9951-.9361,7.4818,7.4818,0,0,1,2.2363-.3315,9.7335,9.7335,0,0,1,1.6445.1367,6.8871,6.8871,0,0,1,1.5791.4741l-1.5732,12.74h-1.1953a.7058.7058,0,0,1-.6182-.2339.9785.9785,0,0,1-.1621-.5723Zm.8838-8.086a3.7759,3.7759,0,0,0-.5655-.0844c-.1865-.0127-.3711-.02-.5527-.02a4.5565,4.5565,0,0,0-1.5078.2534,5.4071,5.4071,0,0,0-1.3652.7085,6.0824,6.0824,0,0,0-1.1573,1.086,7.0217,7.0217,0,0,0-.89,1.3842,7.8584,7.8584,0,0,0-.5791,1.6055,7.3409,7.3409,0,0,0-.208,1.7486q0,3.1332,2.0019,3.1328a2.2657,2.2657,0,0,0,1.2481-.3965,4.8582,4.8582,0,0,0,1.164-1.105,9.3318,9.3318,0,0,0,1.02-1.6768,15.852,15.852,0,0,0,.8321-2.1254Z" transform="translate(0 -3.1655)"/><path class="g" d="M796.9648,19.9482a11.8875,11.8875,0,0,1-1.2871,1.2354,6.2409,6.2409,0,0,1-1.2216.7861,4.9192,4.9192,0,0,1-1.2676.41,8.0331,8.0331,0,0,1-1.41.1172,4.937,4.937,0,0,1-2.0215-.39,3.9964,3.9964,0,0,1-1.47-1.0986,4.8442,4.8442,0,0,1-.8965-1.7026,7.4211,7.4211,0,0,1-.3056-2.1909,9.4415,9.4415,0,0,1,.5009-3.0679,8.5966,8.5966,0,0,1,1.3975-2.6A6.948,6.948,0,0,1,791.1211,9.64a5.58,5.58,0,0,1,2.7109-.6762,4.7161,4.7161,0,0,1,2.1973.4614,4.6,4.6,0,0,1,1.5469,1.3457l-.7285.8711a.8283.8283,0,0,1-.2012.1689.4885.4885,0,0,1-.2539.065.5281.5281,0,0,1-.3574-.1626,4.46,4.46,0,0,0-.461-.3638,3.2548,3.2548,0,0,0-.709-.3642,3.0594,3.0594,0,0,0-1.0849-.1626,3.1707,3.1707,0,0,0-1.6905.4878,4.7608,4.7608,0,0,0-1.3906,1.3325,6.7949,6.7949,0,0,0-.9424,2.0019,8.6377,8.6377,0,0,0-.3447,2.4829,5.4773,5.4773,0,0,0,.1817,1.4624,3.1351,3.1351,0,0,0,.5458,1.1182,2.513,2.513,0,0,0,.8907.7149,2.8056,2.8056,0,0,0,1.2285.2534,3.6378,3.6378,0,0,0,1.4629-.26,4.9168,4.9168,0,0,0,.9941-.5654q.4029-.3054.6826-.5655a.8264.8264,0,0,1,.5528-.26.5783.5783,0,0,1,.4414.2212Z" transform="translate(0 -3.1655)"/><path class="g" d="M802.9063,9.1455l-1.586,13.169h-2.2744l1.5859-13.169Zm.8837-4.1343a1.4767,1.4767,0,0,1-.1357.6309,1.8423,1.8423,0,0,1-.3643.52,1.7077,1.7077,0,0,1-.52.3574,1.4736,1.4736,0,0,1-.6045.13,1.4017,1.4017,0,0,1-.5849-.13,1.5747,1.5747,0,0,1-.5-.3574,1.84,1.84,0,0,1-.3447-.52,1.5313,1.5313,0,0,1-.13-.6309,1.5735,1.5735,0,0,1,.13-.6367,1.76,1.76,0,0,1,.8584-.8906,1.3428,1.3428,0,0,1,.5849-.1362,1.4785,1.4785,0,0,1,.6045.13,1.647,1.647,0,0,1,.5137.3575,1.8626,1.8626,0,0,1,.3574.5332A1.5607,1.5607,0,0,1,803.79,5.0112Z" transform="translate(0 -3.1655)"/><path class="g" d="M809.7959,22.4966a5.1231,5.1231,0,0,1-1.9756-.3706,4.3382,4.3382,0,0,1-1.5478-1.0728,4.9479,4.9479,0,0,1-1.0137-1.7158,6.8359,6.8359,0,0,1-.3643-2.314,9.3219,9.3219,0,0,1,.52-3.1328,8.3616,8.3616,0,0,1,1.43-2.5678,6.8551,6.8551,0,0,1,2.1387-1.7354,5.6693,5.6693,0,0,1,2.6455-.6367,5.1211,5.1211,0,0,1,1.9756.37,4.3373,4.3373,0,0,1,1.5478,1.0728,4.9655,4.9655,0,0,1,1.0137,1.7158,6.7951,6.7951,0,0,1,.3643,2.3012,9.28,9.28,0,0,1-.52,3.12,8.5226,8.5226,0,0,1-1.4229,2.5742,6.8019,6.8019,0,0,1-2.1387,1.7485A5.6639,5.6639,0,0,1,809.7959,22.4966Zm.2207-1.8071a3.02,3.02,0,0,0,1.7227-.52,4.6642,4.6642,0,0,0,1.3261-1.3842,7.0091,7.0091,0,0,0,.8516-1.9956,9.2251,9.2251,0,0,0,.2988-2.3663,4.3665,4.3665,0,0,0-.7217-2.7363,2.4821,2.4821,0,0,0-2.0732-.9165,3.0679,3.0679,0,0,0-1.7354.5137,4.5364,4.5364,0,0,0-1.3193,1.3711,7.0187,7.0187,0,0,0-.8457,1.9892,9.2235,9.2235,0,0,0-.2988,2.3658,4.4587,4.4587,0,0,0,.7148,2.7495A2.4635,2.4635,0,0,0,810.0166,20.69Zm5.6426-17.212-3.1719,3.354a1.3,1.3,0,0,1-.3516.2793.9169.9169,0,0,1-.416.0845h-1.2734l2.1182-3.146a1.4382,1.4382,0,0,1,.41-.4355,1.1258,1.1258,0,0,1,.6045-.1363Z" transform="translate(0 -3.1655)"/><path class="g" d="M821.7041,12.4736a8.2077,8.2077,0,0,1,2.3789-2.6328,4.8408,4.8408,0,0,1,2.7305-.89,3.1,3.1,0,0,1,1.4619.331,2.65,2.65,0,0,1,1.0273.9688,4.1265,4.1265,0,0,1,.5391,1.5664,7.7823,7.7823,0,0,1,0,2.1128l-.9873,8.3848h-2.3018l.9883-8.3848a4.2491,4.2491,0,0,0-.1953-2.3076,1.4131,1.4131,0,0,0-1.3906-.7476,2.7137,2.7137,0,0,0-1.2676.3379,4.8842,4.8842,0,0,0-1.2412.9619,7.9359,7.9359,0,0,0-1.1113,1.5015,10.4637,10.4637,0,0,0-.878,1.9565l-.7539,6.6822h-2.3144l1.5859-13.1822h1.1445a.69.69,0,0,1,.78.78Z" transform="translate(0 -3.1655)"/><path class="g" d="M850.9023,3.1655,848.55,22.3145h-1.21a.6848.6848,0,0,1-.61-.2339,1.0053,1.0053,0,0,1-.1563-.5723l.2471-2.769a10.4053,10.4053,0,0,1-1.0791,1.5473,8.023,8.023,0,0,1-1.2285,1.1826,5.3177,5.3177,0,0,1-1.3389.7608,3.9119,3.9119,0,0,1-1.41.2666,3.1113,3.1113,0,0,1-2.626-1.2285,5.8114,5.8114,0,0,1-.9365-3.5689,10.4666,10.4666,0,0,1,.2207-2.1318,11.1029,11.1029,0,0,1,.6308-2.041,10.0408,10.0408,0,0,1,.9883-1.8135,7.4738,7.4738,0,0,1,1.293-1.4492,5.936,5.936,0,0,1,1.541-.9624,4.39,4.39,0,0,1,1.7354-.3506,4.0527,4.0527,0,0,1,1.7744.3833,3.8458,3.8458,0,0,1,1.3584,1.0854l.8974-7.2539Zm-3.3544,8.8531a2.6685,2.6685,0,0,0-1.19-.9815,3.7465,3.7465,0,0,0-1.41-.28,3.01,3.01,0,0,0-1.8457.6114,5.3807,5.3807,0,0,0-1.3974,1.5791,8.2686,8.2686,0,0,0-.8906,2.1645,9.2985,9.2985,0,0,0-.3125,2.353,4.1939,4.1939,0,0,0,.5527,2.36,1.7963,1.7963,0,0,0,1.58.8125,2.4054,2.4054,0,0,0,1.2607-.39,5.2194,5.2194,0,0,0,1.2285-1.0855,9.4882,9.4882,0,0,0,1.1045-1.6445,12.9317,12.9317,0,0,0,.8906-2.08Z" transform="translate(0 -3.1655)"/><path class="g" d="M862.3682,19.8833a11.6727,11.6727,0,0,1-1.3,1.1768,7.9443,7.9443,0,0,1-1.294.8125,5.6822,5.6822,0,0,1-1.3779.4746,7.6922,7.6922,0,0,1-1.5537.1494,5.1923,5.1923,0,0,1-2.0274-.377,4.196,4.196,0,0,1-1.5215-1.0727,4.8249,4.8249,0,0,1-.9619-1.6836,6.7886,6.7886,0,0,1-.3379-2.21,9.6459,9.6459,0,0,1,.2149-2.0215,9.4159,9.4159,0,0,1,.624-1.9174,8.6559,8.6559,0,0,1,1.001-1.69,6.7352,6.7352,0,0,1,1.3515-1.3457,6.3616,6.3616,0,0,1,1.6768-.89,5.85,5.85,0,0,1,1.97-.3252,4.7318,4.7318,0,0,1,1.73.2861,3.6748,3.6748,0,0,1,1.1953.728,2.9159,2.9159,0,0,1,.6963.9751,2.59,2.59,0,0,1,.2276,1.0137,3.5564,3.5564,0,0,1-.3516,1.58,3.28,3.28,0,0,1-1.2871,1.3,9.6179,9.6179,0,0,1-2.5742,1.0073,28.3473,28.3473,0,0,1-4.2119.689c0,.0952-.002.1885-.0059.2793s-.0068.1845-.0068.28a4.0681,4.0681,0,0,0,.7607,2.6582,2.8082,2.8082,0,0,0,2.294.9165,4.3223,4.3223,0,0,0,1.1123-.13,4.73,4.73,0,0,0,.87-.3184,3.8877,3.8877,0,0,0,.6767-.416q.2916-.2271.5323-.416a5.3438,5.3438,0,0,1,.4492-.3184.7777.7777,0,0,1,.416-.13.5782.5782,0,0,1,.4414.2212Zm-3.6661-9.2559a3.3789,3.3789,0,0,0-1.5078.3379,3.9984,3.9984,0,0,0-1.2216.93,5.6668,5.6668,0,0,0-.91,1.3911,8.2634,8.2634,0,0,0-.585,1.7222,25.2363,25.2363,0,0,0,3.211-.5654,7.99,7.99,0,0,0,1.8584-.689,1.7922,1.7922,0,0,0,1.0664-1.6963,1.3058,1.3058,0,0,0-.4356-.9492,1.7933,1.7933,0,0,0-.5918-.3442A2.5158,2.5158,0,0,0,858.7021,10.6274Z" transform="translate(0 -3.1655)"/><path class="g" d="M864.5127,22.3145,866.84,3.1655h2.2745l-2.3262,19.149Z" transform="translate(0 -3.1655)"/><path class="g" d="M877.4209,19.8315V19.63c0-.082.0068-.2017.0195-.3574s.0352-.3594.0655-.6109.0712-.5805.123-.9883l.8066-6.5908h-1.47a.3717.3717,0,0,1-.292-.1235.4872.4872,0,0,1-.0849-.3833l.1045-.9234,2.0283-.2729.9873-4.0689a.7291.7291,0,0,1,.2021-.3183.4913.4913,0,0,1,.3438-.1235h1.209l-.5586,4.5366h3.458l-.1953,1.6772h-3.4707l-.793,6.4741c-.0439.3555-.0781.6412-.1045.858s-.0449.39-.0576.52-.0225.2207-.0264.2729-.0068.0908-.0068.1167a1.3556,1.3556,0,0,0,.3125.982,1.1113,1.1113,0,0,0,.832.3183,1.6879,1.6879,0,0,0,.6045-.0976,2.869,2.869,0,0,0,.4483-.2144q.1947-.1171.3251-.2144a.3925.3925,0,0,1,.2207-.0976.2608.2608,0,0,1,.1758.0517.5083.5083,0,0,1,.11.1695l.4941,1.105a4.89,4.89,0,0,1-1.4492.8774,4.4523,4.4523,0,0,1-1.6318.3184,2.7507,2.7507,0,0,1-1.9825-.689A2.7181,2.7181,0,0,1,877.4209,19.8315Z" transform="translate(0 -3.1655)"/><path class="g" d="M895.959,19.8833a11.6727,11.6727,0,0,1-1.3,1.1768,7.9443,7.9443,0,0,1-1.294.8125,5.6807,5.6807,0,0,1-1.3779.4746,7.6922,7.6922,0,0,1-1.5537.1494,5.1914,5.1914,0,0,1-2.0273-.377,4.1943,4.1943,0,0,1-1.5215-1.0727,4.8233,4.8233,0,0,1-.9619-1.6836,6.7886,6.7886,0,0,1-.3379-2.21,9.6524,9.6524,0,0,1,.2148-2.0215,9.4159,9.4159,0,0,1,.624-1.9174,8.6559,8.6559,0,0,1,1.001-1.69,6.7357,6.7357,0,0,1,1.3516-1.3457,6.36,6.36,0,0,1,1.6767-.89,5.85,5.85,0,0,1,1.97-.3252,4.7316,4.7316,0,0,1,1.7294.2861,3.6764,3.6764,0,0,1,1.1954.728,2.9156,2.9156,0,0,1,.6962.9751,2.59,2.59,0,0,1,.2276,1.0137,3.5564,3.5564,0,0,1-.3516,1.58,3.28,3.28,0,0,1-1.2871,1.3,9.6165,9.6165,0,0,1-2.5742,1.0073,28.3473,28.3473,0,0,1-4.2119.689c0,.0952-.002.1885-.0059.2793s-.0068.1845-.0068.28a4.0681,4.0681,0,0,0,.7607,2.6582,2.8084,2.8084,0,0,0,2.294.9165,4.3223,4.3223,0,0,0,1.1123-.13,4.73,4.73,0,0,0,.87-.3184,3.8887,3.8887,0,0,0,.6768-.416q.2914-.2271.5322-.416a5.3438,5.3438,0,0,1,.4492-.3184.7779.7779,0,0,1,.416-.13.5782.5782,0,0,1,.4414.2212Zm-3.666-9.2559a3.3783,3.3783,0,0,0-1.5078.3379,3.9988,3.9988,0,0,0-1.2217.93,5.6668,5.6668,0,0,0-.91,1.3911,8.2633,8.2633,0,0,0-.5849,1.7222,25.2342,25.2342,0,0,0,3.2109-.5654,7.9886,7.9886,0,0,0,1.8584-.689,1.7922,1.7922,0,0,0,1.0664-1.6963,1.3062,1.3062,0,0,0-.4355-.9492,1.7953,1.7953,0,0,0-.5918-.3442A2.5166,2.5166,0,0,0,892.293,10.6274Z" transform="translate(0 -3.1655)"/><path class="g" d="M901.3408,12.8115a11.16,11.16,0,0,1,1.124-1.9175A5.6065,5.6065,0,0,1,903.7324,9.62a3.1391,3.1391,0,0,1,1.3653-.5591,2.6541,2.6541,0,0,1,1.43.2144l-.416,2.2231a2.6593,2.6593,0,0,0-2.9834.4942,8.68,8.68,0,0,0-2.1,4.2246l-.7275,6.0972h-2.2627L899.624,9.1323h1.1446a.6955.6955,0,0,1,.7929.78Z" transform="translate(0 -3.1655)"/><path class="g" d="M910.2324,12.8115a11.16,11.16,0,0,1,1.124-1.9175A5.6065,5.6065,0,0,1,912.624,9.62a3.1391,3.1391,0,0,1,1.3653-.5591,2.6541,2.6541,0,0,1,1.43.2144l-.416,2.2231a2.6593,2.6593,0,0,0-2.9834.4942,8.68,8.68,0,0,0-2.1,4.2246l-.7275,6.0972H906.93l1.5859-13.1822H909.66a.6955.6955,0,0,1,.7929.78Z" transform="translate(0 -3.1655)"/><path class="g" d="M926.1826,19.8833a11.6727,11.6727,0,0,1-1.3,1.1768,7.9435,7.9435,0,0,1-1.2939.8125,5.6815,5.6815,0,0,1-1.378.4746,7.6915,7.6915,0,0,1-1.5537.1494,5.1914,5.1914,0,0,1-2.0273-.377,4.1952,4.1952,0,0,1-1.5215-1.0727,4.8249,4.8249,0,0,1-.9619-1.6836,6.7886,6.7886,0,0,1-.3379-2.21,9.6524,9.6524,0,0,1,.2148-2.0215,9.41,9.41,0,0,1,.6241-1.9174,8.6505,8.6505,0,0,1,1.0009-1.69A6.7383,6.7383,0,0,1,919,10.1787a6.3585,6.3585,0,0,1,1.6768-.89,5.8491,5.8491,0,0,1,1.97-.3252,4.7321,4.7321,0,0,1,1.73.2861,3.6759,3.6759,0,0,1,1.1953.728,2.9173,2.9173,0,0,1,.6963.9751,2.5916,2.5916,0,0,1,.2275,1.0137,3.5577,3.5577,0,0,1-.3515,1.58,3.28,3.28,0,0,1-1.2872,1.3,9.6165,9.6165,0,0,1-2.5742,1.0073,28.3473,28.3473,0,0,1-4.2119.689c0,.0952-.0019.1885-.0058.2793s-.0069.1845-.0069.28a4.0675,4.0675,0,0,0,.7608,2.6582,2.808,2.808,0,0,0,2.2939.9165,4.3223,4.3223,0,0,0,1.1123-.13,4.73,4.73,0,0,0,.87-.3184,3.8849,3.8849,0,0,0,.6768-.416q.2915-.2271.5322-.416a5.36,5.36,0,0,1,.4492-.3184.7782.7782,0,0,1,.416-.13.5784.5784,0,0,1,.4415.2212Zm-3.666-9.2559a3.3786,3.3786,0,0,0-1.5078.3379,3.9988,3.9988,0,0,0-1.2217.93,5.6637,5.6637,0,0,0-.91,1.3911,8.2634,8.2634,0,0,0-.585,1.7222,25.2309,25.2309,0,0,0,3.2109-.5654,7.9886,7.9886,0,0,0,1.8584-.689,1.7922,1.7922,0,0,0,1.0664-1.6963,1.3062,1.3062,0,0,0-.4355-.9492,1.7943,1.7943,0,0,0-.5918-.3442A2.5162,2.5162,0,0,0,922.5166,10.6274Z" transform="translate(0 -3.1655)"/><path class="g" d="M931.5781,12.4736a8.2077,8.2077,0,0,1,2.3789-2.6328,4.8408,4.8408,0,0,1,2.7305-.89,3.1,3.1,0,0,1,1.4619.331,2.6511,2.6511,0,0,1,1.0274.9688,4.1282,4.1282,0,0,1,.539,1.5664,7.7823,7.7823,0,0,1,0,2.1128l-.9873,8.3848h-2.3017l.9882-8.3848a4.2491,4.2491,0,0,0-.1953-2.3076,1.413,1.413,0,0,0-1.3906-.7476,2.7137,2.7137,0,0,0-1.2676.3379,4.8859,4.8859,0,0,0-1.2412.9619,7.9359,7.9359,0,0,0-1.1113,1.5015,10.4571,10.4571,0,0,0-.8779,1.9565l-.754,6.6822h-2.3144l1.5859-13.1822h1.1446a.69.69,0,0,1,.78.78Z" transform="translate(0 -3.1655)"/><path class="g" d="M946.9434,22.4966a5.1224,5.1224,0,0,1-1.9756-.3706,4.3377,4.3377,0,0,1-1.5479-1.0728,4.9477,4.9477,0,0,1-1.0136-1.7158,6.8359,6.8359,0,0,1-.3643-2.314,9.3194,9.3194,0,0,1,.52-3.1328,8.36,8.36,0,0,1,1.43-2.5678,6.8529,6.8529,0,0,1,2.1387-1.7354,5.669,5.669,0,0,1,2.6455-.6367,5.1211,5.1211,0,0,1,1.9756.37A4.3382,4.3382,0,0,1,952.3,10.3936a4.9686,4.9686,0,0,1,1.0137,1.7158,6.7952,6.7952,0,0,1,.3642,2.3012,9.2775,9.2775,0,0,1-.52,3.12,8.5246,8.5246,0,0,1-1.4228,2.5742,6.8042,6.8042,0,0,1-2.1387,1.7485A5.6639,5.6639,0,0,1,946.9434,22.4966Zm.2207-1.8071a3.0192,3.0192,0,0,0,1.7226-.52,4.6657,4.6657,0,0,0,1.3262-1.3842,7.012,7.012,0,0,0,.8516-1.9956,9.2251,9.2251,0,0,0,.2988-2.3663,4.3671,4.3671,0,0,0-.7217-2.7363,2.4824,2.4824,0,0,0-2.0732-.9165,3.0676,3.0676,0,0,0-1.7354.5137,4.5364,4.5364,0,0,0-1.3193,1.3711,7.0159,7.0159,0,0,0-.8457,1.9892,9.2235,9.2235,0,0,0-.2989,2.3658,4.458,4.458,0,0,0,.7149,2.7495A2.4634,2.4634,0,0,0,947.1641,20.69Z" transform="translate(0 -3.1655)"/><path class="h" d="M319.3373,95.5127l-8.584-7.3951s14.7186-10.0841,11.9151-10.7564-11.9151-4.0337-11.9151-4.0337l12.27-10.7564" transform="translate(0 -3.1655)"/><path class="h" d="M503.5583,62.5711l8.584,7.395S497.4237,80.05,500.2272,80.7226s11.9151,4.0336,11.9151,4.0336l-12.27,10.7565" transform="translate(0 -3.1655)"/><path class="i" d="M488.6626,18.4152l11.4233,11.4234a19.6262,19.6262,0,0,1,5.7484,13.8778V61.87" transform="translate(0 -3.1655)"/><path class="g" d="M501.3226,61.87a4.5117,4.5117,0,1,0,4.5117-4.5117A4.5122,4.5122,0,0,0,501.3226,61.87Z" transform="translate(0 -3.1655)"/><path class="i" d="M633.9212,17.5391,619.5191,31.9412a19.6265,19.6265,0,0,0-5.7484,13.8779v77.2385" transform="translate(0 -3.1655)"/><path class="g" d="M609.259,123.0576a4.5117,4.5117,0,1,0,4.5117-4.5116A4.5122,4.5122,0,0,0,609.259,123.0576Z" transform="translate(0 -3.1655)"/><path class="g" d="M409.18,13.3965h5.3432l-.8842,7.1108a10.7522,10.7522,0,0,1-1.4492.8843,10.0117,10.0117,0,0,1-1.5733.63,10.8815,10.8815,0,0,1-1.7485.3769,14.9976,14.9976,0,0,1-1.9888.1236,7.5629,7.5629,0,0,1-3.0684-.6045,6.7882,6.7882,0,0,1-2.353-1.69,7.5543,7.5543,0,0,1-1.5014-2.5937,9.9648,9.9648,0,0,1-.5264-3.3018,12.45,12.45,0,0,1,.7475-4.4A10.4,10.4,0,0,1,402.2441,6.5a9.229,9.229,0,0,1,3.1333-2.2295,10.421,10.421,0,0,1,5.9278-.6108,7.6652,7.6652,0,0,1,1.5991.5068,6.6061,6.6061,0,0,1,1.3.7671,8.3053,8.3053,0,0,1,1.06.9619l-.78,1.0142a.806.806,0,0,1-.4614.3379A.6978.6978,0,0,1,413.47,7.13a6.094,6.094,0,0,1-.63-.4356,4.8821,4.8821,0,0,0-.8384-.5068,6.2691,6.2691,0,0,0-1.1831-.416,6.82,6.82,0,0,0-1.6641-.1753,6.9514,6.9514,0,0,0-2.9316.6108,6.5217,6.5217,0,0,0-2.2881,1.7417,8.1127,8.1127,0,0,0-1.482,2.7305,11.3458,11.3458,0,0,0-.5263,3.5615,8.4591,8.4591,0,0,0,.3833,2.6392,5.7931,5.7931,0,0,0,1.0854,1.9892,4.6965,4.6965,0,0,0,1.69,1.2544,5.3814,5.3814,0,0,0,2.1967.4356,9.5151,9.5151,0,0,0,1.2613-.0782,9.07,9.07,0,0,0,1.1049-.2143,6.9659,6.9659,0,0,0,.9878-.3384,10.1118,10.1118,0,0,0,.9361-.4614l.52-4.2119h-2.6a.4785.4785,0,0,1-.3638-.1363.3824.3824,0,0,1-.104-.3315Z" transform="translate(0 -3.1655)"/><path class="g" d="M419.9175,12.8115a11.1931,11.1931,0,0,1,1.1245-1.9175A5.6146,5.6146,0,0,1,422.31,9.62a3.1339,3.1339,0,0,1,1.3652-.5591,2.6544,2.6544,0,0,1,1.43.2144l-.416,2.2231a2.6594,2.6594,0,0,0-2.9834.4942,8.6838,8.6838,0,0,0-2.1,4.2246l-.7281,6.0972h-2.2617l1.586-13.1822h1.144a.6956.6956,0,0,1,.793.78Z" transform="translate(0 -3.1655)"/><path class="g" d="M429.4985,9.1455l-1.5859,13.169h-2.2749l1.5859-13.169Zm.8843-4.1343a1.47,1.47,0,0,1-.1367.6309,1.8207,1.8207,0,0,1-.3638.52,1.7177,1.7177,0,0,1-.52.3574,1.477,1.477,0,0,1-.6045.13,1.4,1.4,0,0,1-.5849-.13,1.5757,1.5757,0,0,1-.5005-.3574,1.8426,1.8426,0,0,1-.3448-.52,1.5409,1.5409,0,0,1-.13-.6309,1.5835,1.5835,0,0,1,.13-.6367,1.7434,1.7434,0,0,1,.3511-.5264,1.7645,1.7645,0,0,1,.5068-.3642,1.3485,1.3485,0,0,1,.585-.1362,1.4768,1.4768,0,0,1,.6045.13,1.6355,1.6355,0,0,1,.5137.3575,1.8245,1.8245,0,0,1,.3574.5332A1.5536,1.5536,0,0,1,430.3828,5.0112Z" transform="translate(0 -3.1655)"/><path class="g" d="M441.8481,19.8833a11.655,11.655,0,0,1-1.3,1.1768,7.94,7.94,0,0,1-1.2934.8125,5.6969,5.6969,0,0,1-1.3779.4746,7.7,7.7,0,0,1-1.5538.1494,5.1943,5.1943,0,0,1-2.0278-.377,4.1975,4.1975,0,0,1-1.521-1.0727,4.8258,4.8258,0,0,1-.9624-1.6836,6.802,6.802,0,0,1-.3379-2.21,9.7123,9.7123,0,0,1,.2144-2.0215,9.4718,9.4718,0,0,1,.624-1.9174,8.7209,8.7209,0,0,1,1.001-1.69,6.7636,6.7636,0,0,1,1.352-1.3457,6.3631,6.3631,0,0,1,1.6773-.89,5.8466,5.8466,0,0,1,1.9692-.3252,4.7271,4.7271,0,0,1,1.729.2861,3.6853,3.6853,0,0,1,1.1963.728,2.9126,2.9126,0,0,1,.6953.9751,2.5812,2.5812,0,0,1,.2276,1.0137,3.556,3.556,0,0,1-.3511,1.58,3.2837,3.2837,0,0,1-1.2871,1.3,9.6214,9.6214,0,0,1-2.5738,1.0073,28.37,28.37,0,0,1-4.2119.689c0,.0952-.0024.1885-.0068.2793s-.0064.1845-.0064.28a4.0652,4.0652,0,0,0,.7608,2.6582,2.8085,2.8085,0,0,0,2.2944.9165,4.3115,4.3115,0,0,0,1.1113-.13,4.7386,4.7386,0,0,0,.8711-.3184,3.8748,3.8748,0,0,0,.6758-.416q.2929-.2271.5332-.416a5.1234,5.1234,0,0,1,.4488-.3184.7748.7748,0,0,1,.4155-.13.58.58,0,0,1,.4424.2212Zm-3.666-9.2559a3.3786,3.3786,0,0,0-1.5078.3379,4.0188,4.0188,0,0,0-1.2222.93,5.6838,5.6838,0,0,0-.91,1.3911,8.2926,8.2926,0,0,0-.585,1.7222,25.2136,25.2136,0,0,0,3.2115-.5654,7.9928,7.9928,0,0,0,1.8588-.689,1.7926,1.7926,0,0,0,1.066-1.6963,1.3008,1.3008,0,0,0-.4356-.9492,1.8062,1.8062,0,0,0-.5913-.3442A2.5231,2.5231,0,0,0,438.1821,10.6274Z" transform="translate(0 -3.1655)"/><path class="g" d="M444.9683,19.8315V19.63c0-.082.0063-.2017.0195-.3574s.0342-.3594.0649-.6109.0713-.5805.1236-.9883l.8056-6.5908h-1.4687a.3719.3719,0,0,1-.2925-.1235.4857.4857,0,0,1-.0845-.3833l.104-.9234,2.0279-.2729.9882-4.0689a.7285.7285,0,0,1,.2012-.3183.4944.4944,0,0,1,.3447-.1235h1.209l-.5591,4.5366H451.91l-.1949,1.6772h-3.4712l-.7929,6.4741q-.0652.5332-.104.858t-.0586.52c-.0132.13-.0215.2207-.0259.2729s-.0064.0908-.0064.1167a1.3555,1.3555,0,0,0,.3121.982,1.11,1.11,0,0,0,.8315.3183,1.6844,1.6844,0,0,0,.6045-.0976,2.8569,2.8569,0,0,0,.4487-.2144q.1949-.1171.3252-.2144a.3936.3936,0,0,1,.2207-.0976.2611.2611,0,0,1,.1758.0517.5007.5007,0,0,1,.11.1695l.4941,1.105a4.8857,4.8857,0,0,1-1.45.8774,4.4483,4.4483,0,0,1-1.6314.3184,2.7514,2.7514,0,0,1-1.9824-.689A2.7179,2.7179,0,0,1,444.9683,19.8315Z" transform="translate(0 -3.1655)"/><path class="g" d="M461.2827,18.8433a11.3017,11.3017,0,0,1-1.0073,1.5083,7.0143,7.0143,0,0,1-1.1441,1.15,4.9721,4.9721,0,0,1-1.2739.7343,3.7923,3.7923,0,0,1-1.3843.26,3.234,3.234,0,0,1-1.4169-.3057,2.9523,2.9523,0,0,1-1.086-.897,4.37,4.37,0,0,1-.6953-1.456,7.2351,7.2351,0,0,1-.2471-1.9824,8.9406,8.9406,0,0,1,.2925-2.2818,9.2824,9.2824,0,0,1,2.1255-3.9126,8.6738,8.6738,0,0,1,1.6836-1.43,8.0055,8.0055,0,0,1,1.9956-.9361,7.479,7.479,0,0,1,2.2358-.3315,9.7216,9.7216,0,0,1,1.6446.1367,6.8717,6.8717,0,0,1,1.58.4741l-1.5733,12.74h-1.1958a.7054.7054,0,0,1-.6177-.2339.9785.9785,0,0,1-.1621-.5723Zm.8843-8.086a3.7938,3.7938,0,0,0-.5654-.0844c-.1866-.0127-.3706-.02-.5528-.02a4.5548,4.5548,0,0,0-1.5078.2534,5.4088,5.4088,0,0,0-1.3652.7085,6.068,6.068,0,0,0-1.1568,1.086,7.0763,7.0763,0,0,0-.8906,1.3842,7.8632,7.8632,0,0,0-.5786,1.6055,7.3409,7.3409,0,0,0-.208,1.7486q0,3.1332,2.002,3.1328a2.2651,2.2651,0,0,0,1.248-.3965,4.85,4.85,0,0,0,1.1636-1.105,9.3089,9.3089,0,0,0,1.02-1.6768,15.7321,15.7321,0,0,0,.832-2.1254Z" transform="translate(0 -3.1655)"/><path class="g" d="M474.9194,11.2515a.8265.8265,0,0,1-.208.2275.4456.4456,0,0,1-.26.0713.7253.7253,0,0,1-.3965-.1431q-.2147-.1428-.52-.3183a4.2623,4.2623,0,0,0-.7476-.3247,3.3476,3.3476,0,0,0-1.0659-.15,3.31,3.31,0,0,0-1.0659.1626,2.5645,2.5645,0,0,0-.8257.4487,2.02,2.02,0,0,0-.5332.6694,1.8208,1.8208,0,0,0-.1885.8125,1.2488,1.2488,0,0,0,.4033.9751,3.7137,3.7137,0,0,0,1.0137.63q.6108.2666,1.313.5137a6.7462,6.7462,0,0,1,1.313.624,3.3521,3.3521,0,0,1,1.0141.9619,2.6276,2.6276,0,0,1,.4029,1.521,4.3833,4.3833,0,0,1-1.3843,3.2046,5.07,5.07,0,0,1-1.6118,1.0073,5.6526,5.6526,0,0,1-2.1128.377,5.2461,5.2461,0,0,1-2.2295-.4488,4.6364,4.6364,0,0,1-1.58-1.15l.5723-.8837a.9777.9777,0,0,1,.2534-.26.6339.6339,0,0,1,.7734.0913q.208.1817.52.4092a3.2038,3.2038,0,0,0,1.9893.5918,3.216,3.216,0,0,0,1.15-.1953,2.71,2.71,0,0,0,.8711-.52,2.1973,2.1973,0,0,0,.5459-.76,2.318,2.318,0,0,0,.1884-.93,1.3984,1.3984,0,0,0-.4028-1.0527,3.2932,3.2932,0,0,0-1.0141-.65q-.6117-.26-1.313-.4878a6.6257,6.6257,0,0,1-1.313-.585,3.1947,3.1947,0,0,1-1.0142-.93,2.59,2.59,0,0,1-.4028-1.521,4.0349,4.0349,0,0,1,.3315-1.6054,4.1436,4.1436,0,0,1,.9556-1.3711,4.67,4.67,0,0,1,1.5142-.9556,5.3525,5.3525,0,0,1,2.0087-.3574,5.145,5.145,0,0,1,2.0865.3965,4.8061,4.8061,0,0,1,1.5532,1.0722Z" transform="translate(0 -3.1655)"/><line class="i" x1="723" y1="114.8921" x2="569" y2="123.8921"/></svg>