<svg xmlns="http://www.w3.org/2000/svg" xmlns:xlink="http://www.w3.org/1999/xlink" viewBox="0 0 1351.3214 373.3632"><defs><style>.a{opacity:0.25;fill:url(#a);}.b{fill:#fff;}.c{fill:#727272;}.d{opacity:0.4;}.e,.g,.i{fill:none;}.e,.g{stroke:#d91519;stroke-width:3px;}.e{stroke-miterlimit:10;}.f{fill:#606060;}.g,.i{stroke-linecap:round;stroke-linejoin:round;}.h{fill:#d91519;}.i{stroke:#606060;stroke-width:2px;}</style><radialGradient id="a" cx="346.0032" cy="94.7065" r="511.9696" gradientUnits="userSpaceOnUse"><stop offset="0" stop-color="#d91519"/><stop offset="0.107" stop-color="#d91519" stop-opacity="0.9743"/><stop offset="0.2439" stop-color="#d91519" stop-opacity="0.9009"/><stop offset="0.3971" stop-color="#d91519" stop-opacity="0.7798"/><stop offset="0.5623" stop-color="#d91519" stop-opacity="0.6106"/><stop offset="0.737" stop-color="#d91519" stop-opacity="0.3935"/><stop offset="0.917" stop-color="#d91519" stop-opacity="0.1324"/><stop offset="1" stop-color="#d91519" stop-opacity="0"/></radialGradient></defs><title>fisura1</title><rect class="a" x="2.9183" y="80.9829" width="1347.0817" height="284.0207"/><polygon class="b" points="1350.5 267.086 2 267.086 0 372.086 1320.521 372.086 1350.5 267.086"/><rect class="c" x="3.6199" y="69.7572" width="1346.3801" height="11.2257"/><polygon class="d" points="464.687 80.983 224.626 80.983 239.949 69.757 480.01 69.757 464.687 80.983"/><line class="e" x1="1320.8214" y1="371.8632" x2="0.1786" y2="371.8632"/><path class="f" d="M430.7642,313.6743l-.8057,6.63h6.9678l-.26,1.9756h-6.9551l-.9883,8.0342h-2.4438l2.2881-18.629h10.6079l-.2471,1.9888Z" transform="translate(0 -3.1655)"/><path class="f" d="M439.6172,330.3145l2.3271-19.149h2.2749l-2.3271,19.149Z" transform="translate(0 -3.1655)"/><path class="f" d="M457.31,317.1455l-1.586,13.169H454.58a.741.741,0,0,1-.8447-.8321l.1948-2.4048a8.0384,8.0384,0,0,1-2.3462,2.5542,4.8062,4.8062,0,0,1-2.6846.8648,3.1417,3.1417,0,0,1-1.4692-.3316,2.6353,2.6353,0,0,1-1.0332-.9687,4.1061,4.1061,0,0,1-.54-1.56,7.5394,7.5394,0,0,1,.0127-2.1186l.9883-8.3721h2.3008l-.9878,8.3721a4.2943,4.2943,0,0,0,.1885,2.3008,1.4091,1.4091,0,0,0,1.3974.7539,2.71,2.71,0,0,0,1.2349-.3247,4.7311,4.7311,0,0,0,1.2222-.9234,7.88,7.88,0,0,0,1.0986-1.4492,10.1545,10.1545,0,0,0,.8774-1.8916l.8189-6.8379Z" transform="translate(0 -3.1655)"/><path class="f" d="M463.16,317.1455,461.418,331.29a5.1236,5.1236,0,0,1-.39,1.4755,4.0375,4.0375,0,0,1-.7866,1.19,3.5135,3.5135,0,0,1-1.1763.7993,4.408,4.408,0,0,1-2.3335.2275,3.4307,3.4307,0,0,1-.63-.1948l.2339-1.248a.4487.4487,0,0,1,.0971-.1758.26.26,0,0,1,.1563-.0713,1.3833,1.3833,0,0,1,.247-.0063c.1.0039.2232.0063.3707.0063a1.7805,1.7805,0,0,0,1.3647-.4746,2.769,2.769,0,0,0,.585-1.5273l1.729-14.1441Zm.8193-4.1343a1.47,1.47,0,0,1-.1367.6309,1.8207,1.8207,0,0,1-.3638.52,1.744,1.744,0,0,1-.5137.3574,1.4329,1.4329,0,0,1-.5981.13,1.3862,1.3862,0,0,1-.5913-.13,1.6006,1.6006,0,0,1-.4941-.3574,1.8389,1.8389,0,0,1-.3443-.52,1.5332,1.5332,0,0,1-.13-.6309,1.5755,1.5755,0,0,1,.13-.6367,1.74,1.74,0,0,1,.3511-.5264,1.7834,1.7834,0,0,1,.5-.3642,1.3312,1.3312,0,0,1,.5913-.1362,1.4344,1.4344,0,0,1,.5981.13,1.7388,1.7388,0,0,1,.5132.3575,1.6653,1.6653,0,0,1,.3574.5332A1.621,1.621,0,0,1,463.979,313.0112Z" transform="translate(0 -3.1655)"/><path class="f" d="M470.0234,330.4966a5.1284,5.1284,0,0,1-1.976-.3706,4.3383,4.3383,0,0,1-1.5469-1.0728,4.9427,4.9427,0,0,1-1.0142-1.7158,6.8264,6.8264,0,0,1-.3637-2.314,9.3192,9.3192,0,0,1,.52-3.1328,8.3492,8.3492,0,0,1,1.43-2.5678,6.865,6.865,0,0,1,2.1386-1.7354,5.6667,5.6667,0,0,1,2.6455-.6367,5.1266,5.1266,0,0,1,1.9761.37,4.3383,4.3383,0,0,1,1.5469,1.0728,4.9541,4.9541,0,0,1,1.0142,1.7158,6.7856,6.7856,0,0,1,.3637,2.3012,9.2773,9.2773,0,0,1-.52,3.12,8.5149,8.5149,0,0,1-1.4233,2.5742,6.8042,6.8042,0,0,1-2.1387,1.7485A5.6591,5.6591,0,0,1,470.0234,330.4966Zm.2212-1.8071a3.0188,3.0188,0,0,0,1.7222-.52,4.6719,4.6719,0,0,0,1.3262-1.3842,7.026,7.026,0,0,0,.8515-1.9956,9.2208,9.2208,0,0,0,.2989-2.3663,4.37,4.37,0,0,0-.7212-2.7363,2.4841,2.4841,0,0,0-2.0738-.9165,3.0673,3.0673,0,0,0-1.7353.5137,4.5486,4.5486,0,0,0-1.32,1.3711,7.032,7.032,0,0,0-.8448,1.9892,9.2016,9.2016,0,0,0-.2988,2.3658,4.4547,4.4547,0,0,0,.7149,2.75A2.4633,2.4633,0,0,0,470.2446,328.69Z" transform="translate(0 -3.1655)"/><path class="f" d="M497.35,311.1655l-2.353,19.149h-1.209a.6853.6853,0,0,1-.6108-.2339,1.0092,1.0092,0,0,1-.1563-.5723l.2471-2.769a10.4128,10.4128,0,0,1-1.0791,1.5473,8.0048,8.0048,0,0,1-1.2285,1.1826,5.3263,5.3263,0,0,1-1.3389.7608,3.9151,3.9151,0,0,1-1.4107.2666,3.1119,3.1119,0,0,1-2.6259-1.2285,5.8108,5.8108,0,0,1-.9361-3.5689,10.4744,10.4744,0,0,1,.2212-2.1318,11.0713,11.0713,0,0,1,.63-2.041,9.9978,9.9978,0,0,1,.9883-1.8135,7.4429,7.4429,0,0,1,1.2934-1.4492,5.9356,5.9356,0,0,1,1.5406-.9624,4.3894,4.3894,0,0,1,1.7353-.3506,4.0523,4.0523,0,0,1,1.7744.3833,3.84,3.84,0,0,1,1.3584,1.0854l.897-7.2539Zm-3.354,8.8531a2.6741,2.6741,0,0,0-1.1894-.9815,3.7528,3.7528,0,0,0-1.4107-.28,3.01,3.01,0,0,0-1.8457.6114,5.3751,5.3751,0,0,0-1.3979,1.5791,8.285,8.285,0,0,0-.89,2.1645,9.302,9.302,0,0,0-.312,2.353,4.1941,4.1941,0,0,0,.5523,2.36,1.7964,1.7964,0,0,0,1.5795.8125,2.4071,2.4071,0,0,0,1.2613-.39,5.2292,5.2292,0,0,0,1.2285-1.0855,9.5807,9.5807,0,0,0,1.105-1.6445,13.03,13.03,0,0,0,.89-2.08Z" transform="translate(0 -3.1655)"/><path class="f" d="M508.8149,327.8833a11.6639,11.6639,0,0,1-1.3,1.1768,7.94,7.94,0,0,1-1.2934.8125,5.6969,5.6969,0,0,1-1.3779.4746,7.7,7.7,0,0,1-1.5538.1494,5.1943,5.1943,0,0,1-2.0278-.377,4.1975,4.1975,0,0,1-1.521-1.0727,4.8258,4.8258,0,0,1-.9624-1.6836,6.802,6.802,0,0,1-.3379-2.21,9.7123,9.7123,0,0,1,.2144-2.0215,9.4655,9.4655,0,0,1,.624-1.9174,8.7209,8.7209,0,0,1,1.001-1.69,6.7636,6.7636,0,0,1,1.352-1.3457,6.3615,6.3615,0,0,1,1.6773-.89,5.8462,5.8462,0,0,1,1.9692-.3252,4.7271,4.7271,0,0,1,1.729.2861,3.6853,3.6853,0,0,1,1.1963.728,2.9126,2.9126,0,0,1,.6953.9751,2.5812,2.5812,0,0,1,.2276,1.0137,3.556,3.556,0,0,1-.3511,1.58,3.2837,3.2837,0,0,1-1.2871,1.3,9.6214,9.6214,0,0,1-2.5738,1.0073,28.37,28.37,0,0,1-4.2119.689c0,.0952-.0024.1885-.0068.2793s-.0064.1845-.0064.28a4.0652,4.0652,0,0,0,.7608,2.6582,2.8085,2.8085,0,0,0,2.2944.9165,4.3115,4.3115,0,0,0,1.1113-.13,4.7386,4.7386,0,0,0,.8711-.3184,3.8748,3.8748,0,0,0,.6758-.416q.2929-.2271.5332-.416a5.1234,5.1234,0,0,1,.4488-.3184.7748.7748,0,0,1,.4155-.13.58.58,0,0,1,.4424.2212Zm-3.666-9.2559a3.3786,3.3786,0,0,0-1.5078.3379,4.0188,4.0188,0,0,0-1.2222.93,5.6838,5.6838,0,0,0-.91,1.3911,8.2926,8.2926,0,0,0-.585,1.7222,25.2136,25.2136,0,0,0,3.2115-.5654,7.9946,7.9946,0,0,0,1.8588-.689,1.7926,1.7926,0,0,0,1.066-1.6963,1.3008,1.3008,0,0,0-.4356-.9492,1.8062,1.8062,0,0,0-.5913-.3442A2.5231,2.5231,0,0,0,505.1489,318.6274Z" transform="translate(0 -3.1655)"/><path class="f" d="M521.3726,319.0693l-1.3394,10.8291-.6108,2.691a1.5688,1.5688,0,0,1-.4224.7216,1.11,1.11,0,0,1-.7734.2535h-.91l1.7813-14.4561-1.2745-.1558a.9879.9879,0,0,1-.416-.1884.421.421,0,0,1-.1167-.3838l.1167-.9751h1.8985l.0908-.7149a7.2055,7.2055,0,0,1,.5591-2.0669,5.7157,5.7157,0,0,1,1.1372-1.7031,5.1838,5.1838,0,0,1,1.6968-1.15,5.6689,5.6689,0,0,1,2.249-.4223q.936,0,1.7744.0776t1.6572.0913h1.56l-2.314,18.7979h-2.249l2.0932-17.108q-.5852-.0519-1.1962-.1171a11.2768,11.2768,0,0,0-1.1827-.065,3.307,3.307,0,0,0-2.4638.9556,4.4854,4.4854,0,0,0-1.15,2.71l-.0781.7149h3.0942l-.1953,1.664Z" transform="translate(0 -3.1655)"/><path class="f" d="M543.16,317.1455l-1.586,13.169H540.43a.741.741,0,0,1-.8448-.8321l.1949-2.4048a8.0384,8.0384,0,0,1-2.3462,2.5542,4.8062,4.8062,0,0,1-2.6846.8648,3.1417,3.1417,0,0,1-1.4692-.3316,2.6353,2.6353,0,0,1-1.0332-.9687,4.1061,4.1061,0,0,1-.54-1.56,7.5394,7.5394,0,0,1,.0127-2.1186l.9883-8.3721h2.3008l-.9878,8.3721a4.2943,4.2943,0,0,0,.1885,2.3008,1.4091,1.4091,0,0,0,1.3974.7539,2.71,2.71,0,0,0,1.2349-.3247,4.7311,4.7311,0,0,0,1.2222-.9234,7.88,7.88,0,0,0,1.0986-1.4492,10.1545,10.1545,0,0,0,.8774-1.8916l.8189-6.8379Z" transform="translate(0 -3.1655)"/><path class="f" d="M549.01,317.1455l-1.586,13.169h-2.2749l1.586-13.169Zm.8842-4.1343a1.47,1.47,0,0,1-.1367.6309,1.8207,1.8207,0,0,1-.3638.52,1.7177,1.7177,0,0,1-.52.3574,1.477,1.477,0,0,1-.6045.13,1.4,1.4,0,0,1-.5849-.13,1.5768,1.5768,0,0,1-.5005-.3574,1.84,1.84,0,0,1-.3447-.52,1.5393,1.5393,0,0,1-.13-.6309,1.5818,1.5818,0,0,1,.13-.6367,1.7412,1.7412,0,0,1,.351-.5264,1.7635,1.7635,0,0,1,.5069-.3642,1.3477,1.3477,0,0,1,.5849-.1362,1.4768,1.4768,0,0,1,.6045.13,1.6355,1.6355,0,0,1,.5137.3575,1.8225,1.8225,0,0,1,.3574.5332A1.5536,1.5536,0,0,1,549.8945,313.0112Z" transform="translate(0 -3.1655)"/><path class="f" d="M563.6484,311.1655l-2.353,19.149h-1.209a.6853.6853,0,0,1-.6108-.2339,1.0092,1.0092,0,0,1-.1563-.5723l.2471-2.769a10.4128,10.4128,0,0,1-1.0791,1.5473,8,8,0,0,1-1.2285,1.1826,5.3263,5.3263,0,0,1-1.3389.7608,3.9146,3.9146,0,0,1-1.4106.2666,3.1119,3.1119,0,0,1-2.626-1.2285,5.8115,5.8115,0,0,1-.936-3.5689,10.4674,10.4674,0,0,1,.2212-2.1318,11.0634,11.0634,0,0,1,.63-2.041,10.01,10.01,0,0,1,.9883-1.8135,7.4434,7.4434,0,0,1,1.2935-1.4492,5.9334,5.9334,0,0,1,1.54-.9624,4.3894,4.3894,0,0,1,1.7353-.3506,4.0531,4.0531,0,0,1,1.7745.3833,3.8414,3.8414,0,0,1,1.3584,1.0854l.8969-7.2539Zm-3.354,8.8531a2.6736,2.6736,0,0,0-1.1894-.9815,3.7528,3.7528,0,0,0-1.4107-.28,3.01,3.01,0,0,0-1.8457.6114,5.3751,5.3751,0,0,0-1.3979,1.5791,8.2885,8.2885,0,0,0-.89,2.1645,9.302,9.302,0,0,0-.312,2.353,4.1941,4.1941,0,0,0,.5523,2.36,1.7965,1.7965,0,0,0,1.58.8125,2.407,2.407,0,0,0,1.2612-.39,5.2292,5.2292,0,0,0,1.2285-1.0855,9.5749,9.5749,0,0,0,1.105-1.6445,13.0211,13.0211,0,0,0,.89-2.08Z" transform="translate(0 -3.1655)"/><path class="f" d="M569.6543,330.4966a5.1293,5.1293,0,0,1-1.9761-.3706,4.34,4.34,0,0,1-1.5469-1.0728,4.944,4.944,0,0,1-1.0141-1.7158,6.8239,6.8239,0,0,1-.3638-2.314,9.3217,9.3217,0,0,1,.52-3.1328,8.3512,8.3512,0,0,1,1.43-2.5678,6.8654,6.8654,0,0,1,2.1387-1.7354,5.6664,5.6664,0,0,1,2.6455-.6367,5.1273,5.1273,0,0,1,1.9761.37,4.3391,4.3391,0,0,1,1.5469,1.0728,4.9539,4.9539,0,0,1,1.0141,1.7158,6.7831,6.7831,0,0,1,.3638,2.3012,9.28,9.28,0,0,1-.52,3.12,8.513,8.513,0,0,1-1.4234,2.5742,6.8027,6.8027,0,0,1-2.1386,1.7485A5.66,5.66,0,0,1,569.6543,330.4966Zm.2212-1.8071a3.0193,3.0193,0,0,0,1.7222-.52,4.67,4.67,0,0,0,1.3261-1.3842,7.0233,7.0233,0,0,0,.8516-1.9956,9.2251,9.2251,0,0,0,.2988-2.3663,4.37,4.37,0,0,0-.7212-2.7363,2.4837,2.4837,0,0,0-2.0737-.9165,3.0679,3.0679,0,0,0-1.7354.5137,4.55,4.55,0,0,0-1.32,1.3711,7.0319,7.0319,0,0,0-.8447,1.9892,9.2016,9.2016,0,0,0-.2988,2.3658,4.4554,4.4554,0,0,0,.7148,2.75A2.4635,2.4635,0,0,0,569.8755,328.69Z" transform="translate(0 -3.1655)"/><path class="f" d="M586.7358,319.2515a.8265.8265,0,0,1-.208.2275.4456.4456,0,0,1-.26.0713.7253.7253,0,0,1-.3965-.1431q-.2146-.1428-.52-.3183a4.2623,4.2623,0,0,0-.7476-.3247,3.3476,3.3476,0,0,0-1.0659-.15,3.31,3.31,0,0,0-1.0659.1626,2.5645,2.5645,0,0,0-.8257.4487,2.02,2.02,0,0,0-.5332.6694,1.8208,1.8208,0,0,0-.1885.8125,1.2488,1.2488,0,0,0,.4033.9751,3.7137,3.7137,0,0,0,1.0137.63q.6108.2666,1.313.5137a6.7462,6.7462,0,0,1,1.313.624,3.3521,3.3521,0,0,1,1.0141.9619,2.6276,2.6276,0,0,1,.4029,1.521,4.3833,4.3833,0,0,1-1.3843,3.2046,5.07,5.07,0,0,1-1.6118,1.0073,5.6518,5.6518,0,0,1-2.1128.377,5.2461,5.2461,0,0,1-2.23-.4488,4.6364,4.6364,0,0,1-1.58-1.15l.5723-.8837a.9777.9777,0,0,1,.2534-.26.6339.6339,0,0,1,.7734.0913q.208.1816.52.4092a3.2038,3.2038,0,0,0,1.9893.5918,3.216,3.216,0,0,0,1.15-.1953,2.71,2.71,0,0,0,.8711-.52,2.1973,2.1973,0,0,0,.5459-.76,2.3181,2.3181,0,0,0,.1885-.93,1.3984,1.3984,0,0,0-.4029-1.0527,3.2932,3.2932,0,0,0-1.0141-.65q-.6117-.26-1.313-.4878a6.6257,6.6257,0,0,1-1.313-.585,3.1947,3.1947,0,0,1-1.0142-.93,2.59,2.59,0,0,1-.4028-1.521,4.0349,4.0349,0,0,1,.3315-1.6054,4.1436,4.1436,0,0,1,.9556-1.3711,4.67,4.67,0,0,1,1.5142-.9556,5.3526,5.3526,0,0,1,2.0088-.3574,5.1448,5.1448,0,0,1,2.0864.3965,4.8061,4.8061,0,0,1,1.5532,1.0722Z" transform="translate(0 -3.1655)"/><path class="f" d="M598.0327,320.72a10.7332,10.7332,0,0,1,1.0791-1.5532,7.7876,7.7876,0,0,1,1.2349-1.1895,5.4378,5.4378,0,0,1,1.3457-.7607,3.9549,3.9549,0,0,1,1.4233-.2661,3.1007,3.1007,0,0,1,2.62,1.2217,5.836,5.836,0,0,1,.93,3.5752,10.4645,10.4645,0,0,1-.2212,2.1318,10.8879,10.8879,0,0,1-.63,2.0347,10.1023,10.1023,0,0,1-.9883,1.8071,7.7759,7.7759,0,0,1-1.2866,1.4556,5.7192,5.7192,0,0,1-1.5406.9687,4.44,4.44,0,0,1-1.7421.3511,4.0058,4.0058,0,0,1-1.7681-.3838,3.8482,3.8482,0,0,1-1.3521-1.0855l-.7016,5.7461h-2.249l2.145-17.6411h1.1435a.69.69,0,0,1,.78.78Zm-.7016,6.708a2.8,2.8,0,0,0,1.1826.982,3.5655,3.5655,0,0,0,1.4043.2924,2.914,2.914,0,0,0,1.2739-.2861,4.015,4.015,0,0,0,1.0918-.7734,5.6632,5.6632,0,0,0,.8843-1.1441,8.0144,8.0144,0,0,0,.6562-1.4043,9.6736,9.6736,0,0,0,.41-1.5468,8.97,8.97,0,0,0,.1431-1.58,4.1226,4.1226,0,0,0-.5591-2.3531,1.8047,1.8047,0,0,0-1.5733-.8056,2.4338,2.4338,0,0,0-1.2607.3833,5.1262,5.1262,0,0,0-1.2285,1.0727,9.3017,9.3017,0,0,0-1.105,1.6377,13.0219,13.0219,0,0,0-.8906,2.08Z" transform="translate(0 -3.1655)"/><path class="f" d="M611.7734,320.8115a11.1931,11.1931,0,0,1,1.1245-1.9175,5.6166,5.6166,0,0,1,1.2676-1.2739,3.1343,3.1343,0,0,1,1.3653-.5591,2.6541,2.6541,0,0,1,1.43.2144l-.416,2.2231a2.6594,2.6594,0,0,0-2.9834.4942,8.6838,8.6838,0,0,0-2.1,4.2246l-.728,6.0972h-2.2617l1.5859-13.1822h1.1441a.6955.6955,0,0,1,.7929.78Z" transform="translate(0 -3.1655)"/><path class="f" d="M627.7241,327.8833a11.6727,11.6727,0,0,1-1.3,1.1768,7.94,7.94,0,0,1-1.2934.8125,5.6962,5.6962,0,0,1-1.378.4746,7.6986,7.6986,0,0,1-1.5537.1494,5.194,5.194,0,0,1-2.0278-.377,4.1967,4.1967,0,0,1-1.521-1.0727,4.8258,4.8258,0,0,1-.9624-1.6836,6.802,6.802,0,0,1-.3379-2.21,9.7123,9.7123,0,0,1,.2144-2.0215,9.4655,9.4655,0,0,1,.624-1.9174,8.7209,8.7209,0,0,1,1.001-1.69,6.7636,6.7636,0,0,1,1.352-1.3457,6.3615,6.3615,0,0,1,1.6773-.89,5.8462,5.8462,0,0,1,1.9692-.3252,4.7275,4.7275,0,0,1,1.729.2861,3.6864,3.6864,0,0,1,1.1963.728,2.914,2.914,0,0,1,.6953.9751,2.5828,2.5828,0,0,1,.2275,1.0137,3.5573,3.5573,0,0,1-.351,1.58,3.2834,3.2834,0,0,1-1.2872,1.3,9.6192,9.6192,0,0,1-2.5737,1.0073,28.37,28.37,0,0,1-4.2119.689c0,.0952-.0024.1885-.0068.2793s-.0064.1845-.0064.28a4.0646,4.0646,0,0,0,.7608,2.6582,2.8084,2.8084,0,0,0,2.2944.9165,4.3115,4.3115,0,0,0,1.1113-.13,4.7386,4.7386,0,0,0,.8711-.3184,3.8748,3.8748,0,0,0,.6758-.416q.293-.2271.5332-.416a5.138,5.138,0,0,1,.4487-.3184.7754.7754,0,0,1,.4156-.13.58.58,0,0,1,.4423.2212Zm-3.666-9.2559a3.3786,3.3786,0,0,0-1.5078.3379,4.0188,4.0188,0,0,0-1.2222.93,5.6809,5.6809,0,0,0-.91,1.3911,8.2926,8.2926,0,0,0-.585,1.7222,25.2083,25.2083,0,0,0,3.2114-.5654,7.9939,7.9939,0,0,0,1.8589-.689,1.7927,1.7927,0,0,0,1.0659-1.6963,1.3011,1.3011,0,0,0-.4355-.9492,1.8072,1.8072,0,0,0-.5913-.3442A2.5231,2.5231,0,0,0,624.0581,318.6274Z" transform="translate(0 -3.1655)"/><path class="f" d="M638.293,319.2515a.83.83,0,0,1-.208.2275.4461.4461,0,0,1-.26.0713.7255.7255,0,0,1-.3965-.1431q-.2147-.1428-.52-.3183a4.2557,4.2557,0,0,0-.7476-.3247,3.3476,3.3476,0,0,0-1.0659-.15,3.3106,3.3106,0,0,0-1.0659.1626,2.5645,2.5645,0,0,0-.8257.4487,2.02,2.02,0,0,0-.5332.6694,1.8208,1.8208,0,0,0-.1885.8125,1.2485,1.2485,0,0,0,.4034.9751,3.7115,3.7115,0,0,0,1.0136.63q.6109.2666,1.313.5137a6.7407,6.7407,0,0,1,1.313.624,3.3536,3.3536,0,0,1,1.0142.9619,2.6284,2.6284,0,0,1,.4028,1.521,4.3823,4.3823,0,0,1-1.3843,3.2046,5.07,5.07,0,0,1-1.6118,1.0073,5.6518,5.6518,0,0,1-2.1128.377,5.2461,5.2461,0,0,1-2.2295-.4488,4.6374,4.6374,0,0,1-1.58-1.15l.5723-.8837a.9777.9777,0,0,1,.2534-.26.6339.6339,0,0,1,.7734.0913q.208.1816.52.4092a3.2032,3.2032,0,0,0,1.9892.5918,3.216,3.216,0,0,0,1.15-.1953,2.71,2.71,0,0,0,.8711-.52,2.1973,2.1973,0,0,0,.5459-.76,2.3181,2.3181,0,0,0,.1885-.93,1.3987,1.3987,0,0,0-.4028-1.0527,3.295,3.295,0,0,0-1.0142-.65q-.6115-.26-1.313-.4878a6.6257,6.6257,0,0,1-1.313-.585,3.1933,3.1933,0,0,1-1.0141-.93,2.59,2.59,0,0,1-.4029-1.521,4.035,4.035,0,0,1,.3316-1.6054,4.1433,4.1433,0,0,1,.9555-1.3711,4.67,4.67,0,0,1,1.5142-.9556,5.353,5.353,0,0,1,2.0088-.3574,5.1442,5.1442,0,0,1,2.0864.3965,4.8051,4.8051,0,0,1,1.5532,1.0722Z" transform="translate(0 -3.1655)"/><path class="f" d="M652.1113,317.1455l-1.5859,13.169h-1.1441a.741.741,0,0,1-.8447-.8321l.1948-2.4048a8.0371,8.0371,0,0,1-2.3461,2.5542,4.8064,4.8064,0,0,1-2.6846.8648,3.1424,3.1424,0,0,1-1.4693-.3316,2.6359,2.6359,0,0,1-1.0332-.9687,4.1077,4.1077,0,0,1-.54-1.56,7.5394,7.5394,0,0,1,.0127-2.1186l.9883-8.3721H643.96l-.9877,8.3721a4.2955,4.2955,0,0,0,.1884,2.3008,1.4092,1.4092,0,0,0,1.3975.7539,2.71,2.71,0,0,0,1.2349-.3247,4.729,4.729,0,0,0,1.2221-.9234,7.876,7.876,0,0,0,1.0987-1.4492,10.1609,10.1609,0,0,0,.8774-1.8916l.8188-6.8379Z" transform="translate(0 -3.1655)"/><path class="f" d="M657.2725,320.8115a11.18,11.18,0,0,1,1.1245-1.9175,5.6146,5.6146,0,0,1,1.2676-1.2739,3.1335,3.1335,0,0,1,1.3652-.5591,2.6544,2.6544,0,0,1,1.43.2144l-.416,2.2231a2.6594,2.6594,0,0,0-2.9834.4942,8.6838,8.6838,0,0,0-2.1,4.2246l-.728,6.0972h-2.2617l1.5859-13.1822h1.1441a.6956.6956,0,0,1,.793.78Z" transform="translate(0 -3.1655)"/><path class="f" d="M666.8535,317.1455l-1.5859,13.169h-2.2749l1.5859-13.169Zm.8843-4.1343a1.47,1.47,0,0,1-.1367.6309,1.8207,1.8207,0,0,1-.3638.52,1.7189,1.7189,0,0,1-.52.3574,1.477,1.477,0,0,1-.6045.13,1.4008,1.4008,0,0,1-.585-.13,1.5779,1.5779,0,0,1-.5-.3574,1.8423,1.8423,0,0,1-.3447-.52,1.541,1.541,0,0,1-.13-.6309,1.5835,1.5835,0,0,1,.13-.6367,1.74,1.74,0,0,1,.3511-.5264,1.7645,1.7645,0,0,1,.5068-.3642,1.3481,1.3481,0,0,1,.585-.1362,1.4768,1.4768,0,0,1,.6045.13,1.6355,1.6355,0,0,1,.5137.3575,1.8245,1.8245,0,0,1,.3574.5332A1.5536,1.5536,0,0,1,667.7378,313.0112Z" transform="translate(0 -3.1655)"/><path class="f" d="M678.9434,317.1455l-.1309.9878a1.4074,1.4074,0,0,1-.1357.4746,2.2728,2.2728,0,0,1-.2539.41l-7.5918,9.49h6.4873l-.208,1.8072h-9.2691l.1167-.962a1.2741,1.2741,0,0,1,.1172-.4033,1.7153,1.7153,0,0,1,.2729-.4287l7.6309-9.5552h-6.3828l.2212-1.82Z" transform="translate(0 -3.1655)"/><path class="f" d="M688.0039,326.8433a11.3519,11.3519,0,0,1-1.0078,1.5083,6.9925,6.9925,0,0,1-1.1436,1.15,4.9832,4.9832,0,0,1-1.2744.7343,3.7917,3.7917,0,0,1-1.3838.26,3.2316,3.2316,0,0,1-1.417-.3057,2.9488,2.9488,0,0,1-1.0859-.897,4.36,4.36,0,0,1-.6953-1.456,7.2159,7.2159,0,0,1-.2471-1.9824,8.9625,8.9625,0,0,1,.292-2.2818,9.3373,9.3373,0,0,1,.832-2.0991,9.2364,9.2364,0,0,1,1.294-1.8135,8.6443,8.6443,0,0,1,1.6836-1.43,7.9939,7.9939,0,0,1,1.9951-.9361,7.4823,7.4823,0,0,1,2.2363-.3315,9.726,9.726,0,0,1,1.6446.1367,6.8605,6.8605,0,0,1,1.5791.4741l-1.5733,12.74h-1.1953a.7058.7058,0,0,1-.6182-.2339.9785.9785,0,0,1-.1621-.5723Zm.8838-8.086a3.7746,3.7746,0,0,0-.5654-.0844c-.1866-.0127-.37-.02-.5528-.02a4.557,4.557,0,0,0-1.5078.2534,5.4088,5.4088,0,0,0-1.3652.7085,6.0506,6.0506,0,0,0-1.1563,1.086,7.0763,7.0763,0,0,0-.8906,1.3842,7.8643,7.8643,0,0,0-.5791,1.6055,7.3409,7.3409,0,0,0-.208,1.7486q0,3.1332,2.002,3.1328a2.2651,2.2651,0,0,0,1.248-.3965,4.86,4.86,0,0,0,1.1641-1.105,9.3376,9.3376,0,0,0,1.0205-1.6768,15.8654,15.8654,0,0,0,.832-2.1254Z" transform="translate(0 -3.1655)"/><path class="f" d="M705.8008,311.1655l-2.3535,19.149h-1.209a.6839.6839,0,0,1-.61-.2339,1.0053,1.0053,0,0,1-.1562-.5723l.2471-2.769a10.4806,10.4806,0,0,1-1.0792,1.5473,8.023,8.023,0,0,1-1.2285,1.1826,5.3345,5.3345,0,0,1-1.3388.7608,3.9177,3.9177,0,0,1-1.4112.2666,3.1125,3.1125,0,0,1-2.6259-1.2285,5.8109,5.8109,0,0,1-.9356-3.5689,10.4737,10.4737,0,0,1,.2207-2.1318,11.0268,11.0268,0,0,1,.6309-2.041,9.9673,9.9673,0,0,1,.9883-1.8135,7.4408,7.4408,0,0,1,1.2929-1.4492,5.9393,5.9393,0,0,1,1.541-.9624,4.3864,4.3864,0,0,1,1.7354-.3506,4.0555,4.0555,0,0,1,1.7744.3833,3.8449,3.8449,0,0,1,1.3584,1.0854l.8965-7.2539Zm-3.3545,8.8531a2.6685,2.6685,0,0,0-1.1895-.9815,3.75,3.75,0,0,0-1.41-.28,3.01,3.01,0,0,0-1.8457.6114,5.3712,5.3712,0,0,0-1.3985,1.5791,8.3046,8.3046,0,0,0-.89,2.1645,9.303,9.303,0,0,0-.3125,2.353,4.1947,4.1947,0,0,0,.5527,2.36,1.7958,1.7958,0,0,0,1.5791.8125,2.4086,2.4086,0,0,0,1.2617-.39,5.2394,5.2394,0,0,0,1.2286-1.0855,9.6085,9.6085,0,0,0,1.1045-1.6445,13.04,13.04,0,0,0,.8906-2.08Z" transform="translate(0 -3.1655)"/><path class="f" d="M711.8066,330.4966a5.1309,5.1309,0,0,1-1.9765-.3706,4.3427,4.3427,0,0,1-1.5469-1.0728,4.9341,4.9341,0,0,1-1.0137-1.7158,6.8138,6.8138,0,0,1-.3642-2.314,9.3194,9.3194,0,0,1,.52-3.1328,8.3389,8.3389,0,0,1,1.43-2.5678,6.8536,6.8536,0,0,1,2.1386-1.7354,5.6637,5.6637,0,0,1,2.6455-.6367,5.124,5.124,0,0,1,1.9756.37,4.3339,4.3339,0,0,1,1.5469,1.0728,4.955,4.955,0,0,1,1.0147,1.7158,6.7982,6.7982,0,0,1,.3632,2.3012,9.2771,9.2771,0,0,1-.5195,3.12,8.5053,8.5053,0,0,1-1.4238,2.5742,6.8031,6.8031,0,0,1-2.1387,1.7485A5.6571,5.6571,0,0,1,711.8066,330.4966Zm.2207-1.8071a3.0193,3.0193,0,0,0,1.7227-.52,4.6781,4.6781,0,0,0,1.3262-1.3842,7.04,7.04,0,0,0,.8515-1.9956,9.2208,9.2208,0,0,0,.2989-2.3663,4.3671,4.3671,0,0,0-.7217-2.7363,2.4824,2.4824,0,0,0-2.0733-.9165,3.0673,3.0673,0,0,0-1.7353.5137,4.55,4.55,0,0,0-1.32,1.3711,7.0434,7.0434,0,0,0-.8447,1.9892,9.2191,9.2191,0,0,0-.2989,2.3658,4.458,4.458,0,0,0,.7149,2.75A2.4633,2.4633,0,0,0,712.0273,328.69Z" transform="translate(0 -3.1655)"/><path class="f" d="M728.8887,319.2515a.83.83,0,0,1-.208.2275.4472.4472,0,0,1-.26.0713.7229.7229,0,0,1-.3965-.1431c-.1435-.0952-.3164-.2011-.52-.3183a4.2494,4.2494,0,0,0-.7471-.3247,3.3508,3.3508,0,0,0-1.0664-.15,3.31,3.31,0,0,0-1.0654.1626,2.5619,2.5619,0,0,0-.8262.4487,2.0326,2.0326,0,0,0-.5332.6694,1.8275,1.8275,0,0,0-.1885.8125,1.25,1.25,0,0,0,.4034.9751,3.7115,3.7115,0,0,0,1.0136.63q.6109.2666,1.3135.5137a6.75,6.75,0,0,1,1.3125.624,3.35,3.35,0,0,1,1.0147.9619,2.6283,2.6283,0,0,1,.4023,1.521,4.3843,4.3843,0,0,1-1.3838,3.2046,5.0726,5.0726,0,0,1-1.6123,1.0073,5.6473,5.6473,0,0,1-2.1123.377,5.2461,5.2461,0,0,1-2.23-.4488,4.64,4.64,0,0,1-1.58-1.15l.5723-.8837a.979.979,0,0,1,.2539-.26.6341.6341,0,0,1,.7735.0913q.2079.1816.5195.4092a3.2062,3.2062,0,0,0,1.9892.5918,3.2137,3.2137,0,0,0,1.15-.1953,2.6994,2.6994,0,0,0,.8711-.52,2.1973,2.1973,0,0,0,.5459-.76,2.31,2.31,0,0,0,.1885-.93,1.4,1.4,0,0,0-.4023-1.0527,3.3036,3.3036,0,0,0-1.0147-.65q-.6108-.26-1.3125-.4878a6.6224,6.6224,0,0,1-1.3135-.585,3.1969,3.1969,0,0,1-1.0136-.93,2.59,2.59,0,0,1-.4034-1.521,4.0269,4.0269,0,0,1,.3321-1.6054,4.1419,4.1419,0,0,1,.955-1.3711,4.6738,4.6738,0,0,1,1.5147-.9556,5.3512,5.3512,0,0,1,2.0088-.3574,5.1434,5.1434,0,0,1,2.0859.3965,4.8072,4.8072,0,0,1,1.5537,1.0722Z" transform="translate(0 -3.1655)"/><line class="g" x1="6" y1="319.5859" x2="114.757" y2="319.5859"/><polygon class="h" points="109.702 326.252 112.533 319.586 109.702 312.92 125.503 319.586 109.702 326.252"/><line class="g" x1="215.5026" y1="319.5859" x2="324.2596" y2="319.5859"/><polygon class="h" points="319.204 326.252 322.036 319.586 319.204 312.92 335.005 319.586 319.204 326.252"/><path class="g" d="M298.2538,270.5027s.1889-47.7623-11.1892-73.0554" transform="translate(0 -3.1655)"/><polygon class="h" points="295.155 195.461 287.965 196.329 283.598 202.106 281.5 185.086 295.155 195.461"/><path class="g" d="M298.5,270.5027s-.1889-47.7623,11.1893-73.0554" transform="translate(0 -3.1655)"/><polygon class="h" points="313.156 202.106 308.789 196.329 301.599 195.461 315.254 185.086 313.156 202.106"/><line class="g" x1="814.677" y1="319.5859" x2="923.434" y2="319.5859"/><polygon class="h" points="918.379 326.252 921.21 319.586 918.379 312.92 934.18 319.586 918.379 326.252"/><line class="g" x1="1024.1796" y1="319.5859" x2="1132.9365" y2="319.5859"/><polygon class="h" points="1127.881 326.252 1130.713 319.586 1127.881 312.92 1143.682 319.586 1127.881 326.252"/><path class="f" d="M361.7188,247.0747l-.8057,6.63h6.9678l-.26,1.9756H360.666l-.9883,8.0341h-2.4433l2.2881-18.6289H370.13l-.2471,1.9888Z" transform="translate(0 -3.1655)"/><path class="f" d="M374.498,250.5459l-1.5859,13.1689h-2.2754l1.586-13.1689Zm.8838-4.1343a1.4628,1.4628,0,0,1-.1367.6309,1.82,1.82,0,0,1-.3633.52,1.72,1.72,0,0,1-.52.3574,1.4786,1.4786,0,0,1-.6045.13,1.4033,1.4033,0,0,1-.5849-.13,1.5747,1.5747,0,0,1-.5-.3574,1.8229,1.8229,0,0,1-.3448-.52,1.5328,1.5328,0,0,1-.13-.6309,1.5751,1.5751,0,0,1,.13-.6367,1.7328,1.7328,0,0,1,.3506-.5264,1.7635,1.7635,0,0,1,.5069-.3642,1.35,1.35,0,0,1,.5849-.1363,1.4752,1.4752,0,0,1,.6045.13,1.6355,1.6355,0,0,1,.5137.3575,1.8212,1.8212,0,0,1,.3574.5332A1.5458,1.5458,0,0,1,375.3818,246.4116Z" transform="translate(0 -3.1655)"/><path class="f" d="M384.9756,252.6519a.8281.8281,0,0,1-.208.2275.4458.4458,0,0,1-.26.0713.7282.7282,0,0,1-.3965-.1431c-.1425-.0952-.3164-.2012-.52-.3183a4.2641,4.2641,0,0,0-.748-.3247,3.7132,3.7132,0,0,0-2.1319.0126,2.5655,2.5655,0,0,0-.8252.4488,2.0085,2.0085,0,0,0-.5332.6694,1.8141,1.8141,0,0,0-.1885.8125,1.2469,1.2469,0,0,0,.4034.9751,3.7139,3.7139,0,0,0,1.0136.63q.611.2665,1.3125.5137a6.7313,6.7313,0,0,1,1.3135.624,3.3576,3.3576,0,0,1,1.0137.9619,2.6284,2.6284,0,0,1,.4033,1.521,4.38,4.38,0,0,1-1.3848,3.2046,5.0678,5.0678,0,0,1-1.6113,1.0073,5.6563,5.6563,0,0,1-2.1133.377,5.2461,5.2461,0,0,1-2.23-.4488,4.6352,4.6352,0,0,1-1.5791-1.15l.5723-.8838a.976.976,0,0,1,.2529-.26.6341.6341,0,0,1,.7735.0913q.2079.1817.52.4092a3.2019,3.2019,0,0,0,1.9892.5918,3.2176,3.2176,0,0,0,1.15-.1953,2.7183,2.7183,0,0,0,.8711-.52,2.196,2.196,0,0,0,.5459-.76,2.3266,2.3266,0,0,0,.1885-.93,1.3972,1.3972,0,0,0-.4033-1.0527,3.2864,3.2864,0,0,0-1.0137-.65q-.6123-.26-1.3135-.4878a6.6342,6.6342,0,0,1-1.3125-.585,3.19,3.19,0,0,1-1.0146-.93,2.59,2.59,0,0,1-.4024-1.521,4.0431,4.0431,0,0,1,.3311-1.6054,4.1448,4.1448,0,0,1,.956-1.3711,4.67,4.67,0,0,1,1.5137-.9556,5.3552,5.3552,0,0,1,2.0088-.3574,5.145,5.145,0,0,1,2.0869.3965,4.8013,4.8013,0,0,1,1.5527,1.0722Z" transform="translate(0 -3.1655)"/><path class="f" d="M398.7949,250.5459l-1.5859,13.1689h-1.1445a.741.741,0,0,1-.8448-.832l.1953-2.4048a8.0325,8.0325,0,0,1-2.3466,2.5542,4.8052,4.8052,0,0,1-2.6846.8648,3.14,3.14,0,0,1-1.4688-.3316,2.6326,2.6326,0,0,1-1.0332-.9687,4.117,4.117,0,0,1-.54-1.56,7.5583,7.5583,0,0,1,.0127-2.1186l.9883-8.3721h2.3008l-.9873,8.3721a4.29,4.29,0,0,0,.1884,2.3008,1.4092,1.4092,0,0,0,1.3975.7539,2.7082,2.7082,0,0,0,1.2344-.3248,4.7367,4.7367,0,0,0,1.2226-.9233,7.8982,7.8982,0,0,0,1.0987-1.4492,10.1374,10.1374,0,0,0,.8769-1.8916l.8193-6.8379Z" transform="translate(0 -3.1655)"/><path class="f" d="M403.9561,254.2119a11.2122,11.2122,0,0,1,1.124-1.9175,5.6247,5.6247,0,0,1,1.2676-1.2739,3.1383,3.1383,0,0,1,1.3652-.5591,2.6544,2.6544,0,0,1,1.43.2144l-.416,2.2231a2.6594,2.6594,0,0,0-2.9834.4942,8.6868,8.6868,0,0,0-2.1,4.2246l-.7276,6.0971h-2.2617l1.5859-13.1821h1.1436a.6956.6956,0,0,1,.793.78Z" transform="translate(0 -3.1655)"/><path class="f" d="M417.6836,260.2437a11.3519,11.3519,0,0,1-1.0078,1.5083,6.9917,6.9917,0,0,1-1.1436,1.15,4.9807,4.9807,0,0,1-1.2744.7344,3.7917,3.7917,0,0,1-1.3838.26,3.2316,3.2316,0,0,1-1.417-.3057,2.9488,2.9488,0,0,1-1.0859-.897,4.3589,4.3589,0,0,1-.6953-1.456,7.212,7.212,0,0,1-.2471-1.9824,8.9625,8.9625,0,0,1,.292-2.2818,9.3373,9.3373,0,0,1,.832-2.0991,9.2364,9.2364,0,0,1,1.294-1.8135,8.6483,8.6483,0,0,1,1.6836-1.43,7.9971,7.9971,0,0,1,1.9951-.936,7.4818,7.4818,0,0,1,2.2363-.3315,9.7269,9.7269,0,0,1,1.6446.1367,6.8605,6.8605,0,0,1,1.5791.4741l-1.5733,12.74h-1.1953a.7058.7058,0,0,1-.6182-.2338.9785.9785,0,0,1-.1621-.5723Zm.8838-8.086a3.775,3.775,0,0,0-.5654-.0845c-.1866-.0127-.37-.02-.5528-.02a4.557,4.557,0,0,0-1.5078.2534,5.4088,5.4088,0,0,0-1.3652.7085,6.0506,6.0506,0,0,0-1.1563,1.086,7.0717,7.0717,0,0,0-.8906,1.3842,7.8643,7.8643,0,0,0-.5791,1.6055,7.3407,7.3407,0,0,0-.208,1.7485q0,3.1333,2.0019,3.1329a2.2654,2.2654,0,0,0,1.2481-.3965,4.8623,4.8623,0,0,0,1.1641-1.105,9.3411,9.3411,0,0,0,1.0205-1.6768,15.8617,15.8617,0,0,0,.832-2.1255Z" transform="translate(0 -3.1655)"/><path class="f" d="M86.0479,210.0747l-.8057,6.63H92.21l-.26,1.9756H84.9951l-.9883,8.0341H81.5635l2.2881-18.6289H94.459l-.2471,1.9888Z" transform="translate(0 -3.1655)"/><path class="f" d="M106.7441,213.5459l-1.5859,13.1689h-1.1445a.741.741,0,0,1-.8448-.832l.1954-2.4048a8.0338,8.0338,0,0,1-2.3467,2.5542,4.805,4.805,0,0,1-2.6846.8648,3.14,3.14,0,0,1-1.4687-.3316,2.6319,2.6319,0,0,1-1.0332-.9687,4.1154,4.1154,0,0,1-.54-1.56,7.5583,7.5583,0,0,1,.0127-2.1186l.9883-8.3721h2.3008l-.9873,8.3721a4.29,4.29,0,0,0,.1884,2.3008,1.4092,1.4092,0,0,0,1.3975.7539,2.7082,2.7082,0,0,0,1.2344-.3248,4.7367,4.7367,0,0,0,1.2226-.9233,7.8982,7.8982,0,0,0,1.0987-1.4492,10.131,10.131,0,0,0,.8769-1.8916l.8194-6.8379Z" transform="translate(0 -3.1655)"/><path class="f" d="M120.5762,214.0269l-.0908.767a.724.724,0,0,1-.5206.6241l-1.65.2856a4.3472,4.3472,0,0,1,.247,1.4951,4.27,4.27,0,0,1-.1494,1.17,5.6826,5.6826,0,0,1-.3711.9624,7.8684,7.8684,0,0,1-.48.832q-.2607.39-.4814.7734a5.03,5.03,0,0,0-.37.793,2.5782,2.5782,0,0,0-.1494.89,1.8439,1.8439,0,0,0,.123.67,3.7583,3.7583,0,0,0,.3125.624q.1875.3054.416.6172a5.7891,5.7891,0,0,1,.416.663,4.1393,4.1393,0,0,1,.3116.76,3.137,3.137,0,0,1,.123.9038,3.8489,3.8489,0,0,1-.4414,1.7485,4.5909,4.5909,0,0,1-1.2217,1.4624,6.0617,6.0617,0,0,1-1.9248,1.0074,8.1633,8.1633,0,0,1-2.5478.3706,8.4553,8.4553,0,0,1-2.0606-.2339,5.2112,5.2112,0,0,1-1.5859-.6631,3.1548,3.1548,0,0,1-1.0137-1.0337,2.5687,2.5687,0,0,1-.3574-1.332,3,3,0,0,1,.3506-1.4693,3.5492,3.5492,0,0,1,.9492-1.0986,5.3432,5.3432,0,0,1,1.3906-.76,8.6489,8.6489,0,0,1,1.6836-.4419,10.9811,10.9811,0,0,1,1.8272-.1368,13.3817,13.3817,0,0,1,1.833.1368,2.9589,2.9589,0,0,1-.1885-.5137,2.2216,2.2216,0,0,1-.0723-.5786,2.9807,2.9807,0,0,1,.1241-.8321,5.3255,5.3255,0,0,1,.4091-.9751,4.0472,4.0472,0,0,1-1.1045.5269,4.7282,4.7282,0,0,1-1.3916.1885,3.97,3.97,0,0,1-1.41-.2471,3.2864,3.2864,0,0,1-1.15-.728,3.3887,3.3887,0,0,1-.78-1.2027,4.5552,4.5552,0,0,1-.2861-1.6835,5.1283,5.1283,0,0,1,.3447-1.8394,4.8435,4.8435,0,0,1,2.6455-2.75,5.5369,5.5369,0,0,1,2.2491-.4287,5.196,5.196,0,0,1,1.3388.1689,3.8225,3.8225,0,0,1,1.1445.5069Zm-4.42,13.0131a2.9234,2.9234,0,0,0-.0655-.6435,3.52,3.52,0,0,0-.1689-.5527,14.055,14.055,0,0,0-2.9639-.2012,6.9206,6.9206,0,0,0-2.0605.3833,2.7341,2.7341,0,0,0-1.2022.8061,1.687,1.687,0,0,0-.39,1.0659,1.5876,1.5876,0,0,0,.7861,1.43,4.1971,4.1971,0,0,0,2.2295.4942,5.0967,5.0967,0,0,0,1.5664-.2276,4.0486,4.0486,0,0,0,1.209-.6045,2.7931,2.7931,0,0,0,.78-.8837A2.1855,2.1855,0,0,0,116.1563,227.04Zm-2.6133-6.2661a2.4818,2.4818,0,0,0,1.2422-.3056,2.8936,2.8936,0,0,0,.9091-.8062,3.7542,3.7542,0,0,0,.5655-1.124,4.1813,4.1813,0,0,0,.1953-1.2612,2.3609,2.3609,0,0,0-.5781-1.729,2.1388,2.1388,0,0,0-1.5928-.585,2.5724,2.5724,0,0,0-1.2354.2861,2.8,2.8,0,0,0-.9033.7666,3.4161,3.4161,0,0,0-.5586,1.0923,4.2853,4.2853,0,0,0-.1885,1.2739,2.5342,2.5342,0,0,0,.5655,1.7813A2.045,2.045,0,0,0,113.543,220.7739Z" transform="translate(0 -3.1655)"/><path class="f" d="M129.3252,223.2437a11.3519,11.3519,0,0,1-1.0078,1.5083,6.9917,6.9917,0,0,1-1.1436,1.15,4.9807,4.9807,0,0,1-1.2744.7344,3.7917,3.7917,0,0,1-1.3838.26,3.2316,3.2316,0,0,1-1.417-.3057,2.9488,2.9488,0,0,1-1.0859-.897,4.3589,4.3589,0,0,1-.6953-1.456,7.212,7.212,0,0,1-.2471-1.9824,8.9625,8.9625,0,0,1,.292-2.2818,9.3373,9.3373,0,0,1,.832-2.0991,9.2364,9.2364,0,0,1,1.294-1.8135,8.6483,8.6483,0,0,1,1.6836-1.43,7.9971,7.9971,0,0,1,1.9951-.936,7.4818,7.4818,0,0,1,2.2363-.3315,9.7269,9.7269,0,0,1,1.6446.1367,6.8605,6.8605,0,0,1,1.5791.4741l-1.5733,12.74h-1.1953a.7058.7058,0,0,1-.6182-.2338.9785.9785,0,0,1-.1621-.5723Zm.8838-8.086a3.775,3.775,0,0,0-.5654-.0845c-.1866-.0127-.37-.02-.5528-.02a4.557,4.557,0,0,0-1.5078.2534,5.4088,5.4088,0,0,0-1.3652.7085,6.0506,6.0506,0,0,0-1.1563,1.086,7.0717,7.0717,0,0,0-.8906,1.3842,7.8643,7.8643,0,0,0-.5791,1.6055,7.3407,7.3407,0,0,0-.208,1.7485q0,3.1333,2.0019,3.1329a2.2654,2.2654,0,0,0,1.2481-.3965,4.8623,4.8623,0,0,0,1.1641-1.105,9.3411,9.3411,0,0,0,1.02-1.6768,15.8617,15.8617,0,0,0,.832-2.1255Z" transform="translate(0 -3.1655)"/><path class="f" d="M153.2051,207.5659l-2.3526,19.1489h-1.2089a.687.687,0,0,1-.6114-.2338,1.0131,1.0131,0,0,1-.1562-.5723l.247-2.7691a10.3274,10.3274,0,0,1-1.0791,1.5474,7.9777,7.9777,0,0,1-1.2285,1.1826,5.3189,5.3189,0,0,1-1.3388.7608,3.9125,3.9125,0,0,1-1.41.2666,3.1116,3.1116,0,0,1-2.626-1.2285,5.8114,5.8114,0,0,1-.9365-3.5689,10.4681,10.4681,0,0,1,.2217-2.1318,11.0931,11.0931,0,0,1,.63-2.041,10.0285,10.0285,0,0,1,.9883-1.8135,7.445,7.445,0,0,1,1.2939-1.4492,5.9314,5.9314,0,0,1,1.54-.9624,4.3931,4.3931,0,0,1,1.7354-.3506,4.0492,4.0492,0,0,1,1.7744.3833,3.837,3.837,0,0,1,1.3584,1.0854l.8975-7.2539Zm-3.3535,8.853a2.68,2.68,0,0,0-1.1895-.9814,3.7552,3.7552,0,0,0-1.4111-.28,3.01,3.01,0,0,0-1.8457.6113,5.3849,5.3849,0,0,0-1.3975,1.5791,8.2727,8.2727,0,0,0-.8906,2.1646,9.3,9.3,0,0,0-.3115,2.353,4.1952,4.1952,0,0,0,.5517,2.36,1.7974,1.7974,0,0,0,1.58.8125,2.4046,2.4046,0,0,0,1.2607-.39,5.2188,5.2188,0,0,0,1.2286-1.0854,9.547,9.547,0,0,0,1.1054-1.6445,13.03,13.03,0,0,0,.89-2.08Z" transform="translate(0 -3.1655)"/><path class="f" d="M164.6709,224.2837a11.5735,11.5735,0,0,1-1.3,1.1767,7.9232,7.9232,0,0,1-1.293.8125,5.7148,5.7148,0,0,1-1.3779.4747,7.6986,7.6986,0,0,1-1.5537.1494,5.1965,5.1965,0,0,1-2.0283-.377,4.1991,4.1991,0,0,1-1.52-1.0727,4.8252,4.8252,0,0,1-.9629-1.6836,6.8155,6.8155,0,0,1-.3379-2.21,9.7129,9.7129,0,0,1,.2148-2.0215,9.4188,9.4188,0,0,1,.624-1.9175,8.708,8.708,0,0,1,1.001-1.69,6.7591,6.7591,0,0,1,1.3516-1.3457,6.3626,6.3626,0,0,1,1.6777-.89,5.8442,5.8442,0,0,1,1.9688-.3252,4.7288,4.7288,0,0,1,1.7295.2861,3.6913,3.6913,0,0,1,1.1962.728,2.9271,2.9271,0,0,1,.6954.9751,2.5916,2.5916,0,0,1,.2275,1.0137,3.5564,3.5564,0,0,1-.3516,1.58,3.28,3.28,0,0,1-1.2871,1.3,9.6081,9.6081,0,0,1-2.5732,1.0073,28.37,28.37,0,0,1-4.2119.689c0,.0952-.003.1884-.0069.2793s-.0068.1845-.0068.28a4.0681,4.0681,0,0,0,.7607,2.6582,2.8092,2.8092,0,0,0,2.295.9165,4.3143,4.3143,0,0,0,1.1113-.13,4.7413,4.7413,0,0,0,.8711-.3184,3.9127,3.9127,0,0,0,.6758-.416c.1953-.1514.372-.2905.5332-.416a5.1816,5.1816,0,0,1,.4482-.3184.7782.7782,0,0,1,.416-.13.5817.5817,0,0,1,.4424.2211Zm-3.666-9.2559a3.3786,3.3786,0,0,0-1.5078.3379,4.0228,4.0228,0,0,0-1.2217.93,5.6649,5.6649,0,0,0-.91,1.3911,8.2633,8.2633,0,0,0-.5849,1.7222,25.2192,25.2192,0,0,0,3.2109-.5654,7.9992,7.9992,0,0,0,1.8594-.689,1.7933,1.7933,0,0,0,1.0654-1.6963,1.2961,1.2961,0,0,0-.4355-.9492,1.8,1.8,0,0,0-.5909-.3442A2.5227,2.5227,0,0,0,161.0049,215.0278Z" transform="translate(0 -3.1655)"/><path class="f" d="M177.2285,215.47,175.89,226.2988l-.6113,2.6909a1.5663,1.5663,0,0,1-.4219.7217,1.11,1.11,0,0,1-.7734.2534h-.91l1.7812-14.456-1.2744-.1558a.9873.9873,0,0,1-.416-.1884.42.42,0,0,1-.1172-.3838l.1172-.9751h1.8984l.0908-.7149a7.1951,7.1951,0,0,1,.5586-2.0669,5.7209,5.7209,0,0,1,1.1377-1.7031,5.1849,5.1849,0,0,1,1.6963-1.15,5.6689,5.6689,0,0,1,2.249-.4224q.9361,0,1.7744.0777t1.6573.0913h1.56l-2.3144,18.7978h-2.2491l2.0938-17.1079q-.5859-.0519-1.1963-.1172a11.3014,11.3014,0,0,0-1.1826-.0649,3.3055,3.3055,0,0,0-2.4639.9556,4.4825,4.4825,0,0,0-1.15,2.71l-.0781.7149H180.44l-.1954,1.664Z" transform="translate(0 -3.1655)"/><path class="f" d="M199.0166,213.5459l-1.5859,13.1689h-1.1446a.7409.7409,0,0,1-.8447-.832l.1953-2.4048a8.0327,8.0327,0,0,1-2.3467,2.5542,4.8049,4.8049,0,0,1-2.6845.8648,3.14,3.14,0,0,1-1.4688-.3316,2.6326,2.6326,0,0,1-1.0332-.9687,4.117,4.117,0,0,1-.54-1.56,7.5583,7.5583,0,0,1,.0127-2.1186l.9883-8.3721h2.3007l-.9873,8.3721a4.29,4.29,0,0,0,.1885,2.3008,1.4092,1.4092,0,0,0,1.3975.7539,2.7078,2.7078,0,0,0,1.2343-.3248,4.7371,4.7371,0,0,0,1.2227-.9233,7.898,7.898,0,0,0,1.0986-1.4492,10.1312,10.1312,0,0,0,.877-1.8916l.8193-6.8379Z" transform="translate(0 -3.1655)"/><path class="f" d="M204.8662,213.5459,203.28,226.7148h-2.2744l1.5859-13.1689Zm.8848-4.1343a1.4774,1.4774,0,0,1-.1367.6309,1.8257,1.8257,0,0,1-.3643.52,1.7167,1.7167,0,0,1-.5195.3574,1.4786,1.4786,0,0,1-.6045.13,1.4,1.4,0,0,1-.585-.13,1.58,1.58,0,0,1-.501-.3574,1.8653,1.8653,0,0,1-.3447-.52,1.5491,1.5491,0,0,1-.13-.6309,1.592,1.592,0,0,1,.13-.6367,1.7613,1.7613,0,0,1,.8584-.8906,1.3466,1.3466,0,0,1,.585-.1363,1.4786,1.4786,0,0,1,.6045.13,1.634,1.634,0,0,1,.5136.3575,1.8235,1.8235,0,0,1,.3575.5332A1.5616,1.5616,0,0,1,205.751,209.4116Z" transform="translate(0 -3.1655)"/><path class="f" d="M219.5039,207.5659l-2.3525,19.1489h-1.209a.6868.6868,0,0,1-.6113-.2338,1.0124,1.0124,0,0,1-.1563-.5723l.2471-2.7691a10.3348,10.3348,0,0,1-1.0791,1.5474,7.9867,7.9867,0,0,1-1.2285,1.1826,5.3194,5.3194,0,0,1-1.3389.7608,3.9125,3.9125,0,0,1-1.41.2666,3.1112,3.1112,0,0,1-2.6259-1.2285,5.8107,5.8107,0,0,1-.9366-3.5689,10.4752,10.4752,0,0,1,.2217-2.1318,11.1008,11.1008,0,0,1,.63-2.041,10.0285,10.0285,0,0,1,.9883-1.8135,7.445,7.445,0,0,1,1.2939-1.4492,5.93,5.93,0,0,1,1.54-.9624,4.3926,4.3926,0,0,1,1.7353-.3506,4.0492,4.0492,0,0,1,1.7744.3833,3.8361,3.8361,0,0,1,1.3584,1.0854l.8975-7.2539Zm-3.3535,8.853a2.68,2.68,0,0,0-1.1895-.9814,3.7544,3.7544,0,0,0-1.4111-.28,3.01,3.01,0,0,0-1.8457.6113,5.3849,5.3849,0,0,0-1.3975,1.5791,8.2727,8.2727,0,0,0-.8906,2.1646,9.3,9.3,0,0,0-.3115,2.353,4.1943,4.1943,0,0,0,.5518,2.36,1.7973,1.7973,0,0,0,1.58.8125,2.405,2.405,0,0,0,1.2608-.39,5.2165,5.2165,0,0,0,1.2285-1.0854,9.553,9.553,0,0,0,1.1055-1.6445,13.03,13.03,0,0,0,.89-2.08Z" transform="translate(0 -3.1655)"/><path class="f" d="M225.51,226.897a5.126,5.126,0,0,1-1.9756-.3706,4.3339,4.3339,0,0,1-1.5469-1.0728,4.95,4.95,0,0,1-1.0146-1.7158,6.8366,6.8366,0,0,1-.3633-2.314,9.319,9.319,0,0,1,.5195-3.1328,8.3612,8.3612,0,0,1,1.43-2.5679,6.8767,6.8767,0,0,1,2.1387-1.7353,5.669,5.669,0,0,1,2.6455-.6367,5.129,5.129,0,0,1,1.9765.37,4.3437,4.3437,0,0,1,1.5469,1.0727A4.9545,4.9545,0,0,1,231.88,216.51a6.773,6.773,0,0,1,.3642,2.3012,9.2775,9.2775,0,0,1-.52,3.12,8.5224,8.5224,0,0,1-1.4228,2.5742,6.8031,6.8031,0,0,1-2.1387,1.7485A5.661,5.661,0,0,1,225.51,226.897Zm.2216-1.8072a3.0183,3.0183,0,0,0,1.7217-.52,4.6649,4.6649,0,0,0,1.3262-1.3843,7.0107,7.0107,0,0,0,.8516-1.9956,9.2238,9.2238,0,0,0,.2988-2.3662,4.3729,4.3729,0,0,0-.7207-2.7363,2.4856,2.4856,0,0,0-2.0742-.9165,3.0676,3.0676,0,0,0-1.7354.5137,4.5471,4.5471,0,0,0-1.3193,1.3711,7.0147,7.0147,0,0,0-.8447,1.9892,9.18,9.18,0,0,0-.2989,2.3657,4.4515,4.4515,0,0,0,.7149,2.75A2.4632,2.4632,0,0,0,225.7314,225.09Z" transform="translate(0 -3.1655)"/><path class="f" d="M242.5918,215.6519a.8281.8281,0,0,1-.208.2275.4455.4455,0,0,1-.26.0713.7282.7282,0,0,1-.3965-.1431c-.1425-.0952-.3164-.2012-.5195-.3183a4.2641,4.2641,0,0,0-.748-.3247,3.7132,3.7132,0,0,0-2.1319.0126,2.5655,2.5655,0,0,0-.8252.4488,2.0085,2.0085,0,0,0-.5332.6694,1.8153,1.8153,0,0,0-.1884.8125,1.2468,1.2468,0,0,0,.4033.9751,3.7139,3.7139,0,0,0,1.0136.63q.6109.2665,1.3125.5137a6.7313,6.7313,0,0,1,1.3135.624,3.3576,3.3576,0,0,1,1.0137.9619,2.6284,2.6284,0,0,1,.4033,1.521,4.38,4.38,0,0,1-1.3848,3.2046,5.0667,5.0667,0,0,1-1.6113,1.0073,5.6563,5.6563,0,0,1-2.1133.377,5.2465,5.2465,0,0,1-2.23-.4488,4.6352,4.6352,0,0,1-1.5791-1.15l.5723-.8838a.976.976,0,0,1,.2529-.26.6341.6341,0,0,1,.7735.0913q.2079.1817.52.4092a3.2019,3.2019,0,0,0,1.9892.5918,3.2172,3.2172,0,0,0,1.15-.1953,2.7183,2.7183,0,0,0,.8711-.52,2.196,2.196,0,0,0,.5459-.76,2.3266,2.3266,0,0,0,.1885-.93,1.3972,1.3972,0,0,0-.4033-1.0527,3.2864,3.2864,0,0,0-1.0137-.65q-.6123-.26-1.3135-.4878a6.6394,6.6394,0,0,1-1.3125-.585,3.19,3.19,0,0,1-1.0146-.93,2.59,2.59,0,0,1-.4024-1.521,4.0431,4.0431,0,0,1,.3311-1.6054,4.1448,4.1448,0,0,1,.956-1.3711,4.67,4.67,0,0,1,1.5137-.9556,5.3552,5.3552,0,0,1,2.0088-.3574,5.145,5.145,0,0,1,2.0869.3965,4.8028,4.8028,0,0,1,1.5528,1.0722Z" transform="translate(0 -3.1655)"/><path class="g" d="M314.1662,242.7515c-9.2088,10.4451.8338,27.2942.8338,27.2942H1349.8214" transform="translate(0 -3.1655)"/><path class="g" d="M29.1786,270.0457H282s11.7174-13.1792-.727-27.2942" transform="translate(0 -3.1655)"/><line class="i" x1="351" y1="250.5859" x2="311" y2="250.5859"/><path class="f" d="M311,249.24a4.5118,4.5118,0,1,0,4.5117,4.5118A4.5122,4.5122,0,0,0,311,249.24Z" transform="translate(0 -3.1655)"/><line class="i" x1="253" y1="215.5859" x2="293" y2="215.5859"/><path class="f" d="M293,223.2632a4.5118,4.5118,0,1,0-4.5117-4.5117A4.5122,4.5122,0,0,0,293,223.2632Z" transform="translate(0 -3.1655)"/><path class="f" d="M847.418,151.1382a1.5279,1.5279,0,0,1-.2735.28.5039.5039,0,0,1-.3125.0971.7141.7141,0,0,1-.4668-.227,5.9774,5.9774,0,0,0-.6308-.4942,5.045,5.045,0,0,0-.93-.4941,3.5658,3.5658,0,0,0-1.3652-.2275,3.9691,3.9691,0,0,0-1.4825.26,3.2214,3.2214,0,0,0-1.0976.7085,3.01,3.01,0,0,0-.6826,1.0464,3.4929,3.4929,0,0,0-.2334,1.2871,1.9833,1.9833,0,0,0,.3115,1.1372,2.8572,2.8572,0,0,0,.8193.793,6.1545,6.1545,0,0,0,1.1631.5849q.6563.2542,1.333.52c.4492.1777.8945.375,1.332.5918a4.7564,4.7564,0,0,1,1.1641.8056,3.7317,3.7317,0,0,1,.8184,1.1573,3.889,3.889,0,0,1,.3125,1.6381,6.89,6.89,0,0,1-.4551,2.5025,6.1436,6.1436,0,0,1-1.3067,2.0605,6.2587,6.2587,0,0,1-2.0605,1.4038,6.8136,6.8136,0,0,1-2.7168.52,6.5225,6.5225,0,0,1-2.9707-.6568,6.0728,6.0728,0,0,1-2.1523-1.7744l.8584-1.1567a.8381.8381,0,0,1,.2607-.2339.6565.6565,0,0,1,.3379-.0913.7959.7959,0,0,1,.5332.2925,8.2508,8.2508,0,0,0,.7275.65,4.9552,4.9552,0,0,0,1.0918.65,3.9648,3.9648,0,0,0,1.625.2925,4.3489,4.3489,0,0,0,1.6182-.2861,3.4067,3.4067,0,0,0,1.9961-2.0083,4.3348,4.3348,0,0,0,.2734-1.5669,2.1221,2.1221,0,0,0-.3125-1.1895,2.7313,2.7313,0,0,0-.8193-.7993,5.9639,5.9639,0,0,0-1.1572-.5654q-.65-.2409-1.3262-.4878t-1.3262-.5591a4.4967,4.4967,0,0,1-1.1562-.7929,3.6341,3.6341,0,0,1-.8184-1.1827,4.2372,4.2372,0,0,1-.3125-1.729,5.9281,5.9281,0,0,1,.416-2.1972,5.6179,5.6179,0,0,1,1.1953-1.8589,5.7879,5.7879,0,0,1,1.9043-1.2871,6.383,6.383,0,0,1,2.5293-.481,5.9087,5.9087,0,0,1,2.5742.5459,5.1962,5.1962,0,0,1,1.8848,1.4951Z" transform="translate(0 -3.1655)"/><path class="f" d="M853.332,153.7124l-1.5859,13.1689h-2.2744l1.5859-13.1689Zm.8848-4.1343a1.4628,1.4628,0,0,1-.1367.6309,1.84,1.84,0,0,1-.3633.52,1.7323,1.7323,0,0,1-.5205.3574,1.477,1.477,0,0,1-.6045.13,1.4025,1.4025,0,0,1-.585-.13,1.59,1.59,0,0,1-.5009-.3574,1.8388,1.8388,0,0,1-.3438-.52,1.5335,1.5335,0,0,1-.1308-.6309,1.5758,1.5758,0,0,1,.1308-.6367,1.7291,1.7291,0,0,1,.3506-.5264,1.7645,1.7645,0,0,1,.5068-.3642,1.35,1.35,0,0,1,.585-.1362,1.4785,1.4785,0,0,1,.6045.13,1.6355,1.6355,0,0,1,.5137.3575,1.8232,1.8232,0,0,1,.3574.5332A1.5458,1.5458,0,0,1,854.2168,149.5781Z" transform="translate(0 -3.1655)"/><path class="f" d="M863.8105,155.8184a.8265.8265,0,0,1-.208.2275.4445.4445,0,0,1-.26.0713.7253.7253,0,0,1-.3965-.1431c-.1436-.0952-.3164-.2012-.52-.3183a4.2494,4.2494,0,0,0-.7471-.3247,3.714,3.714,0,0,0-2.1318.0127,2.5811,2.5811,0,0,0-.8262.4487,2.0326,2.0326,0,0,0-.5332.6694,1.8265,1.8265,0,0,0-.1875.8125,1.25,1.25,0,0,0,.4023.9751,3.7469,3.7469,0,0,0,1.0137.63q.6123.2666,1.3135.5137a6.7865,6.7865,0,0,1,1.3135.624,3.3561,3.3561,0,0,1,1.0136.9619,2.6276,2.6276,0,0,1,.4024,1.521,4.3843,4.3843,0,0,1-1.3838,3.2046,5.0615,5.0615,0,0,1-1.6123,1.0073,5.6473,5.6473,0,0,1-2.1123.377,5.2461,5.2461,0,0,1-2.23-.4488,4.6483,4.6483,0,0,1-1.58-1.15l.5723-.8838a.98.98,0,0,1,.2539-.26.6339.6339,0,0,1,.7734.0913c.1387.1211.3125.2578.52.4092a3.2082,3.2082,0,0,0,1.99.5918,3.2219,3.2219,0,0,0,1.15-.1953,2.7194,2.7194,0,0,0,.8711-.52,2.18,2.18,0,0,0,.5449-.76,2.31,2.31,0,0,0,.1895-.93,1.3968,1.3968,0,0,0-.4034-1.0527,3.278,3.278,0,0,0-1.0146-.65q-.6108-.26-1.3125-.4878a6.5829,6.5829,0,0,1-1.3125-.585,3.1912,3.1912,0,0,1-1.0147-.93,2.59,2.59,0,0,1-.4033-1.521,4.044,4.044,0,0,1,.332-1.6054,4.1422,4.1422,0,0,1,.9551-1.3711,4.6727,4.6727,0,0,1,1.5147-.9556,5.3512,5.3512,0,0,1,2.0088-.3574,5.1374,5.1374,0,0,1,2.0859.3965,4.796,4.796,0,0,1,1.5537,1.0722Z" transform="translate(0 -3.1655)"/><path class="f" d="M866.7617,164.3984v-.2016c0-.0821.0059-.2017.02-.3574s.0341-.3594.0644-.6109.0723-.5806.124-.9883l.8057-6.5908h-1.4688a.3748.3748,0,0,1-.2929-.1235.4869.4869,0,0,1-.084-.3833l.1035-.9234,2.0283-.2729.9883-4.0689a.7285.7285,0,0,1,.2012-.3183.4934.4934,0,0,1,.3447-.1236h1.209l-.5586,4.5367h3.457l-.1943,1.6772h-3.4717l-.793,6.4741c-.0429.3555-.0781.6411-.1035.8579s-.0449.39-.0586.52-.0215.2207-.0254.2729-.0068.0908-.0068.1167a1.36,1.36,0,0,0,.3115.9819,1.1132,1.1132,0,0,0,.8321.3184,1.6848,1.6848,0,0,0,.6045-.0976,2.8292,2.8292,0,0,0,.4482-.2144c.1309-.0781.2383-.1494.3262-.2144a.392.392,0,0,1,.2207-.0976.2611.2611,0,0,1,.1758.0517.4936.4936,0,0,1,.1093.1695l.4942,1.105a4.8774,4.8774,0,0,1-1.4493.8774,4.4472,4.4472,0,0,1-1.6308.3184,2.7488,2.7488,0,0,1-1.9824-.689A2.7178,2.7178,0,0,1,866.7617,164.3984Z" transform="translate(0 -3.1655)"/><path class="f" d="M885.2988,164.45A11.6681,11.6681,0,0,1,884,165.627a7.9865,7.9865,0,0,1-1.2939.8125,5.7109,5.7109,0,0,1-1.378.4746,7.6986,7.6986,0,0,1-1.5537.1494,5.1969,5.1969,0,0,1-2.0283-.377,4.1991,4.1991,0,0,1-1.52-1.0727,4.8093,4.8093,0,0,1-.9619-1.6836,6.7886,6.7886,0,0,1-.3379-2.21,9.7182,9.7182,0,0,1,.2138-2.0215,9.472,9.472,0,0,1,.6241-1.9174,8.7508,8.7508,0,0,1,1.0009-1.69,6.74,6.74,0,0,1,1.3526-1.3457,6.36,6.36,0,0,1,1.6767-.89,5.8459,5.8459,0,0,1,1.97-.3252,4.7265,4.7265,0,0,1,1.7285.2861,3.6811,3.6811,0,0,1,1.1963.728,2.914,2.914,0,0,1,.6953.9751,2.59,2.59,0,0,1,.2275,1.0137,3.5577,3.5577,0,0,1-.3515,1.58,3.2738,3.2738,0,0,1-1.2871,1.3,9.61,9.61,0,0,1-2.5733,1.0073,28.37,28.37,0,0,1-4.2119.689c0,.0952-.002.1885-.0068.2793s-.0069.1845-.0069.28a4.0624,4.0624,0,0,0,.7617,2.6582,2.807,2.807,0,0,0,2.294.9165,4.3143,4.3143,0,0,0,1.1113-.13,4.7386,4.7386,0,0,0,.8711-.3184,3.8748,3.8748,0,0,0,.6758-.416c.1953-.1514.3721-.29.5332-.416a5.2125,5.2125,0,0,1,.4482-.3184.7783.7783,0,0,1,.4161-.13.58.58,0,0,1,.4423.2212Zm-3.666-9.2559a3.3817,3.3817,0,0,0-1.5078.3379,4.0228,4.0228,0,0,0-1.2217.93,5.6647,5.6647,0,0,0-.91,1.3911,8.3219,8.3219,0,0,0-.585,1.7222,25.216,25.216,0,0,0,3.2109-.5654,7.9814,7.9814,0,0,0,1.8594-.689,2.0121,2.0121,0,0,0,.8574-.7993,2.0324,2.0324,0,0,0,.209-.897,1.2829,1.2829,0,0,0-.1045-.4878,1.3017,1.3017,0,0,0-.331-.4614,1.8152,1.8152,0,0,0-.5918-.3442A2.52,2.52,0,0,0,881.6328,155.1943Z" transform="translate(0 -3.1655)"/><path class="f" d="M887.3789,166.8813l1.5859-13.1821h1.1446a.6959.6959,0,0,1,.7929.78l-.1826,2.34a8.108,8.108,0,0,1,2.1387-2.4633,4.1059,4.1059,0,0,1,2.4375-.8384,2.2377,2.2377,0,0,1,1.9756.9165,4.5573,4.5573,0,0,1,.6367,2.6191,7.5957,7.5957,0,0,1,2.2041-2.6714,4.4359,4.4359,0,0,1,2.5938-.8642,2.4936,2.4936,0,0,1,2.3916,1.3,6.2407,6.2407,0,0,1,.416,3.6792l-.9883,8.3847h-2.2871l1-8.3847a5.2619,5.2619,0,0,0-.0977-2.3013,1.1862,1.1862,0,0,0-1.2539-.7539,2.443,2.443,0,0,0-1.1113.2793,4.0153,4.0153,0,0,0-1.0723.8193,6.4474,6.4474,0,0,0-.9687,1.3389,10.8035,10.8035,0,0,0-.7989,1.8394v.0131l-.8457,7.15h-2.288l.9882-8.3847a5.671,5.671,0,0,0-.0517-2.3013,1.1312,1.1312,0,0,0-1.2227-.7539,2.4994,2.4994,0,0,0-1.2021.312,3.9481,3.9481,0,0,0-1.0928.9033,7.4271,7.4271,0,0,0-.9551,1.4429,13.8553,13.8553,0,0,0-.8056,1.918l-.8194,6.8637Z" transform="translate(0 -3.1655)"/><path class="f" d="M915.9785,163.41a11.3519,11.3519,0,0,1-1.0078,1.5083,6.957,6.957,0,0,1-1.1445,1.15,4.9607,4.9607,0,0,1-1.2735.7344,3.7929,3.7929,0,0,1-1.3847.26,3.23,3.23,0,0,1-1.416-.3057,2.9411,2.9411,0,0,1-1.086-.897,4.3609,4.3609,0,0,1-.6953-1.456,7.2141,7.2141,0,0,1-.248-1.9824,8.9188,8.9188,0,0,1,.2929-2.2818,9.2917,9.2917,0,0,1,2.125-3.9126,8.7064,8.7064,0,0,1,1.6836-1.43,8.0171,8.0171,0,0,1,1.9961-.9361,7.4828,7.4828,0,0,1,2.2363-.3315,9.7347,9.7347,0,0,1,1.6446.1367,6.8738,6.8738,0,0,1,1.5791.4741l-1.5733,12.74h-1.1953a.7056.7056,0,0,1-.6181-.2338.9785.9785,0,0,1-.1622-.5723Zm.8838-8.086a3.8073,3.8073,0,0,0-.5654-.0845c-.1865-.0126-.3711-.0195-.5528-.0195a4.557,4.557,0,0,0-1.5078.2534,5.4088,5.4088,0,0,0-1.3652.7085,6.0506,6.0506,0,0,0-1.1563,1.086,6.9853,6.9853,0,0,0-.8906,1.3842,7.8113,7.8113,0,0,0-.5791,1.6055,7.3407,7.3407,0,0,0-.208,1.7485q0,3.1334,2.002,3.1329a2.2651,2.2651,0,0,0,1.248-.3965,4.86,4.86,0,0,0,1.1641-1.105,9.3339,9.3339,0,0,0,1.0195-1.6768,15.5974,15.5974,0,0,0,.832-2.1255Z" transform="translate(0 -3.1655)"/><path class="f" d="M930.5117,157.2871a10.8126,10.8126,0,0,1,1.0791-1.5532,7.7479,7.7479,0,0,1,1.2354-1.19,5.42,5.42,0,0,1,1.3457-.7607,3.9482,3.9482,0,0,1,1.4228-.2661,3.1025,3.1025,0,0,1,2.62,1.2217,5.8387,5.8387,0,0,1,.93,3.5752,10.4721,10.4721,0,0,1-.2216,2.1318,10.9341,10.9341,0,0,1-.63,2.0347,10.191,10.191,0,0,1-.9883,1.8071,7.7958,7.7958,0,0,1-1.2871,1.4556,5.7135,5.7135,0,0,1-1.541.9687,4.4372,4.4372,0,0,1-1.7422.3511,4.0081,4.0081,0,0,1-1.7676-.3838,3.8377,3.8377,0,0,1-1.3516-1.0855l-.7021,5.7461h-2.249l2.1445-17.6411h1.1445a.6893.6893,0,0,1,.7793.78Zm-.7012,6.708a2.7954,2.7954,0,0,0,1.1817.982,3.5691,3.5691,0,0,0,1.4043.2924,2.9146,2.9146,0,0,0,1.2744-.2861,4.015,4.015,0,0,0,1.0918-.7734,5.6614,5.6614,0,0,0,.8838-1.1441,8.0072,8.0072,0,0,0,.6562-1.4043,9.6759,9.6759,0,0,0,.41-1.5469,8.92,8.92,0,0,0,.1426-1.5795,4.1189,4.1189,0,0,0-.5586-2.3531,1.8047,1.8047,0,0,0-1.5733-.8056,2.4338,2.4338,0,0,0-1.2607.3833,5.1335,5.1335,0,0,0-1.2285,1.0727,9.33,9.33,0,0,0-1.1055,1.6377,13.1133,13.1133,0,0,0-.8906,2.08Z" transform="translate(0 -3.1655)"/><path class="f" d="M944.252,157.3784a11.2789,11.2789,0,0,1,1.125-1.9175,5.6244,5.6244,0,0,1,1.2675-1.2739,3.13,3.13,0,0,1,1.3653-.5591,2.6546,2.6546,0,0,1,1.43.2144l-.4161,2.2231a2.6591,2.6591,0,0,0-2.9834.4942,8.6876,8.6876,0,0,0-2.1,4.2246l-.7275,6.0971h-2.2617l1.5859-13.1821h1.1436a.6955.6955,0,0,1,.7929.78Z" transform="translate(0 -3.1655)"/><path class="f" d="M960.2031,164.45a11.6681,11.6681,0,0,1-1.2988,1.1768,7.9865,7.9865,0,0,1-1.2939.8125,5.7109,5.7109,0,0,1-1.378.4746,7.6986,7.6986,0,0,1-1.5537.1494,5.1965,5.1965,0,0,1-2.0283-.377,4.1991,4.1991,0,0,1-1.52-1.0727,4.8093,4.8093,0,0,1-.9619-1.6836,6.7886,6.7886,0,0,1-.3379-2.21,9.7182,9.7182,0,0,1,.2138-2.0215,9.472,9.472,0,0,1,.6241-1.9174,8.7508,8.7508,0,0,1,1.0009-1.69,6.74,6.74,0,0,1,1.3526-1.3457,6.36,6.36,0,0,1,1.6767-.89,5.8459,5.8459,0,0,1,1.97-.3252,4.7265,4.7265,0,0,1,1.7285.2861,3.6811,3.6811,0,0,1,1.1963.728,2.914,2.914,0,0,1,.6953.9751,2.59,2.59,0,0,1,.2275,1.0137,3.5577,3.5577,0,0,1-.3515,1.58,3.2738,3.2738,0,0,1-1.2871,1.3,9.61,9.61,0,0,1-2.5733,1.0073,28.37,28.37,0,0,1-4.2119.689c0,.0952-.002.1885-.0068.2793s-.0069.1845-.0069.28a4.0624,4.0624,0,0,0,.7617,2.6582,2.807,2.807,0,0,0,2.294.9165,4.3143,4.3143,0,0,0,1.1113-.13,4.7386,4.7386,0,0,0,.8711-.3184,3.8748,3.8748,0,0,0,.6758-.416c.1953-.1514.3721-.29.5332-.416a5.2125,5.2125,0,0,1,.4482-.3184.7783.7783,0,0,1,.4161-.13.58.58,0,0,1,.4423.2212Zm-3.666-9.2559a3.3817,3.3817,0,0,0-1.5078.3379,4.0228,4.0228,0,0,0-1.2217.93,5.6618,5.6618,0,0,0-.91,1.3911,8.3219,8.3219,0,0,0-.585,1.7222,25.216,25.216,0,0,0,3.2109-.5654,7.9814,7.9814,0,0,0,1.8594-.689,2.0121,2.0121,0,0,0,.8574-.7993,2.0324,2.0324,0,0,0,.209-.897,1.2829,1.2829,0,0,0-.1045-.4878,1.3017,1.3017,0,0,0-.331-.4614,1.8152,1.8152,0,0,0-.5918-.3442A2.52,2.52,0,0,0,956.5371,155.1943Z" transform="translate(0 -3.1655)"/><path class="f" d="M970.7715,155.8184a.8281.8281,0,0,1-.207.2275.4494.4494,0,0,1-.26.0713.7229.7229,0,0,1-.3965-.1431c-.1436-.0952-.3164-.2012-.52-.3183a4.2826,4.2826,0,0,0-.7471-.3247,3.348,3.348,0,0,0-1.0664-.15,3.3115,3.3115,0,0,0-1.0664.1626,2.5653,2.5653,0,0,0-.8252.4487,2.0326,2.0326,0,0,0-.5332.6694,1.8141,1.8141,0,0,0-.1885.8125,1.25,1.25,0,0,0,.4034.9751,3.7139,3.7139,0,0,0,1.0136.63q.611.2666,1.3135.5137a6.75,6.75,0,0,1,1.3125.624,3.3347,3.3347,0,0,1,1.0137.9619,2.6209,2.6209,0,0,1,.4033,1.521,4.3843,4.3843,0,0,1-1.3838,3.2046,5.0837,5.0837,0,0,1-1.6123,1.0073,5.651,5.651,0,0,1-2.1123.377,5.2508,5.2508,0,0,1-2.2305-.4488,4.645,4.645,0,0,1-1.5791-1.15l.5723-.8838a.9928.9928,0,0,1,.2529-.26.6341.6341,0,0,1,.7735.0913q.2079.1817.5205.4092a3.2019,3.2019,0,0,0,1.9892.5918,3.2176,3.2176,0,0,0,1.15-.1953,2.7085,2.7085,0,0,0,.8711-.52,2.196,2.196,0,0,0,.5459-.76,2.31,2.31,0,0,0,.1885-.93,1.4,1.4,0,0,0-.4024-1.0527,3.3019,3.3019,0,0,0-1.0146-.65q-.6108-.26-1.3135-.4878a6.6342,6.6342,0,0,1-1.3125-.585,3.1773,3.1773,0,0,1-1.0137-.93,2.5831,2.5831,0,0,1-.4033-1.521,4.0431,4.0431,0,0,1,.3311-1.6054,4.1448,4.1448,0,0,1,.956-1.3711,4.6738,4.6738,0,0,1,1.5147-.9556,5.35,5.35,0,0,1,2.0078-.3574,5.145,5.145,0,0,1,2.0869.3965,4.8057,4.8057,0,0,1,1.5537,1.0722Z" transform="translate(0 -3.1655)"/><path class="f" d="M984.5908,153.7124l-1.5859,13.1689h-1.1436a.7413.7413,0,0,1-.8457-.832l.1953-2.4048a8.0407,8.0407,0,0,1-2.3457,2.5542,4.808,4.808,0,0,1-2.6855.8648,3.14,3.14,0,0,1-1.4688-.3316,2.6326,2.6326,0,0,1-1.0332-.9687,4.1,4.1,0,0,1-.539-1.56,7.555,7.555,0,0,1,.0117-2.1186l.9883-8.3721H976.44l-.9874,8.3721a4.2913,4.2913,0,0,0,.1885,2.3008,1.4092,1.4092,0,0,0,1.3975.7539,2.7143,2.7143,0,0,0,1.2353-.3247,4.7341,4.7341,0,0,0,1.2217-.9234,7.8982,7.8982,0,0,0,1.0987-1.4492,10.1344,10.1344,0,0,0,.8769-1.8916l.8193-6.8379Z" transform="translate(0 -3.1655)"/><path class="f" d="M989.752,157.3784a11.1483,11.1483,0,0,1,1.125-1.9175,5.5841,5.5841,0,0,1,1.2675-1.2739,3.13,3.13,0,0,1,1.3653-.5591,2.6571,2.6571,0,0,1,1.43.2144l-.4161,2.2231a2.6608,2.6608,0,0,0-2.9843.4942,8.6945,8.6945,0,0,0-2.1,4.2246l-.7276,6.0971H986.45l1.5859-13.1821H989.18a.6952.6952,0,0,1,.793.78Z" transform="translate(0 -3.1655)"/><path class="f" d="M999.333,153.7124l-1.5859,13.1689h-2.2744l1.5859-13.1689Zm.8838-4.1343a1.4628,1.4628,0,0,1-.1367.6309,1.8028,1.8028,0,0,1-.3633.52,1.7278,1.7278,0,0,1-.5195.3574,1.4782,1.4782,0,0,1-.6055.13,1.3947,1.3947,0,0,1-.584-.13,1.58,1.58,0,0,1-.501-.3574,1.8226,1.8226,0,0,1-.3447-.52,1.5491,1.5491,0,0,1-.13-.6309,1.592,1.592,0,0,1,.13-.6367,1.714,1.714,0,0,1,.3516-.5264,1.76,1.76,0,0,1,.5058-.3642,1.354,1.354,0,0,1,.586-.1362,1.4743,1.4743,0,0,1,.6035.13,1.6242,1.6242,0,0,1,.5137.3575,1.7867,1.7867,0,0,1,.3574.5332A1.5458,1.5458,0,0,1,1000.2168,149.5781Z" transform="translate(0 -3.1655)"/><path class="f" d="M1011.4238,153.7124l-.1308.9878a1.4091,1.4091,0,0,1-.1367.4746,2.27,2.27,0,0,1-.253.41l-7.5928,9.49h6.4883l-.209,1.8071h-9.2685l.1162-.9619a1.3263,1.3263,0,0,1,.1172-.4033,1.7285,1.7285,0,0,1,.2734-.4287l7.6309-9.5552h-6.3828l.2207-1.82Z" transform="translate(0 -3.1655)"/><path class="f" d="M1020.4844,163.41a11.3616,11.3616,0,0,1-1.0078,1.5083,6.9574,6.9574,0,0,1-1.1446,1.15,4.9585,4.9585,0,0,1-1.2734.7344,3.793,3.793,0,0,1-1.3848.26,3.23,3.23,0,0,1-1.416-.3057,2.9408,2.9408,0,0,1-1.0859-.897,4.357,4.357,0,0,1-.6953-1.456,7.21,7.21,0,0,1-.2481-1.9824,8.9189,8.9189,0,0,1,.293-2.2818,9.2887,9.2887,0,0,1,2.125-3.9126,8.7,8.7,0,0,1,1.6836-1.43,8.0154,8.0154,0,0,1,1.9961-.9361,7.4818,7.4818,0,0,1,2.2363-.3315,9.7335,9.7335,0,0,1,1.6445.1367,6.8738,6.8738,0,0,1,1.5791.4741l-1.5732,12.74h-1.1953a.7058.7058,0,0,1-.6182-.2338.9785.9785,0,0,1-.1621-.5723Zm.8838-8.086a3.8086,3.8086,0,0,0-.5655-.0845c-.1865-.0126-.3711-.0195-.5527-.0195a4.5565,4.5565,0,0,0-1.5078.2534,5.4071,5.4071,0,0,0-1.3652.7085,6.0477,6.0477,0,0,0-1.1563,1.086,6.9808,6.9808,0,0,0-.8906,1.3842,7.8,7.8,0,0,0-.5791,1.6055,7.3407,7.3407,0,0,0-.208,1.7485q0,3.1334,2.0019,3.1329a2.2657,2.2657,0,0,0,1.2481-.3965,4.8582,4.8582,0,0,0,1.164-1.105,9.34,9.34,0,0,0,1.02-1.6768,15.5974,15.5974,0,0,0,.832-2.1255Z" transform="translate(0 -3.1655)"/><path class="f" d="M1038.2813,147.7324l-2.3536,19.1489h-1.2089a.687.687,0,0,1-.6114-.2338,1.0131,1.0131,0,0,1-.1562-.5723l.248-2.769a10.4094,10.4094,0,0,1-1.08,1.5473,7.9329,7.9329,0,0,1-1.2285,1.1826,5.3122,5.3122,0,0,1-1.3379.7608,3.9208,3.9208,0,0,1-1.4111.2666,3.1126,3.1126,0,0,1-2.626-1.2285,5.8116,5.8116,0,0,1-.9355-3.5689,10.4666,10.4666,0,0,1,.2207-2.1318,11.0265,11.0265,0,0,1,.6308-2.041,9.9188,9.9188,0,0,1,.9883-1.8135,7.4412,7.4412,0,0,1,1.293-1.4492,5.9377,5.9377,0,0,1,1.541-.9624,4.3847,4.3847,0,0,1,1.7344-.3506,4.0568,4.0568,0,0,1,1.7754.3833,3.8336,3.8336,0,0,1,1.3574,1.0854l.8975-7.2539Zm-3.3545,8.853a2.6689,2.6689,0,0,0-1.1895-.9814,3.7552,3.7552,0,0,0-1.4111-.28,3.014,3.014,0,0,0-1.8457.6113,5.3849,5.3849,0,0,0-1.3975,1.5791,8.2371,8.2371,0,0,0-.89,2.1646,9.2581,9.2581,0,0,0-.3125,2.353,4.1865,4.1865,0,0,0,.5527,2.36,1.7946,1.7946,0,0,0,1.5791.8125,2.4027,2.4027,0,0,0,1.2607-.39,5.2217,5.2217,0,0,0,1.2286-1.0855,9.5528,9.5528,0,0,0,1.1054-1.6445,13.1133,13.1133,0,0,0,.8906-2.08Z" transform="translate(0 -3.1655)"/><path class="f" d="M1044.2871,167.0635a5.1282,5.1282,0,0,1-1.9766-.3706,4.3432,4.3432,0,0,1-1.5468-1.0728,4.9341,4.9341,0,0,1-1.0137-1.7158,6.8113,6.8113,0,0,1-.3643-2.314,9.2946,9.2946,0,0,1,.5206-3.1328,8.3219,8.3219,0,0,1,1.43-2.5679,6.8562,6.8562,0,0,1,2.1387-1.7353,5.6626,5.6626,0,0,1,2.6445-.6367,5.1259,5.1259,0,0,1,1.9766.37,4.3437,4.3437,0,0,1,1.5469,1.0727,4.9391,4.9391,0,0,1,1.0137,1.7159,6.773,6.773,0,0,1,.3642,2.3012,9.2527,9.2527,0,0,1-.5205,3.12,8.48,8.48,0,0,1-1.4229,2.5742,6.8027,6.8027,0,0,1-2.1386,1.7485A5.66,5.66,0,0,1,1044.2871,167.0635Zm.2207-1.8072a3.02,3.02,0,0,0,1.7227-.52,4.6778,4.6778,0,0,0,1.3261-1.3842,7.0655,7.0655,0,0,0,.8516-1.9957,9.2238,9.2238,0,0,0,.2988-2.3662,4.367,4.367,0,0,0-.7216-2.7363,2.485,2.485,0,0,0-2.0733-.9165,3.0682,3.0682,0,0,0-1.7363.5137,4.5486,4.5486,0,0,0-1.3194,1.3711,7.0176,7.0176,0,0,0-.8447,1.9892,9.2233,9.2233,0,0,0-.2988,2.3657,4.4588,4.4588,0,0,0,.7148,2.75A2.4636,2.4636,0,0,0,1044.5078,165.2563Z" transform="translate(0 -3.1655)"/><path class="f" d="M897.1553,174.7324l-2.3526,19.1489h-1.2089a.6847.6847,0,0,1-.6114-.2338,1.0131,1.0131,0,0,1-.1562-.5723l.247-2.769a10.3315,10.3315,0,0,1-1.0791,1.5473,7.9777,7.9777,0,0,1-1.2285,1.1826,5.3189,5.3189,0,0,1-1.3388.7608,3.9177,3.9177,0,0,1-1.4112.2666,3.11,3.11,0,0,1-2.625-1.2285,5.8047,5.8047,0,0,1-.9365-3.5689,10.398,10.398,0,0,1,.2217-2.1318,11.0245,11.0245,0,0,1,.63-2.041,9.973,9.973,0,0,1,.9882-1.8135,7.4487,7.4487,0,0,1,1.294-1.4492,5.9324,5.9324,0,0,1,1.54-.9624,4.3864,4.3864,0,0,1,1.7354-.3506,4.0492,4.0492,0,0,1,1.7744.3833,3.8458,3.8458,0,0,1,1.3584,1.0854l.8965-7.2539Zm-3.3545,8.853a2.6689,2.6689,0,0,0-1.1895-.9814,3.7464,3.7464,0,0,0-1.41-.28,3.01,3.01,0,0,0-1.8457.6113,5.3878,5.3878,0,0,0-1.3985,1.5791,8.3053,8.3053,0,0,0-.89,2.1646,9.301,9.301,0,0,0-.3115,2.353,4.1952,4.1952,0,0,0,.5517,2.36,1.7969,1.7969,0,0,0,1.5791.8125,2.4086,2.4086,0,0,0,1.2617-.39,5.2394,5.2394,0,0,0,1.2286-1.0855,9.6046,9.6046,0,0,0,1.1054-1.6445,13.03,13.03,0,0,0,.89-2.08Z" transform="translate(0 -3.1655)"/><path class="f" d="M908.6211,191.45a11.5847,11.5847,0,0,1-1.3,1.1768,7.9443,7.9443,0,0,1-1.294.8125,5.688,5.688,0,0,1-1.3769.4746,7.7159,7.7159,0,0,1-1.5547.1494,5.1914,5.1914,0,0,1-2.0273-.377,4.2028,4.2028,0,0,1-1.5215-1.0727,4.8233,4.8233,0,0,1-.9619-1.6836,6.7886,6.7886,0,0,1-.3379-2.21,9.7182,9.7182,0,0,1,.2138-2.0215,9.48,9.48,0,0,1,.625-1.9174,8.7521,8.7521,0,0,1,1-1.69,6.7638,6.7638,0,0,1,1.3526-1.3457,6.36,6.36,0,0,1,1.6767-.89,5.85,5.85,0,0,1,1.97-.3252,4.7359,4.7359,0,0,1,1.7295.2861,3.6877,3.6877,0,0,1,1.1953.728,2.9,2.9,0,0,1,.6953.9751,2.5762,2.5762,0,0,1,.2285,1.0137,3.5564,3.5564,0,0,1-.3516,1.58,3.2864,3.2864,0,0,1-1.2871,1.3,9.6165,9.6165,0,0,1-2.5742,1.0073,28.3762,28.3762,0,0,1-4.2109.689c0,.0952-.003.1885-.0078.2793s-.0059.1845-.0059.28a4.0681,4.0681,0,0,0,.7607,2.6582,2.8084,2.8084,0,0,0,2.294.9165,4.3088,4.3088,0,0,0,1.1113-.13,4.7144,4.7144,0,0,0,.8711-.3184,3.8414,3.8414,0,0,0,.6758-.416q.293-.2271.5332-.416a5.1858,5.1858,0,0,1,.4492-.3184.7782.7782,0,0,1,.416-.13.5782.5782,0,0,1,.4414.2212Zm-3.666-9.2559a3.3786,3.3786,0,0,0-1.5078.3379,4.0268,4.0268,0,0,0-1.2227.93,5.6906,5.6906,0,0,0-.91,1.3911,8.3145,8.3145,0,0,0-.584,1.7222,25.2488,25.2488,0,0,0,3.2109-.5654,7.9992,7.9992,0,0,0,1.8594-.689,1.7933,1.7933,0,0,0,1.0654-1.6963,1.3062,1.3062,0,0,0-.4355-.9492,1.8,1.8,0,0,0-.5909-.3442A2.5266,2.5266,0,0,0,904.9551,182.1943Z" transform="translate(0 -3.1655)"/><path class="f" d="M917.8242,191.3984v-.2016c0-.0821.0069-.2017.02-.3574s.0351-.3594.0654-.6109.0713-.5806.124-.9883l.8047-6.5908h-1.4688a.3717.3717,0,0,1-.292-.1235.4872.4872,0,0,1-.0849-.3833l.1045-.9234,2.0283-.2729.9883-4.0689a.72.72,0,0,1,.2012-.3183.4909.4909,0,0,1,.3437-.1236h1.209l-.5586,4.5367h3.458l-.1943,1.6772h-3.4717l-.793,6.4741c-.0439.3555-.0781.6411-.1045.8579s-.0449.39-.0586.52-.0215.2207-.0254.2729-.0058.0908-.0058.1167a1.3551,1.3551,0,0,0,.3115.9819,1.1109,1.1109,0,0,0,.8311.3184,1.6934,1.6934,0,0,0,.6054-.0976,2.869,2.869,0,0,0,.4483-.2144q.1948-.1172.3252-.2144a.392.392,0,0,1,.2207-.0976.2611.2611,0,0,1,.1758.0517.4938.4938,0,0,1,.11.1695l.4941,1.105a4.8819,4.8819,0,0,1-1.45.8774,4.4432,4.4432,0,0,1-1.6308.3184,2.75,2.75,0,0,1-1.9824-.689A2.7217,2.7217,0,0,1,917.8242,191.3984Z" transform="translate(0 -3.1655)"/><path class="f" d="M937.9092,180.7124l-1.586,13.1689H935.18a.7412.7412,0,0,1-.8457-.832l.1953-2.4048a8.043,8.043,0,0,1-2.3457,2.5542,4.808,4.808,0,0,1-2.6856.8648,3.14,3.14,0,0,1-1.4687-.3316,2.6326,2.6326,0,0,1-1.0332-.9687,4.1,4.1,0,0,1-.5391-1.56,7.5516,7.5516,0,0,1,.0118-2.1186l.9882-8.3721h2.3008l-.9873,8.3721a4.2893,4.2893,0,0,0,.1885,2.3008,1.4091,1.4091,0,0,0,1.3974.7539,2.7147,2.7147,0,0,0,1.2354-.3247,4.7375,4.7375,0,0,0,1.2217-.9234,7.9024,7.9024,0,0,0,1.0986-1.4492,10.1282,10.1282,0,0,0,.877-1.8916l.8193-6.8379Z" transform="translate(0 -3.1655)"/><path class="f" d="M943.2129,184.0532a10.9632,10.9632,0,0,1,1.0605-1.456,7.4872,7.4872,0,0,1,1.1895-1.1114,5.32,5.32,0,0,1,1.3-.7148,3.8925,3.8925,0,0,1,1.3779-.2534,3.1173,3.1173,0,0,1,2.626,1.2217,5.8052,5.8052,0,0,1,.9365,3.5752,10.4652,10.4652,0,0,1-.2217,2.1318,10.9264,10.9264,0,0,1-.63,2.0347,10.1974,10.1974,0,0,1-.9883,1.8071,7.7958,7.7958,0,0,1-1.2871,1.4556,5.7151,5.7151,0,0,1-1.541.9687,4.4372,4.4372,0,0,1-1.7422.3511,4.0363,4.0363,0,0,1-1.8975-.4419,3.8223,3.8223,0,0,1-1.4033-1.2612l-.1826.8452a1.311,1.311,0,0,1-.2608.5068.7406.7406,0,0,1-.5586.1689h-1.2216l2.3134-19.1489h2.2618Zm-.8438,6.9419a2.7809,2.7809,0,0,0,1.1895.982,3.5751,3.5751,0,0,0,1.3965.2924,2.9146,2.9146,0,0,0,1.2744-.2861,4.015,4.015,0,0,0,1.0918-.7734,5.5,5.5,0,0,0,.8779-1.1441,8.62,8.62,0,0,0,.6563-1.4043,8.9269,8.9269,0,0,0,.41-1.5469,9.4838,9.4838,0,0,0,.1358-1.5795,4.1691,4.1691,0,0,0-.5518-2.3531,1.79,1.79,0,0,0-1.5674-.8056,2.4037,2.4037,0,0,0-1.2607.39,5.3086,5.3086,0,0,0-1.2344,1.086,9.1756,9.1756,0,0,0-1.1123,1.6508,13.0718,13.0718,0,0,0-.89,2.0865Z" transform="translate(0 -3.1655)"/><path class="f" d="M963.87,191.45a11.7621,11.7621,0,0,1-1.3,1.1768,7.9368,7.9368,0,0,1-1.293.8125,5.7013,5.7013,0,0,1-1.3789.4746,7.6814,7.6814,0,0,1-1.5527.1494,5.1965,5.1965,0,0,1-2.0283-.377,4.1914,4.1914,0,0,1-1.52-1.0727,4.8267,4.8267,0,0,1-.9629-1.6836,6.8155,6.8155,0,0,1-.3379-2.21,9.72,9.72,0,0,1,.2148-2.0215,9.47,9.47,0,0,1,.6231-1.9174,8.7046,8.7046,0,0,1,1.0019-1.69,6.7617,6.7617,0,0,1,1.3516-1.3457,6.3655,6.3655,0,0,1,1.6777-.89,5.8442,5.8442,0,0,1,1.9688-.3252,4.7191,4.7191,0,0,1,1.7285.2861,3.6862,3.6862,0,0,1,1.1973.728,2.9282,2.9282,0,0,1,.6953.9751,2.5894,2.5894,0,0,1,.2265,1.0137,3.557,3.557,0,0,1-.3505,1.58,3.28,3.28,0,0,1-1.2872,1.3,9.6218,9.6218,0,0,1-2.5732,1.0073,28.3635,28.3635,0,0,1-4.2129.689c0,.0952-.0019.1885-.0058.2793s-.0069.1845-.0069.28a4.0618,4.0618,0,0,0,.7608,2.6582,2.8088,2.8088,0,0,0,2.2949.9165,4.3143,4.3143,0,0,0,1.1113-.13,4.7686,4.7686,0,0,0,.8711-.3184,3.9127,3.9127,0,0,0,.6758-.416c.1953-.1514.3721-.29.5332-.416a5.0467,5.0467,0,0,1,.4482-.3184.7725.7725,0,0,1,.4151-.13.5818.5818,0,0,1,.4433.2212Zm-3.666-9.2559a3.3786,3.3786,0,0,0-1.5078.3379,4.0108,4.0108,0,0,0-1.2217.93,5.6618,5.6618,0,0,0-.91,1.3911,8.265,8.265,0,0,0-.586,1.7222,25.2035,25.2035,0,0,0,3.2119-.5654,7.9886,7.9886,0,0,0,1.8584-.689,1.7922,1.7922,0,0,0,1.0664-1.6963,1.2961,1.2961,0,0,0-.4355-.9492,1.8152,1.8152,0,0,0-.5918-.3442A2.5139,2.5139,0,0,0,960.2041,182.1943Z" transform="translate(0 -3.1655)"/><path class="f" d="M969.252,184.3784a11.0958,11.0958,0,0,1,1.124-1.9175,5.6045,5.6045,0,0,1,1.2676-1.2739,3.1383,3.1383,0,0,1,1.3652-.5591,2.6544,2.6544,0,0,1,1.43.2144l-.416,2.2231a2.6594,2.6594,0,0,0-2.9834.4942,8.679,8.679,0,0,0-2.1,4.2246l-.7286,6.0971h-2.2617l1.586-13.1821H968.68a.6956.6956,0,0,1,.793.78Z" transform="translate(0 -3.1655)"/><path class="f" d="M978.832,180.7124l-1.5859,13.1689h-2.2744l1.5859-13.1689Zm2.8731-5.668-3.1719,3.354a1.282,1.282,0,0,1-.3506.2793.9172.9172,0,0,1-.416.0845h-1.2744l2.1191-3.146a1.4506,1.4506,0,0,1,.41-.4355,1.122,1.122,0,0,1,.6035-.1363Z" transform="translate(0 -3.1655)"/><path class="f" d="M988.959,190.41a11.2522,11.2522,0,0,1-1.0069,1.5083,7.0662,7.0662,0,0,1-1.1435,1.15,4.9807,4.9807,0,0,1-1.2744.7344,3.7917,3.7917,0,0,1-1.3838.26,3.2388,3.2388,0,0,1-1.418-.3057,2.9649,2.9649,0,0,1-1.0859-.897,4.3782,4.3782,0,0,1-.6953-1.456,7.2525,7.2525,0,0,1-.2461-1.9824,8.9581,8.9581,0,0,1,.292-2.2818,9.2773,9.2773,0,0,1,2.1259-3.9126,8.6472,8.6472,0,0,1,1.6836-1.43,7.9946,7.9946,0,0,1,1.9952-.9361,7.4753,7.4753,0,0,1,2.2353-.3315,9.7075,9.7075,0,0,1,1.6445.1367,6.8668,6.8668,0,0,1,1.58.4741l-1.5732,12.74h-1.1963a.7049.7049,0,0,1-.6172-.2338.9785.9785,0,0,1-.1621-.5723Zm.8848-8.086a3.8105,3.8105,0,0,0-.5655-.0845c-.1865-.0126-.37-.0195-.5527-.0195a4.5522,4.5522,0,0,0-1.5078.2534,5.4077,5.4077,0,0,0-1.3653.7085,6.0849,6.0849,0,0,0-1.1572,1.086,7.16,7.16,0,0,0-.8906,1.3842,7.9158,7.9158,0,0,0-.5781,1.6055,7.3407,7.3407,0,0,0-.208,1.7485q0,3.1334,2.0019,3.1329a2.2657,2.2657,0,0,0,1.2481-.3965,4.8368,4.8368,0,0,0,1.163-1.105,9.28,9.28,0,0,0,1.0215-1.6768,15.8616,15.8616,0,0,0,.8321-2.1255Z" transform="translate(0 -3.1655)"/><path class="f" d="M1002.5957,182.8184a.8281.8281,0,0,1-.207.2275.4491.4491,0,0,1-.26.0713.7229.7229,0,0,1-.3965-.1431c-.1435-.0952-.3164-.2012-.52-.3183a4.2826,4.2826,0,0,0-.7471-.3247,3.3476,3.3476,0,0,0-1.0664-.15,3.3115,3.3115,0,0,0-1.0664.1626,2.5653,2.5653,0,0,0-.8252.4487,2.0326,2.0326,0,0,0-.5332.6694,1.8153,1.8153,0,0,0-.1884.8125,1.25,1.25,0,0,0,.4033.9751,3.7139,3.7139,0,0,0,1.0136.63q.611.2666,1.3135.5137a6.75,6.75,0,0,1,1.3125.624,3.3347,3.3347,0,0,1,1.0137.9619,2.6209,2.6209,0,0,1,.4033,1.521,4.3843,4.3843,0,0,1-1.3838,3.2046,5.0815,5.0815,0,0,1-1.6123,1.0073,5.651,5.651,0,0,1-2.1123.377,5.25,5.25,0,0,1-2.23-.4488,4.6444,4.6444,0,0,1-1.5792-1.15l.5723-.8838a.9928.9928,0,0,1,.2529-.26.6341.6341,0,0,1,.7735.0913q.208.1817.52.4092a3.2019,3.2019,0,0,0,1.9892.5918,3.2172,3.2172,0,0,0,1.15-.1953,2.7075,2.7075,0,0,0,.8711-.52,2.1947,2.1947,0,0,0,.5459-.76,2.31,2.31,0,0,0,.1885-.93,1.4,1.4,0,0,0-.4023-1.0527,3.3036,3.3036,0,0,0-1.0147-.65q-.6108-.26-1.3135-.4878a6.6394,6.6394,0,0,1-1.3125-.585,3.1759,3.1759,0,0,1-1.0136-.93,2.5824,2.5824,0,0,1-.4034-1.521,4.0431,4.0431,0,0,1,.3311-1.6054,4.1436,4.1436,0,0,1,.9561-1.3711,4.6733,4.6733,0,0,1,1.5146-.9556,5.35,5.35,0,0,1,2.0078-.3574,5.145,5.145,0,0,1,2.0869.3965,4.8057,4.8057,0,0,1,1.5537,1.0722Z" transform="translate(0 -3.1655)"/><line class="i" x1="944" y1="211.5859" x2="944" y2="266.5859"/><circle class="f" cx="944" cy="266.5859" r="4.5117"/><path class="f" d="M884.8008,22.3145h-1.8731a.7306.7306,0,0,1-.5058-.1626.8917.8917,0,0,1-.2608-.4224l-1.0136-4.55h-7.5791l-2.1319,4.55a1.138,1.138,0,0,1-.3584.41.8932.8932,0,0,1-.539.1753h-1.8985l9.127-18.629h2.47Zm-4.043-6.9029-1.7031-7.709q-.066-.3514-.1563-.8125t-.1562-.9946q-.1948.5457-.39,1.001t-.3505.8188L874.4,15.4116Z" transform="translate(0 -3.1655)"/><path class="f" d="M895.1484,11.2515a.83.83,0,0,1-.2089.2275.4429.4429,0,0,1-.26.0713.7282.7282,0,0,1-.3965-.1431c-.1426-.0952-.3164-.2011-.5195-.3183a4.2357,4.2357,0,0,0-.7481-.3247,3.3443,3.3443,0,0,0-1.0654-.15,3.3092,3.3092,0,0,0-1.0654.1626,2.5619,2.5619,0,0,0-.8262.4487,2.0073,2.0073,0,0,0-.5332.6694,1.8275,1.8275,0,0,0-.1885.8125,1.2471,1.2471,0,0,0,.4033.9751,3.7137,3.7137,0,0,0,1.0137.63q.6108.2666,1.3125.5137a6.7313,6.7313,0,0,1,1.3135.624,3.3712,3.3712,0,0,1,1.0146.9619,2.6351,2.6351,0,0,1,.4024,1.521,4.38,4.38,0,0,1-1.3848,3.2046,5.0567,5.0567,0,0,1-1.6113,1.0073,5.6526,5.6526,0,0,1-2.1133.377,5.2415,5.2415,0,0,1-2.2285-.4488,4.6288,4.6288,0,0,1-1.58-1.15l.5723-.8837a.9642.9642,0,0,1,.2539-.26.6339.6339,0,0,1,.7734.0913q.208.1817.5195.4092a3.2068,3.2068,0,0,0,1.9893.5918,3.2141,3.2141,0,0,0,1.15-.1953,2.71,2.71,0,0,0,.8711-.52,2.1973,2.1973,0,0,0,.5459-.76,2.3266,2.3266,0,0,0,.1885-.93,1.3968,1.3968,0,0,0-.4034-1.0527,3.2847,3.2847,0,0,0-1.0136-.65q-.6123-.26-1.3125-.4878a6.6172,6.6172,0,0,1-1.3135-.585,3.2124,3.2124,0,0,1-1.0147-.93,2.5977,2.5977,0,0,1-.4023-1.521,4.0285,4.0285,0,0,1,.332-1.6054,4.1422,4.1422,0,0,1,.9551-1.3711,4.668,4.668,0,0,1,1.5137-.9556,5.3565,5.3565,0,0,1,2.01-.3574,5.1441,5.1441,0,0,1,2.0859.3965,4.8029,4.8029,0,0,1,1.5527,1.0722Z" transform="translate(0 -3.1655)"/><path class="f" d="M901.4268,11.0693l-1.3135,10.816-.61,2.6914a1.5589,1.5589,0,0,1-.4228.7212,1.1071,1.1071,0,0,1-.7735.2534H897.41l1.7421-14.4429-1.3007-.1689a.8606.8606,0,0,1-.37-.1949.4685.4685,0,0,1-.11-.4033l.1172-.936h1.8711l.1562-1.274a6.4726,6.4726,0,0,1,.5664-2.0083,4.9531,4.9531,0,0,1,1.0655-1.4819,4.3848,4.3848,0,0,1,1.47-.9165,5.01,5.01,0,0,1,1.7871-.312,4.0582,4.0582,0,0,1,1.4687.26l-.2207,1.1963a.3127.3127,0,0,1-.3515.26h-.7539a3.1656,3.1656,0,0,0-1.0332.1626,2.17,2.17,0,0,0-.8389.5264,3.0152,3.0152,0,0,0-.6172.9492,5.2193,5.2193,0,0,0-.3574,1.43l-.1436,1.209h3.2891l-.2207,1.664Z" transform="translate(0 -3.1655)"/><path class="f" d="M913.5293,18.8433a11.2614,11.2614,0,0,1-1.0068,1.5083,7.0715,7.0715,0,0,1-1.1436,1.15,4.9832,4.9832,0,0,1-1.2744.7343,3.7917,3.7917,0,0,1-1.3838.26,3.2388,3.2388,0,0,1-1.418-.3057,2.9649,2.9649,0,0,1-1.0859-.897,4.3773,4.3773,0,0,1-.6953-1.456,7.2525,7.2525,0,0,1-.2461-1.9824,8.9581,8.9581,0,0,1,.292-2.2818,9.276,9.276,0,0,1,2.126-3.9126,8.6414,8.6414,0,0,1,1.6836-1.43,7.9923,7.9923,0,0,1,1.9951-.9361,7.4753,7.4753,0,0,1,2.2353-.3315A9.71,9.71,0,0,1,915.252,9.1a6.866,6.866,0,0,1,1.58.4741l-1.5732,12.74h-1.1963a.705.705,0,0,1-.6172-.2339.9785.9785,0,0,1-.1621-.5723Zm.8848-8.086a3.7932,3.7932,0,0,0-.5655-.0844c-.1865-.0127-.37-.02-.5527-.02a4.5522,4.5522,0,0,0-1.5078.2534,5.4071,5.4071,0,0,0-1.3652.7085,6.0824,6.0824,0,0,0-1.1573,1.086,7.16,7.16,0,0,0-.8906,1.3842,7.9158,7.9158,0,0,0-.5781,1.6055,7.3409,7.3409,0,0,0-.208,1.7486q0,3.1332,2.0019,3.1328a2.2657,2.2657,0,0,0,1.2481-.3965,4.8389,4.8389,0,0,0,1.1631-1.105,9.2818,9.2818,0,0,0,1.0214-1.6768,15.852,15.852,0,0,0,.8321-2.1254Z" transform="translate(0 -3.1655)"/><path class="f" d="M918.7422,22.3145,921.07,3.1655h2.2744l-2.3271,19.149Z" transform="translate(0 -3.1655)"/><path class="f" d="M925.5674,19.8315V19.63c0-.082.0068-.2017.0195-.3574s.0342-.3594.0654-.6109q.0439-.3771.1231-.9883l.8057-6.5908h-1.4688a.3688.3688,0,0,1-.292-.1235.4833.4833,0,0,1-.0849-.3833l.1044-.9234,2.0274-.2729.9883-4.0689a.7274.7274,0,0,1,.2011-.3183.4953.4953,0,0,1,.3448-.1235h1.209l-.56,4.5366h3.459l-.1953,1.6772h-3.4707l-.793,6.4741c-.044.3555-.0781.6412-.1045.858s-.0459.39-.0586.52-.0215.2207-.0264.2729-.0058.0908-.0058.1167a1.3512,1.3512,0,0,0,.3125.982,1.1075,1.1075,0,0,0,.831.3183,1.684,1.684,0,0,0,.6045-.0976,2.8807,2.8807,0,0,0,.4492-.2144c.1289-.0781.2383-.1494.3243-.2144a.3947.3947,0,0,1,.2207-.0976.2606.2606,0,0,1,.1757.0517.5085.5085,0,0,1,.1114.1695l.4941,1.105a4.8946,4.8946,0,0,1-1.45.8774,4.4483,4.4483,0,0,1-1.6318.3184,2.7535,2.7535,0,0,1-1.9824-.689A2.7173,2.7173,0,0,1,925.5674,19.8315Z" transform="translate(0 -3.1655)"/><path class="f" d="M938.6445,22.4966a5.13,5.13,0,0,1-1.9756-.3706,4.3344,4.3344,0,0,1-1.5468-1.0728,4.9513,4.9513,0,0,1-1.0147-1.7158,6.8366,6.8366,0,0,1-.3633-2.314,9.344,9.344,0,0,1,.52-3.1328,8.38,8.38,0,0,1,1.43-2.5678,6.8764,6.8764,0,0,1,2.1386-1.7354,5.6707,5.6707,0,0,1,2.6465-.6367,5.1276,5.1276,0,0,1,1.9756.37,4.3348,4.3348,0,0,1,1.5469,1.0728,4.9687,4.9687,0,0,1,1.0146,1.7158,6.7957,6.7957,0,0,1,.3633,2.3012,9.302,9.302,0,0,1-.5195,3.12,8.5464,8.5464,0,0,1-1.4239,2.5742,6.8027,6.8027,0,0,1-2.1386,1.7485A5.6587,5.6587,0,0,1,938.6445,22.4966Zm.2217-1.8071a3.0186,3.0186,0,0,0,1.7217-.52,4.6657,4.6657,0,0,0,1.3262-1.3842,6.9837,6.9837,0,0,0,.8515-1.9956,9.2252,9.2252,0,0,0,.2989-2.3663,4.3738,4.3738,0,0,0-.7207-2.7363,2.4831,2.4831,0,0,0-2.0743-.9165,3.0664,3.0664,0,0,0-1.7343.5137,4.55,4.55,0,0,0-1.32,1.3711,7.0462,7.0462,0,0,0-.8447,1.9892,9.18,9.18,0,0,0-.2988,2.3658,4.4521,4.4521,0,0,0,.7148,2.7495A2.4636,2.4636,0,0,0,938.8662,20.69Z" transform="translate(0 -3.1655)"/><path class="f" d="M507.0283,3.6855l-2.3008,18.629h-2.4438l1.04-8.502h-9.0874l-1.04,8.502h-2.4439l2.2881-18.629h2.4439l-1.0269,8.3589h9.0869l1.0269-8.3589Z" transform="translate(0 -3.1655)"/><path class="f" d="M520.6133,9.1455l-1.586,13.169h-1.144a.741.741,0,0,1-.8447-.8321l.1948-2.4048a8.0384,8.0384,0,0,1-2.3462,2.5542,4.8062,4.8062,0,0,1-2.6846.8648,3.1417,3.1417,0,0,1-1.4692-.3316,2.6359,2.6359,0,0,1-1.0332-.9687,4.1078,4.1078,0,0,1-.54-1.56,7.5394,7.5394,0,0,1,.0127-2.1186l.9883-8.3721h2.3008l-.9878,8.3721a4.2943,4.2943,0,0,0,.1885,2.3008,1.4091,1.4091,0,0,0,1.3974.7539,2.71,2.71,0,0,0,1.2349-.3247,4.7311,4.7311,0,0,0,1.2222-.9234,7.88,7.88,0,0,0,1.0986-1.4492,10.1611,10.1611,0,0,0,.8775-1.8916l.8188-6.8379Z" transform="translate(0 -3.1655)"/><path class="f" d="M522.4722,22.3145l1.5859-13.1822h1.144a.6955.6955,0,0,1,.793.78l-.1821,2.34a8.1215,8.1215,0,0,1,2.1387-2.4633,4.1059,4.1059,0,0,1,2.4375-.8384,2.24,2.24,0,0,1,1.976.9165,4.56,4.56,0,0,1,.6368,2.6191,7.5938,7.5938,0,0,1,2.2036-2.6714,4.4347,4.4347,0,0,1,2.5937-.8642,2.493,2.493,0,0,1,2.3916,1.3,6.2471,6.2471,0,0,1,.416,3.6792l-.9878,8.3848h-2.288L538.332,13.93a5.2777,5.2777,0,0,0-.0976-2.3013,1.1876,1.1876,0,0,0-1.2544-.7539,2.4439,2.4439,0,0,0-1.1113.2793,4.0392,4.0392,0,0,0-1.0728.8193,6.4832,6.4832,0,0,0-.9683,1.3389,10.8512,10.8512,0,0,0-.7993,1.8394v.0132l-.8452,7.15H529.895l.9883-8.3848a5.66,5.66,0,0,0-.0522-2.3013,1.13,1.13,0,0,0-1.2222-.7539,2.4986,2.4986,0,0,0-1.2022.312,3.9389,3.9389,0,0,0-1.0922.9033,7.4052,7.4052,0,0,0-.9556,1.4429,13.9289,13.9289,0,0,0-.8057,1.918l-.8193,6.8638Z" transform="translate(0 -3.1655)"/><path class="f" d="M553.2949,19.8833a11.6727,11.6727,0,0,1-1.3,1.1768,7.94,7.94,0,0,1-1.2934.8125,5.6962,5.6962,0,0,1-1.378.4746,7.6986,7.6986,0,0,1-1.5537.1494,5.194,5.194,0,0,1-2.0278-.377,4.1967,4.1967,0,0,1-1.521-1.0727,4.8258,4.8258,0,0,1-.9624-1.6836,6.802,6.802,0,0,1-.3379-2.21,9.7123,9.7123,0,0,1,.2144-2.0215,9.4655,9.4655,0,0,1,.624-1.9174,8.7209,8.7209,0,0,1,1.001-1.69,6.7636,6.7636,0,0,1,1.352-1.3457,6.3615,6.3615,0,0,1,1.6773-.89,5.8462,5.8462,0,0,1,1.9692-.3252,4.7275,4.7275,0,0,1,1.729.2861,3.6864,3.6864,0,0,1,1.1963.728,2.914,2.914,0,0,1,.6953.9751,2.581,2.581,0,0,1,.2275,1.0137,3.5573,3.5573,0,0,1-.351,1.58,3.2837,3.2837,0,0,1-1.2871,1.3,9.6214,9.6214,0,0,1-2.5738,1.0073,28.37,28.37,0,0,1-4.2119.689c0,.0952-.0024.1885-.0068.2793s-.0064.1845-.0064.28a4.0646,4.0646,0,0,0,.7608,2.6582,2.8084,2.8084,0,0,0,2.2944.9165,4.3115,4.3115,0,0,0,1.1113-.13,4.7386,4.7386,0,0,0,.8711-.3184,3.8748,3.8748,0,0,0,.6758-.416q.293-.2271.5332-.416a5.138,5.138,0,0,1,.4487-.3184.7754.7754,0,0,1,.4156-.13.58.58,0,0,1,.4423.2212Zm-3.666-9.2559a3.3786,3.3786,0,0,0-1.5078.3379,4.0188,4.0188,0,0,0-1.2222.93,5.6809,5.6809,0,0,0-.91,1.3911,8.2926,8.2926,0,0,0-.585,1.7222,25.2083,25.2083,0,0,0,3.2114-.5654,7.9939,7.9939,0,0,0,1.8589-.689,1.7927,1.7927,0,0,0,1.0659-1.6963,1.3011,1.3011,0,0,0-.4355-.9492,1.8072,1.8072,0,0,0-.5913-.3442A2.5231,2.5231,0,0,0,549.6289,10.6274Z" transform="translate(0 -3.1655)"/><path class="f" d="M568.0234,3.1655l-2.353,19.149h-1.209a.6853.6853,0,0,1-.6108-.2339,1.0092,1.0092,0,0,1-.1563-.5723l.2471-2.769a10.4128,10.4128,0,0,1-1.0791,1.5473,8,8,0,0,1-1.2285,1.1826,5.3263,5.3263,0,0,1-1.3389.7608,3.9146,3.9146,0,0,1-1.4106.2666,3.1119,3.1119,0,0,1-2.626-1.2285,5.8115,5.8115,0,0,1-.936-3.5689,10.4674,10.4674,0,0,1,.2212-2.1318,11.0634,11.0634,0,0,1,.63-2.041,10.01,10.01,0,0,1,.9883-1.8135,7.4434,7.4434,0,0,1,1.2935-1.4492,5.9334,5.9334,0,0,1,1.54-.9624,4.3894,4.3894,0,0,1,1.7353-.3506,4.0531,4.0531,0,0,1,1.7745.3833,3.8414,3.8414,0,0,1,1.3584,1.0854l.8969-7.2539Zm-3.354,8.8531a2.6736,2.6736,0,0,0-1.1894-.9815,3.7528,3.7528,0,0,0-1.4107-.28,3.01,3.01,0,0,0-1.8457.6114,5.3751,5.3751,0,0,0-1.3979,1.5791,8.2885,8.2885,0,0,0-.89,2.1645,9.302,9.302,0,0,0-.312,2.353,4.1941,4.1941,0,0,0,.5523,2.36,1.7965,1.7965,0,0,0,1.58.8125,2.407,2.407,0,0,0,1.2612-.39,5.2292,5.2292,0,0,0,1.2285-1.0855,9.5749,9.5749,0,0,0,1.105-1.6445,13.0211,13.0211,0,0,0,.89-2.08Z" transform="translate(0 -3.1655)"/><path class="f" d="M577.2661,18.8433a11.3017,11.3017,0,0,1-1.0073,1.5083,7.0143,7.0143,0,0,1-1.1441,1.15,4.9721,4.9721,0,0,1-1.2739.7343,3.7923,3.7923,0,0,1-1.3843.26,3.234,3.234,0,0,1-1.4169-.3057,2.9523,2.9523,0,0,1-1.086-.897,4.37,4.37,0,0,1-.6953-1.456,7.2351,7.2351,0,0,1-.2471-1.9824,8.9406,8.9406,0,0,1,.2925-2.2818,9.2824,9.2824,0,0,1,2.1255-3.9126,8.6738,8.6738,0,0,1,1.6836-1.43,8.0055,8.0055,0,0,1,1.9956-.9361,7.479,7.479,0,0,1,2.2358-.3315,9.7216,9.7216,0,0,1,1.6446.1367,6.8717,6.8717,0,0,1,1.58.4741l-1.5733,12.74h-1.1958a.7054.7054,0,0,1-.6177-.2339.9785.9785,0,0,1-.1621-.5723Zm.8843-8.086a3.7938,3.7938,0,0,0-.5654-.0844c-.1866-.0127-.3706-.02-.5528-.02a4.5548,4.5548,0,0,0-1.5078.2534,5.4088,5.4088,0,0,0-1.3652.7085,6.068,6.068,0,0,0-1.1568,1.086,7.0763,7.0763,0,0,0-.8906,1.3842,7.8632,7.8632,0,0,0-.5786,1.6055,7.3409,7.3409,0,0,0-.208,1.7486q0,3.1332,2.0019,3.1328a2.2652,2.2652,0,0,0,1.2481-.3965,4.85,4.85,0,0,0,1.1636-1.105,9.3089,9.3089,0,0,0,1.0205-1.6768,15.7321,15.7321,0,0,0,.832-2.1254Z" transform="translate(0 -3.1655)"/><path class="f" d="M595.063,3.1655l-2.353,19.149h-1.209a.6855.6855,0,0,1-.6109-.2339,1.0092,1.0092,0,0,1-.1562-.5723l.2471-2.769a10.4128,10.4128,0,0,1-1.0791,1.5473,8.0053,8.0053,0,0,1-1.2286,1.1826,5.3258,5.3258,0,0,1-1.3388.7608,3.9151,3.9151,0,0,1-1.4107.2666,3.1119,3.1119,0,0,1-2.6259-1.2285,5.8108,5.8108,0,0,1-.9361-3.5689,10.4674,10.4674,0,0,1,.2212-2.1318,11.0636,11.0636,0,0,1,.63-2.041,9.9978,9.9978,0,0,1,.9883-1.8135,7.4429,7.4429,0,0,1,1.2934-1.4492,5.9367,5.9367,0,0,1,1.5405-.9624,4.39,4.39,0,0,1,1.7354-.3506,4.0523,4.0523,0,0,1,1.7744.3833,3.84,3.84,0,0,1,1.3584,1.0854l.897-7.2539Zm-3.354,8.8531a2.6738,2.6738,0,0,0-1.1895-.9815,3.7523,3.7523,0,0,0-1.4106-.28,3.01,3.01,0,0,0-1.8457.6114,5.3768,5.3768,0,0,0-1.398,1.5791,8.2883,8.2883,0,0,0-.89,2.1645,9.302,9.302,0,0,0-.312,2.353,4.195,4.195,0,0,0,.5522,2.36,1.7967,1.7967,0,0,0,1.58.8125,2.4076,2.4076,0,0,0,1.2613-.39,5.2312,5.2312,0,0,0,1.2285-1.0855,9.5747,9.5747,0,0,0,1.1049-1.6445,13.03,13.03,0,0,0,.89-2.08Z" transform="translate(0 -3.1655)"/><path class="f" d="M492.56,44.5815q0,.9624.0908,1.9956t.2666,2.0733q.1758,1.04.4487,2.041a16.779,16.779,0,0,0,.624,1.8721.7035.7035,0,0,1,.0191.5981.9953.9953,0,0,1-.3311.3379l-1.0532.5982a17.5377,17.5377,0,0,1-.93-2.3077,23.0029,23.0029,0,0,1-.9941-4.7514q-.1172-1.17-.1172-2.249a29.5261,29.5261,0,0,1,.208-3.5425,19.238,19.238,0,0,1,.7607-3.4776,22.9608,22.9608,0,0,1,1.5142-3.6206,31.7027,31.7027,0,0,1,2.4829-3.9717l.9234.6114a.75.75,0,0,1,.247.3379q.0777.2079-.1694.5849a30.9127,30.9127,0,0,0-1.7026,2.9575A21.6782,21.6782,0,0,0,493.6,37.7046a21.0863,21.0863,0,0,0-.7734,3.2563A23.3269,23.3269,0,0,0,492.56,44.5815Z" transform="translate(0 -3.1655)"/><path class="f" d="M500.9575,37.1455l-1.5859,13.169h-2.2749l1.5859-13.169Zm.8843-4.1343a1.47,1.47,0,0,1-.1367.6309,1.8207,1.8207,0,0,1-.3638.52,1.7177,1.7177,0,0,1-.52.3574,1.477,1.477,0,0,1-.6045.13,1.4008,1.4008,0,0,1-.585-.13,1.5779,1.5779,0,0,1-.5-.3574,1.8423,1.8423,0,0,1-.3447-.52,1.541,1.541,0,0,1-.13-.6309,1.5835,1.5835,0,0,1,.13-.6367,1.74,1.74,0,0,1,.3511-.5264,1.7645,1.7645,0,0,1,.5068-.3642,1.3481,1.3481,0,0,1,.585-.1362,1.4768,1.4768,0,0,1,.6045.13,1.6355,1.6355,0,0,1,.5137.3575,1.8245,1.8245,0,0,1,.3574.5332A1.5536,1.5536,0,0,1,501.8418,33.0112Z" transform="translate(0 -3.1655)"/><path class="f" d="M506.2612,40.4736a8.2077,8.2077,0,0,1,2.3789-2.6328,4.8417,4.8417,0,0,1,2.73-.89,3.1008,3.1008,0,0,1,1.4624.331,2.6545,2.6545,0,0,1,1.0274.9688,4.1369,4.1369,0,0,1,.5395,1.5664,7.8228,7.8228,0,0,1,0,2.1128l-.9883,8.3848H511.11l.9877-8.3848a4.26,4.26,0,0,0-.1948-2.3076,1.4142,1.4142,0,0,0-1.3911-.7476,2.7152,2.7152,0,0,0-1.2676.3379,4.8859,4.8859,0,0,0-1.2412.9619,7.98,7.98,0,0,0-1.1118,1.5015,10.5213,10.5213,0,0,0-.8774,1.9565l-.7539,6.6822h-2.314l1.5859-13.1822h1.1441a.69.69,0,0,1,.78.78Z" transform="translate(0 -3.1655)"/><path class="f" d="M529.3755,31.1655l-2.353,19.149h-1.209a.6855.6855,0,0,1-.6109-.2339,1.0092,1.0092,0,0,1-.1562-.5723l.2471-2.769a10.4128,10.4128,0,0,1-1.0791,1.5473,8.0053,8.0053,0,0,1-1.2286,1.1826,5.3258,5.3258,0,0,1-1.3388.7608,3.9151,3.9151,0,0,1-1.4107.2666,3.1119,3.1119,0,0,1-2.6259-1.2285,5.8108,5.8108,0,0,1-.9361-3.5689,10.4674,10.4674,0,0,1,.2212-2.1318,11.0636,11.0636,0,0,1,.63-2.041,9.9978,9.9978,0,0,1,.9883-1.8135,7.4429,7.4429,0,0,1,1.2934-1.4492,5.9367,5.9367,0,0,1,1.5405-.9624,4.39,4.39,0,0,1,1.7354-.3506,4.0523,4.0523,0,0,1,1.7744.3833,3.84,3.84,0,0,1,1.3584,1.0854l.897-7.2539Zm-3.354,8.8531a2.6738,2.6738,0,0,0-1.1895-.9815,3.7523,3.7523,0,0,0-1.4106-.28,3.01,3.01,0,0,0-1.8457.6114,5.3768,5.3768,0,0,0-1.398,1.5791,8.2883,8.2883,0,0,0-.89,2.1645,9.302,9.302,0,0,0-.312,2.353,4.195,4.195,0,0,0,.5522,2.36,1.7967,1.7967,0,0,0,1.58.8125,2.4076,2.4076,0,0,0,1.2613-.39,5.2312,5.2312,0,0,0,1.2285-1.0855,9.5747,9.5747,0,0,0,1.1049-1.6445,13.03,13.03,0,0,0,.89-2.08Z" transform="translate(0 -3.1655)"/><path class="f" d="M534.4707,37.1455l-1.5859,13.169H530.61l1.5859-13.169Zm.8843-4.1343a1.47,1.47,0,0,1-.1367.6309,1.8227,1.8227,0,0,1-.3638.52,1.7189,1.7189,0,0,1-.52.3574,1.477,1.477,0,0,1-.6045.13,1.4,1.4,0,0,1-.585-.13,1.5779,1.5779,0,0,1-.5-.3574,1.8423,1.8423,0,0,1-.3447-.52,1.541,1.541,0,0,1-.13-.6309,1.5835,1.5835,0,0,1,.13-.6367,1.74,1.74,0,0,1,.3511-.5264,1.7631,1.7631,0,0,1,.5068-.3642,1.3481,1.3481,0,0,1,.585-.1362,1.4772,1.4772,0,0,1,.6045.13,1.634,1.634,0,0,1,.5136.3575,1.8248,1.8248,0,0,1,.3575.5332A1.5536,1.5536,0,0,1,535.355,33.0112Z" transform="translate(0 -3.1655)"/><path class="f" d="M546.3267,47.9482a11.9327,11.9327,0,0,1-1.2867,1.2354,6.2585,6.2585,0,0,1-1.2221.7861,4.9192,4.9192,0,0,1-1.2676.41,8.0306,8.0306,0,0,1-1.4107.1172,4.9382,4.9382,0,0,1-2.0214-.39,3.9891,3.9891,0,0,1-1.4688-1.0986,4.8369,4.8369,0,0,1-.897-1.7026,7.4376,7.4376,0,0,1-.3056-2.1909,9.4519,9.4519,0,0,1,.5-3.0679,8.6293,8.6293,0,0,1,1.3974-2.6,6.9529,6.9529,0,0,1,2.1387-1.8067,5.5767,5.5767,0,0,1,2.71-.6762,4.7146,4.7146,0,0,1,2.1973.4614,4.5948,4.5948,0,0,1,1.5469,1.3457l-.728.8711a.83.83,0,0,1-.2017.1689.489.489,0,0,1-.2534.065.5264.5264,0,0,1-.3574-.1626,4.5616,4.5616,0,0,0-.4615-.3638,3.2851,3.2851,0,0,0-.7085-.3642,3.0624,3.0624,0,0,0-1.0854-.1626,3.1726,3.1726,0,0,0-1.69.4878,4.76,4.76,0,0,0-1.3907,1.3325,6.793,6.793,0,0,0-.9428,2.0019,8.6692,8.6692,0,0,0-.3443,2.4829,5.4564,5.4564,0,0,0,.1822,1.4624,3.1253,3.1253,0,0,0,.5459,1.1182,2.5031,2.5031,0,0,0,.8906.7149,2.8013,2.8013,0,0,0,1.2285.2534,3.6379,3.6379,0,0,0,1.4624-.26,4.9306,4.9306,0,0,0,.9941-.5654q.4029-.3054.6827-.5655a.8252.8252,0,0,1,.5527-.26.5785.5785,0,0,1,.4419.2212Z" transform="translate(0 -3.1655)"/><path class="f" d="M552.2676,37.1455l-1.586,13.169h-2.2749l1.586-13.169Zm.8843-4.1343a1.47,1.47,0,0,1-.1368.6309,1.8223,1.8223,0,0,1-.3637.52,1.7181,1.7181,0,0,1-.52.3574,1.4766,1.4766,0,0,1-.6044.13,1.4,1.4,0,0,1-.585-.13,1.5779,1.5779,0,0,1-.5-.3574,1.84,1.84,0,0,1-.3447-.52,1.541,1.541,0,0,1-.13-.6309,1.5835,1.5835,0,0,1,.13-.6367,1.74,1.74,0,0,1,.3511-.5264,1.7631,1.7631,0,0,1,.5068-.3642,1.3478,1.3478,0,0,1,.585-.1362,1.4763,1.4763,0,0,1,.6044.13,1.6333,1.6333,0,0,1,.5137.3575,1.8225,1.8225,0,0,1,.3574.5332A1.5537,1.5537,0,0,1,553.1519,33.0112Z" transform="translate(0 -3.1655)"/><path class="f" d="M559.1577,50.4966a5.1293,5.1293,0,0,1-1.9761-.3706,4.3388,4.3388,0,0,1-1.5468-1.0728,4.9427,4.9427,0,0,1-1.0142-1.7158,6.8239,6.8239,0,0,1-.3638-2.314,9.3192,9.3192,0,0,1,.52-3.1328,8.349,8.349,0,0,1,1.43-2.5678,6.8665,6.8665,0,0,1,2.1387-1.7354,5.6667,5.6667,0,0,1,2.6455-.6367,5.1266,5.1266,0,0,1,1.9761.37,4.3391,4.3391,0,0,1,1.5469,1.0728,4.9523,4.9523,0,0,1,1.0141,1.7158,6.7831,6.7831,0,0,1,.3638,2.3012,9.2773,9.2773,0,0,1-.52,3.12,8.513,8.513,0,0,1-1.4234,2.5742A6.8027,6.8027,0,0,1,561.81,49.853,5.6594,5.6594,0,0,1,559.1577,50.4966Zm.2212-1.8071a3.0193,3.0193,0,0,0,1.7222-.52,4.67,4.67,0,0,0,1.3261-1.3842,7.0233,7.0233,0,0,0,.8516-1.9956,9.2251,9.2251,0,0,0,.2988-2.3663,4.37,4.37,0,0,0-.7212-2.7363,2.4837,2.4837,0,0,0-2.0737-.9165,3.0673,3.0673,0,0,0-1.7353.5137,4.5489,4.5489,0,0,0-1.32,1.3711,7.0319,7.0319,0,0,0-.8447,1.9892,9.2016,9.2016,0,0,0-.2988,2.3658,4.4554,4.4554,0,0,0,.7148,2.7495A2.4636,2.4636,0,0,0,559.3789,48.69Z" transform="translate(0 -3.1655)"/><path class="f" d="M586.4834,31.1655l-2.353,19.149h-1.209a.6856.6856,0,0,1-.6109-.2339,1.0092,1.0092,0,0,1-.1562-.5723l.2471-2.769a10.4128,10.4128,0,0,1-1.0791,1.5473,8.0093,8.0093,0,0,1-1.2285,1.1826,5.3281,5.3281,0,0,1-1.3389.7608,3.9151,3.9151,0,0,1-1.4107.2666,3.1119,3.1119,0,0,1-2.6259-1.2285,5.8108,5.8108,0,0,1-.9361-3.5689,10.4744,10.4744,0,0,1,.2212-2.1318,11.0636,11.0636,0,0,1,.63-2.041,9.9978,9.9978,0,0,1,.9883-1.8135,7.4429,7.4429,0,0,1,1.2934-1.4492,5.9356,5.9356,0,0,1,1.5406-.9624,4.3891,4.3891,0,0,1,1.7353-.3506,4.0523,4.0523,0,0,1,1.7744.3833,3.84,3.84,0,0,1,1.3584,1.0854l.897-7.2539Zm-3.354,8.8531a2.6738,2.6738,0,0,0-1.19-.9815,3.7519,3.7519,0,0,0-1.4106-.28,3.01,3.01,0,0,0-1.8457.6114,5.3768,5.3768,0,0,0-1.398,1.5791,8.2883,8.2883,0,0,0-.89,2.1645,9.302,9.302,0,0,0-.312,2.353,4.195,4.195,0,0,0,.5522,2.36,1.7967,1.7967,0,0,0,1.58.8125,2.4073,2.4073,0,0,0,1.2613-.39,5.2312,5.2312,0,0,0,1.2285-1.0855,9.5807,9.5807,0,0,0,1.105-1.6445,13.0393,13.0393,0,0,0,.89-2.08Z" transform="translate(0 -3.1655)"/><path class="f" d="M597.9492,47.8833a11.6727,11.6727,0,0,1-1.3,1.1768,7.94,7.94,0,0,1-1.2934.8125,5.6962,5.6962,0,0,1-1.378.4746,7.6986,7.6986,0,0,1-1.5537.1494,5.194,5.194,0,0,1-2.0278-.377,4.1967,4.1967,0,0,1-1.521-1.0727,4.8258,4.8258,0,0,1-.9624-1.6836,6.802,6.802,0,0,1-.3379-2.21,9.7123,9.7123,0,0,1,.2144-2.0215,9.4655,9.4655,0,0,1,.624-1.9174,8.7209,8.7209,0,0,1,1.001-1.69,6.7636,6.7636,0,0,1,1.352-1.3457,6.3625,6.3625,0,0,1,1.6772-.89,5.8472,5.8472,0,0,1,1.9693-.3252,4.7275,4.7275,0,0,1,1.729.2861,3.6864,3.6864,0,0,1,1.1963.728,2.914,2.914,0,0,1,.6953.9751,2.5828,2.5828,0,0,1,.2275,1.0137,3.5573,3.5573,0,0,1-.351,1.58,3.2834,3.2834,0,0,1-1.2872,1.3,9.6192,9.6192,0,0,1-2.5737,1.0073,28.37,28.37,0,0,1-4.2119.689c0,.0952-.0024.1885-.0068.2793s-.0064.1845-.0064.28a4.0646,4.0646,0,0,0,.7608,2.6582,2.8084,2.8084,0,0,0,2.2944.9165,4.3115,4.3115,0,0,0,1.1113-.13,4.7386,4.7386,0,0,0,.8711-.3184,3.8748,3.8748,0,0,0,.6758-.416q.2929-.2271.5332-.416a5.138,5.138,0,0,1,.4487-.3184.7754.7754,0,0,1,.4156-.13.58.58,0,0,1,.4423.2212Zm-3.666-9.2559a3.3786,3.3786,0,0,0-1.5078.3379,4.0188,4.0188,0,0,0-1.2222.93,5.6809,5.6809,0,0,0-.91,1.3911,8.2926,8.2926,0,0,0-.585,1.7222,25.2083,25.2083,0,0,0,3.2114-.5654,7.9939,7.9939,0,0,0,1.8589-.689,1.7927,1.7927,0,0,0,1.0659-1.6963,1.3011,1.3011,0,0,0-.4355-.9492,1.8072,1.8072,0,0,0-.5913-.3442A2.5231,2.5231,0,0,0,594.2832,38.6274Z" transform="translate(0 -3.1655)"/><path class="f" d="M610.4805,39.0693l-1.313,10.816-.6109,2.6914a1.5669,1.5669,0,0,1-.4223.7212,1.11,1.11,0,0,1-.7735.2534h-.8969l1.7417-14.4429-1.3-.1689a.8616.8616,0,0,1-.3706-.1949.4682.4682,0,0,1-.11-.4033l.1167-.936h1.8721l.1562-1.274a6.47,6.47,0,0,1,.5655-2.0083,4.9437,4.9437,0,0,1,1.0659-1.4819,4.3876,4.3876,0,0,1,1.4692-.9165,5.0137,5.0137,0,0,1,1.7871-.312,4.058,4.058,0,0,1,1.4693.26l-.2212,1.1963a.3118.3118,0,0,1-.3511.26h-.7539a3.1656,3.1656,0,0,0-1.0332.1626,2.1665,2.1665,0,0,0-.8389.5264,3.0239,3.0239,0,0,0-.6172.9492,5.2049,5.2049,0,0,0-.3574,1.43l-.1431,1.209H613.9l-.2212,1.664Z" transform="translate(0 -3.1655)"/><path class="f" d="M626.3535,37.1455l-1.5859,13.169h-1.1441a.741.741,0,0,1-.8447-.8321l.1948-2.4048a8.0373,8.0373,0,0,1-2.3462,2.5542,4.8061,4.8061,0,0,1-2.6845.8648,3.1421,3.1421,0,0,1-1.4693-.3316,2.6359,2.6359,0,0,1-1.0332-.9687,4.1077,4.1077,0,0,1-.5395-1.56,7.5394,7.5394,0,0,1,.0127-2.1186l.9883-8.3721h2.3007l-.9878,8.3721a4.2963,4.2963,0,0,0,.1885,2.3008,1.4092,1.4092,0,0,0,1.3975.7539,2.71,2.71,0,0,0,1.2348-.3247,4.7294,4.7294,0,0,0,1.2222-.9234,7.8757,7.8757,0,0,0,1.0986-1.4492,10.1611,10.1611,0,0,0,.8775-1.8916l.8188-6.8379Z" transform="translate(0 -3.1655)"/><path class="f" d="M640.186,37.6265l-.0913.7671a.7233.7233,0,0,1-.52.624l-1.6509.2856a4.333,4.333,0,0,1,.2471,1.4951,4.2512,4.2512,0,0,1-.1494,1.17,5.682,5.682,0,0,1-.3706.9624,7.8021,7.8021,0,0,1-.481.832q-.2607.39-.4809.7734a5.0366,5.0366,0,0,0-.3706.793,2.5786,2.5786,0,0,0-.1495.89,1.8336,1.8336,0,0,0,.1236.67,3.7552,3.7552,0,0,0,.312.624q.1883.3054.416.6172a5.7956,5.7956,0,0,1,.416.6631,4.1294,4.1294,0,0,1,.312.76,3.1334,3.1334,0,0,1,.1231.9038,3.8562,3.8562,0,0,1-.4419,1.7486,4.588,4.588,0,0,1-1.2217,1.4624,6.0554,6.0554,0,0,1-1.9243,1.0073,8.1606,8.1606,0,0,1-2.5479.3706,8.4516,8.4516,0,0,1-2.0605-.2339,5.2034,5.2034,0,0,1-1.5859-.6631,3.1565,3.1565,0,0,1-1.0142-1.0337,2.5684,2.5684,0,0,1-.3574-1.332,2.9947,2.9947,0,0,1,.351-1.4692,3.5392,3.5392,0,0,1,.9488-1.0987,5.3465,5.3465,0,0,1,1.3911-.76,8.6376,8.6376,0,0,1,1.6836-.4419,10.9739,10.9739,0,0,1,1.8266-.1367,13.3761,13.3761,0,0,1,1.8331.1367,2.9837,2.9837,0,0,1-.1885-.5137,2.2177,2.2177,0,0,1-.0718-.5786,2.9965,2.9965,0,0,1,.1235-.832,5.3336,5.3336,0,0,1,.41-.9751,4.0615,4.0615,0,0,1-1.105.5268,4.7252,4.7252,0,0,1-1.3911.1885,3.9732,3.9732,0,0,1-1.4106-.2471,3.2864,3.2864,0,0,1-1.15-.728,3.3936,3.3936,0,0,1-.78-1.2026,4.5459,4.5459,0,0,1-.2861-1.6836,5.1276,5.1276,0,0,1,.3442-1.8394,4.8435,4.8435,0,0,1,2.6455-2.75,5.5384,5.5384,0,0,1,2.249-.4287,5.1973,5.1973,0,0,1,1.3394.1689,3.8207,3.8207,0,0,1,1.144.5069Zm-4.42,13.0131a2.9616,2.9616,0,0,0-.0649-.6435,3.5734,3.5734,0,0,0-.169-.5527,14.0556,14.0556,0,0,0-2.9638-.2012,6.9206,6.9206,0,0,0-2.0606.3833,2.7388,2.7388,0,0,0-1.2026.8061,1.6872,1.6872,0,0,0-.39,1.066,1.5877,1.5877,0,0,0,.7862,1.43,4.1971,4.1971,0,0,0,2.23.4942,5.0948,5.0948,0,0,0,1.5664-.2276,4.0532,4.0532,0,0,0,1.2094-.6044,2.7966,2.7966,0,0,0,.78-.8838A2.179,2.179,0,0,0,635.7656,50.64Zm-2.6128-6.2661a2.478,2.478,0,0,0,1.2417-.3056,2.8944,2.8944,0,0,0,.91-.8062,3.7539,3.7539,0,0,0,.5654-1.124,4.1938,4.1938,0,0,0,.1953-1.2612,2.3606,2.3606,0,0,0-.5786-1.729,2.1375,2.1375,0,0,0-1.5923-.585,2.5709,2.5709,0,0,0-1.2353.2861,2.7974,2.7974,0,0,0-.9033.7666,3.4273,3.4273,0,0,0-.5591,1.0923,4.302,4.302,0,0,0-.1885,1.2739,2.5346,2.5346,0,0,0,.5654,1.7813A2.0457,2.0457,0,0,0,633.1528,44.3735Z" transform="translate(0 -3.1655)"/><path class="f" d="M648.9341,46.8433a11.3113,11.3113,0,0,1-1.0073,1.5083,7.0183,7.0183,0,0,1-1.1441,1.15,4.9721,4.9721,0,0,1-1.2739.7343,3.7923,3.7923,0,0,1-1.3843.26,3.2344,3.2344,0,0,1-1.417-.3057,2.9528,2.9528,0,0,1-1.0859-.897,4.3676,4.3676,0,0,1-.6953-1.456,7.2312,7.2312,0,0,1-.2471-1.9824,8.9406,8.9406,0,0,1,.2925-2.2818,9.2824,9.2824,0,0,1,2.1255-3.9126,8.6708,8.6708,0,0,1,1.6836-1.43,8.0038,8.0038,0,0,1,1.9956-.9361,7.4785,7.4785,0,0,1,2.2358-.3315,9.72,9.72,0,0,1,1.6445.1367,6.87,6.87,0,0,1,1.58.4741l-1.5732,12.74h-1.1958a.7054.7054,0,0,1-.6177-.2339.9785.9785,0,0,1-.1621-.5723Zm.8843-8.086a3.7951,3.7951,0,0,0-.5655-.0844c-.1865-.0127-.3706-.02-.5527-.02a4.5544,4.5544,0,0,0-1.5078.2534,5.4094,5.4094,0,0,0-1.3653.7085,6.0675,6.0675,0,0,0-1.1567,1.086,7.0717,7.0717,0,0,0-.8906,1.3842,7.8573,7.8573,0,0,0-.5786,1.6055,7.3409,7.3409,0,0,0-.208,1.7486q0,3.1332,2.0019,3.1328a2.2657,2.2657,0,0,0,1.2481-.3965,4.8474,4.8474,0,0,0,1.1635-1.105,9.3032,9.3032,0,0,0,1.02-1.6768,15.7189,15.7189,0,0,0,.8321-2.1254Z" transform="translate(0 -3.1655)"/><path class="f" d="M657.0327,39.6934q0-.9486-.0908-1.9888t-.2793-2.08q-.189-1.04-.4551-2.041a16.078,16.078,0,0,0-.6177-1.8721.6959.6959,0,0,1-.0258-.5849.9281.9281,0,0,1,.3252-.3379l1.0786-.6114a19.6136,19.6136,0,0,1,.9165,2.314,21.3432,21.3432,0,0,1,.624,2.3794q.2409,1.1961.3574,2.3657t.1172,2.2622a29.5261,29.5261,0,0,1-.208,3.5425,19.6278,19.6278,0,0,1-.7539,3.4776,22.3593,22.3593,0,0,1-1.5078,3.6137,31.9376,31.9376,0,0,1-2.4834,3.9654l-.9229-.5982a.8254.8254,0,0,1-.1557-.1431.4486.4486,0,0,1-.0913-.1884.5493.5493,0,0,1,.0131-.26,1.1913,1.1913,0,0,1,.169-.3442,30.5108,30.5108,0,0,0,1.69-2.99,23.0267,23.0267,0,0,0,1.2544-3.1,21.73,21.73,0,0,0,.78-3.2763A22.4407,22.4407,0,0,0,657.0327,39.6934Z" transform="translate(0 -3.1655)"/><path class="i" d="M451,72.7515V34.6631a15.1966,15.1966,0,0,1,7.6954-13.2163L470.44,15.145" transform="translate(0 -3.1655)"/><circle class="f" cx="451" cy="69.5859" r="3.7598"/><path class="i" d="M983,72.7515V34.6631a15.1966,15.1966,0,0,0-7.6954-13.2163L963.56,15.145" transform="translate(0 -3.1655)"/><circle class="f" cx="983" cy="69.5859" r="3.7598"/></svg>