<svg xmlns="http://www.w3.org/2000/svg" viewBox="0 0 1349.6427 407.9615"><defs><style>.a{opacity:0.5;}.b,.d,.g,.i{fill:none;}.b,.c,.d,.i{stroke:#606060;}.b,.c,.d,.f,.g{stroke-miterlimit:10;}.b,.c,.d{stroke-width:3px;}.c,.f{fill:#fff;}.d{opacity:0.4;}.e{opacity:0.3;}.f,.g{stroke:#000;}.h{fill:#606060;}.i{stroke-linecap:round;stroke-linejoin:round;stroke-width:2px;}</style></defs><title>partes</title><g class="a"><line class="b" x1="1320.6427" y1="280.7163" y2="280.7163"/><line class="b" x1="29" y1="175.7332" x2="1349.6427" y2="175.7332"/><rect class="c" x="783.8352" y="100.6818" width="36.7104" height="47.1991"/><rect class="c" x="789.0795" y="147.8809" width="26.2217" height="20.9774"/><rect class="c" x="812.6791" y="108.5483" width="26.2217" height="10.4887" transform="translate(939.5826 -711.9973) rotate(90)"/><rect class="c" x="220.666" y="170.4889" width="43.4232" height="115.4717" transform="translate(484.7552 456.4495) rotate(-180)"/><rect class="c" x="395.3912" y="170.585" width="115.3756" height="115.3756" transform="translate(906.1581 456.5457) rotate(-180)"/><rect class="c" x="578.8715" y="170.585" width="115.3756" height="115.3756" transform="translate(1273.1185 456.5457) rotate(-180)"/><rect class="c" x="762.8578" y="168.8583" width="78.6652" height="117.1023" transform="translate(1604.3808 454.8189) rotate(-180)"/><rect class="c" x="970.4219" y="168.8583" width="43.4158" height="117.1023" transform="translate(1984.2597 454.8189) rotate(-180)"/><rect class="c" x="429.4795" y="154.7559" width="47.1991" height="15.733"/><rect class="c" x="610.379" y="154.7559" width="52.4434" height="15.733"/><rect class="c" x="594.646" y="102.3124" width="83.9095" height="52.4434" rx="9.2558"/><rect class="c" x="678.5555" y="112.8011" width="31.4661" height="31.4661"/><rect class="c" x="442.5903" y="144.2672" width="20.9774" height="10.4887"/><circle class="c" cx="452.7353" cy="109.1494" r="36.7104"/></g><rect class="d" x="943.1679" y="1.5" width="267" height="132" rx="10.1667"/><g class="e"><rect class="b" x="953.6679" y="11.5" width="246" height="112" rx="7.125"/><path class="b" d="M1142.6679,11h49.875a7.125,7.125,0,0,1,7.125,7.125v97.75a7.125,7.125,0,0,1-7.125,7.125h-49.875a0,0,0,0,1,0,0V11A0,0,0,0,1,1142.6679,11Z"/><rect class="b" x="1154.1679" y="26.5" width="15" height="15" rx="4"/><rect class="b" x="1154.1679" y="52.5" width="15" height="15" rx="4"/><rect class="b" x="1154.1679" y="79.5" width="15" height="15" rx="4"/><line class="b" x1="1176.1679" y1="30.5" x2="1189.1679" y2="30.5"/><line class="b" x1="1176.1679" y1="35.5" x2="1189.1679" y2="35.5"/><line class="b" x1="1176.1679" y1="56.5" x2="1189.1679" y2="56.5"/><line class="b" x1="1176.1679" y1="61.5" x2="1189.1679" y2="61.5"/><line class="b" x1="1176.1679" y1="84.5" x2="1189.1679" y2="84.5"/><line class="b" x1="1176.1679" y1="89.5" x2="1189.1679" y2="89.5"/></g><rect class="f" x="242.0937" y="2.1417" width="69.884" height="128.4518" rx="4.7195" transform="translate(210.6681 343.4032) rotate(-90)"/><path class="g" d="M217.1785,38.6357V54.3378A2.0819,2.0819,0,0,0,219.26,56.42h0a2.4271,2.4271,0,0,1,2.4271,2.4271V73.8883a2.4272,2.4272,0,0,1-2.4272,2.4273h0a2.0819,2.0819,0,0,0-2.0819,2.0819V94.0994a4.1422,4.1422,0,0,0,4.1422,4.1422h111.43a4.1422,4.1422,0,0,0,4.1422-4.1422V38.6358a4.1422,4.1422,0,0,0-4.1422-4.1422h-111.43A4.1421,4.1421,0,0,0,217.1785,38.6357Z"/><path d="M291.9654,42.2577c.148.0319.2952.0679.4441.095a6.07,6.07,0,0,1,4.25,3.2064,5.7814,5.7814,0,0,1,.59,1.9077,6.4411,6.4411,0,0,1,.03,1.4157,5.8014,5.8014,0,0,1-.77,2.4071,6.0177,6.0177,0,0,1-2.9234,2.5827,5.4087,5.4087,0,0,1-1.7132.4312.9715.9715,0,0,0-.108.0216c-.0037.0832-.01.1588-.01.2345q0,3.448.0019,6.8962,0,4.688-.0024,9.3759c0,2.0749.0088,4.15-.0024,6.2247a7.783,7.783,0,0,1-1.6764,4.9248,7.6981,7.6981,0,0,1-4.6079,2.86,7.3152,7.3152,0,0,1-1.4816.1547q-8.1363-.0051-16.2725-.0022-2.8412,0-5.6824-.0023a6.56,6.56,0,0,1-1.7731-.2824,7.7311,7.7311,0,0,1-3.7466-2.3514,7.5,7.5,0,0,1-1.6441-2.9734,12.5217,12.5217,0,0,1-.2622-1.2559,11.1836,11.1836,0,0,1-.0513-1.9061q-.0081-6.7156-.0016-13.4312,0-3.6549-.0024-7.31a7.3759,7.3759,0,0,1,.4366-2.4449,7.5684,7.5684,0,0,1,1.42-2.4648,7.9864,7.9864,0,0,1,2.07-1.727,8.0852,8.0852,0,0,1,2.65-.9467,5.6064,5.6064,0,0,1,.6654-.0674c1.5132-.086,3.0277-.0312,4.5417-.0384,1.9026-.009,3.8054-.0044,5.7081-.0043q4.378,0,8.7559.0023,2.0793,0,4.1585,0h.2479c.0656-.3468.1125-.6769.1921-.9989a5.9394,5.9394,0,0,1,1.1391-2.288,6.0266,6.0266,0,0,1,2.3354-1.78,5.2615,5.2615,0,0,1,1.5827-.4252.5207.5207,0,0,0,.116-.0407ZM285.21,48.5691H275.1371q-6.3676,0-12.7353.0024a6.5392,6.5392,0,0,0-.9251.0569,7.3194,7.3194,0,0,0-2.0192.5835,7.137,7.137,0,0,0-3.7609,4.1407,7.5849,7.5849,0,0,0-.3986,2.5025q-.0041,5.2956-.0011,10.5912c0,2.3336-.0051,4.6671,0,7.0006.0028,1.3508.022,2.7017.0316,4.0525a5.602,5.602,0,0,0,.1667,1.2473,7.1074,7.1074,0,0,0,6.9381,5.4965c2.6175.0167,5.2353.0048,7.8529.005,3.1,0,6.2.007,9.3-.0019,1.5658-.0045,3.132.0389,4.6975-.03A6.8107,6.8107,0,0,0,286,83.9088a7.1013,7.1013,0,0,0,4.9726-6.7206c.0195-2.35.0042-4.7014.0042-7.0521q0-3.6167.0006-7.2331,0-4.1848-.0007-8.37c0-.0656-.0118-.1312-.0185-.2022a6.0774,6.0774,0,0,1-5.7478-5.7621Zm10.2147-1.4c-1.0146-.0231-2,.0122-3.01-.0167V44.1479a19.119,19.119,0,0,0-2.2957.0165c0,.3312,0,.666,0,1.0008,0,.3271.005.6543,0,.9813-.0044.3316.0153.6644-.0163,1.0194H287.1a18.0106,18.0106,0,0,0,.0114,2.2744H290.12v2.9946c.7784.002,1.53.0162,2.2959-.0049,0-.2788,0-.5273,0-.7758,0-.2411.0014-.4821.0013-.7231,0-.25-.0034-.4992-.0011-.7488.0024-.2452-.0127-.4917.0124-.7511.5184,0,1.008,0,1.4976,0,.4957,0,.9915.0064,1.4986-.0047V47.1694Z"/><path d="M267.5973,56.1694,273.4337,72.15l.0353-.0069V56.1747c.0729-.0065.1307-.0162.1884-.0162,2.6087,0,5.2174-.0109,7.8259.0074a7.0084,7.0084,0,0,1,3.3421.81,5.7181,5.7181,0,0,1,2.653,2.9477,6.4746,6.4746,0,0,1,.424,1.7163,6.1425,6.1425,0,0,1,.0312,1.1579,5.3931,5.3931,0,0,1-1.4193,3.4,5.6444,5.6444,0,0,1-2.14,1.4361c-.0236.009-.0458.0215-.0967.0456.2327.4864.495.9539.7371,1.4312.2447.4825.4994.96.748,1.44.2528.4883.5026.978.7553,1.4663.2487.4805.5.96.7491,1.44s.4971.9614.7454,1.4422c.247.4782.4938.9566.7529,1.4585h-4.6037l-3.9212-8.003h-2.7767a1.7726,1.7726,0,0,0-.02.1925q-.0013,2.35,0,4.7007,0,1.4593.0011,2.9186c0,.058-.0086.116-.0143.1888h-6.61L269.64,72.82h-7.1387l-1.2161,3.5391h-4.1091c.037-.245,7.1993-19.9486,7.3392-20.1892Zm9.8539,8.8391a.62.62,0,0,0,.0989.02c1.2547-.0106,2.51-.0242,3.7642-.032a2.8993,2.8993,0,0,0,1.076-.2212,2.4214,2.4214,0,0,0,1.3762-1.35,2.7871,2.7871,0,0,0,.1852-1.2862,2.4071,2.4071,0,0,0-1.06-1.9106,2.7821,2.7821,0,0,0-1.5981-.497c-1.2213-.0124-2.4429-.0061-3.6644-.0061a1.5509,1.5509,0,0,0-.1784.0209Zm-11.29-2.7339-.0475-.002-2.4928,7.1805c.3687.0407,4.7476.0254,4.9469-.0213Z"/><path class="h" d="M427.6226,342.3745a1.9667,1.9667,0,0,1-.3462.3545.6448.6448,0,0,1-.396.1241.9089.9089,0,0,1-.5942-.2891,7.6283,7.6283,0,0,0-.8-.627,6.35,6.35,0,0,0-1.18-.6269,4.5255,4.5255,0,0,0-1.7324-.2891,5.0368,5.0368,0,0,0-1.8809.33,4.0946,4.0946,0,0,0-1.3945.8994,3.8406,3.8406,0,0,0-.8662,1.3282,4.4473,4.4473,0,0,0-.2969,1.6337,2.5144,2.5144,0,0,0,.396,1.4434,3.6253,3.6253,0,0,0,1.04,1.0068,7.83,7.83,0,0,0,1.4765.7422q.8328.3224,1.6914.66t1.691.751a5.9982,5.9982,0,0,1,1.477,1.0224,4.7537,4.7537,0,0,1,1.04,1.4688,4.946,4.946,0,0,1,.396,2.0791,8.728,8.728,0,0,1-.5777,3.1757,7.7567,7.7567,0,0,1-1.6582,2.6153,7.9139,7.9139,0,0,1-2.6152,1.7822,8.64,8.64,0,0,1-3.4487.66,8.28,8.28,0,0,1-3.77-.833,7.7082,7.7082,0,0,1-2.7309-2.252l1.0893-1.4687a1.0683,1.0683,0,0,1,.33-.2969.8361.8361,0,0,1,.4292-.1162,1.0043,1.0043,0,0,1,.6763.372,10.8376,10.8376,0,0,0,.9243.8243,6.29,6.29,0,0,0,1.3857.8252,5.0247,5.0247,0,0,0,2.0625.371,5.5456,5.5456,0,0,0,2.0542-.3623,4.3266,4.3266,0,0,0,2.5333-2.55,5.4881,5.4881,0,0,0,.3461-1.9882,2.6944,2.6944,0,0,0-.396-1.51,3.4607,3.4607,0,0,0-1.0395-1.0147,7.665,7.665,0,0,0-1.4683-.7177q-.8254-.3048-1.6831-.6182t-1.6831-.71a5.678,5.678,0,0,1-1.4682-1.0068,4.6184,4.6184,0,0,1-1.04-1.501,5.3946,5.3946,0,0,1-.396-2.1943,7.5276,7.5276,0,0,1,.5278-2.7891,7.1307,7.1307,0,0,1,1.5181-2.3593,7.334,7.334,0,0,1,2.4175-1.6338,8.0946,8.0946,0,0,1,3.209-.61,7.4939,7.4939,0,0,1,3.2671.6934,6.58,6.58,0,0,1,2.3925,1.8974Z"/><path class="h" d="M443.2149,359.27a14.77,14.77,0,0,1-1.65,1.4931,9.9391,9.9391,0,0,1-1.6421,1.0313,7.1876,7.1876,0,0,1-1.749.6025,9.748,9.748,0,0,1-1.9717.19,6.5779,6.5779,0,0,1-2.5737-.4786,5.3134,5.3134,0,0,1-1.9307-1.3613,6.1059,6.1059,0,0,1-1.2207-2.1367,8.61,8.61,0,0,1-.4292-2.8047,12.27,12.27,0,0,1,.2725-2.5654,11.9515,11.9515,0,0,1,.792-2.4336,10.9745,10.9745,0,0,1,1.2705-2.1455,8.5367,8.5367,0,0,1,1.7158-1.708,8.07,8.07,0,0,1,2.1284-1.13,7.4414,7.4414,0,0,1,2.5-.4121,6.0129,6.0129,0,0,1,2.1944.3623,4.6891,4.6891,0,0,1,1.518.9238,3.713,3.713,0,0,1,.8828,1.2383,3.291,3.291,0,0,1,.2886,1.2871,4.5191,4.5191,0,0,1-.4453,2.0039,4.1645,4.1645,0,0,1-1.6338,1.65,12.1738,12.1738,0,0,1-3.2671,1.2783,35.9216,35.9216,0,0,1-5.3457.875q0,.1816-.0083.3545c-.0058.1152-.0083.2344-.0083.3545a5.1636,5.1636,0,0,0,.9653,3.375,3.5672,3.5672,0,0,0,2.9122,1.1631,5.4764,5.4764,0,0,0,1.4106-.165,6.0727,6.0727,0,0,0,1.1055-.4043,4.9373,4.9373,0,0,0,.8584-.5284q.37-.2884.6762-.5273a6.3457,6.3457,0,0,1,.5694-.4043.9853.9853,0,0,1,.5278-.165.736.736,0,0,1,.561.28Zm-4.6528-11.7481a4.2847,4.2847,0,0,0-1.9141.43,5.0863,5.0863,0,0,0-1.5512,1.18,7.1956,7.1956,0,0,0-1.1548,1.7646,10.5312,10.5312,0,0,0-.7427,2.1866,32.0327,32.0327,0,0,0,4.0757-.7178,10.1468,10.1468,0,0,0,2.3593-.874,2.5587,2.5587,0,0,0,1.0889-1.0147,2.5847,2.5847,0,0,0,.2642-1.1387,1.6315,1.6315,0,0,0-.1319-.6191,1.6511,1.6511,0,0,0-.4209-.5859,2.2884,2.2884,0,0,0-.7509-.4366A3.1889,3.1889,0,0,0,438.5621,347.522Z"/><path class="h" d="M450.0621,349.8648a10.4129,10.4129,0,0,1,3.0195-3.3408,6.1426,6.1426,0,0,1,3.4649-1.13,3.9245,3.9245,0,0,1,1.8564.4209,3.3674,3.3674,0,0,1,1.3032,1.2285,5.2411,5.2411,0,0,1,.6846,1.9883,9.9071,9.9071,0,0,1,0,2.6816l-1.2539,10.6426h-2.92l1.2539-10.6426a5.3913,5.3913,0,0,0-.2476-2.9287,1.794,1.794,0,0,0-1.7651-.9492,3.44,3.44,0,0,0-1.6089.43,6.1867,6.1867,0,0,0-1.5757,1.2207,10.1275,10.1275,0,0,0-1.4106,1.9053,13.3087,13.3087,0,0,0-1.1138,2.4833l-.957,8.4815h-2.937l2.0127-16.7315h1.4521a.8752.8752,0,0,1,.99.99Z"/><path class="h" d="M474.1192,348.314a1.0722,1.0722,0,0,1-.2641.2891.5686.5686,0,0,1-.33.0908.9235.9235,0,0,1-.503-.1817q-.2724-.1815-.66-.4043a5.3535,5.3535,0,0,0-.9487-.4121,4.7064,4.7064,0,0,0-2.7061.0166,3.2649,3.2649,0,0,0-1.0478.5684,2.5636,2.5636,0,0,0-.6763.8506,2.3032,2.3032,0,0,0-.2393,1.0312,1.5853,1.5853,0,0,0,.5113,1.2373,4.6958,4.6958,0,0,0,1.2871.8q.7756.3384,1.6665.6524a8.5692,8.5692,0,0,1,1.6665.792,4.2549,4.2549,0,0,1,1.2871,1.2207,3.3378,3.3378,0,0,1,.5117,1.9306,5.5641,5.5641,0,0,1-1.7573,4.0674,6.4262,6.4262,0,0,1-2.0464,1.2784,7.1564,7.1564,0,0,1-2.6812.4785,6.6588,6.6588,0,0,1-2.83-.5694,5.8859,5.8859,0,0,1-2.0048-1.46l.726-1.1221a1.24,1.24,0,0,1,.3218-.33.8061.8061,0,0,1,.9819.1153q.2637.2315.66.5205a4.0662,4.0662,0,0,0,2.5244.75,4.0884,4.0884,0,0,0,1.4605-.2471,3.4292,3.4292,0,0,0,1.1054-.66,2.7832,2.7832,0,0,0,.6929-.9648,2.9363,2.9363,0,0,0,.2393-1.18,1.7741,1.7741,0,0,0-.5113-1.3369,4.1945,4.1945,0,0,0-1.2871-.8252q-.7757-.33-1.6665-.6182a8.4357,8.4357,0,0,1-1.6665-.7431,4.0522,4.0522,0,0,1-1.2871-1.18,3.2874,3.2874,0,0,1-.5112-1.9307,5.1246,5.1246,0,0,1,.42-2.0371A5.2745,5.2745,0,0,1,465.77,347.06a5.9428,5.9428,0,0,1,1.9224-1.2129,6.8051,6.8051,0,0,1,2.5493-.4531,6.5453,6.5453,0,0,1,2.6479.5029,6.1109,6.1109,0,0,1,1.9722,1.3613Z"/><path class="h" d="M482.7647,362.5865a6.5058,6.5058,0,0,1-2.5078-.47,5.5049,5.5049,0,0,1-1.9634-1.3613,6.2753,6.2753,0,0,1-1.2871-2.1777,8.663,8.663,0,0,1-.4619-2.9375,11.83,11.83,0,0,1,.66-3.9766,10.5865,10.5865,0,0,1,1.8154-3.2588,8.6857,8.6857,0,0,1,2.7139-2.2021,7.1868,7.1868,0,0,1,3.3579-.8086,6.5058,6.5058,0,0,1,2.5078.47,5.5137,5.5137,0,0,1,1.9639,1.3613,6.29,6.29,0,0,1,1.2866,2.1778,8.6115,8.6115,0,0,1,.4624,2.9209,11.778,11.778,0,0,1-.66,3.96,10.8,10.8,0,0,1-1.8066,3.2666,8.6315,8.6315,0,0,1-2.7144,2.22A7.1743,7.1743,0,0,1,482.7647,362.5865Zm.2808-2.293a3.8283,3.8283,0,0,0,2.186-.66,5.9118,5.9118,0,0,0,1.6831-1.7578,8.8737,8.8737,0,0,0,1.0806-2.5322,11.7061,11.7061,0,0,0,.38-3.0029,5.55,5.55,0,0,0-.916-3.4737,3.1517,3.1517,0,0,0-2.6319-1.163,3.9,3.9,0,0,0-2.2026.6513,5.7819,5.7819,0,0,0-1.6748,1.7412,8.9073,8.9073,0,0,0-1.0723,2.5244,11.6855,11.6855,0,0,0-.38,3.003,5.6633,5.6633,0,0,0,.9077,3.49A3.1293,3.1293,0,0,0,483.0455,360.2935Z"/><path class="h" d="M497.8624,350.2945a14.1963,14.1963,0,0,1,1.4272-2.4336,7.1133,7.1133,0,0,1,1.6089-1.6172,3.9825,3.9825,0,0,1,1.7324-.71,3.3772,3.3772,0,0,1,1.815.2725l-.5279,2.8213a3.3792,3.3792,0,0,0-3.7871.6269q-1.642,1.4855-2.6645,5.3633l-.9238,7.7383h-2.8711l2.0127-16.7315h1.4521a.8825.8825,0,0,1,1.0064.99Z"/><path class="h" d="M404.7379,377.6509l-2.9864,24.3047h-1.5346a.8689.8689,0,0,1-.7754-.2969,1.2788,1.2788,0,0,1-.1978-.7256l.3135-3.5146a13.1906,13.1906,0,0,1-1.37,1.9629,10.1765,10.1765,0,0,1-1.5591,1.5019,6.746,6.746,0,0,1-1.7.9649,4.9664,4.9664,0,0,1-1.79.3388,3.9476,3.9476,0,0,1-3.333-1.56,7.3721,7.3721,0,0,1-1.188-4.5293,13.3059,13.3059,0,0,1,.28-2.7061,14,14,0,0,1,.8-2.59,12.6743,12.6743,0,0,1,1.2539-2.3018,9.4613,9.4613,0,0,1,1.6416-1.84,7.527,7.527,0,0,1,1.9556-1.2217,5.5716,5.5716,0,0,1,2.2026-.4453,5.132,5.132,0,0,1,2.2525.4873,4.8748,4.8748,0,0,1,1.7241,1.3769l1.1387-9.207Zm-4.2569,11.2373a3.3872,3.3872,0,0,0-1.51-1.2461,4.7684,4.7684,0,0,0-1.79-.3545,3.8163,3.8163,0,0,0-2.3432.7754,6.8265,6.8265,0,0,0-1.7735,2.0049,10.4667,10.4667,0,0,0-1.13,2.7471,11.79,11.79,0,0,0-.396,2.9863,5.3186,5.3186,0,0,0,.7011,2.9951,2.28,2.28,0,0,0,2.0049,1.0313,3.05,3.05,0,0,0,1.6-.4951,6.6112,6.6112,0,0,0,1.56-1.378,12.0813,12.0813,0,0,0,1.4023-2.0869,16.5167,16.5167,0,0,0,1.13-2.6406Z"/><path class="h" d="M419.2906,398.8706a14.8605,14.8605,0,0,1-1.65,1.4932,10.0779,10.0779,0,0,1-1.6421,1.0313,7.2277,7.2277,0,0,1-1.749.6015,9.6749,9.6749,0,0,1-1.9717.19,6.596,6.596,0,0,1-2.5737-.4785,5.3246,5.3246,0,0,1-1.9307-1.3613,6.1239,6.1239,0,0,1-1.2207-2.1367,8.6151,8.6151,0,0,1-.4292-2.8047,12.2794,12.2794,0,0,1,.2725-2.5664,11.9737,11.9737,0,0,1,.792-2.4336,10.9668,10.9668,0,0,1,1.27-2.1445,8.5341,8.5341,0,0,1,1.7158-1.708,8.0685,8.0685,0,0,1,2.1284-1.1309,7.4414,7.4414,0,0,1,2.5-.4121,5.99,5.99,0,0,1,2.1943.3633,4.6714,4.6714,0,0,1,1.5181.9238,3.6994,3.6994,0,0,1,.8828,1.2373,3.291,3.291,0,0,1,.2886,1.2871,4.5237,4.5237,0,0,1-.4453,2.0049,4.1684,4.1684,0,0,1-1.6338,1.6494,12.1763,12.1763,0,0,1-3.2671,1.2793,35.94,35.94,0,0,1-5.3457.874c0,.1221-.0029.2393-.0083.3555s-.0083.2334-.0083.3545a5.1606,5.1606,0,0,0,.9653,3.374,3.5672,3.5672,0,0,0,2.9121,1.1631,5.4767,5.4767,0,0,0,1.4107-.165,5.93,5.93,0,0,0,1.1055-.4043,4.935,4.935,0,0,0,.8584-.5274q.37-.2886.6762-.5283a6.7622,6.7622,0,0,1,.5694-.4043.9937.9937,0,0,1,.5278-.165.736.736,0,0,1,.561.28Zm-4.6528-11.748a4.284,4.284,0,0,0-1.9141.4287,5.1038,5.1038,0,0,0-1.5513,1.18,7.2045,7.2045,0,0,0-1.1547,1.7656,10.5123,10.5123,0,0,0-.7427,2.1865,32.0174,32.0174,0,0,0,4.0757-.7177,10.1483,10.1483,0,0,0,2.3593-.875,2.5533,2.5533,0,0,0,1.0889-1.0147,2.5815,2.5815,0,0,0,.2642-1.1387,1.6519,1.6519,0,0,0-.5528-1.2041,2.2918,2.2918,0,0,0-.751-.4375A3.2124,3.2124,0,0,0,414.6378,387.1226Z"/><path class="h" d="M433.8433,389.7788a13.6071,13.6071,0,0,1,1.37-1.9716,9.7887,9.7887,0,0,1,1.5673-1.51,6.9052,6.9052,0,0,1,1.7076-.9648,5.009,5.009,0,0,1,1.8071-.3389,3.9367,3.9367,0,0,1,3.3247,1.5508,7.41,7.41,0,0,1,1.18,4.5381,13.2984,13.2984,0,0,1-.2808,2.706,13.8053,13.8053,0,0,1-.8,2.582,12.7857,12.7857,0,0,1-1.2539,2.293,9.8536,9.8536,0,0,1-1.6333,1.8486,7.28,7.28,0,0,1-1.9555,1.2295,5.6334,5.6334,0,0,1-2.211.4453,5.0871,5.0871,0,0,1-2.2436-.4873,4.89,4.89,0,0,1-1.7163-1.3769l-.8912,7.293h-2.8544l2.7226-22.3907h1.4522a.8746.8746,0,0,1,.99.9893Zm-.8911,8.5137a3.5451,3.5451,0,0,0,1.5015,1.2461,4.5288,4.5288,0,0,0,1.7822.3711,3.6965,3.6965,0,0,0,1.6167-.3633,5.0732,5.0732,0,0,0,1.3862-.9814,7.16,7.16,0,0,0,1.1221-1.4522,10.1457,10.1457,0,0,0,.833-1.7812,12.2735,12.2735,0,0,0,.52-1.9639,11.4084,11.4084,0,0,0,.1812-2.0049,5.2274,5.2274,0,0,0-.7095-2.9863,2.291,2.291,0,0,0-1.9961-1.0234,3.0893,3.0893,0,0,0-1.6006.4873,6.5088,6.5088,0,0,0-1.56,1.3613,11.7857,11.7857,0,0,0-1.4024,2.0791,16.4686,16.4686,0,0,0-1.13,2.64Z"/><path class="h" d="M451.2833,389.8941a14.1963,14.1963,0,0,1,1.4272-2.4336,7.1133,7.1133,0,0,1,1.6089-1.6172,3.98,3.98,0,0,1,1.7324-.709,3.3584,3.3584,0,0,1,1.815.2725l-.5279,2.8213a3.3757,3.3757,0,0,0-3.7871.6269q-1.642,1.4855-2.6645,5.3623l-.9238,7.7383h-2.8711l2.0127-16.7305h1.4521a.8821.8821,0,0,1,1.0063.9893Z"/><path class="h" d="M471.5284,398.8706a14.8605,14.8605,0,0,1-1.65,1.4932,10.0779,10.0779,0,0,1-1.6421,1.0313,7.2277,7.2277,0,0,1-1.749.6015,9.6749,9.6749,0,0,1-1.9717.19,6.596,6.596,0,0,1-2.5737-.4785,5.3246,5.3246,0,0,1-1.9307-1.3613,6.1223,6.1223,0,0,1-1.2207-2.1367,8.6151,8.6151,0,0,1-.4292-2.8047,12.2794,12.2794,0,0,1,.2725-2.5664,11.9737,11.9737,0,0,1,.792-2.4336,10.9619,10.9619,0,0,1,1.27-2.1445,8.5341,8.5341,0,0,1,1.7158-1.708,8.0685,8.0685,0,0,1,2.1284-1.1309,7.4414,7.4414,0,0,1,2.5-.4121,5.99,5.99,0,0,1,2.1943.3633,4.6714,4.6714,0,0,1,1.5181.9238,3.7008,3.7008,0,0,1,.8828,1.2373,3.291,3.291,0,0,1,.2886,1.2871,4.5237,4.5237,0,0,1-.4453,2.0049,4.1684,4.1684,0,0,1-1.6338,1.6494,12.1763,12.1763,0,0,1-3.2671,1.2793,35.94,35.94,0,0,1-5.3457.874c0,.1221-.0029.2393-.0083.3555s-.0083.2334-.0083.3545a5.1606,5.1606,0,0,0,.9653,3.374,3.5672,3.5672,0,0,0,2.9121,1.1631,5.4767,5.4767,0,0,0,1.4107-.165,5.9262,5.9262,0,0,0,1.1054-.4043,4.9275,4.9275,0,0,0,.8584-.5274q.3706-.2886.6763-.5283a6.7622,6.7622,0,0,1,.5694-.4043.9937.9937,0,0,1,.5278-.165.736.736,0,0,1,.561.28Zm-4.6528-11.748a4.284,4.284,0,0,0-1.9141.4287,5.1038,5.1038,0,0,0-1.5513,1.18,7.2077,7.2077,0,0,0-1.1548,1.7656,10.5121,10.5121,0,0,0-.7426,2.1865,32.0174,32.0174,0,0,0,4.0757-.7177,10.1483,10.1483,0,0,0,2.3593-.875,2.5533,2.5533,0,0,0,1.0889-1.0147,2.5815,2.5815,0,0,0,.2642-1.1387,1.6519,1.6519,0,0,0-.5528-1.2041,2.2928,2.2928,0,0,0-.751-.4375A3.2124,3.2124,0,0,0,466.8756,387.1226Z"/><path class="h" d="M484.9425,387.9146a1.05,1.05,0,0,1-.2642.2881.5686.5686,0,0,1-.33.0908.9209.9209,0,0,1-.5029-.1807q-.2726-.1816-.66-.4043a5.3508,5.3508,0,0,0-.9487-.4131,4.2655,4.2655,0,0,0-1.353-.1894,4.2043,4.2043,0,0,0-1.3531.206,3.2476,3.2476,0,0,0-1.0478.5694,2.5714,2.5714,0,0,0-.6763.85,2.3045,2.3045,0,0,0-.2392,1.0312A1.5841,1.5841,0,0,0,478.0782,391a4.7,4.7,0,0,0,1.2871.8008q.7757.3384,1.6665.6514a8.6275,8.6275,0,0,1,1.6665.792,4.2792,4.2792,0,0,1,1.2871,1.2207,3.338,3.338,0,0,1,.5117,1.9307,5.5641,5.5641,0,0,1-1.7573,4.0673,6.4253,6.4253,0,0,1-2.0464,1.2793,7.1738,7.1738,0,0,1-2.6811.4786,6.6736,6.6736,0,0,1-2.83-.5694,5.8885,5.8885,0,0,1-2.0049-1.4609l.7261-1.1221a1.2169,1.2169,0,0,1,.3218-.3291.8025.8025,0,0,1,.9819.1152q.2637.2315.66.52a4.0729,4.0729,0,0,0,2.5244.7509,4.0877,4.0877,0,0,0,1.46-.248,3.4456,3.4456,0,0,0,1.1055-.6592,2.7892,2.7892,0,0,0,.6929-.9658,2.9348,2.9348,0,0,0,.2392-1.18,1.776,1.776,0,0,0-.5112-1.3369,4.1926,4.1926,0,0,0-1.2871-.8242q-.7757-.3311-1.6665-.6192a8.4243,8.4243,0,0,1-1.6665-.7421,4.0753,4.0753,0,0,1-1.2871-1.18,3.291,3.291,0,0,1-.5113-1.9307,5.1275,5.1275,0,0,1,.42-2.0381,5.27,5.27,0,0,1,1.2129-1.74,5.945,5.945,0,0,1,1.9224-1.2129,6.7872,6.7872,0,0,1,2.5493-.4541,6.5478,6.5478,0,0,1,2.648.5029,6.1287,6.1287,0,0,1,1.9721,1.3613Z"/><path class="h" d="M492.4332,385.2417,490.42,401.9556h-2.8872l2.0127-16.7139Zm1.122-5.247a1.87,1.87,0,0,1-.1733.8,2.302,2.302,0,0,1-.4619.66,2.1882,2.1882,0,0,1-.66.4541,1.88,1.88,0,0,1-.7671.1651,1.7846,1.7846,0,0,1-.7426-.1651,2.0125,2.0125,0,0,1-.6353-.4541,2.3257,2.3257,0,0,1-.437-.66,1.9393,1.9393,0,0,1-.165-.8,2,2,0,0,1,.165-.8086,2.2329,2.2329,0,0,1,.4453-.669,2.26,2.26,0,0,1,.6436-.4619,1.7083,1.7083,0,0,1,.7426-.1728,1.864,1.864,0,0,1,.7671.165,2.0891,2.0891,0,0,1,.6519.4541,2.3361,2.3361,0,0,1,.4536.6758A1.9881,1.9881,0,0,1,493.5552,379.9947Z"/><path class="h" d="M501.1778,402.187a6.506,6.506,0,0,1-2.5078-.4707,5.4935,5.4935,0,0,1-1.9634-1.3613,6.2661,6.2661,0,0,1-1.2871-2.1777,8.6611,8.6611,0,0,1-.4619-2.9365,11.83,11.83,0,0,1,.66-3.9766,10.5865,10.5865,0,0,1,1.8154-3.2588,8.6889,8.6889,0,0,1,2.7139-2.2031,7.1865,7.1865,0,0,1,3.3579-.8086,6.506,6.506,0,0,1,2.5078.4707,5.5,5.5,0,0,1,1.9638,1.3613,6.2805,6.2805,0,0,1,1.2867,2.1778,8.6014,8.6014,0,0,1,.4624,2.92,11.7838,11.7838,0,0,1-.66,3.9609,10.8014,10.8014,0,0,1-1.8066,3.2666,8.6294,8.6294,0,0,1-2.7144,2.2188A7.1751,7.1751,0,0,1,501.1778,402.187Zm.2808-2.2939a3.8283,3.8283,0,0,0,2.186-.66,5.9187,5.9187,0,0,0,1.6831-1.7568,8.8951,8.8951,0,0,0,1.0806-2.5332,11.7,11.7,0,0,0,.38-3.0029,5.5476,5.5476,0,0,0-.9161-3.4727,3.1515,3.1515,0,0,0-2.6318-1.1631,3.8924,3.8924,0,0,0-2.2026.6514,5.76,5.76,0,0,0-1.6748,1.7412,8.9073,8.9073,0,0,0-1.0723,2.5244,11.6849,11.6849,0,0,0-.38,3.003,5.658,5.658,0,0,0,.9077,3.4892A3.1266,3.1266,0,0,0,501.4586,399.8931Zm7.1611-21.8457-4.0264,4.2568a1.626,1.626,0,0,1-.4453.3545,1.1628,1.1628,0,0,1-.5278.1075H502.003l2.69-3.9932a1.8253,1.8253,0,0,1,.5195-.5527,1.4316,1.4316,0,0,1,.7676-.1729Z"/><path class="h" d="M516.2921,389.4654a10.4028,10.4028,0,0,1,3.0195-3.3409,6.1369,6.1369,0,0,1,3.4648-1.1308,3.9366,3.9366,0,0,1,1.8565.4209,3.3628,3.3628,0,0,1,1.3032,1.2295,5.2405,5.2405,0,0,1,.6846,1.9883,9.8994,9.8994,0,0,1,0,2.6806l-1.2539,10.6426h-2.92L523.7,391.313a5.3935,5.3935,0,0,0-.2476-2.9287,1.7949,1.7949,0,0,0-1.7651-.9482,3.4394,3.4394,0,0,0-1.6089.4287,6.2071,6.2071,0,0,0-1.5757,1.2207,10.1309,10.1309,0,0,0-1.4106,1.9062,13.28,13.28,0,0,0-1.1138,2.4834l-.957,8.4805h-2.9371l2.0127-16.7305h1.4522a.875.875,0,0,1,.99.9893Z"/><line class="i" x1="453.2502" y1="324.3751" x2="452.5726" y2="260.0056"/><path class="h" d="M457.0841,259.9581a4.5117,4.5117,0,1,0-4.464,4.5589A4.5121,4.5121,0,0,0,457.0841,259.9581Z"/><path class="h" d="M213.4976,354.5181a13.653,13.653,0,0,1-.8662,3.4736,8.0944,8.0944,0,0,1-1.6006,2.5411,6.4558,6.4558,0,0,1-2.2934,1.5585,7.816,7.816,0,0,1-2.9453.5284,10.7127,10.7127,0,0,1-3.2012-.4619l.2148-1.7989a.9652.9652,0,0,1,.1978-.4287.583.583,0,0,1,.4785-.1816,1.9887,1.9887,0,0,1,.3877.041c.1377.0283.2974.06.4785.1s.3906.0713.627.0986a7.3536,7.3536,0,0,0,.8335.041,4.62,4.62,0,0,0,1.6172-.28,3.532,3.532,0,0,0,1.3608-.9239,5.398,5.398,0,0,0,1.0229-1.6826,10.0558,10.0558,0,0,0,.6026-2.5576l1.9468-15.873h3.0854Z"/><path class="h" d="M232.4888,345.6412l-2.0127,16.7148H229.024a.9412.9412,0,0,1-1.0728-1.0566l.2476-3.0518a10.2017,10.2017,0,0,1-2.978,3.2422,6.1032,6.1032,0,0,1-3.4073,1.0967,3.9739,3.9739,0,0,1-1.8647-.4209,3.3417,3.3417,0,0,1-1.3115-1.2286,5.2222,5.2222,0,0,1-.6851-1.98,9.5956,9.5956,0,0,1,.0166-2.6895l1.2539-10.6259h2.9209l-1.2544,10.6259a5.4585,5.4585,0,0,0,.2393,2.9209,1.79,1.79,0,0,0,1.7739.9571,3.4376,3.4376,0,0,0,1.5674-.4131,5.992,5.992,0,0,0,1.5513-1.1709,10.0184,10.0184,0,0,0,1.394-1.84,12.85,12.85,0,0,0,1.1138-2.4013l1.04-8.6787Z"/><path class="h" d="M239.0562,349.8648a10.4131,10.4131,0,0,1,3.02-3.3408,6.142,6.142,0,0,1,3.4648-1.13,3.9243,3.9243,0,0,1,1.8564.4209,3.3684,3.3684,0,0,1,1.3033,1.2285,5.2428,5.2428,0,0,1,.6845,1.9883,9.9071,9.9071,0,0,1,0,2.6816l-1.2539,10.6426h-2.92l1.2539-10.6426a5.3924,5.3924,0,0,0-.2475-2.9287,1.7943,1.7943,0,0,0-1.7652-.9492,3.44,3.44,0,0,0-1.6089.43,6.1846,6.1846,0,0,0-1.5756,1.2207,10.1234,10.1234,0,0,0-1.4107,1.9053,13.3217,13.3217,0,0,0-1.1138,2.4833l-.957,8.4815h-2.937l2.0127-16.7315h1.4521a.8753.8753,0,0,1,.99.99Z"/><path class="h" d="M253.6583,359.2046v-.2558q0-.1568.0249-.4541c.0166-.1983.0439-.4561.0825-.7754s.0908-.7373.1567-1.2539l1.023-8.3653h-1.8648a.474.474,0,0,1-.3711-.1572.6166.6166,0,0,1-.1074-.4863l.1323-1.1719,2.5738-.3467,1.2539-5.164a.9329.9329,0,0,1,.2558-.4043.6282.6282,0,0,1,.4375-.1573H258.79l-.7094,5.7588h4.3891l-.2475,2.1289h-4.4053l-1.0069,8.2168q-.0827.6768-.1318,1.0889t-.0742.66c-.0166.165-.0278.28-.0332.3466s-.0083.1153-.0083.1485a1.72,1.72,0,0,0,.396,1.2451,1.4117,1.4117,0,0,0,1.0561.4043,2.15,2.15,0,0,0,.7676-.1231,3.7494,3.7494,0,0,0,.5689-.2724q.2475-.1494.4126-.2725a.508.508,0,0,1,.2807-.124.328.328,0,0,1,.2227.0664.6276.6276,0,0,1,.14.2139l.627,1.4033a6.2,6.2,0,0,1-1.84,1.1133,5.6345,5.6345,0,0,1-2.0708.4043,3.4926,3.4926,0,0,1-2.5161-.8741A3.4516,3.4516,0,0,1,253.6583,359.2046Z"/><path class="h" d="M274.3658,357.9507a14.2854,14.2854,0,0,1-1.2788,1.9131,8.8979,8.8979,0,0,1-1.4522,1.4609,6.3172,6.3172,0,0,1-1.6171.9317,4.8,4.8,0,0,1-1.7574.33,4.1015,4.1015,0,0,1-1.7983-.3877,3.7352,3.7352,0,0,1-1.3775-1.1387,5.53,5.53,0,0,1-.8828-1.8477,9.164,9.164,0,0,1-.3134-2.5166,11.3331,11.3331,0,0,1,.371-2.8955,11.784,11.784,0,0,1,2.6978-4.9668,11.0247,11.0247,0,0,1,2.1367-1.8144,10.1732,10.1732,0,0,1,2.5327-1.1885,9.5085,9.5085,0,0,1,2.8379-.42,12.4181,12.4181,0,0,1,2.0874.1728,8.7092,8.7092,0,0,1,2.0049.6026l-1.9966,16.17h-1.518a.8945.8945,0,0,1-.7837-.2969,1.242,1.242,0,0,1-.2066-.7265Zm1.1216-10.2637a4.7705,4.7705,0,0,0-.7178-.1074q-.3545-.0249-.7012-.0244a5.7719,5.7719,0,0,0-1.914.3223,6.8166,6.8166,0,0,0-1.7325.8984,7.7412,7.7412,0,0,0-1.4682,1.3779,8.9487,8.9487,0,0,0-1.13,1.7579,9.96,9.96,0,0,0-.7344,2.0371,9.34,9.34,0,0,0-.2636,2.22q0,3.9756,2.541,3.9766a2.8787,2.8787,0,0,0,1.584-.5039,6.1536,6.1536,0,0,0,1.4765-1.4024,11.82,11.82,0,0,0,1.2954-2.1279,19.97,19.97,0,0,0,1.0557-2.6983Z"/><path class="h" d="M291.6739,348.314a1.0708,1.0708,0,0,1-.2642.2891.5683.5683,0,0,1-.33.0908.9235.9235,0,0,1-.503-.1817q-.2724-.1815-.66-.4043a5.3515,5.3515,0,0,0-.9488-.4121,4.7061,4.7061,0,0,0-2.706.0166,3.2655,3.2655,0,0,0-1.0479.5684,2.5633,2.5633,0,0,0-.6762.8506,2.3032,2.3032,0,0,0-.2393,1.0312A1.5856,1.5856,0,0,0,284.81,351.4a4.6979,4.6979,0,0,0,1.2872.8q.7755.3384,1.6665.6524a8.5692,8.5692,0,0,1,1.6665.792,4.256,4.256,0,0,1,1.2871,1.2207,3.3378,3.3378,0,0,1,.5117,1.9306,5.5641,5.5641,0,0,1-1.7573,4.0674,6.4262,6.4262,0,0,1-2.0464,1.2784,7.1564,7.1564,0,0,1-2.6812.4785,6.6588,6.6588,0,0,1-2.83-.5694,5.8849,5.8849,0,0,1-2.0048-1.46l.726-1.1221a1.238,1.238,0,0,1,.3218-.33.8061.8061,0,0,1,.9819.1153q.2637.2315.66.5205a4.0656,4.0656,0,0,0,2.5244.75,4.0884,4.0884,0,0,0,1.46-.2471,3.43,3.43,0,0,0,1.1054-.66,2.7832,2.7832,0,0,0,.6929-.9648,2.9363,2.9363,0,0,0,.2393-1.18,1.7741,1.7741,0,0,0-.5113-1.3369,4.1945,4.1945,0,0,0-1.2871-.8252q-.7756-.33-1.6665-.6182a8.4357,8.4357,0,0,1-1.6665-.7431,4.0522,4.0522,0,0,1-1.2871-1.18,3.2874,3.2874,0,0,1-.5112-1.9307,5.1246,5.1246,0,0,1,.42-2.0371,5.273,5.273,0,0,1,1.2129-1.7412,5.9434,5.9434,0,0,1,1.9223-1.2129,6.806,6.806,0,0,1,2.5494-.4531,6.5457,6.5457,0,0,1,2.6479.5029,6.1109,6.1109,0,0,1,1.9722,1.3613Z"/><line class="i" x1="243.2502" y1="324.3751" x2="242.5726" y2="260.0056"/><path class="h" d="M247.0841,259.9581a4.5117,4.5117,0,1,0-4.464,4.5589A4.5121,4.5121,0,0,0,247.0841,259.9581Z"/><path class="h" d="M1126.4434,338.7115l-2.92,23.6445h-2.69l2.1455-17.4736q.05-.33.124-.7266c.0488-.2637.1074-.5381.1729-.8242l-9.2237,14.8662a1.3262,1.3262,0,0,1-1.1875.709h-.4453a1.1183,1.1183,0,0,1-.6357-.1807.9841.9841,0,0,1-.3877-.5283l-5.709-14.8662c-.0107.2637-.0225.5254-.0332.7832s-.0274.498-.05.7178l-2.1279,17.5234h-2.7227l2.9043-23.6445h2.2764a1.2178,1.2178,0,0,1,.5947.1074,1.5925,1.5925,0,0,1,.4121.42l5.7256,14.8672c.0771.22.1426.4394.1982.66s.1094.4453.1651.6757q.164-.3456.33-.6757.1641-.3312.3624-.66l9.3066-14.8672a1.6089,1.6089,0,0,1,.4951-.4287,1.56,1.56,0,0,1,.627-.0986Z"/><path class="h" d="M1134.7921,362.5865a6.5055,6.5055,0,0,1-2.5078-.47,5.5024,5.5024,0,0,1-1.9639-1.3613,6.283,6.283,0,0,1-1.2871-2.1777,8.6753,8.6753,0,0,1-.4619-2.9375,11.82,11.82,0,0,1,.66-3.9766,10.5783,10.5783,0,0,1,1.8154-3.2588,8.6823,8.6823,0,0,1,2.7139-2.2021,7.1836,7.1836,0,0,1,3.3574-.8086,6.5054,6.5054,0,0,1,2.5078.47,5.5049,5.5049,0,0,1,1.9639,1.3613,6.2989,6.2989,0,0,1,1.2871,2.1778,8.6241,8.6241,0,0,1,.4619,2.9209,11.768,11.768,0,0,1-.66,3.96,10.7791,10.7791,0,0,1-1.8067,3.2666,8.6293,8.6293,0,0,1-2.7138,2.22A7.1758,7.1758,0,0,1,1134.7921,362.5865Zm.28-2.293a3.83,3.83,0,0,0,2.1866-.66,5.91,5.91,0,0,0,1.6826-1.7578,8.86,8.86,0,0,0,1.081-2.5322,11.7017,11.7017,0,0,0,.38-3.0029,5.5488,5.5488,0,0,0-.916-3.4737,3.1522,3.1522,0,0,0-2.6318-1.163,3.9008,3.9008,0,0,0-2.2032.6513,5.7879,5.7879,0,0,0-1.6748,1.7412,8.9072,8.9072,0,0,0-1.0722,2.5244,11.703,11.703,0,0,0-.38,3.003,5.6592,5.6592,0,0,0,.9082,3.49A3.1276,3.1276,0,0,0,1135.0723,360.2935Zm7.1612-21.8467-4.0264,4.2578a1.6187,1.6187,0,0,1-.4453.3545,1.1743,1.1743,0,0,1-.5274.1074h-1.6171l2.6894-3.9931a1.81,1.81,0,0,1,.5195-.5528,1.4322,1.4322,0,0,1,.7676-.1738Z"/><path class="h" d="M1161.753,338.0513l-2.9863,24.3047h-1.5352a.8717.8717,0,0,1-.7754-.2969,1.2826,1.2826,0,0,1-.1972-.7265l.3134-3.5147a13.233,13.233,0,0,1-1.37,1.9639,10.24,10.24,0,0,1-1.5586,1.5019,6.7708,6.7708,0,0,1-1.7.9649,4.9627,4.9627,0,0,1-1.79.3379,3.95,3.95,0,0,1-3.333-1.5586,7.3762,7.3762,0,0,1-1.1875-4.5293,13.2561,13.2561,0,0,1,.28-2.7061,13.971,13.971,0,0,1,.8-2.5908,12.7262,12.7262,0,0,1,1.2539-2.3018,9.5331,9.5331,0,0,1,1.6416-1.84,7.55,7.55,0,0,1,1.956-1.2207,5.5715,5.5715,0,0,1,2.2022-.4453,5.1473,5.1473,0,0,1,2.2529.4863,4.8741,4.8741,0,0,1,1.7236,1.3779l1.1387-9.207Zm-4.2568,11.2363a3.4026,3.4026,0,0,0-1.51-1.2461,4.77,4.77,0,0,0-1.79-.3545,3.8253,3.8253,0,0,0-2.3438.7754,6.8445,6.8445,0,0,0-1.7734,2.0049,10.4844,10.4844,0,0,0-1.13,2.7471,11.7765,11.7765,0,0,0-.3965,2.9873,5.3163,5.3163,0,0,0,.7012,2.9941,2.28,2.28,0,0,0,2.0049,1.0313,3.05,3.05,0,0,0,1.6005-.4951,6.6112,6.6112,0,0,0,1.56-1.378,12.108,12.108,0,0,0,1.4024-2.0869,16.5131,16.5131,0,0,0,1.13-2.64Z"/><path class="h" d="M1178.27,345.6412l-2.0127,16.7148h-1.4521a.9413.9413,0,0,1-1.0733-1.0566l.2481-3.0518a10.2019,10.2019,0,0,1-2.9786,3.2422,6.1017,6.1017,0,0,1-3.4072,1.0967,3.9715,3.9715,0,0,1-1.8642-.4209,3.3393,3.3393,0,0,1-1.3116-1.2286,5.2241,5.2241,0,0,1-.6855-1.98,9.5956,9.5956,0,0,1,.0166-2.6895l1.2539-10.6259h2.9209l-1.2539,10.6259a5.4535,5.4535,0,0,0,.2393,2.9209,1.7887,1.7887,0,0,0,1.7734.9571,3.4379,3.4379,0,0,0,1.5674-.4131,5.9953,5.9953,0,0,0,1.5517-1.1709,10.0352,10.0352,0,0,0,1.3936-1.84,12.8824,12.8824,0,0,0,1.1142-2.4013l1.0391-8.6787Z"/><path class="h" d="M1180.711,362.356l2.9531-24.3047h2.8877l-2.9531,24.3047Z"/><path class="h" d="M1194.2735,362.5865a6.5058,6.5058,0,0,1-2.5078-.47,5.5074,5.5074,0,0,1-1.9629-1.3613,6.2676,6.2676,0,0,1-1.2871-2.1777,8.6507,8.6507,0,0,1-.4619-2.9375,11.8424,11.8424,0,0,1,.6592-3.9766,10.5968,10.5968,0,0,1,1.8154-3.2588,8.6913,8.6913,0,0,1,2.7139-2.2021,7.19,7.19,0,0,1,3.3584-.8086,6.5061,6.5061,0,0,1,2.5078.47,5.5212,5.5212,0,0,1,1.9638,1.3613,6.2818,6.2818,0,0,1,1.2862,2.1778,8.5989,8.5989,0,0,1,.4629,2.9209,11.79,11.79,0,0,1-.66,3.96,10.8217,10.8217,0,0,1-1.8066,3.2666,8.6344,8.6344,0,0,1-2.7149,2.22A7.1729,7.1729,0,0,1,1194.2735,362.5865Zm.2813-2.293a3.8267,3.8267,0,0,0,2.1855-.66,5.9133,5.9133,0,0,0,1.6836-1.7578,8.89,8.89,0,0,0,1.08-2.5322,11.7061,11.7061,0,0,0,.38-3.0029,5.5488,5.5488,0,0,0-.9161-3.4737,3.1508,3.1508,0,0,0-2.6318-1.163,3.9,3.9,0,0,0-2.2021.6513,5.776,5.776,0,0,0-1.6748,1.7412,8.9044,8.9044,0,0,0-1.0723,2.5244,11.6636,11.6636,0,0,0-.38,3.003,5.666,5.666,0,0,0,.9072,3.49A3.1309,3.1309,0,0,0,1194.5548,360.2935Z"/><path class="h" d="M1228.9561,338.0513,1225.97,362.356h-1.5342a.8717.8717,0,0,1-.7754-.2969,1.283,1.283,0,0,1-.1982-.7265l.3135-3.5147a13.1626,13.1626,0,0,1-1.3692,1.9639,10.2033,10.2033,0,0,1-1.56,1.5019,6.785,6.785,0,0,1-1.6993.9649,4.9663,4.9663,0,0,1-1.79.3379,3.9488,3.9488,0,0,1-3.333-1.5586,7.376,7.376,0,0,1-1.1885-4.5293,13.3267,13.3267,0,0,1,.28-2.7061,14.0493,14.0493,0,0,1,.8008-2.5908,12.6649,12.6649,0,0,1,1.2539-2.3018,9.5,9.5,0,0,1,1.6416-1.84,7.5456,7.5456,0,0,1,1.9551-1.2207,5.5723,5.5723,0,0,1,2.2031-.4453,5.1425,5.1425,0,0,1,2.2519.4863,4.8775,4.8775,0,0,1,1.7246,1.3779l1.1387-9.207Zm-4.2568,11.2363a3.3973,3.3973,0,0,0-1.51-1.2461,4.766,4.766,0,0,0-1.79-.3545,3.82,3.82,0,0,0-2.3428.7754,6.8318,6.8318,0,0,0-1.7734,2.0049,10.4521,10.4521,0,0,0-1.1309,2.7471,11.82,11.82,0,0,0-.3955,2.9873,5.3163,5.3163,0,0,0,.7012,2.9941,2.2789,2.2789,0,0,0,2.0049,1.0313,3.05,3.05,0,0,0,1.6-.4951,6.6109,6.6109,0,0,0,1.56-1.378,12.0511,12.0511,0,0,0,1.4024-2.0869,16.5055,16.5055,0,0,0,1.1308-2.64Z"/><path class="h" d="M1243.5089,359.27a14.7772,14.7772,0,0,1-1.6495,1.4931,9.9462,9.9462,0,0,1-1.6425,1.0313,7.1723,7.1723,0,0,1-1.7491.6025,9.7462,9.7462,0,0,1-1.9716.19,6.5755,6.5755,0,0,1-2.5733-.4786,5.3046,5.3046,0,0,1-1.9306-1.3613,6.0873,6.0873,0,0,1-1.2207-2.1367,8.5941,8.5941,0,0,1-.43-2.8047,12.2766,12.2766,0,0,1,.2724-2.5654,11.9887,11.9887,0,0,1,.792-2.4336,11.0043,11.0043,0,0,1,1.27-2.1455,8.5345,8.5345,0,0,1,1.7159-1.708,8.0715,8.0715,0,0,1,2.1289-1.13,7.4389,7.4389,0,0,1,2.5-.4121,6.0123,6.0123,0,0,1,2.1943.3623,4.6871,4.6871,0,0,1,1.5176.9238,3.7,3.7,0,0,1,.8828,1.2383,3.283,3.283,0,0,1,.289,1.2871,4.5191,4.5191,0,0,1-.4453,2.0039,4.1672,4.1672,0,0,1-1.6338,1.65,12.17,12.17,0,0,1-3.2675,1.2783,35.9261,35.9261,0,0,1-5.3457.875c0,.1211-.003.2393-.0078.3545s-.0088.2344-.0088.3545a5.1631,5.1631,0,0,0,.9658,3.375,3.5669,3.5669,0,0,0,2.9121,1.1631,5.4724,5.4724,0,0,0,1.41-.165,6.0589,6.0589,0,0,0,1.1055-.4043,4.9,4.9,0,0,0,.8584-.5284q.3707-.2884.6768-.5273a6.2055,6.2055,0,0,1,.5693-.4043.984.984,0,0,1,.5274-.165.7373.7373,0,0,1,.5615.28Zm-4.6524-11.7481a4.2846,4.2846,0,0,0-1.914.43,5.0839,5.0839,0,0,0-1.5518,1.18,7.1828,7.1828,0,0,0-1.1543,1.7646,10.5378,10.5378,0,0,0-.7432,2.1866,32.0363,32.0363,0,0,0,4.0762-.7178,10.1657,10.1657,0,0,0,2.3594-.874,2.5593,2.5593,0,0,0,1.0889-1.0147,2.5854,2.5854,0,0,0,.2636-1.1387,1.6508,1.6508,0,0,0-.5527-1.205,2.2848,2.2848,0,0,0-.751-.4366A3.1851,3.1851,0,0,0,1238.8565,347.522Z"/><path class="h" d="M1076.1358,389.7788a13.6049,13.6049,0,0,1,1.3692-1.9716,9.8263,9.8263,0,0,1,1.5673-1.51,6.8985,6.8985,0,0,1,1.708-.9648,5.0053,5.0053,0,0,1,1.8067-.3389,3.9383,3.9383,0,0,1,3.3252,1.5508,7.41,7.41,0,0,1,1.18,4.5381,13.2638,13.2638,0,0,1-.2813,2.706,13.7672,13.7672,0,0,1-.8,2.582,12.817,12.817,0,0,1-1.2539,2.293,9.8381,9.8381,0,0,1-1.6338,1.8486,7.2777,7.2777,0,0,1-1.9551,1.2295,5.6347,5.6347,0,0,1-2.2109.4453,5.0893,5.0893,0,0,1-2.2441-.4873,4.89,4.89,0,0,1-1.7159-1.3769l-.8916,7.293h-2.8545l2.7227-22.3907h1.4522a.875.875,0,0,1,.99.9893Zm-.8916,8.5137a3.5463,3.5463,0,0,0,1.502,1.2461,4.527,4.527,0,0,0,1.7822.3711,3.6963,3.6963,0,0,0,1.6162-.3633,5.083,5.083,0,0,0,1.3867-.9814,7.16,7.16,0,0,0,1.1221-1.4522,10.1457,10.1457,0,0,0,.833-1.7812,12.2724,12.2724,0,0,0,.52-1.9639,11.362,11.362,0,0,0,.1817-2.0049,5.2239,5.2239,0,0,0-.71-2.9863,2.29,2.29,0,0,0-1.9961-1.0234,3.0906,3.0906,0,0,0-1.6006.4873,6.5164,6.5164,0,0,0-1.56,1.3613,11.8129,11.8129,0,0,0-1.4024,2.0791,16.423,16.423,0,0,0-1.13,2.64Z"/><path class="h" d="M1093.5753,389.8941a14.2294,14.2294,0,0,1,1.4277-2.4336,7.11,7.11,0,0,1,1.6084-1.6172,3.9852,3.9852,0,0,1,1.7324-.709,3.36,3.36,0,0,1,1.8155.2725l-.5284,2.8213a3.3758,3.3758,0,0,0-3.7871.6269q-1.6421,1.4855-2.664,5.3623l-.9239,7.7383h-2.8711l2.0127-16.7305h1.4522a.8818.8818,0,0,1,1.0058.9893Z"/><path class="h" d="M1106.8907,402.187a6.506,6.506,0,0,1-2.5078-.4707,5.496,5.496,0,0,1-1.9629-1.3613,6.2584,6.2584,0,0,1-1.2871-2.1777,8.6488,8.6488,0,0,1-.4619-2.9365,11.8424,11.8424,0,0,1,.6592-3.9766,10.5968,10.5968,0,0,1,1.8154-3.2588,8.6953,8.6953,0,0,1,2.7138-2.2031,7.1905,7.1905,0,0,1,3.3584-.8086,6.5066,6.5066,0,0,1,2.5079.4707,5.51,5.51,0,0,1,1.9638,1.3613,6.275,6.275,0,0,1,1.2862,2.1778,8.5889,8.5889,0,0,1,.4628,2.92,11.7987,11.7987,0,0,1-.66,3.9609,10.8229,10.8229,0,0,1-1.8066,3.2666,8.6312,8.6312,0,0,1-2.7149,2.2188A7.1737,7.1737,0,0,1,1106.8907,402.187Zm.2812-2.2939a3.8268,3.8268,0,0,0,2.1856-.66,5.92,5.92,0,0,0,1.6836-1.7568,8.9086,8.9086,0,0,0,1.08-2.5332,11.7,11.7,0,0,0,.38-3.0029,5.5476,5.5476,0,0,0-.916-3.4727,3.1509,3.1509,0,0,0-2.6318-1.1631,3.8922,3.8922,0,0,0-2.2022.6514,5.7565,5.7565,0,0,0-1.6748,1.7412,8.9072,8.9072,0,0,0-1.0722,2.5244,11.6631,11.6631,0,0,0-.38,3.003,5.6608,5.6608,0,0,0,.9072,3.4892A3.1281,3.1281,0,0,0,1107.1719,399.8931Z"/><path class="h" d="M1130.3214,398.9527a15.195,15.195,0,0,1-1.6338,1.5674,7.9453,7.9453,0,0,1-1.5508.999,6.2975,6.2975,0,0,1-1.6094.5195,10.2472,10.2472,0,0,1-1.79.1484,6.259,6.259,0,0,1-2.5655-.4951,5.073,5.073,0,0,1-1.8642-1.3945,6.1187,6.1187,0,0,1-1.1387-2.1611,9.4294,9.4294,0,0,1-.3877-2.78,11.9837,11.9837,0,0,1,.6348-3.8945,10.9335,10.9335,0,0,1,1.7744-3.3,8.7993,8.7993,0,0,1,2.7139-2.293,7.073,7.073,0,0,1,3.44-.8584,5.9791,5.9791,0,0,1,2.7881.5859,5.8308,5.8308,0,0,1,1.9639,1.708l-.9239,1.1055a1.0509,1.0509,0,0,1-.2558.2139.62.62,0,0,1-.3223.083.6667.6667,0,0,1-.4531-.2061,5.8724,5.8724,0,0,0-.586-.4629,4.19,4.19,0,0,0-.8994-.4619,3.9066,3.9066,0,0,0-1.3779-.206,4.0208,4.0208,0,0,0-2.1445.6191,6.0351,6.0351,0,0,0-1.7657,1.6914,8.61,8.61,0,0,0-1.1963,2.541,10.976,10.976,0,0,0-.4375,3.1514,6.9343,6.9343,0,0,0,.2315,1.8564,3.9791,3.9791,0,0,0,.6924,1.419,3.1707,3.1707,0,0,0,1.1308.9072,3.5481,3.5481,0,0,0,1.5586.3213,4.6038,4.6038,0,0,0,1.8565-.33,6.2439,6.2439,0,0,0,1.2627-.7177,11.2338,11.2338,0,0,0,.8662-.7178,1.0445,1.0445,0,0,1,.7012-.3291.732.732,0,0,1,.5605.28Z"/><path class="h" d="M1145.9464,398.8706a14.8807,14.8807,0,0,1-1.65,1.4932,10.0784,10.0784,0,0,1-1.6416,1.0313,7.2417,7.2417,0,0,1-1.7491.6015,9.6732,9.6732,0,0,1-1.9716.19,6.5987,6.5987,0,0,1-2.5743-.4785,5.3335,5.3335,0,0,1-1.9306-1.3613,6.1364,6.1364,0,0,1-1.2207-2.1367,8.6261,8.6261,0,0,1-.4287-2.8047,12.286,12.286,0,0,1,.2724-2.5664,11.949,11.949,0,0,1,.792-2.4336,10.947,10.947,0,0,1,1.27-2.1445,8.5345,8.5345,0,0,1,1.7159-1.708,8.0654,8.0654,0,0,1,2.1279-1.1309,7.4435,7.4435,0,0,1,2.5-.4121,5.99,5.99,0,0,1,2.1943.3633,4.675,4.675,0,0,1,1.5186.9238,3.715,3.715,0,0,1,.8828,1.2373,3.2988,3.2988,0,0,1,.2881,1.2871,4.5251,4.5251,0,0,1-.4453,2.0049,4.1651,4.1651,0,0,1-1.6338,1.6494,12.1789,12.1789,0,0,1-3.2666,1.2793,35.9422,35.9422,0,0,1-5.3457.874c0,.1221-.003.2393-.0088.3555s-.0078.2334-.0078.3545a5.1606,5.1606,0,0,0,.9648,3.374,3.5672,3.5672,0,0,0,2.9121,1.1631,5.48,5.48,0,0,0,1.4111-.165,5.9378,5.9378,0,0,0,1.1055-.4043,4.9692,4.9692,0,0,0,.8584-.5274q.3707-.2886.6758-.5283a6.9453,6.9453,0,0,1,.5693-.4043.9959.9959,0,0,1,.5284-.165.7352.7352,0,0,1,.5605.28Zm-4.6534-11.748a4.2839,4.2839,0,0,0-1.914.4287,5.1079,5.1079,0,0,0-1.5508,1.18,7.2206,7.2206,0,0,0-1.1553,1.7656,10.5173,10.5173,0,0,0-.7422,2.1865,32.0006,32.0006,0,0,0,4.0752-.7177,10.13,10.13,0,0,0,2.3594-.875,2.5533,2.5533,0,0,0,1.0889-1.0147,2.582,2.582,0,0,0,.2646-1.1387,1.6513,1.6513,0,0,0-.5527-1.2041,2.2981,2.2981,0,0,0-.751-.4375A3.2156,3.2156,0,0,0,1141.293,387.1226Z"/><path class="h" d="M1159.36,387.9146a1.0567,1.0567,0,0,1-.2646.2881.5675.5675,0,0,1-.33.0908.9235.9235,0,0,1-.5029-.1807q-.2725-.1816-.66-.4043a5.3445,5.3445,0,0,0-.9482-.4131,4.2671,4.2671,0,0,0-1.3535-.1894,4.1986,4.1986,0,0,0-1.3526.206,3.2423,3.2423,0,0,0-1.0478.5694,2.5666,2.5666,0,0,0-.6768.85,2.31,2.31,0,0,0-.2393,1.0312,1.5842,1.5842,0,0,0,.5118,1.2373,4.6922,4.6922,0,0,0,1.2871.8008q.7749.3384,1.666.6514a8.6319,8.6319,0,0,1,1.667.792,4.2909,4.2909,0,0,1,1.2871,1.2207,3.338,3.338,0,0,1,.5117,1.9307,5.5621,5.5621,0,0,1-1.7578,4.0673,6.4174,6.4174,0,0,1-2.0459,1.2793,7.1787,7.1787,0,0,1-2.6816.4786,6.6729,6.6729,0,0,1-2.8291-.5694,5.8778,5.8778,0,0,1-2.0049-1.4609l.7256-1.1221a1.2194,1.2194,0,0,1,.3222-.3291.802.802,0,0,1,.9815.1152c.1758.1543.3965.3272.66.52a4.07,4.07,0,0,0,2.5244.7509,4.0854,4.0854,0,0,0,1.46-.248,3.4466,3.4466,0,0,0,1.1055-.6592,2.7825,2.7825,0,0,0,.6933-.9658,2.9417,2.9417,0,0,0,.2393-1.18,1.7763,1.7763,0,0,0-.5117-1.3369,4.1818,4.1818,0,0,0-1.2871-.8242q-.7749-.3311-1.6661-.6192a8.4408,8.4408,0,0,1-1.6669-.7421,4.082,4.082,0,0,1-1.2872-1.18,3.2917,3.2917,0,0,1-.5107-1.9307,5.127,5.127,0,0,1,.42-2.0381,5.2843,5.2843,0,0,1,1.2129-1.74,5.9463,5.9463,0,0,1,1.9229-1.2129,6.7827,6.7827,0,0,1,2.5488-.4541,6.5478,6.5478,0,0,1,2.6484.5029,6.12,6.12,0,0,1,1.9717,1.3613Z"/><path class="h" d="M1172.1153,397.55a14.403,14.403,0,0,1-1.2793,1.9141,8.8554,8.8554,0,0,1-1.4521,1.46,6.3,6.3,0,0,1-1.6172.9326,4.8194,4.8194,0,0,1-1.7569.33,4.1164,4.1164,0,0,1-1.7988-.3876,3.7391,3.7391,0,0,1-1.3769-1.1387,5.53,5.53,0,0,1-.8829-1.8477,9.1449,9.1449,0,0,1-.3134-2.5166,11.3,11.3,0,0,1,.3711-2.8955,11.7741,11.7741,0,0,1,2.6972-4.9668,11.0447,11.0447,0,0,1,2.1367-1.8154,10.1617,10.1617,0,0,1,2.5332-1.1875,9.5042,9.5042,0,0,1,2.8379-.4209,12.4142,12.4142,0,0,1,2.087.1728,8.752,8.752,0,0,1,2.0048.6026l-1.9961,16.17h-1.5185a.8908.8908,0,0,1-.7832-.2969,1.2391,1.2391,0,0,1-.207-.7256Zm1.1211-10.2627a4.6283,4.6283,0,0,0-.7178-.1074q-.3545-.0249-.7011-.0244a5.7733,5.7733,0,0,0-1.9141.3213,6.8466,6.8466,0,0,0-1.7324.8994,7.6642,7.6642,0,0,0-1.4678,1.3779,8.9433,8.9433,0,0,0-1.1309,1.7569,9.9493,9.9493,0,0,0-.7343,2.0381,9.3261,9.3261,0,0,0-.2637,2.2187q0,3.9771,2.541,3.9766a2.8754,2.8754,0,0,0,1.584-.503,6.1729,6.1729,0,0,0,1.4766-1.4023,11.8366,11.8366,0,0,0,1.2959-2.1289,20.1353,20.1353,0,0,0,1.0556-2.6973Z"/><path class="h" d="M1178.6485,401.9556l2.0127-16.7305h1.4522a.8818.8818,0,0,1,1.0058.9893l-.2305,2.9707a10.3156,10.3156,0,0,1,2.7139-3.127,5.2108,5.2108,0,0,1,3.0938-1.0644,2.8433,2.8433,0,0,1,2.5078,1.1631,5.7879,5.7879,0,0,1,.8086,3.3252,9.6382,9.6382,0,0,1,2.7968-3.3907,5.63,5.63,0,0,1,3.292-1.0976,3.1666,3.1666,0,0,1,3.0362,1.65,7.9415,7.9415,0,0,1,.5283,4.6689l-1.2549,10.6426h-2.9033l1.27-10.6426a6.7068,6.7068,0,0,0-.124-2.92,1.5077,1.5077,0,0,0-1.5918-.957,3.1,3.1,0,0,0-1.4112.3545,5.1221,5.1221,0,0,0-1.3613,1.039,8.27,8.27,0,0,0-1.2295,1.7,13.83,13.83,0,0,0-1.0146,2.335v.0156l-1.0723,9.0752h-2.9043l1.2539-10.6426a7.1747,7.1747,0,0,0-.0654-2.92,1.4349,1.4349,0,0,0-1.5508-.957,3.176,3.176,0,0,0-1.5264.3955,4.9956,4.9956,0,0,0-1.3867,1.1474,9.2935,9.2935,0,0,0-1.2119,1.8311,17.5736,17.5736,0,0,0-1.0234,2.4336l-1.0391,8.7119Z"/><path class="h" d="M1209.6846,385.2417l-2.0136,16.7139h-2.8867l2.0126-16.7139Zm1.1221-5.247a1.87,1.87,0,0,1-.1738.8,2.2922,2.2922,0,0,1-.4619.66,2.1759,2.1759,0,0,1-.66.4541,1.8766,1.8766,0,0,1-.7666.1651,1.7873,1.7873,0,0,1-.7432-.1651,2.01,2.01,0,0,1-.6347-.4541,2.3336,2.3336,0,0,1-.4375-.66,1.9378,1.9378,0,0,1-.1651-.8,1.9985,1.9985,0,0,1,.1651-.8086,2.2222,2.2222,0,0,1,1.0889-1.1309,1.71,1.71,0,0,1,.7431-.1728,1.86,1.86,0,0,1,.7666.165,2.0855,2.0855,0,0,1,.6524.4541,2.3248,2.3248,0,0,1,.4531.6758A1.9886,1.9886,0,0,1,1210.8067,379.9947Z"/><path class="h" d="M1225.3594,398.8706a14.8713,14.8713,0,0,1-1.65,1.4932,10.0784,10.0784,0,0,1-1.6416,1.0313,7.2417,7.2417,0,0,1-1.7491.6015,9.6732,9.6732,0,0,1-1.9716.19,6.5987,6.5987,0,0,1-2.5743-.4785,5.3327,5.3327,0,0,1-1.9306-1.3613,6.1364,6.1364,0,0,1-1.2207-2.1367,8.6261,8.6261,0,0,1-.4287-2.8047,12.286,12.286,0,0,1,.2724-2.5664,11.949,11.949,0,0,1,.792-2.4336,10.9421,10.9421,0,0,1,1.27-2.1445,8.5367,8.5367,0,0,1,1.7158-1.708,8.0676,8.0676,0,0,1,2.128-1.1309,7.4431,7.4431,0,0,1,2.5-.4121,5.99,5.99,0,0,1,2.1943.3633,4.675,4.675,0,0,1,1.5186.9238,3.715,3.715,0,0,1,.8828,1.2373,3.2988,3.2988,0,0,1,.2881,1.2871,4.5238,4.5238,0,0,1-.4454,2.0049,4.1647,4.1647,0,0,1-1.6337,1.6494,12.1789,12.1789,0,0,1-3.2666,1.2793,35.9416,35.9416,0,0,1-5.3458.874c0,.1221-.0029.2393-.0087.3555s-.0079.2334-.0079.3545a5.16,5.16,0,0,0,.9649,3.374,3.5669,3.5669,0,0,0,2.9121,1.1631,5.48,5.48,0,0,0,1.4111-.165,5.94,5.94,0,0,0,1.1055-.4043,4.9692,4.9692,0,0,0,.8584-.5274q.3707-.2886.6758-.5283a6.9282,6.9282,0,0,1,.5693-.4043.9958.9958,0,0,1,.5283-.165.7354.7354,0,0,1,.5606.28Zm-4.6533-11.748a4.2839,4.2839,0,0,0-1.914.4287,5.1079,5.1079,0,0,0-1.5508,1.18,7.2177,7.2177,0,0,0-1.1553,1.7656,10.5173,10.5173,0,0,0-.7422,2.1865,32.0006,32.0006,0,0,0,4.0752-.7177,10.13,10.13,0,0,0,2.3594-.875,2.5533,2.5533,0,0,0,1.0889-1.0147,2.5833,2.5833,0,0,0,.2646-1.1387,1.6513,1.6513,0,0,0-.5527-1.2041,2.2981,2.2981,0,0,0-.751-.4375A3.2156,3.2156,0,0,0,1220.7061,387.1226Z"/><path class="h" d="M1232.2061,389.4654a10.4041,10.4041,0,0,1,3.02-3.3409,6.1388,6.1388,0,0,1,3.4648-1.1308,3.9336,3.9336,0,0,1,1.8564.4209,3.3677,3.3677,0,0,1,1.3038,1.2295,5.2508,5.2508,0,0,1,.6845,1.9883,9.8994,9.8994,0,0,1,0,2.6806l-1.2539,10.6426H1238.36l1.2539-10.6426a5.3946,5.3946,0,0,0-.247-2.9287,1.7959,1.7959,0,0,0-1.7657-.9482,3.4363,3.4363,0,0,0-1.6084.4287,6.1982,6.1982,0,0,0-1.5761,1.2207,10.13,10.13,0,0,0-1.41,1.9062,13.2553,13.2553,0,0,0-1.1142,2.4834l-.9571,8.4805h-2.9365l2.0127-16.7305h1.4521a.875.875,0,0,1,.99.9893Z"/><path class="h" d="M1246.8087,398.8042v-.2558c0-.1045.0078-.2559.0244-.4531s.0439-.4571.083-.7764.0908-.7363.1562-1.2539l1.0235-8.3653h-1.8653a.4747.4747,0,0,1-.3711-.1562.62.62,0,0,1-.1074-.4873l.1328-1.1709,2.5733-.3467,1.2539-5.165a.9428.9428,0,0,1,.2558-.4043.6292.6292,0,0,1,.4375-.1563h1.5342l-.709,5.7588h4.3887l-.2471,2.1279h-4.4052l-1.0069,8.2168c-.0556.4512-.0986.8145-.1318,1.0889s-.0576.4951-.0742.66-.0283.2812-.0332.3466-.0088.1153-.0088.1485a1.7211,1.7211,0,0,0,.3965,1.2461,1.4105,1.4105,0,0,0,1.0556.4043,2.1273,2.1273,0,0,0,.7676-.1241,3.5487,3.5487,0,0,0,.5693-.2724,4.5685,4.5685,0,0,0,.4122-.2725.5079.5079,0,0,1,.2812-.123.3282.3282,0,0,1,.2227.0654.6418.6418,0,0,1,.14.2149l.627,1.4023a6.1824,6.1824,0,0,1-1.84,1.1143,5.632,5.632,0,0,1-2.07.4043,3.4939,3.4939,0,0,1-2.5166-.875A3.4486,3.4486,0,0,1,1246.8087,398.8042Z"/><path class="h" d="M1263.4073,402.187a6.506,6.506,0,0,1-2.5078-.4707,5.4911,5.4911,0,0,1-1.9639-1.3613,6.2738,6.2738,0,0,1-1.2871-2.1777,8.6734,8.6734,0,0,1-.4619-2.9365,11.8179,11.8179,0,0,1,.66-3.9766,10.5763,10.5763,0,0,1,1.8154-3.2588,8.684,8.684,0,0,1,2.7138-2.2031,7.184,7.184,0,0,1,3.3575-.8086,6.506,6.506,0,0,1,2.5078.4707,5.4941,5.4941,0,0,1,1.9639,1.3613,6.2905,6.2905,0,0,1,1.2871,2.1778,8.614,8.614,0,0,1,.4619,2.92,11.7738,11.7738,0,0,1-.66,3.9609,10.78,10.78,0,0,1-1.8066,3.2666,8.6276,8.6276,0,0,1-2.7139,2.2188A7.1766,7.1766,0,0,1,1263.4073,402.187Zm.28-2.2939a3.83,3.83,0,0,0,2.1865-.66,5.9172,5.9172,0,0,0,1.6826-1.7568,8.8817,8.8817,0,0,0,1.0811-2.5332,11.7,11.7,0,0,0,.38-3.0029,5.5476,5.5476,0,0,0-.9161-3.4727,3.152,3.152,0,0,0-2.6318-1.1631,3.8928,3.8928,0,0,0-2.2031.6514,5.7659,5.7659,0,0,0-1.6748,1.7412,8.9073,8.9073,0,0,0-1.0723,2.5244,11.7069,11.7069,0,0,0-.38,3.003,5.6546,5.6546,0,0,0,.9082,3.4892A3.125,3.125,0,0,0,1263.6876,399.8931Z"/><line class="i" x1="1167.2502" y1="324.3751" x2="1166.5726" y2="113.439"/><path class="h" d="M1171.0843,113.4245a4.5117,4.5117,0,1,0-4.4972,4.5262A4.5121,4.5121,0,0,0,1171.0843,113.4245Z"/><path class="h" d="M777.879,338.7115l-2.92,23.6445h-2.6905l2.1455-17.4736q.05-.33.1241-.7266c.0488-.2637.1074-.5381.1728-.8242l-9.2236,14.8662a1.3264,1.3264,0,0,1-1.1875.709h-.4453a1.1189,1.1189,0,0,1-.6358-.1807.9851.9851,0,0,1-.3877-.5283l-5.709-14.8662c-.0107.2637-.0224.5254-.0332.7832s-.0273.498-.05.7178l-2.1279,17.5234h-2.7227l2.9043-23.6445h2.2764a1.2178,1.2178,0,0,1,.5947.1074,1.59,1.59,0,0,1,.4121.42l5.7256,14.8672c.0772.22.1426.4394.1983.66s.1094.4453.165.6757q.1641-.3456.33-.6757.1641-.3312.3623-.66l9.3066-14.8672a1.609,1.609,0,0,1,.4952-.4287,1.559,1.559,0,0,1,.6269-.0986Z"/><path class="h" d="M793.1573,359.27a14.7679,14.7679,0,0,1-1.6494,1.4931,9.9469,9.9469,0,0,1-1.6426,1.0313,7.173,7.173,0,0,1-1.749.6025,9.748,9.748,0,0,1-1.9717.19,6.5753,6.5753,0,0,1-2.5732-.4786,5.3042,5.3042,0,0,1-1.9307-1.3613A6.09,6.09,0,0,1,780.42,358.61a8.5967,8.5967,0,0,1-.43-2.8047,12.27,12.27,0,0,1,.2725-2.5654,11.9825,11.9825,0,0,1,.792-2.4336,10.9944,10.9944,0,0,1,1.27-2.1455,8.5341,8.5341,0,0,1,1.7158-1.708,8.0715,8.0715,0,0,1,2.1289-1.13,7.4393,7.4393,0,0,1,2.5-.4121,6.0119,6.0119,0,0,1,2.1943.3623,4.686,4.686,0,0,1,1.5176.9238,3.7,3.7,0,0,1,.8828,1.2383,3.2833,3.2833,0,0,1,.2891,1.2871,4.52,4.52,0,0,1-.4453,2.0039,4.1679,4.1679,0,0,1-1.6338,1.65,12.1726,12.1726,0,0,1-3.2676,1.2783,35.9238,35.9238,0,0,1-5.3457.875c0,.1211-.0029.2393-.0078.3545s-.0088.2344-.0088.3545a5.1636,5.1636,0,0,0,.9658,3.375,3.5672,3.5672,0,0,0,2.9121,1.1631,5.4727,5.4727,0,0,0,1.41-.165,6.0616,6.0616,0,0,0,1.1055-.4043,4.9035,4.9035,0,0,0,.8584-.5284q.37-.2884.6767-.5273a6.2055,6.2055,0,0,1,.5693-.4043.984.984,0,0,1,.5274-.165.737.737,0,0,1,.5615.28ZM788.505,347.522a4.2847,4.2847,0,0,0-1.9141.43,5.0839,5.0839,0,0,0-1.5518,1.18,7.1856,7.1856,0,0,0-1.1543,1.7646,10.5377,10.5377,0,0,0-.7431,2.1866,32.0376,32.0376,0,0,0,4.0761-.7178,10.1657,10.1657,0,0,0,2.3594-.874,2.2749,2.2749,0,0,0,1.3526-2.1534,1.6514,1.6514,0,0,0-.5528-1.205,2.2848,2.2848,0,0,0-.751-.4366A3.1849,3.1849,0,0,0,788.505,347.522Z"/><path class="h" d="M811.8516,338.0513l-2.9863,24.3047H807.33a.8715.8715,0,0,1-.7754-.2969,1.2818,1.2818,0,0,1-.1973-.7265l.3135-3.5147a13.24,13.24,0,0,1-1.37,1.9639,10.2493,10.2493,0,0,1-1.5586,1.5019,6.7743,6.7743,0,0,1-1.7.9649,4.9633,4.9633,0,0,1-1.79.3379,3.95,3.95,0,0,1-3.333-1.5586,7.3762,7.3762,0,0,1-1.1875-4.5293,13.2561,13.2561,0,0,1,.28-2.7061,13.971,13.971,0,0,1,.8-2.5908,12.7324,12.7324,0,0,1,1.2539-2.3018,9.5364,9.5364,0,0,1,1.6416-1.84,7.5509,7.5509,0,0,1,1.9561-1.2207,5.571,5.571,0,0,1,2.2021-.4453,5.1469,5.1469,0,0,1,2.2529.4863,4.8753,4.8753,0,0,1,1.7237,1.3779l1.1386-9.207Zm-4.2568,11.2363a3.4026,3.4026,0,0,0-1.51-1.2461,4.7694,4.7694,0,0,0-1.79-.3545,3.8255,3.8255,0,0,0-2.3438.7754,6.8474,6.8474,0,0,0-1.7734,2.0049,10.4844,10.4844,0,0,0-1.13,2.7471,11.781,11.781,0,0,0-.3965,2.9873,5.3163,5.3163,0,0,0,.7012,2.9941,2.28,2.28,0,0,0,2.0049,1.0313,3.05,3.05,0,0,0,1.6006-.4951,6.6132,6.6132,0,0,0,1.56-1.378,12.1078,12.1078,0,0,0,1.4023-2.0869,16.5132,16.5132,0,0,0,1.13-2.64Z"/><path class="h" d="M818.3194,345.6412l-2.0127,16.7148H813.419l2.0127-16.7148Zm1.1221-5.2471a1.8756,1.8756,0,0,1-.1729.8008,2.3071,2.3071,0,0,1-.4619.6591,2.1644,2.1644,0,0,1-.66.4541,1.8685,1.8685,0,0,1-.7676.1651,1.7671,1.7671,0,0,1-.7422-.1651,1.9835,1.9835,0,0,1-.6358-.4541,2.3088,2.3088,0,0,1-.4365-.6591,1.9473,1.9473,0,0,1-.165-.8008,2.0035,2.0035,0,0,1,.165-.8086,2.2253,2.2253,0,0,1,1.0889-1.13,1.7079,1.7079,0,0,1,.7422-.1738,1.8846,1.8846,0,0,1,.7676.165,2.0935,2.0935,0,0,1,.6513.4541,2.339,2.339,0,0,1,.4541.6768A1.9816,1.9816,0,0,1,819.4415,340.3941Z"/><path class="h" d="M836.8985,338.0513l-2.9863,24.3047H832.377a.8717.8717,0,0,1-.7754-.2969,1.2826,1.2826,0,0,1-.1972-.7265l.3134-3.5147a13.233,13.233,0,0,1-1.37,1.9639,10.24,10.24,0,0,1-1.5586,1.5019,6.7708,6.7708,0,0,1-1.7.9649,4.9627,4.9627,0,0,1-1.79.3379,3.95,3.95,0,0,1-3.333-1.5586,7.3762,7.3762,0,0,1-1.1875-4.5293,13.2561,13.2561,0,0,1,.28-2.7061,13.971,13.971,0,0,1,.8-2.5908,12.7324,12.7324,0,0,1,1.2539-2.3018,9.5331,9.5331,0,0,1,1.6416-1.84,7.55,7.55,0,0,1,1.956-1.2207,5.5719,5.5719,0,0,1,2.2022-.4453,5.1469,5.1469,0,0,1,2.2529.4863,4.8741,4.8741,0,0,1,1.7236,1.3779l1.1387-9.207Zm-4.2568,11.2363a3.4026,3.4026,0,0,0-1.51-1.2461,4.77,4.77,0,0,0-1.79-.3545,3.8253,3.8253,0,0,0-2.3438.7754,6.8445,6.8445,0,0,0-1.7734,2.0049,10.4844,10.4844,0,0,0-1.13,2.7471,11.781,11.781,0,0,0-.3965,2.9873,5.3163,5.3163,0,0,0,.7012,2.9941,2.28,2.28,0,0,0,2.0049,1.0313,3.05,3.05,0,0,0,1.6006-.4951,6.6128,6.6128,0,0,0,1.5595-1.378,12.108,12.108,0,0,0,1.4024-2.0869,16.5223,16.5223,0,0,0,1.13-2.64Z"/><path class="h" d="M844.5206,362.5865a6.5058,6.5058,0,0,1-2.5078-.47,5.5074,5.5074,0,0,1-1.9629-1.3613,6.2676,6.2676,0,0,1-1.2871-2.1777,8.6507,8.6507,0,0,1-.4619-2.9375,11.8448,11.8448,0,0,1,.6591-3.9766,10.5991,10.5991,0,0,1,1.8155-3.2588,8.6921,8.6921,0,0,1,2.7138-2.2021,7.1905,7.1905,0,0,1,3.3584-.8086,6.5054,6.5054,0,0,1,2.5078.47,5.5225,5.5225,0,0,1,1.9639,1.3613,6.2816,6.2816,0,0,1,1.2861,2.1778,8.5989,8.5989,0,0,1,.4629,2.9209,11.7929,11.7929,0,0,1-.66,3.96,10.822,10.822,0,0,1-1.8067,3.2666,8.633,8.633,0,0,1-2.7148,2.22A7.1729,7.1729,0,0,1,844.5206,362.5865Zm.2812-2.293a3.8268,3.8268,0,0,0,2.1856-.66,5.9133,5.9133,0,0,0,1.6836-1.7578,8.887,8.887,0,0,0,1.08-2.5322,11.7017,11.7017,0,0,0,.38-3.0029,5.5488,5.5488,0,0,0-.916-3.4737,3.1508,3.1508,0,0,0-2.6318-1.163,3.9,3.9,0,0,0-2.2022.6513,5.7772,5.7772,0,0,0-1.6748,1.7412,8.9072,8.9072,0,0,0-1.0722,2.5244,11.6636,11.6636,0,0,0-.38,3.003,5.666,5.666,0,0,0,.9072,3.49A3.1308,3.1308,0,0,0,844.8018,360.2935Z"/><path class="h" d="M859.6182,350.2945a14.236,14.236,0,0,1,1.4278-2.4336,7.1079,7.1079,0,0,1,1.6084-1.6172,3.9869,3.9869,0,0,1,1.7324-.71,3.3788,3.3788,0,0,1,1.8154.2725l-.5283,2.8213a3.3792,3.3792,0,0,0-3.7871.6269q-1.642,1.4855-2.6641,5.3633l-.9238,7.7383h-2.8711l2.0127-16.7315h1.4522a.8821.8821,0,0,1,1.0058.99Z"/><path class="h" d="M774.5626,377.6509l-2.9864,24.3047h-1.5351a.8689.8689,0,0,1-.7754-.2969,1.2794,1.2794,0,0,1-.1973-.7256l.3135-3.5146a13.2224,13.2224,0,0,1-1.37,1.9629,10.1967,10.1967,0,0,1-1.5586,1.5019,6.74,6.74,0,0,1-1.7.9649,4.9639,4.9639,0,0,1-1.79.3388,3.948,3.948,0,0,1-3.333-1.56,7.3721,7.3721,0,0,1-1.1875-4.5293,13.27,13.27,0,0,1,.28-2.7061,13.9761,13.9761,0,0,1,.8-2.59,12.7049,12.7049,0,0,1,1.2539-2.3018,9.4775,9.4775,0,0,1,1.6416-1.84,7.53,7.53,0,0,1,1.9561-1.2217,5.571,5.571,0,0,1,2.2021-.4453,5.1342,5.1342,0,0,1,2.253.4873,4.8714,4.8714,0,0,1,1.7236,1.3769l1.1387-9.207Zm-4.2569,11.2373a3.3893,3.3893,0,0,0-1.51-1.2461,4.77,4.77,0,0,0-1.79-.3545,3.8187,3.8187,0,0,0-2.3437.7754,6.8336,6.8336,0,0,0-1.7735,2.0049,10.4828,10.4828,0,0,0-1.13,2.7471,11.7689,11.7689,0,0,0-.3965,2.9863,5.3186,5.3186,0,0,0,.7011,2.9951,2.28,2.28,0,0,0,2.0049,1.0313,3.05,3.05,0,0,0,1.6006-.4951,6.6112,6.6112,0,0,0,1.56-1.378,12.11,12.11,0,0,0,1.4023-2.0869,16.516,16.516,0,0,0,1.13-2.6406Z"/><path class="h" d="M789.1153,398.8706a14.8629,14.8629,0,0,1-1.65,1.4932,10.07,10.07,0,0,1-1.6416,1.0313,7.2409,7.2409,0,0,1-1.749.6015,9.6749,9.6749,0,0,1-1.9717.19,6.5985,6.5985,0,0,1-2.5742-.4785,5.3331,5.3331,0,0,1-1.9307-1.3613,6.14,6.14,0,0,1-1.2207-2.1367,8.6287,8.6287,0,0,1-.4287-2.8047,12.2794,12.2794,0,0,1,.2725-2.5664,11.9429,11.9429,0,0,1,.792-2.4336,10.9421,10.9421,0,0,1,1.2705-2.1445,8.5341,8.5341,0,0,1,1.7158-1.708,8.067,8.067,0,0,1,2.1279-1.1309,7.4435,7.4435,0,0,1,2.5-.4121,5.9906,5.9906,0,0,1,2.1944.3633,4.6745,4.6745,0,0,1,1.5185.9238,3.7136,3.7136,0,0,1,.8828,1.2373,3.2988,3.2988,0,0,1,.2881,1.2871,4.5237,4.5237,0,0,1-.4453,2.0049,4.1651,4.1651,0,0,1-1.6338,1.6494,12.1775,12.1775,0,0,1-3.2666,1.2793,35.94,35.94,0,0,1-5.3457.874c0,.1221-.0029.2393-.0088.3555s-.0078.2334-.0078.3545a5.16,5.16,0,0,0,.9649,3.374,3.5669,3.5669,0,0,0,2.9121,1.1631,5.48,5.48,0,0,0,1.4111-.165,5.9431,5.9431,0,0,0,1.1055-.4043,4.973,4.973,0,0,0,.8584-.5274q.37-.2886.6757-.5283a6.9286,6.9286,0,0,1,.5694-.4043.9956.9956,0,0,1,.5283-.165.7351.7351,0,0,1,.56.28Zm-4.6533-11.748a4.284,4.284,0,0,0-1.9141.4287,5.1079,5.1079,0,0,0-1.5508,1.18,7.22,7.22,0,0,0-1.1552,1.7656,10.5115,10.5115,0,0,0-.7422,2.1865,32.0072,32.0072,0,0,0,4.0752-.7177,10.1333,10.1333,0,0,0,2.3594-.875,2.553,2.553,0,0,0,1.0888-1.0147,2.5821,2.5821,0,0,0,.2647-1.1387,1.6519,1.6519,0,0,0-.5528-1.2041,2.2965,2.2965,0,0,0-.7509-.4375A3.2163,3.2163,0,0,0,784.462,387.1226Z"/><path class="h" d="M805.0538,387.6831l-1.6992,13.7452-.7754,3.415a1.9916,1.9916,0,0,1-.5371.916,1.41,1.41,0,0,1-.9815.3213h-1.1553l2.2608-18.3477-1.6172-.1982a1.2329,1.2329,0,0,1-.5273-.2393.5318.5318,0,0,1-.1485-.4863l.1485-1.2373H802.43l.1162-.9082a9.1658,9.1658,0,0,1,.709-2.623,7.2651,7.2651,0,0,1,1.4443-2.1621,6.5618,6.5618,0,0,1,2.1533-1.46,7.1986,7.1986,0,0,1,2.8545-.5361q1.188,0,2.252.0986t2.1035.1162h1.98l-2.9375,23.8584H810.251l2.6563-21.7139c-.4941-.0439-1.001-.0927-1.5176-.1484a14.2874,14.2874,0,0,0-1.5019-.082,4.1988,4.1988,0,0,0-3.126,1.2119,5.6913,5.6913,0,0,0-1.4609,3.44l-.0987.9082h3.9268l-.2471,2.1113Z"/><path class="h" d="M832.7071,385.2417l-2.0127,16.7139h-1.4521A.94.94,0,0,1,828.17,400.9l.2471-3.0527a10.189,10.189,0,0,1-2.9776,3.2422,6.1053,6.1053,0,0,1-3.4072,1.0976,3.9877,3.9877,0,0,1-1.8652-.4208,3.3491,3.3491,0,0,1-1.3116-1.23,5.22,5.22,0,0,1-.6845-1.9795,9.5921,9.5921,0,0,1,.0166-2.69l1.2539-10.626h2.9209l-1.2549,10.626a5.4608,5.4608,0,0,0,.2393,2.92,1.7886,1.7886,0,0,0,1.7744.9571,3.4479,3.4479,0,0,0,1.5673-.4121,6.0175,6.0175,0,0,0,1.5508-1.1719,9.9978,9.9978,0,0,0,1.3946-1.84,12.8115,12.8115,0,0,0,1.1132-2.4l1.04-8.6787Z"/><path class="h" d="M840.1319,385.2417l-2.2109,17.9512a6.49,6.49,0,0,1-.4951,1.8731,5.1147,5.1147,0,0,1-.9981,1.51,4.4558,4.4558,0,0,1-1.4932,1.0147,5.6051,5.6051,0,0,1-2.9619.289,4.3409,4.3409,0,0,1-.8-.248l.2969-1.584a.5678.5678,0,0,1,.124-.2227.3389.3389,0,0,1,.1973-.0908,1.85,1.85,0,0,1,.3135-.0078c.1269.0059.2832.0078.4707.0078a2.2613,2.2613,0,0,0,1.7324-.6015,3.5158,3.5158,0,0,0,.7422-1.94l2.1943-17.9512Zm1.04-5.247a1.8685,1.8685,0,0,1-.1738.8,2.2922,2.2922,0,0,1-.4619.66,2.2242,2.2242,0,0,1-.6514.4541,1.8238,1.8238,0,0,1-.7588.1651,1.766,1.766,0,0,1-.7509-.1651,2.0344,2.0344,0,0,1-.627-.4541,2.3167,2.3167,0,0,1-.4375-.66,1.9393,1.9393,0,0,1-.165-.8,2,2,0,0,1,.165-.8086,2.2142,2.2142,0,0,1,.4453-.669,2.3015,2.3015,0,0,1,.6358-.4619,1.69,1.69,0,0,1,.75-.1728,1.8093,1.8093,0,0,1,.76.165,2.2247,2.2247,0,0,1,.6514.4541,2.1316,2.1316,0,0,1,.4541.6758A2.0785,2.0785,0,0,1,841.1719,379.9947Z"/><path class="h" d="M848.8438,402.187a6.506,6.506,0,0,1-2.5078-.4707,5.4911,5.4911,0,0,1-1.9639-1.3613,6.2753,6.2753,0,0,1-1.2871-2.1777,8.6734,8.6734,0,0,1-.4619-2.9365,11.8179,11.8179,0,0,1,.66-3.9766,10.5763,10.5763,0,0,1,1.8154-3.2588,8.6832,8.6832,0,0,1,2.7139-2.2031,7.1833,7.1833,0,0,1,3.3574-.8086,6.506,6.506,0,0,1,2.5078.4707,5.4923,5.4923,0,0,1,1.9639,1.3613,6.2905,6.2905,0,0,1,1.2871,2.1778,8.614,8.614,0,0,1,.4619,2.92,11.7714,11.7714,0,0,1-.66,3.9609,10.78,10.78,0,0,1-1.8066,3.2666A8.6253,8.6253,0,0,1,852.21,401.37,7.1766,7.1766,0,0,1,848.8438,402.187Zm.28-2.2939a3.83,3.83,0,0,0,2.1865-.66,5.916,5.916,0,0,0,1.6826-1.7568,8.8789,8.8789,0,0,0,1.0811-2.5332,11.7,11.7,0,0,0,.38-3.0029,5.5482,5.5482,0,0,0-.916-3.4727,3.1524,3.1524,0,0,0-2.6319-1.1631,3.893,3.893,0,0,0-2.2031.6514,5.7659,5.7659,0,0,0-1.6748,1.7412,8.91,8.91,0,0,0-1.0723,2.5244,11.7069,11.7069,0,0,0-.38,3.003,5.6546,5.6546,0,0,0,.9082,3.4892A3.125,3.125,0,0,0,849.1241,399.8931Z"/><line class="i" x1="803.2502" y1="324.3751" x2="802.5726" y2="260.0056"/><path class="h" d="M807.0841,259.9581a4.5117,4.5117,0,1,0-4.464,4.5589A4.5121,4.5121,0,0,0,807.0841,259.9581Z"/><path class="h" d="M616.15,338.7115,604.4014,362.356h-2.7885L595.64,338.7115h2.4751a.9437.9437,0,0,1,.6519.2138.8753.8753,0,0,1,.2885.5284l3.96,16.8964q.1318.5274.2476,1.1631t.1982,1.3281q.2307-.6929.4785-1.3281a10.9015,10.9015,0,0,1,.5279-1.1631l8.0683-16.8964a1.4034,1.4034,0,0,1,.4375-.5118,1.1332,1.1332,0,0,1,.7012-.23Z"/><path class="h" d="M625.9171,357.9507a14.2854,14.2854,0,0,1-1.2788,1.9131,8.9018,8.9018,0,0,1-1.4522,1.4609,6.3178,6.3178,0,0,1-1.6172.9317,4.7989,4.7989,0,0,1-1.7573.33,4.1012,4.1012,0,0,1-1.7983-.3877,3.7352,3.7352,0,0,1-1.3775-1.1387,5.5277,5.5277,0,0,1-.8828-1.8477,9.16,9.16,0,0,1-.3135-2.5166,11.3332,11.3332,0,0,1,.3711-2.8955,11.784,11.784,0,0,1,2.6978-4.9668,11.0247,11.0247,0,0,1,2.1367-1.8144,10.1715,10.1715,0,0,1,2.5327-1.1885,9.5085,9.5085,0,0,1,2.8379-.42,12.42,12.42,0,0,1,2.0874.1728,8.7107,8.7107,0,0,1,2.0049.6026l-1.9966,16.17h-1.5181a.8946.8946,0,0,1-.7837-.2969,1.2419,1.2419,0,0,1-.2065-.7265Zm1.1215-10.2637a4.7692,4.7692,0,0,0-.7177-.1074q-.3546-.0249-.7012-.0244a5.772,5.772,0,0,0-1.9141.3223,6.816,6.816,0,0,0-1.7324.8984,7.7412,7.7412,0,0,0-1.4682,1.3779,8.9441,8.9441,0,0,0-1.13,1.7579,9.96,9.96,0,0,0-.7344,2.0371,9.3345,9.3345,0,0,0-.2637,2.22q0,3.9756,2.5411,3.9766a2.8784,2.8784,0,0,0,1.5839-.5039,6.1557,6.1557,0,0,0,1.4766-1.4024,11.82,11.82,0,0,0,1.2954-2.1279,19.97,19.97,0,0,0,1.0557-2.6983Zm4.2574-9.24-4.0264,4.2578a1.6187,1.6187,0,0,1-.4453.3545,1.1764,1.1764,0,0,1-.5278.1074h-1.6172l2.6894-3.9931a1.8113,1.8113,0,0,1,.52-.5528,1.4294,1.4294,0,0,1,.7671-.1738Z"/><path class="h" d="M632.5333,362.356l2.9531-24.3047h2.8877l-2.9536,24.3047Z"/><path class="h" d="M655.2032,345.6412l-8.3818,16.7148H644.38l-4.3233-16.7148h2.376a.7515.7515,0,0,1,.5283.1816.8857.8857,0,0,1,.2642.4287l2.4746,10.7578q.0989.6285.165,1.2383t.1158,1.2373q.1809-.6108.3959-1.2207t.4952-1.2549l5.164-10.7578a1.2139,1.2139,0,0,1,.3633-.4365.8526.8526,0,0,1,.5278-.1738Z"/><path class="h" d="M670.7955,345.6412l-2.0127,16.7148h-1.4522a.9411.9411,0,0,1-1.0727-1.0566l.2475-3.0518a10.1994,10.1994,0,0,1-2.978,3.2422,6.1031,6.1031,0,0,1-3.4072,1.0967,3.9743,3.9743,0,0,1-1.8648-.4209,3.3431,3.3431,0,0,1-1.3115-1.2286,5.2239,5.2239,0,0,1-.685-1.98,9.5918,9.5918,0,0,1,.0166-2.6895l1.2539-10.6259H660.45l-1.2544,10.6259a5.46,5.46,0,0,0,.2392,2.9209,1.79,1.79,0,0,0,1.774.9571,3.4372,3.4372,0,0,0,1.5673-.4131,5.992,5.992,0,0,0,1.5513-1.1709,10.0187,10.0187,0,0,0,1.3941-1.84,12.856,12.856,0,0,0,1.1137-2.4013l1.04-8.6787Z"/><path class="h" d="M673.2379,362.356l2.9536-24.3047h2.8877l-2.9541,24.3047Z"/><path class="h" d="M690.9093,357.9507a14.2363,14.2363,0,0,1-1.2784,1.9131,8.9368,8.9368,0,0,1-1.4521,1.4609,6.3178,6.3178,0,0,1-1.6172.9317,4.8,4.8,0,0,1-1.7578.33,4.1013,4.1013,0,0,1-1.7979-.3877,3.7412,3.7412,0,0,1-1.3779-1.1387,5.5373,5.5373,0,0,1-.8828-1.8477,9.1792,9.1792,0,0,1-.3135-2.5166,11.3509,11.3509,0,0,1,.3711-2.8955,11.7906,11.7906,0,0,1,2.6982-4.9668,11.01,11.01,0,0,1,2.1368-1.8144,10.1749,10.1749,0,0,1,2.5322-1.1885,9.5123,9.5123,0,0,1,2.8379-.42,12.4258,12.4258,0,0,1,2.0879.1728,8.718,8.718,0,0,1,2.0049.6026l-1.9971,16.17H691.586a.8957.8957,0,0,1-.7842-.2969,1.2417,1.2417,0,0,1-.206-.7265Zm1.122-10.2637a4.7877,4.7877,0,0,0-.7178-.1074c-.2363-.0166-.4707-.0244-.7011-.0244a5.77,5.77,0,0,0-1.9141.3223,6.816,6.816,0,0,0-1.7324.8984,7.7593,7.7593,0,0,0-1.4688,1.3779,8.9416,8.9416,0,0,0-1.13,1.7579,9.96,9.96,0,0,0-.7344,2.0371,9.3345,9.3345,0,0,0-.2637,2.22q0,3.9756,2.541,3.9766a2.88,2.88,0,0,0,1.584-.5039,6.1557,6.1557,0,0,0,1.4766-1.4024,11.8192,11.8192,0,0,0,1.2949-2.1279,19.8514,19.8514,0,0,0,1.0557-2.6983Z"/><path class="h" d="M592.4058,387.9146a1.0482,1.0482,0,0,1-.2641.2881.5686.5686,0,0,1-.33.0908.9209.9209,0,0,1-.5029-.1807q-.2726-.1816-.66-.4043a5.3508,5.3508,0,0,0-.9487-.4131,4.2655,4.2655,0,0,0-1.353-.1894,4.2039,4.2039,0,0,0-1.3531.206,3.2476,3.2476,0,0,0-1.0478.5694,2.5714,2.5714,0,0,0-.6763.85,2.3032,2.3032,0,0,0-.2393,1.0312A1.5842,1.5842,0,0,0,585.5416,391a4.7,4.7,0,0,0,1.2871.8008q.7757.3384,1.6665.6514a8.6275,8.6275,0,0,1,1.6665.792,4.2792,4.2792,0,0,1,1.2871,1.2207,3.338,3.338,0,0,1,.5117,1.9307,5.5641,5.5641,0,0,1-1.7573,4.0673,6.4253,6.4253,0,0,1-2.0464,1.2793,7.1742,7.1742,0,0,1-2.6811.4786,6.6736,6.6736,0,0,1-2.83-.5694,5.8875,5.8875,0,0,1-2.0049-1.4609l.7261-1.1221a1.2181,1.2181,0,0,1,.3217-.3291.8026.8026,0,0,1,.982.1152q.2637.2315.66.52a4.0735,4.0735,0,0,0,2.5245.7509,4.0881,4.0881,0,0,0,1.46-.248,3.4466,3.4466,0,0,0,1.1055-.6592,2.7876,2.7876,0,0,0,.6928-.9658,2.9332,2.9332,0,0,0,.2393-1.18,1.776,1.776,0,0,0-.5112-1.3369,4.1938,4.1938,0,0,0-1.2871-.8242q-.7757-.3311-1.6665-.6192a8.4217,8.4217,0,0,1-1.6665-.7421,4.0767,4.0767,0,0,1-1.2872-1.18,3.2917,3.2917,0,0,1-.5112-1.9307,5.1258,5.1258,0,0,1,.42-2.0381,5.27,5.27,0,0,1,1.2129-1.74,5.9439,5.9439,0,0,1,1.9224-1.2129,6.7872,6.7872,0,0,1,2.5493-.4541,6.547,6.547,0,0,1,2.6479.5029,6.1281,6.1281,0,0,1,1.9722,1.3613Z"/><path class="h" d="M601.0513,402.187a6.5064,6.5064,0,0,1-2.5078-.4707,5.494,5.494,0,0,1-1.9633-1.3613,6.2678,6.2678,0,0,1-1.2872-2.1777,8.6611,8.6611,0,0,1-.4619-2.9365,11.8326,11.8326,0,0,1,.66-3.9766,10.5865,10.5865,0,0,1,1.8154-3.2588,8.69,8.69,0,0,1,2.7139-2.2031,7.1868,7.1868,0,0,1,3.3579-.8086,6.506,6.506,0,0,1,2.5078.4707,5.501,5.501,0,0,1,1.9639,1.3613,6.2819,6.2819,0,0,1,1.2866,2.1778,8.6014,8.6014,0,0,1,.4624,2.92,11.7838,11.7838,0,0,1-.66,3.9609,10.7993,10.7993,0,0,1-1.8066,3.2666,8.6279,8.6279,0,0,1-2.7143,2.2188A7.1755,7.1755,0,0,1,601.0513,402.187Zm.2808-2.2939a3.8283,3.8283,0,0,0,2.186-.66,5.9175,5.9175,0,0,0,1.6831-1.7568,8.8923,8.8923,0,0,0,1.0806-2.5332,11.7,11.7,0,0,0,.38-3.0029,5.5482,5.5482,0,0,0-.916-3.4727,3.1517,3.1517,0,0,0-2.6319-1.1631,3.8926,3.8926,0,0,0-2.2026.6514,5.76,5.76,0,0,0-1.6748,1.7412,8.91,8.91,0,0,0-1.0723,2.5244,11.6849,11.6849,0,0,0-.38,3.003,5.6573,5.6573,0,0,0,.9077,3.4892A3.1263,3.1263,0,0,0,601.3321,399.8931Z"/><path class="h" d="M612.0406,401.9556l2.9531-24.3047h2.8877l-2.9536,24.3047Z"/><path class="h" d="M632.5333,398.8706a14.8784,14.8784,0,0,1-1.65,1.4932,10.0822,10.0822,0,0,1-1.6421,1.0313,7.2277,7.2277,0,0,1-1.749.6015,9.6749,9.6749,0,0,1-1.9717.19,6.5961,6.5961,0,0,1-2.5738-.4785,5.325,5.325,0,0,1-1.9306-1.3613,6.1223,6.1223,0,0,1-1.2207-2.1367,8.6151,8.6151,0,0,1-.4292-2.8047,12.286,12.286,0,0,1,.2724-2.5664,11.9861,11.9861,0,0,1,.792-2.4336,10.9717,10.9717,0,0,1,1.27-2.1445,8.5345,8.5345,0,0,1,1.7159-1.708,8.0685,8.0685,0,0,1,2.1284-1.1309,7.4414,7.4414,0,0,1,2.5-.4121,5.99,5.99,0,0,1,2.1943.3633,4.6724,4.6724,0,0,1,1.5181.9238,3.7008,3.7008,0,0,1,.8828,1.2373,3.291,3.291,0,0,1,.2886,1.2871,4.5251,4.5251,0,0,1-.4453,2.0049,4.1684,4.1684,0,0,1-1.6338,1.6494,12.1763,12.1763,0,0,1-3.2671,1.2793,35.9422,35.9422,0,0,1-5.3457.874c0,.1221-.003.2393-.0083.3555s-.0083.2334-.0083.3545a5.1606,5.1606,0,0,0,.9653,3.374,3.5672,3.5672,0,0,0,2.9121,1.1631,5.4772,5.4772,0,0,0,1.4107-.165,5.9262,5.9262,0,0,0,1.1054-.4043,4.9313,4.9313,0,0,0,.8584-.5274q.3706-.2886.6763-.5283a6.7781,6.7781,0,0,1,.5693-.4043.9943.9943,0,0,1,.5279-.165.736.736,0,0,1,.561.28Zm-4.6529-11.748a4.2839,4.2839,0,0,0-1.914.4287,5.1038,5.1038,0,0,0-1.5513,1.18,7.2048,7.2048,0,0,0-1.1548,1.7656,10.5121,10.5121,0,0,0-.7426,2.1865,32.0121,32.0121,0,0,0,4.0756-.7177,10.1475,10.1475,0,0,0,2.3594-.875,2.5533,2.5533,0,0,0,1.0889-1.0147,2.5814,2.5814,0,0,0,.2641-1.1387,1.6513,1.6513,0,0,0-.5527-1.2041,2.2928,2.2928,0,0,0-.751-.4375A3.2126,3.2126,0,0,0,627.88,387.1226Z"/><path class="h" d="M639.38,389.4654a10.4041,10.4041,0,0,1,3.02-3.3409,6.1367,6.1367,0,0,1,3.4648-1.1308,3.9369,3.9369,0,0,1,1.8565.4209,3.3634,3.3634,0,0,1,1.3032,1.2295,5.2422,5.2422,0,0,1,.6846,1.9883,9.8994,9.8994,0,0,1,0,2.6806l-1.2539,10.6426h-2.92l1.2539-10.6426a5.3937,5.3937,0,0,0-.2475-2.9287,1.795,1.795,0,0,0-1.7651-.9482,3.4391,3.4391,0,0,0-1.6089.4287,6.2036,6.2036,0,0,0-1.5757,1.2207,10.1311,10.1311,0,0,0-1.4107,1.9062,13.2868,13.2868,0,0,0-1.1137,2.4834l-.9571,8.4805h-2.937l2.0127-16.7305h1.4522a.875.875,0,0,1,.99.9893Z"/><path class="h" d="M658.8829,402.187a6.506,6.506,0,0,1-2.5078-.4707,5.4935,5.4935,0,0,1-1.9634-1.3613,6.2661,6.2661,0,0,1-1.2871-2.1777,8.6611,8.6611,0,0,1-.4619-2.9365,11.8326,11.8326,0,0,1,.66-3.9766,10.5888,10.5888,0,0,1,1.8155-3.2588,8.69,8.69,0,0,1,2.7138-2.2031,7.187,7.187,0,0,1,3.3579-.8086,6.5066,6.5066,0,0,1,2.5079.4707,5.5015,5.5015,0,0,1,1.9638,1.3613,6.2819,6.2819,0,0,1,1.2866,2.1778,8.599,8.599,0,0,1,.4624,2.92,11.7862,11.7862,0,0,1-.66,3.9609,10.8014,10.8014,0,0,1-1.8066,3.2666,8.6294,8.6294,0,0,1-2.7144,2.2188A7.1751,7.1751,0,0,1,658.8829,402.187Zm.2807-2.2939a3.8284,3.8284,0,0,0,2.1861-.66,5.9187,5.9187,0,0,0,1.6831-1.7568,8.8951,8.8951,0,0,0,1.0806-2.5332,11.7,11.7,0,0,0,.38-3.0029,5.5476,5.5476,0,0,0-.916-3.4727,3.1515,3.1515,0,0,0-2.6318-1.1631,3.8927,3.8927,0,0,0-2.2027.6514,5.7624,5.7624,0,0,0-1.6748,1.7412,8.9072,8.9072,0,0,0-1.0722,2.5244,11.6849,11.6849,0,0,0-.38,3.003,5.6573,5.6573,0,0,0,.9077,3.4892A3.1265,3.1265,0,0,0,659.1636,399.8931Z"/><path class="h" d="M674.8555,385.2417l-2.0136,16.7139h-2.8872l2.0127-16.7139Zm1.1221-5.247a1.87,1.87,0,0,1-.1738.8,2.2942,2.2942,0,0,1-.4619.66,2.1759,2.1759,0,0,1-.66.4541,1.88,1.88,0,0,1-.7671.1651,1.7851,1.7851,0,0,1-.7427-.1651,2.0121,2.0121,0,0,1-.6352-.4541,2.3236,2.3236,0,0,1-.437-.66,1.9378,1.9378,0,0,1-.1651-.8,1.9985,1.9985,0,0,1,.1651-.8086,2.231,2.231,0,0,1,.4453-.669,2.261,2.261,0,0,1,.6435-.4619,1.7087,1.7087,0,0,1,.7427-.1728,1.864,1.864,0,0,1,.7671.165,2.0855,2.0855,0,0,1,.6524.4541,2.3268,2.3268,0,0,1,.4531.6758A1.9886,1.9886,0,0,1,675.9776,379.9947Z"/><path class="h" d="M693.4337,377.6509l-2.9864,24.3047h-1.5341a.8689.8689,0,0,1-.7754-.2969,1.279,1.279,0,0,1-.1983-.7256l.3135-3.5146a13.1516,13.1516,0,0,1-1.3691,1.9629,10.1608,10.1608,0,0,1-1.56,1.5019,6.7519,6.7519,0,0,1-1.6992.9649,4.9684,4.9684,0,0,1-1.79.3388,3.947,3.947,0,0,1-3.333-1.56,7.372,7.372,0,0,1-1.1885-4.5293,13.3414,13.3414,0,0,1,.28-2.7061,14.0392,14.0392,0,0,1,.8008-2.59,12.6439,12.6439,0,0,1,1.2539-2.3018,9.4451,9.4451,0,0,1,1.6416-1.84,7.5227,7.5227,0,0,1,1.9551-1.2217,5.5723,5.5723,0,0,1,2.2031-.4453,5.13,5.13,0,0,1,2.252.4873,4.8765,4.8765,0,0,1,1.7246,1.3769l1.1386-9.207Zm-4.2569,11.2373a3.3846,3.3846,0,0,0-1.51-1.2461,4.7665,4.7665,0,0,0-1.79-.3545,3.8138,3.8138,0,0,0-2.3427.7754,6.8194,6.8194,0,0,0-1.7735,2.0049,10.4506,10.4506,0,0,0-1.1308,2.7471,11.8121,11.8121,0,0,0-.3956,2.9863,5.3178,5.3178,0,0,0,.7012,2.9951,2.2791,2.2791,0,0,0,2.0049,1.0313,3.05,3.05,0,0,0,1.6-.4951,6.6112,6.6112,0,0,0,1.56-1.378,12.0529,12.0529,0,0,0,1.4023-2.0869,16.5266,16.5266,0,0,0,1.1309-2.6406Z"/><path class="h" d="M707.9874,398.8706a14.8718,14.8718,0,0,1-1.65,1.4932,10.0784,10.0784,0,0,1-1.6416,1.0313,7.2424,7.2424,0,0,1-1.749.6015,9.6749,9.6749,0,0,1-1.9717.19,6.5985,6.5985,0,0,1-2.5742-.4785,5.3331,5.3331,0,0,1-1.9307-1.3613,6.138,6.138,0,0,1-1.2207-2.1367,8.6287,8.6287,0,0,1-.4287-2.8047,12.286,12.286,0,0,1,.2724-2.5664,11.9552,11.9552,0,0,1,.792-2.4336,10.947,10.947,0,0,1,1.27-2.1445,8.5345,8.5345,0,0,1,1.7159-1.708,8.0654,8.0654,0,0,1,2.1279-1.1309,7.4435,7.4435,0,0,1,2.5-.4121,5.99,5.99,0,0,1,2.1943.3633,4.675,4.675,0,0,1,1.5186.9238,3.715,3.715,0,0,1,.8828,1.2373,3.2988,3.2988,0,0,1,.2881,1.2871,4.5251,4.5251,0,0,1-.4453,2.0049,4.1651,4.1651,0,0,1-1.6338,1.6494,12.1789,12.1789,0,0,1-3.2666,1.2793,35.9422,35.9422,0,0,1-5.3457.874c0,.1221-.003.2393-.0088.3555s-.0078.2334-.0078.3545a5.1606,5.1606,0,0,0,.9648,3.374,3.5672,3.5672,0,0,0,2.9121,1.1631,5.4807,5.4807,0,0,0,1.4112-.165,5.9394,5.9394,0,0,0,1.1054-.4043,4.9653,4.9653,0,0,0,.8584-.5274q.3707-.2886.6758-.5283a6.9453,6.9453,0,0,1,.5693-.4043.9959.9959,0,0,1,.5284-.165.7351.7351,0,0,1,.5605.28Zm-4.6533-11.748a4.284,4.284,0,0,0-1.9141.4287,5.1079,5.1079,0,0,0-1.5508,1.18,7.2206,7.2206,0,0,0-1.1553,1.7656,10.5113,10.5113,0,0,0-.7421,2.1865,32.0019,32.0019,0,0,0,4.0751-.7177,10.13,10.13,0,0,0,2.3594-.875,2.5533,2.5533,0,0,0,1.0889-1.0147,2.582,2.582,0,0,0,.2646-1.1387,1.6513,1.6513,0,0,0-.5527-1.2041,2.2981,2.2981,0,0,0-.751-.4375A3.2153,3.2153,0,0,0,703.3341,387.1226Z"/><line class="i" x1="640.2502" y1="324.3751" x2="639.5726" y2="260.0056"/><path class="h" d="M644.0841,259.9581a4.5117,4.5117,0,1,0-4.464,4.5589A4.5121,4.5121,0,0,0,644.0841,259.9581Z"/></svg>