<svg xmlns="http://www.w3.org/2000/svg" viewBox="0 0 1349.6427 287.4606"><defs><style>.a,.d,.e,.f,.h{fill:none;}.a,.b,.d,.e,.f{stroke:#fff;stroke-width:3px;}.a,.b,.d,.h{stroke-miterlimit:10;}.b,.i{fill:#d91519;}.c{opacity:0.3;}.d{stroke-linecap:square;}.e,.f{stroke-linecap:round;stroke-linejoin:round;}.f{opacity:0.5;}.g{fill:#fff;}.h{stroke:#d91519;stroke-width:2px;}</style></defs><title>white</title><line class="a" x1="1320.6427" y1="280.7163" y2="280.7163"/><line class="a" x1="29" y1="175.7332" x2="1349.6427" y2="175.7332"/><rect class="b" x="783.8352" y="100.6818" width="36.7104" height="47.1991"/><rect class="b" x="789.0795" y="147.8809" width="26.2217" height="20.9774"/><rect class="b" x="812.6791" y="108.5483" width="26.2217" height="10.4887" transform="translate(939.5826 -711.9973) rotate(90)"/><rect class="b" x="220.666" y="170.4889" width="43.4232" height="115.4717" transform="translate(484.7552 456.4495) rotate(-180)"/><rect class="b" x="395.3912" y="170.585" width="115.3756" height="115.3756" transform="translate(906.1581 456.5457) rotate(-180)"/><rect class="b" x="578.8715" y="170.585" width="115.3756" height="115.3756" transform="translate(1273.1185 456.5457) rotate(-180)"/><rect class="b" x="762.8578" y="168.8583" width="78.6652" height="117.1023" transform="translate(1604.3808 454.8189) rotate(-180)"/><rect class="b" x="970.4219" y="168.8583" width="43.4158" height="117.1023" transform="translate(1984.2597 454.8189) rotate(-180)"/><rect class="b" x="429.4795" y="154.7559" width="47.1991" height="15.733"/><rect class="b" x="610.379" y="154.7559" width="52.4434" height="15.733"/><rect class="b" x="594.646" y="102.3124" width="83.9095" height="52.4434" rx="9.2558"/><rect class="b" x="678.5555" y="112.8011" width="31.4661" height="31.4661"/><rect class="b" x="442.5903" y="144.2672" width="20.9774" height="10.4887"/><circle class="b" cx="452.7353" cy="109.1494" r="36.7104"/><rect class="b" x="934.1679" y="1.5" width="267" height="132" rx="10.1667"/><g class="c"><rect class="d" x="944.6679" y="11.5" width="246" height="112" rx="7.125"/><path class="e" d="M945.1679,97.1667C960.9975,73.5,976.441,43.5,1015.822,75.5s46.3307,10,70.2681-2,49.0333,17,49.0333,17"/><path class="f" d="M945.1679,79.1667C966.4894,48,971.3021,50,1010.6831,82s62.9848-38,104.6694-32c22.2933,3.2089,19.7709,22.5,19.7709,22.5"/><path class="g" d="M1133.6679,11h49.875a7.125,7.125,0,0,1,7.125,7.125v97.75a7.125,7.125,0,0,1-7.125,7.125h-49.875a0,0,0,0,1,0,0V11A0,0,0,0,1,1133.6679,11Z"/><rect class="h" x="1145.1679" y="26.5" width="15" height="15" rx="4"/><rect class="i" x="1145.1679" y="52.5" width="15" height="15" rx="4"/><rect class="i" x="1145.1679" y="79.5" width="15" height="15" rx="4"/><line class="h" x1="1167.1679" y1="30.5" x2="1180.1679" y2="30.5"/><line class="h" x1="1167.1679" y1="35.5" x2="1180.1679" y2="35.5"/><line class="h" x1="1167.1679" y1="56.5" x2="1180.1679" y2="56.5"/><line class="h" x1="1167.1679" y1="61.5" x2="1180.1679" y2="61.5"/><line class="h" x1="1167.1679" y1="84.5" x2="1180.1679" y2="84.5"/><line class="h" x1="1167.1679" y1="89.5" x2="1180.1679" y2="89.5"/></g></svg>