<svg xmlns="http://www.w3.org/2000/svg" viewBox="0 0 319.1592 358.1401"><defs><style>.a{fill:none;}.a,.b{stroke:#d91519;stroke-linecap:round;stroke-linejoin:round;stroke-width:3px;}.b,.c{fill:#fff;}.c{opacity:0.7;}.d{fill:#d91519;}</style></defs><title>acople</title><polyline class="a" points="211.714 300.352 212.017 29.14 257.777 55.078 257.777 327.64"/><polyline class="a" points="303.256 300.352 303.256 28.79 257.194 1.5 257.194 327.64"/><polyline class="a" points="303.256 28.788 258.496 53.916 213.206 27.768 257.777 1.5"/><ellipse class="a" cx="236.6557" cy="142.4098" rx="6.5849" ry="11.4053" transform="translate(-39.4991 137.4086) rotate(-30.0003)"/><path class="b" d="M242.4765,52.1045c-41.5229-23.9728-75.1828-4.5391-75.1828,43.4065s33.66,106.2468,75.1828,130.22,75.1827,4.5391,75.1827-43.4066S283.9982,76.0773,242.4765,52.1045ZM295.649,193.7959l-11.852,2.8067-3.61,14.1323L265.81,204.6185l-9.724,6.8076-13.6094-13.6384-13.6095-2.0763-9.7251-18.0361L204.7652,167.19l-3.61-18.3015-11.852-16.4917,3.33-14.3745-6.61-18.72,9.5069-7.1549.1455-16.66,13.5071,1.7046,6.8661-10.7834,14.412,10.173,12.0169-2.4361,12.0157,16.311,14.412,6.4688,6.8672,18.7124,13.506,13.8919.1455,16.8271L298.93,164.49l-6.61,11.0864Z"/><path class="b" d="M236.6562,55.5967c-41.5229-23.9729-75.1828-4.5392-75.1828,43.4065s33.66,106.2468,75.1828,130.22,75.1828,4.5391,75.1828-43.4066S278.178,79.57,236.6562,55.5967Zm53.1726,141.6914-11.852,2.8066-3.61,14.1324L259.99,208.1107l-9.724,6.8076L236.6562,201.28l-13.61-2.0763-9.7251-18.036-14.3767-10.4851-3.61-18.3014-11.852-16.4918,3.33-14.3745-6.61-18.72,9.5068-7.1548.1455-16.66,13.5071,1.7046,6.8661-10.7834,14.4121,10.1729,12.0168-2.4361,12.0157,16.311,14.412,6.4688,6.8672,18.7125,13.506,13.8919.1455,16.8271L293.11,167.982l-6.61,11.0864Z"/><polyline class="b" points="26.131 177.999 30.298 172.505 43.804 174.21 50.67 163.427 65.081 173.599 77.096 171.163 89.11 187.473 103.521 193.941 110.388 212.652 123.893 226.543 124.038 243.368 133.544 261.499 126.934 272.585 130.264 290.803 126.231 294.394"/><polygon class="b" points="72.44 175.819 84.455 192.129 98.865 198.597 105.732 217.308 119.237 231.198 119.382 248.024 128.888 266.155 122.279 277.241 125.608 295.459 113.758 298.265 110.147 312.396 95.771 306.28 86.048 313.087 72.44 299.45 58.831 297.374 49.108 279.339 34.732 268.855 31.122 250.555 19.272 234.065 22.601 219.692 15.991 200.974 25.497 193.82 25.642 177.161 39.148 178.865 46.014 168.083 60.425 178.255 72.44 175.819"/><ellipse class="b" cx="72.4397" cy="240.5852" rx="6.5843" ry="11.4043" transform="translate(-110.5884 68.4531) rotate(-30.0003)"/><path class="b" d="M77.0955,247.5688a17.8245,17.8245,0,0,1-8.0641-13.9673"/><polyline class="c" points="1.5 93.928 1.5 329.355 47.559 356.64 93.617 329.355 93.617 93.928"/><polyline class="a" points="47.559 121.213 47.559 356.64 1.5 329.355 1.5 93.928"/><polyline class="a" points="47.559 66.64 47.559 356.64 93.617 329.355 93.617 93.928"/><line class="a" x1="129.5165" y1="217.6401" x2="164.3773" y2="197.1783"/><polygon class="d" points="166.656 206.248 175.517 190.641 157.57 190.768 166.656 206.248"/></svg>