<svg xmlns="http://www.w3.org/2000/svg" viewBox="0 0 232.2198 380.019"><defs><style>.a{opacity:0.5;}.b{fill:#fff;stroke:#606060;stroke-width:3px;}.b,.c{stroke-linecap:round;}.b,.c,.d{stroke-linejoin:round;}.c,.d{fill:none;stroke:#d91519;stroke-width:4px;}.d{stroke-linecap:square;stroke-dasharray:0 9;}.e{fill:#d91519;}</style></defs><title>angulo</title><g class="a"><polyline class="b" points="3.547 371.12 53.563 110.557 92.783 117.956 42.768 378.519"/><path class="b" d="M72.51,117.7726a59.896,59.896,0,1,0,47.7548,69.961A59.8961,59.8961,0,0,0,72.51,117.7726Zm10.9345,95.0317-7.8548,8.15L64.42,219.12l-10.7427,3.5663L44.64,215.871l-11.17-1.8346-4.8351-10.2345-9.0376-6.8151.4749-11.3092L15.2373,175.443l5.6761-9.793.4749-11.3093,9.577-6.0336,5.6761-9.7931,11.284-.8917,9.5771-6.0335,10.4059,4.4543,11.284-.8918,7.1439,8.78,10.4059,4.4542L98.9877,159.48l7.1439,8.78-3.1675,10.8669,2.2453,11.0942-7.8548,8.15-3.1675,10.8669Z"/><circle class="b" cx="61.4068" cy="176.6305" r="7.9824"/><circle class="b" cx="26.858" cy="359.7762" r="7.9824"/></g><g class="a"><polygon class="b" points="96.92 147.98 99.169 159.073 106.315 167.851 103.153 178.717 105.402 189.809 97.552 197.959 94.389 208.825 83.65 212.391 75.8 220.541 64.632 218.708 53.893 222.275 44.855 215.461 33.686 213.628 28.848 203.395 19.81 196.582 20.28 185.274 15.441 175.041 21.112 165.249 21.583 153.941 31.155 147.907 36.826 138.115 48.108 137.222 57.681 131.189 68.086 135.642 79.368 134.749 86.514 143.527 96.92 147.98"/><circle class="b" cx="61.9329" cy="176.4616" r="5.2459" transform="translate(-97.5022 78.7128) rotate(-39.1482)"/><polyline class="b" points="217.234 77.079 27.521 230.208 2.323 199.256 192.037 46.126"/><circle class="b" cx="183.868" cy="77.1974" r="7.9799" transform="translate(-7.4615 133.4106) rotate(-39.1482)"/></g><line class="c" x1="64.1271" y1="181.0303" x2="225.8827" y2="221.8756"/><line class="c" x1="64.1271" y1="181.0303" x2="205.0494" y2="56.3059"/><line class="d" x1="64.1271" y1="181.0303" x2="176.5407" y2="20.1218"/><line class="d" x1="64.1271" y1="181.0303" x2="131.5847" y2="2.578"/><path class="c" d="M127.4629,124.4135a85.6942,85.6942,0,0,1,19.1008,77.7634"/><path class="e" d="M183.6627,145.335a17.2813,17.2813,0,0,1,1.7641-.2792,16.2737,16.2737,0,0,1,1.63-.086,10.5435,10.5435,0,0,1,3.8545.6524,7.8906,7.8906,0,0,1,2.8,1.8027,7.5761,7.5761,0,0,1,1.7065,2.6943,9.4448,9.4448,0,0,1,.5757,3.3272,10.166,10.166,0,0,1-.7769,4.0273A9.1,9.1,0,0,1,193.06,160.59a9.7235,9.7235,0,0,1-3.2695,2.0049,11.6188,11.6188,0,0,1-4.1138.709,11.0437,11.0437,0,0,1-2.4741-.2686,12.22,12.22,0,0,1-4.0942-1.7548,11.97,11.97,0,0,1-1.563-1.2364l1.4575-2.0136a1.415,1.415,0,0,1,1.208-.6524,1.8647,1.8647,0,0,1,.978.3067q.4989.3075,1.1411.6718a9.4179,9.4179,0,0,0,1.5152.6709,6.3424,6.3424,0,0,0,2.1.3067,5.8682,5.8682,0,0,0,2.3013-.4219,4.4741,4.4741,0,0,0,1.6586-1.18,5.0462,5.0462,0,0,0,.9976-1.8027,7.3973,7.3973,0,0,0,.3355-2.2725,4.7048,4.7048,0,0,0-1.3135-3.5381,5.3636,5.3636,0,0,0-3.8838-1.2754,12.14,12.14,0,0,0-4.0464.73l-2.9531-.8437,2.3012-13.4629h13.6929V137.28a2.2286,2.2286,0,0,1-.6328,1.6484,2.9747,2.9747,0,0,1-2.1479.6328h-7.6138Z"/><path class="e" d="M219.4092,149.1319a22.74,22.74,0,0,1-.7763,6.3,12.9166,12.9166,0,0,1-2.148,4.42,8.677,8.677,0,0,1-3.2412,2.5987,9.6008,9.6008,0,0,1-4.0366.8535,9.472,9.472,0,0,1-4.0181-.8535,8.6369,8.6369,0,0,1-3.2124-2.5987,12.8814,12.8814,0,0,1-2.1284-4.42,26.2919,26.2919,0,0,1,0-12.6093,12.8966,12.8966,0,0,1,2.1284-4.4112,8.6553,8.6553,0,0,1,3.2124-2.5986,9.485,9.485,0,0,1,4.0181-.8526,9.614,9.614,0,0,1,4.0366.8526,8.6954,8.6954,0,0,1,3.2412,2.5986,12.9324,12.9324,0,0,1,2.148,4.4112A22.7045,22.7045,0,0,1,219.4092,149.1319Zm-4.89,0a23.4524,23.4524,0,0,0-.4409-4.9863,10.0531,10.0531,0,0,0-1.18-3.1455,4.3092,4.3092,0,0,0-1.6973-1.64,4.4887,4.4887,0,0,0-1.9941-.47,4.3882,4.3882,0,0,0-1.9658.47A4.2721,4.2721,0,0,0,205.563,141a10.062,10.062,0,0,0-1.16,3.1455,29.0133,29.0133,0,0,0,0,9.9727,10.0455,10.0455,0,0,0,1.16,3.1445,4.2581,4.2581,0,0,0,1.6783,1.64,4.3751,4.3751,0,0,0,1.9658.47,4.4754,4.4754,0,0,0,1.9941-.47,4.2951,4.2951,0,0,0,1.6973-1.64,10.0366,10.0366,0,0,0,1.18-3.1445A23.4541,23.4541,0,0,0,214.5191,149.1319Z"/><path class="e" d="M232.22,142.3624a10.6986,10.6986,0,0,1-.4317,3.2207,6.626,6.626,0,0,1-1.17,2.2539,4.71,4.71,0,0,1-1.7353,1.333,5.2518,5.2518,0,0,1-2.148.44,5.1866,5.1866,0,0,1-2.1387-.44,4.646,4.646,0,0,1-1.7163-1.333,6.4852,6.4852,0,0,1-1.1411-2.2539,11.1618,11.1618,0,0,1-.4121-3.2207,11.2835,11.2835,0,0,1,.4121-3.2324,6.5857,6.5857,0,0,1,1.1411-2.2715,4.52,4.52,0,0,1,1.7163-1.334,5.2944,5.2944,0,0,1,2.1387-.4316,5.3612,5.3612,0,0,1,2.148.4316,4.5815,4.5815,0,0,1,1.7353,1.334,6.7284,6.7284,0,0,1,1.17,2.2715A10.815,10.815,0,0,1,232.22,142.3624Zm-3.4331,0a15.0225,15.0225,0,0,0-.1436-2.32,4.3246,4.3246,0,0,0-.4219-1.3809,1.5054,1.5054,0,0,0-.6523-.6719,2.1114,2.1114,0,0,0-1.6685,0,1.4138,1.4138,0,0,0-.6328.6719,4.5518,4.5518,0,0,0-.393,1.3809,15.99,15.99,0,0,0-.1343,2.32,13.9051,13.9051,0,0,0,.1533,2.3008,4.4428,4.4428,0,0,0,.4317,1.3808,1.5246,1.5246,0,0,0,.6425.6719,1.78,1.78,0,0,0,.7671.1719,1.89,1.89,0,0,0,.7959-.1719,1.512,1.512,0,0,0,.6519-.6719,4.6124,4.6124,0,0,0,.4409-1.3808A13.1486,13.1486,0,0,0,228.7867,142.3624Z"/></svg>