<svg xmlns="http://www.w3.org/2000/svg" viewBox="0 0 798.4265 526.0361"><defs><style>.a{font-size:33px;font-family:Lato-Italic, Lato;font-style:italic;}.a,.e{fill:#606060;}.b,.f,.g,.i{fill:none;}.b,.f,.g{stroke:#606060;stroke-linejoin:round;}.b,.g{stroke-linecap:round;}.b,.f{stroke-width:4px;}.c{fill:#d91519;}.d{opacity:0.5;}.f{stroke-linecap:square;stroke-dasharray:0 9;}.g{stroke-width:2px;}.h{fill:#fff;}.h,.i{stroke:#000;stroke-miterlimit:10;}</style></defs><title>arco</title><text class="a" transform="translate(263.2349 517.1758)">Extensión de espacio</text><polyline class="b" points="138.349 318.341 182.145 253.094 248.286 202.148"/><circle class="c" cx="182.1453" cy="253.0939" r="7.036"/><g class="d"><polyline class="b" points="248.286 202.148 326.94 164.608 403.806 154.777"/><line class="b" x1="109.748" y1="393.4195" x2="138.3494" y2="318.3408"/><circle class="e" cx="138.3494" cy="318.3408" r="5.3628"/><circle class="e" cx="109.3494" cy="393.3408" r="5.3628"/><circle class="e" cx="248.2861" cy="203.0414" r="5.3628"/><circle class="e" cx="326.94" cy="164.6083" r="5.3628"/><circle class="e" cx="404.7001" cy="154.7765" r="5.3628"/><polyline class="b" points="699.652 393.42 671.051 318.341 627.255 253.094 561.114 202.148 482.46 164.608 405.594 154.777"/><circle class="e" cx="671.0507" cy="318.3408" r="5.3628"/><circle class="e" cx="700.0507" cy="393.3408" r="5.3628"/><circle class="e" cx="627.2548" cy="253.0939" r="5.3628"/><circle class="e" cx="561.114" cy="203.0414" r="5.3628"/><circle class="e" cx="482.4601" cy="164.6083" r="5.3628"/></g><g class="d"><polyline class="f" points="746.094 393.42 719.005 319.846 674.17 253.05 612.882 194.472 528.13 141.431 453.821 116.232 453.569 116.232 355.579 116.232 281.27 141.431 196.518 194.472 135.23 253.05 90.395 319.846 63.306 393.42"/><circle class="e" cx="90.8372" cy="318.3408" r="5.3628"/><circle class="e" cx="65.8372" cy="388.3408" r="5.3628"/><circle class="e" cx="134.7154" cy="253.0586" r="5.3628"/><circle class="e" cx="195.7169" cy="195.2677" r="5.3628"/><circle class="e" cx="282.4032" cy="141.7577" r="5.3628"/><circle class="e" cx="356.247" cy="116.0729" r="5.3628"/><circle class="e" cx="453.6353" cy="116.0729" r="5.3628"/><circle class="e" cx="528.5493" cy="141.7577" r="5.3628"/><circle class="e" cx="613.0952" cy="195.2677" r="5.3628"/><circle class="e" cx="675.1669" cy="253.0586" r="5.3628"/><circle class="e" cx="719.0451" cy="318.3408" r="5.3628"/><circle class="e" cx="747.0451" cy="393.3408" r="5.3628"/></g><g class="d"><polyline class="f" points="792.648 393.42 764.489 317.705 729.285 251.98 673.349 191.261 606.789 137.15 533.551 98.039 449.113 74.5 360.287 74.5 275.849 98.039 202.611 137.15 136.052 191.261 80.115 251.98 44.911 317.705 16.752 393.42"/><circle class="e" cx="44.8186" cy="318.3408" r="5.3628"/><circle class="e" cx="18.8186" cy="388.3408" r="5.3628"/><circle class="e" cx="80.1352" cy="250.9182" r="5.3628"/><circle class="e" cx="136.8558" cy="190.9869" r="5.3628"/><circle class="e" cx="204.2785" cy="136.4067" r="5.3628"/><circle class="e" cx="277.0521" cy="97.8795" r="5.3628"/><circle class="e" cx="360.5278" cy="74.3351" r="5.3628"/><circle class="e" cx="449.3545" cy="74.3351" r="5.3628"/><circle class="e" cx="533.9003" cy="97.8795" r="5.3628"/><circle class="e" cx="606.674" cy="137.4769" r="5.3628"/><circle class="e" cx="674.0967" cy="190.9869" r="5.3628"/><circle class="e" cx="729.7471" cy="250.9182" r="5.3628"/><circle class="e" cx="765.0637" cy="318.3408" r="5.3628"/><circle class="e" cx="793.0637" cy="393.3408" r="5.3628"/></g><polyline class="g" points="16.31 442.13 16.31 467.13 795.31 467.13 795.31 442.13"/><line class="g" x1="109.3096" y1="467.1299" x2="109.3096" y2="442.1299"/><line class="g" x1="66.3096" y1="467.1299" x2="66.3096" y2="442.1299"/><line class="g" x1="748.3096" y1="467.1299" x2="748.3096" y2="442.1299"/><line class="g" x1="701.3096" y1="467.1299" x2="701.3096" y2="442.1299"/><text class="a" transform="translate(0 28.822)">Vista frontal</text><rect class="h" x="689.7962" y="-28.7839" width="69.884" height="128.4518" rx="4.7195" transform="translate(689.2962 760.1801) rotate(-90)"/><path class="i" d="M664.881,7.71V23.4122a2.0819,2.0819,0,0,0,2.0819,2.0818h0a2.4271,2.4271,0,0,1,2.4271,2.4271V42.9628a2.4272,2.4272,0,0,1-2.4272,2.4272h0a2.0819,2.0819,0,0,0-2.0819,2.0819V63.1738a4.1422,4.1422,0,0,0,4.1422,4.1422h111.43a4.1422,4.1422,0,0,0,4.1422-4.1422V7.71a4.1422,4.1422,0,0,0-4.1422-4.1422h-111.43A4.1421,4.1421,0,0,0,664.881,7.71Z"/><path d="M739.6679,11.3321c.148.0319.2952.0679.4441.095a6.07,6.07,0,0,1,4.25,3.2064,5.7838,5.7838,0,0,1,.59,1.9077,6.4411,6.4411,0,0,1,.03,1.4157,5.8014,5.8014,0,0,1-.77,2.4071,6.0177,6.0177,0,0,1-2.9234,2.5827,5.4087,5.4087,0,0,1-1.7132.4312.9715.9715,0,0,0-.108.0216c-.0037.0832-.01.1588-.01.2345q0,3.4481.0019,6.8962,0,4.688-.0024,9.3759c0,2.0749.0088,4.15-.0024,6.2247a7.783,7.783,0,0,1-1.6764,4.9248,7.698,7.698,0,0,1-4.608,2.86,7.3134,7.3134,0,0,1-1.4815.1547q-8.1363-.0051-16.2725-.0022-2.8412,0-5.6824-.0023a6.5636,6.5636,0,0,1-1.7731-.2823,7.7313,7.7313,0,0,1-3.7466-2.3515,7.5,7.5,0,0,1-1.6441-2.9734,12.4978,12.4978,0,0,1-.2622-1.2558,11.1851,11.1851,0,0,1-.0513-1.9062q-.0081-6.7155-.0016-13.4312,0-3.6549-.0024-7.31a7.3759,7.3759,0,0,1,.4366-2.4449,7.5684,7.5684,0,0,1,1.42-2.4648,7.9864,7.9864,0,0,1,2.07-1.727,8.0852,8.0852,0,0,1,2.65-.9467,5.6043,5.6043,0,0,1,.6654-.0674c1.5132-.0859,3.0277-.0312,4.5417-.0384,1.9026-.009,3.8054-.0044,5.7081-.0043q4.378,0,8.7559.0023,2.0793,0,4.1585,0h.2479c.0656-.3468.1125-.6769.1921-.9989a5.94,5.94,0,0,1,1.1391-2.288,6.0266,6.0266,0,0,1,2.3354-1.78,5.2615,5.2615,0,0,1,1.5827-.4252.5207.5207,0,0,0,.116-.0407Zm-6.7555,6.3114H722.84q-6.3676,0-12.7353.0024a6.5541,6.5541,0,0,0-.9251.0569,7.3218,7.3218,0,0,0-2.0192.5835,7.137,7.137,0,0,0-3.7609,4.1407,7.5853,7.5853,0,0,0-.3986,2.5025q-.0041,5.2956-.0011,10.5913c0,2.3335-.0051,4.667,0,7,.0028,1.3508.022,2.7017.0316,4.0525a5.602,5.602,0,0,0,.1667,1.2473,7.1074,7.1074,0,0,0,6.9381,5.4965c2.6175.0167,5.2353.0048,7.8529.005,3.1,0,6.2.007,9.3-.0019,1.5658-.0045,3.132.0389,4.6975-.03a6.8107,6.8107,0,0,0,1.7163-.3074,7.1013,7.1013,0,0,0,4.9726-6.7206c.0195-2.35.0042-4.7014.0042-7.0521q0-3.6167.0006-7.2331,0-4.1849-.0008-8.37c0-.0656-.0117-.1312-.0184-.2022a6.0774,6.0774,0,0,1-5.7478-5.7621Zm10.2147-1.4c-1.0146-.0231-2,.0122-3.01-.0168V13.2223a19.0966,19.0966,0,0,0-2.2957.0166c0,.3311,0,.6659,0,1.0007,0,.3271.0049.6543,0,.9813-.0044.3316.0153.6644-.0163,1.0194h-3.0028a18.01,18.01,0,0,0,.0114,2.2744h3.0085v2.9946c.7784.002,1.5295.0162,2.2959-.0049,0-.2788,0-.5273,0-.7758,0-.241.0014-.4821.0013-.7231,0-.25-.0034-.4992-.0011-.7488.0024-.2452-.0127-.4917.0124-.751.5184,0,1.008,0,1.4976,0,.4957,0,.9915.0064,1.4986-.0047V16.2439Z"/><path d="M715.3,25.2438l5.8364,15.9808.0353-.0069V25.2492c.0729-.0066.1307-.0163.1884-.0163,2.6087,0,5.2174-.0109,7.8259.0074a7.0084,7.0084,0,0,1,3.3421.81,5.7181,5.7181,0,0,1,2.653,2.9477,6.4794,6.4794,0,0,1,.424,1.7163,6.1425,6.1425,0,0,1,.0312,1.1579,5.3931,5.3931,0,0,1-1.4193,3.4,5.6444,5.6444,0,0,1-2.14,1.4361c-.0236.009-.0458.0215-.0967.0456.2327.4864.495.9539.7371,1.4312.2447.4825.4994.96.748,1.44.2528.4883.5026.978.7553,1.4663.2487.48.5.96.7491,1.44s.4971.9614.7454,1.4422c.247.4782.4938.9566.7529,1.4585h-4.6037l-3.9212-8.003h-2.7767a1.7726,1.7726,0,0,0-.02.1925q-.0014,2.35,0,4.7007,0,1.4593.0011,2.9186c0,.058-.0086.116-.0143.1889h-6.61l-1.1809-3.5369h-7.1387l-1.2161,3.5391h-4.1091c.037-.245,7.1993-19.9486,7.3392-20.1892Zm9.8539,8.8391a.62.62,0,0,0,.0989.02c1.2547-.0106,2.51-.0242,3.7642-.032a2.8973,2.8973,0,0,0,1.076-.2212,2.4214,2.4214,0,0,0,1.3762-1.3505,2.7871,2.7871,0,0,0,.1852-1.2862,2.407,2.407,0,0,0-1.06-1.9106,2.7816,2.7816,0,0,0-1.598-.497c-1.2213-.0124-2.4429-.0061-3.6644-.0061a1.5509,1.5509,0,0,0-.1784.0209Zm-11.29-2.7339-.0475-.0019-2.4928,7.18c.3687.0407,4.7476.0254,4.9469-.0213Z"/></svg>