<svg xmlns="http://www.w3.org/2000/svg" viewBox="0 0 578.8521 811.1464"><defs><style>.a,.c{fill:none;}.a,.b{stroke:#d91519;stroke-width:3px;}.a,.b,.c{stroke-linecap:round;stroke-linejoin:round;}.b{fill:#fff;}.c{stroke:#606060;stroke-width:2px;}.d,.e{fill:#606060;}.e{font-size:33px;font-family:Lato-Italic, Lato;font-style:italic;}</style></defs><title>barra</title><polygon class="a" points="267.357 795.64 237.376 777.879 237.376 19.262 267.357 37.023 267.357 795.64"/><polygon class="a" points="266.978 795.64 296.959 777.879 296.959 19.262 266.978 1.5 266.978 795.64"/><polyline class="a" points="296.959 19.261 267.825 35.617 238.347 18.597 267.357 1.5"/><ellipse class="a" cx="253.61" cy="93.2149" rx="4.2859" ry="7.4235" transform="translate(-12.6299 139.2948) rotate(-30.0003)"/><path class="b" d="M257.3985,34.4373c-27.0263-15.6034-48.9347-2.9544-48.9347,28.2523s21.9084,69.1536,48.9347,84.7569,48.9347,2.9544,48.9347-28.2523S284.4241,50.0407,257.3985,34.4373Zm34.6088,92.2236-7.7142,1.8268-2.35,9.1984-9.3575-3.981-6.3291,4.4309-8.8581-8.8769-8.858-1.3515-6.33-11.7392-9.3575-6.8245-2.35-11.912L222.789,86.6978l2.1672-9.356-4.3025-12.1843,6.1877-4.6569.0947-10.8436,8.7915,1.11,4.469-7.0187,9.3805,6.6214,7.8214-1.5856L265.2193,59.4l9.38,4.21,4.47,12.18,8.7908,9.0419.0947,10.9524,6.1878,11.8021-4.3025,7.2159Z"/><path class="b" d="M253.61,36.71c-27.0263-15.6034-48.9348-2.9545-48.9348,28.2523S226.584,134.1161,253.61,149.72s48.9347,2.9544,48.9347-28.2523S280.6358,52.3136,253.61,36.71Zm34.6087,92.2236-7.7142,1.8268-2.35,9.1984-9.3575-3.981-6.3291,4.4309-8.858-8.877-8.8581-1.3514-6.33-11.7392-9.3575-6.8245-2.35-11.912-7.7142-10.7341,2.1672-9.356-4.3025-12.1843,6.1878-4.6569.0947-10.8436,8.7914,1.1095,4.469-7.0187,9.3805,6.6213,7.8215-1.5856L261.431,61.673l9.38,4.21,4.47,12.18,8.7907,9.0419.0947,10.9523,6.1878,11.8022-4.3025,7.2158Z"/><ellipse class="a" cx="253.61" cy="259.8994" rx="4.2859" ry="7.4235" transform="translate(-95.9729 161.6268) rotate(-30.0003)"/><ellipse class="a" cx="253.61" cy="293.2362" rx="4.2859" ry="7.4235" transform="translate(-112.6415 166.0932) rotate(-30.0003)"/><ellipse class="a" cx="253.61" cy="409.9154" rx="4.2859" ry="7.4235" transform="translate(-170.9816 181.7255) rotate(-30.0003)"/><ellipse class="a" cx="253.61" cy="443.2523" rx="4.2859" ry="7.4235" transform="translate(-187.6502 186.1919) rotate(-30.0003)"/><ellipse class="a" cx="253.61" cy="559.9314" rx="4.2859" ry="7.4235" transform="translate(-245.9903 201.8243) rotate(-30.0003)"/><ellipse class="a" cx="253.61" cy="593.2683" rx="4.2859" ry="7.4235" transform="translate(-262.659 206.2906) rotate(-30.0003)"/><polyline class="b" points="223.466 690.422 226.178 686.846 234.97 687.956 239.439 680.937 248.82 687.559 256.641 685.973 264.461 696.589 273.842 700.8 278.312 712.979 287.103 722.021 287.197 732.973 293.385 744.775 289.082 751.992 291.25 763.85 288.624 766.188"/><polygon class="b" points="253.61 689.003 261.431 699.62 270.811 703.83 275.281 716.01 284.072 725.052 284.166 736.004 290.354 747.806 286.052 755.022 288.219 766.881 280.505 768.708 278.155 777.906 268.797 773.925 262.468 778.356 253.61 769.479 244.752 768.127 238.423 756.388 229.065 749.564 226.715 737.652 219.001 726.918 221.168 717.562 216.866 705.377 223.054 700.721 223.148 689.877 231.939 690.986 236.409 683.968 245.789 690.589 253.61 689.003"/><ellipse class="a" cx="253.61" cy="731.1618" rx="4.2859" ry="7.4235" transform="translate(-331.6064 224.7652) rotate(-30.0003)"/><path class="a" d="M256.6406,735.7077a11.6022,11.6022,0,0,1-5.2492-9.0918"/><line class="c" x1="203.4546" y1="493.6401" x2="249.4546" y2="492.9625"/><path class="d" d="M249.521,497.4738a4.5117,4.5117,0,1,0-4.5776-4.4448A4.5123,4.5123,0,0,0,249.521,497.4738Z"/><text class="e" transform="translate(0 499.3681)">Barra tubular</text><line class="c" x1="348.4546" y1="135.6401" x2="302.4546" y2="134.9626"/><path class="d" d="M302.521,130.4514a4.5117,4.5117,0,1,0,4.4448,4.5776A4.5119,4.5119,0,0,0,302.521,130.4514Z"/><text class="e" transform="translate(363.6458 762.686)">Acople dentado<tspan x="0" y="39.6001">macho</tspan></text><line class="c" x1="348.4546" y1="748.6401" x2="289.4546" y2="747.9626"/><path class="d" d="M289.5063,743.4511a4.5116,4.5116,0,1,0,4.46,4.5633A4.5122,4.5122,0,0,0,289.5063,743.4511Z"/><text class="e" transform="translate(363.6458 151.686)">Acople dentado<tspan x="0" y="39.6001">hembra</tspan></text></svg>