<svg xmlns="http://www.w3.org/2000/svg" viewBox="0 0 98.7252 750.7963"><defs><style>.a{fill:none;}.a,.b{stroke:#fff;stroke-linecap:round;stroke-linejoin:round;stroke-width:3px;}.b{fill:red;}</style></defs><title>barra_white</title><polygon class="a" points="60.524 749.296 32.292 732.572 32.292 18.226 60.524 34.95 60.524 749.296"/><polygon class="a" points="60.166 749.296 88.398 732.572 88.398 18.226 60.166 1.5 60.166 749.296"/><polyline class="a" points="88.398 18.225 60.964 33.626 33.206 17.6 60.524 1.5"/><ellipse class="b" cx="47.5787" cy="87.8626" rx="4.0358" ry="6.9903" transform="translate(-37.5573 35.5612) rotate(-30.0003)"/><path class="b" d="M51.1462,32.5152c-25.4491-14.6928-46.079-2.782-46.079,26.6035s20.63,65.118,46.079,79.8108,46.079,2.782,46.079-26.6036S76.5946,47.208,51.1462,32.5152Zm32.5891,86.8417-7.264,1.72-2.2128,8.6616L65.4471,125.99l-5.96,4.1723-8.3412-8.3589-8.3411-1.2726-5.9605-11.0541-8.8114-6.4262L25.82,91.8336l-7.264-10.1077,2.0407-8.81L16.5457,61.4427l5.8267-4.3852.0891-10.2108L30.74,47.8914l4.2082-6.6091,8.833,6.235,7.365-1.4931,7.3644,9.9969,8.833,3.9647,4.2089,11.4687L79.83,79.9688l.0892,10.3132,5.8267,11.1134L81.6946,108.19Z"/><path class="b" d="M47.579,34.6555C22.13,19.9627,1.5,31.8735,1.5,61.2591S22.13,126.377,47.579,141.07s46.079,2.782,46.079-26.6036S73.0274,49.3483,47.579,34.6555Zm32.5891,86.8417-7.264,1.72-2.2128,8.6616L61.88,128.13l-5.96,4.1723-8.3412-8.3589-8.3411-1.2725L33.2774,111.617l-8.8114-6.4262L22.2532,93.9739l-7.264-10.1076,2.0407-8.81L12.9785,63.583l5.8266-4.3852.0892-10.2108,8.2785,1.0448,4.2082-6.6091,8.833,6.2349,7.365-1.493,7.3644,9.9968,8.833,3.9647,4.2089,11.4688,8.2777,8.5142.0892,10.3132,5.8267,11.1134-4.0515,6.7948Z"/><ellipse class="a" cx="47.5787" cy="244.8199" rx="4.0358" ry="6.9903" transform="translate(-116.0366 56.5899) rotate(-30.0003)"/><ellipse class="a" cx="47.5787" cy="276.2113" rx="4.0358" ry="6.9903" transform="translate(-131.7325 60.7956) rotate(-30.0003)"/><ellipse class="a" cx="47.5787" cy="386.0814" rx="4.0358" ry="6.9903" transform="translate(-186.668 75.5157) rotate(-30.0003)"/><ellipse class="a" cx="47.5787" cy="417.4728" rx="4.0358" ry="6.9903" transform="translate(-202.3639 79.7215) rotate(-30.0003)"/><ellipse class="a" cx="47.5787" cy="527.3429" rx="4.0358" ry="6.9903" transform="translate(-257.2994 94.4416) rotate(-30.0003)"/><ellipse class="a" cx="47.5787" cy="558.7343" rx="4.0358" ry="6.9903" transform="translate(-272.9953 98.6473) rotate(-30.0003)"/><polyline class="b" points="19.194 650.219 21.748 646.851 30.026 647.896 34.235 641.287 43.068 647.522 50.433 646.029 57.797 656.026 66.63 659.99 70.839 671.459 79.117 679.973 79.206 690.287 85.033 701.4 80.981 708.195 83.022 719.362 80.55 721.563"/><polygon class="b" points="47.579 648.883 54.943 658.88 63.776 662.844 67.985 674.313 76.263 682.827 76.352 693.14 82.179 704.254 78.127 711.049 80.168 722.215 72.904 723.936 70.691 732.597 61.88 728.848 55.92 733.021 47.579 724.662 39.238 723.389 33.278 712.335 24.466 705.909 22.253 694.692 14.989 684.584 17.03 675.774 12.979 664.301 18.805 659.916 18.894 649.705 27.172 650.75 31.381 644.141 40.214 650.376 47.579 648.883"/><ellipse class="b" cx="47.5787" cy="688.5808" rx="4.0358" ry="6.9903" transform="translate(-337.9191 116.0438) rotate(-30.0003)"/><path class="b" d="M50.4325,692.8614A10.9254,10.9254,0,0,1,45.49,684.3"/></svg>