<svg xmlns="http://www.w3.org/2000/svg" viewBox="0 0 392.3568 846.6233"><defs><style>.a,.b,.d{fill:#fff;stroke-linecap:round;stroke-linejoin:round;stroke-width:3px;}.a,.d{stroke:#606060;}.a,.c{opacity:0.5;}.b{stroke:#d91519;}</style></defs><title>barra_side</title><rect class="a" x="56.3745" y="346.2231" width="23.7685" height="501.0391" transform="translate(111.8022 -2.3108) rotate(10.6828)"/><polygon class="b" points="33.495 781.026 38.78 785.21 45.404 786.46 48.138 792.621 53.423 796.806 52.981 803.532 55.715 809.693 52.198 815.444 51.756 822.17 45.969 825.627 42.452 831.378 35.722 831.75 29.935 835.207 23.802 832.408 17.072 832.78 12.942 827.452 6.81 824.654 5.629 818.017 1.5 812.69 3.539 806.265 2.358 799.628 7.15 794.886 9.188 788.461 15.634 786.489 20.426 781.748 27.049 782.997 33.495 781.026"/><circle class="b" cx="28.5135" cy="807.4346" r="3.1251"/><path class="b" d="M114.3029,352.6589a35.6692,35.6692,0,1,0,28.439,41.6631A35.6694,35.6694,0,0,0,114.3029,352.6589Zm10.8438,53.2436-3.5172,5.75-6.73.3719-5.7867,3.4572-6.1325-2.7984-6.73.372-4.13-5.3279-6.1324-2.7984-1.1806-6.6366-4.1295-5.3278,2.0389-6.425-1.18-6.6367,4.7912-4.7416,2.0388-6.425,6.4459-1.9719,4.7912-4.7415,6.624,1.25,6.4459-1.9719,5.2846,4.1848,6.6239,1.25,2.7345,6.1612,5.2845,4.1848-.442,6.7262,2.7345,6.1613-3.5173,5.75-.442,6.7262Z"/><circle class="b" cx="107.6909" cy="387.71" r="4.7537"/><g class="c"><circle class="d" cx="87.1164" cy="496.7767" r="4.7537"/><circle class="d" cx="82.7104" cy="520.1333" r="4.7537"/></g><g class="c"><circle class="d" cx="68.2587" cy="596.7426" r="4.7537"/><circle class="d" cx="63.8527" cy="620.0991" r="4.7537"/></g><g class="c"><circle class="d" cx="50.2822" cy="692.0372" r="4.7537"/><circle class="d" cx="45.8762" cy="715.3937" r="4.7537"/></g><polygon class="b" points="123.527 365.604 126.582 371.613 132.079 375.514 131.99 382.254 135.045 388.264 131.834 394.191 131.746 400.931 126.149 404.687 122.939 410.615 116.237 411.339 110.64 415.096 104.369 412.623 97.667 413.348 93.264 408.245 86.993 405.772 85.465 399.207 81.062 394.103 82.76 387.58 81.233 381.014 85.768 376.028 87.467 369.504 93.8 367.197 98.336 362.21 105.016 363.11 111.35 360.802 116.847 364.704 123.527 365.604"/><circle class="b" cx="107.9727" cy="387.5198" r="3.1251"/><path class="b" d="M375.8293,10.116a35.6693,35.6693,0,1,0,8.4431,49.7323A35.6693,35.6693,0,0,0,375.8293,10.116Zm-12.38,52.9074L357.8518,66.78l-6.2709-2.4726-6.7017.725-4.4036-5.1036-6.271-2.4726-1.5274-6.5654-4.4036-5.1036,1.6986-6.5232-1.5274-6.5655,4.5355-4.9866,1.6987-6.5233,6.3334-2.3077,4.5356-4.9867,6.68.9,6.3335-2.3077,5.497,3.9015,6.68.9,3.0543,6.0091,5.497,3.9014-.0881,6.74,3.0542,6.0091-3.21,5.9272-.0882,6.74-5.5972,3.7564-3.21,5.9272Z"/><circle class="b" cx="355.1847" cy="39.2038" r="4.7537"/><rect class="a" x="220.1831" y="-37.8463" width="23.7685" height="501.0391" transform="translate(165.9105 -95.0741) rotate(35.3646)"/><g class="c"><circle class="d" cx="290.9459" cy="129.7148" r="4.7537"/><circle class="d" cx="277.1892" cy="149.0976" r="4.7537"/></g><g class="c"><circle class="d" cx="232.0674" cy="212.6733" r="4.7537"/><circle class="d" cx="218.3107" cy="232.0561" r="4.7537"/></g><g class="c"><circle class="d" cx="175.9402" cy="291.7552" r="4.7537"/><circle class="d" cx="162.1835" cy="311.138" r="4.7537"/></g></svg>