<svg xmlns="http://www.w3.org/2000/svg" viewBox="0 0 556.8707 316.848"><defs><style>.a{font-size:33px;fill:#606060;font-family:Lato-Italic, Lato;font-style:italic;}.b,.d{fill:none;stroke:#d91519;stroke-linejoin:round;stroke-width:3px;}.c,.e{fill:#d91519;}.c{opacity:0.6;}.d{stroke-linecap:round;}</style></defs><title>panel</title><text class="a" transform="translate(141.1531 28.322)">Panel solar</text><rect class="b" x="1.5" y="47.8668" width="281.9921" height="175.2107"/><rect class="c" x="408.3038" y="283.6257" width="41.3363" height="19.5654"/><rect class="c" x="408.3038" y="256.2055" width="41.3363" height="19.5654"/><rect class="d" x="395.2644" y="210.6249" width="67.9697" height="104.7232"/><rect class="d" x="416.1781" y="192.8688" width="26.1422" height="17.9105"/><rect class="d" x="507.8999" y="144.1033" width="34.5243" height="12.2866"/><rect class="d" x="512.2154" y="156.4152" width="24.8143" height="12.2866"/><rect class="c" x="16.1447" y="63.1707" width="50.8534" height="65.0327"/><rect class="d" x="16.1447" y="63.1707" width="50.8534" height="65.0327"/><rect class="c" x="82.6039" y="63.1707" width="50.8534" height="65.0327"/><rect class="d" x="82.6039" y="63.1707" width="50.8534" height="65.0327"/><rect class="c" x="149.0631" y="63.1707" width="50.8534" height="65.0327"/><rect class="d" x="149.0631" y="63.1707" width="50.8534" height="65.0327"/><rect class="c" x="215.5224" y="63.1707" width="50.8534" height="65.0327"/><rect class="d" x="215.5224" y="63.1707" width="50.8534" height="65.0327"/><rect class="c" x="16.1447" y="143.2239" width="50.8534" height="65.0327"/><rect class="d" x="16.1447" y="143.2239" width="50.8534" height="65.0327"/><rect class="c" x="82.6039" y="143.2239" width="50.8534" height="65.0327"/><rect class="d" x="82.6039" y="143.2239" width="50.8534" height="65.0327"/><rect class="c" x="149.0631" y="143.2239" width="50.8534" height="65.0327"/><rect class="d" x="149.0631" y="143.2239" width="50.8534" height="65.0327"/><rect class="c" x="215.5224" y="143.2239" width="50.8534" height="65.0327"/><rect class="d" x="215.5224" y="143.2239" width="50.8534" height="65.0327"/><path class="b" d="M285.0025,137.56h28.6983a12.0836,12.0836,0,0,1,12.0835,12.0835v97.601a12.0835,12.0835,0,0,0,12.0835,12.0835H378.65"/><path class="e" d="M378.65,263.2759a3.9478,3.9478,0,1,0-3.9477-3.9478A3.9482,3.9482,0,0,0,378.65,263.2759Z"/><path class="c" d="M555.3707,100.9479a30.21,30.21,0,1,0-53.3807,19.373,26.1667,26.1667,0,0,1,5.91,16.8364v6.946h34.5242v-7.2819a26.6827,26.6827,0,0,1,6.1732-16.8193A30.0618,30.0618,0,0,0,555.3707,100.9479Z"/><path class="d" d="M555.3707,100.9479a30.21,30.21,0,1,0-53.3807,19.373,26.1667,26.1667,0,0,1,5.91,16.8364v6.946h34.5242v-7.2819a26.6827,26.6827,0,0,1,6.1732-16.8193A30.0618,30.0618,0,0,0,555.3707,100.9479Z"/><path class="b" d="M463.234,259.3281h49.8445a12.0835,12.0835,0,0,0,12.0835-12.0835V186.8271"/><path class="e" d="M529.11,186.8271a3.9478,3.9478,0,1,0-3.9478,3.9476A3.9483,3.9483,0,0,0,529.11,186.8271Z"/></svg>