<svg xmlns="http://www.w3.org/2000/svg" viewBox="0 0 539.4443 762.9056"><defs><style>.a,.c{fill:#fff;}.a,.b{stroke:#606060;}.a,.b,.c,.d{stroke-linecap:round;stroke-linejoin:round;stroke-width:3px;}.b,.d{fill:none;}.c,.d{stroke:#d91519;}</style></defs><title>refuerzo_iso</title><polygon class="a" points="527.078 587.645 510.4 584.191 390.034 233.488 406.712 236.942 527.078 587.645"/><polygon class="a" points="526.902 587.705 537.944 574.737 417.578 224.035 400.9 220.58 526.902 587.705"/><polyline class="a" points="417.578 224.034 406.705 236.217 390.377 233.027 401.075 220.52"/><ellipse class="b" cx="409.2722" cy="265.1001" rx="2.0948" ry="3.6283" transform="translate(-59.4416 399.596) rotate(-48.9432)"/><path class="a" d="M401.6977,237.3266c-14.97-2.9252-23.0909,6.3984-18.1395,20.825s21.1,28.4931,36.07,31.4183,23.0909-6.3984,18.14-20.8251S416.6672,240.2519,401.6977,237.3266ZM432.33,274.47l-3.2764,2.0684.3731,4.6253-4.9575-.3557-2.2229,3.0525-5.5035-2.6982-4.3094.7807-4.7889-4.4227-5.4087-1.67-2.9763-5.1339-5.2694-3.7384-.4826-4.669-3.9222-4.95,2.1217-3.1346-1.6768-5.028,4.24-.882.9524-3.9537,5.3871,1.5726,3.3642-1.974,5.3,3.6671,5.0046.4581,3.9987,4.9212,5.4986,2.7853,1.7815,5.0481,4.7332,4.4743-.8442,4.0185Z"/><path class="a" d="M400.3071,238.9784c-14.97-2.9252-23.0909,6.3984-18.1395,20.8251s21.1,28.493,36.07,31.4182,23.0909-6.3984,18.14-20.825S415.2765,241.9037,400.3071,238.9784Zm30.632,37.1431-3.2763,2.0685.3731,4.6252-4.9576-.3557-2.2228,3.0526-5.5035-2.6983-4.3095.7807-4.7888-4.4226-5.4087-1.67-2.9764-5.134-5.2693-3.7383-.4826-4.6691-3.9223-4.95,2.1217-3.1347-1.6767-5.0279,4.24-.882.9523-3.9538,5.3871,1.5727,3.3642-1.974,5.3,3.667,5.0045.4581,3.9988,4.9213,5.4985,2.7852,1.7816,5.0482,4.7331,4.4742-.8441,4.0185Z"/><ellipse class="b" cx="435.7192" cy="342.1571" rx="2.0948" ry="3.6283" transform="translate(-108.4707 445.984) rotate(-48.9432)"/><ellipse class="b" cx="441.0086" cy="357.5685" rx="2.0948" ry="3.6283" transform="matrix(0.6568, -0.7541, 0.7541, 0.6568, -118.2765, 455.2616)"/><ellipse class="b" cx="459.5215" cy="411.5084" rx="2.0948" ry="3.6283" transform="translate(-152.5969 487.7332) rotate(-48.9432)"/><ellipse class="b" cx="464.8109" cy="426.9198" rx="2.0948" ry="3.6283" transform="translate(-162.4027 497.0108) rotate(-48.9432)"/><ellipse class="b" cx="483.3238" cy="480.8597" rx="2.0948" ry="3.6283" transform="translate(-196.7231 529.4825) rotate(-48.9432)"/><ellipse class="b" cx="488.6132" cy="496.2711" rx="2.0948" ry="3.6283" transform="translate(-206.5289 538.7601) rotate(-48.9432)"/><polyline class="a" points="490.093 545.967 490.779 543.884 495.019 543.002 495.972 539.048 501.359 540.621 504.723 538.647 510.023 542.314 515.028 542.772 519.026 547.693 524.525 550.478 526.307 555.527 531.04 560.001 530.196 564.019 533.079 569.158 532.236 570.655"/><polygon class="a" points="503.803 540.529 509.103 544.196 514.108 544.654 518.106 549.575 523.605 552.36 525.386 557.408 530.12 561.883 529.275 565.901 532.159 571.04 528.883 573.108 529.256 577.733 524.298 577.378 522.075 580.43 516.572 577.732 512.262 578.513 507.474 574.09 502.065 572.42 499.088 567.286 493.819 563.547 493.337 558.878 489.414 553.928 491.536 550.794 489.859 545.766 494.099 544.884 495.052 540.93 500.439 542.503 503.803 540.529"/><ellipse class="b" cx="510.4921" cy="560.0182" rx="2.0948" ry="3.6283" transform="translate(-247.0893 577.1356) rotate(-48.9432)"/><path class="b" d="M512.6144,561.6389a5.6711,5.6711,0,0,1-3.8693-3.37"/><ellipse class="b" cx="199.298" cy="29.225" rx="2.0948" ry="3.6283" transform="translate(106.4027 207.9546) rotate(-70.8791)"/><path class="a" d="M181.8966,6.2918c-14.9788,2.8788-19.029,14.5612-9.0467,26.0937s30.2168,18.5478,45.1956,15.669,19.0289-14.5612,9.0467-26.0937S196.875,3.4132,181.8966,6.2918Zm42.29,23.0109L221.92,32.4453l2.0739,4.151-4.7315,1.5221-.9216,3.6619-6.113-.447-3.7058,2.3341-6.0943-2.3135-5.6411.4712-4.6788-3.65-6.2843-1.4992-2.1919-4.1508-5.4875-3.1264.7971-3.7L175.5076,21.66l3.6038-2.4021-.5936-4.0233,5.5845-.5537,2.3833-3.0878,6.2861,1.4216,4.8134-1.4446,5.5477,3.0712,6.1409.53,3.5384,4.0172,6.0619,2.3822.7182,4.0429Z"/><path class="a" d="M181.2237,8.3435c-14.9788,2.8789-19.029,14.5613-9.0467,26.0938s30.2168,18.5478,45.1956,15.669,19.0289-14.5612,9.0467-26.0937S196.2021,5.465,181.2237,8.3435Zm42.29,23.0109-2.2664,3.1427,2.0739,4.151L218.59,40.17l-.9216,3.662-6.113-.447-3.7058,2.334-6.0943-2.3135-5.6411.4713-4.6788-3.65-6.2843-1.4992-2.1919-4.1508L177.4712,31.45l.7971-3.7-3.4336-4.0376,3.6038-2.4022-.5936-4.0233,5.5846-.5536,2.3832-3.0879,6.2861,1.4217,4.8134-1.4446,5.5477,3.0712,6.1409.5295,3.5384,4.0171,6.0619,2.3822.7182,4.0429Z"/><polyline class="a" points="379.19 259.566 379.049 257.377 382.653 254.975 382.059 250.952 387.644 250.398 390.027 247.31 396.313 248.732 401.126 247.287 406.674 250.358 412.815 250.888 416.353 254.905 422.415 257.287 423.134 261.33 427.728 265.019 427.506 266.723"/><polygon class="a" points="389.876 249.4 396.163 250.821 400.976 249.377 406.524 252.448 412.665 252.977 416.203 256.994 422.265 259.377 422.983 263.42 427.577 267.109 425.311 270.251 427.385 274.402 422.653 275.924 421.732 279.586 415.619 279.139 411.913 281.473 405.819 279.16 400.178 279.631 395.499 275.981 389.215 274.481 387.023 270.331 381.535 267.204 382.332 263.504 378.898 259.467 382.502 257.064 381.909 253.041 387.493 252.487 389.876 249.4"/><ellipse class="b" cx="403.3618" cy="264.9793" rx="2.0948" ry="3.6283" transform="translate(20.8752 559.2899) rotate(-70.8791)"/><path class="b" d="M405.9359,265.69a5.6708,5.6708,0,0,1-4.8481-1.6808"/><polygon class="a" points="423.418 297.881 406.657 300.908 163.994 20.56 180.755 17.533 423.418 297.881"/><polygon class="a" points="423.278 298.002 428.676 281.848 186.013 1.501 169.252 4.527 423.278 298.002"/><polygon class="a" points="186.013 1.5 180.478 16.863 164.14 20.003 169.392 4.405 186.013 1.5"/><ellipse class="b" cx="246.9674" cy="104.2945" rx="2.0948" ry="3.6283" transform="translate(67.5295 303.4735) rotate(-70.8791)"/><ellipse class="b" cx="257.631" cy="116.6142" rx="2.0948" ry="3.6283" transform="matrix(0.3276, -0.9448, 0.9448, 0.3276, 63.0601, 321.833)"/><ellipse class="b" cx="294.9539" cy="159.7331" rx="2.0948" ry="3.6283" transform="matrix(0.3276, -0.9448, 0.9448, 0.3276, 47.4173, 386.0915)"/><ellipse class="b" cx="305.6175" cy="172.0528" rx="2.0948" ry="3.6283" transform="translate(42.9479 404.4511) rotate(-70.8791)"/><ellipse class="b" cx="342.9404" cy="215.1718" rx="2.0948" ry="3.6283" transform="translate(27.3051 468.7096) rotate(-70.8791)"/><ellipse class="b" cx="353.604" cy="227.4915" rx="2.0948" ry="3.6283" transform="translate(22.8358 487.0691) rotate(-70.8791)"/><polyline class="c" points="495.739 495.047 336.941 678.69 320.613 675.499 488.7 480.577"/><polygon class="c" points="491.257 481.599 332.458 665.242 316.13 662.051 474.754 478.085 491.257 481.599"/><polygon class="c" points="337.413 678.932 332.93 665.484 316.12 662.122 320.603 675.57 337.413 678.932"/><line class="d" x1="490.9417" y1="481.698" x2="495.4243" y2="495.1457"/><polyline class="c" points="448.672 356.086 289.873 539.729 273.545 536.539 441.633 341.617"/><polygon class="c" points="444.19 342.639 285.391 526.281 269.063 523.091 427.687 339.125 444.19 342.639"/><polygon class="c" points="290.346 539.972 285.863 526.524 269.053 523.162 273.536 536.61 290.346 539.972"/><line class="d" x1="443.8744" y1="342.7375" x2="448.357" y2="356.1853"/><polyline class="c" points="348.619 211.622 179.401 392.046 185.005 405.494 185.014 405.423 195.739 405.251 360.141 224.971"/><polygon class="c" points="348.934 211.523 185.005 393.167 173.808 391.975 333.552 214.733 348.934 211.523"/><polygon class="c" points="196.211 405.494 185.005 393.167 173.798 392.046 185.005 405.494 196.211 405.494"/><line class="d" x1="348.6193" y1="211.6216" x2="359.8258" y2="225.0694"/><polyline class="c" points="252.244 100.677 83.026 281.102 88.629 294.55 88.638 294.478 99.363 294.307 263.765 114.026"/><polygon class="c" points="252.559 100.579 88.629 282.222 77.432 281.031 237.177 103.788 252.559 100.579"/><polygon class="c" points="99.835 294.55 88.629 282.222 77.422 281.102 88.629 294.55 99.835 294.55"/><line class="d" x1="252.2435" y1="100.6774" x2="263.45" y2="114.1252"/><polygon class="a" points="364.584 761.345 347.905 757.892 227.54 407.189 244.218 410.643 364.584 761.345"/><polygon class="a" points="364.408 761.406 375.45 748.438 255.084 397.735 238.406 394.281 364.408 761.406"/><polyline class="a" points="255.084 397.734 244.211 409.918 227.883 406.727 238.581 394.22"/><ellipse class="b" cx="246.7782" cy="438.8007" rx="2.0948" ry="3.6283" transform="translate(-246.189 336.6787) rotate(-48.9432)"/><path class="a" d="M239.2037,411.0271c-14.97-2.9252-23.0909,6.3984-18.1395,20.8251s21.1,28.493,36.07,31.4182,23.0909-6.3984,18.14-20.825S254.1731,413.9524,239.2037,411.0271Zm30.632,37.1431-3.2763,2.0685.3731,4.6252-4.9576-.3557-2.2229,3.0526-5.5034-2.6983-4.31.7807-4.7888-4.4226-5.4087-1.67-2.9764-5.134-5.2693-3.7383-.4826-4.6691-3.9223-4.95,2.1217-3.1347-1.6767-5.0279,4.24-.882.9523-3.9538,5.3871,1.5727,3.3642-1.974,5.3,3.667,5.0045.4581,3.9988,4.9213,5.4985,2.7852,1.7816,5.0482,4.7331,4.4742-.8441,4.0185Z"/><path class="a" d="M237.813,412.679c-14.97-2.9252-23.0909,6.3984-18.1395,20.825s21.1,28.4931,36.07,31.4183,23.0909-6.3984,18.14-20.8251S252.7824,415.6043,237.813,412.679Zm30.6321,37.143-3.2764,2.0685.3731,4.6252-4.9575-.3556-2.2229,3.0525-5.5035-2.6983-4.3094.7808-4.7889-4.4227-5.4087-1.67-2.9763-5.1339-5.2694-3.7384-.4826-4.669-3.9222-4.95,2.1216-3.1346-1.6767-5.028,4.24-.882.9524-3.9537,5.387,1.5726,3.3643-1.974,5.3,3.6671,5.0045.458,3.9988,4.9213,5.4986,2.7853,1.7815,5.0481,4.7331,4.4743-.8441,4.0185Z"/><ellipse class="b" cx="273.2252" cy="515.8576" rx="2.0948" ry="3.6283" transform="matrix(0.6568, -0.7541, 0.7541, 0.6568, -295.218, 383.0668)"/><ellipse class="b" cx="278.5146" cy="531.269" rx="2.0948" ry="3.6283" transform="matrix(0.6568, -0.7541, 0.7541, 0.6568, -305.0239, 392.3444)"/><ellipse class="b" cx="297.0275" cy="585.2089" rx="2.0948" ry="3.6283" transform="translate(-339.3442 424.816) rotate(-48.9432)"/><ellipse class="b" cx="302.3169" cy="600.6203" rx="2.0948" ry="3.6283" transform="translate(-349.15 434.0936) rotate(-48.9432)"/><ellipse class="b" cx="320.8297" cy="654.5602" rx="2.0948" ry="3.6283" transform="translate(-383.4704 466.5652) rotate(-48.9432)"/><ellipse class="b" cx="326.1191" cy="669.9716" rx="2.0948" ry="3.6283" transform="translate(-393.2762 475.8428) rotate(-48.9432)"/><polyline class="a" points="327.599 719.668 328.285 717.584 332.525 716.702 333.478 712.749 338.865 714.321 342.229 712.347 347.529 716.014 352.534 716.472 356.532 721.394 362.031 724.179 363.812 729.227 368.546 733.701 367.702 737.72 370.585 742.858 369.742 744.355"/><polygon class="a" points="341.309 714.229 346.609 717.896 351.614 718.354 355.612 723.276 361.111 726.061 362.892 731.109 367.626 735.583 366.781 739.602 369.665 744.74 366.389 746.809 366.762 751.434 361.804 751.078 359.581 754.131 354.078 751.432 349.768 752.213 344.98 747.79 339.571 746.12 336.594 740.986 331.325 737.248 330.843 732.579 326.92 727.629 329.042 724.494 327.365 719.466 331.605 718.584 332.558 714.631 337.945 716.203 341.309 714.229"/><ellipse class="b" cx="347.998" cy="733.7187" rx="2.0948" ry="3.6283" transform="translate(-433.8366 514.2184) rotate(-48.9432)"/><path class="b" d="M350.12,735.3394a5.6708,5.6708,0,0,1-3.8692-3.37"/><ellipse class="b" cx="36.804" cy="202.9256" rx="2.0948" ry="3.6283" transform="translate(-166.9817 171.2281) rotate(-70.8791)"/><path class="a" d="M19.4025,179.9923C4.4238,182.8711.3736,194.5536,10.3558,206.086s30.2169,18.5479,45.1956,15.6691,19.029-14.5613,9.0467-26.0938S34.381,177.1138,19.4025,179.9923Zm42.29,23.0109-2.2664,3.1427,2.0739,4.151-4.7315,1.522-.9216,3.662-6.113-.447-3.7058,2.334-6.0943-2.3135-5.6411.4713-4.6787-3.65-6.2844-1.4993-2.1919-4.1507L15.65,203.0988l.7971-3.7-3.4336-4.0375,3.6038-2.4022-.5936-4.0233,5.5846-.5536,2.3832-3.0879,6.2861,1.4217,4.8134-1.4446,5.5477,3.0711,6.1409.53,3.5384,4.0171,6.062,2.3822.7181,4.0429Z"/><path class="a" d="M18.73,182.0441C3.7509,184.9229-.2993,196.6053,9.6829,208.1378S39.9,226.6856,54.8785,223.8068s19.029-14.5612,9.0467-26.0937S33.7081,179.1655,18.73,182.0441Zm42.29,23.0109-2.2664,3.1426,2.0739,4.151-4.7315,1.5221-.9216,3.6619-6.113-.447L45.355,219.42l-6.0943-2.3135-5.6411.4712-4.6787-3.65-6.2844-1.4992-2.1919-4.1507-5.4875-3.1265.7971-3.7-3.4336-4.0376,3.6038-2.4021-.5936-4.0233,5.5846-.5537,2.3832-3.0878,6.2861,1.4216,4.8134-1.4446,5.5477,3.0712,6.141.5295,3.5383,4.0172,6.062,2.3822.7181,4.0429Z"/><polyline class="a" points="216.696 433.267 216.555 431.078 220.159 428.676 219.565 424.652 225.15 424.098 227.533 421.011 233.819 422.432 238.632 420.988 244.18 424.059 250.321 424.588 253.859 428.606 259.921 430.988 260.64 435.031 265.234 438.72 265.011 440.423"/><polygon class="a" points="227.382 423.1 233.668 424.522 238.482 423.077 244.03 426.148 250.171 426.678 253.709 430.695 259.771 433.077 260.489 437.12 265.083 440.809 262.817 443.952 264.891 448.103 260.159 449.625 259.238 453.287 253.125 452.84 249.419 455.174 243.325 452.86 237.684 453.332 233.005 449.681 226.72 448.182 224.529 444.031 219.041 440.905 219.838 437.204 216.404 433.167 220.008 430.765 219.415 426.741 224.999 426.188 227.382 423.1"/><ellipse class="b" cx="240.8678" cy="438.6798" rx="2.0948" ry="3.6283" transform="translate(-252.5092 522.5634) rotate(-70.8791)"/><path class="b" d="M243.4419,439.39a5.6711,5.6711,0,0,1-4.8481-1.6809"/><polygon class="a" points="260.924 471.581 244.163 474.608 1.5 194.26 18.261 191.234 260.924 471.581"/><polygon class="a" points="260.784 471.703 266.182 455.549 23.519 175.201 6.758 178.227 260.784 471.703"/><polygon class="a" points="23.519 175.201 17.984 190.564 1.646 193.704 6.898 178.106 23.519 175.201"/><ellipse class="b" cx="84.4733" cy="277.995" rx="2.0948" ry="3.6283" transform="translate(-205.8549 266.747) rotate(-70.8791)"/><ellipse class="b" cx="95.137" cy="290.3147" rx="2.0948" ry="3.6283" transform="translate(-210.3243 285.1065) rotate(-70.8791)"/><ellipse class="b" cx="132.4598" cy="333.4337" rx="2.0948" ry="3.6283" transform="translate(-225.9671 349.365) rotate(-70.8791)"/><ellipse class="b" cx="143.1235" cy="345.7534" rx="2.0948" ry="3.6283" transform="translate(-230.4364 367.7246) rotate(-70.8791)"/><ellipse class="b" cx="180.4463" cy="388.8723" rx="2.0948" ry="3.6283" transform="translate(-246.0792 431.9831) rotate(-70.8791)"/><ellipse class="b" cx="191.11" cy="401.192" rx="2.0948" ry="3.6283" transform="translate(-250.5486 450.3426) rotate(-70.8791)"/></svg>