<svg xmlns="http://www.w3.org/2000/svg" viewBox="0 0 400.0958 318.3768"><defs><style>.a,.b{opacity:0.6;}.b,.c{fill:#606060;}.d{fill:#d91519;}.e{fill:none;stroke:#606060;stroke-linecap:round;stroke-linejoin:round;stroke-width:2px;}</style></defs><title>refuerzo</title><g class="a"><rect class="b" x="6.3866" y="18.5491" width="14.4875" height="288.941" transform="translate(27.2606 326.0392) rotate(-180)"/><rect class="c" width="6.5918" height="65.544"/><rect class="c" y="252.8328" width="6.5918" height="65.544"/></g><g class="a"><rect class="b" x="385.6083" y="18.5491" width="14.4875" height="288.941" transform="translate(785.7041 326.0392) rotate(-180)"/><rect class="c" x="379.2218" width="6.5918" height="65.544"/><rect class="c" x="379.2218" y="252.8328" width="6.5918" height="65.544"/></g><rect class="d" x="65.8302" y="82.6221" width="273.5601" height="14.2823"/><rect class="d" x="65.8302" y="219.9514" width="273.5601" height="14.2823"/><line class="e" x1="56.337" y1="90.3125" x2="41.8765" y2="90.3125"/><polygon class="c" points="43.627 84.329 33.266 90.312 43.627 96.295 43.627 84.329"/><line class="e" x1="56.337" y1="227.6419" x2="41.8765" y2="227.6419"/><polygon class="c" points="43.627 221.658 33.266 227.641 43.627 233.625 43.627 221.658"/><line class="e" x1="372.9548" y1="90.3125" x2="358.4943" y2="90.3125"/><polygon class="c" points="360.245 84.329 349.883 90.312 360.245 96.295 360.245 84.329"/><line class="e" x1="372.9548" y1="227.6419" x2="358.4943" y2="227.6419"/><polygon class="c" points="360.245 221.658 349.883 227.641 360.245 233.625 360.245 221.658"/></svg>