<svg xmlns="http://www.w3.org/2000/svg" viewBox="0 0 718.5243 444.4819"><defs><style>.a{font-size:33px;font-family:Lato-Italic, Lato;font-style:italic;}.a,.b{fill:#606060;}.b{opacity:0.5;}.c,.d,.f{fill:none;}.c,.f{stroke:#d91519;}.c,.d{stroke-miterlimit:10;}.c{stroke-width:2px;}.d{stroke:#606060;stroke-width:4px;}.e{fill:#d91519;}.f{stroke-linecap:square;stroke-linejoin:round;stroke-width:3px;stroke-dasharray:0 9;}</style></defs><title>superior</title><text class="a" transform="translate(529.0254 28.322)">Vista superior</text><rect class="b" x="127.8329" y="184.3099" width="458.4322" height="255.5509"/><line class="c" x1="155.6663" y1="184.3099" x2="155.6663" y2="439.8608"/><line class="c" x1="199.8723" y1="184.3099" x2="199.8723" y2="439.8608"/><line class="c" x1="266.9998" y1="184.3099" x2="266.9998" y2="439.8608"/><line class="c" x1="357.049" y1="184.3099" x2="357.049" y2="439.8608"/><line class="c" x1="447.0982" y1="184.3099" x2="447.0982" y2="439.8608"/><line class="c" x1="514.2258" y1="184.3099" x2="514.2258" y2="439.8608"/><line class="c" x1="560.069" y1="184.3099" x2="560.069" y2="439.8608"/><line class="d" x1="267.1998" y1="439.8608" x2="357.0532" y2="439.8608"/><line class="d" x1="267.1998" y1="354.6772" x2="357.0532" y2="354.6772"/><line class="d" x1="267.1998" y1="269.4934" x2="357.0532" y2="269.4934"/><line class="d" x1="267.1998" y1="184.3098" x2="357.0532" y2="184.3098"/><line class="d" x1="199.8098" y1="439.8608" x2="267.1998" y2="439.8608"/><rect class="e" x="262.5788" y="435.2397" width="9.2422" height="9.2422"/><line class="d" x1="199.8098" y1="354.6772" x2="267.1998" y2="354.6772"/><rect class="e" x="262.5788" y="350.0562" width="9.2422" height="9.2422"/><line class="d" x1="199.8098" y1="269.4934" x2="267.1998" y2="269.4934"/><rect class="e" x="262.5788" y="264.8723" width="9.2422" height="9.2422"/><line class="d" x1="199.8098" y1="184.3098" x2="267.1998" y2="184.3098"/><rect class="e" x="262.5788" y="179.6887" width="9.2422" height="9.2422"/><line class="d" x1="154.8831" y1="439.8608" x2="199.8098" y2="439.8608"/><rect class="e" x="195.1887" y="435.2397" width="9.2422" height="9.2422"/><line class="d" x1="154.8831" y1="354.6772" x2="199.8098" y2="354.6772"/><rect class="e" x="195.1887" y="350.0562" width="9.2422" height="9.2422"/><line class="d" x1="154.8831" y1="269.4934" x2="199.8098" y2="269.4934"/><rect class="e" x="195.1887" y="264.8723" width="9.2422" height="9.2422"/><line class="d" x1="154.8831" y1="184.3098" x2="199.8098" y2="184.3098"/><rect class="e" x="195.1887" y="179.6887" width="9.2422" height="9.2422"/><line class="d" x1="127.4279" y1="439.8608" x2="154.8831" y2="439.8608"/><rect class="e" x="150.262" y="435.2397" width="9.2422" height="9.2422"/><line class="d" x1="127.4279" y1="354.6772" x2="154.8831" y2="354.6772"/><rect class="e" x="150.262" y="350.0562" width="9.2422" height="9.2422"/><line class="d" x1="127.4279" y1="269.4934" x2="154.8831" y2="269.4934"/><rect class="e" x="150.262" y="264.8723" width="9.2422" height="9.2422"/><line class="d" x1="127.4279" y1="184.3098" x2="154.8831" y2="184.3098"/><rect class="e" x="150.262" y="179.6887" width="9.2422" height="9.2422"/><line class="d" x1="446.9025" y1="439.8608" x2="357.0491" y2="439.8608"/><rect class="e" x="352.4279" y="435.2397" width="9.2422" height="9.2422"/><line class="d" x1="446.9025" y1="354.6772" x2="357.0491" y2="354.6772"/><rect class="e" x="352.4279" y="350.0562" width="9.2422" height="9.2422"/><line class="d" x1="446.9025" y1="269.4934" x2="357.0491" y2="269.4934"/><rect class="e" x="352.4279" y="264.8723" width="9.2422" height="9.2422"/><line class="d" x1="446.9025" y1="184.3098" x2="357.0491" y2="184.3098"/><rect class="e" x="352.4279" y="179.6887" width="9.2422" height="9.2422"/><line class="d" x1="514.2925" y1="439.8608" x2="446.9025" y2="439.8608"/><rect class="e" x="442.2814" y="435.2397" width="9.2422" height="9.2422"/><line class="d" x1="514.2925" y1="354.6772" x2="446.9025" y2="354.6772"/><rect class="e" x="442.2814" y="350.0562" width="9.2422" height="9.2422"/><line class="d" x1="514.2925" y1="269.4934" x2="446.9025" y2="269.4934"/><rect class="e" x="442.2814" y="264.8723" width="9.2422" height="9.2422"/><line class="d" x1="514.2925" y1="184.3098" x2="446.9025" y2="184.3098"/><rect class="e" x="442.2814" y="179.6887" width="9.2422" height="9.2422"/><line class="d" x1="559.2193" y1="439.8608" x2="514.2925" y2="439.8608"/><rect class="e" x="509.6714" y="435.2397" width="9.2422" height="9.2422"/><line class="d" x1="559.2193" y1="354.6772" x2="514.2925" y2="354.6772"/><rect class="e" x="509.6714" y="350.0562" width="9.2422" height="9.2422"/><line class="d" x1="559.2193" y1="269.4934" x2="514.2925" y2="269.4934"/><rect class="e" x="509.6714" y="264.8723" width="9.2422" height="9.2422"/><line class="d" x1="559.2193" y1="184.3098" x2="514.2925" y2="184.3098"/><rect class="e" x="509.6714" y="179.6887" width="9.2422" height="9.2422"/><line class="d" x1="586.6745" y1="439.8608" x2="559.2193" y2="439.8608"/><rect class="e" x="554.5982" y="435.2397" width="9.2422" height="9.2422"/><line class="d" x1="586.6745" y1="354.6772" x2="559.2193" y2="354.6772"/><rect class="e" x="554.5982" y="350.0562" width="9.2422" height="9.2422"/><line class="d" x1="586.6745" y1="269.4934" x2="559.2193" y2="269.4934"/><rect class="e" x="554.5982" y="264.8723" width="9.2422" height="9.2422"/><line class="d" x1="586.6745" y1="184.3098" x2="559.2193" y2="184.3098"/><rect class="e" x="554.5982" y="179.6887" width="9.2422" height="9.2422"/><rect class="f" x="86.6836" y="134.3108" width="537.0272" height="305.5499"/><rect class="f" x="44.0918" y="99.1263" width="622.2108" height="340.7345"/><rect class="f" x="1.5" y="58.3863" width="707.3944" height="381.4745"/></svg>