<svg xmlns="http://www.w3.org/2000/svg" viewBox="0 0 793.3467 447.0158"><defs><style>.a{fill:none;}.a,.b{stroke:#fff;stroke-linecap:round;stroke-linejoin:round;stroke-width:3px;}.b{fill:#d91519;}</style></defs><title>estufa_white</title><path class="a" d="M345.6413,424.1748,16.587,225.322c-21.6849-13.1045-19.5758-45.2133,3.637-55.3687L399.28,4.12a31.2464,31.2464,0,0,1,28.2811,1.6444L776.3556,209.4562c22.4218,13.0941,20.0169,46.2362-4.06,55.9562L373.499,426.4067A31.2463,31.2463,0,0,1,345.6413,424.1748Z"/><path class="a" d="M777.6557,262.65h0a40.66,40.66,0,0,1-24.0577,27.1949L373.6155,443.2438a31.2463,31.2463,0,0,1-27.8577-2.2319L35.6564,253.6126a55.7965,55.7965,0,0,1-24.8932-32.7867h0"/><ellipse class="a" cx="410.8074" cy="300.1216" rx="90.7761" ry="45.388" transform="translate(-2.0677 2.8509) rotate(-0.3966)"/><path class="a" d="M501.2331,302.0579c.2077,30.0139-39.5693,49.3234-89.7024,49.6705s-90.93-21.8882-91.1033-46.9547"/><ellipse class="a" cx="412.635" cy="299.7429" rx="77.9649" ry="37.7014" transform="translate(-2.065 2.8635) rotate(-0.3966)"/><ellipse class="a" cx="411.4761" cy="290.9659" rx="34.041" ry="16.8375" transform="translate(-2.0043 2.8553) rotate(-0.3966)"/><path class="a" d="M445.5164,290.73c.1064,15.373-14.7223,22.0643-33.5222,22.1945s-35.9261-7.8042-34.5431-19.5271"/><ellipse class="a" cx="411.8422" cy="290.9634" rx="18.6677" ry="9.1508" transform="translate(-2.0042 2.8578) rotate(-0.3966)"/><polygon class="b" points="411.903 299.748 403.623 299.223 395.36 342.323 404.149 342.994 411.903 299.748"/><polygon class="b" points="404.932 350.31 395.41 349.644 395.36 342.323 404.149 342.994 404.932 350.31"/><polygon class="b" points="411.908 300.48 411.949 306.336 404.927 349.578 404.876 342.257 411.908 300.48"/><polygon class="b" points="426.729 220.58 418.448 220.055 410.186 263.156 418.975 263.827 426.729 220.58"/><polygon class="b" points="419.758 271.142 410.236 270.476 410.186 263.156 418.975 263.827 419.758 271.142"/><polygon class="b" points="426.734 221.312 426.774 227.169 419.753 270.41 419.702 263.09 426.734 221.312"/><polygon class="b" points="376.597 275.834 374.437 280.973 284.375 278.668 288.731 273.514 376.597 275.834"/><polygon class="b" points="374.437 280.973 374.477 286.83 284.415 284.525 284.375 278.668 374.437 280.973"/><polygon class="b" points="376.597 275.834 376.638 281.69 374.477 286.83 374.437 280.973 376.597 275.834"/><polygon class="b" points="333.175 295.534 324.385 294.863 324.319 285.347 333.109 286.018 333.175 295.534"/><polygon class="b" points="448.761 275.441 450.758 280.646 540.848 281.193 536.657 275.903 448.761 275.441"/><polygon class="b" points="450.758 280.646 450.532 286.499 540.622 287.045 540.848 281.193 450.758 280.646"/><polygon class="b" points="448.761 275.441 448.535 281.293 450.532 286.499 450.758 280.646 448.761 275.441"/><polygon class="b" points="491.538 296.506 500.345 296.114 500.712 286.604 491.905 286.997 491.538 296.506"/><ellipse class="a" cx="409.5355" cy="116.3776" rx="90.7761" ry="45.388" transform="translate(-0.7958 2.8377) rotate(-0.3966)"/><path class="a" d="M499.9611,118.3139c.2078,30.014-39.5693,49.3235-89.7023,49.67s-90.93-21.8882-91.1033-46.9547"/><ellipse class="a" cx="411.3631" cy="115.9989" rx="77.9649" ry="37.7014" transform="translate(-0.7931 2.8503) rotate(-0.3966)"/><ellipse class="a" cx="410.2042" cy="107.2219" rx="34.041" ry="16.8375" transform="translate(-0.7324 2.8421) rotate(-0.3966)"/><path class="a" d="M444.2444,106.9863c.1064,15.373-14.7223,22.0644-33.5222,22.1945s-35.926-7.8042-34.543-19.5271"/><ellipse class="a" cx="410.5702" cy="107.2194" rx="18.6677" ry="9.1508" transform="translate(-0.7324 2.8446) rotate(-0.3966)"/><polygon class="b" points="410.454 116.126 402.196 115.603 393.957 158.582 402.722 159.252 410.454 116.126"/><polygon class="b" points="403.66 166.566 394.139 165.9 394.088 158.579 402.877 159.251 403.66 166.566"/><polygon class="b" points="410.636 116.736 410.677 122.592 403.655 165.834 403.604 158.513 410.636 116.736"/><polygon class="b" points="425.457 36.836 417.176 36.311 408.914 79.412 417.703 80.083 425.457 36.836"/><polygon class="b" points="418.486 87.398 408.964 86.732 408.914 79.412 417.703 80.083 418.486 87.398"/><polygon class="b" points="425.462 37.568 425.502 43.425 418.481 86.666 418.43 79.346 425.462 37.568"/><polygon class="b" points="375.326 92.09 373.165 97.229 283.103 94.924 287.46 89.77 375.326 92.09"/><polygon class="b" points="373.092 97.404 373.133 103.244 283.323 100.945 283.282 95.106 373.092 97.404"/><polygon class="b" points="375.326 92.09 375.366 97.946 373.205 103.086 373.165 97.229 375.326 92.09"/><polygon class="b" points="331.903 111.79 323.113 111.119 323.047 101.603 331.837 102.274 331.903 111.79"/><polygon class="b" points="447.489 91.697 449.486 96.903 539.576 97.449 535.385 92.159 447.489 91.697"/><polygon class="b" points="449.486 96.903 449.26 102.755 539.35 103.301 539.576 97.449 449.486 96.903"/><polygon class="b" points="447.489 91.697 447.263 97.549 449.26 102.755 449.486 96.903 447.489 91.697"/><polygon class="b" points="490.267 112.762 499.073 112.37 499.44 102.86 490.634 103.253 490.267 112.762"/><ellipse class="a" cx="230.7007" cy="192.288" rx="90.7761" ry="45.388" transform="translate(-1.3255 1.6016) rotate(-0.3966)"/><path class="a" d="M321.1263,194.2243c.2078,30.014-39.5693,49.3235-89.7023,49.6705s-90.93-21.8882-91.1033-46.9547"/><ellipse class="a" cx="232.5283" cy="191.9093" rx="77.9649" ry="37.7014" transform="translate(-1.3229 1.6142) rotate(-0.3966)"/><ellipse class="a" cx="231.3694" cy="183.1323" rx="34.041" ry="16.8375" transform="translate(-1.2621 1.606) rotate(-0.3966)"/><path class="a" d="M265.41,182.8967c.1065,15.373-14.7222,22.0644-33.5221,22.1945s-35.9261-7.8042-34.5431-19.5271"/><ellipse class="a" cx="231.7354" cy="183.1298" rx="18.6677" ry="9.1508" transform="translate(-1.2621 1.6085) rotate(-0.3966)"/><polygon class="b" points="231.796 191.914 223.516 191.389 215.253 234.49 224.043 235.161 231.796 191.914"/><polygon class="b" points="224.825 242.476 215.304 241.81 215.253 234.49 224.043 235.161 224.825 242.476"/><polygon class="b" points="231.801 192.646 231.842 198.503 224.82 241.744 224.77 234.424 231.801 192.646"/><polygon class="b" points="246.622 112.747 238.342 112.222 230.079 155.322 238.868 155.993 246.622 112.747"/><polygon class="b" points="239.651 163.309 230.129 162.643 230.079 155.322 238.868 155.993 239.651 163.309"/><polygon class="b" points="246.627 113.479 246.668 119.335 239.646 162.577 239.595 155.256 246.627 113.479"/><polygon class="b" points="196.491 168 194.33 173.14 104.268 170.835 108.625 165.68 196.491 168"/><polygon class="b" points="194.33 173.14 194.371 178.996 104.308 176.691 104.268 170.835 194.33 173.14"/><polygon class="b" points="196.491 168 196.531 173.856 194.371 178.996 194.33 173.14 196.491 168"/><polygon class="b" points="153.068 187.701 144.279 187.03 144.213 177.513 153.002 178.184 153.068 187.701"/><polygon class="b" points="268.654 167.608 270.651 172.813 360.741 173.36 356.55 168.069 268.654 167.608"/><polygon class="b" points="270.651 172.813 270.426 178.665 360.515 179.212 360.741 173.36 270.651 172.813"/><polygon class="b" points="268.654 167.608 268.429 173.46 270.426 178.665 270.651 172.813 268.654 167.608"/><polygon class="b" points="311.432 188.673 320.238 188.28 320.605 178.77 311.799 179.163 311.432 188.673"/><ellipse class="a" cx="586.6684" cy="217.643" rx="90.7761" ry="45.388" transform="translate(-1.4925 4.0663) rotate(-0.3966)"/><path class="a" d="M677.094,219.5793c.2078,30.014-39.5692,49.3235-89.7023,49.6705s-90.93-21.8882-91.1033-46.9547"/><ellipse class="a" cx="588.496" cy="217.2643" rx="77.9649" ry="37.7014" transform="translate(-1.4898 4.0789) rotate(-0.3966)"/><ellipse class="a" cx="587.3371" cy="208.4873" rx="34.041" ry="16.8375" transform="translate(-1.4291 4.0707) rotate(-0.3966)"/><path class="a" d="M621.3773,208.2517c.1065,15.373-14.7222,22.0644-33.5221,22.1945s-35.9261-7.8042-34.5431-19.5271"/><ellipse class="a" cx="587.7032" cy="208.4848" rx="18.6677" ry="9.1508" transform="translate(-1.4291 4.0732) rotate(-0.3966)"/><polygon class="b" points="587.764 217.269 579.484 216.744 571.221 259.845 580.01 260.516 587.764 217.269"/><polygon class="b" points="580.793 267.831 571.271 267.165 571.221 259.845 580.01 260.516 580.793 267.831"/><polygon class="b" points="587.769 218.001 587.81 223.858 580.788 267.099 580.737 259.779 587.769 218.001"/><polygon class="b" points="602.59 138.102 594.309 137.577 586.046 180.677 594.836 181.348 602.59 138.102"/><polygon class="b" points="595.619 188.664 586.097 187.998 586.046 180.677 594.836 181.348 595.619 188.664"/><polygon class="b" points="602.595 138.834 602.635 144.69 595.614 187.932 595.563 180.611 602.595 138.834"/><polygon class="b" points="552.458 193.355 550.298 198.495 460.236 196.19 464.592 191.035 552.458 193.355"/><polygon class="b" points="550.298 198.495 550.338 204.351 460.276 202.046 460.236 196.19 550.298 198.495"/><polygon class="b" points="552.458 193.355 552.499 199.211 550.338 204.351 550.298 198.495 552.458 193.355"/><polygon class="b" points="509.036 213.056 500.246 212.385 500.18 202.868 508.97 203.539 509.036 213.056"/><polygon class="b" points="624.622 192.963 626.619 198.168 716.709 198.715 712.518 193.424 624.622 192.963"/><polygon class="b" points="626.619 198.168 626.393 204.02 716.483 204.567 716.709 198.715 626.619 198.168"/><polygon class="b" points="624.622 192.963 624.396 198.815 626.393 204.02 626.619 198.168 624.622 192.963"/><polygon class="b" points="667.399 214.028 676.206 213.635 676.573 204.125 667.766 204.518 667.399 214.028"/><path class="a" d="M84.1963,232.4686l-.1723-24.89,8.7592-3.7211,5.1345,1.4286s8.8656,11.652,12.5461,14.5548,13.97,8.6883,3.7667,15.3477S86.4127,235.3816,84.1963,232.4686Z"/><path class="a" d="M84.1963,232.4686l.03,4.3923c.012,1.7361,2.9535,3.64,3.7224,4.0512,3.7289,1.9947,10.6074,5.8959,20.61,3.6648,9.3821-2.0928,11.0693-8.1422,10.1057-14.97q-.0215-.1513-.045-.3049"/><polyline class="a" points="84.024 207.579 89.158 209.008 97.918 205.287"/><path class="a" d="M89.1585,209.0076s3.7615,14.6156,6.71,17.5235c4.4227,4.3619,3.7413,11.6874,3.7413,11.6874"/><path class="a" d="M213.589,311.37l-.1723-24.89,8.7593-3.7211,5.1344,1.4286s8.8657,11.652,12.5462,14.5549,13.97,8.6882,3.7666,15.3476S215.8054,314.2829,213.589,311.37Z"/><path class="a" d="M213.589,311.37l.03,4.3923c.012,1.7361,2.9536,3.64,3.7225,4.0513,3.7289,1.9946,10.6073,5.8958,20.61,3.6647,9.3822-2.0927,11.0693-8.1422,10.1057-14.97q-.0213-.1513-.0449-.3049"/><polyline class="a" points="213.417 286.48 218.551 287.909 227.31 284.188"/><path class="a" d="M218.5512,287.9089s3.7616,14.6156,6.71,17.5235c4.4227,4.3619,3.7414,11.6875,3.7414,11.6875"/><path class="a" d="M279.0149,350.45l-.1723-24.89,8.7592-3.721,5.1345,1.4286s8.8657,11.652,12.5462,14.5548,13.97,8.6883,3.7666,15.3477S281.2313,353.3624,279.0149,350.45Z"/><path class="a" d="M279.0149,350.45l.03,4.3922c.012,1.7361,2.9535,3.64,3.7224,4.0513,3.7289,1.9947,10.6074,5.8959,20.61,3.6647,9.3821-2.0927,11.0693-8.1422,10.1057-14.97q-.0213-.1514-.0449-.305"/><polyline class="a" points="278.843 325.56 283.977 326.988 292.736 323.267"/><path class="a" d="M283.9771,326.9885s3.7616,14.6156,6.71,17.5235c4.4227,4.3619,3.7413,11.6874,3.7413,11.6874"/><path class="a" d="M149.6272,272.28l-.1723-24.89,8.7593-3.7211,5.1344,1.4287s8.8657,11.6519,12.5462,14.5548,13.97,8.6882,3.7667,15.3476S151.8436,275.1932,149.6272,272.28Z"/><path class="a" d="M149.6272,272.28l.03,4.3923c.0121,1.7361,2.9536,3.64,3.7225,4.0513,3.7289,1.9946,10.6074,5.8958,20.61,3.6647,9.3822-2.0927,11.0693-8.1422,10.1057-14.97q-.0213-.1513-.0449-.3049"/><polyline class="a" points="149.455 247.391 154.589 248.819 163.349 245.098"/><path class="a" d="M154.5894,248.8192s3.7616,14.6156,6.71,17.5235c4.4226,4.3619,3.7413,11.6875,3.7413,11.6875"/></svg>