<svg xmlns="http://www.w3.org/2000/svg" viewBox="0 0 669.8334 430.5742"><defs><style>.a{fill:#d91519;}.b{font-size:24.7783px;font-family:Lato-Italic, Lato;font-style:italic;}.b,.c,.e{fill:#606060;}.c,.d{opacity:0.5;}.f,.g{fill:none;stroke-miterlimit:10;}.f{stroke:#606060;stroke-width:2px;}.g{stroke:#d91519;stroke-width:3px;}</style></defs><title>estufa_cel</title><path class="a" d="M564.6566,250.0672a2.0341,2.0341,0,0,1-.8511-.1882c-3.7162-1.7157-11.8179-7.3713-6.8087-22.8059a16.22,16.22,0,0,1,1.9195-3.9389c1.1788-1.781,1.4434-2.9138,1.298-3.38a1.4552,1.4552,0,0,1,.2152-1.47,1.1843,1.1843,0,0,1,1.1462-.3485c1.133.257,2.8527,3.0119,3.5584,4.93,2.1143-3.2386,5.1909-9.3511,4.0774-16.2678a1.9838,1.9838,0,0,1,.7152-1.8733,2.0206,2.0206,0,0,1,1.9914-.3205c3.206,1.2214,10.7721,4.9128,13.1415,13.1516a1.9844,1.9844,0,0,1,1.2777-.9638,2.0188,2.0188,0,0,1,2.0889.7588c2.7531,3.7071,7.1852,11.0991,5.9423,18.9541-.8,5.0586-3.8172,9.4809-8.9666,13.1429a2.0145,2.0145,0,0,1-2.1841.1112,1.9906,1.9906,0,0,1-1.0051-1.9155h0c.3677-4.3489.6795-14.8454-4.1617-19.6308a83.1283,83.1283,0,0,1-2.5337,8.427,2.0213,2.0213,0,0,1-3.8724-.3332,6.6211,6.6211,0,0,0-.5008-1.62c-.4637,2.1387-1.4093,4.7544-3.3346,6.1775-1.5765,1.1655-1.708,4.7661-1.1978,6.9171a2.0174,2.0174,0,0,1-1.9551,2.4864Zm18.6688-2.33h0Zm-21.1886-25.9718a12.2732,12.2732,0,0,1-1.3585,2.6013,13.979,13.979,0,0,0-1.6578,3.3953c-4.1559,12.8049,1.2966,17.93,5.2265,19.9-.5-2.6139-.3453-6.9595,2.1353-8.7933,1.5983-1.1818,2.304-3.87,2.5824-5.3667a2.0185,2.0185,0,0,1,3.6827-.7185,7.54,7.54,0,0,1,.9311,2.1892c.9746-2.7223,1.8432-6.0344,2.2938-7.8518a2.0178,2.0178,0,0,1,3.3091-1.0175c5.6772,5.1578,5.5718,16.2435,5.1938,21.26,4.4176-3.2455,7.0036-7.0816,7.6882-11.4069,1.0779-6.8105-2.7146-13.3881-5.2664-16.915a2.0179,2.0179,0,0,1-3.8282-.2856c-1.8184-7.3931-8.4578-10.8709-11.5947-12.1279,1.104,7.7845-2.4755,14.51-4.7345,17.8562a1.9823,1.9823,0,0,1-1.9536.862,2.0238,2.0238,0,0,1-1.6492-1.418A10.2443,10.2443,0,0,0,562.1368,221.7656Zm24.8888-3.19v0Z"/><path class="a" d="M604.964,375.0594H541.2475a20.6172,20.6172,0,0,1-20.5934-20.5937V187.9425a20.6172,20.6172,0,0,1,20.5934-20.5938H604.964a20.6172,20.6172,0,0,1,20.5934,20.5938V354.4657A20.6172,20.6172,0,0,1,604.964,375.0594ZM541.2475,169.5815a18.3812,18.3812,0,0,0-18.3606,18.361V354.4657a18.3813,18.3813,0,0,0,18.3606,18.361H604.964a18.3813,18.3813,0,0,0,18.3606-18.361V187.9425a18.3812,18.3812,0,0,0-18.3606-18.361Z"/><path class="a" d="M619.4627,351.8593H525.526a1.1056,1.1056,0,0,1-1.0946-1.1163V191.0714a1.1057,1.1057,0,0,1,1.0946-1.1164h93.9367a1.1057,1.1057,0,0,1,1.0947,1.1164V350.743A1.1057,1.1057,0,0,1,619.4627,351.8593Zm-92.8421-2.2327h91.7475V192.1878H526.6206Z"/><path class="a" d="M573.2773,372.1188a9.3575,9.3575,0,1,1,9.3576-9.3573A9.3683,9.3683,0,0,1,573.2773,372.1188Zm0-16.4822a7.1247,7.1247,0,1,0,7.1249,7.1249A7.1331,7.1331,0,0,0,573.2773,355.6366Z"/><path class="a" d="M585.4673,178.3253H560.7442a1.1164,1.1164,0,1,1,0-2.2327h24.7231a1.1164,1.1164,0,1,1,0,2.2327Z"/><path class="a" d="M573.1058,175.9672a3.005,3.005,0,1,1,3.0046-3.005A3.0085,3.0085,0,0,1,573.1058,175.9672Zm0-3.7772a.7722.7722,0,1,0,.7718.7722A.7732.7732,0,0,0,573.1058,172.19Z"/><path class="a" d="M591.2513,266.1191H554.0568a1.1164,1.1164,0,0,1-1.1164-1.1163V252.6684a1.1164,1.1164,0,0,1,1.6535-.9786c5.3784,2.9537,5.3784,3.74,5.3784,4.3143,0,.1061-.0094.2555-.0232.4347-.0328.4433-.1112,1.4819.2195,1.8126a.9857.9857,0,0,0,.7042.1385c.9878-.0731.9878-.0731,1.216-1.1865a13.1019,13.1019,0,0,1,.7348-2.5261,3.8873,3.8873,0,0,1,4.4728-2.27,4.0245,4.0245,0,0,1,3.5737,3.5519c.0639,1.5965.4455,2.1278,2.5787,2.1278,1.1585,0,1.5568-.5055,1.7916-3.6661a3.2161,3.2161,0,0,1,3.7154-2.8574,3.2818,3.2818,0,0,1,3.3107,3.4229,3.9761,3.9761,0,0,0,.6417,2.8971,2.5872,2.5872,0,0,0,2.0075.6043.66.66,0,0,0,.5444-.2624c.6984-.8569.65-3.34.3924-4.83a1.1166,1.1166,0,0,1,1.6259-1.1756l4.2991,2.3a1.1166,1.1166,0,0,1,.59.9845v9.4987A1.1163,1.1163,0,0,1,591.2513,266.1191Zm-36.0781-2.2327h34.9617v-7.7133l-1.88-1.0055a7.1273,7.1273,0,0,1-1.0626,4.4662,2.8846,2.8846,0,0,1-2.2044,1.0855,4.6712,4.6712,0,0,1-3.6915-1.29,5.7915,5.7915,0,0,1-1.2574-4.6076c.0683-.923-1.1941-1.0273-1.2479-1.0313-.1316-.008-1.26-.0687-1.3243.7962-.17,2.2833-.4259,5.7334-4.0185,5.7334-2.1593,0-4.6581-.4855-4.81-4.2711-.0284-.7151-.9042-1.2951-1.7342-1.443a1.7184,1.7184,0,0,0-2.0183.9252,10.8356,10.8356,0,0,0-.61,2.1219c-.3329,1.62-.76,2.78-3.2387,2.9639a3.0121,3.0121,0,0,1-2.4486-.7871,4.4007,4.4007,0,0,1-.8693-3.5225,20.9136,20.9136,0,0,0-2.5467-1.71Z"/><path class="a" d="M562.3054,287.6788H539.9088a8.0656,8.0656,0,1,1,0-16.1311h22.3966a8.0656,8.0656,0,0,1,0,16.1311ZM539.9088,273.78a5.8329,5.8329,0,1,0,0,11.6657h22.3966a5.8329,5.8329,0,0,0,0-11.6657Z"/><path class="a" d="M606.8537,287.6788H584.4563a8.0656,8.0656,0,0,1,0-16.1311h22.3974a8.0656,8.0656,0,0,1,0,16.1311ZM584.4563,273.78a5.8329,5.8329,0,0,0,0,11.6657h22.3974a5.8329,5.8329,0,0,0,0-11.6657Z"/><path class="a" d="M562.43,287.4539a7.84,7.84,0,1,1,7.8408-7.84A7.8491,7.8491,0,0,1,562.43,287.4539Zm0-13.4482a5.6077,5.6077,0,1,0,5.608,5.6077A5.614,5.614,0,0,0,562.43,274.0057Z"/><path class="a" d="M584.5276,287.4539a7.84,7.84,0,1,1,7.84-7.84A7.8492,7.8492,0,0,1,584.5276,287.4539Zm0-13.4482a5.6077,5.6077,0,1,0,5.6073,5.6077A5.614,5.614,0,0,0,584.5276,274.0057Z"/><path class="a" d="M570.8541,319.9117H532.959a1.1165,1.1165,0,0,1-1.1164-1.1164V306.1972a1.1165,1.1165,0,0,1,1.1164-1.1164h37.8951a1.1165,1.1165,0,0,1,1.1164,1.1164v12.5981A1.1165,1.1165,0,0,1,570.8541,319.9117Zm-36.7787-2.2327h35.6623V307.3136H534.0754Z"/><path class="a" d="M614.6029,319.9117H576.7078a1.1165,1.1165,0,0,1-1.1164-1.1164V306.1972a1.1165,1.1165,0,0,1,1.1164-1.1164h37.8951a1.1165,1.1165,0,0,1,1.1164,1.1164v12.5981A1.1165,1.1165,0,0,1,614.6029,319.9117Zm-36.7787-2.2327h35.6623V307.3136H577.8242Z"/><path class="a" d="M248.637,361.0809H97.1431V272.5254H248.637ZM99.3758,358.8482H246.4042v-84.09H99.3758Z"/><path class="a" d="M99.3758,324.2633H78.7337V276.7544H99.3758Zm-18.4093-2.2327H97.1431V278.9871H80.9665Z"/><path class="a" d="M266.797,324.2633H246.4042V276.7544H266.797Zm-18.16-2.2327h15.9273V278.9871H248.637Z"/><text class="b" transform="translate(71.1521 423.9214)">Dispositivo maestro</text><text class="b" transform="translate(477.4705 423.9214)">Interfaz de usuario</text><path class="a" d="M148.3535,187.8629h-17.577v-8.04h17.577Zm-14.66-2.9165h11.744v-2.2073H133.693Z"/><path class="a" d="M386.3246,187.8629h-17.577v-8.04h17.577Zm-14.66-2.9165h11.744v-2.2073h-11.744Z"/><path class="a" d="M196.442,187.8629H162.151v-8.04h34.291Zm-31.3745-2.9165h28.4579v-2.2073H165.0675Z"/><path class="a" d="M260.7527,187.8629h-34.291v-8.04h34.291Zm-31.3745-2.9165h28.4579v-2.2073H229.3782Z"/><path class="a" d="M302.9767,187.8629H268.6858v-8.04h34.2909Zm-31.3744-2.9165H300.06v-2.2073H271.6023Z"/><path class="a" d="M362.9905,187.8629H328.7v-8.04h34.291Zm-31.3745-2.9165h28.458v-2.2073H331.616Z"/><path class="c" d="M489.6571,158.9007H464.5462c.0074-.0192.0214-.0339.028-.0536.24-.72,1.0453-4.7052-6.6922-12.4432-6.6287-6.6289-6.7777-9.7991-6.7825-9.7991v0a1.4592,1.4592,0,0,0-1.4535-1.5791h-9.7977a1.4588,1.4588,0,0,0-1.3633.94c-.8706,2.2913-3.6874,8.7-6.2251,10.8111a21.2449,21.2449,0,0,0-7.01,11.2081,1.4456,1.4456,0,0,0,.0429.9154H8.8018a8.8013,8.8013,0,1,0,0,17.6026h7.6188v11.9458a24.9849,24.9849,0,0,0,24.9566,24.9568H458.84a24.9857,24.9857,0,0,0,24.9576-24.9568V176.5033h5.86a8.8013,8.8013,0,0,0,0-17.6026Zm-61.603-.1142a18.4662,18.4662,0,0,1,6.07-9.767c2.981-2.48,5.7314-8.6924,6.7121-11.077h7.5705c.5174,1.8627,2.1921,5.3028,7.4128,10.5235,6.3039,6.3044,5.9925,9.3441,5.965,9.5344a1.4462,1.4462,0,0,0,.0476.9h-33.824C428.0231,158.8623,428.0424,158.8269,428.0541,158.7865Zm52.8268,29.6626a22.0658,22.0658,0,0,1-22.041,22.04H41.3772a22.065,22.065,0,0,1-22.04-22.04V176.5033h408.471v27.0132h34.291V176.5033h18.7817Zm-50.1562-11.9458h28.4579V200.6H430.7247Zm58.9324-2.9165H8.8018a5.8848,5.8848,0,1,1,0-11.77H489.6571a5.8848,5.8848,0,0,1,0,11.77Z"/><g class="d"><path class="e" d="M390.3889,160.2384H311.1016v-8.5511h79.2873Zm-76.3708-2.9165h73.4543v-2.7181H314.0181Z"/></g><g class="d"><path class="e" d="M221.8172,160.2384H111.3112v-8.5511h110.506Zm-107.59-2.9165h104.673v-2.7181H114.2277Z"/></g><g class="d"><path class="e" d="M338.8029,144.43a2.5076,2.5076,0,0,1-1.0538-.2336c-4.334-2-13.7833-8.5917-7.9549-26.55a18.9381,18.9381,0,0,1,2.2377-4.591c1.331-2.0094,1.6282-3.282,1.4782-3.7612a1.7914,1.7914,0,0,1,.2857-1.8634,1.6369,1.6369,0,0,1,1.4849-.4527c1.3671.31,3.2592,3.4,4.11,5.4942,2.419-3.7831,5.7552-10.6553,4.5086-18.4a2.4574,2.4574,0,0,1,.8858-2.3218,2.5041,2.5041,0,0,1,2.4675-.397c3.6817,1.4029,12.3126,5.6106,15.18,14.9574a2.4573,2.4573,0,0,1,1.3785-.8844,2.5029,2.5029,0,0,1,2.5871.94c3.1956,4.3038,8.3413,12.8878,6.8954,22.0225-.9314,5.8905-4.44,11.036-10.4272,15.294a2.5,2.5,0,0,1-3.95-2.2356v0c.3276-3.8542.9295-16.5737-4.55-22.33a94.791,94.791,0,0,1-2.8586,9.4616,2.4941,2.4941,0,0,1-2.569,1.6011,2.4646,2.4646,0,0,1-2.2282-2.0146,8.1857,8.1857,0,0,0-.3655-1.355c-.5773,2.3927-1.6843,5.1611-3.7986,6.7243-1.763,1.3028-1.8987,5.3766-1.3206,7.8163a2.5,2.5,0,0,1-2.4228,3.08Zm23.02-2.7374v0Zm-25.8984-29.7313a15.16,15.16,0,0,1-1.46,2.7039,16,16,0,0,0-1.8959,3.8811c-4.6549,14.3445,1.19,20.269,5.6488,22.6292-.5326-3.1584-.2535-7.8809,2.5957-9.9869,1.801-1.3313,2.6-4.39,2.9165-6.0944a2.5,2.5,0,0,1,4.5618-.89,8.4484,8.4484,0,0,1,.95,2.0668c1.051-3.0326,1.9776-6.57,2.47-8.558a2.4864,2.4864,0,0,1,1.706-1.7956,2.4615,2.4615,0,0,1,2.3934.5362c6.48,5.8865,6.4957,18.35,6.0809,24.3291,4.8874-3.6754,7.7527-7.9946,8.5207-12.8491,1.2124-7.6608-2.9592-15.0772-5.8862-19.1817a2.4763,2.4763,0,0,1-2.1266,1.2843,2.5078,2.5078,0,0,1-2.49-1.9068c-2.0307-8.259-9.3287-12.255-13.0246-13.7835,1.1544,8.9257-2.94,16.6115-5.535,20.4555a2.4649,2.4649,0,0,1-2.4228,1.0686,2.5065,2.5065,0,0,1-2.04-1.7554A11.202,11.202,0,0,0,335.9244,111.9615Z"/></g><g class="d"><path class="e" d="M158.6435,144.43a2.5076,2.5076,0,0,1-1.0538-.2336c-4.334-2-13.7832-8.5917-7.9549-26.55a18.9381,18.9381,0,0,1,2.2377-4.591c1.331-2.0094,1.6282-3.282,1.4782-3.7612a1.7914,1.7914,0,0,1,.2857-1.8634,1.6369,1.6369,0,0,1,1.4849-.4527c1.3671.31,3.2592,3.4,4.11,5.4942,2.419-3.7831,5.7552-10.6553,4.5086-18.4a2.4574,2.4574,0,0,1,.8858-2.3218,2.5033,2.5033,0,0,1,2.4675-.397c3.6817,1.4029,12.3126,5.6106,15.18,14.9574a2.4573,2.4573,0,0,1,1.3785-.8844,2.5023,2.5023,0,0,1,2.5871.94c3.1956,4.3038,8.3413,12.8878,6.8954,22.0225-.9314,5.8905-4.44,11.036-10.4272,15.294a2.5,2.5,0,0,1-3.95-2.2356v0c.3266-3.854.9285-16.573-4.5485-22.33a94.4889,94.4889,0,0,1-2.86,9.4614,2.5038,2.5038,0,0,1-4.7972-.4135,8.1857,8.1857,0,0,0-.3655-1.355c-.5773,2.3927-1.6843,5.1611-3.7985,6.7243-1.7631,1.3028-1.8988,5.3766-1.3206,7.8163a2.5,2.5,0,0,1-2.4229,3.08Zm23.02-2.7374v0ZM155.765,111.9615a15.16,15.16,0,0,1-1.46,2.7039,16,16,0,0,0-1.8959,3.8811c-4.6549,14.3445,1.1905,20.269,5.6488,22.6292-.5326-3.1584-.2534-7.8809,2.5957-9.9869,1.801-1.3313,2.6-4.39,2.9165-6.0944a2.5,2.5,0,0,1,4.5618-.89,8.4489,8.4489,0,0,1,.95,2.0671c1.0558-3.0436,1.98-6.575,2.47-8.5578a2.4863,2.4863,0,0,1,1.706-1.7961,2.4614,2.4614,0,0,1,2.3934.5362c6.48,5.8865,6.4957,18.35,6.0809,24.3291,4.8874-3.6756,7.7527-7.9948,8.5207-12.8491,1.2124-7.6594-2.9573-15.0748-5.8843-19.18a2.4824,2.4824,0,0,1-2.1285,1.2821,2.52,2.52,0,0,1-2.49-1.9068c-2.0307-8.259-9.3287-12.255-13.0246-13.7835,1.1544,8.9257-2.94,16.6115-5.535,20.4555a2.4672,2.4672,0,0,1-2.4228,1.0686,2.5065,2.5065,0,0,1-2.04-1.7554A11.202,11.202,0,0,0,155.765,111.9615Z"/></g><g class="d"><path class="e" d="M320.0838,158.2654a1.4586,1.4586,0,0,1-1.4583-1.4583v-10.951a1.4583,1.4583,0,0,1,2.9166,0v10.951A1.4586,1.4586,0,0,1,320.0838,158.2654Z"/></g><g class="d"><path class="e" d="M118.9272,159.8442a1.4586,1.4586,0,0,1-1.4583-1.4583v-10.951a1.4583,1.4583,0,0,1,2.9165,0v10.951A1.4585,1.4585,0,0,1,118.9272,159.8442Z"/></g><path class="a" d="M457.8819,146.4038c-6.6286-6.6289-6.7775-9.7991-6.7824-9.7991v0a1.459,1.459,0,0,0-1.4534-1.5791h-9.7979a1.4586,1.4586,0,0,0-1.3632.94c-.8706,2.2912-3.6874,8.7-6.2251,10.8112a21.244,21.244,0,0,0-7.01,11.2081,1.4442,1.4442,0,0,0,.043.9152h2.7158c.0147-.0383.0339-.0737.0457-.114a18.4672,18.4672,0,0,1,6.07-9.7671c2.9812-2.48,5.7315-8.6924,6.7122-11.0771h7.5705c.5173,1.8628,2.1921,5.303,7.4128,10.5234,6.304,6.3047,5.9925,9.3443,5.965,9.5347a1.4456,1.4456,0,0,0,.0476.9h2.7137c.0074-.0193.0213-.0339.028-.0534C464.8144,158.1267,465.62,154.1418,457.8819,146.4038Z"/><polygon class="a" points="459.183 176.503 459.183 200.6 430.725 200.6 430.725 176.503 427.808 176.503 427.808 203.517 462.099 203.517 462.099 176.503 459.183 176.503"/><text class="b" transform="translate(337.5808 21.2661)">Dispositivos esclavos<tspan x="64.8008" y="29.7339">(perillas)</tspan></text><line class="f" x1="445.2035" y1="68.9492" x2="445.2035" y2="133.6631"/><circle class="e" cx="445.2035" cy="133.4375" r="4.5117"/><line class="g" x1="139.565" y1="187.8629" x2="139.565" y2="272.5254"/><polyline class="g" points="139.565 198.048 377.703 198.048 377.703 187.863"/><line class="g" x1="179.7035" y1="187.4492" x2="179.7035" y2="198.4492"/><line class="g" x1="243.7035" y1="187.4492" x2="243.7035" y2="196.4492"/><line class="g" x1="285.7035" y1="187.4492" x2="285.7035" y2="196.4492"/><line class="g" x1="345.7035" y1="187.4492" x2="345.7035" y2="196.4492"/><path class="g" d="M444.9205,203.5165v28.9327c0-2-248.217,0-248.217,0v41"/><path class="a" d="M374.3967,326.77a2.1116,2.1116,0,0,1-1.493-3.6046,22.3678,22.3678,0,0,0,0-31.5973,2.1114,2.1114,0,0,1,2.986-2.9859,26.5951,26.5951,0,0,1,0,37.5692A2.1048,2.1048,0,0,1,374.3967,326.77Z"/><path class="a" d="M381.4131,333.7868a2.1117,2.1117,0,0,1-1.4929-3.6047,32.2654,32.2654,0,0,0,0-45.6311,2.1114,2.1114,0,1,1,2.9859-2.986,36.4871,36.4871,0,0,1,0,51.6031A2.1045,2.1045,0,0,1,381.4131,333.7868Z"/><path class="a" d="M388.9317,341.3048a2.1116,2.1116,0,0,1-1.493-3.6046,42.9485,42.9485,0,0,0,0-60.6673,2.1114,2.1114,0,0,1,2.986-2.986,47.176,47.176,0,0,1,0,66.6393A2.1048,2.1048,0,0,1,388.9317,341.3048Z"/><circle class="a" cx="363.2155" cy="307.4481" r="5.0796"/><path class="a" d="M161.732,325.147a20.0159,20.0159,0,0,1-3.2156-.28,1.2527,1.2527,0,0,1-.9658-.777l-2.4359-6.1709-6.09,1.8652a1.2552,1.2552,0,0,1-1.2394-.2981,20.0281,20.0281,0,0,1-3.9868-5.456,1.2524,1.2524,0,0,1,.0343-1.1846l3.0308-5.2736-4.5548-3.1187a1.2536,1.2536,0,0,1-.54-1.1448,19.8574,19.8574,0,0,1,2.0485-7.189,1.2526,1.2526,0,0,1,.9309-.6766l5.0609-.773-.3427-4.6965a1.255,1.255,0,0,1,.5141-1.1056,19.8479,19.8479,0,0,1,7.2985-3.3145,1.2512,1.2512,0,0,1,1.1286.3017l3.3252,3.0728,3.3246-3.0728a1.2514,1.2514,0,0,1,1.1286-.3017,19.8483,19.8483,0,0,1,7.2986,3.3145,1.255,1.255,0,0,1,.5141,1.1056l-.3427,4.6965,5.0609.773a1.2528,1.2528,0,0,1,.9309.6766,19.8594,19.8594,0,0,1,2.0485,7.189,1.2538,1.2538,0,0,1-.54,1.1448L176.6,307.5717l3.0308,5.2736a1.2526,1.2526,0,0,1,.0343,1.1846,20.0281,20.0281,0,0,1-3.9868,5.456,1.2525,1.2525,0,0,1-1.2394.2981l-6.09-1.8652-2.4359,6.1709a1.2527,1.2527,0,0,1-.9658.777A20.01,20.01,0,0,1,161.732,325.147Zm-2.1158-2.6529a15.3345,15.3345,0,0,0,4.231,0l2.5951-6.5733a1.2507,1.2507,0,0,1,1.5331-.7381l6.4736,1.9824a17.5316,17.5316,0,0,0,2.666-3.6664l-3.2658-5.6822a1.2537,1.2537,0,0,1,.3788-1.6589l4.8914-3.3491a17.3491,17.3491,0,0,0-1.4358-4.9878l-5.5518-.848a1.2538,1.2538,0,0,1-1.0613-1.33l.3752-5.14a17.3124,17.3124,0,0,0-5.1834-2.3484l-3.68,3.4008a1.2537,1.2537,0,0,1-1.7015,0l-3.68-3.4011a17.3211,17.3211,0,0,0-5.1833,2.3487l.3751,5.14a1.2536,1.2536,0,0,1-1.0612,1.33l-5.5518.848a17.3492,17.3492,0,0,0-1.4359,4.9878l4.8914,3.3491a1.2537,1.2537,0,0,1,.3789,1.6589l-3.2658,5.6822a17.528,17.528,0,0,0,2.666,3.6664l6.4735-1.9824a1.2525,1.2525,0,0,1,1.5332.7381Z"/><path class="a" d="M161.732,311.7185a6.6249,6.6249,0,1,1,6.6247-6.625A6.6327,6.6327,0,0,1,161.732,311.7185Zm0-10.7428a4.118,4.118,0,1,0,4.1178,4.1178A4.1229,4.1229,0,0,0,161.732,300.9757Z"/><path class="a" d="M176.8016,349.9492a14.6591,14.6591,0,0,1-2.3477-.2038,1.2537,1.2537,0,0,1-.9658-.7773l-1.6134-4.0863-4.02,1.2312a1.2543,1.2543,0,0,1-1.2394-.2984,14.6267,14.6267,0,0,1-2.9115-3.9844,1.2526,1.2526,0,0,1,.0343-1.1846l1.9928-3.4681-2.97-2.0335a1.2539,1.2539,0,0,1-.54-1.1448,14.5069,14.5069,0,0,1,1.4965-5.2513,1.2535,1.2535,0,0,1,.9309-.6766l3.2756-.5007-.22-3.0136a1.255,1.255,0,0,1,.5141-1.1054,14.5,14.5,0,0,1,5.3321-2.4209,1.2541,1.2541,0,0,1,1.128.3017l2.1237,1.9629,2.1244-1.9629a1.2519,1.2519,0,0,1,1.1286-.3017,14.5021,14.5021,0,0,1,5.3315,2.4209,1.2552,1.2552,0,0,1,.5141,1.1057l-.22,3.0133,3.2762.5007a1.254,1.254,0,0,1,.9315.6769A14.5034,14.5034,0,0,1,191.3828,334a1.2528,1.2528,0,0,1-.54,1.1445l-2.97,2.0335,1.9934,3.4681a1.2526,1.2526,0,0,1,.0343,1.1846,14.6346,14.6346,0,0,1-2.9121,3.9844,1.2529,1.2529,0,0,1-1.2394.2984l-4.02-1.2312-1.6134,4.0863a1.2536,1.2536,0,0,1-.9664.7773A14.6594,14.6594,0,0,1,176.8016,349.9492Zm-1.25-2.5822a10.363,10.363,0,0,0,2.5014,0l1.77-4.4832a1.2511,1.2511,0,0,1,1.5331-.7381l4.3957,1.3462a12.1148,12.1148,0,0,0,1.5956-2.1984l-2.2254-3.8712a1.2538,1.2538,0,0,1,.3788-1.6589l3.3-2.26a11.99,11.99,0,0,0-.8832-3.0552l-3.761-.5748a1.254,1.254,0,0,1-1.0613-1.33l.2522-3.45a11.9751,11.9751,0,0,0-3.22-1.4572l-2.4751,2.2865a1.2537,1.2537,0,0,1-1.7015,0l-2.4745-2.2869a11.9794,11.9794,0,0,0-3.22,1.4576l.2516,3.45a1.2538,1.2538,0,0,1-1.0613,1.33l-3.76.5748a11.99,11.99,0,0,0-.8838,3.0552l3.3,2.26a1.2537,1.2537,0,0,1,.3789,1.6589l-2.2248,3.8712a12.13,12.13,0,0,0,1.595,2.1984l4.3963-1.3462a1.252,1.252,0,0,1,1.5331.7381Z"/><path class="a" d="M176.8016,340.3828a5.08,5.08,0,1,1,5.08-5.08A5.0856,5.0856,0,0,1,176.8016,340.3828Zm0-7.653a2.573,2.573,0,1,0,2.5731,2.573A2.576,2.576,0,0,0,176.8016,332.73Z"/></svg>