<svg xmlns="http://www.w3.org/2000/svg" viewBox="0 0 498.4579 469.1567"><defs><style>.a{fill:#d91519;}.b,.d{fill:#606060;}.b,.c{opacity:0.5;}.e,.f{fill:#fff;}.e{opacity:0.6;}</style></defs><title>estufa</title><path class="a" d="M148.3535,443.6138h-17.577v-8.04h17.577Zm-14.66-2.9166h11.744V438.49H133.693Z"/><path class="a" d="M386.3246,443.6138h-17.577v-8.04h17.577Zm-14.66-2.9166h11.744V438.49h-11.744Z"/><path class="a" d="M196.442,443.6138H162.151v-8.04h34.291Zm-31.3745-2.9166h28.4579V438.49H165.0675Z"/><path class="a" d="M260.7527,443.6138h-34.291v-8.04h34.291Zm-31.3745-2.9166h28.4579V438.49H229.3782Z"/><path class="a" d="M302.9767,443.6138H268.6858v-8.04h34.2909Zm-31.3744-2.9166H300.06V438.49H271.6023Z"/><path class="a" d="M362.9905,443.6138H328.7v-8.04h34.291Zm-31.3745-2.9166h28.458V438.49H331.616Z"/><path class="b" d="M489.6571,414.6515H464.5462c.0074-.0192.0214-.0339.028-.0536.24-.72,1.0453-4.7052-6.6922-12.4432-6.6287-6.6289-6.7777-9.7991-6.7825-9.7991v0a1.459,1.459,0,0,0-1.4535-1.579h-9.7977a1.4587,1.4587,0,0,0-1.3633.94c-.8706,2.2913-3.6874,8.7-6.2251,10.8112a21.2445,21.2445,0,0,0-7.01,11.208,1.4456,1.4456,0,0,0,.0429.9154H8.8018a8.8013,8.8013,0,1,0,0,17.6026h7.6188V444.2a24.9849,24.9849,0,0,0,24.9566,24.9568H458.84A24.9857,24.9857,0,0,0,483.7975,444.2V432.2541h5.86a8.8013,8.8013,0,0,0,0-17.6026Zm-61.603-.1141a18.4661,18.4661,0,0,1,6.07-9.7671c2.981-2.48,5.7314-8.6924,6.7121-11.077h7.5705c.5174,1.8627,2.1921,5.3028,7.4128,10.5235,6.3039,6.3044,5.9925,9.3441,5.965,9.5345a1.4459,1.4459,0,0,0,.0476.9h-33.824C428.0231,414.6131,428.0424,414.5777,428.0541,414.5374ZM480.8809,444.2a22.0658,22.0658,0,0,1-22.041,22.04H41.3772a22.065,22.065,0,0,1-22.04-22.04V432.2541h408.471v27.0133h34.291V432.2541h18.7817Zm-50.1562-11.9458h28.4579v24.0967H430.7247Zm58.9324-2.9165H8.8018a5.8848,5.8848,0,1,1,0-11.77H489.6571a5.8848,5.8848,0,0,1,0,11.77Z"/><g class="c"><path class="d" d="M390.3889,415.9893H311.1016v-8.5512h79.2873Zm-76.3708-2.9166h73.4543v-2.7181H314.0181Z"/></g><g class="c"><path class="d" d="M221.8172,415.9893H111.3112v-8.5512h110.506Zm-107.59-2.9166h104.673v-2.7181H114.2277Z"/></g><g class="c"><path class="d" d="M338.8029,400.181a2.5076,2.5076,0,0,1-1.0538-.2336c-4.334-2-13.7833-8.5917-7.9549-26.55a18.94,18.94,0,0,1,2.2377-4.591c1.331-2.0094,1.6282-3.282,1.4782-3.7612a1.7915,1.7915,0,0,1,.2857-1.8634,1.6366,1.6366,0,0,1,1.4849-.4526c1.3671.31,3.2592,3.4,4.11,5.4941,2.419-3.7831,5.7552-10.6553,4.5086-18.4a2.4571,2.4571,0,0,1,.8858-2.3217,2.5039,2.5039,0,0,1,2.4675-.3971c3.6817,1.4029,12.3126,5.6106,15.18,14.9574a2.4578,2.4578,0,0,1,1.3785-.8844,2.5031,2.5031,0,0,1,2.5871.94c3.1956,4.3039,8.3413,12.8878,6.8954,22.0226-.9314,5.89-4.44,11.0359-10.4272,15.2939a2.5,2.5,0,0,1-3.95-2.2356v0c.3276-3.8543.9295-16.5738-4.55-22.33a94.791,94.791,0,0,1-2.8586,9.4616,2.4943,2.4943,0,0,1-2.569,1.6012,2.4648,2.4648,0,0,1-2.2282-2.0146,8.1843,8.1843,0,0,0-.3655-1.3551c-.5773,2.3927-1.6843,5.1612-3.7986,6.7243-1.763,1.3028-1.8987,5.3767-1.3206,7.8164a2.5,2.5,0,0,1-2.4228,3.08Zm23.02-2.7373v0Zm-25.8984-29.7314a15.16,15.16,0,0,1-1.46,2.7039,16,16,0,0,0-1.8959,3.8811c-4.6549,14.3446,1.19,20.269,5.6488,22.6292-.5326-3.1584-.2535-7.8809,2.5957-9.9869,1.801-1.3313,2.6-4.39,2.9165-6.0944a2.5,2.5,0,0,1,4.5618-.89,8.4484,8.4484,0,0,1,.95,2.0668c1.051-3.0326,1.9776-6.57,2.47-8.558a2.4861,2.4861,0,0,1,1.706-1.7955,2.4612,2.4612,0,0,1,2.3934.5361c6.48,5.8865,6.4957,18.3505,6.0809,24.3291,4.8874-3.6753,7.7527-7.9946,8.5207-12.849,1.2124-7.6609-2.9592-15.0773-5.8862-19.1818a2.4763,2.4763,0,0,1-2.1266,1.2843,2.5078,2.5078,0,0,1-2.49-1.9068c-2.0307-8.259-9.3287-12.255-13.0246-13.7835,1.1544,8.9257-2.94,16.6115-5.535,20.4556a2.4648,2.4648,0,0,1-2.4228,1.0685,2.5064,2.5064,0,0,1-2.04-1.7554A11.202,11.202,0,0,0,335.9244,367.7123Z"/></g><g class="c"><path class="d" d="M158.6435,400.181a2.5076,2.5076,0,0,1-1.0538-.2336c-4.334-2-13.7832-8.5917-7.9549-26.55a18.94,18.94,0,0,1,2.2377-4.591c1.331-2.0094,1.6282-3.282,1.4782-3.7612a1.7915,1.7915,0,0,1,.2857-1.8634,1.6366,1.6366,0,0,1,1.4849-.4526c1.3671.31,3.2592,3.4,4.11,5.4941,2.419-3.7831,5.7552-10.6553,4.5086-18.4a2.4571,2.4571,0,0,1,.8858-2.3217,2.5031,2.5031,0,0,1,2.4675-.3971c3.6817,1.4029,12.3126,5.6106,15.18,14.9574a2.4578,2.4578,0,0,1,1.3785-.8844,2.5025,2.5025,0,0,1,2.5871.94c3.1956,4.3039,8.3413,12.8878,6.8954,22.0226-.9314,5.89-4.44,11.0359-10.4272,15.2939a2.5,2.5,0,0,1-3.95-2.2356v0c.3266-3.8541.9285-16.5731-4.5485-22.33a94.4889,94.4889,0,0,1-2.86,9.4614,2.5038,2.5038,0,0,1-4.7972-.4134,8.1843,8.1843,0,0,0-.3655-1.3551c-.5773,2.3927-1.6843,5.1612-3.7985,6.7243-1.7631,1.3028-1.8988,5.3767-1.3206,7.8164a2.5,2.5,0,0,1-2.4229,3.08Zm23.02-2.7373v0ZM155.765,367.7123a15.16,15.16,0,0,1-1.46,2.7039,16,16,0,0,0-1.8959,3.8811c-4.6549,14.3446,1.1905,20.269,5.6488,22.6292-.5326-3.1584-.2534-7.8809,2.5957-9.9869,1.801-1.3313,2.6-4.39,2.9165-6.0944a2.5,2.5,0,0,1,4.5618-.89,8.4489,8.4489,0,0,1,.95,2.0671c1.0558-3.0435,1.98-6.575,2.47-8.5578a2.486,2.486,0,0,1,1.706-1.796,2.4611,2.4611,0,0,1,2.3934.5361c6.48,5.8865,6.4957,18.3505,6.0809,24.3291,4.8874-3.6756,7.7527-7.9948,8.5207-12.849,1.2124-7.6595-2.9573-15.0749-5.8843-19.18a2.4824,2.4824,0,0,1-2.1285,1.2821,2.52,2.52,0,0,1-2.49-1.9068c-2.0307-8.259-9.3287-12.255-13.0246-13.7835,1.1544,8.9257-2.94,16.6115-5.535,20.4556a2.4671,2.4671,0,0,1-2.4228,1.0685,2.5064,2.5064,0,0,1-2.04-1.7554A11.202,11.202,0,0,0,155.765,367.7123Z"/></g><g class="c"><path class="d" d="M320.0838,414.0162a1.4585,1.4585,0,0,1-1.4583-1.4583V401.607a1.4583,1.4583,0,0,1,2.9166,0v10.9509A1.4585,1.4585,0,0,1,320.0838,414.0162Z"/></g><g class="c"><path class="d" d="M118.9272,415.595a1.4586,1.4586,0,0,1-1.4583-1.4583v-10.951a1.4583,1.4583,0,0,1,2.9165,0v10.951A1.4585,1.4585,0,0,1,118.9272,415.595Z"/></g><ellipse class="a" cx="354.0962" cy="128.8847" rx="22.1282" ry="12.7518"/><ellipse class="a" cx="243.8305" cy="79.3776" rx="22.1282" ry="12.7518"/><ellipse class="a" cx="240.08" cy="194.144" rx="22.1282" ry="12.7518"/><ellipse class="a" cx="132.0646" cy="139.3862" rx="22.1282" ry="12.7518"/><g class="c"><ellipse class="d" cx="354.0962" cy="118.7747" rx="22.1282" ry="12.7518"/><ellipse class="d" cx="243.0804" cy="68.5176" rx="22.1282" ry="12.7518"/><ellipse class="d" cx="239.3299" cy="183.2839" rx="22.1282" ry="12.7518"/><ellipse class="d" cx="131.3145" cy="128.5261" rx="22.1282" ry="12.7518"/><ellipse class="e" cx="354.0962" cy="118.0246" rx="22.1282" ry="12.7518"/><ellipse class="e" cx="243.8305" cy="68.5176" rx="22.1282" ry="12.7518"/><ellipse class="e" cx="240.08" cy="183.2839" rx="22.1282" ry="12.7518"/><ellipse class="e" cx="132.0646" cy="128.5261" rx="22.1282" ry="12.7518"/><path class="d" d="M260.775,267.8482,14.2071,160.7327A20.4239,20.4239,0,0,1,12.51,124.101L233.79,2.5167a20.4843,20.4843,0,0,1,18.5069-.5914L486.4508,111.742a20.4237,20.4237,0,0,1,1.4311,36.2407l-208.866,118.883a20.5225,20.5225,0,0,1-18.2409.9825ZM486.9993,146.4323a18.64,18.64,0,0,0-1.306-33.0754L251.54,3.54a18.6974,18.6974,0,0,0-16.89.54L13.3692,125.6642a18.64,18.64,0,0,0,1.5486,33.4322L261.4857,266.2118a18.7281,18.7281,0,0,0,16.6476-.8966Z"/><path class="d" d="M268.5526,280.0477a20.4658,20.4658,0,0,0,10.1155-2.6627L475.5038,165.3494a35.64,35.64,0,0,0,16.5021-20.5947.8919.8919,0,1,0-1.7054-.5232,33.861,33.861,0,0,1-15.6793,19.5675L277.7855,275.8346a18.7285,18.7285,0,0,1-16.6476.8968L26.2022,174.6691a24.6461,24.6461,0,0,1-14.0763-16.7762.8921.8921,0,0,0-1.7351.4158,26.44,26.44,0,0,0,15.1007,17.9964L260.4272,278.3675A20.401,20.401,0,0,0,268.5526,280.0477Z"/><path class="d" d="M238.9129,216.7557c-15.2841-.5055-29.5683-3.964-40.2221-9.7386-10.8471-5.8794-16.676-13.484-16.4141-21.4135v0c.2619-7.9295,6.5809-15.1326,17.7927-20.2823,11.012-5.0583,25.4971-7.566,40.7783-7.06,15.2842.5052,29.5684,3.9638,40.2221,9.7387,10.8472,5.8791,16.676,13.484,16.4142,21.4138s-6.5809,15.1322-17.7927,20.282c-10.0824,4.6312-23.0734,7.1241-36.9261,7.1241Q240.85,216.82,238.9129,216.7557Zm-38.0985-49.8138c-10.5661,4.8531-16.5163,11.5016-16.755,18.7206v0c-.5,15.1439,24.1337,28.2926,54.9127,29.3108,30.7634,1.02,56.228-10.4746,56.7292-25.6185s-24.1332-28.2928-54.9128-29.3108q-1.91-.0632-3.8006-.063C223.393,159.9807,210.6662,162.4167,200.8144,166.9419Z"/><path class="d" d="M242.0556,220.6936c13.8579,0,26.997-2.7373,37.3221-7.8142,11.0481-5.4317,17.5337-13.0709,17.7944-20.9583a.8918.8918,0,0,0-1.7827-.0592c-.2386,7.208-6.3613,14.2851-16.7985,19.4168-10.9325,5.3754-25.1342,8.0625-39.9759,7.5742-15.3677-.5081-29.2849-3.88-39.1884-9.4927-10.2247-5.795-15.4775-13.4335-15.1913-22.0895a.8915.8915,0,0,0-.8617-.9209.8748.8748,0,0,0-.921.8617c-.3095,9.362,5.2558,17.5575,16.0942,23.7005,10.15,5.7528,24.359,9.2062,40.009,9.7235Q240.3117,220.694,242.0556,220.6936Z"/><path class="d" d="M237.9362,211.687c-13.142-.4347-25.43-3.3253-34.5993-8.1395-9.3717-4.9207-14.412-11.2939-14.1919-17.9459v0c.2195-6.652,5.67-12.6786,15.3468-16.9693,9.4675-4.1983,21.9254-6.2725,35.061-5.8359,13.142.4347,25.43,3.3253,34.5994,8.14,9.3716,4.92,14.4119,11.2936,14.1918,17.9459s-5.67,12.6783-15.3468,16.969c-8.6417,3.8319-19.7682,5.8928-31.6379,5.8928Q239.6574,211.7439,237.9362,211.687Zm-32.7214-41.4238c-9.0174,3.9982-14.0908,9.4665-14.2871,15.3973v0c-.1963,5.9308,4.5055,11.7222,13.239,16.3073,8.9355,4.6919,20.95,7.51,33.8287,7.9362,1.1312.0374,2.25.0557,3.3633.0557,24.8288-.0012,44.8072-9.1771,45.2026-21.1371.1963-5.9308-4.5055-11.7222-13.2389-16.3076-8.9356-4.6916-20.95-7.51-33.8288-7.9359q-1.6941-.0556-3.37-.0557C224.5027,164.5237,213.6318,166.5308,205.2148,170.2632Z"/><path class="d" d="M239.2346,193.1867a35.67,35.67,0,0,1-15.3282-3.6835c-4.2657-2.2888-6.5577-5.2929-6.4526-8.46.212-6.3979,10.0981-11.0887,22.5357-10.6776a35.6637,35.6637,0,0,1,15.3282,3.6839c4.2657,2.2885,6.5577,5.2929,6.4526,8.46-.2033,6.1373-9.3182,10.7029-21.0265,10.7029Q239.9965,193.212,239.2346,193.1867Zm-19.9981-12.0843h0c-.0813,2.4528,1.8768,4.8781,5.513,6.8286a33.87,33.87,0,0,0,14.5443,3.473c11.0278.3589,20.5213-3.7352,20.6938-8.9541.0813-2.4525-1.8768-4.8777-5.513-6.8285a33.8744,33.8744,0,0,0-14.5443-3.4731q-.6882-.0227-1.367-.0226C228.1157,172.1257,219.402,176.1007,219.2365,181.1024Z"/><path class="d" d="M240.2769,196.4037c8.0831,0,15.4508-2.3593,19.0313-6.1552a8.21,8.21,0,0,0,2.4139-6.4781.8922.8922,0,0,0-1.7769.1626,6.3926,6.3926,0,0,1-1.9342,5.0914c-3.4481,3.6545-10.9337,5.839-19.0516,5.5737-6.0577-.2-20.1056-1.9166-19.7229-13.4957a.8918.8918,0,0,0-1.7827-.0592c-.3025,9.15,7.715,14.8835,21.4463,15.3376C239.3606,196.3962,239.8205,196.4037,240.2769,196.4037Z"/><path class="d" d="M239.1649,188.3769a20.11,20.11,0,0,1-8.5807-2.0509c-2.4836-1.3211-3.8174-3.0869-3.7547-4.9727h0c.1225-3.705,5.7383-6.4247,12.7727-6.193a20.1134,20.1134,0,0,1,8.58,2.051c2.4836,1.321,3.8174,3.0872,3.7547,4.9724s-1.5092,3.56-4.0746,4.7137a19.5837,19.5837,0,0,1-7.8683,1.4935C239.72,188.3909,239.4425,188.3862,239.1649,188.3769Zm-10.5527-6.9644h0c-.0377,1.1518.986,2.3686,2.8093,3.3387a20.2859,20.2859,0,0,0,15.7092.5194c1.8837-.8475,2.9859-1.9938,3.0236-3.1459s-.986-2.3683-2.8093-3.3383a18.3191,18.3191,0,0,0-7.8021-1.8434q-.3911-.0126-.7734-.0128C232.8326,176.93,228.6848,179.2239,228.6122,181.4125Z"/><polygon class="f" points="239.202 187.257 244.385 187.064 248.844 214.131 243.34 214.407 239.202 187.257"/><path class="d" d="M242.4591,214.5416l-4.1385-27.15a.8921.8921,0,0,1,.8484-1.0258l5.1826-.1927a.9193.9193,0,0,1,.9134.7464l4.459,27.0671a.8917.8917,0,0,1-.8356,1.0356l-5.5031.2758c-.0151.0009-.03.0012-.0453.0012A.8915.8915,0,0,1,242.4591,214.5416Zm1.173-26.5566-3.3976.1263,3.8662,25.3647,3.7007-.1855Z"/><polygon class="f" points="242.732 218.966 248.693 218.705 248.844 214.131 243.34 214.407 242.732 218.966"/><path class="d" d="M242.0741,219.5677a.889.889,0,0,1-.2258-.72l.6085-4.5586a.8913.8913,0,0,1,.8391-.7729l5.5031-.2758a.8914.8914,0,0,1,.9361.92l-.151,4.5737a.8915.8915,0,0,1-.8524.8617l-5.9607.2608-.0389.0008A.891.891,0,0,1,242.0741,219.5677Zm5.8463-4.4971-3.7941.19-.3693,2.7675,4.0717-.1783Z"/><path class="d" d="M242.7466,219.4c.0151,0,.0307,0,.0458-.0011a.8916.8916,0,0,0,.8461-.8615l.151-4.5734a.92.92,0,0,0-.0082-.1545l-3.7111-26.22a.892.892,0,0,0-1.7746.0956l-.1213,3.6588a.8609.8609,0,0,0,.0075.15l3.6816,27.1349A.8916.8916,0,0,0,242.7466,219.4Z"/><polygon class="f" points="231.231 137.545 236.414 137.352 240.873 164.419 235.369 164.695 231.231 137.545"/><path class="d" d="M234.4881,164.83l-4.1385-27.15a.892.892,0,0,1,.8484-1.0258l5.1826-.1928a.9124.9124,0,0,1,.9134.7465l4.459,27.0673a.8917.8917,0,0,1-.8356,1.0356l-5.5031.2759c-.0151.0008-.03.0011-.0453.0011A.8914.8914,0,0,1,234.4881,164.83Zm1.173-26.5569-3.3976.1263,3.8662,25.3651,3.7007-.1856Z"/><polygon class="f" points="234.761 169.254 240.722 168.993 240.873 164.419 235.369 164.695 234.761 169.254"/><path class="d" d="M234.1031,169.8555a.8894.8894,0,0,1-.2259-.72l.6086-4.5584a.8913.8913,0,0,1,.8391-.7726l5.5031-.2758a.8914.8914,0,0,1,.9361.92l-.151,4.5734a.8917.8917,0,0,1-.8525.8618l-5.9607.2607-.0389.0009A.8909.8909,0,0,1,234.1031,169.8555Zm5.8463-4.4968-3.7941.19-.3694,2.7672,4.0718-.1782Z"/><path class="d" d="M234.7756,169.6883c.015,0,.0307,0,.0458-.0012a.8915.8915,0,0,0,.8461-.8614l.151-4.5735a.9189.9189,0,0,0-.0082-.1544l-3.7111-26.2207a.892.892,0,0,0-1.7746.0955l-.1213,3.6589a.85.85,0,0,0,.0075.15l3.6815,27.1353A.8919.8919,0,0,0,234.7756,169.6883Z"/><polygon class="f" points="261.654 172.89 262.92 176.137 319.235 176.168 316.597 172.876 261.654 172.89"/><path class="d" d="M319.2345,177.06l-56.315-.031a.8917.8917,0,0,1-.83-.5679l-1.2659-3.2469a.892.892,0,0,1,.8309-1.216l54.943-.0145h0a.8923.8923,0,0,1,.6962.3342l2.6381,3.2925a.8923.8923,0,0,1-.6963,1.45Zm-56.2756-3.2782.5708,1.4636,53.8472.03-1.2078-1.5074Z"/><polygon class="f" points="262.92 176.137 262.799 179.796 319.114 179.827 319.235 176.168 262.92 176.137"/><path class="d" d="M319.1138,180.7186l-56.3151-.0308a.8917.8917,0,0,1-.8908-.9212l.1208-3.6589a.8914.8914,0,0,1,.8913-.8626h.0006l56.3151.0311a.8921.8921,0,0,1,.8908.9212l-.1208,3.6586a.8915.8915,0,0,1-.8914.8626ZM263.7829,177.03l-.0615,1.8751,54.53.03.0615-1.8748Z"/><polygon class="f" points="261.654 172.89 261.533 176.549 262.799 179.796 262.92 176.137 261.654 172.89"/><path class="d" d="M262.7987,180.6878a.8914.8914,0,0,0,.8919-.8626l.1208-3.6588a.8885.8885,0,0,0-.06-.3534l-1.2659-3.2469a.8919.8919,0,0,0-1.7223.2944l-.1214,3.6589a.8881.8881,0,0,0,.06.3537l1.2665,3.2468A.892.892,0,0,0,262.7987,180.6878Z"/><polygon class="f" points="288.466 185.91 293.969 185.634 294.166 179.689 288.662 179.964 288.466 185.91"/><path class="d" d="M288.049,186.3338a.5933.5933,0,0,1-.1771-.4436l.1963-5.9456a.594.594,0,0,1,.5644-.574l5.5037-.2759a.5833.5833,0,0,1,.4466.17.5933.5933,0,0,1,.1771.4436l-.1969,5.9456a.594.594,0,0,1-.5644.574l-5.5031.2759-.03.0008A.594.594,0,0,1,288.049,186.3338Zm5.5014-6.019-4.3121.216-.1568,4.7528,4.3115-.216Z"/><polygon class="f" points="216.567 171.466 215.234 174.686 158.93 173.556 161.636 170.319 216.567 171.466"/><path class="d" d="M215.2164,175.5778l-56.304-1.13a.8919.8919,0,0,1-.6666-1.4636l2.7054-3.2373a.8786.8786,0,0,1,.7032-.32l54.9313,1.1471a.8917.8917,0,0,1,.8054,1.2328l-1.3327,3.22a.892.892,0,0,1-.8239.5507ZM162.0457,171.22l-1.2391,1.4822,53.8367,1.0807.601-1.4517Z"/><polygon class="f" points="215.234 174.686 215.28 178.347 158.976 177.217 158.93 173.556 215.234 174.686"/><path class="d" d="M215.2617,179.2385l-56.304-1.13a.8915.8915,0,0,1-.8739-.8807l-.0453-3.6606a.8931.8931,0,0,1,.2636-.6442.8564.8564,0,0,1,.6463-.2584l56.3041,1.13a.8915.8915,0,0,1,.8739.8806l.0453,3.6606a.8917.8917,0,0,1-.892.9029Zm-55.4278-4.7721.0227,1.8759,54.52,1.0943-.0226-1.8759Z"/><polygon class="f" points="216.567 171.466 216.613 175.127 215.28 178.347 215.234 174.686 216.567 171.466"/><path class="d" d="M215.28,179.2387a.892.892,0,0,0,.8234-.5507l1.3327-3.22a.8926.8926,0,0,0,.0679-.3522l-.0453-3.6606a.8919.8919,0,0,0-1.7159-.33l-1.3326,3.22a.894.894,0,0,0-.068.3521l.0453,3.6607a.8923.8923,0,0,0,.7235.8649A.9091.9091,0,0,0,215.28,179.2387Z"/><polygon class="f" points="189.493 183.93 183.996 183.541 183.922 177.593 189.419 177.982 189.493 183.93"/><path class="d" d="M189.451,184.5235l-5.4967-.389a.5945.5945,0,0,1-.5528-.5859l-.0738-5.9485a.5967.5967,0,0,1,.1864-.44.603.603,0,0,1,.45-.1606l5.4961.3894a.5945.5945,0,0,1,.5528.5856l.0743,5.9482a.5942.5942,0,0,1-.5946.6022C189.4789,184.525,189.465,184.5244,189.451,184.5235Zm-4.9259-6.2919.0586,4.7552,4.3064.3048-.0592-4.7549Z"/><path class="d" d="M242.7094,101.96c-15.2841-.5055-29.5689-3.964-40.2227-9.7386-10.8465-5.8794-16.676-13.4843-16.4135-21.4138s6.5809-15.1326,17.7927-20.2824c11.012-5.0583,25.49-7.5671,40.7778-7.06,15.2841.5052,29.5689,3.9637,40.2226,9.7386,10.8466,5.8794,16.676,13.4843,16.4136,21.4138S294.699,89.75,283.4872,94.8994c-10.0824,4.6312-23.0734,7.1241-36.9256,7.1241Q244.6463,102.0235,242.7094,101.96ZM204.61,52.1458c-10.5655,4.8531-16.5158,11.5016-16.7544,18.7206s5.2592,14.2456,15.481,19.7862c10.4151,5.6453,24.4188,9.0275,39.4317,9.5243,1.2717.0421,2.5306.0627,3.7832.0627,29.0526-.0011,52.4652-11.1633,52.9454-25.6815.2386-7.2188-5.2593-14.2459-15.481-19.7864-10.4151-5.6451-24.4188-9.0276-39.4318-9.5241q-1.91-.0632-3.8-.063C227.1889,45.1846,214.4621,47.6206,204.61,52.1458Z"/><path class="d" d="M245.8515,105.8975c13.8579,0,26.997-2.7373,37.3221-7.8142,11.0481-5.4317,17.5337-13.0709,17.7944-20.9583a.8918.8918,0,1,0-1.7827-.0592c-.2386,7.208-6.3613,14.285-16.7985,19.4168-10.9325,5.3751-25.1342,8.0636-39.9759,7.5741-15.3671-.5081-29.2843-3.88-39.1879-9.4927-10.2246-5.7949-15.4774-13.4335-15.1912-22.0894a.8917.8917,0,0,0-.8617-.921.8821.8821,0,0,0-.921.8618c-.3095,9.362,5.2558,17.5575,16.0942,23.7,10.15,5.7528,24.3585,9.2061,40.0084,9.7235Q244.1078,105.8978,245.8515,105.8975Z"/><path class="d" d="M241.7321,96.8908c-13.142-.4346-25.4292-3.3253-34.5987-8.1394-9.3722-4.9207-14.4126-11.294-14.1925-17.946s5.67-12.6783,15.3474-16.9689c9.4675-4.1984,21.926-6.2728,35.061-5.8359,13.142.4347,25.4292,3.3253,34.5988,8.1394,9.3722,4.92,14.4125,11.294,14.1924,17.946s-5.67,12.6783-15.3468,16.969c-8.6417,3.8319-19.7682,5.8927-31.6385,5.8927Q243.4533,96.9477,241.7321,96.8908ZM194.7236,70.8647c-.1963,5.93,4.5055,11.7219,13.239,16.3073,8.9361,4.6919,20.95,7.51,33.8287,7.9361,1.1312.0375,2.25.0558,3.3634.0558,24.8293-.0012,44.8077-9.1771,45.2031-21.1371.1963-5.9308-4.5055-11.7223-13.2389-16.3076-8.9361-4.6916-20.95-7.51-33.8288-7.9359-1.1312-.0374-2.25-.0557-3.3633-.0557C215.0974,49.7276,195.1191,58.9047,194.7236,70.8647Z"/><path class="d" d="M243.0305,78.3906a35.668,35.668,0,0,1-15.3282-3.6836c-4.2657-2.2887-6.5577-5.2929-6.4526-8.46.212-6.3985,10.1033-11.0881,22.5363-10.6776a35.668,35.668,0,0,1,15.3282,3.6836c4.2657,2.2887,6.5577,5.2929,6.4526,8.46-.2033,6.1372-9.3182,10.7029-21.0271,10.7029Q243.7924,78.4159,243.0305,78.3906ZM223.0324,66.3063h0c-.0813,2.4528,1.8768,4.878,5.513,6.8285A33.87,33.87,0,0,0,243.09,76.6079c11.0283.3652,20.5218-3.7352,20.6943-8.9541.0813-2.4528-1.8768-4.878-5.513-6.8285a33.87,33.87,0,0,0-14.5443-3.4731q-.6882-.0227-1.3681-.0226C231.911,57.33,223.1979,61.3043,223.0324,66.3063Z"/><path class="d" d="M244.0723,81.6076c8.0836,0,15.4513-2.3593,19.0324-6.1553a8.21,8.21,0,0,0,2.4139-6.478.8922.8922,0,0,0-1.7769.1625,6.3937,6.3937,0,0,1-1.9348,5.0915c-3.4475,3.6539-10.9238,5.8413-19.0516,5.5736-6.0577-.2-20.1055-1.9165-19.7229-13.4956a.8915.8915,0,0,0-.8617-.9209.8822.8822,0,0,0-.921.8617c-.3025,9.15,7.715,14.8834,21.4464,15.3375Q243.3867,81.6077,244.0723,81.6076Z"/><path class="d" d="M242.9608,73.5808c-7.039-.2328-12.4573-3.318-12.3354-7.0233v0c.1225-3.7054,5.7372-6.4227,12.7727-6.193a20.1169,20.1169,0,0,1,8.5807,2.051c2.4836,1.321,3.8174,3.0872,3.7547,4.9726-.1179,3.5579-5.2929,6.2069-11.9359,6.2069C243.5218,73.5947,243.2419,73.59,242.9608,73.5808Zm-10.5527-6.9647c-.0749,2.2824,4.2645,4.9718,10.612,5.182,6.3462.2082,10.8552-2.1868,10.9307-4.47.0378-1.1515-.986-2.3683-2.8093-3.3383a18.3182,18.3182,0,0,0-7.8026-1.8434q-.3912-.0126-.7735-.0128C236.6285,62.1341,232.4807,64.4278,232.4081,66.6161Z"/><polygon class="f" points="242.998 72.461 248.181 72.268 252.64 99.335 247.137 99.611 242.998 72.461"/><path class="d" d="M246.255,99.7455l-4.1385-27.15a.8923.8923,0,0,1,.8484-1.0258l5.1826-.1925a.9113.9113,0,0,1,.9134.7465l4.46,27.067a.8917.8917,0,0,1-.8356,1.0357l-5.5037.2758c-.0151.0009-.03.0012-.0453.0012A.8915.8915,0,0,1,246.255,99.7455Zm1.173-26.5569-3.3975.1263,3.8661,25.365,3.7013-.1855Z"/><polygon class="f" points="246.528 104.17 252.489 103.909 252.64 99.335 247.137 99.611 246.528 104.17"/><path class="d" d="M245.87,104.7715a.8888.8888,0,0,1-.2259-.72l.6085-4.5587a.8911.8911,0,0,1,.8391-.7728l5.5037-.2759a.8916.8916,0,0,1,.9361.92l-.1516,4.5738a.8914.8914,0,0,1-.8524.8614l-5.9607.2607-.0389.0009A.89.89,0,0,1,245.87,104.7715Zm5.8468-4.497-3.7947.19-.3693,2.7676,4.0717-.1783Z"/><path class="d" d="M246.5425,104.604c.0151,0,.0308,0,.0459-.0011a.8917.8917,0,0,0,.846-.8612l.1516-4.5734a.9219.9219,0,0,0-.0082-.1548l-3.7117-26.22a.8919.8919,0,0,0-1.7745.0958l-.1208,3.6589a.8548.8548,0,0,0,.0075.1492l3.681,27.135A.8918.8918,0,0,0,246.5425,104.604Z"/><polygon class="f" points="235.027 22.749 240.21 22.556 244.669 49.623 239.166 49.899 235.027 22.749"/><path class="d" d="M238.284,50.0336l-4.1385-27.15a.892.892,0,0,1,.8484-1.0257l5.1826-.1928a.915.915,0,0,1,.9134.7464l4.46,27.0674a.8917.8917,0,0,1-.8356,1.0356L239.21,50.79c-.0151.0009-.03.0012-.0453.0012A.8915.8915,0,0,1,238.284,50.0336Zm1.173-26.5569-3.3976.1263,3.8662,25.365,3.7013-.1855Z"/><polygon class="f" points="238.557 54.458 244.518 54.197 244.669 49.623 239.166 49.899 238.557 54.458"/><path class="d" d="M237.899,55.0594a.8892.8892,0,0,1-.2258-.72l.6085-4.5583a.8913.8913,0,0,1,.8391-.7726l5.5037-.2758a.8915.8915,0,0,1,.9361.92l-.1516,4.5735a.8914.8914,0,0,1-.8524.8614l-5.9607.2608-.0389.0008A.891.891,0,0,1,237.899,55.0594Zm5.8469-4.4968-3.7947.19-.3693,2.7672,4.0717-.1783Z"/><path class="d" d="M238.5715,54.8921c.0151,0,.0307,0,.0458-.0011a.8918.8918,0,0,0,.8461-.8612l.1516-4.5734a.9219.9219,0,0,0-.0082-.1548L235.8951,23.081a.8919.8919,0,0,0-1.7746.0958L234,26.8356a.8463.8463,0,0,0,.0075.1493l3.681,27.1352A.8916.8916,0,0,0,238.5715,54.8921Z"/><polygon class="f" points="265.45 58.094 266.716 61.341 323.032 61.372 320.393 58.08 265.45 58.094"/><path class="d" d="M323.031,62.2636l-56.3151-.0308a.8923.8923,0,0,1-.83-.5679l-1.2665-3.2469a.8921.8921,0,0,1,.831-1.2159l54.9435-.0145h0a.8923.8923,0,0,1,.6962.3342l2.6381,3.2921a.8923.8923,0,0,1-.6963,1.45Zm-56.2756-3.2779.5708,1.4636,53.8467.0293-1.2073-1.5072Z"/><polygon class="f" points="266.716 61.341 266.595 65 322.911 65.031 323.032 61.372 266.716 61.341"/><path class="d" d="M322.91,65.9225l-56.3157-.0308a.8921.8921,0,0,1-.8908-.9215l.1214-3.6589a.8918.8918,0,0,1,.8913-.8623h.0006l56.3151.0308a.8917.8917,0,0,1,.8908.9212l-.1208,3.6589a.8915.8915,0,0,1-.8914.8626Zm-55.3309-3.6891-.0621,1.875,54.5306.03.0616-1.8751Z"/><polygon class="f" points="265.45 58.094 265.329 61.753 266.595 65 266.716 61.341 265.45 58.094"/><path class="d" d="M266.5946,65.8917a.892.892,0,0,0,.8919-.8623l.1214-3.6589a.8873.8873,0,0,0-.06-.3536L266.281,57.77a.8919.8919,0,0,0-1.7223.2947l-.1208,3.6589a.8877.8877,0,0,0,.06.3533l1.2659,3.2469A.8924.8924,0,0,0,266.5946,65.8917Z"/><polygon class="f" points="292.262 71.114 297.765 70.838 297.962 64.892 292.459 65.168 292.262 71.114"/><path class="d" d="M291.845,71.5377a.593.593,0,0,1-.1772-.4437l.1969-5.9456a.5941.5941,0,0,1,.5644-.574l5.5031-.2758a.5942.5942,0,0,1,.6237.6135l-.1963,5.9456a.5941.5941,0,0,1-.5644.574l-5.5037.2758-.03.0009A.5942.5942,0,0,1,291.845,71.5377Zm5.5013-6.0191-4.3115.216-.1574,4.7529,4.3121-.216Z"/><polygon class="f" points="220.363 56.67 219.031 59.89 162.727 58.76 165.432 55.523 220.363 56.67"/><path class="d" d="M219.0124,60.7817l-56.3035-1.13a.8919.8919,0,0,1-.6666-1.4636l2.7054-3.2373a.9057.9057,0,0,1,.7032-.32l54.9313,1.1472a.8916.8916,0,0,1,.8054,1.2328l-1.3332,3.22a.892.892,0,0,1-.824.5508Zm-53.17-4.3583-1.2391,1.4822,53.8361,1.0806.601-1.452Z"/><polygon class="f" points="219.031 59.89 219.076 63.551 162.772 62.421 162.727 58.76 219.031 59.89"/><path class="d" d="M219.0582,64.4423l-56.304-1.13a.8915.8915,0,0,1-.8739-.8806l-.0453-3.6606a.8933.8933,0,0,1,.2636-.6443.8426.8426,0,0,1,.6463-.2584l56.3035,1.13a.8923.8923,0,0,1,.8739.8806l.0459,3.6607a.8924.8924,0,0,1-.892.9029ZM163.63,59.67l.0227,1.8759,54.52,1.0943-.0232-1.8759Z"/><polygon class="f" points="220.363 56.67 220.409 60.331 219.076 63.551 219.031 59.89 220.363 56.67"/><path class="d" d="M219.0768,64.4426a.892.892,0,0,0,.8234-.5508l1.3327-3.22a.8944.8944,0,0,0,.0679-.3522l-.0453-3.6606a.8919.8919,0,0,0-1.7159-.33l-1.3332,3.22a.8934.8934,0,0,0-.068.3522l.0459,3.6606a.8917.8917,0,0,0,.8925.8809Z"/><polygon class="f" points="193.289 69.134 187.792 68.745 187.718 62.797 193.215 63.186 193.289 69.134"/><path class="d" d="M193.2469,69.7274l-5.4961-.3891a.5944.5944,0,0,1-.5528-.5856l-.0744-5.9485a.5949.5949,0,0,1,.1864-.44.6015.6015,0,0,1,.45-.1606l5.4967.3894a.5947.5947,0,0,1,.5528.5859l.0738,5.9482a.5944.5944,0,0,1-.5947.6019C193.2748,69.7289,193.2609,69.7283,193.2469,69.7274Zm-4.9259-6.292.0592,4.7552,4.3058.3049-.0586-4.7549Z"/><path class="d" d="M353.2184,152.3152c-15.2836-.5052-29.5683-3.9638-40.2221-9.7387-10.8466-5.8794-16.676-13.4843-16.4136-21.4138v0c.2619-7.9295,6.5809-15.1325,17.7921-20.2823,11.0115-5.0583,25.4919-7.5663,40.7784-7.06,15.2841.5055,29.5689,3.964,40.2227,9.7386,10.8465,5.8794,16.676,13.4843,16.4135,21.4138s-6.5809,15.1325-17.7927,20.2823c-10.0823,4.6312-23.0728,7.1241-36.9249,7.1238Q355.1556,152.379,353.2184,152.3152ZM315.12,102.5017c-10.5655,4.853-16.5157,11.5012-16.7544,18.72v0c-.2386,7.2187,5.2593,14.2458,15.481,19.7864,10.4151,5.6451,24.4188,9.0276,39.4312,9.5241,15.0066.497,29.2089-1.9532,39.9741-6.8983,10.5661-4.853,16.5164-11.5015,16.755-18.72s-5.2592-14.2456-15.481-19.7862c-10.4151-5.6454-24.4188-9.0276-39.4317-9.5243q-1.91-.0632-3.7994-.063C337.6991,95.54,324.9717,97.9761,315.12,102.5017Z"/><path class="d" d="M356.3,156.2522c29.7338.0014,54.6492-12.7861,55.1776-28.7714a.8916.8916,0,0,0-.8618-.9209.88.88,0,0,0-.9209.8617c-.2387,7.2077-6.3614,14.2848-16.7986,19.4166-10.9319,5.3753-25.1255,8.0653-39.9758,7.5744-15.3678-.5084-29.285-3.88-39.1885-9.493-10.2246-5.7949-15.4775-13.4332-15.1912-22.0891a.8916.8916,0,0,0-.8617-.921.87.87,0,0,0-.921.8617c-.31,9.3618,5.2557,17.5572,16.0942,23.7006,10.15,5.7528,24.359,9.2058,40.0089,9.7235C354.0127,156.2333,355.1625,156.2522,356.3,156.2522Z"/><path class="d" d="M352.2417,147.2467c-13.142-.4347-25.43-3.3253-34.5994-8.1394-9.3716-4.9207-14.4119-11.294-14.1918-17.9463s5.67-12.6783,15.3468-16.969c9.468-4.1983,21.9242-6.2713,35.0616-5.8358,13.1419.4346,25.4292,3.3252,34.5987,8.1394,9.3716,4.9207,14.412,11.294,14.1919,17.946s-5.67,12.6786-15.3469,16.9692c-8.6411,3.8319-19.7681,5.8928-31.6378,5.8928Q353.9628,147.3036,352.2417,147.2467ZM305.2331,121.22c-.1962,5.9308,4.5056,11.7222,13.239,16.3076,8.9355,4.6919,20.95,7.51,33.8288,7.9362s25.0529-1.5925,34.2788-5.6837c9.0174-3.9983,14.0908-9.4666,14.2871-15.3977s-4.5055-11.7222-13.2384-16.3076c-8.9361-4.6919-20.95-7.51-33.8288-7.9361-1.1311-.0375-2.25-.0558-3.3633-.0558C325.6069,100.0831,305.6286,109.26,305.2331,121.22Z"/><path class="d" d="M353.54,128.7464a35.6638,35.6638,0,0,1-15.3283-3.6838c-4.2657-2.2885-6.5576-5.2929-6.4525-8.46.2119-6.3982,10.1056-11.0916,22.5356-10.6775a35.6681,35.6681,0,0,1,15.3283,3.6835c4.2657,2.2888,6.5576,5.2929,6.4525,8.46s-2.5892,6.0132-6.9972,8.0148a34.7236,34.7236,0,0,1-14.0623,2.6877Q354.2818,128.7711,353.54,128.7464ZM333.542,116.6622h0c-.0813,2.4525,1.8767,4.8777,5.513,6.8285a37.3864,37.3864,0,0,0,29.2861.9686c3.757-1.7064,5.8712-3.9969,5.9519-6.45s-1.8767-4.878-5.5129-6.8285a33.869,33.869,0,0,0-14.5444-3.473q-.6881-.0226-1.3681-.0227C342.42,107.6854,333.7075,111.66,333.542,116.6622Z"/><path class="d" d="M354.5824,131.9631c8.0831,0,15.4508-2.3593,19.0312-6.1552a8.21,8.21,0,0,0,2.4139-6.4781.8921.8921,0,0,0-1.7768.1626,6.3924,6.3924,0,0,1-1.9343,5.0914c-3.4481,3.6548-10.9325,5.8423-19.0516,5.5737-5.9793-.1977-10.9476-1.4474-14.3684-3.6142a10.6721,10.6721,0,0,1-5.3544-9.8811.8918.8918,0,0,0-.8618-.921.87.87,0,0,0-.9209.8617,12.5037,12.5037,0,0,0,6.1825,11.4473c3.6891,2.337,8.9675,3.6821,15.2638,3.89C353.6661,131.9556,354.126,131.9631,354.5824,131.9631Z"/><path class="d" d="M353.47,123.9367a20.1185,20.1185,0,0,1-8.5808-2.051c-2.4835-1.3211-3.8174-3.0872-3.7546-4.9727.1225-3.7056,5.7377-6.4273,12.7726-6.193,7.0391.2326,12.4574,3.3175,12.3355,7.0237-.1179,3.5575-5.2935,6.2069-11.9365,6.2069C354.0307,123.9506,353.7508,123.9459,353.47,123.9367Zm-10.5527-6.9645c-.0378,1.1515.9859,2.3684,2.81,3.3384a18.32,18.32,0,0,0,7.802,1.8434c6.33.2049,10.8553-2.1869,10.9308-4.4693s-4.2646-4.972-10.612-5.182q-.392-.0126-.774-.0127C347.1375,112.49,342.99,114.7837,342.9177,116.9722Z"/><polygon class="f" points="353.507 122.817 358.69 122.624 363.149 149.691 357.646 149.967 353.507 122.817"/><path class="d" d="M356.7646,150.1013l-4.1385-27.15a.892.892,0,0,1,.8483-1.0257l5.1826-.1928a.904.904,0,0,1,.9134.7465l4.4591,27.0673a.8917.8917,0,0,1-.8356,1.0356l-5.5031.2758c-.0151.0009-.03.0012-.0453.0012A.8914.8914,0,0,1,356.7646,150.1013Zm1.173-26.5569-3.3976.1263,3.8662,25.3651,3.7007-.1856Z"/><polygon class="f" points="357.037 154.525 362.998 154.265 363.149 149.691 357.646 149.967 357.037 154.525"/><path class="d" d="M356.38,155.1271a.8892.8892,0,0,1-.2259-.72l.6086-4.5584a.8912.8912,0,0,1,.839-.7726l5.5032-.2758a.8913.8913,0,0,1,.936.92l-.1509,4.5734a.8917.8917,0,0,1-.8525.8618l-5.9607.2607-.0389.0009A.8909.8909,0,0,1,356.38,155.1271Zm5.8463-4.4968-3.7942.19-.3693,2.7672,4.0718-.1783Z"/><path class="d" d="M357.052,154.96c.0151,0,.0308,0,.0459-.0012a.8916.8916,0,0,0,.8461-.8614l.1509-4.5735a.9078.9078,0,0,0-.0081-.1544l-3.7111-26.2207a.8919.8919,0,0,0-1.7746.0955l-.1214,3.6589a.86.86,0,0,0,.0076.15l3.6815,27.1352A.8919.8919,0,0,0,357.052,154.96Z"/><polygon class="f" points="345.536 73.105 350.719 72.912 355.178 99.979 349.675 100.255 345.536 73.105"/><path class="d" d="M348.7936,100.3894l-4.1386-27.15a.8923.8923,0,0,1,.8484-1.0258l5.1826-.1928a.9086.9086,0,0,1,.9134.7465l4.4591,27.067a.8917.8917,0,0,1-.8356,1.0357l-5.5031.2761c-.0151.0008-.03.0011-.0453.0011A.8913.8913,0,0,1,348.7936,100.3894Zm1.1729-26.5569-3.3975.1263,3.8662,25.3651,3.7006-.1858Z"/><polygon class="f" points="349.066 104.813 355.027 104.553 355.178 99.979 349.675 100.255 349.066 104.813"/><path class="d" d="M348.4086,105.4152a.8891.8891,0,0,1-.2259-.72l.6085-4.5584a.8914.8914,0,0,1,.8391-.7726l5.5032-.2761a.8914.8914,0,0,1,.936.92l-.151,4.5738a.8916.8916,0,0,1-.8524.8617l-5.9607.2607-.0389.0009A.8906.8906,0,0,1,348.4086,105.4152Zm5.8463-4.4971-3.7942.1905-.3693,2.7672,4.0717-.1782Z"/><path class="d" d="M349.081,105.248c.0151,0,.0308,0,.0459-.0012a.8914.8914,0,0,0,.846-.8614l.151-4.5737a.92.92,0,0,0-.0081-.1545l-3.7112-26.22a.8919.8919,0,0,0-1.7745.0955l-.1214,3.6589a.86.86,0,0,0,.0076.15l3.6815,27.1353A.8919.8919,0,0,0,349.081,105.248Z"/><polygon class="f" points="375.96 108.45 377.226 111.697 433.541 111.728 430.903 108.435 375.96 108.45"/><path class="d" d="M433.54,112.62l-56.3154-.0308a.8918.8918,0,0,1-.83-.5679l-1.2659-3.2469a.8921.8921,0,0,1,.831-1.216l54.9429-.0145h0a.8916.8916,0,0,1,.696.3342l2.638,3.2922a.8919.8919,0,0,1-.6959,1.45Zm-56.2759-3.278.5708,1.4636,53.8472.0293-1.2078-1.5071Z"/><polygon class="f" points="377.226 111.697 377.105 115.355 433.42 115.386 433.541 111.728 377.226 111.697"/><path class="d" d="M433.42,116.2783l-56.3154-.0307a.8917.8917,0,0,1-.8907-.9213l.1207-3.6589a.8915.8915,0,0,1,.8914-.8626h.0006l56.3154.0308a.8918.8918,0,0,1,.8907.9213l-.1208,3.6588a.8916.8916,0,0,1-.8913.8626Zm-55.3311-3.689-.0616,1.875,54.53.03.0618-1.875Z"/><polygon class="f" points="375.96 108.45 375.839 112.109 377.105 115.355 377.226 111.697 375.96 108.45"/><path class="d" d="M377.1041,116.2476a.8921.8921,0,0,0,.892-.8626l.1207-3.6589a.885.885,0,0,0-.06-.3534l-1.2658-3.2468a.8918.8918,0,0,0-1.7223.2946l-.1208,3.6589a.885.885,0,0,0,.06.3534l1.2658,3.2469A.8927.8927,0,0,0,377.1041,116.2476Z"/><polygon class="f" points="402.771 121.47 408.275 121.194 408.471 115.248 402.968 115.524 402.771 121.47"/><path class="d" d="M402.3545,121.8935a.5929.5929,0,0,1-.1771-.4436l.1968-5.9456a.5941.5941,0,0,1,.5645-.574l5.5031-.2758a.5847.5847,0,0,1,.4465.17.5929.5929,0,0,1,.1771.4436l-.1968,5.9456a.5941.5941,0,0,1-.5644.5741l-5.5032.2758-.03.0008A.5939.5939,0,0,1,402.3545,121.8935Zm5.5014-6.019-4.3116.216-.1574,4.7529,4.3116-.2161Z"/><polygon class="f" points="330.873 107.026 329.54 110.246 273.236 109.116 275.942 105.879 330.873 107.026"/><path class="d" d="M329.5219,111.1376l-56.3041-1.13a.8916.8916,0,0,1-.666-1.4636l2.706-3.2371a.8925.8925,0,0,1,.7026-.32l54.9308,1.1471a.8918.8918,0,0,1,.8054,1.2328l-1.3327,3.22a.892.892,0,0,1-.824.5507Zm-53.1707-4.3583-1.2386,1.4819,53.8362,1.0806.601-1.4514Z"/><polygon class="f" points="329.54 110.246 329.585 113.906 273.282 112.776 273.236 109.116 329.54 110.246"/><path class="d" d="M329.5672,114.7979l-56.3035-1.13a.8923.8923,0,0,1-.8739-.8806l-.0459-3.6606a.892.892,0,0,1,.91-.9027l56.3041,1.13a.8915.8915,0,0,1,.8739.8806l.0453,3.66a.8917.8917,0,0,1-.8919.903Zm-55.4278-4.7721.0232,1.8759,54.5191,1.0943-.0227-1.8756Z"/><polygon class="f" points="330.873 107.026 330.918 110.686 329.585 113.906 329.54 110.246 330.873 107.026"/><path class="d" d="M329.5858,114.7982a.8918.8918,0,0,0,.8234-.5508l1.3332-3.22a.8934.8934,0,0,0,.068-.3522l-.0459-3.6606a.8919.8919,0,0,0-1.7159-.33l-1.3327,3.22a.8944.8944,0,0,0-.0679.3522l.0453,3.66a.8923.8923,0,0,0,.7235.8649A.9077.9077,0,0,0,329.5858,114.7982Z"/><polygon class="f" points="303.798 119.49 298.302 119.101 298.228 113.152 303.724 113.542 303.798 119.49"/><path class="d" d="M303.7565,120.0833l-5.4968-.3894a.5948.5948,0,0,1-.5528-.5859l-.0737-5.9482a.5963.5963,0,0,1,.1864-.44.603.603,0,0,1,.45-.16l5.4962.389a.5946.5946,0,0,1,.5528.5856l.0743,5.9485a.5942.5942,0,0,1-.5946.6022C303.7843,120.0847,303.77,120.0841,303.7565,120.0833Zm-4.9259-6.292.0586,4.7549,4.3063.3051-.0592-4.7552Z"/><path class="d" d="M130.369,162.3444c-15.2836-.5055-29.5683-3.964-40.2221-9.7389-10.8466-5.8794-16.676-13.4843-16.4136-21.4138S80.3142,116.0594,91.526,110.91c11.0115-5.0583,25.49-7.5674,40.7778-7.06,15.2841.5055,29.5689,3.964,40.2227,9.7386,10.8465,5.8794,16.676,13.4843,16.4135,21.4138s-6.5808,15.1326-17.7926,20.2824c-10.0824,4.6312-23.0734,7.1241-36.9262,7.1241Q132.3059,162.4083,130.369,162.3444ZM75.516,131.2509c-.5005,15.1439,24.1326,28.2926,54.9122,29.3108,30.7715,1.0229,56.228-10.4743,56.7291-25.6191.2387-7.2187-5.2592-14.2456-15.4809-19.7861-10.4152-5.6454-24.4189-9.0276-39.4318-9.5244-1.2717-.0421-2.5306-.0627-3.7832-.0627C99.4088,105.5694,75.9963,116.7327,75.516,131.2509Z"/><path class="d" d="M133.4507,166.2811c29.7338.0015,54.6491-12.786,55.1775-28.7713a.8917.8917,0,0,0-.8617-.921.8827.8827,0,0,0-.921.8618c-.2387,7.2077-6.3614,14.2847-16.7985,19.4165-10.932,5.3754-25.125,8.0648-39.9759,7.5744-15.3672-.5081-29.2844-3.8795-39.1885-9.4927-10.2246-5.7952-15.4775-13.4335-15.1912-22.0894a.8917.8917,0,0,0-.8617-.921.8816.8816,0,0,0-.921.8618c-.3095,9.3617,5.2558,17.5572,16.0942,23.7005,10.15,5.7528,24.359,9.2061,40.009,9.7235C131.1634,166.2623,132.3131,166.2811,133.4507,166.2811Z"/><path class="d" d="M129.3923,157.2756c-13.142-.4346-25.43-3.3253-34.5994-8.1394-9.3716-4.9207-14.4119-11.294-14.1918-17.9463s5.67-12.6783,15.3468-16.9689c9.468-4.1984,21.9254-6.2708,35.0616-5.8359,13.142.4347,25.4292,3.3253,34.5987,8.1394,9.3717,4.9207,14.412,11.294,14.1919,17.946s-5.67,12.6786-15.3468,16.9693c-8.6412,3.8319-19.7682,5.8927-31.6379,5.8927Q131.1134,157.3325,129.3923,157.2756ZM82.3838,131.2492c-.1963,5.9308,4.5055,11.7222,13.2389,16.3076,8.9356,4.6919,20.95,7.51,33.8288,7.9361,12.8778.4228,25.0524-1.5925,34.2788-5.6837,9.0174-3.9983,14.0908-9.4665,14.2871-15.3976s-4.5055-11.7223-13.2384-16.3076c-8.9361-4.6919-20.95-7.51-33.8288-7.9362-1.1311-.0374-2.25-.0557-3.3633-.0557C102.7576,110.1121,82.7792,119.2892,82.3838,131.2492Z"/><path class="d" d="M130.6907,138.7754a35.6681,35.6681,0,0,1-15.3283-3.6836c-4.2657-2.2887-6.5576-5.2929-6.4525-8.46.2119-6.3985,10.1-11.0907,22.5357-10.6776a35.668,35.668,0,0,1,15.3282,3.6836c4.2657,2.2887,6.5577,5.2929,6.4526,8.46s-2.5893,6.0133-6.9973,8.0149A34.7206,34.7206,0,0,1,132.1674,138.8Q131.433,138.8,130.6907,138.7754Zm-19.9981-12.0843h0c-.0813,2.4528,1.8767,4.878,5.513,6.8285a33.87,33.87,0,0,0,14.5443,3.4731,33.8964,33.8964,0,0,0,14.7418-2.5045c3.757-1.7063,5.8712-3.9968,5.952-6.45s-1.8768-4.878-5.513-6.8285a33.87,33.87,0,0,0-14.5444-3.4731q-.688-.0226-1.3681-.0226C119.5706,117.7144,110.8581,121.6891,110.6926,126.6911Z"/><path class="d" d="M131.733,141.9921c8.0831,0,15.4508-2.3593,19.0313-6.1552a8.21,8.21,0,0,0,2.4139-6.4781.8922.8922,0,0,0-1.7769.1626,6.3924,6.3924,0,0,1-1.9343,5.0914c-3.4481,3.6548-10.9336,5.84-19.0516,5.5737-5.9792-.1978-10.9476-1.4474-14.3684-3.6142a10.6723,10.6723,0,0,1-5.3544-9.8812.8916.8916,0,0,0-.8618-.9209.8814.8814,0,0,0-.9209.8617,12.5038,12.5038,0,0,0,6.1825,11.4473c3.6891,2.3369,8.9675,3.6821,15.2638,3.89C130.8167,141.9845,131.2766,141.9921,131.733,141.9921Z"/><path class="d" d="M130.621,133.9656a20.1166,20.1166,0,0,1-8.5807-2.051c-2.4836-1.321-3.8174-3.0872-3.7547-4.9726.1225-3.7054,5.715-6.4244,12.7726-6.193,7.0391.2329,12.4574,3.318,12.3355,7.0236-.1179,3.5576-5.2935,6.2069-11.9365,6.2069C131.1814,133.98,130.9015,133.9749,130.621,133.9656Zm-10.5527-6.9644c-.0378,1.1515.986,2.3683,2.81,3.3383a18.3172,18.3172,0,0,0,7.802,1.8434c6.3236.2041,10.8547-2.1868,10.9308-4.4692s-4.2645-4.9718-10.612-5.182q-.392-.0126-.774-.0128C124.2881,122.5189,120.1409,124.8126,120.0683,127.0012Z"/><polygon class="f" points="130.658 132.846 135.841 132.653 140.3 159.72 134.797 159.996 130.658 132.846"/><path class="d" d="M133.9152,160.13l-4.1385-27.15a.8921.8921,0,0,1,.8484-1.0258l5.1825-.1928a.9041.9041,0,0,1,.9135.7465l4.459,27.0673a.8917.8917,0,0,1-.8356,1.0357l-5.5031.2758c-.0151.0009-.03.0012-.0453.0012A.8915.8915,0,0,1,133.9152,160.13Zm1.173-26.5569-3.3976.1263,3.8662,25.365,3.7007-.1855Z"/><polygon class="f" points="134.188 164.554 140.149 164.294 140.3 159.72 134.797 159.996 134.188 164.554"/><path class="d" d="M133.53,165.1561a.8894.8894,0,0,1-.2259-.72l.6086-4.5583a.8911.8911,0,0,1,.8391-.7726l5.5031-.2759a.8914.8914,0,0,1,.936.92l-.1509,4.5735a.8916.8916,0,0,1-.8525.8617l-5.9607.2607-.0389.0009A.8908.8908,0,0,1,133.53,165.1561Zm5.8463-4.4968-3.7942.19-.3693,2.7673,4.0718-.1783Z"/><path class="d" d="M134.2026,164.9888c.0151,0,.0308,0,.0459-.0011a.8917.8917,0,0,0,.8461-.8615l.1509-4.5734a.91.91,0,0,0-.0081-.1545l-3.7111-26.2207a.892.892,0,0,0-1.7746.0955l-.1213,3.6589a.85.85,0,0,0,.0075.15l3.6815,27.1353A.8919.8919,0,0,0,134.2026,164.9888Z"/><polygon class="f" points="122.687 83.134 127.87 82.941 132.329 110.008 126.826 110.284 122.687 83.134"/><path class="d" d="M125.9442,110.4184l-4.1385-27.15a.892.892,0,0,1,.8483-1.0257l5.1826-.1928a.9075.9075,0,0,1,.9134.7464l4.4591,27.0674a.8917.8917,0,0,1-.8356,1.0356l-5.5031.2758c-.0151.0009-.03.0012-.0453.0012A.8914.8914,0,0,1,125.9442,110.4184Zm1.173-26.5569-3.3976.1263,3.8662,25.365,3.7007-.1855Z"/><polygon class="f" points="126.217 114.842 132.178 114.582 132.329 110.008 126.826 110.284 126.217 114.842"/><path class="d" d="M125.5592,115.4442a.8893.8893,0,0,1-.2259-.72l.6086-4.5583a.8912.8912,0,0,1,.839-.7726l5.5032-.2758a.8913.8913,0,0,1,.936.92l-.151,4.5734a.8914.8914,0,0,1-.8524.8617l-5.9607.2608-.0389.0008A.8908.8908,0,0,1,125.5592,115.4442Zm5.8463-4.4968-3.7942.19-.3693,2.7672,4.0717-.1783Z"/><path class="d" d="M126.2316,115.2769c.0151,0,.0308,0,.0459-.0011a.8914.8914,0,0,0,.846-.8615l.151-4.5737a.91.91,0,0,0-.0081-.1545l-3.7111-26.22a.8919.8919,0,0,0-1.7746.0955l-.1214,3.6588a.8609.8609,0,0,0,.0076.15l3.6815,27.1352A.8918.8918,0,0,0,126.2316,115.2769Z"/><polygon class="f" points="153.11 118.479 154.376 121.726 210.692 121.757 208.053 118.464 153.11 118.479"/><path class="d" d="M210.6912,122.6484l-56.3151-.0308a.8924.8924,0,0,1-.83-.5679l-1.2664-3.2469a.892.892,0,0,1,.8309-1.2159l54.943-.0145h0a.8924.8924,0,0,1,.6962.3342l2.6386,3.2921a.8919.8919,0,0,1-.6962,1.45Zm-56.2756-3.2779.5708,1.4636,53.8466.0293-1.2078-1.5072Z"/><polygon class="f" points="154.376 121.726 154.255 125.384 210.571 125.415 210.692 121.757 154.376 121.726"/><path class="d" d="M210.57,126.3073l-56.3151-.0308a.892.892,0,0,1-.8907-.9215l.1213-3.6589a.8919.8919,0,0,1,.8914-.8623h.0006l56.3151.0308a.892.892,0,0,1,.8907.9215l-.1213,3.6589a.8919.8919,0,0,1-.8914.8623Zm-55.33-3.6891-.0622,1.875,54.53.03.0622-1.8751Z"/><polygon class="f" points="153.11 118.479 152.989 122.138 154.255 125.384 154.376 121.726 153.11 118.479"/><path class="d" d="M154.2547,126.2765a.8921.8921,0,0,0,.892-.8623l.1213-3.6589a.8838.8838,0,0,0-.06-.3536l-1.2664-3.2469a.8919.8919,0,0,0-1.7223.2947l-.1208,3.6589a.8842.8842,0,0,0,.06.3533l1.2659,3.2469A.8924.8924,0,0,0,154.2547,126.2765Z"/><polygon class="f" points="179.922 131.499 185.425 131.223 185.622 125.277 180.119 125.553 179.922 131.499"/><path class="d" d="M179.5051,131.9225a.593.593,0,0,1-.1771-.4437l.1968-5.9456a.5941.5941,0,0,1,.5645-.574l5.5031-.2758a.5758.5758,0,0,1,.4465.17.5924.5924,0,0,1,.1771.4436l-.1968,5.9456a.5941.5941,0,0,1-.5644.574l-5.5032.2758-.03.0009A.5943.5943,0,0,1,179.5051,131.9225Zm5.5014-6.0191-4.3116.216-.1573,4.7529,4.3115-.216Z"/><polygon class="f" points="108.023 117.055 106.691 120.275 50.387 119.145 53.092 115.908 108.023 117.055"/><path class="d" d="M106.6725,121.1665l-56.304-1.13a.892.892,0,0,1-.6667-1.4636l2.706-3.2373a.88.88,0,0,1,.7032-.32l54.9308,1.1472a.8917.8917,0,0,1,.8054,1.2328l-1.3327,3.22a.8914.8914,0,0,1-.824.5508Zm-53.1707-4.3583L52.2632,118.29l53.8362,1.0806.601-1.4517Z"/><polygon class="f" points="106.691 120.275 106.736 123.935 50.432 122.805 50.387 119.145 106.691 120.275"/><path class="d" d="M106.7178,124.8271l-56.3035-1.13a.8921.8921,0,0,1-.8739-.88l-.0459-3.6606a.8927.8927,0,0,1,.2637-.644.8528.8528,0,0,1,.6463-.2587l56.304,1.13a.8915.8915,0,0,1,.8739.8806l.0453,3.6607a.8917.8917,0,0,1-.8919.9029ZM51.29,120.0551l.0232,1.8756,54.5191,1.0946-.0227-1.8759Z"/><polygon class="f" points="108.023 117.055 108.069 120.715 106.736 123.935 106.691 120.275 108.023 117.055"/><path class="d" d="M106.7364,124.8274a.8915.8915,0,0,0,.8234-.5508l1.3332-3.22a.8934.8934,0,0,0,.068-.3522l-.0459-3.6606a.8919.8919,0,0,0-1.7159-.33l-1.3327,3.22a.8944.8944,0,0,0-.0679.3522l.0453,3.6606a.8925.8925,0,0,0,.7235.865A.9075.9075,0,0,0,106.7364,124.8274Z"/><polygon class="f" points="80.949 129.519 75.452 129.13 75.378 123.181 80.875 123.571 80.949 129.519"/><path class="d" d="M80.9071,130.1122l-5.4967-.3893a.5949.5949,0,0,1-.5529-.586l-.0737-5.9482a.5944.5944,0,0,1,.6364-.6l5.4962.3891a.5945.5945,0,0,1,.5528.5856l.0743,5.9485a.5944.5944,0,0,1-.5946.6022C80.935,130.1137,80.921,130.1131,80.9071,130.1122Zm-4.9259-6.292.0586,4.7549,4.3064.3052-.0593-4.7552Z"/><path class="d" d="M425.7574,152.5123c-2.0109-1.389-3.0306-2.888-3.0311-4.4556-.0006-2.6293,2.85-4.6007,4.7366-5.9052.3246-.2247.6228-.43.8719-.6167,2.23-1.666,7.86-8.6635,7.9161-8.7337a.8912.8912,0,0,1,.4788-.3069l3.2318-.8089a.884.884,0,0,1,.5867.0537l5.4126,2.4682a.8917.8917,0,0,1,.5211.8411l-.5141,15.55a.89.89,0,0,1-.196.5287c-1.2145,1.5129-6.544,3.5575-11.9252,3.5575A14.2055,14.2055,0,0,1,425.7574,152.5123ZM444.68,135.5834l-4.5877-2.0919-2.6392.66c-1.0321,1.2746-5.8573,7.1737-8.05,8.8119-.2645.1977-.58.4163-.9253.6547-1.58,1.0928-3.9675,2.744-3.9672,4.4375,0,.9468.761,1.9523,2.2612,2.9882,5.6584,3.9074,15.6769.5572,17.4254-.8562Z"/><path class="d" d="M433.7534,159.1483a19.34,19.34,0,0,0,9.0456-2.4693l.1945-.0979c.1153-.058,2.8239-1.4374,2.8837-3.2384l.0906-2.7446a.8918.8918,0,0,0-1.7827-.0587l-.0906,2.7443c-.0131.3923-1.0821,1.292-1.9012,1.7029l-.1965.099a16.2733,16.2733,0,0,1-12.125,1.7862c-4.5365-1.137-6.2046-3.7605-5.4076-8.5064l.0317-.1821a.892.892,0,1,0-1.7566-.3112l-.0339.1948c-.946,5.6349,1.3193,9.1782,6.7327,10.5353A17.6916,17.6916,0,0,0,433.7534,159.1483Z"/><path class="d" d="M442.3588,136.72a.8848.8848,0,0,0,.2166-.0267l3.2318-.8089a.8919.8919,0,1,0-.4332-1.73l-2.929.7331-5.1285-2.3387a.892.892,0,0,0-.74,1.623l5.4125,2.4682A.8914.8914,0,0,0,442.3588,136.72Z"/><path class="d" d="M435.35,154.8019c.02,0,.04-.0006.06-.002a.892.892,0,0,0,.8307-.9491c-.0027-.04-.2352-4.2071,2.2484-6.5315,2.012-1.8835,4.4552-10.2941,4.7273-11.247a.8919.8919,0,0,0-1.7154-.49c-.9752,3.4156-2.9864,9.2688-4.2308,10.434-3.1078,2.9089-2.823,7.748-2.8093,7.9524A.8919.8919,0,0,0,435.35,154.8019Z"/><path class="d" d="M343.6145,199.702c-2.0109-1.3887-3.0306-2.8878-3.0312-4.4556-.0006-2.6293,2.8506-4.6007,4.7372-5.9055.3246-.2245.6225-.43.8716-.6161,2.23-1.6663,7.859-8.6638,7.9153-8.7341a.8936.8936,0,0,1,.479-.3069l3.2321-.8086a.8861.8861,0,0,1,.5865.0538l5.4125,2.4681a.8908.8908,0,0,1,.5215.8412l-.5145,15.55a.8928.8928,0,0,1-.1957.529c-1.2148,1.5124-6.5443,3.5567-11.9254,3.5567A14.2036,14.2036,0,0,1,343.6145,199.702Zm18.9221-16.9286-4.5874-2.0919-2.64.66c-1.0325,1.2752-5.8573,7.1737-8.05,8.8121-.2642.1975-.58.4161-.9244.6545-1.58,1.0925-3.9684,2.744-3.9678,4.4378,0,.9468.7612,1.952,2.2611,2.9879,5.657,3.9071,15.6767.5575,17.4251-.8559Z"/><path class="d" d="M351.61,206.3383a19.3375,19.3375,0,0,0,9.0464-2.47l.194-.0976c.1149-.0581,2.8238-1.4375,2.8836-3.2385l.0906-2.7443a.8915.8915,0,0,0-.8617-.9206.8769.8769,0,0,0-.921.862l-.0906,2.744c-.0133.3923-1.0818,1.292-1.9011,1.7029l-.1963.0987a16.2676,16.2676,0,0,1-12.1252,1.7867c-4.5363-1.1369-6.204-3.7605-5.4073-8.5064l.0308-.1774a.892.892,0,1,0-1.7549-.3205l-.0354.2041c-.9453,5.63,1.32,9.1739,6.7336,10.5307A17.6872,17.6872,0,0,0,351.61,206.3383Z"/><path class="d" d="M360.2156,183.91a.8854.8854,0,0,0,.2166-.0267l3.232-.8089a.8919.8919,0,1,0-.4331-1.7305l-2.93.7331-5.1286-2.3389a.8918.8918,0,1,0-.74,1.623l5.4126,2.4684A.8886.8886,0,0,0,360.2156,183.91Z"/><path class="d" d="M353.2067,201.9919c.02,0,.04-.0006.06-.002a.8923.8923,0,0,0,.831-.9492c-.0029-.04-.2352-4.2073,2.2484-6.5318,2.0115-1.8831,4.455-10.2937,4.7267-11.2466a.8919.8919,0,1,0-1.7153-.49c-.9755,3.4155-2.9864,9.2688-4.2308,10.4337-3.1073,2.9089-2.8227,7.7483-2.8094,7.9527A.8926.8926,0,0,0,353.2067,201.9919Z"/><path class="d" d="M302.0928,223.0529c-2.0109-1.3887-3.0306-2.8877-3.0311-4.4555-.0006-2.6294,2.8505-4.6008,4.7372-5.9056.3246-.2244.6225-.43.8716-.6161,2.23-1.666,7.8595-8.6635,7.9158-8.7337a.8931.8931,0,0,1,.4791-.3069l3.2315-.8089a.8867.8867,0,0,1,.5865.0537l5.4125,2.4682a.8916.8916,0,0,1,.5215.8408l-.514,15.55a.8912.8912,0,0,1-.1956.529c-1.2148,1.513-6.5443,3.5573-11.9255,3.5573A14.2048,14.2048,0,0,1,302.0928,223.0529Zm18.9221-16.9286-4.5874-2.0919-2.6392.6605c-1.0318,1.2746-5.8573,7.1738-8.05,8.8119-.2642.1974-.58.416-.9245.6544-1.58,1.0926-3.9684,2.744-3.9678,4.4379.0006.9468.7613,1.9519,2.2612,2.9879,5.6582,3.9077,15.6778.5577,17.4257-.856Z"/><path class="d" d="M310.0888,229.6892a19.3371,19.3371,0,0,0,9.0453-2.4693l.1951-.0978c.115-.0581,2.8239-1.4375,2.8837-3.2385l.0905-2.7446a.8916.8916,0,0,0-.8617-.9207.8813.8813,0,0,0-.9209.862l-.0906,2.7444c-.0134.3922-1.0818,1.292-1.9012,1.7028l-.1968.099a16.268,16.268,0,0,1-12.1252,1.7862c-4.5363-1.1373-6.2041-3.7608-5.4074-8.5064l.0326-.1858a.8922.8922,0,0,0-1.7583-.3037l-.0326.1872c-.9465,5.6385,1.3188,9.1821,6.7325,10.5391A17.6875,17.6875,0,0,0,310.0888,229.6892Z"/><path class="d" d="M318.6945,207.26a.8848.8848,0,0,0,.2166-.0267l3.2315-.8089a.8919.8919,0,1,0-.4332-1.73l-2.9289.7331-5.1286-2.3387a.8918.8918,0,1,0-.74,1.623l5.4125,2.4682A.89.89,0,0,0,318.6945,207.26Z"/><path class="d" d="M311.6857,225.3428c.02,0,.0406-.0005.06-.002a.8923.8923,0,0,0,.8309-.9494c-.0029-.04-.2357-4.2068,2.2478-6.5312,2.0121-1.8835,4.4556-10.2941,4.7274-11.247a.8919.8919,0,1,0-1.7154-.4895c-.9755,3.4156-2.9864,9.2689-4.2314,10.434-3.1078,2.9089-2.8221,7.748-2.8087,7.9527A.8924.8924,0,0,0,311.6857,225.3428Z"/><path class="d" d="M384.221,176.3205c-2.0109-1.3887-3.0306-2.8877-3.0312-4.4555-.0006-2.6294,2.8506-4.6008,4.7372-5.9056.3246-.2244.6225-.43.8716-.6161,2.23-1.6662,7.8595-8.6635,7.9159-8.734a.8937.8937,0,0,1,.479-.3066l3.2315-.8089a.8892.8892,0,0,1,.5865.0537l5.4125,2.4682a.8914.8914,0,0,1,.5215.8408l-.5139,15.55a.8914.8914,0,0,1-.1957.529c-1.2148,1.513-6.5443,3.5576-11.9255,3.5576A14.2047,14.2047,0,0,1,384.221,176.3205Zm18.9221-16.9286L398.5557,157.3l-2.6392.66c-1.0325,1.2746-5.8579,7.1735-8.0506,8.8119-.2642.1974-.58.416-.9244.6544-1.58,1.0926-3.9684,2.744-3.9678,4.4379,0,.9468.7612,1.9519,2.2611,2.9879,5.6582,3.908,15.6779.5577,17.4257-.856Z"/><path class="d" d="M392.2164,182.9569a19.3361,19.3361,0,0,0,9.0452-2.4694l.1957-.0981c.115-.0581,2.8245-1.4378,2.8831-3.2388l.0912-2.7437a.8918.8918,0,1,0-1.7827-.0592l-.0912,2.7443c-.0127.3925-1.0818,1.292-1.9005,1.7028l-.1975.0993a16.2687,16.2687,0,0,1-12.1246,1.7862c-4.5363-1.137-6.204-3.76-5.4073-8.5064l.0308-.178a.8919.8919,0,0,0-1.7549-.3194l-.0354.203c-.9453,5.6308,1.32,9.1745,6.7336,10.5312A17.6841,17.6841,0,0,0,392.2164,182.9569Z"/><path class="d" d="M400.8227,160.528a.8846.8846,0,0,0,.2165-.0267l3.2315-.8089a.8919.8919,0,1,0-.4332-1.73l-2.9289.7331-5.1286-2.3387a.8918.8918,0,1,0-.74,1.623l5.4126,2.4682A.89.89,0,0,0,400.8227,160.528Z"/><path class="d" d="M393.8132,178.6105c.02,0,.04-.0006.06-.0021a.8921.8921,0,0,0,.831-.9491c-.0029-.04-.2352-4.207,2.2484-6.5315,2.012-1.8835,4.4556-10.294,4.7273-11.2469a.8919.8919,0,1,0-1.7153-.49c-.9756,3.4156-2.9865,9.2689-4.2314,10.434-3.1073,2.9089-2.8227,7.7481-2.8094,7.9525A.8926.8926,0,0,0,393.8132,178.6105Z"/></g></svg>