<svg xmlns="http://www.w3.org/2000/svg" viewBox="0 0 362.2824 204.4327"><defs><style>.a{opacity:0.5;}.b{fill:#606060;}.c,.d{fill:#fff;}.c{opacity:0.6;}.e{fill:#d91519;}</style></defs><title>estufa_perilla</title><g class="a"><ellipse class="b" cx="257.0852" cy="86.7047" rx="16.1534" ry="9.3087"/><ellipse class="b" cx="176.0445" cy="50.0173" rx="16.1534" ry="9.3087"/><ellipse class="b" cx="173.3066" cy="133.7959" rx="16.1534" ry="9.3087"/><ellipse class="b" cx="94.4562" cy="93.8231" rx="16.1534" ry="9.3087"/><ellipse class="c" cx="257.0852" cy="86.1571" rx="16.1534" ry="9.3087"/><ellipse class="c" cx="176.5921" cy="50.0173" rx="16.1534" ry="9.3087"/><ellipse class="c" cx="173.8542" cy="133.7959" rx="16.1534" ry="9.3087"/><ellipse class="c" cx="95.0038" cy="93.8231" rx="16.1534" ry="9.3087"/><path class="b" d="M188.9614,195.5271,8.9687,117.3337A14.9093,14.9093,0,0,1,7.73,90.5928L169.2626,1.8372a14.9532,14.9532,0,0,1,13.51-.4318l170.93,80.1654a14.9091,14.9091,0,0,1,1.0447,26.4554L202.2771,194.81a14.9805,14.9805,0,0,1-13.3157.7172Zm165.142-88.6327A13.6068,13.6068,0,0,0,353.15,82.75L182.22,2.5843a13.6489,13.6489,0,0,0-12.33.394L8.357,91.7339a13.6067,13.6067,0,0,0,1.1305,24.4052L189.48,194.3326a13.6714,13.6714,0,0,0,12.1526-.6545Z"/><path class="b" d="M194.639,204.4327a14.9393,14.9393,0,0,0,7.3842-1.9438l143.6886-81.7851a26.0173,26.0173,0,0,0,12.0464-15.034.6511.6511,0,0,0-1.245-.3819,24.7175,24.7175,0,0,1-11.4457,14.2841L201.3789,201.3571a13.6719,13.6719,0,0,1-12.1526.6548L17.725,127.5071A17.9915,17.9915,0,0,1,7.4494,115.2606a.6512.6512,0,0,0-1.2665.3035,19.3,19.3,0,0,0,11.0233,13.1373l171.5013,74.5048A14.8925,14.8925,0,0,0,194.639,204.4327Z"/><path class="b" d="M173.0022,158.23c-11.1573-.369-21.5846-2.8937-29.3618-7.1091-7.9183-4.2919-12.1734-9.8432-11.9822-15.6317v0c.1912-5.7885,4.804-11.0466,12.9885-14.8059,8.0387-3.6926,18.6128-5.5232,29.7679-5.1537,11.1573.3687,21.5847,2.8935,29.3619,7.1091,7.9183,4.2917,12.1733,9.8432,11.9821,15.6319s-4.8039,11.0464-12.9885,14.8057c-7.36,3.3808-16.8434,5.2006-26.9558,5.2006Q174.4162,158.2767,173.0022,158.23Zm-27.8116-36.3636c-7.7132,3.5426-12.0568,8.396-12.231,13.6658v0c-.365,11.055,17.6174,20.6534,40.0859,21.3967,22.457.7448,41.046-7.6464,41.4118-18.7013s-17.617-20.6536-40.0859-21.3967q-1.3944-.046-2.7744-.046C161.6728,116.7847,152.3824,118.563,145.1906,121.8664Z"/><path class="b" d="M175.2963,161.1047c10.1163,0,19.7077-1.9983,27.2449-5.7044,8.065-3.9651,12.7995-9.5416,12.99-15.2993a.651.651,0,1,0-1.3013-.0433c-.1743,5.2618-4.6438,10.428-12.2628,14.1742-7.9807,3.924-18.3478,5.8855-29.1821,5.529-11.2184-.3709-21.3778-2.832-28.6073-6.93-7.4639-4.23-11.2985-9.8063-11.09-16.1251a.6509.6509,0,0,0-.629-.6723.6385.6385,0,0,0-.6723.6291c-.226,6.8342,3.8366,12.8168,11.7486,17.3012,7.4092,4.2,17.7819,6.72,29.2062,7.0981Q174.0234,161.1049,175.2963,161.1047Z"/><path class="b" d="M172.2892,154.53c-9.5935-.3173-18.5635-2.4275-25.2572-5.9417-6.8412-3.5921-10.5206-8.2446-10.36-13.1005v0c.16-4.856,4.1389-9.2553,11.2031-12.3875,6.9112-3.0647,16.0054-4.5789,25.5943-4.26,9.5935.3173,18.5635,2.4274,25.2572,5.9417,6.8412,3.5919,10.5206,8.2443,10.36,13.1s-4.1394,9.2551-11.2031,12.3872c-6.3084,2.7973-14.4306,4.3017-23.0954,4.3017Q173.5457,154.5714,172.2892,154.53Zm-23.8863-30.2391c-6.5827,2.9187-10.2862,6.91-10.4295,11.24v0c-.1433,4.3294,3.289,8.5571,9.6643,11.9042,6.5229,3.425,15.2932,5.4824,24.6948,5.7933.8257.0274,1.6426.0407,2.4552.0407,18.1248-.0008,32.7088-6.6992,32.9975-15.43.1433-4.3294-3.289-8.5571-9.6643-11.9044-6.5229-3.4249-15.2932-5.4822-24.6948-5.7932q-1.2368-.0407-2.46-.0407C162.4829,120.101,154.5472,121.5662,148.4029,124.2908Z"/><path class="b" d="M173.2371,141.0248a26.0378,26.0378,0,0,1-11.19-2.6889c-3.114-1.6708-4.7871-3.8638-4.71-6.1757.1547-4.6705,7.3715-8.0947,16.4508-7.7946a26.0349,26.0349,0,0,1,11.19,2.6892c3.114,1.6706,4.7871,3.8638,4.71,6.1755-.1483,4.48-6.8022,7.813-15.3491,7.813Q173.7933,141.0433,173.2371,141.0248Zm-14.5985-8.8214h0c-.0593,1.7905,1.37,3.5609,4.0244,4.9848a24.7262,24.7262,0,0,0,10.6173,2.5353c8.05.262,14.98-2.7267,15.1063-6.5364.0593-1.79-1.37-3.5607-4.0245-4.9848a24.7272,24.7272,0,0,0-10.6172-2.5353q-.5024-.0165-.9979-.0166C165.12,125.65,158.7594,128.5522,158.6386,132.2034Z"/><path class="b" d="M173.998,143.3732c5.9005,0,11.2789-1.7223,13.8926-4.4933a5.9933,5.9933,0,0,0,1.7622-4.7289.6513.6513,0,0,0-1.2972.1187,4.6664,4.6664,0,0,1-1.4119,3.7167c-2.5171,2.6678-7.9815,4.2624-13.9076,4.0687-4.422-.1462-14.6768-1.399-14.3975-9.8517a.651.651,0,1,0-1.3013-.0432c-.2209,6.6793,5.6318,10.8648,15.6556,11.1963C173.3291,143.3677,173.6648,143.3732,173.998,143.3732Z"/><path class="b" d="M173.1862,137.5137a14.678,14.678,0,0,1-6.2639-1.4972c-1.813-.9643-2.7866-2.2534-2.7409-3.63h0c.09-2.7046,4.1889-4.69,9.324-4.5208a14.6818,14.6818,0,0,1,6.2634,1.4972c1.813.9644,2.7867,2.2536,2.7409,3.63s-1.1017,2.5985-2.9744,3.441a14.2968,14.2968,0,0,1-5.7438,1.09C173.591,137.5239,173.3888,137.5205,173.1862,137.5137Zm-7.7034-5.0839h0c-.0276.8408.72,1.729,2.0508,2.4371a14.8073,14.8073,0,0,0,11.4676.3792c1.3751-.6187,2.18-1.4554,2.2072-2.2964s-.72-1.7289-2.0508-2.437a13.3724,13.3724,0,0,0-5.6954-1.3456q-.2856-.0093-.5647-.0094C168.5636,129.1577,165.5358,130.8321,165.4828,132.43Z"/><polygon class="d" points="173.213 136.696 176.996 136.555 180.252 156.314 176.234 156.516 173.213 136.696"/><path class="b" d="M175.5909,156.6137l-3.021-19.8193a.6512.6512,0,0,1,.6193-.7488l3.7832-.1407a.671.671,0,0,1,.6668.5449l3.2551,19.7587a.651.651,0,0,1-.61.756l-4.0172.2014-.0331.0008A.6509.6509,0,0,1,175.5909,156.6137Zm.8563-19.3861-2.48.0922,2.8223,18.5161,2.7015-.1354Z"/><polygon class="d" points="175.79 159.843 180.141 159.653 180.252 156.314 176.234 156.516 175.79 159.843"/><path class="b" d="M175.31,160.2827a.6492.6492,0,0,1-.1649-.5254l.4442-3.3278a.6508.6508,0,0,1,.6126-.5642l4.0172-.2013a.6507.6507,0,0,1,.6833.6717l-.11,3.3388a.6508.6508,0,0,1-.6223.629l-4.3512.19-.0284.0007A.65.65,0,0,1,175.31,160.2827ZM179.5777,157l-2.77.1388-.27,2.02,2.9724-.13Z"/><path class="b" d="M175.8008,160.16l.0335-.0008a.6509.6509,0,0,0,.6176-.6288l.11-3.3386a.6772.6772,0,0,0-.0059-.1128l-2.7092-19.1407a.6511.6511,0,0,0-1.2954.07l-.0886,2.6709a.6437.6437,0,0,0,.0055.1092l2.6875,19.8083A.651.651,0,0,0,175.8008,160.16Z"/><polygon class="d" points="167.394 100.407 171.178 100.266 174.433 120.025 170.415 120.226 167.394 100.407"/><path class="b" d="M169.7722,120.3244l-3.0211-19.8195a.6512.6512,0,0,1,.6193-.7488l3.7832-.1408a.6661.6661,0,0,1,.6668.545l3.2551,19.7589a.651.651,0,0,1-.61.756l-4.0172.2014-.0331.0008A.6507.6507,0,0,1,169.7722,120.3244Zm.8562-19.3863-2.48.0922,2.8223,18.5163,2.7015-.1354Z"/><polygon class="d" points="169.971 123.554 174.323 123.364 174.433 120.025 170.415 120.226 169.971 123.554"/><path class="b" d="M169.4911,123.9932a.6494.6494,0,0,1-.1649-.5256l.4443-3.3276a.65.65,0,0,1,.6125-.5639l4.0172-.2014a.6507.6507,0,0,1,.6833.6717l-.11,3.3386a.6508.6508,0,0,1-.6222.629l-4.3513.19-.0284.0007A.65.65,0,0,1,169.4911,123.9932Zm4.2678-3.2826-2.77.1388-.27,2.02,2.9723-.13Z"/><path class="b" d="M169.982,123.8712l.0335-.0009a.6509.6509,0,0,0,.6176-.6288l.11-3.3386a.6666.6666,0,0,0-.0059-.1128l-2.7091-19.1409a.6511.6511,0,0,0-1.2955.07l-.0885,2.6709a.6237.6237,0,0,0,.0055.1092l2.6874,19.8085A.6511.6511,0,0,0,169.982,123.8712Z"/><polygon class="d" points="189.603 126.209 190.527 128.579 231.637 128.601 229.711 126.198 189.603 126.209"/><path class="b" d="M231.6364,129.2525l-41.11-.0227a.6509.6509,0,0,1-.6061-.4146l-.9241-2.37a.6512.6512,0,0,1,.6066-.8876l40.1079-.0106h0a.6514.6514,0,0,1,.5082.244l1.9258,2.4034a.6514.6514,0,0,1-.5083,1.0583Zm-41.0808-2.3931.4167,1.0684,39.3081.0216-.8817-1.1Z"/><polygon class="d" points="190.527 128.579 190.439 131.25 231.549 131.272 231.637 128.601 190.527 128.579"/><path class="b" d="M231.5482,131.9232l-41.1095-.0224a.651.651,0,0,1-.65-.6726l.0882-2.6709a.6507.6507,0,0,1,.6506-.63h.0005l41.11.0227a.6513.6513,0,0,1,.65.6725l-.0882,2.6707a.6507.6507,0,0,1-.6506.63Zm-40.391-2.693-.045,1.3688,39.8066.0216.0449-1.3685Z"/><polygon class="d" points="189.603 126.209 189.515 128.879 190.439 131.25 190.527 128.579 189.603 126.209"/><path class="b" d="M190.4387,131.9008a.6515.6515,0,0,0,.6511-.63l.0881-2.671a.6449.6449,0,0,0-.0441-.2579l-.924-2.37a.6511.6511,0,0,0-1.2573.2149l-.0886,2.6709a.6466.6466,0,0,0,.0441.2582l.9245,2.37A.6512.6512,0,0,0,190.4387,131.9008Z"/><polygon class="d" points="209.175 135.713 213.193 135.512 213.336 131.171 209.319 131.373 209.175 135.713"/><path class="b" d="M208.8712,136.0223a.4334.4334,0,0,1-.1293-.3239l.1433-4.34a.4336.4336,0,0,1,.412-.419l4.0177-.2014a.4255.4255,0,0,1,.326.124.4333.4333,0,0,1,.1293.3238l-.1437,4.34a.4336.4336,0,0,1-.4121.419l-4.0172.2014-.0216.0006A.4339.4339,0,0,1,208.8712,136.0223Zm4.016-4.3939-3.1478.1577-.1145,3.47,3.1474-.1577Z"/><polygon class="d" points="156.69 125.169 155.717 127.52 114.616 126.695 116.591 124.332 156.69 125.169"/><path class="b" d="M155.704,128.1705l-41.1015-.8249a.6511.6511,0,0,1-.4867-1.0684l1.9749-2.3632a.6416.6416,0,0,1,.5134-.2334l40.0994.8374a.6509.6509,0,0,1,.588.9l-.9729,2.3507a.651.651,0,0,1-.6015.4021ZM116.89,124.989l-.9046,1.082,39.3.7888.4387-1.06Z"/><polygon class="d" points="155.717 127.52 155.75 130.192 114.649 129.367 114.616 126.695 155.717 127.52"/><path class="b" d="M155.7371,130.8427l-41.1016-.8249a.6507.6507,0,0,1-.6379-.6428l-.0331-2.6722a.6521.6521,0,0,1,.1924-.47.6254.6254,0,0,1,.4718-.1887l41.1016.8249a.6507.6507,0,0,1,.6379.6429l.0331,2.6722a.6508.6508,0,0,1-.6511.6591Zm-40.4619-3.4835.0165,1.3693,39.7989.7989-.0165-1.3694Z"/><polygon class="d" points="156.69 125.169 156.723 127.841 155.75 130.192 155.717 127.52 156.69 125.169"/><path class="b" d="M155.7506,130.8429a.6512.6512,0,0,0,.6011-.402l.9728-2.3507a.6522.6522,0,0,0,.05-.2571l-.033-2.6722a.6511.6511,0,0,0-1.2526-.241l-.9729,2.3507a.6536.6536,0,0,0-.05.2571l.0331,2.6722a.6514.6514,0,0,0,.5282.6314A.663.663,0,0,0,155.7506,130.8429Z"/><polygon class="d" points="136.926 134.268 132.913 133.984 132.859 129.641 136.872 129.926 136.926 134.268"/><path class="b" d="M136.8954,134.7008l-4.0125-.284a.4341.4341,0,0,1-.4036-.4277l-.0538-4.3424a.4337.4337,0,0,1,.4646-.4383l4.0121.2842a.4341.4341,0,0,1,.4036.4275l.0542,4.3422a.4337.4337,0,0,1-.4341.4395ZM133.3,130.1077l.0429,3.4712,3.1435.2226-.0432-3.4711Z"/><path class="b" d="M175.7736,74.43c-11.1573-.369-21.585-2.8937-29.3622-7.1091-7.9179-4.2919-12.1734-9.8434-11.9818-15.6319s4.804-11.0467,12.9886-14.806c8.0387-3.6925,18.6076-5.5239,29.7674-5.1536,11.1573.3687,21.5851,2.8935,29.3623,7.1091C214.4658,43.13,218.7212,48.6816,218.53,54.47s-4.8039,11.0464-12.9885,14.8057c-7.36,3.3808-16.8434,5.2006-26.9553,5.2006Q177.1875,74.4764,175.7736,74.43ZM147.9616,38.066c-7.7128,3.5427-12.0564,8.3961-12.2306,13.6659s3.8392,10.3992,11.301,14.4438c7.6029,4.1211,17.8255,6.59,28.7849,6.9527q1.3925.046,2.7616.0458c21.2083-.0009,38.2992-8.1492,38.65-18.7474.1742-5.27-3.8392-10.3993-11.301-14.4439-7.603-4.1209-17.8256-6.59-28.7849-6.9525q-1.3944-.0461-2.7744-.046C164.4438,32.9844,155.1534,34.7626,147.9616,38.066Z"/><path class="b" d="M178.0673,77.3044c10.1162,0,19.7077-1.9983,27.2449-5.7044,8.065-3.9651,12.8-9.5416,12.99-15.2993a.651.651,0,0,0-1.3013-.0433c-.1743,5.2618-4.6438,10.428-12.2629,14.1742-7.9806,3.9237-18.3478,5.8864-29.182,5.529-11.2179-.3709-21.3774-2.832-28.6069-6.93-7.4639-4.23-11.2984-9.8063-11.09-16.1251a.6509.6509,0,0,0-.629-.6723.6438.6438,0,0,0-.6723.6291c-.226,6.8342,3.8366,12.8168,11.7486,17.3012,7.4092,4.2,17.7815,6.72,29.2058,7.0981Q176.7944,77.3046,178.0673,77.3044Z"/><path class="b" d="M175.06,70.73c-9.5935-.3173-18.5631-2.4275-25.2568-5.9417-6.8416-3.5921-10.521-8.2446-10.36-13.1s4.1393-9.255,11.2035-12.3872c6.9112-3.0647,16.0058-4.5791,25.5943-4.26,9.5935.3173,18.5631,2.4274,25.2568,5.9417,6.8416,3.5919,10.521,8.2445,10.36,13.1s-4.1393,9.2551-11.2031,12.3872c-6.3084,2.7973-14.4306,4.3017-23.0958,4.3017Q176.3166,70.7711,175.06,70.73ZM140.7444,51.7307c-.1433,4.3292,3.289,8.5569,9.6643,11.9042,6.5233,3.425,15.2932,5.4824,24.6948,5.7933.8257.0274,1.6426.0407,2.4552.0407,18.1252-.0008,32.7093-6.6992,32.9979-15.43.1433-4.33-3.289-8.5572-9.6643-11.9044-6.5233-3.4249-15.2932-5.4822-24.6948-5.7932-.8257-.0273-1.6425-.0407-2.4552-.0407C155.6171,36.3007,141.033,43,140.7444,51.7307Z"/><path class="b" d="M176.0081,57.2245a26.0386,26.0386,0,0,1-11.19-2.6889c-3.1139-1.6708-4.787-3.8638-4.71-6.1757.1548-4.6709,7.3754-8.0943,16.4513-7.7946a26.0386,26.0386,0,0,1,11.19,2.689c3.1139,1.6708,4.787,3.8638,4.71,6.1757-.1484,4.48-6.8023,7.813-15.35,7.813Q176.5643,57.243,176.0081,57.2245ZM161.41,48.4031h0c-.0593,1.7905,1.37,3.5609,4.0244,4.9848a24.7262,24.7262,0,0,0,10.6173,2.5353c8.0506.2666,14.9808-2.7267,15.1067-6.5364.0593-1.7906-1.37-3.561-4.0244-4.9848a24.7248,24.7248,0,0,0-10.6173-2.5353q-.5024-.0165-.9987-.0166C167.8909,41.85,161.53,44.7517,161.41,48.4031Z"/><path class="b" d="M176.7685,59.5729c5.901,0,11.2794-1.7223,13.8935-4.4933a5.993,5.993,0,0,0,1.7622-4.7289.6513.6513,0,0,0-1.2971.1187,4.6675,4.6675,0,0,1-1.4125,3.7167c-2.5166,2.6673-7.9742,4.2641-13.9075,4.0687-4.422-.1462-14.6768-1.399-14.3975-9.8517a.6509.6509,0,0,0-.6291-.6723.644.644,0,0,0-.6723.6291c-.2208,6.6793,5.6319,10.8648,15.6557,11.1963Q176.268,59.573,176.7685,59.5729Z"/><path class="b" d="M175.9572,53.7134c-5.1384-.17-9.0938-2.4221-9.0048-5.127v0c.0895-2.7048,4.1881-4.6884,9.324-4.5208a14.686,14.686,0,0,1,6.2639,1.4972c1.8129.9644,2.7866,2.2536,2.7408,3.63-.086,2.5972-3.8637,4.531-8.7131,4.531C176.3667,53.7236,176.1624,53.72,175.9572,53.7134Zm-7.7034-5.0841c-.0547,1.6661,3.113,3.6293,7.7466,3.7828,4.6328.1519,7.9243-1.5964,7.9794-3.2627.0275-.8406-.72-1.7289-2.0508-2.437a13.3725,13.3725,0,0,0-5.6959-1.3456q-.2854-.0093-.5646-.0094C171.3346,45.3574,168.3068,47.0318,168.2538,48.6293Z"/><polygon class="d" points="175.984 52.896 179.768 52.755 183.023 72.514 179.006 72.715 175.984 52.896"/><path class="b" d="M178.3619,72.8134l-3.0211-19.82a.6513.6513,0,0,1,.6194-.7488l3.7832-.1406a.6654.6654,0,0,1,.6668.545l3.2555,19.7587a.651.651,0,0,1-.61.756l-4.0177.2013-.033.0009A.6509.6509,0,0,1,178.3619,72.8134Zm.8563-19.3863-2.48.0922L179.56,72.0356l2.7019-.1355Z"/><polygon class="d" points="178.561 76.043 182.913 75.853 183.023 72.514 179.006 72.715 178.561 76.043"/><path class="b" d="M178.0809,76.4824a.6488.6488,0,0,1-.1649-.5254l.4442-3.3278a.6508.6508,0,0,1,.6126-.5642l4.0176-.2013a.6507.6507,0,0,1,.6833.6719l-.1106,3.3388a.6508.6508,0,0,1-.6223.6288l-4.3512.19-.0284.0007A.65.65,0,0,1,178.0809,76.4824ZM182.3491,73.2l-2.77.1388-.27,2.02,2.9724-.13Z"/><path class="b" d="M178.5718,76.36l.0335-.0008a.6511.6511,0,0,0,.6176-.6286l.1106-3.3386a.6673.6673,0,0,0-.0059-.113l-2.71-19.1407a.6511.6511,0,0,0-1.2954.07l-.0881,2.6709a.62.62,0,0,0,.0055.109l2.687,19.8083A.651.651,0,0,0,178.5718,76.36Z"/><polygon class="d" points="170.166 16.606 173.949 16.466 177.204 36.225 173.187 36.426 170.166 16.606"/><path class="b" d="M172.5432,36.5241l-3.0211-19.8195a.6512.6512,0,0,1,.6193-.7488l3.7832-.1408a.668.668,0,0,1,.6668.545l3.2555,19.7589a.6508.6508,0,0,1-.61.756l-4.0176.2014-.0331.0008A.6507.6507,0,0,1,172.5432,36.5241Zm.8562-19.3863-2.48.0922,2.8223,18.5163,2.7019-.1354Z"/><polygon class="d" points="172.742 39.754 177.094 39.563 177.204 36.225 173.187 36.426 172.742 39.754"/><path class="b" d="M172.2621,40.1929a.6494.6494,0,0,1-.1649-.5256l.4443-3.3276a.65.65,0,0,1,.6125-.5639l4.0176-.2014a.6509.6509,0,0,1,.6834.6719l-.1107,3.3386a.6508.6508,0,0,1-.6223.6288l-4.3512.19-.0284.0007A.65.65,0,0,1,172.2621,40.1929ZM176.53,36.91l-2.77.1388-.27,2.02,2.9723-.13Z"/><path class="b" d="M172.753,40.0709c.011,0,.0224,0,.0335-.0009a.651.651,0,0,0,.6176-.6286l.1106-3.3386a.6679.6679,0,0,0-.0059-.113l-2.71-19.1409a.6511.6511,0,0,0-1.2955.07l-.0881,2.6709a.62.62,0,0,0,.0055.109l2.687,19.8085A.6511.6511,0,0,0,172.753,40.0709Z"/><polygon class="d" points="192.374 42.408 193.299 44.778 234.408 44.801 232.482 42.398 192.374 42.408"/><path class="b" d="M234.4078,45.452l-41.11-.0225a.6513.6513,0,0,1-.6061-.4146l-.9245-2.37a.6512.6512,0,0,1,.6066-.8876l40.1083-.0106h0a.6518.6518,0,0,1,.5083.244l1.9257,2.4032a.6514.6514,0,0,1-.5082,1.0583Zm-41.0807-2.3929.4166,1.0684,39.3077.0214-.8813-1.1Z"/><polygon class="d" points="193.299 44.778 193.21 47.449 234.32 47.472 234.408 44.801 193.299 44.778"/><path class="b" d="M234.32,48.1229,193.21,48.1a.6511.6511,0,0,1-.65-.6727l.0886-2.6709a.651.651,0,0,1,.6507-.63h0l41.11.0225a.6508.6508,0,0,1,.65.6725l-.0881,2.6709a.6508.6508,0,0,1-.6507.63ZM193.9286,45.43l-.0454,1.3688,39.807.0216.0449-1.3688Z"/><polygon class="d" points="192.374 42.408 192.286 45.079 193.21 47.449 193.299 44.778 192.374 42.408"/><path class="b" d="M193.21,48.1a.6508.6508,0,0,0,.6511-.6294l.0886-2.671a.646.646,0,0,0-.044-.2581l-.9246-2.37a.651.651,0,0,0-1.2572.2151l-.0882,2.6709a.6471.6471,0,0,0,.0441.258l.9241,2.37A.6515.6515,0,0,0,193.21,48.1Z"/><polygon class="d" points="211.947 51.913 215.964 51.711 216.108 47.371 212.09 47.572 211.947 51.913"/><path class="b" d="M211.6422,52.222a.433.433,0,0,1-.1293-.3239l.1437-4.34a.4338.4338,0,0,1,.4121-.4191l4.0172-.2013a.4337.4337,0,0,1,.4553.4478l-.1433,4.34a.4336.4336,0,0,1-.412.419l-4.0177.2014-.0216.0006A.4339.4339,0,0,1,211.6422,52.222Zm4.016-4.3939-3.1474.1577-.1149,3.47,3.1478-.1577Z"/><polygon class="d" points="159.461 41.369 158.488 43.719 117.387 42.894 119.362 40.531 159.461 41.369"/><path class="b" d="M158.475,44.37l-41.1011-.8249a.6511.6511,0,0,1-.4867-1.0684l1.975-2.3632a.661.661,0,0,1,.5133-.2334l40.0994.8374a.6509.6509,0,0,1,.588.9l-.9733,2.3507a.6511.6511,0,0,1-.6015.4021Zm-38.8138-3.1815-.9046,1.0819,39.3.7889.4387-1.06Z"/><polygon class="d" points="158.488 43.719 158.521 46.391 117.42 45.567 117.387 42.894 158.488 43.719"/><path class="b" d="M158.5085,47.0424l-41.1016-.8249a.6507.6507,0,0,1-.6379-.6428l-.0331-2.6722a.6521.6521,0,0,1,.1925-.47.6151.6151,0,0,1,.4718-.1886l41.1011.8249a.6513.6513,0,0,1,.6379.6428l.0335,2.6723a.6512.6512,0,0,1-.6511.6591Zm-40.4619-3.4835.0165,1.3693,39.7989.7989-.0169-1.3694Z"/><polygon class="d" points="159.461 41.369 159.494 44.041 158.521 46.391 158.488 43.719 159.461 41.369"/><path class="b" d="M158.522,47.0426a.6511.6511,0,0,0,.6011-.402l.9729-2.3507a.6521.6521,0,0,0,.0495-.2571l-.033-2.6723A.6511.6511,0,0,0,158.86,41.12l-.9733,2.3507a.6529.6529,0,0,0-.05.2571l.0335,2.6722a.6514.6514,0,0,0,.5282.6314A.663.663,0,0,0,158.522,47.0426Z"/><polygon class="d" points="139.697 50.468 135.685 50.183 135.631 45.841 139.643 46.125 139.697 50.468"/><path class="b" d="M139.6664,50.9005l-4.0121-.284a.4341.4341,0,0,1-.4036-.4275l-.0542-4.3424a.4343.4343,0,0,1,.136-.3213.4388.4388,0,0,1,.3285-.1172l4.0126.2842a.4343.4343,0,0,1,.4036.4277l.0538,4.3422a.4337.4337,0,0,1-.4341.4393Zm-3.5959-4.5931.0433,3.4712,3.1431.2226-.0428-3.4711Z"/><path class="b" d="M256.4443,111.1889c-11.1568-.3688-21.5846-2.8935-29.3618-7.1091-7.9179-4.2919-12.1733-9.8434-11.9817-15.6319v0c.1911-5.7885,4.8039-11.0467,12.9881-14.806,8.0382-3.6925,18.6089-5.5233,29.7679-5.1539,11.1573.369,21.585,2.8937,29.3622,7.1091,7.9179,4.292,12.1734,9.8435,11.9818,15.632s-4.804,11.0466-12.9886,14.8059c-7.36,3.3808-16.8429,5.2-26.9549,5.2Q257.8584,111.2355,256.4443,111.1889ZM228.6327,74.8254c-7.7127,3.5427-12.0564,8.3959-12.2306,13.6655v0c-.1742,5.27,3.8392,10.3994,11.301,14.444,7.603,4.1208,17.8256,6.59,28.7845,6.9525,10.9547.3628,21.3222-1.4258,29.1808-5.0357,7.7132-3.5427,12.0568-8.396,12.231-13.6659s-3.8392-10.3991-11.301-14.4437c-7.6029-4.1211-17.8255-6.59-28.7849-6.9527q-1.3944-.046-2.7735-.046C245.1154,69.7436,235.8245,71.5218,228.6327,74.8254Z"/><path class="b" d="M258.6939,114.0629c21.7055.0011,39.8935-9.3337,40.2792-21.0028a.6508.6508,0,0,0-.629-.6723.6422.6422,0,0,0-.6723.629c-.1742,5.2616-4.6438,10.4278-12.2628,14.1739-7.98,3.924-18.3415,5.8877-29.1821,5.5293-11.2183-.3711-21.3778-2.832-28.6073-6.93-7.4639-4.23-11.2984-9.8061-11.0895-16.1249a.6509.6509,0,0,0-.629-.6723.6354.6354,0,0,0-.6723.6291c-.226,6.834,3.8366,12.8166,11.7486,17.3012,7.4092,4.2,17.7819,6.72,29.2063,7.0981C257.0242,114.0491,257.8635,114.0629,258.6939,114.0629Z"/><path class="b" d="M255.7314,107.489c-9.5936-.3173-18.5636-2.4275-25.2573-5.9418-6.8412-3.592-10.5206-8.2445-10.36-13.1006s4.1394-9.2551,11.2031-12.3872c6.9116-3.0648,16.0045-4.5781,25.5947-4.26,9.5936.3172,18.5631,2.4274,25.2568,5.9417,6.8412,3.592,10.5206,8.2445,10.36,13.1s-4.1389,9.2553-11.2031,12.3874c-6.3079,2.7973-14.4306,4.3017-23.0954,4.3017Q256.9878,107.5305,255.7314,107.489ZM221.4155,88.49c-.1433,4.3295,3.289,8.5572,9.6643,11.9045,6.5229,3.425,15.2933,5.4824,24.6948,5.7933s18.2884-1.1625,25.0233-4.1491c6.5826-2.9187,10.2862-6.91,10.4294-11.24s-3.289-8.5572-9.6639-11.9044c-6.5233-3.4251-15.2932-5.4825-24.6947-5.7934-.8258-.0273-1.6426-.0407-2.4552-.0407C236.2882,73.06,221.7042,79.7591,221.4155,88.49Z"/><path class="b" d="M256.6792,93.9839A26.0334,26.0334,0,0,1,245.49,91.2947c-3.1139-1.6705-4.7871-3.8637-4.71-6.1754.1547-4.6707,7.377-8.0968,16.4508-7.7946a26.0372,26.0372,0,0,1,11.19,2.689c3.1139,1.6708,4.787,3.8638,4.71,6.1755s-1.89,4.39-5.108,5.8508a25.35,25.35,0,0,1-10.2654,1.9619Q257.2208,94.0019,256.6792,93.9839Zm-14.5985-8.8214h0c-.0593,1.79,1.37,3.5607,4.0245,4.9848a27.2909,27.2909,0,0,0,21.3786.707c2.7426-1.2456,4.286-2.9176,4.3449-4.7082s-1.37-3.5609-4.0244-4.9847a24.7248,24.7248,0,0,0-10.6173-2.5353q-.5023-.0166-.9987-.0166C248.5616,78.61,242.2015,81.5111,242.0807,85.1625Z"/><path class="b" d="M257.44,96.3321c5.9006,0,11.2789-1.7223,13.8926-4.4933a5.9931,5.9931,0,0,0,1.7622-4.7289.6513.6513,0,0,0-1.2971.1187,4.6666,4.6666,0,0,1-1.412,3.7166c-2.5171,2.668-7.9807,4.2648-13.9075,4.0688-4.3649-.1443-7.9917-1.0566-10.4889-2.6383a7.7909,7.7909,0,0,1-3.9087-7.2132.6509.6509,0,0,0-.629-.6723.6353.6353,0,0,0-.6723.6291,9.1276,9.1276,0,0,0,4.5132,8.3564c2.693,1.7059,6.5461,2.6879,11.1424,2.84C256.7712,96.3266,257.1069,96.3321,257.44,96.3321Z"/><path class="b" d="M256.6283,90.4728a14.686,14.686,0,0,1-6.2639-1.4972c-1.8129-.9643-2.7866-2.2536-2.7409-3.63.0895-2.7051,4.1885-4.6918,9.324-4.5208,5.1384.17,9.0938,2.4217,9.0048,5.1272-.0861,2.597-3.8642,4.531-8.7136,4.531C257.0374,90.483,256.8331,90.48,256.6283,90.4728Zm-7.7034-5.0839c-.0276.84.72,1.7288,2.0512,2.4369a13.3725,13.3725,0,0,0,5.6955,1.3457c4.6208.15,7.9242-1.5964,7.9793-3.2625s-3.1131-3.63-7.7466-3.7829q-.2862-.0091-.5651-.0093C252.0053,82.1168,248.9779,83.7912,248.9249,85.3889Z"/><polygon class="d" points="256.655 89.655 260.439 89.514 263.694 109.273 259.676 109.475 256.655 89.655"/><path class="b" d="M259.0331,109.5728l-3.0211-19.82a.6511.6511,0,0,1,.6193-.7488l3.7832-.1408a.66.66,0,0,1,.6668.5449l3.2551,19.759a.651.651,0,0,1-.61.756l-4.0172.2013-.0331.0009A.6507.6507,0,0,1,259.0331,109.5728Zm.8562-19.3863-2.48.0922,2.8223,18.5163,2.7015-.1355Z"/><polygon class="d" points="259.232 112.802 263.583 112.612 263.694 109.273 259.676 109.475 259.232 112.802"/><path class="b" d="M258.752,113.2416a.6494.6494,0,0,1-.1649-.5256l.4443-3.3276a.6506.6506,0,0,1,.6125-.564l4.0172-.2013a.6507.6507,0,0,1,.6833.6716l-.11,3.3386a.6509.6509,0,0,1-.6222.6291l-4.3513.19-.0284.0006A.65.65,0,0,1,258.752,113.2416Zm4.2678-3.2826-2.77.1388-.27,2.02,2.9723-.13Z"/><path class="b" d="M259.2429,113.12l.0335-.0008a.6509.6509,0,0,0,.6176-.6289l.11-3.3385a.6661.6661,0,0,0-.0059-.1128l-2.7091-19.1409a.6511.6511,0,0,0-1.2955.07l-.0885,2.671a.6225.6225,0,0,0,.0055.1091l2.6874,19.8086A.6511.6511,0,0,0,259.2429,113.12Z"/><polygon class="d" points="250.837 53.366 254.62 53.225 257.875 72.984 253.858 73.185 250.837 53.366"/><path class="b" d="M253.2143,73.2835l-3.0211-19.82a.6511.6511,0,0,1,.6193-.7488l3.7832-.1408a.6634.6634,0,0,1,.6668.5449l3.2551,19.7588a.6508.6508,0,0,1-.61.756l-4.0172.2015-.0331.0009A.6507.6507,0,0,1,253.2143,73.2835Zm.8562-19.3863-2.48.0922,2.8223,18.5163,2.7015-.1357Z"/><polygon class="d" points="253.413 76.513 257.765 76.323 257.875 72.984 253.858 73.185 253.413 76.513"/><path class="b" d="M252.9332,76.9523a.6494.6494,0,0,1-.1649-.5256l.4443-3.3276a.6506.6506,0,0,1,.6125-.564l4.0172-.2015a.6508.6508,0,0,1,.6834.6716l-.11,3.3388a.6508.6508,0,0,1-.6222.6291l-4.3513.19-.0284.0007A.65.65,0,0,1,252.9332,76.9523ZM257.201,73.67l-2.77.139-.27,2.02,2.9723-.13Z"/><path class="b" d="M253.4241,76.83l.0335-.0008a.6508.6508,0,0,0,.6176-.6289l.11-3.3388a.6654.6654,0,0,0-.0059-.1127L251.47,53.6083a.6511.6511,0,0,0-1.2954.07l-.0886,2.671a.6225.6225,0,0,0,.0055.1091l2.6875,19.8086A.6509.6509,0,0,0,253.4241,76.83Z"/><polygon class="d" points="273.045 79.168 273.97 81.538 315.079 81.56 313.153 79.157 273.045 79.168"/><path class="b" d="M315.0787,82.2114l-41.11-.0225a.6509.6509,0,0,1-.6061-.4146l-.9241-2.37a.6512.6512,0,0,1,.6066-.8876l40.1079-.0106h0a.6508.6508,0,0,1,.5081.2439l1.9257,2.4033a.6512.6512,0,0,1-.508,1.0583Zm-41.0809-2.3929.4167,1.0684,39.308.0214-.8817-1.1Z"/><polygon class="d" points="273.97 81.538 273.881 84.209 314.991 84.231 315.079 81.56 273.97 81.538"/><path class="b" d="M314.9906,84.8823l-41.11-.0225a.6508.6508,0,0,1-.65-.6725l.0882-2.6709a.6508.6508,0,0,1,.6507-.63h0l41.11.0225a.6508.6508,0,0,1,.65.6725l-.0881,2.6709a.651.651,0,0,1-.6507.63Zm-40.3913-2.693-.045,1.3688,39.8068.0216.0451-1.3688Z"/><polygon class="d" points="273.045 79.168 272.957 81.838 273.881 84.209 273.97 81.538 273.045 79.168"/><path class="b" d="M273.8808,84.86a.6509.6509,0,0,0,.6511-.63l.0881-2.6709a.6463.6463,0,0,0-.044-.2579l-.9241-2.37a.651.651,0,0,0-1.2573.2151l-.0882,2.6709a.6489.6489,0,0,0,.0441.258l.9241,2.37A.6516.6516,0,0,0,273.8808,84.86Z"/><polygon class="d" points="292.618 88.672 296.635 88.471 296.779 84.13 292.761 84.332 292.618 88.672"/><path class="b" d="M292.3133,88.9814a.4331.4331,0,0,1-.1292-.3239l.1437-4.34a.4337.4337,0,0,1,.412-.4191l4.0172-.2013a.4272.4272,0,0,1,.326.124.4329.4329,0,0,1,.1293.3238l-.1437,4.34a.4336.4336,0,0,1-.412.419l-4.0173.2013-.0216.0007A.4339.4339,0,0,1,292.3133,88.9814Zm4.016-4.3939-3.1474.1577-.1149,3.4695,3.1474-.1576Z"/><polygon class="d" points="240.132 78.128 239.159 80.479 198.058 79.654 200.033 77.291 240.132 78.128"/><path class="b" d="M239.1461,81.13l-41.1015-.8251a.6509.6509,0,0,1-.4862-1.0685l1.9753-2.3629a.6516.6516,0,0,1,.5129-.2334l40.099.8374a.6509.6509,0,0,1,.588.9l-.9728,2.3507a.6511.6511,0,0,1-.6016.4021ZM200.3319,77.948l-.9042,1.0818,39.3.7889.4388-1.0595Z"/><polygon class="d" points="239.159 80.479 239.192 83.151 198.091 82.326 198.058 79.654 239.159 80.479"/><path class="b" d="M239.1792,83.8016l-41.1011-.8249a.6514.6514,0,0,1-.638-.6428l-.0335-2.6723a.6512.6512,0,0,1,.6643-.6589l41.1015.8251a.6507.6507,0,0,1,.6379.6428l.0331,2.672a.6508.6508,0,0,1-.6511.6592ZM198.7173,80.318l.0169,1.3694,39.7985.7988-.0165-1.3691Z"/><polygon class="d" points="240.132 78.128 240.165 80.8 239.192 83.151 239.159 80.479 240.132 78.128"/><path class="b" d="M239.1927,83.8018a.6508.6508,0,0,0,.6011-.4021l.9733-2.35a.6525.6525,0,0,0,.05-.257l-.0335-2.6723a.651.651,0,0,0-1.2526-.2409l-.9729,2.3507a.6531.6531,0,0,0-.05.257l.0331,2.6721a.6511.6511,0,0,0,.6515.643Z"/><polygon class="d" points="220.368 87.227 216.356 86.943 216.302 82.6 220.314 82.885 220.368 87.227"/><path class="b" d="M220.3375,87.66l-4.0125-.2843a.4342.4342,0,0,1-.4036-.4277l-.0538-4.3421a.4354.4354,0,0,1,.1361-.3211.44.44,0,0,1,.3285-.1172l4.0121.284a.4341.4341,0,0,1,.4036.4275l.0542,4.3423a.4336.4336,0,0,1-.434.44Zm-3.5958-4.5931.0428,3.471,3.1436.2228-.0433-3.4713Z"/><path class="b" d="M93.766,118.51c-11.1569-.369-21.5847-2.8937-29.3618-7.1093-7.9179-4.292-12.1734-9.8435-11.9818-15.632s4.804-11.0464,12.9885-14.8057c8.0383-3.6925,18.6072-5.5242,29.7675-5.1539,11.1573.369,21.5851,2.8937,29.3622,7.1091,7.9179,4.2919,12.1734,9.8434,11.9818,15.6319s-4.804,11.0467-12.9885,14.806c-7.36,3.3807-16.8434,5.2-26.9558,5.2Q95.18,118.5568,93.766,118.51ZM53.7238,95.8122c-.3654,11.0549,17.6165,20.6533,40.0854,21.3966,22.463.7467,41.046-7.6462,41.4118-18.7017.1743-5.27-3.8392-10.3992-11.3009-14.4438-7.603-4.121-17.8256-6.59-28.7849-6.9527-.9284-.0307-1.8474-.0457-2.7617-.0457C71.1653,77.0649,54.0743,85.214,53.7238,95.8122Z"/><path class="b" d="M96.0156,121.384c21.7054.001,39.8934-9.3337,40.2792-21.0029a.651.651,0,0,0-.6291-.6723.6444.6444,0,0,0-.6723.6291c-.1742,5.2615-4.6437,10.4277-12.2628,14.1739-7.98,3.924-18.341,5.8872-29.1821,5.5293-11.2179-.3709-21.3773-2.8321-28.6073-6.93-7.4639-4.2305-11.2984-9.8064-11.0894-16.1251a.6509.6509,0,0,0-.6291-.6723.6435.6435,0,0,0-.6723.629c-.2259,6.834,3.8367,12.8166,11.7486,17.3012,7.41,4.2,17.7819,6.72,29.2063,7.0981C94.3459,121.37,95.1852,121.384,96.0156,121.384Z"/><path class="b" d="M93.053,114.81c-9.5936-.3173-18.5636-2.4274-25.2573-5.9417-6.8412-3.5921-10.5206-8.2445-10.36-13.1006S61.5751,86.5126,68.6389,83.38c6.9115-3.0647,16.0053-4.5776,25.5946-4.26,9.5936.3173,18.5632,2.4274,25.2569,5.9417,6.8412,3.5921,10.5206,8.2445,10.36,13.1s-4.1389,9.2552-11.2031,12.3874c-6.3079,2.7973-14.4306,4.3017-23.0954,4.3017Q94.31,114.8516,93.053,114.81ZM58.7371,95.8109c-.1432,4.3294,3.289,8.5571,9.6644,11.9044,6.5229,3.4251,15.2932,5.4824,24.6947,5.7934,9.4007.3086,18.2881-1.1626,25.0233-4.1491,6.5826-2.9187,10.2862-6.91,10.43-11.24s-3.289-8.5571-9.664-11.9044c-6.5232-3.425-15.2932-5.4824-24.6947-5.7933-.8257-.0274-1.6426-.0407-2.4552-.0407C73.61,80.381,59.0258,87.08,58.7371,95.8109Z"/><path class="b" d="M94.0008,101.305a26.0385,26.0385,0,0,1-11.1895-2.689c-3.1139-1.6708-4.787-3.8638-4.71-6.1757.1547-4.6709,7.3732-8.0961,16.4509-7.7945a26.0385,26.0385,0,0,1,11.1895,2.6889c3.1139,1.6708,4.787,3.8638,4.71,6.1755s-1.89,4.39-5.1079,5.8508a25.3464,25.3464,0,0,1-10.265,1.962Q94.5427,101.323,94.0008,101.305ZM79.4024,92.4836h0c-.0594,1.7905,1.37,3.5609,4.0244,4.9847a24.7244,24.7244,0,0,0,10.6173,2.5353,24.7432,24.7432,0,0,0,10.7613-1.8282c2.7426-1.2456,4.286-2.9177,4.3449-4.7082s-1.37-3.5609-4.0244-4.9848a24.7258,24.7258,0,0,0-10.6173-2.5353q-.5022-.0165-.9986-.0165C85.8833,85.9306,79.5232,88.8321,79.4024,92.4836Z"/><path class="b" d="M94.7617,103.6531c5.9006,0,11.279-1.7222,13.8927-4.4932a5.9931,5.9931,0,0,0,1.7621-4.729.6513.6513,0,0,0-1.2971.1187,4.6663,4.6663,0,0,1-1.412,3.7167c-2.5171,2.668-7.9815,4.2631-13.9075,4.0687-4.3648-.1443-7.9917-1.0565-10.4888-2.6383a7.79,7.79,0,0,1-3.9087-7.2131.6509.6509,0,0,0-.6291-.6723.6435.6435,0,0,0-.6723.629,9.1274,9.1274,0,0,0,4.5132,8.3564c2.693,1.706,6.5462,2.6879,11.1425,2.84C94.0928,103.6476,94.4285,103.6531,94.7617,103.6531Z"/><path class="b" d="M93.95,97.7939a14.6853,14.6853,0,0,1-6.2639-1.4972c-1.813-.9644-2.7867-2.2536-2.7409-3.63.0894-2.7049,4.1719-4.69,9.3239-4.5208,5.1385.17,9.0938,2.4221,9.0048,5.1272-.086,2.5969-3.8642,4.531-8.7135,4.531C94.359,97.8041,94.1547,97.8007,93.95,97.7939ZM86.2465,92.71c-.0275.8406.72,1.7289,2.0513,2.437a13.372,13.372,0,0,0,5.6954,1.3456c4.6162.149,7.9238-1.5964,7.9794-3.2625s-3.1131-3.6293-7.7467-3.7828q-.286-.0091-.565-.0093C89.327,89.4379,86.3,91.1123,86.2465,92.71Z"/><polygon class="d" points="93.977 96.976 97.76 96.836 101.016 116.594 96.998 116.796 93.977 96.976"/><path class="b" d="M96.3547,116.8939l-3.0211-19.82a.6512.6512,0,0,1,.6193-.7488l3.7833-.1407a.66.66,0,0,1,.6668.5449l3.255,19.7589a.6508.6508,0,0,1-.61.756l-4.0172.2014-.0331.0008A.6506.6506,0,0,1,96.3547,116.8939Zm.8563-19.3864-2.48.0922L97.553,116.116l2.7015-.1354Z"/><polygon class="d" points="96.554 120.123 100.905 119.933 101.016 116.594 96.998 116.796 96.554 120.123"/><path class="b" d="M96.0737,120.5627a.6489.6489,0,0,1-.1649-.5257l.4442-3.3275a.6505.6505,0,0,1,.6125-.564l4.0173-.2014a.6508.6508,0,0,1,.6833.6717l-.11,3.3386a.6508.6508,0,0,1-.6223.629l-4.3513.19c-.0093,0-.019.0006-.0284.0006A.65.65,0,0,1,96.0737,120.5627Zm4.2677-3.2827-2.77.1389-.27,2.02,2.9723-.13Z"/><path class="b" d="M96.5645,120.4406l.0335-.0009a.6506.6506,0,0,0,.6176-.6288l.11-3.3386a.6654.6654,0,0,0-.0059-.1127L94.6108,97.2187a.6511.6511,0,0,0-1.2954.07l-.0886,2.6709a.6237.6237,0,0,0,.0055.1092L95.92,119.877A.6511.6511,0,0,0,96.5645,120.4406Z"/><polygon class="d" points="88.158 60.687 91.942 60.546 95.197 80.305 91.179 80.506 88.158 60.687"/><path class="b" d="M90.5359,80.6046l-3.0211-19.82a.6512.6512,0,0,1,.6193-.7488l3.7833-.1407a.6626.6626,0,0,1,.6668.5449l3.255,19.7589a.651.651,0,0,1-.61.7561l-4.0173.2013-.033.0009A.6507.6507,0,0,1,90.5359,80.6046Zm.8563-19.3864-2.48.0922,2.8223,18.5163,2.7014-.1354Z"/><polygon class="d" points="90.735 83.834 95.086 83.644 95.197 80.305 91.179 80.506 90.735 83.834"/><path class="b" d="M90.2549,84.2734a.6488.6488,0,0,1-.1649-.5256l.4442-3.3276a.6508.6508,0,0,1,.6125-.564l4.0173-.2013a.6505.6505,0,0,1,.6833.6716l-.11,3.3386a.6509.6509,0,0,1-.6223.6291l-4.3513.19c-.0093,0-.019.0006-.0284.0006A.65.65,0,0,1,90.2549,84.2734Zm4.2677-3.2826-2.77.1388-.27,2.02,2.9724-.13Z"/><path class="b" d="M90.7457,84.1513l.0335-.0008a.6508.6508,0,0,0,.6176-.6289l.11-3.3388a.6761.6761,0,0,0-.006-.1127L88.792,60.9294a.6511.6511,0,0,0-1.2954.07L87.408,63.67a.6232.6232,0,0,0,.0055.1092L90.101,83.5877A.6511.6511,0,0,0,90.7457,84.1513Z"/><polygon class="d" points="110.367 86.489 111.291 88.859 152.401 88.881 150.475 86.478 110.367 86.489"/><path class="b" d="M152.4006,89.5324l-41.11-.0225a.6513.6513,0,0,1-.6062-.4145l-.9245-2.37a.6512.6512,0,0,1,.6066-.8877l40.1079-.0106h0a.6516.6516,0,0,1,.5083.244l1.9262,2.4033a.6511.6511,0,0,1-.5083,1.0582ZM111.32,87.14l.4167,1.0685,39.3076.0214-.8817-1.1Z"/><polygon class="d" points="111.291 88.859 111.203 91.53 152.313 91.552 152.401 88.881 111.291 88.859"/><path class="b" d="M152.312,92.2034l-41.11-.0225a.6513.6513,0,0,1-.65-.6727l.0885-2.671a.6511.6511,0,0,1,.6507-.6295h0l41.11.0225a.6513.6513,0,0,1,.65.6727l-.0886,2.671a.651.651,0,0,1-.6507.63ZM111.9213,89.51l-.0453,1.3687,39.8065.0216.0454-1.3687Z"/><polygon class="d" points="110.367 86.489 110.279 89.16 111.203 91.53 111.291 88.859 110.367 86.489"/><path class="b" d="M111.2024,92.1809a.6509.6509,0,0,0,.6511-.6295l.0886-2.6709a.6466.6466,0,0,0-.0441-.2582l-.9245-2.37a.6511.6511,0,0,0-1.2573.2151l-.0881,2.671a.6449.6449,0,0,0,.0441.2579l.924,2.37A.6515.6515,0,0,0,111.2024,92.1809Z"/><polygon class="d" points="129.939 95.993 133.957 95.792 134.1 91.451 130.083 91.653 129.939 95.993"/><path class="b" d="M129.635,96.3024a.4329.4329,0,0,1-.1293-.3238l.1437-4.34a.4336.4336,0,0,1,.412-.419l4.0173-.2014a.42.42,0,0,1,.3259.124.4326.4326,0,0,1,.1293.3239l-.1437,4.34a.4338.4338,0,0,1-.412.4191l-4.0172.2013-.0217.0006A.4337.4337,0,0,1,129.635,96.3024Zm4.0159-4.3939-3.1474.1577-.1148,3.47,3.1474-.1577Z"/><polygon class="d" points="77.454 85.449 76.481 87.8 35.379 86.975 37.355 84.612 77.454 85.449"/><path class="b" d="M76.4677,88.4506l-41.1015-.8249a.651.651,0,0,1-.4866-1.0684l1.9753-2.3632a.6422.6422,0,0,1,.5134-.2333l40.099.8374a.6509.6509,0,0,1,.5879.9l-.9728,2.3507a.6508.6508,0,0,1-.6015.402ZM37.6535,85.2691l-.9041,1.082,39.3.7889.4387-1.06Z"/><polygon class="d" points="76.481 87.8 76.514 90.472 35.413 89.647 35.379 86.975 76.481 87.8"/><path class="b" d="M76.5008,91.1229,35.4,90.2978a.6514.6514,0,0,1-.638-.6427l-.0335-2.6722a.6515.6515,0,0,1,.1925-.47.6226.6226,0,0,1,.4718-.1888l41.1015.8249a.6508.6508,0,0,1,.638.6428l.0331,2.6722a.6512.6512,0,0,1-.6511.6592ZM36.0389,87.6393l.017,1.3692,39.7985.799-.0166-1.3694Z"/><polygon class="d" points="77.454 85.449 77.487 88.121 76.514 90.472 76.481 87.8 77.454 85.449"/><path class="b" d="M76.5144,91.1231a.651.651,0,0,0,.6011-.4021l.9732-2.3507a.6512.6512,0,0,0,.05-.2571l-.0335-2.6722a.6511.6511,0,0,0-1.2526-.241l-.9728,2.3507a.6519.6519,0,0,0-.05.2571l.0331,2.6722a.651.651,0,0,0,.6515.6431Z"/><polygon class="d" points="57.69 94.548 53.677 94.264 53.623 89.921 57.636 90.206 57.69 94.548"/><path class="b" d="M57.6592,94.9809l-4.0126-.2842a.4341.4341,0,0,1-.4035-.4277l-.0539-4.3422a.4339.4339,0,0,1,.4646-.4383l4.0122.284A.434.434,0,0,1,58.07,90.2l.0543,4.3424a.4339.4339,0,0,1-.4341.44Zm-3.5959-4.5931.0428,3.4711,3.1436.2227L57.2065,90.61Z"/></g><path class="e" d="M309.3973,111.3328c-1.4679-1.0139-2.2123-2.1082-2.2127-3.2525,0-1.9194,2.08-3.3585,3.4577-4.3108.2369-.164.4546-.3141.6365-.45,1.6279-1.2161,5.7373-6.3242,5.7787-6.3755a.6506.6506,0,0,1,.3495-.2241l2.3592-.59a.6452.6452,0,0,1,.4283.0392l3.9511,1.8017a.6512.6512,0,0,1,.38.614l-.3754,11.3515a.65.65,0,0,1-.1431.3859c-.8865,1.1045-4.777,2.597-8.7053,2.597A10.37,10.37,0,0,1,309.3973,111.3328Zm13.813-12.358-3.349-1.527-1.9266.4821c-.7534.93-4.2758,5.2368-5.8764,6.4326-.1931.1444-.4237.304-.6755.478-1.1534.7977-2.8962,2.0031-2.896,3.2394,0,.6911.5555,1.4251,1.6506,2.1813,4.1306,2.8524,11.4441.4067,12.72-.625Z"/><path class="e" d="M315.2343,116.1771a14.1173,14.1173,0,0,0,6.6032-1.8026l.142-.0715c.0842-.0424,2.0614-1.0493,2.1051-2.364l.0661-2.0035a.6511.6511,0,0,0-1.3014-.0429l-.0661,2.0034c-.01.2863-.79.9431-1.3878,1.243l-.1435.0723a11.879,11.879,0,0,1-8.8511,1.3039c-3.3117-.83-4.5293-2.7451-3.9475-6.21l.0231-.1329a.6511.6511,0,0,0-1.2823-.2272l-.0248.1422c-.6905,4.1135.9631,6.7,4.9148,7.6907A12.9184,12.9184,0,0,0,315.2343,116.1771Z"/><path class="e" d="M321.5162,99.8042a.6476.6476,0,0,0,.1581-.0195l2.3592-.5905a.6511.6511,0,0,0-.3162-1.2632l-2.1382.5352-3.7438-1.7073a.6511.6511,0,0,0-.54,1.1848l3.9511,1.8018A.65.65,0,0,0,321.5162,99.8042Z"/><path class="e" d="M316.4,113.0042c.0146,0,.0293,0,.0439-.0015a.6511.6511,0,0,0,.6064-.6928c-.0019-.0295-.1717-3.0711,1.6413-4.768,1.4688-1.3749,3.2523-7.5145,3.4509-8.21a.6511.6511,0,0,0-1.2522-.3574c-.7119,2.4934-2.18,6.7662-3.0885,7.6167-2.2687,2.1235-2.0607,5.6561-2.0508,5.8053A.6511.6511,0,0,0,316.4,113.0042Z"/><path class="e" d="M249.4336,145.7809c-1.468-1.0137-2.2123-2.108-2.2127-3.2525,0-1.9194,2.0808-3.3585,3.4581-4.311.2369-.1638.4544-.3139.6362-.45,1.6278-1.2163,5.737-6.3244,5.7781-6.3757a.6523.6523,0,0,1,.35-.2241l2.3594-.59a.6462.6462,0,0,1,.4282.0392l3.9511,1.8017a.65.65,0,0,1,.3806.614l-.3755,11.3515a.652.652,0,0,1-.1429.3862c-.8868,1.104-4.7773,2.5963-8.7055,2.5963A10.3682,10.3682,0,0,1,249.4336,145.7809Zm13.813-12.3577-3.3488-1.5271-1.927.482c-.7537.9308-4.2758,5.2367-5.8764,6.4328-.1929.1441-.4235.3037-.6749.4777-1.1534.7975-2.8969,2.0031-2.8964,3.24,0,.6911.5557,1.4249,1.6506,2.1811,4.13,2.8522,11.4438.407,12.72-.6248Z"/><path class="e" d="M255.27,150.6254a14.1169,14.1169,0,0,0,6.6038-1.803l.1416-.0713c.0839-.0423,2.0614-1.0493,2.105-2.364l.0662-2.0033a.6509.6509,0,0,0-.6291-.6721.64.64,0,0,0-.6723.6293l-.0661,2.0031c-.01.2863-.79.9431-1.3879,1.243l-.1432.0721a11.8752,11.8752,0,0,1-8.8513,1.3043c-3.3115-.83-4.5289-2.7451-3.9473-6.21l.0224-.1295a.6511.6511,0,0,0-1.281-.234l-.0258.149c-.69,4.11.9635,6.6969,4.9154,7.6873A12.91,12.91,0,0,0,255.27,150.6254Z"/><path class="e" d="M261.5523,134.2525a.6439.6439,0,0,0,.1581-.0195l2.3594-.59a.6511.6511,0,0,0-.3163-1.2632l-2.1385.5352-3.7438-1.7074a.651.651,0,1,0-.54,1.1847l3.9511,1.802A.65.65,0,0,0,261.5523,134.2525Z"/><path class="e" d="M256.4359,147.4526c.0148,0,.0292,0,.0441-.0015a.6513.6513,0,0,0,.6065-.6929c-.0021-.0294-.1716-3.0713,1.6414-4.7682,1.4683-1.3746,3.2521-7.5143,3.45-8.21a.6511.6511,0,1,0-1.2521-.3574c-.7122,2.4934-2.18,6.7662-3.0885,7.6166-2.2683,2.1235-2.0606,5.6562-2.0508,5.8054A.6515.6515,0,0,0,256.4359,147.4526Z"/><path class="e" d="M219.1231,162.8269c-1.468-1.0137-2.2123-2.108-2.2127-3.2525-.0005-1.9194,2.0809-3.3585,3.4581-4.311.2369-.1638.4544-.3139.6362-.45,1.6282-1.2162,5.7374-6.3243,5.7786-6.3756a.6517.6517,0,0,1,.35-.224l2.3589-.59a.6476.6476,0,0,1,.4282.0392l3.9511,1.8018a.6506.6506,0,0,1,.3806.6138l-.3751,11.3514a.6511.6511,0,0,1-.1429.3862c-.8867,1.1044-4.7772,2.5967-8.7055,2.5967A10.3691,10.3691,0,0,1,219.1231,162.8269Zm13.813-12.3577-3.3488-1.5271-1.9266.4822c-.7532.93-4.2758,5.2368-5.8768,6.4326-.1929.1441-.4235.3037-.6749.4777-1.1534.7976-2.8969,2.0031-2.8964,3.24,0,.6912.5557,1.4249,1.6506,2.1811,4.13,2.8526,11.4447.4072,12.7206-.6248Z"/><path class="e" d="M224.96,167.6714a14.1157,14.1157,0,0,0,6.603-1.8026l.1424-.0714c.0839-.0424,2.0614-1.0494,2.1051-2.3641l.0661-2.0035a.6508.6508,0,0,0-.6291-.6721.6434.6434,0,0,0-.6723.6293l-.0661,2.0033c-.01.2863-.79.9432-1.3878,1.2431l-.1437.0722a11.8748,11.8748,0,0,1-8.8513,1.3039c-3.3115-.83-4.5289-2.7453-3.9473-6.21l.0237-.1356a.6513.6513,0,0,0-1.2835-.2217l-.0238.1367c-.6909,4.116.9627,6.7028,4.9146,7.6934A12.9108,12.9108,0,0,0,224.96,167.6714Z"/><path class="e" d="M231.2422,151.2985a.6427.6427,0,0,0,.1581-.0195l2.359-.59a.6511.6511,0,0,0-.3163-1.2633l-2.1381.5352-3.7438-1.7072a.651.651,0,1,0-.54,1.1848l3.9511,1.8017A.6494.6494,0,0,0,231.2422,151.2985Z"/><path class="e" d="M226.1258,164.4986c.0148,0,.03-.0005.0441-.0015a.6515.6515,0,0,0,.6066-.6931c-.0021-.0292-.1721-3.0709,1.6409-4.7677,1.4688-1.3749,3.2525-7.5146,3.4509-8.21a.6511.6511,0,1,0-1.2522-.3573c-.7121,2.4933-2.18,6.7661-3.0889,7.6167-2.2687,2.1235-2.06,5.656-2.05,5.8054A.6516.6516,0,0,0,226.1258,164.4986Z"/><path class="e" d="M279.076,128.7127c-1.4679-1.0138-2.2123-2.1081-2.2127-3.2526,0-1.9194,2.0809-3.3585,3.4581-4.311.237-.1638.4544-.3139.6363-.45,1.6277-1.2164,5.7374-6.3243,5.7785-6.3758a.6525.6525,0,0,1,.35-.2238l2.359-.5905a.6493.6493,0,0,1,.4281.0392l3.9511,1.8018a.6507.6507,0,0,1,.3807.6138l-.3752,11.3514a.6516.6516,0,0,1-.1428.3862c-.8868,1.1044-4.7773,2.5969-8.7055,2.5969A10.37,10.37,0,0,1,279.076,128.7127Zm13.813-12.3578-3.3488-1.5271-1.9266.4822c-.7536.93-4.2762,5.2366-5.8768,6.4326-.1929.1441-.4235.3037-.6749.4777-1.1534.7976-2.8968,2.0031-2.8964,3.24,0,.6912.5557,1.4249,1.6506,2.1812,4.13,2.8528,11.4447.4071,12.7206-.6249Z"/><path class="e" d="M284.9126,133.5571a14.1157,14.1157,0,0,0,6.603-1.8026l.1428-.0716c.084-.0424,2.0618-1.05,2.1047-2.3643l.0665-2.0029a.651.651,0,1,0-1.3013-.0432l-.0666,2.0033c-.0093.2865-.79.9432-1.3874,1.2431l-.1441.0724a11.8755,11.8755,0,0,1-8.8509,1.3039c-3.3115-.83-4.5289-2.7451-3.9473-6.21l.0225-.13a.651.651,0,1,0-1.281-.2331l-.0259.1481c-.69,4.1105.9635,6.6973,4.9155,7.6877A12.9058,12.9058,0,0,0,284.9126,133.5571Z"/><path class="e" d="M291.1951,117.1842a.6427.6427,0,0,0,.1581-.02l2.359-.59a.6511.6511,0,1,0-.3162-1.2632l-2.1382.5351-3.7438-1.7072a.651.651,0,1,0-.54,1.1848l3.9511,1.8017A.6494.6494,0,0,0,291.1951,117.1842Z"/><path class="e" d="M286.0783,130.3843c.0148,0,.0292,0,.0441-.0015a.6514.6514,0,0,0,.6066-.6929c-.0021-.0294-.1717-3.0711,1.6413-4.7679,1.4688-1.3749,3.2525-7.5146,3.4509-8.21a.6511.6511,0,1,0-1.2522-.3573c-.7121,2.4933-2.18,6.7662-3.0889,7.6167-2.2682,2.1235-2.06,5.656-2.0508,5.8052A.6516.6516,0,0,0,286.0783,130.3843Z"/></svg>