<svg xmlns="http://www.w3.org/2000/svg" viewBox="0 0 733.5674 324.4478"><defs><style>.a{fill:#d91519;}.b{font-size:28.2038px;font-family:Lato-Italic, Lato;font-style:italic;}.b,.d,.f{fill:#606060;}.c{fill:none;stroke:#606060;stroke-miterlimit:10;stroke-width:2px;}.e{font-size:51.1059px;fill:#fff;}.e,.f{font-family:Lato-Black, Lato;font-weight:800;}.f{font-size:25.7459px;}</style></defs><title>func_2</title><path class="a" d="M630.5986,146.4265h-.2392c-66.5772-.0423-72.58-18.2623-72.803-19.0378a.7229.7229,0,0,1-.0286-.2061l.031-5.2942-2.7132-3.0777a.73.73,0,0,1-.1827-.4913c.01-.9229,1.0435-92.3542.575-98.8842-.4974-6.9295,6.7171-13.036,7.0248-13.2925a.7269.7269,0,0,1,.2692-.1422L583.6682.0276a.73.73,0,0,1,.4166.0057c.1436.045,14.4677,4.5162,23.0862,6.7414,8.8644,2.2887,17.4453,12.6074,17.8063,13.0457a.7307.7307,0,0,1,.1.16c8.9538,19.5231,69.7974,58.2543,70.4109,58.6431a.73.73,0,0,1,.1612.1386l8.18,9.4389a.7308.7308,0,0,1,.1784.4827L703.78,127.93a.7265.7265,0,0,1-.0371.2252C703.4959,128.902,696.9271,146.4265,630.5986,146.4265ZM558.99,127.0644c.243.619,2.1449,4.7451,10.897,8.8489,8.7821,4.1176,26.4024,9.0306,60.4736,9.0522h.233c33.9166,0,51.6344-4.7051,60.5311-8.6579,8.8316-3.9236,10.9061-7.8788,11.1957-8.526l.225-38.8318-7.93-9.15c-3.5844-2.2766-61.6435-39.3779-70.8246-59.12-.7714-.9136-8.949-10.4152-16.9849-12.49C598.7218,6.102,585.66,2.0534,583.857,1.4924l-20.771,5.87c-.8984.7916-6.8032,6.2291-6.3909,11.9684.4646,6.4732-.4932,92.1117-.5678,98.7247l2.7112,3.0761a.7292.7292,0,0,1,.1827.4872Zm144.06.8613h0Z"/><path class="a" d="M558.1518,122.344h-.0043a.7306.7306,0,0,1-.7262-.7348l.1812-31.3192a.73.73,0,0,1,1.3954-.298c.07.1518,7.5047,15.4191,43.7583,20.9849,36.3763,5.5831,57.5644-16.9938,57.7741-17.2223a.7337.7337,0,0,1,.6254-.2314c.2844.0343,28.6082,3.2511,36.3464-11.1119a.73.73,0,1,1,1.286.6929c-7.8081,14.4941-33.8738,12.2852-37.44,11.91a59.8571,59.8571,0,0,1-15.2158,10.75,71.29,71.29,0,0,1-43.5976,6.6557c-29.2268-4.4866-40.0525-15.0177-43.4853-19.6234l-.1669,28.82A.7307.7307,0,0,1,558.1518,122.344Z"/><path class="a" d="M659.8251,93.9287a.7287.7287,0,0,1-.497-.195c-2.4935-2.3147-61.0961-56.7909-63.43-66.0037-2.3166-9.1445-1.6293-14.247-1.5994-14.46a.73.73,0,0,1,.4637-.58l13.8585-5.2746a.73.73,0,1,1,.5193,1.3654l-13.4352,5.1137c-.1056,1.3751-.2616,6.0915,1.6094,13.4756,1.7834,7.04,41.9948,45.7871,63.0079,65.2917a.73.73,0,0,1-.4969,1.266Z"/><path class="a" d="M605.895,105.74c-19.0918.0005-29.78-5.5581-35.4033-10.2533-5.45-4.5508-7.3073-9.1057-7.73-10.3256l-4.72-2.4694a.7305.7305,0,0,1,.6773-1.2946l4.9841,2.6079a.7321.7321,0,0,1,.3643.4477c.0138.0488,1.5123,5.0655,7.4481,9.9851,5.502,4.56,16.0309,9.9689,35.0513,9.8389,36.4434-.2509,47.1464-16.3546,47.25-16.5172a.7348.7348,0,0,1,.6482-.3379c25.2653,1.1059,33.4406-3.4906,36.0639-6.33a4.6561,4.6561,0,0,0,1.52-3.2572.73.73,0,1,1,1.45-.1788c.011.0856.234,2.1218-1.8966,4.4274-3.3957,3.6751-12.5435,7.8283-36.7982,6.8151-.8146,1.1171-3.7052,4.65-9.93,8.218-6.7328,3.8592-18.8421,8.4873-38.2972,8.6212C606.35,105.74,606.12,105.74,605.895,105.74Z"/><path class="a" d="M560.4883,78.5075h-.0042a.7307.7307,0,0,1-.7263-.7348l.3125-53.8942c-.2654-1.0641-2.2029-9.6319,2.0165-17.52a.73.73,0,1,1,1.2879.6891c-4.1333,7.7275-1.89,16.4656-1.8672,16.5529a.748.748,0,0,1,.0243.1919l-.313,53.9885A.7307.7307,0,0,1,560.4883,78.5075Z"/><path class="a" d="M599.0143,32.4369a.7274.7274,0,0,1-.1493-.0155l-38.2121-7.9177a.7305.7305,0,0,1,.2968-1.4306l38.212,7.9178a.7306.7306,0,0,1-.1474,1.446Z"/><path class="a" d="M595.0223,14.1044a.7339.7339,0,0,1-.2117-.0314L567.7781,5.9165A.7305.7305,0,1,1,568.2,4.5178l27.0325,8.1565a.7306.7306,0,0,1-.2106,1.43Z"/><path class="a" d="M656.3861,88.9574a.731.731,0,0,1-.72-.6087c-.66-1.5473-11.7122-12.9882-22.4023-24.0545-8.1377-8.424-16.5522-17.1345-22.8246-23.9458C594.803,23.3692,595.632,13.2,595.6748,12.7749a.73.73,0,0,1,1.4538.1443c-.0119.1341-.7043,10.0536,14.3854,26.44,6.2606,6.7985,14.6689,15.5026,22.8008,23.92C652.2177,81.812,657.0724,87.0011,657.1166,88.2a.73.73,0,0,1-.7029.7571Zm-.73-.7034v0Z"/><path class="a" d="M667.4368,82.2265a34.663,34.663,0,0,1-3.702-.25c-.4875-.0518-.91-.0972-1.2422-.116-.6939-.039-2.1377-.12-22.7171-24.6654-10.0757-12.017-19.9217-24.17-20.02-24.2917a.7305.7305,0,0,1,1.0914-.969,268.51,268.51,0,0,0,51.4761,40.8517h0a4.9429,4.9429,0,0,1,2.3089,4.7178,4.6793,4.6793,0,0,1-2.892,4.0418A11.9512,11.9512,0,0,1,667.4368,82.2265Zm-4.81-1.8212c.35.0216.7742.0668,1.2622.1186,2.02.2155,5.0735.54,7.3178-.3386a3.1874,3.1874,0,0,0,1.9689-2.8045,3.4928,3.4928,0,0,0-1.6075-3.3431A272.568,272.568,0,0,1,628.97,41.8869C643.1711,59.1724,660.3734,79.5119,662.6272,80.4053Z"/><path class="a" d="M643.0285,166.1349h-6.7214a.7307.7307,0,0,1-.5955-.3075l-.622-.8755h-5.1943v.4525a.7306.7306,0,0,1-.7305.73h-5.0412a.7315.7315,0,0,1-.556-.2566l-1.479-1.7356-5.785-.362-2.7574,1.4786a.7351.7351,0,0,1-.3981.0849l-5.4616-.3942a.7306.7306,0,0,1-.5426-1.1517l.1631-.23-5.716-.9467-2.2866,1.4306a.7307.7307,0,0,1-.63.07l-3.3609-1.183a.7306.7306,0,0,1-.4879-.6892v-.6334l-4.7725-1.3783-4.4567.76a.7291.7291,0,0,1-.2573-.0021l-2.1006-.3943a.73.73,0,0,1-.253-1.337l.1241-.0776-4.47-2.0978-5.2447.7574a.72.72,0,0,1-.5251-.1256l-1.68-1.183a.7307.7307,0,0,1,.0328-1.2165l1.3844-.8663-2.813-1.32-4.8486.3793a.74.74,0,0,1-.5569-.1957l-1.6807-1.577a.73.73,0,0,1,.19-1.194l1.3073-.6135-1.207-.7549h-4.8314a.7308.7308,0,0,1-.5-.1979l-1.68-1.577a.7306.7306,0,0,1,.4314-1.26l3.038-.2851-.8594-1.4115h-4.2108a.73.73,0,0,1-.672-.444l-.84-1.9715a.73.73,0,0,1,.5964-1.013l3.019-.3148-.2211-1.4555-4.2817-.5241a.73.73,0,0,1-.633-.8351l.21-1.38a.73.73,0,0,1,.66-.6178l4.0367-.3443.2425-1.82-3.4451-.3232a.73.73,0,0,1-.6458-.88l.42-1.9715a.7306.7306,0,0,1,.7714-.5762l4.4481.3479.4633-1.6a.73.73,0,1,1,1.4029.4061l-.6287,2.1715a.7286.7286,0,0,1-.7586.5253l-4.4029-.3446-.1156.5429,3.3838.3175a.7308.7308,0,0,1,.6558.8237l-.42,3.1543a.7309.7309,0,0,1-.662.6315l-4.0482.3453-.01.0675,4.0848.5a.7311.7311,0,0,1,.6335.6152l.42,2.76a.7307.7307,0,0,1-.6468.8363l-2.7964.2917.263.6171h4.1385a.7307.7307,0,0,1,.624.3507l1.68,2.76a.73.73,0,0,1-.5555,1.1071l-2.5881.2431.2882.2706h4.752a.7309.7309,0,0,1,.3876.1113l2.5211,1.5772a.7307.7307,0,0,1-.077,1.2805l-1.5466.7258.66.62,4.72-.3693a.7409.7409,0,0,1,.3676.067l4.2013,1.9715a.7307.7307,0,0,1,.077,1.28l-1.5884.994.5436.3826,5.1738-.7471a.73.73,0,0,1,.4152.0616l5.8815,2.76a.7313.7313,0,0,1,.303,1.0582l.233.0438,4.4924-.7664a.7229.7229,0,0,1,.3252.0183l5.4612,1.5772a.7308.7308,0,0,1,.5279.7018v.6655l2.541.8944,2.2229-1.3906a.7394.7394,0,0,1,.5069-.1016l7.1418,1.183a.7305.7305,0,0,1,.4761,1.1438l-.0885.1246,3.9555.2856,2.7541-1.4769a.7417.7417,0,0,1,.3909-.0854l6.3019.3943a.73.73,0,0,1,.51.2551l1.4615,1.715h3.9735v-.4525a.73.73,0,0,1,.7305-.73h6.3019a.7305.7305,0,0,1,.5954.3074l.6221.8756h5.6138v-.8468a.73.73,0,0,1,.6453-.7255l6.7219-.7885a.7329.7329,0,0,1,.5055.1282,11.3461,11.3461,0,0,0,1.7321,1.0484c.4333-.0157,2.736-.1743,4.6564-.311l-.3119-.5855a.73.73,0,0,1,.56-1.0689l6.7219-.7885a.7405.7405,0,0,1,.1978.0038l2.38.3722,2.5848-.6064a.7306.7306,0,0,1,.2174-1.3326l5.0411-1.183a.7339.7339,0,0,1,.167-.0192h4.1052l1.34-.3593-.4038-.2844a.73.73,0,0,1,.1546-1.2777l5.0412-1.9715a.7306.7306,0,0,1,.2658-.05h4.4886l.096-.0359-1.4662-.516a.7306.7306,0,0,1-.0951-1.3369l3.7814-1.9715a.73.73,0,0,1,.3376-.0827h4.3321l.2882-.2707-2.5881-.2427a.7306.7306,0,0,1-.37-1.3117l4.2013-3.1545a.73.73,0,0,1,.4385-.1463h3.633l-2.5221-.526a.73.73,0,0,1-.4318-1.1575l2.1007-2.76a.7291.7291,0,0,1,.5811-.2882h2.5406l.5146-.805-3.253-.9159a.73.73,0,0,1-.5165-.8554l.42-1.9715a.73.73,0,0,1,.565-.5628l3.2-.6673v-.253h-3.8907a.7311.7311,0,0,1-.73-.7445l.0523-2.7289a.7309.7309,0,0,1,.4081-.6416l1.6711-.8218-.223-.2925a.73.73,0,1,1,1.1614-.886l.7619.9988a.7307.7307,0,0,1-.2583,1.0986l-2.0688,1.0175-.0295,1.5394h3.8765a.7306.7306,0,0,1,.7305.7305v1.5773a.73.73,0,0,1-.5812.715l-3.3152.6915-.1784.8361,3.5422.9973a.73.73,0,0,1,.4175,1.0967l-1.2608,1.9715a.73.73,0,0,1-.6154.337h-2.5786l-1.18,1.5508,2.6481.5522a.7307.7307,0,0,1,.5393.9595l-.42,1.183a.73.73,0,0,1-.6882.486h-4.3777l-2.4949,1.8733,2.32.2176a.7306.7306,0,0,1,.4313,1.26l-1.68,1.577a.7307.7307,0,0,1-.5.1978h-4.4425l-2.13,1.1108,1.7735.6242a.7305.7305,0,0,1,.0142,1.373l-2.1006.7885a.7306.7306,0,0,1-.2568.0466h-4.4834l-3.6472,1.4263.5688.4a.7306.7306,0,0,1-.2311,1.3029l-2.9405.7885a.7311.7311,0,0,1-.1893.0249h-4.1167l-2.6409.62a.7306.7306,0,0,1-.2173,1.3326l-5.0417,1.183a.7294.7294,0,0,1-.28.0105l-2.4221-.3788-5.56.6522.3372.6328a.7305.7305,0,0,1-.5921,1.0722c-.9165.0661-5.51.3962-5.9343.3962-.1541,0-.61,0-2.29-1.1555l-5.8017.6806v.9274A.7305.7305,0,0,1,643.0285,166.1349Z"/><path class="a" d="M552.9147,161.9947a.7275.7275,0,0,1-.5-.1979l-.84-.7887a.73.73,0,0,1-.2306-.5327V138a.73.73,0,1,1,1.4609,0v22.159l.61.5723a.73.73,0,0,1-.5,1.2632Z"/><path class="a" d="M553.3346,137.1534a.7306.7306,0,0,1-.7305-.7305V132.48a.7305.7305,0,1,1,1.461,0v3.9431A.7306.7306,0,0,1,553.3346,137.1534Z"/><path class="a" d="M554.175,166.7263a.73.73,0,0,1-.5707-.2745l-1.26-1.5772a.73.73,0,0,1-.16-.4561v-22.87a.7305.7305,0,0,1,1.461,0V142.94a.7305.7305,0,0,1,1.26.503v22.5533a.7308.7308,0,0,1-.7305.7305Z"/><path class="a" d="M558.4947,147.4141a.7306.7306,0,0,1-.7305-.73v-2.966a.7305.7305,0,0,1,1.461,0v2.966A.7306.7306,0,0,1,558.4947,147.4141Z"/><path class="a" d="M558.3763,173.0351a.7294.7294,0,0,1-.4233-.1351l-1.665-1.1827a.7309.7309,0,0,1-.3072-.5955V147.0835a.73.73,0,0,1,1.461,0v23.6612l.204.145V149.0408a.7305.7305,0,0,1,1.461,0v23.2638a.73.73,0,0,1-.7305.7305Z"/><path class="a" d="M556.7113,166.7263h-2.1159a.7305.7305,0,0,1,0-1.461h2.1159a.73.73,0,0,1,0,1.461Z"/><path class="a" d="M558.3753,173.0351a.7306.7306,0,0,1-.0675-1.4579l3.5388-.332V148.6463a.7305.7305,0,0,1,1.461,0V171.91a.7307.7307,0,0,1-.662.7274l-4.2008.3943C558.4215,173.0341,558.3982,173.0351,558.3753,173.0351Z"/><path class="a" d="M565.0982,176.9781a.73.73,0,0,1-.3876-.1112l-1.26-.7886a.729.729,0,0,1-.3187-.4332l-1.2607-4.7884a.73.73,0,1,1,1.4124-.3719l1.0844,4.1176V152.9838a.7305.7305,0,1,1,1.461,0v23.2638a.7308.7308,0,0,1-.7305.7305Z"/><path class="a" d="M569.5639,176.9781h-4.4657a.73.73,0,1,1,0-1.4609h3.7352V152.4207a.7305.7305,0,0,1,1.461,0v23.8269A.73.73,0,0,1,569.5639,176.9781Z"/><path class="a" d="M574.7606,180.9212a.7263.7263,0,0,1-.2179-.0333l-2.522-.7885a.7309.7309,0,0,1-.5126-.6972V156.3838a.73.73,0,1,1,1.4609,0v22.4814l1.0611.3318V156.9711a.7305.7305,0,1,1,1.461,0v23.22a.7306.7306,0,0,1-.7305.7305Z"/><path class="a" d="M575.18,180.9212a.73.73,0,0,1-.0746-1.457l3.1265-.326V156.5324a.73.73,0,1,1,1.4609,0v23.264a.73.73,0,0,1-.6548.7265l-3.7814.3942A.6829.6829,0,0,1,575.18,180.9212Z"/><path class="a" d="M572.2381,178.0273a.726.726,0,0,1-.28-.0564l-2.5192-1.0489A.73.73,0,1,1,570,175.5733l2.5191,1.0489a.7306.7306,0,0,1-.281,1.4051Z"/><path class="a" d="M585.6833,184.47a.7344.7344,0,0,1-.2569-.0466l-2.1-.7888a.7306.7306,0,0,1-.4737-.6839v-22.87a.7305.7305,0,1,1,1.461,0v22.3635l.6392.24V160.4754a.73.73,0,0,1,1.4609,0V183.74a.73.73,0,0,1-.73.7305Z"/><path class="a" d="M583.1622,182.0647a.7255.7255,0,0,1-.3966-.1174l-4.2009-2.7208A.73.73,0,0,1,579.359,178l4.2008,2.7208a.73.73,0,0,1-.3976,1.3435Z"/><path class="a" d="M703.2771,134.1962a.7306.7306,0,0,1-.7305-.7305v-4.2676a.7305.7305,0,0,1,1.461,0v4.2676A.7306.7306,0,0,1,703.2771,134.1962Z"/><path class="a" d="M704.9744,139.1249a.7306.7306,0,0,1-.73-.7305v-3.2159a.73.73,0,0,1,1.461,0v3.2159A.7306.7306,0,0,1,704.9744,139.1249Z"/><path class="a" d="M705.8352,150.56a.7306.7306,0,0,1-.2182-.0333l-2.5206-.7885a.73.73,0,0,1-.5122-.6972v-7.4919a.7305.7305,0,0,1,1.461,0v6.955l1.06.3314v-9.6521a.73.73,0,1,1,1.4609,0v10.6461a.73.73,0,0,1-.7305.7305Z"/><path class="a" d="M701.2,144.84a.7306.7306,0,0,1-.7305-.73v-2.8573a.7305.7305,0,0,1,1.461,0v2.8573A.7306.7306,0,0,1,701.2,144.84Z"/><path class="a" d="M698.2735,152.5313a.7306.7306,0,0,1-.7305-.73v-5.9145a.7305.7305,0,0,1,1.461,0v4.9624l1.2084-.3241-.51-1.1975a.7307.7307,0,0,1,.537-1.0042l1.5047-.2827v-1.76a.7305.7305,0,1,1,1.461,0v2.3658a.73.73,0,0,1-.5954.7179l-1.2071.2266.4837,1.1352a.73.73,0,0,1-.4827.9918l-2.94.7886A.7276.7276,0,0,1,698.2735,152.5313Z"/><path class="a" d="M698.274,152.5313a.7472.7472,0,0,1-.0913-.0057l-6.302-.7885a.73.73,0,0,1,.1817-1.45l3.8417.4806c.0081-.0221.0172-.0442.0271-.0661a.7306.7306,0,0,1,.9717-.351l1.6807.7885a.73.73,0,0,1-.31,1.3918Z"/><path class="a" d="M704.155,165.5432a.66.66,0,0,1-.0756-.004l-3.7809-.3943a.73.73,0,0,1-.54-1.12l.7743-1.2114-3.1555-1.1844-5.2514,1.1374a.7288.7288,0,0,1-.6544-.1812l-1.26-1.183a.73.73,0,0,1,.19-1.194l2.3865-1.12-.6625-.6215-5.142.3712a.73.73,0,0,1-.741-.4842l-.84-2.3658a.73.73,0,0,1,.4456-.9335l3.3609-1.183a.7305.7305,0,1,1,.4851,1.3782l-2.67.94.409,1.1514,4.9066-.3543a.7341.7341,0,0,1,.5526.196l1.68,1.5772a.73.73,0,0,1-.19,1.194l-2.3865,1.12.1959.1838,5.0869-1.1016a.73.73,0,0,1,.4114.03l4.2012,1.5773a.7305.7305,0,0,1,.3586,1.0774l-.6225.9742,2.3651.2466,3.154-1.85a.7326.7326,0,0,1,.37-.1h5.4611a.73.73,0,0,1,.4384.1463l1.8672,1.402,2.0079-.2357-.3372-.633a.7313.7313,0,0,1,.3343-1.0046l3.361-1.5773a.7367.7367,0,0,1,.4775-.05l4.66,1.0936.438-.4109-1.6731-.4487a.73.73,0,0,1-.525-.8578l.42-1.9715a.73.73,0,0,1,.6615-.5764l4.7839-.3453v-.1671h-4.7311a.7314.7314,0,0,1-.5707-.2744l-1.26-1.5773a.73.73,0,0,1,.2331-1.1038l2.33-1.2149-.3838-.1441-4.4267.7552a.7325.7325,0,0,1-.2454,0l-4.6212-.7885a.7306.7306,0,0,1-.6078-.72V149.68l-1.9632-.2632-1.0073.9455c-.205.1923-.6311.5921-6.8018.5921a.7317.7317,0,0,1-.31-.0692l-3.3609-1.5773a.7306.7306,0,0,1,.6211-1.3226l3.213,1.5078a42.4977,42.4977,0,0,0,5.72-.2722l1.1794-1.107a.7345.7345,0,0,1,.5969-.1914l2.94.3945a.7305.7305,0,0,1,.6335.7241V150.79l3.8907.6639,4.4986-.7676a.7322.7322,0,0,1,.38.0362l2.1006.7885a.7305.7305,0,0,1,.0809,1.3316l-2.9938,1.5611.487.6095h5.11a.73.73,0,0,1,.7305.7305v1.5772a.73.73,0,0,1-.6777.7286l-4.9142.3548-.1612.7564,2.2709.609a.73.73,0,0,1,.31,1.2382l-1.68,1.5773a.7332.7332,0,0,1-.6668.1785L721.04,161.639l-2.4355,1.1428.4794.8988a.7305.7305,0,0,1-.56,1.0691l-3.361.3943a.7283.7283,0,0,1-.5236-.1413l-1.9056-1.431h-5.0193l-3.19,1.8712A.73.73,0,0,1,704.155,165.5432Z"/><path class="a" d="M687.35,178.5554h-2.94a.7306.7306,0,0,1-.7305-.73V158.11a.73.73,0,0,1,.1351-.4231l1.68-2.3658a.73.73,0,0,1,1.1909.8461l-1.5452,2.1758v18.7517h1.4638L686.2,158.1251a.7307.7307,0,0,1,1.461-.0309l.42,19.7153a.73.73,0,0,1-.7305.7459Z"/><path class="a" d="M681.0489,180.9212a.7309.7309,0,0,1-.7305-.7305V158.11a.7305.7305,0,0,1,1.461,0v20.5822l1.34-1.0482a.73.73,0,1,1,.9,1.1509l-2.5205,1.9716A.7293.7293,0,0,1,681.0489,180.9212Z"/><path class="a" d="M678.1079,182.8927a.73.73,0,0,1-.7305-.73v-23.264a.7305.7305,0,0,1,1.461,0v22.0434l1.8652-1a.73.73,0,1,1,.69,1.2874l-2.941,1.5772A.7291.7291,0,0,1,678.1079,182.8927Z"/><path class="a" d="M677.268,181.71h-2.941a.7306.7306,0,0,1-.7305-.7305V159.2927a.7305.7305,0,0,1,1.461,0v20.956h2.2105a.7305.7305,0,1,1,0,1.461Z"/><path class="a" d="M665.9249,185.6528a.7306.7306,0,0,1-.7305-.7305v-22.87a.7305.7305,0,0,1,1.461,0v22.0485l1.9-.2231v-22.22a.7305.7305,0,1,1,1.461,0V184.528a.73.73,0,0,1-.6454.7255l-3.3609.3943A.7425.7425,0,0,1,665.9249,185.6528Z"/><path class="a" d="M674.3279,181.71a.72.72,0,0,1-.1236-.0105l-4.6212-.7885a.73.73,0,1,1,.2454-1.44l4.6212.7885a.73.73,0,0,1-.1218,1.4505Z"/><path class="a" d="M665.9244,185.653a.7256.7256,0,0,1-.31-.0694l-3.3609-1.5771a.73.73,0,0,1-.4205-.6613V162.0527a.7305.7305,0,0,1,1.461,0v20.8284l2.9406,1.38a.7305.7305,0,0,1-.3106,1.392Z"/><path class="a" d="M656.6824,186.0473a.73.73,0,0,1-.7305-.7305V163.9344a.7305.7305,0,1,1,1.461,0v20.342l4.4824-1.6181a.73.73,0,1,1,.4965,1.3739l-5.4611,1.9715A.7274.7274,0,0,1,656.6824,186.0473Z"/><path class="a" d="M652.1463,187.6243a.73.73,0,0,1-.7305-.7305v-22.685a.7305.7305,0,1,1,1.461,0v21.6577l3.5659-1.24a.73.73,0,1,1,.4794,1.38l-4.5361,1.5771A.7291.7291,0,0,1,652.1463,187.6243Z"/><path class="a" d="M637.7771,190.7788a.73.73,0,0,1-.7305-.73V165.6015a.7305.7305,0,0,1,1.461,0v23.3166l3.79-1.7076V164.8128a.73.73,0,1,1,1.4609,0v22.87a.73.73,0,0,1-.43.6661l-5.2513,2.3658A.7326.7326,0,0,1,637.7771,190.7788Z"/><path class="a" d="M643.2377,186.836a.7306.7306,0,0,1-.1365-1.4481l6.175-1.1831a.73.73,0,1,1,.2749,1.4349l-6.175,1.183A.7279.7279,0,0,1,643.2377,186.836Z"/><path class="a" d="M637.7776,190.7788a.73.73,0,0,1-.6088-.3258l-2.1-3.1545a.733.733,0,0,1-.1222-.4047v-22.081a.7305.7305,0,1,1,1.461,0v21.86l1.9779,2.9707a.7306.7306,0,0,1-.6077,1.1352Z"/><path class="a" d="M585.6833,184.47a.7307.7307,0,0,1-.2183-1.4279l3.2691-1.0228V160.0812a.7305.7305,0,0,1,1.461,0v22.4753a.7306.7306,0,0,1-.5122.6972l-3.7814,1.183A.7357.7357,0,0,1,585.6833,184.47Z"/><path class="a" d="M598.7071,187.6243a.7292.7292,0,0,1-.3453-.0868l-2.941-1.577a.73.73,0,0,1-.3852-.6437V162.0527a.73.73,0,0,1,1.461,0V184.88l1.48.7937V163.2357a.7305.7305,0,1,1,1.461,0v23.6581a.73.73,0,0,1-.7305.7305Z"/><path class="a" d="M595.7656,184.14a.7269.7269,0,0,1-.2982-.0642l-6.3015-2.8238a.73.73,0,1,1,.5974-1.3331l6.3014,2.8238a.7306.7306,0,0,1-.2991,1.3973Z"/><path class="a" d="M598.7075,187.6245a.7306.7306,0,0,1-.2981-1.3977l3.0979-1.3837v-22.79a.7305.7305,0,0,1,1.461,0v23.2641a.73.73,0,0,1-.4328.667l-3.5307,1.577A.7257.7257,0,0,1,598.7075,187.6245Z"/><path class="a" d="M612.5708,190.3846a.7324.7324,0,0,1-.1812-.0229l-4.6213-1.183a.73.73,0,0,1-.5493-.7076V164.0242a.7305.7305,0,1,1,1.461,0v23.88l3.1641.81.0956-24.1013a.73.73,0,0,1,.7305-.7277h.0028a.7308.7308,0,0,1,.7276.7334l-.0993,25.0384a.7312.7312,0,0,1-.7305.7277Z"/><path class="a" d="M607.95,186.836a.7339.7339,0,0,1-.2259-.0359l-5.7117-1.8564a.7306.7306,0,0,1,.4518-1.39l5.7117,1.8564a.7307.7307,0,0,1-.2259,1.4256Z"/><path class="a" d="M612.5712,190.3846a.7305.7305,0,0,1-.4209-1.3279l3.0509-2.1475v-24.068a.7305.7305,0,0,1,1.461,0v24.4471a.73.73,0,0,1-.31.5973l-3.3609,2.3658A.7279.7279,0,0,1,612.5712,190.3846Z"/><path class="a" d="M623.4934,189.5958a.7313.7313,0,0,1-.6448-.3871l-1.26-2.3658a.7308.7308,0,0,1-.0856-.3434V163.2357a.7305.7305,0,1,1,1.461,0v14.3167l.2192-12.3582a.7306.7306,0,0,1,.73-.7174h.0133a.731.731,0,0,1,.7177.7435l-.42,23.6581a.731.731,0,0,1-.56.6972A.7412.7412,0,0,1,623.4934,189.5958Z"/><path class="a" d="M615.9317,187.2621a.7305.7305,0,0,1-.0038-1.461l6.3015-.0321h.0038a.7305.7305,0,0,1,.0038,1.461l-6.3015.0321Z"/><path class="a" d="M628.955,191.1731a.7309.7309,0,0,1-.4584-.1617l-1.9575-1.5773a.73.73,0,0,1-.2721-.5688V165.4044a.7305.7305,0,1,1,1.461,0v23.1114l.4965.4V165.2072a.7305.7305,0,0,1,1.461,0v25.2354a.7306.7306,0,0,1-.7305.7305Z"/><path class="a" d="M623.493,189.9905a.7307.7307,0,0,1-.1665-1.4419l3.361-.7888a.7306.7306,0,0,1,.3338,1.4225l-3.3609.7887A.7365.7365,0,0,1,623.493,189.9905Z"/><path class="a" d="M628.9541,188.8824a.7305.7305,0,0,1-.0923-1.455l6.7219-.8637a.7305.7305,0,0,1,.1864,1.4491l-6.7219.8637A.7536.7536,0,0,1,628.9541,188.8824Z"/><path class="a" d="M687.35,180.5269a.7314.7314,0,0,1-.6449-.3871l-.84-1.5773a.7306.7306,0,0,1,1.29-.6867l.5955,1.1186,1.703-.2664.527-.7419V160.87a.73.73,0,1,1,1.461,0v17.35a.7288.7288,0,0,1-.1351.423l-.84,1.183a.7313.7313,0,0,1-.4827.2987l-2.5206.3942A.7169.7169,0,0,1,687.35,180.5269Z"/><path class="a" d="M693.2318,185.6528a.73.73,0,0,1-.3876-.1113l-2.52-1.5771a.7306.7306,0,0,1-.3429-.6192v-4.8944a.73.73,0,0,1,1.461,0v4.49l1.0515.6582-.1289-21.785a.7305.7305,0,0,1,.7262-.7347h.0043a.7305.7305,0,0,1,.73.7262l.1369,23.1128a.7305.7305,0,0,1-.7305.7348Z"/><path class="a" d="M693.2318,185.653a.7307.7307,0,0,1-.2568-1.4146l3.7276-1.3992V160.87a.7305.7305,0,0,1,1.461,0v22.4755a.7307.7307,0,0,1-.4736.6839l-4.2013,1.577A.7265.7265,0,0,1,693.2318,185.653Z"/><path class="a" d="M704.155,188.0188a.7261.7261,0,0,1-.2383-.04l-3.4256-1.183a.73.73,0,0,1-.4922-.6905v-21.65a.73.73,0,1,1,1.461,0v21.1291l1.9646.6785v-21.45a.7305.7305,0,0,1,1.461,0v22.4755a.7307.7307,0,0,1-.7305.7305Z"/><path class="a" d="M700.3737,185.2587a.7254.7254,0,0,1-.31-.0694l-2.5211-1.1828a.73.73,0,1,1,.62-1.3226l2.521,1.1828a.73.73,0,0,1-.3105,1.392Z"/><path class="a" d="M704.1555,188.019a.7308.7308,0,0,1-.311-1.392l2.9376-1.3785-.1674-22.3017a.7305.7305,0,1,1,1.461-.0109l.1707,22.77a.7316.7316,0,0,1-.42.6668l-3.3609,1.5773A.7283.7283,0,0,1,704.1555,188.019Z"/><path class="a" d="M714.6578,187.6243a.7293.7293,0,0,1-.4385-.1463l-2.1007-1.577a.73.73,0,0,1-.292-.5842V162.8412a.7305.7305,0,0,1,1.461,0v22.1105l.64.48V164.4185a.7305.7305,0,0,1,1.461,0v22.4753a.73.73,0,0,1-.7305.7305Z"/><path class="a" d="M707.5088,185.6528a.7305.7305,0,0,1-.0609-1.4584l4.6275-.3943a.7305.7305,0,0,1,.1236,1.4558l-4.6274.3942C707.5507,185.6518,707.53,185.6528,707.5088,185.6528Z"/><path class="a" d="M714.6578,187.6245a.7307.7307,0,0,1-.2183-1.4279l3.2686-1.0225v-21.15a.7305.7305,0,0,1,1.461,0V185.711a.73.73,0,0,1-.5122.6972l-3.7808,1.1828A.7368.7368,0,0,1,714.6578,187.6245Z"/><path class="a" d="M725.5805,184.8642c-.0224,0-.0447-.0009-.0671-.003l-4.2774-.3943a.7307.7307,0,0,1-.6634-.7274V160.9506a.7305.7305,0,0,1,1.461,0v22.1226l2.8259.2606.2563-21.326a.7305.7305,0,0,1,.7305-.7217h.0086a.7306.7306,0,0,1,.7219.7393l-.2658,22.1171a.7307.7307,0,0,1-.7305.7217Z"/><path class="a" d="M718.8581,184.47a.7306.7306,0,0,1-.1893-1.436l2.4445-.6584a.73.73,0,1,1,.38,1.4105l-2.4445.6585A.73.73,0,0,1,718.8581,184.47Z"/><path class="a" d="M726.0009,184.8642a.73.73,0,0,1-.5-1.2631l1.4558-1.3664.4137-21.773a.7173.7173,0,0,1,.7443-.7165.7306.7306,0,0,1,.7167.744l-.42,22.0811a.7308.7308,0,0,1-.2307.5188l-1.68,1.5773A.728.728,0,0,1,726.0009,184.8642Z"/><path class="a" d="M728.101,181.3157a.7307.7307,0,0,1-.2182-1.4279l2.0088-.6283V157.3211a.7305.7305,0,0,1,1.461,0v22.4753a.73.73,0,0,1-.5122.6972l-2.5211.7886A.7391.7391,0,0,1,728.101,181.3157Z"/><path class="a" d="M727.4,156.4744a.7306.7306,0,0,1-.7305-.7305V152.09a.7305.7305,0,0,1,1.461,0v3.6544A.7306.7306,0,0,1,727.4,156.4744Z"/><path class="a" d="M709.1962,159.2344c-4.2246,0-5.3517-1.4505-5.3517-2.3075v-3.1545a.73.73,0,0,1,1.041-.6613c.0452.0214,4.7611,2.1724,8.5733.0247a.7306.7306,0,0,1,1.0891.6366v3.5487a.731.731,0,0,1-.1294.4152C714.2454,157.9865,713.1816,159.2344,709.1962,159.2344Zm-3.8908-2.3867c.1727.2711,1.1647.9257,3.8908.9257,2.4849,0,3.535-.5267,3.8907-.7735v-2.0754a11.7517,11.7517,0,0,1-7.7815-.0868Z"/><path class="a" d="M713.8174,154.5028h-.0119a.7309.7309,0,0,1-.6943-.5428c-.1289-.1173-.8751-.64-3.915-.64-3.0485,0-3.7909.53-3.9164.6459a.7307.7307,0,0,1-1.4353-.1933c0-.7146.6953-1.9136,5.3517-1.9136,2.6228,0,4.2479.3558,4.9684,1.0875a1.1876,1.1876,0,0,1,.3833.8377A.7309.7309,0,0,1,713.8174,154.5028Zm-8.512-.729v0Zm0-.0014v0Zm7.7815-.01v0Zm0-.0014v0Z"/><path class="a" d="M543.9856,156.4527a.73.73,0,0,1-.73-.7457l.4584-22.0021a.7315.7315,0,0,1,.31-.5818l10.1513-7.1547a.7307.7307,0,0,1,.6325-.102l3.8993,1.18a.73.73,0,0,1-.4232,1.3983l-3.5583-1.077-9.5583,6.7366-.4228,20.295,6.5283-4.01a.7306.7306,0,0,1,.7648,1.2451l-7.6688,4.71A.731.731,0,0,1,543.9856,156.4527Z"/><path class="a" d="M543.9866,156.4527a.7306.7306,0,0,1-.1089-.0081l-10.3962-1.5556a.7306.7306,0,0,1-.6226-.7224v-22.081a.73.73,0,0,1,.3705-.6356l22.2663-12.6177a.73.73,0,0,1,.72,1.2712L534.32,132.5112v21.026L544.0936,155a.73.73,0,0,1-.107,1.4529Z"/><path class="a" d="M531.4893,156.8686a.73.73,0,0,1-.7305-.73v-24.841a.73.73,0,0,1,.3757-.6385l23.9041-13.28a.73.73,0,1,1,.71,1.277L532.22,131.727v23.2048l1.9466-1.0177a.73.73,0,0,1,.6772,1.2945l-3.0156,1.5768A.7311.7311,0,0,1,531.4893,156.8686Z"/><path class="a" d="M531.49,156.8689a.7271.7271,0,0,1-.1835-.0236L506.94,150.5365a.7307.7307,0,0,1-.5474-.7072V124.9882a.7306.7306,0,0,1,.9136-.7072l24.3667,6.3089a.7305.7305,0,0,1-.3662,1.4144l-23.4531-6.0723v23.3318l23.8193,6.1671a.7307.7307,0,0,1-.1827,1.438Z"/><path class="a" d="M507.1233,125.719a.7306.7306,0,0,1-.3441-1.3754l31.0881-16.5607a.7282.7282,0,0,1,.5217-.0638l17.2246,4.3373a.7305.7305,0,1,1-.3567,1.4168l-16.9516-4.2686-30.8394,16.4283A.7275.7275,0,0,1,507.1233,125.719Z"/><path class="a" d="M507.1223,148.4045a.7286.7286,0,0,1-.2632-.05l-4.6212-1.7875a.73.73,0,0,1-.4671-.6812V124.594a.7309.7309,0,0,1,.3872-.6449l28.1475-14.9837a.7305.7305,0,0,1,.6-.0392l3.1365,1.1744a.7306.7306,0,0,1-.5127,1.3683l-2.8278-1.0589-27.4694,14.6227v20.3528l4.1542,1.607a.7306.7306,0,0,1-.2637,1.412Z"/><path class="a" d="M502.0816,135.5766a.7277.7277,0,0,1-.19-.0252l-5.8815-1.5773a.73.73,0,0,1-.4414-.3369,4.5511,4.5511,0,0,1-.5-3.2977,4.7689,4.7689,0,0,1,1.9875-2.8057.73.73,0,0,1,.5849-.0989l4.6213,1.183a.73.73,0,0,1-.3624,1.4153l-4.2865-1.0974a3.2286,3.2286,0,0,0-1.1233,1.7413,3.04,3.04,0,0,0,.2086,1.9689L502.27,134.14a.7306.7306,0,0,1-.1888,1.4363Z"/><path class="a" d="M639.0378,228.6321a.73.73,0,0,1-.73-.7305v-34.699a.7314.7314,0,0,1,.4118-.6575l11.6109-5.6244-1.2147-.5427a.73.73,0,0,1-.4323-.667V163.0781a.7305.7305,0,1,1,1.461,0v22.1592l2.2153.9895a.7307.7307,0,0,1,.02,1.3245L639.7683,193.66V226.631l42.5665-24.7792V178.6134a.7305.7305,0,0,1,1.461,0v23.6583a.731.731,0,0,1-.3628.6314l-44.0275,25.63A.7311.7311,0,0,1,639.0378,228.6321Z"/><path class="a" d="M639.0388,228.6323a.7374.7374,0,0,1-.15-.0157L574.6112,215.21a.73.73,0,0,1-.5811-.7151V180.1907a.7305.7305,0,1,1,1.461,0v33.7107l63.6961,13.2851a.7306.7306,0,0,1-.1484,1.4458Z"/><path class="a" d="M639.0383,193.9334a.7369.7369,0,0,1-.1935-.0262L628.791,191.155l-13.7919-2.5874a.73.73,0,1,1,.2692-1.4358l13.8213,2.5929c.0195.0036.039.0081.0585.0133l10.0828,2.76a.7307.7307,0,0,1-.1926,1.4354Z"/><path class="a" d="M646.18,324.4478a.7367.7367,0,0,1-.2107-.0309l-63.2315-19.0226a.73.73,0,0,1-.52-.7012l.215-88.36a.73.73,0,0,1,.7305-.7288h.0019a.73.73,0,0,1,.7286.7324l-.2136,87.815,62.385,18.7679,29.2021-19.0785-.2-97.3376a.73.73,0,0,1,.7291-.7319h.0014a.7306.7306,0,0,1,.7305.7291l.2007,97.7338a.7314.7314,0,0,1-.331.613l-29.8185,19.481A.73.73,0,0,1,646.18,324.4478Z"/><path class="a" d="M646.2277,323.2462a.73.73,0,0,1-.7305-.73v-98.36a.7305.7305,0,1,1,1.461,0v98.36A.73.73,0,0,1,646.2277,323.2462Z"/><path class="a" d="M709.1962,197.8762a.73.73,0,0,1-.34-.0837L684.07,184.7805a.7305.7305,0,0,1,.1075-1.3394l5.8815-1.9716a.7306.7306,0,0,1,.4642,1.3854l-4.2588,1.4275,22.9944,12.0712,21.56-7.261-9.7342-4.29a.7306.7306,0,1,1,.59-1.3369l11.4572,5.05a.7306.7306,0,0,1-.0618,1.3606l-23.6407,7.962A.7244.7244,0,0,1,709.1962,197.8762Z"/><path class="a" d="M709.1962,215.62a.7275.7275,0,0,1-.3229-.0754l-24.7864-12.2234a.73.73,0,0,1-.4076-.6551V184.528a.7305.7305,0,0,1,1.461,0v17.6838l24.1039,11.8867,22.8622-8.0143V189.1837a.7305.7305,0,0,1,1.461,0v17.4184a.73.73,0,0,1-.4889.6894l-23.6407,8.2873A.731.731,0,0,1,709.1962,215.62Z"/><path class="a" d="M709.1962,214.8314a.7306.7306,0,0,1-.7305-.7305V197.1457a.7305.7305,0,1,1,1.461,0v16.9552A.7306.7306,0,0,1,709.1962,214.8314Z"/><path class="a" d="M704.155,264.908a.7315.7315,0,0,1-.3486-.0884l-14.8638-8.0709a.7307.7307,0,0,1-.3819-.6444l.16-50.4833a.7306.7306,0,0,1,.7305-.7281h.0023a.73.73,0,0,1,.7282.7329l-.1584,50.0471,14.218,7.72,24.1981-6.9205V207.9773a.7305.7305,0,1,1,1.461,0v49.0463a.73.73,0,0,1-.53.7024l-25.0147,7.154A.7285.7285,0,0,1,704.155,264.908Z"/><path class="a" d="M704.155,264.908a.73.73,0,0,1-.7305-.7305V212.4033a.7305.7305,0,0,1,1.461,0v51.7742A.73.73,0,0,1,704.155,264.908Z"/><text class="b" transform="translate(16.8931 283.6513)">Sensor de<tspan x="-16.8931" y="29.6143">temperatura</tspan></text><text class="b" transform="translate(257.6895 283.6513)">Unidad de<tspan x="-26.4688" y="29.6143">procesamiento</tspan></text><line class="c" x1="161.6264" y1="188.2074" x2="226.2319" y2="188.2074"/><circle class="d" cx="226.2319" cy="188.2074" r="6.7498"/><line class="c" x1="503.1089" y1="188.2419" x2="393.1831" y2="188.2074"/><circle class="d" cx="393.1831" cy="188.2074" r="6.7498"/><path class="a" d="M215.625,76.3875H178.9831a9.1605,9.1605,0,0,0-9.1605,9.16v51.1058a9.1605,9.1605,0,0,0,9.1605,9.1605h7.8937l10.9094,10.9094,10.9094-10.9094h6.9294a9.1605,9.1605,0,0,0,9.1605-9.1605V85.548A9.1605,9.1605,0,0,0,215.625,76.3875Z"/><text class="e" transform="translate(187.6963 128.6239)">!</text><path class="a" d="M465.8068,76.3875H429.1649a9.1605,9.1605,0,0,0-9.1605,9.16v51.1058a9.1605,9.1605,0,0,0,9.1605,9.1605h7.8937l10.9094,10.9094,10.9094-10.9094h6.9294a9.1605,9.1605,0,0,0,9.1605-9.1605V85.548A9.1605,9.1605,0,0,0,465.8068,76.3875Z"/><text class="e" transform="translate(432.665 128.6239)">1</text><path class="a" d="M73.8048,215.4471A13.1067,13.1067,0,0,1,60.71,202.6808c0-5.2006,3.6911-9.193,5.259-10.653V168.073a7.4433,7.4433,0,0,1,14.8712,0v24.1856a12.6873,12.6873,0,0,1-7.0358,23.1885Zm-.4-52.6206a5.5612,5.5612,0,0,0-5.5767,5.2465V192.44a.93.93,0,0,1-.3149.6973c-2.39,2.1065-4.9441,5.72-4.9441,9.5438a11.2233,11.2233,0,0,0,11.2355,10.9074,10.7116,10.7116,0,0,0,10.7445-10.9074,10.9591,10.9591,0,0,0-5.1437-9.1485.9293.9293,0,0,1-.4239-.78V168.073A5.5612,5.5612,0,0,0,73.405,162.8265Z"/><path class="a" d="M79.9111,172.8342H74.3345a.9295.9295,0,1,1,0-1.8589h5.5766a.9295.9295,0,1,1,0,1.8589Z"/><path class="a" d="M79.9111,179.805H74.3345a.9295.9295,0,1,1,0-1.8589h5.5766a.9295.9295,0,1,1,0,1.8589Z"/><path class="a" d="M79.9111,186.3111H74.3345a.9294.9294,0,1,1,0-1.8588h5.5766a.9294.9294,0,1,1,0,1.8588Z"/><path class="a" d="M79.9111,193.282H74.3345a.9295.9295,0,1,1,0-1.8589h5.5766a.9295.9295,0,1,1,0,1.8589Z"/><path class="a" d="M61.7185,203.1992c3.6665-10.8077,19.4054,11.2931,23.0079-.7715,0,0-.0336,11.127-9.43,11.997S60.2544,207.517,61.7185,203.1992Z"/><path class="a" d="M73.3873,227.7421a39.5347,39.5347,0,1,1,39.5351-39.5346A39.579,39.579,0,0,1,73.3873,227.7421Zm0-77.2106a37.6759,37.6759,0,1,0,37.6762,37.676A37.7183,37.7183,0,0,0,73.3873,150.5315Z"/><path class="a" d="M35.2977,183.5228H25.5385a.9295.9295,0,0,1,0-1.8589h9.7592a.9295.9295,0,1,1,0,1.8589Z"/><path class="a" d="M35.2977,197H25.5385a.9295.9295,0,0,1,0-1.8589h9.7592a.9295.9295,0,1,1,0,1.8589Z"/><path class="a" d="M119.8773,183.5228h-7.9a.9295.9295,0,0,1,0-1.8589h7.9a.9295.9295,0,1,1,0,1.8589Z"/><path class="a" d="M119.8773,197h-7.9a.9295.9295,0,0,1,0-1.8589h7.9a.9295.9295,0,1,1,0,1.8589Z"/><path class="a" d="M347.3254,228.9631H288.616a3.9337,3.9337,0,0,1-3.9291-3.9292V151.3808a3.9337,3.9337,0,0,1,3.9291-3.9291h58.7094a3.9337,3.9337,0,0,1,3.9291,3.9291v73.6531A3.9337,3.9337,0,0,1,347.3254,228.9631ZM288.616,149.6969a1.6858,1.6858,0,0,0-1.6839,1.6839v73.6531a1.6858,1.6858,0,0,0,1.6839,1.6839h58.7094a1.6857,1.6857,0,0,0,1.6839-1.6839V151.3808a1.6858,1.6858,0,0,0-1.6839-1.6839Z"/><path class="a" d="M285.81,163.1414H275.7016a1.1226,1.1226,0,1,1,0-2.2452H285.81a1.1226,1.1226,0,0,1,0,2.2452Z"/><path class="a" d="M285.81,180.6H275.7016a1.1227,1.1227,0,0,1,0-2.2453H285.81a1.1227,1.1227,0,0,1,0,2.2453Z"/><path class="a" d="M285.81,198.0593H275.7016a1.1226,1.1226,0,1,1,0-2.2452H285.81a1.1226,1.1226,0,0,1,0,2.2452Z"/><path class="a" d="M285.81,215.5185H275.7016a1.1226,1.1226,0,0,1,0-2.2452H285.81a1.1226,1.1226,0,0,1,0,2.2452Z"/><path class="a" d="M360.24,163.6008h-10.108a1.1226,1.1226,0,1,1,0-2.2452H360.24a1.1226,1.1226,0,1,1,0,2.2452Z"/><path class="a" d="M360.24,181.06h-10.108a1.1226,1.1226,0,1,1,0-2.2452H360.24a1.1226,1.1226,0,1,1,0,2.2452Z"/><path class="a" d="M360.24,198.5189h-10.108a1.1226,1.1226,0,1,1,0-2.2452H360.24a1.1226,1.1226,0,1,1,0,2.2452Z"/><path class="a" d="M360.24,215.9779h-10.108a1.1227,1.1227,0,0,1,0-2.2453H360.24a1.1227,1.1227,0,0,1,0,2.2453Z"/><path class="a" d="M313.8513,197.9752a17.9263,17.9263,0,0,1-2.88-.2511,1.1216,1.1216,0,0,1-.865-.6959l-2.1817-5.5267L302.47,193.172a1.1244,1.1244,0,0,1-1.11-.267,17.9377,17.9377,0,0,1-3.5706-4.8865,1.1216,1.1216,0,0,1,.0307-1.0609l2.7144-4.7232-4.0793-2.7931a1.1228,1.1228,0,0,1-.484-1.0253,17.7848,17.7848,0,0,1,1.8346-6.4386,1.1219,1.1219,0,0,1,.8338-.606l4.5326-.6923-.3069-4.2063a1.1238,1.1238,0,0,1,.46-.99,17.7767,17.7767,0,0,1,6.5367-2.9685,1.1205,1.1205,0,0,1,1.0108.27l2.9781,2.752,2.9776-2.752a1.1208,1.1208,0,0,1,1.0108-.27,17.7767,17.7767,0,0,1,6.5367,2.9685,1.1242,1.1242,0,0,1,.4605.99l-.307,4.2063,4.5327.6923a1.1217,1.1217,0,0,1,.8337.606,17.7849,17.7849,0,0,1,1.8347,6.4386,1.123,1.123,0,0,1-.484,1.0253l-4.0794,2.7931,2.7145,4.7232a1.1219,1.1219,0,0,1,.0307,1.0609,17.9359,17.9359,0,0,1-3.5707,4.8865,1.1216,1.1216,0,0,1-1.11.267l-5.4547-1.6705-2.1816,5.5267a1.1219,1.1219,0,0,1-.865.6959A17.9206,17.9206,0,0,1,313.8513,197.9752Zm-1.8949-2.376a13.7336,13.7336,0,0,0,3.7894,0l2.3241-5.8872a1.12,1.12,0,0,1,1.3732-.661l5.7978,1.7754a15.6955,15.6955,0,0,0,2.3877-3.2837l-2.9249-5.089a1.1229,1.1229,0,0,1,.3393-1.4858l4.3808-2.9995a15.5391,15.5391,0,0,0-1.2859-4.4671l-4.9723-.7595a1.1229,1.1229,0,0,1-.95-1.1914l.336-4.6037a15.5058,15.5058,0,0,0-4.6423-2.1032l-3.2955,3.0458a1.123,1.123,0,0,1-1.5239,0l-3.296-3.0461a15.5118,15.5118,0,0,0-4.6423,2.1035l.336,4.6037a1.1229,1.1229,0,0,1-.95,1.1914l-4.9723.7595a15.5393,15.5393,0,0,0-1.286,4.4671l4.3809,2.9995a1.123,1.123,0,0,1,.3393,1.4858l-2.925,5.089a15.7,15.7,0,0,0,2.3878,3.2837l5.7978-1.7754a1.1218,1.1218,0,0,1,1.3731.661Z"/><path class="a" d="M313.8513,185.9484a5.9334,5.9334,0,1,1,5.9333-5.9334A5.94,5.94,0,0,1,313.8513,185.9484Zm0-9.6214a3.6881,3.6881,0,1,0,3.688,3.688A3.6925,3.6925,0,0,0,313.8513,176.327Z"/><path class="a" d="M327.348,220.1885a13.1291,13.1291,0,0,1-2.1028-.1825,1.1226,1.1226,0,0,1-.8649-.6962l-1.445-3.66-3.6008,1.1026a1.1235,1.1235,0,0,1-1.11-.2672,13.0982,13.0982,0,0,1-2.6076-3.5685,1.1224,1.1224,0,0,1,.0307-1.061l1.7848-3.1061-2.66-1.8212a1.1228,1.1228,0,0,1-.484-1.0253,12.9919,12.9919,0,0,1,1.34-4.7032,1.1229,1.1229,0,0,1,.8337-.606l2.9338-.4483-.1968-2.6991a1.1237,1.1237,0,0,1,.46-.99,12.9846,12.9846,0,0,1,4.7755-2.1682,1.123,1.123,0,0,1,1.01.27l1.9021,1.7579,1.9026-1.7579a1.1212,1.1212,0,0,1,1.0108-.27,12.9885,12.9885,0,0,1,4.775,2.1682,1.1241,1.1241,0,0,1,.46.99l-.1973,2.6989,2.9342.4483a1.1232,1.1232,0,0,1,.8343.6063,12.992,12.992,0,0,1,1.3392,4.7032,1.1222,1.1222,0,0,1-.4841,1.025l-2.66,1.8212,1.7853,3.1061a1.1218,1.1218,0,0,1,.0307,1.061,13.1078,13.1078,0,0,1-2.6081,3.5685,1.1221,1.1221,0,0,1-1.11.2672l-3.6-1.1026-1.4449,3.66a1.1227,1.1227,0,0,1-.8655.6962A13.1288,13.1288,0,0,1,327.348,220.1885Zm-1.12-2.3126a9.2871,9.2871,0,0,0,2.24,0l1.5852-4.0153a1.1205,1.1205,0,0,1,1.3732-.661l3.9368,1.2056a10.849,10.849,0,0,0,1.429-1.9689l-1.993-3.4671a1.1228,1.1228,0,0,1,.3393-1.4858l2.9556-2.0237a10.7364,10.7364,0,0,0-.791-2.7364l-3.3684-.5147a1.1232,1.1232,0,0,1-.95-1.1915l.2259-3.09a10.7307,10.7307,0,0,0-2.8839-1.3051L328.11,198.67a1.123,1.123,0,0,1-1.5239,0l-2.2162-2.0482a10.73,10.73,0,0,0-2.8838,1.3054l.2253,3.09a1.123,1.123,0,0,1-.95,1.1915l-3.3678.5147a10.74,10.74,0,0,0-.7916,2.7364l2.9557,2.0237a1.123,1.123,0,0,1,.3393,1.4858l-1.9926,3.4671a10.8648,10.8648,0,0,0,1.4285,1.9689L323.27,213.2a1.1212,1.1212,0,0,1,1.3731.661Z"/><path class="a" d="M327.348,211.6206a4.55,4.55,0,1,1,4.55-4.55A4.5547,4.5547,0,0,1,327.348,211.6206Zm0-6.8541a2.3045,2.3045,0,1,0,2.3044,2.3044A2.3071,2.3071,0,0,0,327.348,204.7665Z"/><text class="f" transform="matrix(0.9999, 0.0142, -0.0142, 0.9999, 178.7544, 241.2116)">20</text><circle class="c" cx="220.1229" cy="216.956" r="3.32"/></svg>