<svg xmlns="http://www.w3.org/2000/svg" viewBox="0 0 748.8501 325.3866"><defs><style>.a{fill:#d91519;}.b{font-size:28.2854px;font-family:Lato-Italic, Lato;font-style:italic;}.b,.d,.f{fill:#606060;}.c{fill:none;stroke:#606060;stroke-miterlimit:10;stroke-width:2px;}.e{font-size:51.2537px;fill:#fff;}.e,.f{font-family:Lato-Black, Lato;font-weight:800;}.f{font-size:25.8204px;}</style></defs><title>func1</title><path class="a" d="M645.5834,146.85h-.24c-66.77-.0425-72.79-18.3152-73.0137-19.0929a.7235.7235,0,0,1-.0286-.2067l.031-5.3095-2.721-3.0867a.7315.7315,0,0,1-.1832-.4927c.01-.9255,1.0465-92.6214.5766-99.17-.4989-6.9495,6.7366-13.0736,7.0452-13.331a.73.73,0,0,1,.27-.1426l21.1974-5.99a.7311.7311,0,0,1,.4178.0057c.1441.0451,14.51,4.5292,23.153,6.7609,8.89,2.2954,17.4958,12.6439,17.8578,13.0834a.7352.7352,0,0,1,.1.16c8.98,19.58,69.9994,58.4228,70.6146,58.8128a.7294.7294,0,0,1,.1617.139l8.2037,9.4662a.7331.7331,0,0,1,.1789.4841l-.228,39.36a.7274.7274,0,0,1-.0372.2258C718.6916,129.275,712.1038,146.85,645.5834,146.85Zm-71.816-19.4182c.2437.6208,2.151,4.7589,10.9285,8.8746,8.8075,4.13,26.4788,9.0567,60.6486,9.0784h.2337c34.0147,0,51.7838-4.7188,60.7063-8.683,8.8571-3.935,10.9376-7.9016,11.228-8.5507l.2256-38.9441-7.9528-9.1767c-3.5948-2.2832-61.8219-39.4919-71.0295-59.2914-.7737-.9162-8.975-10.4453-17.0341-12.5263-8.1073-2.0931-21.2075-6.1535-23.0151-6.7161L577.8754,7.3834c-.901.7938-6.8229,6.2471-6.4094,12.0031.466,6.4919-.4946,92.3782-.5694,99.01l2.7191,3.0849a.7314.7314,0,0,1,.1831.4887Zm144.4768.8638h0Z"/><path class="a" d="M572.927,122.698h-.0043a.7326.7326,0,0,1-.7283-.7369l.1817-31.41a.7325.7325,0,0,1,1.3994-.2989c.0706.1522,7.5264,15.4637,43.8849,21.0456,36.4816,5.5992,57.731-17.0429,57.9413-17.2721a.7354.7354,0,0,1,.6272-.2321c.2853.0344,28.691,3.26,36.4516-11.1441a.7325.7325,0,1,1,1.29.695C706.14,97.8807,679.9983,95.6654,676.4216,95.29a60.0263,60.0263,0,0,1-15.26,10.7814,71.4961,71.4961,0,0,1-43.7237,6.675c-29.3114-4.5-40.1684-15.0611-43.6111-19.68L573.66,121.97A.7329.7329,0,0,1,572.927,122.698Z"/><path class="a" d="M674.8944,94.2005a.7307.7307,0,0,1-.4984-.1956C671.8953,91.6835,613.1231,37.05,610.7822,27.81c-2.3233-9.171-1.6341-14.2883-1.604-14.5015a.7316.7316,0,0,1,.465-.5811l13.8986-5.29a.7325.7325,0,1,1,.5208,1.3694l-13.4741,5.1285c-.1059,1.3791-.2623,6.1091,1.6141,13.5146,1.7886,7.06,42.1163,45.92,63.19,65.4806a.7326.7326,0,0,1-.4984,1.27Z"/><path class="a" d="M620.8083,106.0462c-19.147.0005-29.8666-5.5742-35.5057-10.283-5.4655-4.564-7.3285-9.1321-7.7525-10.3555l-4.7333-2.4766a.7326.7326,0,1,1,.6792-1.2983l4.9985,2.6154a.7343.7343,0,0,1,.3654.4491c.0138.0489,1.5167,5.08,7.47,10.014,5.5179,4.5733,16.0773,9.9977,35.1528,9.8673,36.5488-.2516,47.2827-16.4019,47.3872-16.565a.737.737,0,0,1,.65-.3389c25.3384,1.1092,33.5373-3.5006,36.1682-6.3478a4.67,4.67,0,0,0,1.5243-3.2667.7324.7324,0,1,1,1.4538-.1793c.011.0858.2347,2.1279-1.9021,4.44-3.4055,3.6857-12.58,7.851-36.9046,6.8348-.8171,1.12-3.716,4.6639-9.9584,8.2418-6.7523,3.87-18.8966,8.5118-38.4081,8.6461C621.2643,106.0455,621.0344,106.0462,620.8083,106.0462Z"/><path class="a" d="M575.27,78.7346h-.0043a.7326.7326,0,0,1-.7283-.7369l.3133-54.05c-.2661-1.0672-2.2093-9.66,2.0223-17.57a.7324.7324,0,1,1,1.2916.6911c-4.1452,7.75-1.8959,16.5133-1.8725,16.6008a.748.748,0,0,1,.0243.1924l-.3138,54.1448A.7329.7329,0,0,1,575.27,78.7346Z"/><path class="a" d="M613.9077,32.5307a.7329.7329,0,0,1-.15-.0155l-38.3226-7.9406a.7326.7326,0,0,1,.2976-1.4347l38.3226,7.9406a.7327.7327,0,0,1-.1478,1.45Z"/><path class="a" d="M609.9041,14.1452a.7374.7374,0,0,1-.2122-.0315l-27.1108-8.18a.7326.7326,0,1,1,.4235-1.4027l27.1108,8.18a.7327.7327,0,0,1-.2113,1.4342Z"/><path class="a" d="M671.4455,89.2148a.7331.7331,0,0,1-.7221-.6105c-.662-1.5518-11.746-13.0257-22.4671-24.1241-8.1612-8.4483-16.6-17.184-22.8907-24.015-15.6814-17.0284-14.85-27.2274-14.8071-27.6533a.7326.7326,0,0,1,1.458.1447c-.0119.1345-.7063,10.0827,14.4271,26.516,6.2787,6.8181,14.7113,15.5474,22.8668,23.99,17.9546,18.5866,22.8234,23.7906,22.8677,24.9928a.7326.7326,0,0,1-.7049.7593Zm-.7316-.7054v0Z"/><path class="a" d="M682.5281,82.4644a34.7692,34.7692,0,0,1-3.7126-.25c-.4889-.052-.9129-.0975-1.2458-.1164-.6959-.0391-2.144-.1206-22.7829-24.7367-10.1048-12.0517-19.9793-24.24-20.078-24.362a.7326.7326,0,0,1,1.0946-.9718,269.2881,269.2881,0,0,0,51.625,40.97h0a4.9572,4.9572,0,0,1,2.3156,4.7315,4.6929,4.6929,0,0,1-2.9,4.0534A11.9839,11.9839,0,0,1,682.5281,82.4644Zm-4.8235-1.8265c.3511.0217.7765.067,1.2659.119,2.0261.2161,5.0882.5416,7.3389-.34a3.1966,3.1966,0,0,0,1.9747-2.8126,3.503,3.503,0,0,0-1.6122-3.3528A273.3657,273.3657,0,0,1,643.95,42.0081C658.1923,59.3436,675.4443,79.7419,677.7046,80.6379Z"/><path class="a" d="M658.0492,166.6156h-6.7408a.7329.7329,0,0,1-.5972-.3084l-.6239-.8781H644.878v.4539a.7326.7326,0,0,1-.7326.7326H639.09a.7331.7331,0,0,1-.5575-.2573l-1.4834-1.7407-5.8017-.363-2.7654,1.4829a.7372.7372,0,0,1-.3992.0851l-5.4774-.3954a.7327.7327,0,0,1-.5442-1.1549l.1636-.2309-5.7326-.9494-2.2932,1.4347a.7321.7321,0,0,1-.6319.07L610.196,163.41a.7327.7327,0,0,1-.4894-.6911v-.6353l-4.7862-1.3822-4.47.7624a.7331.7331,0,0,1-.258-.0022l-2.1068-.3954a.7326.7326,0,0,1-.2537-1.3409l.1245-.0778-4.483-2.1038-5.26.76a.7215.7215,0,0,1-.5266-.1259l-1.6851-1.1864a.7329.7329,0,0,1,.0329-1.22l1.3884-.8688-2.8212-1.3238-4.8626.38a.7428.7428,0,0,1-.5585-.1963l-1.6855-1.5815a.7325.7325,0,0,1,.19-1.1975l1.3111-.6152-1.2105-.7572h-4.8454a.733.733,0,0,1-.5013-.1984l-1.6851-1.5816a.7327.7327,0,0,1,.4326-1.2637l3.0468-.2859-.8619-1.4157H569.15a.7323.7323,0,0,1-.674-.4452l-.8428-1.9772a.7325.7325,0,0,1,.5981-1.0159l3.0278-.3158-.2218-1.46-4.2941-.5256a.7321.7321,0,0,1-.6348-.8376l.2108-1.3841a.7321.7321,0,0,1,.6616-.62l4.0484-.3453.2432-1.8253-3.4551-.3241a.7324.7324,0,0,1-.6477-.8821l.4212-1.9773a.7326.7326,0,0,1,.7736-.5778l4.461.3489.4646-1.6045a.7324.7324,0,1,1,1.407.4073l-.6306,2.1778a.7305.7305,0,0,1-.7607.5268l-4.4157-.3455-.1159.5444,3.3936.3184a.733.733,0,0,1,.6577.8261l-.4212,3.1634a.733.733,0,0,1-.6639.6334l-4.06.3463-.01.0677,4.0966.5015a.7331.7331,0,0,1,.6353.617l.4212,2.7682a.733.733,0,0,1-.6487.8388l-2.8045.2926.2638.6188h4.15a.7325.7325,0,0,1,.6257.3518l1.6851,2.768a.7326.7326,0,0,1-.5571,1.11l-2.5956.2437.2891.2714h4.7657a.7335.7335,0,0,1,.3888.1116l2.5283,1.5818a.7327.7327,0,0,1-.0773,1.2842l-1.551.7279.662.6214,4.7333-.37a.7429.7429,0,0,1,.3687.0672l4.2135,1.9773a.7328.7328,0,0,1,.0772,1.2842l-1.593.9968.5452.3837,5.1888-.7493a.7313.7313,0,0,1,.4164.0618l5.8985,2.7683a.7333.7333,0,0,1,.3038,1.0612l.2337.0439,4.5054-.7686a.7259.7259,0,0,1,.3262.0183l5.4769,1.5819a.7326.7326,0,0,1,.53.7037v.6675l2.5483.8969,2.2293-1.3946a.7415.7415,0,0,1,.5085-.1018l7.1625,1.1864a.7326.7326,0,0,1,.4774,1.1471l-.0887.125,3.9668.2864,2.7621-1.4812a.7433.7433,0,0,1,.3921-.0856l6.32.3954a.7321.7321,0,0,1,.5118.2558l1.4657,1.72h3.985v-.4539a.7326.7326,0,0,1,.7326-.7326h6.32a.7327.7327,0,0,1,.5971.3084l.6239.8781h5.63v-.8493a.7325.7325,0,0,1,.6472-.7276l6.7414-.7908a.7356.7356,0,0,1,.507.1286,11.3714,11.3714,0,0,0,1.737,1.0514c.4345-.0157,2.744-.1748,4.67-.3119l-.3128-.5871a.7326.7326,0,0,1,.5613-1.072l6.7414-.7908a.7368.7368,0,0,1,.1984.0038l2.3867.3732,2.5922-.6081a.7326.7326,0,0,1,.218-1.3364l5.0558-1.1865a.7369.7369,0,0,1,.1674-.0193h4.1171l1.3436-.36-.405-.2852a.7325.7325,0,0,1,.155-1.2814l5.0558-1.9772a.7328.7328,0,0,1,.2666-.05h4.5015l.0964-.036-1.4705-.5175a.7328.7328,0,0,1-.0954-1.3408l3.7923-1.9772a.7319.7319,0,0,1,.3387-.083h4.3446l.289-.2714-2.5956-.2435a.7327.7327,0,0,1-.3715-1.3154l4.2134-3.1637a.7328.7328,0,0,1,.44-.1466h3.6435l-2.5294-.5276a.7326.7326,0,0,1-.433-1.1609l2.1067-2.7678a.7314.7314,0,0,1,.5828-.289h2.5479l.5161-.8072-3.2624-.9187a.7323.7323,0,0,1-.518-.8578l.4212-1.9772a.7328.7328,0,0,1,.5666-.5645l3.2095-.6692v-.2537h-3.902a.7332.7332,0,0,1-.7326-.7467l.0524-2.7368a.7331.7331,0,0,1,.4093-.6434l1.676-.8242-.2237-.2933a.7325.7325,0,1,1,1.1647-.8886l.7641,1.0016a.7328.7328,0,0,1-.259,1.1018l-2.0747,1.02-.03,1.5439h3.8877a.7327.7327,0,0,1,.7326.7326v1.5818a.7324.7324,0,0,1-.5829.7171l-3.3248.6935-.1789.8385,3.5524,1a.7322.7322,0,0,1,.4188,1.1L720.18,141.76a.7321.7321,0,0,1-.6171.3379h-2.5861l-1.1838,1.5554,2.6557.5537a.733.733,0,0,1,.5409.9623l-.4217,1.1864a.7322.7322,0,0,1-.69.4875h-4.39l-2.5022,1.8787,2.3267.2182a.7327.7327,0,0,1,.4326,1.2637l-1.6851,1.5816a.7327.7327,0,0,1-.5013.1984h-4.4553l-2.1363,1.114,1.7786.626a.7326.7326,0,0,1,.0143,1.3769l-2.1067.7908a.7325.7325,0,0,1-.2576.0468h-4.4963l-3.6578,1.43.5705.4016a.7327.7327,0,0,1-.2318,1.3066l-2.949.7908a.7314.7314,0,0,1-.19.025h-4.1285l-2.6486.6215a.7327.7327,0,0,1-.2179,1.3365l-5.0563,1.1864a.73.73,0,0,1-.28.01l-2.4292-.38-5.5756.6541.3381.6346a.7326.7326,0,0,1-.5938,1.0753c-.9191.0663-5.5255.3973-5.9514.3973-.1546,0-.612,0-2.2971-1.1587l-5.8184.6825v.93A.7326.7326,0,0,1,658.0492,166.6156Z"/><path class="a" d="M567.6747,162.4634a.73.73,0,0,1-.5013-.1984l-.8428-.791a.7322.7322,0,0,1-.2313-.5342v-22.54a.7326.7326,0,0,1,1.4652,0v22.2232l.6115.574a.7326.7326,0,0,1-.5013,1.2668Z"/><path class="a" d="M568.0959,137.55a.7326.7326,0,0,1-.7326-.7326v-3.9544a.7326.7326,0,1,1,1.4652,0v3.9544A.7327.7327,0,0,1,568.0959,137.55Z"/><path class="a" d="M568.9386,167.2087a.7322.7322,0,0,1-.5723-.2752l-1.2639-1.5819a.7313.7313,0,0,1-.16-.4574V141.9585a.7326.7326,0,0,1,1.4652,0v1.3946a.7327.7327,0,0,1,1.264.5044v22.6186a.733.733,0,0,1-.7327.7326Z"/><path class="a" d="M573.2709,147.8406a.7327.7327,0,0,1-.7327-.7326v-2.9746a.7327.7327,0,0,1,1.4653,0v2.9746A.7327.7327,0,0,1,573.2709,147.8406Z"/><path class="a" d="M573.1521,173.5358a.732.732,0,0,1-.4245-.1355l-1.67-1.1862a.7328.7328,0,0,1-.3081-.5971V147.5091a.7326.7326,0,0,1,1.4652,0v23.73l.2046.1455V149.472a.7326.7326,0,0,1,1.4652,0v23.3311a.7323.7323,0,0,1-.7326.7327Z"/><path class="a" d="M571.4823,167.2087H569.36a.7326.7326,0,1,1,0-1.4652h2.122a.7326.7326,0,1,1,0,1.4652Z"/><path class="a" d="M573.1511,173.5358a.7327.7327,0,0,1-.0677-1.4622l3.5491-.3329V149.0764a.7326.7326,0,0,1,1.4652,0v23.3314a.7329.7329,0,0,1-.664.73l-4.2129.3954C573.1974,173.5348,573.174,173.5358,573.1511,173.5358Z"/><path class="a" d="M579.8934,177.49a.7317.7317,0,0,1-.3887-.1116l-1.2639-.7908a.731.731,0,0,1-.32-.4345l-1.2644-4.8022a.7324.7324,0,1,1,1.4165-.373l1.0875,4.1295V153.4265a.7326.7326,0,0,1,1.4652,0v23.3311a.7328.7328,0,0,1-.7326.7326Z"/><path class="a" d="M584.3721,177.49h-4.4787a.7326.7326,0,1,1,0-1.4652h3.746V152.8618a.7327.7327,0,0,1,1.4653,0v23.8958A.7327.7327,0,0,1,584.3721,177.49Z"/><path class="a" d="M589.5838,181.4447a.73.73,0,0,1-.2185-.0334l-2.5293-.7908a.733.733,0,0,1-.5141-.6992v-23.085a.7326.7326,0,1,1,1.4652,0v22.5465l1.0641.3327v-22.29a.7326.7326,0,1,1,1.4652,0v23.2868a.7326.7326,0,0,1-.7326.7326Z"/><path class="a" d="M590.004,181.4447a.7326.7326,0,0,1-.0749-1.4612l3.1355-.3269V156.9853a.7326.7326,0,1,1,1.4652,0v23.3314a.7323.7323,0,0,1-.6567.7285l-3.7923.3954A.6877.6877,0,0,1,590.004,181.4447Z"/><path class="a" d="M587.054,178.5424a.7282.7282,0,0,1-.2809-.0565l-2.5265-1.052a.7325.7325,0,1,1,.5628-1.3526l2.5265,1.0519a.7327.7327,0,0,1-.2819,1.4092Z"/><path class="a" d="M600.5381,185.0037a.736.736,0,0,1-.2576-.0467l-2.1062-.791a.733.733,0,0,1-.4751-.6859V160.5444a.7326.7326,0,1,1,1.4652,0v22.4282l.6411.2409V160.94a.7326.7326,0,1,1,1.4652,0v23.3313a.7325.7325,0,0,1-.7326.7326Z"/><path class="a" d="M598.01,182.5915a.7274.7274,0,0,1-.3978-.1178l-4.2129-2.7287a.7325.7325,0,1,1,.7965-1.23l4.213,2.7287a.7326.7326,0,0,1-.3988,1.3474Z"/><path class="a" d="M718.4722,134.5845a.7326.7326,0,0,1-.7326-.7326v-4.28a.7326.7326,0,0,1,1.4652,0v4.28A.7327.7327,0,0,1,718.4722,134.5845Z"/><path class="a" d="M720.1744,139.5275a.7328.7328,0,0,1-.7326-.7327V135.57a.7326.7326,0,1,1,1.4652,0v3.2251A.7327.7327,0,0,1,720.1744,139.5275Z"/><path class="a" d="M721.0377,150.9954a.7321.7321,0,0,1-.2189-.0334l-2.5279-.7908a.7325.7325,0,0,1-.5137-.6992v-7.5135a.7326.7326,0,0,1,1.4652,0v6.975l1.0627.3325v-9.68a.7326.7326,0,0,1,1.4652,0v10.6769a.7324.7324,0,0,1-.7326.7326Z"/><path class="a" d="M716.3893,145.2586a.7326.7326,0,0,1-.7326-.7326V141.66a.7326.7326,0,1,1,1.4652,0v2.8656A.7327.7327,0,0,1,716.3893,145.2586Z"/><path class="a" d="M713.4541,152.9727a.7328.7328,0,0,1-.7326-.7326v-5.9317a.7326.7326,0,1,1,1.4652,0v4.9768l1.2119-.3251-.5117-1.2009a.7327.7327,0,0,1,.5385-1.0071l1.509-.2836v-1.7647a.7327.7327,0,0,1,1.4653,0v2.3726a.7325.7325,0,0,1-.5972.72l-1.2105.2272.4851,1.1385a.7325.7325,0,0,1-.4842.9947l-2.949.7908A.7231.7231,0,0,1,713.4541,152.9727Z"/><path class="a" d="M713.4546,152.9727a.7328.7328,0,0,1-.0916-.0058l-6.32-.7908a.7325.7325,0,1,1,.1822-1.4537l3.8529.4819c.0081-.0221.0171-.0443.0272-.0663a.7326.7326,0,0,1,.9744-.352l1.6856.7908a.7325.7325,0,0,1-.31,1.3959Z"/><path class="a" d="M719.3526,166.0222a.6874.6874,0,0,1-.0758-.004l-3.7918-.3954a.7323.7323,0,0,1-.5414-1.1233l.7765-1.2148-3.1646-1.1878-5.2666,1.1406a.7307.7307,0,0,1-.6563-.1817l-1.2639-1.1864a.7324.7324,0,0,1,.19-1.1974l2.3934-1.123-.6644-.6234-5.1569.3722a.7316.7316,0,0,1-.7431-.4855l-.8428-2.3726a.7325.7325,0,0,1,.4469-.9363l3.3707-1.1864a.7327.7327,0,0,1,.4865,1.3822l-2.6777.9425.41,1.1547,4.9208-.3554a.7363.7363,0,0,1,.5542.1966l1.6851,1.5818a.7324.7324,0,0,1-.19,1.1974l-2.3934,1.123.1965.1843,5.1016-1.1048a.7316.7316,0,0,1,.4126.03l4.2134,1.5818a.7328.7328,0,0,1,.36,1.0806l-.6243.977,2.3719.2473,3.1632-1.8556a.7344.7344,0,0,1,.3706-.1006H728.2a.7324.7324,0,0,1,.44.1467l1.8725,1.406,2.0137-.2363-.3382-.6348a.7335.7335,0,0,1,.3353-1.0076l3.3707-1.5818a.739.739,0,0,1,.4789-.05l4.6737,1.0967.4393-.412-1.678-.45a.732.732,0,0,1-.5265-.86l.4211-1.9772a.7321.7321,0,0,1,.6635-.5781l4.7977-.3462v-.1677h-4.7448a.733.733,0,0,1-.5723-.2752l-1.264-1.5818a.7326.7326,0,0,1,.2337-1.107l2.3366-1.2184-.3849-.1445-4.44.7574a.7366.7366,0,0,1-.2461,0l-4.6346-.7908a.7327.7327,0,0,1-.61-.7221v-1.7319l-1.9689-.264-1.01.9482c-.2056.1929-.633.5938-6.8215.5938a.7322.7322,0,0,1-.3114-.0694l-3.3707-1.5818a.7327.7327,0,0,1,.6229-1.3264l3.2223,1.5122a42.6257,42.6257,0,0,0,5.7369-.2731l1.1828-1.11a.7364.7364,0,0,1,.5986-.192l2.9491.3957a.7325.7325,0,0,1,.6353.7261v1.7545l3.902.6659,4.5115-.77a.7342.7342,0,0,1,.3806.0363l2.1067.7908a.7326.7326,0,0,1,.0811,1.3355l-3.0024,1.5656.4884.6112h5.1249a.7326.7326,0,0,1,.7326.7326v1.5818a.7325.7325,0,0,1-.68.7307l-4.9284.3559-.1617.7586,2.2775.6107a.7325.7325,0,0,1,.3115,1.2418l-1.6851,1.5818a.7355.7355,0,0,1-.6687.1791l-4.8082-1.1283-2.4425,1.1462.4807.9014a.7327.7327,0,0,1-.5613,1.0722l-3.3707.3954a.73.73,0,0,1-.5251-.1416l-1.9112-1.4352h-5.0338l-3.199,1.8766A.7323.7323,0,0,1,719.3526,166.0222Z"/><path class="a" d="M702.4993,179.072H699.55a.7326.7326,0,0,1-.7326-.7326V158.5671a.7318.7318,0,0,1,.1354-.4242l1.6851-2.3726a.7325.7325,0,1,1,1.1943.8485l-1.55,2.1821v18.8059h1.4681l-.4055-19.0242a.7328.7328,0,0,1,1.4653-.031l.4211,19.7723a.7325.7325,0,0,1-.7326.7481Z"/><path class="a" d="M696.18,181.4447a.7329.7329,0,0,1-.7326-.7326v-22.145a.7326.7326,0,1,1,1.4652,0v20.6418l1.3441-1.0512a.7326.7326,0,1,1,.9024,1.1543l-2.5279,1.9772A.73.73,0,0,1,696.18,181.4447Z"/><path class="a" d="M693.23,183.4219a.7325.7325,0,0,1-.7326-.7326V159.3579a.7326.7326,0,0,1,1.4652,0v22.1073l1.8706-1.0033a.7326.7326,0,1,1,.6926,1.2911l-2.9495,1.5819A.7324.7324,0,0,1,693.23,183.4219Z"/><path class="a" d="M692.3878,182.2355h-2.9495a.7326.7326,0,0,1-.7326-.7326V159.7536a.7326.7326,0,1,1,1.4652,0V180.77h2.2169a.7326.7326,0,1,1,0,1.4652Z"/><path class="a" d="M681.0119,186.19a.7326.7326,0,0,1-.7326-.7326V162.5216a.7326.7326,0,0,1,1.4652,0v22.1123l1.9054-.2237v-22.284a.7326.7326,0,1,1,1.4652,0v22.9357a.7323.7323,0,0,1-.6472.7276l-3.3707.3954A.7239.7239,0,0,1,681.0119,186.19Z"/><path class="a" d="M689.4392,182.2355a.7353.7353,0,0,1-.124-.0105l-4.6346-.7908a.7325.7325,0,0,1,.2461-1.4442l4.6346.7908a.7326.7326,0,0,1-.1221,1.4547Z"/><path class="a" d="M681.0114,186.19a.7255.7255,0,0,1-.31-.07l-3.3707-1.5816a.7321.7321,0,0,1-.4216-.6632V162.5216a.7326.7326,0,1,1,1.4652,0V183.41l2.949,1.3839a.7327.7327,0,0,1-.3114,1.3961Z"/><path class="a" d="M671.7427,186.5856a.7324.7324,0,0,1-.7326-.7326V164.4087a.7326.7326,0,0,1,1.4652,0V184.81l4.4953-1.6228a.7326.7326,0,1,1,.498,1.3779l-5.477,1.9772A.7281.7281,0,0,1,671.7427,186.5856Z"/><path class="a" d="M667.1934,188.1672a.7326.7326,0,0,1-.7326-.7326V164.6839a.7326.7326,0,1,1,1.4652,0v21.72l3.5763-1.2434a.7326.7326,0,1,1,.4808,1.3841l-4.5493,1.5816A.7308.7308,0,0,1,667.1934,188.1672Z"/><path class="a" d="M652.7826,191.3308a.7324.7324,0,0,1-.7326-.7326V166.0807a.7326.7326,0,0,1,1.4652,0v23.384l3.8014-1.7125V165.29a.7326.7326,0,0,1,1.4652,0v22.936a.7325.7325,0,0,1-.4316.668l-5.2666,2.3726A.7337.7337,0,0,1,652.7826,191.3308Z"/><path class="a" d="M658.2591,187.3766a.7327.7327,0,0,1-.1369-1.4523l6.1928-1.1865a.7326.7326,0,1,1,.2757,1.439l-6.1928,1.1864A.7249.7249,0,0,1,658.2591,187.3766Z"/><path class="a" d="M652.7831,191.3308a.7324.7324,0,0,1-.6105-.3267l-2.1062-3.1637a.7343.7343,0,0,1-.1226-.4058V165.29a.7326.7326,0,0,1,1.4652,0V187.213l1.9837,2.9793a.7328.7328,0,0,1-.61,1.1385Z"/><path class="a" d="M600.5381,185.004a.7328.7328,0,0,1-.219-1.4321l3.2787-1.0257V160.5444a.7326.7326,0,0,1,1.4652,0v22.54a.7325.7325,0,0,1-.5137.6992L600.757,184.97A.7409.7409,0,0,1,600.5381,185.004Z"/><path class="a" d="M613.6,188.1672a.7314.7314,0,0,1-.3463-.0871l-2.9495-1.5816a.7322.7322,0,0,1-.3863-.6455V162.5216a.7326.7326,0,0,1,1.4652,0v22.8928l1.4843.796V163.708a.7326.7326,0,0,1,1.4652,0v23.7266a.7325.7325,0,0,1-.7326.7326Z"/><path class="a" d="M610.65,184.6723a.73.73,0,0,1-.2991-.0644l-6.32-2.832a.7325.7325,0,1,1,.5991-1.3369l6.32,2.8319a.7327.7327,0,0,1-.3,1.4014Z"/><path class="a" d="M613.6,188.1674a.7328.7328,0,0,1-.299-1.4018l3.1069-1.3877V162.5216a.7326.7326,0,0,1,1.4652,0V185.853a.7322.7322,0,0,1-.434.6689l-3.541,1.5816A.7277.7277,0,0,1,613.6,188.1674Z"/><path class="a" d="M627.5034,190.9354a.7363.7363,0,0,1-.1817-.0229l-4.6346-1.1864a.7324.7324,0,0,1-.5509-.71V164.4988a.7326.7326,0,1,1,1.4652,0v23.9488l3.1732.8125.0959-24.171a.7323.7323,0,0,1,.7326-.73h.0028a.733.733,0,0,1,.73.7355l-.1,25.1109a.7332.7332,0,0,1-.7326.73Z"/><path class="a" d="M622.8688,187.3766a.7379.7379,0,0,1-.2266-.036l-5.7282-1.8618a.7328.7328,0,0,1,.4531-1.3937l5.7282,1.8618a.7328.7328,0,0,1-.2265,1.43Z"/><path class="a" d="M627.5039,190.9354a.7326.7326,0,0,1-.4222-1.3316l3.06-2.1537V163.3124a.7326.7326,0,0,1,1.4652,0V187.83a.7323.7323,0,0,1-.3109.5991l-3.3707,2.3726A.73.73,0,0,1,627.5039,190.9354Z"/><path class="a" d="M638.4577,190.1444a.7335.7335,0,0,1-.6468-.3883l-1.2639-2.3726a.7338.7338,0,0,1-.0859-.3443V163.708a.7326.7326,0,0,1,1.4652,0v14.3581l.22-12.394a.7328.7328,0,0,1,.7321-.7194h.0134a.733.733,0,0,1,.72.7457l-.4211,23.7265a.7328.7328,0,0,1-.7326.7195Z"/><path class="a" d="M630.874,187.804a.7327.7327,0,0,1-.0038-1.4653l6.32-.0322h.0038a.7327.7327,0,0,1,.0038,1.4653l-6.32.0322Z"/><path class="a" d="M643.9351,191.7262a.733.733,0,0,1-.46-.1621l-1.9632-1.5819a.7325.7325,0,0,1-.2728-.57V165.883a.7326.7326,0,0,1,1.4652,0v23.1782l.498.4014V165.6853a.7326.7326,0,0,1,1.4652,0v25.3083a.7327.7327,0,0,1-.7326.7326Z"/><path class="a" d="M638.4572,190.54a.7328.7328,0,0,1-.1669-1.4462l3.3706-.791a.7327.7327,0,0,1,.3348,1.4266l-3.3706.791A.7409.7409,0,0,1,638.4572,190.54Z"/><path class="a" d="M643.9341,189.429a.7327.7327,0,0,1-.0925-1.4593l6.7413-.8662a.7326.7326,0,0,1,.187,1.4533l-6.7414.8662A.7586.7586,0,0,1,643.9341,189.429Z"/><path class="a" d="M702.4993,181.0493a.7333.7333,0,0,1-.6467-.3883l-.8424-1.5818a.7328.7328,0,0,1,1.2936-.6887l.5971,1.1218,1.708-.2671.5285-.7441V161.3352a.7326.7326,0,1,1,1.4652,0v17.4a.7308.7308,0,0,1-.1355.4243l-.8428,1.1864a.7333.7333,0,0,1-.4841.3l-2.5279.3954A.7329.7329,0,0,1,702.4993,181.0493Z"/><path class="a" d="M708.3979,186.19a.732.732,0,0,1-.3888-.1116l-2.5278-1.5816a.7328.7328,0,0,1-.3439-.621v-4.9086a.7326.7326,0,0,1,1.4652,0V183.47l1.0545.66-.1292-21.8481a.7328.7328,0,0,1,.7283-.7369h.0043a.7327.7327,0,0,1,.7326.7283l.1374,23.18a.7326.7326,0,0,1-.7326.7369Z"/><path class="a" d="M708.3979,186.19a.7328.7328,0,0,1-.2576-1.4187l3.7384-1.4033v-22.033a.7326.7326,0,0,1,1.4652,0v22.5405a.7327.7327,0,0,1-.475.6859l-4.2135,1.5816A.73.73,0,0,1,708.3979,186.19Z"/><path class="a" d="M719.3526,188.5628a.7267.7267,0,0,1-.2389-.04l-3.4356-1.1864a.7324.7324,0,0,1-.4936-.6925V164.9314a.7326.7326,0,0,1,1.4652,0v21.19l1.97.68V165.29a.7326.7326,0,1,1,1.4652,0V187.83a.7326.7326,0,0,1-.7326.7326Z"/><path class="a" d="M715.56,185.7948a.7274.7274,0,0,1-.31-.07l-2.5283-1.1862a.7325.7325,0,1,1,.6219-1.3264l2.5284,1.1862a.7327.7327,0,0,1-.3115,1.3961Z"/><path class="a" d="M719.3531,188.563a.7329.7329,0,0,1-.3119-1.396l2.9461-1.3825-.1678-22.3662a.7326.7326,0,1,1,1.4652-.011l.1712,22.8356a.7338.7338,0,0,1-.4212.6687l-3.3706,1.5818A.7306.7306,0,0,1,719.3531,188.563Z"/><path class="a" d="M729.8858,188.1672a.7313.7313,0,0,1-.44-.1467l-2.1067-1.5816a.7321.7321,0,0,1-.2929-.5859V163.3124a.7327.7327,0,0,1,1.4653,0v22.1745l.6415.4815V164.8942a.7326.7326,0,1,1,1.4652,0v22.54a.7325.7325,0,0,1-.7326.7326Z"/><path class="a" d="M722.7161,186.19a.7326.7326,0,0,1-.061-1.4626l4.6408-.3954a.7326.7326,0,0,1,.124,1.46l-4.6408.3954Q722.7476,186.19,722.7161,186.19Z"/><path class="a" d="M729.8858,188.1674a.7328.7328,0,0,1-.219-1.4321l3.2782-1.0254V164.4988a.7326.7326,0,1,1,1.4652,0v21.75a.7327.7327,0,0,1-.5137.6992l-3.7918,1.1862A.7409.7409,0,0,1,729.8858,188.1674Z"/><path class="a" d="M740.84,185.3991c-.0225,0-.0449-.0009-.0673-.0031l-4.29-.3954a.7328.7328,0,0,1-.6654-.73V161.4163a.7326.7326,0,1,1,1.4652,0v22.1866l2.8341.2614.2571-21.3878a.7326.7326,0,0,1,.7326-.7238h.0086a.7328.7328,0,0,1,.724.7415l-.2666,22.1812a.733.733,0,0,1-.7326.7237Z"/><path class="a" d="M734.0983,185.004a.7327.7327,0,0,1-.19-1.44l2.4516-.66a.7325.7325,0,1,1,.3806,1.4146l-2.4516.66A.7339.7339,0,0,1,734.0983,185.004Z"/><path class="a" d="M741.2617,185.3991a.7325.7325,0,0,1-.5013-1.2668l1.46-1.37.4149-21.8361a.7193.7193,0,0,1,.7465-.7185.7326.7326,0,0,1,.7187.7462l-.4211,22.1449a.7334.7334,0,0,1-.2313.52l-1.6851,1.5818A.73.73,0,0,1,741.2617,185.3991Z"/><path class="a" d="M743.3679,181.84a.7328.7328,0,0,1-.2189-1.4321l2.0147-.63V157.7763a.7326.7326,0,0,1,1.4652,0v22.54a.7325.7325,0,0,1-.5137.6992l-2.5283.7908A.741.741,0,0,1,743.3679,181.84Z"/><path class="a" d="M742.6649,156.9271a.7326.7326,0,0,1-.7326-.7326V152.53a.7326.7326,0,1,1,1.4652,0v3.6649A.7326.7326,0,0,1,742.6649,156.9271Z"/><path class="a" d="M724.4084,159.6951c-4.2368,0-5.3672-1.4547-5.3672-2.3142v-3.1636a.7325.7325,0,0,1,1.044-.6632c.0453.0214,4.7749,2.1787,8.5982.0248a.7327.7327,0,0,1,1.0922.6384v3.559a.7331.7331,0,0,1-.13.4164C729.4722,158.4436,728.4053,159.6951,724.4084,159.6951Zm-3.902-2.3936c.1731.2719,1.1681.9284,3.902.9284,2.4921,0,3.5452-.5282,3.902-.7757v-2.0815a11.7849,11.7849,0,0,1-7.804-.087Z"/><path class="a" d="M729.043,154.95h-.0119a.7332.7332,0,0,1-.6964-.5445c-.1293-.1175-.8776-.6419-3.9263-.6419-3.0573,0-3.8019.5313-3.9278.6477a.7328.7328,0,0,1-1.4394-.1939c0-.7166.6973-1.9191,5.3672-1.9191,2.63,0,4.26.3568,4.9828,1.0906a1.1912,1.1912,0,0,1,.3844.84A.733.733,0,0,1,729.043,154.95Zm-8.5366-.7312v0Zm0-.0014v0Zm7.804-.01v0Zm0-.0014v0Z"/><path class="a" d="M558.72,156.9054a.7327.7327,0,0,1-.7326-.7478l.46-22.0658a.7337.7337,0,0,1,.3105-.5836l10.1807-7.1753a.7326.7326,0,0,1,.6343-.1023l3.9106,1.1835a.7326.7326,0,0,1-.4245,1.4023l-3.5686-1.08-9.5859,6.7561-.424,20.3538,6.5472-4.0213a.7327.7327,0,0,1,.7669,1.2487l-7.6909,4.7236A.733.733,0,0,1,558.72,156.9054Z"/><path class="a" d="M558.7208,156.9054a.7359.7359,0,0,1-.1093-.0081l-10.4263-1.56a.7328.7328,0,0,1-.6243-.7245V132.4678a.7324.7324,0,0,1,.3716-.6375l22.3307-12.6542a.7326.7326,0,0,1,.7221,1.2749l-21.9592,12.4436v21.0868l9.802,1.4669a.7326.7326,0,0,1-.1073,1.4571Z"/><path class="a" d="M546.1873,157.3225a.7322.7322,0,0,1-.7326-.7326V131.677a.7318.7318,0,0,1,.3768-.64l23.9733-13.3185a.7325.7325,0,1,1,.7116,1.2806L546.92,132.1081V155.38l1.9522-1.0207a.7326.7326,0,0,1,.6792,1.2983l-3.0244,1.5814A.7328.7328,0,0,1,546.1873,157.3225Z"/><path class="a" d="M546.1877,157.3228a.733.733,0,0,1-.1841-.0237l-24.4371-6.327a.7327.7327,0,0,1-.549-.7093V125.35a.7328.7328,0,0,1,.9162-.7093l24.4372,6.3271a.7326.7326,0,0,1-.3673,1.4185l-23.5209-6.09v23.3993l23.8882,6.185a.7328.7328,0,0,1-.1832,1.4421Z"/><path class="a" d="M521.7508,126.0827a.7327.7327,0,0,1-.3451-1.3793l31.1781-16.6087a.7306.7306,0,0,1,.5232-.0639l17.2744,4.35a.7326.7326,0,1,1-.3577,1.4208l-17.0007-4.2809-30.9286,16.4758A.73.73,0,0,1,521.7508,126.0827Z"/><path class="a" d="M521.75,148.8339a.7312.7312,0,0,1-.264-.05l-4.6346-1.7927a.7325.7325,0,0,1-.4683-.6832V124.9545a.7331.7331,0,0,1,.3882-.6468L545,109.2807a.7328.7328,0,0,1,.6015-.0394l3.1455,1.1779a.7327.7327,0,0,1-.5142,1.3722l-2.836-1.062-27.5488,14.6651v20.4116l4.1662,1.6117a.7328.7328,0,0,1-.2645,1.4161Z"/><path class="a" d="M516.6946,135.9689a.727.727,0,0,1-.19-.0253l-5.8986-1.5818a.7326.7326,0,0,1-.4426-.338,4.5639,4.5639,0,0,1-.5018-3.3072,4.783,4.783,0,0,1,1.9932-2.8138.7326.7326,0,0,1,.5867-.0992l4.6346,1.1864a.7326.7326,0,1,1-.3634,1.4194l-4.2989-1.1005a3.2379,3.2379,0,0,0-1.1265,1.7463,3.0488,3.0488,0,0,0,.2091,1.9747l5.5878,1.4986a.7327.7327,0,0,1-.1893,1.44Z"/><path class="a" d="M654.047,229.2936a.7324.7324,0,0,1-.7326-.7326V193.7616a.7338.7338,0,0,1,.4131-.6594l11.6444-5.6407-1.2181-.5442a.7325.7325,0,0,1-.4336-.6689V163.55a.7326.7326,0,0,1,1.4652,0v22.2234l2.2217.9923a.7327.7327,0,0,1,.02,1.3283L654.78,194.2207v33.0661l42.69-24.851V179.13a.7326.7326,0,0,1,1.4652,0V202.857a.7331.7331,0,0,1-.3639.6332l-44.1549,25.7039A.7328.7328,0,0,1,654.047,229.2936Z"/><path class="a" d="M654.048,229.2938a.7412.7412,0,0,1-.1507-.0157L589.434,215.8329a.7324.7324,0,0,1-.5828-.7171V180.7121a.7326.7326,0,1,1,1.4652,0V214.52l63.88,13.3236a.7327.7327,0,0,1-.1488,1.45Z"/><path class="a" d="M654.0475,194.4945a.7419.7419,0,0,1-.1941-.0262l-10.0829-2.76-13.8318-2.5949a.7325.7325,0,1,1,.27-1.44l13.8613,2.6c.02.0036.0391.0082.0587.0134l10.112,2.768a.7328.7328,0,0,1-.1932,1.4395Z"/><path class="a" d="M661.21,325.3866a.7414.7414,0,0,1-.2113-.031L597.5838,306.278a.7325.7325,0,0,1-.5218-.7033l.2156-88.6152a.7326.7326,0,0,1,.7326-.731h.0019a.7326.7326,0,0,1,.7307.7345l-.2142,88.0691,62.5655,18.8222,29.2867-19.1336-.2-97.6193a.7327.7327,0,0,1,.7312-.734h.0014a.7328.7328,0,0,1,.7327.7312l.2012,98.0165a.7332.7332,0,0,1-.3319.6148L661.61,325.2673A.7321.7321,0,0,1,661.21,325.3866Z"/><path class="a" d="M661.2577,324.1815a.7326.7326,0,0,1-.7326-.7326V224.8042a.7326.7326,0,0,1,1.4652,0v98.6447A.7326.7326,0,0,1,661.2577,324.1815Z"/><path class="a" d="M724.4084,198.4487a.7311.7311,0,0,1-.3406-.0839l-24.8581-13.05a.7328.7328,0,0,1,.1078-1.3434l5.8986-1.9772a.7327.7327,0,0,1,.4655,1.3894l-4.2712,1.4316,23.0609,12.1061,21.6225-7.2819-9.7624-4.3029a.7327.7327,0,1,1,.5914-1.3407l11.49,5.0645a.7327.7327,0,0,1-.062,1.3646l-23.7091,7.985A.7259.7259,0,0,1,724.4084,198.4487Z"/><path class="a" d="M724.4084,216.2438a.73.73,0,0,1-.3239-.0756l-24.8581-12.2588a.7321.7321,0,0,1-.4087-.657v-18.19a.7326.7326,0,0,1,1.4652,0v17.735l24.1737,11.9211,22.9283-8.0375V189.7311a.7326.7326,0,1,1,1.4652,0V207.2a.7325.7325,0,0,1-.49.6914l-23.7091,8.3112A.73.73,0,0,1,724.4084,216.2438Z"/><path class="a" d="M724.4084,215.453a.7326.7326,0,0,1-.7326-.7326V197.7161a.7326.7326,0,1,1,1.4652,0V214.72A.7327.7327,0,0,1,724.4084,215.453Z"/><path class="a" d="M719.3526,265.6745a.7334.7334,0,0,1-.35-.0887l-14.9068-8.0942a.7328.7328,0,0,1-.383-.6463l.16-50.6293a.7328.7328,0,0,1,.7326-.73h.0024a.7324.7324,0,0,1,.73.735l-.1588,50.192,14.2592,7.7425,24.2681-6.94V208.5791a.7326.7326,0,1,1,1.4652,0v49.1882a.7325.7325,0,0,1-.5314.7044l-25.087,7.1747A.7323.7323,0,0,1,719.3526,265.6745Z"/><path class="a" d="M719.3526,265.6745a.7327.7327,0,0,1-.7326-.7326v-51.924a.7326.7326,0,0,1,1.4652,0v51.924A.7326.7326,0,0,1,719.3526,265.6745Z"/><text class="b" transform="translate(16.9424 284.4706)">Sensor de<tspan x="-16.9424" y="29.6992">temperatura</tspan></text><text class="b" transform="translate(276.4878 284.4716)">Unidad de<tspan x="-26.5449" y="29.6992">procesamiento</tspan></text><line class="c" x1="175.2542" y1="188.7519" x2="240.0467" y2="188.7519"/><circle class="d" cx="240.0467" cy="188.7519" r="6.7694"/><line class="c" x1="517.7248" y1="188.7865" x2="407.4809" y2="188.752"/><circle class="d" cx="407.4809" cy="188.7519" r="6.7694"/><path class="a" d="M229.4091,76.6085H192.6612a9.187,9.187,0,0,0-9.187,9.187v51.2537a9.1869,9.1869,0,0,0,9.187,9.187h7.9165l10.941,10.941,10.9409-10.941h6.95a9.187,9.187,0,0,0,9.187-9.187V85.7955A9.1871,9.1871,0,0,0,229.4091,76.6085Z"/><text class="e" transform="translate(196.1714 128.996)">2</text><path class="a" d="M474.2511,76.6085H437.5032a9.1871,9.1871,0,0,0-9.187,9.187v51.2537a9.187,9.187,0,0,0,9.187,9.187H445.42l10.941,10.941,10.9409-10.941h6.95a9.1869,9.1869,0,0,0,9.187-9.187V85.7955A9.187,9.187,0,0,0,474.2511,76.6085Z"/><text class="e" transform="translate(441.0142 128.996)">1</text><path class="a" d="M87.1786,216.0705a13.1447,13.1447,0,0,1-13.1323-12.8032c0-5.2157,3.7017-9.22,5.2742-10.6838V168.5593a7.4648,7.4648,0,0,1,14.9142,0v24.2556a12.724,12.724,0,0,1-7.0561,23.2556Zm-.401-52.7729a5.5773,5.5773,0,0,0-5.5928,5.2617v24.4372a.9326.9326,0,0,1-.3159.6993c-2.3968,2.1126-4.9583,5.7364-4.9583,9.5715a11.2557,11.2557,0,0,0,11.268,10.9389,10.7425,10.7425,0,0,0,10.7755-10.9389,10.9907,10.9907,0,0,0-5.1586-9.175.932.932,0,0,1-.4251-.7822V168.5593A5.5773,5.5773,0,0,0,86.7776,163.2976Z"/><path class="a" d="M93.3025,173.3343H87.71a.9322.9322,0,0,1,0-1.8643h5.5928a.9322.9322,0,1,1,0,1.8643Z"/><path class="a" d="M93.3025,180.3253H87.71a.9322.9322,0,0,1,0-1.8643h5.5928a.9322.9322,0,1,1,0,1.8643Z"/><path class="a" d="M93.3025,186.85H87.71a.9321.9321,0,1,1,0-1.8642h5.5928a.9321.9321,0,1,1,0,1.8642Z"/><path class="a" d="M93.3025,193.8412H87.71a.9321.9321,0,1,1,0-1.8642h5.5928a.9321.9321,0,1,1,0,1.8642Z"/><path class="a" d="M75.0573,203.7871c3.6771-10.839,19.4615,11.3259,23.0744-.7737,0,0-.0336,11.1592-9.4574,12.0318S73.589,208.1174,75.0573,203.7871Z"/><path class="a" d="M86.76,228.401a39.6491,39.6491,0,1,1,39.65-39.649A39.6935,39.6935,0,0,1,86.76,228.401Zm0-77.4339A37.7849,37.7849,0,1,0,124.545,188.752,37.8274,37.8274,0,0,0,86.76,150.9671Z"/><path class="a" d="M48.56,184.0538H38.7726a.9322.9322,0,0,1,0-1.8643H48.56a.9322.9322,0,1,1,0,1.8643Z"/><path class="a" d="M48.56,197.57H38.7726a.9322.9322,0,0,1,0-1.8643H48.56a.9322.9322,0,1,1,0,1.8643Z"/><path class="a" d="M133.3844,184.0538h-7.9232a.9322.9322,0,0,1,0-1.8643h7.9232a.9322.9322,0,0,1,0,1.8643Z"/><path class="a" d="M133.3844,197.57h-7.9232a.9322.9322,0,0,1,0-1.8643h7.9232a.9322.9322,0,0,1,0,1.8643Z"/><path class="a" d="M361.4905,229.6256H302.6113a3.9452,3.9452,0,0,1-3.9405-3.9406V151.8188a3.9452,3.9452,0,0,1,3.9405-3.9405h58.8792a3.9452,3.9452,0,0,1,3.9406,3.9405V225.685A3.9452,3.9452,0,0,1,361.4905,229.6256ZM302.6113,150.13a1.6907,1.6907,0,0,0-1.6888,1.6888V225.685a1.6907,1.6907,0,0,0,1.6888,1.6888h58.8792a1.6906,1.6906,0,0,0,1.6888-1.6888V151.8188a1.6907,1.6907,0,0,0-1.6888-1.6888Z"/><path class="a" d="M299.7967,163.6135H289.66a1.1259,1.1259,0,1,1,0-2.2517h10.1372a1.1259,1.1259,0,0,1,0,2.2517Z"/><path class="a" d="M299.7967,181.1229H289.66a1.1259,1.1259,0,1,1,0-2.2517h10.1372a1.1259,1.1259,0,0,1,0,2.2517Z"/><path class="a" d="M299.7967,198.6324H289.66a1.1259,1.1259,0,1,1,0-2.2517h10.1372a1.1259,1.1259,0,0,1,0,2.2517Z"/><path class="a" d="M299.7967,216.1421H289.66a1.1259,1.1259,0,1,1,0-2.2517h10.1372a1.1259,1.1259,0,0,1,0,2.2517Z"/><path class="a" d="M374.4424,164.0742H364.3052a1.1259,1.1259,0,0,1,0-2.2518h10.1372a1.1259,1.1259,0,0,1,0,2.2518Z"/><path class="a" d="M374.4424,181.5839H364.3052a1.1259,1.1259,0,1,1,0-2.2517h10.1372a1.1259,1.1259,0,0,1,0,2.2517Z"/><path class="a" d="M374.4424,199.0933H364.3052a1.1259,1.1259,0,1,1,0-2.2517h10.1372a1.1259,1.1259,0,0,1,0,2.2517Z"/><path class="a" d="M374.4424,216.6028H364.3052a1.1259,1.1259,0,1,1,0-2.2517h10.1372a1.1259,1.1259,0,0,1,0,2.2517Z"/><path class="a" d="M327.92,198.548a17.9781,17.9781,0,0,1-2.8883-.2518,1.125,1.125,0,0,1-.8675-.6979l-2.1879-5.5427-5.4705,1.6753a1.1273,1.1273,0,0,1-1.1132-.2677,17.9907,17.9907,0,0,1-3.581-4.9006,1.1252,1.1252,0,0,1,.0308-1.0641l2.7223-4.7368-4.0912-2.8012a1.1262,1.1262,0,0,1-.4854-1.0283,17.8364,17.8364,0,0,1,1.84-6.4572,1.125,1.125,0,0,1,.8361-.6077l4.5458-.6944-.3078-4.2184a1.1273,1.1273,0,0,1,.4618-.9931,17.8274,17.8274,0,0,1,6.5556-2.9771,1.124,1.124,0,0,1,1.0137.271l2.9867,2.76,2.9862-2.76a1.1239,1.1239,0,0,1,1.0137-.271,17.8278,17.8278,0,0,1,6.5557,2.9771,1.1275,1.1275,0,0,1,.4618.9931l-.3079,4.2184,4.5458.6944a1.1248,1.1248,0,0,1,.8361.6077,17.8364,17.8364,0,0,1,1.84,6.4572,1.1262,1.1262,0,0,1-.4854,1.0283l-4.0912,2.8012,2.7223,4.7368a1.1249,1.1249,0,0,1,.0308,1.0641,17.9886,17.9886,0,0,1-3.581,4.9006,1.125,1.125,0,0,1-1.1132.2677l-5.47-1.6753-2.188,5.5427a1.125,1.125,0,0,1-.8675.6979A17.97,17.97,0,0,1,327.92,198.548Zm-1.9-2.3828a13.7734,13.7734,0,0,0,3.8,0l2.3309-5.9042a1.1234,1.1234,0,0,1,1.3771-.663l5.8146,1.7806a15.7482,15.7482,0,0,0,2.3947-3.2932l-2.9334-5.1038a1.1262,1.1262,0,0,1,.34-1.49l4.3935-3.0081a15.5821,15.5821,0,0,0-1.29-4.48l-4.9867-.7617a1.126,1.126,0,0,1-.9532-1.1948l.3369-4.617a15.55,15.55,0,0,0-4.6557-2.1094l-3.305,3.0546a1.1261,1.1261,0,0,1-1.5283,0L323.85,165.32a15.5582,15.5582,0,0,0-4.6557,2.11l.337,4.617a1.1262,1.1262,0,0,1-.9533,1.1948l-4.9866.7617a15.5821,15.5821,0,0,0-1.29,4.48l4.3935,3.0081a1.1264,1.1264,0,0,1,.34,1.49l-2.9334,5.1038a15.7442,15.7442,0,0,0,2.3946,3.2932l5.8146-1.7806a1.1251,1.1251,0,0,1,1.3771.663Z"/><path class="a" d="M327.92,186.4865a5.9506,5.9506,0,1,1,5.95-5.9507A5.9576,5.9576,0,0,1,327.92,186.4865Zm0-9.6493a3.6988,3.6988,0,1,0,3.6987,3.6986A3.7032,3.7032,0,0,0,327.92,176.8372Z"/><path class="a" d="M341.4553,220.8256a13.1721,13.1721,0,0,1-2.1088-.183,1.1261,1.1261,0,0,1-.8675-.6982l-1.4491-3.67-3.6112,1.1058a1.1269,1.1269,0,0,1-1.1132-.268,13.1385,13.1385,0,0,1-2.6152-3.5788,1.1255,1.1255,0,0,1,.0308-1.0641l1.79-3.1151-2.6673-1.8265a1.1262,1.1262,0,0,1-.4855-1.0283,13.0319,13.0319,0,0,1,1.3441-4.7167,1.1259,1.1259,0,0,1,.8362-.6077l2.9422-.45-.1974-2.7069a1.1274,1.1274,0,0,1,.4618-.9929,13.0246,13.0246,0,0,1,4.7893-2.1745,1.1267,1.1267,0,0,1,1.0132.2711l1.9076,1.763,1.9081-1.763a1.1246,1.1246,0,0,1,1.0138-.2711,13.0273,13.0273,0,0,1,4.7887,2.1745,1.1273,1.1273,0,0,1,.4618.9931l-.1979,2.7067,2.9428.45a1.1265,1.1265,0,0,1,.8367.608,13.03,13.03,0,0,1,1.343,4.7167,1.1254,1.1254,0,0,1-.4854,1.028L351.4,209.3539l1.7905,3.1151a1.1252,1.1252,0,0,1,.0308,1.0641,13.1456,13.1456,0,0,1-2.6156,3.5788,1.1258,1.1258,0,0,1-1.1133.268l-3.6106-1.1058-1.4492,3.67a1.1259,1.1259,0,0,1-.868.6982A13.1721,13.1721,0,0,1,341.4553,220.8256Zm-1.1231-2.3193a9.31,9.31,0,0,0,2.2468,0l1.59-4.0269a1.1238,1.1238,0,0,1,1.3771-.663l3.9482,1.2092a10.8762,10.8762,0,0,0,1.4332-1.9747l-1.9988-3.4771a1.1261,1.1261,0,0,1,.34-1.49l2.9642-2.03a10.77,10.77,0,0,0-.7932-2.7443l-3.3782-.5162a1.1261,1.1261,0,0,1-.9532-1.1948l.2265-3.0992a10.76,10.76,0,0,0-2.8922-1.3089l-2.2232,2.0538a1.126,1.126,0,0,1-1.5282,0l-2.2226-2.0541a10.7584,10.7584,0,0,0-2.8922,1.3092l.2259,3.0992a1.1259,1.1259,0,0,1-.9532,1.1948l-3.3776.5162a10.773,10.773,0,0,0-.7938,2.7443l2.9642,2.03a1.1262,1.1262,0,0,1,.34,1.49l-1.9983,3.4771a10.89,10.89,0,0,0,1.4326,1.9747l3.9487-1.2092a1.1246,1.1246,0,0,1,1.3771.663Z"/><path class="a" d="M341.4553,212.2329a4.5628,4.5628,0,1,1,4.5628-4.5628A4.5679,4.5679,0,0,1,341.4553,212.2329Zm0-6.8739a2.3111,2.3111,0,1,0,2.3111,2.3111A2.3138,2.3138,0,0,0,341.4553,205.359Z"/><text class="f" transform="matrix(0.9999, 0.0142, -0.0142, 0.9999, 184.9415, 241.8018)">150</text><circle class="c" cx="233.92" cy="217.5838" r="3.3296"/></svg>