<svg xmlns="http://www.w3.org/2000/svg" viewBox="0 0 741.3975 524.4286"><defs><style>.a{fill:#d91519;}.b{opacity:0.5;}.c,.d,.g{fill:#606060;}.d{font-size:28.3221px;font-family:Lato-Italic, Lato;font-style:italic;}.e,.h{fill:none;stroke-miterlimit:10;}.e{stroke:#606060;stroke-width:2px;}.f{font-size:51.3203px;fill:#fff;}.f,.g{font-family:Lato-Black, Lato;font-weight:800;}.g{font-size:25.854px;}.h{stroke:#d91519;stroke-linecap:round;stroke-width:3px;}</style></defs><title>func_3</title><path class="a" d="M735.905,182.1831a.7341.7341,0,0,1-.2193-1.4347l2.0184-.6313V158.0738a.734.734,0,0,1,1.468,0v22.5828a.7338.7338,0,0,1-.5146.7005l-2.5332.7923A.74.74,0,0,1,735.905,182.1831Z"/><path class="a" d="M735.2007,157.223a.734.734,0,0,1-.734-.734v-3.6719a.734.734,0,1,1,1.4679,0v3.6719A.734.734,0,0,1,735.2007,157.223Z"/><g class="b"><path class="c" d="M647.1569,57.4691c20.6779,24.6624,22.1286,24.7441,22.8257,24.7833.3336.0189.7585.0645,1.2482.1166a34.8405,34.8405,0,0,0,3.72.2509,12.0067,12.0067,0,0,0,4.3237-.6839,4.7016,4.7016,0,0,0,2.9059-4.061,4.9669,4.9669,0,0,0-2.32-4.74,269.79,269.79,0,0,1-51.7223-41.0472.7341.7341,0,0,0-1.0967.9737C627.14,33.1832,637.033,45.3946,647.1569,57.4691Zm31.9452,16.9228a3.51,3.51,0,0,1,1.6152,3.3591,3.2026,3.2026,0,0,1-1.9784,2.8179c-2.255.8829-5.3228.5567-7.3527.34-.49-.0522-.9166-.0975-1.2683-.1193-2.2645-.8976-19.5492-21.3344-33.8179-38.7026A273.8676,273.8676,0,0,0,679.1021,74.3919Z"/><path class="c" d="M713.9364,139.2522a.7351.7351,0,0,0-.4157-.3078l-.119-.0335v-2.4888l.07-.0146a.7339.7339,0,0,0,.584-.7185v-1.5848a.734.734,0,0,0-.734-.734h-1.6257v-2.6809a.7276.7276,0,0,0,.0984-.9921l-.4831-.6333c.0675-.15.1046-.2522.119-.2957a.727.727,0,0,0,.0373-.2262l.2284-39.4342a.7348.7348,0,0,0-.1792-.4851l-8.2191-9.484a.7349.7349,0,0,0-.162-.1393c-.6165-.3906-61.7512-39.3071-70.7478-58.9236a.738.738,0,0,0-.1-.1606c-.3628-.44-8.9847-10.8084-17.8914-13.1081C605.7367,4.5712,591.3441.0787,591.2.0335a.7321.7321,0,0,0-.4186-.0057L569.5438,6.0292l-.0058.0031a.7326.7326,0,0,0-.26.1374l-.0044.0023c-.3092.2579-7.5582,6.3935-7.0584,13.3562.3966,5.5282-.2778,71.6147-.5063,92.8418l-16.4233-4.1355a.7313.7313,0,0,0-.5242.064l-4.1538,2.2127-2.8415-1.0639a.7339.7339,0,0,0-.6025.0394L508.881,124.5421a.7339.7339,0,0,0-.389.6479v3.9168l-4.1494-1.0623a.7339.7339,0,0,0-.5878.0994,4.792,4.792,0,0,0-1.997,2.8191,4.573,4.573,0,0,0,.5027,3.3135.7338.7338,0,0,0,.4435.3385l5.788,1.5523v10.4169a.7339.7339,0,0,0,.4692.6845l4.1742,1.6145v1.6629a.7341.7341,0,0,0,.55.7106l24.4832,6.339a.7355.7355,0,0,0,.1845.0237l.0068-.0012a.7333.7333,0,0,0,.2036-.034c.0212-.0063.0407-.0147.0611-.023a.7126.7126,0,0,0,.0683-.0257l3.03-1.5844a.6954.6954,0,0,0,.1211-.0982l8.9563,1.34a.7334.7334,0,0,0,.1071.0079l.0014,0h.0009l.0031,0a.7338.7338,0,0,0,.2276-.0414.7052.7052,0,0,0,.0685-.03.7211.7211,0,0,0,.0841-.0368l7.0092-4.3048v8.4553a.733.733,0,0,0,.2318.5352l.6126.575v2.8517a.7327.7327,0,0,0,.16.4582l1.2664,1.5849a.7232.7232,0,0,0,.8025.2367.7093.7093,0,0,0,.1934.039h1.3919v4.4166a.7347.7347,0,0,0,.3086.5983l1.673,1.1884a.8118.8118,0,0,0,.42.1349l.0041.0008h.0015c.0225,0,.0453-.0009.0682-.003l3.9211-.368.7883,2.9936a.7327.7327,0,0,0,.32.4353l1.2663.7923a.7063.7063,0,0,0,.069.0306.6855.6855,0,0,0,.0678.03.7317.7317,0,0,0,.2527.051h4.4871l.0066-.0013,1.9469.8106v1.6264a.7343.7343,0,0,0,.5151.7005l2.0189.6312v33.9291a.7339.7339,0,0,0,.584.7185l7.8571,1.6387-.2147,88.2723a.7337.7337,0,0,0,.5227.7045l63.534,19.1136a.7408.7408,0,0,0,.2117.0311.7329.7329,0,0,0,.4014-.12l29.9612-19.5742a.7347.7347,0,0,0,.3326-.616l-.2008-97.7782,6.9372-4.0383a.7344.7344,0,0,0,.3646-.6344V179.8257l.2245-.1757a.7176.7176,0,0,0,.208-.2776.7049.7049,0,0,0,.1843.0372h2.9546a.7341.7341,0,0,0,.7341-.75l-.422-19.81a.7342.7342,0,0,0-1.468.031l.4062,19.06h-1.4709V159.1l1.5526-2.1862a.7205.7205,0,0,0,.0749-.6816h2.4927a.7333.7333,0,0,0,.258-.0469l2.1106-.7923a.734.734,0,0,0-.0142-1.38l-1.782-.6272,2.14-1.1161h4.4637a.7342.7342,0,0,0,.5022-.1988l.6633-.6225v1.0779a.7341.7341,0,0,0,.7339.734.725.725,0,0,0,.19-.0251l2.9546-.7922a.7339.7339,0,0,0,.4851-.9966l-.486-1.1407,1.2128-.2277c.0183-.0034.0328-.0143.0505-.019a.7266.7266,0,0,0,.4388.3947l2.5326.7922a.734.734,0,0,0,.9534-.7005V139.849A.7212.7212,0,0,0,713.9364,139.2522Zm-2.0026-.7546-1.9721-.5552.1792-.84,1.7929-.374Zm-2.5069-5.1274.03-1.5468.7717-.3795V133.37Zm.5739-4.9773c-.291.65-2.3754,4.6244-11.2492,8.5668-8.9393,3.9717-26.7418,8.6993-60.8207,8.6993h-.2341c-34.2342-.0217-51.9388-4.9582-60.763-9.0955-8.794-4.1234-10.7049-8.2693-10.9491-8.8912l.0316-5.472a.7267.7267,0,0,0-.1372-.4124l.1654-28.5467c3.4491,4.6278,14.3266,15.2093,43.6933,19.7174a71.6319,71.6319,0,0,0,43.8062-6.6876,60.1385,60.1385,0,0,0,15.2884-10.8018c3.5072.3685,28.657,2.4918,37.0822-11.07l4.3123,4.9759Zm-148.2189-1.9244a.7342.7342,0,0,0-.6355.1026l-10.2,7.1888a.7353.7353,0,0,0-.3111.5847l-.4432,21.2733-8.9954-1.3462V133.1452l21.8462-12.38L564.44,122.35a.7091.7091,0,0,0,.1062.249l-.0274,4.6976Zm69.3137-105.69c8.3112,17.8718,56.4791,49.8964,68.5756,57.7394a5.2176,5.2176,0,0,1-1.5174,2.9626c-2.5515,2.7613-10.3315,7.1771-33.854,6.4487-1.25-2.09-6.9728-8.1392-22.63-24.3471-8.1709-8.4581-16.6194-17.2038-22.91-24.0348-13.4166-14.5691-14.4155-24.0445-14.46-26.1277L616.11,8.9245C623.4612,11.8941,630.3872,19.9392,631.0956,20.7782ZM662.1725,87.85c-18.96-17.8011-47.0163-45.0765-55.334-56.3329a.7177.7177,0,0,0-.1016-.14,13.8044,13.8044,0,0,1-2.2445-3.8748A44.7383,44.7383,0,0,1,602.86,14.1885c.2488,3.33,2.1763,12.623,14.82,26.3529,6.3024,6.8439,14.7571,15.5961,22.9338,24.06,9.5172,9.8521,19.3137,19.9938,21.8856,23.26C662.39,87.8574,662.2835,87.8543,662.1725,87.85Zm-93.7571-64.57c-.388-1.841-1.6132-9.2167,1.8367-15.9247l4.7686-1.3475L601.4,13.9662c-.1206,1.6458-.222,6.43,1.6694,13.8965a10.7814,10.7814,0,0,0,1.5,2.9078ZM590.9709,1.5c1.8017.5608,14.7982,4.5889,22.93,6.6952l-11.7389,4.468L577.645,5.2653ZM567.563,10.031a27.4715,27.4715,0,0,0-.4926,13.9618l-.3139,54.1519a.7339.7339,0,0,0,.73.7383h.0043a.7343.7343,0,0,0,.7341-.73l.3092-53.3506,37.28,7.7245c9.6715,12.9752,41.6972,43.5311,55.0951,56.1386-2.12,2.7135-14.11,15.8826-47.1189,16.11-19.1113.1307-29.6907-5.304-35.219-9.8859-5.9641-4.9432-7.47-9.9838-7.4837-10.0328a.7351.7351,0,0,0-.3661-.45l-5.0079-2.62a.734.734,0,1,0-.68,1.3008l4.7422,2.4813c.4248,1.2256,2.2913,5.8023,7.7671,10.3749,5.65,4.7177,16.39,10.3029,35.5726,10.3024.2265,0,.4569-.0007.6858-.0024,19.5481-.1345,31.7154-4.7848,38.48-8.6623A33.1652,33.1652,0,0,0,661.987,89.68c2.68,2.5176,4.4274,4.1413,4.816,4.5021a.7341.7341,0,1,0,.9987-1.0761c-1.2666-1.1757-2.6043-2.4227-3.9973-3.7265l.0289.001.0137.0025.0278-.0005.0018,0c23.1551.7687,32.02-3.2966,35.3553-6.9058a7.1541,7.1541,0,0,0,1.7687-3.1c.6085.3913,1.0376.6648,1.2585.8051l2.6515,3.06c-8.11,13.9275-35.9883,10.7637-36.2712,10.73a.7372.7372,0,0,0-.6284.2325c-.2107.23-21.5,22.9145-58.05,17.3047-36.4271-5.5924-43.897-20.9328-43.9677-21.0852a.7339.7339,0,0,0-1.402.2994l-.17,29.3868-1.3123-1.4888c.0751-6.6446,1.0375-92.6929.5706-99.197C563.42,15.8186,565.6407,12.3327,567.563,10.031Zm-22.3618,99.696,16.4912,4.1527c-.0216,1.9835-.0378,3.45-.0469,4.2654l-23.3928,12.996-22.3752-5.7932Zm-41.8055,23.5536a3.0549,3.0549,0,0,1-.21-1.9783,3.2442,3.2442,0,0,1,1.1288-1.75l4.1771,1.0695v4.0253Zm6.5643,12.8v-20.45l27.6008-14.6927,1.3184.4936-25.3549,13.5067c-.0076.004-.0117.0114-.0191.0157a.7247.7247,0,0,0-.0851.0516.7371.7371,0,0,0-.1194.1167l-.0032.0044a.729.729,0,0,0-.1175.2212c-.0048.0139-.01.0264-.0144.04a.7268.7268,0,0,0-.03.1976v21.7232Zm4.6434-19.5465,23.0153,5.9589v23.4434l-23.0153-5.9589Zm24.4832,5.8227,22.94-12.7446.0245.0278-21.95,12.4384a.7338.7338,0,0,0-.3722.6387v22.1866a.7173.7173,0,0,0,.1149.373l-.7572.3959ZM558.23,151.1093l-6.56,4.0288.4248-20.3921,9.604-6.7689,3.2686.9893c.1148.2135.2581.4569.4359.7274l-.3633,1.2549-4.4694-.35a.7341.7341,0,0,0-.7751.579l-.422,1.9809a.7348.7348,0,0,0,.1261.5876.717.717,0,0,0,.0684.0606V136.51l-.3837.0327a.7335.7335,0,0,0-.6628.6208l-.2112,1.3867c-.0029.0185.004.0364.0027.0549s-.0113.036-.0113.0558v12.4224A.68.68,0,0,0,558.23,151.1093Zm2.2078-9.415c-.0149.0015-.0284.0072-.0429.01a.7309.7309,0,0,0-.5144-.2118.6931.6931,0,0,0-.11.0223V139.49l3.4787.4258.2223,1.4625Zm.5987-7.5564,2.4481.23-.2438,1.8288-2.2043.188Zm.8444,31.918V145.1392h2.8724v1.5777l-1.3534.127a.7331.7331,0,0,0-.4386,1.26v17.9525Zm4.5716-19.4985-.2312.0217v-.4015Zm-1.8182,25.15-.205-.1458V149.4829l.2183.2049a.6645.6645,0,0,0-.0133.066Zm1.468.6154V149.8933h2.7529v22.1712Zm4.2208-22.2345.9013.5637-.9013.423Zm0,21.3047v-18.359l1.0652.9994v21.4044Zm2.5332,4.9639V154.18l3.0191-.2362v22.4132Zm4.4871.18V154.1042l2.3234,1.09-1.3911.87a.7342.7342,0,0,0-.0331,1.2223l.32.2255v19.5314Zm2.6875,1.6055v-19.62a.7089.7089,0,0,0,.4276.0807l.6384-.0922v21.5444l-1.066-.3334Zm22.172-14.6127v19.6239l-4.8636-2.1795V161.046l4.6525,1.3436v.6364A.7262.7262,0,0,0,602.2029,163.5292Zm2.9551,1.1312v21.9011l-1.4871-.7976v-21.627Zm23.6387.2307v21.77l-4.8637.0248V164.5868Zm1.6842,1.3224-.2163,12.1883V165.96Zm5.07.7162v22.89l-.4989-.4022V166.93Zm30.2971-2.6641-.3388-.6358,3.8114-.4471v20.3718l-4.4417,1.6035V165.37l.3741-.0269a.734.734,0,0,0,.595-1.0773Zm13.2462-3.4487,2.0457-.48v20.6384l-3.5973-.6138V162.4687l1.3332-.3128a.7341.7341,0,0,0,.2184-1.339Zm8.8,20.1928-1.4872.7976V160.08l1.4872-.3988Zm-2.9551.1235a.7014.7014,0,0,0-.11-.0221h-2.2211V160.1943h2.331Zm-10.7733-17.8721,1.909-.4479v21.9446l-1.909.2241Zm-1.468,21.3907-1.909-.8958V163.01l.3067-.036,1.6023.2506Zm-9.2867,1.03-3.09,1.0743V165.685c.849-.0541,2.0592-.1379,3.09-.2106Zm-4.5578,1.0129-1.2778-.5708V164.9688a6.793,6.793,0,0,0,1.2778.6788Zm-12.5094,6.6518-9.3248-2.5526v-1.0957l5.9046-.7586,1.6144,2.425c.0107.016.0252.0276.037.0426a.7224.7224,0,0,0,.0619.0715.6988.6988,0,0,0,.072.0605c.0146.0111.0262.0251.0418.0352.0083.0053.0178.007.0262.012a.7324.7324,0,0,0,.1236.0565c.0192.007.0374.0162.057.0215a.7371.7371,0,0,0,.1891.0272l.0026,0h0a.7293.7293,0,0,0,.2664-.0573c.0112-.0044.0236-.0025.0347-.0074l5.2764-2.3772a.7339.7339,0,0,0,.4325-.6692v-.9376l4.9613-.9505a.7284.7284,0,0,0,.4208.5774l1.22.5452Zm-22.41-5.1618v-.03l5.158-.0263.6686,1.2549-5.8391-1.0954A.7128.7128,0,0,0,623.933,188.1843ZM656.1071,185.2l-4.9477.948V165.2639l4.9477-.58Zm-6.4157,2.9059-3.8085,1.7158V166.93h3.8085Zm-5.2765.4245-.6422-.9647V166.93h.6422Zm-2.11-.992-5.286.6791V166.7084a.7307.7307,0,0,0,.2107-.5127v-.4547h5.0753Zm-8.7208,1.2186-2.0433.48.396-22.307h1.6473Zm-11.1189-.9538-.4806.3383-.0039.0028-1.4188.9987.0914-23.0389a.7266.7266,0,0,0,.149-.0544l1.6629-.8917Zm-3.3732,1.8135-3.1791-.814V165.8112l3.2727.2362Zm-4.7227-25.035a.734.734,0,0,0-.0654.7381.7249.7249,0,0,0,.1409.1956v20.4695l-4.271-1.3882V163.6287l4.3594.722Zm-7.7431.1713,2.08-1.3011v22.2753l-2.08.9288Zm-10.7547,16.6794V182.89l-2.3315.7294V161.6285l2.3315-.3977ZM591.43,161.5731l.6423.12v21.8653l-.6423-.2414Zm-1.3346-1.5463a.7325.7325,0,0,0-.1333,1.1359v19.9628l-3.1754-2.0566V158.3376l3.4334,1.6113Zm-7.53-1.7289,2.7533-.3976v22.0949l-2.7533.2872Zm0,23.46,3.5632-.3715a.7243.7243,0,0,0,.6311-.5863l3.1149,2.0175a.7091.7091,0,0,0,.0875.04v.9682a.734.734,0,0,0,.476.6871l2.11.7926.0147.0027a.7272.7272,0,0,0,.2433.0443.7567.7567,0,0,0,.1246-.0191.727.727,0,0,0,.0933-.0144l.0014,0,3.7995-1.1886a.7339.7339,0,0,0,.5146-.7005v-.8479l4.8636,2.1794v1.4419a.7336.7336,0,0,0,.3871.6468l2.9551,1.5846a.7231.7231,0,0,0,.0913.0353c.0215.008.0415.0185.0636.0246a.737.737,0,0,0,.1843.0264l.0082.0011.0036-.0007a.73.73,0,0,0,.2612-.0561c.0111-.0043.0229-.0023.0339-.0072l3.5476-1.5846a.7337.7337,0,0,0,.4348-.67v-.0626l4.271,1.3882v1.8438a.734.734,0,0,0,.552.7111l4.6433,1.1886.0056.0007a.7343.7343,0,0,0,.17.0215l.0062.0008h0a.5328.5328,0,0,0,.3-.0737.7172.7172,0,0,0,.1218-.06l2.3223-1.6347L636.12,192.07l9.562,2.6176V228.089L582.565,214.9247Zm8.44,36.4266,55.26,11.5257a.7465.7465,0,0,0,.151.0158l.0083-.0014a.73.73,0,0,0,.2119-.0368.69.69,0,0,0,.0682-.0284.708.708,0,0,0,.08-.0333l6.1209-3.5631v97.9956a.7232.7232,0,0,0,.0505.25l-62.1639-18.7014Zm91.8128,87.1106-28.444,18.5831v-98.65c0-.0062-.0035-.0113-.0036-.0174l28.2494-16.445ZM689.92,202.8175l-42.77,24.8977V194.5868L659.7146,188.5a.7087.7087,0,0,0,.1131-.0191l4.5578-1.5846.004-.0023.0046-.0008,5.44-1.9639,3.2857,1.5417c.0116.0054.0237.0073.0353.0121.0142.0057.0283.01.0427.0146a.73.73,0,0,0,.2331.0431l.0024,0a.7422.7422,0,0,0,.0837-.0049l3.377-.3961a.7338.7338,0,0,0,.6484-.729v-3.56l4.208.718a.7292.7292,0,0,0,.1226.01h2.9558a.7014.7014,0,0,0,.11-.0221v.4768a.7339.7339,0,0,0,1.0809.6468l2.955-1.5848a.73.73,0,0,0,.3809-.68l.5643-.4414Zm1.4867-44.3765a.7334.7334,0,0,0-.1357.4251V178.35a.7278.7278,0,0,0-.5624.1434l-1.3467,1.0532V159.1787a.7289.7289,0,0,0-.1009-1.1109l-.5714-.4023,3.6646-1.4331h.6211Zm12.3382-7.6385h-4.3528a.7324.7324,0,0,0-.3392.0831l-3.7995,1.981a.734.734,0,0,0,.0955,1.3432l1.4733.5185-.0965.0361h-4.51a.736.736,0,0,0-.2672.05l-5.0653,1.9809a.7339.7339,0,0,0-.1552,1.2838l.4057.2858-1.3462.361h-4.1248a.7347.7347,0,0,0-.1678.0193l-5.0653,1.1887a.7341.7341,0,0,0-.2184,1.339l-2.5971.6092-2.3912-.3739a.74.74,0,0,0-.1988-.0038l-6.754.7923a.7341.7341,0,0,0-.5625,1.074l.3136.5882c-1.93.1374-4.2434.2967-4.6788.3125a11.3931,11.3931,0,0,1-1.74-1.0534.7366.7366,0,0,0-.508-.1288l-6.7541.7923a.7338.7338,0,0,0-.6484.729v.8508h-5.6406l-.625-.88a.7343.7343,0,0,0-.5983-.3089h-6.3321a.734.734,0,0,0-.7339.734v.4547h-3.9926l-1.4684-1.7232a.8024.8024,0,0,0-1.202-.2994l-5.38-.3366a.7313.7313,0,0,0-.52-.2162.7236.7236,0,0,0-.705.59l-2.1985,1.179-3.9743-.287.089-.1252a.734.734,0,0,0-.4784-1.1492l-7.176-1.1887a.7424.7424,0,0,0-.5094.1021l-2.1151,1.3232a.7213.7213,0,0,0-.2393-.0483.7027.7027,0,0,0-.1441.029l-2.1307-.75a.7316.7316,0,0,0-.1575-.2472v-.477a.7341.7341,0,0,0-.53-.7051l-5.4873-1.5848a.7289.7289,0,0,0-.3269-.0184l-4.5137.77-.2342-.0439a.7348.7348,0,0,0-.3044-1.0633l-5.91-2.7735a.7323.7323,0,0,0-.4172-.0618l-5.1987.7507-.5461-.3845,1.596-.9987a.7341.7341,0,0,0-.0774-1.2866l-4.2214-1.981a.7444.7444,0,0,0-.3694-.0674l-4.7422.3711-.6633-.6227,1.554-.7292a.7342.7342,0,0,0,.0774-1.2866l-2.5331-1.5848a.735.735,0,0,0-.3895-.1118h-4.7748l-.2895-.2719,2.6005-.2442a.7341.7341,0,0,0,.5581-1.1125l-1.6883-2.7732a.7337.7337,0,0,0-.6269-.3524h-4.1583l-.2643-.62,2.81-.2931a.7344.7344,0,0,0,.65-.84l-.4219-2.7735a.7345.7345,0,0,0-.6365-.6181l-4.1043-.5025.01-.0679,4.0675-.3469a.7346.7346,0,0,0,.6653-.6346l.4219-3.1694a.7343.7343,0,0,0-.659-.8276l-3.4-.319.116-.5454,4.4241.3462a.732.732,0,0,0,.7622-.5278l.2291-.7915c4.7466,5.4328,20.4821,15.9551,71.1827,15.9873h.24c46.465,0,63.7392-8.5579,70.0268-13.9957l-.0183.9588a.7345.7345,0,0,0,.7339.7481h3.9094v.2542l-3.2155.6705a.7342.7342,0,0,0-.5678.5655l-.4219,1.981a.7337.7337,0,0,0,.519.8594l3.2685.92-.5171.8088h-2.5526a.7328.7328,0,0,0-.584.29l-2.1107,2.773a.7339.7339,0,0,0,.4339,1.1631l2.5341.5285h-3.65a.7332.7332,0,0,0-.44.147l-4.2214,3.17a.7341.7341,0,0,0,.3722,1.3179l2.6006.244Zm6.5214-6.4638-.6566-.1369v-1.8359h.6566Zm-6.8047,4.6637,1.7394-1.3061v1.4692Zm4.4483.03a.7343.7343,0,0,0-.54,1.009l.5128,1.2032-1.2143.3257v-4.45h2.753v1.6283Zm3.8243.1818v-6.8484h.3212a.7336.7336,0,0,0,.6183-.3386l.1252-.1957v7.7158Z"/></g><path class="a" d="M716.91,215.8592a.7341.7341,0,0,1-.734-.734V198.0888a.734.734,0,0,1,1.468,0v17.0364A.7341.7341,0,0,1,716.91,215.8592Z"/><path class="a" d="M711.8444,266.1754a.7342.7342,0,0,1-.35-.0889l-14.935-8.11a.7342.7342,0,0,1-.3837-.6475l.16-50.7248a.7342.7342,0,0,1,.734-.7316h.0024a.7339.7339,0,0,1,.7316.7364l-.1591,50.2866,14.286,7.7571L736.2448,257.7V208.9723a.734.734,0,1,1,1.4679,0v49.2809a.7338.7338,0,0,1-.5323.7058l-25.1343,7.1882A.732.732,0,0,1,711.8444,266.1754Z"/><path class="a" d="M711.8444,266.1754a.7341.7341,0,0,1-.734-.734V213.42a.734.734,0,0,1,1.468,0v52.0219A.7341.7341,0,0,1,711.8444,266.1754Z"/><path class="a" d="M716.91,159.9962c4.0044,0,5.0734-1.2539,5.2472-1.5052a.7346.7346,0,0,0,.13-.4172V154.508l-.0017-.0131a.9848.9848,0,0,0-.0227-.172l-.0024-.0093a1.2684,1.2684,0,0,0-.3583-.6356c-.724-.7352-2.3568-1.0926-4.9921-1.0926-4.6788,0-5.3774,1.2046-5.3774,1.9226v3.17C711.5324,158.5387,712.6649,159.9962,716.91,159.9962Zm3.9092-2.2452c-.3574.248-1.4125.7772-3.9092.7772-2.7391,0-3.7359-.6577-3.9094-.93v-2.02a11.8057,11.8057,0,0,0,7.8186.0872Zm-.7367-3.3906a10.3431,10.3431,0,0,1-6.17-.0427,13.2425,13.2425,0,0,1,2.9979-.2644A12.3785,12.3785,0,0,1,720.0823,154.36Z"/><path class="a" d="M741.388,190.0423a.7217.7217,0,0,0-.04-.2.6975.6975,0,0,0-.0326-.0758.7267.7267,0,0,0-.1048-.1553c-.0153-.0176-.0276-.0365-.0445-.0526a.7256.7256,0,0,0-.206-.1413l-.0106-.0047h0l-8.498-3.7456.8538.0786c.0224.0022.0449.0032.0674.0032a.73.73,0,0,0,.2207-.0409.7406.7406,0,0,0,.2017.0409.7321.7321,0,0,0,.5023-.1988l1.6882-1.5849a.735.735,0,0,0,.2318-.5213l.4219-22.1867a.7341.7341,0,0,0-.72-.7476.6694.6694,0,0,0-.221.0351c-.0086-.0026-.0158-.0079-.0245-.01l-2.2818-.6119.162-.76,4.9377-.3564a.734.734,0,0,0,.681-.7321V156.489a.7341.7341,0,0,0-.7341-.734h-5.1345l-.4893-.6124,3.008-1.5686a.734.734,0,0,0-.0812-1.338l-2.1107-.7922a.7348.7348,0,0,0-.3813-.0364l-4.52.7713-3.9094-.6671v-1.7578a.7339.7339,0,0,0-.6366-.7275l-2.9545-.3964a.738.738,0,0,0-.6.1923l-1.185,1.1122a42.6912,42.6912,0,0,1-5.7477.2736l-3.2284-1.515a.7118.7118,0,0,0-.3864-.0533c-.0134-.0009-.0247-.0078-.0383-.0078h-1.8444a.6149.6149,0,0,0-.55.89l.8681,1.7357c-.9911.1889-2.1484.3941-2.625.4389l-1.3342-.626a.7338.7338,0,0,0-.9762.3527c-.01.022-.0192.0442-.0273.0664l-3.86-.4829a.7369.7369,0,0,0-.7192.3525l-2.7737,1.6641a.615.615,0,0,0,.0415,1.0771l1.0034.5017a.7205.7205,0,0,0-.42.006l-3.377,1.1886a.7339.7339,0,0,0-.4478.9381l.8445,2.3771a.7176.7176,0,0,0,.2124.2986v18.9315a.73.73,0,0,0-.591,1.075l.844,1.5848a.734.734,0,0,0,.7612.38l2.53-.3957v1.378l-5.8309,1.9546a.7335.7335,0,0,0-.4983.6374.7222.7222,0,0,0,.035.27.7029.7029,0,0,0-.0374.1851v18.2247a.7335.7335,0,0,0,.4094.6583l24.9051,12.2819a.7335.7335,0,0,0,.5672.0344l23.7537-8.3269a.7338.7338,0,0,0,.4913-.6927V190.0888C741.3975,190.0723,741.3892,190.0585,741.388,190.0423ZM726.93,183.7744V164.8078a.7365.7365,0,0,0-.0514-.2544c-.0063-.0167-.0115-.033-.0189-.0491-.006-.0133-.0087-.0276-.0156-.0406l-.4816-.9032,1.9778-.928v20.7621Zm-12.4462,2.36-1.9057.8943V166.0216l1.747-1.0248Zm-14.3572-1.6576-1.0565-.6614v-4.5112a.6886.6886,0,0,0-.02-.1013.73.73,0,0,0,.02-.1314V163.3349l.03.0283a.7325.7325,0,0,0,.6576.1821l.2448-.0531Zm1.47.2727-.1279-21.5751,2.8875-.6254v21.1646Zm4.2276-22.0509,2.3807.8936-.778,1.2172a.7236.7236,0,0,0,.2413,1.02v18.594l-1.844-.8651Zm3.312,3.3578,1.974.2058v20.8918l-1.974-.6817Zm6.6523-1.7025h3.764v20.3465l-3.6092.3075Zm5.232.4181.6428.4826V186.319l-.6428-.4824Zm2.1107,1.1352,2.331-.2735V186.06l-2.331.7292Zm6.6771,18.0415V162.6466l3.09.7251-.2506,20.8392Zm4.3138-.2483.2452-20.4037.7781-.73-.39,20.54Zm-36.8086-27.708c.0151-.0053.025-.0174.04-.0235l1.8179-.6061a.615.615,0,0,0,.0805-1.1332l-1.4577-.7285,1.7283-1.037,6.3212.7909a.7552.7552,0,0,0,.0918.0057.7272.7272,0,0,0,.6508-.4169c1.0392-.1544,2.5767-.4582,2.9628-.5354a.6147.6147,0,0,0,.4293-.8778l-.7847-1.5694h.434a.7278.7278,0,0,0,.2162.16l3.377,1.5848a.7335.7335,0,0,0,.312.07c6.2,0,6.6283-.4016,6.8343-.5949l1.0121-.95,1.9726.2645v1.7351a.7342.7342,0,0,0,.6107.7235l4.6433.7923a.74.74,0,0,0,.2466,0l4.448-.7589.3856.1448-2.3411,1.2207a.734.734,0,0,0-.2341,1.1091l1.2663,1.5848a.7346.7346,0,0,0,.5734.2757h4.7538v.168l-4.8068.347a.7335.7335,0,0,0-.6648.5791l-.4219,1.981a.7337.7337,0,0,0,.5276.8618l1.6811.4508-.44.4129-4.6826-1.0988a.74.74,0,0,0-.48.05L725.04,162.56a.7348.7348,0,0,0-.336,1.0094l.3389.6361-2.0176.2367-1.8761-1.4087a.7338.7338,0,0,0-.44-.1469h-5.4872a.7363.7363,0,0,0-.3714.1008l-3.1691,1.8591-2.3764-.2478.6255-.9788a.7342.7342,0,0,0-.36-1.0826l-4.2213-1.5848a.7375.7375,0,0,0-.2374-.0427c-.0072,0-.0133-.0042-.0207-.0042-.0154,0-.0282.0078-.0433.0088a.7092.7092,0,0,0-.112.0079l-5.1112,1.107-.1968-.1847,2.3978-1.1251a.7339.7339,0,0,0,.1907-1.2l-1.6882-1.5848a.7377.7377,0,0,0-.5554-.1968l-4.8286.3486a.6.6,0,0,0-.15-.13l-.3621-1.02Zm-1.952,23.858-.3252-.6109a.6036.6036,0,0,0,.2515-.483v-19.209l4.4691-.3226.6656.6245-2.3979,1.1252a.7256.7256,0,0,0-.1866.1313c-.0136.0128-.0254.0259-.0381.04a.73.73,0,0,0-.1391.2063l-.0022.0076a.5229.5229,0,0,0-.05.2492c0,.0106-.006.02-.006.03v17.1983l-.5295.7455Zm2.2407,4.0618v.31a.7343.7343,0,0,0,.3445.6221l2.5327,1.5846a.7158.7158,0,0,0,.1087.0483.5084.5084,0,0,0,.2633.0611l.0174.0027.004-.0008a.73.73,0,0,0,.2248-.041c.01-.0032.02-.0017.0292-.0053l4.1662-1.5638,2.3752,1.1142v.9511a.734.734,0,0,0,.4947.6939l3.442,1.1886.0171.0029a.6639.6639,0,0,0,.42.0066c.0181-.005.0349-.0114.0524-.0178.0206-.0075.0416-.0116.0617-.0211l3.377-1.5848a.7352.7352,0,0,0,.4219-.67l-.0009-.1134,3.5982-.3065v.0292a.7337.7337,0,0,0,.2934.5871l2.1107,1.5846.0056.0029a.7412.7412,0,0,0,.1629.0852c.015.006.0281.017.0434.0221a.7322.7322,0,0,0,.2287.0369l.0059-.0009a.7345.7345,0,0,0,.1909-.0293c.0075-.0021.015-.0011.0225-.0035l3.799-1.1884a.7339.7339,0,0,0,.5146-.7005v-1.305l1.4683-.3955c.0075.0181.0217.0318.0307.0491a.7267.7267,0,0,0,.4259.7382l9.7808,4.311-21.6632,7.2957-23.1045-12.129Zm19.3555,31.21-24.2192-11.9436v-16.95l23.83,12.51a.7339.7339,0,0,0,.5754.0457L739.93,191.11v15.96Z"/><text class="d" transform="translate(16.964 284.6221)">Sensor de<tspan x="-16.9639" y="29.7383">temperatura</tspan></text><text class="d" transform="translate(259.9075 284.6221)">Unidad de<tspan x="-26.5801" y="29.7383">procesamiento</tspan></text><line class="e" x1="163.1684" y1="188.7784" x2="228.045" y2="188.7784"/><circle class="c" cx="228.045" cy="188.7784" r="6.7782"/><line class="e" x1="388.9186" y1="190.8131" x2="499.3056" y2="190.7785"/><circle class="c" cx="499.3056" cy="190.7784" r="6.7782"/><path class="a" d="M217.3936,76.4894H180.5979a9.1989,9.1989,0,0,0-9.1989,9.1989v51.32a9.1989,9.1989,0,0,0,9.1989,9.1989h7.9269L199.48,157.1627l10.9552-10.9552h6.9585a9.1989,9.1989,0,0,0,9.1989-9.1989v-51.32A9.1989,9.1989,0,0,0,217.3936,76.4894Z"/><text class="f" transform="translate(189.3472 128.9453)">!</text><path class="a" d="M466.5329,78.4894H429.7372a9.1989,9.1989,0,0,0-9.1989,9.1989v51.32a9.1989,9.1989,0,0,0,9.1989,9.1989h7.9268l10.9552,10.9552,10.9552-10.9552h6.9585a9.1989,9.1989,0,0,0,9.1989-9.1989v-51.32A9.1989,9.1989,0,0,0,466.5329,78.4894Z"/><text class="f" transform="translate(434.3042 130.9453)">a</text><path class="a" d="M74.9784,216.1325a13.1617,13.1617,0,0,1-13.1494-12.82c0-5.2225,3.7065-9.2316,5.2811-10.6977V168.56a7.4745,7.4745,0,0,1,14.9335,0v24.2871a12.7405,12.7405,0,0,1-7.0652,23.2858Zm-.4016-52.8414a5.5845,5.5845,0,0,0-5.6,5.2685v24.4689a.9339.9339,0,0,1-.3163.7c-2.4,2.1152-4.9648,5.7438-4.9648,9.5838a11.27,11.27,0,0,0,11.2827,10.9532,10.7565,10.7565,0,0,0,10.79-10.9532,11.0052,11.0052,0,0,0-5.1653-9.1869.9331.9331,0,0,1-.4257-.7832V168.56A5.5845,5.5845,0,0,0,74.5768,163.2911Z"/><path class="a" d="M81.11,173.3407h-5.6a.9334.9334,0,1,1,0-1.8667h5.6a.9334.9334,0,0,1,0,1.8667Z"/><path class="a" d="M81.11,180.3408h-5.6a.9334.9334,0,1,1,0-1.8667h5.6a.9334.9334,0,0,1,0,1.8667Z"/><path class="a" d="M81.11,186.8743h-5.6a.9334.9334,0,1,1,0-1.8667h5.6a.9334.9334,0,0,1,0,1.8667Z"/><path class="a" d="M81.11,193.8744h-5.6a.9334.9334,0,1,1,0-1.8667h5.6a.9334.9334,0,0,1,0,1.8667Z"/><path class="a" d="M62.8413,203.8332c3.6819-10.8531,19.4868,11.34,23.1044-.7748,0,0-.0337,11.1737-9.47,12.0474S61.3711,208.1691,62.8413,203.8332Z"/><path class="a" d="M74.5591,228.479a39.7006,39.7006,0,1,1,39.7009-39.7A39.7451,39.7451,0,0,1,74.5591,228.479Zm0-77.5345a37.834,37.834,0,1,0,37.8342,37.8341A37.8767,37.8767,0,0,0,74.5591,150.9445Z"/><path class="a" d="M36.31,184.0742h-9.8a.9334.9334,0,0,1,0-1.8667h9.8a.9334.9334,0,1,1,0,1.8667Z"/><path class="a" d="M36.31,197.6077h-9.8a.9333.9333,0,1,1,0-1.8666h9.8a.9333.9333,0,1,1,0,1.8666Z"/><path class="a" d="M121.2442,184.0742h-7.9335a.9334.9334,0,0,1,0-1.8667h7.9335a.9334.9334,0,0,1,0,1.8667Z"/><path class="a" d="M121.2442,197.6077h-7.9335a.9333.9333,0,0,1,0-1.8666h7.9335a.9333.9333,0,0,1,0,1.8666Z"/><path class="a" d="M349.6466,229.7051H290.6909a3.95,3.95,0,0,1-3.9456-3.9456V151.7974a3.95,3.95,0,0,1,3.9456-3.9457h58.9557a3.95,3.95,0,0,1,3.9456,3.9457V225.76A3.95,3.95,0,0,1,349.6466,229.7051Zm-58.9557-79.5987a1.6928,1.6928,0,0,0-1.691,1.691V225.76a1.6928,1.6928,0,0,0,1.691,1.691h58.9557a1.6928,1.6928,0,0,0,1.691-1.691V151.7974a1.6928,1.6928,0,0,0-1.691-1.691Z"/><path class="a" d="M287.8726,163.6073h-10.15a1.1273,1.1273,0,1,1,0-2.2546h10.15a1.1273,1.1273,0,0,1,0,2.2546Z"/><path class="a" d="M287.8726,181.14h-10.15a1.1273,1.1273,0,0,1,0-2.2546h10.15a1.1273,1.1273,0,1,1,0,2.2546Z"/><path class="a" d="M287.8726,198.6717h-10.15a1.1273,1.1273,0,0,1,0-2.2546h10.15a1.1273,1.1273,0,0,1,0,2.2546Z"/><path class="a" d="M287.8726,216.2042h-10.15a1.1274,1.1274,0,0,1,0-2.2547h10.15a1.1274,1.1274,0,0,1,0,2.2547Z"/><path class="a" d="M362.6153,164.0686h-10.15a1.1273,1.1273,0,0,1,0-2.2546h10.15a1.1273,1.1273,0,0,1,0,2.2546Z"/><path class="a" d="M362.6153,181.6011h-10.15a1.1274,1.1274,0,0,1,0-2.2547h10.15a1.1274,1.1274,0,0,1,0,2.2547Z"/><path class="a" d="M362.6153,199.1333h-10.15a1.1274,1.1274,0,0,1,0-2.2547h10.15a1.1274,1.1274,0,0,1,0,2.2547Z"/><path class="a" d="M362.6153,216.6655h-10.15a1.1274,1.1274,0,0,1,0-2.2547h10.15a1.1274,1.1274,0,0,1,0,2.2547Z"/><path class="a" d="M316.0321,198.5872a18.0032,18.0032,0,0,1-2.8921-.2521,1.1266,1.1266,0,0,1-.8686-.6988l-2.1908-5.55-5.4776,1.6775a1.1288,1.1288,0,0,1-1.1146-.2681,18.0122,18.0122,0,0,1-3.5857-4.907,1.1264,1.1264,0,0,1,.0309-1.0654l2.7258-4.743-4.0965-2.8048a1.1276,1.1276,0,0,1-.486-1.03,17.86,17.86,0,0,1,1.8423-6.4656,1.1268,1.1268,0,0,1,.8373-.6086l4.5517-.6952L305,166.9527a1.129,1.129,0,0,1,.4624-.9944,17.8521,17.8521,0,0,1,6.5642-2.981,1.1252,1.1252,0,0,1,1.015.2714l2.9906,2.7636,2.99-2.7636a1.1254,1.1254,0,0,1,1.015-.2714,17.8517,17.8517,0,0,1,6.5641,2.981,1.1285,1.1285,0,0,1,.4624.9944l-.3082,4.2239,4.5517.6952a1.1266,1.1266,0,0,1,.8372.6086,17.86,17.86,0,0,1,1.8424,6.4656,1.1279,1.1279,0,0,1-.4861,1.03l-4.0965,2.8048,2.7259,4.743a1.1267,1.1267,0,0,1,.0308,1.0654,18.0119,18.0119,0,0,1-3.5856,4.907,1.1264,1.1264,0,0,1-1.1147.2681l-5.4776-1.6775-2.1908,5.55a1.1265,1.1265,0,0,1-.8686.6988A17.9962,17.9962,0,0,1,316.0321,198.5872Zm-1.9029-2.3859a13.7862,13.7862,0,0,0,3.8053,0l2.3339-5.9119a1.125,1.125,0,0,1,1.3789-.6638l5.8221,1.7829a15.7643,15.7643,0,0,0,2.3978-3.2975l-2.9372-5.11a1.1276,1.1276,0,0,1,.3407-1.492l4.3992-3.0121a15.6033,15.6033,0,0,0-1.2914-4.4859l-4.9931-.7626a1.1277,1.1277,0,0,1-.9545-1.1964l.3374-4.623a15.5691,15.5691,0,0,0-4.6617-2.1121l-3.3094,3.0586a1.1275,1.1275,0,0,1-1.53,0l-3.31-3.0589a15.5778,15.5778,0,0,0-4.6618,2.1124l.3374,4.623a1.1276,1.1276,0,0,1-.9544,1.1964l-4.9932.7626a15.6064,15.6064,0,0,0-1.2914,4.4859l4.3993,3.0121a1.1277,1.1277,0,0,1,.3407,1.492l-2.9372,5.11a15.7639,15.7639,0,0,0,2.3977,3.2975l5.8222-1.7829a1.1265,1.1265,0,0,1,1.3789.6638Z"/><path class="a" d="M316.0321,186.51a5.9583,5.9583,0,1,1,5.9581-5.9584A5.9653,5.9653,0,0,1,316.0321,186.51Zm0-9.6618a3.7036,3.7036,0,1,0,3.7034,3.7034A3.708,3.708,0,0,0,316.0321,176.8482Z"/><path class="a" d="M329.5853,220.8938a13.1852,13.1852,0,0,1-2.1115-.1833,1.1276,1.1276,0,0,1-.8686-.6991l-1.451-3.6751-3.6159,1.1072a1.128,1.128,0,0,1-1.1147-.2683,13.1543,13.1543,0,0,1-2.6185-3.5835,1.1267,1.1267,0,0,1,.0308-1.0654l1.7923-3.1191-2.6708-1.8289a1.1275,1.1275,0,0,1-.486-1.03,13.0462,13.0462,0,0,1,1.3458-4.7229,1.1274,1.1274,0,0,1,.8373-.6085l2.946-.45-.1976-2.71a1.1285,1.1285,0,0,1,.4623-.9941,13.0408,13.0408,0,0,1,4.7956-2.1773,1.128,1.128,0,0,1,1.0145.2713l1.91,1.7653,1.9107-1.7653a1.1255,1.1255,0,0,1,1.015-.2713,13.0419,13.0419,0,0,1,4.795,2.1773,1.129,1.129,0,0,1,.4624.9944l-.1982,2.71,2.9466.45a1.1281,1.1281,0,0,1,.8378.6088,13.0442,13.0442,0,0,1,1.3447,4.7229,1.1268,1.1268,0,0,1-.486,1.0293l-2.6708,1.8289,1.7928,3.1191a1.1264,1.1264,0,0,1,.0308,1.0654,13.16,13.16,0,0,1-2.619,3.5835,1.1269,1.1269,0,0,1-1.1147.2683l-3.6154-1.1072-1.451,3.6751a1.1274,1.1274,0,0,1-.8691.6991A13.1854,13.1854,0,0,1,329.5853,220.8938Zm-1.1245-2.3224a9.324,9.324,0,0,0,2.25,0l1.5919-4.0321a1.1252,1.1252,0,0,1,1.3789-.6638l3.9533,1.2107a10.8858,10.8858,0,0,0,1.435-1.9772l-2.0014-3.4816a1.1277,1.1277,0,0,1,.3407-1.492l2.9681-2.0323a10.7827,10.7827,0,0,0-.7943-2.7478l-3.3826-.5169a1.1277,1.1277,0,0,1-.9544-1.1964l.2267-3.1032a10.7712,10.7712,0,0,0-2.8959-1.3106l-2.226,2.0565a1.1278,1.1278,0,0,1-1.53,0l-2.2255-2.0568a10.7721,10.7721,0,0,0-2.8959,1.3109l.2262,3.1032a1.1276,1.1276,0,0,1-.9544,1.1964l-3.382.5169a10.7861,10.7861,0,0,0-.7949,2.7478l2.9681,2.0323a1.1277,1.1277,0,0,1,.3407,1.492l-2.0009,3.4816a10.9063,10.9063,0,0,0,1.4345,1.9772l3.9539-1.2107a1.1261,1.1261,0,0,1,1.3789.6638Z"/><path class="a" d="M329.5853,212.29a4.5688,4.5688,0,1,1,4.5688-4.5687A4.5738,4.5738,0,0,1,329.5853,212.29Zm0-6.8828a2.3141,2.3141,0,1,0,2.3141,2.3141A2.3168,2.3168,0,0,0,329.5853,205.4071Z"/><text class="g" transform="matrix(0.9999, 0.0142, -0.0142, 0.9999, 180.3751, 242.0081)">20</text><circle class="e" cx="221.9103" cy="217.6477" r="3.3339"/><path class="a" d="M243.926,447.54v-14.705a9.199,9.199,0,0,0-9.1989-9.1989H197.9314a9.199,9.199,0,0,0-9.1989,9.1989v51.32a9.199,9.199,0,0,0,9.1989,9.1989h36.7957a9.199,9.199,0,0,0,9.1989-9.1989v-14.705l10.9552-10.9552Z"/><text class="f" transform="translate(203.3823 477.0605)">b</text><line class="h" x1="460.2966" y1="181.4104" x2="440.9305" y2="200.7765"/><line class="h" x1="460.2966" y1="200.7765" x2="440.9305" y2="181.4104"/><line class="h" x1="460.2966" y1="181.4104" x2="440.9305" y2="200.7765"/><line class="h" x1="460.2966" y1="200.7765" x2="440.9305" y2="181.4104"/><path class="a" d="M345.662,524.4286H300.4756A10.3873,10.3873,0,0,1,290.1,514.0532V416.8158A10.3874,10.3874,0,0,1,300.4756,406.44H345.662a10.3874,10.3874,0,0,1,10.3753,10.3758v97.2374A10.3873,10.3873,0,0,1,345.662,524.4286ZM300.4756,410.1412a6.6817,6.6817,0,0,0-6.6741,6.6746v97.2374a6.6816,6.6816,0,0,0,6.6741,6.6742H345.662a6.6816,6.6816,0,0,0,6.6741-6.6742V416.8158a6.6817,6.6817,0,0,0-6.6741-6.6746Z"/><path class="a" d="M341.2324,502.6717H304.9052a6.4848,6.4848,0,0,1-6.4772-6.4771v-74.95a6.4848,6.4848,0,0,1,6.4772-6.4772h36.3272a6.4848,6.4848,0,0,1,6.4772,6.4772v74.95A6.4848,6.4848,0,0,1,341.2324,502.6717ZM304.9052,418.469a2.7788,2.7788,0,0,0-2.7759,2.7759v74.95a2.7789,2.7789,0,0,0,2.7759,2.7759h36.3272a2.7789,2.7789,0,0,0,2.7759-2.7759v-74.95a2.7788,2.7788,0,0,0-2.7759-2.7759Z"/><path class="a" d="M322.7263,517.4766a5.5519,5.5519,0,1,1,5.5519-5.5518A5.5579,5.5579,0,0,1,322.7263,517.4766Zm0-7.4024a1.8506,1.8506,0,1,0,1.8506,1.8506A1.8527,1.8527,0,0,0,322.7263,510.0742Z"/><circle class="a" cx="322.7264" cy="478.614" r="3.7012"/><polygon class="a" points="325.687 467.51 319.765 467.51 318.1 433.274 327.353 433.274 325.687 467.51"/><path class="a" d="M303.49,354.0061a2.0786,2.0786,0,0,1,3.5482-1.47,22.0173,22.0173,0,0,0,31.1022,0,2.0783,2.0783,0,0,1,2.9392,2.9392,26.1783,26.1783,0,0,1-36.9806,0A2.0718,2.0718,0,0,1,303.49,354.0061Z"/><path class="a" d="M296.5832,360.9126a2.0786,2.0786,0,0,1,3.5482-1.47,31.76,31.76,0,0,0,44.9163,0,2.0783,2.0783,0,0,1,2.9392,2.9392,35.9154,35.9154,0,0,1-50.7947,0A2.0718,2.0718,0,0,1,296.5832,360.9126Z"/><path class="a" d="M289.1829,368.3134a2.0786,2.0786,0,0,1,3.5482-1.47,42.2759,42.2759,0,0,0,59.7169,0,2.0783,2.0783,0,0,1,2.9392,2.9392,46.437,46.437,0,0,1-65.5953,0A2.0718,2.0718,0,0,1,289.1829,368.3134Z"/><circle class="a" cx="322.5093" cy="343" r="5"/></svg>