<svg xmlns="http://www.w3.org/2000/svg" viewBox="0 0 409.6827 530.2589"><defs><style>.a,.d{fill:#d91519;}.b{opacity:0.5;}.c{fill:#606060;}.d{stroke:#fff;stroke-miterlimit:10;stroke-width:0.7934px;}</style></defs><title>motor</title><path class="a" d="M381.0485,296.332a1.1942,1.1942,0,0,1-.3568-2.3338l3.2832-1.0267V257.1167a1.1939,1.1939,0,0,1,2.3878,0V293.849a1.1939,1.1939,0,0,1-.8372,1.1395l-4.12,1.2887A1.2055,1.2055,0,0,1,381.0485,296.332Z"/><path class="a" d="M379.9028,255.7328a1.194,1.194,0,0,1-1.1939-1.1939v-5.9725a1.1939,1.1939,0,0,1,2.3878,0v5.9725A1.194,1.194,0,0,1,379.9028,255.7328Z"/><g class="b"><path class="c" d="M236.6943,93.4769c33.6338,40.115,35.9935,40.248,37.1274,40.3117.5426.0307,1.2337.1049,2.03.19a56.6736,56.6736,0,0,0,6.05.4081,19.53,19.53,0,0,0,7.0327-1.1123,7.6478,7.6478,0,0,0,4.7266-6.6055,8.0789,8.0789,0,0,0-3.7737-7.7106,438.8309,438.8309,0,0,1-84.1295-66.7658,1.1939,1.1939,0,0,0-1.7838,1.5837C204.1354,53.9744,220.2271,73.837,236.6943,93.4769Zm51.9608,27.526a5.7087,5.7087,0,0,1,2.6272,5.4638,5.209,5.209,0,0,1-3.2179,4.5835c-3.668,1.4361-8.658.9056-11.96.5535-.7976-.0848-1.4909-.1586-2.063-.194-3.6834-1.46-31.7979-34.7017-55.0068-62.9521A445.46,445.46,0,0,0,288.6551,121.0029Z"/><path class="c" d="M345.3151,226.5023a1.1943,1.1943,0,0,0-.676-.5007l-.1936-.0545v-4.0482l.1143-.0238a1.1935,1.1935,0,0,0,.95-1.1686v-2.5778a1.194,1.194,0,0,0-1.1938-1.1939h-2.6443v-4.3607a1.1837,1.1837,0,0,0,.16-1.6137l-.7858-1.03c.11-.2439.17-.41.1937-.481a1.1854,1.1854,0,0,0,.06-.368l.3716-64.1422a1.1953,1.1953,0,0,0-.2915-.7889l-13.3689-15.4264a1.1965,1.1965,0,0,0-.2636-.2266c-1.0027-.6354-100.442-63.9353-115.0755-95.8428a1.2016,1.2016,0,0,0-.1631-.2612c-.59-.7162-14.6143-17.5806-29.1016-21.3211C169.3217,7.4354,145.9113.1279,145.6767.0544a1.1914,1.1914,0,0,0-.6809-.0092L110.4519,9.8068l-.01.005a1.1933,1.1933,0,0,0-.4233.2236l-.0071.0038c-.5029.4194-12.2939,10.3994-11.4809,21.7245.645,8.992-.4519,116.4859-.8235,151.013L70.994,176.05a1.19,1.19,0,0,0-.8527.1041l-6.7565,3.5992-4.6219-1.7307a1.1944,1.1944,0,0,0-.98.0642L11.78,202.5753a1.1941,1.1941,0,0,0-.6327,1.0539V210L4.398,208.2722a1.1933,1.1933,0,0,0-.956.1617,7.7938,7.7938,0,0,0-3.2482,4.5854,7.4378,7.4378,0,0,0,.8176,5.39,1.1937,1.1937,0,0,0,.7215.5507l9.4145,2.5248v16.9437a1.1938,1.1938,0,0,0,.7632,1.1135L18.7,242.1677v2.7047a1.1941,1.1941,0,0,0,.8946,1.1558L59.4182,256.339a1.1925,1.1925,0,0,0,.3.0385l.0111-.0018a1.1942,1.1942,0,0,0,.3312-.0553c.0344-.01.0662-.024.0994-.0374a1.163,1.163,0,0,0,.111-.0419l4.9285-2.577a1.1406,1.1406,0,0,0,.197-.16l14.5679,2.18a1.1972,1.1972,0,0,0,.1743.013l.0022,0h.0016l.005-.0009a1.1955,1.1955,0,0,0,.37-.0672,1.1564,1.1564,0,0,0,.1113-.0486,1.1755,1.1755,0,0,0,.1368-.06l11.4009-7.002v13.753a1.1925,1.1925,0,0,0,.377.87l.9964.9353v4.6385a1.1921,1.1921,0,0,0,.2611.7453l2.06,2.5779a1.1763,1.1763,0,0,0,1.3055.385,1.1527,1.1527,0,0,0,.3144.0635h2.2642v7.1838a1.1941,1.1941,0,0,0,.5019.9731l2.7212,1.9331a1.18,1.18,0,0,0,.1658.0826,1.1582,1.1582,0,0,0,.1262.0628,1.1893,1.1893,0,0,0,.3916.0741l.0067.0012h.0025c.0365,0,.0737-.0015.1109-.0049l6.378-.5986,1.2821,4.8693a1.1915,1.1915,0,0,0,.5207.708l2.06,1.2887a292.44,292.44,0,0,0,.2225.0989,1.19,1.19,0,0,0,.411.083h7.2985l.0108-.0021,3.1667,1.3185v2.6454a1.1944,1.1944,0,0,0,.8379,1.1394l3.2839,1.0268v55.1876a1.1935,1.1935,0,0,0,.95,1.1687l12.78,2.6656-.3493,143.58a1.1939,1.1939,0,0,0,.85,1.1461l103.342,31.0894a1.1957,1.1957,0,0,0,.9972-.1438l48.7336-31.8387a1.1945,1.1945,0,0,0,.5411-1.0019l-.3266-159.0422,11.2837-6.5686a1.1946,1.1946,0,0,0,.593-1.0319V292.4974l.3653-.2857a1.1663,1.1663,0,0,0,.3382-.4515,1.1518,1.1518,0,0,0,.3.06h4.8058a1.1941,1.1941,0,0,0,1.194-1.2191l-.6864-32.2215a1.1942,1.1942,0,0,0-2.3878.05l.6607,31.0024h-2.3924V258.7862l2.5254-3.556a1.1721,1.1721,0,0,0,.1218-1.1087h4.0544a1.1941,1.1941,0,0,0,.42-.0762l3.4331-1.2887a1.194,1.194,0,0,0-.0232-2.244l-2.8984-1.02,3.4813-1.8153h7.26a1.194,1.194,0,0,0,.8169-.3234l1.0789-1.0126v1.7533a1.1941,1.1941,0,0,0,1.1938,1.194,1.1814,1.1814,0,0,0,.3093-.0409l4.8059-1.2887a1.1936,1.1936,0,0,0,.789-1.6209l-.7906-1.8554,1.9728-.37c.03-.0056.0534-.0233.0822-.031a1.1811,1.1811,0,0,0,.7137.642l4.1194,1.2887a1.194,1.194,0,0,0,1.5508-1.1395V227.473A1.1728,1.1728,0,0,0,345.3151,226.5023Zm-3.2573-1.2275-3.2078-.9031.2916-1.3665,2.9162-.6082Zm-4.0775-8.34.0482-2.516,1.2553-.6173v3.1333Zm.9335-8.0959c-.4734,1.0578-3.8638,7.5219-18.2976,13.9344-14.54,6.46-43.4972,14.15-98.9285,14.15h-.3809c-55.684-.0353-84.4817-8.0648-98.8347-14.7944-14.3039-6.707-17.4121-13.4506-17.8093-14.4622l.0513-8.9a1.1811,1.1811,0,0,0-.2232-.6708l.2691-46.433c5.61,7.5274,23.3031,24.7388,71.07,32.0715,31.7031,4.8672,56.2475-3.2284,71.2534-10.8778,14.478-7.38,22.9231-15.5709,24.8677-17.57,5.7046.5994,46.6123,4.0531,60.3164-18.0057l7.0141,8.0937Zm-241.0872-3.13a1.1944,1.1944,0,0,0-1.0337.1667L80.2022,217.5687a1.1957,1.1957,0,0,0-.506.951l-.7209,34.6023-14.6316-2.19V216.5687l35.5342-20.1361L102.15,199.01a1.1547,1.1547,0,0,0,.1726.405l-.0446,7.641ZM210.57,33.7971c13.5186,29.0695,91.8665,81.16,111.5423,93.9166a8.4867,8.4867,0,0,1-2.4681,4.8188c-4.15,4.4915-16.8048,11.674-55.0656,10.4893-2.0337-3.4-11.3418-13.2389-36.8086-39.6021-13.2905-13.7576-27.0324-27.9831-37.2644-39.0941-21.823-23.6975-23.4477-39.11-23.5194-42.4983l19.2084-7.311C198.1518,19.3466,209.4173,32.4323,210.57,33.7971Zm50.5484,109.0957c-30.84-28.9546-76.4748-73.32-90.0041-91.6289a1.1722,1.1722,0,0,0-.1653-.2278c-2.0213-2.758-3.2986-4.9118-3.6509-6.3026-2.9126-11.4949-2.82-19.0226-2.655-21.655.4048,5.4158,3.54,20.5321,24.1059,42.8646C199,77.0751,212.7521,91.3111,226.052,105.0787c15.48,16.0252,31.415,32.5212,35.5983,37.8341C261.471,142.9055,261.2985,142.9,261.1181,142.8928ZM108.6164,37.8649c-.6311-2.9945-2.624-14.9916,2.9876-25.9025L119.36,9.7706l42.9075,12.9463c-.1962,2.677-.3611,10.4592,2.7153,22.6035a17.5375,17.5375,0,0,0,2.44,4.73Zm36.688-35.4258c2.93.912,24.07,7.464,37.2969,10.89l-19.0941,7.2674L123.6289,8.5643ZM107.23,16.3161a44.6838,44.6838,0,0,0-.8012,22.71l-.5107,88.0815a1.1939,1.1939,0,0,0,1.1869,1.2008h.007a1.1943,1.1943,0,0,0,1.194-1.1868l.5029-86.7779,60.6376,12.5644c15.7313,21.1049,67.8231,70.8059,89.6156,91.3128-3.4478,4.4136-22.95,25.834-76.6418,26.2036-31.0858.2126-48.2938-8.6272-57.286-16.08-9.7009-8.04-12.15-16.2394-12.1726-16.3191a1.1956,1.1956,0,0,0-.5954-.7317l-8.1458-4.2622a1.1939,1.1939,0,0,0-1.1067,2.1158l7.7135,4.0359c.6911,1.9937,3.727,9.4379,12.6337,16.8756,9.19,7.6735,26.6586,16.7581,57.8611,16.7574.3684,0,.743-.0012,1.1153-.0039,31.7963-.2188,51.5871-7.7828,62.5907-14.09,9.2805-5.3192,14.0163-10.5817,15.7884-12.852,4.36,4.095,7.2014,6.7361,7.8335,7.3229a1.194,1.194,0,1,0,1.6245-1.75c-2.06-1.9124-4.2361-3.9406-6.502-6.0614l.0471.0017c.0077,0,.0144.004.0222.004l.0452-.0008.0029-.0007c37.6633,1.25,52.0833-5.362,57.5076-11.2327a11.6358,11.6358,0,0,0,2.877-5.0422c.99.6364,1.6877,1.0813,2.047,1.3094l4.3128,4.9767c-13.1916,22.6539-58.5372,17.5078-58.9973,17.4524a1.1982,1.1982,0,0,0-1.0221.3782c-.3428.3734-34.9714,37.2717-94.4227,28.147-59.251-9.0963-71.4011-34.0484-71.5161-34.2964a1.1938,1.1938,0,0,0-2.2805.487l-.2767,47.7995-2.1345-2.4217c.1221-10.8078,1.6875-150.77.9281-161.35C100.4912,25.73,104.1032,20.06,107.23,16.3161ZM70.8571,178.4777l26.8239,6.7545c-.0351,3.2263-.0614,5.6123-.0763,6.938l-38.05,21.1388L23.16,203.886ZM2.8579,216.7891a4.9686,4.9686,0,0,1-.3409-3.2179,5.2764,5.2764,0,0,1,1.836-2.8459l6.7944,1.7395v6.5475ZM13.5351,237.61V204.3463L58.43,180.4477l2.1444.803L19.3327,203.22c-.0123.0066-.019.0187-.0311.0257a1.1628,1.1628,0,0,0-.1383.0839,1.2,1.2,0,0,0-.1944.19l-.0051.0073a1.1822,1.1822,0,0,0-.1911.36c-.0079.0225-.0171.0429-.0235.0657a1.1836,1.1836,0,0,0-.0491.3215v35.3341Zm7.5527-31.7937,37.4358,9.6925v38.1323l-37.4358-9.6926Zm39.8235,9.471,37.3131-20.73.04.0453L62.5615,214.8343a1.1932,1.1932,0,0,0-.6055,1.0388v36.088a1.1671,1.1671,0,0,0,.1869.6066l-1.2316.644Zm31.138,30.5015L81.38,252.3416l.691-33.1691,15.6214-11.01,5.3167,1.6091c.1866.3473.42.7433.7089,1.1833l-.5909,2.041-7.27-.5685a1.194,1.194,0,0,0-1.2607.9416l-.6863,3.2221a1.1939,1.1939,0,0,0,.2051.9557,1.136,1.136,0,0,0,.1112.0987v4.3955l-.6242.0532a1.1931,1.1931,0,0,0-1.0781,1.01l-.3435,2.2557c-.0046.03.0066.0592.0044.0893s-.0183.0585-.0183.0907v20.2058A1.1085,1.1085,0,0,0,92.0493,245.7885Zm3.591-15.3141c-.0241.0025-.0461.0117-.07.0157a1.1884,1.1884,0,0,0-.8365-.3445,1.1293,1.1293,0,0,0-.18.0362v-3.2934l5.6584.6926.3616,2.3788Zm.9739-12.2909,3.9819.3735-.3964,2.9746-3.5855.3058ZM97.9876,270.1V236.0777H102.66v2.5663l-2.2013.2066a1.1923,1.1923,0,0,0-.7133,2.0486V270.1Zm7.4361-31.7155-.3761.0353v-.6532Zm-2.9574,40.9078-.3335-.2371V243.143l.3551.3333a1.0857,1.0857,0,0,0-.0216.1074Zm2.3877,1.001V243.8107h4.4777v36.0627Zm6.8654-36.1658,1.4661.917-1.4661.6879Zm0,34.6534V248.9189l1.7327,1.6257V285.36Zm4.12,8.0742V250.7828l4.9108-.3841v36.4565Zm7.2986.292V250.66l3.779,1.7732-2.2627,1.4159a1.1944,1.1944,0,0,0-.0537,1.9882l.5209.3667v31.7691Zm4.3713,2.6115V257.8448a1.1534,1.1534,0,0,0,.6956.1312l1.0384-.15v35.0433l-1.734-.5422ZM163.5739,265.99V297.91l-7.911-3.5451V261.9512l7.5675,2.1853v1.0353A1.181,1.181,0,0,0,163.5739,265.99Zm4.8067,1.84v35.6235l-2.419-1.2972V266.9788Zm38.45.3753v35.4109l-7.9112.04V267.7105Zm2.7395,2.151-.3518,19.8251V269.9436Zm8.2463,1.1649v37.2321l-.8115-.654V271.5213Zm49.28-4.3333-.551-1.0341,6.2-.7273v33.1361l-7.2248,2.6081V268.9841l.6086-.0437a1.194,1.194,0,0,0,.9677-1.7524Zm21.5458-5.6094,3.3275-.7808v33.57l-5.8513-.9984V264.2653l2.1686-.5089a1.1939,1.1939,0,0,0,.3552-2.1778Zm14.3134,32.8447-2.419,1.2973V260.38l2.419-.6486Zm-4.8067.201a1.1181,1.1181,0,0,0-.1787-.0361h-3.6128V260.5658h3.7915Zm-17.5234-29.07,3.1052-.7286V300.52l-3.1052.3646Zm-2.3877,34.7933-3.1052-1.4572V265.1464l.499-.0585,2.6062.4076Zm-15.1055,1.6747-5.0256,1.7474V269.4968c1.3809-.088,3.3494-.2243,5.0256-.3426Zm-7.4134,1.6474-2.0785-.9283v-34.41a11.0334,11.0334,0,0,0,2.0785,1.1041Zm-20.3473,10.82-15.1675-4.152v-1.7822l9.6043-1.234,2.6259,3.9444c.0174.0261.041.045.06.0693a.9708.9708,0,0,0,.2179.2148c.0238.018.0426.0409.068.0572.0134.0086.0289.0114.0426.0195a1.1822,1.1822,0,0,0,.201.0919c.0313.0114.0608.0264.0928.035a1.1929,1.1929,0,0,0,.3075.0442l.0043.0006h.0007a1.1874,1.1874,0,0,0,.4334-.0933c.0183-.0071.0384-.004.0564-.0121l8.5825-3.8665a1.1937,1.1937,0,0,0,.7033-1.0885v-1.5252l8.07-1.546a1.1845,1.1845,0,0,0,.6845.9391l1.9851.8869Zm-36.4522-8.3961v-.0488l8.39-.0428,1.0874,2.0412-9.4975-1.7817A1.177,1.177,0,0,0,198.9191,306.0932Zm52.3333-4.8537-8.0479,1.5419v-33.97l8.0479-.9441Zm-10.4356,4.7266-6.1948,2.7908V271.5213h6.1948Zm-8.5825.69-1.0447-1.569V271.5213h1.0447Zm-3.4323-1.6136-8.5982,1.1047V271.1614a1.1881,1.1881,0,0,0,.3428-.8339v-.74h8.2554Zm-14.1851,1.9822-3.3235.78.6441-36.2838h2.6794Zm-18.0855-1.5513-.7817.55-.0063.0044-2.3079,1.6246.1487-37.4742a1.1829,1.1829,0,0,0,.2424-.0885l2.7048-1.45Zm-5.4866,2.95-5.1712-1.3241V269.702l5.3233.3842Zm-7.6818-40.7209a1.1936,1.1936,0,0,0-.1065,1.2,1.1782,1.1782,0,0,0,.2293.3181v33.295l-6.9472-2.258V266.152l7.091,1.1744Zm-12.5947.2785,3.3825-2.1162v36.232l-3.3825,1.5109Zm-17.4932,27.13v2.3711l-3.7922,1.1864v-35.77l3.7922-.6469Zm-7.2246-32.3027,1.0447.196V298.57l-1.0447-.3925Zm-2.1709-2.5152a1.1915,1.1915,0,0,0-.2168,1.8478v32.4707l-5.165-3.3453V257.5458l5.5847,2.6208Zm-12.2481-2.8121,4.4786-.6467v35.9388l-4.4786.467Zm0,38.1594,5.7959-.6043a1.1786,1.1786,0,0,0,1.0265-.9537l5.0666,3.2815a1.1314,1.1314,0,0,0,.1423.0653v1.5748a1.1942,1.1942,0,0,0,.7742,1.1177l3.4323,1.2891c.0078.0029.0161.0017.024.0044a1.1836,1.1836,0,0,0,.3957.0721,1.2213,1.2213,0,0,0,.2027-.0311,1.1686,1.1686,0,0,0,.1518-.0234l.0022,0,6.18-1.9334a1.1938,1.1938,0,0,0,.837-1.1394v-1.3791l7.911,3.545v2.3453a1.1932,1.1932,0,0,0,.63,1.052l4.8065,2.5774a1.15,1.15,0,0,0,.1485.0574c.035.0131.0675.03.1036.04a1.1945,1.1945,0,0,0,.3.043l.0133.0019.0059-.0013a1.19,1.19,0,0,0,.4249-.0911c.0181-.0071.0373-.0038.0551-.0118l5.77-2.5774a1.1933,1.1933,0,0,0,.7072-1.09v-.1018l6.9472,2.258v2.999a1.1938,1.1938,0,0,0,.8978,1.1566l7.5526,1.9334.0091.0011a1.1911,1.1911,0,0,0,.2771.0349l.01.0013h.0007a1.1879,1.1879,0,0,0,.3689-.061,1.2321,1.2321,0,0,0,.1193-.0588,1.165,1.165,0,0,0,.1982-.0978l3.7774-2.6589,22.0449,4.1357,15.5531,4.2576v54.33L131.6315,349.5881Zm13.7287,59.25,89.8844,18.7474a1.2106,1.2106,0,0,0,.2456.0256l.0134-.0023a1.19,1.19,0,0,0,.3447-.06,1.1335,1.1335,0,0,0,.111-.0462,1.1626,1.1626,0,0,0,.13-.0542l9.9559-5.7956V527.1013a1.1765,1.1765,0,0,0,.0821.4064l-101.1132-30.419Zm149.339,141.6907-46.2659,30.2266V366.3471c0-.01-.0056-.0184-.0059-.0284L294.3769,339.57ZM306.2508,329.895l-69.5682,40.4978V316.5074l20.4375-9.9a1.1721,1.1721,0,0,0,.1841-.0311l7.4135-2.5774.0064-.0037.0075-.0014,8.8486-3.1944,5.3443,2.5077c.0188.0088.0386.0119.0574.02.0232.0094.0461.0159.07.0238a1.1838,1.1838,0,0,0,.3791.07l.0039-.0006a1.182,1.182,0,0,0,.136-.008l5.4929-.6443a1.1935,1.1935,0,0,0,1.0547-1.1857v-5.7911l6.8446,1.1679a1.1845,1.1845,0,0,0,.2.0169l.0011,0H297.97a1.1293,1.1293,0,0,0,.1787-.0361v.7756a1.1937,1.1937,0,0,0,1.7582,1.052l4.8065-2.5778a1.1868,1.1868,0,0,0,.62-1.1066l.918-.718Zm2.4181-72.181a1.1923,1.1923,0,0,0-.2207.6913v31.6922a1.1845,1.1845,0,0,0-.9148.2332l-2.19,1.7131v-33.13a1.1855,1.1855,0,0,0-.1641-1.8069l-.9294-.6544,5.9607-2.331h1.01Zm20.069-12.4246h-7.08a1.1917,1.1917,0,0,0-.5518.1353l-6.18,3.2221a1.194,1.194,0,0,0,.1553,2.1849l2.3964.8433-.157.0587h-7.3358a1.1979,1.1979,0,0,0-.4346.082l-8.239,3.2221a1.1937,1.1937,0,0,0-.2524,2.0882l.66.4648-2.19.5872H292.82a1.195,1.195,0,0,0-.273.0315l-8.239,1.9334a1.194,1.194,0,0,0-.3552,2.1779l-4.2244.991-3.8894-.6082a1.2033,1.2033,0,0,0-.3233-.0062L264.53,263.9861a1.1939,1.1939,0,0,0-.9149,1.7469l.51.9568c-3.1387.2235-6.9021.4827-7.61.5084a18.5324,18.5324,0,0,1-2.8308-1.7135,1.1985,1.1985,0,0,0-.8263-.2095l-10.9859,1.2887a1.1937,1.1937,0,0,0-1.0547,1.1857v1.3839H231.642l-1.0166-1.4309a1.1943,1.1943,0,0,0-.9731-.5025h-10.3a1.1939,1.1939,0,0,0-1.1938,1.1939v.74h-6.4942l-2.3884-2.8027a1.305,1.305,0,0,0-1.9551-.4872l-8.75-.5474a1.19,1.19,0,0,0-.8456-.3517,1.1771,1.1771,0,0,0-1.1467.96l-3.576,1.9177-6.4644-.4667.1446-.2037a1.1939,1.1939,0,0,0-.7781-1.8693L174.2326,263.35a1.2088,1.2088,0,0,0-.8286.166l-3.44,2.1523a1.1726,1.1726,0,0,0-.3892-.0786,1.1437,1.1437,0,0,0-.2344.0473l-3.4658-1.22a1.1883,1.1883,0,0,0-.2561-.4021v-.7758a1.194,1.194,0,0,0-.8628-1.1469l-8.9253-2.5778a1.1838,1.1838,0,0,0-.5317-.03l-7.3419,1.2526-.3809-.0715a1.1949,1.1949,0,0,0-.4951-1.7294l-9.6124-4.5113a1.1915,1.1915,0,0,0-.6786-.1006l-8.456,1.221-.8883-.6253,2.5961-1.6245a1.1941,1.1941,0,0,0-.126-2.0927l-6.8663-3.2222a1.21,1.21,0,0,0-.6008-.11l-7.7135.6035-1.0789-1.0127,2.5276-1.1861a1.1942,1.1942,0,0,0,.126-2.0928l-4.12-2.5778a1.1951,1.1951,0,0,0-.6334-.1819H103.789l-.4709-.4422,4.23-.3972a1.194,1.194,0,0,0,.9079-1.8095l-2.7461-4.5109a1.1941,1.1941,0,0,0-1.02-.5732H97.9262l-.43-1.0085,4.57-.4768a1.1944,1.1944,0,0,0,1.0571-1.3668l-.6862-4.5113a1.1948,1.1948,0,0,0-1.0354-1.0054l-6.6758-.8173.0162-.11,6.6161-.5642a1.1949,1.1949,0,0,0,1.082-1.0323l.6863-5.1552a1.1945,1.1945,0,0,0-1.0719-1.3462l-5.53-.5188.1887-.8872,7.196.5631a1.1908,1.1908,0,0,0,1.24-.8585l.3726-1.2874c7.7206,8.8368,33.3154,25.952,115.7831,26.0044h.3911c75.5782,0,103.6758-13.92,113.9029-22.765l-.03,1.56a1.1949,1.1949,0,0,0,1.1938,1.2168h6.3588v.4135l-5.23,1.0905a1.1944,1.1944,0,0,0-.9235.92l-.6863,3.2221a1.1934,1.1934,0,0,0,.8443,1.3979l5.3164,1.497-.8411,1.3156h-4.1521a1.1921,1.1921,0,0,0-.95.471l-3.4332,4.51a1.1939,1.1939,0,0,0,.7058,1.8919l4.1218.86h-5.9375a1.1933,1.1933,0,0,0-.7166.2391l-6.8664,5.1555a1.1941,1.1941,0,0,0,.6055,2.1438l4.23.3968Zm10.6073-10.5137-1.0679-.2227v-2.9862h1.0679Zm-11.0683,7.5858,2.8293-2.1244v2.39Zm7.2355.049a1.1942,1.1942,0,0,0-.8774,1.6411l.8339,1.9572-1.9751.53V239.3h4.478v2.6486Zm6.22.2957V231.5668h.5224a1.1936,1.1936,0,0,0,1.0058-.5507l.2036-.3184v12.55Z"/></g><path class="a" d="M350.1515,351.1081a1.194,1.194,0,0,1-1.1939-1.1939V322.2036a1.1939,1.1939,0,0,1,2.3878,0v27.7106A1.194,1.194,0,0,1,350.1515,351.1081Z"/><path class="a" d="M341.9125,432.9505a1.1961,1.1961,0,0,1-.57-.1446l-24.2926-13.19a1.1944,1.1944,0,0,1-.6241-1.0532l.2612-82.507a1.1941,1.1941,0,0,1,1.1938-1.19h.0039a1.1938,1.1938,0,0,1,1.19,1.1978l-.2588,81.7942,23.2371,12.6173,39.5479-11.31v-79.258a1.1939,1.1939,0,0,1,2.3878,0v80.1584a1.1938,1.1938,0,0,1-.8659,1.1481l-40.8825,11.6919A1.1878,1.1878,0,0,1,341.9125,432.9505Z"/><path class="a" d="M341.9125,432.9505a1.194,1.194,0,0,1-1.1939-1.1939V347.14a1.1939,1.1939,0,0,1,2.3878,0v84.6168A1.194,1.194,0,0,1,341.9125,432.9505Z"/><path class="a" d="M350.1516,260.2436c6.5134,0,8.2522-2.04,8.535-2.4484a1.1947,1.1947,0,0,0,.2114-.6786v-5.8c0-.0073-.0027-.0141-.0028-.0214a1.5983,1.5983,0,0,0-.037-.28l-.0038-.0151a2.0645,2.0645,0,0,0-.5828-1.0339c-1.1777-1.1958-3.8335-1.7772-8.12-1.7772-7.61,0-8.7466,1.9595-8.7466,3.1273v5.1556C341.405,257.8729,343.247,260.2436,350.1516,260.2436Zm6.3586-3.652c-.5813.4034-2.2976,1.2642-6.3586,1.2642-4.4554,0-6.0767-1.07-6.3589-1.5129v-3.2851c2.5984.8729,7.7563,2.0788,12.7175.1418Zm-1.1982-5.5149a16.8259,16.8259,0,0,1-10.0367-.0695,21.5389,21.5389,0,0,1,4.8763-.43A20.1316,20.1316,0,0,1,355.312,251.0767Z"/><path class="a" d="M389.967,309.1154a1.1726,1.1726,0,0,0-.0657-.3255,1.1216,1.1216,0,0,0-.053-.1233,1.1728,1.1728,0,0,0-.17-.2525c-.0249-.0287-.0449-.06-.0725-.0857a1.1811,1.1811,0,0,0-.3349-.23l-.0174-.0076h0l-13.8225-6.0924,1.3888.128c.0365.0034.0731.005.11.005a1.1889,1.1889,0,0,0,.359-.0664,1.2031,1.2031,0,0,0,.3282.0664,1.19,1.19,0,0,0,.8169-.3233l2.7461-2.5779a1.1955,1.1955,0,0,0,.3769-.8479l.6863-36.088a1.194,1.194,0,0,0-1.1714-1.216,1.0882,1.0882,0,0,0-.36.057c-.0139-.0042-.0257-.0128-.04-.0166l-3.7114-.9953.2634-1.2362,8.0315-.58a1.1938,1.1938,0,0,0,1.1076-1.1908v-2.5777a1.194,1.194,0,0,0-1.1939-1.1939h-8.3517l-.7959-.9961,4.8928-2.5514a1.1939,1.1939,0,0,0-.1321-2.1763l-3.4332-1.2887a1.1965,1.1965,0,0,0-.62-.0591l-7.3521,1.2546-6.3589-1.0851v-2.8592a1.1939,1.1939,0,0,0-1.0354-1.1834l-4.8056-.6447a1.2,1.2,0,0,0-.9756.3128l-1.9275,1.8091a69.4536,69.4536,0,0,1-9.349.445l-5.2512-2.4643a1.16,1.16,0,0,0-.6286-.0867c-.0217-.0014-.04-.0126-.0622-.0126h-3a1,1,0,0,0-.8946,1.4473l1.4122,2.8232c-1.6122.3073-3.4947.641-4.27.7138l-2.17-1.0181a1.1937,1.1937,0,0,0-1.5879.5736c-.0163.0358-.0312.0719-.0444.108l-6.2787-.7854a1.1988,1.1988,0,0,0-1.17.5733l-4.5115,2.7069a1,1,0,0,0,.0674,1.7519l1.6321.8161a1.1706,1.1706,0,0,0-.6826.01l-5.4929,1.9334a1.1933,1.1933,0,0,0-.7283,1.5258l1.3735,3.8665a1.1659,1.1659,0,0,0,.3455.4856v30.7934a1.1814,1.1814,0,0,0-.4683.1333,1.1945,1.1945,0,0,0-.4929,1.6152l1.3727,2.5778a1.1953,1.1953,0,0,0,1.0539.6326,1.183,1.183,0,0,0,.1842-.0143l4.1149-.6436v2.2414l-9.4843,3.1792a1.1933,1.1933,0,0,0-.8105,1.0369,1.1758,1.1758,0,0,0,.0569.4385,1.1488,1.1488,0,0,0-.0608.3011v29.6436a1.1929,1.1929,0,0,0,.666,1.0707l40.51,19.9773a1.192,1.192,0,0,0,.9226.0559l38.637-13.5442a1.1937,1.1937,0,0,0,.7991-1.1266V309.191C389.9824,309.1642,389.9688,309.1418,389.967,309.1154ZM366.4506,298.92V268.0718l0-.0019a1.196,1.196,0,0,0-.0836-.4138c-.01-.0271-.0187-.0536-.0307-.08-.01-.0216-.0141-.0449-.0254-.066l-.7834-1.4691,3.217-1.51v33.7709ZM346.206,302.76l-3.1,1.4546v-34.17l2.8415-1.667Zm-23.3528-2.6963-1.7185-1.0757V291.65a1.11,1.11,0,0,0-.0333-.1647,1.1815,1.1815,0,0,0,.0333-.2138V265.6743l.0488.0459a1.1912,1.1912,0,0,0,1.07.2962l.3982-.0863Zm2.3909.4436-.208-35.0932,4.6966-1.0172v34.4255Zm6.8765-35.867,3.8723,1.4535-1.2654,1.98a1.1767,1.1767,0,0,0,.3924,1.6585v30.2443l-2.9993-1.4073Zm5.3872,5.4616,3.2108.3348v33.9816l-3.2108-1.1087Zm10.82-2.7692h6.1224V300.427l-5.8706.5Zm8.51.68,1.0454.785v34.262l-1.0454-.7847Zm3.4331,1.8464,3.7915-.4447v33.224l-3.7915,1.1861Zm10.8608,29.3457v-34.65l5.026,1.1794-.4075,33.8962Zm7.0166-.4038.3989-33.188,1.2656-1.188-.6349,33.4095Zm-59.8714-45.0688c.0246-.0087.0407-.0283.0643-.0383l2.9571-.9858a1,1,0,0,0,.1308-1.8432l-2.3711-1.1851,2.8113-1.6867,10.2818,1.2865a1.2252,1.2252,0,0,0,.1493.0094,1.1833,1.1833,0,0,0,1.0587-.6782c1.69-.2511,4.191-.7452,4.8191-.8709a1,1,0,0,0,.6982-1.4278l-1.2764-2.5527h.7061a1.1811,1.1811,0,0,0,.3516.2609l5.4929,2.5777a1.1923,1.1923,0,0,0,.5075.1131c10.085,0,10.7813-.6532,11.1164-.9676l1.6462-1.5452,3.2086.43V247.45a1.1941,1.1941,0,0,0,.9933,1.1768l7.5526,1.2887a1.2007,1.2007,0,0,0,.4012,0l7.2348-1.2343.6272.2355-3.8078,1.9855a1.1939,1.1939,0,0,0-.3809,1.8041l2.06,2.5777a1.1945,1.1945,0,0,0,.9326.4485h7.7323v.2732l-7.8185.5644a1.193,1.193,0,0,0-1.0813.942l-.6862,3.2221a1.1932,1.1932,0,0,0,.8581,1.4018l2.7344.7334-.7158.6715-7.6165-1.7873a1.2052,1.2052,0,0,0-.78.0816l-5.4929,2.5778a1.1951,1.1951,0,0,0-.5465,1.642l.5512,1.0345-3.2818.3852-3.0515-2.2914a1.1932,1.1932,0,0,0-.7165-.239h-8.9253a1.1956,1.1956,0,0,0-.604.164l-5.1548,3.0239-3.8654-.403,1.0175-1.5922a1.1942,1.1942,0,0,0-.5861-1.7609l-6.8663-2.5778a1.2,1.2,0,0,0-.386-.0693c-.0118,0-.0217-.0068-.0337-.0068-.0251,0-.0459.0126-.07.0142a1.1547,1.1547,0,0,0-.1822.0129l-8.3136,1.8-.32-.3,3.9-1.83a1.1938,1.1938,0,0,0,.31-1.9513l-2.7461-2.5778a1.2,1.2,0,0,0-.9033-.32l-7.854.5671a.9725.9725,0,0,0-.2443-.2114l-.5891-1.6585Zm-3.1752,38.8064-.5289-.9937a.9814.9814,0,0,0,.4091-.7855V259.5142l7.2693-.5247,1.0826,1.0159-3.9,1.83a1.1813,1.1813,0,0,0-.3034.2137c-.0223.0208-.0414.0421-.062.0645a1.1874,1.1874,0,0,0-.2264.3356l-.0035.0124a1.1841,1.1841,0,0,0-.077.2673,1.1581,1.1581,0,0,0-.0049.138c-.0007.0173-.01.0318-.01.0493V290.89l-.8612,1.2125Zm3.6447,6.6067v.5041a1.1949,1.1949,0,0,0,.56,1.0121l4.12,2.5773a1.162,1.162,0,0,0,.1769.0787,1.21,1.21,0,0,0,.1167.0519,1.1915,1.1915,0,0,0,.3115.0474c.01,0,.0186.0043.0284.0043l.0065-.0012a1.1889,1.1889,0,0,0,.3656-.0667c.0158-.0052.0319-.0027.0475-.0086l6.7766-2.5437,3.8634,1.8124v1.547a1.1938,1.1938,0,0,0,.8046,1.1286l5.5986,1.9334c.0091.0032.0188.0018.0279.0047a1.08,1.08,0,0,0,.6836.0107c.0293-.0081.0566-.0186.0852-.029.0334-.0122.0676-.0188.1-.0342l5.4929-2.5778a1.1959,1.1959,0,0,0,.6863-1.09l-.0014-.1844,5.8526-.4986v.0476a1.1929,1.1929,0,0,0,.4772.9548l3.4332,2.5775.0092.0047a1.198,1.198,0,0,0,.2649.1386c.0244.01.0456.0278.07.0359a1.1871,1.1871,0,0,0,.3721.06l.01-.0015a1.1971,1.1971,0,0,0,.3106-.0477c.0122-.0035.0244-.0019.0366-.0056l6.1793-1.9331a1.1936,1.1936,0,0,0,.837-1.1395v-2.1226l2.3882-.6432c.0122.0293.0354.0517.05.08a1.1821,1.1821,0,0,0,.6928,1.2007l15.9091,7.0121-35.2365,11.8669-37.5808-19.7286ZM350.23,349.91l-39.394-19.4269V302.9128l38.7606,20.3479a1.1926,1.1926,0,0,0,.9359.0742l37.0623-12.4822v25.96Z"/><path class="d" d="M397.0493,286.1976h-.0008a3.07,3.07,0,0,0-2.35,1.0932c-2.0979,2.7584-5.6428,5.369-10.4947,7.6591-18.591,8.775-49.6124,9.7668-69.1513,2.2112-5.5834-2.1591-9.6451-4.8016-11.9862-7.7121l8.3061-.3229L294.0737,282.21l-4.4485,7.7621,7.3-.2839c2.5736,4.3462,7.8815,8.1973,15.5381,11.1579,10.2776,3.974,23.6879,5.9148,37.7608,5.4649s27.2084-3.24,36.9869-7.855c5.6712-2.6768,9.8662-5.8,12.4183-9.1728C400.7011,287.8666,399.2367,286.1276,397.0493,286.1976Z"/><path class="d" d="M389.5144,268.5724a21.6773,21.6773,0,0,1,6.1751,4.98l-6.1751.24v1l15.0195,6.0049,4.4485-7.762-7.1516.2781c-2.1949-3.7059-6.3843-7.05-12.3164-9.7905"/><path class="d" d="M308.3979,265.037c-5.1654,2.5663-9.0344,5.5116-11.4337,8.6825-1.0718,1.4164.3927,3.1553,2.58,3.0854h.0008a3.07,3.07,0,0,0,2.35-1.0931,23.2919,23.2919,0,0,1,6.503-5.5152"/></svg>