<svg xmlns="http://www.w3.org/2000/svg" viewBox="0 0 584.4375 621.3832"><defs><style>.a,.d{fill:#fff;}.a,.b{stroke:#000;}.a,.b,.e,.f{stroke-miterlimit:10;}.b,.e,.f{fill:none;}.c{fill:#d91519;}.e{stroke:#606060;stroke-width:2px;}.f{stroke:#d91519;stroke-width:1.6051px;opacity:0.6;}.g{font-size:30px;font-family:Lato-Italic, Lato;font-style:italic;}.g,.h{fill:#606060;}</style></defs><title>perilla_despiec</title><rect class="a" x="484.7696" y="65.2822" width="69.884" height="128.4518" rx="4.7195" transform="translate(390.2035 649.2196) rotate(-90)"/><path class="b" d="M459.8544,101.7762v15.702a2.0819,2.0819,0,0,0,2.0819,2.0819h0a2.4271,2.4271,0,0,1,2.4271,2.4271v15.0416a2.4272,2.4272,0,0,1-2.4272,2.4273h0a2.0819,2.0819,0,0,0-2.0819,2.0819V157.24a4.1422,4.1422,0,0,0,4.1422,4.1422h111.43a4.1422,4.1422,0,0,0,4.1422-4.1422V101.7763a4.1422,4.1422,0,0,0-4.1422-4.1422h-111.43A4.1421,4.1421,0,0,0,459.8544,101.7762Z"/><path d="M534.6413,105.3982c.148.0319.2952.0679.4441.095a5.923,5.923,0,0,1,2.8328,1.3868,5.9828,5.9828,0,0,1,1.4167,1.82,5.7851,5.7851,0,0,1,.59,1.9078,6.4411,6.4411,0,0,1,.03,1.4157,5.8019,5.8019,0,0,1-.77,2.4071,6.017,6.017,0,0,1-2.9234,2.5826,5.406,5.406,0,0,1-1.7132.4312.9743.9743,0,0,0-.108.0217c-.0037.0832-.01.1588-.01.2345q0,3.448.0019,6.8962,0,4.6879-.0024,9.3758c0,2.075.0088,4.15-.0024,6.2248a7.783,7.783,0,0,1-1.6764,4.9248,7.698,7.698,0,0,1-4.608,2.86,7.3206,7.3206,0,0,1-1.4815.1547q-8.1363-.0051-16.2725-.0022-2.8412,0-5.6824-.0023a6.5637,6.5637,0,0,1-1.7731-.2824,7.7311,7.7311,0,0,1-3.7466-2.3514,7.5,7.5,0,0,1-1.6441-2.9734,12.5217,12.5217,0,0,1-.2622-1.2559,11.1836,11.1836,0,0,1-.0513-1.9061q-.0081-6.7157-.0016-13.4312,0-3.6549-.0024-7.31a7.3755,7.3755,0,0,1,.4366-2.4449,7.5663,7.5663,0,0,1,1.42-2.4648,7.9864,7.9864,0,0,1,2.07-1.727,8.0852,8.0852,0,0,1,2.65-.9467,5.5834,5.5834,0,0,1,.6654-.0674c1.5132-.086,3.0277-.0312,4.5417-.0384,1.9026-.009,3.8054-.0044,5.7081-.0043q4.378,0,8.7559.0023,2.0793,0,4.1585,0h.2479c.0656-.3468.1125-.6769.1921-.9989a5.9394,5.9394,0,0,1,1.1391-2.288,6.0257,6.0257,0,0,1,2.3354-1.78,5.2585,5.2585,0,0,1,1.5827-.4252.5207.5207,0,0,0,.116-.0407Zm-6.7555,6.3114H517.813q-6.3676,0-12.7353.0023a6.569,6.569,0,0,0-.9251.0569,7.323,7.323,0,0,0-2.0192.5836,7.1362,7.1362,0,0,0-3.7609,4.1407,7.5849,7.5849,0,0,0-.3986,2.5025q-.0041,5.2956-.0011,10.5912c0,2.3335-.0051,4.6671,0,7.0006.0028,1.3508.022,2.7016.0316,4.0525a5.6028,5.6028,0,0,0,.1667,1.2473,7.1074,7.1074,0,0,0,6.9381,5.4965c2.6175.0167,5.2353.0047,7.8529.005,3.1,0,6.2.007,9.3-.0019,1.5658-.0045,3.132.0388,4.6975-.03a6.8151,6.8151,0,0,0,1.7163-.3074,7.1013,7.1013,0,0,0,4.9726-6.7206c.0195-2.3506.0042-4.7014.0042-7.0522q0-3.6165.0006-7.233,0-4.1848-.0007-8.37c0-.0655-.0118-.1311-.0185-.2021a6.0774,6.0774,0,0,1-5.7478-5.7621Zm10.2147-1.4c-1.0146-.0231-2,.0122-3.01-.0167v-3.0048a19.119,19.119,0,0,0-2.2957.0165c0,.3312,0,.666,0,1.0008,0,.3271.005.6542,0,.9813-.0044.3315.0153.6644-.0163,1.0194h-3.0028a18.0106,18.0106,0,0,0,.0114,2.2744h3.0085v2.9946c.7784.0019,1.5295.0162,2.2959-.005,0-.2787,0-.5272,0-.7758,0-.241.0014-.482.0013-.723,0-.25-.0034-.4993-.0011-.7488.0024-.2453-.0127-.4917.0124-.7511.5184,0,1.008,0,1.4976,0,.4957,0,.9915.0064,1.4986-.0047V110.31Z"/><path d="M510.2732,119.31l5.8364,15.9808.0353-.0069V119.3152c.0729-.0065.1307-.0162.1884-.0162,2.6087,0,5.2174-.0109,7.8259.0074a7.0072,7.0072,0,0,1,3.3421.8105,5.7181,5.7181,0,0,1,2.653,2.9477,6.4787,6.4787,0,0,1,.424,1.7162,6.1436,6.1436,0,0,1,.0312,1.158,5.3928,5.3928,0,0,1-1.4193,3.4,5.6446,5.6446,0,0,1-2.14,1.4362c-.0236.009-.0458.0215-.0967.0456.2327.4864.495.9539.7371,1.4312.2447.4825.4994.96.748,1.44.2528.4883.5026.978.7553,1.4663.2487.4805.5.96.7491,1.44s.4971.9614.7454,1.4422c.247.4782.4938.9566.7529,1.4584h-4.6037l-3.9212-8.0029H520.14a1.7726,1.7726,0,0,0-.02.1925q-.0014,2.35,0,4.7007,0,1.4594.0011,2.9186c0,.058-.0086.116-.0143.1888h-6.61l-1.1809-3.5368h-7.1387l-1.2161,3.5391h-4.1091c.037-.245,7.1993-19.9486,7.3392-20.1892Zm9.8539,8.8391a.62.62,0,0,0,.0989.0195c1.2547-.0106,2.51-.0243,3.7642-.032a2.8993,2.8993,0,0,0,1.076-.2212,2.4214,2.4214,0,0,0,1.3762-1.35,2.7873,2.7873,0,0,0,.1852-1.2862,2.4071,2.4071,0,0,0-1.06-1.9106,2.7821,2.7821,0,0,0-1.5981-.497c-1.2213-.0124-2.4429-.0061-3.6644-.0061a1.55,1.55,0,0,0-.1784.0208Zm-11.29-2.7339-.0475-.002-2.4928,7.1805c.3687.0407,4.7476.0254,4.9469-.0213Z"/><path class="c" d="M238.6411,185.6821c-88.7114,0-96.8949-22.7208-97.2025-23.6958a.9322.9322,0,0,1-.043-.28v-6.7044l-3.72-3.8856a.9321.9321,0,0,1-.2579-.6485c.0072-1.1721.6939-117.3019.003-125.59C136.6861,16.0557,146.4829,8.25,146.9,7.9215a.9307.9307,0,0,1,.3337-.1668L176.02.032a.9254.9254,0,0,1,.4966.0039C176.7124.092,196.29,5.6788,208.067,8.45c12.0815,2.8425,23.856,15.8793,24.3513,16.433a.9258.9258,0,0,1,.1387.2041c12.37,24.7392,95.6838,73.543,96.5237,74.0329a.9529.9529,0,0,1,.2089.1662l11.2331,11.9356a.9293.9293,0,0,1,.2525.6374v49.8474a.9292.9292,0,0,1-.052.3065c-.3313.95-9.1628,23.2873-99.8918,23.6646C240.1005,185.6806,239.3617,185.6821,238.6411,185.6821Zm-95.3853-24.1487c.3482.805,3.0036,6.0289,14.9755,11.1789,12.0246,5.1727,36.1077,11.2949,82.5928,11.105,46.4718-.1932,70.7026-6.3,82.8465-11.39,12.0131-5.0344,14.84-10.0656,15.2444-10.9125V112.2278l-10.888-11.5689c-4.836-2.8261-84.3895-49.5983-97.0753-74.6239-1.061-1.1569-12.3044-13.1845-23.311-15.7745C196.545,7.65,178.5745,2.5557,176.2534,1.8953L147.9078,9.5c-1.1785.9753-9.24,7.9362-8.6329,15.2238.6849,8.215.0557,116.8235.0055,125.3785l3.7175,3.8835a.9308.9308,0,0,1,.2579.6431Zm196.5893.1731h0Z"/><path class="c" d="M142.1368,155.5589a.93.93,0,0,1-.93-.93v-39.78a.93.93,0,0,1,1.7634-.4127c.0969.192,10.3726,19.5505,59.91,26.39,25.9561,3.5837,45.9807-2.6569,58.21-8.523,13.266-6.3632,20.4843-13.6735,20.5551-13.7468a.9411.9411,0,0,1,.7649-.2755c.3918.0424,39.1185,3.9525,49.5795-14.3708a.93.93,0,1,1,1.6156.9223c-10.5646,18.504-46.3162,15.779-50.95,15.3424-1.5569,1.5109-8.5717,7.9461-20.6829,13.7686-12.4721,5.9965-32.8909,12.3791-59.3465,8.7255-40.2612-5.5584-54.9975-19.0618-59.5592-24.7922v36.752A.93.93,0,0,1,142.1368,155.5589Z"/><path class="c" d="M280.6063,118.81a.925.925,0,0,1-.6037-.2232c-3.42-2.9233-83.79-71.7324-87.0491-83.426-3.2355-11.6116-2.3363-18.11-2.2969-18.38a.93.93,0,0,1,.6055-.74l18.8626-6.7893a.93.93,0,0,1,.63,1.75l-18.31,6.59c-.132,1.757-.3,7.7339,2.3011,17.0695,2.487,8.9238,57.6462,57.8748,86.4653,82.5116a.93.93,0,0,1-.6049,1.6372Z"/><path class="c" d="M206.458,134.1627c-25.5824,0-40-6.9094-47.6272-12.7749-7.4629-5.7392-10.0347-11.5129-10.6233-13.0646l-6.474-3.1138a.93.93,0,0,1,.8066-1.6762l6.8192,3.28a.928.928,0,0,1,.4844.5614c.02.0614,2.1056,6.4228,10.2479,12.6356,7.5537,5.7634,22.0018,12.585,47.9548,12.2834,49.7642-.555,64.2547-21.1007,64.3957-21.3084a.9505.9505,0,0,1,.8042-.4093c34.9262,1.2589,45.9444-4.7776,49.4058-8.4881,2.0183-2.1631,1.8639-3.8626,1.8566-3.9338a.93.93,0,0,1,1.8439-.2413c.0146.1009.3149,2.5064-2.21,5.302-4.3909,4.8617-16.7152,10.3944-50.4715,9.2375-1.0736,1.394-4.9819,5.9236-13.4858,10.5176-9.1427,4.939-25.6066,10.8883-52.1186,11.1841C207.5268,134.16,206.9891,134.1627,206.458,134.1627Z"/><path class="c" d="M144.9781,99.8675a.93.93,0,0,1-.93-.93V30.4934c-.38-1.3885-3.0738-12.2562,2.6179-22.2991a.93.93,0,1,1,1.618.9175c-5.5657,9.8215-2.4452,20.8821-2.4131,20.9926a.9285.9285,0,0,1,.0375.2607V98.9373A.93.93,0,0,1,144.9781,99.8675Z"/><path class="c" d="M197.1682,41.1043a.94.94,0,0,1-.1732-.0163l-52.1889-9.8089a.93.93,0,1,1,.3439-1.8281L197.3389,39.26a.93.93,0,0,1-.1707,1.8445Z"/><path class="c" d="M191.5776,17.8463a.9326.9326,0,0,1-.2476-.0336L154.39,7.6284a.93.93,0,1,1,.4941-1.7936l36.94,10.1843a.93.93,0,0,1-.2465,1.8272Z"/><path class="c" d="M275.8769,112.5185a.93.93,0,0,1-.912-.7512c-.9483-1.9911-16.0964-16.4324-30.7485-30.4009C233.05,70.72,221.5025,59.7117,212.8927,51.1018,191.4214,29.6311,192.4745,16.6858,192.53,16.145a.93.93,0,0,1,1.8512.185c-.0121.1338-.9023,12.7274,19.8272,33.4565,8.5941,8.5941,20.133,19.595,31.2922,30.2335,24.5718,23.4254,31.2354,29.9876,31.3062,31.5257a.93.93,0,0,1-.8859.9719Zm-.9283-.8874v0Z"/><path class="c" d="M290.7615,103.8984c-1.7955,0-3.5146-.1623-4.9-.2931-.6667-.063-1.245-.1181-1.6992-.14-.9319-.0445-2.87-.1365-31.1178-31.1557-13.8389-15.1974-27.3658-30.5692-27.5009-30.7227a.93.93,0,0,1,1.3377-1.29,364.9169,364.9169,0,0,0,70.5549,51.56h0a6.1819,6.1819,0,0,1,3.1834,5.943,5.9672,5.9672,0,0,1-3.8974,5.2127A17.4464,17.4464,0,0,1,290.7615,103.8984ZM284.3,101.61c.4784.0245,1.0628.08,1.7355.1432,2.7717.2616,6.9573.657,10.0408-.4845a4.0752,4.0752,0,0,0,2.6881-3.6088,4.3405,4.3405,0,0,0-2.2309-4.175A371.8442,371.8442,0,0,1,237.7775,52.59C257.4134,74.602,281.3275,100.6417,284.3,101.61Z"/><path class="c" d="M171.2224,354.5127a.93.93,0,0,1-.93-.93V317.28a.93.93,0,0,1,.7885-.9192l6.01-.9247V249.0368a.93.93,0,0,1,.7285-.908l21.1788-4.7064a.93.93,0,0,1,1.1318.908v66.2085l4.0325-1.2093a.93.93,0,0,1,1.1971.8907v35.56a.9307.9307,0,0,1-.7175.9056l-33.2065,7.8026A.9353.9353,0,0,1,171.2224,354.5127Zm.93-36.4346v34.3306l31.3462-7.3657V311.4705l-4.0325,1.2093a.93.93,0,0,1-1.1971-.8908V245.49l-19.3186,4.2928v66.4513a.93.93,0,0,1-.7884.9193Z"/><path class="c" d="M176.9643,249.9754c-5.1249,0-26.3721-.4857-29.36-8.456a.93.93,0,0,1,.5643-1.2048c1.5818-.5519,38.8727-13.3208,51.7687,3.4487a.93.93,0,0,1-.536,1.4751l-21.1788,4.7064a.9323.9323,0,0,1-.1835.0218C177.9253,249.969,177.5493,249.9754,176.9643,249.9754Zm1.0561-.9386h0Zm-28.2239-7.2985c3.709,5.5554,21.22,6.5,28.1131,6.37l19.5856-4.3522C185.7552,231.1519,155.7092,239.862,149.7965,241.7383Z"/><path class="c" d="M171.2236,318.21c-.0218,0-.043-.0006-.0648-.0021-19.28-1.3208-23.2583-6.1652-23.4182-6.3708a.93.93,0,0,1-.1962-.5711V241.1927a.93.93,0,1,1,1.86,0v69.69c.9731.8545,5.8963,4.374,21.8813,5.4688a.93.93,0,0,1-.0624,1.8582Z"/><path class="c" d="M171.2224,354.5127a.9122.9122,0,0,1-.1714-.016l-29.0856-5.4494a.93.93,0,0,1-.7588-.9141V312.0506a.9306.9306,0,0,1,1.0949-.9156l29.0856,5.2293a.93.93,0,0,1,.7654.9156v36.3027a.93.93,0,0,1-.93.93Zm-28.1555-7.1516,27.2253,5.1009V318.0578l-27.2253-4.8947Z"/><path class="c" d="M142.1374,312.9811a.93.93,0,0,1-.4548-1.7422l6.0762-3.399a.93.93,0,1,1,.9083,1.6235l-6.0762,3.399A.9282.9282,0,0,1,142.1374,312.9811Z"/><path class="c" d="M204.4282,311.1508a.9265.9265,0,0,1-.4475-.1154l-5.23-2.8761a.93.93,0,1,1,.8962-1.63l5.23,2.8761a.93.93,0,0,1-.4487,1.7455Z"/><path class="c" d="M171.6553,383.8681a11.3685,11.3685,0,0,1-6.8167-2.2533.929.929,0,0,1-.3833-.7521V352.7a.93.93,0,1,1,1.86,0v27.6774c4.94,3.2851,9.9445.82,11.3833-.0276V351.8422a.93.93,0,0,1,1.86,0v29.0205a.9306.9306,0,0,1-.3991.7639A14.6163,14.6163,0,0,1,171.6553,383.8681Z"/><path class="c" d="M267.1944,266.1791a23.6961,23.6961,0,0,1-10.2764-2.4955.9306.9306,0,0,1-.4893-.8191v-25.69a.93.93,0,0,1,1.3535-.8284c8.6994,4.4427,18.9043.023,19.0066-.0218a.9308.9308,0,0,1,1.3075.85V261.896a.9294.9294,0,0,1-.3585.7336A16.7875,16.7875,0,0,1,267.1944,266.1791Zm-8.9054-3.8974c2.1322.9746,10.8014,4.3836,17.947-.8487V238.5314c-3.0048,1.0564-10.6548,3.13-17.947.0972Zm18.8771-.3857h0Z"/><path class="c" d="M257.3619,238.12a.9456.9456,0,0,1-.9289-.8575,3.3949,3.3949,0,0,1,.9786-2.4485c1.6235-1.82,4.9322-2.7905,9.833-2.8837,4.7525-.0966,8.0316.7808,9.7235,2.5909a3.7407,3.7407,0,0,1,1.1245,2.7338.93.93,0,0,1-1.8548-.1411,2.0638,2.0638,0,0,0-.6879-1.384c-.9265-.9393-3.1187-2.0338-8.27-1.94-5.593.1065-7.667,1.4127-8.4058,2.1818a1.7663,1.7663,0,0,0-.5868,1.1457.917.917,0,0,1-.8393.9986C257.4194,238.119,257.39,238.12,257.3619,238.12Z"/><path class="c" d="M267.7757,269.8445A33.1232,33.1232,0,0,1,261.7,269.27c-4.6071-.8586-7.0154-2.1957-7.3624-4.0869-.4069-2.216,2.2333-3.8967,2.5355-4.0811a.93.93,0,0,1,.97,1.5874h0c-.5837.3594-1.816,1.4025-1.6756,2.1592.0679.3639.691,1.6268,5.8728,2.5927,8.9029,1.66,14.6605-1.07,14.7181-1.0979a.9463.9463,0,0,1,.1029-.043c.866-.3043,2.6857-1.2605,2.771-2.2709.0673-.8008-.9955-1.8714-2.9169-2.9366a.93.93,0,0,1,.9023-1.6272c2.745,1.5227,4.0106,3.0681,3.8677,4.7249-.2059,2.39-3.3906,3.6428-3.9616,3.8486A24.05,24.05,0,0,1,267.7757,269.8445Z"/><path class="c" d="M235.8343,481.82c-36.2772,0-73.8013-7.0717-73.8013-18.9058s37.5241-18.9062,73.8013-18.9062,73.8013,7.0717,73.8013,18.9062S272.1115,481.82,235.8343,481.82Zm0-35.9517c-43.0334,0-71.941,8.8139-71.941,17.0459s28.9076,17.0455,71.941,17.0455,71.941-8.8136,71.941-17.0455S278.8677,445.8681,235.8343,445.8681Z"/><polygon class="d" points="304.017 451.568 284.689 457.564 241.636 444.995 263.313 439.204 304.017 451.568"/><path class="c" d="M284.69,458.4937a.9246.9246,0,0,1-.26-.0373l-43.0534-12.5686a.93.93,0,0,1,.0206-1.7916l21.6765-5.791a.9358.9358,0,0,1,.51.0088l40.7045,12.3643a.93.93,0,0,1,.0054,1.7783l-19.3276,5.9953A.9317.9317,0,0,1,284.69,458.4937Zm-39.5981-13.4592,39.59,11.5577,16.166-5.0146L263.2964,440.171Z"/><polygon class="d" points="284.689 457.564 284.689 462.914 304.017 457.059 304.017 451.568 284.689 457.564"/><path class="c" d="M284.69,463.8441a.9305.9305,0,0,1-.93-.93v-5.3505a.93.93,0,0,1,.6546-.8883l19.3277-5.9954a.93.93,0,0,1,1.2056.8884v5.4906a.93.93,0,0,1-.6606.89l-19.3277,5.8551A.9217.9217,0,0,1,284.69,463.8441Zm.93-5.5954V461.66l17.4674-5.2913v-3.5383Z"/><polygon class="d" points="284.689 462.914 241.636 449.769 241.636 444.995 284.689 457.564 284.689 462.914"/><path class="c" d="M284.69,463.8441a.9315.9315,0,0,1-.2719-.0406l-43.0534-13.1452a.93.93,0,0,1-.6583-.8895v-4.7739a.93.93,0,0,1,1.1905-.8929L284.95,456.6706a.93.93,0,0,1,.67.8929v5.3505a.93.93,0,0,1-.93.93ZM242.5663,449.08l41.1931,12.5771v-3.3966l-41.1931-12.0255Z"/><ellipse class="d" cx="276.2667" cy="473.6686" rx="7.8532" ry="2.7073"/><path class="c" d="M276.2669,477.306c-4.2305,0-8.7837-1.1382-8.7837-3.6373s4.5532-3.6376,8.7837-3.6376,8.783,1.1384,8.783,3.6376S280.4973,477.306,276.2669,477.306Zm0-5.4146c-4.5429,0-6.9234,1.32-6.9234,1.7773s2.38,1.777,6.9234,1.777,6.9227-1.32,6.9227-1.777S280.8092,471.8914,276.2669,471.8914Z"/><ellipse class="d" cx="198.7864" cy="471.9732" rx="7.8532" ry="2.7073"/><path class="c" d="M198.7862,475.6107c-4.23,0-8.783-1.1384-8.783-3.6376s4.5526-3.6373,8.783-3.6373,8.7836,1.1382,8.7836,3.6373S203.0166,475.6107,198.7862,475.6107Zm0-5.4146c-4.5423,0-6.9227,1.32-6.9227,1.777s2.38,1.7773,6.9227,1.7773,6.9234-1.32,6.9234-1.7773S203.3291,470.1961,198.7862,470.1961Z"/><path class="c" d="M233.42,472.1745c-5.4409,0-10.6106-.8336-13.9956-3.3a.9506.9506,0,0,1-.0818-.0666c-.0678-.0624-6.861-6.2509-11.5092-6.6491-2.1855-.1874-3.67-1.6377-3.5292-3.4486.25-3.2168,5.3846-6.6339,19.0339-5.6838,11.9634.8344,14.8622,1.2789,17.666,1.7092,1.925.2952,3.7435.574,8.3343.9758,7.3551.6434,13.1212,3.8175,13.4131,7.3824.149,1.823-.9853,4.3313-7.234,5.93C251.6715,470.0075,242.1927,472.1745,233.42,472.1745ZM220.56,467.4c6.53,4.7034,22.0926,2.9948,34.4962-.1786,3.7824-.9674,5.966-2.454,5.8413-3.9761-.1853-2.2645-4.939-5.0876-11.7212-5.6811-4.6507-.4069-6.5843-.7033-8.4542-.99-2.7662-.4245-5.6263-.8633-17.5134-1.692-12.13-.8465-16.8951,1.9872-17.05,3.9722-.0588.7563.6952,1.3531,1.833,1.4506C213.1234,460.7448,219.91,466.8092,220.56,467.4Z"/><path class="c" d="M226.9616,471.6331a3.6561,3.6561,0,0,1-1.0252-.1466.93.93,0,0,1,.52-1.7864c2.349.6877,5.3768-3.8283,6.253-5.4621a.932.932,0,0,1,.7624-.489c9.282-.5756,22.46,2.7353,23.0161,2.8767a.93.93,0,1,1-.4578,1.8028c-.1308-.0333-12.9626-3.2613-21.9394-2.85C233.18,467.1483,230.2856,471.6331,226.9616,471.6331Z"/><path class="c" d="M235.19,465.5375c-.0212,0-.0424-.0006-.0636-.0021a.9309.9309,0,0,1-.866-.99l.6456-9.6156a.93.93,0,0,1,1.8566.1247l-.6455,9.6157A.93.93,0,0,1,235.19,465.5375Z"/><path class="c" d="M258.9237,508.2909h-6.0181a.9274.9274,0,0,1-.4808-.1341l-4.7355-2.8607v2.0647a.93.93,0,0,1-.93.93h-4.225a.931.931,0,0,1-.5892-.21l-2.7063-2.2146v.9826a.93.93,0,0,1-.93.93h-4.78a.93.93,0,0,1-.6606-.2752l-3.2331-3.2613v3.1184a.93.93,0,0,1-.93.93h-4.3534a.93.93,0,0,1-.476-.1311l-4.6119-2.7474v.9241a.93.93,0,0,1-.93.93H212.7a.932.932,0,0,1-.7412-.3679l-1.1875-1.5657a.9311.9311,0,0,1-.8883.6531h-4.658a.9307.9307,0,0,1-.6625-.2773l-1.7095-1.7346a.93.93,0,0,1-.9089.7315h-4.4817a.9308.9308,0,0,1-.59-.2114l-2.0643-1.6958v.0808a.93.93,0,0,1-.93.93h-5.1218a.93.93,0,0,1-.6382-.2535l-4.2129-3.9721H181.747v1.1187a.93.93,0,0,1-.93.93h-2.3048a.93.93,0,0,1-.6576-.2725l-1.6484-1.6484a.9291.9291,0,0,1-.8786.5111l-2.4974-.128a.93.93,0,0,1-.61-.2713l-1.4563-1.4564a.93.93,0,0,1-1.36.0478l-2.0965-2.0961h-2.6238a.9291.9291,0,0,1-.8593-.5747l-1.721-4.1617a.94.94,0,0,1-.07-.3554V462.914a.93.93,0,1,1,1.86,0v28.1285l1.4122,3.4162h2.3871a.9305.9305,0,0,1,.6576.2725l1.0089,1.0083a.93.93,0,0,1,1.36-.0482l2.5639,2.5643,1.1621.0593v-.7494a.93.93,0,0,1,1.5877-.6576l2.8643,2.8646h.9895v-1.1188a.93.93,0,0,1,.93-.93h3.4571a.9292.9292,0,0,1,.6382.2534l4.2129,3.9722h3.8223v-1.1185a.93.93,0,0,1,1.5206-.7188l3.3275,2.7335h3.2186v-1.1185a.93.93,0,0,1,1.5926-.6527l3.0078,3.0517h3.3384v-1.5027a.93.93,0,0,1,1.6714-.5623l2.5379,3.3454h4.2413v-1.6308a.93.93,0,0,1,1.4061-.799l5.7982,3.4541h3.1671v-4.4475a.93.93,0,0,1,1.5908-.6549l4.5508,4.59h3.462v-2.015a.93.93,0,0,1,1.5193-.72l3.9682,3.247h2.963v-2.7831a.93.93,0,0,1,1.411-.796l5.9248,3.5791h4.8287v-3.6794a.93.93,0,0,1,1.5878-.6576l3.5685,3.5689h3.55v-4.0636a.93.93,0,0,1,1.6429-.5977l3.05,3.637h3.9434v-4.8321a.93.93,0,0,1,1.6411-.6l3.505,4.1517h1.839v-4.0636a.93.93,0,0,1,1.5139-.7242l4.354,3.5074h2.3272v-4.1917a.93.93,0,0,1,1.3649-.8224l2.9061,1.5366a.9306.9306,0,0,1,.4953.8224v1.2141l2.1479-.343v-2.92a.93.93,0,0,1,.4742-.8106c3.4662-1.95,8.648-7.0526,9.87-8.2786V464.6122a.93.93,0,0,1,1.86,0v24.0544a.9291.9291,0,0,1-.2647.6494c-.2488.2556-5.9387,6.0659-10.0795,8.59v3.1807a.93.93,0,0,1-.7836.9186l-4.0082.64a.9415.9415,0,0,1-.75-.2111.93.93,0,0,1-.3264-.7076v-1.7443l-1.0458-.5531v3.5779a.93.93,0,0,1-.93.93h-3.5855a.93.93,0,0,1-.5838-.2059l-3.0956-2.4936v3.05a.93.93,0,0,1-.93.93h-3.201a.9314.9314,0,0,1-.7109-.33L277.197,502.35v3.2188a.93.93,0,0,1-.93.93H270.96a.9305.9305,0,0,1-.7127-.3324l-1.6865-2.0108v2.4374a.93.93,0,0,1-.93.93h-4.8657a.93.93,0,0,1-.6576-.2725l-2.2533-2.2532v2.3638A.93.93,0,0,1,258.9237,508.2909Z"/><path class="c" d="M294.3531,502.6571a.93.93,0,0,1-.93-.93v-28.1a.93.93,0,0,1,.6086-.8726l4.0082-1.4773a.93.93,0,0,1,1.2517.8726v28.9367a.93.93,0,0,1-.7836.9186l-4.0082.64A.9581.9581,0,0,1,294.3531,502.6571Zm4.0082-1.5705h0Zm-3.0781-26.8109v26.3606l2.1479-.343V473.484Z"/><path class="c" d="M287.8615,503.9375a.93.93,0,0,1-.93-.9286l-.0449-27.2111a.93.93,0,0,1,.7194-.9074l3.4239-.7963a.93.93,0,0,1,1.1409.9059v27.7213a.93.93,0,0,1-.8515.9268l-3.379.2861C287.9136,503.9363,287.8875,503.9375,287.8615,503.9375Zm3.379-1.2162h0Zm-2.4925-26.1865.0418,25.46,1.5206-.1287V476.1711Z"/><path class="c" d="M280.2054,505.3134a.93.93,0,0,1-.93-.9287l-.0448-27.211a.93.93,0,0,1,.7194-.9075l3.4238-.7963a.93.93,0,0,1,1.1409.9059v27.7213a.93.93,0,0,1-.8514.9268l-3.3791.2861C280.2575,505.3122,280.2315,505.3134,280.2054,505.3134Zm3.379-1.2163h0Zm-2.4924-26.1865.0417,25.46,1.5206-.1286V477.547Z"/><path class="c" d="M272.18,506.48a.93.93,0,0,1-.93-.9283l-.0545-27.2114a.93.93,0,0,1,.7539-.915l4.1251-.796a.93.93,0,0,1,1.1063.9131v27.7213a.93.93,0,0,1-.8647.9277l-4.0706.2862C272.2235,506.4794,272.2017,506.48,272.18,506.48Zm4.0706-1.2163h0Zm-3.1931-26.1577.0509,25.4462,2.2121-.1556V478.6691Z"/><path class="c" d="M263.2171,507.784a.93.93,0,0,1-.93-.9283l-.0539-27.2111a.93.93,0,0,1,.8581-.9292l4.1251-.32a.93.93,0,0,1,1.0022.9274v27.245a.93.93,0,0,1-.8648.9277l-4.0711.2861C263.2607,507.7831,263.2389,507.784,263.2171,507.784Zm4.0711-1.2162h0Zm-3.1931-26.0645.05,25.353,2.2127-.1557V480.328Z"/><path class="c" d="M254.2493,508.2909a.93.93,0,0,1-.93-.9283l-.0533-26.826a.93.93,0,0,1,.889-.931l4.9692-.22a.93.93,0,0,1,.9713.9377l-.2416,26.7847a.93.93,0,0,1-.8781.92l-4.6743.2613C254.2839,508.29,254.2663,508.2909,254.2493,508.2909Zm4.6744-1.1914h0Zm-3.7957-25.6748.05,24.9526,2.8237-.158.2246-24.9321Z"/><path class="c" d="M246.3952,508.3823l-.0218,0-3.861-.0914a.93.93,0,0,1-.9083-.9323l.0654-26.4711a.93.93,0,0,1,.9283-.9277l4.1244-.0072h.0019a.93.93,0,0,1,.93.9416l-.3288,26.57a.9306.9306,0,0,1-.93.9186Zm-2.9284-1.93,2.01.0476.3058-24.686-2.2551.0043Z"/><path class="c" d="M237.8968,507.784h-4.0724a.93.93,0,0,1-.93-.9283l-.0521-25.9715a.93.93,0,0,1,.93-.9319h.0018l3.8665.0072a.93.93,0,0,1,.9283.9208l.258,25.9642a.93.93,0,0,1-.93.94Zm-3.144-1.86h2.2048l-.24-24.1058-2.0135-.0036Z"/><path class="c" d="M228.4737,508.39l-.0224,0-4.122-.099a.93.93,0,0,1-.9077-.93l-.0025-26.4711a.9312.9312,0,0,1,.29-.6746.8974.8974,0,0,1,.6891-.2544l4.1245.2144a.93.93,0,0,1,.8817.9289V507.46a.93.93,0,0,1-.93.93Zm-3.1919-1.9372,2.2618.0542v-24.52l-2.2642-.1174Z"/><path class="c" d="M218.049,507.2666h-4.4775a.93.93,0,0,1-.93-.9426l.3524-26.1867a.93.93,0,0,1,.9756-.9166l4.125.2026a.93.93,0,0,1,.8848.9289v25.9843A.93.93,0,0,1,218.049,507.2666Zm-3.5346-1.86h2.6045V481.2379l-2.2781-.1121Z"/><path class="c" d="M209.9121,505.9861h-4.4775a.93.93,0,0,1-.93-.9428l.3524-25.7332a.93.93,0,0,1,1.1-.9017l4.4436.8269a.93.93,0,0,1,.76.9262l-.3185,24.9063A.93.93,0,0,1,209.9121,505.9861Zm-3.5346-1.86h2.6166l.2967-23.2051-2.5887-.4817Z"/><path class="c" d="M201.8939,504.6881h-4.4775a.93.93,0,0,1-.93-.93V478.1913a.93.93,0,0,1,1.0573-.9214l4.796.66a.93.93,0,0,1,.803.9332l-.3185,24.9063A.93.93,0,0,1,201.8939,504.6881Zm-3.5473-1.86h2.6293l.2961-23.1669-2.9254-.4027Z"/><path class="c" d="M193.8582,503.7834h-4.4775a.93.93,0,0,1-.93-.9428l.3525-25.7333a.93.93,0,0,1,1.1-.9016l4.4436.8269a.93.93,0,0,1,.76.9262l-.3185,24.9063A.93.93,0,0,1,193.8582,503.7834Zm-3.5347-1.86H192.94l.2968-23.205-2.5888-.4817Z"/><path class="c" d="M184.274,499.5839h-3.4571a.9306.9306,0,0,1-.93-.9505l.5214-23.8126a.93.93,0,0,1,1.1645-.88l3.5389.9225a.93.93,0,0,1,.6952.9247l-.6032,22.89A.9294.9294,0,0,1,184.274,499.5839Zm-2.5064-1.86h1.6005l.56-21.2463-1.6853-.4394Z"/><path class="c" d="M175.0126,500.1894l-.0406-.0009-2.1346-.0932a.93.93,0,0,1-.89-.9417l.3591-27.0442a.93.93,0,0,1,1.2656-.8551l2.2436.8684a.9307.9307,0,0,1,.5947.8841l-.4681,26.2691a.9306.9306,0,0,1-.93.9135Zm-1.1924-1.9132.2792.0121.44-24.6653-.3894-.1508Z"/><path class="c" d="M167.41,496.6315l-.0406-.0009-2.1346-.093a.93.93,0,0,1-.89-.9416l.3591-27.0443a.93.93,0,0,1,1.2657-.855l2.2436.8683a.9308.9308,0,0,1,.5946.8841L168.34,495.718a.9306.9306,0,0,1-.93.9135Zm-1.1924-1.913.2792.0121.44-24.6653-.3893-.1508Z"/><path class="c" d="M184.8771,443.6489a.93.93,0,0,1-.93-.93V416.8232a.93.93,0,0,1,.3312-.7118l3.5159-2.9569a.93.93,0,0,1,1.529.7188l-.2083,28.1479a.93.93,0,0,1-.7363.9028l-3.3076.7046A.934.934,0,0,1,184.8771,443.6489Zm3.3076-1.6347h0Zm-2.3774-24.758V441.57l1.4527-.3094.1877-25.3838Z"/><path class="c" d="M180.2943,444.276h-3.3022a.93.93,0,0,1-.93-.93V417.45a.93.93,0,0,1,.93-.93h3.3022a.93.93,0,0,1,.93.93v25.8955A.93.93,0,0,1,180.2943,444.276Zm-2.372-1.86h1.4418V418.38h-1.4418Z"/><path class="c" d="M172.878,444.276h-3.3021a.93.93,0,0,1-.93-.93v-25.67a.93.93,0,0,1,.93-.93h3.3021a.93.93,0,0,1,.93.93v25.67A.93.93,0,0,1,172.878,444.276Zm-2.372-1.86h1.4418v-23.81H170.506Z"/><path class="c" d="M166.2659,443.6489h-3.3027a.93.93,0,0,1-.93-.93V417.3113a.93.93,0,0,1,.2864-.6712.9127.9127,0,0,1,.6831-.258l3.3027.139a.93.93,0,0,1,.8908.9292v25.2685A.93.93,0,0,1,166.2659,443.6489Zm-2.3726-1.86h1.4424V418.342l-1.4424-.0606Z"/><path class="c" d="M158.52,442.6634h-3.3021a.93.93,0,0,1-.93-.93V415.8374a.93.93,0,0,1,1.1518-.9035l3.3021.81a.9305.9305,0,0,1,.7085.9035v25.0856A.93.93,0,0,1,158.52,442.6634Zm-2.372-1.86H157.59V417.377l-1.4418-.3536Z"/><path class="c" d="M170.3031,418.606c-6.5043,0-18.8056-1.0606-18.8056-5.0752s12.3013-5.0749,18.8056-5.0749,18.8063,1.0607,18.8063,5.0749S176.8081,418.606,170.3031,418.606Zm0-8.29c-11.18,0-16.9453,2.2533-16.9453,3.2146s5.7655,3.2149,16.9453,3.2149,16.946-2.2536,16.946-3.2149S181.4836,410.3162,170.3031,410.3162Z"/><path class="c" d="M184.8765,443.6492a.93.93,0,0,1-.4112-.0963l-4.5828-2.2627a.93.93,0,0,1,.8235-1.6683l4.5829,2.2627a.93.93,0,0,1-.4124,1.7646Z"/><path class="c" d="M176.9915,444.2763a.93.93,0,0,1-.4111-.0963l-4.1142-2.0311a.93.93,0,0,1,.8236-1.6683l4.1141,2.0311a.93.93,0,0,1-.4124,1.7646Z"/><path class="c" d="M169.8126,444.2763a.9251.9251,0,0,1-.4614-.1233l-3.5474-2.031a.93.93,0,0,1,.9241-1.6144l3.5474,2.031a.93.93,0,0,1-.4627,1.7377Z"/><path class="c" d="M162.7367,443.3246a.9253.9253,0,0,1-.4615-.1232l-3.5473-2.0311a.93.93,0,1,1,.9241-1.6144l3.5473,2.0311a.93.93,0,0,1-.4626,1.7376Z"/><path class="c" d="M155.2175,442.5177a.9253.9253,0,0,1-.4615-.1232l-3.1882-1.8255a.93.93,0,0,1-.4681-.8072v-26.231a.93.93,0,0,1,1.86,0v25.6918l2.72,1.5575a.93.93,0,0,1-.4626,1.7376Z"/><rect class="c" x="149.372" y="412.9362" width="3.5879" height="27.513" rx="0.9301"/><path class="c" d="M162.02,418.1346a.93.93,0,0,1-.6976-1.5448l6.8816-7.8184a.9577.9577,0,0,1,.706-.3155l3.5638.03a.9293.9293,0,0,1,.6776.3013l6.8,7.4078a.93.93,0,0,1-1.371,1.2577l-6.5261-7.11-2.7347-.0234-6.6006,7.4993A.9286.9286,0,0,1,162.02,418.1346Z"/><path class="c" d="M295.6556,584.4115a.93.93,0,0,1-.93-.93v-23.575a.9308.9308,0,0,1,.5886-.8653l10.7844-4.2553a.93.93,0,0,1,1.2717.8654v23.92a.9308.9308,0,0,1-.6128.8745l-10.7844,3.91A.9385.9385,0,0,1,295.6556,584.4115Zm.93-23.8724v21.6158l8.9241-3.2359V557.0181Zm9.8542,19.0321h0Z"/><path class="c" d="M295.6556,560.8365a.9352.9352,0,0,1-.2731-.0409l-36.49-11.1971a.93.93,0,0,1,.0345-1.7882l15.0227-3.9831a.9275.9275,0,0,1,.5371.0179L306.7386,554.77a.93.93,0,0,1,.043,1.7464l-10.7844,4.2553A.9346.9346,0,0,1,295.6556,560.8365Zm-33.1071-12.0622,33.0684,10.1474,8.12-3.204-29.5821-10.0205Z"/><path class="c" d="M286.66,585.9063a.93.93,0,0,1-.93-.93V562.3213a.93.93,0,0,1,.5705-.8578l7.1292-2.9878a.9361.9361,0,0,1,.6328-.0315l1.8663.5729a.93.93,0,0,1,.6571.91l-.4857,22.08a.93.93,0,0,1-.6219.8569l-8.51,2.99A.9272.9272,0,0,1,286.66,585.9063Zm.93-22.9664v20.7237l6.6642-2.3414.456-20.7331-.872-.2677Z"/><path class="c" d="M286.66,563.2514a.93.93,0,0,1-.2725-.0409L250.5821,552.229a.93.93,0,0,1,.06-1.7948l9.5842-2.24a.9254.9254,0,0,1,.4851.0164l32.7928,10.0625a.93.93,0,0,1,.13,1.7277l-6.5715,3.1589A.9314.9314,0,0,1,286.66,563.2514Zm-32.2376-11.79,32.1625,9.8642,4.1008-1.9714-30.28-9.2913Z"/><path class="c" d="M286.66,585.9063a.9236.9236,0,0,1-.2429-.0324l-36.3262-9.8267a.93.93,0,0,1-.6873-.918l.5207-23.81a.93.93,0,0,1,1.2027-.869l35.8055,10.9815a.93.93,0,0,1,.6576.8893v22.6549a.93.93,0,0,1-.93.93Zm-35.38-11.4645,34.45,9.3193V563.0089L251.7575,552.59Z"/><path class="c" d="M279.8088,576.0451a3.7665,3.7665,0,1,1,3.7665-3.7663A3.7706,3.7706,0,0,1,279.8088,576.0451Zm0-5.6726a1.9062,1.9062,0,1,0,1.9063,1.9063A1.9083,1.9083,0,0,0,279.8088,570.3725Z"/><path class="c" d="M265.6605,572.475a3.7665,3.7665,0,1,1,3.7666-3.7663A3.7706,3.7706,0,0,1,265.6605,572.475Zm0-5.6726a1.9062,1.9062,0,1,0,1.9063,1.9063A1.9083,1.9083,0,0,0,265.6605,566.8024Z"/><path class="c" d="M252.7918,568.924a3.7665,3.7665,0,1,1,3.7659-3.7666A3.7708,3.7708,0,0,1,252.7918,568.924Zm0-5.6726a1.9062,1.9062,0,1,0,1.9057,1.906A1.9083,1.9083,0,0,0,252.7918,563.2514Z"/><path class="d" d="M278.541,571.05a2.4379,2.4379,0,0,1,1.3886.7025,2.4792,2.4792,0,0,1,.6778,1.7255l-13.7427,5.67a1.6287,1.6287,0,0,0,.37-2.0338,1.6062,1.6062,0,0,0-1.5739-.7394Z"/><path class="c" d="M266.8656,580.0778a.93.93,0,0,1-.6147-1.6287.7.7,0,0,0,.1847-.859.6745.6745,0,0,0-.6673-.2918.93.93,0,0,1-.4633-1.7834l12.8809-5.3247a.9345.9345,0,0,1,.4887-.0608,3.3243,3.3243,0,0,1,2.863,3.3614.9306.9306,0,0,1-.5752.8469l-13.7426,5.67A.9286.9286,0,0,1,266.8656,580.0778Zm1.0445-3.6267q.0654.09.1236.1868a2.4262,2.4262,0,0,1,.3161.8908l11.2258-4.6313a1.4336,1.4336,0,0,0-.313-.4972,1.4688,1.4688,0,0,0-.6329-.38Z"/><path class="d" d="M263.6659,567.001a2.4392,2.4392,0,0,1,1.3886.7025,2.48,2.48,0,0,1,.6778,1.7256l-13.7427,5.67a1.6286,1.6286,0,0,0,.37-2.0337,1.6065,1.6065,0,0,0-1.5739-.74Q257.2256,569.6635,263.6659,567.001Z"/><path class="c" d="M251.99,576.029a.93.93,0,0,1-.6146-1.6286.7088.7088,0,0,0,.1847-.859.678.678,0,0,0-.6674-.2922.93.93,0,0,1-.4632-1.7834l12.8808-5.3243a.9334.9334,0,0,1,.4887-.0609,3.3243,3.3243,0,0,1,2.8631,3.3615.9306.9306,0,0,1-.5753.8468l-13.7425,5.67A.93.93,0,0,1,251.99,576.029Zm1.0446-3.627q.0654.09.1235.1871a2.4135,2.4135,0,0,1,.3161.8908l11.2259-4.6313a1.4355,1.4355,0,0,0-.3131-.4972,1.47,1.47,0,0,0-.6328-.38Z"/><path class="d" d="M251.5484,563.9449a2.4391,2.4391,0,0,1,1.3886.7025,2.4785,2.4785,0,0,1,.6777,1.7255l-13.7427,5.67a1.6285,1.6285,0,0,0,.37-2.0337,1.6064,1.6064,0,0,0-1.5739-.74Z"/><path class="c" d="M239.8728,572.9728a.93.93,0,0,1-.6147-1.629.6985.6985,0,0,0,.1847-.8587.6739.6739,0,0,0-.6673-.2919.93.93,0,0,1-.4633-1.7833l12.8809-5.3247a.9386.9386,0,0,1,.4887-.0609,3.3247,3.3247,0,0,1,2.8631,3.3618.9309.9309,0,0,1-.5753.8469l-13.7426,5.67A.9278.9278,0,0,1,239.8728,572.9728Zm1.0446-3.6267q.0654.09.1235.1868a2.4267,2.4267,0,0,1,.3167.8908l11.2252-4.631a1.4337,1.4337,0,0,0-.313-.4975,1.4682,1.4682,0,0,0-.6328-.38Z"/><line class="e" x1="267.0483" y1="197.1544" x2="267.0483" y2="217.9981"/><line class="f" x1="262.0203" y1="267.8832" x2="262.0203" y2="375.6317"/><line class="f" x1="272.0644" y1="269.1387" x2="272.0644" y2="324.9313"/><line class="e" x1="275.4883" y1="516.0675" x2="275.4883" y2="537.1138"/><line class="e" x1="171.6575" y1="391.1843" x2="171.6575" y2="402.4203"/><line class="e" x1="176.1972" y1="192.1324" x2="176.1972" y2="227.4602"/><line class="e" x1="236.8517" y1="197.1544" x2="236.8517" y2="436.5319"/><text class="g" transform="translate(0 344.5214)">Motor</text><text class="g" transform="translate(6.7793 430.8563)">Piñón<tspan x="-4.5146" y="36">motor</tspan></text><text class="g" transform="translate(400.1 259.05) rotate(-0.0286)">Diodo emisor<tspan x="0" y="36">de luz</tspan></text><text class="g" transform="translate(400.1744 474.2887) rotate(-0.0286)">Engranaje<tspan x="0" y="36">de cubierta</tspan></text><text class="g" transform="translate(400.2191 577.3283) rotate(-0.0286)">Sensor<tspan x="0" y="36">apertura</tspan></text><line class="e" x1="275.9915" y1="248.327" x2="386.746" y2="248.327"/><circle class="h" cx="275.9915" cy="248.327" r="4.5117"/><line class="e" x1="308.0942" y1="468.2309" x2="386.746" y2="468.2309"/><path class="h" d="M308.0942,472.7427a4.5118,4.5118,0,1,1,4.5116-4.5118A4.5123,4.5123,0,0,1,308.0942,472.7427Z"/><line class="e" x1="154.746" y1="333.2308" x2="94.0942" y2="333.2308"/><circle class="h" cx="154.746" cy="333.2308" r="4.5117"/><line class="e" x1="154.746" y1="427.2308" x2="94.0942" y2="427.2308"/><circle class="h" cx="154.746" cy="427.2308" r="4.5117"/><line class="e" x1="308.0942" y1="567.7495" x2="386.746" y2="567.7495"/><path class="h" d="M308.0942,572.2612a4.5117,4.5117,0,1,1,4.5116-4.5117A4.5123,4.5123,0,0,1,308.0942,572.2612Z"/></svg>