<svg xmlns="http://www.w3.org/2000/svg" viewBox="0 0 389.9824 530.2589"><defs><style>.a{fill:#d91519;}.b{opacity:0.5;}.c{fill:#606060;}</style></defs><title>sensor</title><path class="a" d="M104.1994,207.6376l-6.3728-1.9288a1.1947,1.1947,0,0,0-1.0337.1668L80.2022,217.5687a1.1957,1.1957,0,0,0-.506.951l-.7209,34.6023-14.6316-2.19V216.5687L100.129,196.29a1.1939,1.1939,0,0,0-1.1769-2.0777L62.5615,214.8343a1.1934,1.1934,0,0,0-.6055,1.0388v36.088a1.1678,1.1678,0,0,0,.1869.6067l-1.2316.6439V215.2871l38.4536-21.3636a1.1937,1.1937,0,1,0-1.16-2.0869l-38.65,21.4724L23.16,203.8861l47.6967-25.4083,27.7049,6.9763a1.1939,1.1939,0,1,0,.583-2.3155L70.994,176.05a1.19,1.19,0,0,0-.8527.1041l-6.7565,3.5992-4.6219-1.7306a1.194,1.194,0,0,0-.98.0641L11.78,202.5753a1.1944,1.1944,0,0,0-.6327,1.054V210L4.398,208.2722a1.1937,1.1937,0,0,0-.956.1617,7.7944,7.7944,0,0,0-3.2482,4.5855,7.4378,7.4378,0,0,0,.8176,5.39,1.1939,1.1939,0,0,0,.7215.5506l9.4145,2.5248v16.9438a1.1937,1.1937,0,0,0,.7632,1.1134L18.7,242.1677v2.7048a1.194,1.194,0,0,0,.8946,1.1557L59.4182,256.339a1.1925,1.1925,0,0,0,.3.0385l.0111-.0018a1.1942,1.1942,0,0,0,.3312-.0553c.0344-.01.0662-.024.0994-.0374a1.163,1.163,0,0,0,.111-.0419l4.9285-2.577a1.14,1.14,0,0,0,.197-.16l14.5679,2.18a1.1983,1.1983,0,0,0,.1743.013l.0022,0h.0016l.005-.0009a1.1925,1.1925,0,0,0,.37-.0672,1.1564,1.1564,0,0,0,.1113-.0486,1.1921,1.1921,0,0,0,.1368-.06l12.5333-7.6977a1.194,1.194,0,1,0-1.25-2.0348L81.38,252.3416l.691-33.169,15.6214-11.01,5.8156,1.76a1.1938,1.1938,0,1,0,.6916-2.2852ZM2.8579,216.7891a4.9683,4.9683,0,0,1-.3409-3.2178,5.2767,5.2767,0,0,1,1.836-2.846l6.7944,1.7395v6.5475ZM13.5351,237.61V204.3463L58.43,180.4478l2.1444.803L19.3327,203.22c-.0123.0065-.019.0186-.0311.0256a1.1761,1.1761,0,0,0-.1383.0839,1.197,1.197,0,0,0-.1941.19l-.0056.0078a1.1856,1.1856,0,0,0-.1909.3595c-.0079.0224-.0171.043-.0235.0658a1.1835,1.1835,0,0,0-.0491.3214v35.3341Zm7.5527-31.7936,37.4358,9.6925v38.1323l-37.4358-9.6926Z"/><g class="b"><path class="c" d="M236.6943,93.477c33.6338,40.1149,35.9935,40.2479,37.1274,40.3116.5426.0307,1.2337.1049,2.03.19a56.6474,56.6474,0,0,0,6.05.4081,19.5323,19.5323,0,0,0,7.0327-1.1122,7.648,7.648,0,0,0,4.7266-6.6056,8.0788,8.0788,0,0,0-3.7737-7.71,438.8392,438.8392,0,0,1-84.1295-66.7658,1.1939,1.1939,0,0,0-1.7838,1.5837C204.1354,53.9744,220.2271,73.8371,236.6943,93.477Zm51.9608,27.526a5.7085,5.7085,0,0,1,2.6272,5.4638,5.2091,5.2091,0,0,1-3.2179,4.5835c-3.668,1.436-8.658.9055-11.96.5534-.7976-.0847-1.4909-.1585-2.063-.1939-3.6834-1.46-31.7979-34.7018-55.0068-62.9522A445.4562,445.4562,0,0,0,288.6551,121.003Z"/><path class="c" d="M341.405,251.3167v5.1556c0,1.4006,1.842,3.7713,8.7466,3.7713,6.5134,0,8.2522-2.04,8.535-2.4484a1.1946,1.1946,0,0,0,.2114-.6785v-5.8c0-.0073-.0027-.0141-.0028-.0213a1.5992,1.5992,0,0,0-.037-.28l-.0038-.0151a2.0649,2.0649,0,0,0-.5828-1.0339c-1.1777-1.1958-3.8335-1.7772-8.12-1.7772C342.5412,248.1894,341.405,250.1489,341.405,251.3167Zm15.1052,5.2749c-.5813.4035-2.2976,1.2643-6.3586,1.2643-4.4554,0-6.0767-1.07-6.3589-1.513v-3.2851c2.5984.8729,7.7563,2.0788,12.7175.1419Zm-1.1982-5.5149a16.826,16.826,0,0,1-10.0367-.0694,21.5389,21.5389,0,0,1,4.8763-.43A20.133,20.133,0,0,1,355.312,251.0767Z"/><path class="c" d="M389.967,309.1154a1.1734,1.1734,0,0,0-.0657-.3255,1.1216,1.1216,0,0,0-.053-.1233,1.1752,1.1752,0,0,0-.17-.2525c-.0249-.0287-.0449-.06-.0725-.0856a1.1814,1.1814,0,0,0-.3349-.23l-.0174-.0076h0l-13.8225-6.0925,1.3888.128c.0365.0035.0731.0051.11.0051a1.1859,1.1859,0,0,0,.359-.0665,1.0759,1.0759,0,0,0,1.1451-.2569l2.7461-2.5778a1.1959,1.1959,0,0,0,.3769-.848l.0411-2.1653,3.9284-1.2286a1.1938,1.1938,0,0,0,.8371-1.1395v-39.31a1.1941,1.1941,0,0,0-1.1939-1.1939h-4.0722v-3.6795a1.1821,1.1821,0,0,0-.3147-2.0443l-3.4332-1.2887a1.1954,1.1954,0,0,0-.62-.059l-7.3521,1.2545-6.3589-1.0851v-2.8591a1.1938,1.1938,0,0,0-1.0354-1.1834l-4.8056-.6448a1.2,1.2,0,0,0-.9756.3129l-1.9275,1.8091a62.1457,62.1457,0,0,1-8.4209.44V227.473a1.1728,1.1728,0,0,0-.5374-.9707,1.1937,1.1937,0,0,0-.676-.5006l-.1936-.0545v-4.0483l.1143-.0238a1.1935,1.1935,0,0,0,.95-1.1685v-2.5779a1.194,1.194,0,0,0-1.1938-1.1939h-2.6443v-4.3606a1.1838,1.1838,0,0,0,.16-1.6138l-.7858-1.03c.11-.2439.17-.41.1937-.481a1.1854,1.1854,0,0,0,.06-.368l.3716-64.1422a1.1953,1.1953,0,0,0-.2915-.7889L328.0112,128.724a1.1939,1.1939,0,0,0-.2636-.2266c-1.0027-.6354-100.442-63.9354-115.0755-95.8429a1.2016,1.2016,0,0,0-.1631-.2612c-.59-.7162-14.6143-17.5805-29.1016-21.3211C169.3217,7.4354,145.9113.128,145.6767.0545a1.1906,1.1906,0,0,0-.6809-.0093L110.4519,9.8068l-.01.0051a1.19,1.19,0,0,0-.4233.2235l-.0071.0038c-.5029.4194-12.2939,10.3994-11.4809,21.7246.7656,10.6722-.9227,160.1024-.94,161.6106a1.1918,1.1918,0,0,0,.2983.8029l4.26,4.8329a1.1531,1.1531,0,0,0,.1726.4049l-.0493,8.4448a1.187,1.187,0,0,0,.0466.337,11.0138,11.0138,0,0,0,1.3978,2.7581l-.5909,2.0411-7.27-.5686a1.194,1.194,0,0,0-1.2607.9417l-.6863,3.2221a1.194,1.194,0,0,0,.2051.9557,1.1627,1.1627,0,0,0,.1112.0987v4.3954l-.6242.0532a1.1931,1.1931,0,0,0-1.0781,1.01l-.3435,2.2556c-.0046.03.0066.0592.0044.0893s-.0183.0585-.0183.0907v36.7323a1.1924,1.1924,0,0,0,.377.87l.9964.9353v4.6385a1.1926,1.1926,0,0,0,.2611.7454l2.06,2.5778a1.1763,1.1763,0,0,0,1.3055.385,1.1527,1.1527,0,0,0,.3144.0635h2.2642v7.1838a1.1945,1.1945,0,0,0,.5019.9732l2.7212,1.933a220.2384,220.2384,0,0,1,.292.1455,1.1918,1.1918,0,0,0,.3916.074l.0067.0013h.0016l.0009,0c.0365,0,.0737-.0015.1109-.0049l6.378-.5986,1.2821,4.8693a1.1917,1.1917,0,0,0,.5207.7081l2.06,1.2887a1.1675,1.1675,0,0,0,.1122.05,1.11,1.11,0,0,0,.11.049,1.19,1.19,0,0,0,.411.083h7.2985l.0106-.0021,3.1669,1.3185v2.6454a1.1944,1.1944,0,0,0,.8379,1.1394l3.2839,1.0268v55.1877a1.1935,1.1935,0,0,0,.95,1.1686l12.78,2.6656-.3493,143.58a1.1938,1.1938,0,0,0,.85,1.1461l103.342,31.0894a1.2048,1.2048,0,0,0,.3442.0505,1.1925,1.1925,0,0,0,.653-.1943l48.7336-31.8387a1.1945,1.1945,0,0,0,.5411-1.0019l-.3266-159.0422,11.2837-6.5686a1.189,1.189,0,0,0,.4026-.3953v.0078a1.1931,1.1931,0,0,0,.666,1.0707l7.5774,3.7368c0,.0078-.0044.0142-.0044.0221l-.2612,82.5069a1.1945,1.1945,0,0,0,.6241,1.0532l24.2926,13.19c.0226.0122.0476.017.0708.0277.0283.0131.0565.0226.086.0335a1.1185,1.1185,0,0,0,.7409.0376l40.8826-11.692a1.1939,1.1939,0,0,0,.866-1.148V340.6063l5.1943-1.8209a1.1938,1.1938,0,0,0,.7991-1.1267V309.1911C389.9824,309.1642,389.9688,309.1418,389.967,309.1154Zm-39.7129,11.7937-37.5808-19.7285,6.0736-2.0357v.504a1.1947,1.1947,0,0,0,.56,1.0121l4.12,2.5774a1.1714,1.1714,0,0,0,.1769.0786.8316.8316,0,0,0,.4282.0993c.01,0,.0186.0043.0284.0043l.0065-.0012a1.1889,1.1889,0,0,0,.3656-.0667c.0158-.0051.0319-.0027.0475-.0086l6.7766-2.5437,3.8634,1.8124v1.547a1.1937,1.1937,0,0,0,.8046,1.1286l5.5986,1.9334c.0091.0032.0187.0018.0279.0047a1.0787,1.0787,0,0,0,.6838.0107c.0291-.0082.0564-.0185.0849-.0289.0333-.0122.0676-.0189.1-.0343l5.4929-2.5777a1.1961,1.1961,0,0,0,.6863-1.09l-.0014-.1845,5.8526-.4986v.0476a1.1931,1.1931,0,0,0,.4772.9549l3.4332,2.5774.0092.0048a1.2019,1.2019,0,0,0,.2649.1385c.0244.01.0456.0278.07.036a1.19,1.19,0,0,0,.3721.06l.01-.0015a1.1887,1.1887,0,0,0,.3106-.0477c.0122-.0034.0244-.0018.0366-.0056l6.1793-1.9331a1.1936,1.1936,0,0,0,.837-1.1394v-2.1227l2.3882-.6432c.0122.0294.0354.0517.05.08a1.1821,1.1821,0,0,0,.6928,1.2007l15.9091,7.0121Zm-52.1055-26.2848a1.1293,1.1293,0,0,0-.1787-.0361h-3.6128V260.5658h3.7915Zm-12.03-1.2553V264.2653l2.1686-.5088a1.1939,1.1939,0,0,0,.3552-2.1779l3.3275-.7808v33.57ZM275.1323,298.89V265.1464l.499-.0585,2.6062.4076v34.852Zm-2.3877-.3276-7.2248,2.6082V268.9842l.6086-.0437a1.194,1.194,0,0,0,.9677-1.7524l-.551-1.0341,6.2-.7274Zm-9.6126,3.4595-5.0256,1.7474V269.4968c1.3809-.0879,3.3494-.2243,5.0256-.3426Zm-9.4919.7191v-34.41a11.0358,11.0358,0,0,0,2.0785,1.1042V303.67Zm-18.2687,11.748-15.1676-4.1519v-1.7823l9.6043-1.234,2.6259,3.9445c.0175.0262.041.0452.06.07a1.1575,1.1575,0,0,0,.1.1158,1.1817,1.1817,0,0,0,.1176.0989c.0236.0179.0426.0406.0678.0569.0133.0086.0289.0114.0425.0194a1.1836,1.1836,0,0,0,.2011.092c.0313.0114.0608.0264.0928.0351a1.1972,1.1972,0,0,0,.3075.0441l.0043.0006h.0007a1.1874,1.1874,0,0,0,.4334-.0933c.0183-.0071.0384-.004.0564-.0121l8.5825-3.8664a1.1938,1.1938,0,0,0,.7033-1.0886v-1.5252l8.07-1.546a1.1848,1.1848,0,0,0,.6845.9392l1.9851.8869Zm-103.74-57.0081,4.4786-.6467v35.9388l-4.4786.467Zm6.8663.0646,5.5847,2.6208-.2029.1268a1.1914,1.1914,0,0,0-.2168,1.8477v32.4707l-5.165-3.3452Zm7.5527,5.2627,1.0447.196V298.57l-1.0447-.3925Zm3.4324.09,3.7922-.6469v35.2306l-3.7922,1.1864Zm6.18-.9474,7.5675,2.1854v1.0353a1.181,1.181,0,0,0,.3435.8183V297.91l-7.911-3.545Zm10.2987,37.8281v-32.8l2.419.8514v35.6235l-2.419-1.2973Zm4.8067-31.7981,3.3825-2.1162v36.2319l-3.3825,1.5109Zm5.77-1.8291,7.091,1.1743-.2666.3763a1.1934,1.1934,0,0,0-.1065,1.2,1.1782,1.1782,0,0,0,.2293.3181v33.295l-6.9472-2.258Zm9.335,3.55,5.3233.3843-.1521,38.3372-5.1712-1.3241Zm7.7106.4769a1.1888,1.1888,0,0,0,.2424-.0885l2.7048-1.45v36.8338l-.7817.55-.0063.0045-2.3079,1.6245Zm13.2461-1.9734v35.4109l-7.9112.04v-35.946Zm2.7395,2.1509-.3518,19.8251V269.9437Zm8.2463,1.1649v37.2321l-.8115-.654V271.5213ZM251.2524,301.24l-8.0479,1.5419v-33.97l8.0479-.944Zm-16.63-29.7182h6.1948v34.4449l-6.1948,2.7908Zm-2.3877,35.1352-1.0447-1.569V271.5213h1.0447Zm-3.4323-1.6136-8.5982,1.1048V271.1614a1.1881,1.1881,0,0,0,.3428-.8339v-.74h8.2554Zm-14.1851,1.9823-3.3235.78.6441-36.2838h2.6794Zm-15.6978-.9319v-.0488l8.39-.0428,1.0874,2.0412-9.4975-1.7818A1.1756,1.1756,0,0,0,198.9191,306.0933Zm81.7061-40.5391,3.1052-.7286V300.52l-3.1052.3645Zm19.9111-5.1743,2.419-.6486v34.6921l-2.419,1.2973Zm4.8067-1.4661a1.1854,1.1854,0,0,0-.1641-1.8068l-.9294-.6545,5.9607-2.331h1.01l-2.5515,3.5925a1.1926,1.1926,0,0,0-.2207.6914v31.6922a1.184,1.184,0,0,0-.9148.2331l-2.19,1.7131Zm30.65,7.18-1.2654,1.98a1.1767,1.1767,0,0,0,.3924,1.6585v30.2443l-2.9993-1.4072V264.64Zm32.7514,32.2093-2.2937.6178V268.0719l0-.0019a1.1957,1.1957,0,0,0-.0837-.4139c-.01-.0271-.0185-.0534-.0306-.08-.01-.0217-.0141-.045-.0254-.0662l-.7834-1.4691,3.217-1.51Zm-8.4729-28.4439,3.7915-.4448V302.638l-3.7915,1.186Zm-3.4331-1.8464,1.0454.785v34.2619l-1.0454-.7846Zm-2.3878,32.4147-5.8706.5-.2518-33.5949h6.1224Zm-8.5026-32.05.2581,34.3823-3.1,1.4545v-34.17Zm-8.44,1.7241,3.2108.3348v33.9817l-3.2108-1.1088Zm-12.2637,30.4054-.208-35.0931,4.6966-1.0173V298.822ZM322.6513,265.93l.2019,34.1332-1.7185-1.0758V291.65a1.1123,1.1123,0,0,0-.0333-.1647,1.1788,1.1788,0,0,0,.0333-.2138V265.6743l.0488.0459a1.1909,1.1909,0,0,0,1.07.2962Zm-3.2173-4.0946a1.1794,1.1794,0,0,0-.3033.2135c-.0224.0208-.0415.0423-.0621.0647a1.1855,1.1855,0,0,0-.2264.3355l-.0035.0124a1.1841,1.1841,0,0,0-.077.2673,1.1581,1.1581,0,0,0-.0049.138c-.0007.0173-.01.0319-.01.0493V290.89l-.8612,1.2126-2.7835.4353-.4082-.7671a1.1761,1.1761,0,0,0,.6072-.309,1.1972,1.1972,0,0,0,.3406-.8605l-.6622-31.0872,7.2721-.5249,1.0826,1.0159Zm-7.4021-4.7334.54,1.5194.6566,30.8115h-2.3924V258.7863Zm-2.7693,42.7035a1.1809,1.1809,0,0,0-.624.5066v-7.8147l.3653-.2858a1.1655,1.1655,0,0,0,.3382-.4515,1.152,1.152,0,0,0,.3.0606h2.3758l.0034.0116,1.3727,2.5778a1.1953,1.1953,0,0,0,1.0539.6327,1.1832,1.1832,0,0,0,.1842-.0144l4.1149-.6436v2.2415Zm61.87-.6012v-34.65l5.026,1.1794-.4075,33.8963Zm7.0166-.4039.3989-33.1879,1.2656-1.1881-.6349,33.41Zm3.4963-5.1.5973-31.4056a1.1941,1.1941,0,0,0-1.1714-1.2161,1.0857,1.0857,0,0,0-.36.0571c-.0139-.0043-.0257-.0129-.04-.0167l-3.7114-.9952.2634-1.2363,6.7513-.4874v34.5716Zm-4.828-40.3551-.7959-.996,2.6877-1.4016v2.3976Zm-21.0421-7.602,1.6462-1.5452,3.2086.43V247.45a1.1941,1.1941,0,0,0,.9933,1.1767l7.5526,1.2887a1.1955,1.1955,0,0,0,.4012,0l7.2348-1.2343.6272.2356-3.8078,1.9855a1.1938,1.1938,0,0,0-.3809,1.804l2.06,2.5778a1.1947,1.1947,0,0,0,.9326.4484h7.7323v.2733l-7.8185.5643a1.1931,1.1931,0,0,0-1.0813.9421l-.6862,3.2221a1.1932,1.1932,0,0,0,.8581,1.4018l2.7344.7333-.7158.6716-7.6165-1.7873a1.2039,1.2039,0,0,0-.78.0816l-5.4929,2.5777a1.1952,1.1952,0,0,0-.5465,1.6421l.5512,1.0344-3.2818.3852-3.0515-2.2913a1.1933,1.1933,0,0,0-.7165-.2391h-8.9253a1.1956,1.1956,0,0,0-.604.164l-5.1548,3.024-3.8654-.403,1.0175-1.5923a1.1941,1.1941,0,0,0-.5861-1.7608l-6.8663-2.5779a1.2015,1.2015,0,0,0-.3858-.0692c-.0119,0-.0219-.0069-.0339-.0069-.0251,0-.0463.0128-.071.0143a1.1725,1.1725,0,0,0-.1817.0129l-8.3136,1.8-.32-.3,3.9-1.83a1.1938,1.1938,0,0,0,.31-1.9513l-2.7461-2.5778a1.2,1.2,0,0,0-.9033-.32l-8.019.579-.6684-1.8817,3.2562-1.1461h.3674a1.1941,1.1941,0,0,0,.42-.0762l3.4331-1.2887a1.1939,1.1939,0,0,0-.0232-2.2439l-2.8984-1.02,3.0774-1.6047a1.1544,1.1544,0,0,0,.3059.1026l10.3,1.2887a1.2011,1.2011,0,0,0,.1479.0093h.0014l.0033-.0006a1.1783,1.1783,0,0,0,.3051-.04l4.8059-1.2888a1.1936,1.1936,0,0,0,.789-1.6209l-.7906-1.8554,1.5933-.2991,5.1442,2.4141a1.1938,1.1938,0,0,0,.5075.1131C354.7436,246.7107,355.44,246.0574,355.775,245.743Zm-12.5139-14.7268.2036-.3184v12.55l-1.7318-.5417V231.5669h.5224A1.1938,1.1938,0,0,0,343.2611,231.0162Zm-3.9159,3.76-1.0679-.2226v-2.9862h1.0679ZM337.9718,239.3v2.6485l-2.4594.4621a1.1943,1.1943,0,0,0-.8774,1.6412l.8339,1.9571-1.9751.53V239.3Zm-6.8656,3.327-2.8293-.2654,2.8293-2.1244Zm10.9516-17.352-3.2078-.9032.2916-1.3664,2.9162-.6083Zm-4.0775-8.34.0482-2.516,1.2553-.6173v3.1333Zm.9335-8.0959c-.4734,1.0579-3.8638,7.522-18.2976,13.9344-14.54,6.46-43.4972,14.15-98.9285,14.15h-.3809c-55.684-.0354-84.4817-8.0649-98.8347-14.7945-14.3039-6.707-17.4121-13.45-17.8093-14.4621l.0513-8.9a1.1811,1.1811,0,0,0-.2232-.6708l.2691-46.4329c5.61,7.5274,23.3031,24.7387,71.07,32.0714,31.7031,4.8673,56.2475-3.2284,71.2534-10.8778,14.478-7.38,22.9231-15.5709,24.8677-17.57,5.7046.5994,46.6123,4.053,60.3164-18.0058l7.0141,8.0937ZM210.57,33.7971c13.5186,29.07,91.8665,81.16,111.5423,93.9167a8.4873,8.4873,0,0,1-2.4681,4.8188c-4.15,4.4915-16.8048,11.6739-55.0656,10.4892-2.0337-3.4-11.3418-13.2388-36.8086-39.6021-13.2905-13.7576-27.0324-27.983-37.2644-39.094-21.823-23.6976-23.4477-39.11-23.5194-42.4984l19.2084-7.311C198.1518,19.3466,209.4173,32.4323,210.57,33.7971Zm50.5484,109.0957c-30.84-28.9546-76.4748-73.32-90.0041-91.6289a1.1722,1.1722,0,0,0-.1653-.2278c-2.0213-2.7579-3.2986-4.9118-3.6509-6.3026-2.9126-11.4949-2.82-19.0225-2.655-21.655.4048,5.4158,3.54,20.5321,24.1059,42.8646C199,77.0752,212.7521,91.3111,226.052,105.0788c15.48,16.025,31.4147,32.5211,35.5983,37.834C261.4711,142.9055,261.2985,142.9,261.1181,142.8928ZM108.6164,37.865c-.6311-2.9946-2.624-14.9917,2.9876-25.9026L119.36,9.7707l42.9075,12.9462c-.1962,2.6769-.3612,10.4591,2.7153,22.6035a17.5363,17.5363,0,0,0,2.44,4.73Zm36.688-35.4259c2.93.9121,24.07,7.464,37.2969,10.89L163.507,20.5967,123.6289,8.5644Zm-44.392,29.1536c-.4212-5.8627,3.1908-11.5327,6.3175-15.2766a44.6838,44.6838,0,0,0-.8012,22.71l-.5107,88.0816a1.194,1.194,0,0,0,1.1869,1.2008h.007a1.1943,1.1943,0,0,0,1.194-1.1869l.5029-86.7779,60.6377,12.5644c15.7314,21.1051,67.823,70.8058,89.6155,91.3128-3.4478,4.4136-22.95,25.8341-76.6418,26.2037-31.0858.2125-48.2938-8.6273-57.286-16.08-9.7009-8.04-12.15-16.2393-12.1726-16.3191a1.1959,1.1959,0,0,0-.5954-.7317l-8.1458-4.2621a1.1938,1.1938,0,1,0-1.1067,2.1157l7.7135,4.0359c.6911,1.9937,3.727,9.4379,12.6337,16.8756,9.19,7.6735,26.6586,16.7582,57.8611,16.7574.3684,0,.743-.0011,1.1153-.0039,31.7963-.2188,51.5871-7.7827,62.5907-14.09,9.2805-5.3192,14.0161-10.5816,15.7884-12.852,4.36,4.0951,7.2014,6.7361,7.8335,7.3229a1.194,1.194,0,1,0,1.6245-1.75c-2.06-1.9124-4.2361-3.9406-6.502-6.0614l.0471.0017c.0077,0,.0144.004.0222.004l.0452-.0008.0029-.0007c37.6633,1.25,52.0833-5.3619,57.5076-11.2327a11.6353,11.6353,0,0,0,2.877-5.0422c.99.6365,1.6877,1.0813,2.047,1.3094l4.3128,4.9767c-13.1916,22.654-58.5372,17.5078-58.9973,17.4525a1.1981,1.1981,0,0,0-1.0221.3781c-.3428.3735-34.9714,37.2717-94.4227,28.147-59.251-9.0963-71.4011-34.0484-71.5161-34.2964a1.1938,1.1938,0,0,0-2.2805.487l-.2767,47.7995-2.1345-2.4217C100.1064,182.1348,101.6718,42.1721,100.9124,31.5927ZM96.7136,214.89l7.196.5631a1.1907,1.1907,0,0,0,1.24-.8585l.3726-1.2874c7.7206,8.8368,33.3154,25.952,115.7831,26.0044h.3911c75.5782,0,103.6758-13.92,113.9029-22.7649l-.03,1.56a1.1949,1.1949,0,0,0,1.1938,1.2168h6.3588v.4135l-5.23,1.0905a1.1944,1.1944,0,0,0-.9235.92l-.6863,3.2222a1.1935,1.1935,0,0,0,.8443,1.3979l5.3164,1.497-.8411,1.3155h-4.1521a1.1921,1.1921,0,0,0-.95.471l-3.4332,4.51a1.194,1.194,0,0,0,.7058,1.8919l4.1218.86h-5.9375a1.1939,1.1939,0,0,0-.7166.239l-6.8664,5.1556a1.1941,1.1941,0,0,0,.6055,2.1437l4.23.3968-.471.4423h-7.08a1.1916,1.1916,0,0,0-.5518.1352l-6.18,3.2222a1.1939,1.1939,0,0,0,.1553,2.1848l2.1216.7467-.4413.1553h-6.7767a1.1959,1.1959,0,0,0-.4346.0821l-8.239,3.2221a1.1936,1.1936,0,0,0-.2524,2.0881l.66.4648-2.19.5873H292.82a1.195,1.195,0,0,0-.273.0315l-8.239,1.9334a1.194,1.194,0,0,0-.3552,2.1779l-4.2244.991-3.8894-.6082a1.1952,1.1952,0,0,0-.3233-.0062L264.53,263.9862a1.1939,1.1939,0,0,0-.9149,1.7469l.51.9567c-3.1387.2236-6.9021.4828-7.61.5084a18.5239,18.5239,0,0,1-2.8308-1.7135,1.1985,1.1985,0,0,0-.8263-.2095l-10.9859,1.2887a1.1937,1.1937,0,0,0-1.0547,1.1858v1.3839H231.642l-1.0166-1.4309a1.1941,1.1941,0,0,0-.9731-.5025h-10.3a1.1938,1.1938,0,0,0-1.1938,1.1938v.74h-6.4942l-2.3884-2.8028a4.1365,4.1365,0,0,0-1.2522-.7415,1.1661,1.1661,0,0,0-.7029.2544l-8.75-.5475a1.19,1.19,0,0,0-.8456-.3517,1.1771,1.1771,0,0,0-1.1467.9606l-3.576,1.9176-6.4644-.4667.1446-.2036a1.194,1.194,0,0,0-.7781-1.8694L174.2326,263.35a1.2088,1.2088,0,0,0-.8286.1659l-3.44,2.1523a1.1725,1.1725,0,0,0-.3892-.0785,1.137,1.137,0,0,0-.2344.0473l-3.4658-1.22a1.1874,1.1874,0,0,0-.2561-.4021v-.7759a1.1941,1.1941,0,0,0-.8628-1.1469l-8.9253-2.5777a1.1824,1.1824,0,0,0-.5317-.03l-7.3419,1.2526-.3809-.0715a1.1949,1.1949,0,0,0-.4951-1.7294l-9.6124-4.5113a1.1932,1.1932,0,0,0-.6786-.1006l-8.456,1.2211-.8883-.6253,2.5961-1.6246a1.1941,1.1941,0,0,0-.126-2.0927l-6.8663-3.2221a1.2105,1.2105,0,0,0-.6008-.11l-7.7135.6036-1.0789-1.0128,2.5276-1.1861a1.1942,1.1942,0,0,0,.126-2.0928l-4.12-2.5778a1.1951,1.1951,0,0,0-.6334-.1819H103.789l-.4709-.4422,4.23-.3972a1.1939,1.1939,0,0,0,.9079-1.8094l-2.7461-4.5109a1.1939,1.1939,0,0,0-1.02-.5732H97.9262l-.43-1.0085,4.57-.4769a1.1944,1.1944,0,0,0,1.0571-1.3668l-.6862-4.5112a1.1949,1.1949,0,0,0-1.0354-1.0055l-6.6758-.8172.0162-.11,6.6161-.5643a1.1949,1.1949,0,0,0,1.082-1.0322l.6863-5.1552a1.1944,1.1944,0,0,0-1.0719-1.3462l-5.53-.5188Zm15.0058,29.2382,1.4661.9169-1.4661.6879Zm-6.6718-6.361.3761.6179-.3761.0353ZM94.5544,226.8885l5.6584.6926.3616,2.3788-4.9341.5145c-.0241.0025-.0461.0118-.07.0157a1.1887,1.1887,0,0,0-.8365-.3444,1.1293,1.1293,0,0,0-.18.0362Zm2.06-8.7049,3.9819.3734-.3964,2.9746-3.5855.3058ZM97.9876,270.1V236.0777H102.66v2.5663l-2.2013.2066a1.1923,1.1923,0,0,0-.7133,2.0486V270.1Zm4.4787,9.1923-.3335-.237V243.1431l.3551.3333a1.08,1.08,0,0,0-.0216.1074Zm2.3877,1.0011V243.8107h4.4777v36.0627Zm6.8654-1.5125V248.919l1.7327,1.6256V285.36Zm4.12,8.0742V250.7829l4.9108-.3841v36.4564Zm7.2986.292V250.66l3.779,1.7732-2.2627,1.4158a1.1944,1.1944,0,0,0-.0537,1.9882l.5209.3667v31.7691Zm4.3713,2.6116v-31.914a1.1534,1.1534,0,0,0,.6956.1312l1.0384-.15v35.0433l-1.734-.5421Zm4.1218,5.8818,5.7959-.6043a1.1784,1.1784,0,0,0,1.0265-.9536l5.0666,3.2815a1.1458,1.1458,0,0,0,.1423.0653v1.5747a1.1941,1.1941,0,0,0,.7742,1.1177l3.4323,1.2891c.0078.003.0161.0017.024.0044a1.1837,1.1837,0,0,0,.3957.0722,1.2319,1.2319,0,0,0,.1851-.0285,1.1793,1.1793,0,0,0,.17-.026l.002,0,6.18-1.9334a1.1939,1.1939,0,0,0,.837-1.1395v-1.3791l7.911,3.545v2.3453a1.193,1.193,0,0,0,.63,1.052l4.8065,2.5775a1.1742,1.1742,0,0,0,.1488.0574c.0349.0131.0674.03.1033.04a1.1854,1.1854,0,0,0,.3.043l.0133.0019.0059-.0013a1.1907,1.1907,0,0,0,.4248-.091c.0181-.0071.0372-.0038.0552-.0118l5.77-2.5775a1.1933,1.1933,0,0,0,.7072-1.09v-.1017l6.9472,2.258v2.9989a1.1937,1.1937,0,0,0,.8978,1.1566l7.5526,1.9335.0093.0011a1.2,1.2,0,0,0,.2766.0349l.01.0012h.0007a1.1879,1.1879,0,0,0,.3689-.061,1.21,1.21,0,0,0,.1193-.0588,1.165,1.165,0,0,0,.1982-.0978l3.7774-2.6589,22.0449,4.1357,15.5531,4.2576v54.33L131.6315,349.5882Zm13.7287,59.25,89.8844,18.7474a1.2106,1.2106,0,0,0,.2456.0256l.0134-.0023a1.1841,1.1841,0,0,0,.3447-.06,1.1406,1.1406,0,0,0,.1109-.046,1.2,1.2,0,0,0,.13-.0543l9.9559-5.7956V527.1013a1.1765,1.1765,0,0,0,.0821.4064L145.0144,497.0888Zm149.339,141.6908-46.2659,30.2265V366.3472c0-.01-.0056-.0184-.0059-.0284L294.3769,339.57ZM236.6826,370.3928V316.5075l20.4375-9.9a1.1606,1.1606,0,0,0,.1841-.0311l7.4135-2.5774.0064-.0037.0075-.0013L273.58,300.8l5.3442,2.5077c.0188.0087.0386.0118.0574.0195.0232.0094.0461.0159.07.0238a1.1838,1.1838,0,0,0,.3791.07l.0039,0a1.2288,1.2288,0,0,0,.136-.008l5.4929-.6444a1.1934,1.1934,0,0,0,1.0547-1.1856V295.791l6.8446,1.1679a1.1843,1.1843,0,0,0,.2.0168l.0011,0H297.97a1.1293,1.1293,0,0,0,.1787-.0361v.7756a1.1937,1.1937,0,0,0,1.7582,1.052l4.8065-2.5777a1.1871,1.1871,0,0,0,.62-1.1067l.918-.718v35.53Zm74.1533-67.48,38.1217,20.0124v26.3576l-38.1217-18.7995Zm8.2353,34.2938,21.6474,10.6753V429.75l-21.9025-11.8927Zm62.53,81.9575-38.4947,11.0092V349.06l6.5173,3.214a1.1927,1.1927,0,0,0,.9226.056l31.0548-10.8863Zm-30.2557-69.6448V323.0611l36.2493-12.2084v25.96Z"/></g></svg>