<svg xmlns="http://www.w3.org/2000/svg" viewBox="0 0 137.8335 113.2918"><defs><style>.a{fill:#d91519;}</style></defs><title>termometro</title><path class="a" d="M70.4884,95.6754c-10.17,0-18.7618-8.3766-18.7618-18.2917,0-7.4516,5.2885-13.1719,7.5351-15.2638V27.7971c0-5.5184,4.8789-10.1807,10.6538-10.1807s10.6538,4.6623,10.6538,10.1807V62.4506A18.1785,18.1785,0,0,1,70.4884,95.6754ZM69.9155,20.28c-4.2566,0-7.99,3.5126-7.99,7.5172V62.71a1.3325,1.3325,0,0,1-.4513.9992C58.05,66.7273,54.39,71.9047,54.39,77.3837c0,8.4715,7.372,15.6283,16.0984,15.6283A15.3477,15.3477,0,0,0,85.8832,77.3837a15.7025,15.7025,0,0,0-7.37-13.1082,1.3312,1.3312,0,0,1-.6073-1.1174V27.7971C77.9059,23.7925,74.1721,20.28,69.9155,20.28Z"/><path class="a" d="M79.2376,34.619h-7.99a1.3318,1.3318,0,0,1,0-2.6635h7.99a1.3318,1.3318,0,0,1,0,2.6635Z"/><path class="a" d="M79.2376,44.6069h-7.99a1.3317,1.3317,0,0,1,0-2.6634h7.99a1.3317,1.3317,0,1,1,0,2.6634Z"/><path class="a" d="M79.2376,53.929h-7.99a1.3318,1.3318,0,0,1,0-2.6635h7.99a1.3318,1.3318,0,0,1,0,2.6635Z"/><path class="a" d="M79.2376,63.9169h-7.99a1.3317,1.3317,0,0,1,0-2.6634h7.99a1.3317,1.3317,0,0,1,0,2.6634Z"/><path class="a" d="M53.1709,78.1264c5.2535-15.4855,27.8044,16.181,32.9661-1.1054,0,0-.0481,15.943-13.5117,17.1895S51.0732,84.313,53.1709,78.1264Z"/><path class="a" d="M69.89,113.2918a56.6459,56.6459,0,1,1,56.6464-56.6457A56.7093,56.7093,0,0,1,69.89,113.2918Zm0-110.6284a53.9825,53.9825,0,1,0,53.9829,53.9827A54.0434,54.0434,0,0,0,69.89,2.6634Z"/><path class="a" d="M15.3148,49.9338H1.3317a1.3317,1.3317,0,1,1,0-2.6634H15.3148a1.3317,1.3317,0,1,1,0,2.6634Z"/><path class="a" d="M15.3148,69.2438H1.3317a1.3317,1.3317,0,1,1,0-2.6634H15.3148a1.3317,1.3317,0,1,1,0,2.6634Z"/><path class="a" d="M136.5017,49.9338h-11.32a1.3317,1.3317,0,1,1,0-2.6634h11.32a1.3317,1.3317,0,1,1,0,2.6634Z"/><path class="a" d="M136.5017,69.2438h-11.32a1.3317,1.3317,0,1,1,0-2.6634h11.32a1.3317,1.3317,0,1,1,0,2.6634Z"/></svg>