<svg xmlns="http://www.w3.org/2000/svg" viewBox="0 0 219.4215 106.5908"><defs><style>.a{fill:#d91519;}.b{opacity:0.4;}</style></defs><title>undiad_proc</title><path class="a" d="M95.1291,106.5908H18.356a5.1441,5.1441,0,0,1-5.1381-5.138V5.1381A5.1441,5.1441,0,0,1,18.356,0H95.1291a5.1441,5.1441,0,0,1,5.1381,5.1381v96.3147A5.1441,5.1441,0,0,1,95.1291,106.5908ZM18.356,2.936a2.2045,2.2045,0,0,0-2.202,2.2021v96.3147a2.2045,2.2045,0,0,0,2.202,2.202H95.1291a2.2045,2.2045,0,0,0,2.202-2.202V5.1381a2.2045,2.2045,0,0,0-2.202-2.2021Z"/><path class="a" d="M14.686,20.5172H1.468a1.468,1.468,0,0,1,0-2.936H14.686a1.468,1.468,0,0,1,0,2.936Z"/><path class="a" d="M14.686,43.3479H1.468a1.468,1.468,0,0,1,0-2.936H14.686a1.468,1.468,0,1,1,0,2.936Z"/><path class="a" d="M14.686,66.1786H1.468a1.468,1.468,0,1,1,0-2.936H14.686a1.468,1.468,0,0,1,0,2.936Z"/><path class="a" d="M14.686,89.01H1.468a1.4681,1.4681,0,0,1,0-2.9361H14.686a1.4681,1.4681,0,0,1,0,2.9361Z"/><path class="a" d="M112.0171,21.1179H98.7991a1.4681,1.4681,0,0,1,0-2.9361h13.218a1.4681,1.4681,0,0,1,0,2.9361Z"/><path class="a" d="M112.0171,43.949H98.7991a1.4681,1.4681,0,0,1,0-2.9361h13.218a1.4681,1.4681,0,0,1,0,2.9361Z"/><path class="a" d="M112.0171,66.78H98.7991a1.4681,1.4681,0,0,1,0-2.9361h13.218a1.4681,1.4681,0,0,1,0,2.9361Z"/><path class="a" d="M112.0171,89.61H98.7991a1.4681,1.4681,0,0,1,0-2.9361h13.218a1.4681,1.4681,0,0,1,0,2.9361Z"/><path class="a" d="M51.3557,66.0686A23.4451,23.4451,0,0,1,47.59,65.74a1.4671,1.4671,0,0,1-1.1311-.91l-2.8529-7.2272-7.133,2.1845a1.47,1.47,0,0,1-1.4515-.3491,23.4588,23.4588,0,0,1-4.6693-6.39,1.4671,1.4671,0,0,1,.04-1.3874l3.55-6.1764-5.3345-3.6525a1.4684,1.4684,0,0,1-.6329-1.3408,23.2571,23.2571,0,0,1,2.3991-8.42,1.4668,1.4668,0,0,1,1.09-.7924l5.9273-.9054-.4014-5.5a1.47,1.47,0,0,1,.6021-1.2949A23.2463,23.2463,0,0,1,46.14,19.6968a1.4655,1.4655,0,0,1,1.3218.3534l3.8944,3.5987L55.2494,20.05a1.4655,1.4655,0,0,1,1.3218-.3534,23.2467,23.2467,0,0,1,8.548,3.8819,1.47,1.47,0,0,1,.6021,1.2949l-.4014,5.5,5.9273.9054a1.4668,1.4668,0,0,1,1.09.7924,23.2572,23.2572,0,0,1,2.3992,8.42,1.4684,1.4684,0,0,1-.633,1.3408l-5.3344,3.6525,3.55,6.1764a1.4671,1.4671,0,0,1,.04,1.3874,23.4568,23.4568,0,0,1-4.6693,6.39,1.467,1.467,0,0,1-1.4515.3491l-7.133-2.1845L56.2523,64.83a1.4672,1.4672,0,0,1-1.1312.91A23.4368,23.4368,0,0,1,51.3557,66.0686Zm-2.478-3.107a17.9571,17.9571,0,0,0,4.9553,0l3.0393-7.6985a1.4648,1.4648,0,0,1,1.7956-.8645L66.25,56.72a20.5267,20.5267,0,0,0,3.1224-4.294l-3.8249-6.6549a1.4685,1.4685,0,0,1,.4437-1.9429L71.72,39.9062a20.3173,20.3173,0,0,0-1.6816-5.8417l-6.5022-.9931a1.4685,1.4685,0,0,1-1.2429-1.558l.4394-6.02a20.2773,20.2773,0,0,0-6.0707-2.75l-4.3094,3.9829a1.4683,1.4683,0,0,1-1.9927,0l-4.31-3.9833a20.2877,20.2877,0,0,0-6.0706,2.7508l.4394,6.02a1.4685,1.4685,0,0,1-1.243,1.558l-6.5022.9931a20.32,20.32,0,0,0-1.6816,5.8417L36.72,43.8285a1.4683,1.4683,0,0,1,.4437,1.9429l-3.8248,6.6549a20.5231,20.5231,0,0,0,3.1224,4.294l7.5817-2.3217a1.4669,1.4669,0,0,1,1.7956.8645Z"/><path class="a" d="M51.3557,50.3415a7.759,7.759,0,1,1,7.7588-7.7591A7.7681,7.7681,0,0,1,51.3557,50.3415Zm0-12.5818a4.8229,4.8229,0,1,0,4.8227,4.8227A4.8286,4.8286,0,0,0,51.3557,37.76Z"/><path class="a" d="M69.005,95.1165a17.1651,17.1651,0,0,1-2.75-.2387,1.4681,1.4681,0,0,1-1.1311-.91l-1.89-4.7858L58.526,90.6236a1.469,1.469,0,0,1-1.4516-.3495,17.13,17.13,0,0,1-3.41-4.6664,1.4671,1.4671,0,0,1,.04-1.3874l2.3339-4.0618-3.4779-2.3816a1.4686,1.4686,0,0,1-.633-1.3408,16.9924,16.9924,0,0,1,1.7526-6.15,1.4683,1.4683,0,0,1,1.09-.7924l3.8364-.5864L58.35,65.3776a1.47,1.47,0,0,1,.6022-1.2946,16.98,16.98,0,0,1,6.2448-2.8353,1.4686,1.4686,0,0,1,1.3211.3534L69.005,63.9l2.488-2.2988a1.466,1.466,0,0,1,1.3218-.3534,16.9849,16.9849,0,0,1,6.2441,2.8353,1.47,1.47,0,0,1,.6022,1.2949l-.2581,3.5292,3.8371.5864a1.4689,1.4689,0,0,1,1.091.7928,16.988,16.988,0,0,1,1.7511,6.15,1.4673,1.4673,0,0,1-.6329,1.34l-3.478,2.3816L84.306,84.22a1.4671,1.4671,0,0,1,.04,1.3874,17.1369,17.1369,0,0,1-3.4106,4.6664,1.4674,1.4674,0,0,1-1.4515.3495l-4.708-1.4419-1.8895,4.7858a1.468,1.468,0,0,1-1.1318.91A17.167,17.167,0,0,1,69.005,95.1165Zm-1.4645-3.0242a12.1359,12.1359,0,0,0,2.93,0l2.0731-5.2506a1.4652,1.4652,0,0,1,1.7956-.8645l5.1481,1.5766a14.1883,14.1883,0,0,0,1.8687-2.5747l-2.6063-4.5338a1.4685,1.4685,0,0,1,.4437-1.943l3.865-2.6464a14.0423,14.0423,0,0,0-1.0343-3.5783l-4.4048-.6731a1.4687,1.4687,0,0,1-1.243-1.558l.2954-4.041A14.029,14.029,0,0,0,72.9,64.2988l-2.8987,2.678a1.4685,1.4685,0,0,1-1.9928,0l-2.898-2.6784a14.03,14.03,0,0,0-3.7712,1.7071l.2946,4.041a1.4684,1.4684,0,0,1-1.2429,1.558l-4.4041.6731a14.0441,14.0441,0,0,0-1.035,3.5783l3.865,2.6464a1.4686,1.4686,0,0,1,.4437,1.943l-2.6056,4.5338a14.2044,14.2044,0,0,0,1.868,2.5747l5.1488-1.5766a1.4664,1.4664,0,0,1,1.7956.8645Z"/><path class="a" d="M69.005,83.9125a5.95,5.95,0,1,1,5.95-5.95A5.9562,5.9562,0,0,1,69.005,83.9125Zm0-8.963a3.0135,3.0135,0,1,0,3.0135,3.0134A3.017,3.017,0,0,0,69.005,74.95Z"/><path class="a" d="M131.2806,66.7847a1.4681,1.4681,0,0,1-1.038-2.506,15.55,15.55,0,0,0,0-21.9666,1.4679,1.4679,0,0,1,2.0759-2.0759,18.489,18.489,0,0,1,0,26.1184A1.4633,1.4633,0,0,1,131.2806,66.7847Z"/><path class="a" d="M136.1585,71.6629a1.468,1.468,0,0,1-1.038-2.5059,22.4311,22.4311,0,0,0,0-31.7231,1.4679,1.4679,0,0,1,2.0759-2.0759,25.3661,25.3661,0,0,1,0,35.8748A1.4628,1.4628,0,0,1,136.1585,71.6629Z"/><path class="a" d="M141.3854,76.89a1.468,1.468,0,0,1-1.0379-2.5059,29.8583,29.8583,0,0,0,0-42.1763,1.4679,1.4679,0,0,1,2.0759-2.0759,32.797,32.797,0,0,1,0,46.328A1.4632,1.4632,0,0,1,141.3854,76.89Z"/><g class="b"><path class="a" d="M211.1911,100.0933H175.3464a8.24,8.24,0,0,1-8.23-8.23V14.7279a8.24,8.24,0,0,1,8.23-8.2307h35.8447a8.24,8.24,0,0,1,8.23,8.2307v77.135A8.24,8.24,0,0,1,211.1911,100.0933Zm-35.8447-90.66a5.3,5.3,0,0,0-5.2944,5.2947v77.135a5.3,5.3,0,0,0,5.2944,5.2944h35.8447a5.3,5.3,0,0,0,5.2943-5.2944V14.7279a5.3,5.3,0,0,0-5.2943-5.2947Z"/></g><g class="b"><path class="a" d="M207.6773,82.8344H178.86a5.1441,5.1441,0,0,1-5.1381-5.1381V18.2413a5.144,5.144,0,0,1,5.1381-5.138h28.8171a5.1441,5.1441,0,0,1,5.1381,5.138v59.455A5.1441,5.1441,0,0,1,207.6773,82.8344ZM178.86,16.0393a2.2045,2.2045,0,0,0-2.2021,2.202v59.455a2.2044,2.2044,0,0,0,2.2021,2.202h28.8171a2.2043,2.2043,0,0,0,2.202-2.202V18.2413a2.2044,2.2044,0,0,0-2.202-2.202Z"/></g><g class="b"><path class="a" d="M192.9971,94.5786a4.4041,4.4041,0,1,1,4.404-4.4041A4.4089,4.4089,0,0,1,192.9971,94.5786Zm0-5.8721a1.468,1.468,0,1,0,1.468,1.468A1.47,1.47,0,0,0,192.9971,88.7065Z"/></g><g class="b"><circle class="a" cx="192.9971" cy="63.7502" r="2.936"/><polygon class="a" points="195.346 54.942 190.648 54.942 189.327 27.784 196.667 27.784 195.346 54.942"/></g></svg>